<svg class="main-svg" xmlns="http://www.w3.org/2000/svg" xmlns:xlink="http://www.w3.org/1999/xlink" width="750" height="960" style="" viewBox="0 0 750 960"><rect x="0" y="0" width="750" height="960" style="fill: rgb(255, 255, 255); fill-opacity: 1;"/><defs id="defs-208456"><g class="clips"><clipPath id="clip208456xyplot" class="plotclip"><rect width="625" height="254.22222222222223"/></clipPath><clipPath id="clip208456x2y2plot" class="plotclip"><rect width="625" height="254.22222222222214"/></clipPath><clipPath id="clip208456x3y3plot" class="plotclip"><rect width="625" height="254.2222222222222"/></clipPath><clipPath class="axesclip" id="clip208456x"><rect x="95" y="0" width="625" height="960"/></clipPath><clipPath class="axesclip" id="clip208456y"><rect x="0" y="76" width="750" height="254.22222222222223"/></clipPath><clipPath class="axesclip" id="clip208456xy"><rect x="95" y="76" width="625" height="254.22222222222223"/></clipPath><clipPath class="axesclip" id="clip208456y2"><rect x="0" y="364.88888888888897" width="750" height="254.22222222222214"/></clipPath><clipPath class="axesclip" id="clip208456xy2"><rect x="95" y="364.88888888888897" width="625" height="254.22222222222214"/></clipPath><clipPath class="axesclip" id="clip208456y3"><rect x="0" y="653.7777777777777" width="750" height="254.2222222222222"/></clipPath><clipPath class="axesclip" id="clip208456xy3"><rect x="95" y="653.7777777777777" width="625" height="254.2222222222222"/></clipPath><clipPath class="axesclip" id="clip208456x2"><rect x="95" y="0" width="625" height="960"/></clipPath><clipPath class="axesclip" id="clip208456x2y"><rect x="95" y="76" width="625" height="254.22222222222223"/></clipPath><clipPath class="axesclip" id="clip208456x2y2"><rect x="95" y="364.88888888888897" width="625" height="254.22222222222214"/></clipPath><clipPath class="axesclip" id="clip208456x2y3"><rect x="95" y="653.7777777777777" width="625" height="254.2222222222222"/></clipPath><clipPath class="axesclip" id="clip208456x3"><rect x="95" y="0" width="625" height="960"/></clipPath><clipPath class="axesclip" id="clip208456x3y"><rect x="95" y="76" width="625" height="254.22222222222223"/></clipPath><clipPath class="axesclip" id="clip208456x3y2"><rect x="95" y="364.88888888888897" width="625" height="254.22222222222214"/></clipPath><clipPath class="axesclip" id="clip208456x3y3"><rect x="95" y="653.7777777777777" width="625" height="254.2222222222222"/></clipPath></g><g class="gradients"/><g class="patterns"/></defs><g class="bglayer"><rect class="bg" x="95" y="76" width="625" height="254.22222222222223" style="fill: rgb(229, 236, 246); fill-opacity: 1; stroke-width: 0;"/><rect class="bg" x="95" y="364.88888888888897" width="625" height="254.22222222222214" style="fill: rgb(229, 236, 246); fill-opacity: 1; stroke-width: 0;"/><rect class="bg" x="95" y="653.7777777777777" width="625" height="254.2222222222222" style="fill: rgb(229, 236, 246); fill-opacity: 1; stroke-width: 0;"/></g><g class="layer-below"><g class="imagelayer"/><g class="shapelayer"/></g><g class="cartesianlayer"><g class="subplot xy"><g class="layer-subplot"><g class="shapelayer"/><g class="imagelayer"/></g><g class="minor-gridlayer"><g class="x"/><g class="y"/></g><g class="gridlayer"><g class="x"><path class="xgrid crisp" transform="translate(164.67000000000002,0)" d="M0,76v254.22222222222223" style="stroke: rgb(255, 255, 255); stroke-opacity: 1; stroke-width: 1px;"/><path class="xgrid crisp" transform="translate(277.63,0)" d="M0,76v254.22222222222223" style="stroke: rgb(255, 255, 255); stroke-opacity: 1; stroke-width: 1px;"/><path class="xgrid crisp" transform="translate(390.6,0)" d="M0,76v254.22222222222223" style="stroke: rgb(255, 255, 255); stroke-opacity: 1; stroke-width: 1px;"/><path class="xgrid crisp" transform="translate(503.87,0)" d="M0,76v254.22222222222223" style="stroke: rgb(255, 255, 255); stroke-opacity: 1; stroke-width: 1px;"/><path class="xgrid crisp" transform="translate(616.83,0)" d="M0,76v254.22222222222223" style="stroke: rgb(255, 255, 255); stroke-opacity: 1; stroke-width: 1px;"/></g><g class="y"><path class="ygrid crisp" transform="translate(0,290.41999999999996)" d="M95,0h625" style="stroke: rgb(255, 255, 255); stroke-opacity: 1; stroke-width: 1px;"/><path class="ygrid crisp" transform="translate(0,255.36)" d="M95,0h625" style="stroke: rgb(255, 255, 255); stroke-opacity: 1; stroke-width: 1px;"/><path class="ygrid crisp" transform="translate(0,220.29)" d="M95,0h625" style="stroke: rgb(255, 255, 255); stroke-opacity: 1; stroke-width: 1px;"/><path class="ygrid crisp" transform="translate(0,185.23000000000002)" d="M95,0h625" style="stroke: rgb(255, 255, 255); stroke-opacity: 1; stroke-width: 1px;"/><path class="ygrid crisp" transform="translate(0,150.16)" d="M95,0h625" style="stroke: rgb(255, 255, 255); stroke-opacity: 1; stroke-width: 1px;"/><path class="ygrid crisp" transform="translate(0,115.1)" d="M95,0h625" style="stroke: rgb(255, 255, 255); stroke-opacity: 1; stroke-width: 1px;"/><path class="ygrid crisp" transform="translate(0,80.04)" d="M95,0h625" style="stroke: rgb(255, 255, 255); stroke-opacity: 1; stroke-width: 1px;"/></g></g><g class="zerolinelayer"><path class="yzl zl crisp" transform="translate(0,325.48)" d="M95,0h625" style="stroke: rgb(255, 255, 255); stroke-opacity: 1; stroke-width: 2px;"/></g><path class="xlines-below"/><path class="ylines-below"/><g class="overlines-below"/><g class="xaxislayer-below"/><g class="yaxislayer-below"/><g class="overaxes-below"/><g class="plot" transform="translate(95,76)" clip-path="url(#clip208456xyplot)"><g class="scatterlayer mlayer"><g class="trace scatter tracea12d37b2-c252-4189-9ccd-239b77e2c97a" style="stroke-miterlimit: 2; opacity: 1;"><g class="fills"/><g class="errorbars"/><g class="lines"><path class="js-line" d="M27.28,234.46L28.51,235.4L28.82,235.32L31.92,232.53L32.23,233.8L32.54,233.67L32.85,235.11L33.77,233.03L34.08,234.47L35.32,234.89L35.63,235.65L35.94,238.3L36.25,236.51L36.56,236.46L36.87,236.51L37.18,235.34L38.42,236.88L38.73,236.23L39.04,236.65L39.34,235.74L39.65,235.87L39.96,234.78L40.58,234.85L40.89,234.13L43.06,233.98L43.37,233.22L44.3,232.58L44.61,230.45L45.22,228.9L45.84,229.29L46.15,229.87L46.46,230.16L46.77,229.55L47.08,228.41L48.01,228.74L48.32,230.28L48.94,228.93L49.25,229.26L49.56,229.43L51.11,224.87L51.41,224.54L52.03,223.73L52.34,225.08L52.96,223.88L53.27,224.66L53.58,226.67L54.2,229.11L54.51,226.81L54.82,226.43L55.13,224.1L55.44,221.91L56.06,222.27L56.37,221.3L57.29,220.71L57.6,221.36L57.91,220.95L58.22,218.98L59.15,214.78L59.46,215.52L59.77,214.99L61.01,208.88L61.32,208.46L61.94,191.28L62.25,193.8L62.56,198.09L62.87,197.24L63.17,191.32L63.79,193.27L64.1,192.21L64.41,187.98L64.72,182.5L65.34,183.37L65.65,188.84L66.89,202.85L67.2,202.15L67.51,201.45L67.82,194.47L68.13,195.28L68.44,199.76L68.75,199.07L69.06,205.86L70.29,197.17L70.6,196.68L71.22,189.63L71.53,192.86L72.77,203.06L73.08,201.31L73.39,199.66L73.7,202.24L74.01,202.01L74.32,211.26L74.94,211.05L75.24,209.25L75.55,204.6L75.86,209.06L76.17,211.76L76.48,211.62L76.79,209.69L77.41,210.6L77.72,209.19L78.03,207.83L78.34,210.03L79.58,218.37L79.89,217.23L80.51,225.15L80.82,222.65L81.12,222.84L81.43,222.19L81.74,219.04L82.36,221.21L82.67,218.27L82.98,219.54L83.29,216.35L84.84,210.38L85.15,210.21L86.39,215.49L86.7,215.86L87.93,211.19L88.24,210.78L88.86,209.11L89.17,209.32L89.48,211.91L90.72,218.73L91.03,216.06L92.89,222.05L93.19,220.77L93.81,218.24L94.12,218.33L94.43,218.9L94.74,218.28L95.05,219.52L95.67,220.96L95.98,222.15L96.29,221.61L96.6,224.62L97.53,225.6L97.84,224.74L98.15,223.52L98.46,225.65L99.07,226.34L99.38,225.31L99.69,224.88L100,225.7L100.31,225.49L100.62,225.1L100.93,221.7L101.55,221.44L101.86,220.19L102.48,221.84L102.79,220.83L103.1,220.46L103.72,218.22L104.03,218.67L104.34,218.16L104.65,215.75L104.95,218.38L105.26,216.99L105.57,218.22L105.88,216.71L106.19,216.46L106.81,217.68L107.12,217.06L107.43,215.3L108.36,215.62L108.67,216.65L109.6,217.92L109.91,220.03L110.84,219.11L111.14,219.81L111.76,221.29L112.07,220.59L112.38,220.61L112.69,219.59L113,220.1L113.31,221.51L114.24,223.34L114.55,223.77L114.86,223.75L115.17,224.59L116.1,223.24L116.41,223.11L117.02,222.44L117.33,223.23L118.26,222.52L118.57,222.82L118.88,223.22L119.19,225.76L119.5,225.39L119.81,226.59L120.12,227.42L120.43,226.22L120.74,227.08L121.05,226.75L121.36,226.87L121.67,225.95L122.6,225.93L122.9,228.29L123.83,227.56L124.14,228.2L124.45,227.98L124.76,228.96L126,226.29L126.31,226.64L127.86,225.95L128.17,226.12L129.09,227.57L129.4,227.69L130.02,227.21L130.33,225.91L131.26,223.31L131.57,223.76L132.19,223.56L132.5,222.41L132.81,220.04L133.12,220.82L133.43,221.71L134.36,220.69L134.67,220.82L136.21,224.91L136.52,224.86L137.14,225.92L137.45,227.45L137.76,226.59L138.07,227.94L138.38,227.63L139.62,227.51L139.93,227.35L140.24,226.4L140.85,226.77L141.16,227.55L142.4,226.06L142.71,225.87L143.02,225.99L143.33,225.26L144.26,224.99L144.57,224.9L145.81,223.68L146.12,225.99L147.04,227.8L147.35,227.57L147.66,227.35L148.28,227.26L148.59,226.74L149.52,226.68L149.83,227.57L151.69,225.96L152,226.41L152.62,226.82L152.92,226.03L154.78,226.66L155.09,226.36L156.95,226.23L157.26,227.56L158.19,227.26L158.5,225.81L159.42,226.28L159.73,226.59L160.97,226.51L161.28,226.46L163.76,227.01L164.07,226.92L164.99,226.8L165.3,226.63L165.92,226.76L166.23,226.97L167.47,226.84L167.78,228.72L169.02,229.63L169.33,232.27L170.26,234.16L170.57,233.98L171.49,235.94L171.8,235.9L172.42,234.42L172.73,235.31L173.35,234.89L173.66,235.87L173.97,235.63L174.28,236.27L174.59,237.18L175.21,237.52L175.52,237.05L177.37,238.22L177.68,238.16L178.92,235.29L179.23,236.02L180.16,235.43L180.47,236.35L180.78,236.24L181.09,236.97L182.02,236.15L182.33,236.5L183.56,236.19L183.87,236.26L184.8,235.62L185.11,235.58L186.04,236.92L186.35,237.29L187.28,236.89L187.59,236.8L192.23,237.35L192.54,237.2L194.09,237.57L194.4,236.65L197.18,236.62L197.49,235.81L199.04,235.05L199.35,236.36L200.58,236.11L200.89,236.08L203.06,235.93L203.37,235.66L205.23,235.73L205.54,235.44L208.63,235.64L208.94,235.33L210.49,234.95L210.8,232.45L213.27,230.87L213.58,231.89L217.61,230.5L217.92,231.18L218.84,230.87L219.15,231.12L222.25,227.71L222.56,227.14L223.8,221.62L224.11,220.84L225.03,224.04L225.34,220.91L226.27,222.74L226.58,221.95L226.89,221.56L227.2,221.34L227.51,219.28L228.13,218.92L228.44,219.17L228.75,220.49L229.68,218.89L229.99,221.03L230.3,222.53L230.91,222.18L231.22,221.5L231.84,222.74L232.15,221.49L232.46,221.84L232.77,220.99L233.08,220.67L233.39,219.15L235.25,216.11L235.56,213.86L237.1,203.57L237.41,209.76L237.72,206L238.03,207.75L238.34,211.43L238.65,212.23L238.96,211.47L239.27,207.62L239.89,211.02L240.2,210.01L240.51,209.49L241.13,205.5L241.44,207.03L241.75,209.71L242.06,208.26L242.36,209.67L242.67,213.81L242.98,211.48L243.29,216.39L243.6,215.59L243.91,212.22L245.15,213.23L245.46,214.89L247.32,216.15L247.63,215.91L249.48,208.01L249.79,209.23L250.41,207.41L250.72,207.83L251.03,209.83L251.34,208.99L251.65,209.53L251.96,211.29L252.27,214.24L252.89,213.26L253.2,213.66L253.51,213.34L253.82,211.21L254.13,211.75L254.43,213.92L254.74,214.07L255.05,213.05L255.67,213.92L255.98,213.12L256.91,216.18L257.53,215.87L257.84,215.39L258.46,212.26L258.77,212.43L259.08,212.44L259.39,213.37L260.01,213.08L260.31,213.36L260.62,214.08L260.93,213.87L261.24,212.97L263.1,213.87L263.41,213.56L264.65,215.46L264.96,219.7L265.27,219.93L265.58,221.21L266.19,220.74L266.5,221.28L267.43,220.17L267.74,220.65L268.67,221.94L268.98,220.77L269.29,220.84L269.6,219.47L269.91,219.48L270.22,220.53L271.15,220.21L271.46,220.87L272.69,221.62L273,220.65L273.62,221.36L273.93,223.3L274.24,223.49L274.55,219.14L275.17,216.07L275.48,217.21L275.79,216.5L276.41,217.43L276.72,217.11L277.03,216.91L277.96,216.84L278.26,216.74L279.19,218.6L279.5,217.79L280.43,218.71L280.74,219.17L282.29,220.96L282.6,221.09L283.84,225.28L284.14,224.56L284.45,224.39L284.76,223.16L285.07,223.47L285.38,222.35L286.93,224.26L287.24,223.58L288.17,223.15L288.48,223.75L289.41,224.25L289.72,224.03L290.95,226.26L291.26,223.97L292.19,224.47L292.5,223.18L293.74,224.23L294.05,224.05L294.67,223.58L294.98,224.08L295.29,224.26L295.6,224.24L295.91,225.06L297.45,220.92L297.76,221.24L298.07,222.07L298.38,220.74L298.69,221.36L299.31,221.05L299.62,218.59L300.86,218.22L301.17,218.97L303.02,220.24L303.33,219.28L304.57,216.13L304.88,216.69L305.81,216.9L306.12,217.24L307.36,214.79L307.67,213.89L307.97,214.94L308.28,213.64L308.59,213.28L308.9,213.62L309.21,213.21L309.52,214.75L309.83,214.71L310.14,215.45L310.45,213.84L310.76,215.85L311.07,215.84L312,214.64L312.31,215.63L313.86,219.6L314.16,219.57L314.47,218.22L315.09,218.8L315.4,217.74L315.71,217.46L316.02,218.32L316.95,221.8L317.26,221.66L317.57,232.65L318.19,231.35L318.5,230.69L318.81,231.85L319.12,230.86L319.43,230.57L320.04,227.72L320.35,227.79L320.66,229.09L321.28,225.84L321.59,226.07L321.9,225.86L322.83,228.86L323.14,227.06L323.45,227.01L323.76,226.19L324.69,225.44L325,225.74L325.92,223.67L326.23,223.95L326.85,225.37L327.16,225.28L327.47,225.51L327.78,225.4L328.09,226.27L329.02,224.07L329.33,224.52L329.95,225.5L330.26,224.5L331.5,222.51L331.8,222.22L332.11,222.35L332.42,218.7L332.73,219.26L333.04,218.53L333.35,218.03L333.97,218.38L334.28,217.85L334.59,217.43L334.9,214.47L335.21,215.12L335.52,216.04L336.14,219.46L336.45,218.59L336.76,216.84L337.07,215.15L337.38,216.82L337.69,216.59L338.61,215.21L338.92,216.13L340.16,218.91L340.47,218.28L340.78,218.48L341.09,217.21L342.02,215.48L342.33,216.36L342.64,213.72L342.95,216.11L343.26,215.59L344.18,215.59L344.49,215.31L345.42,214.82L345.73,216.94L346.35,216.27L346.66,216.73L346.97,216.43L347.59,216.3L347.9,216.57L348.83,216.89L349.14,215.52L349.45,215.74L349.75,216.89L350.99,217.52L351.3,217.25L353.16,217.68L353.47,216.72L354.71,216.92L355.02,217.11L355.94,217.03L356.25,217.23L357.18,217.33L357.49,217.19L357.8,217.36L358.11,216.56L359.66,214.66L359.97,210.81L360.28,211.24L360.59,210.56L360.9,210.56L361.52,208.11L361.82,210.66L363.06,208.24L363.37,208.83L364.3,207.78L364.61,209.54L366.47,206.42L366.78,207.6L367.7,209.05L368.01,208.59L368.32,208.64L368.63,208.29L368.94,209.8L369.87,209.07L370.18,209.28L371.11,207.68L371.42,209.55L371.73,213.93L372.35,213.84L372.66,213.52L372.97,213.11L373.28,213.98L375.44,211.67L375.75,211.08L376.99,211.19L377.3,212.96L377.61,212.56L377.92,213.57L378.85,211.87L379.16,211.71L381.01,212.52L381.32,212.08L381.63,211.64L381.94,212.32L382.25,212.08L383.8,209.06L384.11,209.44L385.65,209.15L385.96,208.28L386.27,207.72L386.58,204.67L387.51,203.51L387.82,203.8L388.13,203.72L388.44,201.67L388.75,202.97L389.06,202.3L389.37,201.94L389.99,201.23L390.3,201.98L391.53,194.86L391.84,197.53L392.15,195.22L392.77,195.85L393.08,194.49L393.7,192.26L394.01,193.14L394.32,193.53L395.87,184.07L396.18,183.9L396.8,185.08L397.11,182.3L397.42,183.85L397.72,189.35L398.03,189.39L398.34,187.35L398.96,180.42L399.27,183.69L399.89,181.38L400.2,184.09L400.82,181.6L401.13,182.28L401.44,185.23L401.75,184.47L402.06,185.48L402.37,186.24L404.84,165.96L405.15,167.24L405.46,169.82L407.01,156.59L407.32,157.33L408.87,146.64L409.18,136.65L409.79,137.32L410.1,130.44L410.41,120.56L411.03,107.18L411.34,108.92L411.65,115.71L412.27,130.09L412.58,118.45L412.89,112.23L413.2,120.65L413.51,123.27L413.82,123.85L414.13,121.04L414.75,125.12L415.06,141.31L415.37,133.97L415.98,136.37L416.29,136.39L416.6,135.64L416.91,143.01L417.84,129.34L418.15,133.45L418.46,131.93L418.77,125.13L420.01,112.08L420.32,113.45L420.94,86.72L421.25,92.37L421.55,81.28L422.17,84.14L422.48,79.15L422.79,81.49L423.1,77.2L424.65,48.19L424.96,59.83L425.89,84.42L426.2,87.22L426.51,87.82L426.82,91.22L427.74,72.94L428.05,79.87L428.67,78.08L428.98,70.76L430.84,34.93L431.15,42.72L431.46,54.51L431.77,49.97L432.08,42.91L432.39,47.35L433.01,45.75L433.31,48.39L434.55,69.63L434.86,56.54L436.41,43.52L436.72,43.59L437.03,42.78L437.34,49.44L437.65,45.4L437.96,42.15L438.58,53.29L438.89,45.84L439.2,45.61L439.5,39.91L439.81,39.09L440.12,39.59L440.43,26.56L441.36,34.42L441.67,39.08L442.91,60.88L443.22,68.23L444.15,77.44L444.46,60.13L444.77,56.59L445.08,57.17L445.38,61.7L446,46.81L446.31,51.1L446.62,49.03L446.93,62.94L447.24,48.09L447.55,51.75L448.17,43.09L448.48,45.27L448.79,53.77L449.1,50.78L449.41,75.46L450.03,74.72L450.34,85.51L450.65,86.68L450.96,96.82L451.26,99.24L451.57,120.83L451.88,107.38L452.19,118.86L452.5,118.17L452.81,127.97L453.12,113.45L453.43,115.1L453.74,111.89L454.05,114.38L454.36,124.43L454.67,128.14L454.98,124.51L455.29,118.86L455.6,120.82L455.91,117.75L456.22,111.87L456.53,120.35L457.76,132.44L458.07,118.39L459,124.85L459.31,112.66L459.62,107.42L459.93,108.72L460.24,115.02L460.55,115.92L460.86,123.89L461.17,125.06L461.48,124.66L461.79,138.65L462.72,127.94L463.03,138.74L464.26,123.56L464.57,126.6L464.88,132L465.19,131.02L465.5,127.92L465.81,125.76L466.12,131.35L466.43,129.5L466.74,130.75L467.05,134.21L467.98,129.36L468.29,133.47L469.52,139.44L469.83,138.96L470.14,138.06L470.76,145.03L471.07,136.77L471.38,136.27L471.69,131.55L472.31,125.42L472.62,118.91L473.86,101.49L474.17,104.1L475.1,115.51L475.4,110.2L476.95,87.3L477.26,89.64L477.57,89.9L477.88,93.8L478.19,81.88L479.74,92.73L480.05,85.52L480.36,76.54L480.98,76.83L481.28,75.96L482.21,85.23L482.52,77.43L483.14,78.48L483.45,84.74L483.76,84.33L484.07,78.33L484.69,74.17L485,74.46L485.31,68L485.62,64.82L485.93,85.16L486.86,92.22L487.16,91.09L487.47,88.1L487.78,91.9L488.09,84.29L488.4,80.75L488.71,82.1L489.02,83.63L489.33,80.15L489.64,83.84L489.95,98.65L490.26,106.65L490.57,96.8L490.88,92.17L491.5,99.86L491.81,98.14L492.12,101.7L492.43,105.63L492.74,103.88L493.04,95.82L493.97,80.48L494.28,76.88L494.9,55.53L495.21,60.89L495.52,60.31L496.45,47.97L496.76,53.14L497.69,33.24L498.31,33.74L498.62,32.05L499.23,18.06L499.54,31.41L499.85,36.69L500.47,36.11L500.78,28.3L501.4,44.66L501.71,37.08L502.02,31.2L502.95,35.91L503.26,27.81L503.57,28.94L503.88,34.21L504.19,35.81L504.5,33.94L504.81,27.62L505.11,12.71L505.42,14.74L505.73,21.98L506.04,22.36L506.35,24.65L506.66,23.74L506.97,19.75L508.21,50L508.52,45.93L508.83,40.13L509.45,52.26L509.76,47.72L510.07,49.13L510.38,42.75L510.69,61.1L511.61,46.9L511.92,49.79L512.23,48.97L512.54,51.44L512.85,61.54L513.16,77.14L513.78,72.61L514.09,72.1L514.4,72.51L514.71,82.77L515.02,84.19L515.33,76.3L515.64,73.97L515.95,85.73L516.57,78.14L516.88,82.47L517.18,87.73L517.8,85.8L518.11,84.98L519.04,71.22L519.35,71.29L519.66,72.76L519.97,71.44L520.28,71.7L520.59,82.78L521.52,87.43L521.83,82.15L522.76,88.78L523.06,97.13L523.37,98.42L523.68,103.74L524.61,102.84L524.92,99.66L525.23,95.54L525.54,100.25L525.85,98.5L526.47,98.46L526.78,101.51L527.09,100.98L527.4,103.41L527.71,106.84L528.02,121.69L528.33,126.51L528.64,122.4L528.94,120.94L531.42,113.81L531.73,120.11L532.04,118.65L532.35,103.71L532.66,104.38L532.97,100.88L533.9,93.9L534.21,96.97L535.13,102.03L535.44,100.34L535.75,93.29L536.06,95.65L536.37,107.42L537.3,114.88L537.61,119.72L538.85,111.97L539.16,112.33L539.47,117.3L539.78,98.15L540.09,93.73L540.4,95.58L540.71,100.62L541.63,114.77L541.94,116.28L542.25,113.68L542.56,102.42L543.8,117.02L544.11,110.38L544.42,111.75L544.73,105.32L545.04,106.01L545.35,103.07L545.66,101.51L545.97,104.8L546.28,105.71L546.59,100.94L547.82,93.41L548.13,85.29L548.75,83.16L549.06,84.44L549.37,89.91L550.3,86.76L550.61,86.15L551.85,101.33L552.16,99.57L552.47,101.66L552.77,110.87L553.39,105.2L553.7,109.43L554.01,107.29L554.32,107.9L554.63,110.36L555.25,103.99L555.56,104.47L555.87,107.55L556.8,111.16L557.11,107.73L557.42,115.85L557.73,111.91L558.04,110.13L558.66,117.54L558.96,114.6L559.27,114.4L559.58,117.19L559.89,110.32L561.44,144.02L561.75,140.73L562.37,147.69L562.68,146.79L562.99,143.99L563.3,139.63L563.61,144.73L563.92,142.73L564.23,148.8L564.84,147.09L565.15,146.24L565.46,143.26L565.77,147.42L566.08,145.5L566.7,147.09L567.01,149.1L567.63,146.16L567.94,138.21L568.25,137.98L568.56,144.97L568.87,142.71L569.18,145.34L569.49,144.77L569.8,144.58L570.11,139.48L570.42,140.35L570.72,143.57L571.03,143.91L571.34,147.48L571.96,156.3L572.27,170.63L572.58,171.87L572.89,170.3L573.2,177.95L573.51,177.71L573.82,182.97L574.75,176.82L575.06,179.4L575.99,174.13L576.3,175.72L578.15,181.98L578.46,181.76L578.77,178.53L579.08,178.74L579.39,177.38L579.7,173.66L580.32,173.77L580.63,176.33L581.25,181.71L581.56,178.53L581.87,177.29L582.49,175.16L582.79,176.56L583.41,167.45L583.72,168.05L584.03,168.3L585.58,174.96L585.89,169L586.2,165.88L586.82,166.58L587.13,167.81L587.44,167.9L587.75,168.88L588.06,169.47" style="vector-effect: none; fill: none; stroke: rgb(31, 119, 180); stroke-opacity: 1; stroke-width: 2px; opacity: 1;"/></g><g class="points"/><g class="text"/></g><g class="trace scatter tracea8dea49d-d70b-434e-94ce-10581e14fbb8" style="stroke-miterlimit: 2; opacity: 1;"><g class="fills"/><g class="errorbars"/><g class="lines"/><g class="points"><path class="point plotly-customdata" transform="translate(36.25,236.51)" d="M-4.62,2H4.62L0,-4Z" style="opacity: 1; stroke-width: 1px; fill: rgb(55, 177, 63); fill-opacity: 1; stroke: rgb(38, 123, 44); stroke-opacity: 1;"/><path class="point plotly-customdata" transform="translate(80.82,222.65)" d="M-4.62,2H4.62L0,-4Z" style="opacity: 1; stroke-width: 1px; fill: rgb(55, 177, 63); fill-opacity: 1; stroke: rgb(38, 123, 44); stroke-opacity: 1;"/><path class="point plotly-customdata" transform="translate(168.09,229.31)" d="M-4.62,2H4.62L0,-4Z" style="opacity: 1; stroke-width: 1px; fill: rgb(55, 177, 63); fill-opacity: 1; stroke: rgb(38, 123, 44); stroke-opacity: 1;"/><path class="point plotly-customdata" transform="translate(265.27,219.93)" d="M-4.62,2H4.62L0,-4Z" style="opacity: 1; stroke-width: 1px; fill: rgb(55, 177, 63); fill-opacity: 1; stroke: rgb(38, 123, 44); stroke-opacity: 1;"/><path class="point plotly-customdata" transform="translate(317.88,229.92)" d="M-4.62,2H4.62L0,-4Z" style="opacity: 1; stroke-width: 1px; fill: rgb(55, 177, 63); fill-opacity: 1; stroke: rgb(38, 123, 44); stroke-opacity: 1;"/><path class="point plotly-customdata" transform="translate(451.26,99.24)" d="M-4.62,2H4.62L0,-4Z" style="opacity: 1; stroke-width: 1px; fill: rgb(55, 177, 63); fill-opacity: 1; stroke: rgb(38, 123, 44); stroke-opacity: 1;"/><path class="point plotly-customdata" transform="translate(523.99,103.34)" d="M-4.62,2H4.62L0,-4Z" style="opacity: 1; stroke-width: 1px; fill: rgb(55, 177, 63); fill-opacity: 1; stroke: rgb(38, 123, 44); stroke-opacity: 1;"/><path class="point plotly-customdata" transform="translate(561.75,140.73)" d="M-4.62,2H4.62L0,-4Z" style="opacity: 1; stroke-width: 1px; fill: rgb(55, 177, 63); fill-opacity: 1; stroke: rgb(38, 123, 44); stroke-opacity: 1;"/></g><g class="text"/></g><g class="trace scatter trace5fc7045d-b8b8-49f0-8a6b-265159bf7f8c" style="stroke-miterlimit: 2; opacity: 1;"><g class="fills"/><g class="errorbars"/><g class="lines"/><g class="points"><path class="point plotly-customdata" transform="translate(44.92,229.67)" d="M-4.62,-2H4.62L0,4Z" style="opacity: 1; stroke-width: 1px; fill: rgb(234, 67, 53); fill-opacity: 1; stroke: rgb(181, 31, 18); stroke-opacity: 1;"/><path class="point plotly-customdata" transform="translate(132.81,220.04)" d="M-4.62,-2H4.62L0,4Z" style="opacity: 1; stroke-width: 1px; fill: rgb(234, 67, 53); fill-opacity: 1; stroke: rgb(181, 31, 18); stroke-opacity: 1;"/><path class="point plotly-customdata" transform="translate(197.8,235.78)" d="M-4.62,-2H4.62L0,4Z" style="opacity: 1; stroke-width: 1px; fill: rgb(234, 67, 53); fill-opacity: 1; stroke: rgb(181, 31, 18); stroke-opacity: 1;"/><path class="point plotly-customdata" transform="translate(299.93,218.55)" d="M-4.62,-2H4.62L0,4Z" style="opacity: 1; stroke-width: 1px; fill: rgb(234, 67, 53); fill-opacity: 1; stroke: rgb(181, 31, 18); stroke-opacity: 1;"/><path class="point plotly-customdata" transform="translate(332.73,219.26)" d="M-4.62,-2H4.62L0,4Z" style="opacity: 1; stroke-width: 1px; fill: rgb(234, 67, 53); fill-opacity: 1; stroke: rgb(181, 31, 18); stroke-opacity: 1;"/><path class="point plotly-customdata" transform="translate(473.55,109.17)" d="M-4.62,-2H4.62L0,4Z" style="opacity: 1; stroke-width: 1px; fill: rgb(234, 67, 53); fill-opacity: 1; stroke: rgb(181, 31, 18); stroke-opacity: 1;"/><path class="point plotly-customdata" transform="translate(549.06,84.44)" d="M-4.62,-2H4.62L0,4Z" style="opacity: 1; stroke-width: 1px; fill: rgb(234, 67, 53); fill-opacity: 1; stroke: rgb(181, 31, 18); stroke-opacity: 1;"/></g><g class="text"/></g></g></g><g class="overplot"/><path class="xlines-above crisp" d="M0,0" style="fill: none;"/><path class="ylines-above crisp" d="M0,0" style="fill: none;"/><g class="overlines-above"/><g class="xaxislayer-above"/><g class="yaxislayer-above"><g class="ytick"><text text-anchor="end" x="94" y="4.199999999999999" transform="translate(0,325.48)" style="font-family: 'Open Sans', verdana, arial, sans-serif; font-size: 12px; fill: rgb(42, 63, 95); fill-opacity: 1; white-space: pre; opacity: 1;">0</text></g><g class="ytick"><text text-anchor="end" x="94" y="4.199999999999999" style="font-family: 'Open Sans', verdana, arial, sans-serif; font-size: 12px; fill: rgb(42, 63, 95); fill-opacity: 1; white-space: pre; opacity: 1;" transform="translate(0,290.41999999999996)">10k</text></g><g class="ytick"><text text-anchor="end" x="94" y="4.199999999999999" style="font-family: 'Open Sans', verdana, arial, sans-serif; font-size: 12px; fill: rgb(42, 63, 95); fill-opacity: 1; white-space: pre; opacity: 1;" transform="translate(0,255.36)">20k</text></g><g class="ytick"><text text-anchor="end" x="94" y="4.199999999999999" style="font-family: 'Open Sans', verdana, arial, sans-serif; font-size: 12px; fill: rgb(42, 63, 95); fill-opacity: 1; white-space: pre; opacity: 1;" transform="translate(0,220.29)">30k</text></g><g class="ytick"><text text-anchor="end" x="94" y="4.199999999999999" style="font-family: 'Open Sans', verdana, arial, sans-serif; font-size: 12px; fill: rgb(42, 63, 95); fill-opacity: 1; white-space: pre; opacity: 1;" transform="translate(0,185.23000000000002)">40k</text></g><g class="ytick"><text text-anchor="end" x="94" y="4.199999999999999" style="font-family: 'Open Sans', verdana, arial, sans-serif; font-size: 12px; fill: rgb(42, 63, 95); fill-opacity: 1; white-space: pre; opacity: 1;" transform="translate(0,150.16)">50k</text></g><g class="ytick"><text text-anchor="end" x="94" y="4.199999999999999" style="font-family: 'Open Sans', verdana, arial, sans-serif; font-size: 12px; fill: rgb(42, 63, 95); fill-opacity: 1; white-space: pre; opacity: 1;" transform="translate(0,115.1)">60k</text></g><g class="ytick"><text text-anchor="end" x="94" y="4.199999999999999" style="font-family: 'Open Sans', verdana, arial, sans-serif; font-size: 12px; fill: rgb(42, 63, 95); fill-opacity: 1; white-space: pre; opacity: 1;" transform="translate(0,80.04)">70k</text></g></g><g class="overaxes-above"/></g><g class="subplot x2y2"><g class="layer-subplot"><g class="shapelayer"/><g class="imagelayer"/></g><g class="minor-gridlayer"><g class="x2"/><g class="y2"/></g><g class="gridlayer"><g class="x2"><path class="x2grid crisp" transform="translate(164.67000000000002,0)" d="M0,364.88888888888897v254.22222222222214" style="stroke: rgb(255, 255, 255); stroke-opacity: 1; stroke-width: 1px;"/><path class="x2grid crisp" transform="translate(277.63,0)" d="M0,364.88888888888897v254.22222222222214" style="stroke: rgb(255, 255, 255); stroke-opacity: 1; stroke-width: 1px;"/><path class="x2grid crisp" transform="translate(390.6,0)" d="M0,364.88888888888897v254.22222222222214" style="stroke: rgb(255, 255, 255); stroke-opacity: 1; stroke-width: 1px;"/><path class="x2grid crisp" transform="translate(503.87,0)" d="M0,364.88888888888897v254.22222222222214" style="stroke: rgb(255, 255, 255); stroke-opacity: 1; stroke-width: 1px;"/><path class="x2grid crisp" transform="translate(616.83,0)" d="M0,364.88888888888897v254.22222222222214" style="stroke: rgb(255, 255, 255); stroke-opacity: 1; stroke-width: 1px;"/></g><g class="y2"><path class="y2grid crisp" transform="translate(0,569.8688888888889)" d="M95,0h625" style="stroke: rgb(255, 255, 255); stroke-opacity: 1; stroke-width: 1px;"/><path class="y2grid crisp" transform="translate(0,471.35888888888894)" d="M95,0h625" style="stroke: rgb(255, 255, 255); stroke-opacity: 1; stroke-width: 1px;"/><path class="y2grid crisp" transform="translate(0,422.10888888888894)" d="M95,0h625" style="stroke: rgb(255, 255, 255); stroke-opacity: 1; stroke-width: 1px;"/><path class="y2grid crisp" transform="translate(0,372.84888888888895)" d="M95,0h625" style="stroke: rgb(255, 255, 255); stroke-opacity: 1; stroke-width: 1px;"/></g></g><g class="zerolinelayer"><path class="y2zl zl crisp" transform="translate(0,520.6188888888889)" d="M95,0h625" style="stroke: rgb(255, 255, 255); stroke-opacity: 1; stroke-width: 2px;"/></g><path class="xlines-below"/><path class="ylines-below"/><g class="overlines-below"/><g class="xaxislayer-below"/><g class="yaxislayer-below"/><g class="overaxes-below"/><g class="plot" transform="translate(95,364.88888888888897)" clip-path="url(#clip208456x2y2plot)"><g class="scatterlayer mlayer"><g class="trace scatter traceb4e5ee1c-4bde-4822-afa3-95e9e25f0be0" style="stroke-miterlimit: 2; opacity: 1;"><g class="fills"/><g class="errorbars"/><g class="lines"/><g class="points"><path class="point plotly-customdata" transform="translate(44.92,25.94)" d="M6.87,0A6.87,6.87 0 1,1 0,-6.87A6.87,6.87 0 0,1 6.87,0Z" style="opacity: 0.894536; stroke-width: 1px; fill: rgb(55, 177, 63); fill-opacity: 1; stroke: rgb(38, 123, 44); stroke-opacity: 1;"/><path class="point plotly-customdata" transform="translate(132.81,131.75)" d="M3.86,0A3.86,3.86 0 1,1 0,-3.86A3.86,3.86 0 0,1 3.86,0Z" style="opacity: 0.765322; stroke-width: 1px; fill: rgb(55, 177, 63); fill-opacity: 1; stroke: rgb(38, 123, 44); stroke-opacity: 1;"/><path class="point plotly-customdata" transform="translate(299.93,144.29)" d="M3.5,0A3.5,3.5 0 1,1 0,-3.5A3.5,3.5 0 0,1 3.5,0Z" style="opacity: 0.75; stroke-width: 1px; fill: rgb(55, 177, 63); fill-opacity: 1; stroke: rgb(38, 123, 44); stroke-opacity: 1;"/><path class="point plotly-customdata" transform="translate(332.73,21.46)" d="M7,0A7,7 0 1,1 0,-7A7,7 0 0,1 7,0Z" style="opacity: 0.9; stroke-width: 1px; fill: rgb(55, 177, 63); fill-opacity: 1; stroke: rgb(38, 123, 44); stroke-opacity: 1;"/><path class="point plotly-customdata" transform="translate(549.06,123.89)" d="M4.08,0A4.08,4.08 0 1,1 0,-4.08A4.08,4.08 0 0,1 4.08,0Z" style="opacity: 0.774917; stroke-width: 1px; fill: rgb(55, 177, 63); fill-opacity: 1; stroke: rgb(38, 123, 44); stroke-opacity: 1;"/></g><g class="text"/></g><g class="trace scatter trace77db6bf9-a014-44c4-9488-2c12b64feb30" style="stroke-miterlimit: 2; opacity: 1;"><g class="fills"/><g class="errorbars"/><g class="lines"/><g class="points"><path class="point plotly-customdata" transform="translate(197.8,234.73)" d="M5.43,0A5.43,5.43 0 1,1 0,-5.43A5.43,5.43 0 0,1 5.43,0Z" style="opacity: 0.832512; stroke-width: 1px; fill: rgb(234, 67, 53); fill-opacity: 1; stroke: rgb(181, 31, 18); stroke-opacity: 1;"/><path class="point plotly-customdata" transform="translate(473.55,172.01)" d="M3.64,0A3.64,3.64 0 1,1 0,-3.64A3.64,3.64 0 0,1 3.64,0Z" style="opacity: 0.755924; stroke-width: 1px; fill: rgb(234, 67, 53); fill-opacity: 1; stroke: rgb(181, 31, 18); stroke-opacity: 1;"/></g><g class="text"/></g><g class="trace scatter tracef22a4cf7-0c78-4cfa-b09f-bb19469a7985" style="stroke-miterlimit: 2; opacity: 1;"><g class="fills"/><g class="errorbars"/><g class="lines"/><g class="points"><path class="point plotly-customdata" transform="translate(588.06,220.83)" d="M5.03,0A5.03,5.03 0 1,1 0,-5.03A5.03,5.03 0 0,1 5.03,0Z" style="opacity: 0.815533; stroke-width: 1px; fill: rgb(255, 170, 0); fill-opacity: 1; stroke: rgb(178, 118, 0); stroke-opacity: 1;"/></g><g class="text"/></g></g></g><g class="overplot"/><path class="xlines-above crisp" d="M0,0" style="fill: none;"/><path class="ylines-above crisp" d="M0,0" style="fill: none;"/><g class="overlines-above"/><g class="xaxislayer-above"/><g class="yaxislayer-above"><g class="y2tick"><text text-anchor="end" x="94" y="4.199999999999999" transform="translate(0,619.1288888888889)" style="font-family: 'Open Sans', verdana, arial, sans-serif; font-size: 12px; fill: rgb(42, 63, 95); fill-opacity: 1; white-space: pre; opacity: 1;">−40.00%</text></g><g class="y2tick"><text text-anchor="end" x="94" y="4.199999999999999" style="font-family: 'Open Sans', verdana, arial, sans-serif; font-size: 12px; fill: rgb(42, 63, 95); fill-opacity: 1; white-space: pre; opacity: 1;" transform="translate(0,569.8688888888889)">−20.00%</text></g><g class="y2tick"><text text-anchor="end" x="94" y="4.199999999999999" style="font-family: 'Open Sans', verdana, arial, sans-serif; font-size: 12px; fill: rgb(42, 63, 95); fill-opacity: 1; white-space: pre; opacity: 1;" transform="translate(0,520.6188888888889)">0.00%</text></g><g class="y2tick"><text text-anchor="end" x="94" y="4.199999999999999" style="font-family: 'Open Sans', verdana, arial, sans-serif; font-size: 12px; fill: rgb(42, 63, 95); fill-opacity: 1; white-space: pre; opacity: 1;" transform="translate(0,471.35888888888894)">20.00%</text></g><g class="y2tick"><text text-anchor="end" x="94" y="4.199999999999999" style="font-family: 'Open Sans', verdana, arial, sans-serif; font-size: 12px; fill: rgb(42, 63, 95); fill-opacity: 1; white-space: pre; opacity: 1;" transform="translate(0,422.10888888888894)">40.00%</text></g><g class="y2tick"><text text-anchor="end" x="94" y="4.199999999999999" style="font-family: 'Open Sans', verdana, arial, sans-serif; font-size: 12px; fill: rgb(42, 63, 95); fill-opacity: 1; white-space: pre; opacity: 1;" transform="translate(0,372.84888888888895)">60.00%</text></g></g><g class="overaxes-above"/></g><g class="subplot x3y3"><g class="layer-subplot"><g class="shapelayer"/><g class="imagelayer"/></g><g class="minor-gridlayer"><g class="x3"/><g class="y3"/></g><g class="gridlayer"><g class="x3"><path class="x3grid crisp" transform="translate(164.67000000000002,0)" d="M0,653.7777777777777v254.2222222222222" style="stroke: rgb(255, 255, 255); stroke-opacity: 1; stroke-width: 1px;"/><path class="x3grid crisp" transform="translate(277.63,0)" d="M0,653.7777777777777v254.2222222222222" style="stroke: rgb(255, 255, 255); stroke-opacity: 1; stroke-width: 1px;"/><path class="x3grid crisp" transform="translate(390.6,0)" d="M0,653.7777777777777v254.2222222222222" style="stroke: rgb(255, 255, 255); stroke-opacity: 1; stroke-width: 1px;"/><path class="x3grid crisp" transform="translate(503.87,0)" d="M0,653.7777777777777v254.2222222222222" style="stroke: rgb(255, 255, 255); stroke-opacity: 1; stroke-width: 1px;"/><path class="x3grid crisp" transform="translate(616.83,0)" d="M0,653.7777777777777v254.2222222222222" style="stroke: rgb(255, 255, 255); stroke-opacity: 1; stroke-width: 1px;"/></g><g class="y3"><path class="y3grid crisp" transform="translate(0,889.2177777777777)" d="M95,0h625" style="stroke: rgb(255, 255, 255); stroke-opacity: 1; stroke-width: 1px;"/><path class="y3grid crisp" transform="translate(0,846.0477777777777)" d="M95,0h625" style="stroke: rgb(255, 255, 255); stroke-opacity: 1; stroke-width: 1px;"/><path class="y3grid crisp" transform="translate(0,802.8677777777777)" d="M95,0h625" style="stroke: rgb(255, 255, 255); stroke-opacity: 1; stroke-width: 1px;"/><path class="y3grid crisp" transform="translate(0,759.6977777777777)" d="M95,0h625" style="stroke: rgb(255, 255, 255); stroke-opacity: 1; stroke-width: 1px;"/><path class="y3grid crisp" transform="translate(0,716.5277777777777)" d="M95,0h625" style="stroke: rgb(255, 255, 255); stroke-opacity: 1; stroke-width: 1px;"/><path class="y3grid crisp" transform="translate(0,673.3577777777778)" d="M95,0h625" style="stroke: rgb(255, 255, 255); stroke-opacity: 1; stroke-width: 1px;"/></g></g><g class="zerolinelayer"/><path class="xlines-below"/><path class="ylines-below"/><g class="overlines-below"/><g class="xaxislayer-below"/><g class="yaxislayer-below"/><g class="overaxes-below"/><g class="plot" transform="translate(95,653.7777777777777)" clip-path="url(#clip208456x3y3plot)"><g class="scatterlayer mlayer"><g class="trace scatter trace8599df16-a8ea-4b3c-b58c-e5874c8d1a15" style="stroke-miterlimit: 2;"><g class="fills"><g><path class="js-fill" d="M27.28,235.44L36.25,235.44L36.56,234.56L36.87,235.44L37.18,215.89L38.42,235.44L38.73,230.77L39.04,235.44L39.34,222.56L39.65,224.8L39.96,206.68L40.58,207.74L40.89,195.85L41.51,195.77L41.82,199.85L42.13,205.77L42.44,200.87L42.75,196.41L43.06,193.26L43.37,180.6L44.3,170.01L44.61,134.51L45.53,121.68L45.84,121.68L80.82,121.68L81.12,123.18L81.43,117.96L81.74,92.57L82.36,110.06L82.67,86.39L82.98,96.63L83.29,70.96L84.84,22.92L85.15,21.57L86.39,64.06L86.7,67.01L87.93,29.5L88.24,26.14L88.86,12.71L89.17,14.43L89.48,35.24L90.72,90.14L91.03,68.6L92.89,116.81L93.19,106.5L93.81,86.19L94.12,86.9L94.43,91.47L94.74,86.53L95.05,96.44L95.36,98.6L95.67,108.08L97.53,145.35L97.84,138.49L98.15,128.64L98.46,145.82L98.77,146.54L99.07,151.32L99.69,139.56L100,146.2L100.31,144.48L100.62,141.38L100.93,114.04L101.24,115.32L101.55,111.89L101.86,101.85L102.17,110.03L102.48,115.11L103.72,86.04L104.03,89.66L104.34,85.52L104.65,66.17L104.95,87.32L105.26,76.15L105.57,86.04L105.88,73.84L106.19,71.84L106.81,81.64L107.12,76.66L107.43,62.5L107.74,63.51L108.05,59.28L109.6,83.59L109.91,100.58L110.53,92.69L110.84,93.15L111.14,98.83L111.76,110.69L112.07,105.1L112.38,105.28L112.69,97L113.31,112.51L113.62,125.91L113.93,123.85L114.24,127.18L115.17,137.28L115.48,127.06L115.79,129.47L116.1,126.39L116.41,125.38L117.02,119.92L117.33,126.33L118.26,120.58L118.57,123.05L118.88,126.2L119.19,146.7L119.5,143.68L119.81,153.33L120.12,160.02L120.43,150.34L120.74,157.31L121.36,155.6L121.67,148.18L122.29,146.8L122.6,148L122.9,167.01L123.52,164.42L123.83,161.17L124.76,172.4L125.07,162.7L126,150.92L126.31,153.79L126.62,151.72L126.93,153.35L127.24,151.08L127.55,146.93L128.17,149.6L128.48,159.91L128.79,157.62L129.09,161.21L129.4,162.23L129.71,161.17L130.02,158.32L131.26,126.92L131.57,130.55L131.88,128.82L132.19,128.94L132.5,119.73L133.43,100.66L133.74,100.66L168.09,100.66L168.4,104.31L168.71,105.35L169.02,104.09L169.33,132.3L170.26,152.56L170.57,150.66L171.49,171.61L171.8,171.12L172.42,155.34L172.73,164.89L173.04,159.31L173.35,160.4L173.66,170.79L173.97,168.26L174.28,175.08L174.9,188.82L175.21,188.54L175.52,183.5L177.06,195.55L177.37,196.02L177.68,195.38L177.99,184.86L178.92,164.58L179.23,172.49L180.16,166.14L180.47,175.98L180.78,174.78L181.09,182.65L181.4,172.47L182.02,173.87L182.33,177.59L182.94,171.75L183.25,175.19L183.56,174.25L183.87,175.03L184.18,166.91L184.8,168.13L185.11,167.69L185.42,181.98L185.73,181.4L186.04,182.08L186.35,186.07L186.66,180.47L187.28,181.75L187.59,180.84L187.9,181.64L188.21,179L188.82,184.19L189.13,182.54L189.44,183.22L190.37,182.75L190.68,183.29L191.3,188.54L191.61,186.77L191.92,187.67L192.54,185.02L192.85,186.77L193.47,186.27L193.78,188.75L194.09,189.01L194.4,179.23L195.01,178.45L195.32,180.28L195.63,180.27L195.94,181.1L196.25,181.8L196.56,181.36L196.87,180.76L197.18,178.91L197.49,170.25L198.73,169.9L199.04,169.9L265.27,169.9L265.58,179.28L266.19,175.82L266.5,179.79L267.43,171.7L267.74,175.18L268.67,184.64L268.98,176.05L269.29,176.6L269.6,166.55L269.91,166.62L270.22,174.29L271.15,172L271.46,176.83L272.38,182.27L272.69,182.24L273,175.19L273.31,175.86L273.62,180.4L274.24,195.96L274.55,164.14L275.17,141.74L275.48,150.05L275.79,144.87L276.41,151.7L276.72,149.38L277.03,147.89L277.34,150.32L277.65,145.24L278.57,149.77L278.88,161.1L279.19,160.19L279.5,154.3L279.81,162.14L280.43,161.01L280.74,164.35L282.29,177.49L282.6,178.4L283.84,208.99L284.14,203.71L284.45,202.52L284.76,193.5L285.07,195.78L285.38,187.58L286.93,201.54L287.24,196.56L287.55,193.01L288.17,193.46L288.48,197.85L289.41,201.45L289.72,199.9L290.95,216.15L291.26,199.4L292.19,203.12L292.5,193.68L293.74,201.35L294.05,200L294.67,196.58L294.98,200.22L295.29,201.52L295.6,201.38L295.91,207.4L297.45,177.19L297.76,179.48L298.07,185.58L298.38,175.87L298.69,180.4L299,176.18L299.31,178.09L300.24,159.88L300.55,159.88L317.88,159.88L318.19,175.61L318.5,168.29L318.81,181.15L320.04,135.51L320.35,136.34L320.66,150.69L321.28,114.76L321.59,117.36L321.9,115.04L322.83,148.16L323.14,128.32L323.45,127.69L323.76,118.7L324.69,110.42L325,113.67L325.92,90.9L326.23,93.91L326.54,110.34L327.16,108.6L327.47,111.15L327.78,109.96L328.09,119.54L329.02,95.26L329.33,100.21L329.64,111.58L329.95,111.02L330.26,100.04L331.5,78.06L331.8,74.91L332.11,76.29L332.42,36.06L333.35,42.2L333.66,42.2L451.26,42.2L451.57,73.23L451.88,53.9L452.19,70.4L452.5,69.4L452.81,83.48L453.12,62.62L453.43,64.99L453.74,60.37L454.05,63.96L454.36,78.4L454.67,83.73L454.98,78.51L455.29,70.39L455.6,73.21L455.91,68.8L456.22,60.35L456.53,72.53L457.76,89.9L458.07,69.71L459,78.99L459.31,61.49L459.62,53.95L459.93,55.83L460.24,64.87L460.55,66.16L460.86,77.61L461.17,79.3L461.48,78.72L461.79,98.82L462.72,83.44L463.03,98.95L464.26,77.15L464.57,81.51L464.88,89.27L465.19,87.85L465.5,83.41L465.81,80.3L466.12,88.34L466.43,85.67L466.74,87.47L467.05,92.44L467.98,85.47L468.29,91.38L469.52,99.96L469.83,99.27L470.14,97.97L470.76,107.98L471.07,96.13L471.38,95.4L471.69,88.62L472.31,79.82L472.62,70.47L473.24,56.46L473.55,56.47L473.86,56.47L523.99,56.47L524.3,55.51L524.61,55.73L524.92,51.04L525.23,44.96L525.54,51.91L525.85,49.32L526.47,49.26L526.78,53.77L527.09,52.99L527.4,56.57L527.71,61.64L528.02,83.58L528.33,90.69L528.64,84.62L528.94,82.47L531.42,71.93L531.73,81.24L532.04,79.09L532.35,57.02L532.66,58.01L532.97,52.84L533.9,42.52L534.21,47.07L535.13,54.53L535.44,52.04L535.75,41.63L536.06,45.11L536.37,62.5L537.3,73.52L537.61,80.66L538.85,69.21L539.16,69.74L539.47,77.09L539.78,48.81L540.09,42.27L540.4,45.01L540.71,52.46L541.63,73.35L541.94,75.59L542.25,71.74L542.56,55.11L543.8,76.68L544.11,66.87L544.42,68.9L544.73,59.4L545.04,60.42L545.35,56.07L545.66,53.77L545.97,58.63L546.28,59.98L546.59,52.93L547.82,41.81L548.13,29.81L548.75,26.67L549.06,28.57L549.37,28.57L561.75,28.57L562.06,41.88L562.37,42.4L562.68,40.61L563.3,26.4L563.61,36.52L563.92,32.55L564.23,44.58L564.54,33.42L564.84,41.2L565.15,39.51L565.46,33.6L565.77,41.84L566.08,38.05L566.7,41.2L567.01,45.18L567.63,39.35L567.94,23.58L568.25,23.11L568.56,37L568.87,32.49L569.18,37.73L569.49,36.59L569.8,36.21L570.11,26.09L570.42,27.81L570.72,34.22L571.03,34.88L571.34,41.96L571.96,59.48L572.27,87.93L572.58,90.37L572.89,87.26L573.2,102.44L573.51,101.97L573.82,112.4L574.75,100.2L575.06,105.32L575.99,94.86L576.3,98.01L578.15,110.44L578.46,110L578.77,103.59L579.08,104.01L579.39,101.31L579.7,93.93L580.32,94.16L580.63,99.23L581.25,109.91L581.56,103.6L581.87,101.14L582.49,96.92L582.79,99.68L583.41,81.6L583.72,82.8L584.03,83.3L585.58,96.5L585.89,84.69L586.2,78.49L586.82,79.88L587.13,82.32L587.44,82.49L587.75,84.44L588.06,85.62L588.06,235.44L27.28,235.44Z" style="fill: rgb(0, 128, 0); fill-opacity: 0.25; stroke-width: 0;"/></g></g><g class="errorbars"/><g class="lines"><path class="js-line" d="M27.28,235.44L588.06,235.44" style="vector-effect: none; fill: none; stroke: rgb(0, 0, 0); stroke-opacity: 0; stroke-width: 0px; opacity: 1;"/></g><g class="points"/><g class="text"/></g><g class="trace scatter tracebd76f90d-839b-47f9-8e4f-7df60120cd93" style="stroke-miterlimit: 2;"><g class="fills"/><g class="errorbars"/><g class="lines"><path class="js-line" d="M27.28,235.44L36.25,235.44L36.56,234.56L36.87,235.44L37.18,215.89L38.42,235.44L38.73,230.77L39.04,235.44L39.34,222.56L39.65,224.8L39.96,206.68L40.58,207.74L40.89,195.85L41.51,195.77L41.82,199.85L42.13,205.77L42.44,200.87L42.75,196.41L43.06,193.26L43.37,180.6L44.3,170.01L44.61,134.51L45.53,121.68L45.84,121.68L80.82,121.68L81.12,123.18L81.43,117.96L81.74,92.57L82.36,110.06L82.67,86.39L82.98,96.63L83.29,70.96L84.84,22.92L85.15,21.57L86.39,64.06L86.7,67.01L87.93,29.5L88.24,26.14L88.86,12.71L89.17,14.43L89.48,35.24L90.72,90.14L91.03,68.6L92.89,116.81L93.19,106.5L93.81,86.19L94.12,86.9L94.43,91.47L94.74,86.53L95.05,96.44L95.36,98.6L95.67,108.08L97.53,145.35L97.84,138.49L98.15,128.64L98.46,145.82L98.77,146.54L99.07,151.32L99.69,139.56L100,146.2L100.31,144.48L100.62,141.38L100.93,114.04L101.24,115.32L101.55,111.89L101.86,101.85L102.17,110.03L102.48,115.11L103.72,86.04L104.03,89.66L104.34,85.52L104.65,66.17L104.95,87.32L105.26,76.15L105.57,86.04L105.88,73.84L106.19,71.84L106.81,81.64L107.12,76.66L107.43,62.5L107.74,63.51L108.05,59.28L109.6,83.59L109.91,100.58L110.53,92.69L110.84,93.15L111.14,98.83L111.76,110.69L112.07,105.1L112.38,105.28L112.69,97L113.31,112.51L113.62,125.91L113.93,123.85L114.24,127.18L115.17,137.28L115.48,127.06L115.79,129.47L116.1,126.39L116.41,125.38L117.02,119.92L117.33,126.33L118.26,120.58L118.57,123.05L118.88,126.2L119.19,146.7L119.5,143.68L119.81,153.33L120.12,160.02L120.43,150.34L120.74,157.31L121.36,155.6L121.67,148.18L122.29,146.8L122.6,148L122.9,167.01L123.52,164.42L123.83,161.17L124.76,172.4L125.07,162.7L126,150.92L126.31,153.79L126.62,151.72L126.93,153.35L127.24,151.08L127.55,146.93L128.17,149.6L128.48,159.91L128.79,157.62L129.09,161.21L129.4,162.23L129.71,161.17L130.02,158.32L131.26,126.92L131.57,130.55L131.88,128.82L132.19,128.94L132.5,119.73L133.43,100.66L133.74,100.66L168.09,100.66L168.4,104.31L168.71,105.35L169.02,104.09L169.33,132.3L170.26,152.56L170.57,150.66L171.49,171.61L171.8,171.12L172.42,155.34L172.73,164.89L173.04,159.31L173.35,160.4L173.66,170.79L173.97,168.26L174.28,175.08L174.9,188.82L175.21,188.54L175.52,183.5L177.06,195.55L177.37,196.02L177.68,195.38L177.99,184.86L178.92,164.58L179.23,172.49L180.16,166.14L180.47,175.98L180.78,174.78L181.09,182.65L181.4,172.47L182.02,173.87L182.33,177.59L182.94,171.75L183.25,175.19L183.56,174.25L183.87,175.03L184.18,166.91L184.8,168.13L185.11,167.69L185.42,181.98L185.73,181.4L186.04,182.08L186.35,186.07L186.66,180.47L187.28,181.75L187.59,180.84L187.9,181.64L188.21,179L188.82,184.19L189.13,182.54L189.44,183.22L190.37,182.75L190.68,183.29L191.3,188.54L191.61,186.77L191.92,187.67L192.54,185.02L192.85,186.77L193.47,186.27L193.78,188.75L194.09,189.01L194.4,179.23L195.01,178.45L195.32,180.28L195.63,180.27L195.94,181.1L196.25,181.8L196.56,181.36L196.87,180.76L197.18,178.91L197.49,170.25L198.73,169.9L199.04,169.9L265.27,169.9L265.58,179.28L266.19,175.82L266.5,179.79L267.43,171.7L267.74,175.18L268.67,184.64L268.98,176.05L269.29,176.6L269.6,166.55L269.91,166.62L270.22,174.29L271.15,172L271.46,176.83L272.38,182.27L272.69,182.24L273,175.19L273.31,175.86L273.62,180.4L274.24,195.96L274.55,164.14L275.17,141.74L275.48,150.05L275.79,144.87L276.41,151.7L276.72,149.38L277.03,147.89L277.34,150.32L277.65,145.24L278.57,149.77L278.88,161.1L279.19,160.19L279.5,154.3L279.81,162.14L280.43,161.01L280.74,164.35L282.29,177.49L282.6,178.4L283.84,208.99L284.14,203.71L284.45,202.52L284.76,193.5L285.07,195.78L285.38,187.58L286.93,201.54L287.24,196.56L287.55,193.01L288.17,193.46L288.48,197.85L289.41,201.45L289.72,199.9L290.95,216.15L291.26,199.4L292.19,203.12L292.5,193.68L293.74,201.35L294.05,200L294.67,196.58L294.98,200.22L295.29,201.52L295.6,201.38L295.91,207.4L297.45,177.19L297.76,179.48L298.07,185.58L298.38,175.87L298.69,180.4L299,176.18L299.31,178.09L300.24,159.88L300.55,159.88L317.88,159.88L318.19,175.61L318.5,168.29L318.81,181.15L320.04,135.51L320.35,136.34L320.66,150.69L321.28,114.76L321.59,117.36L321.9,115.04L322.83,148.16L323.14,128.32L323.45,127.69L323.76,118.7L324.69,110.42L325,113.67L325.92,90.9L326.23,93.91L326.54,110.34L327.16,108.6L327.47,111.15L327.78,109.96L328.09,119.54L329.02,95.26L329.33,100.21L329.64,111.58L329.95,111.02L330.26,100.04L331.5,78.06L331.8,74.91L332.11,76.29L332.42,36.06L333.35,42.2L333.66,42.2L451.26,42.2L451.57,73.23L451.88,53.9L452.19,70.4L452.5,69.4L452.81,83.48L453.12,62.62L453.43,64.99L453.74,60.37L454.05,63.96L454.36,78.4L454.67,83.73L454.98,78.51L455.29,70.39L455.6,73.21L455.91,68.8L456.22,60.35L456.53,72.53L457.76,89.9L458.07,69.71L459,78.99L459.31,61.49L459.62,53.95L459.93,55.83L460.24,64.87L460.55,66.16L460.86,77.61L461.17,79.3L461.48,78.72L461.79,98.82L462.72,83.44L463.03,98.95L464.26,77.15L464.57,81.51L464.88,89.27L465.19,87.85L465.5,83.41L465.81,80.3L466.12,88.34L466.43,85.67L466.74,87.47L467.05,92.44L467.98,85.47L468.29,91.38L469.52,99.96L469.83,99.27L470.14,97.97L470.76,107.98L471.07,96.13L471.38,95.4L471.69,88.62L472.31,79.82L472.62,70.47L473.24,56.46L473.55,56.47L473.86,56.47L523.99,56.47L524.3,55.51L524.61,55.73L524.92,51.04L525.23,44.96L525.54,51.91L525.85,49.32L526.47,49.26L526.78,53.77L527.09,52.99L527.4,56.57L527.71,61.64L528.02,83.58L528.33,90.69L528.64,84.62L528.94,82.47L531.42,71.93L531.73,81.24L532.04,79.09L532.35,57.02L532.66,58.01L532.97,52.84L533.9,42.52L534.21,47.07L535.13,54.53L535.44,52.04L535.75,41.63L536.06,45.11L536.37,62.5L537.3,73.52L537.61,80.66L538.85,69.21L539.16,69.74L539.47,77.09L539.78,48.81L540.09,42.27L540.4,45.01L540.71,52.46L541.63,73.35L541.94,75.59L542.25,71.74L542.56,55.11L543.8,76.68L544.11,66.87L544.42,68.9L544.73,59.4L545.04,60.42L545.35,56.07L545.66,53.77L545.97,58.63L546.28,59.98L546.59,52.93L547.82,41.81L548.13,29.81L548.75,26.67L549.06,28.57L549.37,28.57L561.75,28.57L562.06,41.88L562.37,42.4L562.68,40.61L563.3,26.4L563.61,36.52L563.92,32.55L564.23,44.58L564.54,33.42L564.84,41.2L565.15,39.51L565.46,33.6L565.77,41.84L566.08,38.05L566.7,41.2L567.01,45.18L567.63,39.35L567.94,23.58L568.25,23.11L568.56,37L568.87,32.49L569.18,37.73L569.49,36.59L569.8,36.21L570.11,26.09L570.42,27.81L570.72,34.22L571.03,34.88L571.34,41.96L571.96,59.48L572.27,87.93L572.58,90.37L572.89,87.26L573.2,102.44L573.51,101.97L573.82,112.4L574.75,100.2L575.06,105.32L575.99,94.86L576.3,98.01L578.15,110.44L578.46,110L578.77,103.59L579.08,104.01L579.39,101.31L579.7,93.93L580.32,94.16L580.63,99.23L581.25,109.91L581.56,103.6L581.87,101.14L582.49,96.92L582.79,99.68L583.41,81.6L583.72,82.8L584.03,83.3L585.58,96.5L585.89,84.69L586.2,78.49L586.82,79.88L587.13,82.32L587.44,82.49L587.75,84.44L588.06,85.62" style="vector-effect: none; fill: none; stroke: rgb(0, 0, 0); stroke-opacity: 0; stroke-width: 0px; opacity: 1;"/></g><g class="points"/><g class="text"/></g><g class="trace scatter trace3da9e228-2496-4245-bb23-0639e80e7964" style="stroke-miterlimit: 2;"><g class="fills"><g><path class="js-fill" d="M27.28,235.44L37.8,235.44L38.11,240.69L38.42,241.51L38.73,235.44L39.04,237.77L39.34,235.44L39.65,235.44L588.06,235.44L588.06,235.44L27.28,235.44Z" style="fill: rgb(255, 0, 0); fill-opacity: 0.25; stroke-width: 0;"/></g></g><g class="errorbars"/><g class="lines"><path class="js-line" d="M27.28,235.44L588.06,235.44" style="vector-effect: none; fill: none; stroke: rgb(0, 0, 0); stroke-opacity: 0; stroke-width: 0px; opacity: 1;"/></g><g class="points"/><g class="text"/></g><g class="trace scatter trace9ad7c73c-b24b-4a94-9a90-923ce70f0483" style="stroke-miterlimit: 2;"><g class="fills"/><g class="errorbars"/><g class="lines"><path class="js-line" d="M27.28,235.44L37.8,235.44L38.11,240.69L38.42,241.51L38.73,235.44L39.04,237.77L39.34,235.44L39.65,235.44L588.06,235.44" style="vector-effect: none; fill: none; stroke: rgb(0, 0, 0); stroke-opacity: 0; stroke-width: 0px; opacity: 1;"/></g><g class="points"/><g class="text"/></g><g class="trace scatter tracecdb466f5-6d2f-423c-8701-7367f06ede54" style="stroke-miterlimit: 2; opacity: 1;"><g class="fills"/><g class="errorbars"/><g class="lines"><path class="js-line" d="M27.28,235.44L36.25,235.44L36.56,234.56L36.87,235.44L37.18,215.89L38.42,241.51L38.73,230.77L39.04,237.77L39.34,222.56L39.65,224.8L39.96,206.68L40.58,207.74L40.89,195.85L41.51,195.77L41.82,199.85L42.13,205.77L42.44,200.87L42.75,196.41L43.06,193.26L43.37,180.6L44.3,170.01L44.61,134.51L45.53,121.68L45.84,121.68L80.82,121.68L81.12,123.18L81.43,117.96L81.74,92.57L82.36,110.06L82.67,86.39L82.98,96.63L83.29,70.96L84.84,22.92L85.15,21.57L86.39,64.06L86.7,67.01L87.93,29.5L88.24,26.14L88.86,12.71L89.17,14.43L89.48,35.24L90.72,90.14L91.03,68.6L92.89,116.81L93.19,106.5L93.81,86.19L94.12,86.9L94.43,91.47L94.74,86.53L95.05,96.44L95.36,98.6L95.67,108.08L97.53,145.35L97.84,138.49L98.15,128.64L98.46,145.82L98.77,146.54L99.07,151.32L99.69,139.56L100,146.2L100.31,144.48L100.62,141.38L100.93,114.04L101.24,115.32L101.55,111.89L101.86,101.85L102.17,110.03L102.48,115.11L103.72,86.04L104.03,89.66L104.34,85.52L104.65,66.17L104.95,87.32L105.26,76.15L105.57,86.04L105.88,73.84L106.19,71.84L106.81,81.64L107.12,76.66L107.43,62.5L107.74,63.51L108.05,59.28L109.6,83.59L109.91,100.58L110.53,92.69L110.84,93.15L111.14,98.83L111.76,110.69L112.07,105.1L112.38,105.28L112.69,97L113.31,112.51L113.62,125.91L113.93,123.85L114.24,127.18L115.17,137.28L115.48,127.06L115.79,129.47L116.1,126.39L116.41,125.38L117.02,119.92L117.33,126.33L118.26,120.58L118.57,123.05L118.88,126.2L119.19,146.7L119.5,143.68L119.81,153.33L120.12,160.02L120.43,150.34L120.74,157.31L121.36,155.6L121.67,148.18L122.29,146.8L122.6,148L122.9,167.01L123.52,164.42L123.83,161.17L124.76,172.4L125.07,162.7L126,150.92L126.31,153.79L126.62,151.72L126.93,153.35L127.24,151.08L127.55,146.93L128.17,149.6L128.48,159.91L128.79,157.62L129.09,161.21L129.4,162.23L129.71,161.17L130.02,158.32L131.26,126.92L131.57,130.55L131.88,128.82L132.19,128.94L132.5,119.73L133.43,100.66L133.74,100.66L168.09,100.66L168.4,104.31L168.71,105.35L169.02,104.09L169.33,132.3L170.26,152.56L170.57,150.66L171.49,171.61L171.8,171.12L172.42,155.34L172.73,164.89L173.04,159.31L173.35,160.4L173.66,170.79L173.97,168.26L174.28,175.08L174.9,188.82L175.21,188.54L175.52,183.5L177.06,195.55L177.37,196.02L177.68,195.38L177.99,184.86L178.92,164.58L179.23,172.49L180.16,166.14L180.47,175.98L180.78,174.78L181.09,182.65L181.4,172.47L182.02,173.87L182.33,177.59L182.94,171.75L183.25,175.19L183.56,174.25L183.87,175.03L184.18,166.91L184.8,168.13L185.11,167.69L185.42,181.98L185.73,181.4L186.04,182.08L186.35,186.07L186.66,180.47L187.28,181.75L187.59,180.84L187.9,181.64L188.21,179L188.82,184.19L189.13,182.54L189.44,183.22L190.37,182.75L190.68,183.29L191.3,188.54L191.61,186.77L191.92,187.67L192.54,185.02L192.85,186.77L193.47,186.27L193.78,188.75L194.09,189.01L194.4,179.23L195.01,178.45L195.32,180.28L195.63,180.27L195.94,181.1L196.25,181.8L196.56,181.36L196.87,180.76L197.18,178.91L197.49,170.25L198.73,169.9L199.04,169.9L265.27,169.9L265.58,179.28L266.19,175.82L266.5,179.79L267.43,171.7L267.74,175.18L268.67,184.64L268.98,176.05L269.29,176.6L269.6,166.55L269.91,166.62L270.22,174.29L271.15,172L271.46,176.83L272.38,182.27L272.69,182.24L273,175.19L273.31,175.86L273.62,180.4L274.24,195.96L274.55,164.14L275.17,141.74L275.48,150.05L275.79,144.87L276.41,151.7L276.72,149.38L277.03,147.89L277.34,150.32L277.65,145.24L278.57,149.77L278.88,161.1L279.19,160.19L279.5,154.3L279.81,162.14L280.43,161.01L280.74,164.35L282.29,177.49L282.6,178.4L283.84,208.99L284.14,203.71L284.45,202.52L284.76,193.5L285.07,195.78L285.38,187.58L286.93,201.54L287.24,196.56L287.55,193.01L288.17,193.46L288.48,197.85L289.41,201.45L289.72,199.9L290.95,216.15L291.26,199.4L292.19,203.12L292.5,193.68L293.74,201.35L294.05,200L294.67,196.58L294.98,200.22L295.29,201.52L295.6,201.38L295.91,207.4L297.45,177.19L297.76,179.48L298.07,185.58L298.38,175.87L298.69,180.4L299,176.18L299.31,178.09L300.24,159.88L300.55,159.88L317.88,159.88L318.19,175.61L318.5,168.29L318.81,181.15L320.04,135.51L320.35,136.34L320.66,150.69L321.28,114.76L321.59,117.36L321.9,115.04L322.83,148.16L323.14,128.32L323.45,127.69L323.76,118.7L324.69,110.42L325,113.67L325.92,90.9L326.23,93.91L326.54,110.34L327.16,108.6L327.47,111.15L327.78,109.96L328.09,119.54L329.02,95.26L329.33,100.21L329.64,111.58L329.95,111.02L330.26,100.04L331.5,78.06L331.8,74.91L332.11,76.29L332.42,36.06L333.35,42.2L333.66,42.2L451.26,42.2L451.57,73.23L451.88,53.9L452.19,70.4L452.5,69.4L452.81,83.48L453.12,62.62L453.43,64.99L453.74,60.37L454.05,63.96L454.36,78.4L454.67,83.73L454.98,78.51L455.29,70.39L455.6,73.21L455.91,68.8L456.22,60.35L456.53,72.53L457.76,89.9L458.07,69.71L459,78.99L459.31,61.49L459.62,53.95L459.93,55.83L460.24,64.87L460.55,66.16L460.86,77.61L461.17,79.3L461.48,78.72L461.79,98.82L462.72,83.44L463.03,98.95L464.26,77.15L464.57,81.51L464.88,89.27L465.19,87.85L465.5,83.41L465.81,80.3L466.12,88.34L466.43,85.67L466.74,87.47L467.05,92.44L467.98,85.47L468.29,91.38L469.52,99.96L469.83,99.27L470.14,97.97L470.76,107.98L471.07,96.13L471.38,95.4L471.69,88.62L472.31,79.82L472.62,70.47L473.24,56.46L473.55,56.47L473.86,56.47L523.99,56.47L524.3,55.51L524.61,55.73L524.92,51.04L525.23,44.96L525.54,51.91L525.85,49.32L526.47,49.26L526.78,53.77L527.09,52.99L527.4,56.57L527.71,61.64L528.02,83.58L528.33,90.69L528.64,84.62L528.94,82.47L531.42,71.93L531.73,81.24L532.04,79.09L532.35,57.02L532.66,58.01L532.97,52.84L533.9,42.52L534.21,47.07L535.13,54.53L535.44,52.04L535.75,41.63L536.06,45.11L536.37,62.5L537.3,73.52L537.61,80.66L538.85,69.21L539.16,69.74L539.47,77.09L539.78,48.81L540.09,42.27L540.4,45.01L540.71,52.46L541.63,73.35L541.94,75.59L542.25,71.74L542.56,55.11L543.8,76.68L544.11,66.87L544.42,68.9L544.73,59.4L545.04,60.42L545.35,56.07L545.66,53.77L545.97,58.63L546.28,59.98L546.59,52.93L547.82,41.81L548.13,29.81L548.75,26.67L549.06,28.57L549.37,28.57L561.75,28.57L562.06,41.88L562.37,42.4L562.68,40.61L563.3,26.4L563.61,36.52L563.92,32.55L564.23,44.58L564.54,33.42L564.84,41.2L565.15,39.51L565.46,33.6L565.77,41.84L566.08,38.05L566.7,41.2L567.01,45.18L567.63,39.35L567.94,23.58L568.25,23.11L568.56,37L568.87,32.49L569.18,37.73L569.49,36.59L569.8,36.21L570.11,26.09L570.42,27.81L570.72,34.22L571.03,34.88L571.34,41.96L571.96,59.48L572.27,87.93L572.58,90.37L572.89,87.26L573.2,102.44L573.51,101.97L573.82,112.4L574.75,100.2L575.06,105.32L575.99,94.86L576.3,98.01L578.15,110.44L578.46,110L578.77,103.59L579.08,104.01L579.39,101.31L579.7,93.93L580.32,94.16L580.63,99.23L581.25,109.91L581.56,103.6L581.87,101.14L582.49,96.92L582.79,99.68L583.41,81.6L583.72,82.8L584.03,83.3L585.58,96.5L585.89,84.69L586.2,78.49L586.82,79.88L587.13,82.32L587.44,82.49L587.75,84.44L588.06,85.62" style="vector-effect: none; fill: none; stroke: rgb(148, 103, 189); stroke-opacity: 1; stroke-width: 2px; opacity: 1;"/></g><g class="points"/><g class="text"/></g><g class="trace scatter trace9e861a3e-8fcc-4c06-b903-0faea3d41575" style="stroke-miterlimit: 2; opacity: 0;"><g class="fills"/><g class="errorbars"/><g class="lines"><path class="js-line" d="M27.28,235.44L588.06,235.44" style="vector-effect: none; fill: none; stroke: rgb(0, 0, 0); stroke-opacity: 0; stroke-width: 0px; opacity: 1;"/></g><g class="points"/><g class="text"/></g></g></g><g class="overplot"/><path class="xlines-above crisp" d="M0,0" style="fill: none;"/><path class="ylines-above crisp" d="M0,0" style="fill: none;"/><g class="overlines-above"/><g class="xaxislayer-above"><g class="x3tick"><text text-anchor="middle" x="0" y="920.9999999999999" transform="translate(164.67000000000002,0)" style="font-family: 'Open Sans', verdana, arial, sans-serif; font-size: 12px; fill: rgb(42, 63, 95); fill-opacity: 1; white-space: pre; opacity: 1;">2018</text></g><g class="x3tick"><text text-anchor="middle" x="0" y="920.9999999999999" style="font-family: 'Open Sans', verdana, arial, sans-serif; font-size: 12px; fill: rgb(42, 63, 95); fill-opacity: 1; white-space: pre; opacity: 1;" transform="translate(277.63,0)">2019</text></g><g class="x3tick"><text text-anchor="middle" x="0" y="920.9999999999999" style="font-family: 'Open Sans', verdana, arial, sans-serif; font-size: 12px; fill: rgb(42, 63, 95); fill-opacity: 1; white-space: pre; opacity: 1;" transform="translate(390.6,0)">2020</text></g><g class="x3tick"><text text-anchor="middle" x="0" y="920.9999999999999" style="font-family: 'Open Sans', verdana, arial, sans-serif; font-size: 12px; fill: rgb(42, 63, 95); fill-opacity: 1; white-space: pre; opacity: 1;" transform="translate(503.87,0)">2021</text></g><g class="x3tick"><text text-anchor="middle" x="0" y="920.9999999999999" style="font-family: 'Open Sans', verdana, arial, sans-serif; font-size: 12px; fill: rgb(42, 63, 95); fill-opacity: 1; white-space: pre; opacity: 1;" transform="translate(616.83,0)">2022</text></g></g><g class="yaxislayer-above"><g class="y3tick"><text text-anchor="end" x="94" y="4.199999999999999" transform="translate(0,889.2177777777777)" style="font-family: 'Open Sans', verdana, arial, sans-serif; font-size: 12px; fill: rgb(42, 63, 95); fill-opacity: 1; white-space: pre; opacity: 1;">1</text></g><g class="y3tick"><text text-anchor="end" x="94" y="4.199999999999999" style="font-family: 'Open Sans', verdana, arial, sans-serif; font-size: 12px; fill: rgb(42, 63, 95); fill-opacity: 1; white-space: pre; opacity: 1;" transform="translate(0,846.0477777777777)">1.2</text></g><g class="y3tick"><text text-anchor="end" x="94" y="4.199999999999999" style="font-family: 'Open Sans', verdana, arial, sans-serif; font-size: 12px; fill: rgb(42, 63, 95); fill-opacity: 1; white-space: pre; opacity: 1;" transform="translate(0,802.8677777777777)">1.4</text></g><g class="y3tick"><text text-anchor="end" x="94" y="4.199999999999999" style="font-family: 'Open Sans', verdana, arial, sans-serif; font-size: 12px; fill: rgb(42, 63, 95); fill-opacity: 1; white-space: pre; opacity: 1;" transform="translate(0,759.6977777777777)">1.6</text></g><g class="y3tick"><text text-anchor="end" x="94" y="4.199999999999999" style="font-family: 'Open Sans', verdana, arial, sans-serif; font-size: 12px; fill: rgb(42, 63, 95); fill-opacity: 1; white-space: pre; opacity: 1;" transform="translate(0,716.5277777777777)">1.8</text></g><g class="y3tick"><text text-anchor="end" x="94" y="4.199999999999999" style="font-family: 'Open Sans', verdana, arial, sans-serif; font-size: 12px; fill: rgb(42, 63, 95); fill-opacity: 1; white-space: pre; opacity: 1;" transform="translate(0,673.3577777777778)">2</text></g></g><g class="overaxes-above"/></g></g><g class="polarlayer"/><g class="smithlayer"/><g class="ternarylayer"/><g class="geolayer"/><g class="funnelarealayer"/><g class="pielayer"/><g class="iciclelayer"/><g class="treemaplayer"/><g class="sunburstlayer"/><g class="glimages"/><defs id="topdefs-208456"><g class="clips"/><clipPath id="legend208456"><rect width="624" height="29" x="0" y="0"/></clipPath></defs><g class="layer-above"><g class="imagelayer"/><g class="shapelayer"><g class="shape-group" data-index="0" clip-path="url(#clip208456y2)"><path data-index="0" fill-rule="evenodd" d="M95,520.6188888888889L720,520.6188888888889" style="opacity: 1; stroke: rgb(128, 128, 128); stroke-opacity: 1; fill: rgb(0, 0, 0); fill-opacity: 0; stroke-dasharray: 9px, 9px; stroke-width: 2px;"/></g><g class="shape-group" data-index="1" clip-path="url(#clip208456y3)"><path data-index="1" fill-rule="evenodd" d="M95,889.2177777777777L720,889.2177777777777" style="opacity: 1; stroke: rgb(128, 128, 128); stroke-opacity: 1; fill: rgb(0, 0, 0); fill-opacity: 0; stroke-dasharray: 9px, 9px; stroke-width: 2px;"/></g></g></g><g class="infolayer"><g class="legend" pointer-events="all" transform="translate(96,12.333333333333272)"><rect class="bg" shape-rendering="crispEdges" style="stroke: rgb(68, 68, 68); stroke-opacity: 1; fill: rgb(255, 255, 255); fill-opacity: 1; stroke-width: 0px;" width="624" height="29" x="0" y="0"/><g class="scrollbox" transform="" clip-path="url(#legend208456)"><g class="groups"><g class="traces" transform="translate(0,14.5)" style="opacity: 1;"><text class="legendtext" text-anchor="start" x="40" y="4.680000000000001" style="font-family: 'Open Sans', verdana, arial, sans-serif; font-size: 12px; fill: rgb(42, 63, 95); fill-opacity: 1; white-space: pre;">Close</text><g class="layers" style="opacity: 1;"><g class="legendfill"/><g class="legendlines"><path class="js-line" d="M5,0h30" style="fill: none; stroke: rgb(31, 119, 180); stroke-opacity: 1; stroke-width: 2px;"/></g><g class="legendsymbols"><g class="legendpoints"/></g></g><rect class="legendtoggle" x="0" y="-9.5" width="74.859375" height="19" style="fill: rgb(0, 0, 0); fill-opacity: 0;"/></g><g class="traces" transform="translate(77.359375,14.5)" style="opacity: 1;"><text class="legendtext" text-anchor="start" x="40" y="4.680000000000001" style="font-family: 'Open Sans', verdana, arial, sans-serif; font-size: 12px; fill: rgb(42, 63, 95); fill-opacity: 1; white-space: pre;">Buy</text><g class="layers" style="opacity: 1;"><g class="legendfill"/><g class="legendlines"/><g class="legendsymbols"><g class="legendpoints"><path class="scatterpts" transform="translate(20,0)" d="M-4.62,2H4.62L0,-4Z" style="opacity: 1; stroke-width: 1px; fill: rgb(55, 177, 63); fill-opacity: 1; stroke: rgb(38, 123, 44); stroke-opacity: 1;"/></g></g></g><rect class="legendtoggle" x="0" y="-9.5" width="65.421875" height="19" style="fill: rgb(0, 0, 0); fill-opacity: 0;"/></g><g class="traces" transform="translate(145.28125,14.5)" style="opacity: 1;"><text class="legendtext" text-anchor="start" x="40" y="4.680000000000001" style="font-family: 'Open Sans', verdana, arial, sans-serif; font-size: 12px; fill: rgb(42, 63, 95); fill-opacity: 1; white-space: pre;">Sell</text><g class="layers" style="opacity: 1;"><g class="legendfill"/><g class="legendlines"/><g class="legendsymbols"><g class="legendpoints"><path class="scatterpts" transform="translate(20,0)" d="M-4.62,-2H4.62L0,4Z" style="opacity: 1; stroke-width: 1px; fill: rgb(234, 67, 53); fill-opacity: 1; stroke: rgb(181, 31, 18); stroke-opacity: 1;"/></g></g></g><rect class="legendtoggle" x="0" y="-9.5" width="64.4375" height="19" style="fill: rgb(0, 0, 0); fill-opacity: 0;"/></g><g class="traces" transform="translate(212.21875,14.5)" style="opacity: 1;"><text class="legendtext" text-anchor="start" x="40" y="4.680000000000001" style="font-family: 'Open Sans', verdana, arial, sans-serif; font-size: 12px; fill: rgb(42, 63, 95); fill-opacity: 1; white-space: pre;">Closed - Profit</text><g class="layers" style="opacity: 1;"><g class="legendfill"/><g class="legendlines"/><g class="legendsymbols"><g class="legendpoints"><path class="scatterpts" transform="translate(20,0)" d="M5.06,0A5.06,5.06 0 1,1 0,-5.06A5.06,5.06 0 0,1 5.06,0Z" style="opacity: 0.816955; stroke-width: 1px; fill: rgb(55, 177, 63); fill-opacity: 1; stroke: rgb(38, 123, 44); stroke-opacity: 1;"/></g></g></g><rect class="legendtoggle" x="0" y="-9.5" width="128.109375" height="19" style="fill: rgb(0, 0, 0); fill-opacity: 0;"/></g><g class="traces" transform="translate(342.828125,14.5)" style="opacity: 1;"><text class="legendtext" text-anchor="start" x="40" y="4.680000000000001" style="font-family: 'Open Sans', verdana, arial, sans-serif; font-size: 12px; fill: rgb(42, 63, 95); fill-opacity: 1; white-space: pre;">Closed - Loss</text><g class="layers" style="opacity: 1;"><g class="legendfill"/><g class="legendlines"/><g class="legendsymbols"><g class="legendpoints"><path class="scatterpts" transform="translate(20,0)" d="M4.53,0A4.53,4.53 0 1,1 0,-4.53A4.53,4.53 0 0,1 4.53,0Z" style="opacity: 0.794218; stroke-width: 1px; fill: rgb(234, 67, 53); fill-opacity: 1; stroke: rgb(181, 31, 18); stroke-opacity: 1;"/></g></g></g><rect class="legendtoggle" x="0" y="-9.5" width="122.6875" height="19" style="fill: rgb(0, 0, 0); fill-opacity: 0;"/></g><g class="traces" transform="translate(468.015625,14.5)" style="opacity: 1;"><text class="legendtext" text-anchor="start" x="40" y="4.680000000000001" style="font-family: 'Open Sans', verdana, arial, sans-serif; font-size: 12px; fill: rgb(42, 63, 95); fill-opacity: 1; white-space: pre;">Open</text><g class="layers" style="opacity: 1;"><g class="legendfill"/><g class="legendlines"/><g class="legendsymbols"><g class="legendpoints"><path class="scatterpts" transform="translate(20,0)" d="M5.03,0A5.03,5.03 0 1,1 0,-5.03A5.03,5.03 0 0,1 5.03,0Z" style="opacity: 0.815533; stroke-width: 1px; fill: rgb(255, 170, 0); fill-opacity: 1; stroke: rgb(178, 118, 0); stroke-opacity: 1;"/></g></g></g><rect class="legendtoggle" x="0" y="-9.5" width="74.171875" height="19" style="fill: rgb(0, 0, 0); fill-opacity: 0;"/></g><g class="traces" transform="translate(544.6875,14.5)" style="opacity: 1;"><text class="legendtext" text-anchor="start" x="40" y="4.680000000000001" style="font-family: 'Open Sans', verdana, arial, sans-serif; font-size: 12px; fill: rgb(42, 63, 95); fill-opacity: 1; white-space: pre;">Value</text><g class="layers" style="opacity: 1;"><g class="legendfill"/><g class="legendlines"><path class="js-line" d="M5,0h30" style="fill: none; stroke: rgb(148, 103, 189); stroke-opacity: 1; stroke-width: 2px;"/></g><g class="legendsymbols"><g class="legendpoints"/></g></g><rect class="legendtoggle" x="0" y="-9.5" width="75.953125" height="19" style="fill: rgb(0, 0, 0); fill-opacity: 0;"/></g></g></g><rect class="scrollbar" rx="20" ry="3" width="0" height="0" style="fill: rgb(128, 139, 164); fill-opacity: 1;" x="0" y="0"/></g><g class="g-gtitle"/><g class="g-xtitle"/><g class="g-x2title"/><g class="g-x3title"><text class="x3title" x="407.5" y="947.8" text-anchor="middle" style="font-family: 'Open Sans', verdana, arial, sans-serif; font-size: 14px; fill: rgb(42, 63, 95); opacity: 1; font-weight: normal; white-space: pre;">Index</text></g><g class="g-ytitle"><text class="ytitle" transform="rotate(-90,47.340625,203.11111111111111)" x="47.340625" y="203.11111111111111" text-anchor="middle" style="font-family: 'Open Sans', verdana, arial, sans-serif; font-size: 14px; fill: rgb(42, 63, 95); opacity: 1; font-weight: normal; white-space: pre;">Price</text></g><g class="g-y2title" transform="translate(1.9248046875,0)"><text class="y2title" transform="rotate(-90,12.075000000000003,492.00000000000006)" x="12.075000000000003" y="492.00000000000006" text-anchor="middle" style="font-family: 'Open Sans', verdana, arial, sans-serif; font-size: 14px; fill: rgb(42, 63, 95); opacity: 1; font-weight: normal; white-space: pre;">Trade PnL</text></g><g class="g-y3title"><text class="y3title" transform="rotate(-90,50.075,780.8888888888888)" x="50.075" y="780.8888888888888" text-anchor="middle" style="font-family: 'Open Sans', verdana, arial, sans-serif; font-size: 14px; fill: rgb(42, 63, 95); opacity: 1; font-weight: normal; white-space: pre;">Cumulative returns</text></g><g class="annotation" data-index="0" style="opacity: 1;"><g class="annotation-text-g" transform="rotate(0,407.5,64)"><g class="cursor-pointer" transform="translate(379,52)"><rect class="bg" x="0.5" y="0.5" width="57" height="23" style="stroke-width: 1px; stroke: rgb(0, 0, 0); stroke-opacity: 0; fill: rgb(0, 0, 0); fill-opacity: 0;"/><text class="annotation-text" text-anchor="middle" x="29.046875" y="18" style="font-family: 'Open Sans', verdana, arial, sans-serif; font-size: 16px; fill: rgb(42, 63, 95); fill-opacity: 1; white-space: pre;">Orders</text></g></g></g><g class="annotation" data-index="1" style="opacity: 1;"><g class="annotation-text-g" transform="rotate(0,407.5,352.88888888888897)"><g class="cursor-pointer" transform="translate(366,341)"><rect class="bg" x="0.5" y="0.5" width="83" height="23" style="stroke-width: 1px; stroke: rgb(0, 0, 0); stroke-opacity: 0; fill: rgb(0, 0, 0); fill-opacity: 0;"/><text class="annotation-text" text-anchor="middle" x="42.0625" y="18" style="font-family: 'Open Sans', verdana, arial, sans-serif; font-size: 16px; fill: rgb(42, 63, 95); fill-opacity: 1; white-space: pre;">Trade PnL</text></g></g></g><g class="annotation" data-index="2" style="opacity: 1;"><g class="annotation-text-g" transform="rotate(0,407.5,641.7777777777777)"><g class="cursor-pointer" transform="translate(326,630)"><rect class="bg" x="0.5" y="0.5" width="162" height="23" style="stroke-width: 1px; stroke: rgb(0, 0, 0); stroke-opacity: 0; fill: rgb(0, 0, 0); fill-opacity: 0;"/><text class="annotation-text" text-anchor="middle" x="81.34375" y="18" style="font-family: 'Open Sans', verdana, arial, sans-serif; font-size: 16px; fill: rgb(42, 63, 95); fill-opacity: 1; white-space: pre;">Cumulative Returns</text></g></g></g></g></svg>