<svg class="main-svg" xmlns="http://www.w3.org/2000/svg" xmlns:xlink="http://www.w3.org/1999/xlink" width="700" height="350" style="" viewBox="0 0 700 350"><rect x="0" y="0" width="700" height="350" style="fill: rgb(33, 34, 38); fill-opacity: 1;"/><defs id="defs-0239e4"><g class="clips"><clipPath id="clip0239e4xyplot" class="plotclip"><rect width="634" height="274"/></clipPath><clipPath class="axesclip" id="clip0239e4x"><rect x="36" y="0" width="634" height="350"/></clipPath><clipPath class="axesclip" id="clip0239e4y"><rect x="0" y="46" width="700" height="274"/></clipPath><clipPath class="axesclip" id="clip0239e4xy"><rect x="36" y="46" width="634" height="274"/></clipPath></g><g class="gradients"/><g class="patterns"/></defs><g class="bglayer"/><g class="layer-below"><g class="imagelayer"/><g class="shapelayer"/></g><g class="cartesianlayer"><g class="subplot xy"><g class="layer-subplot"><g class="shapelayer"><g class="shape-group" data-index="0" clip-path="url(#clip0239e4xy)"><path data-index="0" fill-rule="evenodd" d="M63.42,232.82H643.55V133.18H63.42Z" style="opacity: 0.2; stroke: rgb(0, 0, 0); stroke-opacity: 0; fill: rgb(123, 104, 238); fill-opacity: 1; stroke-width: 0px;"/></g></g><g class="imagelayer"/></g><g class="minor-gridlayer"><g class="x"/><g class="y"/></g><g class="gridlayer"><g class="x"><path class="xgrid crisp" transform="translate(107.28,0)" d="M0,46v274" style="stroke: rgb(49, 52, 57); stroke-opacity: 1; stroke-width: 1px;"/><path class="xgrid crisp" transform="translate(224.14,0)" d="M0,46v274" style="stroke: rgb(49, 52, 57); stroke-opacity: 1; stroke-width: 1px;"/><path class="xgrid crisp" transform="translate(340.99,0)" d="M0,46v274" style="stroke: rgb(49, 52, 57); stroke-opacity: 1; stroke-width: 1px;"/><path class="xgrid crisp" transform="translate(458.17,0)" d="M0,46v274" style="stroke: rgb(49, 52, 57); stroke-opacity: 1; stroke-width: 1px;"/><path class="xgrid crisp" transform="translate(575.03,0)" d="M0,46v274" style="stroke: rgb(49, 52, 57); stroke-opacity: 1; stroke-width: 1px;"/></g><g class="y"><path class="ygrid crisp" transform="translate(0,257.73)" d="M36,0h634" style="stroke: rgb(49, 52, 57); stroke-opacity: 1; stroke-width: 1px;"/><path class="ygrid crisp" transform="translate(0,207.91)" d="M36,0h634" style="stroke: rgb(49, 52, 57); stroke-opacity: 1; stroke-width: 1px;"/><path class="ygrid crisp" transform="translate(0,158.09)" d="M36,0h634" style="stroke: rgb(49, 52, 57); stroke-opacity: 1; stroke-width: 1px;"/><path class="ygrid crisp" transform="translate(0,108.27000000000001)" d="M36,0h634" style="stroke: rgb(49, 52, 57); stroke-opacity: 1; stroke-width: 1px;"/><path class="ygrid crisp" transform="translate(0,58.45)" d="M36,0h634" style="stroke: rgb(49, 52, 57); stroke-opacity: 1; stroke-width: 1px;"/></g></g><g class="zerolinelayer"><path class="yzl zl crisp" transform="translate(0,307.55)" d="M36,0h634" style="stroke: rgb(49, 52, 57); stroke-opacity: 1; stroke-width: 2px;"/></g><path class="xlines-below"/><path class="ylines-below"/><g class="overlines-below"/><g class="xaxislayer-below"/><g class="yaxislayer-below"/><g class="overaxes-below"/><g class="plot" transform="translate(36,46)" clip-path="url(#clip0239e4xyplot)"><g class="scatterlayer mlayer"><g class="trace scatter tracedd9a4619-5d1f-4bd3-9bd9-23cecf563287" style="stroke-miterlimit: 2; opacity: 1;"><g class="fills"/><g class="errorbars"/><g class="lines"><path class="js-line" d="M31.9,69.86L32.54,54.96L32.86,108.24L33.18,108.76L33.5,153.38L34.46,107.26L34.78,140.2L35.1,141.81L35.42,148.89L35.74,144.5L36.06,148L36.38,162.14L36.7,193.92L37.02,161.03L37.34,160.37L37.66,160.06L37.98,138.49L38.94,160.65L39.26,160.45L39.58,148.72L39.9,154.66L40.22,138.63L40.54,141.12L40.86,124.53L41.5,125.59L41.82,114.84L42.14,113.75L42.46,115.31L42.78,120.55L43.1,128.91L43.42,121.67L43.74,118.45L44.06,114.82L44.38,102.11L46.3,58.48L46.62,72.06L46.95,70.61L47.27,85.75L47.59,92.91L47.91,86.2L48.23,75.25L48.87,78.86L49.19,85.22L49.51,118.23L49.83,110.24L50.15,101.71L50.79,113.08L51.11,94.71L51.43,95.67L51.75,83.56L53.03,61.36L53.35,62.39L53.67,90.59L53.99,87.8L54.31,80.85L55.59,155.42L55.91,130.54L56.23,126.78L56.55,107.15L56.87,92.89L57.19,100.94L57.51,99.09L58.15,89.3L58.47,95.03L58.79,91.71L59.11,102.07L59.43,98.9L59.75,85.73L60.71,65.82L61.03,76.12L61.35,73.65L61.67,60.89L62.31,56.55L62.63,52.45L62.95,51.22L63.27,38.75L63.59,29.14L63.91,48.82L64.23,77.24L64.55,75.15L64.87,64.59L65.51,76.49L65.83,74.23L66.15,66.27L66.47,57.75L66.8,63.24L67.12,63.32L68.72,148.85L69.04,146.21L69.36,143.48L69.68,119.74L70,123.1L70.32,138.88L70.64,136.71L70.96,158.34L72.24,128.82L72.56,127.32L73.2,108.18L73.52,119.73L74.8,152.69L75.12,146.58L75.44,141.15L75.76,148.97L76.08,148.68L76.4,172.45L77.04,171.55L77.36,163.73L77.68,145.59L78,158.36L78.32,165.28L78.64,164.73L78.96,156.72L79.6,159.54L79.92,152.85L80.24,146.76L80.56,155L81.84,180.52L82.16,174L82.8,194.26L83.12,180.56L83.44,181.07L83.76,177.25L84.08,160.36L84.4,162.2L84.72,167.94L86,133.25L86.32,130.91L86.64,118.3L87.29,119.08L87.61,118.44L88.89,143.41L89.21,145.09L90.49,122.75L90.81,120.85L91.45,113.11L91.77,114.63L92.09,132.2L93.37,167.05L93.69,149.17L95.61,176.07L95.93,165.69L96.57,146.93L96.89,147.48L97.21,151.19L97.53,146.13L97.85,154.77L98.17,156.19L98.49,163.86L99.77,186.13L100.09,183.06L100.41,185L101.05,162.3L101.37,175.27L101.69,175.78L102.01,179.22L102.33,167.54L102.65,163.1L102.97,168.8L103.29,166.37L103.61,161.47L103.93,127.86L104.25,129.37L104.57,125.55L104.89,115.5L105.21,126.21L105.53,132.33L106.82,103.33L107.14,108.97L107.46,104.91L107.78,88.9L108.74,120.67L109.06,110.59L109.38,109.04L109.7,115.19L110.02,121.41L110.34,116.6L110.66,104.17L110.98,105.61L111.3,101.94L113.22,155.61L113.54,152.94L113.86,145.14L114.18,145.69L114.5,152.58L115.14,166.11L115.46,156.82L115.78,156.97L116.1,143.46L116.74,163.1L117.06,176.51L117.38,172.7L117.7,176.08L118.02,179.48L118.34,179.19L118.66,185.97L119.62,162.32L119.94,160.29L120.58,149.29L120.9,159.35L121.86,147.23L122.18,151.91L122.5,157.74L122.82,185.92L123.14,178.76L123.46,189.06L123.78,195.22L124.1,173.7L124.42,181.31L124.74,175.29L125.06,176.51L126.02,157.73L126.34,159.77L126.66,183.97L127.31,177.82L127.63,170.21L128.59,182.45L128.91,160.28L129.87,137.25L130.19,142.44L130.51,138.39L130.83,141.44L131.15,136.71L131.47,128.54L131.79,131.19L132.11,134.45L133.07,156.88L133.39,158.82L134.03,147.96L134.35,123.96L135.31,92.39L135.63,102.08L135.95,99.56L136.27,99.91L136.59,87.04L136.91,68.63L137.23,84.1L137.55,100.18L138.19,90.95L138.51,91.9L138.83,94.7L139.79,133.22L140.11,139.21L141.07,160.78L141.39,169.64L141.71,184.52L142.03,169.12L142.35,181.12L142.67,176.64L142.99,171.39L143.31,173.52L143.63,175.69L144.59,149.27L144.91,158.39L145.23,152.64L145.55,163.19L146.84,135.43L147.16,132.84L147.48,134.91L147.8,123.1L148.12,114.42L148.44,117.56L148.76,121.12L149.08,119.57L149.4,108.84L150.36,101.9L150.68,148.27L151.64,171.82L151.96,166.96L152.28,162.59L152.6,163.54L152.92,159.87L153.88,145.88L154.2,146.97L154.52,163.76L154.84,155.86L155.16,150.93L155.8,122.51L156.12,125.52L156.44,126.93L157.08,148.2L157.4,146.16L157.72,127.91L158.36,135.79L158.68,133.26L159,134.86L159.64,144.49L159.96,135.72L160.28,131.15L160.6,135.63L160.92,133.48L161.24,126.88L161.56,129.08L161.88,132.75L162.2,171.24L162.84,160.76L163.16,159.88L163.8,116.33L164.12,119.06L164.44,132.3L164.76,141.33L165.08,135.49L165.4,135.03L166.04,139.39L166.36,137.67L167.65,148L167.97,166.27L168.29,167.88L168.61,160.51L169.89,138.31L170.21,141.01L170.85,123.35L171.17,140.12L171.49,149.04L171.81,146.36L172.13,143.51L172.45,143.32L172.77,141.83L173.73,211.89L174.05,212.75L174.37,207.1L174.69,229.95L175.01,235.51L175.33,224.04L176.29,231.99L176.61,217.42L176.93,221.55L177.25,220.51L177.57,187.83L177.89,185.28L178.21,193.35L178.53,181.99L178.85,183.07L179.17,192.24L179.49,186.97L179.81,192.94L180.13,200.44L180.45,203.22L180.77,202.53L181.09,190.33L181.73,196.06L182.05,189.66L183.01,198.24L183.33,196.27L184.61,126.61L184.93,140.6L185.89,129.56L186.21,147.38L186.53,145.03L186.85,157.7L187.18,138.61L187.82,140.01L188.14,146.28L188.78,135.48L189.1,141.77L189.42,140.03L189.74,141.47L190.06,125.08L190.7,127.93L191.02,127.06L191.34,157.43L191.66,156.01L191.98,157.23L192.3,164.72L192.62,149.91L193.26,151.48L193.58,149.26L193.9,150.9L194.22,143.02L194.86,155.8L195.18,150.43L195.5,152.2L195.82,150.02L196.14,150.3L196.46,150.43L196.78,152.47L197.42,169.15L197.74,160.37L198.06,163.3L198.38,157.87L198.7,149.93L199.02,156.69L199.34,155.65L199.66,153.86L199.98,164.03L200.3,165.34L200.62,118.74L201.26,116.06L201.58,125.45L201.9,125.38L202.22,130.06L202.54,133.69L202.86,131.32L203.18,128.31L204.46,79.88L204.78,88.05L205.1,85.36L205.42,71.16L205.74,134.92L206.38,128.11L206.7,127.09L207.03,127.64L207.35,126.59L207.67,126.96L207.99,129.19L208.31,144.26L208.63,123.2L209.27,120.96L209.59,122.64L209.91,111.22L210.23,116.86L210.55,125.73L210.87,123.9L211.19,127.43L211.51,125.35L211.83,116.72L212.15,103.76L212.47,109.77L212.79,108.8L213.43,99.75L213.75,116.88L214.39,112.03L214.71,116.35L215.03,131.73L215.35,128.58L215.67,109.68L215.99,112.94L216.31,99.48L216.63,99.03L216.95,100.52L217.27,93.15L217.59,44.41L217.91,42.35L218.23,48.99L219.51,39.22L219.83,56.38L220.15,50.7L220.47,93.7L221.43,86.57L221.75,101.25L222.71,85.96L223.03,85.95L223.35,83.64L223.67,89.67L224.31,74.21L224.63,86.84L224.95,114.25L225.59,109.07L225.91,107.84L226.23,117.86L226.55,109.86L226.87,104.37L227.84,74.85L228.16,83.34L228.48,86.85L228.8,80.83L230.08,42.09L230.4,53.9L231.36,37.28L231.68,61.4L232.32,99.97L232.64,78.67L233.6,104.81L233.92,98.77L234.24,95.75L234.56,94.17L234.88,80.26L235.2,77.43L235.52,79.51L235.84,83.79L236.16,105.12L236.48,96.84L236.8,97.39L237.12,92.21L237.44,122.9L237.76,139.61L238.4,135.83L238.72,128.27L239.36,143.41L239.68,128.84L240,133.03L240.32,123.5L240.64,120.15L240.96,105.36L241.92,86.89L242.24,99.58L243.2,74.32L243.52,65.26L244.16,60.72L244.48,51.87L244.8,42.09L245.12,101.35L245.44,87.98L245.76,100.21L246.08,122.22L246.4,126.56L246.72,123L247.05,107.18L247.69,125.73L248.01,121.44L248.33,119L248.97,102.59L249.29,112.67L250.57,149.97L250.89,138.34L251.21,158.34L251.53,154.13L251.85,138.39L252.17,140.24L252.49,136.4L253.13,143.2L253.45,151.2L253.77,152.88L254.09,150.24L254.41,151.33L254.73,157.84L255.69,154.87L256.01,140.45L257.61,99.93L257.93,111.12L258.57,101.34L258.89,105.33L260.49,157.69L260.81,150.77L261.13,149.77L261.45,152.61L261.77,149.67L262.09,131.47L262.41,136.02L262.73,152.5L263.05,153.51L263.37,144.26L263.69,151.12L264.01,150.84L264.33,142.8L265.29,167.01L265.61,163.61L265.93,163.35L266.25,157.39L266.57,133.8L266.89,125.1L267.54,126.97L267.86,137.62L268.18,131.58L268.5,134.71L268.82,138.09L269.14,146.64L269.46,143.74L269.78,131.96L271.7,145.63L272.02,139.79L272.66,155.45L272.98,152.17L273.3,169.45L274.26,212.79L274.58,205.21L274.9,203.71L275.22,206.97L276.18,184.99L276.5,189.21L277.46,200.3L277.78,175.04L278.1,175.78L278.42,150.82L278.74,151.02L279.06,164.21L280.02,157.59L280.34,166.53L280.66,173.67L281.3,173.45L281.62,173.2L281.94,151.97L282.26,153.44L282.58,163.08L283.22,187.61L283.54,122.82L284.18,98.23L284.5,112.19L284.82,106.74L285.14,117.33L285.46,117.88L285.78,114.99L286.1,113.07L286.42,117.7L286.74,110.77L287.07,115.25L287.39,114.04L288.03,142.71L288.35,141L288.67,130.13L288.99,144.31L289.63,142.12L289.95,148.32L291.55,170.78L291.87,172.29L293.15,206.04L293.47,191.17L293.79,188.07L294.11,165.51L294.43,168.76L294.75,150.6L296.03,167.88L296.35,171.77L296.99,150.22L297.31,152.24L297.63,150.72L298.91,166.64L299.23,161.38L300.51,189.83L300.83,143.34L301.79,150.21L302.11,129.11L303.07,145.16L303.39,145.33L304.35,132.49L304.67,142.58L304.99,146.04L305.31,145.58L305.63,161.23L306.91,108.28L307.24,91.84L307.88,115.92L308.2,100.06L308.52,111.67L309.16,109.98L309.48,86.35L309.8,86.21L310.12,92.91L310.76,86.92L311.08,101.99L312.04,106.08L312.36,124.93L312.68,123.14L313,129.64L314.6,85.3L314.92,96.34L315.24,95.19L315.56,99.04L316.2,109.23L316.52,92.25L317.8,74.69L318.12,98.11L318.76,82.86L319.08,90.03L319.4,86.22L320.36,127.18L320.68,108.18L321,136L321.64,132.37L321.96,133.66L322.28,120.92L322.6,135.01L322.92,149.59L323.88,170.15L324.2,175.36L324.52,174.96L324.84,153.74L325.48,159.79L325.8,143.69L326.12,139.92L326.44,150.93L327.41,182.47L327.73,180.09L328.05,224.18L328.37,197.48L328.69,201.71L329.97,187.35L330.29,163.83L330.61,162.63L330.93,162.98L331.25,170.29L331.89,143.48L332.21,145.1L332.53,143.38L333.49,164.37L333.81,147.67L334.13,147.12L334.45,139.84L335.41,133.01L335.73,136.07L336.05,118.22L336.69,118.33L337.01,121.53L337.33,138L337.97,136.27L338.29,139.02L338.61,137.64L338.93,148.36L339.89,122.13L340.21,128.23L340.53,141.25L340.85,140.68L341.17,128.03L342.13,112.29L342.45,106.44L342.77,103.45L343.09,105.77L343.41,75.88L343.73,85.16L344.05,80.42L344.37,77.17L345.01,83.55L345.33,79.62L345.65,76.5L345.97,60.06L346.61,86.83L346.93,123.89L347.26,129.82L347.58,121.96L348.22,97.01L348.54,115.1L348.86,113.47L349.18,106.06L349.82,103.73L350.14,115.21L351.42,145.56L351.74,138.69L352.06,140.88L352.38,127.42L353.34,113.31L353.66,123.87L353.98,102.89L354.3,127.55L354.62,123.52L354.94,120.19L355.26,126.18L356.86,117.35L357.18,143.36L357.82,135.66L358.14,141.18L358.78,132.83L359.1,135.87L359.42,139.81L360.38,144.4L360.7,123.1L361.02,126.78L361.34,144.55L361.98,151.41L362.3,158.75L363.58,143.32L363.9,152.03L364.22,153.72L364.54,147.68L364.86,151.97L365.18,131.82L365.5,137.82L365.82,125.96L366.14,140.07L366.78,140.05L367.11,134.95L368.39,148.37L368.71,146.34L369.35,140.59L369.67,145.43L370.63,106.35L370.95,113.93L371.91,55.46L372.23,65.8L372.55,61.62L372.87,61.69L373.19,56.81L373.51,49.08L373.83,97.35L374.15,93.33L374.47,94.92L374.79,81.01L375.11,80.62L375.43,90.72L376.07,91.23L376.39,85.37L376.71,113.49L378.63,86.15L378.95,106.16L379.91,128.98L380.23,123.59L380.55,124.38L380.87,120.04L381.19,141.57L382.15,131.69L382.47,134.78L383.43,114.8L383.75,141.35L384.07,179.04L384.71,172.9L385.03,169.14L385.35,164.1L385.67,170.71L385.99,166.49L386.95,156.07L387.28,160.03L388.24,130.89L388.56,131.58L388.88,131.92L389.2,124.78L389.52,133.74L389.84,156.91L390.16,150.87L390.48,162.32L390.8,138.25L391.44,138.4L391.76,136.18L392.08,140.12L392.4,132.61L393.68,148.72L394,140.48L394.32,132.6L394.64,144.5L394.96,140.1L395.28,124.5L396.56,95.95L396.88,104.55L397.2,104.77L397.52,100.48L397.84,116.01L398.16,113.69L398.48,105.84L399.76,59.81L400.08,63.42L400.4,59.67L400.72,66.4L401.04,65.88L401.36,54.43L401.68,80.83L402.32,73.94L402.64,68.9L402.96,71.05L403.28,86.19L404.24,50.83L404.56,51.39L404.88,88.55L405.2,77.82L405.52,83.85L405.84,85.17L406.8,69.42L407.13,80.82L407.45,85.87L407.77,73.53L409.05,52.66L409.37,52.26L410.01,67.16L410.33,58.32L411.29,123.38L411.61,112.54L412.25,85.02L412.57,106.95L413.21,98.6L413.53,115.71L414.17,105.81L414.49,110.26L414.81,128.31L415.13,124.6L415.45,130.56L415.77,135.08L416.09,120.84L417.05,110.52L417.37,85.12L418.33,64.99L418.65,74.04L419.61,93.25L419.93,88.51L421.21,67.37L421.53,65.55L423.13,42.31L423.45,61.5L424.73,38.42L425.05,45.58L426.01,112.39L426.33,95.84L426.65,88.59L427.62,114.94L427.94,110.56L428.58,120.23L428.9,151.89L429.22,138.11L429.86,142.11L430.18,142.15L430.5,140.53L430.82,154.86L431.78,127.21L432.1,136.17L432.42,133.03L432.74,119.54L433.7,105.36L434.02,100.61L434.34,104.35L434.66,74.05L434.98,73.91L435.3,88.01L435.62,77.67L435.94,83.24L436.26,84.46L436.9,85.64L437.54,71.43L437.86,76.73L438.82,61.4L439.14,89.85L440.1,133.55L440.42,137.56L440.74,138.46L441.06,143.64L442.02,118.79L442.34,129.86L442.98,127.34L443.3,116.93L445.22,80.46L445.54,96.54L445.86,117.53L446.18,112.28L446.5,104.57L446.82,112.41L447.47,110.48L447.79,115.73L449.07,151.65L449.39,129.96L450.67,111.03L451.31,111.24L451.63,109.93L451.95,125.94L452.27,118.62L452.59,112.99L453.23,138.29L453.55,124.22L453.87,123.81L454.19,113.79L454.51,112.42L454.83,113.72L455.15,93.4L456.11,115.34L456.43,126.47L457.07,155.38L457.39,149.29L457.71,164.18L458.99,185.52L459.31,147.58L459.63,141.34L459.95,142.32L460.27,149.88L460.91,124.64L461.23,132.52L461.55,129.02L461.87,152.1L462.19,128.81L462.51,134.43L463.15,122L463.47,125.87L463.79,139.95L464.11,135.12L464.43,167.24L465.07,165.36L465.39,176.83L465.71,178L466.03,187.47L466.35,189.57L466.67,205.02L466.99,180.75L467.64,187.91L467.96,194.67L468.92,167.72L469.24,170.12L469.88,182.41L470.2,175.82L471.48,151.95L471.8,162.62L473.08,175.83L473.4,149.05L474.04,148.38L474.36,157.33L474.68,136.73L475,129.05L475.32,131.21L475.64,141.38L475.96,142.8L476.28,154.88L476.6,156.59L476.92,155.73L477.24,174.67L478.2,152.37L478.52,167.49L479.8,138.08L480.12,143.37L480.44,152.35L480.76,150.27L481.08,143.75L481.4,139.22L481.72,149.93L482.04,145.76L482.36,148.26L482.68,155.08L483.64,142.23L483.96,151.5L485.24,164.72L485.56,163.02L485.88,159.65L486.52,176.12L486.84,147.34L487.16,145.81L487.49,132.02L488.45,102.35L488.77,89.15L489.41,86.2L489.73,75.27L491.01,121.09L491.33,110.13L491.65,102.75L492.93,80.73L493.25,87.84L493.57,88.66L493.89,100.86L494.21,84.18L494.53,91.61L494.85,92.59L495.49,115.46L495.81,115.43L496.13,102.24L496.45,89.1L497.09,92.11L497.41,90.8L498.37,122.39L498.69,108.78L499.33,111.58L499.65,127.85L499.97,126.96L500.29,114.74L500.93,106.83L501.25,107.72L501.57,95.89L501.89,90.72L502.21,141.73L503.17,154.37L503.49,151.63L503.81,144.57L504.13,152.18L504.45,135.06L504.77,127.88L505.09,130.98L505.41,134.6L505.73,126.86L506.05,135.94L506.37,164.31L506.69,175.6L507.01,153.82L507.34,144.88L507.66,156.06L507.98,156.8L508.3,153.1L508.62,158.96L508.94,165.17L509.26,160.86L509.58,142.69L509.9,116.78L510.54,117.25L510.86,111.7L511.5,85.71L511.82,97.64L512.14,96.95L513.1,84.21L513.42,96.76L514.38,76L514.7,82.91L515.02,80.67L515.34,79L515.66,71.59L515.98,66.67L516.3,98.91L517.26,110.19L517.58,100.05L518.22,131.46L518.54,120.51L518.86,112.79L519.82,122.05L520.14,109.96L520.46,112.45L520.78,123.72L521.1,127.04L521.42,123.67L521.74,112.89L522.06,93.03L522.38,97.77L522.7,113.77L523.02,114.57L523.34,119.62L523.66,118.08L523.98,111.3L525.26,166.27L525.58,157.79L525.9,146.52L526.22,152.53L526.54,164.44L527.51,144.62L527.83,169.64L528.79,144.48L529.11,148.78L529.43,147.27L529.75,151.21L530.07,165.85L530.39,183.13L530.71,181.33L531.03,173.48L531.35,172.36L531.67,172.89L531.99,185.17L532.31,186.67L532.63,167.92L532.95,162.77L533.27,177.83L533.91,161.72L534.23,167.66L534.55,174.44L535.83,150.73L536.15,152.65L536.47,135.42L536.79,135.56L537.11,138.82L537.43,135.75L537.75,136.4L538.07,160.28L538.39,166.93L539.03,166.38L539.35,151.96L540.31,165.21L540.63,179.57L540.95,181.56L541.27,189.31L541.91,185.59L542.23,185.84L542.55,173.57L542.87,159.12L543.51,163.28L543.83,162.98L544.15,163.09L544.47,170.65L544.79,168.42L545.11,174.5L546.07,211.07L546.39,195.29L549.28,157.85L549.6,174.51L549.92,168.28L550.24,121.86L550.56,123.82L550.88,115.58L551.84,101.03L552.16,112.24L553.12,129.04L553.44,123.94L553.76,105.63L554.08,114.33L554.4,148.35L555.36,165L555.68,174.32L556.96,147.04L557.28,147.92L557.6,159.53L557.92,115.73L558.24,108.61L558.56,113.22L558.88,125.28L559.84,152.46L560.16,155.18L560.48,148.89L560.8,125.67L561.44,147.02L561.76,146.44L562.08,153.12L563.04,128.27L563.36,129.81L564,120.74L564.32,129.19L564.64,131.52L564.96,120.78L566.24,105.31L566.56,90.45L567.2,86.95L567.53,92.07L567.85,112.13L568.49,112.05L568.81,107.2L569.13,105.78L569.45,120.08L570.41,153.04L570.73,147.39L571.05,152.96L571.37,173.44L572.01,154.75L572.33,164.06L572.65,157.19L572.97,158.62L573.29,164.4L573.93,143.28L574.25,144.64L574.57,153.37L575.21,162.93L575.53,162.8L575.85,148.93L576.17,170.4L576.49,156.09L576.81,150.03L577.45,168.3L577.77,157.72L578.09,157.01L578.41,164.25L578.73,140.68L579.69,173.36L580.01,182.2L580.33,200.44L580.97,197.74L581.29,198.03L581.93,185.38L582.25,171.43L583.21,183.08L583.53,166.31L583.85,172.85L584.17,170.3L584.49,161.43L584.81,169.23L585.13,163.4L585.45,164.2L586.09,171L586.41,165.79L586.73,160.1L587.05,134.77L587.38,134.11L587.7,153.02L588.02,146.09L588.34,152.8L588.66,150.92L588.98,150.25L589.3,133.57L589.62,136.35L589.94,146.36L590.26,147.38L590.58,157.92L591.22,179.28L591.54,201.39L591.86,202.84L592.18,196.71L593.14,210.96L593.46,189.92L593.78,189.92L594.1,187.91L594.42,192.08L594.74,176.79L595.38,171.58L595.7,175.17L597.62,189.7L597.94,188.34L599.22,143.04L599.54,143.5L599.86,143.55L600.18,155.2L600.82,175.06L601.14,157.12L602.1,139.76L602.42,146.35L602.74,120.4L603.06,108.54L603.38,111.76L603.7,113.12L605.3,147.68L605.62,120.49L605.94,109.48L606.26,110.74L606.58,113.33L607.55,126.59" style="vector-effect: none; fill: none; stroke: rgb(108, 166, 205); stroke-opacity: 1; stroke-width: 2px; opacity: 1;"/></g><g class="points"/><g class="text"/></g><g class="trace scatter trace9f53ecb2-d6f2-4551-b666-d1e6ec825322" style="stroke-miterlimit: 2; opacity: 1;"><g class="fills"/><g class="errorbars"/><g class="lines"/><g class="points"><path class="point" transform="translate(36.7,193.92)" d="M-4.62,2H4.62L0,-4Z" style="opacity: 1; stroke-width: 1px; fill: rgb(55, 177, 63); fill-opacity: 1; stroke: rgb(38, 123, 44); stroke-opacity: 1;"/><path class="point" transform="translate(82.8,194.26)" d="M-4.62,2H4.62L0,-4Z" style="opacity: 1; stroke-width: 1px; fill: rgb(55, 177, 63); fill-opacity: 1; stroke: rgb(38, 123, 44); stroke-opacity: 1;"/><path class="point" transform="translate(123.46,189.06)" d="M-4.62,2H4.62L0,-4Z" style="opacity: 1; stroke-width: 1px; fill: rgb(55, 177, 63); fill-opacity: 1; stroke: rgb(38, 123, 44); stroke-opacity: 1;"/><path class="point" transform="translate(173.09,198.95)" d="M-4.62,2H4.62L0,-4Z" style="opacity: 1; stroke-width: 1px; fill: rgb(55, 177, 63); fill-opacity: 1; stroke: rgb(38, 123, 44); stroke-opacity: 1;"/><path class="point" transform="translate(178.21,193.35)" d="M-4.62,2H4.62L0,-4Z" style="opacity: 1; stroke-width: 1px; fill: rgb(55, 177, 63); fill-opacity: 1; stroke: rgb(38, 123, 44); stroke-opacity: 1;"/><path class="point" transform="translate(179.17,192.24)" d="M-4.62,2H4.62L0,-4Z" style="opacity: 1; stroke-width: 1px; fill: rgb(55, 177, 63); fill-opacity: 1; stroke: rgb(38, 123, 44); stroke-opacity: 1;"/><path class="point" transform="translate(273.62,205.01)" d="M-4.62,2H4.62L0,-4Z" style="opacity: 1; stroke-width: 1px; fill: rgb(55, 177, 63); fill-opacity: 1; stroke: rgb(38, 123, 44); stroke-opacity: 1;"/><path class="point" transform="translate(276.5,189.21)" d="M-4.62,2H4.62L0,-4Z" style="opacity: 1; stroke-width: 1px; fill: rgb(55, 177, 63); fill-opacity: 1; stroke: rgb(38, 123, 44); stroke-opacity: 1;"/><path class="point" transform="translate(283.22,187.61)" d="M-4.62,2H4.62L0,-4Z" style="opacity: 1; stroke-width: 1px; fill: rgb(55, 177, 63); fill-opacity: 1; stroke: rgb(38, 123, 44); stroke-opacity: 1;"/><path class="point" transform="translate(292.19,189.51)" d="M-4.62,2H4.62L0,-4Z" style="opacity: 1; stroke-width: 1px; fill: rgb(55, 177, 63); fill-opacity: 1; stroke: rgb(38, 123, 44); stroke-opacity: 1;"/><path class="point" transform="translate(300.51,189.83)" d="M-4.62,2H4.62L0,-4Z" style="opacity: 1; stroke-width: 1px; fill: rgb(55, 177, 63); fill-opacity: 1; stroke: rgb(38, 123, 44); stroke-opacity: 1;"/><path class="point" transform="translate(328.05,224.18)" d="M-4.62,2H4.62L0,-4Z" style="opacity: 1; stroke-width: 1px; fill: rgb(55, 177, 63); fill-opacity: 1; stroke: rgb(38, 123, 44); stroke-opacity: 1;"/><path class="point" transform="translate(466.03,187.47)" d="M-4.62,2H4.62L0,-4Z" style="opacity: 1; stroke-width: 1px; fill: rgb(55, 177, 63); fill-opacity: 1; stroke: rgb(38, 123, 44); stroke-opacity: 1;"/><path class="point" transform="translate(467.32,189.07)" d="M-4.62,2H4.62L0,-4Z" style="opacity: 1; stroke-width: 1px; fill: rgb(55, 177, 63); fill-opacity: 1; stroke: rgb(38, 123, 44); stroke-opacity: 1;"/><path class="point" transform="translate(541.27,189.31)" d="M-4.62,2H4.62L0,-4Z" style="opacity: 1; stroke-width: 1px; fill: rgb(55, 177, 63); fill-opacity: 1; stroke: rgb(38, 123, 44); stroke-opacity: 1;"/><path class="point" transform="translate(545.75,205.84)" d="M-4.62,2H4.62L0,-4Z" style="opacity: 1; stroke-width: 1px; fill: rgb(55, 177, 63); fill-opacity: 1; stroke: rgb(38, 123, 44); stroke-opacity: 1;"/><path class="point" transform="translate(547.36,186.88)" d="M-4.62,2H4.62L0,-4Z" style="opacity: 1; stroke-width: 1px; fill: rgb(55, 177, 63); fill-opacity: 1; stroke: rgb(38, 123, 44); stroke-opacity: 1;"/><path class="point" transform="translate(580.33,200.44)" d="M-4.62,2H4.62L0,-4Z" style="opacity: 1; stroke-width: 1px; fill: rgb(55, 177, 63); fill-opacity: 1; stroke: rgb(38, 123, 44); stroke-opacity: 1;"/><path class="point" transform="translate(591.54,201.39)" d="M-4.62,2H4.62L0,-4Z" style="opacity: 1; stroke-width: 1px; fill: rgb(55, 177, 63); fill-opacity: 1; stroke: rgb(38, 123, 44); stroke-opacity: 1;"/><path class="point" transform="translate(597.3,189.48)" d="M-4.62,2H4.62L0,-4Z" style="opacity: 1; stroke-width: 1px; fill: rgb(55, 177, 63); fill-opacity: 1; stroke: rgb(38, 123, 44); stroke-opacity: 1;"/></g><g class="text"/></g><g class="trace scatter trace31510b21-7656-4583-badd-12cdd0b26b48" style="stroke-miterlimit: 2; opacity: 1;"><g class="fills"/><g class="errorbars"/><g class="lines"/><g class="points"><path class="point" transform="translate(45.66,68.83)" d="M-4.62,-2H4.62L0,4Z" style="opacity: 1; stroke-width: 1px; fill: rgb(234, 67, 53); fill-opacity: 1; stroke: rgb(181, 31, 18); stroke-opacity: 1;"/><path class="point" transform="translate(47.91,86.2)" d="M-4.62,-2H4.62L0,4Z" style="opacity: 1; stroke-width: 1px; fill: rgb(234, 67, 53); fill-opacity: 1; stroke: rgb(181, 31, 18); stroke-opacity: 1;"/><path class="point" transform="translate(51.75,83.56)" d="M-4.62,-2H4.62L0,4Z" style="opacity: 1; stroke-width: 1px; fill: rgb(234, 67, 53); fill-opacity: 1; stroke: rgb(181, 31, 18); stroke-opacity: 1;"/><path class="point" transform="translate(54.31,80.85)" d="M-4.62,-2H4.62L0,4Z" style="opacity: 1; stroke-width: 1px; fill: rgb(234, 67, 53); fill-opacity: 1; stroke: rgb(181, 31, 18); stroke-opacity: 1;"/><path class="point" transform="translate(59.75,85.73)" d="M-4.62,-2H4.62L0,4Z" style="opacity: 1; stroke-width: 1px; fill: rgb(234, 67, 53); fill-opacity: 1; stroke: rgb(181, 31, 18); stroke-opacity: 1;"/><path class="point" transform="translate(136.59,87.04)" d="M-4.62,-2H4.62L0,4Z" style="opacity: 1; stroke-width: 1px; fill: rgb(234, 67, 53); fill-opacity: 1; stroke: rgb(181, 31, 18); stroke-opacity: 1;"/><path class="point" transform="translate(203.82,87.09)" d="M-4.62,-2H4.62L0,4Z" style="opacity: 1; stroke-width: 1px; fill: rgb(234, 67, 53); fill-opacity: 1; stroke: rgb(181, 31, 18); stroke-opacity: 1;"/><path class="point" transform="translate(205.1,85.36)" d="M-4.62,-2H4.62L0,4Z" style="opacity: 1; stroke-width: 1px; fill: rgb(234, 67, 53); fill-opacity: 1; stroke: rgb(181, 31, 18); stroke-opacity: 1;"/><path class="point" transform="translate(217.59,44.41)" d="M-4.62,-2H4.62L0,4Z" style="opacity: 1; stroke-width: 1px; fill: rgb(234, 67, 53); fill-opacity: 1; stroke: rgb(181, 31, 18); stroke-opacity: 1;"/><path class="point" transform="translate(221.43,86.57)" d="M-4.62,-2H4.62L0,4Z" style="opacity: 1; stroke-width: 1px; fill: rgb(234, 67, 53); fill-opacity: 1; stroke: rgb(181, 31, 18); stroke-opacity: 1;"/><path class="point" transform="translate(222.71,85.96)" d="M-4.62,-2H4.62L0,4Z" style="opacity: 1; stroke-width: 1px; fill: rgb(234, 67, 53); fill-opacity: 1; stroke: rgb(181, 31, 18); stroke-opacity: 1;"/><path class="point" transform="translate(223.99,82.49)" d="M-4.62,-2H4.62L0,4Z" style="opacity: 1; stroke-width: 1px; fill: rgb(234, 67, 53); fill-opacity: 1; stroke: rgb(181, 31, 18); stroke-opacity: 1;"/><path class="point" transform="translate(227.52,77.88)" d="M-4.62,-2H4.62L0,4Z" style="opacity: 1; stroke-width: 1px; fill: rgb(234, 67, 53); fill-opacity: 1; stroke: rgb(181, 31, 18); stroke-opacity: 1;"/><path class="point" transform="translate(232.64,78.67)" d="M-4.62,-2H4.62L0,4Z" style="opacity: 1; stroke-width: 1px; fill: rgb(234, 67, 53); fill-opacity: 1; stroke: rgb(181, 31, 18); stroke-opacity: 1;"/><path class="point" transform="translate(234.88,80.26)" d="M-4.62,-2H4.62L0,4Z" style="opacity: 1; stroke-width: 1px; fill: rgb(234, 67, 53); fill-opacity: 1; stroke: rgb(181, 31, 18); stroke-opacity: 1;"/><path class="point" transform="translate(241.92,86.89)" d="M-4.62,-2H4.62L0,4Z" style="opacity: 1; stroke-width: 1px; fill: rgb(234, 67, 53); fill-opacity: 1; stroke: rgb(181, 31, 18); stroke-opacity: 1;"/><path class="point" transform="translate(243.2,74.32)" d="M-4.62,-2H4.62L0,4Z" style="opacity: 1; stroke-width: 1px; fill: rgb(234, 67, 53); fill-opacity: 1; stroke: rgb(181, 31, 18); stroke-opacity: 1;"/><path class="point" transform="translate(309.48,86.35)" d="M-4.62,-2H4.62L0,4Z" style="opacity: 1; stroke-width: 1px; fill: rgb(234, 67, 53); fill-opacity: 1; stroke: rgb(181, 31, 18); stroke-opacity: 1;"/><path class="point" transform="translate(310.44,86.98)" d="M-4.62,-2H4.62L0,4Z" style="opacity: 1; stroke-width: 1px; fill: rgb(234, 67, 53); fill-opacity: 1; stroke: rgb(181, 31, 18); stroke-opacity: 1;"/><path class="point" transform="translate(313.96,86.7)" d="M-4.62,-2H4.62L0,4Z" style="opacity: 1; stroke-width: 1px; fill: rgb(234, 67, 53); fill-opacity: 1; stroke: rgb(181, 31, 18); stroke-opacity: 1;"/><path class="point" transform="translate(314.6,85.3)" d="M-4.62,-2H4.62L0,4Z" style="opacity: 1; stroke-width: 1px; fill: rgb(234, 67, 53); fill-opacity: 1; stroke: rgb(181, 31, 18); stroke-opacity: 1;"/><path class="point" transform="translate(316.84,86.84)" d="M-4.62,-2H4.62L0,4Z" style="opacity: 1; stroke-width: 1px; fill: rgb(234, 67, 53); fill-opacity: 1; stroke: rgb(181, 31, 18); stroke-opacity: 1;"/><path class="point" transform="translate(318.44,85.85)" d="M-4.62,-2H4.62L0,4Z" style="opacity: 1; stroke-width: 1px; fill: rgb(234, 67, 53); fill-opacity: 1; stroke: rgb(181, 31, 18); stroke-opacity: 1;"/><path class="point" transform="translate(319.4,86.22)" d="M-4.62,-2H4.62L0,4Z" style="opacity: 1; stroke-width: 1px; fill: rgb(234, 67, 53); fill-opacity: 1; stroke: rgb(181, 31, 18); stroke-opacity: 1;"/><path class="point" transform="translate(343.41,75.88)" d="M-4.62,-2H4.62L0,4Z" style="opacity: 1; stroke-width: 1px; fill: rgb(234, 67, 53); fill-opacity: 1; stroke: rgb(181, 31, 18); stroke-opacity: 1;"/><path class="point" transform="translate(371.91,55.46)" d="M-4.62,-2H4.62L0,4Z" style="opacity: 1; stroke-width: 1px; fill: rgb(234, 67, 53); fill-opacity: 1; stroke: rgb(181, 31, 18); stroke-opacity: 1;"/><path class="point" transform="translate(374.79,81.01)" d="M-4.62,-2H4.62L0,4Z" style="opacity: 1; stroke-width: 1px; fill: rgb(234, 67, 53); fill-opacity: 1; stroke: rgb(181, 31, 18); stroke-opacity: 1;"/><path class="point" transform="translate(375.75,86.31)" d="M-4.62,-2H4.62L0,4Z" style="opacity: 1; stroke-width: 1px; fill: rgb(234, 67, 53); fill-opacity: 1; stroke: rgb(181, 31, 18); stroke-opacity: 1;"/><path class="point" transform="translate(376.39,85.37)" d="M-4.62,-2H4.62L0,4Z" style="opacity: 1; stroke-width: 1px; fill: rgb(234, 67, 53); fill-opacity: 1; stroke: rgb(181, 31, 18); stroke-opacity: 1;"/><path class="point" transform="translate(378.63,86.15)" d="M-4.62,-2H4.62L0,4Z" style="opacity: 1; stroke-width: 1px; fill: rgb(234, 67, 53); fill-opacity: 1; stroke: rgb(181, 31, 18); stroke-opacity: 1;"/><path class="point" transform="translate(399.44,63.35)" d="M-4.62,-2H4.62L0,4Z" style="opacity: 1; stroke-width: 1px; fill: rgb(234, 67, 53); fill-opacity: 1; stroke: rgb(181, 31, 18); stroke-opacity: 1;"/><path class="point" transform="translate(405.2,77.82)" d="M-4.62,-2H4.62L0,4Z" style="opacity: 1; stroke-width: 1px; fill: rgb(234, 67, 53); fill-opacity: 1; stroke: rgb(181, 31, 18); stroke-opacity: 1;"/><path class="point" transform="translate(412.25,85.02)" d="M-4.62,-2H4.62L0,4Z" style="opacity: 1; stroke-width: 1px; fill: rgb(234, 67, 53); fill-opacity: 1; stroke: rgb(181, 31, 18); stroke-opacity: 1;"/><path class="point" transform="translate(417.37,85.12)" d="M-4.62,-2H4.62L0,4Z" style="opacity: 1; stroke-width: 1px; fill: rgb(234, 67, 53); fill-opacity: 1; stroke: rgb(181, 31, 18); stroke-opacity: 1;"/><path class="point" transform="translate(419.29,81.1)" d="M-4.62,-2H4.62L0,4Z" style="opacity: 1; stroke-width: 1px; fill: rgb(234, 67, 53); fill-opacity: 1; stroke: rgb(181, 31, 18); stroke-opacity: 1;"/><path class="point" transform="translate(420.25,80.06)" d="M-4.62,-2H4.62L0,4Z" style="opacity: 1; stroke-width: 1px; fill: rgb(234, 67, 53); fill-opacity: 1; stroke: rgb(181, 31, 18); stroke-opacity: 1;"/><path class="point" transform="translate(434.66,74.05)" d="M-4.62,-2H4.62L0,4Z" style="opacity: 1; stroke-width: 1px; fill: rgb(234, 67, 53); fill-opacity: 1; stroke: rgb(181, 31, 18); stroke-opacity: 1;"/><path class="point" transform="translate(435.62,77.67)" d="M-4.62,-2H4.62L0,4Z" style="opacity: 1; stroke-width: 1px; fill: rgb(234, 67, 53); fill-opacity: 1; stroke: rgb(181, 31, 18); stroke-opacity: 1;"/><path class="point" transform="translate(445.22,80.46)" d="M-4.62,-2H4.62L0,4Z" style="opacity: 1; stroke-width: 1px; fill: rgb(234, 67, 53); fill-opacity: 1; stroke: rgb(181, 31, 18); stroke-opacity: 1;"/><path class="point" transform="translate(489.09,86.19)" d="M-4.62,-2H4.62L0,4Z" style="opacity: 1; stroke-width: 1px; fill: rgb(234, 67, 53); fill-opacity: 1; stroke: rgb(181, 31, 18); stroke-opacity: 1;"/><path class="point" transform="translate(492.29,83.32)" d="M-4.62,-2H4.62L0,4Z" style="opacity: 1; stroke-width: 1px; fill: rgb(234, 67, 53); fill-opacity: 1; stroke: rgb(181, 31, 18); stroke-opacity: 1;"/><path class="point" transform="translate(492.93,80.73)" d="M-4.62,-2H4.62L0,4Z" style="opacity: 1; stroke-width: 1px; fill: rgb(234, 67, 53); fill-opacity: 1; stroke: rgb(181, 31, 18); stroke-opacity: 1;"/><path class="point" transform="translate(494.21,84.18)" d="M-4.62,-2H4.62L0,4Z" style="opacity: 1; stroke-width: 1px; fill: rgb(234, 67, 53); fill-opacity: 1; stroke: rgb(181, 31, 18); stroke-opacity: 1;"/><path class="point" transform="translate(511.5,85.71)" d="M-4.62,-2H4.62L0,4Z" style="opacity: 1; stroke-width: 1px; fill: rgb(234, 67, 53); fill-opacity: 1; stroke: rgb(181, 31, 18); stroke-opacity: 1;"/><path class="point" transform="translate(513.1,84.21)" d="M-4.62,-2H4.62L0,4Z" style="opacity: 1; stroke-width: 1px; fill: rgb(234, 67, 53); fill-opacity: 1; stroke: rgb(181, 31, 18); stroke-opacity: 1;"/><path class="point" transform="translate(514.38,76)" d="M-4.62,-2H4.62L0,4Z" style="opacity: 1; stroke-width: 1px; fill: rgb(234, 67, 53); fill-opacity: 1; stroke: rgb(181, 31, 18); stroke-opacity: 1;"/><path class="point" transform="translate(567.2,86.95)" d="M-4.62,-2H4.62L0,4Z" style="opacity: 1; stroke-width: 1px; fill: rgb(234, 67, 53); fill-opacity: 1; stroke: rgb(181, 31, 18); stroke-opacity: 1;"/></g><g class="text"/></g></g></g><g class="overplot"/><path class="xlines-above crisp" d="M0,0" style="fill: none;"/><path class="ylines-above crisp" d="M0,0" style="fill: none;"/><g class="overlines-above"/><g class="xaxislayer-above"><g class="xtick"><text text-anchor="middle" x="0" y="333" transform="translate(107.28,0)" style="font-family: 'Open Sans', verdana, arial, sans-serif; font-size: 12px; fill: rgb(214, 223, 239); fill-opacity: 1; white-space: pre; opacity: 1;">2018</text></g><g class="xtick"><text text-anchor="middle" x="0" y="333" style="font-family: 'Open Sans', verdana, arial, sans-serif; font-size: 12px; fill: rgb(214, 223, 239); fill-opacity: 1; white-space: pre; opacity: 1;" transform="translate(224.14,0)">2019</text></g><g class="xtick"><text text-anchor="middle" x="0" y="333" style="font-family: 'Open Sans', verdana, arial, sans-serif; font-size: 12px; fill: rgb(214, 223, 239); fill-opacity: 1; white-space: pre; opacity: 1;" transform="translate(340.99,0)">2020</text></g><g class="xtick"><text text-anchor="middle" x="0" y="333" style="font-family: 'Open Sans', verdana, arial, sans-serif; font-size: 12px; fill: rgb(214, 223, 239); fill-opacity: 1; white-space: pre; opacity: 1;" transform="translate(458.17,0)">2021</text></g><g class="xtick"><text text-anchor="middle" x="0" y="333" style="font-family: 'Open Sans', verdana, arial, sans-serif; font-size: 12px; fill: rgb(214, 223, 239); fill-opacity: 1; white-space: pre; opacity: 1;" transform="translate(575.03,0)">2022</text></g></g><g class="yaxislayer-above"><g class="ytick"><text text-anchor="end" x="35" y="4.199999999999999" transform="translate(0,307.55)" style="font-family: 'Open Sans', verdana, arial, sans-serif; font-size: 12px; fill: rgb(214, 223, 239); fill-opacity: 1; white-space: pre; opacity: 1;">0</text></g><g class="ytick"><text text-anchor="end" x="35" y="4.199999999999999" style="font-family: 'Open Sans', verdana, arial, sans-serif; font-size: 12px; fill: rgb(214, 223, 239); fill-opacity: 1; white-space: pre; opacity: 1;" transform="translate(0,257.73)">20</text></g><g class="ytick"><text text-anchor="end" x="35" y="4.199999999999999" style="font-family: 'Open Sans', verdana, arial, sans-serif; font-size: 12px; fill: rgb(214, 223, 239); fill-opacity: 1; white-space: pre; opacity: 1;" transform="translate(0,207.91)">40</text></g><g class="ytick"><text text-anchor="end" x="35" y="4.199999999999999" style="font-family: 'Open Sans', verdana, arial, sans-serif; font-size: 12px; fill: rgb(214, 223, 239); fill-opacity: 1; white-space: pre; opacity: 1;" transform="translate(0,158.09)">60</text></g><g class="ytick"><text text-anchor="end" x="35" y="4.199999999999999" style="font-family: 'Open Sans', verdana, arial, sans-serif; font-size: 12px; fill: rgb(214, 223, 239); fill-opacity: 1; white-space: pre; opacity: 1;" transform="translate(0,108.27000000000001)">80</text></g><g class="ytick"><text text-anchor="end" x="35" y="4.199999999999999" style="font-family: 'Open Sans', verdana, arial, sans-serif; font-size: 12px; fill: rgb(214, 223, 239); fill-opacity: 1; white-space: pre; opacity: 1;" transform="translate(0,58.45)">100</text></g></g><g class="overaxes-above"/></g></g><g class="polarlayer"/><g class="smithlayer"/><g class="ternarylayer"/><g class="geolayer"/><g class="funnelarealayer"/><g class="pielayer"/><g class="iciclelayer"/><g class="treemaplayer"/><g class="sunburstlayer"/><g class="glimages"/><defs id="topdefs-0239e4"><g class="clips"/><clipPath id="legend0239e4"><rect width="228" height="29" x="0" y="0"/></clipPath></defs><g class="layer-above"><g class="imagelayer"/><g class="shapelayer"/></g><g class="infolayer"><g class="legend" pointer-events="all" transform="translate(442,11.519999999999996)"><rect class="bg" shape-rendering="crispEdges" style="stroke: rgb(68, 68, 68); stroke-opacity: 1; fill: rgb(33, 34, 38); fill-opacity: 1; stroke-width: 0px;" width="228" height="29" x="0" y="0"/><g class="scrollbox" transform="" clip-path="url(#legend0239e4)"><g class="groups"><g class="traces" transform="translate(0,14.5)" style="opacity: 1;"><text class="legendtext" text-anchor="start" x="40" y="4.680000000000001" style="font-family: 'Open Sans', verdana, arial, sans-serif; font-size: 12px; fill: rgb(214, 223, 239); fill-opacity: 1; white-space: pre;">RSI</text><g class="layers" style="opacity: 1;"><g class="legendfill"/><g class="legendlines"><path class="js-line" d="M5,0h30" style="fill: none; stroke: rgb(108, 166, 205); stroke-opacity: 1; stroke-width: 2px;"/></g><g class="legendsymbols"><g class="legendpoints"/></g></g><rect class="legendtoggle" x="0" y="-9.5" width="64.109375" height="19" style="fill: rgb(0, 0, 0); fill-opacity: 0;"/></g><g class="traces" transform="translate(66.609375,14.5)" style="opacity: 1;"><text class="legendtext" text-anchor="start" x="40" y="4.680000000000001" style="font-family: 'Open Sans', verdana, arial, sans-serif; font-size: 12px; fill: rgb(214, 223, 239); fill-opacity: 1; white-space: pre;">Entries</text><g class="layers" style="opacity: 1;"><g class="legendfill"/><g class="legendlines"/><g class="legendsymbols"><g class="legendpoints"><path class="scatterpts" transform="translate(20,0)" d="M-4.62,2H4.62L0,-4Z" style="opacity: 1; stroke-width: 1px; fill: rgb(55, 177, 63); fill-opacity: 1; stroke: rgb(38, 123, 44); stroke-opacity: 1;"/></g></g></g><rect class="legendtoggle" x="0" y="-9.5" width="84.234375" height="19" style="fill: rgb(0, 0, 0); fill-opacity: 0;"/></g><g class="traces" transform="translate(153.34375,14.5)" style="opacity: 1;"><text class="legendtext" text-anchor="start" x="40" y="4.680000000000001" style="font-family: 'Open Sans', verdana, arial, sans-serif; font-size: 12px; fill: rgb(214, 223, 239); fill-opacity: 1; white-space: pre;">Exits</text><g class="layers" style="opacity: 1;"><g class="legendfill"/><g class="legendlines"/><g class="legendsymbols"><g class="legendpoints"><path class="scatterpts" transform="translate(20,0)" d="M-4.62,-2H4.62L0,4Z" style="opacity: 1; stroke-width: 1px; fill: rgb(234, 67, 53); fill-opacity: 1; stroke: rgb(181, 31, 18); stroke-opacity: 1;"/></g></g></g><rect class="legendtoggle" x="0" y="-9.5" width="71.46875" height="19" style="fill: rgb(0, 0, 0); fill-opacity: 0;"/></g></g></g><rect class="scrollbar" rx="20" ry="3" width="0" height="0" style="fill: rgb(128, 139, 164); fill-opacity: 1;" x="0" y="0"/></g><g class="g-gtitle"/><g class="g-xtitle"/><g class="g-ytitle"/></g></svg>