<svg class="main-svg" xmlns="http://www.w3.org/2000/svg" xmlns:xlink="http://www.w3.org/1999/xlink" width="700" height="350" style="" viewBox="0 0 700 350"><rect x="0" y="0" width="700" height="350" style="fill: rgb(255, 255, 255); fill-opacity: 1;"/><defs id="defs-7f30da"><g class="clips"><clipPath id="clip7f30daxyplot" class="plotclip"><rect width="634" height="274"/></clipPath><clipPath class="axesclip" id="clip7f30dax"><rect x="36" y="0" width="634" height="350"/></clipPath><clipPath class="axesclip" id="clip7f30day"><rect x="0" y="46" width="700" height="274"/></clipPath><clipPath class="axesclip" id="clip7f30daxy"><rect x="36" y="46" width="634" height="274"/></clipPath></g><g class="gradients"/><g class="patterns"/></defs><g class="bglayer"><rect class="bg" x="36" y="46" width="634" height="274" style="fill: rgb(229, 236, 246); fill-opacity: 1; stroke-width: 0;"/></g><g class="layer-below"><g class="imagelayer"/><g class="shapelayer"/></g><g class="cartesianlayer"><g class="subplot xy"><g class="layer-subplot"><g class="shapelayer"><g class="shape-group" data-index="0" clip-path="url(#clip7f30daxy)"><path data-index="0" fill-rule="evenodd" d="M63.129999999999995,232.82H661.36V133.18H63.129999999999995Z" style="opacity: 0.2; stroke: rgb(0, 0, 0); stroke-opacity: 0; fill: rgb(123, 104, 238); fill-opacity: 1; stroke-width: 0px;"/></g></g><g class="imagelayer"/></g><g class="minor-gridlayer"><g class="x"/><g class="y"/></g><g class="gridlayer"><g class="x"><path class="xgrid crisp" transform="translate(108.36,0)" d="M0,46v274" style="stroke: rgb(255, 255, 255); stroke-opacity: 1; stroke-width: 1px;"/><path class="xgrid crisp" transform="translate(228.86,0)" d="M0,46v274" style="stroke: rgb(255, 255, 255); stroke-opacity: 1; stroke-width: 1px;"/><path class="xgrid crisp" transform="translate(349.37,0)" d="M0,46v274" style="stroke: rgb(255, 255, 255); stroke-opacity: 1; stroke-width: 1px;"/><path class="xgrid crisp" transform="translate(470.2,0)" d="M0,46v274" style="stroke: rgb(255, 255, 255); stroke-opacity: 1; stroke-width: 1px;"/><path class="xgrid crisp" transform="translate(590.71,0)" d="M0,46v274" style="stroke: rgb(255, 255, 255); stroke-opacity: 1; stroke-width: 1px;"/></g><g class="y"><path class="ygrid crisp" transform="translate(0,257.73)" d="M36,0h634" style="stroke: rgb(255, 255, 255); stroke-opacity: 1; stroke-width: 1px;"/><path class="ygrid crisp" transform="translate(0,207.91)" d="M36,0h634" style="stroke: rgb(255, 255, 255); stroke-opacity: 1; stroke-width: 1px;"/><path class="ygrid crisp" transform="translate(0,158.09)" d="M36,0h634" style="stroke: rgb(255, 255, 255); stroke-opacity: 1; stroke-width: 1px;"/><path class="ygrid crisp" transform="translate(0,108.27000000000001)" d="M36,0h634" style="stroke: rgb(255, 255, 255); stroke-opacity: 1; stroke-width: 1px;"/><path class="ygrid crisp" transform="translate(0,58.45)" d="M36,0h634" style="stroke: rgb(255, 255, 255); stroke-opacity: 1; stroke-width: 1px;"/></g></g><g class="zerolinelayer"><path class="yzl zl crisp" transform="translate(0,307.55)" d="M36,0h634" style="stroke: rgb(255, 255, 255); stroke-opacity: 1; stroke-width: 2px;"/></g><path class="xlines-below"/><path class="ylines-below"/><g class="overlines-below"/><g class="xaxislayer-below"/><g class="yaxislayer-below"/><g class="overaxes-below"/><g class="plot" transform="translate(36,46)" clip-path="url(#clip7f30daxyplot)"><g class="scatterlayer mlayer"><g class="trace scatter trace801d9f1f-7800-4022-820b-9f530065f719" style="stroke-miterlimit: 2; opacity: 1;"><g class="fills"/><g class="errorbars"/><g class="lines"><path class="js-line" d="M31.75,69.86L32.41,54.96L32.74,108.24L33.07,108.76L33.4,153.38L34.39,107.26L34.72,140.2L35.05,141.81L35.38,148.89L35.71,144.5L36.04,148L36.37,162.14L36.7,193.92L37.03,161.03L37.36,160.37L37.69,160.06L38.02,138.49L39.01,160.65L39.34,160.45L39.67,148.72L40,154.66L40.33,138.63L40.66,141.12L40.99,124.53L41.65,125.59L41.98,114.84L42.31,113.75L42.64,115.31L43.3,128.91L43.63,121.67L44.29,114.82L44.62,102.11L46.6,58.48L46.93,72.06L47.26,70.61L47.6,85.75L47.93,92.91L48.26,86.2L48.59,75.25L49.25,78.86L49.58,85.22L49.91,118.23L50.24,110.24L50.57,101.71L51.23,113.08L51.56,94.71L51.89,95.67L52.22,83.56L53.54,61.36L53.87,62.39L54.2,90.59L54.53,87.8L54.86,80.85L56.18,155.42L56.51,130.54L56.84,126.78L57.17,107.15L57.5,92.89L57.83,100.94L58.16,99.09L58.82,89.3L59.15,95.03L59.48,91.71L59.81,102.07L60.14,98.9L60.47,85.73L61.46,65.82L61.79,76.12L62.12,73.65L62.45,60.89L63.11,56.55L63.44,52.45L63.77,51.22L64.1,38.75L64.43,29.14L64.76,48.82L65.09,77.24L65.42,75.15L65.75,64.59L66.41,76.49L66.74,74.23L67.07,66.27L67.4,57.75L67.73,63.24L68.06,63.32L69.39,148.57L69.72,148.85L70.38,143.48L70.71,119.74L71.04,123.1L71.37,138.88L71.7,136.71L72.03,158.34L73.35,128.82L73.68,127.32L74.34,108.18L74.67,119.73L75.99,152.69L76.32,146.58L76.65,141.15L76.98,148.97L77.31,148.68L77.64,172.45L78.3,171.55L78.63,163.73L78.96,145.59L79.29,158.36L79.62,165.28L79.95,164.73L80.28,156.72L80.94,159.54L81.27,152.85L81.6,146.76L81.93,155L83.25,180.52L83.58,174L84.24,194.26L84.57,180.56L84.9,181.07L85.23,177.25L85.56,160.36L85.89,162.2L86.22,167.94L87.54,133.25L87.87,130.91L88.2,118.3L88.86,119.08L89.19,118.44L90.51,143.41L90.85,145.09L92.17,122.75L92.5,120.85L93.16,113.11L93.49,114.63L93.82,132.2L95.14,167.05L95.47,149.17L96.46,171.1L96.79,169.64L97.12,169.12L97.45,176.07L97.78,165.69L98.44,146.93L98.77,147.48L99.1,151.19L99.43,146.13L99.76,154.77L100.09,156.19L100.42,163.86L101.74,186.13L102.07,183.06L102.4,185L102.73,175.01L103.06,162.3L103.39,175.27L103.72,175.78L104.05,179.22L104.38,167.54L104.71,163.1L105.04,168.8L105.7,161.47L106.03,127.86L106.36,129.37L106.69,125.55L107.02,115.5L107.35,126.21L107.68,132.33L109,103.33L109.33,108.97L109.66,104.91L109.99,88.9L110.98,120.67L111.31,110.59L111.64,109.04L111.97,115.19L112.31,121.41L112.64,116.6L112.97,104.17L113.3,105.61L113.63,101.94L115.61,155.61L115.94,152.94L116.27,145.14L116.6,145.69L116.93,152.58L117.59,166.11L117.92,156.82L118.25,156.97L118.58,143.46L119.24,163.1L119.57,176.51L119.9,172.7L120.23,176.08L120.56,179.48L120.89,179.19L121.22,185.97L122.21,162.32L122.54,160.29L123.2,149.29L123.53,159.35L124.52,147.23L124.85,151.91L125.18,157.74L125.51,185.92L125.84,178.76L126.17,189.06L126.5,195.22L126.83,173.7L127.16,181.31L127.49,175.29L127.82,176.51L128.81,157.73L129.14,159.77L129.47,183.97L130.13,177.82L130.46,170.21L131.45,182.45L131.78,160.28L132.77,137.25L133.1,142.44L134.43,128.54L134.76,131.19L135.09,134.45L136.08,156.88L136.41,158.82L137.07,147.96L137.4,123.96L138.39,92.39L138.72,102.08L139.05,99.56L139.38,99.91L139.71,87.04L140.04,68.63L140.37,84.1L140.7,100.18L141.36,90.95L141.69,91.9L142.02,94.7L143.01,133.22L143.34,139.21L144.33,160.78L144.66,169.64L144.99,184.52L145.32,169.12L145.65,181.12L145.98,176.64L146.31,171.39L146.64,173.52L146.97,175.69L147.96,149.27L148.29,158.39L148.62,152.64L148.95,163.19L150.27,135.43L150.6,132.84L150.93,134.91L151.26,123.1L151.59,114.42L151.92,117.56L152.25,121.12L152.58,119.57L152.91,108.84L153.9,101.9L154.23,148.27L155.22,171.82L155.56,166.96L155.89,162.59L156.22,163.54L156.55,159.87L157.54,145.88L157.87,146.97L158.2,163.76L158.53,155.86L158.86,150.93L159.52,122.51L159.85,125.52L160.18,126.93L160.84,148.2L161.17,146.16L161.5,127.91L162.16,135.79L162.49,133.26L162.82,134.86L163.48,144.49L163.81,135.72L164.14,131.15L164.47,135.63L164.8,133.48L165.13,126.88L165.46,129.08L165.79,132.75L166.12,171.24L166.78,160.76L167.11,159.88L167.77,116.33L168.1,119.06L168.43,132.3L168.76,141.33L169.09,135.49L169.42,135.03L170.08,139.39L170.41,137.67L171.73,148L172.06,166.27L172.39,167.88L172.72,160.51L173.38,149.02L173.71,155.59L175.03,123.35L175.36,140.12L175.69,149.04L176.02,146.36L176.35,143.51L176.68,143.32L177.02,141.83L178.01,211.89L178.34,212.75L178.67,207.1L179,229.95L179.33,235.51L179.66,224.04L180.65,231.99L180.98,217.42L181.31,221.55L181.64,220.51L181.97,187.83L182.3,185.28L182.63,193.35L182.96,181.99L183.29,183.07L183.62,192.24L183.95,186.97L184.28,192.94L184.61,200.44L184.94,203.22L185.27,202.53L185.6,190.33L186.26,196.06L186.59,189.66L187.58,198.24L187.91,196.27L189.23,126.61L189.56,140.6L190.55,129.56L190.88,147.38L191.21,145.03L191.54,157.7L191.87,138.61L192.53,140.01L192.86,146.28L193.52,135.48L193.85,141.77L194.18,140.03L194.51,141.47L194.84,125.08L195.5,127.93L195.83,127.06L196.16,157.43L196.49,156.01L196.82,157.23L197.15,164.72L197.48,149.91L198.14,151.48L198.48,149.26L198.81,150.9L199.14,143.02L199.8,155.8L200.13,150.43L200.46,152.2L200.79,150.02L201.12,150.3L201.45,150.43L201.78,152.47L202.44,169.15L202.77,160.37L203.1,163.3L203.43,157.87L203.76,149.93L204.09,156.69L204.42,155.65L204.75,153.86L205.08,164.03L205.41,165.34L205.74,118.74L206.4,116.06L206.73,125.45L207.06,125.38L207.39,130.06L207.72,133.69L208.05,131.32L208.38,128.31L209.7,79.88L210.03,88.05L210.36,85.36L210.69,71.16L211.02,134.92L211.68,128.11L212.01,127.09L212.34,127.64L212.67,126.59L213,126.96L213.33,129.19L213.66,144.26L213.99,123.2L214.65,120.96L214.98,122.64L215.31,111.22L215.64,116.86L215.97,125.73L216.3,123.9L216.63,127.43L216.96,125.35L217.29,116.72L217.62,103.76L217.95,109.77L218.28,108.8L218.94,99.75L219.27,116.88L219.93,112.03L220.27,116.35L220.6,131.73L220.93,128.58L221.26,109.68L221.59,112.94L221.92,99.48L222.25,99.03L222.58,100.52L222.91,93.15L223.24,44.41L223.57,42.35L223.9,48.99L225.22,39.22L225.55,56.38L225.88,50.7L226.21,93.7L227.2,86.57L227.53,101.25L228.52,85.96L228.85,85.95L229.18,83.64L229.51,89.67L230.17,74.21L230.5,86.84L230.83,114.25L231.49,109.07L231.82,107.84L232.15,117.86L232.48,109.86L232.81,104.37L233.8,74.85L234.13,83.34L234.46,86.85L234.79,80.83L236.11,42.09L236.44,53.9L237.43,37.28L237.76,61.4L238.42,99.97L238.75,78.67L239.74,104.81L240.07,98.77L240.4,95.75L240.73,94.17L241.06,80.26L241.39,77.43L241.73,79.51L242.06,83.79L242.39,105.12L242.72,96.84L243.05,97.39L243.38,92.21L243.71,122.9L244.04,139.61L244.7,135.83L245.03,128.27L245.69,143.41L246.02,128.84L246.35,133.03L246.68,123.5L247.01,120.15L247.34,105.36L248.33,86.89L248.66,99.58L249.65,74.32L249.98,65.26L250.64,60.72L250.97,51.87L251.3,42.09L251.63,101.35L251.96,87.98L252.29,100.21L252.62,122.22L252.95,126.56L253.28,123L253.61,107.18L254.27,125.73L254.6,121.44L254.93,119L255.59,102.59L255.92,112.67L257.24,149.97L257.57,138.34L257.9,158.34L258.23,154.13L258.56,138.39L258.89,140.24L259.22,136.4L259.88,143.2L260.21,151.2L260.54,152.88L260.87,150.24L261.2,151.33L261.53,157.84L262.52,154.87L262.85,140.45L264.51,99.93L264.84,111.12L265.5,101.34L265.83,105.33L267.48,157.69L267.81,150.77L268.14,149.77L268.47,152.61L268.8,149.67L269.13,131.47L269.46,136.02L269.79,152.5L270.12,153.51L270.45,144.26L270.78,151.12L271.11,150.84L271.44,142.8L272.43,167.01L272.76,163.61L273.09,163.35L273.42,157.39L273.75,133.8L274.08,125.1L274.74,126.97L275.07,137.62L275.4,131.58L275.73,134.71L276.06,138.09L276.39,146.64L276.72,143.74L277.05,131.96L279.03,145.63L279.36,139.79L280.02,155.45L280.35,152.17L280.68,169.45L281.67,212.79L282,205.21L282.33,203.71L282.66,206.97L283.65,184.99L283.98,189.21L284.98,200.3L285.31,175.04L285.64,175.78L285.97,150.82L286.3,151.02L286.63,164.21L287.62,157.59L287.95,166.53L288.28,173.67L288.94,173.45L289.27,173.2L289.6,151.97L289.93,153.44L290.26,163.08L290.92,187.61L291.25,122.82L291.91,98.23L292.24,112.19L292.57,106.74L292.9,117.33L293.23,117.88L293.56,114.99L293.89,113.07L294.22,117.7L294.55,110.77L294.88,115.25L295.21,114.04L295.87,142.71L296.2,141L296.53,130.13L296.86,144.31L297.52,142.12L297.85,148.32L299.5,170.78L299.83,172.29L301.15,206.04L301.48,191.17L301.81,188.07L302.14,165.51L302.47,168.76L302.8,150.6L304.12,167.88L304.45,171.77L305.11,150.22L305.44,152.24L305.77,150.72L307.1,166.64L307.43,161.38L308.75,189.83L309.08,143.34L310.07,150.21L310.4,129.11L311.39,145.16L311.72,145.33L312.71,132.49L313.04,142.58L313.37,146.04L313.7,145.58L314.03,161.23L315.35,108.28L315.68,91.84L316.34,115.92L316.67,100.06L317,111.67L317.66,109.98L317.99,86.35L318.32,86.21L318.65,92.91L319.31,86.92L319.64,101.99L320.63,106.08L320.96,124.93L321.29,123.14L321.62,129.64L323.27,85.3L323.6,96.34L323.93,95.19L324.26,99.04L324.92,109.23L325.25,92.25L326.57,74.69L326.9,98.11L327.56,82.86L327.9,90.03L328.23,86.22L328.56,115.4L328.89,115.14L329.22,127.18L329.55,108.18L329.88,136L330.21,135.9L330.54,132.37L330.87,133.66L331.2,120.92L332.85,170.15L333.18,175.36L333.51,174.96L333.84,153.74L334.5,159.79L334.83,143.69L335.16,139.92L335.49,150.93L336.48,182.47L336.81,180.09L337.14,224.18L337.47,197.48L337.8,201.71L339.12,187.35L339.45,163.83L339.78,162.63L340.11,162.98L340.44,170.29L341.1,143.48L341.43,145.1L341.76,143.38L342.75,164.37L343.08,147.67L343.41,147.12L343.74,139.84L344.73,133.01L345.06,136.07L345.39,118.22L346.05,118.33L346.38,121.53L346.71,138L347.37,136.27L347.7,139.02L348.03,137.64L348.36,148.36L349.36,122.13L349.69,128.23L350.02,141.25L350.35,140.68L350.68,128.03L351.67,112.29L352,106.44L352.33,103.45L352.66,105.77L352.99,75.88L353.32,85.16L353.65,80.42L353.98,77.17L354.64,83.55L354.97,79.62L355.3,76.5L355.63,60.06L356.29,86.83L356.62,123.89L356.95,129.82L357.28,121.96L357.94,97.01L358.27,115.1L358.6,113.47L358.93,106.06L359.59,103.73L359.92,115.21L361.24,145.56L361.57,138.69L361.9,140.88L362.23,127.42L363.22,113.31L363.55,123.87L363.88,102.89L364.21,127.55L364.54,123.52L364.87,120.19L365.2,126.18L366.85,117.35L367.18,143.36L367.84,135.66L368.17,141.18L368.83,132.83L369.16,135.87L369.49,139.81L370.48,144.4L370.81,123.1L371.15,126.78L371.48,144.55L372.14,151.41L372.47,158.75L373.79,143.32L374.12,152.03L374.45,153.72L374.78,147.68L375.11,151.97L375.44,131.82L375.77,137.82L376.1,125.96L376.43,140.07L377.09,140.05L377.42,134.95L378.74,148.37L379.07,146.34L379.73,140.59L380.06,145.43L381.05,106.35L381.38,113.93L382.37,55.46L382.7,65.8L383.03,61.62L383.36,61.69L383.69,56.81L384.02,49.08L384.35,97.35L384.68,93.33L385.01,94.92L385.34,81.01L385.67,80.62L386,90.72L386.66,91.23L386.99,85.37L387.32,113.49L388.64,99.27L388.97,97.33L389.3,86.15L389.63,106.16L390.62,128.98L390.95,123.59L391.28,124.38L391.61,120.04L391.94,141.57L392.61,141.04L392.94,131.69L393.27,134.78L393.6,123.38L393.93,126.78L394.26,114.8L394.92,179.04L395.58,172.9L395.91,169.14L396.24,164.1L396.57,170.71L397.89,156.07L398.22,160.03L399.21,130.89L399.54,131.58L399.87,131.92L400.2,124.78L401.52,162.32L401.85,138.25L402.18,140.36L402.51,138.4L402.84,136.18L403.17,140.12L403.5,132.61L404.82,148.72L405.15,140.48L405.48,132.6L405.81,144.5L406.14,140.1L406.47,124.5L407.79,95.95L408.12,104.55L408.45,104.77L408.78,100.48L409.11,116.01L409.44,113.69L409.77,105.84L411.09,59.81L411.42,63.42L411.75,59.67L412.08,66.4L412.41,65.88L412.74,54.43L413.07,80.83L413.73,73.94L414.07,68.9L414.4,71.05L414.73,86.19L415.72,50.83L416.05,51.39L416.38,88.55L416.71,77.82L417.04,83.85L417.37,85.17L418.36,69.42L418.69,80.82L419.02,85.87L419.35,73.53L420.67,52.66L421,52.26L421.66,67.16L421.99,58.32L422.98,123.38L423.31,112.54L423.97,85.02L424.3,106.95L424.96,98.6L425.29,115.71L425.95,105.81L426.28,110.26L426.61,128.31L426.94,124.6L427.27,130.56L427.6,135.08L427.93,120.84L428.92,110.52L429.25,85.12L430.24,64.99L430.57,74.04L431.56,93.25L431.89,88.51L433.21,67.37L433.54,65.55L435.19,42.31L435.52,61.5L436.85,38.42L437.18,45.58L438.17,112.39L438.5,95.84L438.83,88.59L439.82,114.94L440.15,110.56L440.81,120.23L441.14,151.89L441.47,138.11L441.8,143.34L442.13,142.11L442.46,142.15L442.79,140.53L443.12,154.86L443.45,132.9L444.11,127.21L444.44,136.17L444.77,133.03L445.1,119.54L446.09,105.36L446.42,100.61L446.75,104.35L447.08,74.05L447.41,73.91L447.74,88.01L448.07,77.67L448.4,83.24L448.73,84.46L449.06,79.49L449.39,85.64L449.72,81.08L450.71,64.65L451.04,65.24L451.37,61.4L451.7,89.85L452.69,133.55L453.02,137.56L453.35,138.46L453.68,143.64L454.67,118.79L455,129.86L455.66,127.34L455.99,116.93L457.98,80.46L458.31,96.54L458.64,117.53L458.97,112.28L459.3,104.57L459.63,112.41L460.29,110.48L460.62,115.73L461.94,151.65L462.27,129.96L463.59,111.03L464.25,111.24L464.58,109.93L464.91,125.94L465.24,118.62L465.57,112.99L466.23,138.29L466.56,124.22L466.89,123.81L467.22,113.79L467.55,112.42L467.88,113.72L468.21,93.4L469.2,115.34L469.53,126.47L470.19,155.38L470.52,149.29L470.85,164.18L472.17,185.52L472.5,147.58L472.83,141.34L473.16,142.32L473.49,149.88L474.15,124.64L474.48,132.52L474.81,129.02L475.14,152.1L475.47,128.81L476.13,129.7L476.46,122L476.79,125.87L477.12,139.95L477.45,135.12L477.78,167.24L478.44,165.36L478.78,176.83L479.11,178L479.44,187.47L479.77,189.57L480.1,205.02L480.43,180.75L480.76,189.07L481.09,187.91L481.42,194.67L481.75,171.32L482.08,172.76L482.41,167.72L482.74,170.12L483.07,179.27L483.4,182.41L483.73,175.82L485.05,151.95L485.38,162.62L486.7,175.83L487.03,149.05L487.69,148.38L488.02,157.33L488.35,136.73L488.68,129.05L489.01,131.21L489.34,141.38L489.67,142.8L490,154.88L490.33,156.59L490.66,155.73L490.99,174.67L491.98,152.37L492.31,167.49L493.63,138.08L493.96,143.37L494.29,152.35L494.62,150.27L494.95,143.75L495.28,139.22L495.61,149.93L495.94,145.76L496.27,148.26L496.6,155.08L497.59,142.23L497.92,151.5L499.24,164.72L499.57,163.02L499.9,159.65L500.57,176.12L500.9,147.34L501.23,145.81L501.56,132.02L502.55,102.35L502.88,89.15L503.54,86.2L503.87,75.27L505.19,121.09L505.52,110.13L507.17,80.73L507.5,87.84L507.83,88.66L508.16,100.86L508.49,84.18L508.82,91.61L509.15,92.59L509.81,115.46L510.14,115.43L510.47,102.24L510.8,89.1L511.46,92.11L511.79,90.8L512.78,122.39L513.11,108.78L513.77,111.58L514.1,127.85L514.43,126.96L514.76,114.74L515.42,106.83L515.75,107.72L516.08,95.89L516.41,90.72L516.74,141.73L517.73,154.37L518.06,151.63L518.39,144.57L518.72,152.18L519.05,135.06L519.38,127.88L519.71,130.98L520.04,134.6L520.37,126.86L520.7,135.94L521.03,164.31L521.36,175.6L521.69,153.82L522.03,144.88L522.36,156.06L522.69,156.8L523.02,153.1L523.68,165.17L524.01,160.86L524.34,142.69L524.67,116.78L525.33,117.25L525.66,111.7L526.32,85.71L526.65,97.64L526.98,96.95L527.97,84.21L528.3,96.76L529.29,76L529.62,82.91L529.95,80.67L530.28,79L530.61,71.59L530.94,66.67L531.27,98.91L532.26,110.19L532.59,100.05L533.25,131.46L533.58,120.51L533.91,112.79L534.9,122.05L535.23,109.96L535.56,112.45L535.89,123.72L536.22,127.04L536.55,123.67L536.88,112.89L537.21,93.03L537.54,97.77L537.87,113.77L538.2,114.57L538.53,119.62L538.86,118.08L539.19,111.3L540.51,166.27L540.84,157.79L541.17,146.52L541.5,152.53L541.83,164.44L542.82,144.62L543.15,169.64L544.15,144.48L544.48,148.78L544.81,147.27L545.14,151.21L545.47,165.85L545.8,183.13L546.13,181.33L546.46,173.48L546.79,172.36L547.12,172.89L547.45,185.17L547.78,186.67L548.11,167.92L548.44,162.77L548.77,177.83L549.43,161.72L549.76,167.66L550.09,174.44L551.41,150.73L551.74,152.65L552.07,135.42L552.4,135.56L552.73,138.82L553.06,135.75L553.39,136.4L553.72,160.28L554.05,166.93L554.71,166.38L555.04,151.96L556.03,165.21L556.36,179.57L556.69,181.56L557.02,189.31L557.68,185.59L558.01,185.84L558.34,173.57L558.67,159.12L559,169.32L559.33,163.28L559.99,163.09L560.32,170.65L560.65,168.42L560.98,174.5L561.97,211.07L562.3,195.29L565.28,157.85L565.61,174.51L565.94,168.28L566.27,121.86L566.6,123.82L566.93,115.58L567.92,101.03L568.25,112.24L569.24,129.04L569.57,123.94L569.9,105.63L570.23,114.33L570.56,148.35L571.55,165L571.88,174.32L573.2,147.04L573.53,147.92L573.86,159.53L574.19,115.73L574.52,108.61L574.85,113.22L575.18,125.28L576.17,152.46L576.5,155.18L576.83,148.89L577.16,125.67L577.82,147.02L578.15,146.44L578.48,153.12L579.47,128.27L579.8,129.81L580.46,120.74L580.79,129.19L581.12,131.52L581.45,120.78L582.77,105.31L583.1,90.45L583.76,86.95L584.09,92.07L584.42,112.13L585.08,112.05L585.41,107.2L585.74,105.78L586.07,120.08L587.07,153.04L587.4,147.39L587.73,152.96L588.06,173.44L588.72,154.75L589.05,164.06L589.38,157.19L589.71,158.62L590.04,164.4L590.7,143.28L591.03,144.64L591.36,153.37L592.02,162.93L592.35,162.8L592.68,148.93L593.01,170.4L593.34,156.09L593.67,150.03L594.33,168.3L594.66,157.72L594.99,157.01L595.32,164.25L595.65,140.68L596.64,173.36L596.97,182.2L597.3,200.44L597.96,197.74L598.29,198.03L598.95,185.38L599.28,171.43L600.27,183.08L600.6,166.31L600.93,172.85L601.26,170.3L601.59,161.43L601.92,169.23L602.25,163.4L602.58,164.2L603.24,171L603.57,165.79L603.9,160.1L604.23,134.77L604.56,134.11L604.89,153.02L605.22,146.09L605.55,152.8L605.88,150.92L606.21,150.25L606.54,133.57L606.87,136.35L607.2,146.36L607.53,147.38L607.86,157.92L608.53,179.28L608.86,201.39L609.19,202.84L609.52,196.71L610.51,210.96L610.84,189.92L611.17,189.92L611.5,187.91L611.83,192.08L612.16,176.79L612.82,171.58L613.15,175.17L615.13,189.7L615.46,188.34L616.78,143.04L617.11,143.5L617.44,143.55L617.77,155.2L618.43,175.06L618.76,157.12L619.75,139.76L620.08,146.35L620.74,108.54L621.07,111.76L621.4,113.12L623.05,147.68L623.38,120.49L623.71,109.48L624.04,110.74L624.37,113.33L625.36,126.59" style="vector-effect: none; fill: none; stroke: rgb(108, 166, 205); stroke-opacity: 1; stroke-width: 2px; opacity: 1;"/></g><g class="points"/><g class="text"/></g><g class="trace scatter traceb54f1014-6e8f-4465-82b5-3d412f575d7e" style="stroke-miterlimit: 2; opacity: 1;"><g class="fills"/><g class="errorbars"/><g class="lines"/><g class="points"><path class="point" transform="translate(36.7,193.92)" d="M-4.62,2H4.62L0,-4Z" style="opacity: 1; stroke-width: 1px; fill: rgb(55, 177, 63); fill-opacity: 1; stroke: rgb(38, 123, 44); stroke-opacity: 1;"/><path class="point" transform="translate(84.24,194.26)" d="M-4.62,2H4.62L0,-4Z" style="opacity: 1; stroke-width: 1px; fill: rgb(55, 177, 63); fill-opacity: 1; stroke: rgb(38, 123, 44); stroke-opacity: 1;"/><path class="point" transform="translate(177.35,198.95)" d="M-4.62,2H4.62L0,-4Z" style="opacity: 1; stroke-width: 1px; fill: rgb(55, 177, 63); fill-opacity: 1; stroke: rgb(38, 123, 44); stroke-opacity: 1;"/><path class="point" transform="translate(281.01,205.01)" d="M-4.62,2H4.62L0,-4Z" style="opacity: 1; stroke-width: 1px; fill: rgb(55, 177, 63); fill-opacity: 1; stroke: rgb(38, 123, 44); stroke-opacity: 1;"/><path class="point" transform="translate(337.14,224.18)" d="M-4.62,2H4.62L0,-4Z" style="opacity: 1; stroke-width: 1px; fill: rgb(55, 177, 63); fill-opacity: 1; stroke: rgb(38, 123, 44); stroke-opacity: 1;"/><path class="point" transform="translate(479.44,187.47)" d="M-4.62,2H4.62L0,-4Z" style="opacity: 1; stroke-width: 1px; fill: rgb(55, 177, 63); fill-opacity: 1; stroke: rgb(38, 123, 44); stroke-opacity: 1;"/><path class="point" transform="translate(557.02,189.31)" d="M-4.62,2H4.62L0,-4Z" style="opacity: 1; stroke-width: 1px; fill: rgb(55, 177, 63); fill-opacity: 1; stroke: rgb(38, 123, 44); stroke-opacity: 1;"/><path class="point" transform="translate(597.3,200.44)" d="M-4.62,2H4.62L0,-4Z" style="opacity: 1; stroke-width: 1px; fill: rgb(55, 177, 63); fill-opacity: 1; stroke: rgb(38, 123, 44); stroke-opacity: 1;"/></g><g class="text"/></g><g class="trace scatter tracedf2293ea-8de0-4d77-9893-d05774c2d67c" style="stroke-miterlimit: 2; opacity: 1;"><g class="fills"/><g class="errorbars"/><g class="lines"/><g class="points"><path class="point" transform="translate(45.94,68.83)" d="M-4.62,-2H4.62L0,4Z" style="opacity: 1; stroke-width: 1px; fill: rgb(234, 67, 53); fill-opacity: 1; stroke: rgb(181, 31, 18); stroke-opacity: 1;"/><path class="point" transform="translate(139.71,87.04)" d="M-4.62,-2H4.62L0,4Z" style="opacity: 1; stroke-width: 1px; fill: rgb(234, 67, 53); fill-opacity: 1; stroke: rgb(181, 31, 18); stroke-opacity: 1;"/><path class="point" transform="translate(209.04,87.09)" d="M-4.62,-2H4.62L0,4Z" style="opacity: 1; stroke-width: 1px; fill: rgb(234, 67, 53); fill-opacity: 1; stroke: rgb(181, 31, 18); stroke-opacity: 1;"/><path class="point" transform="translate(317.99,86.35)" d="M-4.62,-2H4.62L0,4Z" style="opacity: 1; stroke-width: 1px; fill: rgb(234, 67, 53); fill-opacity: 1; stroke: rgb(181, 31, 18); stroke-opacity: 1;"/><path class="point" transform="translate(352.99,75.88)" d="M-4.62,-2H4.62L0,4Z" style="opacity: 1; stroke-width: 1px; fill: rgb(234, 67, 53); fill-opacity: 1; stroke: rgb(181, 31, 18); stroke-opacity: 1;"/><path class="point" transform="translate(503.21,86.19)" d="M-4.62,-2H4.62L0,4Z" style="opacity: 1; stroke-width: 1px; fill: rgb(234, 67, 53); fill-opacity: 1; stroke: rgb(181, 31, 18); stroke-opacity: 1;"/><path class="point" transform="translate(583.76,86.95)" d="M-4.62,-2H4.62L0,4Z" style="opacity: 1; stroke-width: 1px; fill: rgb(234, 67, 53); fill-opacity: 1; stroke: rgb(181, 31, 18); stroke-opacity: 1;"/></g><g class="text"/></g></g></g><g class="overplot"/><path class="xlines-above crisp" d="M0,0" style="fill: none;"/><path class="ylines-above crisp" d="M0,0" style="fill: none;"/><g class="overlines-above"/><g class="xaxislayer-above"><g class="xtick"><text text-anchor="middle" x="0" y="333" transform="translate(108.36,0)" style="font-family: 'Open Sans', verdana, arial, sans-serif; font-size: 12px; fill: rgb(42, 63, 95); fill-opacity: 1; white-space: pre; opacity: 1;">2018</text></g><g class="xtick"><text text-anchor="middle" x="0" y="333" style="font-family: 'Open Sans', verdana, arial, sans-serif; font-size: 12px; fill: rgb(42, 63, 95); fill-opacity: 1; white-space: pre; opacity: 1;" transform="translate(228.86,0)">2019</text></g><g class="xtick"><text text-anchor="middle" x="0" y="333" style="font-family: 'Open Sans', verdana, arial, sans-serif; font-size: 12px; fill: rgb(42, 63, 95); fill-opacity: 1; white-space: pre; opacity: 1;" transform="translate(349.37,0)">2020</text></g><g class="xtick"><text text-anchor="middle" x="0" y="333" style="font-family: 'Open Sans', verdana, arial, sans-serif; font-size: 12px; fill: rgb(42, 63, 95); fill-opacity: 1; white-space: pre; opacity: 1;" transform="translate(470.2,0)">2021</text></g><g class="xtick"><text text-anchor="middle" x="0" y="333" style="font-family: 'Open Sans', verdana, arial, sans-serif; font-size: 12px; fill: rgb(42, 63, 95); fill-opacity: 1; white-space: pre; opacity: 1;" transform="translate(590.71,0)">2022</text></g></g><g class="yaxislayer-above"><g class="ytick"><text text-anchor="end" x="35" y="4.199999999999999" transform="translate(0,307.55)" style="font-family: 'Open Sans', verdana, arial, sans-serif; font-size: 12px; fill: rgb(42, 63, 95); fill-opacity: 1; white-space: pre; opacity: 1;">0</text></g><g class="ytick"><text text-anchor="end" x="35" y="4.199999999999999" style="font-family: 'Open Sans', verdana, arial, sans-serif; font-size: 12px; fill: rgb(42, 63, 95); fill-opacity: 1; white-space: pre; opacity: 1;" transform="translate(0,257.73)">20</text></g><g class="ytick"><text text-anchor="end" x="35" y="4.199999999999999" style="font-family: 'Open Sans', verdana, arial, sans-serif; font-size: 12px; fill: rgb(42, 63, 95); fill-opacity: 1; white-space: pre; opacity: 1;" transform="translate(0,207.91)">40</text></g><g class="ytick"><text text-anchor="end" x="35" y="4.199999999999999" style="font-family: 'Open Sans', verdana, arial, sans-serif; font-size: 12px; fill: rgb(42, 63, 95); fill-opacity: 1; white-space: pre; opacity: 1;" transform="translate(0,158.09)">60</text></g><g class="ytick"><text text-anchor="end" x="35" y="4.199999999999999" style="font-family: 'Open Sans', verdana, arial, sans-serif; font-size: 12px; fill: rgb(42, 63, 95); fill-opacity: 1; white-space: pre; opacity: 1;" transform="translate(0,108.27000000000001)">80</text></g><g class="ytick"><text text-anchor="end" x="35" y="4.199999999999999" style="font-family: 'Open Sans', verdana, arial, sans-serif; font-size: 12px; fill: rgb(42, 63, 95); fill-opacity: 1; white-space: pre; opacity: 1;" transform="translate(0,58.45)">100</text></g></g><g class="overaxes-above"/></g></g><g class="polarlayer"/><g class="smithlayer"/><g class="ternarylayer"/><g class="geolayer"/><g class="funnelarealayer"/><g class="pielayer"/><g class="iciclelayer"/><g class="treemaplayer"/><g class="sunburstlayer"/><g class="glimages"/><defs id="topdefs-7f30da"><g class="clips"/><clipPath id="legend7f30da"><rect width="228" height="29" x="0" y="0"/></clipPath></defs><g class="layer-above"><g class="imagelayer"/><g class="shapelayer"/></g><g class="infolayer"><g class="legend" pointer-events="all" transform="translate(442,11.519999999999996)"><rect class="bg" shape-rendering="crispEdges" width="228" height="29" x="0" y="0" style="stroke: rgb(68, 68, 68); stroke-opacity: 1; fill: rgb(255, 255, 255); fill-opacity: 1; stroke-width: 0px;"/><g class="scrollbox" transform="" clip-path="url(#legend7f30da)"><g class="groups"><g class="traces" transform="translate(0,14.5)" style="opacity: 1;"><text class="legendtext" text-anchor="start" x="40" y="4.680000000000001" style="font-family: 'Open Sans', verdana, arial, sans-serif; font-size: 12px; fill: rgb(42, 63, 95); fill-opacity: 1; white-space: pre;">RSI</text><g class="layers" style="opacity: 1;"><g class="legendfill"/><g class="legendlines"><path class="js-line" d="M5,0h30" style="fill: none; stroke: rgb(108, 166, 205); stroke-opacity: 1; stroke-width: 2px;"/></g><g class="legendsymbols"><g class="legendpoints"/></g></g><rect class="legendtoggle" x="0" y="-9.5" width="64.109375" height="19" style="fill: rgb(0, 0, 0); fill-opacity: 0;"/></g><g class="traces" transform="translate(66.609375,14.5)" style="opacity: 1;"><text class="legendtext" text-anchor="start" x="40" y="4.680000000000001" style="font-family: 'Open Sans', verdana, arial, sans-serif; font-size: 12px; fill: rgb(42, 63, 95); fill-opacity: 1; white-space: pre;">Entries</text><g class="layers" style="opacity: 1;"><g class="legendfill"/><g class="legendlines"/><g class="legendsymbols"><g class="legendpoints"><path class="scatterpts" transform="translate(20,0)" d="M-4.62,2H4.62L0,-4Z" style="opacity: 1; stroke-width: 1px; fill: rgb(55, 177, 63); fill-opacity: 1; stroke: rgb(38, 123, 44); stroke-opacity: 1;"/></g></g></g><rect class="legendtoggle" x="0" y="-9.5" width="84.234375" height="19" style="fill: rgb(0, 0, 0); fill-opacity: 0;"/></g><g class="traces" transform="translate(153.34375,14.5)" style="opacity: 1;"><text class="legendtext" text-anchor="start" x="40" y="4.680000000000001" style="font-family: 'Open Sans', verdana, arial, sans-serif; font-size: 12px; fill: rgb(42, 63, 95); fill-opacity: 1; white-space: pre;">Exits</text><g class="layers" style="opacity: 1;"><g class="legendfill"/><g class="legendlines"/><g class="legendsymbols"><g class="legendpoints"><path class="scatterpts" transform="translate(20,0)" d="M-4.62,-2H4.62L0,4Z" style="opacity: 1; stroke-width: 1px; fill: rgb(234, 67, 53); fill-opacity: 1; stroke: rgb(181, 31, 18); stroke-opacity: 1;"/></g></g></g><rect class="legendtoggle" x="0" y="-9.5" width="71.46875" height="19" style="fill: rgb(0, 0, 0); fill-opacity: 0;"/></g></g></g><rect class="scrollbar" rx="20" ry="3" width="0" height="0" x="0" y="0" style="fill: rgb(128, 139, 164); fill-opacity: 1;"/></g><g class="g-gtitle"/><g class="g-xtitle"/><g class="g-ytitle"/></g></svg>