<svg class="main-svg" xmlns="http://www.w3.org/2000/svg" xmlns:xlink="http://www.w3.org/1999/xlink" width="700" height="350" style="" viewBox="0 0 700 350"><rect x="0" y="0" width="700" height="350" style="fill: rgb(255, 255, 255); fill-opacity: 1;"/><defs id="defs-c85416"><g class="clips"><clipPath id="clipc85416xyplot" class="plotclip"><rect width="634" height="274"/></clipPath><clipPath class="axesclip" id="clipc85416x"><rect x="36" y="0" width="634" height="350"/></clipPath><clipPath class="axesclip" id="clipc85416y"><rect x="0" y="46" width="700" height="274"/></clipPath><clipPath class="axesclip" id="clipc85416xy"><rect x="36" y="46" width="634" height="274"/></clipPath></g><g class="gradients"/><g class="patterns"/></defs><g class="bglayer"><rect class="bg" x="36" y="46" width="634" height="274" style="fill: rgb(229, 236, 246); fill-opacity: 1; stroke-width: 0;"/></g><g class="layer-below"><g class="imagelayer"/><g class="shapelayer"/></g><g class="cartesianlayer"><g class="subplot xy"><g class="layer-subplot"><g class="shapelayer"/><g class="imagelayer"/></g><g class="minor-gridlayer"><g class="x"/><g class="y"/></g><g class="gridlayer"><g class="x"><path class="xgrid crisp" transform="translate(83.93,0)" d="M0,46v274" style="stroke: rgb(255, 255, 255); stroke-opacity: 1; stroke-width: 1px;"/><path class="xgrid crisp" transform="translate(211.64,0)" d="M0,46v274" style="stroke: rgb(255, 255, 255); stroke-opacity: 1; stroke-width: 1px;"/><path class="xgrid crisp" transform="translate(339.35,0)" d="M0,46v274" style="stroke: rgb(255, 255, 255); stroke-opacity: 1; stroke-width: 1px;"/><path class="xgrid crisp" transform="translate(467.41,0)" d="M0,46v274" style="stroke: rgb(255, 255, 255); stroke-opacity: 1; stroke-width: 1px;"/><path class="xgrid crisp" transform="translate(595.12,0)" d="M0,46v274" style="stroke: rgb(255, 255, 255); stroke-opacity: 1; stroke-width: 1px;"/></g><g class="y"><path class="ygrid crisp" transform="translate(0,272.75)" d="M36,0h634" style="stroke: rgb(255, 255, 255); stroke-opacity: 1; stroke-width: 1px;"/><path class="ygrid crisp" transform="translate(0,215.99)" d="M36,0h634" style="stroke: rgb(255, 255, 255); stroke-opacity: 1; stroke-width: 1px;"/><path class="ygrid crisp" transform="translate(0,159.22)" d="M36,0h634" style="stroke: rgb(255, 255, 255); stroke-opacity: 1; stroke-width: 1px;"/><path class="ygrid crisp" transform="translate(0,102.45)" d="M36,0h634" style="stroke: rgb(255, 255, 255); stroke-opacity: 1; stroke-width: 1px;"/></g></g><g class="zerolinelayer"/><path class="xlines-below"/><path class="ylines-below"/><g class="overlines-below"/><g class="xaxislayer-below"/><g class="yaxislayer-below"/><g class="overaxes-below"/><g class="plot" transform="translate(36,46)" clip-path="url(#clipc85416xyplot)"><g class="scatterlayer mlayer"><g class="trace scatter traced1359a53-ef63-4577-bec9-12e8e889caca" style="stroke-miterlimit: 2;"><g class="fills"><g><path class="js-fill" d="M0,226.75L160.95,226.75L161.3,224.21L162.35,226.75L162.7,226.75L207.13,226.75L207.48,219.32L208.53,217.44L208.88,217.44L328.55,217.44L328.9,225.72L329.25,221.87L329.6,226.75L330.3,221.22L330.65,205.56L331,204.63L331.35,205.06L331.7,212.61L332.4,193.71L332.75,195.08L333.09,193.86L334.14,211.28L334.49,200.84L334.84,200.52L335.19,195.78L336.24,191.43L336.59,193.14L337.64,181.16L337.99,182.75L338.34,191.39L339.04,190.48L339.39,191.82L339.74,191.19L340.09,196.23L341.14,183.46L341.49,186.06L341.84,192.04L342.19,191.75L342.54,185.97L343.59,177.55L343.94,174.41L344.29,172.75L344.64,173.48L344.99,152.32L345.34,155.55L345.69,151.34L346.04,148.38L346.39,149.97L346.74,150.42L347.44,144.91L347.79,127.74L348.49,136.84L348.84,153.46L349.19,156.74L349.54,151.67L350.24,131.7L350.59,141.38L350.94,140.06L351.99,132.03L352.34,137.41L352.69,146.42L353.04,144.36L353.39,144.17L353.74,153.51L354.09,149.84L354.44,151.05L355.84,133.62L356.19,138.69L356.54,123.38L356.89,137.27L357.24,134.26L357.59,131.76L357.94,135.17L359.69,129.8L360.04,142.11L360.74,138.18L361.09,140.85L361.79,137.12L362.14,138.35L362.49,139.95L363.54,141.82L363.89,133.86L364.24,135.1L364.58,141.78L365.28,144.51L365.63,147.57L367.03,143.09L367.38,146.05L367.73,146.63L368.08,145.06L368.43,146.4L368.78,140.81L369.13,142.58L369.48,138.94L370.53,143.05L370.88,141.65L372.28,145.09L372.63,144.67L373.33,143.56L373.68,144.54L374.73,135.54L375.08,136.87L375.78,128.86L376.13,106.5L376.48,109.02L376.83,105.07L377.18,105.09L377.53,100.29L377.88,90.81L378.23,105.66L378.58,102.64L378.93,103.21L379.28,91.95L379.63,91.6L379.98,95.02L381.03,88.94L381.38,99.13L382.78,89.76L383.13,88.57L383.48,81.04L383.83,87.88L384.18,91.76L384.53,89.74L384.88,96.3L385.93,91.89L386.28,100.63L387.33,96.39L387.68,97.63L388.73,88.35L389.08,99.21L389.43,124.6L390.13,124.07L390.48,122.25L390.83,119.86L391.18,124.89L392.58,118.49L392.93,120.69L393.98,108.05L394.33,108.33L394.68,108.47L395.03,105.47L396.42,122.55L396.77,112.48L397.12,113.49L397.47,112.64L397.82,111.71L398.17,113.3L398.52,110.36L399.92,116.43L400.27,113.9L400.62,111.34L400.97,115.26L401.32,113.9L401.67,108.63L403.07,96.36L403.42,98.55L403.77,98.61L404.12,96.83L404.47,100.61L404.82,99.78L405.17,96.87L405.87,88.59L406.22,70.87L407.27,64.14L407.62,65.82L407.97,65.35L408.32,53.46L408.67,60.99L409.02,57.14L409.37,55.01L409.72,50.31L410.07,50.91L410.42,55.23L411.47,13.7L412.17,13.91L412.52,13.91L634,13.91L634,226.75L0,226.75Z" style="fill: rgb(0, 128, 0); fill-opacity: 0.25; stroke-width: 0;"/></g></g><g class="errorbars"/><g class="lines"><path class="js-line" d="M0,226.75L634,226.75" style="vector-effect: none; fill: none; stroke: rgb(0, 0, 0); stroke-opacity: 0; stroke-width: 0px; opacity: 1;"/></g><g class="points"/><g class="text"/></g><g class="trace scatter trace7cce4f19-4ae1-445b-9e9b-939888fd4867" style="stroke-miterlimit: 2;"><g class="fills"/><g class="errorbars"/><g class="lines"><path class="js-line" d="M0,226.75L160.95,226.75L161.3,224.21L162.35,226.75L162.7,226.75L207.13,226.75L207.48,219.32L208.53,217.44L208.88,217.44L328.55,217.44L328.9,225.72L329.25,221.87L329.6,226.75L330.3,221.22L330.65,205.56L331,204.63L331.35,205.06L331.7,212.61L332.4,193.71L332.75,195.08L333.09,193.86L334.14,211.28L334.49,200.84L334.84,200.52L335.19,195.78L336.24,191.43L336.59,193.14L337.64,181.16L337.99,182.75L338.34,191.39L339.04,190.48L339.39,191.82L339.74,191.19L340.09,196.23L341.14,183.46L341.49,186.06L341.84,192.04L342.19,191.75L342.54,185.97L343.59,177.55L343.94,174.41L344.29,172.75L344.64,173.48L344.99,152.32L345.34,155.55L345.69,151.34L346.04,148.38L346.39,149.97L346.74,150.42L347.44,144.91L347.79,127.74L348.49,136.84L348.84,153.46L349.19,156.74L349.54,151.67L350.24,131.7L350.59,141.38L350.94,140.06L351.99,132.03L352.34,137.41L352.69,146.42L353.04,144.36L353.39,144.17L353.74,153.51L354.09,149.84L354.44,151.05L355.84,133.62L356.19,138.69L356.54,123.38L356.89,137.27L357.24,134.26L357.59,131.76L357.94,135.17L359.69,129.8L360.04,142.11L360.74,138.18L361.09,140.85L361.79,137.12L362.14,138.35L362.49,139.95L363.54,141.82L363.89,133.86L364.24,135.1L364.58,141.78L365.28,144.51L365.63,147.57L367.03,143.09L367.38,146.05L367.73,146.63L368.08,145.06L368.43,146.4L368.78,140.81L369.13,142.58L369.48,138.94L370.53,143.05L370.88,141.65L372.28,145.09L372.63,144.67L373.33,143.56L373.68,144.54L374.73,135.54L375.08,136.87L375.78,128.86L376.13,106.5L376.48,109.02L376.83,105.07L377.18,105.09L377.53,100.29L377.88,90.81L378.23,105.66L378.58,102.64L378.93,103.21L379.28,91.95L379.63,91.6L379.98,95.02L381.03,88.94L381.38,99.13L382.78,89.76L383.13,88.57L383.48,81.04L383.83,87.88L384.18,91.76L384.53,89.74L384.88,96.3L385.93,91.89L386.28,100.63L387.33,96.39L387.68,97.63L388.73,88.35L389.08,99.21L389.43,124.6L390.13,124.07L390.48,122.25L390.83,119.86L391.18,124.89L392.58,118.49L392.93,120.69L393.98,108.05L394.33,108.33L394.68,108.47L395.03,105.47L396.42,122.55L396.77,112.48L397.12,113.49L397.47,112.64L397.82,111.71L398.17,113.3L398.52,110.36L399.92,116.43L400.27,113.9L400.62,111.34L400.97,115.26L401.32,113.9L401.67,108.63L403.07,96.36L403.42,98.55L403.77,98.61L404.12,96.83L404.47,100.61L404.82,99.78L405.17,96.87L405.87,88.59L406.22,70.87L407.27,64.14L407.62,65.82L407.97,65.35L408.32,53.46L408.67,60.99L409.02,57.14L409.37,55.01L409.72,50.31L410.07,50.91L410.42,55.23L411.47,13.7L412.17,13.91L412.52,13.91L634,13.91" style="vector-effect: none; fill: none; stroke: rgb(0, 0, 0); stroke-opacity: 0; stroke-width: 0px; opacity: 1;"/></g><g class="points"/><g class="text"/></g><g class="trace scatter tracea2693c9d-7077-4252-ac53-b2136d33bb4f" style="stroke-miterlimit: 2;"><g class="fills"><g><path class="js-fill" d="M0,226.75L161.3,226.75L161.65,231.45L162,230.19L162.35,242.35L162.7,238.53L163.05,244.1L163.4,243.78L163.75,234.07L164.1,233.3L164.45,239.64L164.8,235.94L165.15,236.66L165.5,243.56L165.85,241.87L166.2,246.4L166.9,255.52L167.25,255.34L167.6,251.99L169.35,259.99L169.7,260.3L170.05,259.88L170.4,252.89L171.45,239.43L171.8,244.69L172.85,240.47L173.2,247L173.55,246.2L173.9,251.43L174.25,244.67L174.94,245.6L175.29,248.07L175.99,244.19L176.34,246.48L176.69,245.85L177.04,246.37L177.39,240.98L178.44,241.5L178.79,250.98L179.14,250.6L179.49,251.05L179.84,253.7L180.19,249.98L180.54,251.8L180.89,250.83L181.94,249L182.29,252.14L182.64,252.45L182.99,251.35L183.34,251.81L183.69,251.39L184.04,251.49L184.74,251.85L185.09,254.76L185.44,255.34L185.79,254.16L186.14,254.76L186.49,254.07L186.84,253L187.19,254.16L187.54,254.04L187.89,253.83L188.59,255.65L188.94,249.16L189.64,248.64L189.99,249.86L190.69,250.4L191.04,250.87L191.74,250.17L192.09,248.95L193.14,241.42L193.49,242.23L193.84,241.62L194.19,237.74L194.54,247.06L194.89,244.95L195.24,245.42L196.64,245.15L196.99,245.46L197.34,247.76L197.69,244.21L198.74,244.03L199.09,242.09L200.49,244.01L200.84,243.73L201.54,240.52L201.89,241.14L202.24,240.97L202.94,239.6L203.29,241.15L204.34,240.86L204.69,242.26L205.04,241.95L205.39,239.72L205.74,239.98L206.08,238.1L206.78,238.08L207.13,237.07L208.18,226.75L208.53,226.75L329.25,226.75L329.6,228.63L330.65,226.75L331,226.75L634,226.75L634,226.75L0,226.75Z" style="fill: rgb(255, 0, 0); fill-opacity: 0.25; stroke-width: 0;"/></g></g><g class="errorbars"/><g class="lines"><path class="js-line" d="M0,226.75L634,226.75" style="vector-effect: none; fill: none; stroke: rgb(0, 0, 0); stroke-opacity: 0; stroke-width: 0px; opacity: 1;"/></g><g class="points"/><g class="text"/></g><g class="trace scatter traced83922ab-2233-40c2-9e4c-19df857b784b" style="stroke-miterlimit: 2;"><g class="fills"/><g class="errorbars"/><g class="lines"><path class="js-line" d="M0,226.75L161.3,226.75L161.65,231.45L162,230.19L162.35,242.35L162.7,238.53L163.05,244.1L163.4,243.78L163.75,234.07L164.1,233.3L164.45,239.64L164.8,235.94L165.15,236.66L165.5,243.56L165.85,241.87L166.2,246.4L166.9,255.52L167.25,255.34L167.6,251.99L169.35,259.99L169.7,260.3L170.05,259.88L170.4,252.89L171.45,239.43L171.8,244.69L172.85,240.47L173.2,247L173.55,246.2L173.9,251.43L174.25,244.67L174.94,245.6L175.29,248.07L175.99,244.19L176.34,246.48L176.69,245.85L177.04,246.37L177.39,240.98L178.44,241.5L178.79,250.98L179.14,250.6L179.49,251.05L179.84,253.7L180.19,249.98L180.54,251.8L180.89,250.83L181.94,249L182.29,252.14L182.64,252.45L182.99,251.35L183.34,251.81L183.69,251.39L184.04,251.49L184.74,251.85L185.09,254.76L185.44,255.34L185.79,254.16L186.14,254.76L186.49,254.07L186.84,253L187.19,254.16L187.54,254.04L187.89,253.83L188.59,255.65L188.94,249.16L189.64,248.64L189.99,249.86L190.69,250.4L191.04,250.87L191.74,250.17L192.09,248.95L193.14,241.42L193.49,242.23L193.84,241.62L194.19,237.74L194.54,247.06L194.89,244.95L195.24,245.42L196.64,245.15L196.99,245.46L197.34,247.76L197.69,244.21L198.74,244.03L199.09,242.09L200.49,244.01L200.84,243.73L201.54,240.52L201.89,241.14L202.24,240.97L202.94,239.6L203.29,241.15L204.34,240.86L204.69,242.26L205.04,241.95L205.39,239.72L205.74,239.98L206.08,238.1L206.78,238.08L207.13,237.07L208.18,226.75L208.53,226.75L329.25,226.75L329.6,228.63L330.65,226.75L331,226.75L634,226.75" style="vector-effect: none; fill: none; stroke: rgb(0, 0, 0); stroke-opacity: 0; stroke-width: 0px; opacity: 1;"/></g><g class="points"/><g class="text"/></g><g class="trace scatter tracede9cf19a-ed10-4680-8be4-53edfabc3d98" style="stroke-miterlimit: 2; opacity: 1;"><g class="fills"/><g class="errorbars"/><g class="lines"><path class="js-line" d="M0,226.75L160.95,226.75L161.3,224.21L162.35,242.35L162.7,238.53L163.05,244.1L163.4,243.78L163.75,234.07L164.1,233.3L164.45,239.64L164.8,235.94L165.15,236.66L165.5,243.56L165.85,241.87L166.2,246.4L166.9,255.52L167.25,255.34L167.6,251.99L169.35,259.99L169.7,260.3L170.05,259.88L170.4,252.89L171.45,239.43L171.8,244.69L172.85,240.47L173.2,247L173.55,246.2L173.9,251.43L174.25,244.67L174.94,245.6L175.29,248.07L175.99,244.19L176.34,246.48L176.69,245.85L177.04,246.37L177.39,240.98L178.44,241.5L178.79,250.98L179.14,250.6L179.49,251.05L179.84,253.7L180.19,249.98L180.54,251.8L180.89,250.83L181.94,249L182.29,252.14L182.64,252.45L182.99,251.35L183.34,251.81L183.69,251.39L184.04,251.49L184.74,251.85L185.09,254.76L185.44,255.34L185.79,254.16L186.14,254.76L186.49,254.07L186.84,253L187.19,254.16L187.54,254.04L187.89,253.83L188.59,255.65L188.94,249.16L189.64,248.64L189.99,249.86L190.69,250.4L191.04,250.87L191.74,250.17L192.09,248.95L193.14,241.42L193.49,242.23L193.84,241.62L194.19,237.74L194.54,247.06L194.89,244.95L195.24,245.42L196.64,245.15L196.99,245.46L197.34,247.76L197.69,244.21L198.74,244.03L199.09,242.09L200.49,244.01L200.84,243.73L201.54,240.52L201.89,241.14L202.24,240.97L202.94,239.6L203.29,241.15L204.34,240.86L204.69,242.26L205.04,241.95L205.39,239.72L205.74,239.98L206.08,238.1L206.78,238.08L207.13,237.07L208.18,217.44L208.53,217.44L328.55,217.44L328.9,225.72L329.25,221.87L329.6,228.63L331,204.63L331.35,205.06L331.7,212.61L332.4,193.71L332.75,195.08L333.09,193.86L334.14,211.28L334.49,200.84L334.84,200.52L335.19,195.78L336.24,191.43L336.59,193.14L337.64,181.16L337.99,182.75L338.34,191.39L339.04,190.48L339.39,191.82L339.74,191.19L340.09,196.23L341.14,183.46L341.49,186.06L341.84,192.04L342.19,191.75L342.54,185.97L343.59,177.55L343.94,174.41L344.29,172.75L344.64,173.48L344.99,152.32L345.34,155.55L345.69,151.34L346.04,148.38L346.39,149.97L346.74,150.42L347.44,144.91L347.79,127.74L348.49,136.84L348.84,153.46L349.19,156.74L349.54,151.67L350.24,131.7L350.59,141.38L350.94,140.06L351.99,132.03L352.34,137.41L352.69,146.42L353.04,144.36L353.39,144.17L353.74,153.51L354.09,149.84L354.44,151.05L355.84,133.62L356.19,138.69L356.54,123.38L356.89,137.27L357.24,134.26L357.59,131.76L357.94,135.17L359.69,129.8L360.04,142.11L360.74,138.18L361.09,140.85L361.79,137.12L362.14,138.35L362.49,139.95L363.54,141.82L363.89,133.86L364.24,135.1L364.58,141.78L365.28,144.51L365.63,147.57L367.03,143.09L367.38,146.05L367.73,146.63L368.08,145.06L368.43,146.4L368.78,140.81L369.13,142.58L369.48,138.94L370.53,143.05L370.88,141.65L372.28,145.09L372.63,144.67L373.33,143.56L373.68,144.54L374.73,135.54L375.08,136.87L375.78,128.86L376.13,106.5L376.48,109.02L376.83,105.07L377.18,105.09L377.53,100.29L377.88,90.81L378.23,105.66L378.58,102.64L378.93,103.21L379.28,91.95L379.63,91.6L379.98,95.02L381.03,88.94L381.38,99.13L382.78,89.76L383.13,88.57L383.48,81.04L383.83,87.88L384.18,91.76L384.53,89.74L384.88,96.3L385.93,91.89L386.28,100.63L387.33,96.39L387.68,97.63L388.73,88.35L389.08,99.21L389.43,124.6L390.13,124.07L390.48,122.25L390.83,119.86L391.18,124.89L392.58,118.49L392.93,120.69L393.98,108.05L394.33,108.33L394.68,108.47L395.03,105.47L396.42,122.55L396.77,112.48L397.12,113.49L397.47,112.64L397.82,111.71L398.17,113.3L398.52,110.36L399.92,116.43L400.27,113.9L400.62,111.34L400.97,115.26L401.32,113.9L401.67,108.63L403.07,96.36L403.42,98.55L403.77,98.61L404.12,96.83L404.47,100.61L404.82,99.78L405.17,96.87L405.87,88.59L406.22,70.87L407.27,64.14L407.62,65.82L407.97,65.35L408.32,53.46L408.67,60.99L409.02,57.14L409.37,55.01L409.72,50.31L410.07,50.91L410.42,55.23L411.47,13.7L412.17,13.91L412.52,13.91L634,13.91" style="vector-effect: none; fill: none; stroke: rgb(148, 103, 189); stroke-opacity: 1; stroke-width: 2px; opacity: 1;"/></g><g class="points"/><g class="text"/></g><g class="trace scatter trace55bdff99-783b-4b9b-bc89-ae887d88236b" style="stroke-miterlimit: 2; opacity: 0;"><g class="fills"/><g class="errorbars"/><g class="lines"><path class="js-line" d="M0,226.75L634,226.75" style="vector-effect: none; fill: none; stroke: rgb(0, 0, 0); stroke-opacity: 0; stroke-width: 0px; opacity: 1;"/></g><g class="points"/><g class="text"/></g></g></g><g class="overplot"/><path class="xlines-above crisp" d="M0,0" style="fill: none;"/><path class="ylines-above crisp" d="M0,0" style="fill: none;"/><g class="overlines-above"/><g class="xaxislayer-above"><g class="xtick"><text text-anchor="middle" x="0" y="333" transform="translate(83.93,0)" style="font-family: 'Open Sans', verdana, arial, sans-serif; font-size: 12px; fill: rgb(42, 63, 95); fill-opacity: 1; white-space: pre; opacity: 1;">2018</text></g><g class="xtick"><text text-anchor="middle" x="0" y="333" style="font-family: 'Open Sans', verdana, arial, sans-serif; font-size: 12px; fill: rgb(42, 63, 95); fill-opacity: 1; white-space: pre; opacity: 1;" transform="translate(211.64,0)">2019</text></g><g class="xtick"><text text-anchor="middle" x="0" y="333" style="font-family: 'Open Sans', verdana, arial, sans-serif; font-size: 12px; fill: rgb(42, 63, 95); fill-opacity: 1; white-space: pre; opacity: 1;" transform="translate(339.35,0)">2020</text></g><g class="xtick"><text text-anchor="middle" x="0" y="333" style="font-family: 'Open Sans', verdana, arial, sans-serif; font-size: 12px; fill: rgb(42, 63, 95); fill-opacity: 1; white-space: pre; opacity: 1;" transform="translate(467.41,0)">2021</text></g><g class="xtick"><text text-anchor="middle" x="0" y="333" style="font-family: 'Open Sans', verdana, arial, sans-serif; font-size: 12px; fill: rgb(42, 63, 95); fill-opacity: 1; white-space: pre; opacity: 1;" transform="translate(595.12,0)">2022</text></g></g><g class="yaxislayer-above"><g class="ytick"><text text-anchor="end" x="35" y="4.199999999999999" transform="translate(0,272.75)" style="font-family: 'Open Sans', verdana, arial, sans-serif; font-size: 12px; fill: rgb(42, 63, 95); fill-opacity: 1; white-space: pre; opacity: 1;">100</text></g><g class="ytick"><text text-anchor="end" x="35" y="4.199999999999999" style="font-family: 'Open Sans', verdana, arial, sans-serif; font-size: 12px; fill: rgb(42, 63, 95); fill-opacity: 1; white-space: pre; opacity: 1;" transform="translate(0,215.99)">150</text></g><g class="ytick"><text text-anchor="end" x="35" y="4.199999999999999" style="font-family: 'Open Sans', verdana, arial, sans-serif; font-size: 12px; fill: rgb(42, 63, 95); fill-opacity: 1; white-space: pre; opacity: 1;" transform="translate(0,159.22)">200</text></g><g class="ytick"><text text-anchor="end" x="35" y="4.199999999999999" style="font-family: 'Open Sans', verdana, arial, sans-serif; font-size: 12px; fill: rgb(42, 63, 95); fill-opacity: 1; white-space: pre; opacity: 1;" transform="translate(0,102.45)">250</text></g></g><g class="overaxes-above"/></g></g><g class="polarlayer"/><g class="smithlayer"/><g class="ternarylayer"/><g class="geolayer"/><g class="funnelarealayer"/><g class="pielayer"/><g class="iciclelayer"/><g class="treemaplayer"/><g class="sunburstlayer"/><g class="glimages"/><defs id="topdefs-c85416"><g class="clips"/><clipPath id="legendc85416"><rect width="79" height="29" x="0" y="0"/></clipPath></defs><g class="layer-above"><g class="imagelayer"/><g class="shapelayer"><g class="shape-group" data-index="0" clip-path="url(#clipc85416y)"><path data-index="0" fill-rule="evenodd" d="M36,272.75L670,272.75" style="opacity: 1; stroke: rgb(128, 128, 128); stroke-opacity: 1; fill: rgb(0, 0, 0); fill-opacity: 0; stroke-dasharray: 9px, 9px; stroke-width: 2px;"/></g></g></g><g class="infolayer"><g class="legend" pointer-events="all" transform="translate(591,11.519999999999996)"><rect class="bg" shape-rendering="crispEdges" width="79" height="29" x="0" y="0" style="stroke: rgb(68, 68, 68); stroke-opacity: 1; fill: rgb(255, 255, 255); fill-opacity: 1; stroke-width: 0px;"/><g class="scrollbox" transform="" clip-path="url(#legendc85416)"><g class="groups"><g class="traces" transform="translate(0,14.5)" style="opacity: 1;"><text class="legendtext" text-anchor="start" x="40" y="4.680000000000001" style="font-family: 'Open Sans', verdana, arial, sans-serif; font-size: 12px; fill: rgb(42, 63, 95); fill-opacity: 1; white-space: pre;">Value</text><g class="layers" style="opacity: 1;"><g class="legendfill"/><g class="legendlines"><path class="js-line" d="M5,0h30" style="fill: none; stroke: rgb(148, 103, 189); stroke-opacity: 1; stroke-width: 2px;"/></g><g class="legendsymbols"><g class="legendpoints"/></g></g><rect class="legendtoggle" x="0" y="-9.5" width="75.953125" height="19" style="fill: rgb(0, 0, 0); fill-opacity: 0;"/></g></g></g><rect class="scrollbar" rx="20" ry="3" width="0" height="0" x="0" y="0" style="fill: rgb(128, 139, 164); fill-opacity: 1;"/></g><g class="g-gtitle"/><g class="g-xtitle"/><g class="g-ytitle"/></g></svg>