<svg class="main-svg" xmlns="http://www.w3.org/2000/svg" xmlns:xlink="http://www.w3.org/1999/xlink" width="700" height="350" style="" viewBox="0 0 700 350"><rect x="0" y="0" width="700" height="350" style="fill: rgb(33, 34, 38); fill-opacity: 1;"/><defs id="defs-c31545"><g class="clips"><clipPath id="clipc31545xyplot" class="plotclip"><rect width="609" height="252"/></clipPath><clipPath class="axesclip" id="clipc31545x"><rect x="61" y="0" width="609" height="350"/></clipPath><clipPath class="axesclip" id="clipc31545y"><rect x="0" y="46" width="700" height="252"/></clipPath><clipPath class="axesclip" id="clipc31545xy"><rect x="61" y="46" width="609" height="252"/></clipPath></g><g class="gradients"/><g class="patterns"/></defs><g class="bglayer"/><g class="layer-below"><g class="imagelayer"/><g class="shapelayer"/></g><g class="cartesianlayer"><g class="subplot xy"><g class="layer-subplot"><g class="shapelayer"/><g class="imagelayer"/></g><g class="minor-gridlayer"><g class="x"/><g class="y"/></g><g class="gridlayer"><g class="x"><path class="xgrid crisp" transform="translate(177.88,0)" d="M0,46v252" style="stroke: rgb(49, 52, 57); stroke-opacity: 1; stroke-width: 1px;"/><path class="xgrid crisp" transform="translate(300.90999999999997,0)" d="M0,46v252" style="stroke: rgb(49, 52, 57); stroke-opacity: 1; stroke-width: 1px;"/><path class="xgrid crisp" transform="translate(423.94,0)" d="M0,46v252" style="stroke: rgb(49, 52, 57); stroke-opacity: 1; stroke-width: 1px;"/><path class="xgrid crisp" transform="translate(546.97,0)" d="M0,46v252" style="stroke: rgb(49, 52, 57); stroke-opacity: 1; stroke-width: 1px;"/></g><g class="y"><path class="ygrid crisp" transform="translate(0,223.27)" d="M61,0h609" style="stroke: rgb(49, 52, 57); stroke-opacity: 1; stroke-width: 1px;"/><path class="ygrid crisp" transform="translate(0,159.44)" d="M61,0h609" style="stroke: rgb(49, 52, 57); stroke-opacity: 1; stroke-width: 1px;"/><path class="ygrid crisp" transform="translate(0,95.62)" d="M61,0h609" style="stroke: rgb(49, 52, 57); stroke-opacity: 1; stroke-width: 1px;"/></g></g><g class="zerolinelayer"><path class="yzl zl crisp" transform="translate(0,287.09000000000003)" d="M61,0h609" style="stroke: rgb(49, 52, 57); stroke-opacity: 1; stroke-width: 2px;"/></g><path class="xlines-below"/><path class="ylines-below"/><g class="overlines-below"/><g class="xaxislayer-below"/><g class="yaxislayer-below"/><g class="overaxes-below"/><g class="plot" transform="translate(61,46)" clip-path="url(#clipc31545xyplot)"><g class="scatterlayer mlayer"><g class="trace scatter trace6c545a7a-4bf1-4138-bd2c-474ed6e4f30f" style="stroke-miterlimit: 2; opacity: 1;"><g class="fills"/><g class="errorbars"/><g class="lines"><path class="js-line" d="M0,229.71L12.3,216.8L18.45,211.53L36.91,194.68L43.06,190.23L55.36,180.07L61.52,176.29L79.97,164.33L86.12,160.85L98.42,154.71L104.58,152.22L129.18,141.09L135.33,138.72L147.64,134.04L153.79,131.74L178.39,122.55L184.55,120.41L196.85,115.62L203,112.99L233.76,99.86L239.91,97.66L270.67,83.81L276.82,81L295.27,73.92L301.42,70.95L326.03,60.21L332.18,58.04L344.48,52.49L350.64,49.44L362.94,43.08L369.09,40.25L406,27.12L412.15,25.82L436.76,19.5L442.91,18.49L479.82,15.94L485.97,15.59L541.33,12.77L547.48,12.69L609,12.6" style="vector-effect: none; fill: none; stroke: rgb(31, 119, 180); stroke-opacity: 1; stroke-width: 2px; opacity: 1;"/></g><g class="points"/><g class="text"/></g><g class="trace scatter traced4cfa1e3-eff9-4aa0-92fb-28202e80849d" style="stroke-miterlimit: 2; opacity: 1;"><g class="fills"/><g class="errorbars"/><g class="lines"><path class="js-line" d="M0,239.4L18.45,237.54L24.61,236.65L43.06,232.85L49.21,231.15L92.27,216.37L98.42,211.84L123.03,198.2L129.18,193.49L147.64,183.15L153.79,181.02L159.94,177.85L166.09,173.62L172.24,170.84L178.39,166.13L184.55,164L190.7,160.93L196.85,157.51L203,152.78L209.15,148.12L215.3,145.05L246.06,128.13L252.21,125.73L258.36,123.4L264.52,117.57L276.82,112.9L282.97,108.33L301.42,101.2L307.58,95.66L313.73,92.53L319.88,90.51L326.03,86.88L332.18,84.17L350.64,76.53L356.79,75.03L381.39,60.79L387.55,57.62L393.7,55.08L399.85,53.5L406,46.6L412.15,43.12L430.61,35.77L436.76,32.45L442.91,28.64L449.06,23.51L455.21,20.27L461.36,19.4L485.97,16.68L492.12,16.44L510.58,14.95L516.73,14.65L535.18,14.1L541.33,12.85L609,12.6" style="vector-effect: none; fill: none; stroke: rgb(255, 127, 14); stroke-opacity: 1; stroke-width: 2px; opacity: 1;"/></g><g class="points"/><g class="text"/></g><g class="trace scatter traceb02cc504-d307-4661-9361-0d28e633b982" style="stroke-miterlimit: 2; opacity: 1;"><g class="fills"/><g class="errorbars"/><g class="lines"><path class="js-line" d="M0,225.27L6.15,215.32L12.3,208.9L24.61,196.92L30.76,192.17L43.06,181L49.21,175.98L67.67,163.77L73.82,160.63L86.12,153.23L92.27,150.78L135.33,129.02L141.48,126.47L178.39,113.93L184.55,112.32L215.3,103.8L221.45,101.72L239.91,97.31L246.06,96.03L270.67,89.72L276.82,88.09L301.42,82.98L307.58,81.86L332.18,76.73L338.33,75.6L381.39,67.89L387.55,66.89L412.15,62.93L418.3,62.08L455.21,57L461.36,56.34L492.12,52.38L498.27,51.67L522.88,48.76L529.03,48.4L578.24,44.21L584.39,43.65L609,41.57" style="vector-effect: none; fill: none; stroke: rgb(44, 160, 44); stroke-opacity: 1; stroke-width: 2px; opacity: 1;"/></g><g class="points"/><g class="text"/></g><g class="trace scatter trace05a9d93b-0980-429f-a233-4ab2541a33b6" style="stroke-miterlimit: 2; opacity: 1;"><g class="fills"/><g class="errorbars"/><g class="lines"><path class="js-line" d="M0,126.41L6.15,127.96L12.3,128.22L30.76,126.24L36.91,124.89L43.06,127.44L49.21,126.43L61.52,127.57L67.67,126.8L73.82,125.62L79.97,128.32L86.12,127.28L92.27,127.88L104.58,125.97L110.73,125.48L123.03,127.59L129.18,127.07L135.33,127.14L141.48,126.04L147.64,128.29L153.79,126.28L166.09,126.76L172.24,126.3L184.55,127.97L190.7,127.93L196.85,126.4L203,126.82L209.15,127.08L215.3,125.33L221.45,126.68L227.61,126.61L233.76,128.29L239.91,127.18L246.06,128.32L252.21,126.54L258.36,127.28L264.52,126.27L276.82,127.05L282.97,126.64L289.12,125.44L295.27,127.01L313.73,126.16L319.88,127.15L326.03,125.6L332.18,126.86L338.33,127.55L344.48,127.02L369.09,127.9L375.24,126.06L381.39,127.65L387.55,127.83L393.7,126.91L399.85,127.35L406,127.83L412.15,126.21L418.3,128.1L424.45,128.56L442.91,125.79L449.06,127.65L455.21,127.08L461.36,127.36L479.82,127.01L485.97,128.47L492.12,124.63L498.27,127.32L504.42,125.55L510.58,126.77L516.73,127.63L522.88,127.63L535.18,127.34L541.33,128.72L547.48,126.43L553.64,126.15L572.09,125.98L578.24,124.64L584.39,127.16L590.55,127.48L596.7,128.27L602.85,126.1L609,126.56" style="vector-effect: none; fill: none; stroke: rgb(220, 57, 18); stroke-opacity: 1; stroke-width: 2px; opacity: 1;"/></g><g class="points"/><g class="text"/></g><g class="trace scatter trace32e02a53-5c7c-449a-9c7b-ff120f46a547" style="stroke-miterlimit: 2; opacity: 1;"><g class="fills"/><g class="errorbars"/><g class="lines"><path class="js-line" d="M0,12.6L609,12.6" style="vector-effect: none; fill: none; stroke: rgb(148, 103, 189); stroke-opacity: 1; stroke-width: 2px; opacity: 1;"/></g><g class="points"/><g class="text"/></g></g></g><g class="overplot"/><path class="xlines-above crisp" d="M0,0" style="fill: none;"/><path class="ylines-above crisp" d="M0,0" style="fill: none;"/><g class="overlines-above"/><g class="xaxislayer-above"><g class="xtick"><text text-anchor="middle" x="0" y="311" transform="translate(177.88,0)" style="font-family: 'Open Sans', verdana, arial, sans-serif; font-size: 12px; fill: rgb(214, 223, 239); fill-opacity: 1; white-space: pre; opacity: 1;">0.2</text></g><g class="xtick"><text text-anchor="middle" x="0" y="311" style="font-family: 'Open Sans', verdana, arial, sans-serif; font-size: 12px; fill: rgb(214, 223, 239); fill-opacity: 1; white-space: pre; opacity: 1;" transform="translate(300.90999999999997,0)">0.4</text></g><g class="xtick"><text text-anchor="middle" x="0" y="311" style="font-family: 'Open Sans', verdana, arial, sans-serif; font-size: 12px; fill: rgb(214, 223, 239); fill-opacity: 1; white-space: pre; opacity: 1;" transform="translate(423.94,0)">0.6</text></g><g class="xtick"><text text-anchor="middle" x="0" y="311" style="font-family: 'Open Sans', verdana, arial, sans-serif; font-size: 12px; fill: rgb(214, 223, 239); fill-opacity: 1; white-space: pre; opacity: 1;" transform="translate(546.97,0)">0.8</text></g><g class="xtick"><text text-anchor="middle" x="0" y="311" style="font-family: 'Open Sans', verdana, arial, sans-serif; font-size: 12px; fill: rgb(214, 223, 239); fill-opacity: 1; white-space: pre; opacity: 1;" transform="translate(670,0)">1</text></g></g><g class="yaxislayer-above"><g class="ytick"><text text-anchor="end" x="60" y="4.199999999999999" transform="translate(0,287.09000000000003)" style="font-family: 'Open Sans', verdana, arial, sans-serif; font-size: 12px; fill: rgb(214, 223, 239); fill-opacity: 1; white-space: pre; opacity: 1;">0</text></g><g class="ytick"><text text-anchor="end" x="60" y="4.199999999999999" style="font-family: 'Open Sans', verdana, arial, sans-serif; font-size: 12px; fill: rgb(214, 223, 239); fill-opacity: 1; white-space: pre; opacity: 1;" transform="translate(0,223.27)">50</text></g><g class="ytick"><text text-anchor="end" x="60" y="4.199999999999999" style="font-family: 'Open Sans', verdana, arial, sans-serif; font-size: 12px; fill: rgb(214, 223, 239); fill-opacity: 1; white-space: pre; opacity: 1;" transform="translate(0,159.44)">100</text></g><g class="ytick"><text text-anchor="end" x="60" y="4.199999999999999" style="font-family: 'Open Sans', verdana, arial, sans-serif; font-size: 12px; fill: rgb(214, 223, 239); fill-opacity: 1; white-space: pre; opacity: 1;" transform="translate(0,95.62)">150</text></g></g><g class="overaxes-above"/></g></g><g class="polarlayer"/><g class="smithlayer"/><g class="ternarylayer"/><g class="geolayer"/><g class="funnelarealayer"/><g class="pielayer"/><g class="iciclelayer"/><g class="treemaplayer"/><g class="sunburstlayer"/><g class="glimages"/><defs id="topdefs-c31545"><g class="clips"/><clipPath id="legendc31545"><rect width="366" height="29" x="0" y="0"/></clipPath></defs><g class="layer-above"><g class="imagelayer"/><g class="shapelayer"/></g><g class="infolayer"><g class="legend" pointer-events="all" transform="translate(304,11.959999999999994)"><rect class="bg" shape-rendering="crispEdges" style="stroke: rgb(68, 68, 68); stroke-opacity: 1; fill: rgb(33, 34, 38); fill-opacity: 1; stroke-width: 0px;" width="366" height="29" x="0" y="0"/><g class="scrollbox" transform="" clip-path="url(#legendc31545)"><g class="groups"><g class="traces" transform="translate(0,14.5)" style="opacity: 1;"><text class="legendtext" text-anchor="start" x="40" y="4.680000000000001" style="font-family: 'Open Sans', verdana, arial, sans-serif; font-size: 12px; fill: rgb(214, 223, 239); fill-opacity: 1; white-space: pre;">SL</text><g class="layers" style="opacity: 1;"><g class="legendfill"/><g class="legendlines"><path class="js-line" d="M5,0h30" style="fill: none; stroke: rgb(31, 119, 180); stroke-opacity: 1; stroke-width: 2px;"/></g><g class="legendsymbols"><g class="legendpoints"/></g></g><rect class="legendtoggle" x="0" y="-9.5" width="57.40625" height="19" style="fill: rgb(0, 0, 0); fill-opacity: 0;"/></g><g class="traces" transform="translate(59.90625,14.5)" style="opacity: 1;"><text class="legendtext" text-anchor="start" x="40" y="4.680000000000001" style="font-family: 'Open Sans', verdana, arial, sans-serif; font-size: 12px; fill: rgb(214, 223, 239); fill-opacity: 1; white-space: pre;">TS</text><g class="layers" style="opacity: 1;"><g class="legendfill"/><g class="legendlines"><path class="js-line" d="M5,0h30" style="fill: none; stroke: rgb(255, 127, 14); stroke-opacity: 1; stroke-width: 2px;"/></g><g class="legendsymbols"><g class="legendpoints"/></g></g><rect class="legendtoggle" x="0" y="-9.5" width="58.109375" height="19" style="fill: rgb(0, 0, 0); fill-opacity: 0;"/></g><g class="traces" transform="translate(120.515625,14.5)" style="opacity: 1;"><text class="legendtext" text-anchor="start" x="40" y="4.680000000000001" style="font-family: 'Open Sans', verdana, arial, sans-serif; font-size: 12px; fill: rgb(214, 223, 239); fill-opacity: 1; white-space: pre;">TP</text><g class="layers" style="opacity: 1;"><g class="legendfill"/><g class="legendlines"><path class="js-line" d="M5,0h30" style="fill: none; stroke: rgb(44, 160, 44); stroke-opacity: 1; stroke-width: 2px;"/></g><g class="legendsymbols"><g class="legendpoints"/></g></g><rect class="legendtoggle" x="0" y="-9.5" width="57.140625" height="19" style="fill: rgb(0, 0, 0); fill-opacity: 0;"/></g><g class="traces" transform="translate(180.15625,14.5)" style="opacity: 1;"><text class="legendtext" text-anchor="start" x="40" y="4.680000000000001" style="font-family: 'Open Sans', verdana, arial, sans-serif; font-size: 12px; fill: rgb(214, 223, 239); fill-opacity: 1; white-space: pre;">Random</text><g class="layers" style="opacity: 1;"><g class="legendfill"/><g class="legendlines"><path class="js-line" d="M5,0h30" style="fill: none; stroke: rgb(220, 57, 18); stroke-opacity: 1; stroke-width: 2px;"/></g><g class="legendsymbols"><g class="legendpoints"/></g></g><rect class="legendtoggle" x="0" y="-9.5" width="92.078125" height="19" style="fill: rgb(0, 0, 0); fill-opacity: 0;"/></g><g class="traces" transform="translate(274.734375,14.5)" style="opacity: 1;"><text class="legendtext" text-anchor="start" x="40" y="4.680000000000001" style="font-family: 'Open Sans', verdana, arial, sans-serif; font-size: 12px; fill: rgb(214, 223, 239); fill-opacity: 1; white-space: pre;">Holding</text><g class="layers" style="opacity: 1;"><g class="legendfill"/><g class="legendlines"><path class="js-line" d="M5,0h30" style="fill: none; stroke: rgb(148, 103, 189); stroke-opacity: 1; stroke-width: 2px;"/></g><g class="legendsymbols"><g class="legendpoints"/></g></g><rect class="legendtoggle" x="0" y="-9.5" width="87.9375" height="19" style="fill: rgb(0, 0, 0); fill-opacity: 0;"/></g></g></g><rect class="scrollbar" rx="20" ry="3" width="0" height="0" style="fill: rgb(128, 139, 164); fill-opacity: 1;" x="0" y="0"/></g><g class="g-gtitle"/><g class="g-xtitle"><text class="xtitle" x="365.5" y="337.8" text-anchor="middle" style="font-family: 'Open Sans', verdana, arial, sans-serif; font-size: 14px; fill: rgb(214, 223, 239); opacity: 1; font-weight: normal; white-space: pre;">Stop value</text></g><g class="g-ytitle" transform="translate(1.1904296875,0)"><text class="ytitle" transform="rotate(-90,12.809375000000003,172)" x="12.809375000000003" y="172" text-anchor="middle" style="font-family: 'Open Sans', verdana, arial, sans-serif; font-size: 14px; fill: rgb(214, 223, 239); opacity: 1; font-weight: normal; white-space: pre;">Avg distance to entry</text></g></g></svg>