<svg class="main-svg" xmlns="http://www.w3.org/2000/svg" xmlns:xlink="http://www.w3.org/1999/xlink" width="700" height="350" style="" viewBox="0 0 700 350"><rect x="0" y="0" width="700" height="350" style="fill: rgb(255, 255, 255); fill-opacity: 1;"/><defs id="defs-db0cc6"><g class="clips"><clipPath id="clipdb0cc6xyplot" class="plotclip"><rect width="613" height="252"/></clipPath><clipPath class="axesclip" id="clipdb0cc6x"><rect x="57" y="0" width="613" height="350"/></clipPath><clipPath class="axesclip" id="clipdb0cc6y"><rect x="0" y="46" width="700" height="252"/></clipPath><clipPath class="axesclip" id="clipdb0cc6xy"><rect x="57" y="46" width="613" height="252"/></clipPath></g><g class="gradients"/><g class="patterns"/></defs><g class="bglayer"><rect class="bg" x="57" y="46" width="613" height="252" style="fill: rgb(229, 236, 246); fill-opacity: 1; stroke-width: 0;"/></g><g class="layer-below"><g class="imagelayer"/><g class="shapelayer"/></g><g class="cartesianlayer"><g class="subplot xy"><g class="layer-subplot"><g class="shapelayer"/><g class="imagelayer"/></g><g class="minor-gridlayer"><g class="x"/><g class="y"/></g><g class="gridlayer"><g class="x"><path class="xgrid crisp" transform="translate(174.65,0)" d="M0,46v252" style="stroke: rgb(255, 255, 255); stroke-opacity: 1; stroke-width: 1px;"/><path class="xgrid crisp" transform="translate(298.48,0)" d="M0,46v252" style="stroke: rgb(255, 255, 255); stroke-opacity: 1; stroke-width: 1px;"/><path class="xgrid crisp" transform="translate(422.32,0)" d="M0,46v252" style="stroke: rgb(255, 255, 255); stroke-opacity: 1; stroke-width: 1px;"/><path class="xgrid crisp" transform="translate(546.1600000000001,0)" d="M0,46v252" style="stroke: rgb(255, 255, 255); stroke-opacity: 1; stroke-width: 1px;"/></g><g class="y"><path class="ygrid crisp" transform="translate(0,240.04)" d="M57,0h613" style="stroke: rgb(255, 255, 255); stroke-opacity: 1; stroke-width: 1px;"/><path class="ygrid crisp" transform="translate(0,194.68)" d="M57,0h613" style="stroke: rgb(255, 255, 255); stroke-opacity: 1; stroke-width: 1px;"/><path class="ygrid crisp" transform="translate(0,149.32)" d="M57,0h613" style="stroke: rgb(255, 255, 255); stroke-opacity: 1; stroke-width: 1px;"/><path class="ygrid crisp" transform="translate(0,103.96000000000001)" d="M57,0h613" style="stroke: rgb(255, 255, 255); stroke-opacity: 1; stroke-width: 1px;"/><path class="ygrid crisp" transform="translate(0,58.6)" d="M57,0h613" style="stroke: rgb(255, 255, 255); stroke-opacity: 1; stroke-width: 1px;"/></g></g><g class="zerolinelayer"><path class="yzl zl crisp" transform="translate(0,285.4)" d="M57,0h613" style="stroke: rgb(255, 255, 255); stroke-opacity: 1; stroke-width: 2px;"/></g><path class="xlines-below"/><path class="ylines-below"/><g class="overlines-below"/><g class="xaxislayer-below"/><g class="yaxislayer-below"/><g class="overaxes-below"/><g class="plot" transform="translate(57,46)" clip-path="url(#clipdb0cc6xyplot)"><g class="scatterlayer mlayer"><g class="trace scatter tracebfe7eaf3-45ca-426f-8059-052cd0fe1752" style="stroke-miterlimit: 2; opacity: 1;"><g class="fills"/><g class="errorbars"/><g class="lines"><path class="js-line" d="M0,18.04L12.38,25.47L18.58,28.36L30.96,35.17L37.15,38.8L55.73,48.55L61.92,50.42L92.88,62.44L99.07,64.54L123.84,69.81L130.03,71.11L173.37,79.39L179.57,80.75L210.53,88.86L216.72,90.85L253.87,102.53L260.06,105.53L278.64,115.4L284.83,117.78L297.21,125.55L303.4,130.25L321.98,144.03L328.17,147.38L340.56,155.77L346.75,160.53L352.94,164.67L359.13,170.28L371.52,179.64L377.71,183.1L390.09,191.15L396.28,194.04L439.63,218.08L445.82,220.75L464.39,225.28L470.59,226.59L526.31,236.56L532.51,237.47L569.66,239.4L575.85,239.4L613,239.4" style="vector-effect: none; fill: none; stroke: rgb(31, 119, 180); stroke-opacity: 1; stroke-width: 2px; opacity: 1;"/></g><g class="points"/><g class="text"/></g><g class="trace scatter tracee7bd75f5-daa1-46ad-87c0-2a40eace2570" style="stroke-miterlimit: 2; opacity: 1;"><g class="fills"/><g class="errorbars"/><g class="lines"><path class="js-line" d="M0,12.6L111.45,12.71L117.65,15.55L130.03,16.12L136.22,16.12L160.99,17.08L167.18,18.89L173.37,19.35L179.57,23.43L185.76,23.49L191.95,24.96L198.14,29.21L204.33,31.76L210.53,34.94L216.72,36.7L222.91,38.91L229.1,42.82L235.29,46.68L241.48,48.32L253.87,52.8L260.06,55.13L266.25,59.6L272.44,61.48L278.64,62.72L284.83,67.43L291.02,69.24L297.21,72.02L303.4,74.23L309.6,83.53L315.79,87.9L321.98,90.17L352.94,105.7L359.13,107.23L365.32,111.6L371.52,117.67L377.71,122.65L383.9,130.71L390.09,136.04L396.28,139.55L402.47,141.54L408.67,156.16L414.86,162.29L421.05,165.07L427.24,171.59L433.43,174.65L445.82,189.62L452.01,204.08L458.2,212.47L464.39,215.87L470.59,217.85L476.78,221.14L489.16,225.45L495.35,225.96L501.55,228.46L507.74,229.02L520.12,233.22L526.31,234.52L538.7,235.26L544.89,237.81L557.27,238.27L563.46,239.4L613,239.4" style="vector-effect: none; fill: none; stroke: rgb(255, 127, 14); stroke-opacity: 1; stroke-width: 2px; opacity: 1;"/></g><g class="points"/><g class="text"/></g><g class="trace scatter trace8554ea31-974b-496b-9340-93cb8aedef3c" style="stroke-miterlimit: 2; opacity: 1;"><g class="fills"/><g class="errorbars"/><g class="lines"><path class="js-line" d="M0,21.05L6.19,26.32L12.38,29.78L24.77,37.09L30.96,39.82L43.34,46.9L49.54,50.42L74.3,60.45L80.49,63.01L92.88,67.26L99.07,69.47L117.65,76.67L123.84,78.83L136.22,84.44L142.41,86.14L154.8,89.37L160.99,91.53L173.37,95.33L179.57,96.91L198.14,101.73L204.33,102.75L229.1,110.29L235.29,111.54L266.25,118.74L272.44,120.78L297.21,126.68L303.4,127.81L309.6,128.78L315.79,130.54L352.94,139.38L359.13,140.63L458.2,161.27L464.39,161.95L489.16,166.09L495.35,166.94L532.51,171.76L538.7,172.49L557.27,174.42L563.46,175.27L613,180.49" style="vector-effect: none; fill: none; stroke: rgb(44, 160, 44); stroke-opacity: 1; stroke-width: 2px; opacity: 1;"/></g><g class="points"/><g class="text"/></g></g></g><g class="overplot"/><path class="xlines-above crisp" d="M0,0" style="fill: none;"/><path class="ylines-above crisp" d="M0,0" style="fill: none;"/><g class="overlines-above"/><g class="xaxislayer-above"><g class="xtick"><text text-anchor="middle" x="0" y="311" transform="translate(174.65,0)" style="font-family: 'Open Sans', verdana, arial, sans-serif; font-size: 12px; fill: rgb(42, 63, 95); fill-opacity: 1; white-space: pre; opacity: 1;">0.2</text></g><g class="xtick"><text text-anchor="middle" x="0" y="311" style="font-family: 'Open Sans', verdana, arial, sans-serif; font-size: 12px; fill: rgb(42, 63, 95); fill-opacity: 1; white-space: pre; opacity: 1;" transform="translate(298.48,0)">0.4</text></g><g class="xtick"><text text-anchor="middle" x="0" y="311" style="font-family: 'Open Sans', verdana, arial, sans-serif; font-size: 12px; fill: rgb(42, 63, 95); fill-opacity: 1; white-space: pre; opacity: 1;" transform="translate(422.32,0)">0.6</text></g><g class="xtick"><text text-anchor="middle" x="0" y="311" style="font-family: 'Open Sans', verdana, arial, sans-serif; font-size: 12px; fill: rgb(42, 63, 95); fill-opacity: 1; white-space: pre; opacity: 1;" transform="translate(546.1600000000001,0)">0.8</text></g><g class="xtick"><text text-anchor="middle" x="0" y="311" style="font-family: 'Open Sans', verdana, arial, sans-serif; font-size: 12px; fill: rgb(42, 63, 95); fill-opacity: 1; white-space: pre; opacity: 1;" transform="translate(670,0)">1</text></g></g><g class="yaxislayer-above"><g class="ytick"><text text-anchor="end" x="56" y="4.199999999999999" transform="translate(0,285.4)" style="font-family: 'Open Sans', verdana, arial, sans-serif; font-size: 12px; fill: rgb(42, 63, 95); fill-opacity: 1; white-space: pre; opacity: 1;">0</text></g><g class="ytick"><text text-anchor="end" x="56" y="4.199999999999999" style="font-family: 'Open Sans', verdana, arial, sans-serif; font-size: 12px; fill: rgb(42, 63, 95); fill-opacity: 1; white-space: pre; opacity: 1;" transform="translate(0,240.04)">0.2</text></g><g class="ytick"><text text-anchor="end" x="56" y="4.199999999999999" style="font-family: 'Open Sans', verdana, arial, sans-serif; font-size: 12px; fill: rgb(42, 63, 95); fill-opacity: 1; white-space: pre; opacity: 1;" transform="translate(0,194.68)">0.4</text></g><g class="ytick"><text text-anchor="end" x="56" y="4.199999999999999" style="font-family: 'Open Sans', verdana, arial, sans-serif; font-size: 12px; fill: rgb(42, 63, 95); fill-opacity: 1; white-space: pre; opacity: 1;" transform="translate(0,149.32)">0.6</text></g><g class="ytick"><text text-anchor="end" x="56" y="4.199999999999999" style="font-family: 'Open Sans', verdana, arial, sans-serif; font-size: 12px; fill: rgb(42, 63, 95); fill-opacity: 1; white-space: pre; opacity: 1;" transform="translate(0,103.96000000000001)">0.8</text></g><g class="ytick"><text text-anchor="end" x="56" y="4.199999999999999" style="font-family: 'Open Sans', verdana, arial, sans-serif; font-size: 12px; fill: rgb(42, 63, 95); fill-opacity: 1; white-space: pre; opacity: 1;" transform="translate(0,58.6)">1</text></g></g><g class="overaxes-above"/></g></g><g class="polarlayer"/><g class="smithlayer"/><g class="ternarylayer"/><g class="geolayer"/><g class="funnelarealayer"/><g class="pielayer"/><g class="iciclelayer"/><g class="treemaplayer"/><g class="sunburstlayer"/><g class="glimages"/><defs id="topdefs-db0cc6"><g class="clips"/><clipPath id="legenddb0cc6"><rect width="335" height="29" x="0" y="0"/></clipPath></defs><g class="layer-above"><g class="imagelayer"/><g class="shapelayer"/></g><g class="infolayer"><g class="legend" pointer-events="all" transform="translate(335,11.959999999999994)"><rect class="bg" shape-rendering="crispEdges" style="stroke: rgb(68, 68, 68); stroke-opacity: 1; fill: rgb(255, 255, 255); fill-opacity: 1; stroke-width: 0px;" width="335" height="29" x="0" y="0"/><g class="scrollbox" transform="" clip-path="url(#legenddb0cc6)"><g class="groups"><g class="traces" transform="translate(0,14.5)" style="opacity: 1;"><text class="legendtext" text-anchor="start" x="40" y="4.680000000000001" style="font-family: 'Open Sans', verdana, arial, sans-serif; font-size: 12px; fill: rgb(42, 63, 95); fill-opacity: 1; white-space: pre;">Stop Loss</text><g class="layers" style="opacity: 1;"><g class="legendfill"/><g class="legendlines"><path class="js-line" d="M5,0h30" style="fill: none; stroke: rgb(31, 119, 180); stroke-opacity: 1; stroke-width: 2px;"/></g><g class="legendsymbols"><g class="legendpoints"/></g></g><rect class="legendtoggle" x="0" y="-9.5" width="100.890625" height="19" style="fill: rgb(0, 0, 0); fill-opacity: 0;"/></g><g class="traces" transform="translate(103.390625,14.5)" style="opacity: 1;"><text class="legendtext" text-anchor="start" x="40" y="4.680000000000001" style="font-family: 'Open Sans', verdana, arial, sans-serif; font-size: 12px; fill: rgb(42, 63, 95); fill-opacity: 1; white-space: pre;">Trailing Stop</text><g class="layers" style="opacity: 1;"><g class="legendfill"/><g class="legendlines"><path class="js-line" d="M5,0h30" style="fill: none; stroke: rgb(255, 127, 14); stroke-opacity: 1; stroke-width: 2px;"/></g><g class="legendsymbols"><g class="legendpoints"/></g></g><rect class="legendtoggle" x="0" y="-9.5" width="119.09375" height="19" style="fill: rgb(0, 0, 0); fill-opacity: 0;"/></g><g class="traces" transform="translate(224.984375,14.5)" style="opacity: 1;"><text class="legendtext" text-anchor="start" x="40" y="4.680000000000001" style="font-family: 'Open Sans', verdana, arial, sans-serif; font-size: 12px; fill: rgb(42, 63, 95); fill-opacity: 1; white-space: pre;">Take Profit</text><g class="layers" style="opacity: 1;"><g class="legendfill"/><g class="legendlines"><path class="js-line" d="M5,0h30" style="fill: none; stroke: rgb(44, 160, 44); stroke-opacity: 1; stroke-width: 2px;"/></g><g class="legendsymbols"><g class="legendpoints"/></g></g><rect class="legendtoggle" x="0" y="-9.5" width="107.453125" height="19" style="fill: rgb(0, 0, 0); fill-opacity: 0;"/></g></g></g><rect class="scrollbar" rx="20" ry="3" width="0" height="0" style="fill: rgb(128, 139, 164); fill-opacity: 1;" x="0" y="0"/></g><g class="g-gtitle"/><g class="g-xtitle"><text class="xtitle" x="363.5" y="337.8" text-anchor="middle" style="font-family: 'Open Sans', verdana, arial, sans-serif; font-size: 14px; fill: rgb(42, 63, 95); opacity: 1; font-weight: normal; white-space: pre;">Stop value</text></g><g class="g-ytitle" transform="translate(1.9248046875,0)"><text class="ytitle" transform="rotate(-90,12.075000000000003,172)" x="12.075000000000003" y="172" text-anchor="middle" style="font-family: 'Open Sans', verdana, arial, sans-serif; font-size: 14px; fill: rgb(42, 63, 95); opacity: 1; font-weight: normal; white-space: pre;">Avg number of signals</text></g></g></svg>