<svg class="main-svg" xmlns="http://www.w3.org/2000/svg" xmlns:xlink="http://www.w3.org/1999/xlink" width="700" height="350" style="" viewBox="0 0 700 350"><rect x="0" y="0" width="700" height="350" style="fill: rgb(33, 34, 38); fill-opacity: 1;"/><defs id="defs-2149a5"><g class="clips"><clipPath id="clip2149a5xyplot" class="plotclip"><rect width="617" height="252"/></clipPath><clipPath class="axesclip" id="clip2149a5x"><rect x="53" y="0" width="617" height="350"/></clipPath><clipPath class="axesclip" id="clip2149a5y"><rect x="0" y="46" width="700" height="252"/></clipPath><clipPath class="axesclip" id="clip2149a5xy"><rect x="53" y="46" width="617" height="252"/></clipPath></g><g class="gradients"/><g class="patterns"/></defs><g class="bglayer"/><g class="layer-below"><g class="imagelayer"/><g class="shapelayer"/></g><g class="cartesianlayer"><g class="subplot xy"><g class="layer-subplot"><g class="shapelayer"/><g class="imagelayer"/></g><g class="minor-gridlayer"><g class="x"/><g class="y"/></g><g class="gridlayer"><g class="x"><path class="xgrid crisp" transform="translate(171.41,0)" d="M0,46v252" style="stroke: rgb(49, 52, 57); stroke-opacity: 1; stroke-width: 1px;"/><path class="xgrid crisp" transform="translate(296.06,0)" d="M0,46v252" style="stroke: rgb(49, 52, 57); stroke-opacity: 1; stroke-width: 1px;"/><path class="xgrid crisp" transform="translate(420.71,0)" d="M0,46v252" style="stroke: rgb(49, 52, 57); stroke-opacity: 1; stroke-width: 1px;"/><path class="xgrid crisp" transform="translate(545.35,0)" d="M0,46v252" style="stroke: rgb(49, 52, 57); stroke-opacity: 1; stroke-width: 1px;"/></g><g class="y"><path class="ygrid crisp" transform="translate(0,180.05)" d="M53,0h617" style="stroke: rgb(49, 52, 57); stroke-opacity: 1; stroke-width: 1px;"/><path class="ygrid crisp" transform="translate(0,94.52000000000001)" d="M53,0h617" style="stroke: rgb(49, 52, 57); stroke-opacity: 1; stroke-width: 1px;"/></g></g><g class="zerolinelayer"><path class="yzl zl crisp" transform="translate(0,265.58000000000004)" d="M53,0h617" style="stroke: rgb(49, 52, 57); stroke-opacity: 1; stroke-width: 2px;"/></g><path class="xlines-below"/><path class="ylines-below"/><g class="overlines-below"/><g class="xaxislayer-below"/><g class="yaxislayer-below"/><g class="overaxes-below"/><g class="plot" transform="translate(53,46)" clip-path="url(#clip2149a5xyplot)"><g class="scatterlayer mlayer"><g class="trace scatter trace43d6f3f7-9296-4a76-bb32-835a790117ad" style="stroke-miterlimit: 2; opacity: 1;"><g class="fills"/><g class="errorbars"/><g class="lines"><path class="js-line" d="M0,176.59L6.23,153.88L12.46,142.83L18.7,133.97L24.93,126.92L37.39,92.1L43.63,86.05L49.86,78.4L56.09,62.84L62.32,67.74L68.56,63.48L74.79,58.11L81.02,58.82L87.25,57.96L93.48,59.22L105.95,65.06L112.18,72.19L124.65,81.58L130.88,87.82L143.34,104.42L149.58,111.86L155.81,120.42L162.04,124.78L168.27,133.67L174.51,137.9L180.74,144.65L186.97,153.06L193.2,160.61L199.43,164.7L205.67,168.26L211.9,170.7L224.36,180.6L230.6,184.82L236.83,190.25L243.06,197.64L249.29,202.8L255.53,206.83L267.99,204.76L274.22,202.25L280.45,201.96L286.69,203.91L292.92,200.03L299.15,194.76L305.38,190.06L311.62,186.3L317.85,183.57L324.08,177.13L336.55,170.38L342.78,161.26L349.01,147.97L355.24,136.68L361.47,124.29L367.71,115.91L373.94,107.78L380.17,102.33L386.4,98.46L392.64,93.14L405.1,83.88L411.33,78.3L417.57,77.2L423.8,73.05L430.03,67.52L436.26,65.08L442.49,60.71L448.73,58.18L454.96,57.41L461.19,57.64L492.35,59.61L498.59,58.98L504.82,58.78L511.05,57.73L517.28,56.05L523.52,56.08L535.98,54.55L542.21,54.4L554.68,54.04L560.91,53.81L617,53.75" style="vector-effect: none; fill: none; stroke: rgb(31, 119, 180); stroke-opacity: 1; stroke-width: 2px; opacity: 1;"/></g><g class="points"/><g class="text"/></g><g class="trace scatter trace8f27757d-7985-411f-b48e-fb81273288b7" style="stroke-miterlimit: 2; opacity: 1;"><g class="fills"/><g class="errorbars"/><g class="lines"><path class="js-line" d="M0,206.14L12.46,204.51L18.7,204.37L24.93,203.17L31.16,199.25L37.39,196.93L43.63,188.27L49.86,179.96L56.09,170.11L68.56,145.01L74.79,137.73L81.02,146.96L87.25,150.68L93.48,145.74L99.72,100.46L105.95,75.2L112.18,77.92L118.41,67.49L124.65,52.15L130.88,23.23L137.11,19.76L143.34,27.47L149.58,25.75L155.81,45.03L162.04,48.62L168.27,13.84L174.51,19.01L180.74,12.6L186.97,35.63L193.2,30.24L199.43,14.37L205.67,18.03L211.9,20.12L218.13,25.55L224.36,23.23L230.6,27.75L236.83,36.29L243.06,50.93L249.29,57.56L261.76,91.55L267.99,84.8L280.45,114.33L286.69,120.43L292.92,132.47L299.15,139.66L305.38,154.07L311.62,145.54L330.31,159.94L336.55,169.22L349.01,186.78L355.24,188.92L361.47,199.81L367.71,201.5L373.94,192.94L380.17,187.84L386.4,190.38L392.64,190.34L405.1,201.97L411.33,166.84L417.57,150.83L423.8,154.08L430.03,147.36L436.26,151.71L442.49,143.4L448.73,125.98L454.96,75.98L461.19,58.57L473.66,59.52L479.89,58.84L492.35,59.51L498.59,60.89L504.82,58.9L511.05,59.57L523.52,58.25L529.75,58.12L542.21,58.33L548.44,54.33L567.14,53.75L573.37,53.75L617,53.75" style="vector-effect: none; fill: none; stroke: rgb(255, 127, 14); stroke-opacity: 1; stroke-width: 2px; opacity: 1;"/></g><g class="points"/><g class="text"/></g><g class="trace scatter traceca8c1ed2-7c51-4eb7-a85d-3b7d5aff9b9a" style="stroke-miterlimit: 2; opacity: 1;"><g class="fills"/><g class="errorbars"/><g class="lines"><path class="js-line" d="M0,233.62L6.23,239.4L12.46,237.14L18.7,236.3L24.93,234.52L31.16,229.91L37.39,230.8L43.63,227.36L49.86,228L68.56,216.11L74.79,210.36L81.02,207.26L87.25,205.05L93.48,200.35L99.72,197.42L118.41,192.35L124.65,189.42L130.88,189.19L137.11,189.8L143.34,185.99L149.58,181.04L155.81,176.76L162.04,176.63L168.27,174.13L174.51,169.67L193.2,157.71L199.43,155.95L205.67,149.41L211.9,149.05L218.13,148.86L224.36,149.43L230.6,147.49L236.83,143.42L255.53,132.67L261.76,131.34L267.99,128.31L274.22,128.39L286.69,124.53L292.92,126.75L299.15,121.98L305.38,118.49L311.62,114.76L317.85,113.89L330.31,112L336.55,112.45L342.78,109.93L349.01,108.22L361.47,105.77L367.71,105.95L373.94,107.15L380.17,106.89L386.4,104.3L392.64,102.74L398.87,100.23L405.1,99.29L417.57,100.99L423.8,100.46L436.26,99.62L442.49,100.36L448.73,101.7L454.96,101.59L461.19,101.3L467.42,99.77L479.89,102.17L486.12,100.6L498.59,97.19L504.82,97.93L517.28,98.37L523.52,97.44L529.75,98.44L535.98,95.03L542.21,93.92L548.44,90.83L554.68,91.13L560.91,89.43L567.14,89.68L573.37,88.17L585.84,84.72L592.07,84.01L598.3,81.91L604.54,81.03L617,79.43" style="vector-effect: none; fill: none; stroke: rgb(44, 160, 44); stroke-opacity: 1; stroke-width: 2px; opacity: 1;"/></g><g class="points"/><g class="text"/></g><g class="trace scatter tracee8318a68-e76d-4cda-ab61-1d265bf00810" style="stroke-miterlimit: 2; opacity: 1;"><g class="fills"/><g class="errorbars"/><g class="lines"><path class="js-line" d="M0,160.2L6.23,161.3L12.46,145.62L18.7,184.96L24.93,157.93L31.16,171.13L37.39,160.19L43.63,158.91L49.86,156.73L56.09,170.43L62.32,164.43L68.56,163.81L74.79,148.73L81.02,180.95L87.25,166.37L93.48,141.69L99.72,156.92L105.95,167.48L112.18,168.96L118.41,172.57L124.65,168.84L130.88,156.52L137.11,155.39L143.34,157.59L149.58,166.6L155.81,168.58L162.04,141.56L168.27,155.18L174.51,177.45L180.74,166.38L186.97,174.4L193.2,173.22L199.43,143.24L205.67,156.79L211.9,155.98L218.13,158.35L224.36,155.99L230.6,161.06L236.83,155.1L243.06,177.93L249.29,163.37L255.53,184L261.76,165.22L267.99,153.66L274.22,151.99L280.45,151.7L286.69,156.68L292.92,148.79L299.15,152.63L305.38,168.33L311.62,175.9L317.85,158.92L324.08,158.26L330.31,163.02L336.55,156.31L342.78,170.12L349.01,155.2L355.24,170.48L361.47,175.92L367.71,168.75L373.94,164.64L380.17,156.73L386.4,175.26L392.64,161.59L398.87,157.38L405.1,162.27L411.33,159.54L417.57,160.14L423.8,146.94L430.03,161.01L436.26,181.33L442.49,162L448.73,161.25L454.96,165.71L461.19,146L467.42,167.75L473.66,161.11L479.89,169.33L486.12,162.21L492.35,152.95L498.59,153.45L504.82,142.24L511.05,160.36L517.28,159.85L523.52,169.85L529.75,149.82L535.98,160.04L542.21,142.37L548.44,152.58L554.68,171.52L560.91,168.54L567.14,166.25L573.37,142.78L579.61,161.67L585.84,171.14L592.07,167.86L598.3,171.01L604.54,160.73L610.77,164.88L617,155.22" style="vector-effect: none; fill: none; stroke: rgb(220, 57, 18); stroke-opacity: 1; stroke-width: 2px; opacity: 1;"/></g><g class="points"/><g class="text"/></g><g class="trace scatter trace7d2db0af-80d7-45a2-a6aa-ab39273a2f5a" style="stroke-miterlimit: 2; opacity: 1;"><g class="fills"/><g class="errorbars"/><g class="lines"><path class="js-line" d="M0,53.75L617,53.75" style="vector-effect: none; fill: none; stroke: rgb(148, 103, 189); stroke-opacity: 1; stroke-width: 2px; opacity: 1;"/></g><g class="points"/><g class="text"/></g></g></g><g class="overplot"/><path class="xlines-above crisp" d="M0,0" style="fill: none;"/><path class="ylines-above crisp" d="M0,0" style="fill: none;"/><g class="overlines-above"/><g class="xaxislayer-above"><g class="xtick"><text text-anchor="middle" x="0" y="311" transform="translate(171.41,0)" style="font-family: 'Open Sans', verdana, arial, sans-serif; font-size: 12px; fill: rgb(214, 223, 239); fill-opacity: 1; white-space: pre; opacity: 1;">0.2</text></g><g class="xtick"><text text-anchor="middle" x="0" y="311" style="font-family: 'Open Sans', verdana, arial, sans-serif; font-size: 12px; fill: rgb(214, 223, 239); fill-opacity: 1; white-space: pre; opacity: 1;" transform="translate(296.06,0)">0.4</text></g><g class="xtick"><text text-anchor="middle" x="0" y="311" style="font-family: 'Open Sans', verdana, arial, sans-serif; font-size: 12px; fill: rgb(214, 223, 239); fill-opacity: 1; white-space: pre; opacity: 1;" transform="translate(420.71,0)">0.6</text></g><g class="xtick"><text text-anchor="middle" x="0" y="311" style="font-family: 'Open Sans', verdana, arial, sans-serif; font-size: 12px; fill: rgb(214, 223, 239); fill-opacity: 1; white-space: pre; opacity: 1;" transform="translate(545.35,0)">0.8</text></g><g class="xtick"><text text-anchor="middle" x="0" y="311" style="font-family: 'Open Sans', verdana, arial, sans-serif; font-size: 12px; fill: rgb(214, 223, 239); fill-opacity: 1; white-space: pre; opacity: 1;" transform="translate(670,0)">1</text></g></g><g class="yaxislayer-above"><g class="ytick"><text text-anchor="end" x="52" y="4.199999999999999" transform="translate(0,265.58000000000004)" style="font-family: 'Open Sans', verdana, arial, sans-serif; font-size: 12px; fill: rgb(214, 223, 239); fill-opacity: 1; white-space: pre; opacity: 1;">0</text></g><g class="ytick"><text text-anchor="end" x="52" y="4.199999999999999" style="font-family: 'Open Sans', verdana, arial, sans-serif; font-size: 12px; fill: rgb(214, 223, 239); fill-opacity: 1; white-space: pre; opacity: 1;" transform="translate(0,180.05)">5</text></g><g class="ytick"><text text-anchor="end" x="52" y="4.199999999999999" style="font-family: 'Open Sans', verdana, arial, sans-serif; font-size: 12px; fill: rgb(214, 223, 239); fill-opacity: 1; white-space: pre; opacity: 1;" transform="translate(0,94.52000000000001)">10</text></g></g><g class="overaxes-above"/></g></g><g class="polarlayer"/><g class="smithlayer"/><g class="ternarylayer"/><g class="geolayer"/><g class="funnelarealayer"/><g class="pielayer"/><g class="iciclelayer"/><g class="treemaplayer"/><g class="sunburstlayer"/><g class="glimages"/><defs id="topdefs-2149a5"><g class="clips"/><clipPath id="legend2149a5"><rect width="366" height="29" x="0" y="0"/></clipPath></defs><g class="layer-above"><g class="imagelayer"/><g class="shapelayer"/></g><g class="infolayer"><g class="legend" pointer-events="all" transform="translate(304,11.959999999999994)"><rect class="bg" shape-rendering="crispEdges" width="366" height="29" x="0" y="0" style="stroke: rgb(68, 68, 68); stroke-opacity: 1; fill: rgb(33, 34, 38); fill-opacity: 1; stroke-width: 0px;"/><g class="scrollbox" transform="" clip-path="url(#legend2149a5)"><g class="groups"><g class="traces" transform="translate(0,14.5)" style="opacity: 1;"><text class="legendtext" text-anchor="start" x="40" y="4.680000000000001" style="font-family: 'Open Sans', verdana, arial, sans-serif; font-size: 12px; fill: rgb(214, 223, 239); fill-opacity: 1; white-space: pre;">SL</text><g class="layers" style="opacity: 1;"><g class="legendfill"/><g class="legendlines"><path class="js-line" d="M5,0h30" style="fill: none; stroke: rgb(31, 119, 180); stroke-opacity: 1; stroke-width: 2px;"/></g><g class="legendsymbols"><g class="legendpoints"/></g></g><rect class="legendtoggle" x="0" y="-9.5" width="57.40625" height="19" style="fill: rgb(0, 0, 0); fill-opacity: 0;"/></g><g class="traces" transform="translate(59.90625,14.5)" style="opacity: 1;"><text class="legendtext" text-anchor="start" x="40" y="4.680000000000001" style="font-family: 'Open Sans', verdana, arial, sans-serif; font-size: 12px; fill: rgb(214, 223, 239); fill-opacity: 1; white-space: pre;">TS</text><g class="layers" style="opacity: 1;"><g class="legendfill"/><g class="legendlines"><path class="js-line" d="M5,0h30" style="fill: none; stroke: rgb(255, 127, 14); stroke-opacity: 1; stroke-width: 2px;"/></g><g class="legendsymbols"><g class="legendpoints"/></g></g><rect class="legendtoggle" x="0" y="-9.5" width="58.109375" height="19" style="fill: rgb(0, 0, 0); fill-opacity: 0;"/></g><g class="traces" transform="translate(120.515625,14.5)" style="opacity: 1;"><text class="legendtext" text-anchor="start" x="40" y="4.680000000000001" style="font-family: 'Open Sans', verdana, arial, sans-serif; font-size: 12px; fill: rgb(214, 223, 239); fill-opacity: 1; white-space: pre;">TP</text><g class="layers" style="opacity: 1;"><g class="legendfill"/><g class="legendlines"><path class="js-line" d="M5,0h30" style="fill: none; stroke: rgb(44, 160, 44); stroke-opacity: 1; stroke-width: 2px;"/></g><g class="legendsymbols"><g class="legendpoints"/></g></g><rect class="legendtoggle" x="0" y="-9.5" width="57.140625" height="19" style="fill: rgb(0, 0, 0); fill-opacity: 0;"/></g><g class="traces" transform="translate(180.15625,14.5)" style="opacity: 1;"><text class="legendtext" text-anchor="start" x="40" y="4.680000000000001" style="font-family: 'Open Sans', verdana, arial, sans-serif; font-size: 12px; fill: rgb(214, 223, 239); fill-opacity: 1; white-space: pre;">Random</text><g class="layers" style="opacity: 1;"><g class="legendfill"/><g class="legendlines"><path class="js-line" d="M5,0h30" style="fill: none; stroke: rgb(220, 57, 18); stroke-opacity: 1; stroke-width: 2px;"/></g><g class="legendsymbols"><g class="legendpoints"/></g></g><rect class="legendtoggle" x="0" y="-9.5" width="92.078125" height="19" style="fill: rgb(0, 0, 0); fill-opacity: 0;"/></g><g class="traces" transform="translate(274.734375,14.5)" style="opacity: 1;"><text class="legendtext" text-anchor="start" x="40" y="4.680000000000001" style="font-family: 'Open Sans', verdana, arial, sans-serif; font-size: 12px; fill: rgb(214, 223, 239); fill-opacity: 1; white-space: pre;">Holding</text><g class="layers" style="opacity: 1;"><g class="legendfill"/><g class="legendlines"><path class="js-line" d="M5,0h30" style="fill: none; stroke: rgb(148, 103, 189); stroke-opacity: 1; stroke-width: 2px;"/></g><g class="legendsymbols"><g class="legendpoints"/></g></g><rect class="legendtoggle" x="0" y="-9.5" width="87.9375" height="19" style="fill: rgb(0, 0, 0); fill-opacity: 0;"/></g></g></g><rect class="scrollbar" rx="20" ry="3" width="0" height="0" x="0" y="0" style="fill: rgb(128, 139, 164); fill-opacity: 1;"/></g><g class="g-gtitle"/><g class="g-xtitle"><text class="xtitle" x="361.5" y="337.8" text-anchor="middle" style="font-family: 'Open Sans', verdana, arial, sans-serif; font-size: 14px; fill: rgb(214, 223, 239); opacity: 1; font-weight: normal; white-space: pre;">Stop value</text></g><g class="g-ytitle" transform="translate(1.5654296875,0)"><text class="ytitle" transform="rotate(-90,12.434375000000003,172)" x="12.434375000000003" y="172" text-anchor="middle" style="font-family: 'Open Sans', verdana, arial, sans-serif; font-size: 14px; fill: rgb(214, 223, 239); opacity: 1; font-weight: normal; white-space: pre;">Expectancy</text></g></g></svg>