<svg class="main-svg" xmlns="http://www.w3.org/2000/svg" xmlns:xlink="http://www.w3.org/1999/xlink" width="700" height="350" style="" viewBox="0 0 700 350"><rect x="0" y="0" width="700" height="350" style="fill: rgb(33, 34, 38); fill-opacity: 1;"/><defs id="defs-3cf7fd"><g class="clips"><clipPath id="clip3cf7fdxyplot" class="plotclip"><rect width="607" height="252"/></clipPath><clipPath class="axesclip" id="clip3cf7fdx"><rect x="63" y="0" width="607" height="350"/></clipPath><clipPath class="axesclip" id="clip3cf7fdy"><rect x="0" y="46" width="700" height="252"/></clipPath><clipPath class="axesclip" id="clip3cf7fdxy"><rect x="63" y="46" width="607" height="252"/></clipPath></g><g class="gradients"/><g class="patterns"/></defs><g class="bglayer"/><g class="layer-below"><g class="imagelayer"/><g class="shapelayer"/></g><g class="cartesianlayer"><g class="subplot xy"><g class="layer-subplot"><g class="shapelayer"/><g class="imagelayer"/></g><g class="minor-gridlayer"><g class="x"/><g class="y"/></g><g class="gridlayer"><g class="x"><path class="xgrid crisp" transform="translate(116.19,0)" d="M0,46v252" style="stroke: rgb(49, 52, 57); stroke-opacity: 1; stroke-width: 1px;"/><path class="xgrid crisp" transform="translate(370.7,0)" d="M0,46v252" style="stroke: rgb(49, 52, 57); stroke-opacity: 1; stroke-width: 1px;"/><path class="xgrid crisp" transform="translate(497.95,0)" d="M0,46v252" style="stroke: rgb(49, 52, 57); stroke-opacity: 1; stroke-width: 1px;"/><path class="xgrid crisp" transform="translate(625.21,0)" d="M0,46v252" style="stroke: rgb(49, 52, 57); stroke-opacity: 1; stroke-width: 1px;"/></g><g class="y"><path class="ygrid crisp" transform="translate(0,257.61)" d="M63,0h607" style="stroke: rgb(49, 52, 57); stroke-opacity: 1; stroke-width: 1px;"/><path class="ygrid crisp" transform="translate(0,154.17000000000002)" d="M63,0h607" style="stroke: rgb(49, 52, 57); stroke-opacity: 1; stroke-width: 1px;"/><path class="ygrid crisp" transform="translate(0,102.44)" d="M63,0h607" style="stroke: rgb(49, 52, 57); stroke-opacity: 1; stroke-width: 1px;"/><path class="ygrid crisp" transform="translate(0,50.72)" d="M63,0h607" style="stroke: rgb(49, 52, 57); stroke-opacity: 1; stroke-width: 1px;"/></g></g><g class="zerolinelayer"><path class="xzl zl crisp" transform="translate(243.45,0)" d="M0,46v252" style="stroke: rgb(49, 52, 57); stroke-opacity: 1; stroke-width: 2px;"/><path class="yzl zl crisp" transform="translate(0,205.89)" d="M63,0h607" style="stroke: rgb(49, 52, 57); stroke-opacity: 1; stroke-width: 2px;"/></g><path class="xlines-below"/><path class="ylines-below"/><g class="overlines-below"/><g class="xaxislayer-below"/><g class="yaxislayer-below"/><g class="overaxes-below"/><g class="plot" transform="translate(63,46)" clip-path="url(#clip3cf7fdxyplot)"><g class="scatterlayer mlayer"><g class="trace scatter tracecae7e322-db9f-41cb-9124-58ed77a9e2c2" style="stroke-miterlimit: 2; opacity: 1;"><g class="fills"/><g class="errorbars"/><g class="lines"><path class="js-line" d="M0,209.32L65.41,198.75L82.71,195.79L100.78,192.24L116.56,187.83L132.34,184.52L147.36,180.52L164.84,175.99L183.5,170.11L203.33,165.74L225.24,158.62L268.76,147.69L322.97,133.1L396.01,107.7L482.04,73.94L607,43.13" style="vector-effect: none; fill: none; stroke: rgb(31, 119, 180); stroke-opacity: 1; stroke-width: 2px; opacity: 1;"/></g><g class="points"/><g class="text"/></g><g class="trace scatter trace88c1fab8-8c54-44c0-a18e-cd90bddc8bda" style="stroke-miterlimit: 2; opacity: 1;"><g class="fills"/><g class="errorbars"/><g class="lines"><path class="js-line" d="M0,204.9L34.36,198.15L50.65,195.38L82.71,186.76L100.78,184.35L132.34,178.44L147.36,174.47L183.5,162.3L203.33,161L225.24,154.69L268.76,145.29L322.97,134.53L396.01,113.69L482.04,87.63L607,62.88" style="vector-effect: none; fill: none; stroke: rgb(255, 127, 14); stroke-opacity: 1; stroke-width: 2px; opacity: 1;"/></g><g class="points"/><g class="text"/></g><g class="trace scatter tracefbc3423c-f9b2-43e9-aafe-cab5e6cffcee" style="stroke-miterlimit: 2; opacity: 1;"><g class="fills"/><g class="errorbars"/><g class="lines"><path class="js-line" d="M0,229.74L17.31,216.68L34.36,206.26L50.65,198.41L65.41,188.26L82.71,178.44L100.78,175.93L116.56,166.67L132.34,161.31L147.36,153.36L164.84,145.3L183.5,138.58L203.33,135.99L268.76,124.52L322.97,115.4L396.01,109.35L482.04,107.67L607,107.65" style="vector-effect: none; fill: none; stroke: rgb(44, 160, 44); stroke-opacity: 1; stroke-width: 2px; opacity: 1;"/></g><g class="points"/><g class="text"/></g><g class="trace scatter trace78133e1c-345e-4220-a6d3-182635f378a6" style="stroke-miterlimit: 2; opacity: 1;"><g class="fills"/><g class="errorbars"/><g class="lines"><path class="js-line" d="M0,209.51L17.31,201.37L34.36,195.28L50.65,192.08L65.41,185.71L82.71,181.84L100.78,181.5L116.56,174.38L132.34,172.67L147.36,165.94L164.84,161.59L183.5,156.77L203.33,156.95L225.24,151.4L268.76,142.81L322.97,134.67L396.01,122.15L482.04,109.19L607,94.57" style="vector-effect: none; fill: none; stroke: rgb(220, 57, 18); stroke-opacity: 1; stroke-width: 2px; opacity: 1;"/></g><g class="points"/><g class="text"/></g><g class="trace scatter trace8d85de23-769d-4774-a337-932831e011d0" style="stroke-miterlimit: 2; opacity: 1;"><g class="fills"/><g class="errorbars"/><g class="lines"><path class="js-line" d="M0,239.4L17.31,229.6L34.36,222.45L100.78,195.97L116.56,189.02L147.36,176.5L164.84,169.74L203.33,154.59L225.24,146.88L268.76,133.61L322.97,113.5L482.04,56.88L607,12.6" style="vector-effect: none; fill: none; stroke: rgb(148, 103, 189); stroke-opacity: 1; stroke-width: 2px; opacity: 1;"/></g><g class="points"/><g class="text"/></g></g></g><g class="overplot"/><path class="xlines-above crisp" d="M0,0" style="fill: none;"/><path class="ylines-above crisp" d="M0,0" style="fill: none;"/><g class="overlines-above"/><g class="xaxislayer-above"><g class="xtick"><text text-anchor="middle" x="0" y="311" transform="translate(116.19,0)" style="font-family: 'Open Sans', verdana, arial, sans-serif; font-size: 12px; fill: rgb(214, 223, 239); fill-opacity: 1; white-space: pre; opacity: 1;">−50.00%</text></g><g class="xtick"><text text-anchor="middle" x="0" y="311" style="font-family: 'Open Sans', verdana, arial, sans-serif; font-size: 12px; fill: rgb(214, 223, 239); fill-opacity: 1; white-space: pre; opacity: 1;" transform="translate(243.45,0)">0.00%</text></g><g class="xtick"><text text-anchor="middle" x="0" y="311" style="font-family: 'Open Sans', verdana, arial, sans-serif; font-size: 12px; fill: rgb(214, 223, 239); fill-opacity: 1; white-space: pre; opacity: 1;" transform="translate(370.7,0)">50.00%</text></g><g class="xtick"><text text-anchor="middle" x="0" y="311" style="font-family: 'Open Sans', verdana, arial, sans-serif; font-size: 12px; fill: rgb(214, 223, 239); fill-opacity: 1; white-space: pre; opacity: 1;" transform="translate(497.95,0)">100.00%</text></g><g class="xtick"><text text-anchor="middle" x="0" y="311" style="font-family: 'Open Sans', verdana, arial, sans-serif; font-size: 12px; fill: rgb(214, 223, 239); fill-opacity: 1; white-space: pre; opacity: 1;" transform="translate(625.21,0)">150.00%</text></g></g><g class="yaxislayer-above"><g class="ytick"><text text-anchor="end" x="62" y="4.199999999999999" transform="translate(0,257.61)" style="font-family: 'Open Sans', verdana, arial, sans-serif; font-size: 12px; fill: rgb(214, 223, 239); fill-opacity: 1; white-space: pre; opacity: 1;">−50</text></g><g class="ytick"><text text-anchor="end" x="62" y="4.199999999999999" style="font-family: 'Open Sans', verdana, arial, sans-serif; font-size: 12px; fill: rgb(214, 223, 239); fill-opacity: 1; white-space: pre; opacity: 1;" transform="translate(0,205.89)">0</text></g><g class="ytick"><text text-anchor="end" x="62" y="4.199999999999999" style="font-family: 'Open Sans', verdana, arial, sans-serif; font-size: 12px; fill: rgb(214, 223, 239); fill-opacity: 1; white-space: pre; opacity: 1;" transform="translate(0,154.17000000000002)">50</text></g><g class="ytick"><text text-anchor="end" x="62" y="4.199999999999999" style="font-family: 'Open Sans', verdana, arial, sans-serif; font-size: 12px; fill: rgb(214, 223, 239); fill-opacity: 1; white-space: pre; opacity: 1;" transform="translate(0,102.44)">100</text></g><g class="ytick"><text text-anchor="end" x="62" y="4.199999999999999" style="font-family: 'Open Sans', verdana, arial, sans-serif; font-size: 12px; fill: rgb(214, 223, 239); fill-opacity: 1; white-space: pre; opacity: 1;" transform="translate(0,50.72)">150</text></g></g><g class="overaxes-above"/></g></g><g class="polarlayer"/><g class="smithlayer"/><g class="ternarylayer"/><g class="geolayer"/><g class="funnelarealayer"/><g class="pielayer"/><g class="iciclelayer"/><g class="treemaplayer"/><g class="sunburstlayer"/><g class="glimages"/><defs id="topdefs-3cf7fd"><g class="clips"/><clipPath id="legend3cf7fd"><rect width="366" height="29" x="0" y="0"/></clipPath></defs><g class="layer-above"><g class="imagelayer"/><g class="shapelayer"/></g><g class="infolayer"><g class="legend" pointer-events="all" transform="translate(304,11.959999999999994)"><rect class="bg" shape-rendering="crispEdges" width="366" height="29" x="0" y="0" style="stroke: rgb(68, 68, 68); stroke-opacity: 1; fill: rgb(33, 34, 38); fill-opacity: 1; stroke-width: 0px;"/><g class="scrollbox" transform="" clip-path="url(#legend3cf7fd)"><g class="groups"><g class="traces" transform="translate(0,14.5)" style="opacity: 1;"><text class="legendtext" text-anchor="start" x="40" y="4.680000000000001" style="font-family: 'Open Sans', verdana, arial, sans-serif; font-size: 12px; fill: rgb(214, 223, 239); fill-opacity: 1; white-space: pre;">SL</text><g class="layers" style="opacity: 1;"><g class="legendfill"/><g class="legendlines"><path class="js-line" d="M5,0h30" style="fill: none; stroke: rgb(31, 119, 180); stroke-opacity: 1; stroke-width: 2px;"/></g><g class="legendsymbols"><g class="legendpoints"/></g></g><rect class="legendtoggle" x="0" y="-9.5" width="57.40625" height="19" style="fill: rgb(0, 0, 0); fill-opacity: 0;"/></g><g class="traces" transform="translate(59.90625,14.5)" style="opacity: 1;"><text class="legendtext" text-anchor="start" x="40" y="4.680000000000001" style="font-family: 'Open Sans', verdana, arial, sans-serif; font-size: 12px; fill: rgb(214, 223, 239); fill-opacity: 1; white-space: pre;">TS</text><g class="layers" style="opacity: 1;"><g class="legendfill"/><g class="legendlines"><path class="js-line" d="M5,0h30" style="fill: none; stroke: rgb(255, 127, 14); stroke-opacity: 1; stroke-width: 2px;"/></g><g class="legendsymbols"><g class="legendpoints"/></g></g><rect class="legendtoggle" x="0" y="-9.5" width="58.109375" height="19" style="fill: rgb(0, 0, 0); fill-opacity: 0;"/></g><g class="traces" transform="translate(120.515625,14.5)" style="opacity: 1;"><text class="legendtext" text-anchor="start" x="40" y="4.680000000000001" style="font-family: 'Open Sans', verdana, arial, sans-serif; font-size: 12px; fill: rgb(214, 223, 239); fill-opacity: 1; white-space: pre;">TP</text><g class="layers" style="opacity: 1;"><g class="legendfill"/><g class="legendlines"><path class="js-line" d="M5,0h30" style="fill: none; stroke: rgb(44, 160, 44); stroke-opacity: 1; stroke-width: 2px;"/></g><g class="legendsymbols"><g class="legendpoints"/></g></g><rect class="legendtoggle" x="0" y="-9.5" width="57.140625" height="19" style="fill: rgb(0, 0, 0); fill-opacity: 0;"/></g><g class="traces" transform="translate(180.15625,14.5)" style="opacity: 1;"><text class="legendtext" text-anchor="start" x="40" y="4.680000000000001" style="font-family: 'Open Sans', verdana, arial, sans-serif; font-size: 12px; fill: rgb(214, 223, 239); fill-opacity: 1; white-space: pre;">Random</text><g class="layers" style="opacity: 1;"><g class="legendfill"/><g class="legendlines"><path class="js-line" d="M5,0h30" style="fill: none; stroke: rgb(220, 57, 18); stroke-opacity: 1; stroke-width: 2px;"/></g><g class="legendsymbols"><g class="legendpoints"/></g></g><rect class="legendtoggle" x="0" y="-9.5" width="92.078125" height="19" style="fill: rgb(0, 0, 0); fill-opacity: 0;"/></g><g class="traces" transform="translate(274.734375,14.5)" style="opacity: 1;"><text class="legendtext" text-anchor="start" x="40" y="4.680000000000001" style="font-family: 'Open Sans', verdana, arial, sans-serif; font-size: 12px; fill: rgb(214, 223, 239); fill-opacity: 1; white-space: pre;">Holding</text><g class="layers" style="opacity: 1;"><g class="legendfill"/><g class="legendlines"><path class="js-line" d="M5,0h30" style="fill: none; stroke: rgb(148, 103, 189); stroke-opacity: 1; stroke-width: 2px;"/></g><g class="legendsymbols"><g class="legendpoints"/></g></g><rect class="legendtoggle" x="0" y="-9.5" width="87.9375" height="19" style="fill: rgb(0, 0, 0); fill-opacity: 0;"/></g></g></g><rect class="scrollbar" rx="20" ry="3" width="0" height="0" x="0" y="0" style="fill: rgb(128, 139, 164); fill-opacity: 1;"/></g><g class="g-gtitle"/><g class="g-xtitle"><text class="xtitle" x="366.5" y="337.8" text-anchor="middle" style="font-family: 'Open Sans', verdana, arial, sans-serif; font-size: 14px; fill: rgb(214, 223, 239); opacity: 1; font-weight: normal; white-space: pre;">Total return of holding</text></g><g class="g-ytitle" transform="translate(1.3779296875,0)"><text class="ytitle" transform="rotate(-90,12.621875000000003,172)" x="12.621875000000003" y="172" text-anchor="middle" style="font-family: 'Open Sans', verdana, arial, sans-serif; font-size: 14px; fill: rgb(214, 223, 239); opacity: 1; font-weight: normal; white-space: pre;">Expectancy</text></g></g></svg>