<svg class="main-svg" xmlns="http://www.w3.org/2000/svg" xmlns:xlink="http://www.w3.org/1999/xlink" width="700" height="350" style="" viewBox="0 0 700 350"><rect x="0" y="0" width="700" height="350" style="fill: rgb(33, 34, 38); fill-opacity: 1;"/><defs id="defs-88bc72"><g class="clips"><clipPath id="clip88bc72xyplot" class="plotclip"><rect width="630" height="274"/></clipPath><clipPath class="axesclip" id="clip88bc72x"><rect x="40" y="0" width="630" height="350"/></clipPath><clipPath class="axesclip" id="clip88bc72y"><rect x="0" y="46" width="700" height="274"/></clipPath><clipPath class="axesclip" id="clip88bc72xy"><rect x="40" y="46" width="630" height="274"/></clipPath></g><g class="gradients"/><g class="patterns"/></defs><g class="bglayer"/><g class="layer-below"><g class="imagelayer"/><g class="shapelayer"/></g><g class="cartesianlayer"><g class="subplot xy"><g class="layer-subplot"><g class="shapelayer"/><g class="imagelayer"/></g><g class="minor-gridlayer"><g class="x"/><g class="y"/></g><g class="gridlayer"><g class="x"><path class="xgrid crisp" transform="translate(169.34,0)" d="M0,46v274" style="stroke: rgb(49, 52, 57); stroke-opacity: 1; stroke-width: 1px;"/><path class="xgrid crisp" transform="translate(290.33000000000004,0)" d="M0,46v274" style="stroke: rgb(49, 52, 57); stroke-opacity: 1; stroke-width: 1px;"/><path class="xgrid crisp" transform="translate(419.67,0)" d="M0,46v274" style="stroke: rgb(49, 52, 57); stroke-opacity: 1; stroke-width: 1px;"/><path class="xgrid crisp" transform="translate(544.8299999999999,0)" d="M0,46v274" style="stroke: rgb(49, 52, 57); stroke-opacity: 1; stroke-width: 1px;"/></g><g class="y"><path class="ygrid crisp" transform="translate(0,258.07)" d="M40,0h630" style="stroke: rgb(49, 52, 57); stroke-opacity: 1; stroke-width: 1px;"/><path class="ygrid crisp" transform="translate(0,207.96)" d="M40,0h630" style="stroke: rgb(49, 52, 57); stroke-opacity: 1; stroke-width: 1px;"/><path class="ygrid crisp" transform="translate(0,157.85)" d="M40,0h630" style="stroke: rgb(49, 52, 57); stroke-opacity: 1; stroke-width: 1px;"/><path class="ygrid crisp" transform="translate(0,107.72999999999999)" d="M40,0h630" style="stroke: rgb(49, 52, 57); stroke-opacity: 1; stroke-width: 1px;"/><path class="ygrid crisp" transform="translate(0,57.62)" d="M40,0h630" style="stroke: rgb(49, 52, 57); stroke-opacity: 1; stroke-width: 1px;"/></g></g><g class="zerolinelayer"><path class="yzl zl crisp" transform="translate(0,308.19)" d="M40,0h630" style="stroke: rgb(49, 52, 57); stroke-opacity: 1; stroke-width: 2px;"/></g><path class="xlines-below"/><path class="ylines-below"/><g class="overlines-below"/><g class="xaxislayer-below"/><g class="yaxislayer-below"/><g class="overaxes-below"/><g class="plot" transform="translate(40,46)" clip-path="url(#clip88bc72xyplot)"><g class="scatterlayer mlayer"><g class="trace scatter trace556bfde3-3c12-4abb-80d5-645239f3b9c6" style="stroke-miterlimit: 2; opacity: 1;"><g class="fills"/><g class="errorbars"/><g class="lines"><path class="js-line" d="M33.38,45.44L37.55,53.16L41.72,65.66L45.89,111.33L50.07,114.98L54.24,85.29L58.41,86.04L62.58,92.2L66.75,114.43L70.93,96.85L75.1,124.63L79.27,141.06L83.44,170.24L87.62,196.93L91.79,236.31L95.96,260.3L100.13,249.96L104.3,192.18L108.48,172.31L112.65,154.22L116.82,183.19L120.99,188.53L125.17,208.71L129.34,198.5L133.51,141.92L137.68,79.4L141.85,54.22L150.2,32.5L154.37,13.7L158.54,25.53L162.72,32.19L166.89,58.8L171.06,67.52L175.23,75.64L179.4,54.59L183.58,57.55L187.75,49.92L191.92,51.26L196.09,51.19L200.26,46.89L204.44,67.21L208.61,77.81L212.78,113.49L216.95,129.06L221.13,129.6L225.3,117.68L229.47,91.66L233.64,140.16L237.81,155.03L241.99,146.61L246.16,63.52L250.33,29.02L254.5,31.48L258.68,35.91L262.85,45.62L267.02,58.8L271.19,115.54L275.36,172.13L279.54,198.54L283.71,139.32L287.88,66.45L292.05,15.75L296.23,13.79L300.4,20.35L304.57,31.86L308.74,79.73L312.91,154.52L317.09,224.97L321.26,247.38L325.43,233.67L329.6,211.3L333.77,179.19L337.95,112.71L342.12,53.12L346.29,62.91L350.46,107.7L354.64,174.84L362.98,240.99L367.15,222.55L371.32,198.71L375.5,159.2L379.67,134.82L383.84,91.28L388.01,99.36L392.19,147.23L396.36,177.96L400.53,138.57L404.7,71.44L408.87,41.79L413.05,105.54L417.22,156.93L421.39,194.17L425.56,157.5L429.74,125.03L433.91,101.18L438.08,94.8L442.25,113.65L446.42,104.24L450.6,137.57L454.77,99.18L458.94,103.66L463.11,95.03L467.28,90.59L471.46,67.12L475.63,24.08L479.8,52.88L483.97,107L488.15,163.61L492.32,191.18L496.49,217.79L500.66,217.13L504.83,214.62L509.01,186.4L513.18,170.39L517.35,143.07L521.52,158.86L525.7,188.71L529.87,233.26L534.04,227.23L538.21,200.13L542.38,183.63L546.56,201.97L550.73,216.39L554.9,212.83L559.07,182.92L567.42,102.87L571.59,61.99L575.76,46.06L579.93,53.71L584.11,86.74L588.28,105.99L592.45,84.17L596.62,75.35L600.79,82.37L604.97,139.77L609.14,175.54L613.31,184.46L617.48,145.22L621.66,74.66L625.83,48.49L630,64.44" style="vector-effect: none; fill: none; stroke: rgb(31, 119, 180); stroke-opacity: 1; stroke-dasharray: 9px, 9px; stroke-width: 2px; opacity: 1;"/></g><g class="points"/><g class="text"/></g><g class="trace scatter tracea4f2fcba-f551-4f15-8dc8-2ce54575b604" style="stroke-miterlimit: 2; opacity: 1;"><g class="fills"/><g class="errorbars"/><g class="lines"><path class="js-line" d="M33.38,106.95L37.55,71.37L41.72,54.76L50.07,97.32L54.24,103.87L62.58,87.84L66.75,97.56L70.93,101.16L75.1,111.97L79.27,120.84L83.44,145.31L87.62,169.41L91.79,201.16L95.96,231.18L100.13,248.85L104.3,234.14L108.48,204.82L112.65,172.9L116.82,169.91L120.99,175.31L125.17,193.47L129.34,198.58L133.51,183.04L141.85,91.85L146.03,58.97L154.37,29.83L158.54,23.91L162.72,23.81L166.89,38.84L175.23,67.32L179.4,65.91L183.58,62.59L187.75,54.02L191.92,52.91L196.09,50.79L200.26,49.78L204.44,55.1L208.61,63.97L212.78,86.17L221.13,124.05L225.3,125.44L229.47,112.98L233.64,116.5L237.81,128.95L241.99,147.27L246.16,121.72L250.33,79.72L254.5,41.34L258.68,32.14L262.85,37.67L267.02,46.78L271.19,73.32L275.36,115.49L279.54,162.07L283.71,170L287.88,134.77L292.05,73.84L296.23,32L300.4,16.63L304.57,22L308.74,43.98L312.91,88.71L317.09,153.08L321.26,208.96L325.43,235.34L329.6,230.78L333.77,208.05L337.95,167.73L342.12,115L346.29,76.25L350.46,74.58L354.64,115.15L358.81,164.31L362.98,208.74L367.15,224.65L371.32,220.75L375.5,193.48L379.67,164.24L383.84,128.43L388.01,108.48L392.19,112.62L396.36,141.52L400.53,154.59L404.7,129.32L408.87,83.93L413.05,72.92L417.22,101.42L421.39,152.22L425.56,169.54L429.74,158.9L433.91,127.91L438.08,107.01L442.25,103.21L446.42,104.23L450.6,118.49L454.77,113.66L458.94,113.47L463.11,99.29L467.28,96.43L471.46,84.25L475.63,60.6L479.8,48.03L483.97,61.32L492.32,153.93L496.49,190.86L500.66,208.7L504.83,216.51L509.01,206.05L513.18,190.47L517.35,166.62L521.52,157.44L525.7,163.55L529.87,193.61L534.04,216.4L538.21,220.21L542.38,203.66L546.56,195.24L550.73,200.66L554.9,210.4L559.07,204.05L563.25,178.5L575.76,70.31L579.93,53.92L584.11,62.17L588.28,82.15L592.45,92.3L596.62,88.51L600.79,80.63L604.97,99.16L613.31,166.59L617.48,168.41L621.66,134.78L625.83,89.46L630,62.53" style="vector-effect: none; fill: none; stroke: rgb(255, 127, 14); stroke-opacity: 1; stroke-dasharray: 9px, 9px; stroke-width: 2px; opacity: 1;"/></g><g class="points"/><g class="text"/></g></g></g><g class="overplot"/><path class="xlines-above crisp" d="M0,0" style="fill: none;"/><path class="ylines-above crisp" d="M0,0" style="fill: none;"/><g class="overlines-above"/><g class="xaxislayer-above"><g class="xtick"><text text-anchor="middle" x="0" y="333" transform="translate(40,0)" style="font-family: 'Open Sans', verdana, arial, sans-serif; font-size: 12px; fill: rgb(214, 223, 239); fill-opacity: 1; white-space: pre; opacity: 1;">Jan 2020</text></g><g class="xtick"><text text-anchor="middle" x="0" y="333" style="font-family: 'Open Sans', verdana, arial, sans-serif; font-size: 12px; fill: rgb(214, 223, 239); fill-opacity: 1; white-space: pre; opacity: 1;" transform="translate(169.34,0)">Feb 2020</text></g><g class="xtick"><text text-anchor="middle" x="0" y="333" style="font-family: 'Open Sans', verdana, arial, sans-serif; font-size: 12px; fill: rgb(214, 223, 239); fill-opacity: 1; white-space: pre; opacity: 1;" transform="translate(290.33000000000004,0)">Mar 2020</text></g><g class="xtick"><text text-anchor="middle" x="0" y="333" style="font-family: 'Open Sans', verdana, arial, sans-serif; font-size: 12px; fill: rgb(214, 223, 239); fill-opacity: 1; white-space: pre; opacity: 1;" transform="translate(419.67,0)">Apr 2020</text></g><g class="xtick"><text text-anchor="middle" x="0" y="333" style="font-family: 'Open Sans', verdana, arial, sans-serif; font-size: 12px; fill: rgb(214, 223, 239); fill-opacity: 1; white-space: pre; opacity: 1;" transform="translate(544.8299999999999,0)">May 2020</text></g></g><g class="yaxislayer-above"><g class="ytick"><text text-anchor="end" x="39" y="4.199999999999999" transform="translate(0,308.19)" style="font-family: 'Open Sans', verdana, arial, sans-serif; font-size: 12px; fill: rgb(214, 223, 239); fill-opacity: 1; white-space: pre; opacity: 1;">0</text></g><g class="ytick"><text text-anchor="end" x="39" y="4.199999999999999" style="font-family: 'Open Sans', verdana, arial, sans-serif; font-size: 12px; fill: rgb(214, 223, 239); fill-opacity: 1; white-space: pre; opacity: 1;" transform="translate(0,258.07)">20</text></g><g class="ytick"><text text-anchor="end" x="39" y="4.199999999999999" style="font-family: 'Open Sans', verdana, arial, sans-serif; font-size: 12px; fill: rgb(214, 223, 239); fill-opacity: 1; white-space: pre; opacity: 1;" transform="translate(0,207.96)">40</text></g><g class="ytick"><text text-anchor="end" x="39" y="4.199999999999999" style="font-family: 'Open Sans', verdana, arial, sans-serif; font-size: 12px; fill: rgb(214, 223, 239); fill-opacity: 1; white-space: pre; opacity: 1;" transform="translate(0,157.85)">60</text></g><g class="ytick"><text text-anchor="end" x="39" y="4.199999999999999" style="font-family: 'Open Sans', verdana, arial, sans-serif; font-size: 12px; fill: rgb(214, 223, 239); fill-opacity: 1; white-space: pre; opacity: 1;" transform="translate(0,107.72999999999999)">80</text></g><g class="ytick"><text text-anchor="end" x="39" y="4.199999999999999" style="font-family: 'Open Sans', verdana, arial, sans-serif; font-size: 12px; fill: rgb(214, 223, 239); fill-opacity: 1; white-space: pre; opacity: 1;" transform="translate(0,57.62)">100</text></g></g><g class="overaxes-above"/></g></g><g class="polarlayer"/><g class="smithlayer"/><g class="ternarylayer"/><g class="geolayer"/><g class="funnelarealayer"/><g class="pielayer"/><g class="iciclelayer"/><g class="treemaplayer"/><g class="sunburstlayer"/><g class="glimages"/><defs id="topdefs-88bc72"><g class="clips"/><clipPath id="legend88bc72"><rect width="158" height="29" x="0" y="0"/></clipPath></defs><g class="layer-above"><g class="imagelayer"/><g class="shapelayer"/></g><g class="infolayer"><g class="legend" pointer-events="all" transform="translate(512,11.519999999999996)"><rect class="bg" shape-rendering="crispEdges" style="stroke: rgb(68, 68, 68); stroke-opacity: 1; fill: rgb(33, 34, 38); fill-opacity: 1; stroke-width: 0px;" width="158" height="29" x="0" y="0"/><g class="scrollbox" transform="" clip-path="url(#legend88bc72)"><g class="groups"><g class="traces" transform="translate(0,14.5)" style="opacity: 1;"><text class="legendtext" text-anchor="start" x="40" y="4.680000000000001" style="font-family: 'Open Sans', verdana, arial, sans-serif; font-size: 12px; fill: rgb(214, 223, 239); fill-opacity: 1; white-space: pre;">slowk</text><g class="layers" style="opacity: 1;"><g class="legendfill"/><g class="legendlines"><path class="js-line" d="M5,0h30" style="fill: none; stroke: rgb(31, 119, 180); stroke-opacity: 1; stroke-dasharray: 9px, 9px; stroke-width: 2px;"/></g><g class="legendsymbols"><g class="legendpoints"/></g></g><rect class="legendtoggle" x="0" y="-9.5" width="76.25" height="19" style="fill: rgb(0, 0, 0); fill-opacity: 0;"/></g><g class="traces" transform="translate(78.75,14.5)" style="opacity: 1;"><text class="legendtext" text-anchor="start" x="40" y="4.680000000000001" style="font-family: 'Open Sans', verdana, arial, sans-serif; font-size: 12px; fill: rgb(214, 223, 239); fill-opacity: 1; white-space: pre;">slowd</text><g class="layers" style="opacity: 1;"><g class="legendfill"/><g class="legendlines"><path class="js-line" d="M5,0h30" style="fill: none; stroke: rgb(255, 127, 14); stroke-opacity: 1; stroke-dasharray: 9px, 9px; stroke-width: 2px;"/></g><g class="legendsymbols"><g class="legendpoints"/></g></g><rect class="legendtoggle" x="0" y="-9.5" width="76.625" height="19" style="fill: rgb(0, 0, 0); fill-opacity: 0;"/></g></g></g><rect class="scrollbar" rx="20" ry="3" width="0" height="0" style="fill: rgb(128, 139, 164); fill-opacity: 1;" x="0" y="0"/></g><g class="g-gtitle"/><g class="g-xtitle"/><g class="g-ytitle"/></g></svg>