<svg class="main-svg" xmlns="http://www.w3.org/2000/svg" xmlns:xlink="http://www.w3.org/1999/xlink" width="700" height="350" style="" viewBox="0 0 700 350"><rect x="0" y="0" width="700" height="350" style="fill: rgb(33, 34, 38); fill-opacity: 1;"/><defs id="defs-7bdcf5"><g class="clips"><clipPath id="clip7bdcf5xyplot" class="plotclip"><rect width="629" height="274"/></clipPath><clipPath class="axesclip" id="clip7bdcf5x"><rect x="41" y="0" width="629" height="350"/></clipPath><clipPath class="axesclip" id="clip7bdcf5y"><rect x="0" y="46" width="700" height="274"/></clipPath><clipPath class="axesclip" id="clip7bdcf5xy"><rect x="41" y="46" width="629" height="274"/></clipPath></g><g class="gradients"/><g class="patterns"/></defs><g class="bglayer"/><g class="layer-below"><g class="imagelayer"/><g class="shapelayer"/></g><g class="cartesianlayer"><g class="subplot xy"><g class="layer-subplot"><g class="shapelayer"/><g class="imagelayer"/></g><g class="minor-gridlayer"><g class="x"/><g class="y"/></g><g class="gridlayer"><g class="x"><path class="xgrid crisp" transform="translate(147.55,0)" d="M0,46v274" style="stroke: rgb(49, 52, 57); stroke-opacity: 1; stroke-width: 1px;"/><path class="xgrid crisp" transform="translate(250.67,0)" d="M0,46v274" style="stroke: rgb(49, 52, 57); stroke-opacity: 1; stroke-width: 1px;"/><path class="xgrid crisp" transform="translate(357.22,0)" d="M0,46v274" style="stroke: rgb(49, 52, 57); stroke-opacity: 1; stroke-width: 1px;"/><path class="xgrid crisp" transform="translate(460.33,0)" d="M0,46v274" style="stroke: rgb(49, 52, 57); stroke-opacity: 1; stroke-width: 1px;"/><path class="xgrid crisp" transform="translate(566.89,0)" d="M0,46v274" style="stroke: rgb(49, 52, 57); stroke-opacity: 1; stroke-width: 1px;"/></g><g class="y"><path class="ygrid crisp" transform="translate(0,280.03)" d="M41,0h629" style="stroke: rgb(49, 52, 57); stroke-opacity: 1; stroke-width: 1px;"/><path class="ygrid crisp" transform="translate(0,243.92)" d="M41,0h629" style="stroke: rgb(49, 52, 57); stroke-opacity: 1; stroke-width: 1px;"/><path class="ygrid crisp" transform="translate(0,207.8)" d="M41,0h629" style="stroke: rgb(49, 52, 57); stroke-opacity: 1; stroke-width: 1px;"/><path class="ygrid crisp" transform="translate(0,171.68)" d="M41,0h629" style="stroke: rgb(49, 52, 57); stroke-opacity: 1; stroke-width: 1px;"/><path class="ygrid crisp" transform="translate(0,135.56)" d="M41,0h629" style="stroke: rgb(49, 52, 57); stroke-opacity: 1; stroke-width: 1px;"/><path class="ygrid crisp" transform="translate(0,99.45)" d="M41,0h629" style="stroke: rgb(49, 52, 57); stroke-opacity: 1; stroke-width: 1px;"/><path class="ygrid crisp" transform="translate(0,63.33)" d="M41,0h629" style="stroke: rgb(49, 52, 57); stroke-opacity: 1; stroke-width: 1px;"/></g></g><g class="zerolinelayer"><path class="yzl zl crisp" transform="translate(0,316.15)" d="M41,0h629" style="stroke: rgb(49, 52, 57); stroke-opacity: 1; stroke-width: 2px;"/></g><path class="xlines-below"/><path class="ylines-below"/><g class="overlines-below"/><g class="xaxislayer-below"/><g class="yaxislayer-below"/><g class="overaxes-below"/><g class="plot" transform="translate(41,46)" clip-path="url(#clip7bdcf5xyplot)"><g class="scatterlayer mlayer"><g class="trace scatter trace5a51fcd5-2d5c-4322-b899-3f4c8df1517e" style="stroke-miterlimit: 2; opacity: 1;"><g class="fills"/><g class="errorbars"/><g class="lines"><path class="js-line" d="M48.12,224.39L51.56,184.79L54.99,189.63L58.43,188.13L61.87,189.24L65.31,191.75L68.74,200.03L79.05,208.34L82.49,216.04L85.93,218.7L89.37,182.89L92.8,185.14L96.24,185.17L99.68,142.26L103.11,144.67L106.55,134.46L109.99,35.8L113.43,13.7L116.86,41.68L120.3,56.54L123.74,52.13L127.17,65.87L130.61,68L134.05,79.56L137.49,77.72L140.92,104.77L144.36,115.04L147.8,115.73L151.23,115.55L154.67,127.4L158.11,132.21L164.98,126.58L168.42,133.87L171.86,134.21L175.3,141.49L178.73,139.22L182.17,117.41L185.61,132.22L189.04,153.69L192.48,163.88L195.92,167.49L199.36,168.25L202.79,172.82L206.23,170.33L209.67,164.03L213.1,152.03L216.54,116.42L219.98,129.15L223.42,136.93L226.85,145.7L230.29,130.31L233.73,141.52L237.16,123.3L240.6,103.08L244.04,53.05L247.48,76.48L250.91,82.16L254.35,87.84L257.79,99.81L264.66,143.53L268.1,148.12L271.54,119.36L274.97,132.25L278.41,137.38L281.85,146.04L285.28,154.76L288.72,148.73L292.16,152.1L295.6,132.34L299.03,124.15L302.47,128.77L305.91,136.02L309.34,154.44L312.78,162.79L316.22,163.05L319.66,155.58L323.09,166.84L326.53,178.47L329.97,182.31L333.4,188.12L336.84,180.73L340.28,184.75L343.72,191.03L350.59,197.49L354.03,190.37L357.46,185.72L360.9,166.72L364.34,161.1L367.78,139.19L371.21,144.25L374.65,152.44L378.09,157.7L381.52,144.87L384.96,122.36L388.4,87.54L395.27,114.55L398.71,93.48L402.15,49.17L405.58,108.83L409.02,130.83L412.46,141.89L415.9,156.76L419.33,167.18L422.77,176.87L426.21,155.49L429.64,162L433.08,166.58L436.52,165.35L439.96,168.9L443.39,152.34L446.83,144.26L450.27,159.12L453.7,168.22L460.58,181.78L464.02,190.41L467.45,197.12L470.89,205.64L474.33,209.58L477.77,195.02L481.2,197.83L484.64,191.81L494.95,200.76L498.39,202.62L501.83,196.67L505.26,198.12L508.7,203.54L512.14,205.77L515.57,203.05L519.01,205.07L525.89,182.21L529.32,176.02L532.76,168.28L536.2,170.44L539.63,143.01L543.07,141.65L546.51,150.61L549.95,156.6L553.38,160.25L556.82,168.26L563.69,174.35L567.13,181.87L570.57,191.62L574.01,199.05L577.44,201.04L580.88,204.22L584.32,205.75L587.75,190.83L591.19,192.8L594.63,201.03L598.07,204.64L601.5,197.74L604.94,202L608.38,204.81L611.81,197.75L615.25,200.86L618.69,206.5L622.13,209.66L625.56,211.78L629,212.12" style="vector-effect: none; fill: none; stroke: rgb(220, 57, 18); stroke-opacity: 1; stroke-dasharray: 3px, 3px; stroke-width: 2px; opacity: 1;"/></g><g class="points"/><g class="text"/></g><g class="trace scatter trace49ba1ba6-c84a-4223-bbfb-5e144fe63b5f" style="stroke-miterlimit: 2; opacity: 1;"><g class="fills"/><g class="errorbars"/><g class="lines"><path class="js-line" d="M48.12,219.77L51.56,226.61L54.99,229.08L65.31,237.21L68.74,229.95L72.18,231.49L75.62,230.63L79.05,227.9L82.49,202.17L85.93,205.51L89.37,213.61L92.8,217.19L96.24,221.95L99.68,232.98L103.11,233.68L106.55,236.16L109.99,251.35L113.43,255.41L116.86,250.09L137.49,258.12L140.92,233.28L144.36,226.22L147.8,227.49L151.23,229.97L154.67,228.32L158.11,231.7L161.55,232.68L164.98,233.93L168.42,232.72L171.86,233.92L175.3,228.6L178.73,231.68L182.17,236.31L185.61,239.9L189.04,207.69L192.48,212.55L195.92,214.51L199.36,216.31L202.79,212.03L206.23,215.88L209.67,217.76L213.1,221.11L216.54,229.33L219.98,233.58L223.42,235.6L226.85,229.21L230.29,233.51L240.6,242.67L244.04,250.67L250.91,258.2L254.35,259.61L257.79,260.3L261.22,249.4L264.66,208.17L268.1,210.42L271.54,220.29L274.97,224.56L278.41,226.25L281.85,215.08L285.28,213.83L288.72,216.93L292.16,218.41L295.6,225.15L299.03,227.04L302.47,226.15L309.34,208.77L312.78,210.14L316.22,211.72L319.66,214.44L323.09,196.41L326.53,164.47L329.97,168.9L333.4,169.25L336.84,175.48L340.28,179.73L343.72,169.17L347.15,177.49L357.46,191.25L360.9,199.18L364.34,202.53L367.78,209.22L374.65,217.77L378.09,220.11L381.52,223.64L384.96,228.99L388.4,236.14L391.84,239.86L395.27,242.05L398.71,245.37L402.15,251.53L405.58,212.85L409.02,220.66L412.46,224.59L419.33,192.93L422.77,190.03L426.21,197.36L429.64,202.18L433.08,196.49L436.52,200.42L439.96,202.78L443.39,208.26L446.83,211.22L450.27,202.48L453.7,191.64L457.14,196.38L460.58,193.99L464.02,181.88L467.45,182.36L470.89,177.8L474.33,175.59L477.77,185.08L484.64,192.1L488.08,193.16L491.51,189.25L494.95,183.99L498.39,177.44L501.83,180.78L505.26,180.53L508.7,176.26L512.14,173.45L515.57,175.65L519.01,177.03L522.45,182.28L525.89,187.67L529.32,190.54L536.2,198.61L539.63,206.7L543.07,213.9L546.51,217.82L549.95,220.44L553.38,222.04L556.82,208.39L560.26,207.07L563.69,208.82L567.13,190.07L570.57,162.02L574.01,156.43L577.44,165.77L580.88,170.58L584.32,175.32L587.75,182.67L591.19,186.47L594.63,165.19L598.07,164.5L601.5,169.63L604.94,170.87L608.38,174.96L611.81,180.18L615.25,181.99L622.13,159L625.56,162.89L629,165.35" style="vector-effect: none; fill: none; stroke: rgb(44, 160, 44); stroke-opacity: 1; stroke-dasharray: 3px, 3px; stroke-width: 2px; opacity: 1;"/></g><g class="points"/><g class="text"/></g><g class="trace scatter traced2f263d3-9a80-4e66-847b-57fc624b2084" style="stroke-miterlimit: 2; opacity: 1;"><g class="fills"/><g class="errorbars"/><g class="lines"><path class="js-line" d="M92.8,208.35L96.24,205.64L99.68,196.07L106.55,177.64L109.99,162.29L116.86,134.16L120.3,122.24L130.61,89.68L134.05,80.16L137.49,70.97L140.92,68.81L147.8,68.53L151.23,67.78L158.11,68.01L161.55,67.52L164.98,66.59L168.42,66.45L171.86,66.06L175.3,67.44L178.73,67.84L182.17,65.85L185.61,63.92L189.04,70.87L195.92,83.54L199.36,88.91L202.79,95.35L206.23,100.21L209.67,103.6L213.1,104.84L223.42,95.62L226.85,95.06L233.73,90.07L237.16,86.09L240.6,80.72L244.04,72.7L257.79,41.93L261.22,38.69L268.1,53.52L271.54,56.02L278.41,60.49L281.85,65.52L285.28,71.26L288.72,75.4L292.16,79.23L295.6,79.77L302.47,79.41L305.91,81.66L316.22,98.05L319.66,101.43L323.09,109.17L326.53,118.84L336.84,144.22L340.28,152.48L350.59,168.43L354.03,175.25L357.46,181.16L360.9,182.71L364.34,182.91L367.78,179.73L378.09,170.1L381.52,165.42L384.96,158.34L388.4,148.63L398.71,121.34L402.15,110.18L412.46,107.81L415.9,111.82L422.77,128.25L426.21,132.62L429.64,136.56L433.08,141.75L439.96,149.44L443.39,150.03L446.83,149.26L450.27,151.64L460.58,167.35L464.02,173.39L467.45,177.93L470.89,179.94L474.33,180.73L477.77,185.51L484.64,195.64L488.08,200.7L491.51,204.21L494.95,206.14L498.39,206.66L501.83,208.68L505.26,210.26L508.7,210.15L512.14,209.26L515.57,209.24L519.01,209.01L522.45,211.75L525.89,215.1L529.32,216.87L536.2,216.37L539.63,211.59L549.95,195.11L553.38,190.38L560.26,189.86L563.69,189.94L567.13,194.41L570.57,195.73L577.44,195.21L580.88,195.32L584.32,195.73L587.75,199.79L591.19,203.8L594.63,203.23L598.07,201.96L601.5,202.63L608.38,202.68L611.81,204.71L615.25,206.29L618.69,205.08L629,197" style="vector-effect: none; fill: none; stroke: rgb(108, 166, 205); stroke-opacity: 1; stroke-width: 2px; opacity: 1;"/></g><g class="points"/><g class="text"/></g></g></g><g class="overplot"/><path class="xlines-above crisp" d="M0,0" style="fill: none;"/><path class="ylines-above crisp" d="M0,0" style="fill: none;"/><g class="overlines-above"/><g class="xaxislayer-above"><g class="xtick"><text text-anchor="middle" x="0" y="333" transform="translate(41,0)" style="font-family: 'Open Sans', verdana, arial, sans-serif; font-size: 12px; fill: rgb(214, 223, 239); fill-opacity: 1; white-space: pre; opacity: 1;">Mar 2019</text></g><g class="xtick"><text text-anchor="middle" x="0" y="333" style="font-family: 'Open Sans', verdana, arial, sans-serif; font-size: 12px; fill: rgb(214, 223, 239); fill-opacity: 1; white-space: pre; opacity: 1;" transform="translate(147.55,0)">Apr 2019</text></g><g class="xtick"><text text-anchor="middle" x="0" y="333" style="font-family: 'Open Sans', verdana, arial, sans-serif; font-size: 12px; fill: rgb(214, 223, 239); fill-opacity: 1; white-space: pre; opacity: 1;" transform="translate(250.67,0)">May 2019</text></g><g class="xtick"><text text-anchor="middle" x="0" y="333" style="font-family: 'Open Sans', verdana, arial, sans-serif; font-size: 12px; fill: rgb(214, 223, 239); fill-opacity: 1; white-space: pre; opacity: 1;" transform="translate(357.22,0)">Jun 2019</text></g><g class="xtick"><text text-anchor="middle" x="0" y="333" style="font-family: 'Open Sans', verdana, arial, sans-serif; font-size: 12px; fill: rgb(214, 223, 239); fill-opacity: 1; white-space: pre; opacity: 1;" transform="translate(460.33,0)">Jul 2019</text></g><g class="xtick"><text text-anchor="middle" x="0" y="333" style="font-family: 'Open Sans', verdana, arial, sans-serif; font-size: 12px; fill: rgb(214, 223, 239); fill-opacity: 1; white-space: pre; opacity: 1;" transform="translate(566.89,0)">Aug 2019</text></g></g><g class="yaxislayer-above"><g class="ytick"><text text-anchor="end" x="40" y="4.199999999999999" transform="translate(0,316.15)" style="font-family: 'Open Sans', verdana, arial, sans-serif; font-size: 12px; fill: rgb(214, 223, 239); fill-opacity: 1; white-space: pre; opacity: 1;">0</text></g><g class="ytick"><text text-anchor="end" x="40" y="4.199999999999999" style="font-family: 'Open Sans', verdana, arial, sans-serif; font-size: 12px; fill: rgb(214, 223, 239); fill-opacity: 1; white-space: pre; opacity: 1;" transform="translate(0,280.03)">10</text></g><g class="ytick"><text text-anchor="end" x="40" y="4.199999999999999" style="font-family: 'Open Sans', verdana, arial, sans-serif; font-size: 12px; fill: rgb(214, 223, 239); fill-opacity: 1; white-space: pre; opacity: 1;" transform="translate(0,243.92)">20</text></g><g class="ytick"><text text-anchor="end" x="40" y="4.199999999999999" style="font-family: 'Open Sans', verdana, arial, sans-serif; font-size: 12px; fill: rgb(214, 223, 239); fill-opacity: 1; white-space: pre; opacity: 1;" transform="translate(0,207.8)">30</text></g><g class="ytick"><text text-anchor="end" x="40" y="4.199999999999999" style="font-family: 'Open Sans', verdana, arial, sans-serif; font-size: 12px; fill: rgb(214, 223, 239); fill-opacity: 1; white-space: pre; opacity: 1;" transform="translate(0,171.68)">40</text></g><g class="ytick"><text text-anchor="end" x="40" y="4.199999999999999" style="font-family: 'Open Sans', verdana, arial, sans-serif; font-size: 12px; fill: rgb(214, 223, 239); fill-opacity: 1; white-space: pre; opacity: 1;" transform="translate(0,135.56)">50</text></g><g class="ytick"><text text-anchor="end" x="40" y="4.199999999999999" style="font-family: 'Open Sans', verdana, arial, sans-serif; font-size: 12px; fill: rgb(214, 223, 239); fill-opacity: 1; white-space: pre; opacity: 1;" transform="translate(0,99.45)">60</text></g><g class="ytick"><text text-anchor="end" x="40" y="4.199999999999999" style="font-family: 'Open Sans', verdana, arial, sans-serif; font-size: 12px; fill: rgb(214, 223, 239); fill-opacity: 1; white-space: pre; opacity: 1;" transform="translate(0,63.33)">70</text></g></g><g class="overaxes-above"/></g></g><g class="polarlayer"/><g class="smithlayer"/><g class="ternarylayer"/><g class="geolayer"/><g class="funnelarealayer"/><g class="pielayer"/><g class="iciclelayer"/><g class="treemaplayer"/><g class="sunburstlayer"/><g class="glimages"/><defs id="topdefs-7bdcf5"><g class="clips"/><clipPath id="legend7bdcf5"><rect width="205" height="29" x="0" y="0"/></clipPath></defs><g class="layer-above"><g class="imagelayer"/><g class="shapelayer"/></g><g class="infolayer"><g class="legend" pointer-events="all" transform="translate(465,11.519999999999996)"><rect class="bg" shape-rendering="crispEdges" style="stroke: rgb(68, 68, 68); stroke-opacity: 1; fill: rgb(33, 34, 38); fill-opacity: 1; stroke-width: 0px;" width="205" height="29" x="0" y="0"/><g class="scrollbox" transform="" clip-path="url(#legend7bdcf5)"><g class="groups"><g class="traces" transform="translate(0,14.5)" style="opacity: 1;"><text class="legendtext" text-anchor="start" x="40" y="4.680000000000001" style="font-family: 'Open Sans', verdana, arial, sans-serif; font-size: 12px; fill: rgb(214, 223, 239); fill-opacity: 1; white-space: pre;">-DI</text><g class="layers" style="opacity: 1;"><g class="legendfill"/><g class="legendlines"><path class="js-line" d="M5,0h30" style="fill: none; stroke: rgb(220, 57, 18); stroke-opacity: 1; stroke-dasharray: 3px, 3px; stroke-width: 2px;"/></g><g class="legendsymbols"><g class="legendpoints"/></g></g><rect class="legendtoggle" x="0" y="-9.5" width="62.25" height="19" style="fill: rgb(0, 0, 0); fill-opacity: 0;"/></g><g class="traces" transform="translate(64.75,14.5)" style="opacity: 1;"><text class="legendtext" text-anchor="start" x="40" y="4.680000000000001" style="font-family: 'Open Sans', verdana, arial, sans-serif; font-size: 12px; fill: rgb(214, 223, 239); fill-opacity: 1; white-space: pre;">+DI</text><g class="layers" style="opacity: 1;"><g class="legendfill"/><g class="legendlines"><path class="js-line" d="M5,0h30" style="fill: none; stroke: rgb(44, 160, 44); stroke-opacity: 1; stroke-dasharray: 3px, 3px; stroke-width: 2px;"/></g><g class="legendsymbols"><g class="legendpoints"/></g></g><rect class="legendtoggle" x="0" y="-9.5" width="66.625" height="19" style="fill: rgb(0, 0, 0); fill-opacity: 0;"/></g><g class="traces" transform="translate(133.875,14.5)" style="opacity: 1;"><text class="legendtext" text-anchor="start" x="40" y="4.680000000000001" style="font-family: 'Open Sans', verdana, arial, sans-serif; font-size: 12px; fill: rgb(214, 223, 239); fill-opacity: 1; white-space: pre;">ADX</text><g class="layers" style="opacity: 1;"><g class="legendfill"/><g class="legendlines"><path class="js-line" d="M5,0h30" style="fill: none; stroke: rgb(108, 166, 205); stroke-opacity: 1; stroke-width: 2px;"/></g><g class="legendsymbols"><g class="legendpoints"/></g></g><rect class="legendtoggle" x="0" y="-9.5" width="68.171875" height="19" style="fill: rgb(0, 0, 0); fill-opacity: 0;"/></g></g></g><rect class="scrollbar" rx="20" ry="3" width="0" height="0" style="fill: rgb(128, 139, 164); fill-opacity: 1;" x="0" y="0"/></g><g class="g-gtitle"/><g class="g-xtitle"/><g class="g-ytitle"/></g></svg>