<svg class="main-svg" xmlns="http://www.w3.org/2000/svg" xmlns:xlink="http://www.w3.org/1999/xlink" width="700" height="350" style="" viewBox="0 0 700 350"><rect x="0" y="0" width="700" height="350" style="fill: rgb(33, 34, 38); fill-opacity: 1;"/><defs id="defs-d62570"><g class="clips"><clipPath id="clipd62570xyplot" class="plotclip"><rect width="626" height="274"/></clipPath><clipPath class="axesclip" id="clipd62570x"><rect x="44" y="0" width="626" height="350"/></clipPath><clipPath class="axesclip" id="clipd62570y"><rect x="0" y="46" width="700" height="274"/></clipPath><clipPath class="axesclip" id="clipd62570xy"><rect x="44" y="46" width="626" height="274"/></clipPath></g><g class="gradients"/><g class="patterns"/></defs><g class="bglayer"/><g class="layer-below"><g class="imagelayer"/><g class="shapelayer"/></g><g class="cartesianlayer"><g class="subplot xy"><g class="layer-subplot"><g class="shapelayer"/><g class="imagelayer"/></g><g class="minor-gridlayer"><g class="x"/><g class="y"/></g><g class="gridlayer"><g class="x"><path class="xgrid crisp" transform="translate(150.04000000000002,0)" d="M0,46v274" style="stroke: rgb(49, 52, 57); stroke-opacity: 1; stroke-width: 1px;"/><path class="xgrid crisp" transform="translate(252.67,0)" d="M0,46v274" style="stroke: rgb(49, 52, 57); stroke-opacity: 1; stroke-width: 1px;"/><path class="xgrid crisp" transform="translate(358.71,0)" d="M0,46v274" style="stroke: rgb(49, 52, 57); stroke-opacity: 1; stroke-width: 1px;"/><path class="xgrid crisp" transform="translate(461.33,0)" d="M0,46v274" style="stroke: rgb(49, 52, 57); stroke-opacity: 1; stroke-width: 1px;"/><path class="xgrid crisp" transform="translate(567.38,0)" d="M0,46v274" style="stroke: rgb(49, 52, 57); stroke-opacity: 1; stroke-width: 1px;"/></g><g class="y"><path class="ygrid crisp" transform="translate(0,263.94)" d="M44,0h626" style="stroke: rgb(49, 52, 57); stroke-opacity: 1; stroke-width: 1px;"/><path class="ygrid crisp" transform="translate(0,219.91)" d="M44,0h626" style="stroke: rgb(49, 52, 57); stroke-opacity: 1; stroke-width: 1px;"/><path class="ygrid crisp" transform="translate(0,175.88)" d="M44,0h626" style="stroke: rgb(49, 52, 57); stroke-opacity: 1; stroke-width: 1px;"/><path class="ygrid crisp" transform="translate(0,131.85)" d="M44,0h626" style="stroke: rgb(49, 52, 57); stroke-opacity: 1; stroke-width: 1px;"/><path class="ygrid crisp" transform="translate(0,87.82)" d="M44,0h626" style="stroke: rgb(49, 52, 57); stroke-opacity: 1; stroke-width: 1px;"/></g></g><g class="zerolinelayer"><path class="yzl zl crisp" transform="translate(0,307.97)" d="M44,0h626" style="stroke: rgb(49, 52, 57); stroke-opacity: 1; stroke-width: 2px;"/></g><path class="xlines-below"/><path class="ylines-below"/><g class="overlines-below"/><g class="xaxislayer-below"/><g class="yaxislayer-below"/><g class="overaxes-below"/><g class="plot" transform="translate(44,46)" clip-path="url(#clipd62570xyplot)"><g class="scatterlayer mlayer"><g class="trace scatter trace33af24b5-9fd0-49ae-b231-5aef383d063e" style="stroke-miterlimit: 2; opacity: 1;"><g class="fills"/><g class="errorbars"/><g class="lines"><path class="js-line" d="M3.42,258.23L6.84,258.57L10.26,250.2L13.68,247.99L17.1,257.74L20.52,257.98L23.95,255.34L27.37,253.61L30.79,258.29L34.21,255.17L37.63,256.39L41.05,258.91L44.47,257.99L47.89,257.16L51.31,251.74L54.73,257.76L58.15,256.47L64.99,256.83L68.42,253.85L71.84,259.12L75.26,258.98L78.68,258.93L82.1,252.74L85.52,258.42L88.94,252.35L92.36,257.16L95.78,254.97L99.2,240.58L102.62,260.3L106.04,255.97L109.46,195.87L112.89,224.07L116.31,242.03L119.73,250.16L123.15,243.16L126.57,245.7L129.99,246.94L133.41,251.18L136.83,241.86L140.25,232.3L143.67,248.98L147.09,256.2L150.51,250.48L153.93,246.77L157.36,245.79L160.78,257.12L164.2,255.85L167.62,252.87L171.04,256.45L177.88,249.43L181.3,240.45L184.72,242.26L188.14,230.19L194.98,255.18L198.4,255.75L201.83,253.62L205.25,249.72L208.67,255.77L212.09,250.69L215.51,228.88L218.93,240.71L222.35,250.89L225.77,248.82L229.19,240.23L232.61,244.77L236.03,244.29L239.45,237.92L242.87,177.67L246.3,201.37L249.72,160.77L253.14,211.57L256.56,234.02L259.98,209.9L263.4,183.5L266.82,244.73L270.24,174.44L273.66,215.98L277.08,242.7L280.5,228.36L283.92,225.81L287.34,234.12L290.77,248.59L294.19,194.79L297.61,240.97L301.03,246.79L304.45,237.92L307.87,192.66L311.29,225.5L314.71,249.28L318.13,240.12L321.55,214.47L324.97,205.04L328.39,241.43L331.81,229.75L335.23,232.22L338.66,240.9L342.08,227.38L345.5,222.76L348.92,239.64L352.34,232.53L355.76,242.2L359.18,215.54L362.6,240.77L366.02,216.06L369.44,224.32L372.86,231.72L376.28,241.78L379.7,230.09L383.13,207.41L386.55,169.48L389.97,201.2L393.39,221.86L396.81,192.95L400.23,82.25L403.65,13.7L407.07,127.17L410.49,182.8L413.91,140.5L417.33,163.59L420.75,158.56L424.17,159.25L431.02,216.11L434.44,205.39L437.86,227.38L441.28,178.09L444.7,213.9L448.12,137.05L451.54,174.12L454.96,198L458.38,179.76L461.8,154.83L465.22,168.56L468.64,125.6L472.07,191.52L475.49,142.2L478.91,219.05L482.33,209.36L485.75,222.14L489.17,218.21L492.59,221.18L496.01,236.03L499.43,228.48L502.85,244.48L506.27,195.41L509.69,233.5L513.11,243.59L516.54,238.68L519.96,219.03L523.38,215.74L526.8,236.7L530.22,222.93L533.64,227.72L537.06,179.69L540.48,175.4L543.9,208.84L550.74,239.01L554.16,209.86L557.58,237.72L561.01,243.72L564.43,210.04L567.85,185.56L574.69,203.07L578.11,229.74L581.53,229.56L584.95,208.88L588.37,233.08L591.79,188.35L595.21,226.61L598.63,229.89L602.05,223.6L605.48,235.92L608.9,227.97L612.32,236.07L615.74,212.41L619.16,232.45L626,249.51" style="vector-effect: none; fill: none; stroke: rgb(108, 166, 205); stroke-opacity: 1; stroke-width: 2px; opacity: 1;"/></g><g class="points"/><g class="text"/></g><g class="trace scatter traceae5fadfe-7994-4ac3-9de9-9bef2938717d" style="stroke-miterlimit: 2; opacity: 1;"><g class="fills"/><g class="errorbars"/><g class="lines"><path class="js-line" d="M47.89,256.96L54.73,256.67L58.15,256.66L95.78,256.42L99.2,255.29L106.04,255.67L109.46,251.4L112.89,249.45L116.31,248.92L123.15,248.59L126.57,248.38L136.83,248.01L140.25,246.89L160.78,248.34L164.2,248.88L177.88,249.88L181.3,249.21L184.72,248.71L188.14,247.39L191.56,247.13L194.98,247.71L208.67,249.24L212.09,249.34L215.51,247.88L218.93,247.37L225.77,247.71L229.19,247.17L239.45,246.17L242.87,241.28L246.3,238.43L249.72,232.88L253.14,231.36L256.56,231.55L259.98,230L263.4,226.68L266.82,227.97L270.24,224.15L273.66,223.56L277.08,224.93L287.34,225.86L290.77,227.48L294.19,225.14L297.61,226.28L304.45,228.47L307.87,225.91L311.29,225.88L314.71,227.55L318.13,228.45L321.55,227.45L324.97,225.85L328.39,226.96L335.23,227.52L338.66,228.48L345.5,228L348.92,228.83L355.76,230.03L359.18,228.99L362.6,229.84L366.02,228.85L372.86,228.76L376.28,229.69L379.7,229.72L383.13,228.12L386.55,223.93L389.97,222.31L393.39,222.28L396.81,220.18L400.23,210.33L403.65,196.29L407.07,191.35L410.49,190.74L413.91,187.15L417.33,185.47L424.17,181.81L427.6,182.25L431.02,184.67L434.44,186.15L437.86,189.1L441.28,188.31L444.7,190.14L448.12,186.35L451.54,185.47L454.96,186.37L458.38,185.9L461.8,183.68L465.22,182.6L468.64,178.53L472.07,179.45L475.49,176.79L482.33,181.92L485.75,184.8L492.59,189.61L496.01,192.93L499.43,195.47L502.85,198.97L506.27,198.71L509.69,201.2L516.54,206.69L519.96,207.57L523.38,208.15L526.8,210.19L533.64,212.29L537.06,209.96L540.48,207.49L543.9,207.59L547.32,208.81L550.74,210.97L554.16,210.89L557.58,212.8L561.01,215.01L564.43,214.66L571.27,211.31L574.69,210.72L581.53,213.33L584.95,213.01L588.37,214.45L591.79,212.58L612.32,218.96L615.74,218.49L622.58,221.09L626,223.12" style="vector-effect: none; fill: none; stroke: rgb(108, 118, 205); stroke-opacity: 1; stroke-width: 2px; opacity: 1;"/></g><g class="points"/><g class="text"/></g></g></g><g class="overplot"/><path class="xlines-above crisp" d="M0,0" style="fill: none;"/><path class="ylines-above crisp" d="M0,0" style="fill: none;"/><g class="overlines-above"/><g class="xaxislayer-above"><g class="xtick"><text text-anchor="middle" x="0" y="333" transform="translate(44,0)" style="font-family: 'Open Sans', verdana, arial, sans-serif; font-size: 12px; fill: rgb(214, 223, 239); fill-opacity: 1; white-space: pre; opacity: 1;">Mar 2019</text></g><g class="xtick"><text text-anchor="middle" x="0" y="333" style="font-family: 'Open Sans', verdana, arial, sans-serif; font-size: 12px; fill: rgb(214, 223, 239); fill-opacity: 1; white-space: pre; opacity: 1;" transform="translate(150.04000000000002,0)">Apr 2019</text></g><g class="xtick"><text text-anchor="middle" x="0" y="333" style="font-family: 'Open Sans', verdana, arial, sans-serif; font-size: 12px; fill: rgb(214, 223, 239); fill-opacity: 1; white-space: pre; opacity: 1;" transform="translate(252.67,0)">May 2019</text></g><g class="xtick"><text text-anchor="middle" x="0" y="333" style="font-family: 'Open Sans', verdana, arial, sans-serif; font-size: 12px; fill: rgb(214, 223, 239); fill-opacity: 1; white-space: pre; opacity: 1;" transform="translate(358.71,0)">Jun 2019</text></g><g class="xtick"><text text-anchor="middle" x="0" y="333" style="font-family: 'Open Sans', verdana, arial, sans-serif; font-size: 12px; fill: rgb(214, 223, 239); fill-opacity: 1; white-space: pre; opacity: 1;" transform="translate(461.33,0)">Jul 2019</text></g><g class="xtick"><text text-anchor="middle" x="0" y="333" style="font-family: 'Open Sans', verdana, arial, sans-serif; font-size: 12px; fill: rgb(214, 223, 239); fill-opacity: 1; white-space: pre; opacity: 1;" transform="translate(567.38,0)">Aug 2019</text></g></g><g class="yaxislayer-above"><g class="ytick"><text text-anchor="end" x="43" y="4.199999999999999" transform="translate(0,307.97)" style="font-family: 'Open Sans', verdana, arial, sans-serif; font-size: 12px; fill: rgb(214, 223, 239); fill-opacity: 1; white-space: pre; opacity: 1;">0</text></g><g class="ytick"><text text-anchor="end" x="43" y="4.199999999999999" style="font-family: 'Open Sans', verdana, arial, sans-serif; font-size: 12px; fill: rgb(214, 223, 239); fill-opacity: 1; white-space: pre; opacity: 1;" transform="translate(0,263.94)">500</text></g><g class="ytick"><text text-anchor="end" x="43" y="4.199999999999999" style="font-family: 'Open Sans', verdana, arial, sans-serif; font-size: 12px; fill: rgb(214, 223, 239); fill-opacity: 1; white-space: pre; opacity: 1;" transform="translate(0,219.91)">1000</text></g><g class="ytick"><text text-anchor="end" x="43" y="4.199999999999999" style="font-family: 'Open Sans', verdana, arial, sans-serif; font-size: 12px; fill: rgb(214, 223, 239); fill-opacity: 1; white-space: pre; opacity: 1;" transform="translate(0,175.88)">1500</text></g><g class="ytick"><text text-anchor="end" x="43" y="4.199999999999999" style="font-family: 'Open Sans', verdana, arial, sans-serif; font-size: 12px; fill: rgb(214, 223, 239); fill-opacity: 1; white-space: pre; opacity: 1;" transform="translate(0,131.85)">2000</text></g><g class="ytick"><text text-anchor="end" x="43" y="4.199999999999999" style="font-family: 'Open Sans', verdana, arial, sans-serif; font-size: 12px; fill: rgb(214, 223, 239); fill-opacity: 1; white-space: pre; opacity: 1;" transform="translate(0,87.82)">2500</text></g></g><g class="overaxes-above"/></g></g><g class="polarlayer"/><g class="smithlayer"/><g class="ternarylayer"/><g class="geolayer"/><g class="funnelarealayer"/><g class="pielayer"/><g class="iciclelayer"/><g class="treemaplayer"/><g class="sunburstlayer"/><g class="glimages"/><defs id="topdefs-d62570"><g class="clips"/><clipPath id="legendd62570"><rect width="130" height="29" x="0" y="0"/></clipPath></defs><g class="layer-above"><g class="imagelayer"/><g class="shapelayer"/></g><g class="infolayer"><g class="legend" pointer-events="all" transform="translate(540,11.519999999999996)"><rect class="bg" shape-rendering="crispEdges" style="stroke: rgb(68, 68, 68); stroke-opacity: 1; fill: rgb(33, 34, 38); fill-opacity: 1; stroke-width: 0px;" width="130" height="29" x="0" y="0"/><g class="scrollbox" transform="" clip-path="url(#legendd62570)"><g class="groups"><g class="traces" transform="translate(0,14.5)" style="opacity: 1;"><text class="legendtext" text-anchor="start" x="40" y="4.680000000000001" style="font-family: 'Open Sans', verdana, arial, sans-serif; font-size: 12px; fill: rgb(214, 223, 239); fill-opacity: 1; white-space: pre;">TR</text><g class="layers" style="opacity: 1;"><g class="legendfill"/><g class="legendlines"><path class="js-line" d="M5,0h30" style="fill: none; stroke: rgb(108, 166, 205); stroke-opacity: 1; stroke-width: 2px;"/></g><g class="legendsymbols"><g class="legendpoints"/></g></g><rect class="legendtoggle" x="0" y="-9.5" width="58.296875" height="19" style="fill: rgb(0, 0, 0); fill-opacity: 0;"/></g><g class="traces" transform="translate(60.796875,14.5)" style="opacity: 1;"><text class="legendtext" text-anchor="start" x="40" y="4.680000000000001" style="font-family: 'Open Sans', verdana, arial, sans-serif; font-size: 12px; fill: rgb(214, 223, 239); fill-opacity: 1; white-space: pre;">ATR</text><g class="layers" style="opacity: 1;"><g class="legendfill"/><g class="legendlines"><path class="js-line" d="M5,0h30" style="fill: none; stroke: rgb(108, 118, 205); stroke-opacity: 1; stroke-width: 2px;"/></g><g class="legendsymbols"><g class="legendpoints"/></g></g><rect class="legendtoggle" x="0" y="-9.5" width="66.5" height="19" style="fill: rgb(0, 0, 0); fill-opacity: 0;"/></g></g></g><rect class="scrollbar" rx="20" ry="3" width="0" height="0" style="fill: rgb(128, 139, 164); fill-opacity: 1;" x="0" y="0"/></g><g class="g-gtitle"/><g class="g-xtitle"/><g class="g-ytitle"/></g></svg>