<svg class="main-svg" xmlns="http://www.w3.org/2000/svg" xmlns:xlink="http://www.w3.org/1999/xlink" width="700" height="350" style="" viewBox="0 0 700 350"><rect x="0" y="0" width="700" height="350" style="fill: rgb(33, 34, 38); fill-opacity: 1;"/><defs id="defs-07df79"><g class="clips"><clipPath id="clip07df79xyplot" class="plotclip"><rect width="629" height="274"/></clipPath><clipPath class="axesclip" id="clip07df79x"><rect x="41" y="0" width="629" height="350"/></clipPath><clipPath class="axesclip" id="clip07df79y"><rect x="0" y="46" width="700" height="274"/></clipPath><clipPath class="axesclip" id="clip07df79xy"><rect x="41" y="46" width="629" height="274"/></clipPath></g><g class="gradients"/><g class="patterns"/></defs><g class="bglayer"/><g class="layer-below"><g class="imagelayer"/><g class="shapelayer"/></g><g class="cartesianlayer"><g class="subplot xy"><g class="layer-subplot"><g class="shapelayer"/><g class="imagelayer"/></g><g class="minor-gridlayer"><g class="x"/><g class="y"/></g><g class="gridlayer"><g class="x"><path class="xgrid crisp" transform="translate(147.55,0)" d="M0,46v274" style="stroke: rgb(49, 52, 57); stroke-opacity: 1; stroke-width: 1px;"/><path class="xgrid crisp" transform="translate(250.67,0)" d="M0,46v274" style="stroke: rgb(49, 52, 57); stroke-opacity: 1; stroke-width: 1px;"/><path class="xgrid crisp" transform="translate(357.22,0)" d="M0,46v274" style="stroke: rgb(49, 52, 57); stroke-opacity: 1; stroke-width: 1px;"/><path class="xgrid crisp" transform="translate(460.33,0)" d="M0,46v274" style="stroke: rgb(49, 52, 57); stroke-opacity: 1; stroke-width: 1px;"/><path class="xgrid crisp" transform="translate(566.89,0)" d="M0,46v274" style="stroke: rgb(49, 52, 57); stroke-opacity: 1; stroke-width: 1px;"/></g><g class="y"><path class="ygrid crisp" transform="translate(0,293.71000000000004)" d="M41,0h629" style="stroke: rgb(49, 52, 57); stroke-opacity: 1; stroke-width: 1px;"/><path class="ygrid crisp" transform="translate(0,242.83)" d="M41,0h629" style="stroke: rgb(49, 52, 57); stroke-opacity: 1; stroke-width: 1px;"/><path class="ygrid crisp" transform="translate(0,191.96)" d="M41,0h629" style="stroke: rgb(49, 52, 57); stroke-opacity: 1; stroke-width: 1px;"/><path class="ygrid crisp" transform="translate(0,141.09)" d="M41,0h629" style="stroke: rgb(49, 52, 57); stroke-opacity: 1; stroke-width: 1px;"/><path class="ygrid crisp" transform="translate(0,90.21000000000001)" d="M41,0h629" style="stroke: rgb(49, 52, 57); stroke-opacity: 1; stroke-width: 1px;"/></g></g><g class="zerolinelayer"/><path class="xlines-below"/><path class="ylines-below"/><g class="overlines-below"/><g class="xaxislayer-below"/><g class="yaxislayer-below"/><g class="overaxes-below"/><g class="plot" transform="translate(41,46)" clip-path="url(#clip07df79xyplot)"><g class="scatterlayer mlayer"><g class="trace scatter trace678e44d1-a3a3-4665-949b-47161e422cb1" style="stroke-miterlimit: 2;"><g class="fills"><g><path class="js-fill" d="M44.68,248L51.56,246.78L54.99,246.29L58.43,246.46L61.87,245.78L68.74,244.93L72.18,244.86L85.93,244.9L89.37,244.81L99.68,244.46L103.11,244.2L106.55,243.59L109.99,233.65L113.43,227.39L116.86,223.21L127.17,211.6L130.61,208.14L137.49,203.79L140.92,203.61L144.36,203.93L147.8,205.1L151.23,207.56L154.67,213.46L168.42,212.62L171.86,212.12L178.73,211.05L182.17,208.77L185.61,208.02L189.04,208.23L209.67,209L213.1,208.18L219.98,202.19L223.42,200.27L230.29,197.67L233.73,195.17L240.6,187.57L244.04,175.94L247.48,170.01L250.91,157.97L257.79,137.72L261.22,132.49L264.66,130.79L268.1,129.93L271.54,125.46L274.97,124.19L278.41,124.44L281.85,126.95L288.72,133.5L292.16,133.17L295.6,130.8L299.03,125.58L302.47,122.17L305.91,120.01L312.78,118.87L316.22,120.4L319.66,118.54L323.09,118.67L326.53,117.9L329.97,118.43L340.28,118.2L343.72,118.94L354.03,126.79L357.46,127.12L360.9,126.2L364.34,124.04L367.78,121.85L371.21,114.66L378.09,106.72L381.52,101.64L384.96,92.33L388.4,80.49L395.27,62.62L398.71,50.34L402.15,29.69L405.58,27.37L409.02,18.03L412.46,13.7L419.33,16.08L422.77,18.9L426.21,19.01L429.64,22.47L433.08,24.18L436.52,24.43L439.96,24.26L443.39,20.93L446.83,17.07L450.27,23.24L453.7,23.2L457.14,26.29L460.58,27.97L464.02,25.95L467.45,26.64L470.89,20.39L474.33,20.05L477.77,20.51L484.64,21.2L488.08,22.62L491.51,28.96L494.95,39.13L498.39,47.8L501.83,51.64L505.26,61.03L508.7,67.46L512.14,67.51L515.57,71.59L522.45,71.59L525.89,73.2L532.76,72.82L536.2,69.89L539.63,58.03L543.07,51.22L549.95,34.57L553.38,29.2L560.26,28.15L563.69,30.1L567.13,34.35L570.57,34.17L577.44,33.48L580.88,32.37L584.32,31.9L587.75,34.88L591.19,36.58L594.63,40.98L601.5,54.2L604.94,57.92L611.81,71.55L615.25,74.77L618.69,73.58L622.13,71.58L629,70.93L629,111.8L622.13,106.14L618.69,101.23L615.25,98.95L611.81,99.6L608.38,103L604.94,104.52L601.5,103.9L598.07,105.75L594.63,105.16L591.19,103.01L587.75,102.11L584.32,101.85L580.88,99.12L577.44,95.86L570.57,94.33L567.13,94.03L563.69,102.96L560.26,111.68L556.82,118.46L553.38,124.61L549.95,126.48L546.51,126.42L543.07,125.03L539.63,123.96L536.2,117.41L532.76,115.84L529.32,115.57L525.89,115.6L515.57,118.14L512.14,117.22L508.7,114.72L505.26,114.19L501.83,116.5L498.39,115.09L491.51,115.7L488.08,114.98L477.77,110.76L474.33,109.23L467.45,89.58L464.02,91.41L460.58,87.35L457.14,86.97L450.27,88.51L446.83,91.56L443.39,90.54L439.96,91.85L433.08,95.92L429.64,100.67L422.77,120.14L419.33,129.21L409.02,149.81L405.58,153.96L402.15,162.37L398.71,159.42L391.84,163.45L388.4,165.76L384.96,163.91L381.52,162.23L374.65,164.31L371.21,165.66L367.78,162.52L364.34,161.23L357.46,159.59L354.03,159.6L343.72,159.77L340.28,156.93L329.97,156.33L326.53,157.39L323.09,155.69L319.66,156.66L316.22,156.78L312.78,163L309.34,167.16L305.91,167.92L302.47,167.41L299.03,166.63L295.6,165.01L292.16,168.82L288.72,171.58L285.28,181.16L274.97,206.86L271.54,213.7L268.1,217.95L264.66,222.33L257.79,229.77L254.35,230.25L250.91,229.32L247.48,226.6L244.04,226.8L240.6,222.21L233.73,222.11L230.29,221.49L223.42,221.09L219.98,220.91L216.54,219.84L213.1,218.4L209.67,218.34L206.23,218.65L189.04,222.47L185.61,223.21L175.3,221.75L171.86,221.77L158.11,224.86L154.67,226.09L151.23,235.29L147.8,241.61L140.92,250.29L137.49,253.73L134.05,255.93L130.61,258.31L127.17,259.68L123.74,260.15L116.86,259.74L113.43,258.81L109.99,255.76L106.55,248.77L99.68,248.64L96.24,248.56L89.37,249.53L85.93,250.1L75.62,251.04L72.18,251.14L58.43,251.72L54.99,252.87L44.68,252.85Z" style="fill: rgb(128, 128, 128); fill-opacity: 0.2; stroke-width: 0;"/></g></g><g class="errorbars"/><g class="lines"><path class="js-line" d="M44.68,252.85L54.99,252.87L58.43,251.72L72.18,251.14L75.62,251.04L85.93,250.1L89.37,249.53L96.24,248.56L99.68,248.64L106.55,248.77L109.99,255.76L113.43,258.81L116.86,259.74L123.74,260.15L127.17,259.68L130.61,258.31L134.05,255.93L137.49,253.73L140.92,250.29L147.8,241.61L151.23,235.29L154.67,226.09L158.11,224.86L171.86,221.77L175.3,221.75L185.61,223.21L189.04,222.47L206.23,218.65L209.67,218.34L213.1,218.4L216.54,219.84L219.98,220.91L223.42,221.09L230.29,221.49L233.73,222.11L240.6,222.21L244.04,226.8L247.48,226.6L250.91,229.32L254.35,230.25L257.79,229.77L264.66,222.33L268.1,217.95L271.54,213.7L274.97,206.86L285.28,181.16L288.72,171.58L292.16,168.82L295.6,165.01L299.03,166.63L302.47,167.41L305.91,167.92L309.34,167.16L312.78,163L316.22,156.78L319.66,156.66L323.09,155.69L326.53,157.39L329.97,156.33L340.28,156.93L343.72,159.77L354.03,159.6L357.46,159.59L364.34,161.23L367.78,162.52L371.21,165.66L374.65,164.31L381.52,162.23L384.96,163.91L388.4,165.76L391.84,163.45L398.71,159.42L402.15,162.37L405.58,153.96L409.02,149.81L419.33,129.21L422.77,120.14L429.64,100.67L433.08,95.92L439.96,91.85L443.39,90.54L446.83,91.56L450.27,88.51L457.14,86.97L460.58,87.35L464.02,91.41L467.45,89.58L474.33,109.23L477.77,110.76L488.08,114.98L491.51,115.7L498.39,115.09L501.83,116.5L505.26,114.19L508.7,114.72L512.14,117.22L515.57,118.14L525.89,115.6L529.32,115.57L532.76,115.84L536.2,117.41L539.63,123.96L543.07,125.03L546.51,126.42L549.95,126.48L553.38,124.61L556.82,118.46L560.26,111.68L563.69,102.96L567.13,94.03L570.57,94.33L577.44,95.86L580.88,99.12L584.32,101.85L587.75,102.11L591.19,103.01L594.63,105.16L598.07,105.75L601.5,103.9L604.94,104.52L608.38,103L611.81,99.6L615.25,98.95L618.69,101.23L622.13,106.14L629,111.8" style="vector-effect: none; fill: none; stroke: rgb(127, 127, 127); stroke-opacity: 0.5; stroke-width: 2px; opacity: 1;"/></g><g class="points"/><g class="text"/></g><g class="trace scatter trace20f553fc-6ada-4a6b-877a-8d596d25fff0" style="stroke-miterlimit: 2;"><g class="fills"/><g class="errorbars"/><g class="lines"><path class="js-line" d="M44.68,248L51.56,246.78L54.99,246.29L58.43,246.46L61.87,245.78L68.74,244.93L72.18,244.86L85.93,244.9L89.37,244.81L99.68,244.46L103.11,244.2L106.55,243.59L109.99,233.65L113.43,227.39L116.86,223.21L127.17,211.6L130.61,208.14L137.49,203.79L140.92,203.61L144.36,203.93L147.8,205.1L151.23,207.56L154.67,213.46L168.42,212.62L171.86,212.12L178.73,211.05L182.17,208.77L185.61,208.02L189.04,208.23L209.67,209L213.1,208.18L219.98,202.19L223.42,200.27L230.29,197.67L233.73,195.17L240.6,187.57L244.04,175.94L247.48,170.01L250.91,157.97L257.79,137.72L261.22,132.49L264.66,130.79L268.1,129.93L271.54,125.46L274.97,124.19L278.41,124.44L281.85,126.95L288.72,133.5L292.16,133.17L295.6,130.8L299.03,125.58L302.47,122.17L305.91,120.01L312.78,118.87L316.22,120.4L319.66,118.54L323.09,118.67L326.53,117.9L329.97,118.43L340.28,118.2L343.72,118.94L354.03,126.79L357.46,127.12L360.9,126.2L364.34,124.04L367.78,121.85L371.21,114.66L378.09,106.72L381.52,101.64L384.96,92.33L388.4,80.49L395.27,62.62L398.71,50.34L402.15,29.69L405.58,27.37L409.02,18.03L412.46,13.7L419.33,16.08L422.77,18.9L426.21,19.01L429.64,22.47L433.08,24.18L436.52,24.43L439.96,24.26L443.39,20.93L446.83,17.07L450.27,23.24L453.7,23.2L457.14,26.29L460.58,27.97L464.02,25.95L467.45,26.64L470.89,20.39L474.33,20.05L477.77,20.51L484.64,21.2L488.08,22.62L491.51,28.96L494.95,39.13L498.39,47.8L501.83,51.64L505.26,61.03L508.7,67.46L512.14,67.51L515.57,71.59L522.45,71.59L525.89,73.2L532.76,72.82L536.2,69.89L539.63,58.03L543.07,51.22L549.95,34.57L553.38,29.2L560.26,28.15L563.69,30.1L567.13,34.35L570.57,34.17L577.44,33.48L580.88,32.37L584.32,31.9L587.75,34.88L591.19,36.58L594.63,40.98L601.5,54.2L604.94,57.92L611.81,71.55L615.25,74.77L618.69,73.58L622.13,71.58L629,70.93" style="vector-effect: none; fill: none; stroke: rgb(127, 127, 127); stroke-opacity: 0.5; stroke-width: 2px; opacity: 1;"/></g><g class="points"/><g class="text"/></g><g class="trace scatter trace0510d596-efe2-4c0c-b584-7ddb9614810f" style="stroke-miterlimit: 2; opacity: 1;"><g class="fills"/><g class="errorbars"/><g class="lines"><path class="js-line" d="M44.68,250.42L61.87,248.77L65.31,248.44L106.55,246.18L109.99,244.71L123.74,237.77L127.17,235.64L137.49,228.76L140.92,226.95L154.67,219.77L158.11,219.13L185.61,215.61L189.04,215.35L216.54,212.45L219.98,211.55L233.73,208.64L237.16,206.89L240.6,204.89L244.04,201.37L247.48,198.31L250.91,193.64L261.22,179.42L264.66,176.56L268.1,173.94L271.54,169.58L278.41,161.65L281.85,158.56L288.72,152.54L292.16,151L295.6,147.91L299.03,146.11L305.91,143.96L309.34,143.17L316.22,138.59L319.66,137.6L323.09,137.18L326.53,137.64L336.84,137.39L340.28,137.57L350.59,142.26L354.03,143.19L360.9,143.14L364.34,142.64L367.78,142.18L371.21,140.16L381.52,131.93L384.96,128.12L395.27,111.9L398.71,104.88L402.15,96.03L405.58,90.67L412.46,78.25L415.9,74.94L422.77,69.52L426.21,64.64L429.64,61.57L433.08,60.05L439.96,58.05L443.39,55.73L446.83,54.31L450.27,55.87L453.7,55.55L457.14,56.63L464.02,58.68L467.45,58.11L470.89,60.52L474.33,64.64L488.08,68.8L491.51,72.33L498.39,81.44L501.83,84.07L508.7,91.09L512.14,92.36L515.57,94.86L519.01,94.63L522.45,93.92L525.89,94.4L532.76,94.33L536.2,93.65L543.07,88.13L546.51,84.26L563.69,66.53L567.13,64.19L577.44,64.67L580.88,65.74L591.19,69.79L594.63,73.07L601.5,79.05L604.94,81.22L611.81,85.57L615.25,86.86L618.69,87.4L622.13,88.86L629,91.36" style="vector-effect: none; fill: none; stroke: rgb(108, 166, 205); stroke-opacity: 1; stroke-width: 2px; opacity: 1;"/></g><g class="points"/><g class="text"/></g><g class="trace scatter tracedd49afda-034a-4c10-a557-9c4bdd7e4ac5" style="stroke-miterlimit: 2; opacity: 1;"><g class="fills"/><g class="errorbars"/><g class="lines"><path class="js-line" d="M0,251.28L6.87,251.6L10.31,253.77L13.75,250.34L17.19,250.15L24.06,250.22L27.5,248.64L30.93,248.94L34.37,250.12L44.68,249.63L48.12,248.7L51.56,246.47L54.99,247.07L58.43,246.88L61.87,245.9L65.31,245.48L68.74,246.96L79.05,247.14L82.49,248.65L85.93,248.09L89.37,245.49L92.8,245.95L96.24,245.21L103.11,245.03L106.55,243.68L109.99,225.33L113.43,222.96L116.86,224.24L120.3,221.34L123.74,220.75L127.17,217.21L130.61,214.9L134.05,217.06L137.49,214.02L140.92,220.63L147.8,219.81L151.23,218.01L154.67,220.56L158.11,216.28L161.55,215.86L164.98,214.68L175.3,214.27L178.73,212.11L182.17,207.71L185.61,210.45L189.04,216.92L192.48,215.17L202.79,215.98L206.23,213.35L209.67,212.03L213.1,209.42L216.54,202.73L219.98,201.13L226.85,203.28L230.29,201.17L237.16,192.4L240.6,187.2L244.04,166.19L247.48,172.1L250.91,150.67L254.35,146.1L257.79,140.74L261.22,148.89L264.66,162.65L268.1,164.5L271.54,140.93L274.97,146.51L278.41,146.89L281.85,154.1L285.28,148.97L288.72,146.28L292.16,144.62L295.6,128.84L299.03,125.46L302.47,127.65L305.91,129.19L309.34,137.83L312.78,131.35L316.22,131.61L319.66,127.06L323.09,140.65L326.53,153.39L329.97,150.43L333.4,150.49L336.84,144.84L340.28,147.13L343.72,153.9L347.15,145.95L350.59,147.8L354.03,142.25L357.46,140.09L360.9,128.31L364.34,124.64L367.78,120.66L371.21,112.38L374.65,118.44L378.09,113.57L381.52,107.12L384.96,91.41L388.4,77.24L391.84,73.33L395.27,69.37L398.71,49.53L402.15,18.36L405.58,65L409.02,33.85L412.46,45.25L415.9,74.3L419.33,80.25L422.77,74.7L426.21,45.2L429.64,64.17L433.08,70.2L439.96,58.18L443.39,36.94L446.83,29.62L450.27,40.23L453.7,60.53L457.14,48.89L460.58,59.67L464.02,88.57L467.45,72.32L470.89,108.37L474.33,102.88L477.77,78.13L481.2,81.59L484.64,75.57L488.08,79.85L491.51,86.36L494.95,97.61L498.39,99.87L501.83,97.33L505.26,98.39L508.7,108.37L512.14,106.46L515.57,107.32L519.01,105.07L522.45,92.91L525.89,84.92L529.32,81.91L532.76,74.19L536.2,70.41L539.63,49.16L543.07,57.49L546.51,45.69L549.95,45.07L553.38,47.7L556.82,60.65L560.26,56.33L563.69,59.92L567.13,72.3L570.57,93.77L574.01,87.16L577.44,85.57L580.88,89.19L584.32,86.29L587.75,71.79L591.19,75.67L594.63,91.58L598.07,91.75L601.5,84.71L604.94,91.02L608.38,91.56L611.81,85.66L615.25,90.37L618.69,101.33L622.13,107.55L625.56,105.31L629,104.48" style="vector-effect: none; fill: none; stroke: rgb(31, 119, 180); stroke-opacity: 1; stroke-width: 2px; opacity: 1;"/></g><g class="points"/><g class="text"/></g></g></g><g class="overplot"/><path class="xlines-above crisp" d="M0,0" style="fill: none;"/><path class="ylines-above crisp" d="M0,0" style="fill: none;"/><g class="overlines-above"/><g class="xaxislayer-above"><g class="xtick"><text text-anchor="middle" x="0" y="333" transform="translate(41,0)" style="font-family: 'Open Sans', verdana, arial, sans-serif; font-size: 12px; fill: rgb(214, 223, 239); fill-opacity: 1; white-space: pre; opacity: 1;">Mar 2019</text></g><g class="xtick"><text text-anchor="middle" x="0" y="333" style="font-family: 'Open Sans', verdana, arial, sans-serif; font-size: 12px; fill: rgb(214, 223, 239); fill-opacity: 1; white-space: pre; opacity: 1;" transform="translate(147.55,0)">Apr 2019</text></g><g class="xtick"><text text-anchor="middle" x="0" y="333" style="font-family: 'Open Sans', verdana, arial, sans-serif; font-size: 12px; fill: rgb(214, 223, 239); fill-opacity: 1; white-space: pre; opacity: 1;" transform="translate(250.67,0)">May 2019</text></g><g class="xtick"><text text-anchor="middle" x="0" y="333" style="font-family: 'Open Sans', verdana, arial, sans-serif; font-size: 12px; fill: rgb(214, 223, 239); fill-opacity: 1; white-space: pre; opacity: 1;" transform="translate(357.22,0)">Jun 2019</text></g><g class="xtick"><text text-anchor="middle" x="0" y="333" style="font-family: 'Open Sans', verdana, arial, sans-serif; font-size: 12px; fill: rgb(214, 223, 239); fill-opacity: 1; white-space: pre; opacity: 1;" transform="translate(460.33,0)">Jul 2019</text></g><g class="xtick"><text text-anchor="middle" x="0" y="333" style="font-family: 'Open Sans', verdana, arial, sans-serif; font-size: 12px; fill: rgb(214, 223, 239); fill-opacity: 1; white-space: pre; opacity: 1;" transform="translate(566.89,0)">Aug 2019</text></g></g><g class="yaxislayer-above"><g class="ytick"><text text-anchor="end" x="40" y="4.199999999999999" transform="translate(0,293.71000000000004)" style="font-family: 'Open Sans', verdana, arial, sans-serif; font-size: 12px; fill: rgb(214, 223, 239); fill-opacity: 1; white-space: pre; opacity: 1;">4k</text></g><g class="ytick"><text text-anchor="end" x="40" y="4.199999999999999" style="font-family: 'Open Sans', verdana, arial, sans-serif; font-size: 12px; fill: rgb(214, 223, 239); fill-opacity: 1; white-space: pre; opacity: 1;" transform="translate(0,242.83)">6k</text></g><g class="ytick"><text text-anchor="end" x="40" y="4.199999999999999" style="font-family: 'Open Sans', verdana, arial, sans-serif; font-size: 12px; fill: rgb(214, 223, 239); fill-opacity: 1; white-space: pre; opacity: 1;" transform="translate(0,191.96)">8k</text></g><g class="ytick"><text text-anchor="end" x="40" y="4.199999999999999" style="font-family: 'Open Sans', verdana, arial, sans-serif; font-size: 12px; fill: rgb(214, 223, 239); fill-opacity: 1; white-space: pre; opacity: 1;" transform="translate(0,141.09)">10k</text></g><g class="ytick"><text text-anchor="end" x="40" y="4.199999999999999" style="font-family: 'Open Sans', verdana, arial, sans-serif; font-size: 12px; fill: rgb(214, 223, 239); fill-opacity: 1; white-space: pre; opacity: 1;" transform="translate(0,90.21000000000001)">12k</text></g></g><g class="overaxes-above"/></g></g><g class="polarlayer"/><g class="smithlayer"/><g class="ternarylayer"/><g class="geolayer"/><g class="funnelarealayer"/><g class="pielayer"/><g class="iciclelayer"/><g class="treemaplayer"/><g class="sunburstlayer"/><g class="glimages"/><defs id="topdefs-07df79"><g class="clips"/><clipPath id="legend07df79"><rect width="426" height="29" x="0" y="0"/></clipPath></defs><g class="layer-above"><g class="imagelayer"/><g class="shapelayer"/></g><g class="infolayer"><g class="legend" pointer-events="all" transform="translate(244,11.519999999999996)"><rect class="bg" shape-rendering="crispEdges" style="stroke: rgb(68, 68, 68); stroke-opacity: 1; fill: rgb(33, 34, 38); fill-opacity: 1; stroke-width: 0px;" width="426" height="29" x="0" y="0"/><g class="scrollbox" transform="" clip-path="url(#legend07df79)"><g class="groups"><g class="traces" transform="translate(0,14.5)" style="opacity: 1;"><text class="legendtext" text-anchor="start" x="40" y="4.680000000000001" style="font-family: 'Open Sans', verdana, arial, sans-serif; font-size: 12px; fill: rgb(214, 223, 239); fill-opacity: 1; white-space: pre;">Lower band</text><g class="layers"><g class="legendfill"/><g class="legendlines"><path class="js-line" d="M5,0h30" style="fill: none; stroke: rgb(127, 127, 127); stroke-opacity: 0.5; stroke-width: 2px;"/></g><g class="legendsymbols"><g class="legendpoints"/></g></g><rect class="legendtoggle" x="0" y="-9.5" width="112.53125" height="19" style="fill: rgb(0, 0, 0); fill-opacity: 0;"/></g><g class="traces" transform="translate(115.03125,14.5)" style="opacity: 1;"><text class="legendtext" text-anchor="start" x="40" y="4.680000000000001" style="font-family: 'Open Sans', verdana, arial, sans-serif; font-size: 12px; fill: rgb(214, 223, 239); fill-opacity: 1; white-space: pre;">Upper band</text><g class="layers"><g class="legendfill"><path class="js-fill" d="M5,-2h30v6h-30z" style="stroke-width: 0; fill: rgb(128, 128, 128); fill-opacity: 0.2;"/></g><g class="legendlines"><path class="js-line" d="M5,-2h30" style="fill: none; stroke: rgb(127, 127, 127); stroke-opacity: 0.5; stroke-width: 2px;"/></g><g class="legendsymbols"><g class="legendpoints"/></g></g><rect class="legendtoggle" x="0" y="-9.5" width="112.484375" height="19" style="fill: rgb(0, 0, 0); fill-opacity: 0;"/></g><g class="traces" transform="translate(230.015625,14.5)" style="opacity: 1;"><text class="legendtext" text-anchor="start" x="40" y="4.680000000000001" style="font-family: 'Open Sans', verdana, arial, sans-serif; font-size: 12px; fill: rgb(214, 223, 239); fill-opacity: 1; white-space: pre;">Middle band</text><g class="layers" style="opacity: 1;"><g class="legendfill"/><g class="legendlines"><path class="js-line" d="M5,0h30" style="fill: none; stroke: rgb(108, 166, 205); stroke-opacity: 1; stroke-width: 2px;"/></g><g class="legendsymbols"><g class="legendpoints"/></g></g><rect class="legendtoggle" x="0" y="-9.5" width="115.28125" height="19" style="fill: rgb(0, 0, 0); fill-opacity: 0;"/></g><g class="traces" transform="translate(347.796875,14.5)" style="opacity: 1;"><text class="legendtext" text-anchor="start" x="40" y="4.680000000000001" style="font-family: 'Open Sans', verdana, arial, sans-serif; font-size: 12px; fill: rgb(214, 223, 239); fill-opacity: 1; white-space: pre;">Close</text><g class="layers" style="opacity: 1;"><g class="legendfill"/><g class="legendlines"><path class="js-line" d="M5,0h30" style="fill: none; stroke: rgb(31, 119, 180); stroke-opacity: 1; stroke-width: 2px;"/></g><g class="legendsymbols"><g class="legendpoints"/></g></g><rect class="legendtoggle" x="0" y="-9.5" width="74.859375" height="19" style="fill: rgb(0, 0, 0); fill-opacity: 0;"/></g></g></g><rect class="scrollbar" rx="20" ry="3" width="0" height="0" style="fill: rgb(128, 139, 164); fill-opacity: 1;" x="0" y="0"/></g><g class="g-gtitle"/><g class="g-xtitle"/><g class="g-ytitle"/></g></svg>