<svg class="main-svg" xmlns="http://www.w3.org/2000/svg" xmlns:xlink="http://www.w3.org/1999/xlink" width="700" height="350" style="" viewBox="0 0 700 350"><rect x="0" y="0" width="700" height="350" style="fill: rgb(33, 34, 38); fill-opacity: 1;"/><defs id="defs-913e05"><g class="clips"><clipPath id="clip913e05xyplot" class="plotclip"><rect width="630" height="274"/></clipPath><clipPath class="axesclip" id="clip913e05x"><rect x="40" y="0" width="630" height="350"/></clipPath><clipPath class="axesclip" id="clip913e05y"><rect x="0" y="46" width="700" height="274"/></clipPath><clipPath class="axesclip" id="clip913e05xy"><rect x="40" y="46" width="630" height="274"/></clipPath></g><g class="gradients"/><g class="patterns"/></defs><g class="bglayer"/><g class="layer-below"><g class="imagelayer"/><g class="shapelayer"/></g><g class="cartesianlayer"><g class="subplot xy"><g class="layer-subplot"><g class="shapelayer"/><g class="imagelayer"/></g><g class="minor-gridlayer"><g class="x"/><g class="y"/></g><g class="gridlayer"><g class="x"><path class="xgrid crisp" transform="translate(170.2,0)" d="M0,46v274" style="stroke: rgb(49, 52, 57); stroke-opacity: 1; stroke-width: 1px;"/><path class="xgrid crisp" transform="translate(287.8,0)" d="M0,46v274" style="stroke: rgb(49, 52, 57); stroke-opacity: 1; stroke-width: 1px;"/><path class="xgrid crisp" transform="translate(418,0)" d="M0,46v274" style="stroke: rgb(49, 52, 57); stroke-opacity: 1; stroke-width: 1px;"/><path class="xgrid crisp" transform="translate(544,0)" d="M0,46v274" style="stroke: rgb(49, 52, 57); stroke-opacity: 1; stroke-width: 1px;"/></g><g class="y"><path class="ygrid crisp" transform="translate(0,286.03)" d="M40,0h630" style="stroke: rgb(49, 52, 57); stroke-opacity: 1; stroke-width: 1px;"/><path class="ygrid crisp" transform="translate(0,245.5)" d="M40,0h630" style="stroke: rgb(49, 52, 57); stroke-opacity: 1; stroke-width: 1px;"/><path class="ygrid crisp" transform="translate(0,204.97)" d="M40,0h630" style="stroke: rgb(49, 52, 57); stroke-opacity: 1; stroke-width: 1px;"/><path class="ygrid crisp" transform="translate(0,164.44)" d="M40,0h630" style="stroke: rgb(49, 52, 57); stroke-opacity: 1; stroke-width: 1px;"/><path class="ygrid crisp" transform="translate(0,123.91)" d="M40,0h630" style="stroke: rgb(49, 52, 57); stroke-opacity: 1; stroke-width: 1px;"/><path class="ygrid crisp" transform="translate(0,83.38)" d="M40,0h630" style="stroke: rgb(49, 52, 57); stroke-opacity: 1; stroke-width: 1px;"/></g></g><g class="zerolinelayer"/><path class="xlines-below"/><path class="ylines-below"/><g class="overlines-below"/><g class="xaxislayer-below"/><g class="yaxislayer-below"/><g class="overaxes-below"/><g class="plot" transform="translate(40,46)" clip-path="url(#clip913e05xyplot)"><g class="scatterlayer mlayer"><g class="trace scatter tracee225f0cb-3026-4d99-8098-a18c3a97b0cf" style="stroke-miterlimit: 2; opacity: 1;"><g class="fills"/><g class="errorbars"/><g class="lines"><path class="js-line" d="M0,260.3L4.2,258.4L8.4,257.95L12.6,258.51L16.8,257.11L25.2,253.4L29.4,252.42L33.6,252.79L37.8,254.1L46.2,257.16L50.4,254.82L54.6,253.53L58.8,255.16L67.2,255.87L71.4,255.29L79.8,256.04L84,259.3L88.2,257.79L92.4,258.44L105,258.1L109.2,259.57L113.4,257.48L117.6,256.89L121.8,256.92L126,257.72L130.2,257.43L134.4,256.07L138.6,254.71L142.8,255.09L151.2,253.48L155.4,253.73L159.6,248.69L163.8,248.5L168,249.58L172.2,247.51L180.6,248.07L184.8,246.96L189,247.49L193.2,246.62L197.4,244.59L201.6,244.91L205.8,242.01L210,241.86L214.2,240.87L218.4,243.17L222.6,246.88L226.8,246.27L231,248.08L235.2,248.6L243.6,249.42L247.8,246.32L252,247.19L256.2,245.7L260.4,247.06L264.6,246.81L268.8,246.82L273,245.24L277.2,244.52L281.4,242.74L289.8,240.69L294,241.01L298.2,238.31L302.4,239.65L306.6,241.99L310.8,241.38L315,239.95L319.2,240.65L327.6,240.33L331.8,240.88L336,242.95L340.2,242.8L348.6,244.89L352.8,242.53L365.4,240.72L369.6,239.92L382.2,239.6L386.4,240.82L394.8,239.82L399,240.42L403.2,241.9L407.4,240.33L411.6,240.38L415.8,239.31L424.2,239.24L428.4,236.75L436.8,236.88L441,238.09L445.2,238.7L449.4,241.78L453.6,242.12L457.8,241.6L466.2,244.85L470.4,245.32L478.8,246.76L483,243.3L487.2,242.6L491.4,242.74L495.6,243.62L499.8,240.72L504,240.67L508.2,241.5L512.4,241.1L516.6,243.77L520.8,240.95L525,241.66L533.4,240L537.6,240.39L541.8,242.03L546,241.44L550.2,246.66L554.4,246.27L558.6,246.15L562.8,248.31L567,248.52L571.2,250.53L575.4,250.96L579.6,255.04L583.8,252.43L588,254.83L592.2,254.67L596.4,256.58L600.6,253.86L604.8,254.07L609,253.46L613.2,254.05L617.4,255.94L621.6,256.68L630,254.81" style="vector-effect: none; fill: none; stroke: rgb(31, 119, 180); stroke-opacity: 1; stroke-width: 2px; opacity: 1;"/></g><g class="points"/><g class="text"/></g><g class="trace scatter tracea484f28f-8522-40e8-bc20-8a90ecfdcab2" style="stroke-miterlimit: 2; opacity: 1;"><g class="fills"/><g class="errorbars"/><g class="lines"><path class="js-line" d="M0,260.3L4.2,259.07L8.4,253.5L16.8,250.04L21,247.07L29.4,246.6L33.6,245.02L37.8,245.54L42,250.32L46.2,251.61L50.4,249.19L54.6,246.76L58.8,248.05L63,246.34L67.2,246.43L71.4,245.68L75.6,242.35L79.8,242.21L84,249.45L88.2,246.26L92.4,246.41L96.6,241.95L100.8,243.82L105,242.91L109.2,245.79L117.6,242.2L121.8,242.38L126,244.08L130.2,242.58L138.6,234.48L142.8,236.32L147,232.88L151.2,234.01L155.4,235.78L159.6,232.1L163.8,231.51L168,232.17L176.4,229.41L180.6,230.23L193.2,231.15L197.4,229.28L201.6,226.81L205.8,226.18L210,227.3L214.2,226.86L218.4,231.12L222.6,237L226.8,235.43L231,239.62L235.2,240.44L239.4,240.06L243.6,241.27L247.8,237.15L252,239.15L256.2,236.84L264.6,238.02L268.8,234.65L273,232.75L277.2,229.66L281.4,228.73L285.6,230.64L289.8,229.89L294,231.4L298.2,227.16L302.4,229.11L306.6,230.85L310.8,230.43L315,229.97L319.2,231.1L323.4,230.13L327.6,230.27L331.8,230.95L336,233.64L340.2,233.99L344.4,236.35L348.6,236.3L352.8,233.32L357,232.94L361.2,233.64L365.4,230.08L369.6,229.34L378,225.7L382.2,221.1L386.4,224.28L390.6,222.49L399,221.79L403.2,225.87L407.4,222.61L411.6,223.07L415.8,221.3L420,220.7L424.2,221.21L428.4,216.77L432.6,213L436.8,210.67L453.6,220.46L457.8,215.91L466.2,213.88L470.4,214.98L474.6,219.2L478.8,216.3L483,210.24L487.2,206.68L491.4,204.36L495.6,204.07L499.8,203.62L504,198.83L508.2,198.66L512.4,185.36L516.6,190.29L520.8,182.82L529.2,183.88L533.4,172.28L541.8,170.9L546,164.9L550.2,175.52L554.4,177.48L558.6,167.38L562.8,179.62L567,181.02L571.2,189.49L575.4,186.78L579.6,212.29L583.8,203.31L588,213.12L592.2,216.87L596.4,222.03L600.6,207.21L604.8,205.47L609,200.41L613.2,204.64L617.4,213.42L621.6,217.32L625.8,214.24L630,205.23" style="vector-effect: none; fill: none; stroke: rgb(255, 127, 14); stroke-opacity: 1; stroke-width: 2px; opacity: 1;"/></g><g class="points"/><g class="text"/></g><g class="trace scatter trace89030349-1726-4d98-b968-ff158eb3e3b6" style="stroke-miterlimit: 2; opacity: 1;"><g class="fills"/><g class="errorbars"/><g class="lines"><path class="js-line" d="M0,260.3L4.2,260.06L8.4,256.87L12.6,254.59L16.8,250.71L21,242.21L25.2,245.9L29.4,245.25L33.6,242.08L42,248.73L46.2,247.4L50.4,244.32L54.6,244.69L58.8,245.6L63,239.83L67.2,236.67L71.4,237.64L75.6,237.9L79.8,237.18L84,244.71L88.2,240.16L92.4,240.62L96.6,239.67L100.8,240.82L105,240.78L109.2,244.38L113.4,240.56L117.6,240.33L121.8,238.66L126,240.71L130.2,234.1L134.4,231.3L138.6,229.55L142.8,229.59L147,218.4L151.2,208L155.4,203.91L163.8,199.26L168,173.05L176.4,173.59L180.6,175.89L184.8,182.51L189,181.06L193.2,179.91L197.4,177.6L201.6,174.92L205.8,173.36L210,150.78L214.2,153.38L218.4,153.54L222.6,170.23L226.8,159.02L231,155.85L235.2,137.13L239.4,127.45L247.8,131.2L252,138.92L256.2,139.96L260.4,151.72L264.6,145.52L268.8,149.85L273,149.58L277.2,151.35L281.4,142.44L285.6,149.39L289.8,150.57L294,160.47L298.2,153.05L302.4,158.16L306.6,161.12L310.8,136.92L315,121.23L319.2,137.37L323.4,130.07L327.6,141.12L331.8,143.14L336,152.3L340.2,150.95L344.4,156.33L348.6,153.26L352.8,140.27L357,144.59L361.2,142.91L369.6,140.34L373.8,142.66L378,143.12L382.2,142.28L386.4,144.97L390.6,142.87L394.8,140.23L399,135.48L403.2,144.75L407.4,139.63L411.6,141.47L415.8,139.71L424.2,128.46L428.4,117.4L432.6,112.36L436.8,109.34L441,116.81L445.2,120.52L449.4,133.16L453.6,142.12L457.8,134.26L462,141.1L466.2,148L470.4,147L474.6,153.28L478.8,154.8L483,137.95L487.2,129.52L491.4,126.2L495.6,129.4L499.8,124.26L504,124.19L508.2,127.22L512.4,123.15L516.6,133.32L520.8,110.04L525,89.86L529.2,89.47L533.4,93.39L537.6,75.94L541.8,90.49L546,76.69L550.2,101.11L554.4,57.09L558.6,48.87L562.8,29.31L567,13.7L571.2,45.7L575.4,49L579.6,109.23L583.8,71.33L588,101.17L592.2,111.41L596.4,127.38L600.6,101.49L604.8,100.81L609,74.54L613.2,90.34L617.4,105.82L621.6,118.05L630,79.15" style="vector-effect: none; fill: none; stroke: rgb(44, 160, 44); stroke-opacity: 1; stroke-width: 2px; opacity: 1;"/></g><g class="points"/><g class="text"/></g></g></g><g class="overplot"/><path class="xlines-above crisp" d="M0,0" style="fill: none;"/><path class="ylines-above crisp" d="M0,0" style="fill: none;"/><g class="overlines-above"/><g class="xaxislayer-above"><g class="xtick"><text text-anchor="middle" x="0" y="333" transform="translate(40,0)" style="font-family: 'Open Sans', verdana, arial, sans-serif; font-size: 12px; fill: rgb(214, 223, 239); fill-opacity: 1; white-space: pre; opacity: 1;">Jan 2021</text></g><g class="xtick"><text text-anchor="middle" x="0" y="333" style="font-family: 'Open Sans', verdana, arial, sans-serif; font-size: 12px; fill: rgb(214, 223, 239); fill-opacity: 1; white-space: pre; opacity: 1;" transform="translate(170.2,0)">Feb 2021</text></g><g class="xtick"><text text-anchor="middle" x="0" y="333" style="font-family: 'Open Sans', verdana, arial, sans-serif; font-size: 12px; fill: rgb(214, 223, 239); fill-opacity: 1; white-space: pre; opacity: 1;" transform="translate(287.8,0)">Mar 2021</text></g><g class="xtick"><text text-anchor="middle" x="0" y="333" style="font-family: 'Open Sans', verdana, arial, sans-serif; font-size: 12px; fill: rgb(214, 223, 239); fill-opacity: 1; white-space: pre; opacity: 1;" transform="translate(418,0)">Apr 2021</text></g><g class="xtick"><text text-anchor="middle" x="0" y="333" style="font-family: 'Open Sans', verdana, arial, sans-serif; font-size: 12px; fill: rgb(214, 223, 239); fill-opacity: 1; white-space: pre; opacity: 1;" transform="translate(544,0)">May 2021</text></g></g><g class="yaxislayer-above"><g class="ytick"><text text-anchor="end" x="39" y="4.199999999999999" transform="translate(0,286.03)" style="font-family: 'Open Sans', verdana, arial, sans-serif; font-size: 12px; fill: rgb(214, 223, 239); fill-opacity: 1; white-space: pre; opacity: 1;">2</text></g><g class="ytick"><text text-anchor="end" x="39" y="4.199999999999999" style="font-family: 'Open Sans', verdana, arial, sans-serif; font-size: 12px; fill: rgb(214, 223, 239); fill-opacity: 1; white-space: pre; opacity: 1;" transform="translate(0,245.5)">4</text></g><g class="ytick"><text text-anchor="end" x="39" y="4.199999999999999" style="font-family: 'Open Sans', verdana, arial, sans-serif; font-size: 12px; fill: rgb(214, 223, 239); fill-opacity: 1; white-space: pre; opacity: 1;" transform="translate(0,204.97)">6</text></g><g class="ytick"><text text-anchor="end" x="39" y="4.199999999999999" style="font-family: 'Open Sans', verdana, arial, sans-serif; font-size: 12px; fill: rgb(214, 223, 239); fill-opacity: 1; white-space: pre; opacity: 1;" transform="translate(0,164.44)">8</text></g><g class="ytick"><text text-anchor="end" x="39" y="4.199999999999999" style="font-family: 'Open Sans', verdana, arial, sans-serif; font-size: 12px; fill: rgb(214, 223, 239); fill-opacity: 1; white-space: pre; opacity: 1;" transform="translate(0,123.91)">10</text></g><g class="ytick"><text text-anchor="end" x="39" y="4.199999999999999" style="font-family: 'Open Sans', verdana, arial, sans-serif; font-size: 12px; fill: rgb(214, 223, 239); fill-opacity: 1; white-space: pre; opacity: 1;" transform="translate(0,83.38)">12</text></g></g><g class="overaxes-above"/></g></g><g class="polarlayer"/><g class="smithlayer"/><g class="ternarylayer"/><g class="geolayer"/><g class="funnelarealayer"/><g class="pielayer"/><g class="iciclelayer"/><g class="treemaplayer"/><g class="sunburstlayer"/><g class="glimages"/><defs id="topdefs-913e05"><g class="clips"/><clipPath id="legend913e05"><rect width="304" height="29" x="0" y="0"/></clipPath></defs><g class="layer-above"><g class="imagelayer"/><g class="shapelayer"/></g><g class="infolayer"><g class="legend" pointer-events="all" transform="translate(366,11.519999999999996)"><rect class="bg" shape-rendering="crispEdges" style="stroke: rgb(68, 68, 68); stroke-opacity: 1; fill: rgb(33, 34, 38); fill-opacity: 1; stroke-width: 0px;" width="304" height="29" x="0" y="0"/><g class="scrollbox" transform="" clip-path="url(#legend913e05)"><g class="groups"><g class="traces" transform="translate(0,14.5)" style="opacity: 1;"><text class="legendtext" text-anchor="start" x="40" y="4.680000000000001" style="font-family: 'Open Sans', verdana, arial, sans-serif; font-size: 12px; fill: rgb(214, 223, 239); fill-opacity: 1; white-space: pre;">BTC-USD</text><g class="layers" style="opacity: 1;"><g class="legendfill"/><g class="legendlines"><path class="js-line" d="M5,0h30" style="fill: none; stroke: rgb(31, 119, 180); stroke-opacity: 1; stroke-width: 2px;"/></g><g class="legendsymbols"><g class="legendpoints"/></g></g><rect class="legendtoggle" x="0" y="-9.5" width="98.1875" height="19" style="fill: rgb(0, 0, 0); fill-opacity: 0;"/></g><g class="traces" transform="translate(100.6875,14.5)" style="opacity: 1;"><text class="legendtext" text-anchor="start" x="40" y="4.680000000000001" style="font-family: 'Open Sans', verdana, arial, sans-serif; font-size: 12px; fill: rgb(214, 223, 239); fill-opacity: 1; white-space: pre;">ETH-USD</text><g class="layers" style="opacity: 1;"><g class="legendfill"/><g class="legendlines"><path class="js-line" d="M5,0h30" style="fill: none; stroke: rgb(255, 127, 14); stroke-opacity: 1; stroke-width: 2px;"/></g><g class="legendsymbols"><g class="legendpoints"/></g></g><rect class="legendtoggle" x="0" y="-9.5" width="98.1875" height="19" style="fill: rgb(0, 0, 0); fill-opacity: 0;"/></g><g class="traces" transform="translate(201.375,14.5)" style="opacity: 1;"><text class="legendtext" text-anchor="start" x="40" y="4.680000000000001" style="font-family: 'Open Sans', verdana, arial, sans-serif; font-size: 12px; fill: rgb(214, 223, 239); fill-opacity: 1; white-space: pre;">ADA-USD</text><g class="layers" style="opacity: 1;"><g class="legendfill"/><g class="legendlines"><path class="js-line" d="M5,0h30" style="fill: none; stroke: rgb(44, 160, 44); stroke-opacity: 1; stroke-width: 2px;"/></g><g class="legendsymbols"><g class="legendpoints"/></g></g><rect class="legendtoggle" x="0" y="-9.5" width="99.84375" height="19" style="fill: rgb(0, 0, 0); fill-opacity: 0;"/></g></g></g><rect class="scrollbar" rx="20" ry="3" width="0" height="0" style="fill: rgb(128, 139, 164); fill-opacity: 1;" x="0" y="0"/></g><g class="g-gtitle"/><g class="g-xtitle"/><g class="g-ytitle"/></g></svg>