<svg class="main-svg" xmlns="http://www.w3.org/2000/svg" xmlns:xlink="http://www.w3.org/1999/xlink" width="700" height="350" style="" viewBox="0 0 700 350"><rect x="0" y="0" width="700" height="350" style="fill: rgb(255, 255, 255); fill-opacity: 1;"/><defs id="defs-e6d7bf"><g class="clips"><clipPath id="clipe6d7bfxyplot" class="plotclip"><rect width="630" height="274"/></clipPath><clipPath class="axesclip" id="clipe6d7bfx"><rect x="40" y="0" width="630" height="350"/></clipPath><clipPath class="axesclip" id="clipe6d7bfy"><rect x="0" y="46" width="700" height="274"/></clipPath><clipPath class="axesclip" id="clipe6d7bfxy"><rect x="40" y="46" width="630" height="274"/></clipPath></g><g class="gradients"/><g class="patterns"/></defs><g class="bglayer"><rect class="bg" x="40" y="46" width="630" height="274" style="fill: rgb(229, 236, 246); fill-opacity: 1; stroke-width: 0;"/></g><g class="layer-below"><g class="imagelayer"/><g class="shapelayer"/></g><g class="cartesianlayer"><g class="subplot xy"><g class="layer-subplot"><g class="shapelayer"/><g class="imagelayer"/></g><g class="minor-gridlayer"><g class="x"/><g class="y"/></g><g class="gridlayer"><g class="x"><path class="xgrid crisp" transform="translate(118.53,0)" d="M0,46v274" style="stroke: rgb(255, 255, 255); stroke-opacity: 1; stroke-width: 1px;"/><path class="xgrid crisp" transform="translate(197.93,0)" d="M0,46v274" style="stroke: rgb(255, 255, 255); stroke-opacity: 1; stroke-width: 1px;"/><path class="xgrid crisp" transform="translate(276.03,0)" d="M0,46v274" style="stroke: rgb(255, 255, 255); stroke-opacity: 1; stroke-width: 1px;"/><path class="xgrid crisp" transform="translate(355.43,0)" d="M0,46v274" style="stroke: rgb(255, 255, 255); stroke-opacity: 1; stroke-width: 1px;"/><path class="xgrid crisp" transform="translate(433.53,0)" d="M0,46v274" style="stroke: rgb(255, 255, 255); stroke-opacity: 1; stroke-width: 1px;"/><path class="xgrid crisp" transform="translate(512.9300000000001,0)" d="M0,46v274" style="stroke: rgb(255, 255, 255); stroke-opacity: 1; stroke-width: 1px;"/><path class="xgrid crisp" transform="translate(591.03,0)" d="M0,46v274" style="stroke: rgb(255, 255, 255); stroke-opacity: 1; stroke-width: 1px;"/></g><g class="y"><path class="ygrid crisp" transform="translate(0,317.02)" d="M40,0h630" style="stroke: rgb(255, 255, 255); stroke-opacity: 1; stroke-width: 1px;"/><path class="ygrid crisp" transform="translate(0,276.46000000000004)" d="M40,0h630" style="stroke: rgb(255, 255, 255); stroke-opacity: 1; stroke-width: 1px;"/><path class="ygrid crisp" transform="translate(0,235.91)" d="M40,0h630" style="stroke: rgb(255, 255, 255); stroke-opacity: 1; stroke-width: 1px;"/><path class="ygrid crisp" transform="translate(0,195.35)" d="M40,0h630" style="stroke: rgb(255, 255, 255); stroke-opacity: 1; stroke-width: 1px;"/><path class="ygrid crisp" transform="translate(0,154.79000000000002)" d="M40,0h630" style="stroke: rgb(255, 255, 255); stroke-opacity: 1; stroke-width: 1px;"/><path class="ygrid crisp" transform="translate(0,114.24)" d="M40,0h630" style="stroke: rgb(255, 255, 255); stroke-opacity: 1; stroke-width: 1px;"/><path class="ygrid crisp" transform="translate(0,73.68)" d="M40,0h630" style="stroke: rgb(255, 255, 255); stroke-opacity: 1; stroke-width: 1px;"/></g></g><g class="zerolinelayer"/><g class="layer-between"><g class="shapelayer"/><g class="imagelayer"/></g><path class="xlines-below"/><path class="ylines-below"/><g class="overlines-below"/><g class="xaxislayer-below"/><g class="yaxislayer-below"/><g class="overaxes-below"/><g class="plot" transform="translate(40,46)" clip-path="url(#clipe6d7bfxyplot)"><g class="scatterlayer mlayer"><g class="trace scatter trace74429057-0b77-4ce3-8614-06cbcab060ce" style="stroke-miterlimit: 2; opacity: 1;"><g class="fills"/><g class="errorbars"/><g class="lines"><path class="js-line" d="M85.87,107.14L87.6,111.13L88.03,110.85L89.32,111.67L89.75,117.22L90.62,120.63L91.05,118.84L95.79,91.14L96.23,90.94L97.52,87.96L97.95,88.11L100.54,89.16L100.97,88.11L102.27,88L102.7,88.35L104.86,94.03L105.29,95.97L105.72,97.06L106.15,105.73L107.45,113.85L107.88,114.3L108.31,114L108.74,115.76L109.6,122.5L110.03,128.99L111.76,168.71L112.19,179.49L114.35,234.23L114.78,234.79L115.64,215.44L116.08,181.73L116.51,146.74L116.94,148.11L117.37,147.39L118.23,147.44L118.66,145.49L120.39,135.76L120.82,135.18L121.25,132.39L121.68,132.92L122.12,133.13L122.55,132.73L122.98,131.24L125.57,126.76L126,126.35L126.43,125.72L126.86,130.29L127.73,134L128.16,132.12L130.75,113.55L131.18,111.53L132.9,106.24L133.34,116.04L134.63,128.14L135.06,127.98L135.49,126.73L135.92,122.98L138.08,95.16L138.51,96.15L138.95,94.83L141.1,61.99L141.53,50.58L141.97,42L142.4,56.86L144.12,85.52L144.55,87.56L145.85,90.67L146.28,88.92L147.14,87.85L147.58,91.01L148.87,95.77L149.3,94.55L150.6,98.83L151.03,114.41L152.32,175.63L152.75,173.92L153.18,172.32L153.62,163.55L155.77,118.39L156.21,105.9L158.36,58.5L158.79,57.85L159.66,37.82L160.09,40.88L160.52,51.3L160.95,49.57L161.38,33.01L161.82,22L162.25,35.06L162.68,58.07L163.11,54.12L163.54,55.88L163.97,54.77L164.4,58.04L165.27,60.76L165.7,60.92L166.13,61.46L166.56,77.41L167.42,80.46L167.86,77.23L169.58,55.88L170.01,57.85L170.45,57.8L171.31,53.8L171.74,54.66L172.17,61.21L173.47,67.59L173.9,67.18L174.33,83.13L174.76,94.71L175.19,93.36L175.62,88.01L180.37,13.7L180.8,34.39L182.96,79.41L183.39,81.79L184.25,84.57L184.68,83.55L185.98,81.43L186.41,82.89L188.57,99.5L189,98.5L189.86,104.59L190.29,103.76L192.02,101.71L192.45,106.23L194.61,118.01L195.04,117.96L197.63,123.34L198.06,123.75L198.92,124.53L199.36,126.66L200.65,128.82L201.08,129.63L201.51,130.1L201.95,132.24L203.67,138.2L204.1,145.76L205.4,156.32L205.83,158.54L206.26,158.01L206.69,155.03L207.55,148.03L207.99,148.35L208.42,146.14L209.28,141.8L209.71,141.91L211.44,137.49L211.87,137.55L213.16,137.91L213.6,139.05L214.03,139.6L214.46,148.63L215.75,158.01L216.18,156.56L217.48,143.31L217.91,135L221.36,65.51L221.79,61.04L223.52,51.55L223.95,51.32L224.38,50.46L224.82,50.84L225.25,50.88L227.4,53.79L227.84,53.4L228.27,53.78L228.7,55.37L230.42,58.18L230.86,59.38L231.29,59.94L231.72,62.29L233.01,64.42L233.45,64.44L234.74,66.03L235.17,67.1L237.76,69.92L238.19,71.33L239.49,79.13L239.92,82.46L242.51,98.15L242.94,99.25L243.37,99.73L243.8,99.11L244.23,97.91L245.1,95.52L245.53,91.63L246.39,88.58L246.82,90.47L247.25,92.22L247.68,92.06L248.12,91.43L248.55,90.58L248.98,87.29L251.14,82.39L251.57,80.12L252.43,75.4L252.86,76.33L253.29,76.72L254.59,82.42L255.02,85.49L257.18,106.67L257.61,112.58L259.34,128.32L259.77,126.87L260.2,124.79L260.63,125.2L261.06,125.64L262.79,123.79L263.22,122.54L264.95,112.06L265.38,112.62L265.81,113.01L266.24,104.32L266.67,101.12L267.1,103.17L267.53,103.64L271.42,131.78L271.85,129.26L274.87,117.18L275.3,117.54L276.6,128.16L277.03,129L277.89,130.13L278.32,127.43L279.62,116.39L280.05,110.07L284.36,67.07L284.79,67.85L285.23,67.94L285.66,66.48L286.52,65.3L286.95,67.7L287.82,68.31L288.25,69.53L288.68,69.04L289.11,66.27L291.27,51.73L291.7,50.6L292.56,55.94L292.99,54.65L293.42,50.89L293.86,51.44L294.29,51.88L295.15,51.74L295.58,59.07L300.33,133.28L300.76,136.6L301.19,139.18L301.62,137.97L302.05,135.72L302.92,126.74L303.35,130.14L303.78,132.66L304.21,131.38L304.64,130.09L305.51,124.24L305.94,122.03L310.68,92.5L311.12,92.28L311.55,93.4L311.98,92.53L312.41,90.81L314.14,93.33L314.57,95.07L315,95.85L315.43,94.72L318.88,85.02L319.32,82.56L320.61,76.32L321.04,75.5L322.77,73.45L323.2,73.3L323.63,73.29L324.06,76.81L324.92,82.05L325.36,82.15L327.08,80.12L327.51,80.56L327.95,80.73L328.38,81.96L330.1,90.96L330.53,94.71L331.83,101.01L332.26,99.94L332.69,98.51L333.12,98.82L333.55,99.51L334.42,100.15L334.85,98.68L335.28,97.58L335.71,99.87L337.01,104.01L337.44,104.8L338.3,104.76L338.73,104.43L339.6,104.37L340.03,103.56L342.18,117.21L342.62,118L343.05,117.69L343.48,118.47L346.07,121.56L346.5,121.11L348.23,121.22L348.66,120.3L350.38,117.96L350.82,114.95L351.68,109.35L352.11,109.19L352.54,108.99L352.97,107.52L356.86,91.73L357.29,95.67L359.88,123.67L360.31,130.73L364.62,189.51L365.05,192.93L366.35,197.38L366.78,196.4L368.51,189.67L368.94,188.03L369.8,186.89L370.23,183.37L371.53,191.31L371.96,191.6L372.39,188.37L372.82,188.71L373.25,189.85L374.12,188.93L374.55,187.35L376.27,181.44L376.71,178.1L378,164.07L378.43,167.06L380.16,175.53L380.59,175.24L381.88,169.68L382.32,170.51L382.75,169.65L383.18,170.41L383.61,171.11L385.34,179L385.77,188.71L387.06,192.4L387.49,192.26L387.92,188.58L390.08,159.71L390.51,157.35L392.67,148.09L393.1,146.12L393.97,146.81L394.4,145.85L395.26,145.24L395.69,144.05L397.42,137.83L397.85,139.79L398.71,142.67L399.14,142.3L399.58,141.12L400.44,140.96L400.87,140.93L401.3,141.21L401.73,140.1L403.46,134.17L403.89,134.89L405.18,135.24L405.62,134.55L407.34,135.87L407.77,135.58L408.64,131.82L409.07,126.71L409.93,112.52L410.36,115.44L410.79,119L414.68,144.5L415.11,144.86L416.84,127.32L417.27,126.67L418.99,129.1L419.42,128.93L420.29,127.03L420.72,126.01L422.01,113.87L422.45,113.45L422.88,111.92L423.31,112.6L423.74,114.29L424.17,115.65L424.6,113.82L425.47,107.86L425.9,101.26L427.19,82.32L427.62,73.84L428.05,69.43L428.49,70.44L428.92,71.42L429.35,72.32L429.78,71.67L430.21,75.1L430.64,72.88L431.08,77.34L434.53,117.09L434.96,119.07L435.39,119.34L435.82,117.03L437.55,101.95L437.98,97.08L439.27,100.56L439.71,102.34L441,103.73L441.43,102.89L442.73,96L443.16,94.71L443.59,93.72L444.02,90.76L447.47,79.74L447.9,79.36L448.77,79.62L449.2,81.14L450.06,101.56L450.49,108.54L452.65,141.59L453.08,145.61L454.38,157.71L454.81,153.53L455.67,142.55L456.1,128.62L457.4,117.39L457.83,116.75L459.55,113.84L459.99,113.73L461.71,113.5L462.14,113.8L463.87,112.17L464.3,112.2L465.16,107.36L465.6,109.17L468.62,199.49L469.05,220.25L470.34,260.3L470.77,257.1L472.07,220.48L472.5,217.25L473.36,210.81L473.79,210.81L474.23,207.98L474.66,208.07L475.09,208.02L475.52,208.02L475.95,206.6L476.82,206.2L477.25,204.84L477.68,204.9L478.11,206.53L478.54,208.64L478.97,206.55L480.7,188.95L481.13,181.41L485.01,112.26L485.45,109.6L486.31,102.57L486.74,95.3L489.33,87.78L489.76,88.42L490.19,86.48L490.62,80.06L491.92,78.81L492.35,87.05L494.08,99.48L494.51,99.48L495.8,99.33L496.23,103.07L497.1,107.41L497.53,110.52L499.25,123.07L499.68,123.14L500.98,116.78L501.41,116.13L502.27,117.88L502.71,115.07L503.14,116.14L503.57,129.74L505.29,165.38L505.73,168.42L506.16,167.51L506.59,162.91L509.18,108.43L509.61,98.22L512.2,79.68L512.63,79.77L515.22,76.72L515.65,78.95L516.95,84.53L517.38,84.65L518.24,84.12L518.67,85.42L519.1,84.95L519.53,86.87L521.26,99.52L521.69,99.15L522.55,98.63L522.99,100.35L523.85,101.08L524.28,100.75L525.58,100.29L526.01,99.98L526.87,99.59L527.3,100.35L529.03,106.43L529.46,106.53L531.18,115.68L531.62,119.42L534.21,133.85L534.64,130.96L535.93,104.83L536.36,106.06L538.95,108.99L539.38,108.95L539.82,110.69L540.25,110.13L540.68,109.56L541.54,109.3L541.97,109.2L543.27,106.99L543.7,105.89L544.56,103.69L544.99,103.88L545.42,103.72L545.86,104.16L546.29,108.81L547.58,128.7L548.01,128.56L549.74,120.5L550.17,117.73L552.76,104.82L553.19,105.94L555.78,105.81L556.21,106.5L556.64,106.27L557.08,107.52L559.23,115.83L559.66,118.65L562.68,144.65L563.12,144.59L563.55,142.32L563.98,140.25L564.41,140.5L564.84,140.48L565.71,140.18L566.14,139.33L567,132.87L567.43,133.26L567.86,133.39L569.59,134.68L570.02,135.16L570.88,136.25L571.32,142.79L572.18,151.22L572.61,150.29L574.34,138.39L574.77,134.69L576.06,121.4L576.49,123.25L576.92,122.72L577.36,119.92L578.22,110.41L578.65,110.84L579.08,110.18L580.81,117.35L581.24,119.08L583.83,126.23L584.26,128.01L584.69,127.83L585.12,128.64L588.58,176.35L589.01,172.56L589.44,171.97L589.87,173.34L590.3,172.02L590.73,163.95L591.6,158.45L592.03,157.58L594.18,154.25L594.62,155.2L599.36,182.89L599.79,181.89L600.66,192.38L601.09,185.02L605.84,51.59L606.27,47.02L607.99,38.27L608.42,38L608.86,37.76L609.29,39.29L610.58,46.26L611.01,47.42L612.74,52.79L613.17,51.44L614.47,52.83L614.9,52.35L616.19,52.98L616.62,53.01L617.05,53.48L617.49,55.89L617.92,57.99L618.35,66.16L619.21,86.65L619.64,85.59L620.94,71.89L621.37,78.74L621.8,84.14L622.23,83.85L622.66,84.4L623.96,87.73L624.39,87.27L624.82,86.61L625.25,86.73L625.68,88.17L626.12,89.71L626.55,88.71L626.98,89.66L627.41,89.69L627.84,90.73L629.57,100.74L630,102.78" style="vector-effect: none; fill: none; stroke: rgb(108, 166, 205); stroke-opacity: 1; stroke-width: 2px; opacity: 1;"/></g><g class="points"/><g class="text"/></g></g></g><g class="overplot"/><path class="xlines-above crisp" d="M0,0" style="fill: none;"/><path class="ylines-above crisp" d="M0,0" style="fill: none;"/><g class="overlines-above"/><g class="xaxislayer-above"><g class="xtick"><text text-anchor="middle" x="0" y="333" transform="translate(40,0)" style="font-family: 'Open Sans', verdana, arial, sans-serif; font-size: 12px; fill: rgb(42, 63, 95); fill-opacity: 1; white-space: pre; opacity: 1;">Jan 2020</text></g><g class="xtick"><text text-anchor="middle" x="0" y="333" style="font-family: 'Open Sans', verdana, arial, sans-serif; font-size: 12px; fill: rgb(42, 63, 95); fill-opacity: 1; white-space: pre; opacity: 1;" transform="translate(118.53,0)">Jul 2020</text></g><g class="xtick"><text text-anchor="middle" x="0" y="333" style="font-family: 'Open Sans', verdana, arial, sans-serif; font-size: 12px; fill: rgb(42, 63, 95); fill-opacity: 1; white-space: pre; opacity: 1;" transform="translate(197.93,0)">Jan 2021</text></g><g class="xtick"><text text-anchor="middle" x="0" y="333" style="font-family: 'Open Sans', verdana, arial, sans-serif; font-size: 12px; fill: rgb(42, 63, 95); fill-opacity: 1; white-space: pre; opacity: 1;" transform="translate(276.03,0)">Jul 2021</text></g><g class="xtick"><text text-anchor="middle" x="0" y="333" style="font-family: 'Open Sans', verdana, arial, sans-serif; font-size: 12px; fill: rgb(42, 63, 95); fill-opacity: 1; white-space: pre; opacity: 1;" transform="translate(355.43,0)">Jan 2022</text></g><g class="xtick"><text text-anchor="middle" x="0" y="333" style="font-family: 'Open Sans', verdana, arial, sans-serif; font-size: 12px; fill: rgb(42, 63, 95); fill-opacity: 1; white-space: pre; opacity: 1;" transform="translate(433.53,0)">Jul 2022</text></g><g class="xtick"><text text-anchor="middle" x="0" y="333" style="font-family: 'Open Sans', verdana, arial, sans-serif; font-size: 12px; fill: rgb(42, 63, 95); fill-opacity: 1; white-space: pre; opacity: 1;" transform="translate(512.9300000000001,0)">Jan 2023</text></g><g class="xtick"><text text-anchor="middle" x="0" y="333" style="font-family: 'Open Sans', verdana, arial, sans-serif; font-size: 12px; fill: rgb(42, 63, 95); fill-opacity: 1; white-space: pre; opacity: 1;" transform="translate(591.03,0)">Jul 2023</text></g></g><g class="yaxislayer-above"><g class="ytick"><text text-anchor="end" x="39" y="4.199999999999999" transform="translate(0,317.02)" style="font-family: 'Open Sans', verdana, arial, sans-serif; font-size: 12px; fill: rgb(42, 63, 95); fill-opacity: 1; white-space: pre; opacity: 1;">0.3</text></g><g class="ytick"><text text-anchor="end" x="39" y="4.199999999999999" style="font-family: 'Open Sans', verdana, arial, sans-serif; font-size: 12px; fill: rgb(42, 63, 95); fill-opacity: 1; white-space: pre; opacity: 1;" transform="translate(0,276.46000000000004)">0.35</text></g><g class="ytick"><text text-anchor="end" x="39" y="4.199999999999999" style="font-family: 'Open Sans', verdana, arial, sans-serif; font-size: 12px; fill: rgb(42, 63, 95); fill-opacity: 1; white-space: pre; opacity: 1;" transform="translate(0,235.91)">0.4</text></g><g class="ytick"><text text-anchor="end" x="39" y="4.199999999999999" style="font-family: 'Open Sans', verdana, arial, sans-serif; font-size: 12px; fill: rgb(42, 63, 95); fill-opacity: 1; white-space: pre; opacity: 1;" transform="translate(0,195.35)">0.45</text></g><g class="ytick"><text text-anchor="end" x="39" y="4.199999999999999" style="font-family: 'Open Sans', verdana, arial, sans-serif; font-size: 12px; fill: rgb(42, 63, 95); fill-opacity: 1; white-space: pre; opacity: 1;" transform="translate(0,154.79000000000002)">0.5</text></g><g class="ytick"><text text-anchor="end" x="39" y="4.199999999999999" style="font-family: 'Open Sans', verdana, arial, sans-serif; font-size: 12px; fill: rgb(42, 63, 95); fill-opacity: 1; white-space: pre; opacity: 1;" transform="translate(0,114.24)">0.55</text></g><g class="ytick"><text text-anchor="end" x="39" y="4.199999999999999" style="font-family: 'Open Sans', verdana, arial, sans-serif; font-size: 12px; fill: rgb(42, 63, 95); fill-opacity: 1; white-space: pre; opacity: 1;" transform="translate(0,73.68)">0.6</text></g></g><g class="overaxes-above"/></g></g><g class="polarlayer"/><g class="smithlayer"/><g class="ternarylayer"/><g class="geolayer"/><g class="funnelarealayer"/><g class="pielayer"/><g class="iciclelayer"/><g class="treemaplayer"/><g class="sunburstlayer"/><g class="glimages"/><defs id="topdefs-e6d7bf"><g class="clips"/><clipPath id="legende6d7bf"><rect width="87" height="29" x="0" y="0"/></clipPath></defs><g class="layer-above"><g class="imagelayer"/><g class="shapelayer"/></g><g class="infolayer"><g class="legend" pointer-events="all" transform="translate(583,11.519999999999996)"><rect class="bg" shape-rendering="crispEdges" style="stroke: rgb(68, 68, 68); stroke-opacity: 1; fill: rgb(255, 255, 255); fill-opacity: 1; stroke-width: 0px;" width="87" height="29" x="0" y="0"/><g class="scrollbox" transform="" clip-path="url(#legende6d7bf)"><g class="groups"><g class="traces" transform="translate(0,14.5)" style="opacity: 1;"><text class="legendtext" text-anchor="start" x="40" y="4.680000000000001" style="font-family: 'Open Sans', verdana, arial, sans-serif; font-size: 12px; fill: rgb(42, 63, 95); fill-opacity: 1; white-space: pre;">HURST</text><g class="layers" style="opacity: 1;"><g class="legendfill"/><g class="legendlines"><path class="js-line" d="M5,0h30" style="fill: none; stroke: rgb(108, 166, 205); stroke-opacity: 1; stroke-width: 2px;"/></g><g class="legendsymbols"><g class="legendpoints"/></g></g><rect class="legendtoggle" x="0" y="-9.5" width="84.25" height="19" style="fill: rgb(0, 0, 0); fill-opacity: 0;"/></g></g></g><rect class="scrollbar" rx="20" ry="3" width="0" height="0" style="fill: rgb(128, 139, 164); fill-opacity: 1;" x="0" y="0"/></g><g class="g-gtitle"/><g class="g-xtitle"/><g class="g-ytitle"/></g></svg>