<svg class="main-svg" xmlns="http://www.w3.org/2000/svg" xmlns:xlink="http://www.w3.org/1999/xlink" width="700" height="350" style="" viewBox="0 0 700 350"><rect x="0" y="0" width="700" height="350" style="fill: rgb(255, 255, 255); fill-opacity: 1;"/><defs id="defs-da38c2"><g class="clips"><clipPath id="clipda38c2xyplot" class="plotclip"><rect width="629" height="274"/></clipPath><clipPath class="axesclip" id="clipda38c2x"><rect x="41" y="0" width="629" height="350"/></clipPath><clipPath class="axesclip" id="clipda38c2y"><rect x="0" y="46" width="700" height="274"/></clipPath><clipPath class="axesclip" id="clipda38c2xy"><rect x="41" y="46" width="629" height="274"/></clipPath></g><g class="gradients"/><g class="patterns"/></defs><g class="bglayer"><rect class="bg" x="41" y="46" width="629" height="274" style="fill: rgb(229, 236, 246); fill-opacity: 1; stroke-width: 0;"/></g><g class="layer-below"><g class="imagelayer"/><g class="shapelayer"/></g><g class="cartesianlayer"><g class="subplot xy"><g class="layer-subplot"><g class="shapelayer"/><g class="imagelayer"/></g><g class="minor-gridlayer"><g class="x"/><g class="y"/></g><g class="gridlayer"><g class="x"><path class="xgrid crisp" transform="translate(147.55,0)" d="M0,46v274" style="stroke: rgb(255, 255, 255); stroke-opacity: 1; stroke-width: 1px;"/><path class="xgrid crisp" transform="translate(250.67,0)" d="M0,46v274" style="stroke: rgb(255, 255, 255); stroke-opacity: 1; stroke-width: 1px;"/><path class="xgrid crisp" transform="translate(357.22,0)" d="M0,46v274" style="stroke: rgb(255, 255, 255); stroke-opacity: 1; stroke-width: 1px;"/><path class="xgrid crisp" transform="translate(460.33,0)" d="M0,46v274" style="stroke: rgb(255, 255, 255); stroke-opacity: 1; stroke-width: 1px;"/><path class="xgrid crisp" transform="translate(566.89,0)" d="M0,46v274" style="stroke: rgb(255, 255, 255); stroke-opacity: 1; stroke-width: 1px;"/></g><g class="y"><path class="ygrid crisp" transform="translate(0,299.95)" d="M41,0h629" style="stroke: rgb(255, 255, 255); stroke-opacity: 1; stroke-width: 1px;"/><path class="ygrid crisp" transform="translate(0,246.65)" d="M41,0h629" style="stroke: rgb(255, 255, 255); stroke-opacity: 1; stroke-width: 1px;"/><path class="ygrid crisp" transform="translate(0,193.36)" d="M41,0h629" style="stroke: rgb(255, 255, 255); stroke-opacity: 1; stroke-width: 1px;"/><path class="ygrid crisp" transform="translate(0,140.07)" d="M41,0h629" style="stroke: rgb(255, 255, 255); stroke-opacity: 1; stroke-width: 1px;"/><path class="ygrid crisp" transform="translate(0,86.78)" d="M41,0h629" style="stroke: rgb(255, 255, 255); stroke-opacity: 1; stroke-width: 1px;"/></g></g><g class="zerolinelayer"/><path class="xlines-below"/><path class="ylines-below"/><g class="overlines-below"/><g class="xaxislayer-below"/><g class="yaxislayer-below"/><g class="overaxes-below"/><g class="plot" transform="translate(41,46)" clip-path="url(#clipda38c2xyplot)"><g class="scatterlayer mlayer"><g class="trace scatter tracee6e02094-ec8a-47a9-b0a9-58e79e896104" style="stroke-miterlimit: 2; opacity: 1;"><g class="fills"/><g class="errorbars"/><g class="lines"><path class="js-line" d="M0,257.69L6.87,258.02L10.31,260.3L13.75,256.71L17.19,256.51L24.06,256.58L27.5,254.92L30.93,255.24L34.37,256.47L44.68,255.96L48.12,254.99L51.56,252.65L54.99,253.27L58.43,253.08L61.87,252.05L65.31,251.62L68.74,253.17L79.05,253.36L82.49,254.93L85.93,254.34L89.37,251.63L92.8,252.11L96.24,251.33L103.11,251.14L106.55,249.73L109.99,230.5L113.43,228.02L116.86,229.36L120.3,226.32L123.74,225.71L127.17,222L130.61,219.58L134.05,221.84L137.49,218.65L140.92,225.58L147.8,224.73L151.23,222.83L154.67,225.51L158.11,221.02L161.55,220.59L164.98,219.35L168.42,219.21L171.86,218.3L175.3,218.92L178.73,216.66L182.17,212.05L185.61,214.91L189.04,221.69L192.48,219.86L202.79,220.71L206.23,217.96L209.67,216.57L213.1,213.84L216.54,206.83L219.98,205.15L226.85,207.4L230.29,205.2L237.16,196L240.6,190.56L244.04,168.55L247.48,174.74L250.91,152.29L254.35,147.51L257.79,141.9L261.22,150.43L264.66,164.85L268.1,166.78L271.54,142.09L274.97,147.94L278.41,148.34L281.85,155.89L285.28,150.51L288.72,147.7L292.16,145.96L295.6,129.42L299.03,125.89L302.47,128.18L305.91,129.79L309.34,138.85L312.78,132.05L316.22,132.33L319.66,127.57L323.09,141.79L326.53,155.15L329.97,152.05L333.4,152.1L336.84,146.19L340.28,148.58L343.72,155.67L347.15,147.35L350.59,149.29L354.03,143.48L357.46,141.21L360.9,128.87L364.34,125.02L367.78,120.86L371.21,112.18L374.65,118.54L378.09,113.43L381.52,106.67L384.96,90.22L388.4,75.37L391.84,71.28L395.27,67.13L398.71,46.35L402.15,13.7L405.58,62.55L409.02,29.92L412.46,41.86L415.9,72.3L419.33,78.53L422.77,72.71L426.21,41.81L429.64,61.68L433.08,68L439.96,55.41L443.39,33.16L446.83,25.49L450.27,36.61L453.7,57.87L457.14,45.68L460.58,56.97L464.02,87.25L467.45,70.22L470.89,107.99L474.33,102.23L477.77,76.31L481.2,79.93L484.64,73.63L488.08,78.11L491.51,84.93L494.95,96.71L498.39,99.08L501.83,96.42L505.26,97.53L508.7,107.99L512.14,105.98L515.57,106.88L519.01,104.53L522.45,91.79L525.89,83.42L529.32,80.26L532.76,72.17L536.2,68.22L539.63,45.96L543.07,54.68L546.51,42.32L549.95,41.67L553.38,44.43L556.82,57.99L560.26,53.47L563.69,57.23L567.13,70.2L570.57,92.69L574.01,85.77L577.44,84.1L580.88,87.9L584.32,84.86L587.75,69.66L591.19,73.73L594.63,90.39L598.07,90.58L601.5,83.2L604.94,89.81L608.38,90.38L611.81,84.19L615.25,89.13L618.69,100.61L622.13,107.12L625.56,104.78L629,103.91" style="vector-effect: none; fill: none; stroke: rgb(31, 119, 180); stroke-opacity: 1; stroke-width: 2px; opacity: 1;"/></g><g class="points"/><g class="text"/></g><g class="trace scatter trace790e4f98-3ebd-4f70-b29b-99588c41fdf8" style="stroke-miterlimit: 2; opacity: 1;"><g class="fills"/><g class="errorbars"/><g class="lines"><path class="js-line" d="M44.68,256.79L58.43,255.39L61.87,255.06L79.05,253.98L82.49,253.87L106.55,252.34L109.99,250.8L123.74,243.54L127.17,241.3L137.49,234.1L140.92,232.2L154.67,224.68L158.11,224L185.61,220.33L189.04,220.05L216.54,217.01L219.98,216.07L233.73,213.02L237.16,211.18L240.6,209.09L244.04,205.41L247.48,202.2L250.91,197.31L261.22,182.41L264.66,179.41L268.1,176.67L271.54,172.1L278.41,163.79L281.85,160.56L288.72,154.25L292.16,152.64L295.6,149.4L299.03,147.52L305.91,145.27L309.34,144.44L316.22,139.64L319.66,138.6L323.09,138.16L326.53,138.65L336.84,138.38L340.28,138.57L350.59,143.48L354.03,144.46L360.9,144.4L364.34,143.88L367.78,143.4L371.21,141.29L381.52,132.67L384.96,128.67L395.27,111.68L398.71,104.33L402.15,95.06L405.58,89.44L412.46,76.43L415.9,72.96L422.77,67.29L426.21,62.17L429.64,58.96L433.08,57.37L439.96,55.27L443.39,52.85L446.83,51.36L450.27,52.99L453.7,52.66L457.14,53.78L464.02,55.93L467.45,55.34L470.89,57.86L474.33,62.17L488.08,66.53L491.51,70.23L498.39,79.78L501.83,82.53L508.7,89.88L512.14,91.22L515.57,93.84L519.01,93.59L522.45,92.84L525.89,93.35L532.76,93.27L536.2,92.57L543.07,86.78L546.51,82.73L563.69,64.15L567.13,61.7L577.44,62.21L580.88,63.33L591.19,67.57L594.63,71.01L601.5,77.27L604.94,79.54L611.81,84.1L615.25,85.46L618.69,86.02L622.13,87.55L629,90.17" style="vector-effect: none; fill: none; stroke: rgb(108, 166, 205); stroke-opacity: 1; stroke-width: 2px; opacity: 1;"/></g><g class="points"/><g class="text"/></g></g></g><g class="overplot"/><path class="xlines-above crisp" d="M0,0" style="fill: none;"/><path class="ylines-above crisp" d="M0,0" style="fill: none;"/><g class="overlines-above"/><g class="xaxislayer-above"><g class="xtick"><text text-anchor="middle" x="0" y="333" transform="translate(41,0)" style="font-family: 'Open Sans', verdana, arial, sans-serif; font-size: 12px; fill: rgb(42, 63, 95); fill-opacity: 1; white-space: pre; opacity: 1;">Mar 2019</text></g><g class="xtick"><text text-anchor="middle" x="0" y="333" style="font-family: 'Open Sans', verdana, arial, sans-serif; font-size: 12px; fill: rgb(42, 63, 95); fill-opacity: 1; white-space: pre; opacity: 1;" transform="translate(147.55,0)">Apr 2019</text></g><g class="xtick"><text text-anchor="middle" x="0" y="333" style="font-family: 'Open Sans', verdana, arial, sans-serif; font-size: 12px; fill: rgb(42, 63, 95); fill-opacity: 1; white-space: pre; opacity: 1;" transform="translate(250.67,0)">May 2019</text></g><g class="xtick"><text text-anchor="middle" x="0" y="333" style="font-family: 'Open Sans', verdana, arial, sans-serif; font-size: 12px; fill: rgb(42, 63, 95); fill-opacity: 1; white-space: pre; opacity: 1;" transform="translate(357.22,0)">Jun 2019</text></g><g class="xtick"><text text-anchor="middle" x="0" y="333" style="font-family: 'Open Sans', verdana, arial, sans-serif; font-size: 12px; fill: rgb(42, 63, 95); fill-opacity: 1; white-space: pre; opacity: 1;" transform="translate(460.33,0)">Jul 2019</text></g><g class="xtick"><text text-anchor="middle" x="0" y="333" style="font-family: 'Open Sans', verdana, arial, sans-serif; font-size: 12px; fill: rgb(42, 63, 95); fill-opacity: 1; white-space: pre; opacity: 1;" transform="translate(566.89,0)">Aug 2019</text></g></g><g class="yaxislayer-above"><g class="ytick"><text text-anchor="end" x="40" y="4.199999999999999" transform="translate(0,299.95)" style="font-family: 'Open Sans', verdana, arial, sans-serif; font-size: 12px; fill: rgb(42, 63, 95); fill-opacity: 1; white-space: pre; opacity: 1;">4k</text></g><g class="ytick"><text text-anchor="end" x="40" y="4.199999999999999" style="font-family: 'Open Sans', verdana, arial, sans-serif; font-size: 12px; fill: rgb(42, 63, 95); fill-opacity: 1; white-space: pre; opacity: 1;" transform="translate(0,246.65)">6k</text></g><g class="ytick"><text text-anchor="end" x="40" y="4.199999999999999" style="font-family: 'Open Sans', verdana, arial, sans-serif; font-size: 12px; fill: rgb(42, 63, 95); fill-opacity: 1; white-space: pre; opacity: 1;" transform="translate(0,193.36)">8k</text></g><g class="ytick"><text text-anchor="end" x="40" y="4.199999999999999" style="font-family: 'Open Sans', verdana, arial, sans-serif; font-size: 12px; fill: rgb(42, 63, 95); fill-opacity: 1; white-space: pre; opacity: 1;" transform="translate(0,140.07)">10k</text></g><g class="ytick"><text text-anchor="end" x="40" y="4.199999999999999" style="font-family: 'Open Sans', verdana, arial, sans-serif; font-size: 12px; fill: rgb(42, 63, 95); fill-opacity: 1; white-space: pre; opacity: 1;" transform="translate(0,86.78)">12k</text></g></g><g class="overaxes-above"/></g></g><g class="polarlayer"/><g class="smithlayer"/><g class="ternarylayer"/><g class="geolayer"/><g class="funnelarealayer"/><g class="pielayer"/><g class="iciclelayer"/><g class="treemaplayer"/><g class="sunburstlayer"/><g class="glimages"/><defs id="topdefs-da38c2"><g class="clips"/><clipPath id="legendda38c2"><rect width="141" height="29" x="0" y="0"/></clipPath></defs><g class="layer-above"><g class="imagelayer"/><g class="shapelayer"/></g><g class="infolayer"><g class="legend" pointer-events="all" transform="translate(529,11.519999999999996)"><rect class="bg" shape-rendering="crispEdges" style="stroke: rgb(68, 68, 68); stroke-opacity: 1; fill: rgb(255, 255, 255); fill-opacity: 1; stroke-width: 0px;" width="141" height="29" x="0" y="0"/><g class="scrollbox" transform="" clip-path="url(#legendda38c2)"><g class="groups"><g class="traces" transform="translate(0,14.5)" style="opacity: 1;"><text class="legendtext" text-anchor="start" x="40" y="4.680000000000001" style="font-family: 'Open Sans', verdana, arial, sans-serif; font-size: 12px; fill: rgb(42, 63, 95); fill-opacity: 1; white-space: pre;">Close</text><g class="layers" style="opacity: 1;"><g class="legendfill"/><g class="legendlines"><path class="js-line" d="M5,0h30" style="fill: none; stroke: rgb(31, 119, 180); stroke-opacity: 1; stroke-width: 2px;"/></g><g class="legendsymbols"><g class="legendpoints"/></g></g><rect class="legendtoggle" x="0" y="-9.5" width="74.859375" height="19" style="fill: rgb(0, 0, 0); fill-opacity: 0;"/></g><g class="traces" transform="translate(77.359375,14.5)" style="opacity: 1;"><text class="legendtext" text-anchor="start" x="40" y="4.680000000000001" style="font-family: 'Open Sans', verdana, arial, sans-serif; font-size: 12px; fill: rgb(42, 63, 95); fill-opacity: 1; white-space: pre;">MA</text><g class="layers" style="opacity: 1;"><g class="legendfill"/><g class="legendlines"><path class="js-line" d="M5,0h30" style="fill: none; stroke: rgb(108, 166, 205); stroke-opacity: 1; stroke-width: 2px;"/></g><g class="legendsymbols"><g class="legendpoints"/></g></g><rect class="legendtoggle" x="0" y="-9.5" width="60.828125" height="19" style="fill: rgb(0, 0, 0); fill-opacity: 0;"/></g></g></g><rect class="scrollbar" rx="20" ry="3" width="0" height="0" style="fill: rgb(128, 139, 164); fill-opacity: 1;" x="0" y="0"/></g><g class="g-gtitle"/><g class="g-xtitle"/><g class="g-ytitle"/></g></svg>