<svg class="main-svg" xmlns="http://www.w3.org/2000/svg" xmlns:xlink="http://www.w3.org/1999/xlink" width="700" height="350" style="" viewBox="0 0 700 350"><rect x="0" y="0" width="700" height="350" style="fill: rgb(255, 255, 255); fill-opacity: 1;"/><defs id="defs-7c66b2"><g class="clips"><clipPath id="clip7c66b2xyplot" class="plotclip"><rect width="624" height="274"/></clipPath><clipPath class="axesclip" id="clip7c66b2x"><rect x="46" y="0" width="624" height="350"/></clipPath><clipPath class="axesclip" id="clip7c66b2y"><rect x="0" y="46" width="700" height="274"/></clipPath><clipPath class="axesclip" id="clip7c66b2xy"><rect x="46" y="46" width="624" height="274"/></clipPath></g><g class="gradients"/><g class="patterns"/></defs><g class="bglayer"><rect class="bg" x="46" y="46" width="624" height="274" style="fill: rgb(229, 236, 246); fill-opacity: 1; stroke-width: 0;"/></g><g class="layer-below"><g class="imagelayer"/><g class="shapelayer"/></g><g class="cartesianlayer"><g class="subplot xy"><g class="layer-subplot"><g class="shapelayer"/><g class="imagelayer"/></g><g class="minor-gridlayer"><g class="x"/><g class="y"/></g><g class="gridlayer"><g class="x"/><g class="y"><path class="ygrid crisp" transform="translate(0,315.97)" d="M46,0h624" style="stroke: rgb(255, 255, 255); stroke-opacity: 1; stroke-width: 1px;"/><path class="ygrid crisp" transform="translate(0,281.05)" d="M46,0h624" style="stroke: rgb(255, 255, 255); stroke-opacity: 1; stroke-width: 1px;"/><path class="ygrid crisp" transform="translate(0,211.21)" d="M46,0h624" style="stroke: rgb(255, 255, 255); stroke-opacity: 1; stroke-width: 1px;"/><path class="ygrid crisp" transform="translate(0,176.29)" d="M46,0h624" style="stroke: rgb(255, 255, 255); stroke-opacity: 1; stroke-width: 1px;"/><path class="ygrid crisp" transform="translate(0,141.36)" d="M46,0h624" style="stroke: rgb(255, 255, 255); stroke-opacity: 1; stroke-width: 1px;"/><path class="ygrid crisp" transform="translate(0,106.44)" d="M46,0h624" style="stroke: rgb(255, 255, 255); stroke-opacity: 1; stroke-width: 1px;"/><path class="ygrid crisp" transform="translate(0,71.52)" d="M46,0h624" style="stroke: rgb(255, 255, 255); stroke-opacity: 1; stroke-width: 1px;"/></g></g><g class="zerolinelayer"><path class="yzl zl crisp" transform="translate(0,246.13)" d="M46,0h624" style="stroke: rgb(255, 255, 255); stroke-opacity: 1; stroke-width: 2px;"/></g><path class="xlines-below"/><path class="ylines-below"/><g class="overlines-below"/><g class="xaxislayer-below"/><g class="yaxislayer-below"/><g class="overaxes-below"/><g class="plot" transform="translate(46,46)" clip-path="url(#clip7c66b2xyplot)"><g class="barlayer mlayer"><g class="trace bars" shape-rendering="crispEdges" style="opacity: 1;"><g class="points"><g class="point"><path d="M0,0Z" style="vector-effect: none; opacity: 1; stroke-width: 0px; fill: rgb(192, 192, 192); fill-opacity: 0.75;"/></g><g class="point"><path d="M0,0Z" style="vector-effect: none; opacity: 1; stroke-width: 0px; fill: rgb(192, 192, 192); fill-opacity: 0.75;"/></g><g class="point"><path d="M0,0Z" style="vector-effect: none; opacity: 1; stroke-width: 0px; fill: rgb(192, 192, 192); fill-opacity: 0.75;"/></g><g class="point"><path d="M0,0Z" style="vector-effect: none; opacity: 1; stroke-width: 0px; fill: rgb(192, 192, 192); fill-opacity: 0.75;"/></g><g class="point"><path d="M0,0Z" style="vector-effect: none; opacity: 1; stroke-width: 0px; fill: rgb(192, 192, 192); fill-opacity: 0.75;"/></g><g class="point"><path d="M0,0Z" style="vector-effect: none; opacity: 1; stroke-width: 0px; fill: rgb(192, 192, 192); fill-opacity: 0.75;"/></g><g class="point"><path d="M0,0Z" style="vector-effect: none; opacity: 1; stroke-width: 0px; fill: rgb(192, 192, 192); fill-opacity: 0.75;"/></g><g class="point"><path d="M0,0Z" style="vector-effect: none; opacity: 1; stroke-width: 0px; fill: rgb(192, 192, 192); fill-opacity: 0.75;"/></g><g class="point"><path d="M0,0Z" style="vector-effect: none; opacity: 1; stroke-width: 0px; fill: rgb(192, 192, 192); fill-opacity: 0.75;"/></g><g class="point"><path d="M0,0Z" style="vector-effect: none; opacity: 1; stroke-width: 0px; fill: rgb(192, 192, 192); fill-opacity: 0.75;"/></g><g class="point"><path d="M0,0Z" style="vector-effect: none; opacity: 1; stroke-width: 0px; fill: rgb(192, 192, 192); fill-opacity: 0.75;"/></g><g class="point"><path d="M0,0Z" style="vector-effect: none; opacity: 1; stroke-width: 0px; fill: rgb(192, 192, 192); fill-opacity: 0.75;"/></g><g class="point"><path d="M0,0Z" style="vector-effect: none; opacity: 1; stroke-width: 0px; fill: rgb(192, 192, 192); fill-opacity: 0.75;"/></g><g class="point"><path d="M0,0Z" style="vector-effect: none; opacity: 1; stroke-width: 0px; fill: rgb(192, 192, 192); fill-opacity: 0.75;"/></g><g class="point"><path d="M0,0Z" style="vector-effect: none; opacity: 1; stroke-width: 0px; fill: rgb(192, 192, 192); fill-opacity: 0.75;"/></g><g class="point"><path d="M0,0Z" style="vector-effect: none; opacity: 1; stroke-width: 0px; fill: rgb(192, 192, 192); fill-opacity: 0.75;"/></g><g class="point"><path d="M0,0Z" style="vector-effect: none; opacity: 1; stroke-width: 0px; fill: rgb(192, 192, 192); fill-opacity: 0.75;"/></g><g class="point"><path d="M0,0Z" style="vector-effect: none; opacity: 1; stroke-width: 0px; fill: rgb(192, 192, 192); fill-opacity: 0.75;"/></g><g class="point"><path d="M0,0Z" style="vector-effect: none; opacity: 1; stroke-width: 0px; fill: rgb(192, 192, 192); fill-opacity: 0.75;"/></g><g class="point"><path d="M0,0Z" style="vector-effect: none; opacity: 1; stroke-width: 0px; fill: rgb(192, 192, 192); fill-opacity: 0.75;"/></g><g class="point"><path d="M0,0Z" style="vector-effect: none; opacity: 1; stroke-width: 0px; fill: rgb(192, 192, 192); fill-opacity: 0.75;"/></g><g class="point"><path d="M0,0Z" style="vector-effect: none; opacity: 1; stroke-width: 0px; fill: rgb(192, 192, 192); fill-opacity: 0.75;"/></g><g class="point"><path d="M0,0Z" style="vector-effect: none; opacity: 1; stroke-width: 0px; fill: rgb(192, 192, 192); fill-opacity: 0.75;"/></g><g class="point"><path d="M0,0Z" style="vector-effect: none; opacity: 1; stroke-width: 0px; fill: rgb(192, 192, 192); fill-opacity: 0.75;"/></g><g class="point"><path d="M0,0Z" style="vector-effect: none; opacity: 1; stroke-width: 0px; fill: rgb(192, 192, 192); fill-opacity: 0.75;"/></g><g class="point"><path d="M0,0Z" style="vector-effect: none; opacity: 1; stroke-width: 0px; fill: rgb(192, 192, 192); fill-opacity: 0.75;"/></g><g class="point"><path d="M0,0Z" style="vector-effect: none; opacity: 1; stroke-width: 0px; fill: rgb(192, 192, 192); fill-opacity: 0.75;"/></g><g class="point"><path d="M0,0Z" style="vector-effect: none; opacity: 1; stroke-width: 0px; fill: rgb(192, 192, 192); fill-opacity: 0.75;"/></g><g class="point"><path d="M0,0Z" style="vector-effect: none; opacity: 1; stroke-width: 0px; fill: rgb(192, 192, 192); fill-opacity: 0.75;"/></g><g class="point"><path d="M0,0Z" style="vector-effect: none; opacity: 1; stroke-width: 0px; fill: rgb(192, 192, 192); fill-opacity: 0.75;"/></g><g class="point"><path d="M0,0Z" style="vector-effect: none; opacity: 1; stroke-width: 0px; fill: rgb(192, 192, 192); fill-opacity: 0.75;"/></g><g class="point"><path d="M0,0Z" style="vector-effect: none; opacity: 1; stroke-width: 0px; fill: rgb(192, 192, 192); fill-opacity: 0.75;"/></g><g class="point"><path d="M0,0Z" style="vector-effect: none; opacity: 1; stroke-width: 0px; fill: rgb(192, 192, 192); fill-opacity: 0.75;"/></g><g class="point"><path d="M111.91,200.13V184.8H115.3V200.13Z" style="vector-effect: none; opacity: 1; stroke-width: 0px; fill: rgb(192, 192, 192); fill-opacity: 0.75;"/></g><g class="point"><path d="M115.3,200.13V182.8H118.7V200.13Z" style="vector-effect: none; opacity: 1; stroke-width: 0px; fill: rgb(0, 128, 0); fill-opacity: 0.75;"/></g><g class="point"><path d="M118.7,200.13V181.35H122.09V200.13Z" style="vector-effect: none; opacity: 1; stroke-width: 0px; fill: rgb(0, 128, 0); fill-opacity: 0.75;"/></g><g class="point"><path d="M122.09,200.13V181.38H125.48V200.13Z" style="vector-effect: none; opacity: 1; stroke-width: 0px; fill: rgb(144, 238, 144); fill-opacity: 0.75;"/></g><g class="point"><path d="M125.48,200.13V181.08H128.87V200.13Z" style="vector-effect: none; opacity: 1; stroke-width: 0px; fill: rgb(0, 128, 0); fill-opacity: 0.75;"/></g><g class="point"><path d="M128.87,200.13V181.17H132.26V200.13Z" style="vector-effect: none; opacity: 1; stroke-width: 0px; fill: rgb(144, 238, 144); fill-opacity: 0.75;"/></g><g class="point"><path d="M132.26,200.13V183.5H135.65V200.13Z" style="vector-effect: none; opacity: 1; stroke-width: 0px; fill: rgb(144, 238, 144); fill-opacity: 0.75;"/></g><g class="point"><path d="M135.65,200.13V184.87H139.04V200.13Z" style="vector-effect: none; opacity: 1; stroke-width: 0px; fill: rgb(144, 238, 144); fill-opacity: 0.75;"/></g><g class="point"><path d="M139.04,200.13V189.84H142.43V200.13Z" style="vector-effect: none; opacity: 1; stroke-width: 0px; fill: rgb(144, 238, 144); fill-opacity: 0.75;"/></g><g class="point"><path d="M142.43,200.13V193.64H145.83V200.13Z" style="vector-effect: none; opacity: 1; stroke-width: 0px; fill: rgb(144, 238, 144); fill-opacity: 0.75;"/></g><g class="point"><path d="M145.83,200.13V196.74H149.22V200.13Z" style="vector-effect: none; opacity: 1; stroke-width: 0px; fill: rgb(144, 238, 144); fill-opacity: 0.75;"/></g><g class="point"><path d="M149.22,200.13V198.51H152.61V200.13Z" style="vector-effect: none; opacity: 1; stroke-width: 0px; fill: rgb(144, 238, 144); fill-opacity: 0.75;"/></g><g class="point"><path d="M152.61,200.13V201.29H156V200.13Z" style="vector-effect: none; opacity: 1; stroke-width: 0px; fill: rgb(255, 0, 0); fill-opacity: 0.75;"/></g><g class="point"><path d="M156,200.13V201.55H159.39V200.13Z" style="vector-effect: none; opacity: 1; stroke-width: 0px; fill: rgb(255, 0, 0); fill-opacity: 0.75;"/></g><g class="point"><path d="M159.39,200.13V201.91H162.78V200.13Z" style="vector-effect: none; opacity: 1; stroke-width: 0px; fill: rgb(255, 0, 0); fill-opacity: 0.75;"/></g><g class="point"><path d="M162.78,200.13V201.97H166.17V200.13Z" style="vector-effect: none; opacity: 1; stroke-width: 0px; fill: rgb(255, 0, 0); fill-opacity: 0.75;"/></g><g class="point"><path d="M166.17,200.13V202.29H169.57V200.13Z" style="vector-effect: none; opacity: 1; stroke-width: 0px; fill: rgb(255, 0, 0); fill-opacity: 0.75;"/></g><g class="point"><path d="M169.57,200.13V202.44H172.96V200.13Z" style="vector-effect: none; opacity: 1; stroke-width: 0px; fill: rgb(255, 0, 0); fill-opacity: 0.75;"/></g><g class="point"><path d="M172.96,200.13V203.11H176.35V200.13Z" style="vector-effect: none; opacity: 1; stroke-width: 0px; fill: rgb(255, 0, 0); fill-opacity: 0.75;"/></g><g class="point"><path d="M176.35,200.13V202.85H179.74V200.13Z" style="vector-effect: none; opacity: 1; stroke-width: 0px; fill: rgb(240, 128, 128); fill-opacity: 0.75;"/></g><g class="point"><path d="M179.74,200.13V201.04H183.13V200.13Z" style="vector-effect: none; opacity: 1; stroke-width: 0px; fill: rgb(240, 128, 128); fill-opacity: 0.75;"/></g><g class="point"><path d="M183.13,200.13V201.48H186.52V200.13Z" style="vector-effect: none; opacity: 1; stroke-width: 0px; fill: rgb(255, 0, 0); fill-opacity: 0.75;"/></g><g class="point"><path d="M186.52,200.13V204.93H189.91V200.13Z" style="vector-effect: none; opacity: 1; stroke-width: 0px; fill: rgb(255, 0, 0); fill-opacity: 0.75;"/></g><g class="point"><path d="M189.91,200.13V206.47H193.3V200.13Z" style="vector-effect: none; opacity: 1; stroke-width: 0px; fill: rgb(255, 0, 0); fill-opacity: 0.75;"/></g><g class="point"><path d="M193.3,200.13V207.63H196.7V200.13Z" style="vector-effect: none; opacity: 1; stroke-width: 0px; fill: rgb(255, 0, 0); fill-opacity: 0.75;"/></g><g class="point"><path d="M196.7,200.13V208.14H200.09V200.13Z" style="vector-effect: none; opacity: 1; stroke-width: 0px; fill: rgb(255, 0, 0); fill-opacity: 0.75;"/></g><g class="point"><path d="M200.09,200.13V208.82H203.48V200.13Z" style="vector-effect: none; opacity: 1; stroke-width: 0px; fill: rgb(255, 0, 0); fill-opacity: 0.75;"/></g><g class="point"><path d="M203.48,200.13V207.97H206.87V200.13Z" style="vector-effect: none; opacity: 1; stroke-width: 0px; fill: rgb(240, 128, 128); fill-opacity: 0.75;"/></g><g class="point"><path d="M206.87,200.13V206.77H210.26V200.13Z" style="vector-effect: none; opacity: 1; stroke-width: 0px; fill: rgb(240, 128, 128); fill-opacity: 0.75;"/></g><g class="point"><path d="M210.26,200.13V204.82H213.65V200.13Z" style="vector-effect: none; opacity: 1; stroke-width: 0px; fill: rgb(240, 128, 128); fill-opacity: 0.75;"/></g><g class="point"><path d="M213.65,200.13V200.72H217.04V200.13Z" style="vector-effect: none; opacity: 1; stroke-width: 0px; fill: rgb(240, 128, 128); fill-opacity: 0.75;"/></g><g class="point"><path d="M217.04,200.13V197.7H220.43V200.13Z" style="vector-effect: none; opacity: 1; stroke-width: 0px; fill: rgb(0, 128, 0); fill-opacity: 0.75;"/></g><g class="point"><path d="M220.43,200.13V196.63H223.83V200.13Z" style="vector-effect: none; opacity: 1; stroke-width: 0px; fill: rgb(0, 128, 0); fill-opacity: 0.75;"/></g><g class="point"><path d="M223.83,200.13V196.99H227.22V200.13Z" style="vector-effect: none; opacity: 1; stroke-width: 0px; fill: rgb(144, 238, 144); fill-opacity: 0.75;"/></g><g class="point"><path d="M227.22,200.13V196.77H230.61V200.13Z" style="vector-effect: none; opacity: 1; stroke-width: 0px; fill: rgb(0, 128, 0); fill-opacity: 0.75;"/></g><g class="point"><path d="M230.61,200.13V195.42H234V200.13Z" style="vector-effect: none; opacity: 1; stroke-width: 0px; fill: rgb(0, 128, 0); fill-opacity: 0.75;"/></g><g class="point"><path d="M234,200.13V193.01H237.39V200.13Z" style="vector-effect: none; opacity: 1; stroke-width: 0px; fill: rgb(0, 128, 0); fill-opacity: 0.75;"/></g><g class="point"><path d="M237.39,200.13V189.94H240.78V200.13Z" style="vector-effect: none; opacity: 1; stroke-width: 0px; fill: rgb(0, 128, 0); fill-opacity: 0.75;"/></g><g class="point"><path d="M240.78,200.13V179.72H244.17V200.13Z" style="vector-effect: none; opacity: 1; stroke-width: 0px; fill: rgb(0, 128, 0); fill-opacity: 0.75;"/></g><g class="point"><path d="M244.17,200.13V177.39H247.57V200.13Z" style="vector-effect: none; opacity: 1; stroke-width: 0px; fill: rgb(0, 128, 0); fill-opacity: 0.75;"/></g><g class="point"><path d="M247.57,200.13V168.19H250.96V200.13Z" style="vector-effect: none; opacity: 1; stroke-width: 0px; fill: rgb(0, 128, 0); fill-opacity: 0.75;"/></g><g class="point"><path d="M250.96,200.13V162.64H254.35V200.13Z" style="vector-effect: none; opacity: 1; stroke-width: 0px; fill: rgb(0, 128, 0); fill-opacity: 0.75;"/></g><g class="point"><path d="M254.35,200.13V159.41H257.74V200.13Z" style="vector-effect: none; opacity: 1; stroke-width: 0px; fill: rgb(0, 128, 0); fill-opacity: 0.75;"/></g><g class="point"><path d="M257.74,200.13V163.8H261.13V200.13Z" style="vector-effect: none; opacity: 1; stroke-width: 0px; fill: rgb(144, 238, 144); fill-opacity: 0.75;"/></g><g class="point"><path d="M261.13,200.13V175.29H264.52V200.13Z" style="vector-effect: none; opacity: 1; stroke-width: 0px; fill: rgb(144, 238, 144); fill-opacity: 0.75;"/></g><g class="point"><path d="M264.52,200.13V185.46H267.91V200.13Z" style="vector-effect: none; opacity: 1; stroke-width: 0px; fill: rgb(144, 238, 144); fill-opacity: 0.75;"/></g><g class="point"><path d="M267.91,200.13V183.17H271.3V200.13Z" style="vector-effect: none; opacity: 1; stroke-width: 0px; fill: rgb(0, 128, 0); fill-opacity: 0.75;"/></g><g class="point"><path d="M271.3,200.13V185.99H274.7V200.13Z" style="vector-effect: none; opacity: 1; stroke-width: 0px; fill: rgb(144, 238, 144); fill-opacity: 0.75;"/></g><g class="point"><path d="M274.7,200.13V189.64H278.09V200.13Z" style="vector-effect: none; opacity: 1; stroke-width: 0px; fill: rgb(144, 238, 144); fill-opacity: 0.75;"/></g><g class="point"><path d="M278.09,200.13V196.61H281.48V200.13Z" style="vector-effect: none; opacity: 1; stroke-width: 0px; fill: rgb(144, 238, 144); fill-opacity: 0.75;"/></g><g class="point"><path d="M281.48,200.13V199.91H284.87V200.13Z" style="vector-effect: none; opacity: 1; stroke-width: 0px; fill: rgb(144, 238, 144); fill-opacity: 0.75;"/></g><g class="point"><path d="M284.87,200.13V201.81H288.26V200.13Z" style="vector-effect: none; opacity: 1; stroke-width: 0px; fill: rgb(255, 0, 0); fill-opacity: 0.75;"/></g><g class="point"><path d="M288.26,200.13V203.17H291.65V200.13Z" style="vector-effect: none; opacity: 1; stroke-width: 0px; fill: rgb(255, 0, 0); fill-opacity: 0.75;"/></g><g class="point"><path d="M291.65,200.13V197.94H295.04V200.13Z" style="vector-effect: none; opacity: 1; stroke-width: 0px; fill: rgb(0, 128, 0); fill-opacity: 0.75;"/></g><g class="point"><path d="M295.04,200.13V194.28H298.43V200.13Z" style="vector-effect: none; opacity: 1; stroke-width: 0px; fill: rgb(0, 128, 0); fill-opacity: 0.75;"/></g><g class="point"><path d="M298.43,200.13V194.25H301.83V200.13Z" style="vector-effect: none; opacity: 1; stroke-width: 0px; fill: rgb(0, 128, 0); fill-opacity: 0.75;"/></g><g class="point"><path d="M301.83,200.13V196.23H305.22V200.13Z" style="vector-effect: none; opacity: 1; stroke-width: 0px; fill: rgb(144, 238, 144); fill-opacity: 0.75;"/></g><g class="point"><path d="M305.22,200.13V202.49H308.61V200.13Z" style="vector-effect: none; opacity: 1; stroke-width: 0px; fill: rgb(255, 0, 0); fill-opacity: 0.75;"/></g><g class="point"><path d="M308.61,200.13V204.47H312V200.13Z" style="vector-effect: none; opacity: 1; stroke-width: 0px; fill: rgb(255, 0, 0); fill-opacity: 0.75;"/></g><g class="point"><path d="M312,200.13V206.6H315.39V200.13Z" style="vector-effect: none; opacity: 1; stroke-width: 0px; fill: rgb(255, 0, 0); fill-opacity: 0.75;"/></g><g class="point"><path d="M315.39,200.13V206.6H318.78V200.13Z" style="vector-effect: none; opacity: 1; stroke-width: 0px; fill: rgb(240, 128, 128); fill-opacity: 0.75;"/></g><g class="point"><path d="M318.78,200.13V213.19H322.17V200.13Z" style="vector-effect: none; opacity: 1; stroke-width: 0px; fill: rgb(255, 0, 0); fill-opacity: 0.75;"/></g><g class="point"><path d="M322.17,200.13V223.17H325.57V200.13Z" style="vector-effect: none; opacity: 1; stroke-width: 0px; fill: rgb(255, 0, 0); fill-opacity: 0.75;"/></g><g class="point"><path d="M325.57,200.13V227.82H328.96V200.13Z" style="vector-effect: none; opacity: 1; stroke-width: 0px; fill: rgb(255, 0, 0); fill-opacity: 0.75;"/></g><g class="point"><path d="M328.96,200.13V230.13H332.35V200.13Z" style="vector-effect: none; opacity: 1; stroke-width: 0px; fill: rgb(255, 0, 0); fill-opacity: 0.75;"/></g><g class="point"><path d="M332.35,200.13V228.31H335.74V200.13Z" style="vector-effect: none; opacity: 1; stroke-width: 0px; fill: rgb(240, 128, 128); fill-opacity: 0.75;"/></g><g class="point"><path d="M335.74,200.13V227.39H339.13V200.13Z" style="vector-effect: none; opacity: 1; stroke-width: 0px; fill: rgb(240, 128, 128); fill-opacity: 0.75;"/></g><g class="point"><path d="M339.13,200.13V228.98H342.52V200.13Z" style="vector-effect: none; opacity: 1; stroke-width: 0px; fill: rgb(255, 0, 0); fill-opacity: 0.75;"/></g><g class="point"><path d="M342.52,200.13V225.57H345.91V200.13Z" style="vector-effect: none; opacity: 1; stroke-width: 0px; fill: rgb(240, 128, 128); fill-opacity: 0.75;"/></g><g class="point"><path d="M345.91,200.13V223.41H349.3V200.13Z" style="vector-effect: none; opacity: 1; stroke-width: 0px; fill: rgb(240, 128, 128); fill-opacity: 0.75;"/></g><g class="point"><path d="M349.3,200.13V218.88H352.7V200.13Z" style="vector-effect: none; opacity: 1; stroke-width: 0px; fill: rgb(240, 128, 128); fill-opacity: 0.75;"/></g><g class="point"><path d="M352.7,200.13V214.52H356.09V200.13Z" style="vector-effect: none; opacity: 1; stroke-width: 0px; fill: rgb(240, 128, 128); fill-opacity: 0.75;"/></g><g class="point"><path d="M356.09,200.13V206.27H359.48V200.13Z" style="vector-effect: none; opacity: 1; stroke-width: 0px; fill: rgb(240, 128, 128); fill-opacity: 0.75;"/></g><g class="point"><path d="M359.48,200.13V199.53H362.87V200.13Z" style="vector-effect: none; opacity: 1; stroke-width: 0px; fill: rgb(0, 128, 0); fill-opacity: 0.75;"/></g><g class="point"><path d="M362.87,200.13V193.98H366.26V200.13Z" style="vector-effect: none; opacity: 1; stroke-width: 0px; fill: rgb(0, 128, 0); fill-opacity: 0.75;"/></g><g class="point"><path d="M366.26,200.13V187.57H369.65V200.13Z" style="vector-effect: none; opacity: 1; stroke-width: 0px; fill: rgb(0, 128, 0); fill-opacity: 0.75;"/></g><g class="point"><path d="M369.65,200.13V187.29H373.04V200.13Z" style="vector-effect: none; opacity: 1; stroke-width: 0px; fill: rgb(0, 128, 0); fill-opacity: 0.75;"/></g><g class="point"><path d="M373.04,200.13V186.1H376.43V200.13Z" style="vector-effect: none; opacity: 1; stroke-width: 0px; fill: rgb(0, 128, 0); fill-opacity: 0.75;"/></g><g class="point"><path d="M376.43,200.13V183.74H379.83V200.13Z" style="vector-effect: none; opacity: 1; stroke-width: 0px; fill: rgb(0, 128, 0); fill-opacity: 0.75;"/></g><g class="point"><path d="M379.83,200.13V176.75H383.22V200.13Z" style="vector-effect: none; opacity: 1; stroke-width: 0px; fill: rgb(0, 128, 0); fill-opacity: 0.75;"/></g><g class="point"><path d="M383.22,200.13V167.96H386.61V200.13Z" style="vector-effect: none; opacity: 1; stroke-width: 0px; fill: rgb(0, 128, 0); fill-opacity: 0.75;"/></g><g class="point"><path d="M386.61,200.13V163.06H390V200.13Z" style="vector-effect: none; opacity: 1; stroke-width: 0px; fill: rgb(0, 128, 0); fill-opacity: 0.75;"/></g><g class="point"><path d="M390,200.13V160.93H393.39V200.13Z" style="vector-effect: none; opacity: 1; stroke-width: 0px; fill: rgb(0, 128, 0); fill-opacity: 0.75;"/></g><g class="point"><path d="M393.39,200.13V153.77H396.78V200.13Z" style="vector-effect: none; opacity: 1; stroke-width: 0px; fill: rgb(0, 128, 0); fill-opacity: 0.75;"/></g><g class="point"><path d="M396.78,200.13V138.98H400.17V200.13Z" style="vector-effect: none; opacity: 1; stroke-width: 0px; fill: rgb(0, 128, 0); fill-opacity: 0.75;"/></g><g class="point"><path d="M400.17,200.13V154.41H403.57V200.13Z" style="vector-effect: none; opacity: 1; stroke-width: 0px; fill: rgb(144, 238, 144); fill-opacity: 0.75;"/></g><g class="point"><path d="M403.57,200.13V154H406.96V200.13Z" style="vector-effect: none; opacity: 1; stroke-width: 0px; fill: rgb(0, 128, 0); fill-opacity: 0.75;"/></g><g class="point"><path d="M406.96,200.13V162.42H410.35V200.13Z" style="vector-effect: none; opacity: 1; stroke-width: 0px; fill: rgb(144, 238, 144); fill-opacity: 0.75;"/></g><g class="point"><path d="M410.35,200.13V183.76H413.74V200.13Z" style="vector-effect: none; opacity: 1; stroke-width: 0px; fill: rgb(144, 238, 144); fill-opacity: 0.75;"/></g><g class="point"><path d="M413.74,200.13V201.99H417.13V200.13Z" style="vector-effect: none; opacity: 1; stroke-width: 0px; fill: rgb(255, 0, 0); fill-opacity: 0.75;"/></g><g class="point"><path d="M417.13,200.13V212.27H420.52V200.13Z" style="vector-effect: none; opacity: 1; stroke-width: 0px; fill: rgb(255, 0, 0); fill-opacity: 0.75;"/></g><g class="point"><path d="M420.52,200.13V206.52H423.91V200.13Z" style="vector-effect: none; opacity: 1; stroke-width: 0px; fill: rgb(240, 128, 128); fill-opacity: 0.75;"/></g><g class="point"><path d="M423.91,200.13V212.24H427.3V200.13Z" style="vector-effect: none; opacity: 1; stroke-width: 0px; fill: rgb(255, 0, 0); fill-opacity: 0.75;"/></g><g class="point"><path d="M427.3,200.13V219.15H430.7V200.13Z" style="vector-effect: none; opacity: 1; stroke-width: 0px; fill: rgb(255, 0, 0); fill-opacity: 0.75;"/></g><g class="point"><path d="M430.7,200.13V221.19H434.09V200.13Z" style="vector-effect: none; opacity: 1; stroke-width: 0px; fill: rgb(255, 0, 0); fill-opacity: 0.75;"/></g><g class="point"><path d="M434.09,200.13V219.9H437.48V200.13Z" style="vector-effect: none; opacity: 1; stroke-width: 0px; fill: rgb(240, 128, 128); fill-opacity: 0.75;"/></g><g class="point"><path d="M437.48,200.13V209.93H440.87V200.13Z" style="vector-effect: none; opacity: 1; stroke-width: 0px; fill: rgb(240, 128, 128); fill-opacity: 0.75;"/></g><g class="point"><path d="M440.87,200.13V201.12H444.26V200.13Z" style="vector-effect: none; opacity: 1; stroke-width: 0px; fill: rgb(240, 128, 128); fill-opacity: 0.75;"/></g><g class="point"><path d="M444.26,200.13V201.35H447.65V200.13Z" style="vector-effect: none; opacity: 1; stroke-width: 0px; fill: rgb(255, 0, 0); fill-opacity: 0.75;"/></g><g class="point"><path d="M447.65,200.13V211.48H451.04V200.13Z" style="vector-effect: none; opacity: 1; stroke-width: 0px; fill: rgb(255, 0, 0); fill-opacity: 0.75;"/></g><g class="point"><path d="M451.04,200.13V213.27H454.43V200.13Z" style="vector-effect: none; opacity: 1; stroke-width: 0px; fill: rgb(255, 0, 0); fill-opacity: 0.75;"/></g><g class="point"><path d="M454.43,200.13V219.52H457.83V200.13Z" style="vector-effect: none; opacity: 1; stroke-width: 0px; fill: rgb(255, 0, 0); fill-opacity: 0.75;"/></g><g class="point"><path d="M457.83,200.13V236.14H461.22V200.13Z" style="vector-effect: none; opacity: 1; stroke-width: 0px; fill: rgb(255, 0, 0); fill-opacity: 0.75;"/></g><g class="point"><path d="M461.22,200.13V238.52H464.61V200.13Z" style="vector-effect: none; opacity: 1; stroke-width: 0px; fill: rgb(255, 0, 0); fill-opacity: 0.75;"/></g><g class="point"><path d="M464.61,200.13V254.68H468V200.13Z" style="vector-effect: none; opacity: 1; stroke-width: 0px; fill: rgb(255, 0, 0); fill-opacity: 0.75;"/></g><g class="point"><path d="M468,200.13V260.3H471.39V200.13Z" style="vector-effect: none; opacity: 1; stroke-width: 0px; fill: rgb(255, 0, 0); fill-opacity: 0.75;"/></g><g class="point"><path d="M471.39,200.13V250.46H474.78V200.13Z" style="vector-effect: none; opacity: 1; stroke-width: 0px; fill: rgb(240, 128, 128); fill-opacity: 0.75;"/></g><g class="point"><path d="M474.78,200.13V243.67H478.17V200.13Z" style="vector-effect: none; opacity: 1; stroke-width: 0px; fill: rgb(240, 128, 128); fill-opacity: 0.75;"/></g><g class="point"><path d="M478.17,200.13V234.91H481.57V200.13Z" style="vector-effect: none; opacity: 1; stroke-width: 0px; fill: rgb(240, 128, 128); fill-opacity: 0.75;"/></g><g class="point"><path d="M481.57,200.13V229.8H484.96V200.13Z" style="vector-effect: none; opacity: 1; stroke-width: 0px; fill: rgb(240, 128, 128); fill-opacity: 0.75;"/></g><g class="point"><path d="M484.96,200.13V228.16H488.35V200.13Z" style="vector-effect: none; opacity: 1; stroke-width: 0px; fill: rgb(240, 128, 128); fill-opacity: 0.75;"/></g><g class="point"><path d="M488.35,200.13V230.79H491.74V200.13Z" style="vector-effect: none; opacity: 1; stroke-width: 0px; fill: rgb(255, 0, 0); fill-opacity: 0.75;"/></g><g class="point"><path d="M491.74,200.13V231.95H495.13V200.13Z" style="vector-effect: none; opacity: 1; stroke-width: 0px; fill: rgb(255, 0, 0); fill-opacity: 0.75;"/></g><g class="point"><path d="M495.13,200.13V229.95H498.52V200.13Z" style="vector-effect: none; opacity: 1; stroke-width: 0px; fill: rgb(240, 128, 128); fill-opacity: 0.75;"/></g><g class="point"><path d="M498.52,200.13V227.59H501.91V200.13Z" style="vector-effect: none; opacity: 1; stroke-width: 0px; fill: rgb(240, 128, 128); fill-opacity: 0.75;"/></g><g class="point"><path d="M501.91,200.13V228.97H505.3V200.13Z" style="vector-effect: none; opacity: 1; stroke-width: 0px; fill: rgb(255, 0, 0); fill-opacity: 0.75;"/></g><g class="point"><path d="M505.3,200.13V227.35H508.7V200.13Z" style="vector-effect: none; opacity: 1; stroke-width: 0px; fill: rgb(240, 128, 128); fill-opacity: 0.75;"/></g><g class="point"><path d="M508.7,200.13V225.08H512.09V200.13Z" style="vector-effect: none; opacity: 1; stroke-width: 0px; fill: rgb(240, 128, 128); fill-opacity: 0.75;"/></g><g class="point"><path d="M512.09,200.13V221.1H515.48V200.13Z" style="vector-effect: none; opacity: 1; stroke-width: 0px; fill: rgb(240, 128, 128); fill-opacity: 0.75;"/></g><g class="point"><path d="M515.48,200.13V211.88H518.87V200.13Z" style="vector-effect: none; opacity: 1; stroke-width: 0px; fill: rgb(240, 128, 128); fill-opacity: 0.75;"/></g><g class="point"><path d="M518.87,200.13V201.65H522.26V200.13Z" style="vector-effect: none; opacity: 1; stroke-width: 0px; fill: rgb(240, 128, 128); fill-opacity: 0.75;"/></g><g class="point"><path d="M522.26,200.13V193.5H525.65V200.13Z" style="vector-effect: none; opacity: 1; stroke-width: 0px; fill: rgb(0, 128, 0); fill-opacity: 0.75;"/></g><g class="point"><path d="M525.65,200.13V185.04H529.04V200.13Z" style="vector-effect: none; opacity: 1; stroke-width: 0px; fill: rgb(0, 128, 0); fill-opacity: 0.75;"/></g><g class="point"><path d="M529.04,200.13V178.59H532.43V200.13Z" style="vector-effect: none; opacity: 1; stroke-width: 0px; fill: rgb(0, 128, 0); fill-opacity: 0.75;"/></g><g class="point"><path d="M532.43,200.13V166.12H535.83V200.13Z" style="vector-effect: none; opacity: 1; stroke-width: 0px; fill: rgb(0, 128, 0); fill-opacity: 0.75;"/></g><g class="point"><path d="M535.83,200.13V163.58H539.22V200.13Z" style="vector-effect: none; opacity: 1; stroke-width: 0px; fill: rgb(0, 128, 0); fill-opacity: 0.75;"/></g><g class="point"><path d="M539.22,200.13V158.66H542.61V200.13Z" style="vector-effect: none; opacity: 1; stroke-width: 0px; fill: rgb(0, 128, 0); fill-opacity: 0.75;"/></g><g class="point"><path d="M542.61,200.13V157.5H546V200.13Z" style="vector-effect: none; opacity: 1; stroke-width: 0px; fill: rgb(0, 128, 0); fill-opacity: 0.75;"/></g><g class="point"><path d="M546,200.13V160.27H549.39V200.13Z" style="vector-effect: none; opacity: 1; stroke-width: 0px; fill: rgb(144, 238, 144); fill-opacity: 0.75;"/></g><g class="point"><path d="M549.39,200.13V169.97H552.78V200.13Z" style="vector-effect: none; opacity: 1; stroke-width: 0px; fill: rgb(144, 238, 144); fill-opacity: 0.75;"/></g><g class="point"><path d="M552.78,200.13V176.02H556.17V200.13Z" style="vector-effect: none; opacity: 1; stroke-width: 0px; fill: rgb(144, 238, 144); fill-opacity: 0.75;"/></g><g class="point"><path d="M556.17,200.13V182.98H559.57V200.13Z" style="vector-effect: none; opacity: 1; stroke-width: 0px; fill: rgb(144, 238, 144); fill-opacity: 0.75;"/></g><g class="point"><path d="M559.57,200.13V194.03H562.96V200.13Z" style="vector-effect: none; opacity: 1; stroke-width: 0px; fill: rgb(144, 238, 144); fill-opacity: 0.75;"/></g><g class="point"><path d="M562.96,200.13V211.06H566.35V200.13Z" style="vector-effect: none; opacity: 1; stroke-width: 0px; fill: rgb(255, 0, 0); fill-opacity: 0.75;"/></g><g class="point"><path d="M566.35,200.13V218.63H569.74V200.13Z" style="vector-effect: none; opacity: 1; stroke-width: 0px; fill: rgb(255, 0, 0); fill-opacity: 0.75;"/></g><g class="point"><path d="M569.74,200.13V222.02H573.13V200.13Z" style="vector-effect: none; opacity: 1; stroke-width: 0px; fill: rgb(255, 0, 0); fill-opacity: 0.75;"/></g><g class="point"><path d="M573.13,200.13V224.85H576.52V200.13Z" style="vector-effect: none; opacity: 1; stroke-width: 0px; fill: rgb(255, 0, 0); fill-opacity: 0.75;"/></g><g class="point"><path d="M576.52,200.13V224.26H579.91V200.13Z" style="vector-effect: none; opacity: 1; stroke-width: 0px; fill: rgb(240, 128, 128); fill-opacity: 0.75;"/></g><g class="point"><path d="M579.91,200.13V216.43H583.3V200.13Z" style="vector-effect: none; opacity: 1; stroke-width: 0px; fill: rgb(240, 128, 128); fill-opacity: 0.75;"/></g><g class="point"><path d="M583.3,200.13V212.49H586.7V200.13Z" style="vector-effect: none; opacity: 1; stroke-width: 0px; fill: rgb(240, 128, 128); fill-opacity: 0.75;"/></g><g class="point"><path d="M586.7,200.13V216.43H590.09V200.13Z" style="vector-effect: none; opacity: 1; stroke-width: 0px; fill: rgb(255, 0, 0); fill-opacity: 0.75;"/></g><g class="point"><path d="M590.09,200.13V218.17H593.48V200.13Z" style="vector-effect: none; opacity: 1; stroke-width: 0px; fill: rgb(255, 0, 0); fill-opacity: 0.75;"/></g><g class="point"><path d="M593.48,200.13V215.24H596.87V200.13Z" style="vector-effect: none; opacity: 1; stroke-width: 0px; fill: rgb(240, 128, 128); fill-opacity: 0.75;"/></g><g class="point"><path d="M596.87,200.13V215.35H600.26V200.13Z" style="vector-effect: none; opacity: 1; stroke-width: 0px; fill: rgb(255, 0, 0); fill-opacity: 0.75;"/></g><g class="point"><path d="M600.26,200.13V214.8H603.65V200.13Z" style="vector-effect: none; opacity: 1; stroke-width: 0px; fill: rgb(240, 128, 128); fill-opacity: 0.75;"/></g><g class="point"><path d="M603.65,200.13V211.01H607.04V200.13Z" style="vector-effect: none; opacity: 1; stroke-width: 0px; fill: rgb(240, 128, 128); fill-opacity: 0.75;"/></g><g class="point"><path d="M607.04,200.13V210.01H610.43V200.13Z" style="vector-effect: none; opacity: 1; stroke-width: 0px; fill: rgb(240, 128, 128); fill-opacity: 0.75;"/></g><g class="point"><path d="M610.43,200.13V213.53H613.83V200.13Z" style="vector-effect: none; opacity: 1; stroke-width: 0px; fill: rgb(255, 0, 0); fill-opacity: 0.75;"/></g><g class="point"><path d="M613.83,200.13V217.59H617.22V200.13Z" style="vector-effect: none; opacity: 1; stroke-width: 0px; fill: rgb(255, 0, 0); fill-opacity: 0.75;"/></g><g class="point"><path d="M617.22,200.13V218.02H620.61V200.13Z" style="vector-effect: none; opacity: 1; stroke-width: 0px; fill: rgb(255, 0, 0); fill-opacity: 0.75;"/></g><g class="point"><path d="M620.61,200.13V216.75H624V200.13Z" style="vector-effect: none; opacity: 1; stroke-width: 0px; fill: rgb(240, 128, 128); fill-opacity: 0.75;"/></g></g></g></g><g class="scatterlayer mlayer"><g class="trace scatter tracea678ab60-ae00-4035-9865-bc2e322c2c29" style="stroke-miterlimit: 2; opacity: 1;"><g class="fills"/><g class="errorbars"/><g class="lines"><path class="js-line" d="M86.48,194.39L96.65,192.77L100.04,192.31L106.83,191.2L110.22,180.59L113.61,171.2L117,164.87L123.78,154.07L127.17,149L130.57,144.35L133.96,142.52L137.35,140.08L140.74,142.48L154.3,151.35L157.7,151.96L178.04,156.72L181.43,155.13L184.83,155.9L188.22,160.55L198.39,169.23L201.78,172.08L208.57,173.65L211.96,172.88L218.74,165.3L222.13,163.36L228.91,161.87L232.3,159.35L235.7,155.16L239.09,149.54L242.48,134.22L245.87,126.2L252.65,94.1L256.04,80.68L259.43,75.99L262.83,81.27L266.22,87.77L269.61,81.24L273,80.53L276.39,81.55L279.78,87.65L283.17,90.89L289.96,95.34L293.35,89.55L296.74,84.44L300.13,82.94L303.52,83.94L306.91,90.79L313.7,97.6L317.09,99.22L320.48,109.08L323.87,124.82L330.65,146.2L334.04,151.42L337.43,157.31L340.83,166.13L347.61,172.74L351,172.89L354.39,172.13L357.78,165.41L364.57,151.43L367.96,141.89L371.35,138.4L374.74,133.7L378.13,127.24L381.52,114.41L388.3,83.41L391.7,71.48L395.09,52.73L398.48,22.66L401.87,26.66L405.26,14.71L408.65,13.7L412.04,30.94L415.43,49.64L418.83,62.96L422.22,58.81L425.61,67.56L429,79.22L432.39,86.53L435.78,90.18L439.17,82.66L442.57,74.1L445.96,74.64L449.35,87.6L452.74,92.67L456.13,103.77L459.52,129.39L462.91,141.37L466.3,171.17L469.7,191.83L473.09,194.57L476.48,198.67L479.87,198.6L483.26,200.91L486.65,206.27L493.43,225.68L496.83,231.14L500.22,235.64L503.61,244.23L510.39,253.38L513.78,254.65L517.17,248.37L520.57,238.52L523.96,228.71L527.35,216.48L530.74,204.64L534.13,183.67L537.52,172L540.91,156.71L544.3,144.89L547.7,137.69L551.09,139.86L554.48,139.88L557.87,142.55L561.26,152.07L564.65,171.84L568.04,184.03L574.83,201.9L578.22,207.35L581.61,203.6L585,202.75L591.78,217.01L595.17,217.86L601.96,224.9L605.35,223.82L608.74,225.29L612.13,232.16L615.52,240.58L618.91,245.49L622.3,248.37" style="vector-effect: none; fill: none; stroke: rgb(108, 166, 205); stroke-opacity: 1; stroke-width: 2px; opacity: 1;"/></g><g class="points"/><g class="text"/></g><g class="trace scatter tracec889c947-bbb8-4845-a9fd-e4d0db038905" style="stroke-miterlimit: 2; opacity: 1;"><g class="fills"/><g class="errorbars"/><g class="lines"><path class="js-line" d="M113.61,186.53L127.17,168.06L130.57,163.32L137.35,155.34L140.74,152.77L147.52,150.3L150.91,149.9L167.87,151.99L171.26,152.57L181.43,154.22L184.83,154.56L191.61,157.34L195,159.22L208.57,167.01L211.96,168.19L218.74,167.73L222.13,166.85L232.3,164.05L235.7,162.27L239.09,159.73L242.48,154.63L245.87,148.94L249.26,140.96L259.43,112.32L262.83,106.11L273,94.67L276.39,92.05L279.78,91.17L283.17,91.11L289.96,92.29L293.35,91.74L303.52,87.84L306.91,88.43L313.7,91.13L317.09,92.75L320.48,96.02L323.87,101.78L347.61,149.45L351,154.14L354.39,157.74L357.78,159.27L361.17,159.12L364.57,157.58L374.74,147.73L378.13,143.63L381.52,137.79L384.91,129.74L391.7,110.68L395.09,99.09L398.48,83.8L401.87,72.37L408.65,51.41L412.04,47.32L415.43,47.78L418.83,50.82L422.22,52.42L425.61,55.45L435.78,70.41L439.17,72.86L445.96,73.41L449.35,76.25L452.74,79.53L456.13,84.38L462.91,102.98L466.3,116.62L473.09,144.24L476.48,155.13L483.26,171.24L486.65,178.25L503.61,215.39L507,222.2L513.78,233.68L517.17,236.62L520.57,237L523.96,235.34L527.35,231.57L530.74,226.18L537.52,208.54L540.91,198.18L547.7,177.55L551.09,170.02L554.48,163.99L557.87,159.7L561.26,158.17L564.65,160.91L571.43,171L574.83,177.18L578.22,183.22L581.61,187.29L588.39,194.46L591.78,198.97L601.96,210.22L605.35,212.94L612.13,218.76L615.52,223.13L622.3,231.75" style="vector-effect: none; fill: none; stroke: rgb(108, 118, 205); stroke-opacity: 1; stroke-width: 2px; opacity: 1;"/></g><g class="points"/><g class="text"/></g></g></g><g class="overplot"/><path class="xlines-above crisp" d="M0,0" style="fill: none;"/><path class="ylines-above crisp" d="M0,0" style="fill: none;"/><g class="overlines-above"/><g class="xaxislayer-above"><g class="xtick"><text text-anchor="middle" x="0" y="333" transform="translate(47.7,0)" style="font-family: 'Open Sans', verdana, arial, sans-serif; font-size: 12px; fill: rgb(42, 63, 95); fill-opacity: 1; white-space: pre; opacity: 1;">Mar 2019</text></g><g class="xtick"><text text-anchor="middle" x="0" y="333" style="font-family: 'Open Sans', verdana, arial, sans-serif; font-size: 12px; fill: rgb(42, 63, 95); fill-opacity: 1; white-space: pre; opacity: 1;" transform="translate(152.82999999999998,0)">Apr 2019</text></g><g class="xtick"><text text-anchor="middle" x="0" y="333" style="font-family: 'Open Sans', verdana, arial, sans-serif; font-size: 12px; fill: rgb(42, 63, 95); fill-opacity: 1; white-space: pre; opacity: 1;" transform="translate(254.57,0)">May 2019</text></g><g class="xtick"><text text-anchor="middle" x="0" y="333" style="font-family: 'Open Sans', verdana, arial, sans-serif; font-size: 12px; fill: rgb(42, 63, 95); fill-opacity: 1; white-space: pre; opacity: 1;" transform="translate(359.7,0)">Jun 2019</text></g><g class="xtick"><text text-anchor="middle" x="0" y="333" style="font-family: 'Open Sans', verdana, arial, sans-serif; font-size: 12px; fill: rgb(42, 63, 95); fill-opacity: 1; white-space: pre; opacity: 1;" transform="translate(461.43,0)">Jul 2019</text></g><g class="xtick"><text text-anchor="middle" x="0" y="333" style="font-family: 'Open Sans', verdana, arial, sans-serif; font-size: 12px; fill: rgb(42, 63, 95); fill-opacity: 1; white-space: pre; opacity: 1;" transform="translate(566.57,0)">Aug 2019</text></g></g><g class="yaxislayer-above"><g class="ytick"><text text-anchor="end" x="45" y="4.199999999999999" transform="translate(0,315.97)" style="font-family: 'Open Sans', verdana, arial, sans-serif; font-size: 12px; fill: rgb(42, 63, 95); fill-opacity: 1; white-space: pre; opacity: 1;">−400</text></g><g class="ytick"><text text-anchor="end" x="45" y="4.199999999999999" style="font-family: 'Open Sans', verdana, arial, sans-serif; font-size: 12px; fill: rgb(42, 63, 95); fill-opacity: 1; white-space: pre; opacity: 1;" transform="translate(0,281.05)">−200</text></g><g class="ytick"><text text-anchor="end" x="45" y="4.199999999999999" style="font-family: 'Open Sans', verdana, arial, sans-serif; font-size: 12px; fill: rgb(42, 63, 95); fill-opacity: 1; white-space: pre; opacity: 1;" transform="translate(0,246.13)">0</text></g><g class="ytick"><text text-anchor="end" x="45" y="4.199999999999999" style="font-family: 'Open Sans', verdana, arial, sans-serif; font-size: 12px; fill: rgb(42, 63, 95); fill-opacity: 1; white-space: pre; opacity: 1;" transform="translate(0,211.21)">200</text></g><g class="ytick"><text text-anchor="end" x="45" y="4.199999999999999" style="font-family: 'Open Sans', verdana, arial, sans-serif; font-size: 12px; fill: rgb(42, 63, 95); fill-opacity: 1; white-space: pre; opacity: 1;" transform="translate(0,176.29)">400</text></g><g class="ytick"><text text-anchor="end" x="45" y="4.199999999999999" style="font-family: 'Open Sans', verdana, arial, sans-serif; font-size: 12px; fill: rgb(42, 63, 95); fill-opacity: 1; white-space: pre; opacity: 1;" transform="translate(0,141.36)">600</text></g><g class="ytick"><text text-anchor="end" x="45" y="4.199999999999999" style="font-family: 'Open Sans', verdana, arial, sans-serif; font-size: 12px; fill: rgb(42, 63, 95); fill-opacity: 1; white-space: pre; opacity: 1;" transform="translate(0,106.44)">800</text></g><g class="ytick"><text text-anchor="end" x="45" y="4.199999999999999" style="font-family: 'Open Sans', verdana, arial, sans-serif; font-size: 12px; fill: rgb(42, 63, 95); fill-opacity: 1; white-space: pre; opacity: 1;" transform="translate(0,71.52)">1000</text></g></g><g class="overaxes-above"/></g></g><g class="polarlayer"/><g class="smithlayer"/><g class="ternarylayer"/><g class="geolayer"/><g class="funnelarealayer"/><g class="pielayer"/><g class="iciclelayer"/><g class="treemaplayer"/><g class="sunburstlayer"/><g class="glimages"/><defs id="topdefs-7c66b2"><g class="clips"/><clipPath id="legend7c66b2"><rect width="271" height="29" x="0" y="0"/></clipPath></defs><g class="layer-above"><g class="imagelayer"/><g class="shapelayer"/></g><g class="infolayer"><g class="legend" pointer-events="all" transform="translate(399,11.519999999999996)"><rect class="bg" shape-rendering="crispEdges" style="stroke: rgb(68, 68, 68); stroke-opacity: 1; fill: rgb(255, 255, 255); fill-opacity: 1; stroke-width: 0px;" width="271" height="29" x="0" y="0"/><g class="scrollbox" transform="" clip-path="url(#legend7c66b2)"><g class="groups"><g class="traces" transform="translate(0,14.5)" style="opacity: 1;"><text class="legendtext" text-anchor="start" x="40" y="4.680000000000001" style="font-family: 'Open Sans', verdana, arial, sans-serif; font-size: 12px; fill: rgb(42, 63, 95); fill-opacity: 1; white-space: pre;">MACD</text><g class="layers" style="opacity: 1;"><g class="legendfill"/><g class="legendlines"><path class="js-line" d="M5,0h30" style="fill: none; stroke: rgb(108, 166, 205); stroke-opacity: 1; stroke-width: 2px;"/></g><g class="legendsymbols"><g class="legendpoints"/></g></g><rect class="legendtoggle" x="0" y="-9.5" width="78.453125" height="19" style="fill: rgb(0, 0, 0); fill-opacity: 0;"/></g><g class="traces" transform="translate(80.953125,14.5)" style="opacity: 1;"><text class="legendtext" text-anchor="start" x="40" y="4.680000000000001" style="font-family: 'Open Sans', verdana, arial, sans-serif; font-size: 12px; fill: rgb(42, 63, 95); fill-opacity: 1; white-space: pre;">Signal</text><g class="layers" style="opacity: 1;"><g class="legendfill"/><g class="legendlines"><path class="js-line" d="M5,0h30" style="fill: none; stroke: rgb(108, 118, 205); stroke-opacity: 1; stroke-width: 2px;"/></g><g class="legendsymbols"><g class="legendpoints"/></g></g><rect class="legendtoggle" x="0" y="-9.5" width="79.578125" height="19" style="fill: rgb(0, 0, 0); fill-opacity: 0;"/></g><g class="traces" transform="translate(163.03125,14.5)" style="opacity: 1;"><text class="legendtext" text-anchor="start" x="40" y="4.680000000000001" style="font-family: 'Open Sans', verdana, arial, sans-serif; font-size: 12px; fill: rgb(42, 63, 95); fill-opacity: 1; white-space: pre;">Histogram</text><g class="layers" style="opacity: 1;"><g class="legendfill"/><g class="legendlines"/><g class="legendsymbols"><g class="legendpoints"><path class="legendundefined" d="M6,6H-6V-6H6Z" transform="translate(20,0)" style="stroke-width: 0px; fill: rgb(192, 192, 192); fill-opacity: 0.75;"/></g></g></g><rect class="legendtoggle" x="0" y="-9.5" width="104.5625" height="19" style="fill: rgb(0, 0, 0); fill-opacity: 0;"/></g></g></g><rect class="scrollbar" rx="20" ry="3" width="0" height="0" style="fill: rgb(128, 139, 164); fill-opacity: 1;" x="0" y="0"/></g><g class="g-gtitle"/><g class="g-xtitle"/><g class="g-ytitle"/></g></svg>