<svg class="main-svg" xmlns="http://www.w3.org/2000/svg" xmlns:xlink="http://www.w3.org/1999/xlink" width="700" height="350" style="" viewBox="0 0 700 350"><rect x="0" y="0" width="700" height="350" style="fill: rgb(33, 34, 38); fill-opacity: 1;"/><defs id="defs-cbdeef"><g class="clips"><clipPath id="clipcbdeefxyplot" class="plotclip"><rect width="626" height="274"/></clipPath><clipPath class="axesclip" id="clipcbdeefx"><rect x="44" y="0" width="626" height="350"/></clipPath><clipPath class="axesclip" id="clipcbdeefy"><rect x="0" y="46" width="700" height="274"/></clipPath><clipPath class="axesclip" id="clipcbdeefxy"><rect x="44" y="46" width="626" height="274"/></clipPath></g><g class="gradients"/><g class="patterns"/></defs><g class="bglayer"/><g class="layer-below"><g class="imagelayer"/><g class="shapelayer"/></g><g class="cartesianlayer"><g class="subplot xy"><g class="layer-subplot"><g class="shapelayer"/><g class="imagelayer"/></g><g class="minor-gridlayer"><g class="x"/><g class="y"/></g><g class="gridlayer"><g class="x"><path class="xgrid crisp" transform="translate(150.04000000000002,0)" d="M0,46v274" style="stroke: rgb(49, 52, 57); stroke-opacity: 1; stroke-width: 1px;"/><path class="xgrid crisp" transform="translate(252.67,0)" d="M0,46v274" style="stroke: rgb(49, 52, 57); stroke-opacity: 1; stroke-width: 1px;"/><path class="xgrid crisp" transform="translate(358.71,0)" d="M0,46v274" style="stroke: rgb(49, 52, 57); stroke-opacity: 1; stroke-width: 1px;"/><path class="xgrid crisp" transform="translate(461.33,0)" d="M0,46v274" style="stroke: rgb(49, 52, 57); stroke-opacity: 1; stroke-width: 1px;"/><path class="xgrid crisp" transform="translate(567.38,0)" d="M0,46v274" style="stroke: rgb(49, 52, 57); stroke-opacity: 1; stroke-width: 1px;"/></g><g class="y"><path class="ygrid crisp" transform="translate(0,274.65999999999997)" d="M44,0h626" style="stroke: rgb(49, 52, 57); stroke-opacity: 1; stroke-width: 1px;"/><path class="ygrid crisp" transform="translate(0,235.71)" d="M44,0h626" style="stroke: rgb(49, 52, 57); stroke-opacity: 1; stroke-width: 1px;"/><path class="ygrid crisp" transform="translate(0,196.77)" d="M44,0h626" style="stroke: rgb(49, 52, 57); stroke-opacity: 1; stroke-width: 1px;"/><path class="ygrid crisp" transform="translate(0,157.82999999999998)" d="M44,0h626" style="stroke: rgb(49, 52, 57); stroke-opacity: 1; stroke-width: 1px;"/><path class="ygrid crisp" transform="translate(0,118.89)" d="M44,0h626" style="stroke: rgb(49, 52, 57); stroke-opacity: 1; stroke-width: 1px;"/><path class="ygrid crisp" transform="translate(0,79.95)" d="M44,0h626" style="stroke: rgb(49, 52, 57); stroke-opacity: 1; stroke-width: 1px;"/></g></g><g class="zerolinelayer"><path class="yzl zl crisp" transform="translate(0,313.6)" d="M44,0h626" style="stroke: rgb(49, 52, 57); stroke-opacity: 1; stroke-width: 2px;"/></g><path class="xlines-below"/><path class="ylines-below"/><g class="overlines-below"/><g class="xaxislayer-below"/><g class="yaxislayer-below"/><g class="overaxes-below"/><g class="plot" transform="translate(44,46)" clip-path="url(#clipcbdeefxyplot)"><g class="scatterlayer mlayer"><g class="trace scatter tracea5d01e94-9b86-4bee-a628-f5a5554e8f6d" style="stroke-miterlimit: 2; opacity: 1;"><g class="fills"/><g class="errorbars"/><g class="lines"><path class="js-line" d="M44.47,258.32L47.89,257.93L51.31,255.65L54.73,255.01L58.15,257.54L64.99,254.87L68.42,255L75.26,255.45L78.68,255.6L95.78,260.3L99.2,259.6L102.62,259.15L106.04,257.68L109.46,225.28L112.89,207.46L119.73,188.51L123.15,181.98L126.57,175.59L129.99,171.6L133.41,172.22L136.83,172.04L140.25,178.27L143.67,186.37L147.09,197.74L150.51,214.54L153.93,243.42L157.36,245.64L160.78,246.39L164.2,248.74L171.04,249.14L174.46,248.42L177.88,246.61L181.3,240.41L184.72,238.54L188.14,240.36L198.4,245.35L201.83,249.08L208.67,249.72L212.09,248.04L218.93,231.76L222.35,227.75L225.77,225.35L229.19,222L236.03,210.2L239.45,201.29L242.87,170.27L246.3,159.3L249.72,131.06L253.14,109.09L256.56,91.43L259.98,87.97L263.4,92.42L266.82,99.17L270.24,98.74L273.66,109.41L277.08,125.2L280.5,146.59L287.34,194.72L290.77,199.38L294.19,202.13L297.61,189.04L301.03,181.02L304.45,175.91L307.87,175.81L311.29,183.16L314.71,197.97L318.13,194.64L321.55,196.75L324.97,192.02L328.39,195.08L331.81,194.01L335.23,194.67L338.66,193.48L342.08,189.48L345.5,194.44L348.92,198.98L352.34,204.81L355.76,205.46L359.18,202.78L366.02,189.77L369.44,169.99L372.86,165.61L376.28,159.23L379.7,151.65L383.13,130.61L386.55,104.42L389.97,91.24L393.39,78.99L396.81,58.86L400.23,13.7L403.65,25.35L407.07,15.41L410.49,20.54L417.33,51.09L420.75,73.84L424.17,92.96L427.6,117.94L431.02,130.31L434.44,134.79L437.86,138.25L441.28,134.39L444.7,125.05L448.12,142.7L451.54,143.77L454.96,151.49L458.38,153.95L461.8,142.32L465.22,147.15L468.64,114.01L472.07,96.94L475.49,94.9L478.91,92.2L482.33,91.37L485.75,90.86L489.17,101.62L496.01,138.81L499.43,143.48L502.85,165.86L506.27,177.15L509.69,172.48L513.11,178.52L519.96,182.14L523.38,186.45L526.8,186.66L530.22,185.27L533.64,176.67L537.06,141.44L540.48,126.35L543.9,106.25L547.32,91.73L550.74,85.02L557.58,107.75L561.01,128.17L564.43,153.4L567.85,152.48L574.69,148.24L578.11,139.86L581.53,133.74L584.95,138.94L588.37,140.47L591.79,144.77L595.21,155.28L598.63,172.49L602.05,178.43L605.48,193.86L608.9,213.93L612.32,221.32L615.74,214.67L619.16,201.46L622.58,194.49L626,189.39" style="vector-effect: none; fill: none; stroke: rgb(108, 166, 205); stroke-opacity: 1; stroke-width: 2px; opacity: 1;"/></g><g class="points"/><g class="text"/></g></g></g><g class="overplot"/><path class="xlines-above crisp" d="M0,0" style="fill: none;"/><path class="ylines-above crisp" d="M0,0" style="fill: none;"/><g class="overlines-above"/><g class="xaxislayer-above"><g class="xtick"><text text-anchor="middle" x="0" y="333" transform="translate(44,0)" style="font-family: 'Open Sans', verdana, arial, sans-serif; font-size: 12px; fill: rgb(214, 223, 239); fill-opacity: 1; white-space: pre; opacity: 1;">Mar 2019</text></g><g class="xtick"><text text-anchor="middle" x="0" y="333" style="font-family: 'Open Sans', verdana, arial, sans-serif; font-size: 12px; fill: rgb(214, 223, 239); fill-opacity: 1; white-space: pre; opacity: 1;" transform="translate(150.04000000000002,0)">Apr 2019</text></g><g class="xtick"><text text-anchor="middle" x="0" y="333" style="font-family: 'Open Sans', verdana, arial, sans-serif; font-size: 12px; fill: rgb(214, 223, 239); fill-opacity: 1; white-space: pre; opacity: 1;" transform="translate(252.67,0)">May 2019</text></g><g class="xtick"><text text-anchor="middle" x="0" y="333" style="font-family: 'Open Sans', verdana, arial, sans-serif; font-size: 12px; fill: rgb(214, 223, 239); fill-opacity: 1; white-space: pre; opacity: 1;" transform="translate(358.71,0)">Jun 2019</text></g><g class="xtick"><text text-anchor="middle" x="0" y="333" style="font-family: 'Open Sans', verdana, arial, sans-serif; font-size: 12px; fill: rgb(214, 223, 239); fill-opacity: 1; white-space: pre; opacity: 1;" transform="translate(461.33,0)">Jul 2019</text></g><g class="xtick"><text text-anchor="middle" x="0" y="333" style="font-family: 'Open Sans', verdana, arial, sans-serif; font-size: 12px; fill: rgb(214, 223, 239); fill-opacity: 1; white-space: pre; opacity: 1;" transform="translate(567.38,0)">Aug 2019</text></g></g><g class="yaxislayer-above"><g class="ytick"><text text-anchor="end" x="43" y="4.199999999999999" transform="translate(0,313.6)" style="font-family: 'Open Sans', verdana, arial, sans-serif; font-size: 12px; fill: rgb(214, 223, 239); fill-opacity: 1; white-space: pre; opacity: 1;">0</text></g><g class="ytick"><text text-anchor="end" x="43" y="4.199999999999999" style="font-family: 'Open Sans', verdana, arial, sans-serif; font-size: 12px; fill: rgb(214, 223, 239); fill-opacity: 1; white-space: pre; opacity: 1;" transform="translate(0,274.65999999999997)">200</text></g><g class="ytick"><text text-anchor="end" x="43" y="4.199999999999999" style="font-family: 'Open Sans', verdana, arial, sans-serif; font-size: 12px; fill: rgb(214, 223, 239); fill-opacity: 1; white-space: pre; opacity: 1;" transform="translate(0,235.71)">400</text></g><g class="ytick"><text text-anchor="end" x="43" y="4.199999999999999" style="font-family: 'Open Sans', verdana, arial, sans-serif; font-size: 12px; fill: rgb(214, 223, 239); fill-opacity: 1; white-space: pre; opacity: 1;" transform="translate(0,196.77)">600</text></g><g class="ytick"><text text-anchor="end" x="43" y="4.199999999999999" style="font-family: 'Open Sans', verdana, arial, sans-serif; font-size: 12px; fill: rgb(214, 223, 239); fill-opacity: 1; white-space: pre; opacity: 1;" transform="translate(0,157.82999999999998)">800</text></g><g class="ytick"><text text-anchor="end" x="43" y="4.199999999999999" style="font-family: 'Open Sans', verdana, arial, sans-serif; font-size: 12px; fill: rgb(214, 223, 239); fill-opacity: 1; white-space: pre; opacity: 1;" transform="translate(0,118.89)">1000</text></g><g class="ytick"><text text-anchor="end" x="43" y="4.199999999999999" style="font-family: 'Open Sans', verdana, arial, sans-serif; font-size: 12px; fill: rgb(214, 223, 239); fill-opacity: 1; white-space: pre; opacity: 1;" transform="translate(0,79.95)">1200</text></g></g><g class="overaxes-above"/></g></g><g class="polarlayer"/><g class="smithlayer"/><g class="ternarylayer"/><g class="geolayer"/><g class="funnelarealayer"/><g class="pielayer"/><g class="iciclelayer"/><g class="treemaplayer"/><g class="sunburstlayer"/><g class="glimages"/><defs id="topdefs-cbdeef"><g class="clips"/><clipPath id="legendcbdeef"><rect width="73" height="29" x="0" y="0"/></clipPath></defs><g class="layer-above"><g class="imagelayer"/><g class="shapelayer"/></g><g class="infolayer"><g class="legend" pointer-events="all" transform="translate(597,11.519999999999996)"><rect class="bg" shape-rendering="crispEdges" style="stroke: rgb(68, 68, 68); stroke-opacity: 1; fill: rgb(33, 34, 38); fill-opacity: 1; stroke-width: 0px;" width="73" height="29" x="0" y="0"/><g class="scrollbox" transform="" clip-path="url(#legendcbdeef)"><g class="groups"><g class="traces" transform="translate(0,14.5)" style="opacity: 1;"><text class="legendtext" text-anchor="start" x="40" y="4.680000000000001" style="font-family: 'Open Sans', verdana, arial, sans-serif; font-size: 12px; fill: rgb(214, 223, 239); fill-opacity: 1; white-space: pre;">MSD</text><g class="layers" style="opacity: 1;"><g class="legendfill"/><g class="legendlines"><path class="js-line" d="M5,0h30" style="fill: none; stroke: rgb(108, 166, 205); stroke-opacity: 1; stroke-width: 2px;"/></g><g class="legendsymbols"><g class="legendpoints"/></g></g><rect class="legendtoggle" x="0" y="-9.5" width="70.0625" height="19" style="fill: rgb(0, 0, 0); fill-opacity: 0;"/></g></g></g><rect class="scrollbar" rx="20" ry="3" width="0" height="0" style="fill: rgb(128, 139, 164); fill-opacity: 1;" x="0" y="0"/></g><g class="g-gtitle"/><g class="g-xtitle"/><g class="g-ytitle"/></g></svg>