<svg class="main-svg" xmlns="http://www.w3.org/2000/svg" xmlns:xlink="http://www.w3.org/1999/xlink" width="700" height="350" style="" viewBox="0 0 700 350"><rect x="0" y="0" width="700" height="350" style="fill: rgb(255, 255, 255); fill-opacity: 1;"/><defs id="defs-b84a5e"><g class="clips"><clipPath id="clipb84a5exyplot" class="plotclip"><rect width="629" height="274"/></clipPath><clipPath class="axesclip" id="clipb84a5ex"><rect x="41" y="0" width="629" height="350"/></clipPath><clipPath class="axesclip" id="clipb84a5ey"><rect x="0" y="46" width="700" height="274"/></clipPath><clipPath class="axesclip" id="clipb84a5exy"><rect x="41" y="46" width="629" height="274"/></clipPath></g><g class="gradients"/><g class="patterns"/></defs><g class="bglayer"><rect class="bg" x="41" y="46" width="629" height="274" style="fill: rgb(229, 236, 246); fill-opacity: 1; stroke-width: 0;"/></g><g class="layer-below"><g class="imagelayer"/><g class="shapelayer"/></g><g class="cartesianlayer"><g class="subplot xy"><g class="layer-subplot"><g class="shapelayer"/><g class="imagelayer"/></g><g class="minor-gridlayer"><g class="x"/><g class="y"/></g><g class="gridlayer"><g class="x"><path class="xgrid crisp" transform="translate(147.55,0)" d="M0,46v274" style="stroke: rgb(255, 255, 255); stroke-opacity: 1; stroke-width: 1px;"/><path class="xgrid crisp" transform="translate(250.67,0)" d="M0,46v274" style="stroke: rgb(255, 255, 255); stroke-opacity: 1; stroke-width: 1px;"/><path class="xgrid crisp" transform="translate(357.22,0)" d="M0,46v274" style="stroke: rgb(255, 255, 255); stroke-opacity: 1; stroke-width: 1px;"/><path class="xgrid crisp" transform="translate(460.33,0)" d="M0,46v274" style="stroke: rgb(255, 255, 255); stroke-opacity: 1; stroke-width: 1px;"/><path class="xgrid crisp" transform="translate(566.89,0)" d="M0,46v274" style="stroke: rgb(255, 255, 255); stroke-opacity: 1; stroke-width: 1px;"/></g><g class="y"><path class="ygrid crisp" transform="translate(0,299.95)" d="M41,0h629" style="stroke: rgb(255, 255, 255); stroke-opacity: 1; stroke-width: 1px;"/><path class="ygrid crisp" transform="translate(0,246.65)" d="M41,0h629" style="stroke: rgb(255, 255, 255); stroke-opacity: 1; stroke-width: 1px;"/><path class="ygrid crisp" transform="translate(0,193.36)" d="M41,0h629" style="stroke: rgb(255, 255, 255); stroke-opacity: 1; stroke-width: 1px;"/><path class="ygrid crisp" transform="translate(0,140.07)" d="M41,0h629" style="stroke: rgb(255, 255, 255); stroke-opacity: 1; stroke-width: 1px;"/><path class="ygrid crisp" transform="translate(0,86.78)" d="M41,0h629" style="stroke: rgb(255, 255, 255); stroke-opacity: 1; stroke-width: 1px;"/></g></g><g class="zerolinelayer"/><path class="xlines-below"/><path class="ylines-below"/><g class="overlines-below"/><g class="xaxislayer-below"/><g class="yaxislayer-below"/><g class="overaxes-below"/><g class="plot" transform="translate(41,46)" clip-path="url(#clipb84a5exyplot)"><g class="scatterlayer mlayer"><g class="trace scatter tracef16699a2-760c-4af8-8b0d-44ab59b8a9cf" style="stroke-miterlimit: 2; opacity: 1;"><g class="fills"/><g class="errorbars"/><g class="lines"><path class="js-line" d="M0,257.69L6.87,258.02L10.31,260.3L13.75,256.71L17.19,256.51L24.06,256.58L27.5,254.92L30.93,255.24L34.37,256.47L44.68,255.96L48.12,254.99L51.56,252.65L54.99,253.27L58.43,253.08L61.87,252.05L65.31,251.62L68.74,253.17L79.05,253.36L82.49,254.93L85.93,254.34L89.37,251.63L92.8,252.11L96.24,251.33L103.11,251.14L106.55,249.73L109.99,230.5L113.43,228.02L116.86,229.36L120.3,226.32L123.74,225.71L127.17,222L130.61,219.58L134.05,221.84L137.49,218.65L140.92,225.58L147.8,224.73L151.23,222.83L154.67,225.51L158.11,221.02L161.55,220.59L164.98,219.35L168.42,219.21L171.86,218.3L175.3,218.92L178.73,216.66L182.17,212.05L185.61,214.91L189.04,221.69L192.48,219.86L202.79,220.71L206.23,217.96L209.67,216.57L213.1,213.84L216.54,206.83L219.98,205.15L226.85,207.4L230.29,205.2L237.16,196L240.6,190.56L244.04,168.55L247.48,174.74L250.91,152.29L254.35,147.51L257.79,141.9L261.22,150.43L264.66,164.85L268.1,166.78L271.54,142.09L274.97,147.94L278.41,148.34L281.85,155.89L285.28,150.51L288.72,147.7L292.16,145.96L295.6,129.42L299.03,125.89L302.47,128.18L305.91,129.79L309.34,138.85L312.78,132.05L316.22,132.33L319.66,127.57L323.09,141.79L326.53,155.15L329.97,152.05L333.4,152.1L336.84,146.19L340.28,148.58L343.72,155.67L347.15,147.35L350.59,149.29L354.03,143.48L357.46,141.21L360.9,128.87L364.34,125.02L367.78,120.86L371.21,112.18L374.65,118.54L378.09,113.43L381.52,106.67L384.96,90.22L388.4,75.37L391.84,71.28L395.27,67.13L398.71,46.35L402.15,13.7L405.58,62.55L409.02,29.92L412.46,41.86L415.9,72.3L419.33,78.53L422.77,72.71L426.21,41.81L429.64,61.68L433.08,68L439.96,55.41L443.39,33.16L446.83,25.49L450.27,36.61L453.7,57.87L457.14,45.68L460.58,56.97L464.02,87.25L467.45,70.22L470.89,107.99L474.33,102.23L477.77,76.31L481.2,79.93L484.64,73.63L488.08,78.11L491.51,84.93L494.95,96.71L498.39,99.08L501.83,96.42L505.26,97.53L508.7,107.99L512.14,105.98L515.57,106.88L519.01,104.53L522.45,91.79L525.89,83.42L529.32,80.26L532.76,72.17L536.2,68.22L539.63,45.96L543.07,54.68L546.51,42.32L549.95,41.67L553.38,44.43L556.82,57.99L560.26,53.47L563.69,57.23L567.13,70.2L570.57,92.69L574.01,85.77L577.44,84.1L580.88,87.9L584.32,84.86L587.75,69.66L591.19,73.73L594.63,90.39L598.07,90.58L601.5,83.2L604.94,89.81L608.38,90.38L611.81,84.19L615.25,89.13L618.69,100.61L622.13,107.12L625.56,104.78L629,103.91" style="vector-effect: none; fill: none; stroke: rgb(108, 166, 205); stroke-opacity: 1; stroke-width: 2px; opacity: 1;"/></g><g class="points"/><g class="text"/></g><g class="trace scatter traceed2a8d38-148d-4c6e-bceb-a140c21dc5fd" style="stroke-miterlimit: 2; opacity: 1;"><g class="fills"/><g class="errorbars"/><g class="lines"><path class="js-line" d="M44.68,255.53L58.43,253.7L61.87,253.03L68.74,252.19L72.18,252.18L79.05,251.92L82.49,252.52L89.37,252.85L92.8,252.89L103.11,251.89L106.55,251.23L116.86,235.32L120.3,230.74L130.61,218.95L134.05,216.82L137.49,214.41L140.92,214.79L147.8,217.18L151.23,218.98L154.67,222.08L158.11,221.97L175.3,219.84L178.73,218.32L185.61,214.28L189.04,215.39L199.36,217.45L202.79,218.77L209.67,218.64L213.1,217.65L223.42,209.97L226.85,208.19L237.16,199.13L240.6,195.07L244.04,186.22L247.48,180.38L257.79,150.85L261.22,145.31L264.66,144.28L268.1,144.71L271.54,140.02L274.97,138.85L278.41,139.16L281.85,142.46L288.72,147.22L292.16,147.13L295.6,144.32L299.03,138.69L305.91,128.9L309.34,127.99L312.78,127.72L316.22,128.73L319.66,125.98L323.09,128.14L333.4,145.13L336.84,148.43L343.72,155.22L347.15,154.92L350.59,154.83L354.03,152.87L357.46,151.24L360.9,145.39L367.78,130.43L371.21,122.17L378.09,113.72L381.52,108.51L395.27,71.21L398.71,59.78L402.15,42.07L405.58,40.3L409.02,30.63L412.46,26.31L415.9,31.59L419.33,38.63L422.77,46.03L426.21,46.07L433.08,59.09L436.52,62.82L439.96,64.69L443.39,60.7L450.27,43.56L453.7,46.18L457.14,41.14L460.58,40.26L464.02,51.07L467.45,57.98L470.89,74L474.33,83.11L477.77,86.68L481.2,91.66L488.08,95.84L491.51,95.8L498.39,96.8L501.83,97.95L505.26,96.54L508.7,97.96L512.14,101.72L515.57,102.75L519.01,107.52L522.45,108.29L529.32,98.22L532.76,89.95L536.2,81.34L539.63,68.27L546.51,50.56L549.95,41.96L553.38,35.79L556.82,36.12L560.26,36.43L563.69,39.33L567.13,46.65L570.57,58.92L577.44,76.5L580.88,84.53L584.32,90.77L587.75,89.44L591.19,89.72L594.63,91.98L598.07,92.83L601.5,90.77L604.94,91.24L608.38,90.3L611.81,87.25L615.25,86.56L625.56,100.82L629,104.49" style="vector-effect: none; fill: none; stroke: rgb(108, 118, 205); stroke-opacity: 1; stroke-width: 2px; opacity: 1;"/></g><g class="points"/><g class="text"/></g></g></g><g class="overplot"/><path class="xlines-above crisp" d="M0,0" style="fill: none;"/><path class="ylines-above crisp" d="M0,0" style="fill: none;"/><g class="overlines-above"/><g class="xaxislayer-above"><g class="xtick"><text text-anchor="middle" x="0" y="333" transform="translate(41,0)" style="font-family: 'Open Sans', verdana, arial, sans-serif; font-size: 12px; fill: rgb(42, 63, 95); fill-opacity: 1; white-space: pre; opacity: 1;">Mar 2019</text></g><g class="xtick"><text text-anchor="middle" x="0" y="333" style="font-family: 'Open Sans', verdana, arial, sans-serif; font-size: 12px; fill: rgb(42, 63, 95); fill-opacity: 1; white-space: pre; opacity: 1;" transform="translate(147.55,0)">Apr 2019</text></g><g class="xtick"><text text-anchor="middle" x="0" y="333" style="font-family: 'Open Sans', verdana, arial, sans-serif; font-size: 12px; fill: rgb(42, 63, 95); fill-opacity: 1; white-space: pre; opacity: 1;" transform="translate(250.67,0)">May 2019</text></g><g class="xtick"><text text-anchor="middle" x="0" y="333" style="font-family: 'Open Sans', verdana, arial, sans-serif; font-size: 12px; fill: rgb(42, 63, 95); fill-opacity: 1; white-space: pre; opacity: 1;" transform="translate(357.22,0)">Jun 2019</text></g><g class="xtick"><text text-anchor="middle" x="0" y="333" style="font-family: 'Open Sans', verdana, arial, sans-serif; font-size: 12px; fill: rgb(42, 63, 95); fill-opacity: 1; white-space: pre; opacity: 1;" transform="translate(460.33,0)">Jul 2019</text></g><g class="xtick"><text text-anchor="middle" x="0" y="333" style="font-family: 'Open Sans', verdana, arial, sans-serif; font-size: 12px; fill: rgb(42, 63, 95); fill-opacity: 1; white-space: pre; opacity: 1;" transform="translate(566.89,0)">Aug 2019</text></g></g><g class="yaxislayer-above"><g class="ytick"><text text-anchor="end" x="40" y="4.199999999999999" transform="translate(0,299.95)" style="font-family: 'Open Sans', verdana, arial, sans-serif; font-size: 12px; fill: rgb(42, 63, 95); fill-opacity: 1; white-space: pre; opacity: 1;">4k</text></g><g class="ytick"><text text-anchor="end" x="40" y="4.199999999999999" style="font-family: 'Open Sans', verdana, arial, sans-serif; font-size: 12px; fill: rgb(42, 63, 95); fill-opacity: 1; white-space: pre; opacity: 1;" transform="translate(0,246.65)">6k</text></g><g class="ytick"><text text-anchor="end" x="40" y="4.199999999999999" style="font-family: 'Open Sans', verdana, arial, sans-serif; font-size: 12px; fill: rgb(42, 63, 95); fill-opacity: 1; white-space: pre; opacity: 1;" transform="translate(0,193.36)">8k</text></g><g class="ytick"><text text-anchor="end" x="40" y="4.199999999999999" style="font-family: 'Open Sans', verdana, arial, sans-serif; font-size: 12px; fill: rgb(42, 63, 95); fill-opacity: 1; white-space: pre; opacity: 1;" transform="translate(0,140.07)">10k</text></g><g class="ytick"><text text-anchor="end" x="40" y="4.199999999999999" style="font-family: 'Open Sans', verdana, arial, sans-serif; font-size: 12px; fill: rgb(42, 63, 95); fill-opacity: 1; white-space: pre; opacity: 1;" transform="translate(0,86.78)">12k</text></g></g><g class="overaxes-above"/></g></g><g class="polarlayer"/><g class="smithlayer"/><g class="ternarylayer"/><g class="geolayer"/><g class="funnelarealayer"/><g class="pielayer"/><g class="iciclelayer"/><g class="treemaplayer"/><g class="sunburstlayer"/><g class="glimages"/><defs id="topdefs-b84a5e"><g class="clips"/><clipPath id="legendb84a5e"><rect width="125" height="29" x="0" y="0"/></clipPath></defs><g class="layer-above"><g class="imagelayer"/><g class="shapelayer"/></g><g class="infolayer"><g class="legend" pointer-events="all" transform="translate(545,11.519999999999996)"><rect class="bg" shape-rendering="crispEdges" style="stroke: rgb(68, 68, 68); stroke-opacity: 1; fill: rgb(255, 255, 255); fill-opacity: 1; stroke-width: 0px;" width="125" height="29" x="0" y="0"/><g class="scrollbox" transform="" clip-path="url(#legendb84a5e)"><g class="groups"><g class="traces" transform="translate(0,14.5)" style="opacity: 1;"><text class="legendtext" text-anchor="start" x="40" y="4.680000000000001" style="font-family: 'Open Sans', verdana, arial, sans-serif; font-size: 12px; fill: rgb(42, 63, 95); fill-opacity: 1; white-space: pre;">Y</text><g class="layers" style="opacity: 1;"><g class="legendfill"/><g class="legendlines"><path class="js-line" d="M5,0h30" style="fill: none; stroke: rgb(108, 166, 205); stroke-opacity: 1; stroke-width: 2px;"/></g><g class="legendsymbols"><g class="legendpoints"/></g></g><rect class="legendtoggle" x="0" y="-9.5" width="49.890625" height="19" style="fill: rgb(0, 0, 0); fill-opacity: 0;"/></g><g class="traces" transform="translate(52.390625,14.5)" style="opacity: 1;"><text class="legendtext" text-anchor="start" x="40" y="4.680000000000001" style="font-family: 'Open Sans', verdana, arial, sans-serif; font-size: 12px; fill: rgb(42, 63, 95); fill-opacity: 1; white-space: pre;">Pred</text><g class="layers" style="opacity: 1;"><g class="legendfill"/><g class="legendlines"><path class="js-line" d="M5,0h30" style="fill: none; stroke: rgb(108, 118, 205); stroke-opacity: 1; stroke-width: 2px;"/></g><g class="legendsymbols"><g class="legendpoints"/></g></g><rect class="legendtoggle" x="0" y="-9.5" width="69.484375" height="19" style="fill: rgb(0, 0, 0); fill-opacity: 0;"/></g></g></g><rect class="scrollbar" rx="20" ry="3" width="0" height="0" style="fill: rgb(128, 139, 164); fill-opacity: 1;" x="0" y="0"/></g><g class="g-gtitle"/><g class="g-xtitle"/><g class="g-ytitle"/></g></svg>