<svg class="main-svg" xmlns="http://www.w3.org/2000/svg" xmlns:xlink="http://www.w3.org/1999/xlink" width="700" height="350" style="" viewBox="0 0 700 350"><rect x="0" y="0" width="700" height="350" style="fill: rgb(33, 34, 38); fill-opacity: 1;"/><defs id="defs-eb96b9"><g class="clips"><clipPath id="clipeb96b9xyplot" class="plotclip"><rect width="629" height="274"/></clipPath><clipPath class="axesclip" id="clipeb96b9x"><rect x="41" y="0" width="629" height="350"/></clipPath><clipPath class="axesclip" id="clipeb96b9y"><rect x="0" y="46" width="700" height="274"/></clipPath><clipPath class="axesclip" id="clipeb96b9xy"><rect x="41" y="46" width="629" height="274"/></clipPath></g><g class="gradients"/><g class="patterns"/></defs><g class="bglayer"/><g class="layer-below"><g class="imagelayer"/><g class="shapelayer"/></g><g class="cartesianlayer"><g class="subplot xy"><g class="layer-subplot"><g class="shapelayer"><g class="shape-group" data-index="0" clip-path="url(#clipeb96b9xy)"><path data-index="0" fill-rule="evenodd" d="M41,118.77H670V275.63H41Z" style="opacity: 0.2; stroke: rgb(0, 0, 0); stroke-opacity: 0; fill: rgb(123, 104, 238); fill-opacity: 1; stroke-width: 0px;"/></g></g><g class="imagelayer"/></g><g class="minor-gridlayer"><g class="x"/><g class="y"/></g><g class="gridlayer"><g class="x"><path class="xgrid crisp" transform="translate(147.55,0)" d="M0,46v274" style="stroke: rgb(49, 52, 57); stroke-opacity: 1; stroke-width: 1px;"/><path class="xgrid crisp" transform="translate(250.67,0)" d="M0,46v274" style="stroke: rgb(49, 52, 57); stroke-opacity: 1; stroke-width: 1px;"/><path class="xgrid crisp" transform="translate(357.22,0)" d="M0,46v274" style="stroke: rgb(49, 52, 57); stroke-opacity: 1; stroke-width: 1px;"/><path class="xgrid crisp" transform="translate(460.33,0)" d="M0,46v274" style="stroke: rgb(49, 52, 57); stroke-opacity: 1; stroke-width: 1px;"/><path class="xgrid crisp" transform="translate(566.89,0)" d="M0,46v274" style="stroke: rgb(49, 52, 57); stroke-opacity: 1; stroke-width: 1px;"/></g><g class="y"><path class="ygrid crisp" transform="translate(0,317.25)" d="M41,0h629" style="stroke: rgb(49, 52, 57); stroke-opacity: 1; stroke-width: 1px;"/><path class="ygrid crisp" transform="translate(0,277.24)" d="M41,0h629" style="stroke: rgb(49, 52, 57); stroke-opacity: 1; stroke-width: 1px;"/><path class="ygrid crisp" transform="translate(0,237.22)" d="M41,0h629" style="stroke: rgb(49, 52, 57); stroke-opacity: 1; stroke-width: 1px;"/><path class="ygrid crisp" transform="translate(0,157.18)" d="M41,0h629" style="stroke: rgb(49, 52, 57); stroke-opacity: 1; stroke-width: 1px;"/><path class="ygrid crisp" transform="translate(0,117.16)" d="M41,0h629" style="stroke: rgb(49, 52, 57); stroke-opacity: 1; stroke-width: 1px;"/><path class="ygrid crisp" transform="translate(0,77.15)" d="M41,0h629" style="stroke: rgb(49, 52, 57); stroke-opacity: 1; stroke-width: 1px;"/></g></g><g class="zerolinelayer"><path class="yzl zl crisp" transform="translate(0,197.2)" d="M41,0h629" style="stroke: rgb(49, 52, 57); stroke-opacity: 1; stroke-width: 2px;"/></g><path class="xlines-below"/><path class="ylines-below"/><g class="overlines-below"/><g class="xaxislayer-below"/><g class="yaxislayer-below"/><g class="overaxes-below"/><g class="plot" transform="translate(41,46)" clip-path="url(#clipeb96b9xyplot)"><g class="scatterlayer mlayer"><g class="trace scatter trace6450ddd5-0729-49b9-90f8-7f520bf252c3" style="stroke-miterlimit: 2; opacity: 1;"><g class="fills"/><g class="errorbars"/><g class="lines"><path class="js-line" d="M89.37,102.56L92.8,121.17L96.24,106.35L99.68,111.79L103.11,124.69L106.55,104.3L109.99,13.7L116.86,121.78L120.3,137.2L123.74,166.31L127.17,171.5L130.61,183.73L134.05,214.9L137.49,202.18L140.92,230.45L144.36,210.23L147.8,194.52L151.23,171.96L154.67,167.64L158.11,135.22L161.55,123.78L164.98,109.63L168.42,107.91L171.86,105.98L175.3,118.64L178.73,114.2L182.17,101.44L185.61,143.69L189.04,202.56L192.48,186.87L195.92,189.13L199.36,177.66L202.79,175.6L206.23,134.34L209.67,119.19L213.1,98.65L216.54,65.17L219.98,88.37L223.42,122.32L226.85,152.11L230.29,154.86L233.73,147.11L237.16,131.43L240.6,120.17L244.04,34.61L247.48,137.63L250.91,61.03L254.35,105.28L257.79,135.9L261.22,222.75L264.66,257.38L268.1,235.63L271.54,164.17L274.97,185.19L278.41,182.43L281.85,191.4L285.28,164.45L288.72,147.11L292.16,136.71L295.6,94.22L299.03,97.52L305.91,139.8L309.34,176.06L312.78,156.29L316.22,160.18L319.66,150.34L323.09,206.23L326.53,227.09L329.97,190.36L333.4,168.02L336.84,130.47L340.28,125.96L343.72,135.93L347.15,91.85L350.59,102.2L354.03,91.68L357.46,98.01L360.9,84.08L364.34,103.07L367.78,122.05L371.21,125.02L374.65,178.07L378.09,186.81L381.52,186.29L384.96,132.26L388.4,107.8L391.84,148.31L395.27,183.25L398.71,112.31L402.15,48.11L405.58,260.3L409.02,172.59L412.46,217.94L415.9,251.64L419.33,228.15L422.77,194.73L426.21,134.21L429.64,159.49L433.08,156.09L436.52,133.95L439.96,116.85L443.39,88.48L446.83,94.03L453.7,163.58L457.14,148.72L460.58,172.63L464.02,213.37L467.45,171.11L470.89,216.93L474.33,180.18L477.77,119.93L481.2,120.79L484.64,108.08L488.08,114.92L491.51,124.34L494.95,143.02L498.39,145.51L501.83,138.85L505.26,145.27L508.7,167.61L512.14,160.92L515.57,162.42L519.01,149.07L522.45,100.62L525.89,92.6L529.32,104.92L532.76,103.96L536.2,120.23L539.63,90.99L543.07,156.29L546.51,148.76L556.82,241.58L560.26,216.96L563.69,211.67L567.13,214.72L570.57,222.63L574.01,182.15L577.44,155.62L580.88,140.95L584.32,113.87L587.75,73.69L591.19,90.29L594.63,126.18L598.07,124.94L601.5,114.99L604.94,134.67L608.38,141.73L611.81,136.73L615.25,157.6L618.69,195.88L622.13,208.64L625.56,180.66L629,159.83" style="vector-effect: none; fill: none; stroke: rgb(108, 166, 205); stroke-opacity: 1; stroke-width: 2px; opacity: 1;"/></g><g class="points"/><g class="text"/></g></g></g><g class="overplot"/><path class="xlines-above crisp" d="M0,0" style="fill: none;"/><path class="ylines-above crisp" d="M0,0" style="fill: none;"/><g class="overlines-above"/><g class="xaxislayer-above"><g class="xtick"><text text-anchor="middle" x="0" y="333" transform="translate(41,0)" style="font-family: 'Open Sans', verdana, arial, sans-serif; font-size: 12px; fill: rgb(214, 223, 239); fill-opacity: 1; white-space: pre; opacity: 1;">Mar 2019</text></g><g class="xtick"><text text-anchor="middle" x="0" y="333" style="font-family: 'Open Sans', verdana, arial, sans-serif; font-size: 12px; fill: rgb(214, 223, 239); fill-opacity: 1; white-space: pre; opacity: 1;" transform="translate(147.55,0)">Apr 2019</text></g><g class="xtick"><text text-anchor="middle" x="0" y="333" style="font-family: 'Open Sans', verdana, arial, sans-serif; font-size: 12px; fill: rgb(214, 223, 239); fill-opacity: 1; white-space: pre; opacity: 1;" transform="translate(250.67,0)">May 2019</text></g><g class="xtick"><text text-anchor="middle" x="0" y="333" style="font-family: 'Open Sans', verdana, arial, sans-serif; font-size: 12px; fill: rgb(214, 223, 239); fill-opacity: 1; white-space: pre; opacity: 1;" transform="translate(357.22,0)">Jun 2019</text></g><g class="xtick"><text text-anchor="middle" x="0" y="333" style="font-family: 'Open Sans', verdana, arial, sans-serif; font-size: 12px; fill: rgb(214, 223, 239); fill-opacity: 1; white-space: pre; opacity: 1;" transform="translate(460.33,0)">Jul 2019</text></g><g class="xtick"><text text-anchor="middle" x="0" y="333" style="font-family: 'Open Sans', verdana, arial, sans-serif; font-size: 12px; fill: rgb(214, 223, 239); fill-opacity: 1; white-space: pre; opacity: 1;" transform="translate(566.89,0)">Aug 2019</text></g></g><g class="yaxislayer-above"><g class="ytick"><text text-anchor="end" x="40" y="4.199999999999999" transform="translate(0,317.25)" style="font-family: 'Open Sans', verdana, arial, sans-serif; font-size: 12px; fill: rgb(214, 223, 239); fill-opacity: 1; white-space: pre; opacity: 1;">−3</text></g><g class="ytick"><text text-anchor="end" x="40" y="4.199999999999999" style="font-family: 'Open Sans', verdana, arial, sans-serif; font-size: 12px; fill: rgb(214, 223, 239); fill-opacity: 1; white-space: pre; opacity: 1;" transform="translate(0,277.24)">−2</text></g><g class="ytick"><text text-anchor="end" x="40" y="4.199999999999999" style="font-family: 'Open Sans', verdana, arial, sans-serif; font-size: 12px; fill: rgb(214, 223, 239); fill-opacity: 1; white-space: pre; opacity: 1;" transform="translate(0,237.22)">−1</text></g><g class="ytick"><text text-anchor="end" x="40" y="4.199999999999999" style="font-family: 'Open Sans', verdana, arial, sans-serif; font-size: 12px; fill: rgb(214, 223, 239); fill-opacity: 1; white-space: pre; opacity: 1;" transform="translate(0,197.2)">0</text></g><g class="ytick"><text text-anchor="end" x="40" y="4.199999999999999" style="font-family: 'Open Sans', verdana, arial, sans-serif; font-size: 12px; fill: rgb(214, 223, 239); fill-opacity: 1; white-space: pre; opacity: 1;" transform="translate(0,157.18)">1</text></g><g class="ytick"><text text-anchor="end" x="40" y="4.199999999999999" style="font-family: 'Open Sans', verdana, arial, sans-serif; font-size: 12px; fill: rgb(214, 223, 239); fill-opacity: 1; white-space: pre; opacity: 1;" transform="translate(0,117.16)">2</text></g><g class="ytick"><text text-anchor="end" x="40" y="4.199999999999999" style="font-family: 'Open Sans', verdana, arial, sans-serif; font-size: 12px; fill: rgb(214, 223, 239); fill-opacity: 1; white-space: pre; opacity: 1;" transform="translate(0,77.15)">3</text></g></g><g class="overaxes-above"/></g></g><g class="polarlayer"/><g class="smithlayer"/><g class="ternarylayer"/><g class="geolayer"/><g class="funnelarealayer"/><g class="pielayer"/><g class="iciclelayer"/><g class="treemaplayer"/><g class="sunburstlayer"/><g class="glimages"/><defs id="topdefs-eb96b9"><g class="clips"/><clipPath id="legendeb96b9"><rect width="91" height="29" x="0" y="0"/></clipPath></defs><g class="layer-above"><g class="imagelayer"/><g class="shapelayer"/></g><g class="infolayer"><g class="legend" pointer-events="all" transform="translate(579,11.519999999999996)"><rect class="bg" shape-rendering="crispEdges" style="stroke: rgb(68, 68, 68); stroke-opacity: 1; fill: rgb(33, 34, 38); fill-opacity: 1; stroke-width: 0px;" width="91" height="29" x="0" y="0"/><g class="scrollbox" transform="" clip-path="url(#legendeb96b9)"><g class="groups"><g class="traces" transform="translate(0,14.5)" style="opacity: 1;"><text class="legendtext" text-anchor="start" x="40" y="4.680000000000001" style="font-family: 'Open Sans', verdana, arial, sans-serif; font-size: 12px; fill: rgb(214, 223, 239); fill-opacity: 1; white-space: pre;">Z-score</text><g class="layers" style="opacity: 1;"><g class="legendfill"/><g class="legendlines"><path class="js-line" d="M5,0h30" style="fill: none; stroke: rgb(108, 166, 205); stroke-opacity: 1; stroke-width: 2px;"/></g><g class="legendsymbols"><g class="legendpoints"/></g></g><rect class="legendtoggle" x="0" y="-9.5" width="88.234375" height="19" style="fill: rgb(0, 0, 0); fill-opacity: 0;"/></g></g></g><rect class="scrollbar" rx="20" ry="3" width="0" height="0" style="fill: rgb(128, 139, 164); fill-opacity: 1;" x="0" y="0"/></g><g class="g-gtitle"/><g class="g-xtitle"/><g class="g-ytitle"/></g></svg>