<svg class="main-svg" xmlns="http://www.w3.org/2000/svg" xmlns:xlink="http://www.w3.org/1999/xlink" width="700" height="350" style="" viewBox="0 0 700 350"><rect x="0" y="0" width="700" height="350" style="fill: rgb(33, 34, 38); fill-opacity: 1;"/><defs id="defs-f6349e"><g class="clips"><clipPath id="clipf6349exyplot" class="plotclip"><rect width="622" height="274"/></clipPath><clipPath class="axesclip" id="clipf6349ex"><rect x="39" y="0" width="622" height="350"/></clipPath><clipPath class="axesclip" id="clipf6349ey"><rect x="0" y="46" width="700" height="274"/></clipPath><clipPath class="axesclip" id="clipf6349exy"><rect x="39" y="46" width="622" height="274"/></clipPath></g><g class="gradients"/><g class="patterns"/></defs><g class="bglayer"/><g class="layer-below"><g class="imagelayer"/><g class="shapelayer"/></g><g class="cartesianlayer"><g class="subplot xy"><g class="layer-subplot"><g class="shapelayer"/><g class="imagelayer"/></g><g class="minor-gridlayer"><g class="x"/><g class="y"/></g><g class="gridlayer"><g class="x"><path class="xgrid crisp" transform="translate(141.3,0)" d="M0,46v274" style="stroke: rgb(49, 52, 57); stroke-opacity: 1; stroke-width: 1px;"/><path class="xgrid crisp" transform="translate(244.8,0)" d="M0,46v274" style="stroke: rgb(49, 52, 57); stroke-opacity: 1; stroke-width: 1px;"/><path class="xgrid crisp" transform="translate(348.3,0)" d="M0,46v274" style="stroke: rgb(49, 52, 57); stroke-opacity: 1; stroke-width: 1px;"/><path class="xgrid crisp" transform="translate(453.5,0)" d="M0,46v274" style="stroke: rgb(49, 52, 57); stroke-opacity: 1; stroke-width: 1px;"/><path class="xgrid crisp" transform="translate(557,0)" d="M0,46v274" style="stroke: rgb(49, 52, 57); stroke-opacity: 1; stroke-width: 1px;"/></g><g class="y"><path class="ygrid crisp" transform="translate(0,267.94)" d="M39,0h622" style="stroke: rgb(49, 52, 57); stroke-opacity: 1; stroke-width: 1px;"/><path class="ygrid crisp" transform="translate(0,215.88)" d="M39,0h622" style="stroke: rgb(49, 52, 57); stroke-opacity: 1; stroke-width: 1px;"/><path class="ygrid crisp" transform="translate(0,163.82)" d="M39,0h622" style="stroke: rgb(49, 52, 57); stroke-opacity: 1; stroke-width: 1px;"/><path class="ygrid crisp" transform="translate(0,111.76)" d="M39,0h622" style="stroke: rgb(49, 52, 57); stroke-opacity: 1; stroke-width: 1px;"/><path class="ygrid crisp" transform="translate(0,59.7)" d="M39,0h622" style="stroke: rgb(49, 52, 57); stroke-opacity: 1; stroke-width: 1px;"/></g></g><g class="zerolinelayer"><path class="yzl zl crisp" transform="translate(0,320)" d="M39,0h622" style="stroke: rgb(49, 52, 57); stroke-opacity: 1; stroke-width: 2px;"/></g><path class="xlines-below"/><path class="ylines-below"/><g class="overlines-below"/><g class="xaxislayer-below"/><g class="yaxislayer-below"/><g class="overaxes-below"/><g class="plot" transform="translate(39,46)" clip-path="url(#clipf6349exyplot)"><g class="scatterlayer mlayer"><g class="trace scatter trace021320af-57e5-49c2-bf2b-4e52c1df1df6" style="stroke-miterlimit: 2;"><g class="fills"><g><path class="js-fill" d="M621.5,274L0.5,274L0.5,189.21H2.2V189.21H3.89V189.21H5.59V189.21H7.29V189.21H8.98V189.21H10.68V189.21H12.38V189.21H14.07V189.21H15.77V189.21H17.47V189.21H19.16V189.21H20.86V189.21H22.56V189.21H24.25V189.21H25.95V189.21H27.65V189.21H29.34V189.21H31.04V189.21H32.74V189.21H34.43V189.21H36.13V189.21H37.83V189.21H39.52V189.21H41.22V189.21H42.92V189.21H44.61V189.21H46.31V189.21H48.01V189.21H49.7V189.21H51.4V189.21H53.1V202.2H54.8V202.2H56.49V202.2H58.19V202.2H59.89V202.2H61.58V202.2H63.28V202.2H64.98V202.2H66.67V202.2H68.37V202.2H70.07V202.2H71.76V202.2H73.46V202.2H75.16V202.2H76.85V202.2H78.55V202.2H80.25V202.2H81.94V202.2H83.64V202.2H85.34V202.2H87.03V202.2H88.73V202.2H90.43V202.2H92.12V202.2H93.82V202.2H95.52V202.2H97.21V202.2H98.91V202.2H100.61V202.2H102.3V202.89H104V202.89H105.7V202.89H107.39V202.89H109.09V202.89H110.79V202.89H112.48V202.89H114.18V202.89H115.88V202.89H117.57V202.89H119.27V202.89H120.97V202.89H122.66V202.89H124.36V202.89H126.06V202.89H127.75V202.89H129.45V202.89H131.15V202.89H132.84V202.89H134.54V202.89H136.24V202.89H137.93V202.89H139.63V202.89H141.33V202.89H143.02V202.89H144.72V202.89H146.42V202.89H148.11V202.89H149.81V202.89H151.51V202.89H153.2V202.89H154.9V195.24H156.6V195.24H158.3V195.24H159.99V195.24H161.69V195.24H163.39V195.24H165.08V195.24H166.78V195.24H168.48V195.24H170.17V195.24H171.87V195.24H173.57V195.24H175.26V195.24H176.96V195.24H178.66V195.24H180.35V195.24H182.05V195.24H183.75V195.24H185.44V195.24H187.14V195.24H188.84V195.24H190.53V195.24H192.23V195.24H193.93V195.24H195.62V195.24H197.32V195.24H199.02V195.24H200.71V195.24H202.41V195.24H204.11V195.24H205.8V137.32H207.5V137.32H209.2V137.32H210.89V137.32H212.59V137.32H214.29V137.32H215.98V137.32H217.68V137.32H219.38V137.32H221.07V137.32H222.77V137.32H224.47V137.32H226.16V137.32H227.86V137.32H229.56V137.32H231.25V137.32H232.95V137.32H234.65V137.32H236.34V137.32H238.04V137.32H239.74V137.32H241.43V137.32H243.13V137.32H244.83V137.32H246.52V137.32H248.22V137.32H249.92V137.32H251.61V137.32H253.31V137.32H255.01V137.32H256.7V137.32H258.4V114.21H260.1V114.21H261.8V114.21H263.49V114.21H265.19V114.21H266.89V114.21H268.58V114.21H270.28V114.21H271.98V114.21H273.67V114.21H275.37V114.21H277.07V114.21H278.76V114.21H280.46V114.21H282.16V114.21H283.85V114.21H285.55V114.21H287.25V114.21H288.94V114.21H290.64V114.21H292.34V114.21H294.03V114.21H295.73V114.21H297.43V114.21H299.12V114.21H300.82V114.21H302.52V114.21H304.21V114.21H305.91V114.21H307.61V114.21H309.3V94.57H311V94.57H312.7V94.57H314.39V94.57H316.09V94.57H317.79V94.57H319.48V94.57H321.18V94.57H322.88V94.57H324.57V94.57H326.27V94.57H327.97V94.57H329.66V94.57H331.36V94.57H333.06V94.57H334.75V94.57H336.45V94.57H338.15V94.57H339.84V94.57H341.54V94.57H343.24V94.57H344.93V94.57H346.63V94.57H348.33V94.57H350.02V94.57H351.72V94.57H353.42V94.57H355.11V94.57H356.81V94.57H358.51V94.57H360.2V94.57H361.9V217.69H363.6V217.69H365.3V217.69H366.99V217.69H368.69V217.69H370.39V217.69H372.08V217.69H373.78V217.69H375.48V217.69H377.17V217.69H378.87V217.69H380.57V217.69H382.26V217.69H383.96V217.69H385.66V217.69H387.35V217.69H389.05V217.69H390.75V217.69H392.44V217.69H394.14V217.69H395.84V217.69H397.53V217.69H399.23V217.69H400.93V217.69H402.62V217.69H404.32V217.69H406.02V217.69H407.71V217.69H409.41V217.69H411.11V217.69H412.8V217.69H414.5V163.98H416.2V163.98H417.89V163.98H419.59V163.98H421.29V163.98H422.98V163.98H424.68V163.98H426.38V163.98H428.07V163.98H429.77V163.98H431.47V163.98H433.16V163.98H434.86V163.98H436.56V163.98H438.25V163.98H439.95V163.98H441.65V163.98H443.34V163.98H445.04V163.98H446.74V163.98H448.43V163.98H450.13V163.98H451.83V163.98H453.52V163.98H455.22V163.98H456.92V163.98H458.61V163.98H460.31V163.98H462.01V163.98H463.7V163.98H465.4V167.69H467.1V167.69H468.8V167.69H470.49V167.69H472.19V167.69H473.89V167.69H475.58V167.69H477.28V167.69H478.98V167.69H480.67V167.69H482.37V167.69H484.07V167.69H485.76V167.69H487.46V167.69H489.16V167.69H490.85V167.69H492.55V167.69H494.25V167.69H495.94V167.69H497.64V167.69H499.34V167.69H501.03V167.69H502.73V167.69H504.43V167.69H506.12V167.69H507.82V167.69H509.52V167.69H511.21V167.69H512.91V167.69H514.61V167.69H516.3V167.69H518V110.46H519.7V110.46H521.39V110.46H523.09V110.46H524.79V110.46H526.48V110.46H528.18V110.46H529.88V110.46H531.57V110.46H533.27V110.46H534.97V110.46H536.66V110.46H538.36V110.46H540.06V110.46H541.75V110.46H543.45V110.46H545.15V110.46H546.84V110.46H548.54V110.46H550.24V110.46H551.93V110.46H553.63V110.46H555.33V110.46H557.02V110.46H558.72V110.46H560.42V110.46H562.11V110.46H563.81V110.46H565.51V110.46H567.2V110.46H568.9V133.64H570.6V133.64H572.3V133.64H573.99V133.64H575.69V133.64H577.39V133.64H579.08V133.64H580.78V133.64H582.48V133.64H584.17V133.64H585.87V133.64H587.57V133.64H589.26V133.64H590.96V133.64H592.66V133.64H594.35V133.64H596.05V133.64H597.75V133.64H599.44V133.64H601.14V133.64H602.84V133.64H604.53V133.64H606.23V133.64H607.93V133.64H609.62V133.64H611.32V133.64H613.02V133.64H614.71V133.64H616.41V133.64H618.11V133.64H619.8V133.64H621.5V148.16" style="fill: rgb(31, 119, 180); fill-opacity: 0.8; stroke-width: 0;"/></g><g><path class="js-fill" d="M0.5,177.7H2.2V177.7H3.89V177.7H5.59V177.7H7.29V177.7H8.98V177.7H10.68V177.7H12.38V177.7H14.07V177.7H15.77V177.7H17.47V177.7H19.16V177.7H20.86V177.7H22.56V177.7H24.25V177.7H25.95V177.7H27.65V177.7H29.34V177.7H31.04V177.7H32.74V177.7H34.43V177.7H36.13V177.7H37.83V177.7H39.52V177.7H41.22V177.7H42.92V177.7H44.61V177.7H46.31V177.7H48.01V177.7H49.7V177.7H51.4V177.7H53.1V89.65H54.8V89.65H56.49V89.65H58.19V89.65H59.89V89.65H61.58V89.65H63.28V89.65H64.98V89.65H66.67V89.65H68.37V89.65H70.07V89.65H71.76V89.65H73.46V89.65H75.16V89.65H76.85V89.65H78.55V89.65H80.25V89.65H81.94V89.65H83.64V89.65H85.34V89.65H87.03V89.65H88.73V89.65H90.43V89.65H92.12V89.65H93.82V89.65H95.52V89.65H97.21V89.65H98.91V89.65H100.61V89.65H102.3V118.63H104V118.63H105.7V118.63H107.39V118.63H109.09V118.63H110.79V118.63H112.48V118.63H114.18V118.63H115.88V118.63H117.57V118.63H119.27V118.63H120.97V118.63H122.66V118.63H124.36V118.63H126.06V118.63H127.75V118.63H129.45V118.63H131.15V118.63H132.84V118.63H134.54V118.63H136.24V118.63H137.93V118.63H139.63V118.63H141.33V118.63H143.02V118.63H144.72V118.63H146.42V118.63H148.11V118.63H149.81V118.63H151.51V118.63H153.2V118.63H154.9V82.66H156.6V82.66H158.3V82.66H159.99V82.66H161.69V82.66H163.39V82.66H165.08V82.66H166.78V82.66H168.48V82.66H170.17V82.66H171.87V82.66H173.57V82.66H175.26V82.66H176.96V82.66H178.66V82.66H180.35V82.66H182.05V82.66H183.75V82.66H185.44V82.66H187.14V82.66H188.84V82.66H190.53V82.66H192.23V82.66H193.93V82.66H195.62V82.66H197.32V82.66H199.02V82.66H200.71V82.66H202.41V82.66H204.11V82.66H205.8V18.32H207.5V18.32H209.2V18.32H210.89V18.32H212.59V18.32H214.29V18.32H215.98V18.32H217.68V18.32H219.38V18.32H221.07V18.32H222.77V18.32H224.47V18.32H226.16V18.32H227.86V18.32H229.56V18.32H231.25V18.32H232.95V18.32H234.65V18.32H236.34V18.32H238.04V18.32H239.74V18.32H241.43V18.32H243.13V18.32H244.83V18.32H246.52V18.32H248.22V18.32H249.92V18.32H251.61V18.32H253.31V18.32H255.01V18.32H256.7V18.32H258.4V34.71H260.1V34.71H261.8V34.71H263.49V34.71H265.19V34.71H266.89V34.71H268.58V34.71H270.28V34.71H271.98V34.71H273.67V34.71H275.37V34.71H277.07V34.71H278.76V34.71H280.46V34.71H282.16V34.71H283.85V34.71H285.55V34.71H287.25V34.71H288.94V34.71H290.64V34.71H292.34V34.71H294.03V34.71H295.73V34.71H297.43V34.71H299.12V34.71H300.82V34.71H302.52V34.71H304.21V34.71H305.91V34.71H307.61V34.71H309.3V51.12H311V51.12H312.7V51.12H314.39V51.12H316.09V51.12H317.79V51.12H319.48V51.12H321.18V51.12H322.88V51.12H324.57V51.12H326.27V51.12H327.97V51.12H329.66V51.12H331.36V51.12H333.06V51.12H334.75V51.12H336.45V51.12H338.15V51.12H339.84V51.12H341.54V51.12H343.24V51.12H344.93V51.12H346.63V51.12H348.33V51.12H350.02V51.12H351.72V51.12H353.42V51.12H355.11V51.12H356.81V51.12H358.51V51.12H360.2V51.12H361.9V133.72H363.6V133.72H365.3V133.72H366.99V133.72H368.69V133.72H370.39V133.72H372.08V133.72H373.78V133.72H375.48V133.72H377.17V133.72H378.87V133.72H380.57V133.72H382.26V133.72H383.96V133.72H385.66V133.72H387.35V133.72H389.05V133.72H390.75V133.72H392.44V133.72H394.14V133.72H395.84V133.72H397.53V133.72H399.23V133.72H400.93V133.72H402.62V133.72H404.32V133.72H406.02V133.72H407.71V133.72H409.41V133.72H411.11V133.72H412.8V133.72H414.5V96.88H416.2V96.88H417.89V96.88H419.59V96.88H421.29V96.88H422.98V96.88H424.68V96.88H426.38V96.88H428.07V96.88H429.77V96.88H431.47V96.88H433.16V96.88H434.86V96.88H436.56V96.88H438.25V96.88H439.95V96.88H441.65V96.88H443.34V96.88H445.04V96.88H446.74V96.88H448.43V96.88H450.13V96.88H451.83V96.88H453.52V96.88H455.22V96.88H456.92V96.88H458.61V96.88H460.31V96.88H462.01V96.88H463.7V96.88H465.4V110.75H467.1V110.75H468.8V110.75H470.49V110.75H472.19V110.75H473.89V110.75H475.58V110.75H477.28V110.75H478.98V110.75H480.67V110.75H482.37V110.75H484.07V110.75H485.76V110.75H487.46V110.75H489.16V110.75H490.85V110.75H492.55V110.75H494.25V110.75H495.94V110.75H497.64V110.75H499.34V110.75H501.03V110.75H502.73V110.75H504.43V110.75H506.12V110.75H507.82V110.75H509.52V110.75H511.21V110.75H512.91V110.75H514.61V110.75H516.3V110.75H518V17.44H519.7V17.44H521.39V17.44H523.09V17.44H524.79V17.44H526.48V17.44H528.18V17.44H529.88V17.44H531.57V17.44H533.27V17.44H534.97V17.44H536.66V17.44H538.36V17.44H540.06V17.44H541.75V17.44H543.45V17.44H545.15V17.44H546.84V17.44H548.54V17.44H550.24V17.44H551.93V17.44H553.63V17.44H555.33V17.44H557.02V17.44H558.72V17.44H560.42V17.44H562.11V17.44H563.81V17.44H565.51V17.44H567.2V17.44H568.9V51.25H570.6V51.25H572.3V51.25H573.99V51.25H575.69V51.25H577.39V51.25H579.08V51.25H580.78V51.25H582.48V51.25H584.17V51.25H585.87V51.25H587.57V51.25H589.26V51.25H590.96V51.25H592.66V51.25H594.35V51.25H596.05V51.25H597.75V51.25H599.44V51.25H601.14V51.25H602.84V51.25H604.53V51.25H606.23V51.25H607.93V51.25H609.62V51.25H611.32V51.25H613.02V51.25H614.71V51.25H616.41V51.25H618.11V51.25H619.8V51.25H621.5V105.17L621.5,148.16V133.64H619.8V133.64H618.11V133.64H616.41V133.64H614.71V133.64H613.02V133.64H611.32V133.64H609.62V133.64H607.93V133.64H606.23V133.64H604.53V133.64H602.84V133.64H601.14V133.64H599.44V133.64H597.75V133.64H596.05V133.64H594.35V133.64H592.66V133.64H590.96V133.64H589.26V133.64H587.57V133.64H585.87V133.64H584.17V133.64H582.48V133.64H580.78V133.64H579.08V133.64H577.39V133.64H575.69V133.64H573.99V133.64H572.3V133.64H570.6V133.64H568.9V110.46H567.2V110.46H565.51V110.46H563.81V110.46H562.11V110.46H560.42V110.46H558.72V110.46H557.02V110.46H555.33V110.46H553.63V110.46H551.93V110.46H550.24V110.46H548.54V110.46H546.84V110.46H545.15V110.46H543.45V110.46H541.75V110.46H540.06V110.46H538.36V110.46H536.66V110.46H534.97V110.46H533.27V110.46H531.57V110.46H529.88V110.46H528.18V110.46H526.48V110.46H524.79V110.46H523.09V110.46H521.39V110.46H519.7V110.46H518V167.69H516.3V167.69H514.61V167.69H512.91V167.69H511.21V167.69H509.52V167.69H507.82V167.69H506.12V167.69H504.43V167.69H502.73V167.69H501.03V167.69H499.34V167.69H497.64V167.69H495.94V167.69H494.25V167.69H492.55V167.69H490.85V167.69H489.16V167.69H487.46V167.69H485.76V167.69H484.07V167.69H482.37V167.69H480.67V167.69H478.98V167.69H477.28V167.69H475.58V167.69H473.89V167.69H472.19V167.69H470.49V167.69H468.8V167.69H467.1V167.69H465.4V163.98H463.7V163.98H462.01V163.98H460.31V163.98H458.61V163.98H456.92V163.98H455.22V163.98H453.52V163.98H451.83V163.98H450.13V163.98H448.43V163.98H446.74V163.98H445.04V163.98H443.34V163.98H441.65V163.98H439.95V163.98H438.25V163.98H436.56V163.98H434.86V163.98H433.16V163.98H431.47V163.98H429.77V163.98H428.07V163.98H426.38V163.98H424.68V163.98H422.98V163.98H421.29V163.98H419.59V163.98H417.89V163.98H416.2V163.98H414.5V217.69H412.8V217.69H411.11V217.69H409.41V217.69H407.71V217.69H406.02V217.69H404.32V217.69H402.62V217.69H400.93V217.69H399.23V217.69H397.53V217.69H395.84V217.69H394.14V217.69H392.44V217.69H390.75V217.69H389.05V217.69H387.35V217.69H385.66V217.69H383.96V217.69H382.26V217.69H380.57V217.69H378.87V217.69H377.17V217.69H375.48V217.69H373.78V217.69H372.08V217.69H370.39V217.69H368.69V217.69H366.99V217.69H365.3V217.69H363.6V217.69H361.9V94.57H360.2V94.57H358.51V94.57H356.81V94.57H355.11V94.57H353.42V94.57H351.72V94.57H350.02V94.57H348.33V94.57H346.63V94.57H344.93V94.57H343.24V94.57H341.54V94.57H339.84V94.57H338.15V94.57H336.45V94.57H334.75V94.57H333.06V94.57H331.36V94.57H329.66V94.57H327.97V94.57H326.27V94.57H324.57V94.57H322.88V94.57H321.18V94.57H319.48V94.57H317.79V94.57H316.09V94.57H314.39V94.57H312.7V94.57H311V94.57H309.3V114.21H307.61V114.21H305.91V114.21H304.21V114.21H302.52V114.21H300.82V114.21H299.12V114.21H297.43V114.21H295.73V114.21H294.03V114.21H292.34V114.21H290.64V114.21H288.94V114.21H287.25V114.21H285.55V114.21H283.85V114.21H282.16V114.21H280.46V114.21H278.76V114.21H277.07V114.21H275.37V114.21H273.67V114.21H271.98V114.21H270.28V114.21H268.58V114.21H266.89V114.21H265.19V114.21H263.49V114.21H261.8V114.21H260.1V114.21H258.4V137.32H256.7V137.32H255.01V137.32H253.31V137.32H251.61V137.32H249.92V137.32H248.22V137.32H246.52V137.32H244.83V137.32H243.13V137.32H241.43V137.32H239.74V137.32H238.04V137.32H236.34V137.32H234.65V137.32H232.95V137.32H231.25V137.32H229.56V137.32H227.86V137.32H226.16V137.32H224.47V137.32H222.77V137.32H221.07V137.32H219.38V137.32H217.68V137.32H215.98V137.32H214.29V137.32H212.59V137.32H210.89V137.32H209.2V137.32H207.5V137.32H205.8V195.24H204.11V195.24H202.41V195.24H200.71V195.24H199.02V195.24H197.32V195.24H195.62V195.24H193.93V195.24H192.23V195.24H190.53V195.24H188.84V195.24H187.14V195.24H185.44V195.24H183.75V195.24H182.05V195.24H180.35V195.24H178.66V195.24H176.96V195.24H175.26V195.24H173.57V195.24H171.87V195.24H170.17V195.24H168.48V195.24H166.78V195.24H165.08V195.24H163.39V195.24H161.69V195.24H159.99V195.24H158.3V195.24H156.6V195.24H154.9V202.89H153.2V202.89H151.51V202.89H149.81V202.89H148.11V202.89H146.42V202.89H144.72V202.89H143.02V202.89H141.33V202.89H139.63V202.89H137.93V202.89H136.24V202.89H134.54V202.89H132.84V202.89H131.15V202.89H129.45V202.89H127.75V202.89H126.06V202.89H124.36V202.89H122.66V202.89H120.97V202.89H119.27V202.89H117.57V202.89H115.88V202.89H114.18V202.89H112.48V202.89H110.79V202.89H109.09V202.89H107.39V202.89H105.7V202.89H104V202.89H102.3V202.2H100.61V202.2H98.91V202.2H97.21V202.2H95.52V202.2H93.82V202.2H92.12V202.2H90.43V202.2H88.73V202.2H87.03V202.2H85.34V202.2H83.64V202.2H81.94V202.2H80.25V202.2H78.55V202.2H76.85V202.2H75.16V202.2H73.46V202.2H71.76V202.2H70.07V202.2H68.37V202.2H66.67V202.2H64.98V202.2H63.28V202.2H61.58V202.2H59.89V202.2H58.19V202.2H56.49V202.2H54.8V202.2H53.1V189.21H51.4V189.21H49.7V189.21H48.01V189.21H46.31V189.21H44.61V189.21H42.92V189.21H41.22V189.21H39.52V189.21H37.83V189.21H36.13V189.21H34.43V189.21H32.74V189.21H31.04V189.21H29.34V189.21H27.65V189.21H25.95V189.21H24.25V189.21H22.56V189.21H20.86V189.21H19.16V189.21H17.47V189.21H15.77V189.21H14.07V189.21H12.38V189.21H10.68V189.21H8.98V189.21H7.29V189.21H5.59V189.21H3.89V189.21H2.2V189.21H0.5Z" style="fill: rgb(255, 127, 14); fill-opacity: 0.8; stroke-width: 0;"/></g></g><g class="errorbars"/><g class="lines"><path class="js-line" d="M0.5,189.21H2.2V189.21H3.89V189.21H5.59V189.21H7.29V189.21H8.98V189.21H10.68V189.21H12.38V189.21H14.07V189.21H15.77V189.21H17.47V189.21H19.16V189.21H20.86V189.21H22.56V189.21H24.25V189.21H25.95V189.21H27.65V189.21H29.34V189.21H31.04V189.21H32.74V189.21H34.43V189.21H36.13V189.21H37.83V189.21H39.52V189.21H41.22V189.21H42.92V189.21H44.61V189.21H46.31V189.21H48.01V189.21H49.7V189.21H51.4V189.21H53.1V202.2H54.8V202.2H56.49V202.2H58.19V202.2H59.89V202.2H61.58V202.2H63.28V202.2H64.98V202.2H66.67V202.2H68.37V202.2H70.07V202.2H71.76V202.2H73.46V202.2H75.16V202.2H76.85V202.2H78.55V202.2H80.25V202.2H81.94V202.2H83.64V202.2H85.34V202.2H87.03V202.2H88.73V202.2H90.43V202.2H92.12V202.2H93.82V202.2H95.52V202.2H97.21V202.2H98.91V202.2H100.61V202.2H102.3V202.89H104V202.89H105.7V202.89H107.39V202.89H109.09V202.89H110.79V202.89H112.48V202.89H114.18V202.89H115.88V202.89H117.57V202.89H119.27V202.89H120.97V202.89H122.66V202.89H124.36V202.89H126.06V202.89H127.75V202.89H129.45V202.89H131.15V202.89H132.84V202.89H134.54V202.89H136.24V202.89H137.93V202.89H139.63V202.89H141.33V202.89H143.02V202.89H144.72V202.89H146.42V202.89H148.11V202.89H149.81V202.89H151.51V202.89H153.2V202.89H154.9V195.24H156.6V195.24H158.3V195.24H159.99V195.24H161.69V195.24H163.39V195.24H165.08V195.24H166.78V195.24H168.48V195.24H170.17V195.24H171.87V195.24H173.57V195.24H175.26V195.24H176.96V195.24H178.66V195.24H180.35V195.24H182.05V195.24H183.75V195.24H185.44V195.24H187.14V195.24H188.84V195.24H190.53V195.24H192.23V195.24H193.93V195.24H195.62V195.24H197.32V195.24H199.02V195.24H200.71V195.24H202.41V195.24H204.11V195.24H205.8V137.32H207.5V137.32H209.2V137.32H210.89V137.32H212.59V137.32H214.29V137.32H215.98V137.32H217.68V137.32H219.38V137.32H221.07V137.32H222.77V137.32H224.47V137.32H226.16V137.32H227.86V137.32H229.56V137.32H231.25V137.32H232.95V137.32H234.65V137.32H236.34V137.32H238.04V137.32H239.74V137.32H241.43V137.32H243.13V137.32H244.83V137.32H246.52V137.32H248.22V137.32H249.92V137.32H251.61V137.32H253.31V137.32H255.01V137.32H256.7V137.32H258.4V114.21H260.1V114.21H261.8V114.21H263.49V114.21H265.19V114.21H266.89V114.21H268.58V114.21H270.28V114.21H271.98V114.21H273.67V114.21H275.37V114.21H277.07V114.21H278.76V114.21H280.46V114.21H282.16V114.21H283.85V114.21H285.55V114.21H287.25V114.21H288.94V114.21H290.64V114.21H292.34V114.21H294.03V114.21H295.73V114.21H297.43V114.21H299.12V114.21H300.82V114.21H302.52V114.21H304.21V114.21H305.91V114.21H307.61V114.21H309.3V94.57H311V94.57H312.7V94.57H314.39V94.57H316.09V94.57H317.79V94.57H319.48V94.57H321.18V94.57H322.88V94.57H324.57V94.57H326.27V94.57H327.97V94.57H329.66V94.57H331.36V94.57H333.06V94.57H334.75V94.57H336.45V94.57H338.15V94.57H339.84V94.57H341.54V94.57H343.24V94.57H344.93V94.57H346.63V94.57H348.33V94.57H350.02V94.57H351.72V94.57H353.42V94.57H355.11V94.57H356.81V94.57H358.51V94.57H360.2V94.57H361.9V217.69H363.6V217.69H365.3V217.69H366.99V217.69H368.69V217.69H370.39V217.69H372.08V217.69H373.78V217.69H375.48V217.69H377.17V217.69H378.87V217.69H380.57V217.69H382.26V217.69H383.96V217.69H385.66V217.69H387.35V217.69H389.05V217.69H390.75V217.69H392.44V217.69H394.14V217.69H395.84V217.69H397.53V217.69H399.23V217.69H400.93V217.69H402.62V217.69H404.32V217.69H406.02V217.69H407.71V217.69H409.41V217.69H411.11V217.69H412.8V217.69H414.5V163.98H416.2V163.98H417.89V163.98H419.59V163.98H421.29V163.98H422.98V163.98H424.68V163.98H426.38V163.98H428.07V163.98H429.77V163.98H431.47V163.98H433.16V163.98H434.86V163.98H436.56V163.98H438.25V163.98H439.95V163.98H441.65V163.98H443.34V163.98H445.04V163.98H446.74V163.98H448.43V163.98H450.13V163.98H451.83V163.98H453.52V163.98H455.22V163.98H456.92V163.98H458.61V163.98H460.31V163.98H462.01V163.98H463.7V163.98H465.4V167.69H467.1V167.69H468.8V167.69H470.49V167.69H472.19V167.69H473.89V167.69H475.58V167.69H477.28V167.69H478.98V167.69H480.67V167.69H482.37V167.69H484.07V167.69H485.76V167.69H487.46V167.69H489.16V167.69H490.85V167.69H492.55V167.69H494.25V167.69H495.94V167.69H497.64V167.69H499.34V167.69H501.03V167.69H502.73V167.69H504.43V167.69H506.12V167.69H507.82V167.69H509.52V167.69H511.21V167.69H512.91V167.69H514.61V167.69H516.3V167.69H518V110.46H519.7V110.46H521.39V110.46H523.09V110.46H524.79V110.46H526.48V110.46H528.18V110.46H529.88V110.46H531.57V110.46H533.27V110.46H534.97V110.46H536.66V110.46H538.36V110.46H540.06V110.46H541.75V110.46H543.45V110.46H545.15V110.46H546.84V110.46H548.54V110.46H550.24V110.46H551.93V110.46H553.63V110.46H555.33V110.46H557.02V110.46H558.72V110.46H560.42V110.46H562.11V110.46H563.81V110.46H565.51V110.46H567.2V110.46H568.9V133.64H570.6V133.64H572.3V133.64H573.99V133.64H575.69V133.64H577.39V133.64H579.08V133.64H580.78V133.64H582.48V133.64H584.17V133.64H585.87V133.64H587.57V133.64H589.26V133.64H590.96V133.64H592.66V133.64H594.35V133.64H596.05V133.64H597.75V133.64H599.44V133.64H601.14V133.64H602.84V133.64H604.53V133.64H606.23V133.64H607.93V133.64H609.62V133.64H611.32V133.64H613.02V133.64H614.71V133.64H616.41V133.64H618.11V133.64H619.8V133.64H621.5V148.16" style="vector-effect: none; fill: none; stroke: rgb(31, 119, 180); stroke-opacity: 1; stroke-width: 0px; opacity: 1;"/></g><g class="points"/><g class="text"/></g><g class="trace scatter tracec23a7769-b53a-4409-b137-ffbb48e7b6d5" style="stroke-miterlimit: 2;"><g class="fills"><g><path class="js-fill" d="M0.5,13.7H2.2V13.7H3.89V13.7H5.59V13.7H7.29V13.7H8.98V13.7H10.68V13.7H12.38V13.7H14.07V13.7H15.77V13.7H17.47V13.7H19.16V13.7H20.86V13.7H22.56V13.7H24.25V13.7H25.95V13.7H27.65V13.7H29.34V13.7H31.04V13.7H32.74V13.7H34.43V13.7H36.13V13.7H37.83V13.7H39.52V13.7H41.22V13.7H42.92V13.7H44.61V13.7H46.31V13.7H48.01V13.7H49.7V13.7H51.4V13.7H53.1V13.7H54.8V13.7H56.49V13.7H58.19V13.7H59.89V13.7H61.58V13.7H63.28V13.7H64.98V13.7H66.67V13.7H68.37V13.7H70.07V13.7H71.76V13.7H73.46V13.7H75.16V13.7H76.85V13.7H78.55V13.7H80.25V13.7H81.94V13.7H83.64V13.7H85.34V13.7H87.03V13.7H88.73V13.7H90.43V13.7H92.12V13.7H93.82V13.7H95.52V13.7H97.21V13.7H98.91V13.7H100.61V13.7H102.3V13.7H104V13.7H105.7V13.7H107.39V13.7H109.09V13.7H110.79V13.7H112.48V13.7H114.18V13.7H115.88V13.7H117.57V13.7H119.27V13.7H120.97V13.7H122.66V13.7H124.36V13.7H126.06V13.7H127.75V13.7H129.45V13.7H131.15V13.7H132.84V13.7H134.54V13.7H136.24V13.7H137.93V13.7H139.63V13.7H141.33V13.7H143.02V13.7H144.72V13.7H146.42V13.7H148.11V13.7H149.81V13.7H151.51V13.7H153.2V13.7H154.9V13.7H156.6V13.7H158.3V13.7H159.99V13.7H161.69V13.7H163.39V13.7H165.08V13.7H166.78V13.7H168.48V13.7H170.17V13.7H171.87V13.7H173.57V13.7H175.26V13.7H176.96V13.7H178.66V13.7H180.35V13.7H182.05V13.7H183.75V13.7H185.44V13.7H187.14V13.7H188.84V13.7H190.53V13.7H192.23V13.7H193.93V13.7H195.62V13.7H197.32V13.7H199.02V13.7H200.71V13.7H202.41V13.7H204.11V13.7H205.8V13.7H207.5V13.7H209.2V13.7H210.89V13.7H212.59V13.7H214.29V13.7H215.98V13.7H217.68V13.7H219.38V13.7H221.07V13.7H222.77V13.7H224.47V13.7H226.16V13.7H227.86V13.7H229.56V13.7H231.25V13.7H232.95V13.7H234.65V13.7H236.34V13.7H238.04V13.7H239.74V13.7H241.43V13.7H243.13V13.7H244.83V13.7H246.52V13.7H248.22V13.7H249.92V13.7H251.61V13.7H253.31V13.7H255.01V13.7H256.7V13.7H258.4V13.7H260.1V13.7H261.8V13.7H263.49V13.7H265.19V13.7H266.89V13.7H268.58V13.7H270.28V13.7H271.98V13.7H273.67V13.7H275.37V13.7H277.07V13.7H278.76V13.7H280.46V13.7H282.16V13.7H283.85V13.7H285.55V13.7H287.25V13.7H288.94V13.7H290.64V13.7H292.34V13.7H294.03V13.7H295.73V13.7H297.43V13.7H299.12V13.7H300.82V13.7H302.52V13.7H304.21V13.7H305.91V13.7H307.61V13.7H309.3V13.7H311V13.7H312.7V13.7H314.39V13.7H316.09V13.7H317.79V13.7H319.48V13.7H321.18V13.7H322.88V13.7H324.57V13.7H326.27V13.7H327.97V13.7H329.66V13.7H331.36V13.7H333.06V13.7H334.75V13.7H336.45V13.7H338.15V13.7H339.84V13.7H341.54V13.7H343.24V13.7H344.93V13.7H346.63V13.7H348.33V13.7H350.02V13.7H351.72V13.7H353.42V13.7H355.11V13.7H356.81V13.7H358.51V13.7H360.2V13.7H361.9V13.7H363.6V13.7H365.3V13.7H366.99V13.7H368.69V13.7H370.39V13.7H372.08V13.7H373.78V13.7H375.48V13.7H377.17V13.7H378.87V13.7H380.57V13.7H382.26V13.7H383.96V13.7H385.66V13.7H387.35V13.7H389.05V13.7H390.75V13.7H392.44V13.7H394.14V13.7H395.84V13.7H397.53V13.7H399.23V13.7H400.93V13.7H402.62V13.7H404.32V13.7H406.02V13.7H407.71V13.7H409.41V13.7H411.11V13.7H412.8V13.7H414.5V13.7H416.2V13.7H417.89V13.7H419.59V13.7H421.29V13.7H422.98V13.7H424.68V13.7H426.38V13.7H428.07V13.7H429.77V13.7H431.47V13.7H433.16V13.7H434.86V13.7H436.56V13.7H438.25V13.7H439.95V13.7H441.65V13.7H443.34V13.7H445.04V13.7H446.74V13.7H448.43V13.7H450.13V13.7H451.83V13.7H453.52V13.7H455.22V13.7H456.92V13.7H458.61V13.7H460.31V13.7H462.01V13.7H463.7V13.7H465.4V13.7H467.1V13.7H468.8V13.7H470.49V13.7H472.19V13.7H473.89V13.7H475.58V13.7H477.28V13.7H478.98V13.7H480.67V13.7H482.37V13.7H484.07V13.7H485.76V13.7H487.46V13.7H489.16V13.7H490.85V13.7H492.55V13.7H494.25V13.7H495.94V13.7H497.64V13.7H499.34V13.7H501.03V13.7H502.73V13.7H504.43V13.7H506.12V13.7H507.82V13.7H509.52V13.7H511.21V13.7H512.91V13.7H514.61V13.7H516.3V13.7H518V13.7H519.7V13.7H521.39V13.7H523.09V13.7H524.79V13.7H526.48V13.7H528.18V13.7H529.88V13.7H531.57V13.7H533.27V13.7H534.97V13.7H536.66V13.7H538.36V13.7H540.06V13.7H541.75V13.7H543.45V13.7H545.15V13.7H546.84V13.7H548.54V13.7H550.24V13.7H551.93V13.7H553.63V13.7H555.33V13.7H557.02V13.7H558.72V13.7H560.42V13.7H562.11V13.7H563.81V13.7H565.51V13.7H567.2V13.7H568.9V13.7H570.6V13.7H572.3V13.7H573.99V13.7H575.69V13.7H577.39V13.7H579.08V13.7H580.78V13.7H582.48V13.7H584.17V13.7H585.87V13.7H587.57V13.7H589.26V13.7H590.96V13.7H592.66V13.7H594.35V13.7H596.05V13.7H597.75V13.7H599.44V13.7H601.14V13.7H602.84V13.7H604.53V13.7H606.23V13.7H607.93V13.7H609.62V13.7H611.32V13.7H613.02V13.7H614.71V13.7H616.41V13.7H618.11V13.7H619.8V13.7H621.5V13.7L621.5,105.17V51.25H619.8V51.25H618.11V51.25H616.41V51.25H614.71V51.25H613.02V51.25H611.32V51.25H609.62V51.25H607.93V51.25H606.23V51.25H604.53V51.25H602.84V51.25H601.14V51.25H599.44V51.25H597.75V51.25H596.05V51.25H594.35V51.25H592.66V51.25H590.96V51.25H589.26V51.25H587.57V51.25H585.87V51.25H584.17V51.25H582.48V51.25H580.78V51.25H579.08V51.25H577.39V51.25H575.69V51.25H573.99V51.25H572.3V51.25H570.6V51.25H568.9V17.44H567.2V17.44H565.51V17.44H563.81V17.44H562.11V17.44H560.42V17.44H558.72V17.44H557.02V17.44H555.33V17.44H553.63V17.44H551.93V17.44H550.24V17.44H548.54V17.44H546.84V17.44H545.15V17.44H543.45V17.44H541.75V17.44H540.06V17.44H538.36V17.44H536.66V17.44H534.97V17.44H533.27V17.44H531.57V17.44H529.88V17.44H528.18V17.44H526.48V17.44H524.79V17.44H523.09V17.44H521.39V17.44H519.7V17.44H518V110.75H516.3V110.75H514.61V110.75H512.91V110.75H511.21V110.75H509.52V110.75H507.82V110.75H506.12V110.75H504.43V110.75H502.73V110.75H501.03V110.75H499.34V110.75H497.64V110.75H495.94V110.75H494.25V110.75H492.55V110.75H490.85V110.75H489.16V110.75H487.46V110.75H485.76V110.75H484.07V110.75H482.37V110.75H480.67V110.75H478.98V110.75H477.28V110.75H475.58V110.75H473.89V110.75H472.19V110.75H470.49V110.75H468.8V110.75H467.1V110.75H465.4V96.88H463.7V96.88H462.01V96.88H460.31V96.88H458.61V96.88H456.92V96.88H455.22V96.88H453.52V96.88H451.83V96.88H450.13V96.88H448.43V96.88H446.74V96.88H445.04V96.88H443.34V96.88H441.65V96.88H439.95V96.88H438.25V96.88H436.56V96.88H434.86V96.88H433.16V96.88H431.47V96.88H429.77V96.88H428.07V96.88H426.38V96.88H424.68V96.88H422.98V96.88H421.29V96.88H419.59V96.88H417.89V96.88H416.2V96.88H414.5V133.72H412.8V133.72H411.11V133.72H409.41V133.72H407.71V133.72H406.02V133.72H404.32V133.72H402.62V133.72H400.93V133.72H399.23V133.72H397.53V133.72H395.84V133.72H394.14V133.72H392.44V133.72H390.75V133.72H389.05V133.72H387.35V133.72H385.66V133.72H383.96V133.72H382.26V133.72H380.57V133.72H378.87V133.72H377.17V133.72H375.48V133.72H373.78V133.72H372.08V133.72H370.39V133.72H368.69V133.72H366.99V133.72H365.3V133.72H363.6V133.72H361.9V51.12H360.2V51.12H358.51V51.12H356.81V51.12H355.11V51.12H353.42V51.12H351.72V51.12H350.02V51.12H348.33V51.12H346.63V51.12H344.93V51.12H343.24V51.12H341.54V51.12H339.84V51.12H338.15V51.12H336.45V51.12H334.75V51.12H333.06V51.12H331.36V51.12H329.66V51.12H327.97V51.12H326.27V51.12H324.57V51.12H322.88V51.12H321.18V51.12H319.48V51.12H317.79V51.12H316.09V51.12H314.39V51.12H312.7V51.12H311V51.12H309.3V34.71H307.61V34.71H305.91V34.71H304.21V34.71H302.52V34.71H300.82V34.71H299.12V34.71H297.43V34.71H295.73V34.71H294.03V34.71H292.34V34.71H290.64V34.71H288.94V34.71H287.25V34.71H285.55V34.71H283.85V34.71H282.16V34.71H280.46V34.71H278.76V34.71H277.07V34.71H275.37V34.71H273.67V34.71H271.98V34.71H270.28V34.71H268.58V34.71H266.89V34.71H265.19V34.71H263.49V34.71H261.8V34.71H260.1V34.71H258.4V18.32H256.7V18.32H255.01V18.32H253.31V18.32H251.61V18.32H249.92V18.32H248.22V18.32H246.52V18.32H244.83V18.32H243.13V18.32H241.43V18.32H239.74V18.32H238.04V18.32H236.34V18.32H234.65V18.32H232.95V18.32H231.25V18.32H229.56V18.32H227.86V18.32H226.16V18.32H224.47V18.32H222.77V18.32H221.07V18.32H219.38V18.32H217.68V18.32H215.98V18.32H214.29V18.32H212.59V18.32H210.89V18.32H209.2V18.32H207.5V18.32H205.8V82.66H204.11V82.66H202.41V82.66H200.71V82.66H199.02V82.66H197.32V82.66H195.62V82.66H193.93V82.66H192.23V82.66H190.53V82.66H188.84V82.66H187.14V82.66H185.44V82.66H183.75V82.66H182.05V82.66H180.35V82.66H178.66V82.66H176.96V82.66H175.26V82.66H173.57V82.66H171.87V82.66H170.17V82.66H168.48V82.66H166.78V82.66H165.08V82.66H163.39V82.66H161.69V82.66H159.99V82.66H158.3V82.66H156.6V82.66H154.9V118.63H153.2V118.63H151.51V118.63H149.81V118.63H148.11V118.63H146.42V118.63H144.72V118.63H143.02V118.63H141.33V118.63H139.63V118.63H137.93V118.63H136.24V118.63H134.54V118.63H132.84V118.63H131.15V118.63H129.45V118.63H127.75V118.63H126.06V118.63H124.36V118.63H122.66V118.63H120.97V118.63H119.27V118.63H117.57V118.63H115.88V118.63H114.18V118.63H112.48V118.63H110.79V118.63H109.09V118.63H107.39V118.63H105.7V118.63H104V118.63H102.3V89.65H100.61V89.65H98.91V89.65H97.21V89.65H95.52V89.65H93.82V89.65H92.12V89.65H90.43V89.65H88.73V89.65H87.03V89.65H85.34V89.65H83.64V89.65H81.94V89.65H80.25V89.65H78.55V89.65H76.85V89.65H75.16V89.65H73.46V89.65H71.76V89.65H70.07V89.65H68.37V89.65H66.67V89.65H64.98V89.65H63.28V89.65H61.58V89.65H59.89V89.65H58.19V89.65H56.49V89.65H54.8V89.65H53.1V177.7H51.4V177.7H49.7V177.7H48.01V177.7H46.31V177.7H44.61V177.7H42.92V177.7H41.22V177.7H39.52V177.7H37.83V177.7H36.13V177.7H34.43V177.7H32.74V177.7H31.04V177.7H29.34V177.7H27.65V177.7H25.95V177.7H24.25V177.7H22.56V177.7H20.86V177.7H19.16V177.7H17.47V177.7H15.77V177.7H14.07V177.7H12.38V177.7H10.68V177.7H8.98V177.7H7.29V177.7H5.59V177.7H3.89V177.7H2.2V177.7H0.5Z" style="fill: rgb(44, 160, 44); fill-opacity: 0.8; stroke-width: 0;"/></g></g><g class="errorbars"/><g class="lines"><path class="js-line" d="M0.5,177.7H2.2V177.7H3.89V177.7H5.59V177.7H7.29V177.7H8.98V177.7H10.68V177.7H12.38V177.7H14.07V177.7H15.77V177.7H17.47V177.7H19.16V177.7H20.86V177.7H22.56V177.7H24.25V177.7H25.95V177.7H27.65V177.7H29.34V177.7H31.04V177.7H32.74V177.7H34.43V177.7H36.13V177.7H37.83V177.7H39.52V177.7H41.22V177.7H42.92V177.7H44.61V177.7H46.31V177.7H48.01V177.7H49.7V177.7H51.4V177.7H53.1V89.65H54.8V89.65H56.49V89.65H58.19V89.65H59.89V89.65H61.58V89.65H63.28V89.65H64.98V89.65H66.67V89.65H68.37V89.65H70.07V89.65H71.76V89.65H73.46V89.65H75.16V89.65H76.85V89.65H78.55V89.65H80.25V89.65H81.94V89.65H83.64V89.65H85.34V89.65H87.03V89.65H88.73V89.65H90.43V89.65H92.12V89.65H93.82V89.65H95.52V89.65H97.21V89.65H98.91V89.65H100.61V89.65H102.3V118.63H104V118.63H105.7V118.63H107.39V118.63H109.09V118.63H110.79V118.63H112.48V118.63H114.18V118.63H115.88V118.63H117.57V118.63H119.27V118.63H120.97V118.63H122.66V118.63H124.36V118.63H126.06V118.63H127.75V118.63H129.45V118.63H131.15V118.63H132.84V118.63H134.54V118.63H136.24V118.63H137.93V118.63H139.63V118.63H141.33V118.63H143.02V118.63H144.72V118.63H146.42V118.63H148.11V118.63H149.81V118.63H151.51V118.63H153.2V118.63H154.9V82.66H156.6V82.66H158.3V82.66H159.99V82.66H161.69V82.66H163.39V82.66H165.08V82.66H166.78V82.66H168.48V82.66H170.17V82.66H171.87V82.66H173.57V82.66H175.26V82.66H176.96V82.66H178.66V82.66H180.35V82.66H182.05V82.66H183.75V82.66H185.44V82.66H187.14V82.66H188.84V82.66H190.53V82.66H192.23V82.66H193.93V82.66H195.62V82.66H197.32V82.66H199.02V82.66H200.71V82.66H202.41V82.66H204.11V82.66H205.8V18.32H207.5V18.32H209.2V18.32H210.89V18.32H212.59V18.32H214.29V18.32H215.98V18.32H217.68V18.32H219.38V18.32H221.07V18.32H222.77V18.32H224.47V18.32H226.16V18.32H227.86V18.32H229.56V18.32H231.25V18.32H232.95V18.32H234.65V18.32H236.34V18.32H238.04V18.32H239.74V18.32H241.43V18.32H243.13V18.32H244.83V18.32H246.52V18.32H248.22V18.32H249.92V18.32H251.61V18.32H253.31V18.32H255.01V18.32H256.7V18.32H258.4V34.71H260.1V34.71H261.8V34.71H263.49V34.71H265.19V34.71H266.89V34.71H268.58V34.71H270.28V34.71H271.98V34.71H273.67V34.71H275.37V34.71H277.07V34.71H278.76V34.71H280.46V34.71H282.16V34.71H283.85V34.71H285.55V34.71H287.25V34.71H288.94V34.71H290.64V34.71H292.34V34.71H294.03V34.71H295.73V34.71H297.43V34.71H299.12V34.71H300.82V34.71H302.52V34.71H304.21V34.71H305.91V34.71H307.61V34.71H309.3V51.12H311V51.12H312.7V51.12H314.39V51.12H316.09V51.12H317.79V51.12H319.48V51.12H321.18V51.12H322.88V51.12H324.57V51.12H326.27V51.12H327.97V51.12H329.66V51.12H331.36V51.12H333.06V51.12H334.75V51.12H336.45V51.12H338.15V51.12H339.84V51.12H341.54V51.12H343.24V51.12H344.93V51.12H346.63V51.12H348.33V51.12H350.02V51.12H351.72V51.12H353.42V51.12H355.11V51.12H356.81V51.12H358.51V51.12H360.2V51.12H361.9V133.72H363.6V133.72H365.3V133.72H366.99V133.72H368.69V133.72H370.39V133.72H372.08V133.72H373.78V133.72H375.48V133.72H377.17V133.72H378.87V133.72H380.57V133.72H382.26V133.72H383.96V133.72H385.66V133.72H387.35V133.72H389.05V133.72H390.75V133.72H392.44V133.72H394.14V133.72H395.84V133.72H397.53V133.72H399.23V133.72H400.93V133.72H402.62V133.72H404.32V133.72H406.02V133.72H407.71V133.72H409.41V133.72H411.11V133.72H412.8V133.72H414.5V96.88H416.2V96.88H417.89V96.88H419.59V96.88H421.29V96.88H422.98V96.88H424.68V96.88H426.38V96.88H428.07V96.88H429.77V96.88H431.47V96.88H433.16V96.88H434.86V96.88H436.56V96.88H438.25V96.88H439.95V96.88H441.65V96.88H443.34V96.88H445.04V96.88H446.74V96.88H448.43V96.88H450.13V96.88H451.83V96.88H453.52V96.88H455.22V96.88H456.92V96.88H458.61V96.88H460.31V96.88H462.01V96.88H463.7V96.88H465.4V110.75H467.1V110.75H468.8V110.75H470.49V110.75H472.19V110.75H473.89V110.75H475.58V110.75H477.28V110.75H478.98V110.75H480.67V110.75H482.37V110.75H484.07V110.75H485.76V110.75H487.46V110.75H489.16V110.75H490.85V110.75H492.55V110.75H494.25V110.75H495.94V110.75H497.64V110.75H499.34V110.75H501.03V110.75H502.73V110.75H504.43V110.75H506.12V110.75H507.82V110.75H509.52V110.75H511.21V110.75H512.91V110.75H514.61V110.75H516.3V110.75H518V17.44H519.7V17.44H521.39V17.44H523.09V17.44H524.79V17.44H526.48V17.44H528.18V17.44H529.88V17.44H531.57V17.44H533.27V17.44H534.97V17.44H536.66V17.44H538.36V17.44H540.06V17.44H541.75V17.44H543.45V17.44H545.15V17.44H546.84V17.44H548.54V17.44H550.24V17.44H551.93V17.44H553.63V17.44H555.33V17.44H557.02V17.44H558.72V17.44H560.42V17.44H562.11V17.44H563.81V17.44H565.51V17.44H567.2V17.44H568.9V51.25H570.6V51.25H572.3V51.25H573.99V51.25H575.69V51.25H577.39V51.25H579.08V51.25H580.78V51.25H582.48V51.25H584.17V51.25H585.87V51.25H587.57V51.25H589.26V51.25H590.96V51.25H592.66V51.25H594.35V51.25H596.05V51.25H597.75V51.25H599.44V51.25H601.14V51.25H602.84V51.25H604.53V51.25H606.23V51.25H607.93V51.25H609.62V51.25H611.32V51.25H613.02V51.25H614.71V51.25H616.41V51.25H618.11V51.25H619.8V51.25H621.5V105.17" style="vector-effect: none; fill: none; stroke: rgb(255, 127, 14); stroke-opacity: 1; stroke-width: 0px; opacity: 1;"/></g><g class="points"/><g class="text"/></g><g class="trace scatter tracec79b68d3-9b20-424a-989e-c4e52c841b63" style="stroke-miterlimit: 2;"><g class="fills"/><g class="errorbars"/><g class="lines"><path class="js-line" d="M0.5,13.7H2.2V13.7H3.89V13.7H5.59V13.7H7.29V13.7H8.98V13.7H10.68V13.7H12.38V13.7H14.07V13.7H15.77V13.7H17.47V13.7H19.16V13.7H20.86V13.7H22.56V13.7H24.25V13.7H25.95V13.7H27.65V13.7H29.34V13.7H31.04V13.7H32.74V13.7H34.43V13.7H36.13V13.7H37.83V13.7H39.52V13.7H41.22V13.7H42.92V13.7H44.61V13.7H46.31V13.7H48.01V13.7H49.7V13.7H51.4V13.7H53.1V13.7H54.8V13.7H56.49V13.7H58.19V13.7H59.89V13.7H61.58V13.7H63.28V13.7H64.98V13.7H66.67V13.7H68.37V13.7H70.07V13.7H71.76V13.7H73.46V13.7H75.16V13.7H76.85V13.7H78.55V13.7H80.25V13.7H81.94V13.7H83.64V13.7H85.34V13.7H87.03V13.7H88.73V13.7H90.43V13.7H92.12V13.7H93.82V13.7H95.52V13.7H97.21V13.7H98.91V13.7H100.61V13.7H102.3V13.7H104V13.7H105.7V13.7H107.39V13.7H109.09V13.7H110.79V13.7H112.48V13.7H114.18V13.7H115.88V13.7H117.57V13.7H119.27V13.7H120.97V13.7H122.66V13.7H124.36V13.7H126.06V13.7H127.75V13.7H129.45V13.7H131.15V13.7H132.84V13.7H134.54V13.7H136.24V13.7H137.93V13.7H139.63V13.7H141.33V13.7H143.02V13.7H144.72V13.7H146.42V13.7H148.11V13.7H149.81V13.7H151.51V13.7H153.2V13.7H154.9V13.7H156.6V13.7H158.3V13.7H159.99V13.7H161.69V13.7H163.39V13.7H165.08V13.7H166.78V13.7H168.48V13.7H170.17V13.7H171.87V13.7H173.57V13.7H175.26V13.7H176.96V13.7H178.66V13.7H180.35V13.7H182.05V13.7H183.75V13.7H185.44V13.7H187.14V13.7H188.84V13.7H190.53V13.7H192.23V13.7H193.93V13.7H195.62V13.7H197.32V13.7H199.02V13.7H200.71V13.7H202.41V13.7H204.11V13.7H205.8V13.7H207.5V13.7H209.2V13.7H210.89V13.7H212.59V13.7H214.29V13.7H215.98V13.7H217.68V13.7H219.38V13.7H221.07V13.7H222.77V13.7H224.47V13.7H226.16V13.7H227.86V13.7H229.56V13.7H231.25V13.7H232.95V13.7H234.65V13.7H236.34V13.7H238.04V13.7H239.74V13.7H241.43V13.7H243.13V13.7H244.83V13.7H246.52V13.7H248.22V13.7H249.92V13.7H251.61V13.7H253.31V13.7H255.01V13.7H256.7V13.7H258.4V13.7H260.1V13.7H261.8V13.7H263.49V13.7H265.19V13.7H266.89V13.7H268.58V13.7H270.28V13.7H271.98V13.7H273.67V13.7H275.37V13.7H277.07V13.7H278.76V13.7H280.46V13.7H282.16V13.7H283.85V13.7H285.55V13.7H287.25V13.7H288.94V13.7H290.64V13.7H292.34V13.7H294.03V13.7H295.73V13.7H297.43V13.7H299.12V13.7H300.82V13.7H302.52V13.7H304.21V13.7H305.91V13.7H307.61V13.7H309.3V13.7H311V13.7H312.7V13.7H314.39V13.7H316.09V13.7H317.79V13.7H319.48V13.7H321.18V13.7H322.88V13.7H324.57V13.7H326.27V13.7H327.97V13.7H329.66V13.7H331.36V13.7H333.06V13.7H334.75V13.7H336.45V13.7H338.15V13.7H339.84V13.7H341.54V13.7H343.24V13.7H344.93V13.7H346.63V13.7H348.33V13.7H350.02V13.7H351.72V13.7H353.42V13.7H355.11V13.7H356.81V13.7H358.51V13.7H360.2V13.7H361.9V13.7H363.6V13.7H365.3V13.7H366.99V13.7H368.69V13.7H370.39V13.7H372.08V13.7H373.78V13.7H375.48V13.7H377.17V13.7H378.87V13.7H380.57V13.7H382.26V13.7H383.96V13.7H385.66V13.7H387.35V13.7H389.05V13.7H390.75V13.7H392.44V13.7H394.14V13.7H395.84V13.7H397.53V13.7H399.23V13.7H400.93V13.7H402.62V13.7H404.32V13.7H406.02V13.7H407.71V13.7H409.41V13.7H411.11V13.7H412.8V13.7H414.5V13.7H416.2V13.7H417.89V13.7H419.59V13.7H421.29V13.7H422.98V13.7H424.68V13.7H426.38V13.7H428.07V13.7H429.77V13.7H431.47V13.7H433.16V13.7H434.86V13.7H436.56V13.7H438.25V13.7H439.95V13.7H441.65V13.7H443.34V13.7H445.04V13.7H446.74V13.7H448.43V13.7H450.13V13.7H451.83V13.7H453.52V13.7H455.22V13.7H456.92V13.7H458.61V13.7H460.31V13.7H462.01V13.7H463.7V13.7H465.4V13.7H467.1V13.7H468.8V13.7H470.49V13.7H472.19V13.7H473.89V13.7H475.58V13.7H477.28V13.7H478.98V13.7H480.67V13.7H482.37V13.7H484.07V13.7H485.76V13.7H487.46V13.7H489.16V13.7H490.85V13.7H492.55V13.7H494.25V13.7H495.94V13.7H497.64V13.7H499.34V13.7H501.03V13.7H502.73V13.7H504.43V13.7H506.12V13.7H507.82V13.7H509.52V13.7H511.21V13.7H512.91V13.7H514.61V13.7H516.3V13.7H518V13.7H519.7V13.7H521.39V13.7H523.09V13.7H524.79V13.7H526.48V13.7H528.18V13.7H529.88V13.7H531.57V13.7H533.27V13.7H534.97V13.7H536.66V13.7H538.36V13.7H540.06V13.7H541.75V13.7H543.45V13.7H545.15V13.7H546.84V13.7H548.54V13.7H550.24V13.7H551.93V13.7H553.63V13.7H555.33V13.7H557.02V13.7H558.72V13.7H560.42V13.7H562.11V13.7H563.81V13.7H565.51V13.7H567.2V13.7H568.9V13.7H570.6V13.7H572.3V13.7H573.99V13.7H575.69V13.7H577.39V13.7H579.08V13.7H580.78V13.7H582.48V13.7H584.17V13.7H585.87V13.7H587.57V13.7H589.26V13.7H590.96V13.7H592.66V13.7H594.35V13.7H596.05V13.7H597.75V13.7H599.44V13.7H601.14V13.7H602.84V13.7H604.53V13.7H606.23V13.7H607.93V13.7H609.62V13.7H611.32V13.7H613.02V13.7H614.71V13.7H616.41V13.7H618.11V13.7H619.8V13.7H621.5V13.7" style="vector-effect: none; fill: none; stroke: rgb(44, 160, 44); stroke-opacity: 1; stroke-width: 0px; opacity: 1;"/></g><g class="points"/><g class="text"/></g></g></g><g class="overplot"/><path class="xlines-above crisp" d="M0,0" style="fill: none;"/><path class="ylines-above crisp" d="M0,0" style="fill: none;"/><g class="overlines-above"/><g class="xaxislayer-above"><g class="xtick"><text text-anchor="middle" x="0" y="333" transform="translate(39.5,0)" style="font-family: 'Open Sans', verdana, arial, sans-serif; font-size: 12px; fill: rgb(214, 223, 239); fill-opacity: 1; white-space: pre; opacity: 1;">Jan 2020</text></g><g class="xtick"><text text-anchor="middle" x="0" y="333" style="font-family: 'Open Sans', verdana, arial, sans-serif; font-size: 12px; fill: rgb(214, 223, 239); fill-opacity: 1; white-space: pre; opacity: 1;" transform="translate(141.3,0)">Mar 2020</text></g><g class="xtick"><text text-anchor="middle" x="0" y="333" style="font-family: 'Open Sans', verdana, arial, sans-serif; font-size: 12px; fill: rgb(214, 223, 239); fill-opacity: 1; white-space: pre; opacity: 1;" transform="translate(244.8,0)">May 2020</text></g><g class="xtick"><text text-anchor="middle" x="0" y="333" style="font-family: 'Open Sans', verdana, arial, sans-serif; font-size: 12px; fill: rgb(214, 223, 239); fill-opacity: 1; white-space: pre; opacity: 1;" transform="translate(348.3,0)">Jul 2020</text></g><g class="xtick"><text text-anchor="middle" x="0" y="333" style="font-family: 'Open Sans', verdana, arial, sans-serif; font-size: 12px; fill: rgb(214, 223, 239); fill-opacity: 1; white-space: pre; opacity: 1;" transform="translate(453.5,0)">Sep 2020</text></g><g class="xtick"><text text-anchor="middle" x="0" y="333" style="font-family: 'Open Sans', verdana, arial, sans-serif; font-size: 12px; fill: rgb(214, 223, 239); fill-opacity: 1; white-space: pre; opacity: 1;" transform="translate(557,0)">Nov 2020</text></g><g class="xtick"><text text-anchor="middle" x="0" y="333" style="font-family: 'Open Sans', verdana, arial, sans-serif; font-size: 12px; fill: rgb(214, 223, 239); fill-opacity: 1; white-space: pre; opacity: 1;" transform="translate(660.5,0)">Jan 2021</text></g></g><g class="yaxislayer-above"><g class="ytick"><text text-anchor="end" x="38" y="4.199999999999999" transform="translate(0,320)" style="font-family: 'Open Sans', verdana, arial, sans-serif; font-size: 12px; fill: rgb(214, 223, 239); fill-opacity: 1; white-space: pre; opacity: 1;">0</text></g><g class="ytick"><text text-anchor="end" x="38" y="4.199999999999999" style="font-family: 'Open Sans', verdana, arial, sans-serif; font-size: 12px; fill: rgb(214, 223, 239); fill-opacity: 1; white-space: pre; opacity: 1;" transform="translate(0,267.94)">0.2</text></g><g class="ytick"><text text-anchor="end" x="38" y="4.199999999999999" style="font-family: 'Open Sans', verdana, arial, sans-serif; font-size: 12px; fill: rgb(214, 223, 239); fill-opacity: 1; white-space: pre; opacity: 1;" transform="translate(0,215.88)">0.4</text></g><g class="ytick"><text text-anchor="end" x="38" y="4.199999999999999" style="font-family: 'Open Sans', verdana, arial, sans-serif; font-size: 12px; fill: rgb(214, 223, 239); fill-opacity: 1; white-space: pre; opacity: 1;" transform="translate(0,163.82)">0.6</text></g><g class="ytick"><text text-anchor="end" x="38" y="4.199999999999999" style="font-family: 'Open Sans', verdana, arial, sans-serif; font-size: 12px; fill: rgb(214, 223, 239); fill-opacity: 1; white-space: pre; opacity: 1;" transform="translate(0,111.76)">0.8</text></g><g class="ytick"><text text-anchor="end" x="38" y="4.199999999999999" style="font-family: 'Open Sans', verdana, arial, sans-serif; font-size: 12px; fill: rgb(214, 223, 239); fill-opacity: 1; white-space: pre; opacity: 1;" transform="translate(0,59.7)">1</text></g></g><g class="overaxes-above"/></g></g><g class="polarlayer"/><g class="smithlayer"/><g class="ternarylayer"/><g class="geolayer"/><g class="funnelarealayer"/><g class="pielayer"/><g class="iciclelayer"/><g class="treemaplayer"/><g class="sunburstlayer"/><g class="glimages"/><defs id="topdefs-f6349e"><g class="clips"/><clipPath id="legendf6349e"><rect width="234" height="29" x="0" y="0"/></clipPath></defs><g class="layer-above"><g class="imagelayer"/><g class="shapelayer"><g class="shape-group" data-index="0" clip-path="url(#clipf6349ex)"><path data-index="0" fill-rule="evenodd" d="M39.5,320L39.5,46" style="opacity: 1; stroke: rgb(33, 34, 38); stroke-opacity: 1; fill: rgb(0, 0, 0); fill-opacity: 0; stroke-dasharray: 3px, 3px; stroke-width: 1px;"/></g><g class="shape-group" data-index="1" clip-path="url(#clipf6349ex)"><path data-index="1" fill-rule="evenodd" d="M92.1,320L92.1,46" style="opacity: 1; stroke: rgb(33, 34, 38); stroke-opacity: 1; fill: rgb(0, 0, 0); fill-opacity: 0; stroke-dasharray: 3px, 3px; stroke-width: 1px;"/></g><g class="shape-group" data-index="2" clip-path="url(#clipf6349ex)"><path data-index="2" fill-rule="evenodd" d="M141.3,320L141.3,46" style="opacity: 1; stroke: rgb(33, 34, 38); stroke-opacity: 1; fill: rgb(0, 0, 0); fill-opacity: 0; stroke-dasharray: 3px, 3px; stroke-width: 1px;"/></g><g class="shape-group" data-index="3" clip-path="url(#clipf6349ex)"><path data-index="3" fill-rule="evenodd" d="M193.9,320L193.9,46" style="opacity: 1; stroke: rgb(33, 34, 38); stroke-opacity: 1; fill: rgb(0, 0, 0); fill-opacity: 0; stroke-dasharray: 3px, 3px; stroke-width: 1px;"/></g><g class="shape-group" data-index="4" clip-path="url(#clipf6349ex)"><path data-index="4" fill-rule="evenodd" d="M244.8,320L244.8,46" style="opacity: 1; stroke: rgb(33, 34, 38); stroke-opacity: 1; fill: rgb(0, 0, 0); fill-opacity: 0; stroke-dasharray: 3px, 3px; stroke-width: 1px;"/></g><g class="shape-group" data-index="5" clip-path="url(#clipf6349ex)"><path data-index="5" fill-rule="evenodd" d="M297.4,320L297.4,46" style="opacity: 1; stroke: rgb(33, 34, 38); stroke-opacity: 1; fill: rgb(0, 0, 0); fill-opacity: 0; stroke-dasharray: 3px, 3px; stroke-width: 1px;"/></g><g class="shape-group" data-index="6" clip-path="url(#clipf6349ex)"><path data-index="6" fill-rule="evenodd" d="M348.3,320L348.3,46" style="opacity: 1; stroke: rgb(33, 34, 38); stroke-opacity: 1; fill: rgb(0, 0, 0); fill-opacity: 0; stroke-dasharray: 3px, 3px; stroke-width: 1px;"/></g><g class="shape-group" data-index="7" clip-path="url(#clipf6349ex)"><path data-index="7" fill-rule="evenodd" d="M400.9,320L400.9,46" style="opacity: 1; stroke: rgb(33, 34, 38); stroke-opacity: 1; fill: rgb(0, 0, 0); fill-opacity: 0; stroke-dasharray: 3px, 3px; stroke-width: 1px;"/></g><g class="shape-group" data-index="8" clip-path="url(#clipf6349ex)"><path data-index="8" fill-rule="evenodd" d="M453.5,320L453.5,46" style="opacity: 1; stroke: rgb(33, 34, 38); stroke-opacity: 1; fill: rgb(0, 0, 0); fill-opacity: 0; stroke-dasharray: 3px, 3px; stroke-width: 1px;"/></g><g class="shape-group" data-index="9" clip-path="url(#clipf6349ex)"><path data-index="9" fill-rule="evenodd" d="M504.4,320L504.4,46" style="opacity: 1; stroke: rgb(33, 34, 38); stroke-opacity: 1; fill: rgb(0, 0, 0); fill-opacity: 0; stroke-dasharray: 3px, 3px; stroke-width: 1px;"/></g><g class="shape-group" data-index="10" clip-path="url(#clipf6349ex)"><path data-index="10" fill-rule="evenodd" d="M557,320L557,46" style="opacity: 1; stroke: rgb(33, 34, 38); stroke-opacity: 1; fill: rgb(0, 0, 0); fill-opacity: 0; stroke-dasharray: 3px, 3px; stroke-width: 1px;"/></g><g class="shape-group" data-index="11" clip-path="url(#clipf6349ex)"><path data-index="11" fill-rule="evenodd" d="M607.9,320L607.9,46" style="opacity: 1; stroke: rgb(33, 34, 38); stroke-opacity: 1; fill: rgb(0, 0, 0); fill-opacity: 0; stroke-dasharray: 3px, 3px; stroke-width: 1px;"/></g><g class="shape-group" data-index="12" clip-path="url(#clipf6349ex)"><path data-index="12" fill-rule="evenodd" d="M660.5,320L660.5,46" style="opacity: 1; stroke: rgb(33, 34, 38); stroke-opacity: 1; fill: rgb(0, 0, 0); fill-opacity: 0; stroke-dasharray: 3px, 3px; stroke-width: 1px;"/></g></g></g><g class="infolayer"><g class="legend" pointer-events="all" transform="translate(427,11.519999999999996)"><rect class="bg" shape-rendering="crispEdges" width="234" height="29" x="0" y="0" style="stroke: rgb(68, 68, 68); stroke-opacity: 1; fill: rgb(33, 34, 38); fill-opacity: 1; stroke-width: 0px;"/><g class="scrollbox" transform="" clip-path="url(#legendf6349e)"><g class="groups"><g class="traces" transform="translate(0,14.5)" style="opacity: 1;"><text class="legendtext" text-anchor="start" x="40" y="4.680000000000001" style="font-family: 'Open Sans', verdana, arial, sans-serif; font-size: 12px; fill: rgb(214, 223, 239); fill-opacity: 1; white-space: pre;">MSFT</text><g class="layers"><g class="legendfill"><path class="js-fill" d="M5,-2h30v6h-30z" style="stroke-width: 0; fill: rgb(31, 119, 180); fill-opacity: 0.8;"/></g><g class="legendlines"><path class="js-line" d="M5,-2h30" style="fill: none; stroke: rgb(31, 119, 180); stroke-opacity: 1; stroke-width: 0px;"/></g><g class="legendsymbols"><g class="legendpoints"/></g></g><rect class="legendtoggle" x="0" y="-9.5" width="75.109375" height="19" style="fill: rgb(0, 0, 0); fill-opacity: 0;"/></g><g class="traces" transform="translate(77.609375,14.5)" style="opacity: 1;"><text class="legendtext" text-anchor="start" x="40" y="4.680000000000001" style="font-family: 'Open Sans', verdana, arial, sans-serif; font-size: 12px; fill: rgb(214, 223, 239); fill-opacity: 1; white-space: pre;">AMZN</text><g class="layers"><g class="legendfill"><path class="js-fill" d="M5,-2h30v6h-30z" style="stroke-width: 0; fill: rgb(255, 127, 14); fill-opacity: 0.8;"/></g><g class="legendlines"><path class="js-line" d="M5,-2h30" style="fill: none; stroke: rgb(255, 127, 14); stroke-opacity: 1; stroke-width: 0px;"/></g><g class="legendsymbols"><g class="legendpoints"/></g></g><rect class="legendtoggle" x="0" y="-9.5" width="78.015625" height="19" style="fill: rgb(0, 0, 0); fill-opacity: 0;"/></g><g class="traces" transform="translate(158.125,14.5)" style="opacity: 1;"><text class="legendtext" text-anchor="start" x="40" y="4.680000000000001" style="font-family: 'Open Sans', verdana, arial, sans-serif; font-size: 12px; fill: rgb(214, 223, 239); fill-opacity: 1; white-space: pre;">AAPL</text><g class="layers"><g class="legendfill"><path class="js-fill" d="M5,-2h30v6h-30z" style="stroke-width: 0; fill: rgb(44, 160, 44); fill-opacity: 0.8;"/></g><g class="legendlines"><path class="js-line" d="M5,-2h30" style="fill: none; stroke: rgb(44, 160, 44); stroke-opacity: 1; stroke-width: 0px;"/></g><g class="legendsymbols"><g class="legendpoints"/></g></g><rect class="legendtoggle" x="0" y="-9.5" width="72.84375" height="19" style="fill: rgb(0, 0, 0); fill-opacity: 0;"/></g></g></g><rect class="scrollbar" rx="20" ry="3" width="0" height="0" x="0" y="0" style="fill: rgb(128, 139, 164); fill-opacity: 1;"/></g><g class="g-gtitle"/><g class="g-xtitle"/><g class="g-ytitle"/></g></svg>