<svg class="main-svg" xmlns="http://www.w3.org/2000/svg" xmlns:xlink="http://www.w3.org/1999/xlink" width="700" height="350" style="" viewBox="0 0 700 350"><rect x="0" y="0" width="700" height="350" style="fill: rgb(33, 34, 38); fill-opacity: 1;"/><defs id="defs-6f30cb"><g class="clips"><clipPath id="clip6f30cbxyplot" class="plotclip"><rect width="628" height="274"/></clipPath><clipPath class="axesclip" id="clip6f30cbx"><rect x="42" y="0" width="628" height="350"/></clipPath><clipPath class="axesclip" id="clip6f30cby"><rect x="0" y="46" width="700" height="274"/></clipPath><clipPath class="axesclip" id="clip6f30cbxy"><rect x="42" y="46" width="628" height="274"/></clipPath></g><g class="gradients"/><g class="patterns"/></defs><g class="bglayer"/><g class="layer-below"><g class="imagelayer"/><g class="shapelayer"/></g><g class="cartesianlayer"><g class="subplot xy"><g class="layer-subplot"><g class="shapelayer"/><g class="imagelayer"/></g><g class="minor-gridlayer"><g class="x"/><g class="y"/></g><g class="gridlayer"><g class="x"><path class="xgrid crisp" transform="translate(148.38,0)" d="M0,46v274" style="stroke: rgb(49, 52, 57); stroke-opacity: 1; stroke-width: 1px;"/><path class="xgrid crisp" transform="translate(251.33,0)" d="M0,46v274" style="stroke: rgb(49, 52, 57); stroke-opacity: 1; stroke-width: 1px;"/><path class="xgrid crisp" transform="translate(357.72,0)" d="M0,46v274" style="stroke: rgb(49, 52, 57); stroke-opacity: 1; stroke-width: 1px;"/><path class="xgrid crisp" transform="translate(460.67,0)" d="M0,46v274" style="stroke: rgb(49, 52, 57); stroke-opacity: 1; stroke-width: 1px;"/><path class="xgrid crisp" transform="translate(567.05,0)" d="M0,46v274" style="stroke: rgb(49, 52, 57); stroke-opacity: 1; stroke-width: 1px;"/></g><g class="y"><path class="ygrid crisp" transform="translate(0,306.3)" d="M42,0h628" style="stroke: rgb(49, 52, 57); stroke-opacity: 1; stroke-width: 1px;"/><path class="ygrid crisp" transform="translate(0,244.65)" d="M42,0h628" style="stroke: rgb(49, 52, 57); stroke-opacity: 1; stroke-width: 1px;"/><path class="ygrid crisp" transform="translate(0,121.35)" d="M42,0h628" style="stroke: rgb(49, 52, 57); stroke-opacity: 1; stroke-width: 1px;"/><path class="ygrid crisp" transform="translate(0,59.7)" d="M42,0h628" style="stroke: rgb(49, 52, 57); stroke-opacity: 1; stroke-width: 1px;"/></g></g><g class="zerolinelayer"><path class="yzl zl crisp" transform="translate(0,183)" d="M42,0h628" style="stroke: rgb(49, 52, 57); stroke-opacity: 1; stroke-width: 2px;"/></g><path class="xlines-below"/><path class="ylines-below"/><g class="overlines-below"/><g class="xaxislayer-below"/><g class="yaxislayer-below"/><g class="overaxes-below"/><g class="plot" transform="translate(42,46)" clip-path="url(#clip6f30cbxyplot)"><g class="scatterlayer mlayer"><g class="trace scatter trace148f996a-2759-4a80-ac46-71f7078996bb" style="stroke-miterlimit: 2; opacity: 1;"><g class="fills"/><g class="errorbars"/><g class="lines"><path class="js-line" d="M0,137H3.43V137H6.86V137H10.3V137H13.73V137H17.16V137H20.59V137H24.02V137H27.45V137H30.89V137H34.32V137H37.75V137H41.18V137H44.61V137H48.04V13.7H51.48V13.7H54.91V13.7H58.34V13.7H61.77V13.7H65.2V13.7H68.63V137H72.07V137H75.5V137H78.93V137H82.36V137H85.79V137H89.22V13.7H92.66V13.7H96.09V13.7H99.52V13.7H102.95V13.7H106.38V13.7H109.81V13.7H113.25V13.7H116.68V13.7H120.11V13.7H123.54V13.7H126.97V13.7H130.4V13.7H133.84V13.7H137.27V13.7H140.7V137H144.13V137H147.56V137H150.99V137H154.43V137H157.86V13.7H161.29V13.7H164.72V13.7H168.15V13.7H171.58V13.7H175.02V13.7H178.45V13.7H181.88V13.7H185.31V13.7H188.74V137H192.17V137H195.61V137H199.04V137H202.47V137H205.9V137H209.33V137H212.77V13.7H216.2V13.7H219.63V13.7H223.06V13.7H226.49V13.7H229.92V13.7H233.36V13.7H236.79V13.7H240.22V13.7H243.65V13.7H247.08V13.7H250.51V13.7H253.95V13.7H257.38V13.7H260.81V13.7H264.24V137H267.67V137H271.1V13.7H274.54V13.7H277.97V137H281.4V137H284.83V137H288.26V137H291.69V137H295.13V13.7H298.56V13.7H301.99V13.7H305.42V13.7H308.85V137H312.28V137H315.72V137H319.15V13.7H322.58V137H326.01V260.3H329.44V260.3H332.87V260.3H336.31V137H339.74V260.3H343.17V260.3H346.6V137H350.03V137H353.46V137H356.9V137H360.33V13.7H363.76V13.7H367.19V13.7H370.62V13.7H374.05V13.7H377.49V13.7H380.92V13.7H384.35V13.7H387.78V13.7H391.21V13.7H394.64V13.7H398.08V13.7H401.51V13.7H404.94V137H408.37V13.7H411.8V13.7H415.23V137H418.67V137H422.1V137H425.53V137H428.96V137H432.39V137H435.83V137H439.26V137H442.69V13.7H446.12V13.7H449.55V137H452.98V137H456.42V137H459.85V137H463.28V260.3H466.71V137H470.14V260.3H473.57V260.3H477.01V137H480.44V137H483.87V137H487.3V137H490.73V137H494.16V260.3H497.6V260.3H501.03V137H504.46V137H507.89V260.3H511.32V260.3H514.75V260.3H518.19V137H521.62V137H525.05V137H528.48V13.7H531.91V13.7H535.34V13.7H538.78V13.7H542.21V13.7H545.64V13.7H549.07V13.7H552.5V13.7H555.93V137H559.37V137H562.8V137H566.23V137H569.66V260.3H573.09V260.3H576.52V260.3H579.96V260.3H583.39V260.3H586.82V137H590.25V137H593.68V260.3H597.11V260.3H600.55V137H603.98V137H607.41V137H610.84V137H614.27V137H617.7V260.3H621.14V260.3H624.57V260.3H628V260.3" style="vector-effect: none; fill: none; stroke: rgb(108, 166, 205); stroke-opacity: 1; stroke-width: 2px; opacity: 1;"/></g><g class="points"/><g class="text"/></g></g></g><g class="overplot"/><path class="xlines-above crisp" d="M0,0" style="fill: none;"/><path class="ylines-above crisp" d="M0,0" style="fill: none;"/><g class="overlines-above"/><g class="xaxislayer-above"><g class="xtick"><text text-anchor="middle" x="0" y="333" transform="translate(42,0)" style="font-family: 'Open Sans', verdana, arial, sans-serif; font-size: 12px; fill: rgb(214, 223, 239); fill-opacity: 1; white-space: pre; opacity: 1;">Mar 2019</text></g><g class="xtick"><text text-anchor="middle" x="0" y="333" style="font-family: 'Open Sans', verdana, arial, sans-serif; font-size: 12px; fill: rgb(214, 223, 239); fill-opacity: 1; white-space: pre; opacity: 1;" transform="translate(148.38,0)">Apr 2019</text></g><g class="xtick"><text text-anchor="middle" x="0" y="333" style="font-family: 'Open Sans', verdana, arial, sans-serif; font-size: 12px; fill: rgb(214, 223, 239); fill-opacity: 1; white-space: pre; opacity: 1;" transform="translate(251.33,0)">May 2019</text></g><g class="xtick"><text text-anchor="middle" x="0" y="333" style="font-family: 'Open Sans', verdana, arial, sans-serif; font-size: 12px; fill: rgb(214, 223, 239); fill-opacity: 1; white-space: pre; opacity: 1;" transform="translate(357.72,0)">Jun 2019</text></g><g class="xtick"><text text-anchor="middle" x="0" y="333" style="font-family: 'Open Sans', verdana, arial, sans-serif; font-size: 12px; fill: rgb(214, 223, 239); fill-opacity: 1; white-space: pre; opacity: 1;" transform="translate(460.67,0)">Jul 2019</text></g><g class="xtick"><text text-anchor="middle" x="0" y="333" style="font-family: 'Open Sans', verdana, arial, sans-serif; font-size: 12px; fill: rgb(214, 223, 239); fill-opacity: 1; white-space: pre; opacity: 1;" transform="translate(567.05,0)">Aug 2019</text></g></g><g class="yaxislayer-above"><g class="ytick"><text text-anchor="end" x="41" y="4.199999999999999" transform="translate(0,306.3)" style="font-family: 'Open Sans', verdana, arial, sans-serif; font-size: 12px; fill: rgb(214, 223, 239); fill-opacity: 1; white-space: pre; opacity: 1;">−1</text></g><g class="ytick"><text text-anchor="end" x="41" y="4.199999999999999" style="font-family: 'Open Sans', verdana, arial, sans-serif; font-size: 12px; fill: rgb(214, 223, 239); fill-opacity: 1; white-space: pre; opacity: 1;" transform="translate(0,244.65)">−0.5</text></g><g class="ytick"><text text-anchor="end" x="41" y="4.199999999999999" style="font-family: 'Open Sans', verdana, arial, sans-serif; font-size: 12px; fill: rgb(214, 223, 239); fill-opacity: 1; white-space: pre; opacity: 1;" transform="translate(0,183)">0</text></g><g class="ytick"><text text-anchor="end" x="41" y="4.199999999999999" style="font-family: 'Open Sans', verdana, arial, sans-serif; font-size: 12px; fill: rgb(214, 223, 239); fill-opacity: 1; white-space: pre; opacity: 1;" transform="translate(0,121.35)">0.5</text></g><g class="ytick"><text text-anchor="end" x="41" y="4.199999999999999" style="font-family: 'Open Sans', verdana, arial, sans-serif; font-size: 12px; fill: rgb(214, 223, 239); fill-opacity: 1; white-space: pre; opacity: 1;" transform="translate(0,59.7)">1</text></g></g><g class="overaxes-above"/></g></g><g class="polarlayer"/><g class="smithlayer"/><g class="ternarylayer"/><g class="geolayer"/><g class="funnelarealayer"/><g class="pielayer"/><g class="iciclelayer"/><g class="treemaplayer"/><g class="sunburstlayer"/><g class="glimages"/><defs id="topdefs-6f30cb"><g class="clips"/><clipPath id="legend6f30cb"><rect width="83" height="29" x="0" y="0"/></clipPath></defs><g class="layer-above"><g class="imagelayer"/><g class="shapelayer"/></g><g class="infolayer"><g class="legend" pointer-events="all" transform="translate(587,11.519999999999996)"><rect class="bg" shape-rendering="crispEdges" width="83" height="29" x="0" y="0" style="stroke: rgb(68, 68, 68); stroke-opacity: 1; fill: rgb(33, 34, 38); fill-opacity: 1; stroke-width: 0px;"/><g class="scrollbox" transform="" clip-path="url(#legend6f30cb)"><g class="groups"><g class="traces" transform="translate(0,14.5)" style="opacity: 1;"><text class="legendtext" text-anchor="start" x="40" y="4.680000000000001" style="font-family: 'Open Sans', verdana, arial, sans-serif; font-size: 12px; fill: rgb(214, 223, 239); fill-opacity: 1; white-space: pre;">Signal</text><g class="layers" style="opacity: 1;"><g class="legendfill"/><g class="legendlines"><path class="js-line" d="M5,0h30" style="fill: none; stroke: rgb(108, 166, 205); stroke-opacity: 1; stroke-width: 2px;"/></g><g class="legendsymbols"><g class="legendpoints"/></g></g><rect class="legendtoggle" x="0" y="-9.5" width="79.578125" height="19" style="fill: rgb(0, 0, 0); fill-opacity: 0;"/></g></g></g><rect class="scrollbar" rx="20" ry="3" width="0" height="0" x="0" y="0" style="fill: rgb(128, 139, 164); fill-opacity: 1;"/></g><g class="g-gtitle"/><g class="g-xtitle"/><g class="g-ytitle"/></g></svg>