<svg class="main-svg" xmlns="http://www.w3.org/2000/svg" xmlns:xlink="http://www.w3.org/1999/xlink" width="700" height="350" style="" viewBox="0 0 700 350"><rect x="0" y="0" width="700" height="350" style="fill: rgb(33, 34, 38); fill-opacity: 1;"/><defs id="defs-0de0ad"><g class="clips"><clipPath id="clip0de0adxyplot" class="plotclip"><rect width="629" height="274"/></clipPath><clipPath class="axesclip" id="clip0de0adx"><rect x="41" y="0" width="629" height="350"/></clipPath><clipPath class="axesclip" id="clip0de0ady"><rect x="0" y="46" width="700" height="274"/></clipPath><clipPath class="axesclip" id="clip0de0adxy"><rect x="41" y="46" width="629" height="274"/></clipPath></g><g class="gradients"/><g class="patterns"/></defs><g class="bglayer"/><g class="layer-below"><g class="imagelayer"/><g class="shapelayer"/></g><g class="cartesianlayer"><g class="subplot xy"><g class="layer-subplot"><g class="shapelayer"/><g class="imagelayer"/></g><g class="minor-gridlayer"><g class="x"/><g class="y"/></g><g class="gridlayer"><g class="x"><path class="xgrid crisp" transform="translate(147.55,0)" d="M0,46v274" style="stroke: rgb(49, 52, 57); stroke-opacity: 1; stroke-width: 1px;"/><path class="xgrid crisp" transform="translate(250.67,0)" d="M0,46v274" style="stroke: rgb(49, 52, 57); stroke-opacity: 1; stroke-width: 1px;"/><path class="xgrid crisp" transform="translate(357.22,0)" d="M0,46v274" style="stroke: rgb(49, 52, 57); stroke-opacity: 1; stroke-width: 1px;"/><path class="xgrid crisp" transform="translate(460.33,0)" d="M0,46v274" style="stroke: rgb(49, 52, 57); stroke-opacity: 1; stroke-width: 1px;"/><path class="xgrid crisp" transform="translate(566.89,0)" d="M0,46v274" style="stroke: rgb(49, 52, 57); stroke-opacity: 1; stroke-width: 1px;"/></g><g class="y"><path class="ygrid crisp" transform="translate(0,299.95)" d="M41,0h629" style="stroke: rgb(49, 52, 57); stroke-opacity: 1; stroke-width: 1px;"/><path class="ygrid crisp" transform="translate(0,246.65)" d="M41,0h629" style="stroke: rgb(49, 52, 57); stroke-opacity: 1; stroke-width: 1px;"/><path class="ygrid crisp" transform="translate(0,193.36)" d="M41,0h629" style="stroke: rgb(49, 52, 57); stroke-opacity: 1; stroke-width: 1px;"/><path class="ygrid crisp" transform="translate(0,140.07)" d="M41,0h629" style="stroke: rgb(49, 52, 57); stroke-opacity: 1; stroke-width: 1px;"/><path class="ygrid crisp" transform="translate(0,86.78)" d="M41,0h629" style="stroke: rgb(49, 52, 57); stroke-opacity: 1; stroke-width: 1px;"/></g></g><g class="zerolinelayer"/><path class="xlines-below"/><path class="ylines-below"/><g class="overlines-below"/><g class="xaxislayer-below"/><g class="yaxislayer-below"/><g class="overaxes-below"/><g class="plot" transform="translate(41,46)" clip-path="url(#clip0de0adxyplot)"><g class="scatterlayer mlayer"><g class="trace scatter trace825c2f03-f15d-4bfd-b558-674448adca86" style="stroke-miterlimit: 2;"><g class="fills"><g><path class="js-fill" d="M48.12,255.33L72.18,252.53L75.62,252.47L106.55,251.19L109.99,249.45L113.43,243.33L116.86,239.19L134.05,223.32L137.49,221.05L140.92,219.13L144.36,218.09L151.23,216.85L154.67,217.42L158.11,220.7L161.55,220.47L171.86,219.19L175.3,218.98L182.17,217.72L185.61,216.61L192.48,215.96L195.92,215.89L213.1,215.45L216.54,214.33L223.42,210.25L226.85,209.04L233.73,206.78L237.16,204.13L240.6,201.24L244.04,196.33L254.35,173.59L257.79,165.25L261.22,158.31L264.66,154.83L268.1,152.7L271.54,149.05L274.97,144.75L278.41,142.15L285.28,140.75L288.72,140.79L292.16,142.67L295.6,140.07L299.03,138.56L302.47,135.38L316.22,128.08L319.66,129.07L323.09,128.18L326.53,128.95L329.97,128.03L333.4,128.56L340.28,128.59L343.72,130.3L347.15,131.29L350.59,133.47L357.46,136.04L360.9,135.9L367.78,133.66L371.21,130.64L374.65,125.31L378.09,121.96L384.96,112.8L388.4,104.69L395.27,87.55L398.71,78.52L405.58,54.7L409.02,49.22L412.46,41.92L415.9,39.15L419.33,39.08L422.77,37.66L426.21,35.66L429.64,35.06L433.08,36.89L436.52,37.62L439.96,37.1L443.39,35.15L446.83,33.13L450.27,33.49L460.58,38.97L464.02,40.38L467.45,38.19L470.89,41.37L474.33,41.15L477.77,39.86L484.64,40.91L488.08,42.41L491.51,46.04L494.95,52.6L498.39,59.85L501.83,64.91L505.26,69.25L508.7,75.96L515.57,80.82L519.01,81.4L522.45,80.91L525.89,81.66L532.76,82.2L536.2,81.3L539.63,77.34L543.07,69.51L553.38,50.96L556.82,46.47L563.69,42.28L567.13,42.62L570.57,46.14L574.01,46.18L577.44,46.21L580.88,47L584.32,47.04L587.75,47.89L591.19,49.97L594.63,53.61L615.25,78.11L618.69,79.69L622.13,80.3L625.56,79.97L629,80.16L629,100.17L625.56,98.08L622.13,94.79L618.69,92.35L615.25,92.8L611.81,94.19L608.38,94.38L604.94,92.56L601.5,92.64L598.07,91.31L591.19,85.18L587.75,84.53L580.88,79.67L577.44,78.2L570.57,77.39L567.13,80.78L556.82,96.44L553.38,99.09L546.51,102.06L543.07,104.05L539.63,102.23L536.2,103.83L525.89,105.05L522.45,104.78L519.01,105.78L515.57,106.85L512.14,103.6L508.7,103.8L505.26,103.22L501.83,100.16L498.39,99.71L494.95,98.03L491.51,94.42L488.08,90.65L481.2,87.7L477.77,86.57L474.33,83.19L470.89,74.34L467.45,72.48L464.02,71.48L457.14,70.73L453.7,69.75L450.27,72.5L446.83,69.59L443.39,70.55L439.96,73.45L436.52,75.19L433.08,77.85L429.64,82.86L426.21,88.69L422.77,96.92L419.33,102.05L412.46,110.95L409.02,115.53L405.58,124.19L402.15,123.63L395.27,135.82L391.84,139.74L384.96,144.54L381.52,147.5L374.65,152.03L371.21,151.94L367.78,153.14L364.34,152.75L357.46,153.22L354.03,153.85L350.59,153.5L347.15,152.67L343.72,150.59L340.28,148.55L323.09,148.15L319.66,148.13L312.78,154.66L309.34,156.99L302.47,156.89L299.03,156.47L295.6,158.74L292.16,162.61L268.1,200.65L264.66,204L257.79,208.63L254.35,210.96L250.91,212.13L247.48,215.51L244.04,214.48L240.6,216.95L233.73,219.26L230.29,219.79L219.98,219.94L216.54,219.69L189.04,224.02L185.61,224.05L175.3,224.03L171.86,224.25L161.55,226.48L158.11,227.31L154.67,231.94L151.23,235.97L144.36,242.54L140.92,245.28L137.49,247.15L134.05,249.59L127.17,253.02L123.74,254.36L116.86,255.65L113.43,254.91L109.99,252.16L106.55,253.5L82.49,255.51L79.05,255.64L48.12,257.87Z" style="fill: rgb(128, 128, 128); fill-opacity: 0.2; stroke-width: 0;"/></g></g><g class="errorbars"/><g class="lines"><path class="js-line" d="M48.12,257.87L79.05,255.64L82.49,255.51L106.55,253.5L109.99,252.16L113.43,254.91L116.86,255.65L123.74,254.36L127.17,253.02L134.05,249.59L137.49,247.15L140.92,245.28L144.36,242.54L151.23,235.97L154.67,231.94L158.11,227.31L161.55,226.48L171.86,224.25L175.3,224.03L185.61,224.05L189.04,224.02L216.54,219.69L219.98,219.94L230.29,219.79L233.73,219.26L240.6,216.95L244.04,214.48L247.48,215.51L250.91,212.13L254.35,210.96L257.79,208.63L264.66,204L268.1,200.65L292.16,162.61L295.6,158.74L299.03,156.47L302.47,156.89L309.34,156.99L312.78,154.66L319.66,148.13L323.09,148.15L340.28,148.55L343.72,150.59L347.15,152.67L350.59,153.5L354.03,153.85L357.46,153.22L364.34,152.75L367.78,153.14L371.21,151.94L374.65,152.03L381.52,147.5L384.96,144.54L391.84,139.74L395.27,135.82L402.15,123.63L405.58,124.19L409.02,115.53L412.46,110.95L419.33,102.05L422.77,96.92L426.21,88.69L429.64,82.86L433.08,77.85L436.52,75.19L439.96,73.45L443.39,70.55L446.83,69.59L450.27,72.5L453.7,69.75L457.14,70.73L464.02,71.48L467.45,72.48L470.89,74.34L474.33,83.19L477.77,86.57L481.2,87.7L488.08,90.65L491.51,94.42L494.95,98.03L498.39,99.71L501.83,100.16L505.26,103.22L508.7,103.8L512.14,103.6L515.57,106.85L519.01,105.78L522.45,104.78L525.89,105.05L536.2,103.83L539.63,102.23L543.07,104.05L546.51,102.06L553.38,99.09L556.82,96.44L567.13,80.78L570.57,77.39L577.44,78.2L580.88,79.67L587.75,84.53L591.19,85.18L598.07,91.31L601.5,92.64L604.94,92.56L608.38,94.38L611.81,94.19L615.25,92.8L618.69,92.35L622.13,94.79L625.56,98.08L629,100.17" style="vector-effect: none; fill: none; stroke: rgb(127, 127, 127); stroke-opacity: 0.5; stroke-width: 2px; opacity: 1;"/></g><g class="points"/><g class="text"/></g><g class="trace scatter trace88842888-d111-4ed5-b43b-a96d3f6765e1" style="stroke-miterlimit: 2;"><g class="fills"/><g class="errorbars"/><g class="lines"><path class="js-line" d="M48.12,255.33L72.18,252.53L75.62,252.47L106.55,251.19L109.99,249.45L113.43,243.33L116.86,239.19L134.05,223.32L137.49,221.05L140.92,219.13L144.36,218.09L151.23,216.85L154.67,217.42L158.11,220.7L161.55,220.47L171.86,219.19L175.3,218.98L182.17,217.72L185.61,216.61L192.48,215.96L195.92,215.89L213.1,215.45L216.54,214.33L223.42,210.25L226.85,209.04L233.73,206.78L237.16,204.13L240.6,201.24L244.04,196.33L254.35,173.59L257.79,165.25L261.22,158.31L264.66,154.83L268.1,152.7L271.54,149.05L274.97,144.75L278.41,142.15L285.28,140.75L288.72,140.79L292.16,142.67L295.6,140.07L299.03,138.56L302.47,135.38L316.22,128.08L319.66,129.07L323.09,128.18L326.53,128.95L329.97,128.03L333.4,128.56L340.28,128.59L343.72,130.3L347.15,131.29L350.59,133.47L357.46,136.04L360.9,135.9L367.78,133.66L371.21,130.64L374.65,125.31L378.09,121.96L384.96,112.8L388.4,104.69L395.27,87.55L398.71,78.52L405.58,54.7L409.02,49.22L412.46,41.92L415.9,39.15L419.33,39.08L422.77,37.66L426.21,35.66L429.64,35.06L433.08,36.89L436.52,37.62L439.96,37.1L443.39,35.15L446.83,33.13L450.27,33.49L460.58,38.97L464.02,40.38L467.45,38.19L470.89,41.37L474.33,41.15L477.77,39.86L484.64,40.91L488.08,42.41L491.51,46.04L494.95,52.6L498.39,59.85L501.83,64.91L505.26,69.25L508.7,75.96L515.57,80.82L519.01,81.4L522.45,80.91L525.89,81.66L532.76,82.2L536.2,81.3L539.63,77.34L543.07,69.51L553.38,50.96L556.82,46.47L563.69,42.28L567.13,42.62L570.57,46.14L574.01,46.18L577.44,46.21L580.88,47L584.32,47.04L587.75,47.89L591.19,49.97L594.63,53.61L615.25,78.11L618.69,79.69L622.13,80.3L625.56,79.97L629,80.16" style="vector-effect: none; fill: none; stroke: rgb(127, 127, 127); stroke-opacity: 0.5; stroke-width: 2px; opacity: 1;"/></g><g class="points"/><g class="text"/></g><g class="trace scatter traceade382b6-ed97-4901-bbc7-979d9de28d84" style="stroke-miterlimit: 2; opacity: 1;"><g class="fills"/><g class="errorbars"/><g class="lines"><path class="js-line" d="M0,257.69L6.87,258.02L10.31,260.3L13.75,256.71L17.19,256.51L24.06,256.58L27.5,254.92L30.93,255.24L34.37,256.47L44.68,255.96L48.12,254.99L51.56,252.65L54.99,253.27L58.43,253.08L61.87,252.05L65.31,251.62L68.74,253.17L79.05,253.36L82.49,254.93L85.93,254.34L89.37,251.63L92.8,252.11L96.24,251.33L103.11,251.14L106.55,249.73L109.99,230.5L113.43,228.02L116.86,229.36L120.3,226.32L123.74,225.71L127.17,222L130.61,219.58L134.05,221.84L137.49,218.65L140.92,225.58L147.8,224.73L151.23,222.83L154.67,225.51L158.11,221.02L161.55,220.59L164.98,219.35L168.42,219.21L171.86,218.3L175.3,218.92L178.73,216.66L182.17,212.05L185.61,214.91L189.04,221.69L192.48,219.86L202.79,220.71L206.23,217.96L209.67,216.57L213.1,213.84L216.54,206.83L219.98,205.15L226.85,207.4L230.29,205.2L237.16,196L240.6,190.56L244.04,168.55L247.48,174.74L250.91,152.29L254.35,147.51L257.79,141.9L261.22,150.43L264.66,164.85L268.1,166.78L271.54,142.09L274.97,147.94L278.41,148.34L281.85,155.89L285.28,150.51L288.72,147.7L292.16,145.96L295.6,129.42L299.03,125.89L302.47,128.18L305.91,129.79L309.34,138.85L312.78,132.05L316.22,132.33L319.66,127.57L323.09,141.79L326.53,155.15L329.97,152.05L333.4,152.1L336.84,146.19L340.28,148.58L343.72,155.67L347.15,147.35L350.59,149.29L354.03,143.48L357.46,141.21L360.9,128.87L364.34,125.02L367.78,120.86L371.21,112.18L374.65,118.54L378.09,113.43L381.52,106.67L384.96,90.22L388.4,75.37L391.84,71.28L395.27,67.13L398.71,46.35L402.15,13.7L405.58,62.55L409.02,29.92L412.46,41.86L415.9,72.3L419.33,78.53L422.77,72.71L426.21,41.81L429.64,61.68L433.08,68L439.96,55.41L443.39,33.16L446.83,25.49L450.27,36.61L453.7,57.87L457.14,45.68L460.58,56.97L464.02,87.25L467.45,70.22L470.89,107.99L474.33,102.23L477.77,76.31L481.2,79.93L484.64,73.63L488.08,78.11L491.51,84.93L494.95,96.71L498.39,99.08L501.83,96.42L505.26,97.53L508.7,107.99L512.14,105.98L515.57,106.88L519.01,104.53L522.45,91.79L525.89,83.42L529.32,80.26L532.76,72.17L536.2,68.22L539.63,45.96L543.07,54.68L546.51,42.32L549.95,41.67L553.38,44.43L556.82,57.99L560.26,53.47L563.69,57.23L567.13,70.2L570.57,92.69L574.01,85.77L577.44,84.1L580.88,87.9L584.32,84.86L587.75,69.66L591.19,73.73L594.63,90.39L598.07,90.58L601.5,83.2L604.94,89.81L608.38,90.38L611.81,84.19L615.25,89.13L618.69,100.61L622.13,107.12L625.56,104.78L629,103.91" style="vector-effect: none; fill: none; stroke: rgb(31, 119, 180); stroke-opacity: 1; stroke-width: 2px; opacity: 1;"/></g><g class="points"/><g class="text"/></g></g></g><g class="overplot"/><path class="xlines-above crisp" d="M0,0" style="fill: none;"/><path class="ylines-above crisp" d="M0,0" style="fill: none;"/><g class="overlines-above"/><g class="xaxislayer-above"><g class="xtick"><text text-anchor="middle" x="0" y="333" transform="translate(41,0)" style="font-family: 'Open Sans', verdana, arial, sans-serif; font-size: 12px; fill: rgb(214, 223, 239); fill-opacity: 1; white-space: pre; opacity: 1;">Mar 2019</text></g><g class="xtick"><text text-anchor="middle" x="0" y="333" style="font-family: 'Open Sans', verdana, arial, sans-serif; font-size: 12px; fill: rgb(214, 223, 239); fill-opacity: 1; white-space: pre; opacity: 1;" transform="translate(147.55,0)">Apr 2019</text></g><g class="xtick"><text text-anchor="middle" x="0" y="333" style="font-family: 'Open Sans', verdana, arial, sans-serif; font-size: 12px; fill: rgb(214, 223, 239); fill-opacity: 1; white-space: pre; opacity: 1;" transform="translate(250.67,0)">May 2019</text></g><g class="xtick"><text text-anchor="middle" x="0" y="333" style="font-family: 'Open Sans', verdana, arial, sans-serif; font-size: 12px; fill: rgb(214, 223, 239); fill-opacity: 1; white-space: pre; opacity: 1;" transform="translate(357.22,0)">Jun 2019</text></g><g class="xtick"><text text-anchor="middle" x="0" y="333" style="font-family: 'Open Sans', verdana, arial, sans-serif; font-size: 12px; fill: rgb(214, 223, 239); fill-opacity: 1; white-space: pre; opacity: 1;" transform="translate(460.33,0)">Jul 2019</text></g><g class="xtick"><text text-anchor="middle" x="0" y="333" style="font-family: 'Open Sans', verdana, arial, sans-serif; font-size: 12px; fill: rgb(214, 223, 239); fill-opacity: 1; white-space: pre; opacity: 1;" transform="translate(566.89,0)">Aug 2019</text></g></g><g class="yaxislayer-above"><g class="ytick"><text text-anchor="end" x="40" y="4.199999999999999" transform="translate(0,299.95)" style="font-family: 'Open Sans', verdana, arial, sans-serif; font-size: 12px; fill: rgb(214, 223, 239); fill-opacity: 1; white-space: pre; opacity: 1;">4k</text></g><g class="ytick"><text text-anchor="end" x="40" y="4.199999999999999" style="font-family: 'Open Sans', verdana, arial, sans-serif; font-size: 12px; fill: rgb(214, 223, 239); fill-opacity: 1; white-space: pre; opacity: 1;" transform="translate(0,246.65)">6k</text></g><g class="ytick"><text text-anchor="end" x="40" y="4.199999999999999" style="font-family: 'Open Sans', verdana, arial, sans-serif; font-size: 12px; fill: rgb(214, 223, 239); fill-opacity: 1; white-space: pre; opacity: 1;" transform="translate(0,193.36)">8k</text></g><g class="ytick"><text text-anchor="end" x="40" y="4.199999999999999" style="font-family: 'Open Sans', verdana, arial, sans-serif; font-size: 12px; fill: rgb(214, 223, 239); fill-opacity: 1; white-space: pre; opacity: 1;" transform="translate(0,140.07)">10k</text></g><g class="ytick"><text text-anchor="end" x="40" y="4.199999999999999" style="font-family: 'Open Sans', verdana, arial, sans-serif; font-size: 12px; fill: rgb(214, 223, 239); fill-opacity: 1; white-space: pre; opacity: 1;" transform="translate(0,86.78)">12k</text></g></g><g class="overaxes-above"/></g></g><g class="polarlayer"/><g class="smithlayer"/><g class="ternarylayer"/><g class="geolayer"/><g class="funnelarealayer"/><g class="pielayer"/><g class="iciclelayer"/><g class="treemaplayer"/><g class="sunburstlayer"/><g class="glimages"/><defs id="topdefs-0de0ad"><g class="clips"/><clipPath id="legend0de0ad"><rect width="308" height="29" x="0" y="0"/></clipPath></defs><g class="layer-above"><g class="imagelayer"/><g class="shapelayer"/></g><g class="infolayer"><g class="legend" pointer-events="all" transform="translate(362,11.519999999999996)"><rect class="bg" shape-rendering="crispEdges" width="308" height="29" x="0" y="0" style="stroke: rgb(68, 68, 68); stroke-opacity: 1; fill: rgb(33, 34, 38); fill-opacity: 1; stroke-width: 0px;"/><g class="scrollbox" transform="" clip-path="url(#legend0de0ad)"><g class="groups"><g class="traces" transform="translate(0,14.5)" style="opacity: 1;"><text class="legendtext" text-anchor="start" x="40" y="4.680000000000001" style="font-family: 'Open Sans', verdana, arial, sans-serif; font-size: 12px; fill: rgb(214, 223, 239); fill-opacity: 1; white-space: pre;">Lower band</text><g class="layers"><g class="legendfill"/><g class="legendlines"><path class="js-line" d="M5,0h30" style="fill: none; stroke: rgb(127, 127, 127); stroke-opacity: 0.5; stroke-width: 2px;"/></g><g class="legendsymbols"><g class="legendpoints"/></g></g><rect class="legendtoggle" x="0" y="-9.5" width="112.53125" height="19" style="fill: rgb(0, 0, 0); fill-opacity: 0;"/></g><g class="traces" transform="translate(115.03125,14.5)" style="opacity: 1;"><text class="legendtext" text-anchor="start" x="40" y="4.680000000000001" style="font-family: 'Open Sans', verdana, arial, sans-serif; font-size: 12px; fill: rgb(214, 223, 239); fill-opacity: 1; white-space: pre;">Upper band</text><g class="layers"><g class="legendfill"><path class="js-fill" d="M5,-2h30v6h-30z" style="stroke-width: 0; fill: rgb(128, 128, 128); fill-opacity: 0.2;"/></g><g class="legendlines"><path class="js-line" d="M5,-2h30" style="fill: none; stroke: rgb(127, 127, 127); stroke-opacity: 0.5; stroke-width: 2px;"/></g><g class="legendsymbols"><g class="legendpoints"/></g></g><rect class="legendtoggle" x="0" y="-9.5" width="112.484375" height="19" style="fill: rgb(0, 0, 0); fill-opacity: 0;"/></g><g class="traces" transform="translate(230.015625,14.5)" style="opacity: 1;"><text class="legendtext" text-anchor="start" x="40" y="4.680000000000001" style="font-family: 'Open Sans', verdana, arial, sans-serif; font-size: 12px; fill: rgb(214, 223, 239); fill-opacity: 1; white-space: pre;">Close</text><g class="layers" style="opacity: 1;"><g class="legendfill"/><g class="legendlines"><path class="js-line" d="M5,0h30" style="fill: none; stroke: rgb(31, 119, 180); stroke-opacity: 1; stroke-width: 2px;"/></g><g class="legendsymbols"><g class="legendpoints"/></g></g><rect class="legendtoggle" x="0" y="-9.5" width="74.859375" height="19" style="fill: rgb(0, 0, 0); fill-opacity: 0;"/></g></g></g><rect class="scrollbar" rx="20" ry="3" width="0" height="0" x="0" y="0" style="fill: rgb(128, 139, 164); fill-opacity: 1;"/></g><g class="g-gtitle"/><g class="g-xtitle"/><g class="g-ytitle"/></g></svg>