<svg class="main-svg" xmlns="http://www.w3.org/2000/svg" xmlns:xlink="http://www.w3.org/1999/xlink" width="700" height="350" style="" viewBox="0 0 700 350"><rect x="0" y="0" width="700" height="350" style="fill: rgb(255, 255, 255); fill-opacity: 1;"/><defs id="defs-c0dcfe"><g class="clips"><clipPath id="clipc0dcfexyplot" class="plotclip"><rect width="630" height="274"/></clipPath><clipPath class="axesclip" id="clipc0dcfex"><rect x="40" y="0" width="630" height="350"/></clipPath><clipPath class="axesclip" id="clipc0dcfey"><rect x="0" y="46" width="700" height="274"/></clipPath><clipPath class="axesclip" id="clipc0dcfexy"><rect x="40" y="46" width="630" height="274"/></clipPath></g><g class="gradients"/><g class="patterns"/></defs><g class="bglayer"><rect class="bg" x="40" y="46" width="630" height="274" style="fill: rgb(229, 236, 246); fill-opacity: 1; stroke-width: 0;"/></g><g class="layer-below"><g class="imagelayer"/><g class="shapelayer"/></g><g class="cartesianlayer"><g class="subplot xy"><g class="layer-subplot"><g class="shapelayer"/><g class="imagelayer"/></g><g class="minor-gridlayer"><g class="x"/><g class="y"/></g><g class="gridlayer"><g class="x"><path class="xgrid crisp" transform="translate(143.56,0)" d="M0,46v274" style="stroke: rgb(255, 255, 255); stroke-opacity: 1; stroke-width: 1px;"/><path class="xgrid crisp" transform="translate(248.85,0)" d="M0,46v274" style="stroke: rgb(255, 255, 255); stroke-opacity: 1; stroke-width: 1px;"/><path class="xgrid crisp" transform="translate(354.14,0)" d="M0,46v274" style="stroke: rgb(255, 255, 255); stroke-opacity: 1; stroke-width: 1px;"/><path class="xgrid crisp" transform="translate(461.15,0)" d="M0,46v274" style="stroke: rgb(255, 255, 255); stroke-opacity: 1; stroke-width: 1px;"/><path class="xgrid crisp" transform="translate(566.44,0)" d="M0,46v274" style="stroke: rgb(255, 255, 255); stroke-opacity: 1; stroke-width: 1px;"/></g><g class="y"><path class="ygrid crisp" transform="translate(0,312.52)" d="M40,0h630" style="stroke: rgb(255, 255, 255); stroke-opacity: 1; stroke-width: 1px;"/><path class="ygrid crisp" transform="translate(0,252.45)" d="M40,0h630" style="stroke: rgb(255, 255, 255); stroke-opacity: 1; stroke-width: 1px;"/><path class="ygrid crisp" transform="translate(0,192.37)" d="M40,0h630" style="stroke: rgb(255, 255, 255); stroke-opacity: 1; stroke-width: 1px;"/><path class="ygrid crisp" transform="translate(0,132.3)" d="M40,0h630" style="stroke: rgb(255, 255, 255); stroke-opacity: 1; stroke-width: 1px;"/><path class="ygrid crisp" transform="translate(0,72.22)" d="M40,0h630" style="stroke: rgb(255, 255, 255); stroke-opacity: 1; stroke-width: 1px;"/></g></g><g class="zerolinelayer"/><path class="xlines-below"/><path class="ylines-below"/><g class="overlines-below"/><g class="xaxislayer-below"/><g class="yaxislayer-below"/><g class="overaxes-below"/><g class="plot" transform="translate(40,46)" clip-path="url(#clipc0dcfexyplot)"><g class="scatterlayer mlayer"><g class="trace scatter trace847cbf59-8104-44f8-9316-31618741283d" style="stroke-miterlimit: 2; opacity: 1;"><g class="fills"/><g class="errorbars"/><g class="lines"><path class="js-line" d="M15.53,234.79L20.71,231.38L22.44,229.67L25.89,226.85L27.62,225.93L34.52,222.46L36.25,221.87L39.7,222.01L41.42,222.54L44.88,222.72L46.6,222.22L53.51,218.88L55.23,217.75L63.86,213.03L65.59,212.37L72.49,208.87L74.22,207.76L75.95,206.4L77.67,206.07L82.85,205.62L84.58,206.2L88.03,207.13L89.75,207.92L94.93,209.72L96.66,211.06L101.84,215.16L103.56,216.42L110.47,220.54L112.19,220.8L113.92,220.7L115.64,221.51L120.82,224.02L122.55,228.7L127.73,241.28L129.45,246.21L132.9,254.09L134.63,256.17L138.08,260.3L139.81,259.27L143.26,256.4L144.99,254.85L148.44,251.31L150.16,250.11L153.62,250.15L155.34,249.85" style="vector-effect: none; fill: none; stroke: rgb(31, 119, 180); stroke-opacity: 1; stroke-width: 2px; opacity: 1;"/><path class="js-line" d="M331.4,215.74L340.03,215.38L341.75,215.5L346.93,216.07L348.66,215.91L355.56,214.27L357.29,213.35L374.55,191.49L376.27,190.54L383.18,187.58L384.9,188L391.81,185.9L393.53,185.76L396.99,184.69L398.71,184.6L409.07,185L410.79,185.48L414.25,187.14L415.97,187.44L419.42,187.54L421.15,187.19L422.88,187.49L424.6,189.33L429.78,193.19L431.51,194.6L440.14,202.66L441.86,202.56L445.32,201.61L447.04,200.77L455.67,197.31L457.4,197.19L469.48,198.38L471.21,198.56" style="vector-effect: none; fill: none; stroke: rgb(31, 119, 180); stroke-opacity: 1; stroke-width: 2px; opacity: 1;"/></g><g class="points"/><g class="text"/></g><g class="trace scatter trace6a4a1b52-f8d5-41a5-b7d4-64e702a0dcd6" style="stroke-miterlimit: 2; opacity: 1;"><g class="fills"/><g class="errorbars"/><g class="lines"><path class="js-line" d="M172.6,242.8L179.51,242.18L181.23,242.36L191.59,242.83L193.32,242.65L203.67,237.81L205.4,235.87L214.03,225.7L215.75,223.98L219.21,219.48L220.93,217.04L224.38,215.97L226.11,216.28L229.56,216.06L231.29,215.07L234.74,214.55L236.47,214.89L239.92,214.86L241.64,213.94L246.82,212.98L248.55,214.12L257.18,216.45L258.9,216.24L264.08,214.22L265.81,213.17L270.99,210.53L272.71,210.25L277.89,209.25L279.62,210.27L284.79,211.04L286.52,211.3L291.7,212.2L293.42,212.81L296.88,213.48L298.6,213.28L303.78,213.41L305.51,213.86L310.68,214.82L312.41,215.05L314.14,215.14" style="vector-effect: none; fill: none; stroke: rgb(255, 127, 14); stroke-opacity: 1; stroke-width: 2px; opacity: 1;"/><path class="js-line" d="M488.47,197.13L507.45,186.56L509.18,184.87L516.08,177.09L517.81,174.33L522.99,168.19L524.71,167.04L531.62,163.03L533.34,160.02L545.42,143.8L547.15,140.95L548.88,138.63L550.6,138.18L552.33,136.8L554.05,133.42L557.51,127.64L559.23,123.64L562.68,117.59L564.41,115.13L567.86,108.14L569.59,107.62L573.04,108.37L574.77,107.94L576.49,106.73L578.22,106.54L581.67,104.24L583.4,104.73L585.12,104.22L586.85,101.59L588.58,99.08L590.3,98.36L592.03,97.9L593.75,99.54L597.21,100.91L598.93,101.28L602.38,100.3L604.11,97.94L607.56,87.81L609.29,81.43L616.19,58.55L617.92,53.16L623.1,36.53L624.82,31.79L626.55,27.59L628.27,21.15L630,13.7" style="vector-effect: none; fill: none; stroke: rgb(255, 127, 14); stroke-opacity: 1; stroke-width: 2px; opacity: 1;"/></g><g class="points"/><g class="text"/></g></g></g><g class="overplot"/><path class="xlines-above crisp" d="M0,0" style="fill: none;"/><path class="ylines-above crisp" d="M0,0" style="fill: none;"/><g class="overlines-above"/><g class="xaxislayer-above"><g class="xtick"><text text-anchor="middle" x="0" y="333" transform="translate(40,0)" style="font-family: 'Open Sans', verdana, arial, sans-serif; font-size: 12px; fill: rgb(42, 63, 95); fill-opacity: 1; white-space: pre; opacity: 1;">Jan 2020</text></g><g class="xtick"><text text-anchor="middle" x="0" y="333" style="font-family: 'Open Sans', verdana, arial, sans-serif; font-size: 12px; fill: rgb(42, 63, 95); fill-opacity: 1; white-space: pre; opacity: 1;" transform="translate(143.56,0)">Mar 2020</text></g><g class="xtick"><text text-anchor="middle" x="0" y="333" style="font-family: 'Open Sans', verdana, arial, sans-serif; font-size: 12px; fill: rgb(42, 63, 95); fill-opacity: 1; white-space: pre; opacity: 1;" transform="translate(248.85,0)">May 2020</text></g><g class="xtick"><text text-anchor="middle" x="0" y="333" style="font-family: 'Open Sans', verdana, arial, sans-serif; font-size: 12px; fill: rgb(42, 63, 95); fill-opacity: 1; white-space: pre; opacity: 1;" transform="translate(354.14,0)">Jul 2020</text></g><g class="xtick"><text text-anchor="middle" x="0" y="333" style="font-family: 'Open Sans', verdana, arial, sans-serif; font-size: 12px; fill: rgb(42, 63, 95); fill-opacity: 1; white-space: pre; opacity: 1;" transform="translate(461.15,0)">Sep 2020</text></g><g class="xtick"><text text-anchor="middle" x="0" y="333" style="font-family: 'Open Sans', verdana, arial, sans-serif; font-size: 12px; fill: rgb(42, 63, 95); fill-opacity: 1; white-space: pre; opacity: 1;" transform="translate(566.44,0)">Nov 2020</text></g></g><g class="yaxislayer-above"><g class="ytick"><text text-anchor="end" x="39" y="4.199999999999999" transform="translate(0,312.52)" style="font-family: 'Open Sans', verdana, arial, sans-serif; font-size: 12px; fill: rgb(42, 63, 95); fill-opacity: 1; white-space: pre; opacity: 1;">5k</text></g><g class="ytick"><text text-anchor="end" x="39" y="4.199999999999999" style="font-family: 'Open Sans', verdana, arial, sans-serif; font-size: 12px; fill: rgb(42, 63, 95); fill-opacity: 1; white-space: pre; opacity: 1;" transform="translate(0,252.45)">10k</text></g><g class="ytick"><text text-anchor="end" x="39" y="4.199999999999999" style="font-family: 'Open Sans', verdana, arial, sans-serif; font-size: 12px; fill: rgb(42, 63, 95); fill-opacity: 1; white-space: pre; opacity: 1;" transform="translate(0,192.37)">15k</text></g><g class="ytick"><text text-anchor="end" x="39" y="4.199999999999999" style="font-family: 'Open Sans', verdana, arial, sans-serif; font-size: 12px; fill: rgb(42, 63, 95); fill-opacity: 1; white-space: pre; opacity: 1;" transform="translate(0,132.3)">20k</text></g><g class="ytick"><text text-anchor="end" x="39" y="4.199999999999999" style="font-family: 'Open Sans', verdana, arial, sans-serif; font-size: 12px; fill: rgb(42, 63, 95); fill-opacity: 1; white-space: pre; opacity: 1;" transform="translate(0,72.22)">25k</text></g></g><g class="overaxes-above"/></g></g><g class="polarlayer"/><g class="smithlayer"/><g class="ternarylayer"/><g class="geolayer"/><g class="funnelarealayer"/><g class="pielayer"/><g class="iciclelayer"/><g class="treemaplayer"/><g class="sunburstlayer"/><g class="glimages"/><defs id="topdefs-c0dcfe"><g class="clips"/><clipPath id="legendc0dcfe"><rect width="157" height="29" x="0" y="0"/></clipPath></defs><g class="layer-above"><g class="imagelayer"/><g class="shapelayer"/></g><g class="infolayer"><g class="legend" pointer-events="all" transform="translate(513,11.519999999999996)"><rect class="bg" shape-rendering="crispEdges" width="157" height="29" x="0" y="0" style="stroke: rgb(68, 68, 68); stroke-opacity: 1; fill: rgb(255, 255, 255); fill-opacity: 1; stroke-width: 0px;"/><g class="scrollbox" transform="" clip-path="url(#legendc0dcfe)"><g class="groups"><g class="traces" transform="translate(0,14.5)" style="opacity: 1;"><text class="legendtext" text-anchor="start" x="40" y="4.680000000000001" style="font-family: 'Open Sans', verdana, arial, sans-serif; font-size: 12px; fill: rgb(42, 63, 95); fill-opacity: 1; white-space: pre;">set_0</text><g class="layers" style="opacity: 1;"><g class="legendfill"/><g class="legendlines"><path class="js-line" d="M5,0h30" style="fill: none; stroke: rgb(31, 119, 180); stroke-opacity: 1; stroke-width: 2px;"/></g><g class="legendsymbols"><g class="legendpoints"/></g></g><rect class="legendtoggle" x="0" y="-9.5" width="75.890625" height="19" style="fill: rgb(0, 0, 0); fill-opacity: 0;"/></g><g class="traces" transform="translate(78.390625,14.5)" style="opacity: 1;"><text class="legendtext" text-anchor="start" x="40" y="4.680000000000001" style="font-family: 'Open Sans', verdana, arial, sans-serif; font-size: 12px; fill: rgb(42, 63, 95); fill-opacity: 1; white-space: pre;">set_1</text><g class="layers" style="opacity: 1;"><g class="legendfill"/><g class="legendlines"><path class="js-line" d="M5,0h30" style="fill: none; stroke: rgb(255, 127, 14); stroke-opacity: 1; stroke-width: 2px;"/></g><g class="legendsymbols"><g class="legendpoints"/></g></g><rect class="legendtoggle" x="0" y="-9.5" width="75.890625" height="19" style="fill: rgb(0, 0, 0); fill-opacity: 0;"/></g></g></g><rect class="scrollbar" rx="20" ry="3" width="0" height="0" x="0" y="0" style="fill: rgb(128, 139, 164); fill-opacity: 1;"/></g><g class="g-gtitle"/><g class="g-xtitle"/><g class="g-ytitle"/></g></svg>