<svg class="main-svg" xmlns="http://www.w3.org/2000/svg" xmlns:xlink="http://www.w3.org/1999/xlink" width="700" height="350" style="" viewBox="0 0 700 350"><rect x="0" y="0" width="700" height="350" style="fill: rgb(255, 255, 255); fill-opacity: 1;"/><defs id="defs-50e91a"><g class="clips"><clipPath id="clip50e91axyplot" class="plotclip"><rect width="620" height="274"/></clipPath><clipPath class="axesclip" id="clip50e91ax"><rect x="40" y="0" width="620" height="350"/></clipPath><clipPath class="axesclip" id="clip50e91ay"><rect x="0" y="46" width="700" height="274"/></clipPath><clipPath class="axesclip" id="clip50e91axy"><rect x="40" y="46" width="620" height="274"/></clipPath></g><g class="gradients"/><g class="patterns"/></defs><g class="bglayer"><rect class="bg" x="40" y="46" width="620" height="274" style="fill: rgb(229, 236, 246); fill-opacity: 1; stroke-width: 0;"/></g><g class="layer-below"><g class="imagelayer"/><g class="shapelayer"/></g><g class="cartesianlayer"><g class="subplot xy"><g class="layer-subplot"><g class="shapelayer"/><g class="imagelayer"/></g><g class="minor-gridlayer"><g class="x"/><g class="y"/></g><g class="gridlayer"><g class="x"><path class="xgrid crisp" transform="translate(141.64,0)" d="M0,46v274" style="stroke: rgb(255, 255, 255); stroke-opacity: 1; stroke-width: 1px;"/><path class="xgrid crisp" transform="translate(244.97,0)" d="M0,46v274" style="stroke: rgb(255, 255, 255); stroke-opacity: 1; stroke-width: 1px;"/><path class="xgrid crisp" transform="translate(348.31,0)" d="M0,46v274" style="stroke: rgb(255, 255, 255); stroke-opacity: 1; stroke-width: 1px;"/><path class="xgrid crisp" transform="translate(453.33,0)" d="M0,46v274" style="stroke: rgb(255, 255, 255); stroke-opacity: 1; stroke-width: 1px;"/><path class="xgrid crisp" transform="translate(556.67,0)" d="M0,46v274" style="stroke: rgb(255, 255, 255); stroke-opacity: 1; stroke-width: 1px;"/></g><g class="y"><path class="ygrid crisp" transform="translate(0,267.94)" d="M40,0h620" style="stroke: rgb(255, 255, 255); stroke-opacity: 1; stroke-width: 1px;"/><path class="ygrid crisp" transform="translate(0,215.88)" d="M40,0h620" style="stroke: rgb(255, 255, 255); stroke-opacity: 1; stroke-width: 1px;"/><path class="ygrid crisp" transform="translate(0,163.82)" d="M40,0h620" style="stroke: rgb(255, 255, 255); stroke-opacity: 1; stroke-width: 1px;"/><path class="ygrid crisp" transform="translate(0,111.76)" d="M40,0h620" style="stroke: rgb(255, 255, 255); stroke-opacity: 1; stroke-width: 1px;"/><path class="ygrid crisp" transform="translate(0,59.7)" d="M40,0h620" style="stroke: rgb(255, 255, 255); stroke-opacity: 1; stroke-width: 1px;"/></g></g><g class="zerolinelayer"><path class="yzl zl crisp" transform="translate(0,320)" d="M40,0h620" style="stroke: rgb(255, 255, 255); stroke-opacity: 1; stroke-width: 2px;"/></g><path class="xlines-below"/><path class="ylines-below"/><g class="overlines-below"/><g class="xaxislayer-below"/><g class="yaxislayer-below"/><g class="overaxes-below"/><g class="plot" transform="translate(40,46)" clip-path="url(#clip50e91axyplot)"><g class="scatterlayer mlayer"><g class="trace scatter trace197c401e-667a-4d00-a6b4-e3f05ad9d669" style="stroke-miterlimit: 2;"><g class="fills"><g><path class="js-fill" d="M620,274L0,274L0,13.7H1.69V13.7H3.39V13.7H5.08V13.7H6.78V13.7H8.47V13.7H10.16V13.7H11.86V13.7H13.55V13.7H15.25V13.7H16.94V13.7H18.63V13.7H20.33V13.7H22.02V13.7H23.72V13.7H25.41V13.7H27.1V13.7H28.8V13.7H30.49V13.7H32.19V13.7H33.88V13.7H35.57V13.7H37.27V13.7H38.96V13.7H40.66V13.7H42.35V13.7H44.04V13.7H45.74V13.7H47.43V13.7H49.13V13.7H50.82V13.7H52.51V13.7H54.21V13.7H55.9V13.7H57.6V13.7H59.29V13.7H60.98V13.7H62.68V13.7H64.37V13.7H66.07V13.7H67.76V13.7H69.45V13.7H71.15V13.7H72.84V13.7H74.54V13.7H76.23V13.7H77.92V13.7H79.62V13.7H81.31V13.7H83.01V13.7H84.7V13.7H86.39V13.7H88.09V13.7H89.78V13.7H91.48V13.7H93.17V13.7H94.86V13.7H96.56V13.7H98.25V13.7H99.95V13.7H101.64V13.7H103.33V13.7H105.03V65.76H106.72V65.76H108.42V65.76H110.11V65.76H111.8V65.76H113.5V65.76H115.19V65.76H116.89V65.76H118.58V65.76H120.27V65.76H121.97V65.76H123.66V65.76H125.36V65.76H127.05V65.76H128.74V65.76H130.44V65.76H132.13V65.76H133.83V65.76H135.52V65.76H137.21V65.76H138.91V65.76H140.6V65.76H142.3V65.76H143.99V65.76H145.68V65.76H147.38V65.76H149.07V65.76H150.77V65.76H152.46V65.76H154.15V65.76H155.85V65.76H157.54V65.76H159.23V65.76H160.93V65.76H162.62V65.76H164.32V65.76H166.01V65.76H167.7V65.76H169.4V65.76H171.09V65.76H172.79V65.76H174.48V65.76H176.17V65.76H177.87V65.76H179.56V65.76H181.26V65.76H182.95V65.76H184.64V65.76H186.34V65.76H188.03V65.76H189.73V65.76H191.42V65.76H193.11V65.76H194.81V65.76H196.5V65.76H198.2V65.76H199.89V65.76H201.58V65.76H203.28V65.76H204.97V65.76H206.67V65.76H208.36V117.82H210.05V117.82H211.75V117.82H213.44V117.82H215.14V117.82H216.83V117.82H218.52V117.82H220.22V117.82H221.91V117.82H223.61V117.82H225.3V117.82H226.99V117.82H228.69V117.82H230.38V117.82H232.08V117.82H233.77V117.82H235.46V117.82H237.16V117.82H238.85V117.82H240.55V117.82H242.24V117.82H243.93V117.82H245.63V117.82H247.32V117.82H249.02V117.82H250.71V117.82H252.4V117.82H254.1V117.82H255.79V117.82H257.49V117.82H259.18V117.82H260.87V117.82H262.57V117.82H264.26V117.82H265.96V117.82H267.65V117.82H269.34V117.82H271.04V117.82H272.73V117.82H274.43V117.82H276.12V117.82H277.81V117.82H279.51V117.82H281.2V117.82H282.9V117.82H284.59V117.82H286.28V117.82H287.98V117.82H289.67V117.82H291.37V117.82H293.06V117.82H294.75V117.82H296.45V117.82H298.14V117.82H299.84V117.82H301.53V117.82H303.22V117.82H304.92V117.82H306.61V117.82H308.31V117.82H310V117.82H311.69V169.88H313.39V169.88H315.08V169.88H316.78V169.88H318.47V169.88H320.16V169.88H321.86V169.88H323.55V169.88H325.25V169.88H326.94V169.88H328.63V169.88H330.33V169.88H332.02V169.88H333.72V169.88H335.41V169.88H337.1V169.88H338.8V169.88H340.49V169.88H342.19V169.88H343.88V169.88H345.57V169.88H347.27V169.88H348.96V169.88H350.66V169.88H352.35V169.88H354.04V169.88H355.74V169.88H357.43V169.88H359.13V169.88H360.82V169.88H362.51V169.88H364.21V169.88H365.9V169.88H367.6V169.88H369.29V169.88H370.98V169.88H372.68V169.88H374.37V169.88H376.07V169.88H377.76V169.88H379.45V169.88H381.15V169.88H382.84V169.88H384.54V169.88H386.23V169.88H387.92V169.88H389.62V169.88H391.31V169.88H393.01V169.88H394.7V169.88H396.39V169.88H398.09V169.88H399.78V169.88H401.48V169.88H403.17V169.88H404.86V169.88H406.56V169.88H408.25V169.88H409.95V169.88H411.64V169.88H413.33V169.88H415.03V221.94H416.72V221.94H418.42V221.94H420.11V221.94H421.8V221.94H423.5V221.94H425.19V221.94H426.89V221.94H428.58V221.94H430.27V221.94H431.97V221.94H433.66V221.94H435.36V221.94H437.05V221.94H438.74V221.94H440.44V221.94H442.13V221.94H443.83V221.94H445.52V221.94H447.21V221.94H448.91V221.94H450.6V221.94H452.3V221.94H453.99V221.94H455.68V221.94H457.38V221.94H459.07V221.94H460.77V221.94H462.46V221.94H464.15V221.94H465.85V221.94H467.54V221.94H469.23V221.94H470.93V221.94H472.62V221.94H474.32V221.94H476.01V221.94H477.7V221.94H479.4V221.94H481.09V221.94H482.79V221.94H484.48V221.94H486.17V221.94H487.87V221.94H489.56V221.94H491.26V221.94H492.95V221.94H494.64V221.94H496.34V221.94H498.03V221.94H499.73V221.94H501.42V221.94H503.11V221.94H504.81V221.94H506.5V221.94H508.2V221.94H509.89V221.94H511.58V221.94H513.28V221.94H514.97V221.94H516.67V221.94H518.36V274H520.05V274H521.75V274H523.44V274H525.14V274H526.83V274H528.52V274H530.22V274H531.91V274H533.61V274H535.3V274H536.99V274H538.69V274H540.38V274H542.08V274H543.77V274H545.46V274H547.16V274H548.85V274H550.55V274H552.24V274H553.93V274H555.63V274H557.32V274H559.02V274H560.71V274H562.4V274H564.1V274H565.79V274H567.49V274H569.18V274H570.87V274H572.57V274H574.26V274H575.96V274H577.65V274H579.34V274H581.04V274H582.73V274H584.43V274H586.12V274H587.81V274H589.51V274H591.2V274H592.9V274H594.59V274H596.28V274H597.98V274H599.67V274H601.37V274H603.06V274H604.75V274H606.45V274H608.14V274H609.84V274H611.53V274H613.22V274H614.92V274H616.61V274H618.31V274H620V274" style="fill: rgb(31, 119, 180); fill-opacity: 0.5; stroke-width: 0;"/></g><g><path class="js-fill" d="M0,13.7H1.69V13.7H3.39V13.7H5.08V13.7H6.78V13.7H8.47V13.7H10.16V13.7H11.86V13.7H13.55V13.7H15.25V13.7H16.94V13.7H18.63V13.7H20.33V13.7H22.02V13.7H23.72V13.7H25.41V13.7H27.1V13.7H28.8V13.7H30.49V13.7H32.19V13.7H33.88V13.7H35.57V13.7H37.27V13.7H38.96V13.7H40.66V13.7H42.35V13.7H44.04V13.7H45.74V13.7H47.43V13.7H49.13V13.7H50.82V13.7H52.51V13.7H54.21V13.7H55.9V13.7H57.6V13.7H59.29V13.7H60.98V13.7H62.68V13.7H64.37V13.7H66.07V13.7H67.76V13.7H69.45V13.7H71.15V13.7H72.84V13.7H74.54V13.7H76.23V13.7H77.92V13.7H79.62V13.7H81.31V13.7H83.01V13.7H84.7V13.7H86.39V13.7H88.09V13.7H89.78V13.7H91.48V13.7H93.17V13.7H94.86V13.7H96.56V13.7H98.25V13.7H99.95V13.7H101.64V13.7H103.33V13.7H105.03V13.7H106.72V13.7H108.42V13.7H110.11V13.7H111.8V13.7H113.5V13.7H115.19V13.7H116.89V13.7H118.58V13.7H120.27V13.7H121.97V13.7H123.66V13.7H125.36V13.7H127.05V13.7H128.74V13.7H130.44V13.7H132.13V13.7H133.83V13.7H135.52V13.7H137.21V13.7H138.91V13.7H140.6V13.7H142.3V13.7H143.99V13.7H145.68V13.7H147.38V13.7H149.07V13.7H150.77V13.7H152.46V13.7H154.15V13.7H155.85V13.7H157.54V13.7H159.23V13.7H160.93V13.7H162.62V13.7H164.32V13.7H166.01V13.7H167.7V13.7H169.4V13.7H171.09V13.7H172.79V13.7H174.48V13.7H176.17V13.7H177.87V13.7H179.56V13.7H181.26V13.7H182.95V13.7H184.64V13.7H186.34V13.7H188.03V13.7H189.73V13.7H191.42V13.7H193.11V13.7H194.81V13.7H196.5V13.7H198.2V13.7H199.89V13.7H201.58V13.7H203.28V13.7H204.97V13.7H206.67V13.7H208.36V65.76H210.05V65.76H211.75V65.76H213.44V65.76H215.14V65.76H216.83V65.76H218.52V65.76H220.22V65.76H221.91V65.76H223.61V65.76H225.3V65.76H226.99V65.76H228.69V65.76H230.38V65.76H232.08V65.76H233.77V65.76H235.46V65.76H237.16V65.76H238.85V65.76H240.55V65.76H242.24V65.76H243.93V65.76H245.63V65.76H247.32V65.76H249.02V65.76H250.71V65.76H252.4V65.76H254.1V65.76H255.79V65.76H257.49V65.76H259.18V65.76H260.87V65.76H262.57V65.76H264.26V65.76H265.96V65.76H267.65V65.76H269.34V65.76H271.04V65.76H272.73V65.76H274.43V65.76H276.12V65.76H277.81V65.76H279.51V65.76H281.2V65.76H282.9V65.76H284.59V65.76H286.28V65.76H287.98V65.76H289.67V65.76H291.37V65.76H293.06V65.76H294.75V65.76H296.45V65.76H298.14V65.76H299.84V65.76H301.53V65.76H303.22V65.76H304.92V65.76H306.61V65.76H308.31V65.76H310V65.76H311.69V117.82H313.39V117.82H315.08V117.82H316.78V117.82H318.47V117.82H320.16V117.82H321.86V117.82H323.55V117.82H325.25V117.82H326.94V117.82H328.63V117.82H330.33V117.82H332.02V117.82H333.72V117.82H335.41V117.82H337.1V117.82H338.8V117.82H340.49V117.82H342.19V117.82H343.88V117.82H345.57V117.82H347.27V117.82H348.96V117.82H350.66V117.82H352.35V117.82H354.04V117.82H355.74V117.82H357.43V117.82H359.13V117.82H360.82V117.82H362.51V117.82H364.21V117.82H365.9V117.82H367.6V117.82H369.29V117.82H370.98V117.82H372.68V117.82H374.37V117.82H376.07V117.82H377.76V117.82H379.45V117.82H381.15V117.82H382.84V117.82H384.54V117.82H386.23V117.82H387.92V117.82H389.62V117.82H391.31V117.82H393.01V117.82H394.7V117.82H396.39V117.82H398.09V117.82H399.78V117.82H401.48V117.82H403.17V117.82H404.86V117.82H406.56V117.82H408.25V117.82H409.95V117.82H411.64V117.82H413.33V117.82H415.03V169.88H416.72V169.88H418.42V169.88H420.11V169.88H421.8V169.88H423.5V169.88H425.19V169.88H426.89V169.88H428.58V169.88H430.27V169.88H431.97V169.88H433.66V169.88H435.36V169.88H437.05V169.88H438.74V169.88H440.44V169.88H442.13V169.88H443.83V169.88H445.52V169.88H447.21V169.88H448.91V169.88H450.6V169.88H452.3V169.88H453.99V169.88H455.68V169.88H457.38V169.88H459.07V169.88H460.77V169.88H462.46V169.88H464.15V169.88H465.85V169.88H467.54V169.88H469.23V169.88H470.93V169.88H472.62V169.88H474.32V169.88H476.01V169.88H477.7V169.88H479.4V169.88H481.09V169.88H482.79V169.88H484.48V169.88H486.17V169.88H487.87V169.88H489.56V169.88H491.26V169.88H492.95V169.88H494.64V169.88H496.34V169.88H498.03V169.88H499.73V169.88H501.42V169.88H503.11V169.88H504.81V169.88H506.5V169.88H508.2V169.88H509.89V169.88H511.58V169.88H513.28V169.88H514.97V169.88H516.67V169.88H518.36V221.94H520.05V221.94H521.75V221.94H523.44V221.94H525.14V221.94H526.83V221.94H528.52V221.94H530.22V221.94H531.91V221.94H533.61V221.94H535.3V221.94H536.99V221.94H538.69V221.94H540.38V221.94H542.08V221.94H543.77V221.94H545.46V221.94H547.16V221.94H548.85V221.94H550.55V221.94H552.24V221.94H553.93V221.94H555.63V221.94H557.32V221.94H559.02V221.94H560.71V221.94H562.4V221.94H564.1V221.94H565.79V221.94H567.49V221.94H569.18V221.94H570.87V221.94H572.57V221.94H574.26V221.94H575.96V221.94H577.65V221.94H579.34V221.94H581.04V221.94H582.73V221.94H584.43V221.94H586.12V221.94H587.81V221.94H589.51V221.94H591.2V221.94H592.9V221.94H594.59V221.94H596.28V221.94H597.98V221.94H599.67V221.94H601.37V221.94H603.06V221.94H604.75V221.94H606.45V221.94H608.14V221.94H609.84V221.94H611.53V221.94H613.22V221.94H614.92V221.94H616.61V221.94H618.31V221.94H620V221.94L620,274V274H618.31V274H616.61V274H614.92V274H613.22V274H611.53V274H609.84V274H608.14V274H606.45V274H604.75V274H603.06V274H601.37V274H599.67V274H597.98V274H596.28V274H594.59V274H592.9V274H591.2V274H589.51V274H587.81V274H586.12V274H584.43V274H582.73V274H581.04V274H579.34V274H577.65V274H575.96V274H574.26V274H572.57V274H570.87V274H569.18V274H567.49V274H565.79V274H564.1V274H562.4V274H560.71V274H559.02V274H557.32V274H555.63V274H553.93V274H552.24V274H550.55V274H548.85V274H547.16V274H545.46V274H543.77V274H542.08V274H540.38V274H538.69V274H536.99V274H535.3V274H533.61V274H531.91V274H530.22V274H528.52V274H526.83V274H525.14V274H523.44V274H521.75V274H520.05V274H518.36V221.94H516.67V221.94H514.97V221.94H513.28V221.94H511.58V221.94H509.89V221.94H508.2V221.94H506.5V221.94H504.81V221.94H503.11V221.94H501.42V221.94H499.73V221.94H498.03V221.94H496.34V221.94H494.64V221.94H492.95V221.94H491.26V221.94H489.56V221.94H487.87V221.94H486.17V221.94H484.48V221.94H482.79V221.94H481.09V221.94H479.4V221.94H477.7V221.94H476.01V221.94H474.32V221.94H472.62V221.94H470.93V221.94H469.23V221.94H467.54V221.94H465.85V221.94H464.15V221.94H462.46V221.94H460.77V221.94H459.07V221.94H457.38V221.94H455.68V221.94H453.99V221.94H452.3V221.94H450.6V221.94H448.91V221.94H447.21V221.94H445.52V221.94H443.83V221.94H442.13V221.94H440.44V221.94H438.74V221.94H437.05V221.94H435.36V221.94H433.66V221.94H431.97V221.94H430.27V221.94H428.58V221.94H426.89V221.94H425.19V221.94H423.5V221.94H421.8V221.94H420.11V221.94H418.42V221.94H416.72V221.94H415.03V169.88H413.33V169.88H411.64V169.88H409.95V169.88H408.25V169.88H406.56V169.88H404.86V169.88H403.17V169.88H401.48V169.88H399.78V169.88H398.09V169.88H396.39V169.88H394.7V169.88H393.01V169.88H391.31V169.88H389.62V169.88H387.92V169.88H386.23V169.88H384.54V169.88H382.84V169.88H381.15V169.88H379.45V169.88H377.76V169.88H376.07V169.88H374.37V169.88H372.68V169.88H370.98V169.88H369.29V169.88H367.6V169.88H365.9V169.88H364.21V169.88H362.51V169.88H360.82V169.88H359.13V169.88H357.43V169.88H355.74V169.88H354.04V169.88H352.35V169.88H350.66V169.88H348.96V169.88H347.27V169.88H345.57V169.88H343.88V169.88H342.19V169.88H340.49V169.88H338.8V169.88H337.1V169.88H335.41V169.88H333.72V169.88H332.02V169.88H330.33V169.88H328.63V169.88H326.94V169.88H325.25V169.88H323.55V169.88H321.86V169.88H320.16V169.88H318.47V169.88H316.78V169.88H315.08V169.88H313.39V169.88H311.69V117.82H310V117.82H308.31V117.82H306.61V117.82H304.92V117.82H303.22V117.82H301.53V117.82H299.84V117.82H298.14V117.82H296.45V117.82H294.75V117.82H293.06V117.82H291.37V117.82H289.67V117.82H287.98V117.82H286.28V117.82H284.59V117.82H282.9V117.82H281.2V117.82H279.51V117.82H277.81V117.82H276.12V117.82H274.43V117.82H272.73V117.82H271.04V117.82H269.34V117.82H267.65V117.82H265.96V117.82H264.26V117.82H262.57V117.82H260.87V117.82H259.18V117.82H257.49V117.82H255.79V117.82H254.1V117.82H252.4V117.82H250.71V117.82H249.02V117.82H247.32V117.82H245.63V117.82H243.93V117.82H242.24V117.82H240.55V117.82H238.85V117.82H237.16V117.82H235.46V117.82H233.77V117.82H232.08V117.82H230.38V117.82H228.69V117.82H226.99V117.82H225.3V117.82H223.61V117.82H221.91V117.82H220.22V117.82H218.52V117.82H216.83V117.82H215.14V117.82H213.44V117.82H211.75V117.82H210.05V117.82H208.36V65.76H206.67V65.76H204.97V65.76H203.28V65.76H201.58V65.76H199.89V65.76H198.2V65.76H196.5V65.76H194.81V65.76H193.11V65.76H191.42V65.76H189.73V65.76H188.03V65.76H186.34V65.76H184.64V65.76H182.95V65.76H181.26V65.76H179.56V65.76H177.87V65.76H176.17V65.76H174.48V65.76H172.79V65.76H171.09V65.76H169.4V65.76H167.7V65.76H166.01V65.76H164.32V65.76H162.62V65.76H160.93V65.76H159.23V65.76H157.54V65.76H155.85V65.76H154.15V65.76H152.46V65.76H150.77V65.76H149.07V65.76H147.38V65.76H145.68V65.76H143.99V65.76H142.3V65.76H140.6V65.76H138.91V65.76H137.21V65.76H135.52V65.76H133.83V65.76H132.13V65.76H130.44V65.76H128.74V65.76H127.05V65.76H125.36V65.76H123.66V65.76H121.97V65.76H120.27V65.76H118.58V65.76H116.89V65.76H115.19V65.76H113.5V65.76H111.8V65.76H110.11V65.76H108.42V65.76H106.72V65.76H105.03V13.7H103.33V13.7H101.64V13.7H99.95V13.7H98.25V13.7H96.56V13.7H94.86V13.7H93.17V13.7H91.48V13.7H89.78V13.7H88.09V13.7H86.39V13.7H84.7V13.7H83.01V13.7H81.31V13.7H79.62V13.7H77.92V13.7H76.23V13.7H74.54V13.7H72.84V13.7H71.15V13.7H69.45V13.7H67.76V13.7H66.07V13.7H64.37V13.7H62.68V13.7H60.98V13.7H59.29V13.7H57.6V13.7H55.9V13.7H54.21V13.7H52.51V13.7H50.82V13.7H49.13V13.7H47.43V13.7H45.74V13.7H44.04V13.7H42.35V13.7H40.66V13.7H38.96V13.7H37.27V13.7H35.57V13.7H33.88V13.7H32.19V13.7H30.49V13.7H28.8V13.7H27.1V13.7H25.41V13.7H23.72V13.7H22.02V13.7H20.33V13.7H18.63V13.7H16.94V13.7H15.25V13.7H13.55V13.7H11.86V13.7H10.16V13.7H8.47V13.7H6.78V13.7H5.08V13.7H3.39V13.7H1.69V13.7H0Z" style="fill: rgb(255, 127, 14); fill-opacity: 0.5; stroke-width: 0;"/></g></g><g class="errorbars"/><g class="lines"><path class="js-line" d="M0,13.7H1.69V13.7H3.39V13.7H5.08V13.7H6.78V13.7H8.47V13.7H10.16V13.7H11.86V13.7H13.55V13.7H15.25V13.7H16.94V13.7H18.63V13.7H20.33V13.7H22.02V13.7H23.72V13.7H25.41V13.7H27.1V13.7H28.8V13.7H30.49V13.7H32.19V13.7H33.88V13.7H35.57V13.7H37.27V13.7H38.96V13.7H40.66V13.7H42.35V13.7H44.04V13.7H45.74V13.7H47.43V13.7H49.13V13.7H50.82V13.7H52.51V13.7H54.21V13.7H55.9V13.7H57.6V13.7H59.29V13.7H60.98V13.7H62.68V13.7H64.37V13.7H66.07V13.7H67.76V13.7H69.45V13.7H71.15V13.7H72.84V13.7H74.54V13.7H76.23V13.7H77.92V13.7H79.62V13.7H81.31V13.7H83.01V13.7H84.7V13.7H86.39V13.7H88.09V13.7H89.78V13.7H91.48V13.7H93.17V13.7H94.86V13.7H96.56V13.7H98.25V13.7H99.95V13.7H101.64V13.7H103.33V13.7H105.03V65.76H106.72V65.76H108.42V65.76H110.11V65.76H111.8V65.76H113.5V65.76H115.19V65.76H116.89V65.76H118.58V65.76H120.27V65.76H121.97V65.76H123.66V65.76H125.36V65.76H127.05V65.76H128.74V65.76H130.44V65.76H132.13V65.76H133.83V65.76H135.52V65.76H137.21V65.76H138.91V65.76H140.6V65.76H142.3V65.76H143.99V65.76H145.68V65.76H147.38V65.76H149.07V65.76H150.77V65.76H152.46V65.76H154.15V65.76H155.85V65.76H157.54V65.76H159.23V65.76H160.93V65.76H162.62V65.76H164.32V65.76H166.01V65.76H167.7V65.76H169.4V65.76H171.09V65.76H172.79V65.76H174.48V65.76H176.17V65.76H177.87V65.76H179.56V65.76H181.26V65.76H182.95V65.76H184.64V65.76H186.34V65.76H188.03V65.76H189.73V65.76H191.42V65.76H193.11V65.76H194.81V65.76H196.5V65.76H198.2V65.76H199.89V65.76H201.58V65.76H203.28V65.76H204.97V65.76H206.67V65.76H208.36V117.82H210.05V117.82H211.75V117.82H213.44V117.82H215.14V117.82H216.83V117.82H218.52V117.82H220.22V117.82H221.91V117.82H223.61V117.82H225.3V117.82H226.99V117.82H228.69V117.82H230.38V117.82H232.08V117.82H233.77V117.82H235.46V117.82H237.16V117.82H238.85V117.82H240.55V117.82H242.24V117.82H243.93V117.82H245.63V117.82H247.32V117.82H249.02V117.82H250.71V117.82H252.4V117.82H254.1V117.82H255.79V117.82H257.49V117.82H259.18V117.82H260.87V117.82H262.57V117.82H264.26V117.82H265.96V117.82H267.65V117.82H269.34V117.82H271.04V117.82H272.73V117.82H274.43V117.82H276.12V117.82H277.81V117.82H279.51V117.82H281.2V117.82H282.9V117.82H284.59V117.82H286.28V117.82H287.98V117.82H289.67V117.82H291.37V117.82H293.06V117.82H294.75V117.82H296.45V117.82H298.14V117.82H299.84V117.82H301.53V117.82H303.22V117.82H304.92V117.82H306.61V117.82H308.31V117.82H310V117.82H311.69V169.88H313.39V169.88H315.08V169.88H316.78V169.88H318.47V169.88H320.16V169.88H321.86V169.88H323.55V169.88H325.25V169.88H326.94V169.88H328.63V169.88H330.33V169.88H332.02V169.88H333.72V169.88H335.41V169.88H337.1V169.88H338.8V169.88H340.49V169.88H342.19V169.88H343.88V169.88H345.57V169.88H347.27V169.88H348.96V169.88H350.66V169.88H352.35V169.88H354.04V169.88H355.74V169.88H357.43V169.88H359.13V169.88H360.82V169.88H362.51V169.88H364.21V169.88H365.9V169.88H367.6V169.88H369.29V169.88H370.98V169.88H372.68V169.88H374.37V169.88H376.07V169.88H377.76V169.88H379.45V169.88H381.15V169.88H382.84V169.88H384.54V169.88H386.23V169.88H387.92V169.88H389.62V169.88H391.31V169.88H393.01V169.88H394.7V169.88H396.39V169.88H398.09V169.88H399.78V169.88H401.48V169.88H403.17V169.88H404.86V169.88H406.56V169.88H408.25V169.88H409.95V169.88H411.64V169.88H413.33V169.88H415.03V221.94H416.72V221.94H418.42V221.94H420.11V221.94H421.8V221.94H423.5V221.94H425.19V221.94H426.89V221.94H428.58V221.94H430.27V221.94H431.97V221.94H433.66V221.94H435.36V221.94H437.05V221.94H438.74V221.94H440.44V221.94H442.13V221.94H443.83V221.94H445.52V221.94H447.21V221.94H448.91V221.94H450.6V221.94H452.3V221.94H453.99V221.94H455.68V221.94H457.38V221.94H459.07V221.94H460.77V221.94H462.46V221.94H464.15V221.94H465.85V221.94H467.54V221.94H469.23V221.94H470.93V221.94H472.62V221.94H474.32V221.94H476.01V221.94H477.7V221.94H479.4V221.94H481.09V221.94H482.79V221.94H484.48V221.94H486.17V221.94H487.87V221.94H489.56V221.94H491.26V221.94H492.95V221.94H494.64V221.94H496.34V221.94H498.03V221.94H499.73V221.94H501.42V221.94H503.11V221.94H504.81V221.94H506.5V221.94H508.2V221.94H509.89V221.94H511.58V221.94H513.28V221.94H514.97V221.94H516.67V221.94H518.36V274H520.05V274H521.75V274H523.44V274H525.14V274H526.83V274H528.52V274H530.22V274H531.91V274H533.61V274H535.3V274H536.99V274H538.69V274H540.38V274H542.08V274H543.77V274H545.46V274H547.16V274H548.85V274H550.55V274H552.24V274H553.93V274H555.63V274H557.32V274H559.02V274H560.71V274H562.4V274H564.1V274H565.79V274H567.49V274H569.18V274H570.87V274H572.57V274H574.26V274H575.96V274H577.65V274H579.34V274H581.04V274H582.73V274H584.43V274H586.12V274H587.81V274H589.51V274H591.2V274H592.9V274H594.59V274H596.28V274H597.98V274H599.67V274H601.37V274H603.06V274H604.75V274H606.45V274H608.14V274H609.84V274H611.53V274H613.22V274H614.92V274H616.61V274H618.31V274H620V274" style="vector-effect: none; fill: none; stroke: rgb(31, 119, 180); stroke-opacity: 1; stroke-width: 2px; opacity: 1;"/></g><g class="points"/><g class="text"/></g><g class="trace scatter trace310f8743-d39f-47ad-b4cb-20339945a5de" style="stroke-miterlimit: 2;"><g class="fills"/><g class="errorbars"/><g class="lines"><path class="js-line" d="M0,13.7H1.69V13.7H3.39V13.7H5.08V13.7H6.78V13.7H8.47V13.7H10.16V13.7H11.86V13.7H13.55V13.7H15.25V13.7H16.94V13.7H18.63V13.7H20.33V13.7H22.02V13.7H23.72V13.7H25.41V13.7H27.1V13.7H28.8V13.7H30.49V13.7H32.19V13.7H33.88V13.7H35.57V13.7H37.27V13.7H38.96V13.7H40.66V13.7H42.35V13.7H44.04V13.7H45.74V13.7H47.43V13.7H49.13V13.7H50.82V13.7H52.51V13.7H54.21V13.7H55.9V13.7H57.6V13.7H59.29V13.7H60.98V13.7H62.68V13.7H64.37V13.7H66.07V13.7H67.76V13.7H69.45V13.7H71.15V13.7H72.84V13.7H74.54V13.7H76.23V13.7H77.92V13.7H79.62V13.7H81.31V13.7H83.01V13.7H84.7V13.7H86.39V13.7H88.09V13.7H89.78V13.7H91.48V13.7H93.17V13.7H94.86V13.7H96.56V13.7H98.25V13.7H99.95V13.7H101.64V13.7H103.33V13.7H105.03V13.7H106.72V13.7H108.42V13.7H110.11V13.7H111.8V13.7H113.5V13.7H115.19V13.7H116.89V13.7H118.58V13.7H120.27V13.7H121.97V13.7H123.66V13.7H125.36V13.7H127.05V13.7H128.74V13.7H130.44V13.7H132.13V13.7H133.83V13.7H135.52V13.7H137.21V13.7H138.91V13.7H140.6V13.7H142.3V13.7H143.99V13.7H145.68V13.7H147.38V13.7H149.07V13.7H150.77V13.7H152.46V13.7H154.15V13.7H155.85V13.7H157.54V13.7H159.23V13.7H160.93V13.7H162.62V13.7H164.32V13.7H166.01V13.7H167.7V13.7H169.4V13.7H171.09V13.7H172.79V13.7H174.48V13.7H176.17V13.7H177.87V13.7H179.56V13.7H181.26V13.7H182.95V13.7H184.64V13.7H186.34V13.7H188.03V13.7H189.73V13.7H191.42V13.7H193.11V13.7H194.81V13.7H196.5V13.7H198.2V13.7H199.89V13.7H201.58V13.7H203.28V13.7H204.97V13.7H206.67V13.7H208.36V65.76H210.05V65.76H211.75V65.76H213.44V65.76H215.14V65.76H216.83V65.76H218.52V65.76H220.22V65.76H221.91V65.76H223.61V65.76H225.3V65.76H226.99V65.76H228.69V65.76H230.38V65.76H232.08V65.76H233.77V65.76H235.46V65.76H237.16V65.76H238.85V65.76H240.55V65.76H242.24V65.76H243.93V65.76H245.63V65.76H247.32V65.76H249.02V65.76H250.71V65.76H252.4V65.76H254.1V65.76H255.79V65.76H257.49V65.76H259.18V65.76H260.87V65.76H262.57V65.76H264.26V65.76H265.96V65.76H267.65V65.76H269.34V65.76H271.04V65.76H272.73V65.76H274.43V65.76H276.12V65.76H277.81V65.76H279.51V65.76H281.2V65.76H282.9V65.76H284.59V65.76H286.28V65.76H287.98V65.76H289.67V65.76H291.37V65.76H293.06V65.76H294.75V65.76H296.45V65.76H298.14V65.76H299.84V65.76H301.53V65.76H303.22V65.76H304.92V65.76H306.61V65.76H308.31V65.76H310V65.76H311.69V117.82H313.39V117.82H315.08V117.82H316.78V117.82H318.47V117.82H320.16V117.82H321.86V117.82H323.55V117.82H325.25V117.82H326.94V117.82H328.63V117.82H330.33V117.82H332.02V117.82H333.72V117.82H335.41V117.82H337.1V117.82H338.8V117.82H340.49V117.82H342.19V117.82H343.88V117.82H345.57V117.82H347.27V117.82H348.96V117.82H350.66V117.82H352.35V117.82H354.04V117.82H355.74V117.82H357.43V117.82H359.13V117.82H360.82V117.82H362.51V117.82H364.21V117.82H365.9V117.82H367.6V117.82H369.29V117.82H370.98V117.82H372.68V117.82H374.37V117.82H376.07V117.82H377.76V117.82H379.45V117.82H381.15V117.82H382.84V117.82H384.54V117.82H386.23V117.82H387.92V117.82H389.62V117.82H391.31V117.82H393.01V117.82H394.7V117.82H396.39V117.82H398.09V117.82H399.78V117.82H401.48V117.82H403.17V117.82H404.86V117.82H406.56V117.82H408.25V117.82H409.95V117.82H411.64V117.82H413.33V117.82H415.03V169.88H416.72V169.88H418.42V169.88H420.11V169.88H421.8V169.88H423.5V169.88H425.19V169.88H426.89V169.88H428.58V169.88H430.27V169.88H431.97V169.88H433.66V169.88H435.36V169.88H437.05V169.88H438.74V169.88H440.44V169.88H442.13V169.88H443.83V169.88H445.52V169.88H447.21V169.88H448.91V169.88H450.6V169.88H452.3V169.88H453.99V169.88H455.68V169.88H457.38V169.88H459.07V169.88H460.77V169.88H462.46V169.88H464.15V169.88H465.85V169.88H467.54V169.88H469.23V169.88H470.93V169.88H472.62V169.88H474.32V169.88H476.01V169.88H477.7V169.88H479.4V169.88H481.09V169.88H482.79V169.88H484.48V169.88H486.17V169.88H487.87V169.88H489.56V169.88H491.26V169.88H492.95V169.88H494.64V169.88H496.34V169.88H498.03V169.88H499.73V169.88H501.42V169.88H503.11V169.88H504.81V169.88H506.5V169.88H508.2V169.88H509.89V169.88H511.58V169.88H513.28V169.88H514.97V169.88H516.67V169.88H518.36V221.94H520.05V221.94H521.75V221.94H523.44V221.94H525.14V221.94H526.83V221.94H528.52V221.94H530.22V221.94H531.91V221.94H533.61V221.94H535.3V221.94H536.99V221.94H538.69V221.94H540.38V221.94H542.08V221.94H543.77V221.94H545.46V221.94H547.16V221.94H548.85V221.94H550.55V221.94H552.24V221.94H553.93V221.94H555.63V221.94H557.32V221.94H559.02V221.94H560.71V221.94H562.4V221.94H564.1V221.94H565.79V221.94H567.49V221.94H569.18V221.94H570.87V221.94H572.57V221.94H574.26V221.94H575.96V221.94H577.65V221.94H579.34V221.94H581.04V221.94H582.73V221.94H584.43V221.94H586.12V221.94H587.81V221.94H589.51V221.94H591.2V221.94H592.9V221.94H594.59V221.94H596.28V221.94H597.98V221.94H599.67V221.94H601.37V221.94H603.06V221.94H604.75V221.94H606.45V221.94H608.14V221.94H609.84V221.94H611.53V221.94H613.22V221.94H614.92V221.94H616.61V221.94H618.31V221.94H620V221.94" style="vector-effect: none; fill: none; stroke: rgb(255, 127, 14); stroke-opacity: 1; stroke-width: 2px; opacity: 1;"/></g><g class="points"/><g class="text"/></g></g></g><g class="overplot"/><path class="xlines-above crisp" d="M0,0" style="fill: none;"/><path class="ylines-above crisp" d="M0,0" style="fill: none;"/><g class="overlines-above"/><g class="xaxislayer-above"><g class="xtick"><text text-anchor="middle" x="0" y="333" transform="translate(40,0)" style="font-family: 'Open Sans', verdana, arial, sans-serif; font-size: 12px; fill: rgb(42, 63, 95); fill-opacity: 1; white-space: pre; opacity: 1;">Jan 2020</text></g><g class="xtick"><text text-anchor="middle" x="0" y="333" style="font-family: 'Open Sans', verdana, arial, sans-serif; font-size: 12px; fill: rgb(42, 63, 95); fill-opacity: 1; white-space: pre; opacity: 1;" transform="translate(141.64,0)">Mar 2020</text></g><g class="xtick"><text text-anchor="middle" x="0" y="333" style="font-family: 'Open Sans', verdana, arial, sans-serif; font-size: 12px; fill: rgb(42, 63, 95); fill-opacity: 1; white-space: pre; opacity: 1;" transform="translate(244.97,0)">May 2020</text></g><g class="xtick"><text text-anchor="middle" x="0" y="333" style="font-family: 'Open Sans', verdana, arial, sans-serif; font-size: 12px; fill: rgb(42, 63, 95); fill-opacity: 1; white-space: pre; opacity: 1;" transform="translate(348.31,0)">Jul 2020</text></g><g class="xtick"><text text-anchor="middle" x="0" y="333" style="font-family: 'Open Sans', verdana, arial, sans-serif; font-size: 12px; fill: rgb(42, 63, 95); fill-opacity: 1; white-space: pre; opacity: 1;" transform="translate(453.33,0)">Sep 2020</text></g><g class="xtick"><text text-anchor="middle" x="0" y="333" style="font-family: 'Open Sans', verdana, arial, sans-serif; font-size: 12px; fill: rgb(42, 63, 95); fill-opacity: 1; white-space: pre; opacity: 1;" transform="translate(556.67,0)">Nov 2020</text></g><g class="xtick"><text text-anchor="middle" x="0" y="333" style="font-family: 'Open Sans', verdana, arial, sans-serif; font-size: 12px; fill: rgb(42, 63, 95); fill-opacity: 1; white-space: pre; opacity: 1;" transform="translate(660,0)">Jan 2021</text></g></g><g class="yaxislayer-above"><g class="ytick"><text text-anchor="end" x="39" y="4.199999999999999" transform="translate(0,320)" style="font-family: 'Open Sans', verdana, arial, sans-serif; font-size: 12px; fill: rgb(42, 63, 95); fill-opacity: 1; white-space: pre; opacity: 1;">0</text></g><g class="ytick"><text text-anchor="end" x="39" y="4.199999999999999" style="font-family: 'Open Sans', verdana, arial, sans-serif; font-size: 12px; fill: rgb(42, 63, 95); fill-opacity: 1; white-space: pre; opacity: 1;" transform="translate(0,267.94)">1</text></g><g class="ytick"><text text-anchor="end" x="39" y="4.199999999999999" style="font-family: 'Open Sans', verdana, arial, sans-serif; font-size: 12px; fill: rgb(42, 63, 95); fill-opacity: 1; white-space: pre; opacity: 1;" transform="translate(0,215.88)">2</text></g><g class="ytick"><text text-anchor="end" x="39" y="4.199999999999999" style="font-family: 'Open Sans', verdana, arial, sans-serif; font-size: 12px; fill: rgb(42, 63, 95); fill-opacity: 1; white-space: pre; opacity: 1;" transform="translate(0,163.82)">3</text></g><g class="ytick"><text text-anchor="end" x="39" y="4.199999999999999" style="font-family: 'Open Sans', verdana, arial, sans-serif; font-size: 12px; fill: rgb(42, 63, 95); fill-opacity: 1; white-space: pre; opacity: 1;" transform="translate(0,111.76)">4</text></g><g class="ytick"><text text-anchor="end" x="39" y="4.199999999999999" style="font-family: 'Open Sans', verdana, arial, sans-serif; font-size: 12px; fill: rgb(42, 63, 95); fill-opacity: 1; white-space: pre; opacity: 1;" transform="translate(0,59.7)">5</text></g></g><g class="overaxes-above"/></g></g><g class="polarlayer"/><g class="smithlayer"/><g class="ternarylayer"/><g class="geolayer"/><g class="funnelarealayer"/><g class="pielayer"/><g class="iciclelayer"/><g class="treemaplayer"/><g class="sunburstlayer"/><g class="glimages"/><defs id="topdefs-50e91a"><g class="clips"/><clipPath id="legend50e91a"><rect width="141" height="29" x="0" y="0"/></clipPath></defs><g class="layer-above"><g class="imagelayer"/><g class="shapelayer"/></g><g class="infolayer"><g class="legend" pointer-events="all" transform="translate(519,11.519999999999996)"><rect class="bg" shape-rendering="crispEdges" width="141" height="29" x="0" y="0" style="stroke: rgb(68, 68, 68); stroke-opacity: 1; fill: rgb(255, 255, 255); fill-opacity: 1; stroke-width: 0px;"/><g class="scrollbox" transform="" clip-path="url(#legend50e91a)"><g class="groups"><g class="traces" transform="translate(0,14.5)" style="opacity: 1;"><text class="legendtext" text-anchor="start" x="40" y="4.680000000000001" style="font-family: 'Open Sans', verdana, arial, sans-serif; font-size: 12px; fill: rgb(42, 63, 95); fill-opacity: 1; white-space: pre;">train</text><g class="layers"><g class="legendfill"><path class="js-fill" d="M5,-2h30v6h-30z" style="stroke-width: 0; fill: rgb(31, 119, 180); fill-opacity: 0.5;"/></g><g class="legendlines"><path class="js-line" d="M5,-2h30" style="fill: none; stroke: rgb(31, 119, 180); stroke-opacity: 1; stroke-width: 2px;"/></g><g class="legendsymbols"><g class="legendpoints"/></g></g><rect class="legendtoggle" x="0" y="-9.5" width="70.453125" height="19" style="fill: rgb(0, 0, 0); fill-opacity: 0;"/></g><g class="traces" transform="translate(72.953125,14.5)" style="opacity: 1;"><text class="legendtext" text-anchor="start" x="40" y="4.680000000000001" style="font-family: 'Open Sans', verdana, arial, sans-serif; font-size: 12px; fill: rgb(42, 63, 95); fill-opacity: 1; white-space: pre;">test</text><g class="layers"><g class="legendfill"><path class="js-fill" d="M5,-2h30v6h-30z" style="stroke-width: 0; fill: rgb(255, 127, 14); fill-opacity: 0.5;"/></g><g class="legendlines"><path class="js-line" d="M5,-2h30" style="fill: none; stroke: rgb(255, 127, 14); stroke-opacity: 1; stroke-width: 2px;"/></g><g class="legendsymbols"><g class="legendpoints"/></g></g><rect class="legendtoggle" x="0" y="-9.5" width="65.359375" height="19" style="fill: rgb(0, 0, 0); fill-opacity: 0;"/></g></g></g><rect class="scrollbar" rx="20" ry="3" width="0" height="0" x="0" y="0" style="fill: rgb(128, 139, 164); fill-opacity: 1;"/></g><g class="g-gtitle"/><g class="g-xtitle"/><g class="g-ytitle"/></g></svg>