<svg class="main-svg" xmlns="http://www.w3.org/2000/svg" xmlns:xlink="http://www.w3.org/1999/xlink" width="700" height="350" style="" viewBox="0 0 700 350"><rect x="0" y="0" width="700" height="350" style="fill: rgb(255, 255, 255); fill-opacity: 1;"/><defs id="defs-73ce12"><g class="clips"><clipPath id="clip73ce12xyplot" class="plotclip"><rect width="620" height="274"/></clipPath><clipPath class="axesclip" id="clip73ce12x"><rect x="40" y="0" width="620" height="350"/></clipPath><clipPath class="axesclip" id="clip73ce12y"><rect x="0" y="46" width="700" height="274"/></clipPath><clipPath class="axesclip" id="clip73ce12xy"><rect x="40" y="46" width="620" height="274"/></clipPath></g><g class="gradients"/><g class="patterns"/></defs><g class="bglayer"><rect class="bg" x="40" y="46" width="620" height="274" style="fill: rgb(229, 236, 246); fill-opacity: 1; stroke-width: 0;"/></g><g class="layer-below"><g class="imagelayer"/><g class="shapelayer"/></g><g class="cartesianlayer"><g class="subplot xy"><g class="layer-subplot"><g class="shapelayer"/><g class="imagelayer"/></g><g class="minor-gridlayer"><g class="x"/><g class="y"/></g><g class="gridlayer"><g class="x"><path class="xgrid crisp" transform="translate(141.64,0)" d="M0,46v274" style="stroke: rgb(255, 255, 255); stroke-opacity: 1; stroke-width: 1px;"/><path class="xgrid crisp" transform="translate(244.97,0)" d="M0,46v274" style="stroke: rgb(255, 255, 255); stroke-opacity: 1; stroke-width: 1px;"/><path class="xgrid crisp" transform="translate(348.31,0)" d="M0,46v274" style="stroke: rgb(255, 255, 255); stroke-opacity: 1; stroke-width: 1px;"/><path class="xgrid crisp" transform="translate(453.33,0)" d="M0,46v274" style="stroke: rgb(255, 255, 255); stroke-opacity: 1; stroke-width: 1px;"/><path class="xgrid crisp" transform="translate(556.67,0)" d="M0,46v274" style="stroke: rgb(255, 255, 255); stroke-opacity: 1; stroke-width: 1px;"/></g><g class="y"><path class="ygrid crisp" transform="translate(0,256.98)" d="M40,0h620" style="stroke: rgb(255, 255, 255); stroke-opacity: 1; stroke-width: 1px;"/><path class="ygrid crisp" transform="translate(0,207.66)" d="M40,0h620" style="stroke: rgb(255, 255, 255); stroke-opacity: 1; stroke-width: 1px;"/><path class="ygrid crisp" transform="translate(0,158.34)" d="M40,0h620" style="stroke: rgb(255, 255, 255); stroke-opacity: 1; stroke-width: 1px;"/><path class="ygrid crisp" transform="translate(0,109.02000000000001)" d="M40,0h620" style="stroke: rgb(255, 255, 255); stroke-opacity: 1; stroke-width: 1px;"/><path class="ygrid crisp" transform="translate(0,59.7)" d="M40,0h620" style="stroke: rgb(255, 255, 255); stroke-opacity: 1; stroke-width: 1px;"/></g></g><g class="zerolinelayer"><path class="yzl zl crisp" transform="translate(0,306.3)" d="M40,0h620" style="stroke: rgb(255, 255, 255); stroke-opacity: 1; stroke-width: 2px;"/></g><path class="xlines-below"/><path class="ylines-below"/><g class="overlines-below"/><g class="xaxislayer-below"/><g class="yaxislayer-below"/><g class="overaxes-below"/><g class="plot" transform="translate(40,46)" clip-path="url(#clip73ce12xyplot)"><g class="scatterlayer mlayer"><g class="trace scatter trace0e570e27-9ea3-4bd5-bd93-568467cad208" style="stroke-miterlimit: 2; opacity: 1;"><g class="fills"/><g class="errorbars"/><g class="lines"><path class="js-line" d="M0,13.7H1.69V13.7H3.39V13.7H5.08V13.7H6.78V13.7H8.47V13.7H10.16V13.7H11.86V13.7H13.55V13.7H15.25V13.7H16.94V13.7H18.63V13.7H20.33V13.7H22.02V13.7H23.72V13.7H25.41V13.7H27.1V13.7H28.8V13.7H30.49V13.7H32.19V13.7H33.88V13.7H35.57V13.7H37.27V13.7H38.96V13.7H40.66V13.7H42.35V13.7H44.04V13.7H45.74V13.7H47.43V13.7H49.13V13.7H50.82V13.7H52.51V13.7H54.21V13.7H55.9V13.7H57.6V13.7H59.29V13.7H60.98V13.7H62.68V13.7H64.37V13.7H66.07V13.7H67.76V13.7H69.45V13.7H71.15V13.7H72.84V13.7H74.54V13.7H76.23V13.7H77.92V13.7H79.62V13.7H81.31V13.7H83.01V13.7H84.7V13.7H86.39V13.7H88.09V13.7H89.78V13.7H91.48V13.7H93.17V13.7H94.86V13.7H96.56V13.7H98.25V13.7H99.95V13.7H101.64V13.7H103.33V13.7H105.03V63.02H106.72V63.02H108.42V63.02H110.11V63.02H111.8V63.02H113.5V63.02H115.19V63.02H116.89V63.02H118.58V63.02H120.27V63.02H121.97V63.02H123.66V63.02H125.36V63.02H127.05V63.02H128.74V63.02H130.44V63.02H132.13V63.02H133.83V63.02H135.52V63.02H137.21V63.02H138.91V63.02H140.6V63.02H142.3V63.02H143.99V63.02H145.68V63.02H147.38V63.02H149.07V63.02H150.77V63.02H152.46V63.02H154.15V63.02H155.85V63.02H157.54V63.02H159.23V63.02H160.93V63.02H162.62V63.02H164.32V63.02H166.01V63.02H167.7V63.02H169.4V63.02H171.09V63.02H172.79V63.02H174.48V63.02H176.17V63.02H177.87V63.02H179.56V63.02H181.26V63.02H182.95V63.02H184.64V63.02H186.34V63.02H188.03V63.02H189.73V63.02H191.42V63.02H193.11V63.02H194.81V63.02H196.5V63.02H198.2V63.02H199.89V63.02H201.58V63.02H203.28V63.02H204.97V63.02H206.67V63.02H208.36V112.34H210.05V112.34H211.75V112.34H213.44V112.34H215.14V112.34H216.83V112.34H218.52V112.34H220.22V112.34H221.91V112.34H223.61V112.34H225.3V112.34H226.99V112.34H228.69V112.34H230.38V112.34H232.08V112.34H233.77V112.34H235.46V112.34H237.16V112.34H238.85V112.34H240.55V112.34H242.24V112.34H243.93V112.34H245.63V112.34H247.32V112.34H249.02V112.34H250.71V112.34H252.4V112.34H254.1V112.34H255.79V112.34H257.49V112.34H259.18V112.34H260.87V112.34H262.57V112.34H264.26V112.34H265.96V112.34H267.65V112.34H269.34V112.34H271.04V112.34H272.73V112.34H274.43V112.34H276.12V112.34H277.81V112.34H279.51V112.34H281.2V112.34H282.9V112.34H284.59V112.34H286.28V112.34H287.98V112.34H289.67V112.34H291.37V112.34H293.06V112.34H294.75V112.34H296.45V112.34H298.14V112.34H299.84V112.34H301.53V112.34H303.22V112.34H304.92V112.34H306.61V112.34H308.31V112.34H310V112.34H311.69V161.66H313.39V161.66H315.08V161.66H316.78V161.66H318.47V161.66H320.16V161.66H321.86V161.66H323.55V161.66H325.25V161.66H326.94V161.66H328.63V161.66H330.33V161.66H332.02V161.66H333.72V161.66H335.41V161.66H337.1V161.66H338.8V161.66H340.49V161.66H342.19V161.66H343.88V161.66H345.57V161.66H347.27V161.66H348.96V161.66H350.66V161.66H352.35V161.66H354.04V161.66H355.74V161.66H357.43V161.66H359.13V161.66H360.82V161.66H362.51V161.66H364.21V161.66H365.9V161.66H367.6V161.66H369.29V161.66H370.98V161.66H372.68V161.66H374.37V161.66H376.07V161.66H377.76V161.66H379.45V161.66H381.15V161.66H382.84V161.66H384.54V161.66H386.23V161.66H387.92V161.66H389.62V161.66H391.31V161.66H393.01V161.66H394.7V161.66H396.39V161.66H398.09V161.66H399.78V161.66H401.48V161.66H403.17V161.66H404.86V161.66H406.56V161.66H408.25V161.66H409.95V161.66H411.64V161.66H413.33V161.66H415.03V210.98H416.72V210.98H418.42V210.98H420.11V210.98H421.8V210.98H423.5V210.98H425.19V210.98H426.89V210.98H428.58V210.98H430.27V210.98H431.97V210.98H433.66V210.98H435.36V210.98H437.05V210.98H438.74V210.98H440.44V210.98H442.13V210.98H443.83V210.98H445.52V210.98H447.21V210.98H448.91V210.98H450.6V210.98H452.3V210.98H453.99V210.98H455.68V210.98H457.38V210.98H459.07V210.98H460.77V210.98H462.46V210.98H464.15V210.98H465.85V210.98H467.54V210.98H469.23V210.98H470.93V210.98H472.62V210.98H474.32V210.98H476.01V210.98H477.7V210.98H479.4V210.98H481.09V210.98H482.79V210.98H484.48V210.98H486.17V210.98H487.87V210.98H489.56V210.98H491.26V210.98H492.95V210.98H494.64V210.98H496.34V210.98H498.03V210.98H499.73V210.98H501.42V210.98H503.11V210.98H504.81V210.98H506.5V210.98H508.2V210.98H509.89V210.98H511.58V210.98H513.28V210.98H514.97V210.98H516.67V210.98H518.36V260.3H520.05V260.3H521.75V260.3H523.44V260.3H525.14V260.3H526.83V260.3H528.52V260.3H530.22V260.3H531.91V260.3H533.61V260.3H535.3V260.3H536.99V260.3H538.69V260.3H540.38V260.3H542.08V260.3H543.77V260.3H545.46V260.3H547.16V260.3H548.85V260.3H550.55V260.3H552.24V260.3H553.93V260.3H555.63V260.3H557.32V260.3H559.02V260.3H560.71V260.3H562.4V260.3H564.1V260.3H565.79V260.3H567.49V260.3H569.18V260.3H570.87V260.3H572.57V260.3H574.26V260.3H575.96V260.3H577.65V260.3H579.34V260.3H581.04V260.3H582.73V260.3H584.43V260.3H586.12V260.3H587.81V260.3H589.51V260.3H591.2V260.3H592.9V260.3H594.59V260.3H596.28V260.3H597.98V260.3H599.67V260.3H601.37V260.3H603.06V260.3H604.75V260.3H606.45V260.3H608.14V260.3H609.84V260.3H611.53V260.3H613.22V260.3H614.92V260.3H616.61V260.3H618.31V260.3H620V260.3" style="vector-effect: none; fill: none; stroke: rgb(31, 119, 180); stroke-opacity: 1; stroke-width: 2px; opacity: 1;"/></g><g class="points"/><g class="text"/></g><g class="trace scatter tracec802df75-b91c-4642-ab26-76a9d27923e4" style="stroke-miterlimit: 2; opacity: 1;"><g class="fills"/><g class="errorbars"/><g class="lines"><path class="js-line" d="M0,260.3H1.69V260.3H3.39V260.3H5.08V260.3H6.78V260.3H8.47V260.3H10.16V260.3H11.86V260.3H13.55V260.3H15.25V260.3H16.94V260.3H18.63V260.3H20.33V260.3H22.02V260.3H23.72V260.3H25.41V260.3H27.1V260.3H28.8V260.3H30.49V260.3H32.19V260.3H33.88V260.3H35.57V260.3H37.27V260.3H38.96V260.3H40.66V260.3H42.35V260.3H44.04V260.3H45.74V260.3H47.43V260.3H49.13V260.3H50.82V260.3H52.51V260.3H54.21V260.3H55.9V260.3H57.6V260.3H59.29V260.3H60.98V260.3H62.68V260.3H64.37V260.3H66.07V260.3H67.76V260.3H69.45V260.3H71.15V260.3H72.84V260.3H74.54V260.3H76.23V260.3H77.92V260.3H79.62V260.3H81.31V260.3H83.01V260.3H84.7V260.3H86.39V260.3H88.09V260.3H89.78V260.3H91.48V260.3H93.17V260.3H94.86V260.3H96.56V260.3H98.25V260.3H99.95V260.3H101.64V260.3H103.33V260.3H105.03V210.98H106.72V210.98H108.42V210.98H110.11V210.98H111.8V210.98H113.5V210.98H115.19V210.98H116.89V210.98H118.58V210.98H120.27V210.98H121.97V210.98H123.66V210.98H125.36V210.98H127.05V210.98H128.74V210.98H130.44V210.98H132.13V210.98H133.83V210.98H135.52V210.98H137.21V210.98H138.91V210.98H140.6V210.98H142.3V210.98H143.99V210.98H145.68V210.98H147.38V210.98H149.07V210.98H150.77V210.98H152.46V210.98H154.15V210.98H155.85V210.98H157.54V210.98H159.23V210.98H160.93V210.98H162.62V210.98H164.32V210.98H166.01V210.98H167.7V210.98H169.4V210.98H171.09V210.98H172.79V210.98H174.48V210.98H176.17V210.98H177.87V210.98H179.56V210.98H181.26V210.98H182.95V210.98H184.64V210.98H186.34V210.98H188.03V210.98H189.73V210.98H191.42V210.98H193.11V210.98H194.81V210.98H196.5V210.98H198.2V210.98H199.89V210.98H201.58V210.98H203.28V210.98H204.97V210.98H206.67V210.98H208.36V210.98H210.05V210.98H211.75V210.98H213.44V210.98H215.14V210.98H216.83V210.98H218.52V210.98H220.22V210.98H221.91V210.98H223.61V210.98H225.3V210.98H226.99V210.98H228.69V210.98H230.38V210.98H232.08V210.98H233.77V210.98H235.46V210.98H237.16V210.98H238.85V210.98H240.55V210.98H242.24V210.98H243.93V210.98H245.63V210.98H247.32V210.98H249.02V210.98H250.71V210.98H252.4V210.98H254.1V210.98H255.79V210.98H257.49V210.98H259.18V210.98H260.87V210.98H262.57V210.98H264.26V210.98H265.96V210.98H267.65V210.98H269.34V210.98H271.04V210.98H272.73V210.98H274.43V210.98H276.12V210.98H277.81V210.98H279.51V210.98H281.2V210.98H282.9V210.98H284.59V210.98H286.28V210.98H287.98V210.98H289.67V210.98H291.37V210.98H293.06V210.98H294.75V210.98H296.45V210.98H298.14V210.98H299.84V210.98H301.53V210.98H303.22V210.98H304.92V210.98H306.61V210.98H308.31V210.98H310V210.98H311.69V210.98H313.39V210.98H315.08V210.98H316.78V210.98H318.47V210.98H320.16V210.98H321.86V210.98H323.55V210.98H325.25V210.98H326.94V210.98H328.63V210.98H330.33V210.98H332.02V210.98H333.72V210.98H335.41V210.98H337.1V210.98H338.8V210.98H340.49V210.98H342.19V210.98H343.88V210.98H345.57V210.98H347.27V210.98H348.96V210.98H350.66V210.98H352.35V210.98H354.04V210.98H355.74V210.98H357.43V210.98H359.13V210.98H360.82V210.98H362.51V210.98H364.21V210.98H365.9V210.98H367.6V210.98H369.29V210.98H370.98V210.98H372.68V210.98H374.37V210.98H376.07V210.98H377.76V210.98H379.45V210.98H381.15V210.98H382.84V210.98H384.54V210.98H386.23V210.98H387.92V210.98H389.62V210.98H391.31V210.98H393.01V210.98H394.7V210.98H396.39V210.98H398.09V210.98H399.78V210.98H401.48V210.98H403.17V210.98H404.86V210.98H406.56V210.98H408.25V210.98H409.95V210.98H411.64V210.98H413.33V210.98H415.03V210.98H416.72V210.98H418.42V210.98H420.11V210.98H421.8V210.98H423.5V210.98H425.19V210.98H426.89V210.98H428.58V210.98H430.27V210.98H431.97V210.98H433.66V210.98H435.36V210.98H437.05V210.98H438.74V210.98H440.44V210.98H442.13V210.98H443.83V210.98H445.52V210.98H447.21V210.98H448.91V210.98H450.6V210.98H452.3V210.98H453.99V210.98H455.68V210.98H457.38V210.98H459.07V210.98H460.77V210.98H462.46V210.98H464.15V210.98H465.85V210.98H467.54V210.98H469.23V210.98H470.93V210.98H472.62V210.98H474.32V210.98H476.01V210.98H477.7V210.98H479.4V210.98H481.09V210.98H482.79V210.98H484.48V210.98H486.17V210.98H487.87V210.98H489.56V210.98H491.26V210.98H492.95V210.98H494.64V210.98H496.34V210.98H498.03V210.98H499.73V210.98H501.42V210.98H503.11V210.98H504.81V210.98H506.5V210.98H508.2V210.98H509.89V210.98H511.58V210.98H513.28V210.98H514.97V210.98H516.67V210.98H518.36V210.98H520.05V210.98H521.75V210.98H523.44V210.98H525.14V210.98H526.83V210.98H528.52V210.98H530.22V210.98H531.91V210.98H533.61V210.98H535.3V210.98H536.99V210.98H538.69V210.98H540.38V210.98H542.08V210.98H543.77V210.98H545.46V210.98H547.16V210.98H548.85V210.98H550.55V210.98H552.24V210.98H553.93V210.98H555.63V210.98H557.32V210.98H559.02V210.98H560.71V210.98H562.4V210.98H564.1V210.98H565.79V210.98H567.49V210.98H569.18V210.98H570.87V210.98H572.57V210.98H574.26V210.98H575.96V210.98H577.65V210.98H579.34V210.98H581.04V210.98H582.73V210.98H584.43V210.98H586.12V210.98H587.81V210.98H589.51V210.98H591.2V210.98H592.9V210.98H594.59V210.98H596.28V210.98H597.98V210.98H599.67V210.98H601.37V210.98H603.06V210.98H604.75V210.98H606.45V210.98H608.14V210.98H609.84V210.98H611.53V210.98H613.22V210.98H614.92V210.98H616.61V210.98H618.31V210.98H620V210.98" style="vector-effect: none; fill: none; stroke: rgb(255, 127, 14); stroke-opacity: 1; stroke-width: 2px; opacity: 1;"/></g><g class="points"/><g class="text"/></g></g></g><g class="overplot"/><path class="xlines-above crisp" d="M0,0" style="fill: none;"/><path class="ylines-above crisp" d="M0,0" style="fill: none;"/><g class="overlines-above"/><g class="xaxislayer-above"><g class="xtick"><text text-anchor="middle" x="0" y="333" transform="translate(40,0)" style="font-family: 'Open Sans', verdana, arial, sans-serif; font-size: 12px; fill: rgb(42, 63, 95); fill-opacity: 1; white-space: pre; opacity: 1;">Jan 2020</text></g><g class="xtick"><text text-anchor="middle" x="0" y="333" style="font-family: 'Open Sans', verdana, arial, sans-serif; font-size: 12px; fill: rgb(42, 63, 95); fill-opacity: 1; white-space: pre; opacity: 1;" transform="translate(141.64,0)">Mar 2020</text></g><g class="xtick"><text text-anchor="middle" x="0" y="333" style="font-family: 'Open Sans', verdana, arial, sans-serif; font-size: 12px; fill: rgb(42, 63, 95); fill-opacity: 1; white-space: pre; opacity: 1;" transform="translate(244.97,0)">May 2020</text></g><g class="xtick"><text text-anchor="middle" x="0" y="333" style="font-family: 'Open Sans', verdana, arial, sans-serif; font-size: 12px; fill: rgb(42, 63, 95); fill-opacity: 1; white-space: pre; opacity: 1;" transform="translate(348.31,0)">Jul 2020</text></g><g class="xtick"><text text-anchor="middle" x="0" y="333" style="font-family: 'Open Sans', verdana, arial, sans-serif; font-size: 12px; fill: rgb(42, 63, 95); fill-opacity: 1; white-space: pre; opacity: 1;" transform="translate(453.33,0)">Sep 2020</text></g><g class="xtick"><text text-anchor="middle" x="0" y="333" style="font-family: 'Open Sans', verdana, arial, sans-serif; font-size: 12px; fill: rgb(42, 63, 95); fill-opacity: 1; white-space: pre; opacity: 1;" transform="translate(556.67,0)">Nov 2020</text></g><g class="xtick"><text text-anchor="middle" x="0" y="333" style="font-family: 'Open Sans', verdana, arial, sans-serif; font-size: 12px; fill: rgb(42, 63, 95); fill-opacity: 1; white-space: pre; opacity: 1;" transform="translate(660,0)">Jan 2021</text></g></g><g class="yaxislayer-above"><g class="ytick"><text text-anchor="end" x="39" y="4.199999999999999" transform="translate(0,306.3)" style="font-family: 'Open Sans', verdana, arial, sans-serif; font-size: 12px; fill: rgb(42, 63, 95); fill-opacity: 1; white-space: pre; opacity: 1;">0</text></g><g class="ytick"><text text-anchor="end" x="39" y="4.199999999999999" style="font-family: 'Open Sans', verdana, arial, sans-serif; font-size: 12px; fill: rgb(42, 63, 95); fill-opacity: 1; white-space: pre; opacity: 1;" transform="translate(0,256.98)">1</text></g><g class="ytick"><text text-anchor="end" x="39" y="4.199999999999999" style="font-family: 'Open Sans', verdana, arial, sans-serif; font-size: 12px; fill: rgb(42, 63, 95); fill-opacity: 1; white-space: pre; opacity: 1;" transform="translate(0,207.66)">2</text></g><g class="ytick"><text text-anchor="end" x="39" y="4.199999999999999" style="font-family: 'Open Sans', verdana, arial, sans-serif; font-size: 12px; fill: rgb(42, 63, 95); fill-opacity: 1; white-space: pre; opacity: 1;" transform="translate(0,158.34)">3</text></g><g class="ytick"><text text-anchor="end" x="39" y="4.199999999999999" style="font-family: 'Open Sans', verdana, arial, sans-serif; font-size: 12px; fill: rgb(42, 63, 95); fill-opacity: 1; white-space: pre; opacity: 1;" transform="translate(0,109.02000000000001)">4</text></g><g class="ytick"><text text-anchor="end" x="39" y="4.199999999999999" style="font-family: 'Open Sans', verdana, arial, sans-serif; font-size: 12px; fill: rgb(42, 63, 95); fill-opacity: 1; white-space: pre; opacity: 1;" transform="translate(0,59.7)">5</text></g></g><g class="overaxes-above"/></g></g><g class="polarlayer"/><g class="smithlayer"/><g class="ternarylayer"/><g class="geolayer"/><g class="funnelarealayer"/><g class="pielayer"/><g class="iciclelayer"/><g class="treemaplayer"/><g class="sunburstlayer"/><g class="glimages"/><defs id="topdefs-73ce12"><g class="clips"/><clipPath id="legend73ce12"><rect width="141" height="29" x="0" y="0"/></clipPath></defs><g class="layer-above"><g class="imagelayer"/><g class="shapelayer"/></g><g class="infolayer"><g class="legend" pointer-events="all" transform="translate(519,11.519999999999996)"><rect class="bg" shape-rendering="crispEdges" width="141" height="29" x="0" y="0" style="stroke: rgb(68, 68, 68); stroke-opacity: 1; fill: rgb(255, 255, 255); fill-opacity: 1; stroke-width: 0px;"/><g class="scrollbox" transform="" clip-path="url(#legend73ce12)"><g class="groups"><g class="traces" transform="translate(0,14.5)" style="opacity: 1;"><text class="legendtext" text-anchor="start" x="40" y="4.680000000000001" style="font-family: 'Open Sans', verdana, arial, sans-serif; font-size: 12px; fill: rgb(42, 63, 95); fill-opacity: 1; white-space: pre;">train</text><g class="layers" style="opacity: 1;"><g class="legendfill"/><g class="legendlines"><path class="js-line" d="M5,0h30" style="fill: none; stroke: rgb(31, 119, 180); stroke-opacity: 1; stroke-width: 2px;"/></g><g class="legendsymbols"><g class="legendpoints"/></g></g><rect class="legendtoggle" x="0" y="-9.5" width="70.453125" height="19" style="fill: rgb(0, 0, 0); fill-opacity: 0;"/></g><g class="traces" transform="translate(72.953125,14.5)" style="opacity: 1;"><text class="legendtext" text-anchor="start" x="40" y="4.680000000000001" style="font-family: 'Open Sans', verdana, arial, sans-serif; font-size: 12px; fill: rgb(42, 63, 95); fill-opacity: 1; white-space: pre;">test</text><g class="layers" style="opacity: 1;"><g class="legendfill"/><g class="legendlines"><path class="js-line" d="M5,0h30" style="fill: none; stroke: rgb(255, 127, 14); stroke-opacity: 1; stroke-width: 2px;"/></g><g class="legendsymbols"><g class="legendpoints"/></g></g><rect class="legendtoggle" x="0" y="-9.5" width="65.359375" height="19" style="fill: rgb(0, 0, 0); fill-opacity: 0;"/></g></g></g><rect class="scrollbar" rx="20" ry="3" width="0" height="0" x="0" y="0" style="fill: rgb(128, 139, 164); fill-opacity: 1;"/></g><g class="g-gtitle"/><g class="g-xtitle"/><g class="g-ytitle"/></g></svg>