<svg class="main-svg" xmlns="http://www.w3.org/2000/svg" xmlns:xlink="http://www.w3.org/1999/xlink" width="700" height="350" style="" viewBox="0 0 700 350"><rect x="0" y="0" width="700" height="350" style="fill: rgb(33, 34, 38); fill-opacity: 1;"/><defs id="defs-ea97ea"><g class="clips"><clipPath id="clipea97eaxyplot" class="plotclip"><rect width="629" height="274"/></clipPath><clipPath class="axesclip" id="clipea97eax"><rect x="41" y="0" width="629" height="350"/></clipPath><clipPath class="axesclip" id="clipea97eay"><rect x="0" y="46" width="700" height="274"/></clipPath><clipPath class="axesclip" id="clipea97eaxy"><rect x="41" y="46" width="629" height="274"/></clipPath></g><g class="gradients"/><g class="patterns"/></defs><g class="bglayer"/><g class="layer-below"><g class="imagelayer"/><g class="shapelayer"/></g><g class="cartesianlayer"><g class="subplot xy"><g class="layer-subplot"><g class="shapelayer"><g class="shape-group" data-index="0" clip-path="url(#clipea97eaxy)"><path data-index="0" fill-rule="evenodd" d="M41,257.73H670V108.27000000000001H41Z" style="opacity: 0.2; stroke: rgb(0, 0, 0); stroke-opacity: 0; fill: rgb(123, 104, 238); fill-opacity: 1; stroke-width: 0px;"/></g></g><g class="imagelayer"/></g><g class="minor-gridlayer"><g class="x"/><g class="y"/></g><g class="gridlayer"><g class="x"><path class="xgrid crisp" transform="translate(147.55,0)" d="M0,46v274" style="stroke: rgb(49, 52, 57); stroke-opacity: 1; stroke-width: 1px;"/><path class="xgrid crisp" transform="translate(250.67,0)" d="M0,46v274" style="stroke: rgb(49, 52, 57); stroke-opacity: 1; stroke-width: 1px;"/><path class="xgrid crisp" transform="translate(357.22,0)" d="M0,46v274" style="stroke: rgb(49, 52, 57); stroke-opacity: 1; stroke-width: 1px;"/><path class="xgrid crisp" transform="translate(460.33,0)" d="M0,46v274" style="stroke: rgb(49, 52, 57); stroke-opacity: 1; stroke-width: 1px;"/><path class="xgrid crisp" transform="translate(566.89,0)" d="M0,46v274" style="stroke: rgb(49, 52, 57); stroke-opacity: 1; stroke-width: 1px;"/></g><g class="y"><path class="ygrid crisp" transform="translate(0,257.73)" d="M41,0h629" style="stroke: rgb(49, 52, 57); stroke-opacity: 1; stroke-width: 1px;"/><path class="ygrid crisp" transform="translate(0,207.91)" d="M41,0h629" style="stroke: rgb(49, 52, 57); stroke-opacity: 1; stroke-width: 1px;"/><path class="ygrid crisp" transform="translate(0,158.09)" d="M41,0h629" style="stroke: rgb(49, 52, 57); stroke-opacity: 1; stroke-width: 1px;"/><path class="ygrid crisp" transform="translate(0,108.27000000000001)" d="M41,0h629" style="stroke: rgb(49, 52, 57); stroke-opacity: 1; stroke-width: 1px;"/><path class="ygrid crisp" transform="translate(0,58.45)" d="M41,0h629" style="stroke: rgb(49, 52, 57); stroke-opacity: 1; stroke-width: 1px;"/></g></g><g class="zerolinelayer"><path class="yzl zl crisp" transform="translate(0,307.55)" d="M41,0h629" style="stroke: rgb(49, 52, 57); stroke-opacity: 1; stroke-width: 2px;"/></g><path class="xlines-below"/><path class="ylines-below"/><g class="overlines-below"/><g class="xaxislayer-below"/><g class="yaxislayer-below"/><g class="overaxes-below"/><g class="plot" transform="translate(41,46)" clip-path="url(#clipea97eaxyplot)"><g class="scatterlayer mlayer"><g class="trace scatter trace5222136a-f590-46cb-91bd-5a725d96788e" style="stroke-miterlimit: 2; opacity: 1;"><g class="fills"/><g class="errorbars"/><g class="lines"><path class="js-line" d="M44.68,74.23L48.12,38.32L51.56,33L54.99,50.05L58.43,45.88L61.87,25.02L65.31,14.64L68.74,84.94L72.18,90.65L75.62,78.01L79.05,92.56L82.49,155.53L85.93,148.58L89.37,25.53L92.8,50.84L96.24,33.45L99.68,143.01L103.11,143.88L106.55,107.64L109.99,19.14L113.43,73.05L116.86,82.16L120.3,61.5L123.74,57.3L127.17,32.07L130.61,17.72L134.05,33.61L137.49,29.89L140.92,76.57L144.36,72.94L147.8,73.45L151.23,60.2L154.67,82.19L158.11,91.71L161.55,84.74L164.98,73.6L168.42,75.47L171.86,57.25L175.3,69.74L178.73,24.9L182.17,35.03L185.61,76.77L189.04,169.1L192.48,158.65L195.92,163.11L199.36,156.31L202.79,179.98L206.23,168.62L209.67,140.76L213.1,85.77L216.54,47.76L219.98,32.02L223.42,44.47L226.85,61.63L230.29,61.2L233.73,14.76L237.16,14.56L240.6,23.86L244.04,27.55L247.48,70.33L250.91,32.97L254.35,35.84L257.79,17.96L261.22,50.81L264.66,103.41L268.1,110.48L271.54,23.95L274.97,45.53L278.41,47.71L281.85,80.71L285.28,63.09L288.72,55.16L292.16,56.86L295.6,14.45L299.03,25.97L302.47,37.4L305.91,45.46L309.34,99.54L312.78,73.96L316.22,76.05L319.66,57.26L326.53,232.07L329.97,212.4L333.4,217.12L336.84,178.83L340.28,194.32L343.72,240.22L347.15,186.35L350.59,198.88L357.46,128.19L360.9,35.56L364.34,16.45L367.78,60.46L371.21,25.37L374.65,57.64L378.09,31.75L381.52,20.78L384.96,12.45L388.4,44.21L391.84,39.05L395.27,29.31L398.71,12.45L402.15,46.5L405.58,128.44L409.02,79.28L412.46,104.31L415.9,166.82L419.33,179.5L422.77,170.3L426.21,112.62L429.64,162.97L433.08,185.41L436.52,171.29L439.96,156.41L443.39,105.16L446.83,87.49L450.27,92.94L453.7,142.51L457.14,108.92L460.58,140.04L464.02,223.49L467.45,176.56L470.89,259.55L474.33,228.22L477.77,167.13L481.2,175.66L484.64,160.81L488.08,171.37L491.51,187.44L494.95,215.22L498.39,207.34L501.83,193.54L505.26,195.79L508.7,227.3L512.14,210.17L515.57,214.51L519.01,202.85L522.45,145.99L525.89,102.45L529.32,86.01L532.76,30.84L536.2,17.99L539.63,20.88L543.07,78.05L546.51,39.81L549.95,37.8L553.38,46.33L556.82,88.28L560.26,78.34L563.69,90.72L567.13,140.74L570.57,247.81L574.01,200.56L577.44,194.54L580.88,208.21L584.32,197.27L587.75,142.61L591.19,146.8L594.63,211.52L598.07,212.08L601.5,180.09L604.94,196.39L608.38,199.28L611.81,162.25L615.25,161.62L618.69,246.05L622.13,247.08L625.56,232.72L629,227.41" style="vector-effect: none; fill: none; stroke: rgb(108, 166, 205); stroke-opacity: 1; stroke-width: 2px; opacity: 1;"/></g><g class="points"/><g class="text"/></g><g class="trace scatter trace691620cc-fcb6-4f1e-93c6-b30aab49004f" style="stroke-miterlimit: 2; opacity: 1;"><g class="fills"/><g class="errorbars"/><g class="lines"><path class="js-line" d="M51.56,48.52L54.99,40.46L58.43,42.97L61.87,40.31L65.31,28.51L68.74,41.53L72.18,63.41L75.62,84.53L79.05,87.07L85.93,132.22L89.37,109.88L96.24,36.61L99.68,75.77L106.55,131.51L109.99,90.22L113.43,66.61L116.86,58.11L120.3,72.23L123.74,66.99L130.61,35.7L134.05,27.8L137.49,27.07L140.92,46.69L147.8,74.32L151.23,68.86L154.67,71.95L158.11,78.04L161.55,86.21L164.98,83.35L168.42,77.93L171.86,68.77L175.3,67.49L178.73,50.63L182.17,43.22L185.61,45.57L192.48,134.84L195.92,163.62L199.36,159.36L202.79,166.47L206.23,168.3L209.67,163.12L213.1,131.71L216.54,91.43L219.98,55.18L223.42,41.42L226.85,46.04L230.29,55.77L233.73,45.87L237.16,30.18L240.6,17.73L244.04,21.99L247.48,40.58L250.91,43.62L254.35,46.38L257.79,28.92L261.22,34.87L264.66,57.4L268.1,88.24L271.54,79.28L278.41,39.06L281.85,57.98L285.28,63.84L288.72,66.32L292.16,58.37L295.6,42.15L299.03,32.42L302.47,25.94L305.91,36.28L309.34,60.8L316.22,83.18L319.66,69.09L323.09,93.58L326.53,145.59L329.97,197.3L333.4,220.53L336.84,202.78L340.28,196.76L343.72,204.46L347.15,206.97L350.59,208.49L354.03,182.16L357.46,162.77L360.9,108.33L364.34,60.07L367.78,37.49L371.21,34.09L374.65,47.82L378.09,38.25L381.52,36.72L384.96,21.66L388.4,25.82L395.27,37.52L398.71,26.94L402.15,29.42L405.58,62.46L412.46,104.01L415.9,116.8L419.33,150.21L422.77,172.21L426.21,154.14L429.64,148.63L433.08,153.66L436.52,173.22L439.96,171.04L443.39,144.29L446.83,116.36L450.27,95.2L453.7,107.65L457.14,114.79L460.58,130.49L464.02,157.48L467.45,180.03L470.89,219.86L474.33,221.44L477.77,218.3L484.64,167.87L488.08,169.28L491.51,173.21L494.95,191.34L498.39,203.34L501.83,205.37L505.26,198.89L508.7,205.54L515.57,217.33L519.01,209.18L522.45,187.79L525.89,150.43L532.76,73.1L536.2,44.95L539.63,23.24L543.07,38.97L549.95,51.89L553.38,41.31L560.26,70.98L563.69,85.78L567.13,103.26L570.57,159.75L574.01,196.37L577.44,214.3L580.88,201.1L584.32,200.01L591.19,162.23L594.63,166.98L598.07,190.14L601.5,201.23L611.81,185.97L615.25,174.38L618.69,189.97L622.13,218.25L625.56,241.95L629,235.74" style="vector-effect: none; fill: none; stroke: rgb(108, 118, 205); stroke-opacity: 1; stroke-width: 2px; opacity: 1;"/></g><g class="points"/><g class="text"/></g><g class="trace scatter trace85ffde26-5687-43ae-b29a-23cfeca8cca8" style="stroke-miterlimit: 2; opacity: 1;"><g class="fills"/><g class="errorbars"/><g class="lines"><path class="js-line" d="M58.43,43.98L61.87,41.25L65.31,37.27L68.74,36.79L72.18,44.48L79.05,78.34L82.49,93.44L85.93,109.33L89.37,116.93L92.8,105.7L96.24,73.82L99.68,62.45L103.11,73.05L106.55,104.69L109.99,109.5L113.43,96.11L116.86,71.65L120.3,65.65L123.74,65.78L127.17,63.17L130.61,50.99L134.05,37.93L137.49,30.19L140.92,33.85L144.36,44.52L147.8,60.27L151.23,67.66L154.67,71.71L158.11,72.95L161.55,78.73L164.98,82.53L168.42,82.5L171.86,76.69L175.3,71.4L178.73,62.3L185.61,46.47L189.04,60.81L192.48,91.35L195.92,130.7L199.36,152.61L202.79,163.15L209.67,165.96L213.1,154.38L216.54,128.75L219.98,92.77L223.42,62.68L226.85,47.55L230.29,47.74L233.73,49.22L237.16,43.94L240.6,31.26L244.04,23.3L247.48,26.77L254.35,43.53L257.79,39.64L261.22,36.73L264.66,40.4L268.1,60.17L271.54,74.97L274.97,75.84L278.41,59.44L281.85,52.34L285.28,53.63L288.72,62.71L292.16,62.84L295.6,55.61L299.03,44.31L302.47,33.51L305.91,31.55L309.34,41.01L312.78,56.69L316.22,72.33L319.66,75.09L323.09,81.95L326.53,102.75L333.4,187.8L336.84,206.87L340.28,206.69L343.72,201.33L347.15,202.73L350.59,206.64L354.03,199.2L357.46,184.47L360.9,151.09L364.34,110.39L367.78,68.63L371.21,43.88L374.65,39.8L378.09,40.06L381.52,40.93L384.96,32.21L388.4,28.07L391.84,26.46L395.27,31.75L398.71,32.12L402.15,31.29L405.58,39.61L409.02,58.87L412.46,83.74L419.33,123.67L422.77,146.41L426.21,158.85L429.64,158.32L433.08,152.14L436.52,158.5L439.96,165.97L443.39,162.85L446.83,143.89L450.27,118.61L453.7,106.4L457.14,105.88L460.58,117.64L464.02,134.26L467.45,156L470.89,185.79L474.33,207.11L477.77,219.87L481.2,210.03L484.64,192.17L488.08,175.83L491.51,170.12L494.95,177.94L498.39,189.3L501.83,200.02L505.26,202.53L508.7,203.27L512.14,205.17L515.57,211.32L519.01,212.53L522.45,204.76L525.89,182.47L532.76,111.67L536.2,76.51L539.63,47.09L543.07,35.72L546.51,36.15L549.95,45.7L553.38,46.48L556.82,50.22L560.26,56.59L563.69,71.41L567.13,86.68L570.57,116.27L577.44,190.14L580.88,203.92L584.32,205.14L587.75,194.6L594.63,170.63L598.07,173.11L601.5,186.11L604.94,195.85L608.38,196.45L611.81,191.36L615.25,184.09L618.69,183.44L622.13,194.2L625.56,216.72L629,231.98" style="vector-effect: none; fill: none; stroke: rgb(205, 108, 166); stroke-opacity: 1; stroke-width: 2px; opacity: 1;"/></g><g class="points"/><g class="text"/></g></g></g><g class="overplot"/><path class="xlines-above crisp" d="M0,0" style="fill: none;"/><path class="ylines-above crisp" d="M0,0" style="fill: none;"/><g class="overlines-above"/><g class="xaxislayer-above"><g class="xtick"><text text-anchor="middle" x="0" y="333" transform="translate(41,0)" style="font-family: 'Open Sans', verdana, arial, sans-serif; font-size: 12px; fill: rgb(214, 223, 239); fill-opacity: 1; white-space: pre; opacity: 1;">Mar 2019</text></g><g class="xtick"><text text-anchor="middle" x="0" y="333" style="font-family: 'Open Sans', verdana, arial, sans-serif; font-size: 12px; fill: rgb(214, 223, 239); fill-opacity: 1; white-space: pre; opacity: 1;" transform="translate(147.55,0)">Apr 2019</text></g><g class="xtick"><text text-anchor="middle" x="0" y="333" style="font-family: 'Open Sans', verdana, arial, sans-serif; font-size: 12px; fill: rgb(214, 223, 239); fill-opacity: 1; white-space: pre; opacity: 1;" transform="translate(250.67,0)">May 2019</text></g><g class="xtick"><text text-anchor="middle" x="0" y="333" style="font-family: 'Open Sans', verdana, arial, sans-serif; font-size: 12px; fill: rgb(214, 223, 239); fill-opacity: 1; white-space: pre; opacity: 1;" transform="translate(357.22,0)">Jun 2019</text></g><g class="xtick"><text text-anchor="middle" x="0" y="333" style="font-family: 'Open Sans', verdana, arial, sans-serif; font-size: 12px; fill: rgb(214, 223, 239); fill-opacity: 1; white-space: pre; opacity: 1;" transform="translate(460.33,0)">Jul 2019</text></g><g class="xtick"><text text-anchor="middle" x="0" y="333" style="font-family: 'Open Sans', verdana, arial, sans-serif; font-size: 12px; fill: rgb(214, 223, 239); fill-opacity: 1; white-space: pre; opacity: 1;" transform="translate(566.89,0)">Aug 2019</text></g></g><g class="yaxislayer-above"><g class="ytick"><text text-anchor="end" x="40" y="4.199999999999999" transform="translate(0,307.55)" style="font-family: 'Open Sans', verdana, arial, sans-serif; font-size: 12px; fill: rgb(214, 223, 239); fill-opacity: 1; white-space: pre; opacity: 1;">0</text></g><g class="ytick"><text text-anchor="end" x="40" y="4.199999999999999" style="font-family: 'Open Sans', verdana, arial, sans-serif; font-size: 12px; fill: rgb(214, 223, 239); fill-opacity: 1; white-space: pre; opacity: 1;" transform="translate(0,257.73)">20</text></g><g class="ytick"><text text-anchor="end" x="40" y="4.199999999999999" style="font-family: 'Open Sans', verdana, arial, sans-serif; font-size: 12px; fill: rgb(214, 223, 239); fill-opacity: 1; white-space: pre; opacity: 1;" transform="translate(0,207.91)">40</text></g><g class="ytick"><text text-anchor="end" x="40" y="4.199999999999999" style="font-family: 'Open Sans', verdana, arial, sans-serif; font-size: 12px; fill: rgb(214, 223, 239); fill-opacity: 1; white-space: pre; opacity: 1;" transform="translate(0,158.09)">60</text></g><g class="ytick"><text text-anchor="end" x="40" y="4.199999999999999" style="font-family: 'Open Sans', verdana, arial, sans-serif; font-size: 12px; fill: rgb(214, 223, 239); fill-opacity: 1; white-space: pre; opacity: 1;" transform="translate(0,108.27000000000001)">80</text></g><g class="ytick"><text text-anchor="end" x="40" y="4.199999999999999" style="font-family: 'Open Sans', verdana, arial, sans-serif; font-size: 12px; fill: rgb(214, 223, 239); fill-opacity: 1; white-space: pre; opacity: 1;" transform="translate(0,58.45)">100</text></g></g><g class="overaxes-above"/></g></g><g class="polarlayer"/><g class="smithlayer"/><g class="ternarylayer"/><g class="geolayer"/><g class="funnelarealayer"/><g class="pielayer"/><g class="iciclelayer"/><g class="treemaplayer"/><g class="sunburstlayer"/><g class="glimages"/><defs id="topdefs-ea97ea"><g class="clips"/><clipPath id="legendea97ea"><rect width="295" height="29" x="0" y="0"/></clipPath></defs><g class="layer-above"><g class="imagelayer"/><g class="shapelayer"/></g><g class="infolayer"><g class="legend" pointer-events="all" transform="translate(375,11.519999999999996)"><rect class="bg" shape-rendering="crispEdges" style="stroke: rgb(68, 68, 68); stroke-opacity: 1; fill: rgb(33, 34, 38); fill-opacity: 1; stroke-width: 0px;" width="295" height="29" x="0" y="0"/><g class="scrollbox" transform="" clip-path="url(#legendea97ea)"><g class="groups"><g class="traces" transform="translate(0,14.5)" style="opacity: 1;"><text class="legendtext" text-anchor="start" x="40" y="4.680000000000001" style="font-family: 'Open Sans', verdana, arial, sans-serif; font-size: 12px; fill: rgb(214, 223, 239); fill-opacity: 1; white-space: pre;">Fast %K</text><g class="layers" style="opacity: 1;"><g class="legendfill"/><g class="legendlines"><path class="js-line" d="M5,0h30" style="fill: none; stroke: rgb(108, 166, 205); stroke-opacity: 1; stroke-width: 2px;"/></g><g class="legendsymbols"><g class="legendpoints"/></g></g><rect class="legendtoggle" x="0" y="-9.5" width="93.03125" height="19" style="fill: rgb(0, 0, 0); fill-opacity: 0;"/></g><g class="traces" transform="translate(95.53125,14.5)" style="opacity: 1;"><text class="legendtext" text-anchor="start" x="40" y="4.680000000000001" style="font-family: 'Open Sans', verdana, arial, sans-serif; font-size: 12px; fill: rgb(214, 223, 239); fill-opacity: 1; white-space: pre;">Slow %K</text><g class="layers" style="opacity: 1;"><g class="legendfill"/><g class="legendlines"><path class="js-line" d="M5,0h30" style="fill: none; stroke: rgb(108, 118, 205); stroke-opacity: 1; stroke-width: 2px;"/></g><g class="legendsymbols"><g class="legendpoints"/></g></g><rect class="legendtoggle" x="0" y="-9.5" width="96.546875" height="19" style="fill: rgb(0, 0, 0); fill-opacity: 0;"/></g><g class="traces" transform="translate(194.578125,14.5)" style="opacity: 1;"><text class="legendtext" text-anchor="start" x="40" y="4.680000000000001" style="font-family: 'Open Sans', verdana, arial, sans-serif; font-size: 12px; fill: rgb(214, 223, 239); fill-opacity: 1; white-space: pre;">Slow %D</text><g class="layers" style="opacity: 1;"><g class="legendfill"/><g class="legendlines"><path class="js-line" d="M5,0h30" style="fill: none; stroke: rgb(205, 108, 166); stroke-opacity: 1; stroke-width: 2px;"/></g><g class="legendsymbols"><g class="legendpoints"/></g></g><rect class="legendtoggle" x="0" y="-9.5" width="97.484375" height="19" style="fill: rgb(0, 0, 0); fill-opacity: 0;"/></g></g></g><rect class="scrollbar" rx="20" ry="3" width="0" height="0" style="fill: rgb(128, 139, 164); fill-opacity: 1;" x="0" y="0"/></g><g class="g-gtitle"/><g class="g-xtitle"/><g class="g-ytitle"/></g></svg>