<svg class="main-svg" xmlns="http://www.w3.org/2000/svg" xmlns:xlink="http://www.w3.org/1999/xlink" width="700" height="350" style="" viewBox="0 0 700 350"><rect x="0" y="0" width="700" height="350" style="fill: rgb(33, 34, 38); fill-opacity: 1;"/><defs id="defs-8ae4da"><g class="clips"><clipPath id="clip8ae4daxyplot" class="plotclip"><rect width="629" height="274"/></clipPath><clipPath class="axesclip" id="clip8ae4dax"><rect x="41" y="0" width="629" height="350"/></clipPath><clipPath class="axesclip" id="clip8ae4day"><rect x="0" y="46" width="700" height="274"/></clipPath><clipPath class="axesclip" id="clip8ae4daxy"><rect x="41" y="46" width="629" height="274"/></clipPath></g><g class="gradients"/><g class="patterns"/></defs><g class="bglayer"/><g class="layer-below"><g class="imagelayer"/><g class="shapelayer"/></g><g class="cartesianlayer"><g class="subplot xy"><g class="layer-subplot"><g class="shapelayer"/><g class="imagelayer"/></g><g class="minor-gridlayer"><g class="x"/><g class="y"/></g><g class="gridlayer"><g class="x"><path class="xgrid crisp" transform="translate(147.55,0)" d="M0,46v274" style="stroke: rgb(49, 52, 57); stroke-opacity: 1; stroke-width: 1px;"/><path class="xgrid crisp" transform="translate(250.67,0)" d="M0,46v274" style="stroke: rgb(49, 52, 57); stroke-opacity: 1; stroke-width: 1px;"/><path class="xgrid crisp" transform="translate(357.22,0)" d="M0,46v274" style="stroke: rgb(49, 52, 57); stroke-opacity: 1; stroke-width: 1px;"/><path class="xgrid crisp" transform="translate(460.33,0)" d="M0,46v274" style="stroke: rgb(49, 52, 57); stroke-opacity: 1; stroke-width: 1px;"/><path class="xgrid crisp" transform="translate(566.89,0)" d="M0,46v274" style="stroke: rgb(49, 52, 57); stroke-opacity: 1; stroke-width: 1px;"/></g><g class="y"><path class="ygrid crisp" transform="translate(0,299.31)" d="M41,0h629" style="stroke: rgb(49, 52, 57); stroke-opacity: 1; stroke-width: 1px;"/><path class="ygrid crisp" transform="translate(0,249.91)" d="M41,0h629" style="stroke: rgb(49, 52, 57); stroke-opacity: 1; stroke-width: 1px;"/><path class="ygrid crisp" transform="translate(0,200.51)" d="M41,0h629" style="stroke: rgb(49, 52, 57); stroke-opacity: 1; stroke-width: 1px;"/><path class="ygrid crisp" transform="translate(0,151.12)" d="M41,0h629" style="stroke: rgb(49, 52, 57); stroke-opacity: 1; stroke-width: 1px;"/><path class="ygrid crisp" transform="translate(0,101.72)" d="M41,0h629" style="stroke: rgb(49, 52, 57); stroke-opacity: 1; stroke-width: 1px;"/><path class="ygrid crisp" transform="translate(0,52.32)" d="M41,0h629" style="stroke: rgb(49, 52, 57); stroke-opacity: 1; stroke-width: 1px;"/></g></g><g class="zerolinelayer"/><path class="xlines-below"/><path class="ylines-below"/><g class="overlines-below"/><g class="xaxislayer-below"/><g class="yaxislayer-below"/><g class="overaxes-below"/><g class="plot" transform="translate(41,46)" clip-path="url(#clip8ae4daxyplot)"><g class="scatterlayer mlayer"><g class="trace scatter tracef8f68527-d453-4e47-b01d-15b6bf5afc9a" style="stroke-miterlimit: 2; opacity: 1;"><g class="fills"/><g class="errorbars"/><g class="lines"><path class="js-line" d="M0,256.78L6.87,257.08L10.31,259.2L13.75,255.87L17.19,255.68L24.06,255.75L27.5,254.21L30.93,254.5L34.37,255.65L44.68,255.18L48.12,254.27L51.56,252.1L54.99,252.68L58.43,252.51L61.87,251.55L65.31,251.15L68.74,252.58L79.05,252.76L82.49,254.22L85.93,253.68L89.37,251.16L92.8,251.6L96.24,250.88L103.11,250.7L106.55,249.4L109.99,231.58L113.43,229.28L116.86,230.52L120.3,227.7L123.74,227.13L127.17,223.7L130.61,221.45L134.05,223.55L137.49,220.59L140.92,227.02L147.8,226.22L151.23,224.47L154.67,226.95L158.11,222.79L168.42,221.11L171.86,220.26L175.3,220.84L178.73,218.75L182.17,214.47L185.61,217.13L189.04,223.41L192.48,221.71L202.79,222.5L206.23,219.95L209.67,218.66L213.1,216.13L216.54,209.63L219.98,208.08L226.85,210.16L230.29,208.12L237.16,199.6L240.6,194.55L244.04,174.16L247.48,179.9L250.91,159.09L254.35,154.65L257.79,149.45L261.22,157.36L264.66,170.72L268.1,172.51L271.54,149.63L274.97,155.05L278.41,155.42L281.85,162.42L285.28,157.43L288.72,154.83L292.16,153.22L295.6,137.89L299.03,134.61L302.47,136.73L305.91,138.23L309.34,146.62L312.78,140.33L316.22,140.58L319.66,136.16L323.09,149.35L326.53,161.73L329.97,158.86L333.4,158.91L336.84,153.43L340.28,155.65L343.72,162.22L347.15,154.51L350.59,156.3L354.03,150.91L357.46,148.81L360.9,137.38L364.34,133.81L367.78,129.95L371.21,121.9L374.65,127.8L378.09,123.06L381.52,116.8L384.96,101.55L388.4,87.79L391.84,83.99L395.27,80.15L398.71,60.89L402.15,30.62L405.58,75.9L409.02,45.66L412.46,56.72L415.9,84.94L419.33,90.72L422.77,85.32L426.21,56.68L429.64,75.1L433.08,80.95L439.96,69.28L443.39,48.66L446.83,41.55L450.27,51.86L453.7,71.56L457.14,60.27L460.58,70.73L464.02,98.79L467.45,83.01L470.89,118.02L474.33,112.68L477.77,88.66L481.2,92.01L484.64,86.17L488.08,90.32L491.51,96.64L494.95,107.57L498.39,109.76L501.83,107.3L505.26,108.32L508.7,118.02L512.14,116.16L515.57,116.99L519.01,114.81L522.45,103L525.89,95.25L529.32,92.32L532.76,84.82L536.2,81.16L539.63,60.52L543.07,68.61L546.51,57.15L549.95,56.55L553.38,59.11L556.82,71.68L560.26,67.49L563.69,70.97L567.13,82.99L570.57,103.84L574.01,97.42L577.44,95.87L580.88,99.39L584.32,96.58L587.75,82.49L591.19,86.27L594.63,101.71L598.07,101.88L601.5,95.04L604.94,101.17L608.38,101.7L611.81,95.96L615.25,100.54L618.69,111.18L622.13,117.22L625.56,115.04L629,114.24" style="vector-effect: none; fill: none; stroke: rgb(31, 119, 180); stroke-opacity: 1; stroke-width: 2px; opacity: 1;"/></g><g class="points"/><g class="text"/></g><g class="trace scatter trace9ec43004-db32-4288-8282-325c8c719487" style="stroke-miterlimit: 2; opacity: 1;"><g class="fills"/><g class="errorbars"/><g class="lines"><path class="js-line" d="M24.06,260.3L37.81,259.52L41.25,259.52L48.12,259.13L51.56,257.8L65.31,256.45L68.74,256.45L106.55,255.77L109.99,253.19L113.43,242.03L116.86,242.03L123.74,241.28L127.17,240L130.61,237.43L134.05,236.76L137.49,235.26L140.92,235.26L158.11,235.26L161.55,234.33L164.98,232.43L168.42,231.97L171.86,230.11L175.3,230.11L178.73,229.41L182.17,226.68L213.1,226.68L216.54,224.43L223.42,222.32L226.85,222.32L230.29,220.59L233.73,220.07L247.48,201.98L250.91,201.98L254.35,191.06L257.79,187.4L288.72,187.4L292.16,184.03L295.6,181.22L299.03,166.95L302.47,165.87L305.91,165.87L316.22,165.87L319.66,165.04L360.9,165.04L364.34,162.1L367.78,155.62L371.21,153.05L374.65,153.05L378.09,151.53L381.52,145.97L384.96,138.35L388.4,125.61L391.84,121.11L395.27,121.11L398.71,111.1L402.15,92.9L405.58,92.9L460.58,92.9" style="vector-effect: none; fill: none; stroke: rgb(44, 160, 44); stroke-opacity: 1; stroke-width: 2px; opacity: 1;"/><path class="js-line" d="M539.63,108.12L543.07,104.31L546.51,104.31L549.95,103.16L553.38,98.17L567.13,98.17" style="vector-effect: none; fill: none; stroke: rgb(44, 160, 44); stroke-opacity: 1; stroke-width: 2px; opacity: 1;"/></g><g class="points"/><g class="text"/></g><g class="trace scatter trace5eecef88-fe79-4f67-8d4d-4196946315d9" style="stroke-miterlimit: 2; opacity: 1;"><g class="fills"/><g class="errorbars"/><g class="lines"><path class="js-line" d="M464.02,13.7L467.45,20.47L470.89,21.74L474.33,40.68L477.77,40.68L491.51,40.68L494.95,46.09L498.39,59.73L501.83,59.73L505.26,66.41L508.7,66.41L512.14,77.56L515.57,77.56L519.01,80.17L522.45,80.17L536.2,80.17" style="vector-effect: none; fill: none; stroke: rgb(220, 57, 18); stroke-opacity: 1; stroke-width: 2px; opacity: 1;"/><path class="js-line" d="M570.57,54.61L574.01,62.08L577.44,62.08L594.63,62.08L598.07,65.06L604.94,65.06L608.38,66.6L615.25,67.26L618.69,71.72L622.13,83.05L625.56,86.4L629,87.71" style="vector-effect: none; fill: none; stroke: rgb(220, 57, 18); stroke-opacity: 1; stroke-width: 2px; opacity: 1;"/></g><g class="points"/><g class="text"/></g></g></g><g class="overplot"/><path class="xlines-above crisp" d="M0,0" style="fill: none;"/><path class="ylines-above crisp" d="M0,0" style="fill: none;"/><g class="overlines-above"/><g class="xaxislayer-above"><g class="xtick"><text text-anchor="middle" x="0" y="333" transform="translate(41,0)" style="font-family: 'Open Sans', verdana, arial, sans-serif; font-size: 12px; fill: rgb(214, 223, 239); fill-opacity: 1; white-space: pre; opacity: 1;">Mar 2019</text></g><g class="xtick"><text text-anchor="middle" x="0" y="333" style="font-family: 'Open Sans', verdana, arial, sans-serif; font-size: 12px; fill: rgb(214, 223, 239); fill-opacity: 1; white-space: pre; opacity: 1;" transform="translate(147.55,0)">Apr 2019</text></g><g class="xtick"><text text-anchor="middle" x="0" y="333" style="font-family: 'Open Sans', verdana, arial, sans-serif; font-size: 12px; fill: rgb(214, 223, 239); fill-opacity: 1; white-space: pre; opacity: 1;" transform="translate(250.67,0)">May 2019</text></g><g class="xtick"><text text-anchor="middle" x="0" y="333" style="font-family: 'Open Sans', verdana, arial, sans-serif; font-size: 12px; fill: rgb(214, 223, 239); fill-opacity: 1; white-space: pre; opacity: 1;" transform="translate(357.22,0)">Jun 2019</text></g><g class="xtick"><text text-anchor="middle" x="0" y="333" style="font-family: 'Open Sans', verdana, arial, sans-serif; font-size: 12px; fill: rgb(214, 223, 239); fill-opacity: 1; white-space: pre; opacity: 1;" transform="translate(460.33,0)">Jul 2019</text></g><g class="xtick"><text text-anchor="middle" x="0" y="333" style="font-family: 'Open Sans', verdana, arial, sans-serif; font-size: 12px; fill: rgb(214, 223, 239); fill-opacity: 1; white-space: pre; opacity: 1;" transform="translate(566.89,0)">Aug 2019</text></g></g><g class="yaxislayer-above"><g class="ytick"><text text-anchor="end" x="40" y="4.199999999999999" transform="translate(0,299.31)" style="font-family: 'Open Sans', verdana, arial, sans-serif; font-size: 12px; fill: rgb(214, 223, 239); fill-opacity: 1; white-space: pre; opacity: 1;">4k</text></g><g class="ytick"><text text-anchor="end" x="40" y="4.199999999999999" style="font-family: 'Open Sans', verdana, arial, sans-serif; font-size: 12px; fill: rgb(214, 223, 239); fill-opacity: 1; white-space: pre; opacity: 1;" transform="translate(0,249.91)">6k</text></g><g class="ytick"><text text-anchor="end" x="40" y="4.199999999999999" style="font-family: 'Open Sans', verdana, arial, sans-serif; font-size: 12px; fill: rgb(214, 223, 239); fill-opacity: 1; white-space: pre; opacity: 1;" transform="translate(0,200.51)">8k</text></g><g class="ytick"><text text-anchor="end" x="40" y="4.199999999999999" style="font-family: 'Open Sans', verdana, arial, sans-serif; font-size: 12px; fill: rgb(214, 223, 239); fill-opacity: 1; white-space: pre; opacity: 1;" transform="translate(0,151.12)">10k</text></g><g class="ytick"><text text-anchor="end" x="40" y="4.199999999999999" style="font-family: 'Open Sans', verdana, arial, sans-serif; font-size: 12px; fill: rgb(214, 223, 239); fill-opacity: 1; white-space: pre; opacity: 1;" transform="translate(0,101.72)">12k</text></g><g class="ytick"><text text-anchor="end" x="40" y="4.199999999999999" style="font-family: 'Open Sans', verdana, arial, sans-serif; font-size: 12px; fill: rgb(214, 223, 239); fill-opacity: 1; white-space: pre; opacity: 1;" transform="translate(0,52.32)">14k</text></g></g><g class="overaxes-above"/></g></g><g class="polarlayer"/><g class="smithlayer"/><g class="ternarylayer"/><g class="geolayer"/><g class="funnelarealayer"/><g class="pielayer"/><g class="iciclelayer"/><g class="treemaplayer"/><g class="sunburstlayer"/><g class="glimages"/><defs id="topdefs-8ae4da"><g class="clips"/><clipPath id="legend8ae4da"><rect width="230" height="29" x="0" y="0"/></clipPath></defs><g class="layer-above"><g class="imagelayer"/><g class="shapelayer"/></g><g class="infolayer"><g class="legend" pointer-events="all" transform="translate(440,11.519999999999996)"><rect class="bg" shape-rendering="crispEdges" style="stroke: rgb(68, 68, 68); stroke-opacity: 1; fill: rgb(33, 34, 38); fill-opacity: 1; stroke-width: 0px;" width="230" height="29" x="0" y="0"/><g class="scrollbox" transform="" clip-path="url(#legend8ae4da)"><g class="groups"><g class="traces" transform="translate(0,14.5)" style="opacity: 1;"><text class="legendtext" text-anchor="start" x="40" y="4.680000000000001" style="font-family: 'Open Sans', verdana, arial, sans-serif; font-size: 12px; fill: rgb(214, 223, 239); fill-opacity: 1; white-space: pre;">Close</text><g class="layers" style="opacity: 1;"><g class="legendfill"/><g class="legendlines"><path class="js-line" d="M5,0h30" style="fill: none; stroke: rgb(31, 119, 180); stroke-opacity: 1; stroke-width: 2px;"/></g><g class="legendsymbols"><g class="legendpoints"/></g></g><rect class="legendtoggle" x="0" y="-9.5" width="74.859375" height="19" style="fill: rgb(0, 0, 0); fill-opacity: 0;"/></g><g class="traces" transform="translate(77.359375,14.5)" style="opacity: 1;"><text class="legendtext" text-anchor="start" x="40" y="4.680000000000001" style="font-family: 'Open Sans', verdana, arial, sans-serif; font-size: 12px; fill: rgb(214, 223, 239); fill-opacity: 1; white-space: pre;">Long</text><g class="layers" style="opacity: 1;"><g class="legendfill"/><g class="legendlines"><path class="js-line" d="M5,0h30" style="fill: none; stroke: rgb(44, 160, 44); stroke-opacity: 1; stroke-width: 2px;"/></g><g class="legendsymbols"><g class="legendpoints"/></g></g><rect class="legendtoggle" x="0" y="-9.5" width="71.546875" height="19" style="fill: rgb(0, 0, 0); fill-opacity: 0;"/></g><g class="traces" transform="translate(151.40625,14.5)" style="opacity: 1;"><text class="legendtext" text-anchor="start" x="40" y="4.680000000000001" style="font-family: 'Open Sans', verdana, arial, sans-serif; font-size: 12px; fill: rgb(214, 223, 239); fill-opacity: 1; white-space: pre;">Short</text><g class="layers" style="opacity: 1;"><g class="legendfill"/><g class="legendlines"><path class="js-line" d="M5,0h30" style="fill: none; stroke: rgb(220, 57, 18); stroke-opacity: 1; stroke-width: 2px;"/></g><g class="legendsymbols"><g class="legendpoints"/></g></g><rect class="legendtoggle" x="0" y="-9.5" width="75.4375" height="19" style="fill: rgb(0, 0, 0); fill-opacity: 0;"/></g></g></g><rect class="scrollbar" rx="20" ry="3" width="0" height="0" style="fill: rgb(128, 139, 164); fill-opacity: 1;" x="0" y="0"/></g><g class="g-gtitle"/><g class="g-xtitle"/><g class="g-ytitle"/></g></svg>