<svg class="main-svg" xmlns="http://www.w3.org/2000/svg" xmlns:xlink="http://www.w3.org/1999/xlink" width="750" height="670" style="" viewBox="0 0 750 670"><rect x="0" y="0" width="750" height="670" style="fill: rgb(33, 34, 38); fill-opacity: 1;"/><defs id="defs-386743"><g class="clips"><clipPath id="clip386743xyplot" class="plotclip"><rect width="659" height="240.24626865671644"/></clipPath><clipPath id="clip386743x2y2plot" class="plotclip"><rect width="659" height="240.24626865671644"/></clipPath><clipPath class="axesclip" id="clip386743x"><rect x="61" y="0" width="659" height="670"/></clipPath><clipPath class="axesclip" id="clip386743y"><rect x="0" y="91" width="750" height="240.24626865671644"/></clipPath><clipPath class="axesclip" id="clip386743xy"><rect x="61" y="91" width="659" height="240.24626865671644"/></clipPath><clipPath class="axesclip" id="clip386743y2"><rect x="0" y="361.75373134328356" width="750" height="240.24626865671644"/></clipPath><clipPath class="axesclip" id="clip386743xy2"><rect x="61" y="361.75373134328356" width="659" height="240.24626865671644"/></clipPath><clipPath class="axesclip" id="clip386743x2"><rect x="61" y="0" width="659" height="670"/></clipPath><clipPath class="axesclip" id="clip386743x2y"><rect x="61" y="91" width="659" height="240.24626865671644"/></clipPath><clipPath class="axesclip" id="clip386743x2y2"><rect x="61" y="361.75373134328356" width="659" height="240.24626865671644"/></clipPath></g><g class="gradients"/><g class="patterns"/></defs><g class="bglayer"/><g class="layer-below"><g class="imagelayer"/><g class="shapelayer"/></g><g class="cartesianlayer"><g class="subplot xy"><g class="layer-subplot"><g class="shapelayer"><g class="shape-group" data-index="0" clip-path="url(#clip386743xy)"><path data-index="0" fill-rule="evenodd" d="M305.95,238.17H503.69V269H305.95Z" style="opacity: 0.15; stroke: rgb(0, 0, 0); stroke-opacity: 0; fill: rgb(55, 177, 63); fill-opacity: 1; stroke-width: 0px;"/></g><g class="shape-group" data-index="1" clip-path="url(#clip386743xy)"><path data-index="1" fill-rule="evenodd" d="M305.95,243.37H553.13V306.03H305.95Z" style="opacity: 0.15; stroke: rgb(0, 0, 0); stroke-opacity: 0; fill: rgb(55, 177, 63); fill-opacity: 1; stroke-width: 0px;"/></g><g class="shape-group" data-index="2" clip-path="url(#clip386743xy)"><path data-index="2" fill-rule="evenodd" d="M305.95,243.37H563.02V293.56H305.95Z" style="opacity: 0.15; stroke: rgb(0, 0, 0); stroke-opacity: 0; fill: rgb(55, 177, 63); fill-opacity: 1; stroke-width: 0px;"/></g><g class="shape-group" data-index="3" clip-path="url(#clip386743xy)"><path data-index="3" fill-rule="evenodd" d="M305.95,243.37H572.9V289.47H305.95Z" style="opacity: 0.15; stroke: rgb(0, 0, 0); stroke-opacity: 0; fill: rgb(55, 177, 63); fill-opacity: 1; stroke-width: 0px;"/></g><g class="shape-group" data-index="4" clip-path="url(#clip386743xy)"><path data-index="4" fill-rule="evenodd" d="M305.95,250.95H622.34V312.1H305.95Z" style="opacity: 0.15; stroke: rgb(0, 0, 0); stroke-opacity: 0; fill: rgb(55, 177, 63); fill-opacity: 1; stroke-width: 0px;"/></g><g class="shape-group" data-index="5" clip-path="url(#clip386743xy)"><path data-index="5" fill-rule="evenodd" d="M305.95,250.95H632.23V300H305.95Z" style="opacity: 0.15; stroke: rgb(0, 0, 0); stroke-opacity: 0; fill: rgb(55, 177, 63); fill-opacity: 1; stroke-width: 0px;"/></g><g class="shape-group" data-index="6" clip-path="url(#clip386743xy)"><path data-index="6" fill-rule="evenodd" d="M305.95,250.95H652V299H305.95Z" style="opacity: 0.15; stroke: rgb(0, 0, 0); stroke-opacity: 0; fill: rgb(55, 177, 63); fill-opacity: 1; stroke-width: 0px;"/></g><g class="shape-group" data-index="7" clip-path="url(#clip386743xy)"><path data-index="7" fill-rule="evenodd" d="M305.95,250.95H661.89V302.66999999999996H305.95Z" style="opacity: 0.15; stroke: rgb(0, 0, 0); stroke-opacity: 0; fill: rgb(55, 177, 63); fill-opacity: 1; stroke-width: 0px;"/></g><g class="shape-group" data-index="8" clip-path="url(#clip386743xy)"><path data-index="8" fill-rule="evenodd" d="M305.95,250.95H671.77V298.75H305.95Z" style="opacity: 0.15; stroke: rgb(0, 0, 0); stroke-opacity: 0; fill: rgb(55, 177, 63); fill-opacity: 1; stroke-width: 0px;"/></g><g class="shape-group" data-index="9" clip-path="url(#clip386743xy)"><path data-index="9" fill-rule="evenodd" d="M305.95,250.95H681.66V287.16999999999996H305.95Z" style="opacity: 0.15; stroke: rgb(0, 0, 0); stroke-opacity: 0; fill: rgb(55, 177, 63); fill-opacity: 1; stroke-width: 0px;"/></g><g class="shape-group" data-index="10" clip-path="url(#clip386743xy)"><path data-index="10" fill-rule="evenodd" d="M305.95,250.95H681.66V287.16999999999996H305.95Z" style="opacity: 0.15; stroke: rgb(0, 0, 0); stroke-opacity: 0; fill: rgb(55, 177, 63); fill-opacity: 1; stroke-width: 0px;"/></g><g class="shape-group" data-index="11" clip-path="url(#clip386743xy)"><path data-index="11" fill-rule="evenodd" d="M98.32,161.70999999999998H137.87V136.94H98.32Z" style="opacity: 0.15; stroke: rgb(0, 0, 0); stroke-opacity: 0; fill: rgb(234, 67, 53); fill-opacity: 1; stroke-width: 0px;"/></g><g class="shape-group" data-index="12" clip-path="url(#clip386743xy)"><path data-index="12" fill-rule="evenodd" d="M98.32,150.9H167.53V108.36H98.32Z" style="opacity: 0.15; stroke: rgb(0, 0, 0); stroke-opacity: 0; fill: rgb(234, 67, 53); fill-opacity: 1; stroke-width: 0px;"/></g><g class="shape-group" data-index="13" clip-path="url(#clip386743xy)"><path data-index="13" fill-rule="evenodd" d="M98.32,150.9H177.42000000000002V114.82H98.32Z" style="opacity: 0.15; stroke: rgb(0, 0, 0); stroke-opacity: 0; fill: rgb(234, 67, 53); fill-opacity: 1; stroke-width: 0px;"/></g><g class="shape-group" data-index="14" clip-path="url(#clip386743xy)"><path data-index="14" fill-rule="evenodd" d="M187.31,107.39H197.2V113.77H187.31Z" style="opacity: 0.15; stroke: rgb(0, 0, 0); stroke-opacity: 0; fill: rgb(234, 67, 53); fill-opacity: 1; stroke-width: 0px;"/></g><g class="shape-group" data-index="15" clip-path="url(#clip386743xy)"><path data-index="15" fill-rule="evenodd" d="M207.08,153.32999999999998H266.40999999999997V182.82999999999998H207.08Z" style="opacity: 0.15; stroke: rgb(0, 0, 0); stroke-opacity: 0; fill: rgb(234, 67, 53); fill-opacity: 1; stroke-width: 0px;"/></g><g class="shape-group" data-index="16" clip-path="url(#clip386743xy)"><path data-index="16" fill-rule="evenodd" d="M207.08,153.32999999999998H276.28999999999996V194.66H207.08Z" style="opacity: 0.15; stroke: rgb(0, 0, 0); stroke-opacity: 0; fill: rgb(234, 67, 53); fill-opacity: 1; stroke-width: 0px;"/></g><g class="shape-group" data-index="17" clip-path="url(#clip386743xy)"><path data-index="17" fill-rule="evenodd" d="M207.08,153.32999999999998H286.18V212.89H207.08Z" style="opacity: 0.15; stroke: rgb(0, 0, 0); stroke-opacity: 0; fill: rgb(234, 67, 53); fill-opacity: 1; stroke-width: 0px;"/></g><g class="shape-group" data-index="18" clip-path="url(#clip386743xy)"><path data-index="18" fill-rule="evenodd" d="M305.95,207.42000000000002H345.5V220.17H305.95Z" style="opacity: 0.15; stroke: rgb(0, 0, 0); stroke-opacity: 0; fill: rgb(234, 67, 53); fill-opacity: 1; stroke-width: 0px;"/></g><g class="shape-group" data-index="19" clip-path="url(#clip386743xy)"><path data-index="19" fill-rule="evenodd" d="M305.95,217.4H385.05V241.22H305.95Z" style="opacity: 0.15; stroke: rgb(0, 0, 0); stroke-opacity: 0; fill: rgb(234, 67, 53); fill-opacity: 1; stroke-width: 0px;"/></g></g><g class="imagelayer"/></g><g class="minor-gridlayer"><g class="x"/><g class="y"/></g><g class="gridlayer"><g class="x"><path class="xgrid crisp" transform="translate(137.87,0)" d="M0,91v240.24626865671644" style="stroke: rgb(49, 52, 57); stroke-opacity: 1; stroke-width: 1px;"/><path class="xgrid crisp" transform="translate(276.28999999999996,0)" d="M0,91v240.24626865671644" style="stroke: rgb(49, 52, 57); stroke-opacity: 1; stroke-width: 1px;"/><path class="xgrid crisp" transform="translate(414.71,0)" d="M0,91v240.24626865671644" style="stroke: rgb(49, 52, 57); stroke-opacity: 1; stroke-width: 1px;"/><path class="xgrid crisp" transform="translate(553.13,0)" d="M0,91v240.24626865671644" style="stroke: rgb(49, 52, 57); stroke-opacity: 1; stroke-width: 1px;"/><path class="xgrid crisp" transform="translate(691.55,0)" d="M0,91v240.24626865671644" style="stroke: rgb(49, 52, 57); stroke-opacity: 1; stroke-width: 1px;"/></g><g class="y"><path class="ygrid crisp" transform="translate(0,299.15999999999997)" d="M61,0h659" style="stroke: rgb(49, 52, 57); stroke-opacity: 1; stroke-width: 1px;"/><path class="ygrid crisp" transform="translate(0,233.25)" d="M61,0h659" style="stroke: rgb(49, 52, 57); stroke-opacity: 1; stroke-width: 1px;"/><path class="ygrid crisp" transform="translate(0,167.34)" d="M61,0h659" style="stroke: rgb(49, 52, 57); stroke-opacity: 1; stroke-width: 1px;"/><path class="ygrid crisp" transform="translate(0,101.42)" d="M61,0h659" style="stroke: rgb(49, 52, 57); stroke-opacity: 1; stroke-width: 1px;"/></g></g><g class="zerolinelayer"/><path class="xlines-below"/><path class="ylines-below"/><g class="overlines-below"/><g class="xaxislayer-below"/><g class="yaxislayer-below"/><g class="overaxes-below"/><g class="plot" transform="translate(61,91)" clip-path="url(#clip386743xyplot)"><g class="scatterlayer mlayer"><g class="trace scatter trace81f62313-4ea2-4b23-a536-987a297a1fcc" style="stroke-miterlimit: 2; opacity: 1;"><g class="fills"/><g class="errorbars"/><g class="lines"><path class="js-line" d="M37.32,69.79L47.21,71.62L57.1,63.05L66.99,42.77L76.87,45.94L86.76,49.1L96.65,27.85L106.53,17.36L116.42,23.82L126.31,16.39L136.2,22.77L146.08,29.16L155.97,25.86L165.86,52.05L175.74,75.2L185.63,82.62L195.52,95.91L205.41,91.83L215.29,103.66L225.18,121.89L235.07,103.24L244.95,106.15L254.84,105.28L264.73,123.65L274.61,130.57L284.5,129.17L294.39,143.73L304.28,139.04L314.16,146.58L324.05,150.22L333.94,157.7L343.82,134.79L353.71,134.96L363.6,148.29L373.49,138.04L383.37,153.38L393.26,150.78L403.15,175.16L413.03,191.35L422.92,188.99L432.81,180.08L442.69,178L452.58,179.41L462.47,183.07L472.36,200.98L482.24,209.57L492.13,215.03L502.02,202.56L511.9,198.47L521.79,219.55L531.68,215.75L541.57,220.28L551.45,228.23L561.34,221.1L571.23,209L581.11,197.96L591,208L600.89,211.67L610.77,207.75L620.66,196.17" style="vector-effect: none; fill: none; stroke: rgb(31, 119, 180); stroke-opacity: 1; stroke-width: 2px; opacity: 1;"/></g><g class="points"/><g class="text"/></g><g class="trace scatter tracec7c66479-b67f-425d-8617-a7692f00e613" style="stroke-miterlimit: 2; opacity: 1;"><g class="fills"/><g class="errorbars"/><g class="lines"/><g class="points"><path class="point plotly-customdata" transform="translate(37.32,70.71)" d="M3.5,3.5H-3.5V-3.5H3.5Z" style="opacity: 1; stroke-width: 1px; fill: rgb(66, 133, 244); fill-opacity: 1; stroke: rgb(11, 84, 205); stroke-opacity: 1;"/><path class="point plotly-customdata" transform="translate(37.32,59.9)" d="M3.5,3.5H-3.5V-3.5H3.5Z" style="opacity: 1; stroke-width: 1px; fill: rgb(66, 133, 244); fill-opacity: 1; stroke: rgb(11, 84, 205); stroke-opacity: 1;"/><path class="point plotly-customdata" transform="translate(37.32,59.9)" d="M3.5,3.5H-3.5V-3.5H3.5Z" style="opacity: 1; stroke-width: 1px; fill: rgb(66, 133, 244); fill-opacity: 1; stroke: rgb(11, 84, 205); stroke-opacity: 1;"/><path class="point plotly-customdata" transform="translate(126.31,16.39)" d="M3.5,3.5H-3.5V-3.5H3.5Z" style="opacity: 1; stroke-width: 1px; fill: rgb(66, 133, 244); fill-opacity: 1; stroke: rgb(11, 84, 205); stroke-opacity: 1;"/><path class="point plotly-customdata" transform="translate(146.08,62.33)" d="M3.5,3.5H-3.5V-3.5H3.5Z" style="opacity: 1; stroke-width: 1px; fill: rgb(66, 133, 244); fill-opacity: 1; stroke: rgb(11, 84, 205); stroke-opacity: 1;"/><path class="point plotly-customdata" transform="translate(146.08,62.33)" d="M3.5,3.5H-3.5V-3.5H3.5Z" style="opacity: 1; stroke-width: 1px; fill: rgb(66, 133, 244); fill-opacity: 1; stroke: rgb(11, 84, 205); stroke-opacity: 1;"/><path class="point plotly-customdata" transform="translate(146.08,62.33)" d="M3.5,3.5H-3.5V-3.5H3.5Z" style="opacity: 1; stroke-width: 1px; fill: rgb(66, 133, 244); fill-opacity: 1; stroke: rgb(11, 84, 205); stroke-opacity: 1;"/><path class="point plotly-customdata" transform="translate(244.95,116.42)" d="M3.5,3.5H-3.5V-3.5H3.5Z" style="opacity: 1; stroke-width: 1px; fill: rgb(66, 133, 244); fill-opacity: 1; stroke: rgb(11, 84, 205); stroke-opacity: 1;"/><path class="point plotly-customdata" transform="translate(244.95,126.4)" d="M3.5,3.5H-3.5V-3.5H3.5Z" style="opacity: 1; stroke-width: 1px; fill: rgb(66, 133, 244); fill-opacity: 1; stroke: rgb(11, 84, 205); stroke-opacity: 1;"/><path class="point plotly-customdata" transform="translate(244.95,147.17)" d="M3.5,3.5H-3.5V-3.5H3.5Z" style="opacity: 1; stroke-width: 1px; fill: rgb(66, 133, 244); fill-opacity: 1; stroke: rgb(11, 84, 205); stroke-opacity: 1;"/><path class="point plotly-customdata" transform="translate(244.95,152.37)" d="M3.5,3.5H-3.5V-3.5H3.5Z" style="opacity: 1; stroke-width: 1px; fill: rgb(66, 133, 244); fill-opacity: 1; stroke: rgb(11, 84, 205); stroke-opacity: 1;"/><path class="point plotly-customdata" transform="translate(244.95,152.37)" d="M3.5,3.5H-3.5V-3.5H3.5Z" style="opacity: 1; stroke-width: 1px; fill: rgb(66, 133, 244); fill-opacity: 1; stroke: rgb(11, 84, 205); stroke-opacity: 1;"/><path class="point plotly-customdata" transform="translate(244.95,152.37)" d="M3.5,3.5H-3.5V-3.5H3.5Z" style="opacity: 1; stroke-width: 1px; fill: rgb(66, 133, 244); fill-opacity: 1; stroke: rgb(11, 84, 205); stroke-opacity: 1;"/><path class="point plotly-customdata" transform="translate(244.95,159.95)" d="M3.5,3.5H-3.5V-3.5H3.5Z" style="opacity: 1; stroke-width: 1px; fill: rgb(66, 133, 244); fill-opacity: 1; stroke: rgb(11, 84, 205); stroke-opacity: 1;"/><path class="point plotly-customdata" transform="translate(244.95,159.95)" d="M3.5,3.5H-3.5V-3.5H3.5Z" style="opacity: 1; stroke-width: 1px; fill: rgb(66, 133, 244); fill-opacity: 1; stroke: rgb(11, 84, 205); stroke-opacity: 1;"/><path class="point plotly-customdata" transform="translate(244.95,159.95)" d="M3.5,3.5H-3.5V-3.5H3.5Z" style="opacity: 1; stroke-width: 1px; fill: rgb(66, 133, 244); fill-opacity: 1; stroke: rgb(11, 84, 205); stroke-opacity: 1;"/><path class="point plotly-customdata" transform="translate(244.95,159.95)" d="M3.5,3.5H-3.5V-3.5H3.5Z" style="opacity: 1; stroke-width: 1px; fill: rgb(66, 133, 244); fill-opacity: 1; stroke: rgb(11, 84, 205); stroke-opacity: 1;"/><path class="point plotly-customdata" transform="translate(244.95,159.95)" d="M3.5,3.5H-3.5V-3.5H3.5Z" style="opacity: 1; stroke-width: 1px; fill: rgb(66, 133, 244); fill-opacity: 1; stroke: rgb(11, 84, 205); stroke-opacity: 1;"/><path class="point plotly-customdata" transform="translate(244.95,159.95)" d="M3.5,3.5H-3.5V-3.5H3.5Z" style="opacity: 1; stroke-width: 1px; fill: rgb(66, 133, 244); fill-opacity: 1; stroke: rgb(11, 84, 205); stroke-opacity: 1;"/><path class="point plotly-customdata" transform="translate(244.95,159.95)" d="M3.5,3.5H-3.5V-3.5H3.5Z" style="opacity: 1; stroke-width: 1px; fill: rgb(66, 133, 244); fill-opacity: 1; stroke: rgb(11, 84, 205); stroke-opacity: 1;"/></g><g class="text"/></g><g class="trace scatter traceaeac67d1-775d-4aac-b0d0-10540a89f2a2" style="stroke-miterlimit: 2; opacity: 1;"><g class="fills"/><g class="errorbars"/><g class="lines"/><g class="points"><path class="point plotly-customdata" transform="translate(442.69,178)" d="M3.5,3.5H-3.5V-3.5H3.5Z" style="opacity: 1; stroke-width: 1px; fill: rgb(55, 177, 63); fill-opacity: 1; stroke: rgb(38, 123, 44); stroke-opacity: 1;"/><path class="point plotly-customdata" transform="translate(492.13,215.03)" d="M3.5,3.5H-3.5V-3.5H3.5Z" style="opacity: 1; stroke-width: 1px; fill: rgb(55, 177, 63); fill-opacity: 1; stroke: rgb(38, 123, 44); stroke-opacity: 1;"/><path class="point plotly-customdata" transform="translate(502.02,202.56)" d="M3.5,3.5H-3.5V-3.5H3.5Z" style="opacity: 1; stroke-width: 1px; fill: rgb(55, 177, 63); fill-opacity: 1; stroke: rgb(38, 123, 44); stroke-opacity: 1;"/><path class="point plotly-customdata" transform="translate(511.9,198.47)" d="M3.5,3.5H-3.5V-3.5H3.5Z" style="opacity: 1; stroke-width: 1px; fill: rgb(55, 177, 63); fill-opacity: 1; stroke: rgb(38, 123, 44); stroke-opacity: 1;"/><path class="point plotly-customdata" transform="translate(561.34,221.1)" d="M3.5,3.5H-3.5V-3.5H3.5Z" style="opacity: 1; stroke-width: 1px; fill: rgb(55, 177, 63); fill-opacity: 1; stroke: rgb(38, 123, 44); stroke-opacity: 1;"/><path class="point plotly-customdata" transform="translate(571.23,209)" d="M3.5,3.5H-3.5V-3.5H3.5Z" style="opacity: 1; stroke-width: 1px; fill: rgb(55, 177, 63); fill-opacity: 1; stroke: rgb(38, 123, 44); stroke-opacity: 1;"/><path class="point plotly-customdata" transform="translate(591,208)" d="M3.5,3.5H-3.5V-3.5H3.5Z" style="opacity: 1; stroke-width: 1px; fill: rgb(55, 177, 63); fill-opacity: 1; stroke: rgb(38, 123, 44); stroke-opacity: 1;"/><path class="point plotly-customdata" transform="translate(600.89,211.67)" d="M3.5,3.5H-3.5V-3.5H3.5Z" style="opacity: 1; stroke-width: 1px; fill: rgb(55, 177, 63); fill-opacity: 1; stroke: rgb(38, 123, 44); stroke-opacity: 1;"/><path class="point plotly-customdata" transform="translate(610.77,207.75)" d="M3.5,3.5H-3.5V-3.5H3.5Z" style="opacity: 1; stroke-width: 1px; fill: rgb(55, 177, 63); fill-opacity: 1; stroke: rgb(38, 123, 44); stroke-opacity: 1;"/><path class="point plotly-customdata" transform="translate(620.66,196.17)" d="M3.5,3.5H-3.5V-3.5H3.5Z" style="opacity: 1; stroke-width: 1px; fill: rgb(55, 177, 63); fill-opacity: 1; stroke: rgb(38, 123, 44); stroke-opacity: 1;"/></g><g class="text"/></g><g class="trace scatter trace34c999ae-cff9-4934-bcb2-fdb06907f066" style="stroke-miterlimit: 2; opacity: 1;"><g class="fills"/><g class="errorbars"/><g class="lines"/><g class="points"><path class="point plotly-customdata" transform="translate(76.87,45.94)" d="M3.5,3.5H-3.5V-3.5H3.5Z" style="opacity: 1; stroke-width: 1px; fill: rgb(234, 67, 53); fill-opacity: 1; stroke: rgb(181, 31, 18); stroke-opacity: 1;"/><path class="point plotly-customdata" transform="translate(106.53,17.36)" d="M3.5,3.5H-3.5V-3.5H3.5Z" style="opacity: 1; stroke-width: 1px; fill: rgb(234, 67, 53); fill-opacity: 1; stroke: rgb(181, 31, 18); stroke-opacity: 1;"/><path class="point plotly-customdata" transform="translate(116.42,23.82)" d="M3.5,3.5H-3.5V-3.5H3.5Z" style="opacity: 1; stroke-width: 1px; fill: rgb(234, 67, 53); fill-opacity: 1; stroke: rgb(181, 31, 18); stroke-opacity: 1;"/><path class="point plotly-customdata" transform="translate(136.2,22.77)" d="M3.5,3.5H-3.5V-3.5H3.5Z" style="opacity: 1; stroke-width: 1px; fill: rgb(234, 67, 53); fill-opacity: 1; stroke: rgb(181, 31, 18); stroke-opacity: 1;"/><path class="point plotly-customdata" transform="translate(205.41,91.83)" d="M3.5,3.5H-3.5V-3.5H3.5Z" style="opacity: 1; stroke-width: 1px; fill: rgb(234, 67, 53); fill-opacity: 1; stroke: rgb(181, 31, 18); stroke-opacity: 1;"/><path class="point plotly-customdata" transform="translate(215.29,103.66)" d="M3.5,3.5H-3.5V-3.5H3.5Z" style="opacity: 1; stroke-width: 1px; fill: rgb(234, 67, 53); fill-opacity: 1; stroke: rgb(181, 31, 18); stroke-opacity: 1;"/><path class="point plotly-customdata" transform="translate(225.18,121.89)" d="M3.5,3.5H-3.5V-3.5H3.5Z" style="opacity: 1; stroke-width: 1px; fill: rgb(234, 67, 53); fill-opacity: 1; stroke: rgb(181, 31, 18); stroke-opacity: 1;"/><path class="point plotly-customdata" transform="translate(284.5,129.17)" d="M3.5,3.5H-3.5V-3.5H3.5Z" style="opacity: 1; stroke-width: 1px; fill: rgb(234, 67, 53); fill-opacity: 1; stroke: rgb(181, 31, 18); stroke-opacity: 1;"/><path class="point plotly-customdata" transform="translate(324.05,150.22)" d="M3.5,3.5H-3.5V-3.5H3.5Z" style="opacity: 1; stroke-width: 1px; fill: rgb(234, 67, 53); fill-opacity: 1; stroke: rgb(181, 31, 18); stroke-opacity: 1;"/></g><g class="text"/></g><g class="trace scatter trace426fe041-a066-455c-87b5-aec413443c2f" style="stroke-miterlimit: 2; opacity: 1;"><g class="fills"/><g class="errorbars"/><g class="lines"/><g class="points"><path class="point plotly-customdata" transform="translate(620.66,196.17)" d="M3.5,3.5H-3.5V-3.5H3.5Z" style="opacity: 1; stroke-width: 1px; fill: rgb(255, 170, 0); fill-opacity: 1; stroke: rgb(178, 118, 0); stroke-opacity: 1;"/></g><g class="text"/></g></g></g><g class="overplot"/><path class="xlines-above crisp" d="M0,0" style="fill: none;"/><path class="ylines-above crisp" d="M0,0" style="fill: none;"/><g class="overlines-above"/><g class="xaxislayer-above"/><g class="yaxislayer-above"><g class="ytick"><text text-anchor="end" x="60" y="4.199999999999999" transform="translate(0,299.15999999999997)" style="font-family: 'Open Sans', verdana, arial, sans-serif; font-size: 12px; fill: rgb(214, 223, 239); fill-opacity: 1; white-space: pre; opacity: 1;">90</text></g><g class="ytick"><text text-anchor="end" x="60" y="4.199999999999999" style="font-family: 'Open Sans', verdana, arial, sans-serif; font-size: 12px; fill: rgb(214, 223, 239); fill-opacity: 1; white-space: pre; opacity: 1;" transform="translate(0,233.25)">95</text></g><g class="ytick"><text text-anchor="end" x="60" y="4.199999999999999" style="font-family: 'Open Sans', verdana, arial, sans-serif; font-size: 12px; fill: rgb(214, 223, 239); fill-opacity: 1; white-space: pre; opacity: 1;" transform="translate(0,167.34)">100</text></g><g class="ytick"><text text-anchor="end" x="60" y="4.199999999999999" style="font-family: 'Open Sans', verdana, arial, sans-serif; font-size: 12px; fill: rgb(214, 223, 239); fill-opacity: 1; white-space: pre; opacity: 1;" transform="translate(0,101.42)">105</text></g></g><g class="overaxes-above"/></g><g class="subplot x2y2"><g class="layer-subplot"><g class="shapelayer"/><g class="imagelayer"/></g><g class="minor-gridlayer"><g class="x2"/><g class="y2"/></g><g class="gridlayer"><g class="x2"><path class="x2grid crisp" transform="translate(137.87,0)" d="M0,361.75373134328356v240.24626865671644" style="stroke: rgb(49, 52, 57); stroke-opacity: 1; stroke-width: 1px;"/><path class="x2grid crisp" transform="translate(276.28999999999996,0)" d="M0,361.75373134328356v240.24626865671644" style="stroke: rgb(49, 52, 57); stroke-opacity: 1; stroke-width: 1px;"/><path class="x2grid crisp" transform="translate(414.71,0)" d="M0,361.75373134328356v240.24626865671644" style="stroke: rgb(49, 52, 57); stroke-opacity: 1; stroke-width: 1px;"/><path class="x2grid crisp" transform="translate(553.13,0)" d="M0,361.75373134328356v240.24626865671644" style="stroke: rgb(49, 52, 57); stroke-opacity: 1; stroke-width: 1px;"/><path class="x2grid crisp" transform="translate(691.55,0)" d="M0,361.75373134328356v240.24626865671644" style="stroke: rgb(49, 52, 57); stroke-opacity: 1; stroke-width: 1px;"/></g><g class="y2"><path class="y2grid crisp" transform="translate(0,559.2837313432835)" d="M61,0h659" style="stroke: rgb(49, 52, 57); stroke-opacity: 1; stroke-width: 1px;"/><path class="y2grid crisp" transform="translate(0,412.38373134328356)" d="M61,0h659" style="stroke: rgb(49, 52, 57); stroke-opacity: 1; stroke-width: 1px;"/></g></g><g class="zerolinelayer"><path class="y2zl zl crisp" transform="translate(0,485.83373134328355)" d="M61,0h659" style="stroke: rgb(49, 52, 57); stroke-opacity: 1; stroke-width: 2px;"/></g><path class="xlines-below"/><path class="ylines-below"/><g class="overlines-below"/><g class="xaxislayer-below"/><g class="yaxislayer-below"/><g class="overaxes-below"/><g class="plot" transform="translate(61,361.75373134328356)" clip-path="url(#clip386743x2y2plot)"><g class="scatterlayer mlayer"><g class="trace scatter tracef011d665-1aec-4841-8769-6bd9fb96285f" style="stroke-miterlimit: 2; opacity: 1;"><g class="fills"/><g class="errorbars"/><g class="lines"/><g class="points"><path class="point plotly-customdata" transform="translate(442.69,117.18)" d="M3.72,0A3.72,3.72 0 1,1 0,-3.72A3.72,3.72 0 0,1 3.72,0Z" style="opacity: 0.759329; stroke-width: 1px; fill: rgb(55, 177, 63); fill-opacity: 1; stroke: rgb(38, 123, 44); stroke-opacity: 1;"/><path class="point plotly-customdata" transform="translate(492.13,81.23)" d="M5.16,0A5.16,5.16 0 1,1 0,-5.16A5.16,5.16 0 0,1 5.16,0Z" style="opacity: 0.820973; stroke-width: 1px; fill: rgb(55, 177, 63); fill-opacity: 1; stroke: rgb(38, 123, 44); stroke-opacity: 1;"/><path class="point plotly-customdata" transform="translate(502.02,95.27)" d="M4.59,0A4.59,4.59 0 1,1 0,-4.59A4.59,4.59 0 0,1 4.59,0Z" style="opacity: 0.79692; stroke-width: 1px; fill: rgb(55, 177, 63); fill-opacity: 1; stroke: rgb(38, 123, 44); stroke-opacity: 1;"/><path class="point plotly-customdata" transform="translate(511.9,99.88)" d="M4.41,0A4.41,4.41 0 1,1 0,-4.41A4.41,4.41 0 0,1 4.41,0Z" style="opacity: 0.789019; stroke-width: 1px; fill: rgb(55, 177, 63); fill-opacity: 1; stroke: rgb(38, 123, 44); stroke-opacity: 1;"/><path class="point plotly-customdata" transform="translate(561.34,82.77)" d="M5.1,0A5.1,5.1 0 1,1 0,-5.1A5.1,5.1 0 0,1 5.1,0Z" style="opacity: 0.81877; stroke-width: 1px; fill: rgb(55, 177, 63); fill-opacity: 1; stroke: rgb(38, 123, 44); stroke-opacity: 1;"/><path class="point plotly-customdata" transform="translate(571.23,96.39)" d="M4.56,0A4.56,4.56 0 1,1 0,-4.56A4.56,4.56 0 0,1 4.56,0Z" style="opacity: 0.795289; stroke-width: 1px; fill: rgb(55, 177, 63); fill-opacity: 1; stroke: rgb(38, 123, 44); stroke-opacity: 1;"/><path class="point plotly-customdata" transform="translate(591,97.52)" d="M4.51,0A4.51,4.51 0 1,1 0,-4.51A4.51,4.51 0 0,1 4.51,0Z" style="opacity: 0.79335; stroke-width: 1px; fill: rgb(55, 177, 63); fill-opacity: 1; stroke: rgb(38, 123, 44); stroke-opacity: 1;"/><path class="point plotly-customdata" transform="translate(600.89,93.39)" d="M4.68,0A4.68,4.68 0 1,1 0,-4.68A4.68,4.68 0 0,1 4.68,0Z" style="opacity: 0.800471; stroke-width: 1px; fill: rgb(55, 177, 63); fill-opacity: 1; stroke: rgb(38, 123, 44); stroke-opacity: 1;"/><path class="point plotly-customdata" transform="translate(610.77,97.8)" d="M4.5,0A4.5,4.5 0 1,1 0,-4.5A4.5,4.5 0 0,1 4.5,0Z" style="opacity: 0.792866; stroke-width: 1px; fill: rgb(55, 177, 63); fill-opacity: 1; stroke: rgb(38, 123, 44); stroke-opacity: 1;"/><path class="point plotly-customdata" transform="translate(620.66,110.83)" d="M3.98,0A3.98,3.98 0 1,1 0,-3.98A3.98,3.98 0 0,1 3.98,0Z" style="opacity: 0.770395; stroke-width: 1px; fill: rgb(55, 177, 63); fill-opacity: 1; stroke: rgb(38, 123, 44); stroke-opacity: 1;"/></g><g class="text"/></g><g class="trace scatter tracedaa0fe96-a554-4d1a-9f23-ae1561eb392e" style="stroke-miterlimit: 2; opacity: 1;"><g class="fills"/><g class="errorbars"/><g class="lines"/><g class="points"><path class="point plotly-customdata" transform="translate(76.87,181.46)" d="M5.6,0A5.6,5.6 0 1,1 0,-5.6A5.6,5.6 0 0,1 5.6,0Z" style="opacity: 0.839823; stroke-width: 1px; fill: rgb(234, 67, 53); fill-opacity: 1; stroke: rgb(181, 31, 18); stroke-opacity: 1;"/><path class="point plotly-customdata" transform="translate(106.53,201.71)" d="M6.33,0A6.33,6.33 0 1,1 0,-6.33A6.33,6.33 0 0,1 6.33,0Z" style="opacity: 0.871371; stroke-width: 1px; fill: rgb(234, 67, 53); fill-opacity: 1; stroke: rgb(181, 31, 18); stroke-opacity: 1;"/><path class="point plotly-customdata" transform="translate(116.42,194.43)" d="M6.06,0A6.06,6.06 0 1,1 0,-6.06A6.06,6.06 0 0,1 6.06,0Z" style="opacity: 0.859763; stroke-width: 1px; fill: rgb(234, 67, 53); fill-opacity: 1; stroke: rgb(181, 31, 18); stroke-opacity: 1;"/><path class="point plotly-customdata" transform="translate(136.2,161.84)" d="M4.8,0A4.8,4.8 0 1,1 0,-4.8A4.8,4.8 0 0,1 4.8,0Z" style="opacity: 0.805879; stroke-width: 1px; fill: rgb(234, 67, 53); fill-opacity: 1; stroke: rgb(181, 31, 18); stroke-opacity: 1;"/><path class="point plotly-customdata" transform="translate(205.41,186.32)" d="M5.76,0A5.76,5.76 0 1,1 0,-5.76A5.76,5.76 0 0,1 5.76,0Z" style="opacity: 0.847003; stroke-width: 1px; fill: rgb(234, 67, 53); fill-opacity: 1; stroke: rgb(181, 31, 18); stroke-opacity: 1;"/><path class="point plotly-customdata" transform="translate(215.29,199.37)" d="M6.25,0A6.25,6.25 0 1,1 0,-6.25A6.25,6.25 0 0,1 6.25,0Z" style="opacity: 0.867858; stroke-width: 1px; fill: rgb(234, 67, 53); fill-opacity: 1; stroke: rgb(181, 31, 18); stroke-opacity: 1;"/><path class="point plotly-customdata" transform="translate(225.18,219.48)" d="M7,0A7,7 0 1,1 0,-7A7,7 0 0,1 7,0Z" style="opacity: 0.9; stroke-width: 1px; fill: rgb(234, 67, 53); fill-opacity: 1; stroke: rgb(181, 31, 18); stroke-opacity: 1;"/><path class="point plotly-customdata" transform="translate(284.5,138.21)" d="M3.99,0A3.99,3.99 0 1,1 0,-3.99A3.99,3.99 0 0,1 3.99,0Z" style="opacity: 0.771085; stroke-width: 1px; fill: rgb(234, 67, 53); fill-opacity: 1; stroke: rgb(181, 31, 18); stroke-opacity: 1;"/><path class="point plotly-customdata" transform="translate(324.05,125.54)" d="M3.5,0A3.5,3.5 0 1,1 0,-3.5A3.5,3.5 0 0,1 3.5,0Z" style="opacity: 0.75; stroke-width: 1px; fill: rgb(234, 67, 53); fill-opacity: 1; stroke: rgb(181, 31, 18); stroke-opacity: 1;"/></g><g class="text"/></g><g class="trace scatter trace01c18a41-ebec-464e-8cde-22e76d4ce353" style="stroke-miterlimit: 2; opacity: 1;"><g class="fills"/><g class="errorbars"/><g class="lines"/><g class="points"><path class="point plotly-customdata" transform="translate(620.66,17.65)" d="M4.51,0A4.51,4.51 0 1,1 0,-4.51A4.51,4.51 0 0,1 4.51,0Z" style="opacity: 0.793424; stroke-width: 1px; fill: rgb(255, 170, 0); fill-opacity: 1; stroke: rgb(178, 118, 0); stroke-opacity: 1;"/></g><g class="text"/></g></g></g><g class="overplot"/><path class="xlines-above crisp" d="M0,0" style="fill: none;"/><path class="ylines-above crisp" d="M0,0" style="fill: none;"/><g class="overlines-above"/><g class="xaxislayer-above"><g class="x2tick"><text text-anchor="middle" x="0" y="615" transform="translate(137.87,0)" style="font-family: 'Open Sans', verdana, arial, sans-serif; font-size: 12px; fill: rgb(214, 223, 239); fill-opacity: 1; white-space: pre; opacity: 1;"><tspan class="line" dy="0em" x="0" y="615">Jan 5</tspan><tspan class="line" dy="1.3em" x="0" y="615">2020</tspan></text></g><g class="x2tick"><text text-anchor="middle" x="0" y="615" style="font-family: 'Open Sans', verdana, arial, sans-serif; font-size: 12px; fill: rgb(214, 223, 239); fill-opacity: 1; white-space: pre; opacity: 1;" transform="translate(276.28999999999996,0)">Jan 19</text></g><g class="x2tick"><text text-anchor="middle" x="0" y="615" style="font-family: 'Open Sans', verdana, arial, sans-serif; font-size: 12px; fill: rgb(214, 223, 239); fill-opacity: 1; white-space: pre; opacity: 1;" transform="translate(414.71,0)">Feb 2</text></g><g class="x2tick"><text text-anchor="middle" x="0" y="615" style="font-family: 'Open Sans', verdana, arial, sans-serif; font-size: 12px; fill: rgb(214, 223, 239); fill-opacity: 1; white-space: pre; opacity: 1;" transform="translate(553.13,0)">Feb 16</text></g><g class="x2tick"><text text-anchor="middle" x="0" y="615" style="font-family: 'Open Sans', verdana, arial, sans-serif; font-size: 12px; fill: rgb(214, 223, 239); fill-opacity: 1; white-space: pre; opacity: 1;" transform="translate(691.55,0)">Mar 1</text></g></g><g class="yaxislayer-above"><g class="y2tick"><text text-anchor="end" x="60" y="4.199999999999999" transform="translate(0,559.2837313432835)" style="font-family: 'Open Sans', verdana, arial, sans-serif; font-size: 12px; fill: rgb(214, 223, 239); fill-opacity: 1; white-space: pre; opacity: 1;">−5</text></g><g class="y2tick"><text text-anchor="end" x="60" y="4.199999999999999" style="font-family: 'Open Sans', verdana, arial, sans-serif; font-size: 12px; fill: rgb(214, 223, 239); fill-opacity: 1; white-space: pre; opacity: 1;" transform="translate(0,485.83373134328355)">0</text></g><g class="y2tick"><text text-anchor="end" x="60" y="4.199999999999999" style="font-family: 'Open Sans', verdana, arial, sans-serif; font-size: 12px; fill: rgb(214, 223, 239); fill-opacity: 1; white-space: pre; opacity: 1;" transform="translate(0,412.38373134328356)">5</text></g></g><g class="overaxes-above"/></g></g><g class="polarlayer"/><g class="smithlayer"/><g class="ternarylayer"/><g class="geolayer"/><g class="funnelarealayer"/><g class="pielayer"/><g class="iciclelayer"/><g class="treemaplayer"/><g class="sunburstlayer"/><g class="glimages"/><defs id="topdefs-386743"><g class="clips"/><clipPath id="legend386743"><rect width="605" height="48" x="0" y="0"/></clipPath></defs><g class="layer-above"><g class="imagelayer"/><g class="shapelayer"><g class="shape-group" data-index="20" clip-path="url(#clip386743y2)"><path data-index="20" fill-rule="evenodd" d="M61,485.83373134328355L720,485.83373134328355" style="opacity: 1; stroke: rgb(128, 128, 128); stroke-opacity: 1; fill: rgb(0, 0, 0); fill-opacity: 0; stroke-dasharray: 9px, 9px; stroke-width: 2px;"/></g></g></g><g class="infolayer"><g class="legend" pointer-events="all" transform="translate(115,12.492537313432862)"><rect class="bg" shape-rendering="crispEdges" width="605" height="48" x="0" y="0" style="stroke: rgb(68, 68, 68); stroke-opacity: 1; fill: rgb(33, 34, 38); fill-opacity: 1; stroke-width: 0px;"/><g class="scrollbox" transform="" clip-path="url(#legend386743)"><g class="groups"><g class="traces" transform="translate(0,14.5)" style="opacity: 1;"><text class="legendtext" text-anchor="start" x="40" y="4.680000000000001" style="font-family: 'Open Sans', verdana, arial, sans-serif; font-size: 12px; fill: rgb(214, 223, 239); fill-opacity: 1; white-space: pre;">Close</text><g class="layers" style="opacity: 1;"><g class="legendfill"/><g class="legendlines"><path class="js-line" d="M5,0h30" style="fill: none; stroke: rgb(31, 119, 180); stroke-opacity: 1; stroke-width: 2px;"/></g><g class="legendsymbols"><g class="legendpoints"/></g></g><rect class="legendtoggle" x="0" y="-9.5" width="74.859375" height="19" style="fill: rgb(0, 0, 0); fill-opacity: 0;"/></g><g class="traces" transform="translate(130.609375,14.5)" style="opacity: 1;"><text class="legendtext" text-anchor="start" x="40" y="4.680000000000001" style="font-family: 'Open Sans', verdana, arial, sans-serif; font-size: 12px; fill: rgb(214, 223, 239); fill-opacity: 1; white-space: pre;">Entry</text><g class="layers" style="opacity: 1;"><g class="legendfill"/><g class="legendlines"/><g class="legendsymbols"><g class="legendpoints"><path class="scatterpts" transform="translate(20,0)" d="M3.5,3.5H-3.5V-3.5H3.5Z" style="opacity: 1; stroke-width: 1px; fill: rgb(66, 133, 244); fill-opacity: 1; stroke: rgb(11, 84, 205); stroke-opacity: 1;"/></g></g></g><rect class="legendtoggle" x="0" y="-9.5" width="74.640625" height="19" style="fill: rgb(0, 0, 0); fill-opacity: 0;"/></g><g class="traces" transform="translate(261.21875,14.5)" style="opacity: 1;"><text class="legendtext" text-anchor="start" x="40" y="4.680000000000001" style="font-family: 'Open Sans', verdana, arial, sans-serif; font-size: 12px; fill: rgb(214, 223, 239); fill-opacity: 1; white-space: pre;">Exit - Profit</text><g class="layers" style="opacity: 1;"><g class="legendfill"/><g class="legendlines"/><g class="legendsymbols"><g class="legendpoints"><path class="scatterpts" transform="translate(20,0)" d="M3.5,3.5H-3.5V-3.5H3.5Z" style="opacity: 1; stroke-width: 1px; fill: rgb(55, 177, 63); fill-opacity: 1; stroke: rgb(38, 123, 44); stroke-opacity: 1;"/></g></g></g><rect class="legendtoggle" x="0" y="-9.5" width="110.984375" height="19" style="fill: rgb(0, 0, 0); fill-opacity: 0;"/></g><g class="traces" transform="translate(391.828125,14.5)" style="opacity: 1;"><text class="legendtext" text-anchor="start" x="40" y="4.680000000000001" style="font-family: 'Open Sans', verdana, arial, sans-serif; font-size: 12px; fill: rgb(214, 223, 239); fill-opacity: 1; white-space: pre;">Exit - Loss</text><g class="layers" style="opacity: 1;"><g class="legendfill"/><g class="legendlines"/><g class="legendsymbols"><g class="legendpoints"><path class="scatterpts" transform="translate(20,0)" d="M3.5,3.5H-3.5V-3.5H3.5Z" style="opacity: 1; stroke-width: 1px; fill: rgb(234, 67, 53); fill-opacity: 1; stroke: rgb(181, 31, 18); stroke-opacity: 1;"/></g></g></g><rect class="legendtoggle" x="0" y="-9.5" width="105.578125" height="19" style="fill: rgb(0, 0, 0); fill-opacity: 0;"/></g><g class="traces" transform="translate(522.4375,14.5)" style="opacity: 1;"><text class="legendtext" text-anchor="start" x="40" y="4.680000000000001" style="font-family: 'Open Sans', verdana, arial, sans-serif; font-size: 12px; fill: rgb(214, 223, 239); fill-opacity: 1; white-space: pre;">Active</text><g class="layers" style="opacity: 1;"><g class="legendfill"/><g class="legendlines"/><g class="legendsymbols"><g class="legendpoints"><path class="scatterpts" transform="translate(20,0)" d="M3.5,3.5H-3.5V-3.5H3.5Z" style="opacity: 1; stroke-width: 1px; fill: rgb(255, 170, 0); fill-opacity: 1; stroke: rgb(178, 118, 0); stroke-opacity: 1;"/></g></g></g><rect class="legendtoggle" x="0" y="-9.5" width="79.234375" height="19" style="fill: rgb(0, 0, 0); fill-opacity: 0;"/></g><g class="traces" transform="translate(0,33.5)" style="opacity: 1;"><text class="legendtext" text-anchor="start" x="40" y="4.680000000000001" style="font-family: 'Open Sans', verdana, arial, sans-serif; font-size: 12px; fill: rgb(214, 223, 239); fill-opacity: 1; white-space: pre;">Closed - Profit</text><g class="layers" style="opacity: 1;"><g class="legendfill"/><g class="legendlines"/><g class="legendsymbols"><g class="legendpoints"><path class="scatterpts" transform="translate(20,0)" d="M4.52,0A4.52,4.52 0 1,1 0,-4.52A4.52,4.52 0 0,1 4.52,0Z" style="opacity: 0.793738; stroke-width: 1px; fill: rgb(55, 177, 63); fill-opacity: 1; stroke: rgb(38, 123, 44); stroke-opacity: 1;"/></g></g></g><rect class="legendtoggle" x="0" y="-9.5" width="128.109375" height="19" style="fill: rgb(0, 0, 0); fill-opacity: 0;"/></g><g class="traces" transform="translate(130.609375,33.5)" style="opacity: 1;"><text class="legendtext" text-anchor="start" x="40" y="4.680000000000001" style="font-family: 'Open Sans', verdana, arial, sans-serif; font-size: 12px; fill: rgb(214, 223, 239); fill-opacity: 1; white-space: pre;">Closed - Loss</text><g class="layers" style="opacity: 1;"><g class="legendfill"/><g class="legendlines"/><g class="legendsymbols"><g class="legendpoints"><path class="scatterpts" transform="translate(20,0)" d="M5.48,0A5.48,5.48 0 1,1 0,-5.48A5.48,5.48 0 0,1 5.48,0Z" style="opacity: 0.834754; stroke-width: 1px; fill: rgb(234, 67, 53); fill-opacity: 1; stroke: rgb(181, 31, 18); stroke-opacity: 1;"/></g></g></g><rect class="legendtoggle" x="0" y="-9.5" width="122.6875" height="19" style="fill: rgb(0, 0, 0); fill-opacity: 0;"/></g><g class="traces" transform="translate(261.21875,33.5)" style="opacity: 1;"><text class="legendtext" text-anchor="start" x="40" y="4.680000000000001" style="font-family: 'Open Sans', verdana, arial, sans-serif; font-size: 12px; fill: rgb(214, 223, 239); fill-opacity: 1; white-space: pre;">Open</text><g class="layers" style="opacity: 1;"><g class="legendfill"/><g class="legendlines"/><g class="legendsymbols"><g class="legendpoints"><path class="scatterpts" transform="translate(20,0)" d="M4.51,0A4.51,4.51 0 1,1 0,-4.51A4.51,4.51 0 0,1 4.51,0Z" style="opacity: 0.793424; stroke-width: 1px; fill: rgb(255, 170, 0); fill-opacity: 1; stroke: rgb(178, 118, 0); stroke-opacity: 1;"/></g></g></g><rect class="legendtoggle" x="0" y="-9.5" width="74.171875" height="19" style="fill: rgb(0, 0, 0); fill-opacity: 0;"/></g></g></g><rect class="scrollbar" rx="20" ry="3" width="0" height="0" x="0" y="0" style="fill: rgb(128, 139, 164); fill-opacity: 1;"/></g><g class="g-gtitle"/><g class="g-xtitle"/><g class="g-x2title"><text class="x2title" x="390.5" y="657.409375" text-anchor="middle" style="font-family: 'Open Sans', verdana, arial, sans-serif; font-size: 14px; fill: rgb(214, 223, 239); opacity: 1; font-weight: normal; white-space: pre;">Index</text></g><g class="g-ytitle" transform="translate(1.2041015625,0)"><text class="ytitle" transform="rotate(-90,12.809375000000003,211.12313432835822)" x="12.809375000000003" y="211.12313432835822" text-anchor="middle" style="font-family: 'Open Sans', verdana, arial, sans-serif; font-size: 14px; fill: rgb(214, 223, 239); opacity: 1; font-weight: normal; white-space: pre;">Price</text></g><g class="g-y2title"><text class="y2title" transform="rotate(-90,18.246875000000003,481.8768656716418)" x="18.246875000000003" y="481.8768656716418" text-anchor="middle" style="font-family: 'Open Sans', verdana, arial, sans-serif; font-size: 14px; fill: rgb(214, 223, 239); opacity: 1; font-weight: normal; white-space: pre;">Trade PnL</text></g><g class="annotation" data-index="0" style="opacity: 1;"><g class="annotation-text-g" transform="rotate(0,390.5,79)"><g class="cursor-pointer" transform="translate(362,67)"><rect class="bg" x="0.5" y="0.5" width="57" height="23" style="stroke-width: 1px; stroke: rgb(0, 0, 0); stroke-opacity: 0; fill: rgb(0, 0, 0); fill-opacity: 0;"/><text class="annotation-text" text-anchor="middle" x="29.078125" y="18" style="font-family: 'Open Sans', verdana, arial, sans-serif; font-size: 16px; fill: rgb(214, 223, 239); fill-opacity: 1; white-space: pre;">Trades</text></g></g></g><g class="annotation" data-index="1" style="opacity: 1;"><g class="annotation-text-g" transform="rotate(0,390.5,349.75373134328356)"><g class="cursor-pointer" transform="translate(349,338)"><rect class="bg" x="0.5" y="0.5" width="83" height="23" style="stroke-width: 1px; stroke: rgb(0, 0, 0); stroke-opacity: 0; fill: rgb(0, 0, 0); fill-opacity: 0;"/><text class="annotation-text" text-anchor="middle" x="42.0625" y="18" style="font-family: 'Open Sans', verdana, arial, sans-serif; font-size: 16px; fill: rgb(214, 223, 239); fill-opacity: 1; white-space: pre;">Trade PnL</text></g></g></g></g></svg>