<svg class="main-svg" xmlns="http://www.w3.org/2000/svg" xmlns:xlink="http://www.w3.org/1999/xlink" width="700" height="350" style="" viewBox="0 0 700 350"><rect x="0" y="0" width="700" height="350" style="fill: rgb(255, 255, 255); fill-opacity: 1;"/><defs id="defs-c1671b"><g class="clips"><clipPath id="clipc1671bxyplot" class="plotclip"><rect width="634" height="261"/></clipPath><clipPath class="axesclip" id="clipc1671bx"><rect x="36" y="0" width="634" height="350"/></clipPath><clipPath class="axesclip" id="clipc1671by"><rect x="0" y="46" width="700" height="261"/></clipPath><clipPath class="axesclip" id="clipc1671bxy"><rect x="36" y="46" width="634" height="261"/></clipPath></g><g class="gradients"/><g class="patterns"/></defs><g class="bglayer"><rect class="bg" x="36" y="46" width="634" height="261" style="fill: rgb(229, 236, 246); fill-opacity: 1; stroke-width: 0;"/></g><g class="layer-below"><g class="imagelayer"/><g class="shapelayer"/></g><g class="cartesianlayer"><g class="subplot xy"><g class="layer-subplot"><g class="shapelayer"/><g class="imagelayer"/></g><g class="minor-gridlayer"><g class="x"/><g class="y"/></g><g class="gridlayer"><g class="x"><path class="xgrid crisp" transform="translate(115.35,0)" d="M0,46v261" style="stroke: rgb(255, 255, 255); stroke-opacity: 1; stroke-width: 1px;"/><path class="xgrid crisp" transform="translate(254.22,0)" d="M0,46v261" style="stroke: rgb(255, 255, 255); stroke-opacity: 1; stroke-width: 1px;"/><path class="xgrid crisp" transform="translate(393.09,0)" d="M0,46v261" style="stroke: rgb(255, 255, 255); stroke-opacity: 1; stroke-width: 1px;"/><path class="xgrid crisp" transform="translate(531.96,0)" d="M0,46v261" style="stroke: rgb(255, 255, 255); stroke-opacity: 1; stroke-width: 1px;"/></g><g class="y"><path class="ygrid crisp" transform="translate(0,278.61)" d="M36,0h634" style="stroke: rgb(255, 255, 255); stroke-opacity: 1; stroke-width: 1px;"/><path class="ygrid crisp" transform="translate(0,239.86)" d="M36,0h634" style="stroke: rgb(255, 255, 255); stroke-opacity: 1; stroke-width: 1px;"/><path class="ygrid crisp" transform="translate(0,201.11)" d="M36,0h634" style="stroke: rgb(255, 255, 255); stroke-opacity: 1; stroke-width: 1px;"/><path class="ygrid crisp" transform="translate(0,162.36)" d="M36,0h634" style="stroke: rgb(255, 255, 255); stroke-opacity: 1; stroke-width: 1px;"/><path class="ygrid crisp" transform="translate(0,123.61)" d="M36,0h634" style="stroke: rgb(255, 255, 255); stroke-opacity: 1; stroke-width: 1px;"/><path class="ygrid crisp" transform="translate(0,84.86)" d="M36,0h634" style="stroke: rgb(255, 255, 255); stroke-opacity: 1; stroke-width: 1px;"/></g></g><g class="zerolinelayer"/><path class="xlines-below"/><path class="ylines-below"/><g class="overlines-below"/><g class="xaxislayer-below"/><g class="yaxislayer-below"/><g class="overaxes-below"/><g class="plot" transform="translate(36,46)" clip-path="url(#clipc1671bxyplot)"><g class="scatterlayer mlayer"><g class="trace scatter trace35e50bbe-8408-429f-973f-1b3fbfcef76b" style="stroke-miterlimit: 2; opacity: 1;"><g class="fills"/><g class="errorbars"/><g class="lines"><path class="js-line" d="M0,236.98L1.65,229.31L2.48,231.83L4.13,231.44L4.96,230.9L5.79,231.68L6.61,231.21L7.44,231.95L8.27,229.89L9.09,229.74L9.92,226.37L10.75,226.1L11.57,225.01L12.4,224.55L13.23,221.56L14.88,224.7L15.71,225.4L16.53,224.16L17.36,225.71L18.19,231.56L19.01,229.62L19.84,230.01L20.66,232.02L22.32,236.09L23.14,234.35L23.97,234.04L24.8,234.85L25.62,235.47L26.45,231.79L28.93,234.43L29.76,232.76L30.58,235.12L31.41,235.05L32.24,234.19L33.06,241.91L33.89,242.68L34.72,242.33L35.54,241.83L36.37,243.61L37.2,241.44L38.02,242.72L39.68,243.96L40.5,247.95L41.33,244.54L42.16,244.66L42.98,235.32L43.81,235.67L44.64,235.82L45.46,237.02L46.29,224.27L47.12,223.5L47.94,224.7L48.77,223.07L49.6,223.96L50.42,218.89L51.25,226.1L52.08,222.8L53.73,217.22L54.56,219.04L56.21,219.24L57.04,222.92L57.86,220.83L58.69,215.75L60.34,220.94L61.17,219.16L61.99,219.66L62.82,218.38L63.65,218.42L64.47,217.3L65.3,217.45L66.13,218.66L66.95,216.6L67.78,219.43L68.61,218L69.43,221.79L71.91,219.97L72.74,220.63L73.57,214.78L74.39,219L76.87,216.64L77.7,216.72L78.53,216.33L79.35,214.16L80.18,210.71L81.01,211.45L81.83,208.74L82.66,209.7L83.49,208.62L84.31,208.93L85.14,209.28L85.97,211.76L86.79,211.99L87.62,213.7L88.45,212.96L89.27,209.7L90.93,210.98L91.75,204.47L92.58,204.86L93.41,202.38L95.89,202.19L96.71,211.8L97.54,213.08L98.37,211.8L99.19,210.71L100.02,204.63L101.67,195.83L102.5,196.1L104.98,198.23L105.8,191.34L106.63,190.64L107.46,186.22L108.28,187.89L109.11,184.94L109.94,192.93L110.76,189.55L111.59,193.08L112.42,191.22L113.24,186.84L114.07,189.63L114.9,188.62L115.72,185.45L116.55,187.38L117.38,182.04L118.2,177.77L119.03,179.25L120.68,178.43L121.51,180.29L122.34,184.21L123.16,182.35L124.82,182.73L125.64,181.61L126.47,183.97L127.3,182.7L128.12,183.7L128.95,189.48L130.6,190.76L131.43,195.87L133.08,183.32L133.91,184.44L134.74,181.49L135.56,175.41L137.22,185.37L138.04,183.01L138.87,164.6L139.69,172.12L140.52,176.26L141.35,176.5L142.17,174.36L143,175.26L143.83,174.05L144.65,180.06L145.48,178.86L146.31,181.03L147.13,178.78L147.96,180.29L148.79,184.71L149.61,182L151.27,188.35L152.09,198.47L152.92,198.58L153.75,196.34L154.57,202.23L155.4,197.19L156.23,197.03L157.05,192L157.88,191.07L158.71,194.28L159.53,190.1L160.36,192.31L161.19,194.09L162.01,193.93L162.84,197.11L163.67,196.14L164.49,194.13L165.32,196.37L166.15,200.52L166.97,198.16L167.8,200.68L168.63,199.82L170.28,202.34L171.11,200.83L171.93,209.67L172.76,209.2L173.59,209.63L174.41,203.39L175.24,202.57L176.07,205.52L177.72,202.61L178.54,204.86L180.2,207.26L181.02,205.56L182.68,210.21L183.5,206.95L184.33,206.91L185.16,209.12L185.98,209.28L186.81,206.18L188.46,194.4L189.29,198.58L190.94,184.13L191.77,189.59L194.25,180.6L195.08,181.42L196.73,182.7L197.56,175.1L198.38,180.1L199.21,177.81L203.34,182.66L204.17,182.5L205,183.2L205.82,179.17L207.48,183.66L208.3,183.35L209.13,180.1L209.96,184.01L210.78,180.64L211.61,169.29L213.26,168.13L214.09,169.48L214.92,171.03L215.74,178.9L217.4,184.63L218.22,181.34L219.05,181.15L219.87,177.97L221.53,179.94L222.35,177.97L224.01,176.26L224.83,175.14L225.66,176.77L226.49,180.1L227.31,180.37L228.14,179.63L228.97,173.82L229.79,177.58L230.62,174.79L231.45,178.55L233.1,175.91L233.93,176.57L234.75,175.49L235.58,176.69L237.23,168.51L238.06,174.52L238.89,173.28L239.71,182.54L241.37,178.94L242.19,180.68L243.02,184.48L243.85,182.73L244.67,179.83L245.5,181.03L246.33,178.47L247.15,183.12L247.98,181.61L248.81,182.5L250.46,182.89L251.29,180.49L252.11,182L252.94,180.91L253.77,180.29L254.59,176.73L256.25,178.86L257.07,179.98L258.72,165.41L259.55,165.96L261.2,158.52L262.03,161.15L263.68,158.98L264.51,157.78L266.16,153.25L266.99,149.06L267.82,150.88L268.64,139.3L271.12,119.46L271.95,101.21L272.78,94.62L273.6,95.35L274.43,102.83L275.26,100.9L276.08,101.48L276.91,94.5L277.74,80.44L278.56,88.22L279.39,89.39L280.22,106.13L281.04,114.23L281.87,112.71L282.7,104.07L283.52,110.39L284.35,108.76L285.18,96.09L286,88.3L286.83,99.19L287.66,94.54L288.48,84.39L290.14,107.02L290.96,100.28L291.79,97.18L292.62,102.14L294.27,91.87L295.1,95.74L295.92,90.32L296.75,91.56L298.4,114.5L299.23,115.23L300.05,116.94L300.88,114.85L302.53,107.87L303.36,112.48L305.01,111.75L305.84,106.71L306.67,100.59L307.49,106.36L308.32,109.73L309.15,107.52L309.97,106.59L310.8,108.8L311.63,103.34L312.45,103.38L313.28,102.52L314.11,94.81L314.93,103.22L315.76,100.31L316.59,100.04L317.41,101.71L319.07,94.39L319.89,96.44L320.72,90.55L321.55,77.84L322.37,85.2L323.2,73.42L324.85,69.55L325.68,74.58L326.51,77.65L327.33,85.28L328.16,83.07L328.99,91.98L330.64,77.45L331.47,76.25L332.29,68.42L333.12,80.59L333.95,80.98L334.77,72.49L335.6,70.83L336.43,78.19L337.25,65.17L338.08,67.53L338.9,73.03L339.73,70.13L341.38,85.01L342.21,85.67L343.04,85.09L343.86,83.42L344.69,80.13L345.52,81.44L346.34,81.21L347.17,73.65L348.82,49.55L349.65,56.18L350.48,62.46L351.3,58.66L352.13,62.65L352.96,58.35L353.78,56.33L354.61,51.95L355.44,50.79L356.26,61.56L357.09,53.47L357.92,56.95L358.74,53.08L359.57,53.39L360.4,54.59L361.22,53.89L362.05,56.84L362.88,52.23L363.7,52.73L364.53,56.29L365.36,60.91L366.18,90.7L367.84,99.38L368.66,99.23L370.32,96.13L371.14,96.48L371.97,99.46L372.8,97.29L373.62,98.88L374.45,93.84L376.1,90.05L376.93,94.35L378.58,95.2L379.41,94.42L380.23,97.95L381.06,94.42L381.89,93.77L382.71,94.54L383.54,95.63L384.37,98.34L385.19,97.52L386.02,104.58L386.85,106.48L387.67,100.78L389.33,89.89L390.15,89.7L390.98,91.94L391.81,91.17L392.63,86.64L393.46,87.99L394.29,88.15L395.11,87.33L396.77,91.48L397.59,89L398.42,87.76L399.25,84.19L400.9,88.65L401.73,88.34L402.55,91.05L403.38,88.81L404.21,90.16L405.03,85.32L405.86,85.63L406.69,84.97L407.51,81.95L408.34,84.43L409.17,84.97L409.99,86.71L410.82,86.48L411.65,89L412.47,96.52L413.3,84.12L414.95,80.09L415.78,79.58L416.6,78.73L417.43,81.13L418.26,83.15L419.08,82.68L419.91,79.74L420.74,81.64L421.56,78.19L422.39,80.71L423.22,83.65L424.04,81.52L425.7,85.36L426.52,85.32L427.35,91.44L428.18,89.43L429,87.6L429.83,83.73L430.66,83.96L431.48,85.36L433.14,84.74L433.96,85.71L434.79,87.02L435.62,85.09L436.44,88.61L437.27,97.29L438.1,93.53L438.92,95.28L441.4,101.32L442.23,97.45L443.88,102.87L444.71,102.52L445.54,105.89L446.36,105.58L447.19,110.12L448.02,107.83L448.84,104.15L449.67,107.13L450.5,109.61L451.32,117.13L454.63,104.73L455.46,105.47L456.28,104.46L457.11,111.09L457.93,121.67L458.76,120.27L459.59,122.91L460.41,118.64L461.24,118.14L462.07,119.26L462.89,120.66L463.72,131.31L464.55,130.5L465.37,113.92L467.03,109.65L467.85,108.45L468.68,106.2L469.51,112.79L470.33,111.78L471.16,109.5L471.99,101.98L472.81,103.38L474.47,104.46L475.29,106.51L476.12,121.67L476.95,122.21L477.77,119.3L478.6,120.04L480.25,117.79L481.08,118.6L481.91,118.18L482.73,111.63L485.21,119.11L486.04,120.89L486.87,116.12L487.69,116.32L489.35,112.33L490.17,114.85L492.65,111.75L493.48,110.23L495.96,115.89L496.78,115.27L497.61,117.75L498.44,111.63L499.26,113.02L500.09,112.48L500.92,113.22L501.74,111.59L502.57,107.02L503.4,107.17L505.88,102.64L506.7,103.53L508.36,103.3L509.18,97.99L510.01,91.4L510.84,91.71L511.66,92.41L512.49,90.94L513.32,88.38L514.14,89.08L515.8,83.57L516.62,84.35L517.45,86.6L518.28,86.52L519.1,89.27L519.93,88.84L520.76,87.68L521.58,87.99L522.41,93.65L523.24,91.17L524.06,93.34L524.89,83.03L525.72,79.35L526.54,81.09L527.37,77.34L528.2,77.49L529.02,76.44L529.85,78.77L530.68,72.69L531.5,72.96L532.33,69.97L533.16,71.45L534.81,77.3L535.63,72.03L536.46,64.39L537.29,64.97L538.11,65.52L538.94,68.19L540.59,71.64L541.42,69.86L543.07,74.89L543.9,70.28L544.73,70.05L545.55,71.87L547.21,69.31L548.03,68.5L548.86,73.34L549.69,73.62L550.51,73.85L551.34,72.84L552.17,68.19L552.99,70.05L555.47,55.13L556.3,50.91L557.13,55.17L557.95,52.54L558.78,53.08L559.61,51.26L562.09,45.37L562.91,52.85L563.74,47.58L564.57,53.7L565.39,55.95L566.22,55.02L567.05,52.69L567.87,57.88L568.7,51.3L569.53,53.97L571.18,51.92L572.01,52.42L573.66,54.82L574.49,63.19L575.31,65.9L576.14,62.69L576.96,68.5L577.79,64.28L578.62,61.14L579.44,62.69L580.27,62.07L581.1,54.01L582.75,55.02L583.58,59.05L584.4,57.19L585.23,52.77L586.06,50.17L586.88,55.4L587.71,48.04L588.54,47.65L590.19,34.63L591.02,33.04L592.67,18.86L593.5,13.05L595.15,23.05L595.98,23.4L596.8,26.46L597.63,25.6L599.28,33.97L600.11,26.38L600.94,29.25L601.76,28.2L604.24,35.37L605.07,46.57L605.9,45.72L606.72,46.88L607.55,38.7L608.38,44.75L609.2,44.94L610.03,40.91L610.86,41.14L611.68,36.92L612.51,35.18L613.34,31.57L614.16,38.9L614.99,34.63L615.81,24.29L616.64,23.82L617.47,25.26L618.29,31.3L619.12,33.01L619.95,30.84L620.77,26.73L621.6,34.25L623.25,33.74L624.08,35.21L624.91,38.55L625.73,31.34L626.56,31.61L627.39,33.12L628.21,25.29L629.04,27.46L629.87,25.68L630.69,27.97L631.52,25.68L632.35,28.05L634,24.91" style="vector-effect: none; fill: none; stroke: rgb(31, 119, 180); stroke-opacity: 1; stroke-width: 2px; opacity: 1;"/></g><g class="points"/><g class="text"/></g><g class="trace scatter trace8aa18047-a438-4bcc-a097-0d0e655714f5" style="stroke-miterlimit: 2; opacity: 1;"><g class="fills"/><g class="errorbars"/><g class="lines"><path class="js-line" d="M33.06,225.11L33.89,229.93L34.72,229.93L39.68,230.47L40.5,232.74L45.46,232.74" style="vector-effect: none; fill: none; stroke: rgb(255, 127, 14); stroke-opacity: 1; stroke-width: 2px; opacity: 1;"/><path class="js-line" d="M152.09,166.36L152.92,171.83L153.75,171.83L165.32,172.41L166.15,175.65L168.63,178.16L169.45,178.16L171.11,179.75L171.93,183.41L173.59,188.05L174.41,188.05L181.85,188.05L182.68,189.28L190.12,190.01" style="vector-effect: none; fill: none; stroke: rgb(255, 127, 14); stroke-opacity: 1; stroke-width: 2px; opacity: 1;"/><path class="js-line" d="M366.18,37.1L367.84,57.18L368.66,57.18L371.14,57.18L371.97,58.21L374.45,60.43L375.28,60.43L379.41,60.61L380.23,61.63L381.89,62.78L382.71,62.78L385.19,67.76L386.02,72.02L387.67,73.56L388.5,73.56L437.27,73.56L438.1,75.66L438.92,75.66L439.75,76.8L440.58,80.83L441.4,81.06L443.88,81.6L444.71,82.55L445.54,83.35L446.36,85.34L448.02,87.91L448.84,87.91L450.5,87.91L451.32,90.85L452.98,92.18L453.8,92.18L457.93,92.18L458.76,93.96L462.07,94.91L462.89,96.29L464.55,103.05L465.37,103.05L471.16,103.05" style="vector-effect: none; fill: none; stroke: rgb(255, 127, 14); stroke-opacity: 1; stroke-width: 2px; opacity: 1;"/></g><g class="points"/><g class="text"/></g><g class="trace scatter trace06a5fddd-983a-43c5-94c5-7782d131ddff" style="stroke-miterlimit: 2; opacity: 1;"><g class="fills"/><g class="errorbars"/><g class="lines"><path class="js-line" d="M15.71,237.8L18.19,236.99L19.01,236.99L32.24,236.99" style="vector-effect: none; fill: none; stroke: rgb(44, 160, 44); stroke-opacity: 1; stroke-width: 2px; opacity: 1;"/><path class="js-line" d="M46.29,246.44L47.12,241.57L47.94,241.57L49.6,240.89L50.42,238.47L58.69,237.93L59.51,237.54L62.82,237.54L63.65,236.64L65.3,235.48L66.13,235.23L71.91,235.11L72.74,235.11L74.39,233.39L75.22,233.39L78.53,233.21L79.35,230.76L82.66,224.22L83.49,224.22L90.93,224.22L91.75,222.1L92.58,219.94L93.41,219.94L94.23,219.94L95.06,218.91L96.71,218.27L97.54,218.27L100.84,218.27L101.67,217.32L102.5,214.86L103.32,214.86L104.98,214.86L105.8,213L106.63,211.11L107.46,206.85L109.94,205.74L110.76,205.74L117.38,205.61L118.2,202.57L119.03,200.18L119.86,200.18L121.51,198.89L122.34,198.89L138.87,198.89L139.69,195.51L151.27,195.51" style="vector-effect: none; fill: none; stroke: rgb(44, 160, 44); stroke-opacity: 1; stroke-width: 2px; opacity: 1;"/><path class="js-line" d="M190.94,210.51L191.77,208.72L192.6,208.72L193.42,204.64L194.25,204.64L197.56,204.08L198.38,203.13L200.04,201.94L200.86,201.94L210.78,201.94L211.61,199L212.44,191.04L213.26,191.04L257.9,191.04L258.72,185.69L259.55,185.19L260.38,182.06L261.2,175.74L262.03,175.74L264.51,175.74L265.34,173.07L266.16,173.07L266.99,171.6L268.64,167.52L269.47,159.43L271.12,159.43L271.95,143.04L272.78,130.75L273.6,130.75L320.72,130.3L321.55,123.75L322.37,119.6L323.2,119.6L324.03,111.56L324.85,111.56L347.17,111.56L348,108.32L348.82,96.03L349.65,96.03L354.61,96.03L355.44,94.74L358.74,94.74L359.57,93.02L362.88,93.02L363.7,90.65L365.36,90.65" style="vector-effect: none; fill: none; stroke: rgb(44, 160, 44); stroke-opacity: 1; stroke-width: 2px; opacity: 1;"/><path class="js-line" d="M471.99,134.1L473.64,131.47L474.47,131.47L501.74,131.47L502.57,129.56L504.22,127.76L505.05,125.95L505.88,123.89L506.7,123.89L507.53,123.89L508.36,123.04L509.18,121.35L510.01,115.36L510.84,112.57L511.66,112.57L513.32,109.62L514.14,109.23L514.97,107.91L515.8,103.32L519.1,103.11L519.93,103.11L525.72,103.11L526.54,101.48L527.37,101.48L528.2,99.9L530.68,99.9L531.5,96.89L533.16,96.05L533.98,96.05L535.63,96.05L536.46,92.81L537.29,90.67L538.11,90.67L553.82,90.61L554.65,86.54L556.3,79.04L557.13,79.04L558.78,78.74L559.61,77.52L560.43,73.84L561.26,73.84L562.09,71.59L562.91,71.59L589.36,71.59L590.19,67.1L591.02,63.82L591.84,56.95L593.5,50.28L594.32,50.28L634,50.28" style="vector-effect: none; fill: none; stroke: rgb(44, 160, 44); stroke-opacity: 1; stroke-width: 2px; opacity: 1;"/></g><g class="points"/><g class="text"/></g></g></g><g class="overplot"/><path class="xlines-above crisp" d="M0,0" style="fill: none;"/><path class="ylines-above crisp" d="M0,0" style="fill: none;"/><g class="overlines-above"/><g class="xaxislayer-above"><g class="xtick"><text text-anchor="middle" x="0" y="320" transform="translate(115.35,0)" style="font-family: 'Open Sans', verdana, arial, sans-serif; font-size: 12px; fill: rgb(42, 63, 95); fill-opacity: 1; white-space: pre; opacity: 1;"><tspan class="line" dy="0em" x="0" y="320">Jan 5</tspan><tspan class="line" dy="1.3em" x="0" y="320">2020</tspan></text></g><g class="xtick"><text text-anchor="middle" x="0" y="320" style="font-family: 'Open Sans', verdana, arial, sans-serif; font-size: 12px; fill: rgb(42, 63, 95); fill-opacity: 1; white-space: pre; opacity: 1;" transform="translate(254.22,0)">Jan 12</text></g><g class="xtick"><text text-anchor="middle" x="0" y="320" style="font-family: 'Open Sans', verdana, arial, sans-serif; font-size: 12px; fill: rgb(42, 63, 95); fill-opacity: 1; white-space: pre; opacity: 1;" transform="translate(393.09,0)">Jan 19</text></g><g class="xtick"><text text-anchor="middle" x="0" y="320" style="font-family: 'Open Sans', verdana, arial, sans-serif; font-size: 12px; fill: rgb(42, 63, 95); fill-opacity: 1; white-space: pre; opacity: 1;" transform="translate(531.96,0)">Jan 26</text></g></g><g class="yaxislayer-above"><g class="ytick"><text text-anchor="end" x="35" y="4.199999999999999" transform="translate(0,278.61)" style="font-family: 'Open Sans', verdana, arial, sans-serif; font-size: 12px; fill: rgb(42, 63, 95); fill-opacity: 1; white-space: pre; opacity: 1;">130</text></g><g class="ytick"><text text-anchor="end" x="35" y="4.199999999999999" style="font-family: 'Open Sans', verdana, arial, sans-serif; font-size: 12px; fill: rgb(42, 63, 95); fill-opacity: 1; white-space: pre; opacity: 1;" transform="translate(0,239.86)">140</text></g><g class="ytick"><text text-anchor="end" x="35" y="4.199999999999999" style="font-family: 'Open Sans', verdana, arial, sans-serif; font-size: 12px; fill: rgb(42, 63, 95); fill-opacity: 1; white-space: pre; opacity: 1;" transform="translate(0,201.11)">150</text></g><g class="ytick"><text text-anchor="end" x="35" y="4.199999999999999" style="font-family: 'Open Sans', verdana, arial, sans-serif; font-size: 12px; fill: rgb(42, 63, 95); fill-opacity: 1; white-space: pre; opacity: 1;" transform="translate(0,162.36)">160</text></g><g class="ytick"><text text-anchor="end" x="35" y="4.199999999999999" style="font-family: 'Open Sans', verdana, arial, sans-serif; font-size: 12px; fill: rgb(42, 63, 95); fill-opacity: 1; white-space: pre; opacity: 1;" transform="translate(0,123.61)">170</text></g><g class="ytick"><text text-anchor="end" x="35" y="4.199999999999999" style="font-family: 'Open Sans', verdana, arial, sans-serif; font-size: 12px; fill: rgb(42, 63, 95); fill-opacity: 1; white-space: pre; opacity: 1;" transform="translate(0,84.86)">180</text></g><g class="ytick"><text text-anchor="end" x="35" y="4.199999999999999" style="font-family: 'Open Sans', verdana, arial, sans-serif; font-size: 12px; fill: rgb(42, 63, 95); fill-opacity: 1; white-space: pre; opacity: 1;" transform="translate(0,46.11)">190</text></g></g><g class="overaxes-above"/></g></g><g class="polarlayer"/><g class="smithlayer"/><g class="ternarylayer"/><g class="geolayer"/><g class="funnelarealayer"/><g class="pielayer"/><g class="iciclelayer"/><g class="treemaplayer"/><g class="sunburstlayer"/><g class="glimages"/><defs id="topdefs-c1671b"><g class="clips"/><clipPath id="legendc1671b"><rect width="230" height="29" x="0" y="0"/></clipPath></defs><g class="layer-above"><g class="imagelayer"/><g class="shapelayer"/></g><g class="infolayer"><g class="legend" pointer-events="all" transform="translate(440,11.779999999999994)"><rect class="bg" shape-rendering="crispEdges" width="230" height="29" x="0" y="0" style="stroke: rgb(68, 68, 68); stroke-opacity: 1; fill: rgb(255, 255, 255); fill-opacity: 1; stroke-width: 0px;"/><g class="scrollbox" transform="" clip-path="url(#legendc1671b)"><g class="groups"><g class="traces" transform="translate(0,14.5)" style="opacity: 1;"><text class="legendtext" text-anchor="start" x="40" y="4.680000000000001" style="font-family: 'Open Sans', verdana, arial, sans-serif; font-size: 12px; fill: rgb(42, 63, 95); fill-opacity: 1; white-space: pre;">Close</text><g class="layers" style="opacity: 1;"><g class="legendfill"/><g class="legendlines"><path class="js-line" d="M5,0h30" style="fill: none; stroke: rgb(31, 119, 180); stroke-opacity: 1; stroke-width: 2px;"/></g><g class="legendsymbols"><g class="legendpoints"/></g></g><rect class="legendtoggle" x="0" y="-9.5" width="74.859375" height="19" style="fill: rgb(0, 0, 0); fill-opacity: 0;"/></g><g class="traces" transform="translate(77.359375,14.5)" style="opacity: 1;"><text class="legendtext" text-anchor="start" x="40" y="4.680000000000001" style="font-family: 'Open Sans', verdana, arial, sans-serif; font-size: 12px; fill: rgb(42, 63, 95); fill-opacity: 1; white-space: pre;">Short</text><g class="layers" style="opacity: 1;"><g class="legendfill"/><g class="legendlines"><path class="js-line" d="M5,0h30" style="fill: none; stroke: rgb(255, 127, 14); stroke-opacity: 1; stroke-width: 2px;"/></g><g class="legendsymbols"><g class="legendpoints"/></g></g><rect class="legendtoggle" x="0" y="-9.5" width="75.4375" height="19" style="fill: rgb(0, 0, 0); fill-opacity: 0;"/></g><g class="traces" transform="translate(155.296875,14.5)" style="opacity: 1;"><text class="legendtext" text-anchor="start" x="40" y="4.680000000000001" style="font-family: 'Open Sans', verdana, arial, sans-serif; font-size: 12px; fill: rgb(42, 63, 95); fill-opacity: 1; white-space: pre;">Long</text><g class="layers" style="opacity: 1;"><g class="legendfill"/><g class="legendlines"><path class="js-line" d="M5,0h30" style="fill: none; stroke: rgb(44, 160, 44); stroke-opacity: 1; stroke-width: 2px;"/></g><g class="legendsymbols"><g class="legendpoints"/></g></g><rect class="legendtoggle" x="0" y="-9.5" width="71.546875" height="19" style="fill: rgb(0, 0, 0); fill-opacity: 0;"/></g></g></g><rect class="scrollbar" rx="20" ry="3" width="0" height="0" x="0" y="0" style="fill: rgb(128, 139, 164); fill-opacity: 1;"/></g><g class="g-gtitle"/><g class="g-xtitle"/><g class="g-ytitle"/></g></svg>