<svg class="main-svg" xmlns="http://www.w3.org/2000/svg" xmlns:xlink="http://www.w3.org/1999/xlink" width="700" height="350" style="" viewBox="0 0 700 350"><rect x="0" y="0" width="700" height="350" style="fill: rgb(255, 255, 255); fill-opacity: 1;"/><defs id="defs-3390a6"><g class="clips"><clipPath id="clip3390a6xyplot" class="plotclip"><rect width="626" height="261"/></clipPath><clipPath class="axesclip" id="clip3390a6x"><rect x="44" y="0" width="626" height="350"/></clipPath><clipPath class="axesclip" id="clip3390a6y"><rect x="0" y="46" width="700" height="261"/></clipPath><clipPath class="axesclip" id="clip3390a6xy"><rect x="44" y="46" width="626" height="261"/></clipPath></g><g class="gradients"/><g class="patterns"/></defs><g class="bglayer"><rect class="bg" x="44" y="46" width="626" height="261" style="fill: rgb(229, 236, 246); fill-opacity: 1; stroke-width: 0;"/></g><g class="layer-below"><g class="imagelayer"/><g class="shapelayer"/></g><g class="cartesianlayer"><g class="subplot xy"><g class="layer-subplot"><g class="shapelayer"/><g class="imagelayer"/></g><g class="minor-gridlayer"><g class="x"/><g class="y"/></g><g class="gridlayer"><g class="x"><path class="xgrid crisp" transform="translate(122.35,0)" d="M0,46v261" style="stroke: rgb(255, 255, 255); stroke-opacity: 1; stroke-width: 1px;"/><path class="xgrid crisp" transform="translate(259.47,0)" d="M0,46v261" style="stroke: rgb(255, 255, 255); stroke-opacity: 1; stroke-width: 1px;"/><path class="xgrid crisp" transform="translate(396.58,0)" d="M0,46v261" style="stroke: rgb(255, 255, 255); stroke-opacity: 1; stroke-width: 1px;"/><path class="xgrid crisp" transform="translate(533.7,0)" d="M0,46v261" style="stroke: rgb(255, 255, 255); stroke-opacity: 1; stroke-width: 1px;"/></g><g class="y"><path class="ygrid crisp" transform="translate(0,280.4)" d="M44,0h626" style="stroke: rgb(255, 255, 255); stroke-opacity: 1; stroke-width: 1px;"/><path class="ygrid crisp" transform="translate(0,237.43)" d="M44,0h626" style="stroke: rgb(255, 255, 255); stroke-opacity: 1; stroke-width: 1px;"/><path class="ygrid crisp" transform="translate(0,194.45)" d="M44,0h626" style="stroke: rgb(255, 255, 255); stroke-opacity: 1; stroke-width: 1px;"/><path class="ygrid crisp" transform="translate(0,151.48000000000002)" d="M44,0h626" style="stroke: rgb(255, 255, 255); stroke-opacity: 1; stroke-width: 1px;"/><path class="ygrid crisp" transform="translate(0,108.5)" d="M44,0h626" style="stroke: rgb(255, 255, 255); stroke-opacity: 1; stroke-width: 1px;"/><path class="ygrid crisp" transform="translate(0,65.53)" d="M44,0h626" style="stroke: rgb(255, 255, 255); stroke-opacity: 1; stroke-width: 1px;"/></g></g><g class="zerolinelayer"/><path class="xlines-below"/><path class="ylines-below"/><g class="overlines-below"/><g class="xaxislayer-below"/><g class="yaxislayer-below"/><g class="overaxes-below"/><g class="plot" transform="translate(44,46)" clip-path="url(#clip3390a6xyplot)"><g class="scatterlayer mlayer"><g class="trace scatter trace372dd95e-1a60-487b-9878-bccab36a4cd3" style="stroke-miterlimit: 2; opacity: 1;"><g class="fills"/><g class="errorbars"/><g class="lines"><path class="js-line" d="M0,219.19L1.63,213.53L2.45,215.06L3.26,215.73L4.08,215.13L4.9,215.01L5.71,216.37L7.35,218.18L8.16,217.04L8.98,217.45L9.79,215.01L11.43,215.37L12.24,214.27L13.06,213.31L13.87,214.05L14.69,213.72L15.51,214.68L17.14,214.36L17.96,217.38L19.59,216.26L20.4,217.99L22.04,223.26L22.85,222.18L24.49,222.72L25.3,224.9L26.93,220.48L27.75,220.49L28.57,222.39L29.38,220.8L30.2,223.13L31.01,222.75L31.83,223.14L32.65,229.9L33.46,236.98L34.28,236.63L35.1,235.84L35.91,238.83L36.73,236.32L37.54,236.57L38.36,237.35L39.18,239.82L39.99,243.95L40.81,238.11L41.62,238.52L42.44,216.34L43.26,215.45L44.07,217.02L44.89,216.94L45.71,212L46.52,204.46L47.34,207.56L48.15,205.14L48.97,206.66L49.79,204.42L50.6,212.51L52.23,201.22L53.05,203.87L55.5,207.16L56.32,210.08L57.13,208.57L57.95,204.75L58.76,208.42L59.58,207.83L61.21,205.77L62.03,205.62L63.66,203.89L64.48,204.48L65.29,204.61L66.11,203.13L66.93,207.04L67.74,205.48L69.37,208.28L70.19,207.18L71.01,206.98L71.82,208.01L72.64,204.15L73.46,208.02L75.09,205.09L75.9,204.26L77.54,203.97L78.35,202.3L79.17,194.94L79.98,196.26L80.8,193.49L81.62,195.11L84.07,194.55L84.88,197.44L85.7,197.64L86.51,198.72L87.33,198.1L88.15,195.12L88.96,197.34L89.78,197.29L90.59,194.14L91.41,194.75L92.23,194.47L93.04,196.69L93.86,196.23L94.68,197.31L96.31,203.83L97.12,203.57L97.94,201.85L98.76,198L99.57,187.01L100.39,187.91L101.2,188.89L102.02,188.6L103.65,190.75L104.47,187.34L106.1,186.17L106.92,187.58L107.73,186.49L108.55,188.97L109.37,187.31L110.18,189.71L111,188.91L111.81,186.4L112.63,188.59L113.45,188L114.26,187.02L115.08,184.69L117.53,158.04L118.34,156.56L119.98,157.49L120.79,162.13L122.43,159.38L123.24,158.48L124.06,158.43L124.87,160.81L126.51,157.47L127.32,159.71L128.95,162.31L129.77,168.69L131.4,153.75L132.22,145.21L133.04,142.12L133.85,134.47L134.67,147.04L135.48,144.19L136.3,135.97L137.12,111.34L138.75,124.51L139.56,122.64L140.38,118.83L141.2,119.68L142.01,119.3L142.83,122.9L143.65,121.63L144.46,122.91L146.09,119.88L146.91,123.86L147.73,115.36L148.54,121.72L149.36,122.15L150.17,138.57L151.81,143.84L152.62,151.6L153.44,144.5L154.26,147.07L155.07,141.91L155.89,143.64L156.7,152.19L157.52,148.04L159.15,152.34L159.97,151.3L161.6,156.32L162.42,152.76L163.23,154.2L164.05,159.42L164.87,157.36L165.68,158.89L166.5,156.97L167.31,157.26L168.13,158.29L168.95,156.44L170.58,165.76L171.4,164.73L172.21,155.54L173.03,164.07L173.84,166.51L174.66,164.67L176.29,163.92L177.11,165.21L177.92,165.33L178.74,164.09L179.56,166.05L180.37,170.04L182.01,169.68L182.82,173.68L183.64,172.82L184.45,168.06L186.09,157.56L186.9,159.59L188.53,142.73L189.35,152.52L190.17,151.35L190.98,146.55L192.62,142.16L193.43,144.16L194.25,140.71L195.06,131.52L195.88,133.93L196.7,130.84L197.51,130.73L198.33,134.83L199.96,141.28L200.78,137.71L202.41,143.9L203.23,138.64L204.86,144.5L205.67,143.13L206.49,140.72L207.31,143.83L208.94,133.89L209.75,134.65L210.57,133.92L211.39,135.41L212.2,134.55L213.02,139.43L213.84,141.36L214.65,146.73L216.28,142.82L217.1,140.29L217.92,140.6L218.73,142.11L219.55,139.34L220.37,141.25L221.18,140.07L222,136.37L222.81,136.63L223.63,137.96L224.45,138.65L225.26,137.09L226.08,134.27L226.89,136.66L227.71,135.33L228.53,139.69L229.34,139.73L230.16,138.2L231.79,136.53L232.61,139.66L234.24,132.55L235.06,135.33L235.87,135.05L236.69,138.73L237.5,139.36L238.32,138.28L239.95,143.03L240.77,141.98L241.59,137.28L242.4,138.68L243.22,137.65L244.03,142.01L244.85,140.47L245.67,140.99L247.3,141.16L248.11,139L248.93,140.01L249.75,139.18L250.56,138.84L251.38,134.97L253.83,138.97L254.64,125.25L255.46,111.34L256.28,111.4L257.09,108.76L257.91,103.42L258.72,107.42L259.54,104.66L261.99,105.07L262.81,103.92L263.62,103.17L264.44,105.48L266.07,89.15L266.89,90.4L267.7,90.26L268.52,81.98L270.15,82.48L270.97,89.3L271.78,85.29L272.6,85.21L273.42,78.83L274.23,82.03L275.05,81.58L275.86,78.5L277.5,97.1L278.31,95.83L279.13,89.96L279.95,94.55L280.76,93.59L281.58,83.56L282.39,79.78L283.21,85.71L284.03,82.73L284.84,71.96L285.66,74.87L286.47,82.9L288.11,79.95L288.92,84.26L289.74,83L290.56,78.47L292.19,74.54L293,77.85L295.45,92.59L296.27,93.44L297.08,92.43L297.9,88.24L298.72,86.46L299.53,90.01L300.35,90.4L301.17,92.98L301.98,91.9L302.8,86.15L303.61,86.57L304.43,88.69L305.25,89.48L306.06,87.43L306.88,91.71L307.69,90.17L308.51,89.65L309.33,87.86L310.14,84.51L310.96,89.05L311.78,86.54L312.59,86.57L313.41,89.12L314.22,84.98L315.86,80.86L316.67,78.38L317.49,71.85L318.31,74.3L319.12,68.18L319.94,68.62L320.75,65.17L321.57,67.92L322.39,70.8L323.2,78.7L324.02,75.31L324.83,81.52L326.47,73.16L327.28,71.87L328.1,69.37L328.92,72.84L329.73,72.85L330.55,69.18L331.36,67.7L332.18,69.96L333,64.31L333.81,67.55L334.63,69.28L335.44,68.86L336.26,75.93L337.08,75.81L337.89,74.13L338.71,75.94L341.16,72.21L341.97,72.84L343.61,69.38L344.42,69.16L346.05,72.54L346.87,70.67L347.69,72.23L348.5,70.42L349.32,70.45L350.14,69.36L350.95,66.43L351.77,69.73L352.58,64.84L353.4,49.95L355.03,48.96L355.85,49.7L356.66,51.23L357.48,56.22L359.11,53.64L359.93,57.26L360.75,59.18L361.56,89.88L362.38,94.47L363.19,94.39L364.01,95.41L364.83,94.14L366.46,91.83L367.28,92.52L368.91,92.79L369.72,86.39L370.54,93.15L371.36,88.14L372.99,92.54L373.8,91.88L374.62,91.08L375.44,93.32L377.07,89.66L377.89,91.28L378.7,93.38L379.52,91.65L380.33,92.27L381.15,95.57L381.97,98.34L382.78,96.31L384.41,90.4L385.23,90.99L386.05,93.29L386.86,91.31L389.31,88.91L390.13,92.17L390.94,93.24L391.76,93.06L394.21,90.51L395.02,90.8L397.47,93.9L398.29,91.85L399.11,94.29L399.92,91.79L401.55,91.64L402.37,91.52L404.82,93.06L405.63,92.71L406.45,93.96L407.27,102.74L408.08,86.68L408.9,85.71L410.53,85.19L411.35,84.94L413.8,86.93L414.61,84.85L415.43,86.64L416.25,83.64L417.06,84.83L417.88,90.12L418.69,89.47L419.51,91.44L421.14,91.34L421.96,93.02L423.59,92.12L424.41,89.45L425.22,88.92L426.04,90.9L427.67,91.18L428.49,91.64L429.3,91.96L430.12,89.8L430.94,91.5L431.75,96.89L432.57,95.97L433.38,97.12L434.2,97.66L435.02,100.07L435.83,102.46L436.65,98.45L438.28,110.56L439.1,110.21L440.73,112.31L441.55,118.37L442.36,117.25L443.18,117.56L443.99,117.97L444.81,120.45L445.63,119.28L446.44,116.57L447.26,116.45L448.08,114.48L450.52,113.3L451.34,117.51L452.16,122.6L452.97,120.9L453.79,122.09L454.6,120.79L455.42,118.74L456.24,119.23L457.05,119.87L457.87,126.09L458.69,127.35L459.5,112.98L462.77,104.92L463.58,108.99L466.03,105.58L466.85,106.63L467.66,104.67L468.48,108.32L469.3,110.72L470.11,121.85L470.93,123.85L471.74,120.5L472.56,122.87L473.38,121.09L475.01,120.09L475.83,121.28L476.64,117.3L477.46,118.49L479.91,123.33L480.72,120.58L481.54,121.23L482.35,119.65L483.17,118.4L483.99,119.24L484.8,119.14L485.62,117.26L486.44,116.8L487.25,114.85L489.7,120.44L490.52,118.9L491.33,120.55L492.15,116.75L492.96,116.89L493.78,116.03L494.6,117.97L495.41,115.35L497.05,112.36L497.86,110.07L498.68,107.27L499.49,109.15L501.13,109.39L501.94,108.94L503.57,98.7L504.39,98.6L506.02,99.61L506.84,96.81L507.66,98.8L508.47,95.59L509.29,91.1L510.1,91.61L510.92,92.11L511.74,90.86L512.55,92.79L513.37,92.3L514.19,91.24L515,91.9L515.82,96.04L516.63,93.27L517.45,93.95L518.27,85.22L519.08,84.29L519.9,84.88L522.35,80.42L523.16,82.52L524.8,68.34L525.61,63.65L526.43,65.52L527.24,70.89L528.06,70.45L528.88,56.55L529.69,51.08L530.51,52.21L531.32,52.88L532.14,57.78L532.96,57.42L533.77,61.1L534.59,59.07L535.41,63.49L536.22,64.64L537.04,60.86L537.85,55.44L538.67,58.28L539.49,55.08L540.3,59.59L541.12,60.39L541.93,65.15L544.38,61.57L545.2,57.22L546.02,58.15L546.83,51.07L547.65,30.34L548.46,34.04L549.28,32.92L550.1,34.73L550.91,32.98L551.73,33.81L552.54,31.99L553.36,33.9L554.99,29.23L555.81,33.93L556.63,27.44L557.44,36.45L558.26,38.43L559.07,34.65L559.89,34.22L560.71,38.01L561.52,31.46L562.34,32.95L563.97,28.64L564.79,29.29L565.6,30.02L566.42,33.11L568.05,38.58L568.87,37.03L569.68,40.84L570.5,38.41L571.32,34.18L572.13,35.17L572.95,34.54L573.77,28.9L576.21,33.77L577.03,33.43L578.66,29.24L579.48,32.44L580.29,29.25L581.11,30.62L582.74,19.59L583.56,18.94L584.38,13.05L585.19,13.85L586.01,14.05L586.82,18.39L587.64,21.77L588.46,21.38L589.27,24.31L590.09,24.34L590.9,26.74L591.72,32.81L592.54,29.9L593.35,30.31L594.17,29.99L594.99,31.6L596.62,34.28L597.43,38.24L599.07,39.88L599.88,33.35L601.51,38.22L602.33,35.11L603.15,36.49L603.96,34.91L605.6,27.92L606.41,32.17L608.86,24.52L609.68,25.35L611.31,29.75L612.13,28.29L612.94,26.15L613.76,29.45L614.57,29.17L615.39,29.88L617.02,35.68L617.84,32.82L618.65,32.41L619.47,33.8L620.29,27.63L621.1,29.72L621.92,28.96L622.74,30.95L623.55,29.72L624.37,29.84L625.18,30.03L626,29.45" style="vector-effect: none; fill: none; stroke: rgb(31, 119, 180); stroke-opacity: 1; stroke-width: 2px; opacity: 1;"/></g><g class="points"/><g class="text"/></g><g class="trace scatter trace730f9b52-6481-4f05-b01c-704b49b67ee4" style="stroke-miterlimit: 2; opacity: 1;"><g class="fills"/><g class="errorbars"/><g class="lines"><path class="js-line" d="M22.04,213.9L24.49,214.69L25.3,215.6L32.65,215.6L33.46,220.13L35.1,222.6L35.91,224.33L37.54,225.36L38.36,226.8L40.81,229.8L41.62,229.8" style="vector-effect: none; fill: none; stroke: rgb(255, 127, 14); stroke-opacity: 1; stroke-width: 2px; opacity: 1;"/><path class="js-line" d="M150.99,107.63L153.44,117.32L154.26,117.32L155.89,117.32L156.7,118.21L158.34,121.02L159.15,126.08L161.6,134.27L162.42,134.27L163.23,134.99L164.05,138.13L164.87,138.25L165.68,140.56L168.95,141.13L169.76,142.7L171.4,148.09L172.21,148.09L178.74,148.3L179.56,149.2L182.01,154.78L182.82,156.4L186.9,156.4" style="vector-effect: none; fill: none; stroke: rgb(255, 127, 14); stroke-opacity: 1; stroke-width: 2px; opacity: 1;"/><path class="js-line" d="M361.56,48.65L363.19,65.93L364.01,65.93L364.83,68.88L365.64,68.88L367.28,71.99L368.09,74.15L369.72,75.6L370.54,75.6L379.52,76.35L380.33,77.38L382.78,81.16L383.6,81.16L396.66,81.85L397.47,83L404.82,83.67L405.63,84.25L408.08,86.36" style="vector-effect: none; fill: none; stroke: rgb(255, 127, 14); stroke-opacity: 1; stroke-width: 2px; opacity: 1;"/><path class="js-line" d="M431.75,82.33L432.57,85.21L433.38,85.27L434.2,86.1L435.02,88.6L437.47,88.63L438.28,89.7L439.1,93.29L439.91,93.29L440.73,93.29L441.55,95.91L442.36,98.24L443.18,98.24L444.81,100.95L445.63,102.85L451.34,102.85L452.16,104.71L453.79,104.86L454.6,105.57L456.24,106.27L457.05,107.09L458.69,110.04L459.5,110.04L460.32,110.04" style="vector-effect: none; fill: none; stroke: rgb(255, 127, 14); stroke-opacity: 1; stroke-width: 2px; opacity: 1;"/><path class="js-line" d="M470.11,96.9L470.93,103.98L471.74,103.98L472.56,103.98L473.38,105.16L478.27,105.66L479.09,106.66L480.72,107.9L481.54,107.9L483.99,107.9L484.8,109.01L497.86,109.37" style="vector-effect: none; fill: none; stroke: rgb(255, 127, 14); stroke-opacity: 1; stroke-width: 2px; opacity: 1;"/><path class="js-line" d="M597.43,18.66L598.25,21.38L599.07,21.38L626,21.38" style="vector-effect: none; fill: none; stroke: rgb(255, 127, 14); stroke-opacity: 1; stroke-width: 2px; opacity: 1;"/></g><g class="points"/><g class="text"/></g><g class="trace scatter tracec91b390a-366a-42fd-8a83-f3a80c4e1682" style="stroke-miterlimit: 2; opacity: 1;"><g class="fills"/><g class="errorbars"/><g class="lines"><path class="js-line" d="M4.9,220.39L21.22,220.3" style="vector-effect: none; fill: none; stroke: rgb(44, 160, 44); stroke-opacity: 1; stroke-width: 2px; opacity: 1;"/><path class="js-line" d="M42.44,247.95L44.07,237.08L44.89,235.79L47.34,227.63L48.15,226.07L50.6,223.17L51.42,223.17L60.4,222.57L61.21,219.78L62.03,219.08L62.84,217.05L64.48,215.71L65.29,215.59L66.93,214.53L67.74,214.53L77.54,214.53L78.35,213.35L80.8,207.88L81.62,206.99L89.78,206.47L90.59,205.45L92.23,204.12L93.04,204.12L98.76,204.12L99.57,207.11L101.2,203.76L102.02,203.76L105.29,200.4L106.1,198.36L114.26,198.33L115.08,196.31L115.9,193.86L116.71,188.5L119.16,176.98L119.98,176.36L122.43,176.36L123.24,175.2L124.87,173.44L125.69,172.78L126.51,169.6L127.32,169.6L132.22,169.6L133.04,168.07L133.85,166.2L134.67,166.2L136.3,166.2L137.12,163.03L137.93,153.94L138.75,153.94L140.38,153.94L141.2,151.21L142.01,148.33L142.83,148.33L143.65,148.33L144.46,146.9L146.09,140.33L146.91,140.33L150.17,140.33" style="vector-effect: none; fill: none; stroke: rgb(44, 160, 44); stroke-opacity: 1; stroke-width: 2px; opacity: 1;"/><path class="js-line" d="M187.72,177.33L188.53,170.87L189.35,170.87L194.25,170.49L195.06,166.99L196.7,158.2L197.51,158.2L208.94,157.65L209.75,152.24L211.39,152.24L212.2,151.24L224.45,151.24L225.26,150.39L227.71,148.05L228.53,148.05L250.56,147.81L251.38,146.83L253.01,146.3L253.83,146.3L254.64,146.5L255.46,137.84L257.09,133.35L257.91,126.48L259.54,126.48L260.36,123.96L261.99,122.34L262.81,122.34L264.44,120.52L265.25,120.52L266.89,113.65L267.7,113.65L271.78,113.65L272.6,112.7L273.42,110.36L274.23,110.36L282.39,109.9L283.21,109.5L284.03,109.04L284.84,103.94L291.37,103.94L292.19,101.46L294.64,101.17L295.45,101.17L315.04,100.47L315.86,97.41L316.67,97.41L317.49,94.32L318.31,91.41L319.12,91.41L321.57,88.36L322.39,88.36L341.97,87.87L342.79,85.87L344.42,82.51L345.24,82.51L350.14,82.34L350.95,80.01L352.58,80.01L353.4,75.36L355.03,65.77L355.85,65.77L360.75,65.77" style="vector-effect: none; fill: none; stroke: rgb(44, 160, 44); stroke-opacity: 1; stroke-width: 2px; opacity: 1;"/><path class="js-line" d="M408.9,102.32L409.72,102.32L410.53,101.3L412.16,100.68L412.98,100.68L415.43,97.25L416.25,96.28L430.94,96.28" style="vector-effect: none; fill: none; stroke: rgb(44, 160, 44); stroke-opacity: 1; stroke-width: 2px; opacity: 1;"/><path class="js-line" d="M461.13,129.47L462.77,126.45L463.58,124.96L464.4,124.96L465.22,123.02L466.85,121.2L467.66,120.73L469.3,120.73" style="vector-effect: none; fill: none; stroke: rgb(44, 160, 44); stroke-opacity: 1; stroke-width: 2px; opacity: 1;"/><path class="js-line" d="M498.68,122.2L501.13,121.15L501.94,119.87L502.76,118.73L503.57,115.8L504.39,111.87L505.21,111.87L508.47,110.8L509.29,106.53L510.92,104.84L511.74,104.71L513.37,104.71L514.19,103.86L515.82,102.4L516.63,102.4L519.08,101.84L519.9,99.35L520.71,99.35L521.53,96.51L523.16,95.66L523.98,94.69L525.61,85.62L526.43,84.32L528.88,84.32L529.69,75.61L530.51,73.41L531.32,73.41L546.83,73.41L547.65,71.37L549.28,60.22L550.1,60.22L550.91,59.66L551.73,57.37L553.36,53.04L554.18,53.04L554.99,50.4L555.81,50.4L563.97,50.4L564.79,49.04L573.77,48.33L574.58,46.15L581.93,45.42L582.74,44.98L583.56,43.94L584.38,40.53L586.01,35.91L586.82,35.91L596.62,35.91" style="vector-effect: none; fill: none; stroke: rgb(44, 160, 44); stroke-opacity: 1; stroke-width: 2px; opacity: 1;"/></g><g class="points"/><g class="text"/></g></g></g><g class="overplot"/><path class="xlines-above crisp" d="M0,0" style="fill: none;"/><path class="ylines-above crisp" d="M0,0" style="fill: none;"/><g class="overlines-above"/><g class="xaxislayer-above"><g class="xtick"><text text-anchor="middle" x="0" y="320" transform="translate(122.35,0)" style="font-family: 'Open Sans', verdana, arial, sans-serif; font-size: 12px; fill: rgb(42, 63, 95); fill-opacity: 1; white-space: pre; opacity: 1;"><tspan class="line" dy="0em" x="0" y="320">Jan 5</tspan><tspan class="line" dy="1.3em" x="0" y="320">2020</tspan></text></g><g class="xtick"><text text-anchor="middle" x="0" y="320" style="font-family: 'Open Sans', verdana, arial, sans-serif; font-size: 12px; fill: rgb(42, 63, 95); fill-opacity: 1; white-space: pre; opacity: 1;" transform="translate(259.47,0)">Jan 12</text></g><g class="xtick"><text text-anchor="middle" x="0" y="320" style="font-family: 'Open Sans', verdana, arial, sans-serif; font-size: 12px; fill: rgb(42, 63, 95); fill-opacity: 1; white-space: pre; opacity: 1;" transform="translate(396.58,0)">Jan 19</text></g><g class="xtick"><text text-anchor="middle" x="0" y="320" style="font-family: 'Open Sans', verdana, arial, sans-serif; font-size: 12px; fill: rgb(42, 63, 95); fill-opacity: 1; white-space: pre; opacity: 1;" transform="translate(533.7,0)">Jan 26</text></g></g><g class="yaxislayer-above"><g class="ytick"><text text-anchor="end" x="43" y="4.199999999999999" transform="translate(0,280.4)" style="font-family: 'Open Sans', verdana, arial, sans-serif; font-size: 12px; fill: rgb(42, 63, 95); fill-opacity: 1; white-space: pre; opacity: 1;">7000</text></g><g class="ytick"><text text-anchor="end" x="43" y="4.199999999999999" style="font-family: 'Open Sans', verdana, arial, sans-serif; font-size: 12px; fill: rgb(42, 63, 95); fill-opacity: 1; white-space: pre; opacity: 1;" transform="translate(0,237.43)">7500</text></g><g class="ytick"><text text-anchor="end" x="43" y="4.199999999999999" style="font-family: 'Open Sans', verdana, arial, sans-serif; font-size: 12px; fill: rgb(42, 63, 95); fill-opacity: 1; white-space: pre; opacity: 1;" transform="translate(0,194.45)">8000</text></g><g class="ytick"><text text-anchor="end" x="43" y="4.199999999999999" style="font-family: 'Open Sans', verdana, arial, sans-serif; font-size: 12px; fill: rgb(42, 63, 95); fill-opacity: 1; white-space: pre; opacity: 1;" transform="translate(0,151.48000000000002)">8500</text></g><g class="ytick"><text text-anchor="end" x="43" y="4.199999999999999" style="font-family: 'Open Sans', verdana, arial, sans-serif; font-size: 12px; fill: rgb(42, 63, 95); fill-opacity: 1; white-space: pre; opacity: 1;" transform="translate(0,108.5)">9000</text></g><g class="ytick"><text text-anchor="end" x="43" y="4.199999999999999" style="font-family: 'Open Sans', verdana, arial, sans-serif; font-size: 12px; fill: rgb(42, 63, 95); fill-opacity: 1; white-space: pre; opacity: 1;" transform="translate(0,65.53)">9500</text></g></g><g class="overaxes-above"/></g></g><g class="polarlayer"/><g class="smithlayer"/><g class="ternarylayer"/><g class="geolayer"/><g class="funnelarealayer"/><g class="pielayer"/><g class="iciclelayer"/><g class="treemaplayer"/><g class="sunburstlayer"/><g class="glimages"/><defs id="topdefs-3390a6"><g class="clips"/><clipPath id="legend3390a6"><rect width="230" height="29" x="0" y="0"/></clipPath></defs><g class="layer-above"><g class="imagelayer"/><g class="shapelayer"/></g><g class="infolayer"><g class="legend" pointer-events="all" transform="translate(440,11.779999999999994)"><rect class="bg" shape-rendering="crispEdges" style="stroke: rgb(68, 68, 68); stroke-opacity: 1; fill: rgb(255, 255, 255); fill-opacity: 1; stroke-width: 0px;" width="230" height="29" x="0" y="0"/><g class="scrollbox" transform="" clip-path="url(#legend3390a6)"><g class="groups"><g class="traces" transform="translate(0,14.5)" style="opacity: 1;"><text class="legendtext" text-anchor="start" x="40" y="4.680000000000001" style="font-family: 'Open Sans', verdana, arial, sans-serif; font-size: 12px; fill: rgb(42, 63, 95); fill-opacity: 1; white-space: pre;">Close</text><g class="layers" style="opacity: 1;"><g class="legendfill"/><g class="legendlines"><path class="js-line" d="M5,0h30" style="fill: none; stroke: rgb(31, 119, 180); stroke-opacity: 1; stroke-width: 2px;"/></g><g class="legendsymbols"><g class="legendpoints"/></g></g><rect class="legendtoggle" x="0" y="-9.5" width="74.859375" height="19" style="fill: rgb(0, 0, 0); fill-opacity: 0;"/></g><g class="traces" transform="translate(77.359375,14.5)" style="opacity: 1;"><text class="legendtext" text-anchor="start" x="40" y="4.680000000000001" style="font-family: 'Open Sans', verdana, arial, sans-serif; font-size: 12px; fill: rgb(42, 63, 95); fill-opacity: 1; white-space: pre;">Short</text><g class="layers" style="opacity: 1;"><g class="legendfill"/><g class="legendlines"><path class="js-line" d="M5,0h30" style="fill: none; stroke: rgb(255, 127, 14); stroke-opacity: 1; stroke-width: 2px;"/></g><g class="legendsymbols"><g class="legendpoints"/></g></g><rect class="legendtoggle" x="0" y="-9.5" width="75.4375" height="19" style="fill: rgb(0, 0, 0); fill-opacity: 0;"/></g><g class="traces" transform="translate(155.296875,14.5)" style="opacity: 1;"><text class="legendtext" text-anchor="start" x="40" y="4.680000000000001" style="font-family: 'Open Sans', verdana, arial, sans-serif; font-size: 12px; fill: rgb(42, 63, 95); fill-opacity: 1; white-space: pre;">Long</text><g class="layers" style="opacity: 1;"><g class="legendfill"/><g class="legendlines"><path class="js-line" d="M5,0h30" style="fill: none; stroke: rgb(44, 160, 44); stroke-opacity: 1; stroke-width: 2px;"/></g><g class="legendsymbols"><g class="legendpoints"/></g></g><rect class="legendtoggle" x="0" y="-9.5" width="71.546875" height="19" style="fill: rgb(0, 0, 0); fill-opacity: 0;"/></g></g></g><rect class="scrollbar" rx="20" ry="3" width="0" height="0" style="fill: rgb(128, 139, 164); fill-opacity: 1;" x="0" y="0"/></g><g class="g-gtitle"/><g class="g-xtitle"/><g class="g-ytitle"/></g></svg>