<svg class="main-svg" xmlns="http://www.w3.org/2000/svg" xmlns:xlink="http://www.w3.org/1999/xlink" width="700" height="350" style="" viewBox="0 0 700 350"><rect x="0" y="0" width="700" height="350" style="fill: rgb(255, 255, 255); fill-opacity: 1;"/><defs id="defs-2a9166"><g class="clips"><clipPath id="clip2a9166xyplot" class="plotclip"><rect width="637" height="261"/></clipPath><clipPath class="axesclip" id="clip2a9166x"><rect x="33" y="0" width="637" height="350"/></clipPath><clipPath class="axesclip" id="clip2a9166y"><rect x="0" y="46" width="700" height="261"/></clipPath><clipPath class="axesclip" id="clip2a9166xy"><rect x="33" y="46" width="637" height="261"/></clipPath></g><g class="gradients"/><g class="patterns"/></defs><g class="bglayer"><rect class="bg" x="33" y="46" width="637" height="261" style="fill: rgb(229, 236, 246); fill-opacity: 1; stroke-width: 0;"/></g><g class="layer-below"><g class="imagelayer"/><g class="shapelayer"/></g><g class="cartesianlayer"><g class="subplot xy"><g class="layer-subplot"><g class="shapelayer"/><g class="imagelayer"/></g><g class="minor-gridlayer"><g class="x"/><g class="y"/></g><g class="gridlayer"><g class="x"><path class="xgrid crisp" transform="translate(139.17000000000002,0)" d="M0,46v261" style="stroke: rgb(255, 255, 255); stroke-opacity: 1; stroke-width: 1px;"/><path class="xgrid crisp" transform="translate(287.8,0)" d="M0,46v261" style="stroke: rgb(255, 255, 255); stroke-opacity: 1; stroke-width: 1px;"/><path class="xgrid crisp" transform="translate(436.43,0)" d="M0,46v261" style="stroke: rgb(255, 255, 255); stroke-opacity: 1; stroke-width: 1px;"/><path class="xgrid crisp" transform="translate(585.07,0)" d="M0,46v261" style="stroke: rgb(255, 255, 255); stroke-opacity: 1; stroke-width: 1px;"/></g><g class="y"><path class="ygrid crisp" transform="translate(0,304.78)" d="M33,0h637" style="stroke: rgb(255, 255, 255); stroke-opacity: 1; stroke-width: 1px;"/><path class="ygrid crisp" transform="translate(0,227.46)" d="M33,0h637" style="stroke: rgb(255, 255, 255); stroke-opacity: 1; stroke-width: 1px;"/><path class="ygrid crisp" transform="translate(0,150.14)" d="M33,0h637" style="stroke: rgb(255, 255, 255); stroke-opacity: 1; stroke-width: 1px;"/><path class="ygrid crisp" transform="translate(0,72.82)" d="M33,0h637" style="stroke: rgb(255, 255, 255); stroke-opacity: 1; stroke-width: 1px;"/></g></g><g class="zerolinelayer"/><path class="xlines-below"/><path class="ylines-below"/><g class="overlines-below"/><g class="xaxislayer-below"/><g class="yaxislayer-below"/><g class="overaxes-below"/><g class="plot" transform="translate(33,46)" clip-path="url(#clip2a9166xyplot)"><g class="scatterlayer mlayer"><g class="trace scatter trace3660d406-88ab-46c0-b000-f4b02f875506" style="stroke-miterlimit: 2; opacity: 0.1;"><g class="fills"/><g class="errorbars"/><g class="lines"><path class="js-line" d="M0,181.46L42.47,183.5L63.7,183.16L106.17,182.24L127.4,183.05L148.63,179.22L169.87,177.08L191.1,175.65L212.33,176.75L233.57,174.03L254.8,170.17L276.03,151.82L297.27,153.89L318.5,150.64L339.73,150.66L360.97,146.71L382.2,138.93L403.43,151.13L424.67,148.65L445.9,149.11L467.13,139.87L488.37,139.58L509.6,142.39L530.83,139.6L552.07,140.93L573.3,137.4L594.53,145.77L637,139.29" style="vector-effect: none; fill: none; stroke: rgb(129, 177, 38); stroke-opacity: 1; stroke-width: 2px; opacity: 1;"/></g><g class="points"/><g class="text"/></g><g class="trace scatter trace6668a14d-1208-4412-b941-bdcb720da4a7" style="stroke-miterlimit: 2; opacity: 0.1;"><g class="fills"/><g class="errorbars"/><g class="lines"><path class="js-line" d="M0,181.46L21.23,181.47L42.47,173.01L63.7,175.89L84.93,182.13L106.17,184.83L127.4,188.46L148.63,182.6L169.87,178.2L191.1,170.57L212.33,163.87L233.57,166.87L254.8,157.37L276.03,159.95L297.27,160.24L318.5,164.54L339.73,151.4L360.97,154.22L382.2,154.59L424.67,163.39L445.9,163.35L467.13,155.41L488.37,145.51L509.6,147.45L530.83,145.83L552.07,144.87L573.3,151.88L594.53,146.86L615.77,155.09L637,146.49" style="vector-effect: none; fill: none; stroke: rgb(146, 180, 36); stroke-opacity: 1; stroke-width: 2px; opacity: 1;"/></g><g class="points"/><g class="text"/></g><g class="trace scatter trace9f2399f2-a487-4a82-a304-c5482cd78fa9" style="stroke-miterlimit: 2; opacity: 0.1;"><g class="fills"/><g class="errorbars"/><g class="lines"><path class="js-line" d="M0,181.46L21.23,177.46L42.47,176.3L63.7,175.59L84.93,167.23L127.4,165.04L148.63,166.37L169.87,171.98L191.1,169.2L212.33,170.9L233.57,168.75L254.8,168.12L276.03,172.03L297.27,180.42L318.5,179.43L339.73,183.73L360.97,181.92L382.2,184.07L403.43,193.55L424.67,191.58L445.9,187.72L467.13,192.06L488.37,189.86L509.6,190.49L530.83,193.02L552.07,188.97L573.3,186.47L594.53,186.96L615.77,190.12L637,192.9" style="vector-effect: none; fill: none; stroke: rgb(187, 188, 34); stroke-opacity: 1; stroke-width: 2px; opacity: 1;"/></g><g class="points"/><g class="text"/></g><g class="trace scatter trace3df0114a-d24f-4441-bf6c-ef3ce7cc3162" style="stroke-miterlimit: 2; opacity: 0.1;"><g class="fills"/><g class="errorbars"/><g class="lines"><path class="js-line" d="M0,181.46L21.23,179.29L42.47,180.76L63.7,180.79L84.93,179.61L106.17,182.14L127.4,181.58L148.63,179.63L169.87,176.26L191.1,174.1L212.33,162.25L233.57,159.7L254.8,160.32L276.03,157.76L297.27,158.88L318.5,158.57L339.73,150.62L360.97,155.65L382.2,153.08L403.43,151.66L424.67,148.52L445.9,148.92L467.13,151.8L488.37,145.35L509.6,143.71L530.83,124.05L552.07,124.18L573.3,134.54L594.53,125.61L615.77,127.6L637,128.03" style="vector-effect: none; fill: none; stroke: rgb(142, 179, 37); stroke-opacity: 1; stroke-width: 2px; opacity: 1;"/></g><g class="points"/><g class="text"/></g><g class="trace scatter trace1e19f620-de7d-4e25-9107-4217e7acfb43" style="stroke-miterlimit: 2; opacity: 0.1;"><g class="fills"/><g class="errorbars"/><g class="lines"><path class="js-line" d="M0,181.46L21.23,178.83L42.47,180.44L63.7,178.41L84.93,177.82L106.17,181.5L127.4,189.41L148.63,188.48L169.87,192.53L191.1,190.83L212.33,192.85L233.57,201.78L254.8,199.93L276.03,196.28L297.27,200.38L318.5,198.31L339.73,198.9L360.97,201.28L382.2,197.46L403.43,195.11L424.67,195.57L467.13,201.17L488.37,202.08L509.6,202.05L530.83,198.73L552.07,206.6L573.3,202.78L594.53,201.06L615.77,204.95L637,208.23" style="vector-effect: none; fill: none; stroke: rgb(198, 147, 28); stroke-opacity: 1; stroke-width: 2px; opacity: 1;"/></g><g class="points"/><g class="text"/></g><g class="trace scatter trace6d6cdf60-8b4c-4f39-8a71-1c3248e7590d" style="stroke-miterlimit: 2; opacity: 0.1;"><g class="fills"/><g class="errorbars"/><g class="lines"><path class="js-line" d="M0,181.46L21.23,182.87L42.47,185.6L63.7,187.59L84.93,195.3L106.17,196.5L127.4,201.41L191.1,200.58L212.33,197.64L233.57,193.84L254.8,198.19L276.03,196.57L297.27,196.49L318.5,196.53L339.73,199.35L360.97,198.86L382.2,201.1L403.43,204.28L424.67,218L445.9,222.45L467.13,218.65L509.6,216.34L530.83,216.82L573.3,213.88L594.53,212.42L615.77,213.35L637,211.45" style="vector-effect: none; fill: none; stroke: rgb(199, 141, 28); stroke-opacity: 1; stroke-width: 2px; opacity: 1;"/></g><g class="points"/><g class="text"/></g><g class="trace scatter traceef59584a-da5f-4510-90a6-8c70e764a70b" style="stroke-miterlimit: 2; opacity: 0.1;"><g class="fills"/><g class="errorbars"/><g class="lines"><path class="js-line" d="M0,181.46L21.23,173L42.47,175.87L63.7,182.12L84.93,184.82L106.17,188.45L127.4,182.59L148.63,178.19L169.87,170.56L191.1,163.85L212.33,166.86L233.57,157.36L254.8,159.94L276.03,160.23L297.27,164.52L318.5,151.38L339.73,154.21L360.97,154.57L382.2,158.72L403.43,163.38L424.67,163.34L445.9,155.4L467.13,145.5L488.37,147.43L509.6,145.82L530.83,144.85L552.07,151.87L573.3,146.85L594.53,155.08L615.77,146.47L637,147.15" style="vector-effect: none; fill: none; stroke: rgb(146, 180, 36); stroke-opacity: 1; stroke-width: 2px; opacity: 1;"/></g><g class="points"/><g class="text"/></g><g class="trace scatter trace8e88a676-7f82-4bea-8d12-0f752d721997" style="stroke-miterlimit: 2; opacity: 0.1;"><g class="fills"/><g class="errorbars"/><g class="lines"><path class="js-line" d="M0,181.46L21.23,177.05L42.47,171.34L63.7,166.52L84.93,181.58L106.17,178.16L127.4,166.34L148.63,167.34L169.87,160.41L191.1,164.65L212.33,172.18L233.57,170.81L254.8,166.49L276.03,163.47L297.27,171.28L318.5,168.69L339.73,170.44L360.97,175.26L382.2,170.66L403.43,172.19L424.67,168.49L445.9,174.23L467.13,175.98L488.37,175.53L509.6,180.13L530.83,182.56L552.07,181.89L573.3,180.63L594.53,185.22L615.77,190.36L637,178.84" style="vector-effect: none; fill: none; stroke: rgb(170, 185, 35); stroke-opacity: 1; stroke-width: 2px; opacity: 1;"/></g><g class="points"/><g class="text"/></g><g class="trace scatter traced8fed84d-af2a-44a5-807f-2c68d2ac63ed" style="stroke-miterlimit: 2; opacity: 0.1;"><g class="fills"/><g class="errorbars"/><g class="lines"><path class="js-line" d="M0,181.46L21.23,179.57L42.47,175.52L84.93,173.62L106.17,165.17L148.63,162.95L169.87,164.29L191.1,169.97L212.33,167.15L233.57,168.88L254.8,166.7L276.03,166.07L297.27,170.02L318.5,178.52L339.73,177.52L360.97,181.87L382.2,180.04L403.43,182.21L424.67,191.8L445.9,189.82L467.13,185.9L488.37,190.3L509.6,188.07L530.83,188.71L552.07,191.26L573.3,187.16L594.53,184.64L615.77,185.13L637,188.34" style="vector-effect: none; fill: none; stroke: rgb(184, 188, 34); stroke-opacity: 1; stroke-width: 2px; opacity: 1;"/></g><g class="points"/><g class="text"/></g><g class="trace scatter trace0471e2ba-3684-420f-9033-81dab387ebd9" style="stroke-miterlimit: 2; opacity: 0.1;"><g class="fills"/><g class="errorbars"/><g class="lines"><path class="js-line" d="M0,181.46L21.23,178.6L42.47,179.43L63.7,171.37L84.93,175.6L106.17,171.67L127.4,171.72L148.63,159.33L169.87,161.61L212.33,158.36L233.57,151.85L254.8,146.92L276.03,157.84L297.27,162.15L318.5,160.43L339.73,161.68L360.97,155.3L382.2,163.18L403.43,168.67L424.67,162.47L445.9,157.66L509.6,161.51L530.83,154.89L552.07,155.82L573.3,160.12L594.53,161.44L615.77,159.91L637,154.74" style="vector-effect: none; fill: none; stroke: rgb(147, 180, 36); stroke-opacity: 1; stroke-width: 2px; opacity: 1;"/></g><g class="points"/><g class="text"/></g><g class="trace scatter trace073f9e3e-4aa6-45d6-ad2d-8f7ae68b2b82" style="stroke-miterlimit: 2; opacity: 0.1;"><g class="fills"/><g class="errorbars"/><g class="lines"><path class="js-line" d="M0,181.46L21.23,184.52L42.47,188.43L84.93,189.54L106.17,187.86L127.4,180.86L148.63,183.2L169.87,194.9L191.1,196.79L212.33,196.42L233.57,202.32L254.8,207.12L276.03,202.87L297.27,206.28L318.5,202.53L339.73,199.42L360.97,199.78L382.2,204.72L403.43,185.69L424.67,181.29L445.9,183.13L467.13,188.15L488.37,199.66L509.6,198.8L530.83,202.2L552.07,203.71L573.3,201.12L594.53,189.93L615.77,198.71L637,201.13" style="vector-effect: none; fill: none; stroke: rgb(197, 151, 29); stroke-opacity: 1; stroke-width: 2px; opacity: 1;"/></g><g class="points"/><g class="text"/></g><g class="trace scatter trace9c5f3535-b787-4db4-a0d3-9d1ed1fd31ff" style="stroke-miterlimit: 2; opacity: 0.1;"><g class="fills"/><g class="errorbars"/><g class="lines"><path class="js-line" d="M0,181.46L21.23,178.73L42.47,173.32L63.7,174.87L84.93,163.7L106.17,169.95L127.4,179.43L148.63,175.78L169.87,170.11L191.1,173.67L212.33,172.6L233.57,172.39L254.8,174.51L276.03,183.72L297.27,182.99L318.5,188.73L339.73,191.58L360.97,181.06L382.2,178.83L403.43,178.94L424.67,173.71L445.9,170.58L467.13,170.59L509.6,170L530.83,175.35L573.3,169.5L594.53,172.71L615.77,178.45L637,172.46" style="vector-effect: none; fill: none; stroke: rgb(172, 185, 35); stroke-opacity: 1; stroke-width: 2px; opacity: 1;"/></g><g class="points"/><g class="text"/></g><g class="trace scatter tracec90d079f-deb5-459c-ac42-f5004a9e21c4" style="stroke-miterlimit: 2; opacity: 0.1;"><g class="fills"/><g class="errorbars"/><g class="lines"><path class="js-line" d="M0,181.46L21.23,179.09L42.47,198.59L84.93,198.01L106.17,206.54L127.4,207.46L148.63,215.48L169.87,217.38L191.1,234.45L212.33,223.82L233.57,232.89L254.8,232.34L276.03,240.09L297.27,228.61L318.5,229.92L339.73,227.38L360.97,229.35L382.2,237.29L403.43,240.22L424.67,237.35L445.9,232.89L467.13,234.44L488.37,232.01L509.6,227.36L530.83,234.06L552.07,237.71L573.3,236.92L594.53,243.14L615.77,243.62L637,232.51" style="vector-effect: none; fill: none; stroke: rgb(218, 63, 18); stroke-opacity: 1; stroke-width: 2px; opacity: 1;"/></g><g class="points"/><g class="text"/></g><g class="trace scatter trace207e711c-60be-4761-bfa0-1c413e84637c" style="stroke-miterlimit: 2; opacity: 0.1;"><g class="fills"/><g class="errorbars"/><g class="lines"><path class="js-line" d="M0,181.46L21.23,177.97L42.47,183.38L63.7,185.03L84.93,184.61L106.17,188.95L127.4,191.24L169.87,189.42L191.1,193.75L212.33,198.59L233.57,187.73L254.8,187.07L276.03,180.85L297.27,177.97L318.5,172.79L339.73,164.22L360.97,153.97L382.2,151.38L403.43,151.39L424.67,141.29L445.9,144.72L467.13,152.18L488.37,155.4L509.6,159.75L530.83,152.75L552.07,147.49L573.3,138.38L594.53,130.37L615.77,133.96L637,122.61" style="vector-effect: none; fill: none; stroke: rgb(171, 185, 35); stroke-opacity: 1; stroke-width: 2px; opacity: 1;"/></g><g class="points"/><g class="text"/></g><g class="trace scatter trace59d726ab-d17a-46f5-bc60-370580a3e517" style="stroke-miterlimit: 2; opacity: 0.1;"><g class="fills"/><g class="errorbars"/><g class="lines"><path class="js-line" d="M0,181.46L21.23,185.56L42.47,178.02L63.7,179.57L84.93,172.27L106.17,173.05L127.4,169.7L148.63,167.94L169.87,171.68L191.1,172.71L212.33,167.29L233.57,165.22L254.8,160.8L297.27,158.73L318.5,149.5L360.97,147.08L382.2,148.54L403.43,154.75L424.67,151.67L445.9,153.55L467.13,151.17L488.37,150.48L509.6,154.8L530.83,164.07L552.07,162.98L573.3,167.73L594.53,165.73L615.77,168.1L637,178.58" style="vector-effect: none; fill: none; stroke: rgb(156, 182, 36); stroke-opacity: 1; stroke-width: 2px; opacity: 1;"/></g><g class="points"/><g class="text"/></g><g class="trace scatter trace0ca04a4e-cd63-4f8b-87a2-e6968cc6bd55" style="stroke-miterlimit: 2; opacity: 0.1;"><g class="fills"/><g class="errorbars"/><g class="lines"><path class="js-line" d="M0,181.46L21.23,182.27L42.47,178.42L84.93,174.84L106.17,175.94L127.4,173.21L148.63,169.33L169.87,150.88L191.1,152.96L212.33,149.7L233.57,149.71L254.8,145.75L276.03,137.93L297.27,150.19L318.5,147.69L339.73,148.16L360.97,138.88L382.2,138.58L403.43,141.41L424.67,138.6L445.9,139.94L467.13,136.39L488.37,144.8L530.83,138.29L552.07,138.61L594.53,136.09L615.77,129.87L637,135.52" style="vector-effect: none; fill: none; stroke: rgb(119, 175, 38); stroke-opacity: 1; stroke-width: 2px; opacity: 1;"/></g><g class="points"/><g class="text"/></g><g class="trace scatter tracea4000dd1-b496-41d4-8cae-46a40f996d01" style="stroke-miterlimit: 2; opacity: 0.1;"><g class="fills"/><g class="errorbars"/><g class="lines"><path class="js-line" d="M0,181.46L21.23,188.26L42.47,187.01L63.7,183.12L84.93,180.39L106.17,187.44L127.4,185.1L148.63,186.68L169.87,191.03L191.1,186.88L212.33,188.26L233.57,184.93L254.8,190.1L276.03,191.68L297.27,191.28L318.5,195.42L339.73,197.61L382.2,195.87L403.43,200.02L424.67,204.65L445.9,194.26L467.13,193.63L488.37,187.68L509.6,184.93L530.83,179.98L552.07,171.78L573.3,161.99L594.53,159.51L615.77,159.52L637,149.86" style="vector-effect: none; fill: none; stroke: rgb(191, 173, 32); stroke-opacity: 1; stroke-width: 2px; opacity: 1;"/></g><g class="points"/><g class="text"/></g><g class="trace scatter traceed5fcb4a-b41a-4fd2-ad7c-f3cc582b8a5a" style="stroke-miterlimit: 2; opacity: 0.1;"><g class="fills"/><g class="errorbars"/><g class="lines"><path class="js-line" d="M0,181.46L21.23,179.69L42.47,176.26L63.7,175.18L84.93,172.93L106.17,174.45L127.4,174.49L148.63,173.26L169.87,175.89L191.1,175.31L212.33,173.28L233.57,169.77L254.8,167.53L276.03,155.2L297.27,152.54L318.5,153.19L339.73,150.52L360.97,151.69L382.2,151.36L403.43,143.09L424.67,148.33L445.9,145.65L467.13,144.17L488.37,140.9L509.6,141.32L530.83,144.32L552.07,137.61L573.3,135.91L594.53,115.44L615.77,115.58L637,126.36" style="vector-effect: none; fill: none; stroke: rgb(132, 177, 37); stroke-opacity: 1; stroke-width: 2px; opacity: 1;"/></g><g class="points"/><g class="text"/></g><g class="trace scatter trace43210dd5-e072-4e8e-be03-1b76e5bc1be7" style="stroke-miterlimit: 2; opacity: 0.1;"><g class="fills"/><g class="errorbars"/><g class="lines"><path class="js-line" d="M0,181.46L21.23,180.08L42.47,181.14L63.7,178.5L84.93,174.74L106.17,156.9L127.4,158.91L148.63,155.75L169.87,155.77L191.1,151.93L212.33,144.37L233.57,156.23L254.8,153.81L276.03,154.27L297.27,145.28L318.5,145L339.73,147.73L360.97,145.01L382.2,146.31L403.43,142.88L424.67,151.01L467.13,144.71L488.37,145.03L530.83,142.58L552.07,136.57L573.3,142.03L594.53,145.12L615.77,143.52L637,148.75" style="vector-effect: none; fill: none; stroke: rgb(124, 176, 38); stroke-opacity: 1; stroke-width: 2px; opacity: 1;"/></g><g class="points"/><g class="text"/></g><g class="trace scatter trace5bd8e612-8bcb-4a74-8445-b758e6b2c3c3" style="stroke-miterlimit: 2; opacity: 0.1;"><g class="fills"/><g class="errorbars"/><g class="lines"><path class="js-line" d="M0,181.46L21.23,181.47L42.47,173.01L63.7,175.89L84.93,182.13L106.17,184.83L127.4,188.46L148.63,182.6L169.87,178.2L191.1,170.57L212.33,163.87L233.57,166.87L254.8,157.37L276.03,159.95L297.27,160.24L318.5,164.54L339.73,151.4L360.97,154.22L382.2,154.59L424.67,163.39L445.9,163.35L467.13,155.41L488.37,145.51L509.6,147.45L530.83,145.83L552.07,144.87L573.3,151.88L594.53,146.86L615.77,155.09L637,146.49" style="vector-effect: none; fill: none; stroke: rgb(146, 180, 36); stroke-opacity: 1; stroke-width: 2px; opacity: 1;"/></g><g class="points"/><g class="text"/></g><g class="trace scatter tracea2b629e9-df0c-4328-81af-51a23c82dd9f" style="stroke-miterlimit: 2; opacity: 0.1;"><g class="fills"/><g class="errorbars"/><g class="lines"><path class="js-line" d="M0,181.46L21.23,186.23L42.47,186.48L63.7,187.99L84.93,187.39L106.17,184.76L127.4,189.18L148.63,197.37L169.87,196.71L191.1,204.69L212.33,202.01L233.57,198.18L254.8,200.69L276.03,206.18L297.27,203.19L318.5,204.12L339.73,199.91L360.97,212L382.2,209.7L403.43,203.8L424.67,202.64L445.9,204.55L467.13,204.01L488.37,205.64L509.6,212.29L530.83,222.56L552.07,222L573.3,219.58L594.53,219.25L615.77,219.52L637,226.27" style="vector-effect: none; fill: none; stroke: rgb(201, 133, 27); stroke-opacity: 1; stroke-width: 2px; opacity: 1;"/></g><g class="points"/><g class="text"/></g><g class="trace scatter trace3b4d25ec-5193-45cc-8476-b0fb9d98e579" style="stroke-miterlimit: 2; opacity: 0.1;"><g class="fills"/><g class="errorbars"/><g class="lines"><path class="js-line" d="M0,181.46L42.47,183.5L63.7,183.16L106.17,182.24L127.4,183.05L148.63,179.22L169.87,177.08L191.1,175.65L212.33,176.75L233.57,174.03L254.8,170.17L276.03,151.82L297.27,153.89L318.5,150.64L339.73,150.66L360.97,146.71L382.2,138.93L403.43,151.13L424.67,148.65L445.9,149.11L467.13,139.87L488.37,139.58L509.6,142.39L530.83,139.6L552.07,140.93L573.3,137.4L594.53,145.77L637,139.29" style="vector-effect: none; fill: none; stroke: rgb(129, 177, 38); stroke-opacity: 1; stroke-width: 2px; opacity: 1;"/></g><g class="points"/><g class="text"/></g><g class="trace scatter trace39c506bd-647b-4132-9f0d-0ba8540525a8" style="stroke-miterlimit: 2; opacity: 0.1;"><g class="fills"/><g class="errorbars"/><g class="lines"><path class="js-line" d="M0,181.46L21.23,184.44L42.47,189.77L63.7,184.21L84.93,184.04L106.17,179.79L127.4,179.18L148.63,179.55L169.87,169.83L191.1,171.44L212.33,170.92L233.57,175.69L254.8,179.17L276.03,189.25L297.27,190.6L318.5,188.53L339.73,195.43L360.97,200.91L382.2,202.39L424.67,207.78L445.9,194.87L467.13,192.23L488.37,192.66L509.6,196.04L530.83,185.21L552.07,184.94L573.3,188.13L594.53,186.59L615.77,196.97L637,185.89" style="vector-effect: none; fill: none; stroke: rgb(191, 176, 32); stroke-opacity: 1; stroke-width: 2px; opacity: 1;"/></g><g class="points"/><g class="text"/></g><g class="trace scatter trace1442b8b5-51c6-44f0-819f-2250423b4ad5" style="stroke-miterlimit: 2; opacity: 0.1;"><g class="fills"/><g class="errorbars"/><g class="lines"><path class="js-line" d="M0,181.46L21.23,186.58L42.47,184.04L63.7,185.59L84.93,183.63L106.17,183.06L127.4,186.62L148.63,194.26L169.87,193.36L191.1,197.28L212.33,195.63L233.57,197.59L254.8,206.22L276.03,204.43L297.27,200.91L318.5,204.87L339.73,202.87L360.97,203.44L382.2,205.74L403.43,202.05L424.67,199.77L445.9,200.22L467.13,203.1L488.37,205.64L509.6,206.52L530.83,206.49L552.07,203.28L573.3,210.88L594.53,207.19L615.77,205.53L637,209.29" style="vector-effect: none; fill: none; stroke: rgb(200, 137, 27); stroke-opacity: 1; stroke-width: 2px; opacity: 1;"/></g><g class="points"/><g class="text"/></g><g class="trace scatter traceb5aa21e5-55e0-4a28-b846-07da6916384e" style="stroke-miterlimit: 2; opacity: 0.1;"><g class="fills"/><g class="errorbars"/><g class="lines"><path class="js-line" d="M0,181.46L42.47,180.8L63.7,190.4L84.93,191.43L106.17,200.44L127.4,202.59L148.63,221.78L169.87,209.83L191.1,220.03L212.33,219.41L233.57,228.12L254.8,215.22L276.03,216.69L297.27,213.83L318.5,216.05L339.73,224.98L360.97,228.28L382.2,225.05L403.43,220.02L424.67,221.77L445.9,219.04L467.13,213.81L488.37,221.35L509.6,225.45L530.83,224.57L552.07,231.56L573.3,232.09L594.53,219.61L615.77,221.83L637,219.78" style="vector-effect: none; fill: none; stroke: rgb(210, 94, 22); stroke-opacity: 1; stroke-width: 2px; opacity: 1;"/></g><g class="points"/><g class="text"/></g><g class="trace scatter trace07acd060-0575-4a29-aa27-dbe150f9632f" style="stroke-miterlimit: 2; opacity: 0.1;"><g class="fills"/><g class="errorbars"/><g class="lines"><path class="js-line" d="M0,181.46L21.23,179.57L42.47,175.52L84.93,173.62L106.17,165.17L148.63,162.95L169.87,164.29L191.1,169.97L212.33,167.15L233.57,168.88L254.8,166.7L276.03,166.07L297.27,170.02L318.5,178.52L339.73,177.52L360.97,181.87L382.2,180.04L403.43,182.21L424.67,191.8L445.9,189.82L467.13,185.9L488.37,190.3L509.6,188.07L530.83,188.71L552.07,191.26L573.3,187.16L594.53,184.64L615.77,185.13L637,188.34" style="vector-effect: none; fill: none; stroke: rgb(184, 188, 34); stroke-opacity: 1; stroke-width: 2px; opacity: 1;"/></g><g class="points"/><g class="text"/></g><g class="trace scatter trace3baa5f6e-e9e7-4c4c-81e0-bd019fe7d59f" style="stroke-miterlimit: 2; opacity: 0.1;"><g class="fills"/><g class="errorbars"/><g class="lines"><path class="js-line" d="M0,181.46L21.23,180.31L42.47,181.32L63.7,181.09L84.93,182.07L106.17,183.14L127.4,182.79L169.87,181.88L191.1,182.69L212.33,178.85L233.57,176.7L254.8,175.28L276.03,176.37L297.27,173.65L318.5,169.78L339.73,151.38L360.97,153.45L382.2,150.2L403.43,150.22L424.67,146.27L445.9,138.47L467.13,150.69L488.37,148.2L509.6,148.67L530.83,139.41L552.07,139.12L573.3,141.93L594.53,139.13L615.77,140.47L637,136.93" style="vector-effect: none; fill: none; stroke: rgb(165, 184, 35); stroke-opacity: 1; stroke-width: 2px; opacity: 1;"/></g><g class="points"/><g class="text"/></g><g class="trace scatter trace9305efd2-d46d-46d5-9461-85722e2a152c" style="stroke-miterlimit: 2; opacity: 0.1;"><g class="fills"/><g class="errorbars"/><g class="lines"><path class="js-line" d="M0,181.46L21.23,184.43L42.47,179.48L63.7,180.92L84.93,183.67L106.17,185.69L127.4,193.5L148.63,194.71L169.87,199.69L233.57,198.85L254.8,195.87L276.03,192.02L297.27,196.43L318.5,194.79L339.73,194.71L360.97,194.75L382.2,197.6L403.43,197.11L424.67,199.38L445.9,202.59L467.13,216.49L488.37,221L509.6,217.15L552.07,214.81L573.3,215.3L615.77,212.32L637,210.84" style="vector-effect: none; fill: none; stroke: rgb(197, 149, 29); stroke-opacity: 1; stroke-width: 2px; opacity: 1;"/></g><g class="points"/><g class="text"/></g><g class="trace scatter trace0bd5aa8b-ca66-460c-be00-700d40833a1e" style="stroke-miterlimit: 2; opacity: 0.1;"><g class="fills"/><g class="errorbars"/><g class="lines"><path class="js-line" d="M0,181.46L21.23,182.77L42.47,188.17L106.17,187.26L127.4,184.03L148.63,179.85L169.87,184.63L191.1,182.85L212.33,182.76L233.57,182.81L254.8,185.91L276.03,185.37L297.27,187.83L318.5,191.32L339.73,206.39L360.97,211.28L382.2,207.11L424.67,204.57L445.9,205.1L488.37,201.87L509.6,200.27L530.83,201.28L552.07,199.2L573.3,198.39L594.53,204.79L615.77,203.31L637,188.14" style="vector-effect: none; fill: none; stroke: rgb(192, 171, 31); stroke-opacity: 1; stroke-width: 2px; opacity: 1;"/></g><g class="points"/><g class="text"/></g><g class="trace scatter trace3cbf0897-0c80-472e-92c9-8c943d4e59f7" style="stroke-miterlimit: 2; opacity: 0.1;"><g class="fills"/><g class="errorbars"/><g class="lines"><path class="js-line" d="M0,181.46L21.23,184.43L42.47,179.48L63.7,180.92L84.93,183.67L106.17,185.69L127.4,193.5L148.63,194.71L169.87,199.69L233.57,198.85L254.8,195.87L276.03,192.02L297.27,196.43L318.5,194.79L339.73,194.71L360.97,194.75L382.2,197.6L403.43,197.11L424.67,199.38L445.9,202.59L467.13,216.49L488.37,221L509.6,217.15L552.07,214.81L573.3,215.3L615.77,212.32L637,210.84" style="vector-effect: none; fill: none; stroke: rgb(197, 149, 29); stroke-opacity: 1; stroke-width: 2px; opacity: 1;"/></g><g class="points"/><g class="text"/></g><g class="trace scatter trace11336d03-13bd-4219-85da-bd20897e4e58" style="stroke-miterlimit: 2; opacity: 0.1;"><g class="fills"/><g class="errorbars"/><g class="lines"><path class="js-line" d="M0,181.46L21.23,178.06L42.47,177L63.7,174.78L84.93,176.28L106.17,176.32L127.4,175.1L148.63,177.7L169.87,177.13L191.1,175.13L212.33,171.65L233.57,169.43L254.8,157.25L276.03,154.62L297.27,155.26L318.5,152.62L339.73,153.78L360.97,153.45L382.2,145.28L403.43,150.45L424.67,147.8L445.9,146.34L467.13,143.11L488.37,143.52L509.6,146.49L530.83,139.86L552.07,138.17L573.3,117.94L594.53,118.08L615.77,128.74L637,119.54" style="vector-effect: none; fill: none; stroke: rgb(134, 178, 37); stroke-opacity: 1; stroke-width: 2px; opacity: 1;"/></g><g class="points"/><g class="text"/></g><g class="trace scatter trace3dedd7c9-c6d1-4ed4-b1ff-eeb2d686b0d0" style="stroke-miterlimit: 2; opacity: 0.1;"><g class="fills"/><g class="errorbars"/><g class="lines"><path class="js-line" d="M0,181.46L21.23,177.46L42.47,176.3L63.7,175.59L84.93,167.23L127.4,165.04L148.63,166.37L169.87,171.98L191.1,169.2L212.33,170.9L233.57,168.75L254.8,168.12L276.03,172.03L297.27,180.42L318.5,179.43L339.73,183.73L360.97,181.92L382.2,184.07L403.43,193.55L424.67,191.58L445.9,187.72L467.13,192.06L488.37,189.86L509.6,190.49L530.83,193.02L552.07,188.97L573.3,186.47L594.53,186.96L615.77,190.12L637,192.9" style="vector-effect: none; fill: none; stroke: rgb(187, 188, 34); stroke-opacity: 1; stroke-width: 2px; opacity: 1;"/></g><g class="points"/><g class="text"/></g><g class="trace scatter tracea994b229-5ebf-44d3-9457-3748068f5dc7" style="stroke-miterlimit: 2; opacity: 0.1;"><g class="fills"/><g class="errorbars"/><g class="lines"><path class="js-line" d="M0,181.46L21.23,185.29L42.47,186.99L63.7,184.08L84.93,171.47L106.17,181.36L127.4,184.08L148.63,183.78L169.87,187.82L191.1,180.39L212.33,181.92L233.57,174.72L254.8,175.49L276.03,172.2L297.27,170.46L318.5,174.14L339.73,175.16L360.97,169.82L382.2,167.78L403.43,163.43L424.67,162.17L445.9,161.39L467.13,152.3L509.6,149.91L530.83,151.35L552.07,157.47L573.3,154.43L594.53,156.29L615.77,153.95L637,153.27" style="vector-effect: none; fill: none; stroke: rgb(169, 185, 35); stroke-opacity: 1; stroke-width: 2px; opacity: 1;"/></g><g class="points"/><g class="text"/></g><g class="trace scatter traceca4b760a-6e3e-4407-975f-018a688e4b84" style="stroke-miterlimit: 2; opacity: 0.1;"><g class="fills"/><g class="errorbars"/><g class="lines"><path class="js-line" d="M0,181.46L21.23,180.42L42.47,178.24L63.7,179.72L84.93,179.75L106.17,178.56L127.4,181.1L148.63,180.54L169.87,178.58L191.1,175.18L212.33,173.01L233.57,161.09L254.8,158.52L276.03,159.14L297.27,156.56L318.5,157.69L339.73,157.37L360.97,149.38L382.2,154.44L403.43,151.85L424.67,150.42L445.9,147.26L467.13,147.66L488.37,150.57L509.6,144.07L530.83,142.42L552.07,122.62L573.3,122.76L594.53,133.19L615.77,124.2L637,126.21" style="vector-effect: none; fill: none; stroke: rgb(142, 179, 37); stroke-opacity: 1; stroke-width: 2px; opacity: 1;"/></g><g class="points"/><g class="text"/></g><g class="trace scatter tracec621cc13-b247-4568-a305-8b34560e25d4" style="stroke-miterlimit: 2; opacity: 0.1;"><g class="fills"/><g class="errorbars"/><g class="lines"><path class="js-line" d="M0,181.46L21.23,179.57L42.47,175.52L84.93,173.62L106.17,165.17L148.63,162.95L169.87,164.29L191.1,169.97L212.33,167.15L233.57,168.88L254.8,166.7L276.03,166.07L297.27,170.02L318.5,178.52L339.73,177.52L360.97,181.87L382.2,180.04L403.43,182.21L424.67,191.8L445.9,189.82L467.13,185.9L488.37,190.3L509.6,188.07L530.83,188.71L552.07,191.26L573.3,187.16L594.53,184.64L615.77,185.13L637,188.34" style="vector-effect: none; fill: none; stroke: rgb(184, 188, 34); stroke-opacity: 1; stroke-width: 2px; opacity: 1;"/></g><g class="points"/><g class="text"/></g><g class="trace scatter trace4fb609f6-a03f-43f9-a0e3-b224f497240b" style="stroke-miterlimit: 2; opacity: 0.1;"><g class="fills"/><g class="errorbars"/><g class="lines"><path class="js-line" d="M0,181.46L21.23,177.46L42.47,176.3L63.7,175.59L84.93,167.23L127.4,165.04L148.63,166.37L169.87,171.98L191.1,169.2L212.33,170.9L233.57,168.75L254.8,168.12L276.03,172.03L297.27,180.42L318.5,179.43L339.73,183.73L360.97,181.92L382.2,184.07L403.43,193.55L424.67,191.58L445.9,187.72L467.13,192.06L488.37,189.86L509.6,190.49L530.83,193.02L552.07,188.97L573.3,186.47L594.53,186.96L615.77,190.12L637,192.9" style="vector-effect: none; fill: none; stroke: rgb(187, 188, 34); stroke-opacity: 1; stroke-width: 2px; opacity: 1;"/></g><g class="points"/><g class="text"/></g><g class="trace scatter trace2f52a372-1870-435b-bf51-a9fe594edd9d" style="stroke-miterlimit: 2; opacity: 0.1;"><g class="fills"/><g class="errorbars"/><g class="lines"><path class="js-line" d="M0,181.46L21.23,181.24L42.47,182.21L63.7,183.28L84.93,182.94L127.4,182.02L148.63,182.83L169.87,178.99L191.1,176.85L212.33,175.43L233.57,176.52L254.8,173.8L276.03,169.93L297.27,151.56L318.5,153.62L339.73,150.37L360.97,150.39L382.2,146.44L403.43,138.65L424.67,150.86L445.9,148.38L467.13,148.84L488.37,139.59L509.6,139.3L530.83,142.11L552.07,139.32L573.3,140.65L594.53,137.12L615.77,145.5L637,142.61" style="vector-effect: none; fill: none; stroke: rgb(130, 177, 37); stroke-opacity: 1; stroke-width: 2px; opacity: 1;"/></g><g class="points"/><g class="text"/></g><g class="trace scatter trace0ddee322-463e-4d58-9bb4-a4b67831f4f3" style="stroke-miterlimit: 2; opacity: 0.1;"><g class="fills"/><g class="errorbars"/><g class="lines"><path class="js-line" d="M0,181.46L21.23,151.25L42.47,151.07L63.7,157.5L84.93,144.89L106.17,147.61L127.4,148.14L148.63,142.47L169.87,145.13L191.1,140.25L212.33,128.35L233.57,130.61L254.8,113.26L276.03,113.52L297.27,107.27L318.5,120.51L339.73,141.22L360.97,138.09L382.2,148.46L403.43,151.64L424.67,152.32L445.9,156.19L467.13,138.45L488.37,143.01L509.6,135.41L530.83,143.28L552.07,141.77L573.3,141.25L594.53,132.93L615.77,127.33L637,117.33" style="vector-effect: none; fill: none; stroke: rgb(111, 173, 39); stroke-opacity: 1; stroke-width: 2px; opacity: 1;"/></g><g class="points"/><g class="text"/></g><g class="trace scatter trace17588f29-8a94-4e92-9bc9-08c93f0d62a0" style="stroke-miterlimit: 2; opacity: 0.1;"><g class="fills"/><g class="errorbars"/><g class="lines"><path class="js-line" d="M0,181.46L42.47,191.13L63.7,179.68L84.93,178.98L106.17,172.43L127.4,169.39L148.63,163.93L169.87,154.89L191.1,144.09L212.33,141.36L233.57,141.37L254.8,130.72L276.03,134.34L297.27,142.2L318.5,145.6L339.73,150.18L360.97,142.8L382.2,137.26L403.43,127.65L424.67,119.2L445.9,122.99L467.13,111.02L488.37,114.28L509.6,114.64L530.83,120.05L552.07,103.5L573.3,107.06L594.53,107.52L615.77,112.74L637,118.6" style="vector-effect: none; fill: none; stroke: rgb(110, 173, 39); stroke-opacity: 1; stroke-width: 2px; opacity: 1;"/></g><g class="points"/><g class="text"/></g><g class="trace scatter trace3f2afc14-f83b-4ca8-a3eb-e695f2a77538" style="stroke-miterlimit: 2; opacity: 0.1;"><g class="fills"/><g class="errorbars"/><g class="lines"><path class="js-line" d="M0,181.46L21.23,187.9L42.47,185.63L63.7,204.32L84.93,204.21L106.17,203.76L127.4,211.93L148.63,212.81L169.87,220.5L191.1,222.32L212.33,238.68L233.57,228.49L254.8,237.19L276.03,236.66L297.27,244.08L318.5,233.09L339.73,234.34L360.97,231.9L382.2,233.79L403.43,241.41L424.67,244.22L445.9,241.46L467.13,237.18L488.37,238.67L509.6,236.35L530.83,231.89L552.07,238.31L573.3,241.8L594.53,241.05L615.77,247.01L637,247.47" style="vector-effect: none; fill: none; stroke: rgb(219, 58, 18); stroke-opacity: 1; stroke-width: 2px; opacity: 1;"/></g><g class="points"/><g class="text"/></g><g class="trace scatter tracefb9a0fc6-77d8-4086-ab76-8ca68d2d320f" style="stroke-miterlimit: 2; opacity: 0.1;"><g class="fills"/><g class="errorbars"/><g class="lines"><path class="js-line" d="M0,181.46L21.23,173.99L42.47,174.74L84.93,173.41L106.17,174.59L127.4,172.41L148.63,173.38L169.87,175.76L191.1,176.49L212.33,176.92L233.57,175.04L254.8,173.14L276.03,176.05L297.27,175.04L318.5,171.13L339.73,169.24L360.97,165.58L382.2,164.43L403.43,162.03L424.67,163.66L445.9,163.7L467.13,162.38L488.37,165.18L509.6,164.57L530.83,162.41L552.07,158.66L573.3,156.27L594.53,143.11L615.77,140.28L637,140.97" style="vector-effect: none; fill: none; stroke: rgb(168, 185, 35); stroke-opacity: 1; stroke-width: 2px; opacity: 1;"/></g><g class="points"/><g class="text"/></g><g class="trace scatter trace3d492ec9-18ff-4845-801b-04067bcedb15" style="stroke-miterlimit: 2; opacity: 0.1;"><g class="fills"/><g class="errorbars"/><g class="lines"><path class="js-line" d="M0,181.46L21.23,190.69L42.47,192.05L63.7,191.58L84.93,207.78L106.17,204.13L127.4,199.38L148.63,195.38L169.87,207.88L191.1,205.04L212.33,195.23L233.57,196.07L254.8,190.31L276.03,193.83L297.27,200.09L318.5,198.94L339.73,195.36L360.97,192.85L382.2,199.33L403.43,197.18L424.67,198.63L445.9,202.64L467.13,198.82L488.37,200.09L509.6,197.02L530.83,201.78L552.07,203.23L573.3,202.86L594.53,206.68L615.77,208.69L637,208.14" style="vector-effect: none; fill: none; stroke: rgb(198, 146, 28); stroke-opacity: 1; stroke-width: 2px; opacity: 1;"/></g><g class="points"/><g class="text"/></g><g class="trace scatter tracea73d3f69-c3ea-409d-b8f2-8747010d475b" style="stroke-miterlimit: 2; opacity: 0.1;"><g class="fills"/><g class="errorbars"/><g class="lines"><path class="js-line" d="M0,181.46L21.23,170.74L42.47,176.74L63.7,185.83L84.93,182.33L106.17,176.89L127.4,180.31L148.63,179.27L169.87,179.08L191.1,181.11L212.33,189.94L233.57,189.24L254.8,194.75L276.03,197.48L297.27,187.39L318.5,185.26L339.73,185.36L360.97,180.34L382.2,177.34L445.9,176.79L467.13,181.92L509.6,176.3L530.83,179.38L552.07,184.89L573.3,179.15L594.53,178.97L615.77,174.57L637,173.94" style="vector-effect: none; fill: none; stroke: rgb(184, 188, 34); stroke-opacity: 1; stroke-width: 2px; opacity: 1;"/></g><g class="points"/><g class="text"/></g><g class="trace scatter trace6fe0f8ed-b31e-40e6-ae40-0ba7f0f11199" style="stroke-miterlimit: 2; opacity: 0.1;"><g class="fills"/><g class="errorbars"/><g class="lines"><path class="js-line" d="M0,181.46L21.23,176.42L42.47,177.88L84.93,182.75L106.17,190.71L127.4,191.95L148.63,197.02L212.33,196.16L233.57,193.13L254.8,189.2L276.03,193.69L297.27,192.02L318.5,191.94L339.73,191.98L360.97,194.89L382.2,194.39L403.43,196.71L424.67,199.98L445.9,214.15L467.13,218.75L488.37,214.83L530.83,212.44L552.07,212.94L594.53,209.9L615.77,208.39L637,209.35" style="vector-effect: none; fill: none; stroke: rgb(196, 153, 29); stroke-opacity: 1; stroke-width: 2px; opacity: 1;"/></g><g class="points"/><g class="text"/></g><g class="trace scatter tracef2563124-81e5-49b6-b038-d401a69c47fc" style="stroke-miterlimit: 2; opacity: 0.1;"><g class="fills"/><g class="errorbars"/><g class="lines"><path class="js-line" d="M0,181.46L21.23,184.18L42.47,183.87L63.7,187.91L84.93,180.48L106.17,182.01L127.4,174.82L148.63,175.59L169.87,172.3L191.1,170.56L212.33,174.24L233.57,175.26L254.8,169.92L276.03,167.88L297.27,163.53L339.73,161.5L360.97,152.41L403.43,150.03L424.67,151.47L445.9,157.58L467.13,154.54L488.37,156.4L509.6,154.06L530.83,153.38L552.07,157.63L573.3,166.76L594.53,165.68L615.77,170.36L637,168.39" style="vector-effect: none; fill: none; stroke: rgb(161, 183, 35); stroke-opacity: 1; stroke-width: 2px; opacity: 1;"/></g><g class="points"/><g class="text"/></g><g class="trace scatter tracefd947921-5fe2-42a6-a0b5-d8a5fb04fbf4" style="stroke-miterlimit: 2; opacity: 0.1;"><g class="fills"/><g class="errorbars"/><g class="lines"><path class="js-line" d="M0,181.46L21.23,182.49L42.47,191.66L63.7,193.01L84.93,192.54L106.17,208.64L127.4,205.01L169.87,196.32L191.1,208.74L212.33,205.92L233.57,196.17L254.8,197L276.03,191.29L297.27,194.78L318.5,200.99L339.73,199.86L360.97,196.3L382.2,193.81L403.43,200.25L424.67,198.11L445.9,199.55L467.13,203.53L488.37,199.74L509.6,201L530.83,197.95L552.07,202.68L573.3,204.12L594.53,203.75L615.77,207.54L637,209.55" style="vector-effect: none; fill: none; stroke: rgb(198, 143, 28); stroke-opacity: 1; stroke-width: 2px; opacity: 1;"/></g><g class="points"/><g class="text"/></g><g class="trace scatter trace5d6f0ad5-605a-4e44-b8fb-e9f0a0fe9c15" style="stroke-miterlimit: 2; opacity: 0.1;"><g class="fills"/><g class="errorbars"/><g class="lines"><path class="js-line" d="M0,181.46L21.23,151.25L42.47,151.07L63.7,157.5L84.93,144.89L106.17,147.61L127.4,148.14L148.63,142.47L169.87,145.13L191.1,140.25L212.33,128.35L233.57,130.61L254.8,113.26L276.03,113.52L297.27,107.27L318.5,120.51L339.73,141.22L360.97,138.09L382.2,148.46L403.43,151.64L424.67,152.32L445.9,156.19L467.13,138.45L488.37,143.01L509.6,135.41L530.83,143.28L552.07,141.77L573.3,141.25L594.53,132.93L615.77,127.33L637,117.33" style="vector-effect: none; fill: none; stroke: rgb(111, 173, 39); stroke-opacity: 1; stroke-width: 2px; opacity: 1;"/></g><g class="points"/><g class="text"/></g><g class="trace scatter traceaa3bf691-2793-47b6-8ca1-aebbcddfff2f" style="stroke-miterlimit: 2; opacity: 0.1;"><g class="fills"/><g class="errorbars"/><g class="lines"><path class="js-line" d="M0,181.46L21.23,184.9L42.47,185.85L63.7,180.86L84.93,178.96L106.17,174.9L127.4,173.72L148.63,172.99L169.87,164.51L212.33,162.28L233.57,163.63L254.8,169.33L276.03,166.5L297.27,168.23L318.5,166.05L339.73,165.41L360.97,169.38L382.2,177.91L403.43,176.9L424.67,181.27L445.9,179.43L467.13,181.61L488.37,191.25L509.6,189.25L530.83,185.32L552.07,189.74L573.3,187.5L594.53,188.14L615.77,190.7L637,186.59" style="vector-effect: none; fill: none; stroke: rgb(182, 187, 34); stroke-opacity: 1; stroke-width: 2px; opacity: 1;"/></g><g class="points"/><g class="text"/></g><g class="trace scatter trace415d1153-ffe4-4a85-8786-39bbf683701e" style="stroke-miterlimit: 2; opacity: 0.1;"><g class="fills"/><g class="errorbars"/><g class="lines"><path class="js-line" d="M0,181.46L21.23,182.17L42.47,181.57L63.7,180.91L84.93,182.04L106.17,179.96L127.4,180.88L148.63,183.15L169.87,183.85L191.1,184.26L212.33,182.46L233.57,180.65L254.8,183.43L276.03,182.47L297.27,178.73L318.5,176.93L339.73,173.44L360.97,172.35L382.2,170.05L403.43,171.6L424.67,171.64L445.9,170.39L467.13,173.06L488.37,172.47L509.6,170.41L530.83,166.84L552.07,164.55L573.3,152.01L594.53,149.31L615.77,149.96L637,147.25" style="vector-effect: none; fill: none; stroke: rgb(179, 187, 34); stroke-opacity: 1; stroke-width: 2px; opacity: 1;"/></g><g class="points"/><g class="text"/></g><g class="trace scatter tracee1faa291-a9be-48d1-9b81-197363d4e5ad" style="stroke-miterlimit: 2; opacity: 0.1;"><g class="fills"/><g class="errorbars"/><g class="lines"><path class="js-line" d="M0,181.46L21.23,188.37L42.47,189.36L63.7,198.12L84.93,199.41L106.17,198.96L127.4,214.34L148.63,210.87L169.87,206.37L191.1,202.57L212.33,214.43L233.57,211.74L254.8,202.43L276.03,203.22L297.27,197.76L318.5,201.1L339.73,207.03L360.97,205.95L382.2,202.55L403.43,200.17L424.67,206.32L445.9,204.28L467.13,205.66L488.37,209.46L509.6,205.84L530.83,207.04L552.07,204.13L573.3,208.64L594.53,210.02L615.77,209.67L637,213.29" style="vector-effect: none; fill: none; stroke: rgb(202, 129, 26); stroke-opacity: 1; stroke-width: 2px; opacity: 1;"/></g><g class="points"/><g class="text"/></g><g class="trace scatter trace2fd25015-ef0e-4a10-bebe-dfbb13d28902" style="stroke-miterlimit: 2; opacity: 0.1;"><g class="fills"/><g class="errorbars"/><g class="lines"><path class="js-line" d="M0,181.46L21.23,177.86L42.47,172.26L63.7,175.78L84.93,174.72L106.17,174.51L127.4,176.6L148.63,185.69L169.87,184.98L191.1,190.64L212.33,193.45L233.57,183.07L254.8,180.87L276.03,180.98L297.27,175.81L318.5,172.72L339.73,172.74L382.2,172.16L403.43,177.44L445.9,171.66L467.13,174.82L488.37,180.49L509.6,174.58L530.83,174.4L552.07,169.88L573.3,169.23L594.53,169.63L615.77,159.3L637,161.01" style="vector-effect: none; fill: none; stroke: rgb(175, 186, 34); stroke-opacity: 1; stroke-width: 2px; opacity: 1;"/></g><g class="points"/><g class="text"/></g><g class="trace scatter trace8a0cb251-358b-4cb9-ab35-400da9440508" style="stroke-miterlimit: 2; opacity: 0.1;"><g class="fills"/><g class="errorbars"/><g class="lines"><path class="js-line" d="M0,181.46L21.23,179.69L42.47,176.26L63.7,175.18L84.93,172.93L106.17,174.45L127.4,174.49L148.63,173.26L169.87,175.89L191.1,175.31L212.33,173.28L233.57,169.77L254.8,167.53L276.03,155.2L297.27,152.54L318.5,153.19L339.73,150.52L360.97,151.69L382.2,151.36L403.43,143.09L424.67,148.33L445.9,145.65L467.13,144.17L488.37,140.9L509.6,141.32L530.83,144.32L552.07,137.61L573.3,135.91L594.53,115.44L615.77,115.58L637,126.36" style="vector-effect: none; fill: none; stroke: rgb(132, 177, 37); stroke-opacity: 1; stroke-width: 2px; opacity: 1;"/></g><g class="points"/><g class="text"/></g><g class="trace scatter traceac25eac5-a69e-4746-b926-ffa895abbbe3" style="stroke-miterlimit: 2; opacity: 0.1;"><g class="fills"/><g class="errorbars"/><g class="lines"><path class="js-line" d="M0,181.46L21.23,178.71L42.47,185.83L63.7,183.46L84.93,185.06L106.17,189.46L127.4,185.27L148.63,186.66L169.87,183.29L191.1,188.52L212.33,190.11L233.57,189.71L254.8,193.9L276.03,196.11L297.27,195.51L318.5,194.35L339.73,198.54L360.97,203.22L382.2,192.72L403.43,192.08L424.67,186.08L445.9,183.29L467.13,178.28L488.37,170L509.6,160.1L530.83,157.59L552.07,157.61L573.3,147.84L594.53,151.16L615.77,158.37L637,161.48" style="vector-effect: none; fill: none; stroke: rgb(190, 179, 32); stroke-opacity: 1; stroke-width: 2px; opacity: 1;"/></g><g class="points"/><g class="text"/></g><g class="trace scatter trace0b2347d7-0a17-4b20-906a-0d09c83b93e2" style="stroke-miterlimit: 2; opacity: 0.1;"><g class="fills"/><g class="errorbars"/><g class="lines"><path class="js-line" d="M0,181.46L21.23,190.69L42.47,192.05L63.7,191.58L84.93,207.78L106.17,204.13L127.4,199.38L148.63,195.38L169.87,207.88L191.1,205.04L212.33,195.23L233.57,196.07L254.8,190.31L276.03,193.83L297.27,200.09L318.5,198.94L339.73,195.36L360.97,192.85L382.2,199.33L403.43,197.18L424.67,198.63L445.9,202.64L467.13,198.82L488.37,200.09L509.6,197.02L530.83,201.78L552.07,203.23L573.3,202.86L594.53,206.68L615.77,208.69L637,208.14" style="vector-effect: none; fill: none; stroke: rgb(198, 146, 28); stroke-opacity: 1; stroke-width: 2px; opacity: 1;"/></g><g class="points"/><g class="text"/></g><g class="trace scatter trace7f590745-3522-43fe-8566-6cf70eb68063" style="stroke-miterlimit: 2; opacity: 0.1;"><g class="fills"/><g class="errorbars"/><g class="lines"><path class="js-line" d="M0,181.46L21.23,177.97L42.47,183.38L63.7,185.03L84.93,184.61L106.17,188.95L127.4,191.24L169.87,189.42L191.1,193.75L212.33,198.59L233.57,187.73L254.8,187.07L276.03,180.85L297.27,177.97L318.5,172.79L339.73,164.22L360.97,153.97L382.2,151.38L403.43,151.39L424.67,141.29L445.9,144.72L467.13,152.18L488.37,155.4L509.6,159.75L530.83,152.75L552.07,147.49L573.3,138.38L594.53,130.37L615.77,133.96L637,122.61" style="vector-effect: none; fill: none; stroke: rgb(171, 185, 35); stroke-opacity: 1; stroke-width: 2px; opacity: 1;"/></g><g class="points"/><g class="text"/></g><g class="trace scatter traced1631de5-984b-4bc6-b8de-8b1ea6fa60b5" style="stroke-miterlimit: 2; opacity: 0.1;"><g class="fills"/><g class="errorbars"/><g class="lines"><path class="js-line" d="M0,181.46L63.7,180.18L84.93,181L106.17,177.12L127.4,174.95L148.63,173.51L169.87,174.62L191.1,171.86L212.33,167.95L233.57,149.35L254.8,151.45L276.03,148.16L297.27,148.18L318.5,144.18L339.73,136.3L360.97,148.65L382.2,146.14L403.43,146.61L424.67,137.25L445.9,136.95L467.13,139.8L488.37,136.97L509.6,138.32L530.83,134.74L552.07,143.22L594.53,136.66L615.77,136.99L637,135.43" style="vector-effect: none; fill: none; stroke: rgb(124, 176, 38); stroke-opacity: 1; stroke-width: 2px; opacity: 1;"/></g><g class="points"/><g class="text"/></g><g class="trace scatter trace3dc3a9a7-3b55-4ae1-81c2-905759bc3bce" style="stroke-miterlimit: 2; opacity: 0.1;"><g class="fills"/><g class="errorbars"/><g class="lines"><path class="js-line" d="M0,181.46L21.23,182.96L42.47,182.47L63.7,186.91L84.93,190.14L106.17,199.52L127.4,200.78L148.63,198.85L169.87,205.27L191.1,210.37L212.33,211.74L254.8,216.75L276.03,204.75L297.27,202.29L318.5,202.69L339.73,205.83L360.97,195.76L382.2,195.51L403.43,198.48L424.67,197.04L445.9,206.7L467.13,196.39L488.37,198.93L509.6,196.69L530.83,192.92L552.07,194.43L573.3,200.33L594.53,198.25L615.77,215.38L637,215.28" style="vector-effect: none; fill: none; stroke: rgb(198, 146, 28); stroke-opacity: 1; stroke-width: 2px; opacity: 1;"/></g><g class="points"/><g class="text"/></g><g class="trace scatter trace5fe210c8-88bc-4df9-b3d8-359d77dd2706" style="stroke-miterlimit: 2; opacity: 0.1;"><g class="fills"/><g class="errorbars"/><g class="lines"><path class="js-line" d="M0,181.46L21.23,180.77L42.47,172.68L84.93,170.57L106.17,171.85L127.4,177.28L148.63,174.58L169.87,176.23L191.1,174.15L212.33,173.55L233.57,177.33L254.8,185.45L276.03,184.49L297.27,188.65L318.5,186.9L339.73,188.98L360.97,198.15L382.2,196.25L403.43,192.51L424.67,196.71L445.9,194.58L467.13,195.19L488.37,197.63L509.6,193.72L530.83,191.3L552.07,191.77L573.3,194.84L594.53,197.53L615.77,198.46L637,198.43" style="vector-effect: none; fill: none; stroke: rgb(192, 170, 31); stroke-opacity: 1; stroke-width: 2px; opacity: 1;"/></g><g class="points"/><g class="text"/></g><g class="trace scatter traced848084c-8b64-4cf4-bb2d-4ba926b5386f" style="stroke-miterlimit: 2; opacity: 0.1;"><g class="fills"/><g class="errorbars"/><g class="lines"><path class="js-line" d="M0,181.46L21.23,182.53L42.47,182.19L84.93,181.27L106.17,182.08L127.4,178.22L148.63,176.07L169.87,174.64L191.1,175.74L212.33,173.01L233.57,169.12L254.8,150.65L276.03,152.73L297.27,149.47L318.5,149.48L339.73,145.52L360.97,137.69L382.2,149.96L403.43,147.46L424.67,147.93L445.9,138.63L467.13,138.34L488.37,141.16L509.6,138.35L530.83,139.69L552.07,136.14L573.3,144.56L615.77,138.04L637,138.37" style="vector-effect: none; fill: none; stroke: rgb(126, 176, 38); stroke-opacity: 1; stroke-width: 2px; opacity: 1;"/></g><g class="points"/><g class="text"/></g><g class="trace scatter tracecd1dbdbf-574c-403c-9b45-8bba7ea206ec" style="stroke-miterlimit: 2; opacity: 0.1;"><g class="fills"/><g class="errorbars"/><g class="lines"><path class="js-line" d="M0,181.46L21.23,180.3L42.47,183.38L63.7,187.32L84.93,187.87L106.17,188.44L127.4,186.75L148.63,179.7L169.87,182.05L191.1,193.84L212.33,195.74L233.57,195.38L254.8,201.32L276.03,206.16L297.27,201.87L318.5,205.31L339.73,201.53L360.97,198.4L382.2,198.76L403.43,203.73L424.67,184.56L445.9,180.13L467.13,181.99L488.37,187.04L509.6,198.64L530.83,197.77L552.07,201.2L573.3,202.72L594.53,200.11L615.77,188.84L637,197.68" style="vector-effect: none; fill: none; stroke: rgb(196, 154, 29); stroke-opacity: 1; stroke-width: 2px; opacity: 1;"/></g><g class="points"/><g class="text"/></g><g class="trace scatter traced5a6aa75-34d2-416e-b67c-a2c0db338d3b" style="stroke-miterlimit: 2; opacity: 0.1;"><g class="fills"/><g class="errorbars"/><g class="lines"><path class="js-line" d="M0,181.46L21.23,180.84L42.47,178.09L63.7,182.7L84.93,191.26L106.17,190.57L127.4,198.9L148.63,196.1L169.87,192.11L191.1,194.72L212.33,200.45L233.57,197.33L254.8,198.3L276.03,193.91L297.27,206.53L318.5,204.13L339.73,197.97L360.97,196.76L382.2,198.75L403.43,198.19L424.67,199.89L445.9,206.83L467.13,217.56L488.37,216.97L509.6,214.45L552.07,214.38L573.3,221.44L594.53,222.41L615.77,216.99L637,215.39" style="vector-effect: none; fill: none; stroke: rgb(198, 146, 28); stroke-opacity: 1; stroke-width: 2px; opacity: 1;"/></g><g class="points"/><g class="text"/></g><g class="trace scatter tracec33eb4c5-3da9-4cb9-93e3-f0ae44f57112" style="stroke-miterlimit: 2; opacity: 0.1;"><g class="fills"/><g class="errorbars"/><g class="lines"><path class="js-line" d="M0,181.46L21.23,186.23L42.47,186.48L63.7,187.99L84.93,187.39L106.17,184.76L127.4,189.18L148.63,197.37L169.87,196.71L191.1,204.69L212.33,202.01L233.57,198.18L254.8,200.69L276.03,206.18L297.27,203.19L318.5,204.12L339.73,199.91L360.97,212L382.2,209.7L403.43,203.8L424.67,202.64L445.9,204.55L467.13,204.01L488.37,205.64L509.6,212.29L530.83,222.56L552.07,222L573.3,219.58L594.53,219.25L615.77,219.52L637,226.27" style="vector-effect: none; fill: none; stroke: rgb(201, 133, 27); stroke-opacity: 1; stroke-width: 2px; opacity: 1;"/></g><g class="points"/><g class="text"/></g><g class="trace scatter trace0a5c574b-0d8d-4d5b-bac1-28c0570f599e" style="stroke-miterlimit: 2; opacity: 0.1;"><g class="fills"/><g class="errorbars"/><g class="lines"><path class="js-line" d="M0,181.46L21.23,185.74L42.47,185.27L63.7,182.48L84.93,183.29L106.17,175.43L127.4,179.55L148.63,175.72L169.87,175.78L191.1,163.69L212.33,165.91L254.8,162.74L276.03,156.4L297.27,151.58L318.5,162.23L339.73,166.44L360.97,164.76L382.2,165.98L403.43,159.75L424.67,167.44L445.9,172.8L467.13,166.75L488.37,162.06L552.07,165.81L573.3,159.36L594.53,160.26L615.77,164.46L637,165.74" style="vector-effect: none; fill: none; stroke: rgb(158, 182, 36); stroke-opacity: 1; stroke-width: 2px; opacity: 1;"/></g><g class="points"/><g class="text"/></g><g class="trace scatter trace7b4640cc-6120-491e-9d65-6ad4a2b42e4b" style="stroke-miterlimit: 2; opacity: 0.1;"><g class="fills"/><g class="errorbars"/><g class="lines"><path class="js-line" d="M0,181.46L21.23,169.88L42.47,170.87L63.7,164.08L84.93,168.23L106.17,175.61L127.4,174.26L148.63,170.03L169.87,167.08L191.1,174.72L212.33,172.18L233.57,173.9L254.8,178.62L276.03,174.12L297.27,175.62L318.5,172L339.73,177.61L360.97,179.32L382.2,178.89L403.43,183.39L424.67,185.77L467.13,183.88L488.37,188.38L509.6,193.4L530.83,182.13L552.07,181.44L573.3,174.99L594.53,172L615.77,166.62L637,157.73" style="vector-effect: none; fill: none; stroke: rgb(175, 186, 34); stroke-opacity: 1; stroke-width: 2px; opacity: 1;"/></g><g class="points"/><g class="text"/></g><g class="trace scatter trace082d9600-83bb-4bd4-95e9-c99f144fd434" style="stroke-miterlimit: 2; opacity: 0.1;"><g class="fills"/><g class="errorbars"/><g class="lines"><path class="js-line" d="M0,181.46L21.23,190.69L42.47,192.05L63.7,191.58L84.93,207.78L106.17,204.13L127.4,199.38L148.63,195.38L169.87,207.88L191.1,205.04L212.33,195.23L233.57,196.07L254.8,190.31L276.03,193.83L297.27,200.09L318.5,198.94L339.73,195.36L360.97,192.85L382.2,199.33L403.43,197.18L424.67,198.63L445.9,202.64L467.13,198.82L488.37,200.09L509.6,197.02L530.83,201.78L552.07,203.23L573.3,202.86L594.53,206.68L615.77,208.69L637,208.14" style="vector-effect: none; fill: none; stroke: rgb(198, 146, 28); stroke-opacity: 1; stroke-width: 2px; opacity: 1;"/></g><g class="points"/><g class="text"/></g><g class="trace scatter traceab63d305-1667-46fe-b154-2e96543553fa" style="stroke-miterlimit: 2; opacity: 0.1;"><g class="fills"/><g class="errorbars"/><g class="lines"><path class="js-line" d="M0,181.46L21.23,178.99L42.47,182.02L63.7,187.43L84.93,181.79L106.17,181.62L127.4,177.3L148.63,176.68L169.87,177.05L191.1,167.18L212.33,168.82L233.57,168.29L254.8,173.14L276.03,176.66L297.27,186.91L318.5,188.28L339.73,186.18L360.97,193.19L382.2,198.76L403.43,200.26L424.67,203.12L445.9,205.73L467.13,192.62L488.37,189.93L509.6,190.38L530.83,193.81L552.07,182.81L573.3,182.53L594.53,185.77L615.77,184.2L637,194.75" style="vector-effect: none; fill: none; stroke: rgb(189, 182, 33); stroke-opacity: 1; stroke-width: 2px; opacity: 1;"/></g><g class="points"/><g class="text"/></g><g class="trace scatter tracea9c95440-f4c3-459d-9fda-cdd2014f08da" style="stroke-miterlimit: 2; opacity: 0.1;"><g class="fills"/><g class="errorbars"/><g class="lines"><path class="js-line" d="M0,181.46L21.23,185.56L42.47,178.02L63.7,179.57L84.93,172.27L106.17,173.05L127.4,169.7L148.63,167.94L169.87,171.68L191.1,172.71L212.33,167.29L233.57,165.22L254.8,160.8L297.27,158.73L318.5,149.5L360.97,147.08L382.2,148.54L403.43,154.75L424.67,151.67L445.9,153.55L467.13,151.17L488.37,150.48L509.6,154.8L530.83,164.07L552.07,162.98L573.3,167.73L594.53,165.73L615.77,168.1L637,178.58" style="vector-effect: none; fill: none; stroke: rgb(156, 182, 36); stroke-opacity: 1; stroke-width: 2px; opacity: 1;"/></g><g class="points"/><g class="text"/></g><g class="trace scatter trace19a9e6d4-aeac-4287-9132-372bbb3d9218" style="stroke-miterlimit: 2; opacity: 0.1;"><g class="fills"/><g class="errorbars"/><g class="lines"><path class="js-line" d="M0,181.46L21.23,181.31L42.47,186.69L63.7,176.14L84.93,178.42L106.17,178.86L127.4,174.11L148.63,176.34L169.87,172.26L191.1,162.3L212.33,164.19L233.57,149.68L254.8,149.89L276.03,144.67L297.27,155.74L318.5,173.07L339.73,170.45L360.97,179.13L382.2,181.79L403.43,182.35L424.67,185.59L445.9,170.75L467.13,174.57L488.37,168.21L509.6,174.79L530.83,173.53L552.07,173.1L573.3,166.13L594.53,161.45L615.77,153.08L637,149.86" style="vector-effect: none; fill: none; stroke: rgb(171, 185, 35); stroke-opacity: 1; stroke-width: 2px; opacity: 1;"/></g><g class="points"/><g class="text"/></g><g class="trace scatter trace48987b02-df08-4855-85fe-a0b2c503acb7" style="stroke-miterlimit: 2; opacity: 0.1;"><g class="fills"/><g class="errorbars"/><g class="lines"><path class="js-line" d="M0,181.46L21.23,166.26L42.47,154.63L63.7,152.16L84.93,146.47L106.17,149.39L127.4,155.24L148.63,146.56L169.87,151.16L191.1,147.21L212.33,139.38L233.57,125.2L254.8,126.89L276.03,120.54L297.27,118.11L318.5,106.24L339.73,105.86L360.97,102.61L382.2,79.95L403.43,73.41L424.67,81.46L445.9,65.85L467.13,43.41L488.37,22.21L509.6,13.05L530.83,16.99L552.07,32.42L573.3,54.27L594.53,65.04L615.77,38.61L637,24.5" style="vector-effect: none; fill: none; stroke: rgb(44, 160, 44); stroke-opacity: 1; stroke-width: 2px; opacity: 1;"/></g><g class="points"/><g class="text"/></g><g class="trace scatter trace2bee08a5-b6a7-4b89-bf3b-7b9ba060ccb8" style="stroke-miterlimit: 2; opacity: 0.1;"><g class="fills"/><g class="errorbars"/><g class="lines"><path class="js-line" d="M0,181.46L21.23,181.83L42.47,172.25L63.7,173.84L84.93,173.32L106.17,178.03L127.4,181.45L148.63,191.39L169.87,192.72L191.1,190.68L212.33,197.48L233.57,202.88L254.8,204.34L297.27,209.64L318.5,196.93L339.73,194.32L360.97,194.75L382.2,198.08L403.43,187.41L424.67,187.13L445.9,190.28L467.13,188.76L488.37,198.99L509.6,188.07L530.83,190.76L552.07,188.39L573.3,184.4L594.53,186L615.77,192.25L637,190.05" style="vector-effect: none; fill: none; stroke: rgb(193, 166, 31); stroke-opacity: 1; stroke-width: 2px; opacity: 1;"/></g><g class="points"/><g class="text"/></g><g class="trace scatter trace0b0fb31b-da96-4713-b7b7-689cf1b6e0e2" style="stroke-miterlimit: 2; opacity: 0.1;"><g class="fills"/><g class="errorbars"/><g class="lines"><path class="js-line" d="M0,181.46L42.47,179.58L63.7,182.67L84.93,186.63L106.17,187.18L127.4,187.76L148.63,186.06L169.87,178.97L191.1,181.34L212.33,193.19L233.57,195.09L254.8,194.72L276.03,200.69L297.27,205.56L318.5,201.25L339.73,204.7L360.97,200.9L382.2,197.76L403.43,198.12L424.67,203.12L445.9,183.86L467.13,179.41L488.37,181.27L509.6,186.35L530.83,198.01L552.07,197.13L573.3,200.57L594.53,202.1L615.77,199.48L637,188.16" style="vector-effect: none; fill: none; stroke: rgb(195, 159, 30); stroke-opacity: 1; stroke-width: 2px; opacity: 1;"/></g><g class="points"/><g class="text"/></g><g class="trace scatter trace0b6f9022-4dbf-4868-8c57-5e17361ab47a" style="stroke-miterlimit: 2; opacity: 0.1;"><g class="fills"/><g class="errorbars"/><g class="lines"><path class="js-line" d="M0,181.46L21.23,190.27L42.47,189.58L63.7,195.07L84.93,197.79L106.17,187.73L127.4,185.6L148.63,185.7L169.87,180.69L191.1,177.7L212.33,177.71L254.8,177.15L276.03,182.27L318.5,176.66L339.73,179.73L360.97,185.23L382.2,179.5L403.43,179.33L424.67,174.94L445.9,174.31L467.13,174.7L488.37,164.68L509.6,166.34L530.83,165.8L552.07,170.72L573.3,174.3L594.53,184.7L615.77,186.09L637,183.96" style="vector-effect: none; fill: none; stroke: rgb(184, 188, 34); stroke-opacity: 1; stroke-width: 2px; opacity: 1;"/></g><g class="points"/><g class="text"/></g><g class="trace scatter trace4bd5e977-fd30-484d-a28e-3490dd41e125" style="stroke-miterlimit: 2; opacity: 0.1;"><g class="fills"/><g class="errorbars"/><g class="lines"><path class="js-line" d="M0,181.46L21.23,181.68L42.47,191.3L63.7,194.59L84.93,192.59L106.17,195.34L127.4,190.76L148.63,192.09L169.87,194.64L191.1,196.51L212.33,203.77L233.57,204.89L254.8,209.51L318.5,208.73L339.73,205.96L360.97,202.39L382.2,206.48L403.43,204.96L424.67,204.88L445.9,204.92L467.13,207.57L488.37,207.11L509.6,209.22L530.83,212.2L552.07,225.1L573.3,229.29L594.53,225.71L637,223.54" style="vector-effect: none; fill: none; stroke: rgb(202, 130, 26); stroke-opacity: 1; stroke-width: 2px; opacity: 1;"/></g><g class="points"/><g class="text"/></g><g class="trace scatter trace7b370a8e-c3d4-4103-91f0-72fb7d3fe5d2" style="stroke-miterlimit: 2; opacity: 0.1;"><g class="fills"/><g class="errorbars"/><g class="lines"><path class="js-line" d="M0,181.46L21.23,187.9L42.47,185.63L63.7,204.32L84.93,204.21L106.17,203.76L127.4,211.93L148.63,212.81L169.87,220.5L191.1,222.32L212.33,238.68L233.57,228.49L254.8,237.19L276.03,236.66L297.27,244.08L318.5,233.09L339.73,234.34L360.97,231.9L382.2,233.79L403.43,241.41L424.67,244.22L445.9,241.46L467.13,237.18L488.37,238.67L509.6,236.35L530.83,231.89L552.07,238.31L573.3,241.8L594.53,241.05L615.77,247.01L637,247.47" style="vector-effect: none; fill: none; stroke: rgb(219, 58, 18); stroke-opacity: 1; stroke-width: 2px; opacity: 1;"/></g><g class="points"/><g class="text"/></g><g class="trace scatter trace44d1338c-6a13-485d-adec-84ab10270043" style="stroke-miterlimit: 2; opacity: 0.1;"><g class="fills"/><g class="errorbars"/><g class="lines"><path class="js-line" d="M0,181.46L21.23,181.83L42.47,172.25L63.7,173.84L84.93,173.32L106.17,178.03L127.4,181.45L148.63,191.39L169.87,192.72L191.1,190.68L212.33,197.48L233.57,202.88L254.8,204.34L297.27,209.64L318.5,196.93L339.73,194.32L360.97,194.75L382.2,198.08L403.43,187.41L424.67,187.13L445.9,190.28L467.13,188.76L488.37,198.99L509.6,188.07L530.83,190.76L552.07,188.39L573.3,184.4L594.53,186L615.77,192.25L637,190.05" style="vector-effect: none; fill: none; stroke: rgb(193, 166, 31); stroke-opacity: 1; stroke-width: 2px; opacity: 1;"/></g><g class="points"/><g class="text"/></g><g class="trace scatter trace42d69021-0d42-464c-812f-eb15373327dd" style="stroke-miterlimit: 2; opacity: 0.1;"><g class="fills"/><g class="errorbars"/><g class="lines"><path class="js-line" d="M0,181.46L21.23,192.2L42.47,180.74L63.7,183.56L84.93,181.07L106.17,176.88L127.4,178.56L148.63,185.12L169.87,182.81L191.1,201.85L212.33,201.74L233.57,201.28L254.8,209.61L276.03,210.5L297.27,218.33L318.5,220.19L339.73,236.85L360.97,226.48L382.2,235.33L403.43,234.8L424.67,242.36L445.9,231.16L467.13,232.43L488.37,229.95L509.6,231.88L530.83,239.63L552.07,242.49L573.3,239.69L594.53,235.33L615.77,236.85L637,234.48" style="vector-effect: none; fill: none; stroke: rgb(211, 93, 22); stroke-opacity: 1; stroke-width: 2px; opacity: 1;"/></g><g class="points"/><g class="text"/></g><g class="trace scatter tracec5bc0d99-271f-4a12-80b6-4d9ea2b344d9" style="stroke-miterlimit: 2; opacity: 0.1;"><g class="fills"/><g class="errorbars"/><g class="lines"><path class="js-line" d="M0,181.46L21.23,186.75L42.47,188.36L63.7,187.95L84.93,192.2L106.17,194.44L127.4,193.82L148.63,192.66L169.87,196.89L191.1,201.63L212.33,191L233.57,190.36L254.8,184.28L276.03,181.46L297.27,176.39L318.5,168.01L339.73,157.99L360.97,155.46L382.2,155.47L403.43,145.59L424.67,148.95L445.9,156.24L467.13,159.39L488.37,163.64L509.6,156.79L530.83,151.65L552.07,142.74L573.3,134.91L594.53,138.42L615.77,127.32L637,130.34" style="vector-effect: none; fill: none; stroke: rgb(162, 183, 35); stroke-opacity: 1; stroke-width: 2px; opacity: 1;"/></g><g class="points"/><g class="text"/></g><g class="trace scatter trace6311738c-6617-4fe1-b26b-bd5eeba2fa3e" style="stroke-miterlimit: 2; opacity: 0.1;"><g class="fills"/><g class="errorbars"/><g class="lines"><path class="js-line" d="M0,181.46L21.23,185.74L42.47,185.27L63.7,182.48L84.93,183.29L106.17,175.43L127.4,179.55L148.63,175.72L169.87,175.78L191.1,163.69L212.33,165.91L254.8,162.74L276.03,156.4L297.27,151.58L318.5,162.23L339.73,166.44L360.97,164.76L382.2,165.98L403.43,159.75L424.67,167.44L445.9,172.8L467.13,166.75L488.37,162.06L552.07,165.81L573.3,159.36L594.53,160.26L615.77,164.46L637,165.74" style="vector-effect: none; fill: none; stroke: rgb(158, 182, 36); stroke-opacity: 1; stroke-width: 2px; opacity: 1;"/></g><g class="points"/><g class="text"/></g><g class="trace scatter traced6c3f736-67d5-4fb4-ac11-f717d1e4f638" style="stroke-miterlimit: 2; opacity: 0.1;"><g class="fills"/><g class="errorbars"/><g class="lines"><path class="js-line" d="M0,181.46L21.23,180.95L42.47,198.35L63.7,194.42L84.93,189.33L106.17,185.04L127.4,198.45L148.63,195.41L169.87,184.87L191.1,185.77L212.33,179.59L233.57,183.37L254.8,190.08L276.03,188.86L297.27,185.01L318.5,182.32L339.73,189.28L360.97,186.97L382.2,188.53L403.43,192.82L424.67,188.73L445.9,190.09L467.13,186.8L488.37,191.91L509.6,193.46L530.83,193.07L552.07,197.16L573.3,199.33L594.53,198.73L615.77,197.61L637,201.7" style="vector-effect: none; fill: none; stroke: rgb(192, 169, 31); stroke-opacity: 1; stroke-width: 2px; opacity: 1;"/></g><g class="points"/><g class="text"/></g><g class="trace scatter tracef5d4b26a-0329-4e12-976c-66325cdf4e85" style="stroke-miterlimit: 2; opacity: 0.1;"><g class="fills"/><g class="errorbars"/><g class="lines"><path class="js-line" d="M0,181.46L21.23,182.17L42.47,181.57L63.7,180.91L84.93,182.04L106.17,179.96L127.4,180.88L148.63,183.15L169.87,183.85L191.1,184.26L212.33,182.46L233.57,180.65L254.8,183.43L276.03,182.47L297.27,178.73L318.5,176.93L339.73,173.44L360.97,172.35L382.2,170.05L403.43,171.6L424.67,171.64L445.9,170.39L467.13,173.06L488.37,172.47L509.6,170.41L530.83,166.84L552.07,164.55L573.3,152.01L594.53,149.31L615.77,149.96L637,147.25" style="vector-effect: none; fill: none; stroke: rgb(179, 187, 34); stroke-opacity: 1; stroke-width: 2px; opacity: 1;"/></g><g class="points"/><g class="text"/></g><g class="trace scatter traced1d9fa2f-3f46-4005-ab79-b50e4e79b36a" style="stroke-miterlimit: 2; opacity: 0.1;"><g class="fills"/><g class="errorbars"/><g class="lines"><path class="js-line" d="M0,181.46L21.23,175.59L42.47,175.41L63.7,170.91L84.93,170.27L106.17,170.66L127.4,160.4L148.63,162.1L169.87,161.54L191.1,166.59L212.33,170.26L233.57,180.92L254.8,182.34L276.03,180.16L297.27,187.44L318.5,193.24L339.73,194.8L382.2,200.49L403.43,186.85L424.67,184.06L445.9,184.52L467.13,188.09L488.37,176.65L509.6,176.35L530.83,179.73L552.07,178.1L573.3,189.07L594.53,177.36L615.77,180.24L637,177.7" style="vector-effect: none; fill: none; stroke: rgb(185, 188, 34); stroke-opacity: 1; stroke-width: 2px; opacity: 1;"/></g><g class="points"/><g class="text"/></g><g class="trace scatter tracedac8c461-fa9a-4d70-9816-c5c8c7ab9344" style="stroke-miterlimit: 2; opacity: 0.1;"><g class="fills"/><g class="errorbars"/><g class="lines"><path class="js-line" d="M0,181.46L21.23,182.28L42.47,174.36L63.7,178.51L84.93,174.66L106.17,174.71L127.4,162.54L148.63,164.78L169.87,162.95L191.1,161.59L212.33,155.2L233.57,150.36L254.8,161.07L276.03,165.31L297.27,163.63L318.5,164.85L339.73,158.58L360.97,166.32L382.2,171.71L403.43,165.63L424.67,160.9L488.37,164.68L509.6,158.19L530.83,159.1L552.07,163.32L573.3,164.61L594.53,163.11L615.77,158.03L637,146.07" style="vector-effect: none; fill: none; stroke: rgb(153, 182, 36); stroke-opacity: 1; stroke-width: 2px; opacity: 1;"/></g><g class="points"/><g class="text"/></g><g class="trace scatter trace911a017e-e23e-49bc-9ccd-171992123e89" style="stroke-miterlimit: 2; opacity: 0.1;"><g class="fills"/><g class="errorbars"/><g class="lines"><path class="js-line" d="M0,181.46L21.23,179.26L42.47,179.27L63.7,170.69L84.93,173.61L106.17,179.94L127.4,182.67L148.63,186.36L169.87,180.42L191.1,175.95L212.33,168.22L233.57,161.41L254.8,164.46L276.03,154.83L297.27,157.45L318.5,157.74L339.73,162.09L360.97,148.77L382.2,151.63L403.43,152L424.67,156.21L445.9,160.93L467.13,160.89L488.37,152.84L509.6,142.8L530.83,144.76L552.07,143.13L573.3,142.15L594.53,149.26L615.77,144.17L637,152.51" style="vector-effect: none; fill: none; stroke: rgb(149, 181, 36); stroke-opacity: 1; stroke-width: 2px; opacity: 1;"/></g><g class="points"/><g class="text"/></g><g class="trace scatter tracebfd6ea11-304c-4bd1-8c0d-644b4a889f41" style="stroke-miterlimit: 2; opacity: 0.1;"><g class="fills"/><g class="errorbars"/><g class="lines"><path class="js-line" d="M0,181.46L21.23,184.97L42.47,182.83L63.7,185.77L84.93,180.88L106.17,182.3L127.4,185.03L148.63,187.03L169.87,194.77L191.1,195.97L212.33,200.9L276.03,200.07L297.27,197.12L318.5,193.3L339.73,197.67L360.97,196.04L382.2,195.96L403.43,196L424.67,198.83L445.9,198.35L467.13,200.6L488.37,203.78L509.6,217.56L530.83,222.03L552.07,218.21L594.53,215.89L615.77,216.37L637,215.23" style="vector-effect: none; fill: none; stroke: rgb(197, 149, 29); stroke-opacity: 1; stroke-width: 2px; opacity: 1;"/></g><g class="points"/><g class="text"/></g><g class="trace scatter trace4dd80ea1-a80c-4f1c-9977-7b55fa5679fd" style="stroke-miterlimit: 2; opacity: 0.1;"><g class="fills"/><g class="errorbars"/><g class="lines"><path class="js-line" d="M0,181.46L21.23,180.3L42.47,183.38L63.7,187.32L84.93,187.87L106.17,188.44L127.4,186.75L148.63,179.7L169.87,182.05L191.1,193.84L212.33,195.74L233.57,195.38L254.8,201.32L276.03,206.16L297.27,201.87L318.5,205.31L339.73,201.53L360.97,198.4L382.2,198.76L403.43,203.73L424.67,184.56L445.9,180.13L467.13,181.99L488.37,187.04L509.6,198.64L530.83,197.77L552.07,201.2L573.3,202.72L594.53,200.11L615.77,188.84L637,197.68" style="vector-effect: none; fill: none; stroke: rgb(196, 154, 29); stroke-opacity: 1; stroke-width: 2px; opacity: 1;"/></g><g class="points"/><g class="text"/></g><g class="trace scatter trace362ffa31-d0f4-4089-99e2-718a047b7b15" style="stroke-miterlimit: 2; opacity: 0.1;"><g class="fills"/><g class="errorbars"/><g class="lines"><path class="js-line" d="M0,181.46L21.23,180.98L42.47,178.11L63.7,178.95L84.93,170.86L106.17,175.1L127.4,171.16L148.63,171.22L169.87,158.78L191.1,161.07L212.33,159.2L233.57,157.81L254.8,151.28L276.03,146.34L297.27,157.29L318.5,161.61L339.73,159.89L360.97,161.14L382.2,154.74L403.43,162.65L424.67,168.15L445.9,161.94L467.13,157.11L530.83,160.97L552.07,154.33L573.3,155.26L594.53,159.58L615.77,160.9L637,159.36" style="vector-effect: none; fill: none; stroke: rgb(149, 181, 36); stroke-opacity: 1; stroke-width: 2px; opacity: 1;"/></g><g class="points"/><g class="text"/></g><g class="trace scatter trace3746d065-010a-4bfb-be9d-c8a892032e29" style="stroke-miterlimit: 2; opacity: 0.1;"><g class="fills"/><g class="errorbars"/><g class="lines"><path class="js-line" d="M0,181.46L21.23,180.43L42.47,180.24L63.7,182.25L84.93,191.02L106.17,190.33L127.4,195.8L148.63,198.5L169.87,188.49L191.1,186.37L212.33,186.48L233.57,181.49L254.8,178.51L318.5,177.97L339.73,183.06L382.2,177.48L403.43,180.54L424.67,186.01L445.9,180.31L467.13,180.13L488.37,175.77L509.6,175.14L530.83,175.53L552.07,165.56L573.3,167.21L594.53,166.67L615.77,171.57L637,175.13" style="vector-effect: none; fill: none; stroke: rgb(185, 188, 34); stroke-opacity: 1; stroke-width: 2px; opacity: 1;"/></g><g class="points"/><g class="text"/></g><g class="trace scatter trace98ca9989-3080-45c2-a8c8-348f9e6baf36" style="stroke-miterlimit: 2; opacity: 0.1;"><g class="fills"/><g class="errorbars"/><g class="lines"><path class="js-line" d="M0,181.46L21.23,173.41L42.47,172.39L63.7,171.3L84.93,172.58L106.17,177.99L127.4,175.3L148.63,176.94L169.87,174.87L191.1,174.27L212.33,178.03L233.57,186.12L254.8,185.17L276.03,189.31L297.27,187.56L318.5,189.63L339.73,198.76L360.97,196.87L382.2,193.14L403.43,197.33L424.67,195.21L445.9,195.82L467.13,198.25L488.37,194.35L509.6,191.94L530.83,192.41L552.07,195.46L573.3,198.14L594.53,199.07L615.77,199.04L637,195.65" style="vector-effect: none; fill: none; stroke: rgb(192, 168, 31); stroke-opacity: 1; stroke-width: 2px; opacity: 1;"/></g><g class="points"/><g class="text"/></g><g class="trace scatter tracea8e5573e-5f89-46fa-80fb-ac7a7f7c3f4a" style="stroke-miterlimit: 2; opacity: 0.1;"><g class="fills"/><g class="errorbars"/><g class="lines"><path class="js-line" d="M0,181.46L21.23,179.26L42.47,179.27L63.7,170.69L84.93,173.61L106.17,179.94L127.4,182.67L148.63,186.36L169.87,180.42L191.1,175.95L212.33,168.22L233.57,161.41L254.8,164.46L276.03,154.83L297.27,157.45L318.5,157.74L339.73,162.09L360.97,148.77L382.2,151.63L403.43,152L424.67,156.21L445.9,160.93L467.13,160.89L488.37,152.84L509.6,142.8L530.83,144.76L552.07,143.13L573.3,142.15L594.53,149.26L615.77,144.17L637,152.51" style="vector-effect: none; fill: none; stroke: rgb(149, 181, 36); stroke-opacity: 1; stroke-width: 2px; opacity: 1;"/></g><g class="points"/><g class="text"/></g><g class="trace scatter trace774d4b25-45c9-4e35-bbb2-a1d71ed9b2bc" style="stroke-miterlimit: 2; opacity: 0.1;"><g class="fills"/><g class="errorbars"/><g class="lines"><path class="js-line" d="M0,181.46L63.7,180.18L84.93,181L106.17,177.12L127.4,174.95L148.63,173.51L169.87,174.62L191.1,171.86L212.33,167.95L233.57,149.35L254.8,151.45L276.03,148.16L297.27,148.18L318.5,144.18L339.73,136.3L360.97,148.65L382.2,146.14L403.43,146.61L424.67,137.25L445.9,136.95L467.13,139.8L488.37,136.97L509.6,138.32L530.83,134.74L552.07,143.22L594.53,136.66L615.77,136.99L637,135.43" style="vector-effect: none; fill: none; stroke: rgb(124, 176, 38); stroke-opacity: 1; stroke-width: 2px; opacity: 1;"/></g><g class="points"/><g class="text"/></g><g class="trace scatter trace504d5e78-54a2-46dc-8f61-cb659d73adb6" style="stroke-miterlimit: 2; opacity: 0.1;"><g class="fills"/><g class="errorbars"/><g class="lines"><path class="js-line" d="M0,181.46L21.23,183.09L42.47,189.46L63.7,187.22L84.93,205.71L127.4,205.16L148.63,213.25L169.87,214.12L191.1,221.72L212.33,223.53L233.57,239.71L254.8,229.63L276.03,238.23L297.27,237.71L318.5,245.05L339.73,234.17L360.97,235.41L382.2,233L403.43,234.87L424.67,242.4L445.9,245.19L467.13,242.46L488.37,238.23L509.6,239.7L530.83,237.4L552.07,232.99L573.3,239.34L594.53,242.8L615.77,242.06L637,247.95" style="vector-effect: none; fill: none; stroke: rgb(220, 57, 18); stroke-opacity: 1; stroke-width: 2px; opacity: 1;"/></g><g class="points"/><g class="text"/></g><g class="trace scatter traceb0ba0815-9d1b-4019-8d07-139a5185bbbf" style="stroke-miterlimit: 2; opacity: 0.1;"><g class="fills"/><g class="errorbars"/><g class="lines"><path class="js-line" d="M0,181.46L21.23,177.97L42.47,183.38L63.7,185.03L84.93,184.61L106.17,188.95L127.4,191.24L169.87,189.42L191.1,193.75L212.33,198.59L233.57,187.73L254.8,187.07L276.03,180.85L297.27,177.97L318.5,172.79L339.73,164.22L360.97,153.97L382.2,151.38L403.43,151.39L424.67,141.29L445.9,144.72L467.13,152.18L488.37,155.4L509.6,159.75L530.83,152.75L552.07,147.49L573.3,138.38L594.53,130.37L615.77,133.96L637,122.61" style="vector-effect: none; fill: none; stroke: rgb(171, 185, 35); stroke-opacity: 1; stroke-width: 2px; opacity: 1;"/></g><g class="points"/><g class="text"/></g><g class="trace scatter trace4aaf4b60-ff50-4b12-9288-bf1925535d56" style="stroke-miterlimit: 2; opacity: 0.1;"><g class="fills"/><g class="errorbars"/><g class="lines"><path class="js-line" d="M0,181.46L21.23,188.37L42.47,189.36L63.7,198.12L84.93,199.41L106.17,198.96L127.4,214.34L148.63,210.87L169.87,206.37L191.1,202.57L212.33,214.43L233.57,211.74L254.8,202.43L276.03,203.22L297.27,197.76L318.5,201.1L339.73,207.03L360.97,205.95L382.2,202.55L403.43,200.17L424.67,206.32L445.9,204.28L467.13,205.66L488.37,209.46L509.6,205.84L530.83,207.04L552.07,204.13L573.3,208.64L594.53,210.02L615.77,209.67L637,213.29" style="vector-effect: none; fill: none; stroke: rgb(202, 129, 26); stroke-opacity: 1; stroke-width: 2px; opacity: 1;"/></g><g class="points"/><g class="text"/></g><g class="trace scatter trace8e6cd8ba-bdf4-4458-9c2e-32426680e626" style="stroke-miterlimit: 2; opacity: 0.1;"><g class="fills"/><g class="errorbars"/><g class="lines"><path class="js-line" d="M0,181.46L21.23,180.81L42.47,181.62L63.7,177.75L84.93,175.59L106.17,174.16L127.4,175.26L148.63,172.52L169.87,168.62L191.1,150.1L212.33,152.19L233.57,148.91L254.8,148.92L276.03,144.95L297.27,137.09L318.5,149.4L339.73,146.9L360.97,147.37L382.2,138.04L403.43,137.75L424.67,140.58L445.9,137.76L467.13,139.11L488.37,135.55L509.6,143.99L552.07,137.45L573.3,137.78L615.77,135.24L637,129" style="vector-effect: none; fill: none; stroke: rgb(121, 175, 38); stroke-opacity: 1; stroke-width: 2px; opacity: 1;"/></g><g class="points"/><g class="text"/></g><g class="trace scatter tracee9e9ffc3-15d4-47c0-8824-7f9a94843de3" style="stroke-miterlimit: 2; opacity: 0.1;"><g class="fills"/><g class="errorbars"/><g class="lines"><path class="js-line" d="M0,181.46L21.23,179.09L42.47,198.59L84.93,198.01L106.17,206.54L127.4,207.46L148.63,215.48L169.87,217.38L191.1,234.45L212.33,223.82L233.57,232.89L254.8,232.34L276.03,240.09L297.27,228.61L318.5,229.92L339.73,227.38L360.97,229.35L382.2,237.29L403.43,240.22L424.67,237.35L445.9,232.89L467.13,234.44L488.37,232.01L509.6,227.36L530.83,234.06L552.07,237.71L573.3,236.92L594.53,243.14L615.77,243.62L637,232.51" style="vector-effect: none; fill: none; stroke: rgb(218, 63, 18); stroke-opacity: 1; stroke-width: 2px; opacity: 1;"/></g><g class="points"/><g class="text"/></g><g class="trace scatter tracec7b3d192-9eba-419b-933d-e1e5d3111564" style="stroke-miterlimit: 2; opacity: 0.1;"><g class="fills"/><g class="errorbars"/><g class="lines"><path class="js-line" d="M0,181.46L21.23,182.58L42.47,180.51L63.7,181.43L84.93,183.69L127.4,184.79L148.63,183L169.87,181.2L191.1,183.97L212.33,183.01L233.57,179.29L254.8,177.49L276.03,174.01L297.27,172.92L318.5,170.64L339.73,172.18L360.97,172.22L382.2,170.97L403.43,173.64L424.67,173.05L445.9,171L467.13,167.43L488.37,165.16L509.6,152.66L530.83,149.97L552.07,150.62L573.3,147.91L594.53,149.1L615.77,148.76L637,140.38" style="vector-effect: none; fill: none; stroke: rgb(171, 185, 35); stroke-opacity: 1; stroke-width: 2px; opacity: 1;"/></g><g class="points"/><g class="text"/></g><g class="trace scatter trace1b5c4bd2-0046-4955-86a9-1b288516be3a" style="stroke-miterlimit: 2; opacity: 0.1;"><g class="fills"/><g class="errorbars"/><g class="lines"><path class="js-line" d="M0,181.46L21.23,176.14L42.47,177.67L63.7,166.68L84.93,172.83L106.17,182.14L127.4,178.55L148.63,172.98L169.87,176.48L191.1,175.43L212.33,175.23L233.57,177.31L254.8,186.36L276.03,185.64L297.27,191.28L318.5,194.08L339.73,183.75L360.97,181.55L382.2,181.66L403.43,176.52L424.67,173.44L488.37,172.88L509.6,178.14L552.07,172.38L573.3,175.54L594.53,181.18L615.77,175.3L637,175.12" style="vector-effect: none; fill: none; stroke: rgb(178, 187, 34); stroke-opacity: 1; stroke-width: 2px; opacity: 1;"/></g><g class="points"/><g class="text"/></g><g class="trace scatter tracefae6638c-34d1-484f-8090-184c2b99c20c" style="stroke-miterlimit: 2; opacity: 0.1;"><g class="fills"/><g class="errorbars"/><g class="lines"><path class="js-line" d="M0,181.46L21.23,183.66L42.47,184.09L63.7,179.5L84.93,181.65L106.17,177.71L127.4,168.08L148.63,169.91L169.87,155.87L191.1,156.08L212.33,151.03L233.57,161.74L254.8,178.49L276.03,175.96L297.27,184.35L318.5,186.92L339.73,187.47L360.97,190.59L382.2,176.24L403.43,179.94L424.67,173.79L445.9,180.15L467.13,178.94L488.37,178.52L509.6,171.78L530.83,167.26L552.07,159.17L573.3,156.05L594.53,149.86L615.77,151.63L637,138.85" style="vector-effect: none; fill: none; stroke: rgb(178, 187, 34); stroke-opacity: 1; stroke-width: 2px; opacity: 1;"/></g><g class="points"/><g class="text"/></g><g class="trace scatter trace9672ab8c-bd24-4c74-a19d-dd842a0d1d75" style="stroke-miterlimit: 2; opacity: 0.1;"><g class="fills"/><g class="errorbars"/><g class="lines"><path class="js-line" d="M0,181.46L21.23,182.91L42.47,182.41L63.7,199.64L84.93,195.75L106.17,190.71L127.4,186.45L148.63,199.74L169.87,196.73L191.1,186.29L212.33,187.18L233.57,181.06L254.8,184.8L276.03,191.45L297.27,190.24L318.5,186.43L339.73,183.76L360.97,190.65L382.2,188.37L403.43,189.91L424.67,194.17L445.9,190.11L467.13,191.46L488.37,188.2L509.6,193.26L530.83,194.8L552.07,194.41L573.3,198.47L594.53,200.61L637,198.91" style="vector-effect: none; fill: none; stroke: rgb(193, 165, 31); stroke-opacity: 1; stroke-width: 2px; opacity: 1;"/></g><g class="points"/><g class="text"/></g><g class="trace scatter trace2fe5b59c-6764-459e-8931-c36b5ae6b9aa" style="stroke-miterlimit: 2; opacity: 0.1;"><g class="fills"/><g class="errorbars"/><g class="lines"><path class="js-line" d="M0,181.46L21.23,180.98L42.47,178.11L63.7,178.95L84.93,170.86L106.17,175.1L127.4,171.16L148.63,171.22L169.87,158.78L191.1,161.07L212.33,159.2L233.57,157.81L254.8,151.28L276.03,146.34L297.27,157.29L318.5,161.61L339.73,159.89L360.97,161.14L382.2,154.74L403.43,162.65L424.67,168.15L445.9,161.94L467.13,157.11L530.83,160.97L552.07,154.33L573.3,155.26L594.53,159.58L615.77,160.9L637,159.36" style="vector-effect: none; fill: none; stroke: rgb(149, 181, 36); stroke-opacity: 1; stroke-width: 2px; opacity: 1;"/></g><g class="points"/><g class="text"/></g><g class="trace scatter trace2f50bcc5-7b80-4e66-9220-a09b739ac272" style="stroke-miterlimit: 2;"><g class="fills"><g><path class="js-fill" d="M0,181.46L63.7,181.01L84.93,181.91L148.63,181.53L169.87,179.04L191.1,176.67L212.33,177.32L233.57,177.32L254.8,178.57L276.03,180.5L297.27,178.73L339.73,178.67L360.97,181.31L382.2,179.2L403.43,180.24L424.67,181.28L445.9,179.78L467.13,179.17L488.37,177.58L509.6,176.33L530.83,177.45L552.07,172.74L573.3,174.65L615.77,174.94L637,176.41L637,209.3L615.77,208.69L594.53,206.68L573.3,203.12L552.07,203.37L530.83,201.87L509.6,201.21L488.37,201.91L467.13,201.56L445.9,202.64L424.67,199.8L403.43,200.05L360.97,198.49L339.73,199.36L276.03,200.19L254.8,199.93L233.57,197.71L212.33,198.59L169.87,196.39L148.63,195.38L106.17,189.63L84.93,189.66L42.47,186.52L21.23,185.03L0,181.46Z" style="fill: rgb(127, 127, 127); fill-opacity: 0.25; stroke-width: 0;"/></g></g><g class="errorbars"/><g class="lines"><path class="js-line" d="M0,181.46L21.23,185.03L42.47,186.52L84.93,189.66L106.17,189.63L148.63,195.38L169.87,196.39L212.33,198.59L233.57,197.71L254.8,199.93L276.03,200.19L339.73,199.36L360.97,198.49L403.43,200.05L424.67,199.8L445.9,202.64L467.13,201.56L488.37,201.91L509.6,201.21L530.83,201.87L552.07,203.37L573.3,203.12L594.53,206.68L615.77,208.69L637,209.3" style="vector-effect: none; fill: none; stroke: rgb(198, 145, 28); stroke-opacity: 0.75; stroke-width: 2px; opacity: 1;"/></g><g class="points"/><g class="text"/></g><g class="trace scatter tracee6ca7594-8721-4951-83db-80499d2d263d" style="stroke-miterlimit: 2;"><g class="fills"><g><path class="js-fill" d="M0,181.46L42.47,176.18L63.7,175.12L84.93,173.32L106.17,174.5L127.4,172.28L148.63,170.98L191.1,168.79L212.33,167.09L233.57,163.25L254.8,160.71L276.03,156.16L297.27,157.14L318.5,157.73L339.73,151.4L360.97,152.27L382.2,151.38L403.43,151.59L424.67,150.98L445.9,152.66L467.13,151.17L488.37,148.05L509.6,146.36L573.3,141.8L594.53,142.83L615.77,142.41L637,139.2L637,176.41L615.77,174.94L573.3,174.65L552.07,172.74L530.83,177.45L509.6,176.33L488.37,177.58L467.13,179.17L445.9,179.78L424.67,181.28L403.43,180.24L382.2,179.2L360.97,181.31L339.73,178.67L297.27,178.73L276.03,180.5L254.8,178.57L233.57,177.32L212.33,177.32L191.1,176.67L169.87,179.04L148.63,181.53L84.93,181.91L63.7,181.01L0,181.46Z" style="fill: rgb(127, 127, 127); fill-opacity: 0.25; stroke-width: 0;"/></g></g><g class="errorbars"/><g class="lines"><path class="js-line" d="M0,181.46L63.7,181.01L84.93,181.91L148.63,181.53L169.87,179.04L191.1,176.67L212.33,177.32L233.57,177.32L254.8,178.57L276.03,180.5L297.27,178.73L339.73,178.67L360.97,181.31L382.2,179.2L403.43,180.24L424.67,181.28L445.9,179.78L467.13,179.17L488.37,177.58L509.6,176.33L530.83,177.45L552.07,172.74L573.3,174.65L615.77,174.94L637,176.41" style="vector-effect: none; fill: none; stroke: rgb(182, 187, 34); stroke-opacity: 1; stroke-width: 2px; opacity: 1;"/></g><g class="points"/><g class="text"/></g><g class="trace scatter tracecc2dbded-20bd-4abc-9d25-48a1fb63a6dc" style="stroke-miterlimit: 2;"><g class="fills"/><g class="errorbars"/><g class="lines"><path class="js-line" d="M0,181.46L42.47,176.18L63.7,175.12L84.93,173.32L106.17,174.5L127.4,172.28L148.63,170.98L191.1,168.79L212.33,167.09L233.57,163.25L254.8,160.71L276.03,156.16L297.27,157.14L318.5,157.73L339.73,151.4L360.97,152.27L382.2,151.38L403.43,151.59L424.67,150.98L445.9,152.66L467.13,151.17L488.37,148.05L509.6,146.36L573.3,141.8L594.53,142.83L615.77,142.41L637,139.2" style="vector-effect: none; fill: none; stroke: rgb(138, 179, 37); stroke-opacity: 0.75; stroke-width: 2px; opacity: 1;"/></g><g class="points"/><g class="text"/></g><g class="trace scatter trace9fb6133f-6ada-49cc-8c45-626b440a7f01" style="stroke-miterlimit: 2; opacity: 1;"><g class="fills"/><g class="errorbars"/><g class="lines"><path class="js-line" d="M0,181.46L42.47,180.95L63.7,181.54L191.1,181.99L212.33,181.39L254.8,179.36L276.03,178.61L318.5,179.05L339.73,178.88L382.2,178.05L403.43,178.27L424.67,178.55L445.9,177.86L467.13,176.91L488.37,176.74L594.53,174.52L615.77,174.68L637,173.53" style="vector-effect: none; fill: none; stroke: rgb(182, 187, 34); stroke-opacity: 1; stroke-dasharray: 3px, 3px; stroke-width: 2px; opacity: 1;"/></g><g class="points"/><g class="text"/></g></g></g><g class="overplot"/><path class="xlines-above crisp" d="M0,0" style="fill: none;"/><path class="ylines-above crisp" d="M0,0" style="fill: none;"/><g class="overlines-above"/><g class="xaxislayer-above"><g class="xtick"><text text-anchor="middle" x="0" y="320" transform="translate(139.17000000000002,0)" style="font-family: 'Open Sans', verdana, arial, sans-serif; font-size: 12px; fill: rgb(42, 63, 95); fill-opacity: 1; white-space: pre; opacity: 1;"><tspan class="line" dy="0em" x="0" y="320">Jun 5</tspan><tspan class="line" dy="1.3em" x="0" y="320">2022</tspan></text></g><g class="xtick"><text text-anchor="middle" x="0" y="320" style="font-family: 'Open Sans', verdana, arial, sans-serif; font-size: 12px; fill: rgb(42, 63, 95); fill-opacity: 1; white-space: pre; opacity: 1;" transform="translate(287.8,0)">Jun 12</text></g><g class="xtick"><text text-anchor="middle" x="0" y="320" style="font-family: 'Open Sans', verdana, arial, sans-serif; font-size: 12px; fill: rgb(42, 63, 95); fill-opacity: 1; white-space: pre; opacity: 1;" transform="translate(436.43,0)">Jun 19</text></g><g class="xtick"><text text-anchor="middle" x="0" y="320" style="font-family: 'Open Sans', verdana, arial, sans-serif; font-size: 12px; fill: rgb(42, 63, 95); fill-opacity: 1; white-space: pre; opacity: 1;" transform="translate(585.07,0)">Jun 26</text></g></g><g class="yaxislayer-above"><g class="ytick"><text text-anchor="end" x="32" y="4.199999999999999" transform="translate(0,304.78)" style="font-family: 'Open Sans', verdana, arial, sans-serif; font-size: 12px; fill: rgb(42, 63, 95); fill-opacity: 1; white-space: pre; opacity: 1;">0.5</text></g><g class="ytick"><text text-anchor="end" x="32" y="4.199999999999999" style="font-family: 'Open Sans', verdana, arial, sans-serif; font-size: 12px; fill: rgb(42, 63, 95); fill-opacity: 1; white-space: pre; opacity: 1;" transform="translate(0,227.46)">1</text></g><g class="ytick"><text text-anchor="end" x="32" y="4.199999999999999" style="font-family: 'Open Sans', verdana, arial, sans-serif; font-size: 12px; fill: rgb(42, 63, 95); fill-opacity: 1; white-space: pre; opacity: 1;" transform="translate(0,150.14)">1.5</text></g><g class="ytick"><text text-anchor="end" x="32" y="4.199999999999999" style="font-family: 'Open Sans', verdana, arial, sans-serif; font-size: 12px; fill: rgb(42, 63, 95); fill-opacity: 1; white-space: pre; opacity: 1;" transform="translate(0,72.82)">2</text></g></g><g class="overaxes-above"/></g></g><g class="polarlayer"/><g class="smithlayer"/><g class="ternarylayer"/><g class="geolayer"/><g class="funnelarealayer"/><g class="pielayer"/><g class="iciclelayer"/><g class="treemaplayer"/><g class="sunburstlayer"/><g class="glimages"/><defs id="topdefs-2a9166"><g class="clips"/><clipPath id="legend2a9166"><rect width="618" height="29" x="0" y="0"/></clipPath></defs><g class="layer-above"><g class="imagelayer"/><g class="shapelayer"/></g><g class="infolayer"><g class="legend" pointer-events="all" transform="translate(52,11.779999999999994)"><rect class="bg" shape-rendering="crispEdges" width="618" height="29" x="0" y="0" style="stroke: rgb(68, 68, 68); stroke-opacity: 1; fill: rgb(255, 255, 255); fill-opacity: 1; stroke-width: 0px;"/><g class="scrollbox" transform="" clip-path="url(#legend2a9166)"><g class="groups"><g class="traces" transform="translate(0,14.5)" style="opacity: 1;"><text class="legendtext" text-anchor="start" x="40" y="4.680000000000001" style="font-family: 'Open Sans', verdana, arial, sans-serif; font-size: 12px; fill: rgb(42, 63, 95); fill-opacity: 1; white-space: pre;">proj (100)</text><g class="layers" style="opacity: 0.1;"><g class="legendfill"/><g class="legendlines"><path class="js-line" d="M5,0h30" style="fill: none; stroke: rgb(129, 177, 38); stroke-opacity: 1; stroke-width: 2px;"/></g><g class="legendsymbols"><g class="legendpoints"/></g></g><rect class="legendtoggle" x="0" y="-9.5" width="104.515625" height="19" style="fill: rgb(0, 0, 0); fill-opacity: 0;"/></g><g class="traces" transform="translate(107.015625,14.5)" style="opacity: 1;"><text class="legendtext" text-anchor="start" x="40" y="4.680000000000001" style="font-family: 'Open Sans', verdana, arial, sans-serif; font-size: 12px; fill: rgb(42, 63, 95); fill-opacity: 1; white-space: pre;">Q=20% (proj)</text><g class="layers"><g class="legendfill"/><g class="legendlines"><path class="js-line" d="M5,0h30" style="fill: none; stroke: rgb(198, 145, 28); stroke-opacity: 0.75; stroke-width: 2px;"/></g><g class="legendsymbols"><g class="legendpoints"/></g></g><rect class="legendtoggle" x="0" y="-9.5" width="129.078125" height="19" style="fill: rgb(0, 0, 0); fill-opacity: 0;"/></g><g class="traces" transform="translate(238.59375,14.5)" style="opacity: 1;"><text class="legendtext" text-anchor="start" x="40" y="4.680000000000001" style="font-family: 'Open Sans', verdana, arial, sans-serif; font-size: 12px; fill: rgb(42, 63, 95); fill-opacity: 1; white-space: pre;">Q=50% (proj)</text><g class="layers"><g class="legendfill"><path class="js-fill" d="M5,-2h30v6h-30z" style="stroke-width: 0; fill: rgb(127, 127, 127); fill-opacity: 0.25;"/></g><g class="legendlines"><path class="js-line" d="M5,-2h30" style="fill: none; stroke: rgb(182, 187, 34); stroke-opacity: 1; stroke-width: 2px;"/></g><g class="legendsymbols"><g class="legendpoints"/></g></g><rect class="legendtoggle" x="0" y="-9.5" width="129.078125" height="19" style="fill: rgb(0, 0, 0); fill-opacity: 0;"/></g><g class="traces" transform="translate(370.171875,14.5)" style="opacity: 1;"><text class="legendtext" text-anchor="start" x="40" y="4.680000000000001" style="font-family: 'Open Sans', verdana, arial, sans-serif; font-size: 12px; fill: rgb(42, 63, 95); fill-opacity: 1; white-space: pre;">Q=80% (proj)</text><g class="layers"><g class="legendfill"><path class="js-fill" d="M5,-2h30v6h-30z" style="stroke-width: 0; fill: rgb(127, 127, 127); fill-opacity: 0.25;"/></g><g class="legendlines"><path class="js-line" d="M5,-2h30" style="fill: none; stroke: rgb(138, 179, 37); stroke-opacity: 0.75; stroke-width: 2px;"/></g><g class="legendsymbols"><g class="legendpoints"/></g></g><rect class="legendtoggle" x="0" y="-9.5" width="129.078125" height="19" style="fill: rgb(0, 0, 0); fill-opacity: 0;"/></g><g class="traces" transform="translate(501.75,14.5)" style="opacity: 1;"><text class="legendtext" text-anchor="start" x="40" y="4.680000000000001" style="font-family: 'Open Sans', verdana, arial, sans-serif; font-size: 12px; fill: rgb(42, 63, 95); fill-opacity: 1; white-space: pre;">Mean (proj)</text><g class="layers" style="opacity: 1;"><g class="legendfill"/><g class="legendlines"><path class="js-line" d="M5,0h30" style="fill: none; stroke: rgb(182, 187, 34); stroke-opacity: 1; stroke-dasharray: 3px, 3px; stroke-width: 2px;"/></g><g class="legendsymbols"><g class="legendpoints"/></g></g><rect class="legendtoggle" x="0" y="-9.5" width="113.703125" height="19" style="fill: rgb(0, 0, 0); fill-opacity: 0;"/></g></g></g><rect class="scrollbar" rx="20" ry="3" width="0" height="0" x="0" y="0" style="fill: rgb(128, 139, 164); fill-opacity: 1;"/></g><g class="g-gtitle"/><g class="g-xtitle"/><g class="g-ytitle"/></g></svg>