<svg class="main-svg" xmlns="http://www.w3.org/2000/svg" xmlns:xlink="http://www.w3.org/1999/xlink" width="700" height="350" style="" viewBox="0 0 700 350"><rect x="0" y="0" width="700" height="350" style="fill: rgb(255, 255, 255); fill-opacity: 1;"/><defs id="defs-749374"><g class="clips"><clipPath id="clip749374xyplot" class="plotclip"><rect width="637" height="261"/></clipPath><clipPath class="axesclip" id="clip749374x"><rect x="33" y="0" width="637" height="350"/></clipPath><clipPath class="axesclip" id="clip749374y"><rect x="0" y="46" width="700" height="261"/></clipPath><clipPath class="axesclip" id="clip749374xy"><rect x="33" y="46" width="637" height="261"/></clipPath></g><g class="gradients"/><g class="patterns"/></defs><g class="bglayer"><rect class="bg" x="33" y="46" width="637" height="261" style="fill: rgb(229, 236, 246); fill-opacity: 1; stroke-width: 0;"/></g><g class="layer-below"><g class="imagelayer"/><g class="shapelayer"/></g><g class="cartesianlayer"><g class="subplot xy"><g class="layer-subplot"><g class="shapelayer"/><g class="imagelayer"/></g><g class="minor-gridlayer"><g class="x"/><g class="y"/></g><g class="gridlayer"><g class="x"><path class="xgrid crisp" transform="translate(139.17000000000002,0)" d="M0,46v261" style="stroke: rgb(255, 255, 255); stroke-opacity: 1; stroke-width: 1px;"/><path class="xgrid crisp" transform="translate(287.8,0)" d="M0,46v261" style="stroke: rgb(255, 255, 255); stroke-opacity: 1; stroke-width: 1px;"/><path class="xgrid crisp" transform="translate(436.43,0)" d="M0,46v261" style="stroke: rgb(255, 255, 255); stroke-opacity: 1; stroke-width: 1px;"/><path class="xgrid crisp" transform="translate(585.07,0)" d="M0,46v261" style="stroke: rgb(255, 255, 255); stroke-opacity: 1; stroke-width: 1px;"/></g><g class="y"><path class="ygrid crisp" transform="translate(0,266.39)" d="M33,0h637" style="stroke: rgb(255, 255, 255); stroke-opacity: 1; stroke-width: 1px;"/><path class="ygrid crisp" transform="translate(0,224.07)" d="M33,0h637" style="stroke: rgb(255, 255, 255); stroke-opacity: 1; stroke-width: 1px;"/><path class="ygrid crisp" transform="translate(0,181.75)" d="M33,0h637" style="stroke: rgb(255, 255, 255); stroke-opacity: 1; stroke-width: 1px;"/><path class="ygrid crisp" transform="translate(0,139.43)" d="M33,0h637" style="stroke: rgb(255, 255, 255); stroke-opacity: 1; stroke-width: 1px;"/><path class="ygrid crisp" transform="translate(0,97.11)" d="M33,0h637" style="stroke: rgb(255, 255, 255); stroke-opacity: 1; stroke-width: 1px;"/><path class="ygrid crisp" transform="translate(0,54.79)" d="M33,0h637" style="stroke: rgb(255, 255, 255); stroke-opacity: 1; stroke-width: 1px;"/></g></g><g class="zerolinelayer"/><path class="xlines-below"/><path class="ylines-below"/><g class="overlines-below"/><g class="xaxislayer-below"/><g class="yaxislayer-below"/><g class="overaxes-below"/><g class="plot" transform="translate(33,46)" clip-path="url(#clip749374xyplot)"><g class="scatterlayer mlayer"><g class="trace scatter trace192edad6-aa1c-4d11-8aee-c209b5ca7bc8" style="stroke-miterlimit: 2; opacity: 0.1;"><g class="fills"/><g class="errorbars"/><g class="lines"><path class="js-line" d="M0,178.07L21.23,175.65L42.47,170.95L63.7,169.48L84.93,166.4L106.17,168.48L127.4,168.53L148.63,166.84L169.87,170.44L191.1,169.65L212.33,166.88L233.57,162.07L254.8,159L276.03,142.14L297.27,138.5L318.5,139.38L339.73,135.73L360.97,137.33L382.2,136.88L403.43,125.57L424.67,132.73L445.9,129.07L467.13,127.05L488.37,122.57L509.6,123.15L530.83,127.25L552.07,118.07L573.3,115.74L594.53,87.73L615.77,87.93L637,102.68" style="vector-effect: none; fill: none; stroke: rgb(126, 176, 38); stroke-opacity: 1; stroke-width: 2px; opacity: 1;"/></g><g class="points"/><g class="text"/></g><g class="trace scatter trace63928932-b366-43a9-b9c1-2b899dfb0f7b" style="stroke-miterlimit: 2; opacity: 0.1;"><g class="fills"/><g class="errorbars"/><g class="lines"><path class="js-line" d="M0,178.07L21.23,191.25L42.47,194.39L63.7,222.46L84.93,204.98L106.17,219.9L127.4,219L148.63,231.73L169.87,212.86L191.1,215.01L212.33,210.83L233.57,214.08L254.8,227.14L276.03,231.96L297.27,227.24L318.5,219.89L339.73,222.45L360.97,218.46L382.2,210.81L403.43,221.83L424.67,227.82L445.9,226.53L467.13,236.76L488.37,237.54L509.6,219.28L530.83,222.53L552.07,219.54L573.3,227.67L594.53,211.84L615.77,205.03L637,206.72" style="vector-effect: none; fill: none; stroke: rgb(212, 85, 21); stroke-opacity: 1; stroke-width: 2px; opacity: 1;"/></g><g class="points"/><g class="text"/></g><g class="trace scatter trace0f397a23-3dbb-461f-b450-397fb73430e2" style="stroke-miterlimit: 2; opacity: 0.1;"><g class="fills"/><g class="errorbars"/><g class="lines"><path class="js-line" d="M0,178.07L21.23,174.08L42.47,179.16L63.7,168.99L84.93,164.26L127.4,168.11L148.63,163.46L169.87,168.38L191.1,188.18L212.33,198.86L233.57,185.7L254.8,179.51L276.03,189.14L297.27,189.79L318.5,187.5L360.97,197.49L382.2,195.16L403.43,184.39L424.67,164.17L445.9,166.54L467.13,163.89L488.37,159.09L509.6,148.57L530.83,130.57L552.07,137.73L573.3,136.95L594.53,132.28L615.77,133.64L637,120.47" style="vector-effect: none; fill: none; stroke: rgb(172, 185, 35); stroke-opacity: 1; stroke-width: 2px; opacity: 1;"/></g><g class="points"/><g class="text"/></g><g class="trace scatter trace2c50fd4b-ab76-4826-a73d-d15fcca289ae" style="stroke-miterlimit: 2; opacity: 0.1;"><g class="fills"/><g class="errorbars"/><g class="lines"><path class="js-line" d="M0,178.07L21.23,169.73L42.47,178.36L63.7,176.71L84.93,176.14L106.17,167.01L127.4,160.88L148.63,149.92L169.87,145.7L191.1,137.3L212.33,139.71L233.57,122.38L254.8,132.08L276.03,146.77L297.27,141.11L318.5,132.32L339.73,137.85L360.97,136.18L382.2,135.87L403.43,139.14L424.67,153.42L445.9,152.3L467.13,161.19L488.37,165.61L509.6,149.3L530.83,145.85L552.07,146.02L573.3,137.9L594.53,133.05L637,133.17" style="vector-effect: none; fill: none; stroke: rgb(137, 178, 37); stroke-opacity: 1; stroke-width: 2px; opacity: 1;"/></g><g class="points"/><g class="text"/></g><g class="trace scatter trace75485788-043b-48cb-bd45-de323f7236a6" style="stroke-miterlimit: 2; opacity: 0.1;"><g class="fills"/><g class="errorbars"/><g class="lines"><path class="js-line" d="M0,178.07L21.23,180.87L42.47,191.71L63.7,193.39L84.93,200.3L148.63,199.13L169.87,195L191.1,189.66L212.33,195.77L233.57,193.49L254.8,193.38L276.03,193.44L297.27,197.41L318.5,196.72L339.73,199.87L360.97,204.33L382.2,223.63L403.43,229.89L424.67,224.54L467.13,221.29L488.37,221.97L509.6,220.37L530.83,217.84L552.07,215.79L573.3,217.09L594.53,214.42L615.77,213.38L637,221.57" style="vector-effect: none; fill: none; stroke: rgb(201, 134, 27); stroke-opacity: 1; stroke-width: 2px; opacity: 1;"/></g><g class="points"/><g class="text"/></g><g class="trace scatter tracec4a8be62-9a0b-4323-be84-8a541e91145b" style="stroke-miterlimit: 2; opacity: 0.1;"><g class="fills"/><g class="errorbars"/><g class="lines"><path class="js-line" d="M0,178.07L21.23,167.85L42.47,163.09L84.93,166.96L106.17,162.29L127.4,167.23L148.63,187.13L169.87,197.87L191.1,184.65L212.33,178.42L233.57,188.1L254.8,188.76L276.03,186.45L318.5,196.5L339.73,194.15L360.97,183.33L382.2,163L403.43,165.38L424.67,162.72L445.9,157.9L467.13,147.32L488.37,129.22L509.6,136.43L530.83,135.64L552.07,130.94L573.3,132.31L594.53,119.07L615.77,126.01L637,119.56" style="vector-effect: none; fill: none; stroke: rgb(168, 185, 35); stroke-opacity: 1; stroke-width: 2px; opacity: 1;"/></g><g class="points"/><g class="text"/></g><g class="trace scatter trace29ebf8fa-4860-4280-b5bf-2286097a2eff" style="stroke-miterlimit: 2; opacity: 0.1;"><g class="fills"/><g class="errorbars"/><g class="lines"><path class="js-line" d="M0,178.07L21.23,172.44L42.47,172.37L63.7,179.79L84.93,177.04L106.17,164.74L127.4,151.09L148.63,155.42L169.87,146.83L191.1,141.15L212.33,143.63L233.57,95.56L254.8,95.27L276.03,105.5L297.27,85.45L318.5,89.77L339.73,90.62L360.97,81.59L382.2,85.82L403.43,78.07L424.67,59.13L445.9,62.72L467.13,35.12L488.37,35.53L509.6,25.59L530.83,46.65L552.07,79.6L573.3,74.62L594.53,91.13L615.77,96.18L637,97.26" style="vector-effect: none; fill: none; stroke: rgb(58, 162, 42); stroke-opacity: 1; stroke-width: 2px; opacity: 1;"/></g><g class="points"/><g class="text"/></g><g class="trace scatter trace78c236e6-c238-4056-96db-551eca038547" style="stroke-miterlimit: 2; opacity: 0.1;"><g class="fills"/><g class="errorbars"/><g class="lines"><path class="js-line" d="M0,178.07L21.23,180.05L42.47,179.37L63.7,202.94L84.93,197.62L106.17,190.72L127.4,184.9L148.63,203.09L169.87,198.96L191.1,184.68L212.33,185.9L233.57,177.53L254.8,182.65L276.03,191.74L297.27,190.08L318.5,184.87L339.73,181.22L360.97,190.65L382.2,187.52L403.43,189.63L424.67,195.46L445.9,189.91L467.13,191.76L488.37,187.29L509.6,194.21L530.83,196.32L552.07,195.79L573.3,201.34L594.53,204.27L637,201.94" style="vector-effect: none; fill: none; stroke: rgb(195, 157, 30); stroke-opacity: 1; stroke-width: 2px; opacity: 1;"/></g><g class="points"/><g class="text"/></g><g class="trace scatter trace92f1d275-6338-4a25-b29b-c188ee7aeddd" style="stroke-miterlimit: 2; opacity: 0.1;"><g class="fills"/><g class="errorbars"/><g class="lines"><path class="js-line" d="M0,178.07L21.23,185.51L42.47,184.96L63.7,184.05L84.93,184.26L106.17,179.8L127.4,174.04L148.63,180.63L169.87,178.18L212.33,178.12L233.57,182.39L254.8,181.65L276.03,185.05L297.27,189.86L318.5,210.67L339.73,217.41L360.97,211.65L403.43,208.15L424.67,208.88L445.9,207.16L467.13,204.42L488.37,202.21L509.6,203.61L530.83,200.74L552.07,199.62L573.3,208.45L594.53,206.41L615.77,185.48L637,186.42" style="vector-effect: none; fill: none; stroke: rgb(193, 167, 31); stroke-opacity: 1; stroke-width: 2px; opacity: 1;"/></g><g class="points"/><g class="text"/></g><g class="trace scatter trace43926f90-0882-4a69-a943-4b8161c824aa" style="stroke-miterlimit: 2; opacity: 0.1;"><g class="fills"/><g class="errorbars"/><g class="lines"><path class="js-line" d="M0,178.07L21.23,171.32L42.47,190.7L63.7,187.02L84.93,177.56L106.17,175.71L127.4,178.76L148.63,177.9L169.87,180.51L191.1,191.17L212.33,207.64L233.57,206.74L254.8,202.87L276.03,202.32L297.27,202.76L318.5,213.59L339.73,215.09L360.97,206.76L382.2,204.3L403.43,216.71L424.67,210.64L445.9,208.71L467.13,213.27L488.37,218.83L509.6,216.23L530.83,216.79L552.07,215.93L573.3,208.61L594.53,209.73L615.77,201.4L637,201.47" style="vector-effect: none; fill: none; stroke: rgb(203, 123, 26); stroke-opacity: 1; stroke-width: 2px; opacity: 1;"/></g><g class="points"/><g class="text"/></g><g class="trace scatter traceb0ad187b-b0da-4d4b-94cc-27e87aa0db18" style="stroke-miterlimit: 2; opacity: 0.1;"><g class="fills"/><g class="errorbars"/><g class="lines"><path class="js-line" d="M0,178.07L21.23,170.04L42.47,169.79L63.7,163.64L84.93,162.76L106.17,163.3L127.4,149.25L148.63,151.57L169.87,150.82L191.1,157.72L212.33,162.74L233.57,177.33L254.8,179.28L276.03,176.29L297.27,186.26L318.5,194.19L339.73,196.33L382.2,204.11L403.43,185.45L424.67,181.63L445.9,182.26L467.13,187.14L488.37,171.49L509.6,171.08L530.83,175.71L552.07,173.47L573.3,188.48L594.53,172.46L615.77,176.4L637,172.92" style="vector-effect: none; fill: none; stroke: rgb(184, 188, 34); stroke-opacity: 1; stroke-width: 2px; opacity: 1;"/></g><g class="points"/><g class="text"/></g><g class="trace scatter tracee8062bba-7d3a-436a-8db7-616b157ec4f5" style="stroke-miterlimit: 2; opacity: 0.1;"><g class="fills"/><g class="errorbars"/><g class="lines"><path class="js-line" d="M0,178.07L21.23,173.73L42.47,171.43L63.7,176.29L84.93,177.63L106.17,170.59L127.4,167.91L148.63,162.17L169.87,160.51L191.1,159.49L212.33,147.51L254.8,144.37L276.03,146.27L297.27,154.32L318.5,150.32L339.73,152.77L360.97,149.68L382.2,148.79L403.43,154.39L424.67,166.42L445.9,165L467.13,171.17L488.37,168.57L509.6,171.65L530.83,185.24L552.07,182.43L573.3,176.88L594.53,183.11L615.77,179.96L637,180.86" style="vector-effect: none; fill: none; stroke: rgb(171, 185, 35); stroke-opacity: 1; stroke-width: 2px; opacity: 1;"/></g><g class="points"/><g class="text"/></g><g class="trace scatter trace6a9e8dd8-0c2b-4582-ab73-0ee39ac5545c" style="stroke-miterlimit: 2; opacity: 0.1;"><g class="fills"/><g class="errorbars"/><g class="lines"><path class="js-line" d="M0,178.07L21.23,174.69L42.47,178.84L63.7,186.24L84.93,178.52L106.17,178.28L127.4,172.37L148.63,171.52L169.87,172.04L191.1,158.53L212.33,160.77L233.57,160.04L254.8,166.68L276.03,171.51L297.27,185.53L318.5,187.41L339.73,184.53L360.97,194.12L382.2,201.74L403.43,203.8L424.67,207.71L445.9,211.28L467.13,193.34L488.37,189.67L509.6,190.27L530.83,194.96L552.07,179.91L573.3,179.53L594.53,183.97L615.77,181.82L637,196.25" style="vector-effect: none; fill: none; stroke: rgb(190, 179, 32); stroke-opacity: 1; stroke-width: 2px; opacity: 1;"/></g><g class="points"/><g class="text"/></g><g class="trace scatter tracefe700cbd-4bd9-4727-b4aa-619051354f06" style="stroke-miterlimit: 2; opacity: 0.1;"><g class="fills"/><g class="errorbars"/><g class="lines"><path class="js-line" d="M0,178.07L21.23,173.99L42.47,174.01L63.7,174.09L84.93,173.24L106.17,180.21L127.4,175.99L148.63,172.58L169.87,176.76L191.1,184.24L212.33,176.45L233.57,176.21L254.8,170.24L276.03,169.38L297.27,169.9L318.5,156.26L339.73,158.52L360.97,157.79L382.2,164.49L403.43,169.36L424.67,183.52L445.9,185.42L467.13,182.51L488.37,192.2L509.6,199.89L530.83,201.97L552.07,205.92L573.3,209.53L594.53,191.41L615.77,187.7L637,188.31" style="vector-effect: none; fill: none; stroke: rgb(185, 188, 34); stroke-opacity: 1; stroke-width: 2px; opacity: 1;"/></g><g class="points"/><g class="text"/></g><g class="trace scatter trace680ea7b1-0a61-4a68-92ab-21ea4af8993f" style="stroke-miterlimit: 2; opacity: 0.1;"><g class="fills"/><g class="errorbars"/><g class="lines"><path class="js-line" d="M0,178.07L21.23,167.85L42.47,163.09L84.93,166.96L106.17,162.29L127.4,167.23L148.63,187.13L169.87,197.87L191.1,184.65L212.33,178.42L233.57,188.1L254.8,188.76L276.03,186.45L318.5,196.5L339.73,194.15L360.97,183.33L382.2,163L403.43,165.38L424.67,162.72L445.9,157.9L467.13,147.32L488.37,129.22L509.6,136.43L530.83,135.64L552.07,130.94L573.3,132.31L594.53,119.07L615.77,126.01L637,119.56" style="vector-effect: none; fill: none; stroke: rgb(168, 185, 35); stroke-opacity: 1; stroke-width: 2px; opacity: 1;"/></g><g class="points"/><g class="text"/></g><g class="trace scatter trace8761a4c4-5681-4864-bb71-31913ae31f7b" style="stroke-miterlimit: 2; opacity: 0.1;"><g class="fills"/><g class="errorbars"/><g class="lines"><path class="js-line" d="M0,178.07L21.23,183.68L42.47,173.36L63.7,175.49L84.93,165.49L106.17,166.56L127.4,161.98L148.63,159.56L169.87,164.68L191.1,166.1L212.33,158.68L233.57,155.85L254.8,149.8L297.27,146.97L318.5,134.34L360.97,131.03L382.2,133.03L403.43,141.52L424.67,137.31L445.9,139.88L467.13,136.63L488.37,135.69L509.6,141.59L530.83,154.28L552.07,152.79L573.3,159.29L594.53,156.55L615.77,159.79L637,174.13" style="vector-effect: none; fill: none; stroke: rgb(153, 182, 36); stroke-opacity: 1; stroke-width: 2px; opacity: 1;"/></g><g class="points"/><g class="text"/></g><g class="trace scatter trace31841252-308f-4184-a9b9-ba5f695c2b43" style="stroke-miterlimit: 2; opacity: 0.1;"><g class="fills"/><g class="errorbars"/><g class="lines"><path class="js-line" d="M0,178.07L21.23,185.51L42.47,184.96L63.7,184.05L84.93,184.26L106.17,179.8L127.4,174.04L148.63,180.63L169.87,178.18L212.33,178.12L233.57,182.39L254.8,181.65L276.03,185.05L297.27,189.86L318.5,210.67L339.73,217.41L360.97,211.65L403.43,208.15L424.67,208.88L445.9,207.16L467.13,204.42L488.37,202.21L509.6,203.61L530.83,200.74L552.07,199.62L573.3,208.45L594.53,206.41L615.77,185.48L637,186.42" style="vector-effect: none; fill: none; stroke: rgb(193, 167, 31); stroke-opacity: 1; stroke-width: 2px; opacity: 1;"/></g><g class="points"/><g class="text"/></g><g class="trace scatter traceb9438990-7471-43e1-a19c-14a9542a3d68" style="stroke-miterlimit: 2; opacity: 0.1;"><g class="fills"/><g class="errorbars"/><g class="lines"><path class="js-line" d="M0,178.07L21.23,179.18L42.47,174.26L63.7,183.9L84.93,206.44L106.17,200.92L127.4,205.97L169.87,202.24L191.1,206.7L254.8,201.98L276.03,201.02L297.27,202.97L318.5,196.85L339.73,194.8L360.97,191.75L403.43,192.12L424.67,189.46L445.9,192.36L467.13,201.45L488.37,199.42L509.6,204.62L530.83,195.68L552.07,196.58L594.53,195L615.77,196.41L637,193.8" style="vector-effect: none; fill: none; stroke: rgb(199, 142, 28); stroke-opacity: 1; stroke-width: 2px; opacity: 1;"/></g><g class="points"/><g class="text"/></g><g class="trace scatter tracecb5074a5-5946-4f91-aaa9-ffa3ed190acd" style="stroke-miterlimit: 2; opacity: 0.1;"><g class="fills"/><g class="errorbars"/><g class="lines"><path class="js-line" d="M0,178.07L21.23,179.32L42.47,170.68L63.7,175.97L84.93,185.36L106.17,183.64L127.4,178.26L148.63,174.49L169.87,184.23L191.1,181L212.33,183.18L233.57,189.19L254.8,183.46L276.03,185.37L297.27,180.76L318.5,187.91L339.73,190.08L360.97,189.53L382.2,195.27L403.43,198.29L424.67,197.46L445.9,195.88L467.13,201.61L488.37,208.01L509.6,193.65L530.83,192.78L552.07,184.57L573.3,180.77L594.53,173.92L615.77,162.6L637,149.06" style="vector-effect: none; fill: none; stroke: rgb(191, 173, 32); stroke-opacity: 1; stroke-width: 2px; opacity: 1;"/></g><g class="points"/><g class="text"/></g><g class="trace scatter trace5cb3ecf7-861c-476d-b570-2a3a70770231" style="stroke-miterlimit: 2; opacity: 0.1;"><g class="fills"/><g class="errorbars"/><g class="lines"><path class="js-line" d="M0,178.07L21.23,173.38L42.47,157.19L63.7,158.57L84.93,149.08L106.17,154.89L127.4,165.2L148.63,163.32L169.87,157.4L191.1,153.27L212.33,163.96L233.57,160.41L254.8,162.81L276.03,169.42L297.27,163.12L318.5,165.22L339.73,160.15L360.97,168L382.2,170.4L403.43,169.79L424.67,176.09L445.9,179.41L467.13,178.5L488.37,176.77L509.6,183.06L530.83,190.09L552.07,174.32L573.3,173.36L594.53,164.34L615.77,160.16L637,152.63" style="vector-effect: none; fill: none; stroke: rgb(168, 185, 35); stroke-opacity: 1; stroke-width: 2px; opacity: 1;"/></g><g class="points"/><g class="text"/></g><g class="trace scatter tracea669c4b6-4a17-4243-96b8-8f7451ea5dd4" style="stroke-miterlimit: 2; opacity: 0.1;"><g class="fills"/><g class="errorbars"/><g class="lines"><path class="js-line" d="M0,178.07L42.47,186.59L63.7,166.16L84.93,161.98L106.17,162.67L127.4,168.01L148.63,150.88L169.87,150.44L191.1,155.5L212.33,153.05L233.57,169.48L254.8,151.95L276.03,156.26L297.27,152.45L318.5,146.05L339.73,148.62L360.97,158.65L382.2,155.12L403.43,184.25L445.9,183.38L467.13,196.12L488.37,197.49L509.6,209.47L530.83,212.32L552.07,237.81L573.3,221.93L594.53,235.49L615.77,234.67L637,246.23" style="vector-effect: none; fill: none; stroke: rgb(175, 186, 34); stroke-opacity: 1; stroke-width: 2px; opacity: 1;"/></g><g class="points"/><g class="text"/></g><g class="trace scatter trace15621c21-ea87-4a6f-8298-f2fdfbf95fe2" style="stroke-miterlimit: 2; opacity: 0.1;"><g class="fills"/><g class="errorbars"/><g class="lines"><path class="js-line" d="M0,178.07L21.23,179.57L42.47,192.66L63.7,195.78L84.93,223.65L106.17,206.29L127.4,221.1L148.63,220.21L169.87,232.85L191.1,214.12L212.33,216.25L233.57,212.1L254.8,215.32L276.03,228.29L297.27,233.08L318.5,228.39L339.73,221.1L360.97,223.63L382.2,219.67L403.43,212.08L424.67,223.02L445.9,228.97L467.13,227.69L488.37,237.84L509.6,238.62L530.83,220.49L552.07,223.71L573.3,220.74L594.53,228.82L615.77,213.1L637,206.33" style="vector-effect: none; fill: none; stroke: rgb(213, 82, 21); stroke-opacity: 1; stroke-width: 2px; opacity: 1;"/></g><g class="points"/><g class="text"/></g><g class="trace scatter trace6622ec04-b075-4a41-a2c1-7f4f8def3f32" style="stroke-miterlimit: 2; opacity: 0.1;"><g class="fills"/><g class="errorbars"/><g class="lines"><path class="js-line" d="M0,178.07L21.23,184.13L42.47,187.33L63.7,186.45L84.93,184.78L127.4,197.6L148.63,182.42L169.87,181.5L191.1,172.82L212.33,168.8L233.57,161.56L254.8,149.59L276.03,135.27L297.27,131.65L318.5,131.67L339.73,117.55L360.97,122.35L382.2,132.77L403.43,137.27L424.67,143.34L445.9,133.56L467.13,126.22L488.37,113.49L509.6,102.3L530.83,107.32L552.07,91.46L573.3,95.77L594.53,96.25L615.77,103.42L637,81.49" style="vector-effect: none; fill: none; stroke: rgb(120, 175, 38); stroke-opacity: 1; stroke-width: 2px; opacity: 1;"/></g><g class="points"/><g class="text"/></g><g class="trace scatter trace64852b74-f476-4b50-98c6-7d9e42387005" style="stroke-miterlimit: 2; opacity: 0.1;"><g class="fills"/><g class="errorbars"/><g class="lines"><path class="js-line" d="M0,178.07L21.23,179.08L42.47,174.76L63.7,172.47L84.93,177.31L106.17,178.64L127.4,171.63L148.63,168.97L169.87,163.26L212.33,160.58L233.57,148.66L276.03,145.54L297.27,147.43L318.5,155.44L339.73,151.46L360.97,153.9L382.2,150.83L403.43,149.93L424.67,155.51L445.9,167.48L467.13,166.08L488.37,172.21L509.6,169.63L530.83,172.69L552.07,186.22L573.3,183.42L594.53,177.89L615.77,184.1L637,180.96" style="vector-effect: none; fill: none; stroke: rgb(173, 186, 34); stroke-opacity: 1; stroke-width: 2px; opacity: 1;"/></g><g class="points"/><g class="text"/></g><g class="trace scatter trace182cbe5b-d623-4197-8366-44218a62ca36" style="stroke-miterlimit: 2; opacity: 0.1;"><g class="fills"/><g class="errorbars"/><g class="lines"><path class="js-line" d="M0,178.07L21.23,179.18L42.47,174.26L63.7,183.9L84.93,206.44L106.17,200.92L127.4,205.97L169.87,202.24L191.1,206.7L254.8,201.98L276.03,201.02L297.27,202.97L318.5,196.85L339.73,194.8L360.97,191.75L403.43,192.12L424.67,189.46L445.9,192.36L467.13,201.45L488.37,199.42L509.6,204.62L530.83,195.68L552.07,196.58L594.53,195L615.77,196.41L637,193.8" style="vector-effect: none; fill: none; stroke: rgb(199, 142, 28); stroke-opacity: 1; stroke-width: 2px; opacity: 1;"/></g><g class="points"/><g class="text"/></g><g class="trace scatter trace5453d439-7b9b-49a3-8ef8-ace1197cd112" style="stroke-miterlimit: 2; opacity: 0.1;"><g class="fills"/><g class="errorbars"/><g class="lines"><path class="js-line" d="M0,178.07L21.23,180.87L42.47,191.71L63.7,193.39L84.93,200.3L148.63,199.13L169.87,195L191.1,189.66L212.33,195.77L233.57,193.49L254.8,193.38L276.03,193.44L297.27,197.41L318.5,196.72L339.73,199.87L360.97,204.33L382.2,223.63L403.43,229.89L424.67,224.54L467.13,221.29L488.37,221.97L509.6,220.37L530.83,217.84L552.07,215.79L573.3,217.09L594.53,214.42L615.77,213.38L637,221.57" style="vector-effect: none; fill: none; stroke: rgb(201, 134, 27); stroke-opacity: 1; stroke-width: 2px; opacity: 1;"/></g><g class="points"/><g class="text"/></g><g class="trace scatter traceb49df860-ede6-46f2-a78d-3098c354992d" style="stroke-miterlimit: 2; opacity: 0.1;"><g class="fills"/><g class="errorbars"/><g class="lines"><path class="js-line" d="M0,178.07L21.23,191.14L42.47,192.55L63.7,204.83L84.93,207.75L106.17,233.9L127.4,217.61L148.63,231.52L169.87,230.68L191.1,242.54L212.33,224.96L233.57,226.96L254.8,223.07L276.03,226.09L297.27,238.26L318.5,242.75L339.73,238.35L360.97,231.51L382.2,233.89L403.43,230.17L424.67,223.05L445.9,233.31L467.13,238.9L488.37,237.7L509.6,247.22L530.83,247.95L552.07,230.94L573.3,233.96L594.53,231.18L615.77,238.76L637,224.01" style="vector-effect: none; fill: none; stroke: rgb(220, 57, 18); stroke-opacity: 1; stroke-width: 2px; opacity: 1;"/></g><g class="points"/><g class="text"/></g><g class="trace scatter trace4f8a51cc-c913-4a56-ba57-a44f6581602d" style="stroke-miterlimit: 2; opacity: 0.1;"><g class="fills"/><g class="errorbars"/><g class="lines"><path class="js-line" d="M0,178.07L21.23,168.19L42.47,169.25L63.7,164.72L84.93,162.33L106.17,167.39L127.4,168.79L148.63,161.46L169.87,158.66L191.1,152.69L212.33,150.96L233.57,149.89L254.8,137.41L297.27,134.14L318.5,136.12L339.73,144.51L360.97,140.34L382.2,142.89L403.43,139.68L424.67,138.74L445.9,144.58L467.13,157.11L488.37,155.64L509.6,162.06L530.83,159.36L552.07,162.56L573.3,176.72L594.53,173.79L615.77,168.01L637,174.5" style="vector-effect: none; fill: none; stroke: rgb(158, 182, 36); stroke-opacity: 1; stroke-width: 2px; opacity: 1;"/></g><g class="points"/><g class="text"/></g><g class="trace scatter tracec58424a5-52c3-4be8-a673-942ed584e440" style="stroke-miterlimit: 2; opacity: 0.1;"><g class="fills"/><g class="errorbars"/><g class="lines"><path class="js-line" d="M0,178.07L21.23,173.29L42.47,180.7L63.7,182.95L84.93,182.38L106.17,188.32L127.4,191.45L148.63,190.59L169.87,188.96L212.33,201.52L233.57,186.65L254.8,185.74L276.03,177.24L297.27,173.3L318.5,166.21L339.73,154.48L360.97,140.46L382.2,136.91L403.43,136.93L424.67,123.1L445.9,127.8L467.13,138.01L488.37,142.42L509.6,148.36L530.83,138.78L552.07,131.59L573.3,119.12L594.53,108.16L615.77,113.07L637,97.54" style="vector-effect: none; fill: none; stroke: rgb(169, 185, 35); stroke-opacity: 1; stroke-width: 2px; opacity: 1;"/></g><g class="points"/><g class="text"/></g><g class="trace scatter traceca8c4c84-1139-4460-b8a7-5a9da066e279" style="stroke-miterlimit: 2; opacity: 0.1;"><g class="fills"/><g class="errorbars"/><g class="lines"><path class="js-line" d="M0,178.07L21.23,186.64L42.47,181.97L63.7,183.42L84.93,176.85L106.17,195.74L127.4,192.15L148.63,182.93L169.87,181.12L191.1,184.1L212.33,183.26L233.57,185.8L254.8,196.19L276.03,212.25L297.27,211.37L318.5,207.59L339.73,207.06L360.97,207.49L382.2,218.05L403.43,219.51L424.67,211.39L445.9,209L467.13,221.09L488.37,215.17L509.6,213.29L530.83,217.74L552.07,223.15L573.3,220.62L594.53,221.17L615.77,220.33L637,213.2" style="vector-effect: none; fill: none; stroke: rgb(205, 114, 25); stroke-opacity: 1; stroke-width: 2px; opacity: 1;"/></g><g class="points"/><g class="text"/></g><g class="trace scatter tracef7d2c1d2-fa55-4830-852b-e8c5d94964cf" style="stroke-miterlimit: 2; opacity: 0.1;"><g class="fills"/><g class="errorbars"/><g class="lines"><path class="js-line" d="M0,178.07L21.23,172.6L42.47,171.01L63.7,170.03L84.93,158.6L127.4,155.61L148.63,157.42L169.87,165.1L191.1,161.29L212.33,163.62L233.57,160.68L254.8,159.82L276.03,165.17L297.27,176.65L318.5,175.3L339.73,181.18L360.97,178.7L382.2,181.64L403.43,194.61L424.67,191.92L445.9,186.63L467.13,192.58L488.37,189.57L509.6,190.42L530.83,193.88L552.07,188.34L573.3,184.93L594.53,185.59L615.77,189.92L637,193.73" style="vector-effect: none; fill: none; stroke: rgb(187, 188, 34); stroke-opacity: 1; stroke-width: 2px; opacity: 1;"/></g><g class="points"/><g class="text"/></g><g class="trace scatter trace428c3002-2d93-4eb9-a9c0-3bdfe8d7230c" style="stroke-miterlimit: 2; opacity: 0.1;"><g class="fills"/><g class="errorbars"/><g class="lines"><path class="js-line" d="M0,178.07L21.23,184.6L42.47,184.94L63.7,187L84.93,186.18L106.17,182.58L127.4,188.63L148.63,199.84L169.87,198.94L191.1,209.85L212.33,206.18L233.57,200.95L254.8,204.38L276.03,211.89L297.27,207.8L318.5,209.07L339.73,203.31L360.97,219.86L382.2,216.71L403.43,208.64L424.67,207.06L445.9,209.67L467.13,208.93L488.37,211.15L509.6,220.25L530.83,234.31L552.07,233.54L573.3,230.24L594.53,229.77L615.77,230.14L637,239.39" style="vector-effect: none; fill: none; stroke: rgb(206, 112, 24); stroke-opacity: 1; stroke-width: 2px; opacity: 1;"/></g><g class="points"/><g class="text"/></g><g class="trace scatter tracedb3baa51-4486-4806-8ea0-dd1712f303b7" style="stroke-miterlimit: 2; opacity: 0.1;"><g class="fills"/><g class="errorbars"/><g class="lines"><path class="js-line" d="M0,178.07L21.23,190.7L42.47,192.56L63.7,191.92L84.93,214.09L106.17,209.08L127.4,202.59L148.63,197.12L169.87,214.22L191.1,210.34L212.33,196.91L233.57,198.05L254.8,190.18L276.03,195L297.27,203.56L318.5,201.99L339.73,197.09L360.97,193.66L382.2,202.52L403.43,199.58L424.67,201.57L445.9,207.05L467.13,201.83L488.37,203.57L509.6,199.37L530.83,205.88L552.07,207.86L573.3,207.36L594.53,212.58L615.77,215.34L637,214.58" style="vector-effect: none; fill: none; stroke: rgb(202, 129, 26); stroke-opacity: 1; stroke-width: 2px; opacity: 1;"/></g><g class="points"/><g class="text"/></g><g class="trace scatter tracee528d287-637f-451c-97ca-af643594a388" style="stroke-miterlimit: 2; opacity: 0.1;"><g class="fills"/><g class="errorbars"/><g class="lines"><path class="js-line" d="M0,178.07L21.23,182.22L42.47,161.35L63.7,157.08L84.93,157.78L106.17,163.24L127.4,145.74L148.63,145.29L169.87,150.46L191.1,147.96L212.33,164.74L233.57,146.83L254.8,151.24L276.03,147.35L297.27,140.8L318.5,143.43L339.73,153.68L360.97,150.07L382.2,179.83L424.67,178.94L445.9,191.96L467.13,193.36L488.37,205.59L509.6,208.5L530.83,234.54L552.07,218.32L573.3,232.17L594.53,231.33L615.77,243.15L637,225.64" style="vector-effect: none; fill: none; stroke: rgb(167, 184, 35); stroke-opacity: 1; stroke-width: 2px; opacity: 1;"/></g><g class="points"/><g class="text"/></g><g class="trace scatter trace8e2fbf0c-000d-4176-bee7-8116277ba260" style="stroke-miterlimit: 2; opacity: 0.1;"><g class="fills"/><g class="errorbars"/><g class="lines"><path class="js-line" d="M0,178.07L21.23,177.5L42.47,168.43L63.7,162.34L84.93,151.45L106.17,147.25L127.4,138.91L148.63,141.31L169.87,124.09L191.1,133.73L212.33,148.32L233.57,142.7L254.8,133.97L276.03,139.46L297.27,137.8L318.5,137.48L339.73,140.74L360.97,154.93L382.2,153.81L403.43,162.65L424.67,167.04L445.9,150.84L467.13,147.4L488.37,147.57L509.6,139.51L530.83,134.69L552.07,134.71L573.3,134.8L594.53,133.81L615.77,142.04L637,137.05" style="vector-effect: none; fill: none; stroke: rgb(132, 177, 37); stroke-opacity: 1; stroke-width: 2px; opacity: 1;"/></g><g class="points"/><g class="text"/></g><g class="trace scatter traced58c1322-cfcb-415a-b81f-5ae3517da9eb" style="stroke-miterlimit: 2; opacity: 0.1;"><g class="fills"/><g class="errorbars"/><g class="lines"><path class="js-line" d="M0,178.07L21.23,147.42L42.47,140.34L63.7,143.3L84.93,151.38L106.17,169.93L127.4,168.53L148.63,174.02L169.87,176.45L191.1,172.28L212.33,154.26L233.57,168.4L254.8,172.28L276.03,171.85L297.27,177.63L318.5,167L339.73,169.19L360.97,158.9L382.2,160L403.43,155.29L424.67,152.8L445.9,158.07L467.13,159.53L488.37,151.88L509.6,148.97L530.83,142.75L552.07,140.95L573.3,139.83L594.53,126.83L637,123.42" style="vector-effect: none; fill: none; stroke: rgb(156, 182, 36); stroke-opacity: 1; stroke-width: 2px; opacity: 1;"/></g><g class="points"/><g class="text"/></g><g class="trace scatter tracee9daca6d-d514-4845-b5a9-e5569da99781" style="stroke-miterlimit: 2; opacity: 0.1;"><g class="fills"/><g class="errorbars"/><g class="lines"><path class="js-line" d="M0,178.07L21.23,179.57L42.47,192.66L63.7,195.78L84.93,223.65L106.17,206.29L127.4,221.1L148.63,220.21L169.87,232.85L191.1,214.12L212.33,216.25L233.57,212.1L254.8,215.32L276.03,228.29L297.27,233.08L318.5,228.39L339.73,221.1L360.97,223.63L382.2,219.67L403.43,212.08L424.67,223.02L445.9,228.97L467.13,227.69L488.37,237.84L509.6,238.62L530.83,220.49L552.07,223.71L573.3,220.74L594.53,228.82L615.77,213.1L637,206.33" style="vector-effect: none; fill: none; stroke: rgb(213, 82, 21); stroke-opacity: 1; stroke-width: 2px; opacity: 1;"/></g><g class="points"/><g class="text"/></g><g class="trace scatter tracefa5870fd-a779-4d4d-8561-aa84aba91e71" style="stroke-miterlimit: 2; opacity: 0.1;"><g class="fills"/><g class="errorbars"/><g class="lines"><path class="js-line" d="M0,178.07L21.23,171.32L42.47,190.7L63.7,187.02L84.93,177.56L106.17,175.71L127.4,178.76L148.63,177.9L169.87,180.51L191.1,191.17L212.33,207.64L233.57,206.74L254.8,202.87L276.03,202.32L297.27,202.76L318.5,213.59L339.73,215.09L360.97,206.76L382.2,204.3L403.43,216.71L424.67,210.64L445.9,208.71L467.13,213.27L488.37,218.83L509.6,216.23L530.83,216.79L552.07,215.93L573.3,208.61L594.53,209.73L615.77,201.4L637,201.47" style="vector-effect: none; fill: none; stroke: rgb(203, 123, 26); stroke-opacity: 1; stroke-width: 2px; opacity: 1;"/></g><g class="points"/><g class="text"/></g><g class="trace scatter trace37f52101-f381-4483-b128-32e1b0e16fc6" style="stroke-miterlimit: 2; opacity: 0.1;"><g class="fills"/><g class="errorbars"/><g class="lines"><path class="js-line" d="M0,178.07L21.23,181.92L42.47,190.33L63.7,185.75L84.93,187.17L106.17,180.72L127.4,199.26L148.63,195.74L169.87,186.69L191.1,184.91L212.33,187.84L233.57,187.01L254.8,189.51L276.03,199.71L297.27,215.47L318.5,214.61L339.73,210.9L360.97,210.38L382.2,210.8L403.43,221.17L424.67,222.6L445.9,214.63L467.13,212.28L488.37,224.16L509.6,218.34L530.83,216.49L552.07,220.86L573.3,226.18L594.53,223.69L615.77,224.23L637,223.41" style="vector-effect: none; fill: none; stroke: rgb(207, 107, 24); stroke-opacity: 1; stroke-width: 2px; opacity: 1;"/></g><g class="points"/><g class="text"/></g><g class="trace scatter traceb66918c9-3d57-493b-9f91-c497f5b39179" style="stroke-miterlimit: 2; opacity: 0.1;"><g class="fills"/><g class="errorbars"/><g class="lines"><path class="js-line" d="M0,178.07L21.23,186.64L42.47,181.97L63.7,183.42L84.93,176.85L106.17,195.74L127.4,192.15L148.63,182.93L169.87,181.12L191.1,184.1L212.33,183.26L233.57,185.8L254.8,196.19L276.03,212.25L297.27,211.37L318.5,207.59L339.73,207.06L360.97,207.49L382.2,218.05L403.43,219.51L424.67,211.39L445.9,209L467.13,221.09L488.37,215.17L509.6,213.29L530.83,217.74L552.07,223.15L573.3,220.62L594.53,221.17L615.77,220.33L637,213.2" style="vector-effect: none; fill: none; stroke: rgb(205, 114, 25); stroke-opacity: 1; stroke-width: 2px; opacity: 1;"/></g><g class="points"/><g class="text"/></g><g class="trace scatter tracedf99719c-8d0c-41d8-acf8-77484dadfa60" style="stroke-miterlimit: 2; opacity: 0.1;"><g class="fills"/><g class="errorbars"/><g class="lines"><path class="js-line" d="M0,178.07L21.23,180.09L42.47,165.56L63.7,173.69L84.93,186.01L106.17,181.26L127.4,173.89L148.63,178.53L169.87,177.13L191.1,176.86L212.33,179.61L233.57,191.58L254.8,190.64L276.03,198.1L297.27,201.8L318.5,188.13L339.73,185.23L360.97,185.38L382.2,178.57L403.43,174.5L424.67,174.53L445.9,174.6L467.13,173.76L488.37,180.71L509.6,176.5L530.83,173.1L552.07,177.27L573.3,184.73L594.53,176.95L615.77,176.72L637,170.76" style="vector-effect: none; fill: none; stroke: rgb(187, 188, 34); stroke-opacity: 1; stroke-width: 2px; opacity: 1;"/></g><g class="points"/><g class="text"/></g><g class="trace scatter trace10248c97-bb3f-4d05-bf03-879fd68f77e0" style="stroke-miterlimit: 2; opacity: 0.1;"><g class="fills"/><g class="errorbars"/><g class="lines"><path class="js-line" d="M0,178.07L21.23,171.32L42.47,190.7L63.7,187.02L84.93,177.56L106.17,175.71L127.4,178.76L148.63,177.9L169.87,180.51L191.1,191.17L212.33,207.64L233.57,206.74L254.8,202.87L276.03,202.32L297.27,202.76L318.5,213.59L339.73,215.09L360.97,206.76L382.2,204.3L403.43,216.71L424.67,210.64L445.9,208.71L467.13,213.27L488.37,218.83L509.6,216.23L530.83,216.79L552.07,215.93L573.3,208.61L594.53,209.73L615.77,201.4L637,201.47" style="vector-effect: none; fill: none; stroke: rgb(203, 123, 26); stroke-opacity: 1; stroke-width: 2px; opacity: 1;"/></g><g class="points"/><g class="text"/></g><g class="trace scatter tracefe4a6ba3-8a44-4034-9c9b-49f6806b666e" style="stroke-miterlimit: 2; opacity: 0.1;"><g class="fills"/><g class="errorbars"/><g class="lines"><path class="js-line" d="M0,178.07L21.23,186L42.47,189.93L63.7,175.4L84.93,172.32L106.17,172.47L127.4,165.24L148.63,160.91L169.87,160.94L191.1,161.02L212.33,160.12L233.57,167.51L254.8,163.03L276.03,159.42L297.27,163.86L318.5,171.79L339.73,163.52L360.97,163.27L382.2,156.93L403.43,156.02L424.67,156.58L445.9,142.11L467.13,144.51L488.37,143.73L509.6,150.84L530.83,156.01L552.07,171.02L573.3,173.04L594.53,169.95L615.77,180.22L637,188.39" style="vector-effect: none; fill: none; stroke: rgb(164, 184, 35); stroke-opacity: 1; stroke-width: 2px; opacity: 1;"/></g><g class="points"/><g class="text"/></g><g class="trace scatter trace8fd76671-30b6-41be-9816-5ccd731619ba" style="stroke-miterlimit: 2; opacity: 0.1;"><g class="fills"/><g class="errorbars"/><g class="lines"><path class="js-line" d="M0,178.07L21.23,171.02L42.47,166.81L84.93,166.9L106.17,166.03L127.4,173.23L148.63,168.87L169.87,165.35L191.1,169.67L212.33,177.4L233.57,169.34L254.8,169.1L276.03,162.93L297.27,162.04L318.5,162.58L339.73,148.49L360.97,150.82L382.2,150.06L403.43,156.99L424.67,162.03L445.9,176.66L467.13,178.62L488.37,175.61L509.6,185.62L530.83,193.57L552.07,195.72L573.3,199.8L594.53,203.53L615.77,184.81L637,180.97" style="vector-effect: none; fill: none; stroke: rgb(173, 186, 34); stroke-opacity: 1; stroke-width: 2px; opacity: 1;"/></g><g class="points"/><g class="text"/></g><g class="trace scatter tracebf4a7309-6809-48cd-91e4-59c9c55f38fd" style="stroke-miterlimit: 2; opacity: 0.1;"><g class="fills"/><g class="errorbars"/><g class="lines"><path class="js-line" d="M0,178.07L21.23,177.37L42.47,201.17L63.7,195.8L84.93,188.84L106.17,182.96L127.4,201.32L148.63,197.15L169.87,182.74L191.1,183.97L212.33,175.52L233.57,180.68L254.8,189.87L276.03,188.19L297.27,182.93L318.5,179.24L339.73,188.76L360.97,185.6L382.2,187.74L403.43,193.62L424.67,188.01L445.9,189.88L467.13,185.37L488.37,192.36L509.6,194.49L530.83,193.95L552.07,199.56L573.3,202.52L594.53,201.7L615.77,200.16L637,205.76" style="vector-effect: none; fill: none; stroke: rgb(194, 162, 30); stroke-opacity: 1; stroke-width: 2px; opacity: 1;"/></g><g class="points"/><g class="text"/></g><g class="trace scatter tracebb3d3fc1-e814-4427-a707-8df5f319d657" style="stroke-miterlimit: 2; opacity: 0.1;"><g class="fills"/><g class="errorbars"/><g class="lines"><path class="js-line" d="M0,178.07L21.23,181.41L42.47,211.35L63.7,192.7L84.93,208.62L106.17,207.66L127.4,221.24L148.63,201.11L169.87,203.41L191.1,198.95L212.33,202.41L233.57,216.34L254.8,221.48L276.03,216.45L297.27,208.61L318.5,211.34L339.73,207.08L360.97,198.92L382.2,210.67L403.43,217.07L424.67,215.69L445.9,226.6L467.13,227.43L488.37,207.96L509.6,211.42L530.83,208.23L552.07,216.91L573.3,200.02L594.53,192.75L615.77,194.56L637,203.29" style="vector-effect: none; fill: none; stroke: rgb(206, 113, 24); stroke-opacity: 1; stroke-width: 2px; opacity: 1;"/></g><g class="points"/><g class="text"/></g><g class="trace scatter trace06dc248e-26de-474d-9f75-0d2fb8635dbb" style="stroke-miterlimit: 2; opacity: 0.1;"><g class="fills"/><g class="errorbars"/><g class="lines"><path class="js-line" d="M0,178.07L21.23,181.36L42.47,180.46L63.7,178.74L84.93,184.97L106.17,191.94L127.4,176.31L148.63,175.36L169.87,166.43L191.1,162.28L212.33,154.83L233.57,142.51L254.8,127.77L276.03,124.04L297.27,124.06L318.5,109.53L339.73,114.47L360.97,125.2L382.2,129.83L403.43,136.07L424.67,126.01L445.9,118.45L467.13,105.35L488.37,93.83L509.6,98.99L530.83,82.67L552.07,87.11L573.3,87.6L594.53,94.98L615.77,72.4L637,77.26" style="vector-effect: none; fill: none; stroke: rgb(107, 172, 39); stroke-opacity: 1; stroke-width: 2px; opacity: 1;"/></g><g class="points"/><g class="text"/></g><g class="trace scatter trace2fd24a3b-ee07-4786-a9f8-17cf04b429b3" style="stroke-miterlimit: 2; opacity: 0.1;"><g class="fills"/><g class="errorbars"/><g class="lines"><path class="js-line" d="M0,178.07L21.23,176.29L42.47,170.71L63.7,166.82L84.93,176.9L106.17,173.55L127.4,175.81L148.63,182.04L169.87,176.1L191.1,178.08L212.33,173.3L233.57,180.71L254.8,182.96L276.03,182.39L297.27,188.33L318.5,191.46L339.73,190.6L360.97,188.97L382.2,194.9L403.43,201.53L424.67,186.66L445.9,185.75L467.13,177.25L488.37,173.31L509.6,166.22L530.83,154.49L552.07,140.47L573.3,136.92L594.53,136.94L615.77,123.11L637,127.82" style="vector-effect: none; fill: none; stroke: rgb(186, 188, 34); stroke-opacity: 1; stroke-width: 2px; opacity: 1;"/></g><g class="points"/><g class="text"/></g><g class="trace scatter tracea8ee7890-f779-4bc4-a5de-4e733d07b0b6" style="stroke-miterlimit: 2; opacity: 0.1;"><g class="fills"/><g class="errorbars"/><g class="lines"><path class="js-line" d="M0,178.07L21.23,196.86L42.47,192.59L63.7,177.84L84.93,179.1L106.17,170.45L127.4,175.74L148.63,185.14L169.87,183.42L191.1,178.03L212.33,174.26L233.57,184.01L254.8,180.77L276.03,182.96L297.27,188.98L318.5,183.24L339.73,185.15L360.97,180.54L382.2,187.69L403.43,189.87L424.67,189.32L445.9,195.06L467.13,198.09L509.6,195.68L530.83,201.41L552.07,207.81L573.3,193.44L594.53,192.57L615.77,184.35L637,180.54" style="vector-effect: none; fill: none; stroke: rgb(192, 170, 31); stroke-opacity: 1; stroke-width: 2px; opacity: 1;"/></g><g class="points"/><g class="text"/></g><g class="trace scatter trace894c6ddf-93a8-4168-adae-497c233e7984" style="stroke-miterlimit: 2; opacity: 0.1;"><g class="fills"/><g class="errorbars"/><g class="lines"><path class="js-line" d="M0,178.07L21.23,178.11L42.47,176.71L63.7,190.49L84.93,170.82L106.17,165L127.4,164.93L148.63,172.6L169.87,169.76L191.1,157.04L212.33,142.92L233.57,147.39L254.8,138.52L276.03,132.63L297.27,135.2L318.5,85.49L339.73,85.19L360.97,95.77L382.2,75.03L403.43,79.5L424.67,80.38L445.9,71.04L467.13,75.41L488.37,67.39L509.6,47.81L530.83,51.53L552.07,22.97L573.3,23.4L594.53,13.12L615.77,34.9L637,68.98" style="vector-effect: none; fill: none; stroke: rgb(59, 163, 42); stroke-opacity: 1; stroke-width: 2px; opacity: 1;"/></g><g class="points"/><g class="text"/></g><g class="trace scatter trace756a09cc-0393-4ea2-8a0f-fca35c0c0368" style="stroke-miterlimit: 2; opacity: 0.1;"><g class="fills"/><g class="errorbars"/><g class="lines"><path class="js-line" d="M0,178.07L21.23,191.25L42.47,194.39L63.7,222.46L84.93,204.98L106.17,219.9L127.4,219L148.63,231.73L169.87,212.86L191.1,215.01L212.33,210.83L233.57,214.08L254.8,227.14L276.03,231.96L297.27,227.24L318.5,219.89L339.73,222.45L360.97,218.46L382.2,210.81L403.43,221.83L424.67,227.82L445.9,226.53L467.13,236.76L488.37,237.54L509.6,219.28L530.83,222.53L552.07,219.54L573.3,227.67L594.53,211.84L615.77,205.03L637,206.72" style="vector-effect: none; fill: none; stroke: rgb(212, 85, 21); stroke-opacity: 1; stroke-width: 2px; opacity: 1;"/></g><g class="points"/><g class="text"/></g><g class="trace scatter trace3f07f09e-1b55-4aaa-831f-0a76f0e4b6df" style="stroke-miterlimit: 2; opacity: 0.1;"><g class="fills"/><g class="errorbars"/><g class="lines"><path class="js-line" d="M0,178.07L21.23,175.48L42.47,169.94L84.93,167.34L106.17,155.77L148.63,152.74L169.87,154.57L191.1,162.35L212.33,158.49L233.57,160.85L254.8,157.87L276.03,157.01L297.27,162.42L318.5,174.04L339.73,172.67L360.97,178.63L382.2,176.12L403.43,179.09L424.67,192.22L445.9,189.5L467.13,184.14L488.37,190.16L509.6,187.12L530.83,187.99L552.07,191.48L573.3,185.88L594.53,182.42L615.77,183.09L637,187.48" style="vector-effect: none; fill: none; stroke: rgb(184, 188, 34); stroke-opacity: 1; stroke-width: 2px; opacity: 1;"/></g><g class="points"/><g class="text"/></g><g class="trace scatter tracea8050355-6fcd-4e99-b71c-9483953e9a09" style="stroke-miterlimit: 2; opacity: 0.1;"><g class="fills"/><g class="errorbars"/><g class="lines"><path class="js-line" d="M0,178.07L21.23,171.95L42.47,166.88L63.7,167.46L84.93,175.52L106.17,144.5L127.4,137.33L148.63,140.33L169.87,148.51L191.1,167.28L212.33,165.87L233.57,171.42L254.8,173.88L276.03,169.66L297.27,151.42L318.5,165.73L339.73,169.66L360.97,169.22L382.2,175.07L403.43,164.31L424.67,166.54L445.9,156.12L467.13,157.23L488.37,152.46L509.6,149.94L530.83,155.28L552.07,156.75L573.3,149.02L594.53,146.07L615.77,139.77L637,137.95" style="vector-effect: none; fill: none; stroke: rgb(165, 184, 35); stroke-opacity: 1; stroke-width: 2px; opacity: 1;"/></g><g class="points"/><g class="text"/></g><g class="trace scatter trace091f1c98-4cdf-4568-aea5-b79ce6d911fa" style="stroke-miterlimit: 2; opacity: 0.1;"><g class="fills"/><g class="errorbars"/><g class="lines"><path class="js-line" d="M0,178.07L21.23,177.34L42.47,190.46L63.7,191.87L84.93,204.19L106.17,207.13L127.4,233.37L148.63,217.02L169.87,230.97L191.1,230.13L212.33,242.03L233.57,224.39L254.8,226.4L276.03,222.5L297.27,225.53L318.5,237.74L339.73,242.25L360.97,237.83L382.2,230.96L403.43,233.35L424.67,229.62L445.9,222.47L467.13,232.77L488.37,238.38L509.6,237.17L530.83,246.73L552.07,247.46L573.3,230.39L594.53,233.43L615.77,230.63L637,238.24" style="vector-effect: none; fill: none; stroke: rgb(219, 58, 18); stroke-opacity: 1; stroke-width: 2px; opacity: 1;"/></g><g class="points"/><g class="text"/></g><g class="trace scatter traceb9319692-cbfe-488a-97e5-d77fb53c1fc1" style="stroke-miterlimit: 2; opacity: 0.1;"><g class="fills"/><g class="errorbars"/><g class="lines"><path class="js-line" d="M0,178.07L21.23,185.51L42.47,184.96L63.7,184.05L84.93,184.26L106.17,179.8L127.4,174.04L148.63,180.63L169.87,178.18L212.33,178.12L233.57,182.39L254.8,181.65L276.03,185.05L297.27,189.86L318.5,210.67L339.73,217.41L360.97,211.65L403.43,208.15L424.67,208.88L445.9,207.16L467.13,204.42L488.37,202.21L509.6,203.61L530.83,200.74L552.07,199.62L573.3,208.45L594.53,206.41L615.77,185.48L637,186.42" style="vector-effect: none; fill: none; stroke: rgb(193, 167, 31); stroke-opacity: 1; stroke-width: 2px; opacity: 1;"/></g><g class="points"/><g class="text"/></g><g class="trace scatter tracea983d518-c1d4-4825-9d1c-8a40e6309289" style="stroke-miterlimit: 2; opacity: 0.1;"><g class="fills"/><g class="errorbars"/><g class="lines"><path class="js-line" d="M0,178.07L21.23,173.54L42.47,174.68L63.7,169.65L84.93,179.5L106.17,202.52L127.4,196.88L148.63,202.04L169.87,200.39L191.1,198.23L212.33,202.78L254.8,198.9L276.03,197.96L297.27,196.98L318.5,198.98L339.73,192.72L360.97,190.63L382.2,187.51L403.43,187.77L424.67,187.89L445.9,185.18L467.13,188.14L488.37,197.42L509.6,195.35L530.83,200.66L552.07,191.53L573.3,192.45L615.77,190.83L637,192.27" style="vector-effect: none; fill: none; stroke: rgb(196, 153, 29); stroke-opacity: 1; stroke-width: 2px; opacity: 1;"/></g><g class="points"/><g class="text"/></g><g class="trace scatter tracee4d9a103-c726-4b0b-936d-b4557ade1329" style="stroke-miterlimit: 2; opacity: 0.1;"><g class="fills"/><g class="errorbars"/><g class="lines"><path class="js-line" d="M0,178.07L21.23,178.14L42.47,177.31L63.7,184.15L84.93,180.01L106.17,176.67L127.4,180.77L148.63,188.11L169.87,180.46L191.1,180.22L212.33,174.36L233.57,173.52L254.8,174.04L276.03,160.65L297.27,162.87L318.5,162.15L339.73,168.72L360.97,173.51L382.2,187.4L403.43,189.26L424.67,186.41L445.9,195.91L467.13,203.46L488.37,205.5L509.6,209.38L530.83,212.92L552.07,195.14L573.3,191.5L594.53,192.1L615.77,196.75L637,181.84" style="vector-effect: none; fill: none; stroke: rgb(189, 182, 33); stroke-opacity: 1; stroke-width: 2px; opacity: 1;"/></g><g class="points"/><g class="text"/></g><g class="trace scatter trace763353e6-da9d-4a70-bb93-6318a9b930f6" style="stroke-miterlimit: 2; opacity: 0.1;"><g class="fills"/><g class="errorbars"/><g class="lines"><path class="js-line" d="M0,178.07L21.23,183.05L42.47,173.07L63.7,168.43L84.93,170.2L106.17,172.21L127.4,167.64L148.63,172.48L169.87,191.9L191.1,202.39L212.33,189.48L233.57,183.4L254.8,192.85L276.03,193.49L297.27,191.24L339.73,201.05L360.97,198.76L382.2,188.19L403.43,168.34L424.67,170.67L445.9,168.07L467.13,163.36L488.37,153.03L509.6,135.36L530.83,142.39L552.07,141.63L573.3,137.04L594.53,138.38L615.77,125.45L637,132.23" style="vector-effect: none; fill: none; stroke: rgb(178, 187, 34); stroke-opacity: 1; stroke-width: 2px; opacity: 1;"/></g><g class="points"/><g class="text"/></g><g class="trace scatter traced64a0180-fde9-4f1b-85bb-4e3e031f47a2" style="stroke-miterlimit: 2; opacity: 0.1;"><g class="fills"/><g class="errorbars"/><g class="lines"><path class="js-line" d="M0,178.07L21.23,179.32L42.47,182.39L84.93,183.89L106.17,181.46L127.4,179.01L148.63,182.77L169.87,181.47L191.1,176.41L212.33,173.97L233.57,169.23L254.8,167.75L276.03,164.64L297.27,166.75L318.5,166.8L339.73,165.1L360.97,168.72L382.2,167.92L403.43,165.13L424.67,160.29L445.9,157.19L467.13,140.19L488.37,136.53L509.6,137.42L530.83,133.74L552.07,135.35L573.3,134.9L594.53,123.5L615.77,130.72L637,127.02" style="vector-effect: none; fill: none; stroke: rgb(170, 185, 35); stroke-opacity: 1; stroke-width: 2px; opacity: 1;"/></g><g class="points"/><g class="text"/></g><g class="trace scatter tracee7cded93-c644-4c1a-bd76-fb739375df77" style="stroke-miterlimit: 2; opacity: 0.1;"><g class="fills"/><g class="errorbars"/><g class="lines"><path class="js-line" d="M0,178.07L42.47,179.6L63.7,177.12L84.93,174.62L106.17,178.46L127.4,177.13L148.63,171.96L169.87,169.47L191.1,164.64L212.33,163.13L233.57,159.95L254.8,162.1L276.03,162.15L297.27,160.41L318.5,164.12L339.73,163.3L360.97,160.45L382.2,155.51L403.43,152.35L424.67,134.99L445.9,131.25L467.13,132.16L488.37,128.4L509.6,130.05L530.83,129.59L552.07,117.95L573.3,125.32L594.53,121.55L615.77,119.47L637,114.87" style="vector-effect: none; fill: none; stroke: rgb(160, 183, 35); stroke-opacity: 1; stroke-width: 2px; opacity: 1;"/></g><g class="points"/><g class="text"/></g><g class="trace scatter trace4110ff29-142c-4bb4-a7b6-1c6884a2b114" style="stroke-miterlimit: 2; opacity: 0.1;"><g class="fills"/><g class="errorbars"/><g class="lines"><path class="js-line" d="M0,178.07L42.47,186.59L63.7,166.16L84.93,161.98L106.17,162.67L127.4,168.01L148.63,150.88L169.87,150.44L191.1,155.5L212.33,153.05L233.57,169.48L254.8,151.95L276.03,156.26L297.27,152.45L318.5,146.05L339.73,148.62L360.97,158.65L382.2,155.12L403.43,184.25L445.9,183.38L467.13,196.12L488.37,197.49L509.6,209.47L530.83,212.32L552.07,237.81L573.3,221.93L594.53,235.49L615.77,234.67L637,246.23" style="vector-effect: none; fill: none; stroke: rgb(175, 186, 34); stroke-opacity: 1; stroke-width: 2px; opacity: 1;"/></g><g class="points"/><g class="text"/></g><g class="trace scatter tracea83a22e5-aac1-4ec9-908c-2d08dbcbf85d" style="stroke-miterlimit: 2; opacity: 0.1;"><g class="fills"/><g class="errorbars"/><g class="lines"><path class="js-line" d="M0,178.07L21.23,177.34L42.47,190.46L63.7,191.87L84.93,204.19L106.17,207.13L127.4,233.37L148.63,217.02L169.87,230.97L191.1,230.13L212.33,242.03L233.57,224.39L254.8,226.4L276.03,222.5L297.27,225.53L318.5,237.74L339.73,242.25L360.97,237.83L382.2,230.96L403.43,233.35L424.67,229.62L445.9,222.47L467.13,232.77L488.37,238.38L509.6,237.17L530.83,246.73L552.07,247.46L573.3,230.39L594.53,233.43L615.77,230.63L637,238.24" style="vector-effect: none; fill: none; stroke: rgb(219, 58, 18); stroke-opacity: 1; stroke-width: 2px; opacity: 1;"/></g><g class="points"/><g class="text"/></g><g class="trace scatter trace36296598-0dcb-485b-8d1b-bc293f45bf32" style="stroke-miterlimit: 2; opacity: 0.1;"><g class="fills"/><g class="errorbars"/><g class="lines"><path class="js-line" d="M0,178.07L21.23,177.24L42.47,184.08L63.7,179.94L84.93,176.59L106.17,180.7L127.4,188.04L148.63,180.39L169.87,180.15L191.1,174.29L212.33,173.45L233.57,173.96L254.8,160.58L276.03,162.79L297.27,162.07L318.5,168.65L339.73,173.43L360.97,187.33L382.2,189.19L403.43,186.34L424.67,195.84L445.9,203.4L467.13,205.44L509.6,212.85L530.83,195.07L552.07,191.43L573.3,192.03L594.53,196.68L615.77,181.77L637,181.38" style="vector-effect: none; fill: none; stroke: rgb(189, 181, 33); stroke-opacity: 1; stroke-width: 2px; opacity: 1;"/></g><g class="points"/><g class="text"/></g><g class="trace scatter trace1a8a7d0b-1f38-45a0-8c2a-84a6099f8ea8" style="stroke-miterlimit: 2; opacity: 0.1;"><g class="fills"/><g class="errorbars"/><g class="lines"><path class="js-line" d="M0,178.07L21.23,180.2L42.47,179.36L63.7,175.64L84.93,181.88L106.17,193.47L127.4,192.54L148.63,203.82L169.87,200.03L191.1,194.62L212.33,198.17L233.57,205.92L254.8,201.7L276.03,203.01L297.27,197.06L318.5,214.16L339.73,210.91L360.97,202.57L382.2,200.93L403.43,203.63L424.67,202.86L445.9,205.16L467.13,214.57L488.37,229.1L509.6,228.3L530.83,224.89L552.07,224.41L573.3,224.79L594.53,234.35L615.77,235.67L637,228.32" style="vector-effect: none; fill: none; stroke: rgb(203, 126, 26); stroke-opacity: 1; stroke-width: 2px; opacity: 1;"/></g><g class="points"/><g class="text"/></g><g class="trace scatter trace4cbcf6ba-f090-4d0d-b7dd-37a974299f4b" style="stroke-miterlimit: 2; opacity: 0.1;"><g class="fills"/><g class="errorbars"/><g class="lines"><path class="js-line" d="M0,178.07L21.23,185.51L42.47,184.96L63.7,184.05L84.93,184.26L106.17,179.8L127.4,174.04L148.63,180.63L169.87,178.18L212.33,178.12L233.57,182.39L254.8,181.65L276.03,185.05L297.27,189.86L318.5,210.67L339.73,217.41L360.97,211.65L403.43,208.15L424.67,208.88L445.9,207.16L467.13,204.42L488.37,202.21L509.6,203.61L530.83,200.74L552.07,199.62L573.3,208.45L594.53,206.41L615.77,185.48L637,186.42" style="vector-effect: none; fill: none; stroke: rgb(193, 167, 31); stroke-opacity: 1; stroke-width: 2px; opacity: 1;"/></g><g class="points"/><g class="text"/></g><g class="trace scatter tracecc77af68-564b-4fe0-92e8-90900eaa7bd4" style="stroke-miterlimit: 2; opacity: 0.1;"><g class="fills"/><g class="errorbars"/><g class="lines"><path class="js-line" d="M0,178.07L21.23,178L42.47,185.23L63.7,182.55L84.93,170.57L106.17,157.27L127.4,161.49L148.63,153.12L169.87,147.58L191.1,150L212.33,103.18L233.57,102.9L254.8,112.86L276.03,93.33L297.27,97.54L318.5,98.37L339.73,89.57L360.97,93.69L382.2,86.14L403.43,67.69L424.67,71.19L445.9,44.3L467.13,44.7L488.37,35.02L509.6,55.53L530.83,87.64L552.07,82.79L573.3,98.86L594.53,103.79L615.77,104.84L637,110.84" style="vector-effect: none; fill: none; stroke: rgb(71, 165, 42); stroke-opacity: 1; stroke-width: 2px; opacity: 1;"/></g><g class="points"/><g class="text"/></g><g class="trace scatter trace13ebfd5e-947d-4cbe-970c-520dc8bc060e" style="stroke-miterlimit: 2; opacity: 0.1;"><g class="fills"/><g class="errorbars"/><g class="lines"><path class="js-line" d="M0,178.07L21.23,174.4L42.47,175.54L63.7,170.96L84.93,172.11L106.17,167.02L127.4,176.98L148.63,200.28L169.87,194.58L191.1,199.8L212.33,198.13L233.57,195.94L254.8,200.55L297.27,196.62L318.5,195.67L339.73,194.68L360.97,196.7L382.2,190.37L403.43,188.25L424.67,185.1L445.9,185.36L467.13,185.48L488.37,182.73L509.6,185.73L530.83,195.12L552.07,193.02L573.3,198.4L594.53,189.16L615.77,190.09L637,189.31" style="vector-effect: none; fill: none; stroke: rgb(195, 159, 30); stroke-opacity: 1; stroke-width: 2px; opacity: 1;"/></g><g class="points"/><g class="text"/></g><g class="trace scatter tracecee9fd7d-c956-421e-b3e9-ba484b290dad" style="stroke-miterlimit: 2; opacity: 0.1;"><g class="fills"/><g class="errorbars"/><g class="lines"><path class="js-line" d="M0,178.07L21.23,173.54L42.47,174.68L63.7,169.65L84.93,179.5L106.17,202.52L127.4,196.88L148.63,202.04L169.87,200.39L191.1,198.23L212.33,202.78L254.8,198.9L276.03,197.96L297.27,196.98L318.5,198.98L339.73,192.72L360.97,190.63L382.2,187.51L403.43,187.77L424.67,187.89L445.9,185.18L467.13,188.14L488.37,197.42L509.6,195.35L530.83,200.66L552.07,191.53L573.3,192.45L615.77,190.83L637,192.27" style="vector-effect: none; fill: none; stroke: rgb(196, 153, 29); stroke-opacity: 1; stroke-width: 2px; opacity: 1;"/></g><g class="points"/><g class="text"/></g><g class="trace scatter trace9337e289-34e0-475d-b794-76c82114d881" style="stroke-miterlimit: 2; opacity: 0.1;"><g class="fills"/><g class="errorbars"/><g class="lines"><path class="js-line" d="M0,178.07L21.23,177.34L42.47,190.46L63.7,191.87L84.93,204.19L106.17,207.13L127.4,233.37L148.63,217.02L169.87,230.97L191.1,230.13L212.33,242.03L233.57,224.39L254.8,226.4L276.03,222.5L297.27,225.53L318.5,237.74L339.73,242.25L360.97,237.83L382.2,230.96L403.43,233.35L424.67,229.62L445.9,222.47L467.13,232.77L488.37,238.38L509.6,237.17L530.83,246.73L552.07,247.46L573.3,230.39L594.53,233.43L615.77,230.63L637,238.24" style="vector-effect: none; fill: none; stroke: rgb(219, 58, 18); stroke-opacity: 1; stroke-width: 2px; opacity: 1;"/></g><g class="points"/><g class="text"/></g><g class="trace scatter trace5fe3dd5f-c49a-4dcb-aa73-88c987da569c" style="stroke-miterlimit: 2; opacity: 0.1;"><g class="fills"/><g class="errorbars"/><g class="lines"><path class="js-line" d="M0,178.07L21.23,191.25L42.47,194.39L63.7,222.46L84.93,204.98L106.17,219.9L127.4,219L148.63,231.73L169.87,212.86L191.1,215.01L212.33,210.83L233.57,214.08L254.8,227.14L276.03,231.96L297.27,227.24L318.5,219.89L339.73,222.45L360.97,218.46L382.2,210.81L403.43,221.83L424.67,227.82L445.9,226.53L467.13,236.76L488.37,237.54L509.6,219.28L530.83,222.53L552.07,219.54L573.3,227.67L594.53,211.84L615.77,205.03L637,206.72" style="vector-effect: none; fill: none; stroke: rgb(212, 85, 21); stroke-opacity: 1; stroke-width: 2px; opacity: 1;"/></g><g class="points"/><g class="text"/></g><g class="trace scatter trace83d06f79-c956-4595-b5a2-6bf5a4c89bcc" style="stroke-miterlimit: 2; opacity: 0.1;"><g class="fills"/><g class="errorbars"/><g class="lines"><path class="js-line" d="M0,178.07L21.23,172.6L42.47,171.01L63.7,170.03L84.93,158.6L127.4,155.61L148.63,157.42L169.87,165.1L191.1,161.29L212.33,163.62L233.57,160.68L254.8,159.82L276.03,165.17L297.27,176.65L318.5,175.3L339.73,181.18L360.97,178.7L382.2,181.64L403.43,194.61L424.67,191.92L445.9,186.63L467.13,192.58L488.37,189.57L509.6,190.42L530.83,193.88L552.07,188.34L573.3,184.93L594.53,185.59L615.77,189.92L637,193.73" style="vector-effect: none; fill: none; stroke: rgb(187, 188, 34); stroke-opacity: 1; stroke-width: 2px; opacity: 1;"/></g><g class="points"/><g class="text"/></g><g class="trace scatter trace0da38eab-79c9-4fb1-baee-fe884d24c9ac" style="stroke-miterlimit: 2; opacity: 0.1;"><g class="fills"/><g class="errorbars"/><g class="lines"><path class="js-line" d="M0,178.07L21.23,201.25L42.47,195.58L63.7,200.77L84.93,199.11L106.17,196.93L127.4,201.51L169.87,197.61L191.1,196.66L212.33,195.68L233.57,197.68L254.8,191.39L276.03,189.28L297.27,186.14L318.5,186.4L339.73,186.53L360.97,183.79L382.2,186.77L403.43,196.12L424.67,194.03L445.9,199.38L467.13,190.19L488.37,191.11L530.83,189.48L552.07,190.93L573.3,188.25L594.53,189.44L615.77,192.36L637,193.27" style="vector-effect: none; fill: none; stroke: rgb(196, 153, 29); stroke-opacity: 1; stroke-width: 2px; opacity: 1;"/></g><g class="points"/><g class="text"/></g><g class="trace scatter trace919abb4f-671f-40e6-ba77-b84792478179" style="stroke-miterlimit: 2; opacity: 0.1;"><g class="fills"/><g class="errorbars"/><g class="lines"><path class="js-line" d="M0,178.07L21.23,177.64L42.47,183.27L63.7,172.92L84.93,175.06L106.17,165.04L127.4,166.11L148.63,161.53L169.87,159.1L191.1,164.23L212.33,165.65L233.57,158.21L254.8,155.38L276.03,149.32L297.27,147.56L318.5,146.48L339.73,133.82L382.2,130.51L403.43,132.51L424.67,141.02L445.9,136.8L467.13,139.38L488.37,136.12L509.6,135.18L530.83,141.09L552.07,153.81L573.3,152.31L594.53,158.82L615.77,156.08L637,159.33" style="vector-effect: none; fill: none; stroke: rgb(152, 181, 36); stroke-opacity: 1; stroke-width: 2px; opacity: 1;"/></g><g class="points"/><g class="text"/></g><g class="trace scatter tracea7b681fd-99a5-4d2b-ad4b-5b9ba479e06b" style="stroke-miterlimit: 2; opacity: 0.1;"><g class="fills"/><g class="errorbars"/><g class="lines"><path class="js-line" d="M0,178.07L21.23,186.64L42.47,181.97L63.7,183.42L84.93,176.85L106.17,195.74L127.4,192.15L148.63,182.93L169.87,181.12L191.1,184.1L212.33,183.26L233.57,185.8L254.8,196.19L276.03,212.25L297.27,211.37L318.5,207.59L339.73,207.06L360.97,207.49L382.2,218.05L403.43,219.51L424.67,211.39L445.9,209L467.13,221.09L488.37,215.17L509.6,213.29L530.83,217.74L552.07,223.15L573.3,220.62L594.53,221.17L615.77,220.33L637,213.2" style="vector-effect: none; fill: none; stroke: rgb(205, 114, 25); stroke-opacity: 1; stroke-width: 2px; opacity: 1;"/></g><g class="points"/><g class="text"/></g><g class="trace scatter traced9ebc175-acc7-4a24-b109-d793ca95ddd6" style="stroke-miterlimit: 2; opacity: 0.1;"><g class="fills"/><g class="errorbars"/><g class="lines"><path class="js-line" d="M0,178.07L21.23,182.22L42.47,161.35L63.7,157.08L84.93,157.78L106.17,163.24L127.4,145.74L148.63,145.29L169.87,150.46L191.1,147.96L212.33,164.74L233.57,146.83L254.8,151.24L276.03,147.35L297.27,140.8L318.5,143.43L339.73,153.68L360.97,150.07L382.2,179.83L424.67,178.94L445.9,191.96L467.13,193.36L488.37,205.59L509.6,208.5L530.83,234.54L552.07,218.32L573.3,232.17L594.53,231.33L615.77,243.15L637,225.64" style="vector-effect: none; fill: none; stroke: rgb(167, 184, 35); stroke-opacity: 1; stroke-width: 2px; opacity: 1;"/></g><g class="points"/><g class="text"/></g><g class="trace scatter trace6acafd89-8fcd-4d65-b99a-4c9b5e1528bf" style="stroke-miterlimit: 2; opacity: 0.1;"><g class="fills"/><g class="errorbars"/><g class="lines"><path class="js-line" d="M0,178.07L21.23,201.79L42.47,196.44L63.7,189.49L84.93,183.64L106.17,201.94L127.4,197.78L148.63,183.42L169.87,184.64L191.1,176.22L212.33,181.37L233.57,190.52L254.8,188.85L276.03,183.6L297.27,179.93L318.5,189.42L339.73,186.27L360.97,188.4L382.2,194.26L403.43,188.67L424.67,190.53L445.9,186.04L467.13,193.01L488.37,195.13L509.6,194.59L530.83,200.18L552.07,203.13L594.53,200.78L615.77,206.36L637,212.6" style="vector-effect: none; fill: none; stroke: rgb(195, 157, 30); stroke-opacity: 1; stroke-width: 2px; opacity: 1;"/></g><g class="points"/><g class="text"/></g><g class="trace scatter trace066eaf37-529f-4b2e-a294-246e7cff7cf0" style="stroke-miterlimit: 2; opacity: 0.1;"><g class="fills"/><g class="errorbars"/><g class="lines"><path class="js-line" d="M0,178.07L21.23,176.67L42.47,190.45L63.7,170.78L84.93,164.96L106.17,164.89L127.4,172.57L148.63,169.72L169.87,157L191.1,142.88L212.33,147.35L233.57,138.47L254.8,132.59L276.03,135.15L297.27,85.43L318.5,85.13L339.73,95.72L360.97,74.97L382.2,79.45L403.43,80.32L424.67,70.98L445.9,75.36L467.13,67.34L488.37,47.75L509.6,51.47L530.83,22.91L552.07,23.33L573.3,13.05L594.53,34.84L615.77,68.93L637,63.78" style="vector-effect: none; fill: none; stroke: rgb(44, 160, 44); stroke-opacity: 1; stroke-width: 2px; opacity: 1;"/></g><g class="points"/><g class="text"/></g><g class="trace scatter tracefb052fb3-2c4d-4f9d-ac33-cfb38f4b8519" style="stroke-miterlimit: 2; opacity: 0.1;"><g class="fills"/><g class="errorbars"/><g class="lines"><path class="js-line" d="M0,178.07L21.23,179.86L42.47,187.25L84.93,185.79L106.17,186L127.4,181.58L148.63,175.87L169.87,182.41L191.1,179.97L233.57,179.92L254.8,184.15L276.03,183.42L297.27,186.79L318.5,191.56L339.73,212.19L360.97,218.88L382.2,213.16L424.67,209.69L445.9,210.41L467.13,208.7L488.37,205.99L509.6,203.8L530.83,205.19L552.07,202.34L573.3,201.23L594.53,209.99L615.77,207.97L637,187.21" style="vector-effect: none; fill: none; stroke: rgb(193, 165, 31); stroke-opacity: 1; stroke-width: 2px; opacity: 1;"/></g><g class="points"/><g class="text"/></g><g class="trace scatter traceb992bf32-1814-4cac-8013-656dacea1991" style="stroke-miterlimit: 2; opacity: 0.1;"><g class="fills"/><g class="errorbars"/><g class="lines"><path class="js-line" d="M0,178.07L21.23,177.5L42.47,168.43L63.7,162.34L84.93,151.45L106.17,147.25L127.4,138.91L148.63,141.31L169.87,124.09L191.1,133.73L212.33,148.32L233.57,142.7L254.8,133.97L276.03,139.46L297.27,137.8L318.5,137.48L339.73,140.74L360.97,154.93L382.2,153.81L403.43,162.65L424.67,167.04L445.9,150.84L467.13,147.4L488.37,147.57L509.6,139.51L530.83,134.69L552.07,134.71L573.3,134.8L594.53,133.81L615.77,142.04L637,137.05" style="vector-effect: none; fill: none; stroke: rgb(132, 177, 37); stroke-opacity: 1; stroke-width: 2px; opacity: 1;"/></g><g class="points"/><g class="text"/></g><g class="trace scatter trace9bdc434a-8a07-4a7e-9cdb-9a80ba97c327" style="stroke-miterlimit: 2; opacity: 0.1;"><g class="fills"/><g class="errorbars"/><g class="lines"><path class="js-line" d="M0,178.07L21.23,171.88L42.47,191.22L63.7,186.83L84.93,171.65L106.17,172.94L127.4,164.03L148.63,169.48L169.87,179.16L191.1,177.39L212.33,171.84L233.57,167.96L254.8,177.99L276.03,174.66L297.27,176.91L318.5,183.11L339.73,177.2L360.97,179.17L382.2,174.42L403.43,181.78L424.67,184.03L445.9,183.46L467.13,189.37L488.37,192.48L509.6,191.63L530.83,190L552.07,195.9L573.3,202.49L594.53,187.7L615.77,186.8L637,178.34" style="vector-effect: none; fill: none; stroke: rgb(188, 186, 33); stroke-opacity: 1; stroke-width: 2px; opacity: 1;"/></g><g class="points"/><g class="text"/></g><g class="trace scatter trace5b8e3be0-5d56-497e-91ba-26afe2e72834" style="stroke-miterlimit: 2; opacity: 0.1;"><g class="fills"/><g class="errorbars"/><g class="lines"><path class="js-line" d="M0,178.07L21.23,176.95L42.47,192.82L63.7,169.3L84.93,171.98L106.17,166.77L127.4,170.81L148.63,187.09L169.87,193.1L191.1,187.22L212.33,178.06L233.57,181.24L254.8,176.27L276.03,166.74L297.27,180.47L318.5,187.95L339.73,186.34L360.97,199.08L382.2,200.06L403.43,177.3L424.67,181.34L445.9,177.61L467.13,187.76L488.37,168.02L509.6,159.53L530.83,161.64L552.07,171.84L573.3,173.29L594.53,186.2L615.77,188.11L637,187.45" style="vector-effect: none; fill: none; stroke: rgb(187, 188, 34); stroke-opacity: 1; stroke-width: 2px; opacity: 1;"/></g><g class="points"/><g class="text"/></g><g class="trace scatter trace7c520b36-6af6-46a6-a3fa-06925afb15d5" style="stroke-miterlimit: 2; opacity: 0.1;"><g class="fills"/><g class="errorbars"/><g class="lines"><path class="js-line" d="M0,178.07L21.23,172.44L42.47,172.37L63.7,179.79L84.93,177.04L106.17,164.74L127.4,151.09L148.63,155.42L169.87,146.83L191.1,141.15L212.33,143.63L233.57,95.56L254.8,95.27L276.03,105.5L297.27,85.45L318.5,89.77L339.73,90.62L360.97,81.59L382.2,85.82L403.43,78.07L424.67,59.13L445.9,62.72L467.13,35.12L488.37,35.53L509.6,25.59L530.83,46.65L552.07,79.6L573.3,74.62L594.53,91.13L615.77,96.18L637,97.26" style="vector-effect: none; fill: none; stroke: rgb(58, 162, 42); stroke-opacity: 1; stroke-width: 2px; opacity: 1;"/></g><g class="points"/><g class="text"/></g><g class="trace scatter tracef41361cb-25af-4c83-91ac-d772c434f086" style="stroke-miterlimit: 2; opacity: 0.1;"><g class="fills"/><g class="errorbars"/><g class="lines"><path class="js-line" d="M0,178.07L21.23,176.67L42.47,190.45L63.7,170.78L84.93,164.96L106.17,164.89L127.4,172.57L148.63,169.72L169.87,157L191.1,142.88L212.33,147.35L233.57,138.47L254.8,132.59L276.03,135.15L297.27,85.43L318.5,85.13L339.73,95.72L360.97,74.97L382.2,79.45L403.43,80.32L424.67,70.98L445.9,75.36L467.13,67.34L488.37,47.75L509.6,51.47L530.83,22.91L552.07,23.33L573.3,13.05L594.53,34.84L615.77,68.93L637,63.78" style="vector-effect: none; fill: none; stroke: rgb(44, 160, 44); stroke-opacity: 1; stroke-width: 2px; opacity: 1;"/></g><g class="points"/><g class="text"/></g><g class="trace scatter trace9863b899-4522-470a-9725-3cf7b9e134a3" style="stroke-miterlimit: 2; opacity: 0.1;"><g class="fills"/><g class="errorbars"/><g class="lines"><path class="js-line" d="M0,178.07L21.23,171.95L42.47,166.88L63.7,167.46L84.93,175.52L106.17,144.5L127.4,137.33L148.63,140.33L169.87,148.51L191.1,167.28L212.33,165.87L233.57,171.42L254.8,173.88L276.03,169.66L297.27,151.42L318.5,165.73L339.73,169.66L360.97,169.22L382.2,175.07L403.43,164.31L424.67,166.54L445.9,156.12L467.13,157.23L488.37,152.46L509.6,149.94L530.83,155.28L552.07,156.75L573.3,149.02L594.53,146.07L615.77,139.77L637,137.95" style="vector-effect: none; fill: none; stroke: rgb(165, 184, 35); stroke-opacity: 1; stroke-width: 2px; opacity: 1;"/></g><g class="points"/><g class="text"/></g><g class="trace scatter trace5b033f93-c72f-4c74-a6ba-65efff771093" style="stroke-miterlimit: 2; opacity: 0.1;"><g class="fills"/><g class="errorbars"/><g class="lines"><path class="js-line" d="M0,178.07L21.23,191.25L42.47,194.39L63.7,222.46L84.93,204.98L106.17,219.9L127.4,219L148.63,231.73L169.87,212.86L191.1,215.01L212.33,210.83L233.57,214.08L254.8,227.14L276.03,231.96L297.27,227.24L318.5,219.89L339.73,222.45L360.97,218.46L382.2,210.81L403.43,221.83L424.67,227.82L445.9,226.53L467.13,236.76L488.37,237.54L509.6,219.28L530.83,222.53L552.07,219.54L573.3,227.67L594.53,211.84L615.77,205.03L637,206.72" style="vector-effect: none; fill: none; stroke: rgb(212, 85, 21); stroke-opacity: 1; stroke-width: 2px; opacity: 1;"/></g><g class="points"/><g class="text"/></g><g class="trace scatter tracee92b5b18-9dca-4a7b-b87d-f5932ffdc934" style="stroke-miterlimit: 2; opacity: 0.1;"><g class="fills"/><g class="errorbars"/><g class="lines"><path class="js-line" d="M0,178.07L21.23,177.49L42.47,183.56L63.7,186.77L84.93,185.89L106.17,184.22L127.4,190.29L148.63,197.07L169.87,181.85L191.1,180.93L212.33,172.22L233.57,168.19L254.8,160.93L276.03,148.93L297.27,134.57L318.5,130.94L339.73,130.96L360.97,116.8L382.2,121.62L403.43,132.07L424.67,136.58L445.9,142.66L467.13,132.86L488.37,125.49L509.6,112.73L530.83,101.51L552.07,106.54L573.3,90.64L594.53,94.96L615.77,95.44L637,102.63" style="vector-effect: none; fill: none; stroke: rgb(123, 175, 38); stroke-opacity: 1; stroke-width: 2px; opacity: 1;"/></g><g class="points"/><g class="text"/></g><g class="trace scatter trace5d4a10a4-3ae4-4873-9935-8d6dbe7343c3" style="stroke-miterlimit: 2; opacity: 0.1;"><g class="fills"/><g class="errorbars"/><g class="lines"><path class="js-line" d="M0,178.07L21.23,181.92L42.47,190.33L63.7,185.75L84.93,187.17L106.17,180.72L127.4,199.26L148.63,195.74L169.87,186.69L191.1,184.91L212.33,187.84L233.57,187.01L254.8,189.51L276.03,199.71L297.27,215.47L318.5,214.61L339.73,210.9L360.97,210.38L382.2,210.8L403.43,221.17L424.67,222.6L445.9,214.63L467.13,212.28L488.37,224.16L509.6,218.34L530.83,216.49L552.07,220.86L573.3,226.18L594.53,223.69L615.77,224.23L637,223.41" style="vector-effect: none; fill: none; stroke: rgb(207, 107, 24); stroke-opacity: 1; stroke-width: 2px; opacity: 1;"/></g><g class="points"/><g class="text"/></g><g class="trace scatter tracecd5b1f80-7be2-426a-92f2-9600da7afa8c" style="stroke-miterlimit: 2; opacity: 0.1;"><g class="fills"/><g class="errorbars"/><g class="lines"><path class="js-line" d="M0,178.07L21.23,180.2L42.47,179.36L63.7,175.64L84.93,181.88L106.17,193.47L127.4,192.54L148.63,203.82L169.87,200.03L191.1,194.62L212.33,198.17L233.57,205.92L254.8,201.7L276.03,203.01L297.27,197.06L318.5,214.16L339.73,210.91L360.97,202.57L382.2,200.93L403.43,203.63L424.67,202.86L445.9,205.16L467.13,214.57L488.37,229.1L509.6,228.3L530.83,224.89L552.07,224.41L573.3,224.79L594.53,234.35L615.77,235.67L637,228.32" style="vector-effect: none; fill: none; stroke: rgb(203, 126, 26); stroke-opacity: 1; stroke-width: 2px; opacity: 1;"/></g><g class="points"/><g class="text"/></g><g class="trace scatter traceb7f370c6-5064-4745-8930-01004eda6756" style="stroke-miterlimit: 2; opacity: 0.1;"><g class="fills"/><g class="errorbars"/><g class="lines"><path class="js-line" d="M0,178.07L21.23,173.2L42.47,174.72L63.7,167.86L84.93,187.55L106.17,183.81L127.4,174.2L148.63,172.32L169.87,175.42L191.1,174.54L212.33,177.19L233.57,188.02L254.8,204.76L276.03,203.84L297.27,199.91L318.5,199.35L339.73,199.8L360.97,210.8L382.2,212.33L403.43,203.86L424.67,201.37L445.9,213.97L467.13,207.8L488.37,205.84L509.6,210.48L530.83,216.12L552.07,213.48L573.3,214.05L594.53,213.18L615.77,205.75L637,206.88" style="vector-effect: none; fill: none; stroke: rgb(202, 130, 26); stroke-opacity: 1; stroke-width: 2px; opacity: 1;"/></g><g class="points"/><g class="text"/></g><g class="trace scatter trace46d6ae92-d37d-4992-a52d-0299150cc72d" style="stroke-miterlimit: 2; opacity: 0.1;"><g class="fills"/><g class="errorbars"/><g class="lines"><path class="js-line" d="M0,178.07L21.23,174.4L42.47,175.54L63.7,170.96L84.93,172.11L106.17,167.02L127.4,176.98L148.63,200.28L169.87,194.58L191.1,199.8L212.33,198.13L233.57,195.94L254.8,200.55L297.27,196.62L318.5,195.67L339.73,194.68L360.97,196.7L382.2,190.37L403.43,188.25L424.67,185.1L445.9,185.36L467.13,185.48L488.37,182.73L509.6,185.73L530.83,195.12L552.07,193.02L573.3,198.4L594.53,189.16L615.77,190.09L637,189.31" style="vector-effect: none; fill: none; stroke: rgb(195, 159, 30); stroke-opacity: 1; stroke-width: 2px; opacity: 1;"/></g><g class="points"/><g class="text"/></g><g class="trace scatter trace81d4eeda-0276-47d9-a010-1780e634eb18" style="stroke-miterlimit: 2; opacity: 0.1;"><g class="fills"/><g class="errorbars"/><g class="lines"><path class="js-line" d="M0,178.07L42.47,186.59L63.7,166.16L84.93,161.98L106.17,162.67L127.4,168.01L148.63,150.88L169.87,150.44L191.1,155.5L212.33,153.05L233.57,169.48L254.8,151.95L276.03,156.26L297.27,152.45L318.5,146.05L339.73,148.62L360.97,158.65L382.2,155.12L403.43,184.25L445.9,183.38L467.13,196.12L488.37,197.49L509.6,209.47L530.83,212.32L552.07,237.81L573.3,221.93L594.53,235.49L615.77,234.67L637,246.23" style="vector-effect: none; fill: none; stroke: rgb(175, 186, 34); stroke-opacity: 1; stroke-width: 2px; opacity: 1;"/></g><g class="points"/><g class="text"/></g><g class="trace scatter trace264c9833-6b56-4ea7-9b2d-2ee5f6cdc460" style="stroke-miterlimit: 2; opacity: 0.1;"><g class="fills"/><g class="errorbars"/><g class="lines"><path class="js-line" d="M0,178.07L21.23,179.19L42.47,174.69L63.7,175.82L84.93,170.82L106.17,180.61L127.4,203.51L148.63,197.91L169.87,203.04L212.33,199.24L233.57,203.77L276.03,199.91L297.27,198.98L318.5,198L339.73,199.99L360.97,193.77L382.2,191.68L403.43,188.59L424.67,188.84L445.9,188.96L467.13,186.26L488.37,189.2L509.6,198.44L530.83,196.38L552.07,201.67L573.3,192.58L594.53,193.49L637,191.88" style="vector-effect: none; fill: none; stroke: rgb(197, 150, 29); stroke-opacity: 1; stroke-width: 2px; opacity: 1;"/></g><g class="points"/><g class="text"/></g><g class="trace scatter traceedfda934-7721-41a2-a3a3-7e8804109870" style="stroke-miterlimit: 2; opacity: 0.1;"><g class="fills"/><g class="errorbars"/><g class="lines"><path class="js-line" d="M0,178.07L21.23,171.89L42.47,174.48L63.7,181.53L84.93,197.73L106.17,196.51L127.4,201.3L148.63,203.42L169.87,199.78L191.1,184.04L212.33,196.39L233.57,199.79L254.8,199.41L276.03,204.46L297.27,195.17L318.5,197.09L339.73,188.1L360.97,189.06L382.2,184.94L403.43,182.77L424.67,187.37L445.9,188.65L467.13,181.97L488.37,179.43L509.6,173.99L552.07,171.44L573.3,160.09L615.77,157.11L637,158.91" style="vector-effect: none; fill: none; stroke: rgb(192, 171, 31); stroke-opacity: 1; stroke-width: 2px; opacity: 1;"/></g><g class="points"/><g class="text"/></g><g class="trace scatter trace7da789fc-eb9a-4d5b-9d45-2d09738502b9" style="stroke-miterlimit: 2; opacity: 0.1;"><g class="fills"/><g class="errorbars"/><g class="lines"><path class="js-line" d="M0,178.07L21.23,176.55L42.47,172.53L63.7,177.64L84.93,167.4L106.17,162.64L127.4,164.45L148.63,166.51L169.87,161.83L191.1,166.79L212.33,186.73L233.57,197.49L254.8,184.24L276.03,178L297.27,187.69L318.5,188.35L339.73,186.04L382.2,196.11L403.43,193.76L424.67,182.91L445.9,162.54L467.13,164.93L488.37,162.27L509.6,157.43L530.83,146.83L552.07,128.7L573.3,135.92L594.53,135.13L615.77,130.42L637,131.8" style="vector-effect: none; fill: none; stroke: rgb(171, 185, 35); stroke-opacity: 1; stroke-width: 2px; opacity: 1;"/></g><g class="points"/><g class="text"/></g><g class="trace scatter tracee390169c-8003-4539-85e9-a35407cb6f29" style="stroke-miterlimit: 2; opacity: 0.1;"><g class="fills"/><g class="errorbars"/><g class="lines"><path class="js-line" d="M0,178.07L21.23,167.85L42.47,163.09L84.93,166.96L106.17,162.29L127.4,167.23L148.63,187.13L169.87,197.87L191.1,184.65L212.33,178.42L233.57,188.1L254.8,188.76L276.03,186.45L318.5,196.5L339.73,194.15L360.97,183.33L382.2,163L403.43,165.38L424.67,162.72L445.9,157.9L467.13,147.32L488.37,129.22L509.6,136.43L530.83,135.64L552.07,130.94L573.3,132.31L594.53,119.07L615.77,126.01L637,119.56" style="vector-effect: none; fill: none; stroke: rgb(168, 185, 35); stroke-opacity: 1; stroke-width: 2px; opacity: 1;"/></g><g class="points"/><g class="text"/></g><g class="trace scatter trace70a8b8bb-ce52-4e47-866f-fac128302c5b" style="stroke-miterlimit: 2; opacity: 0.1;"><g class="fills"/><g class="errorbars"/><g class="lines"><path class="js-line" d="M0,178.07L21.23,176.55L42.47,172.53L63.7,177.64L84.93,167.4L106.17,162.64L127.4,164.45L148.63,166.51L169.87,161.83L191.1,166.79L212.33,186.73L233.57,197.49L254.8,184.24L276.03,178L297.27,187.69L318.5,188.35L339.73,186.04L382.2,196.11L403.43,193.76L424.67,182.91L445.9,162.54L467.13,164.93L488.37,162.27L509.6,157.43L530.83,146.83L552.07,128.7L573.3,135.92L594.53,135.13L615.77,130.42L637,131.8" style="vector-effect: none; fill: none; stroke: rgb(171, 185, 35); stroke-opacity: 1; stroke-width: 2px; opacity: 1;"/></g><g class="points"/><g class="text"/></g><g class="trace scatter tracefefbe5c9-ca7b-4a0c-86b0-fe8e3d22cec8" style="stroke-miterlimit: 2; opacity: 0.1;"><g class="fills"/><g class="errorbars"/><g class="lines"><path class="js-line" d="M0,178.07L21.23,176.42L42.47,175.85L63.7,166.71L84.93,160.57L106.17,149.59L127.4,145.36L148.63,136.96L169.87,139.37L191.1,122.02L212.33,131.73L233.57,146.44L254.8,140.77L276.03,131.97L297.27,137.5L318.5,135.83L339.73,135.52L360.97,138.8L382.2,153.1L403.43,151.97L424.67,160.88L445.9,165.3L467.13,148.97L488.37,145.51L509.6,145.68L530.83,137.56L552.07,132.7L594.53,132.81L615.77,131.81L637,140.11" style="vector-effect: none; fill: none; stroke: rgb(129, 177, 38); stroke-opacity: 1; stroke-width: 2px; opacity: 1;"/></g><g class="points"/><g class="text"/></g><g class="trace scatter traceb322b734-e316-4b31-ac8c-b9d4160ca1c7" style="stroke-miterlimit: 2; opacity: 0.1;"><g class="fills"/><g class="errorbars"/><g class="lines"><path class="js-line" d="M0,178.07L42.47,179.6L63.7,177.12L84.93,174.62L106.17,178.46L127.4,177.13L148.63,171.96L169.87,169.47L191.1,164.64L212.33,163.13L233.57,159.95L254.8,162.1L276.03,162.15L297.27,160.41L318.5,164.12L339.73,163.3L360.97,160.45L382.2,155.51L403.43,152.35L424.67,134.99L445.9,131.25L467.13,132.16L488.37,128.4L509.6,130.05L530.83,129.59L552.07,117.95L573.3,125.32L594.53,121.55L615.77,119.47L637,114.87" style="vector-effect: none; fill: none; stroke: rgb(160, 183, 35); stroke-opacity: 1; stroke-width: 2px; opacity: 1;"/></g><g class="points"/><g class="text"/></g><g class="trace scatter trace70e1a290-c2b4-44a9-ae63-e6a06f94d371" style="stroke-miterlimit: 2; opacity: 0.1;"><g class="fills"/><g class="errorbars"/><g class="lines"><path class="js-line" d="M0,178.07L21.23,176.55L42.47,172.53L63.7,177.64L84.93,167.4L106.17,162.64L127.4,164.45L148.63,166.51L169.87,161.83L191.1,166.79L212.33,186.73L233.57,197.49L254.8,184.24L276.03,178L297.27,187.69L318.5,188.35L339.73,186.04L382.2,196.11L403.43,193.76L424.67,182.91L445.9,162.54L467.13,164.93L488.37,162.27L509.6,157.43L530.83,146.83L552.07,128.7L573.3,135.92L594.53,135.13L615.77,130.42L637,131.8" style="vector-effect: none; fill: none; stroke: rgb(171, 185, 35); stroke-opacity: 1; stroke-width: 2px; opacity: 1;"/></g><g class="points"/><g class="text"/></g><g class="trace scatter trace6761e2c2-62c4-492b-91cc-be04802a6fe1" style="stroke-miterlimit: 2; opacity: 0.1;"><g class="fills"/><g class="errorbars"/><g class="lines"><path class="js-line" d="M0,178.07L21.23,182.22L42.47,161.35L63.7,157.08L84.93,157.78L106.17,163.24L127.4,145.74L148.63,145.29L169.87,150.46L191.1,147.96L212.33,164.74L233.57,146.83L254.8,151.24L276.03,147.35L297.27,140.8L318.5,143.43L339.73,153.68L360.97,150.07L382.2,179.83L424.67,178.94L445.9,191.96L467.13,193.36L488.37,205.59L509.6,208.5L530.83,234.54L552.07,218.32L573.3,232.17L594.53,231.33L615.77,243.15L637,225.64" style="vector-effect: none; fill: none; stroke: rgb(167, 184, 35); stroke-opacity: 1; stroke-width: 2px; opacity: 1;"/></g><g class="points"/><g class="text"/></g><g class="trace scatter tracee49881b8-b37f-4278-bca6-ce2a8ffe871c" style="stroke-miterlimit: 2;"><g class="fills"><g><path class="js-fill" d="M0,178.07L21.23,178.05L42.47,179.49L63.7,177.64L84.93,177.04L106.17,178.37L127.4,175.77L148.63,179.46L169.87,180.3L191.1,178.06L212.33,178.12L233.57,182.39L254.8,182.15L276.03,183.19L297.27,187.24L318.5,188.04L339.73,186.3L360.97,188.68L382.2,187.61L403.43,188.01L424.67,185.75L445.9,185.9L467.13,188.75L530.83,195.02L552.07,192.28L573.3,192.45L594.53,190.42L615.77,186.14L637,187.33L637,213.2L615.77,213.38L594.53,215.77L573.3,220.74L552.07,219.54L530.83,217.74L509.6,213.87L488.37,215.17L467.13,213.27L445.9,209L403.43,212.08L382.2,210.7L360.97,207.49L339.73,210.91L318.5,210.67L297.27,202.8L276.03,202.32L254.8,201.7L212.33,199.7L191.1,198.23L169.87,199.12L148.63,200.28L127.4,199.01L106.17,196.6L84.93,187.81L63.7,187.02L42.47,190.51L21.23,183.18L0,178.07Z" style="fill: rgb(127, 127, 127); fill-opacity: 0.25; stroke-width: 0;"/></g></g><g class="errorbars"/><g class="lines"><path class="js-line" d="M0,178.07L21.23,183.18L42.47,190.51L63.7,187.02L84.93,187.81L106.17,196.6L127.4,199.01L148.63,200.28L169.87,199.12L191.1,198.23L212.33,199.7L254.8,201.7L276.03,202.32L297.27,202.8L318.5,210.67L339.73,210.91L360.97,207.49L382.2,210.7L403.43,212.08L445.9,209L467.13,213.27L488.37,215.17L509.6,213.87L530.83,217.74L552.07,219.54L573.3,220.74L594.53,215.77L615.77,213.38L637,213.2" style="vector-effect: none; fill: none; stroke: rgb(205, 116, 25); stroke-opacity: 0.75; stroke-width: 2px; opacity: 1;"/></g><g class="points"/><g class="text"/></g><g class="trace scatter trace50e89b0d-4cb2-460a-8bb5-cf5c2d29978e" style="stroke-miterlimit: 2;"><g class="fills"><g><path class="js-fill" d="M0,178.07L21.23,173.27L42.47,171L63.7,167.78L84.93,166.8L106.17,163.24L127.4,164.45L148.63,160.64L169.87,158.41L212.33,160.49L233.57,159.95L254.8,151.95L276.03,148.75L318.5,146.05L339.73,148.62L360.97,150.67L382.2,153.81L403.43,155.11L424.67,159.55L445.9,155.35L467.13,147.39L488.37,145.15L509.6,141.17L530.83,138.54L552.07,134.31L573.3,135.71L594.53,133L615.77,130.42L637,131L637,187.33L615.77,186.14L594.53,190.42L573.3,192.45L552.07,192.28L530.83,195.02L467.13,188.75L445.9,185.9L424.67,185.75L403.43,188.01L382.2,187.61L360.97,188.68L339.73,186.3L318.5,188.04L297.27,187.24L276.03,183.19L254.8,182.15L233.57,182.39L212.33,178.12L191.1,178.06L169.87,180.3L148.63,179.46L127.4,175.77L106.17,178.37L84.93,177.04L63.7,177.64L42.47,179.49L21.23,178.05L0,178.07Z" style="fill: rgb(127, 127, 127); fill-opacity: 0.25; stroke-width: 0;"/></g></g><g class="errorbars"/><g class="lines"><path class="js-line" d="M0,178.07L21.23,178.05L42.47,179.49L63.7,177.64L84.93,177.04L106.17,178.37L127.4,175.77L148.63,179.46L169.87,180.3L191.1,178.06L212.33,178.12L233.57,182.39L254.8,182.15L276.03,183.19L297.27,187.24L318.5,188.04L339.73,186.3L360.97,188.68L382.2,187.61L403.43,188.01L424.67,185.75L445.9,185.9L467.13,188.75L530.83,195.02L552.07,192.28L573.3,192.45L594.53,190.42L615.77,186.14L637,187.33" style="vector-effect: none; fill: none; stroke: rgb(192, 169, 31); stroke-opacity: 1; stroke-width: 2px; opacity: 1;"/></g><g class="points"/><g class="text"/></g><g class="trace scatter trace5b3f3a17-9dc3-431a-9dfc-b310c86f9078" style="stroke-miterlimit: 2;"><g class="fills"/><g class="errorbars"/><g class="lines"><path class="js-line" d="M0,178.07L21.23,173.27L42.47,171L63.7,167.78L84.93,166.8L106.17,163.24L127.4,164.45L148.63,160.64L169.87,158.41L212.33,160.49L233.57,159.95L254.8,151.95L276.03,148.75L318.5,146.05L339.73,148.62L360.97,150.67L382.2,153.81L403.43,155.11L424.67,159.55L445.9,155.35L467.13,147.39L488.37,145.15L509.6,141.17L530.83,138.54L552.07,134.31L573.3,135.71L594.53,133L615.77,130.42L637,131" style="vector-effect: none; fill: none; stroke: rgb(150, 181, 36); stroke-opacity: 0.75; stroke-width: 2px; opacity: 1;"/></g><g class="points"/><g class="text"/></g><g class="trace scatter tracee3842a52-109b-4442-90bd-7bb256142ee0" style="stroke-miterlimit: 2; opacity: 1;"><g class="fills"/><g class="errorbars"/><g class="lines"><path class="js-line" d="M0,178.07L42.47,179.95L63.7,179.47L127.4,179.86L148.63,180.37L191.1,178.64L212.33,179.47L254.8,177.9L276.03,178.32L297.27,177.6L318.5,178.73L339.73,179.06L360.97,178.44L403.43,180.59L424.67,179.53L445.9,178.47L467.13,179.02L509.6,177.3L530.83,178.23L637,174.52" style="vector-effect: none; fill: none; stroke: rgb(188, 187, 33); stroke-opacity: 1; stroke-dasharray: 3px, 3px; stroke-width: 2px; opacity: 1;"/></g><g class="points"/><g class="text"/></g></g></g><g class="overplot"/><path class="xlines-above crisp" d="M0,0" style="fill: none;"/><path class="ylines-above crisp" d="M0,0" style="fill: none;"/><g class="overlines-above"/><g class="xaxislayer-above"><g class="xtick"><text text-anchor="middle" x="0" y="320" transform="translate(139.17000000000002,0)" style="font-family: 'Open Sans', verdana, arial, sans-serif; font-size: 12px; fill: rgb(42, 63, 95); fill-opacity: 1; white-space: pre; opacity: 1;"><tspan class="line" dy="0em" x="0" y="320">Jun 5</tspan><tspan class="line" dy="1.3em" x="0" y="320">2022</tspan></text></g><g class="xtick"><text text-anchor="middle" x="0" y="320" style="font-family: 'Open Sans', verdana, arial, sans-serif; font-size: 12px; fill: rgb(42, 63, 95); fill-opacity: 1; white-space: pre; opacity: 1;" transform="translate(287.8,0)">Jun 12</text></g><g class="xtick"><text text-anchor="middle" x="0" y="320" style="font-family: 'Open Sans', verdana, arial, sans-serif; font-size: 12px; fill: rgb(42, 63, 95); fill-opacity: 1; white-space: pre; opacity: 1;" transform="translate(436.43,0)">Jun 19</text></g><g class="xtick"><text text-anchor="middle" x="0" y="320" style="font-family: 'Open Sans', verdana, arial, sans-serif; font-size: 12px; fill: rgb(42, 63, 95); fill-opacity: 1; white-space: pre; opacity: 1;" transform="translate(585.07,0)">Jun 26</text></g></g><g class="yaxislayer-above"><g class="ytick"><text text-anchor="end" x="32" y="4.199999999999999" transform="translate(0,266.39)" style="font-family: 'Open Sans', verdana, arial, sans-serif; font-size: 12px; fill: rgb(42, 63, 95); fill-opacity: 1; white-space: pre; opacity: 1;">0.8</text></g><g class="ytick"><text text-anchor="end" x="32" y="4.199999999999999" style="font-family: 'Open Sans', verdana, arial, sans-serif; font-size: 12px; fill: rgb(42, 63, 95); fill-opacity: 1; white-space: pre; opacity: 1;" transform="translate(0,224.07)">1</text></g><g class="ytick"><text text-anchor="end" x="32" y="4.199999999999999" style="font-family: 'Open Sans', verdana, arial, sans-serif; font-size: 12px; fill: rgb(42, 63, 95); fill-opacity: 1; white-space: pre; opacity: 1;" transform="translate(0,181.75)">1.2</text></g><g class="ytick"><text text-anchor="end" x="32" y="4.199999999999999" style="font-family: 'Open Sans', verdana, arial, sans-serif; font-size: 12px; fill: rgb(42, 63, 95); fill-opacity: 1; white-space: pre; opacity: 1;" transform="translate(0,139.43)">1.4</text></g><g class="ytick"><text text-anchor="end" x="32" y="4.199999999999999" style="font-family: 'Open Sans', verdana, arial, sans-serif; font-size: 12px; fill: rgb(42, 63, 95); fill-opacity: 1; white-space: pre; opacity: 1;" transform="translate(0,97.11)">1.6</text></g><g class="ytick"><text text-anchor="end" x="32" y="4.199999999999999" style="font-family: 'Open Sans', verdana, arial, sans-serif; font-size: 12px; fill: rgb(42, 63, 95); fill-opacity: 1; white-space: pre; opacity: 1;" transform="translate(0,54.79)">1.8</text></g></g><g class="overaxes-above"/></g></g><g class="polarlayer"/><g class="smithlayer"/><g class="ternarylayer"/><g class="geolayer"/><g class="funnelarealayer"/><g class="pielayer"/><g class="iciclelayer"/><g class="treemaplayer"/><g class="sunburstlayer"/><g class="glimages"/><defs id="topdefs-749374"><g class="clips"/><clipPath id="legend749374"><rect width="618" height="29" x="0" y="0"/></clipPath></defs><g class="layer-above"><g class="imagelayer"/><g class="shapelayer"/></g><g class="infolayer"><g class="legend" pointer-events="all" transform="translate(52,11.779999999999994)"><rect class="bg" shape-rendering="crispEdges" width="618" height="29" x="0" y="0" style="stroke: rgb(68, 68, 68); stroke-opacity: 1; fill: rgb(255, 255, 255); fill-opacity: 1; stroke-width: 0px;"/><g class="scrollbox" transform="" clip-path="url(#legend749374)"><g class="groups"><g class="traces" transform="translate(0,14.5)" style="opacity: 1;"><text class="legendtext" text-anchor="start" x="40" y="4.680000000000001" style="font-family: 'Open Sans', verdana, arial, sans-serif; font-size: 12px; fill: rgb(42, 63, 95); fill-opacity: 1; white-space: pre;">proj (100)</text><g class="layers" style="opacity: 0.1;"><g class="legendfill"/><g class="legendlines"><path class="js-line" d="M5,0h30" style="fill: none; stroke: rgb(126, 176, 38); stroke-opacity: 1; stroke-width: 2px;"/></g><g class="legendsymbols"><g class="legendpoints"/></g></g><rect class="legendtoggle" x="0" y="-9.5" width="104.515625" height="19" style="fill: rgb(0, 0, 0); fill-opacity: 0;"/></g><g class="traces" transform="translate(107.015625,14.5)" style="opacity: 1;"><text class="legendtext" text-anchor="start" x="40" y="4.680000000000001" style="font-family: 'Open Sans', verdana, arial, sans-serif; font-size: 12px; fill: rgb(42, 63, 95); fill-opacity: 1; white-space: pre;">Q=20% (proj)</text><g class="layers"><g class="legendfill"/><g class="legendlines"><path class="js-line" d="M5,0h30" style="fill: none; stroke: rgb(205, 116, 25); stroke-opacity: 0.75; stroke-width: 2px;"/></g><g class="legendsymbols"><g class="legendpoints"/></g></g><rect class="legendtoggle" x="0" y="-9.5" width="129.078125" height="19" style="fill: rgb(0, 0, 0); fill-opacity: 0;"/></g><g class="traces" transform="translate(238.59375,14.5)" style="opacity: 1;"><text class="legendtext" text-anchor="start" x="40" y="4.680000000000001" style="font-family: 'Open Sans', verdana, arial, sans-serif; font-size: 12px; fill: rgb(42, 63, 95); fill-opacity: 1; white-space: pre;">Q=50% (proj)</text><g class="layers"><g class="legendfill"><path class="js-fill" d="M5,-2h30v6h-30z" style="stroke-width: 0; fill: rgb(127, 127, 127); fill-opacity: 0.25;"/></g><g class="legendlines"><path class="js-line" d="M5,-2h30" style="fill: none; stroke: rgb(192, 169, 31); stroke-opacity: 1; stroke-width: 2px;"/></g><g class="legendsymbols"><g class="legendpoints"/></g></g><rect class="legendtoggle" x="0" y="-9.5" width="129.078125" height="19" style="fill: rgb(0, 0, 0); fill-opacity: 0;"/></g><g class="traces" transform="translate(370.171875,14.5)" style="opacity: 1;"><text class="legendtext" text-anchor="start" x="40" y="4.680000000000001" style="font-family: 'Open Sans', verdana, arial, sans-serif; font-size: 12px; fill: rgb(42, 63, 95); fill-opacity: 1; white-space: pre;">Q=80% (proj)</text><g class="layers"><g class="legendfill"><path class="js-fill" d="M5,-2h30v6h-30z" style="stroke-width: 0; fill: rgb(127, 127, 127); fill-opacity: 0.25;"/></g><g class="legendlines"><path class="js-line" d="M5,-2h30" style="fill: none; stroke: rgb(150, 181, 36); stroke-opacity: 0.75; stroke-width: 2px;"/></g><g class="legendsymbols"><g class="legendpoints"/></g></g><rect class="legendtoggle" x="0" y="-9.5" width="129.078125" height="19" style="fill: rgb(0, 0, 0); fill-opacity: 0;"/></g><g class="traces" transform="translate(501.75,14.5)" style="opacity: 1;"><text class="legendtext" text-anchor="start" x="40" y="4.680000000000001" style="font-family: 'Open Sans', verdana, arial, sans-serif; font-size: 12px; fill: rgb(42, 63, 95); fill-opacity: 1; white-space: pre;">Mean (proj)</text><g class="layers" style="opacity: 1;"><g class="legendfill"/><g class="legendlines"><path class="js-line" d="M5,0h30" style="fill: none; stroke: rgb(188, 187, 33); stroke-opacity: 1; stroke-dasharray: 3px, 3px; stroke-width: 2px;"/></g><g class="legendsymbols"><g class="legendpoints"/></g></g><rect class="legendtoggle" x="0" y="-9.5" width="113.703125" height="19" style="fill: rgb(0, 0, 0); fill-opacity: 0;"/></g></g></g><rect class="scrollbar" rx="20" ry="3" width="0" height="0" x="0" y="0" style="fill: rgb(128, 139, 164); fill-opacity: 1;"/></g><g class="g-gtitle"/><g class="g-xtitle"/><g class="g-ytitle"/></g></svg>