<svg class="main-svg" xmlns="http://www.w3.org/2000/svg" xmlns:xlink="http://www.w3.org/1999/xlink" width="700" height="500" style="" viewBox="0 0 700 500"><rect x="0" y="0" width="700" height="500" style="fill: rgb(33, 34, 38); fill-opacity: 1;"/><defs id="defs-4d192d"><g class="clips"><clipPath id="clip4d192dxyplot" class="plotclip"><rect width="617" height="134.71999999999997"/></clipPath><clipPath id="clip4d192dx2y2plot" class="plotclip"><rect width="617" height="134.72"/></clipPath><clipPath id="clip4d192dx3y3plot" class="plotclip"><rect width="617" height="134.72"/></clipPath><clipPath class="axesclip" id="clip4d192dx"><rect x="53" y="0" width="617" height="500"/></clipPath><clipPath class="axesclip" id="clip4d192dy"><rect x="0" y="49" width="700" height="134.71999999999997"/></clipPath><clipPath class="axesclip" id="clip4d192dxy"><rect x="53" y="49" width="617" height="134.71999999999997"/></clipPath><clipPath class="axesclip" id="clip4d192dy2"><rect x="0" y="192.14" width="700" height="134.72"/></clipPath><clipPath class="axesclip" id="clip4d192dxy2"><rect x="53" y="192.14" width="617" height="134.72"/></clipPath><clipPath class="axesclip" id="clip4d192dy3"><rect x="0" y="335.28" width="700" height="134.72"/></clipPath><clipPath class="axesclip" id="clip4d192dxy3"><rect x="53" y="335.28" width="617" height="134.72"/></clipPath><clipPath class="axesclip" id="clip4d192dx2"><rect x="53" y="0" width="617" height="500"/></clipPath><clipPath class="axesclip" id="clip4d192dx2y"><rect x="53" y="49" width="617" height="134.71999999999997"/></clipPath><clipPath class="axesclip" id="clip4d192dx2y2"><rect x="53" y="192.14" width="617" height="134.72"/></clipPath><clipPath class="axesclip" id="clip4d192dx2y3"><rect x="53" y="335.28" width="617" height="134.72"/></clipPath><clipPath class="axesclip" id="clip4d192dx3"><rect x="53" y="0" width="617" height="500"/></clipPath><clipPath class="axesclip" id="clip4d192dx3y"><rect x="53" y="49" width="617" height="134.71999999999997"/></clipPath><clipPath class="axesclip" id="clip4d192dx3y2"><rect x="53" y="192.14" width="617" height="134.72"/></clipPath><clipPath class="axesclip" id="clip4d192dx3y3"><rect x="53" y="335.28" width="617" height="134.72"/></clipPath></g><g class="gradients"/><g class="patterns"/></defs><g class="bglayer"/><g class="layer-below"><g class="imagelayer"/><g class="shapelayer"/></g><g class="cartesianlayer"><g class="subplot xy"><g class="layer-subplot"><g class="shapelayer"/><g class="imagelayer"/></g><g class="minor-gridlayer"><g class="x"/><g class="y"/></g><g class="gridlayer"><g class="x"><path class="xgrid crisp" transform="translate(78.39,0)" d="M0,49v134.71999999999997" style="stroke: rgb(49, 52, 57); stroke-opacity: 1; stroke-width: 1px;"/><path class="xgrid crisp" transform="translate(156.26,0)" d="M0,49v134.71999999999997" style="stroke: rgb(49, 52, 57); stroke-opacity: 1; stroke-width: 1px;"/><path class="xgrid crisp" transform="translate(234.12,0)" d="M0,49v134.71999999999997" style="stroke: rgb(49, 52, 57); stroke-opacity: 1; stroke-width: 1px;"/><path class="xgrid crisp" transform="translate(310.29,0)" d="M0,49v134.71999999999997" style="stroke: rgb(49, 52, 57); stroke-opacity: 1; stroke-width: 1px;"/><path class="xgrid crisp" transform="translate(387.31,0)" d="M0,49v134.71999999999997" style="stroke: rgb(49, 52, 57); stroke-opacity: 1; stroke-width: 1px;"/><path class="xgrid crisp" transform="translate(465.18,0)" d="M0,49v134.71999999999997" style="stroke: rgb(49, 52, 57); stroke-opacity: 1; stroke-width: 1px;"/><path class="xgrid crisp" transform="translate(543.05,0)" d="M0,49v134.71999999999997" style="stroke: rgb(49, 52, 57); stroke-opacity: 1; stroke-width: 1px;"/><path class="xgrid crisp" transform="translate(619.22,0)" d="M0,49v134.71999999999997" style="stroke: rgb(49, 52, 57); stroke-opacity: 1; stroke-width: 1px;"/></g><g class="y"><path class="ygrid crisp" transform="translate(0,154.95999999999998)" d="M53,0h617" style="stroke: rgb(49, 52, 57); stroke-opacity: 1; stroke-width: 1px;"/><path class="ygrid crisp" transform="translate(0,114.46)" d="M53,0h617" style="stroke: rgb(49, 52, 57); stroke-opacity: 1; stroke-width: 1px;"/><path class="ygrid crisp" transform="translate(0,73.96000000000001)" d="M53,0h617" style="stroke: rgb(49, 52, 57); stroke-opacity: 1; stroke-width: 1px;"/></g></g><g class="zerolinelayer"/><path class="xlines-below"/><path class="ylines-below"/><g class="overlines-below"/><g class="xaxislayer-below"/><g class="yaxislayer-below"/><g class="overaxes-below"/><g class="plot" transform="translate(53,49)" clip-path="url(#clip4d192dxyplot)"><g class="scatterlayer mlayer"><g class="trace scatter tracefb3f5488-4fc3-47d1-92a4-8b0e424c257e" style="stroke-miterlimit: 2; opacity: 1;"><g class="fills"/><g class="errorbars"/><g class="lines"><path class="js-line" d="M0,125.44L2.54,126.45L3.39,126.51L5.92,126.62L6.77,126.46L8.46,126.29L9.31,127.11L16.08,127.44L16.93,127.38L18.62,126.78L19.47,126.88L21.16,127.63L22.01,127.84L41.47,127.79L42.32,127.35L46.55,125.99L47.4,123.39L49.94,123.84L50.78,123.29L52.47,121.91L53.32,123.23L54.17,123.35L55.01,122.61L57.55,122.55L58.4,122.57L60.09,122.29L60.94,122.94L66.02,121.38L66.86,122.12L70.25,122.73L71.09,122.52L75.33,123.01L76.17,122.73L78.71,122.25L79.56,123.25L81.25,125.07L82.1,125.51L93.95,124.02L94.79,124.21L96.49,125.12L97.33,124.6L105.8,124.8L106.64,124.6L109.18,124.29L110.03,123.98L111.72,123.29L112.57,122.73L115.11,122.94L115.95,123.09L117.64,123.16L118.49,122.52L119.34,122.08L120.18,119.7L122.72,119.8L123.57,119.43L124.42,119.65L125.26,118.54L129.49,118.32L130.34,118.46L132.03,117.59L132.88,114.57L133.73,114.14L134.57,114.56L137.11,115.16L137.96,114.13L139.65,113.09L140.5,113.4L141.34,113.7L142.19,112.28L143.88,109.05L144.73,109.65L146.42,108.06L147.27,108.49L148.11,108.46L148.96,107.14L149.81,107.01L150.65,108.16L151.5,111.11L152.35,110.25L153.19,109.28L154.04,106.24L154.88,106.19L155.73,107.29L157.42,106.92L158.27,107.63L159.96,107.13L160.81,107.39L162.5,108.88L163.35,109.42L165.04,107.15L165.89,107.28L166.73,106.83L167.58,102.8L168.43,98.27L169.27,99.31L170.97,97.26L171.81,97.65L172.66,98.19L173.5,97.66L174.35,98.28L175.2,96.26L176.89,88.91L177.74,90.77L178.58,90.96L179.43,87.74L181.12,86.52L181.97,79.03L182.81,76.04L183.66,78.42L184.51,76.88L185.35,71.66L187.05,61.51L187.89,62.67L188.74,62.73L189.59,68.98L190.43,72.29L191.28,69.82L192.12,65.26L192.97,65.97L194.66,71.84L195.51,70.59L196.36,69.82L197.2,72.72L198.05,74.37L198.9,77.96L200.59,79.49L201.43,75.84L203.13,80.53L203.97,78.05L204.82,68.43L205.67,75.72L206.51,76.92L207.36,76.16L209.9,68.08L210.74,68.88L211.59,63.53L212.44,66.07L214.13,48.97L214.98,50.66L216.67,47.27L217.52,48.96L218.36,45.8L219.21,47.21L220.9,39.91L221.75,40.09L223.44,29.62L224.29,28.3L225.13,30.01L225.98,36.74L226.83,42.43L227.67,41.08L228.52,48.4L229.36,48.46L230.21,52.02L231.06,45.64L231.9,44.81L232.75,39.87L233.6,41.62L234.44,46.33L235.29,46.83L236.14,42.28L236.98,40.35L237.83,35.3L239.52,28.71L240.37,28.85L241.21,21.23L242.06,21.47L242.91,23.68L243.75,31.16L245.45,24.7L246.29,26.04L247.14,25.2L247.98,27.82L248.83,28.14L249.68,33.4L250.52,30.63L251.37,38.56L253.06,31.64L253.91,31.93L255.6,26.24L256.45,25.37L257.29,25.99L258.14,24.56L258.99,25.38L259.83,28.01L261.53,25.98L262.37,27.68L263.22,28.7L264.07,27.2L264.91,21.92L265.76,23.55L266.6,22.33L267.45,17.31L268.3,15.13L269.14,17.27L269.99,17.83L270.84,19.89L273.38,30.88L274.22,31.53L275.07,34.03L275.91,40.89L277.61,44.06L278.45,36.39L280.15,32.19L280.99,34.69L282.69,28.08L283.53,29.19L284.38,27.02L285.22,30.63L286.92,28.28L287.76,27.69L288.61,25.97L289.46,26.38L290.3,25.97L291.15,31.31L292,29.01L292.84,42.44L293.69,42.21L294.53,43.79L295.38,45.62L296.23,51.92L297.07,53.72L297.92,58.2L299.61,61.01L300.46,67.83L301.31,68.96L302.15,65.62L303,65.88L303.84,63.76L304.69,64.63L305.54,67.73L307.23,72.57L308.08,70.53L309.77,69.06L310.62,66.52L311.46,66.9L312.31,69.66L313.16,72.59L314,71.74L314.85,77.47L315.69,70.45L316.54,68.52L317.39,70.16L318.23,70.6L319.08,66.72L320.77,62.77L321.62,64.39L323.31,69.1L324.16,72.64L325.85,74.07L326.7,79.03L328.39,74.98L329.24,74.57L330.08,80.18L330.93,76.09L331.78,74.98L332.62,72.35L334.31,75.47L335.16,77.66L336.85,73.63L337.7,74.99L339.39,75.47L340.24,77.75L343.62,76.24L344.47,78.95L346.16,79.26L347.01,81.16L347.86,81.75L348.7,80.78L350.4,83.56L351.24,79.92L352.09,80.46L352.93,78.32L354.63,74.78L355.47,64.35L356.32,66.39L357.17,63.64L358.01,64.17L358.86,60.77L360.55,60.2L361.4,64.49L362.24,65.91L363.09,65.52L367.32,52.39L368.17,51.89L369.02,51.81L369.86,52.87L371.55,48.97L372.4,50.53L373.25,49.15L374.09,50.96L374.94,53.31L375.79,51.22L377.48,45.7L378.33,46.22L379.17,44.2L380.02,45.49L380.86,46.7L381.71,46.52L383.4,46.63L384.25,45.96L385.94,48.76L386.79,46.92L388.48,43.19L389.33,44.13L391.02,39.58L391.87,39.3L392.71,50.6L393.56,50.48L394.41,51.22L395.25,53.34L397.79,50.78L398.64,48.25L399.48,48.13L400.33,48.96L401.18,47.55L402.02,48.51L402.87,50.58L403.72,58.09L404.56,57.36L405.41,55.38L406.26,54.93L407.1,59.45L408.79,56.65L409.64,59.82L410.49,60.22L411.33,57.08L412.18,48.26L413.03,48.58L414.72,46.15L415.57,41.39L416.41,33.57L417.26,34.41L418.1,32.86L418.95,34.1L420.64,29.34L421.49,29.66L422.34,29.46L423.18,27.93L424.03,19.02L424.88,20.14L425.72,21.48L426.57,19.5L428.26,10.79L429.11,11.52L430.8,21.42L431.65,21.92L432.49,17.45L433.34,18.29L434.19,21.93L435.03,19.9L435.88,18.93L436.72,20.18L438.42,20.02L439.26,16.31L442.65,21.8L443.5,18.31L445.19,7.7L446.03,6.74L446.88,13.62L447.73,13.92L448.57,14.84L449.42,13.72L450.27,12L451.11,17.64L451.96,23.26L452.81,22.98L453.65,28.36L454.5,25.28L455.34,24.9L456.19,26.09L457.88,29.55L458.73,26.18L459.58,26.68L460.42,34.52L462.12,27.26L462.96,26.63L463.81,26.88L464.65,30.28L465.5,29.82L466.35,37.4L467.19,45.82L468.04,43.41L468.89,41.29L469.73,42.78L472.27,46.25L473.12,43.64L473.96,44.83L474.81,47.84L475.66,46.22L476.5,46.35L478.2,50.49L479.04,48.65L479.89,50.2L480.74,46.57L481.58,46.07L482.43,42.43L483.27,41.55L484.12,42.87L484.97,42.62L485.81,40.98L488.35,49.46L489.2,48.15L490.89,49.28L491.74,50.13L492.58,50.16L493.43,51.14L495.12,59.09L495.97,60.8L496.82,59.82L497.66,60.91L500.2,56.35L501.05,58.48L501.89,57.77L502.74,58.42L505.28,60.28L506.13,58.36L508.67,72.55L509.51,70.42L510.36,70.43L511.2,67.65L512.05,71.06L512.9,69.51L513.74,68.05L514.59,68.78L516.28,66.95L517.13,67.78L517.98,70.75L518.82,61.87L519.67,61.59L520.51,60.08L522.21,54.34L523.05,55.74L523.9,53.67L524.75,57.52L526.44,59.87L527.29,59.71L528.13,55.84L528.98,56.25L529.82,57.03L530.67,63.52L533.21,66.49L534.06,68.64L535.75,65.78L536.6,66.1L537.44,64.76L538.29,65.75L539.98,55.44L540.83,54.53L542.52,60.34L543.37,66.24L545.06,66.38L545.91,66.75L546.75,60.21L547.6,61.33L549.29,66.5L550.14,66.86L550.98,65.57L551.83,65.69L552.68,61.98L553.52,62.47L555.22,60.6L556.06,60.81L556.91,62.33L557.75,58.66L558.6,59.33L559.45,56.91L560.29,55.15L561.14,55.76L562.83,48.88L563.68,49.07L566.22,51.85L567.06,50.86L567.91,50.39L568.76,51.51L569.6,50.88L570.45,54.31L571.3,57.56L572.14,57.42L572.99,59.79L573.84,58.56L575.53,64.05L576.37,62.3L577.22,62.42L578.07,63.7L579.76,64.26L580.61,63.2L583.15,59.44L583.99,63.85L585.68,65.58L586.53,64.21L587.38,63.85L588.22,66.53L589.07,64.71L589.92,65.61L591.61,68.14L592.46,67.15L593.3,68.19L594.15,65.41L594.99,65.77L595.84,72.19L597.53,74.55L598.38,77.12L600.92,85.22L601.77,83.52L602.61,85.02L603.46,82.76L604.3,83.02L605.15,84.12L607.69,84.14L608.54,86.41L610.23,84.35L611.08,86.02L611.92,85.26L612.77,85.94L614.46,87.2L615.31,86.55L616.15,81.21L617,80.85" style="vector-effect: none; fill: none; stroke: rgb(31, 119, 180); stroke-opacity: 1; stroke-width: 2px; opacity: 1;"/></g><g class="points"/><g class="text"/></g></g></g><g class="overplot"/><path class="xlines-above crisp" d="M0,0" style="fill: none;"/><path class="ylines-above crisp" d="M0,0" style="fill: none;"/><g class="overlines-above"/><g class="xaxislayer-above"/><g class="yaxislayer-above"><g class="ytick"><text text-anchor="end" x="52" y="4.199999999999999" transform="translate(0,154.95999999999998)" style="font-family: 'Open Sans', verdana, arial, sans-serif; font-size: 12px; fill: rgb(214, 223, 239); fill-opacity: 1; white-space: pre; opacity: 1;">20k</text></g><g class="ytick"><text text-anchor="end" x="52" y="4.199999999999999" style="font-family: 'Open Sans', verdana, arial, sans-serif; font-size: 12px; fill: rgb(214, 223, 239); fill-opacity: 1; white-space: pre; opacity: 1;" transform="translate(0,114.46)">40k</text></g><g class="ytick"><text text-anchor="end" x="52" y="4.199999999999999" style="font-family: 'Open Sans', verdana, arial, sans-serif; font-size: 12px; fill: rgb(214, 223, 239); fill-opacity: 1; white-space: pre; opacity: 1;" transform="translate(0,73.96000000000001)">60k</text></g></g><g class="overaxes-above"/></g><g class="subplot x2y2"><g class="layer-subplot"><g class="shapelayer"/><g class="imagelayer"/></g><g class="minor-gridlayer"><g class="x2"/><g class="y2"/></g><g class="gridlayer"><g class="x2"><path class="x2grid crisp" transform="translate(78.39,0)" d="M0,192.14v134.72" style="stroke: rgb(49, 52, 57); stroke-opacity: 1; stroke-width: 1px;"/><path class="x2grid crisp" transform="translate(156.26,0)" d="M0,192.14v134.72" style="stroke: rgb(49, 52, 57); stroke-opacity: 1; stroke-width: 1px;"/><path class="x2grid crisp" transform="translate(234.12,0)" d="M0,192.14v134.72" style="stroke: rgb(49, 52, 57); stroke-opacity: 1; stroke-width: 1px;"/><path class="x2grid crisp" transform="translate(310.29,0)" d="M0,192.14v134.72" style="stroke: rgb(49, 52, 57); stroke-opacity: 1; stroke-width: 1px;"/><path class="x2grid crisp" transform="translate(387.31,0)" d="M0,192.14v134.72" style="stroke: rgb(49, 52, 57); stroke-opacity: 1; stroke-width: 1px;"/><path class="x2grid crisp" transform="translate(465.18,0)" d="M0,192.14v134.72" style="stroke: rgb(49, 52, 57); stroke-opacity: 1; stroke-width: 1px;"/><path class="x2grid crisp" transform="translate(543.05,0)" d="M0,192.14v134.72" style="stroke: rgb(49, 52, 57); stroke-opacity: 1; stroke-width: 1px;"/><path class="x2grid crisp" transform="translate(619.22,0)" d="M0,192.14v134.72" style="stroke: rgb(49, 52, 57); stroke-opacity: 1; stroke-width: 1px;"/></g><g class="y2"><path class="y2grid crisp" transform="translate(0,319.26)" d="M53,0h617" style="stroke: rgb(49, 52, 57); stroke-opacity: 1; stroke-width: 1px;"/><path class="y2grid crisp" transform="translate(0,201.79)" d="M53,0h617" style="stroke: rgb(49, 52, 57); stroke-opacity: 1; stroke-width: 1px;"/></g></g><g class="zerolinelayer"><path class="y2zl zl crisp" transform="translate(0,260.53)" d="M53,0h617" style="stroke: rgb(49, 52, 57); stroke-opacity: 1; stroke-width: 2px;"/></g><path class="xlines-below"/><path class="ylines-below"/><g class="overlines-below"/><g class="xaxislayer-below"/><g class="yaxislayer-below"/><g class="overaxes-below"/><g class="plot" transform="translate(53,192.14)" clip-path="url(#clip4d192dx2y2plot)"><g class="scatterlayer mlayer"><g class="trace scatter trace49808a08-c533-42d0-9f3c-89db91af56cb" style="stroke-miterlimit: 2; opacity: 1;"><g class="fills"/><g class="errorbars"/><g class="lines"><path class="js-line" d="M27.93,70.17L31.32,69.4L32.16,69.33L39.78,69.06L40.63,69.01L43.16,68.49L44.01,68.18L46.55,67.26L47.4,65.91L51.63,61.95L52.47,62.01L60.09,62.1L60.94,62.42L67.71,63.65L68.56,64.23L76.17,66.98L77.02,67.02L78.71,67.16L79.56,68.62L82.94,71.36L83.79,71.82L86.33,72.03L87.18,71.89L89.71,71L90.56,70.45L93.95,69.04L94.79,69.35L98.18,69.51L99.02,69.36L104.1,68.97L104.95,69.06L110.03,68.24L110.87,67.76L115.11,66.18L115.95,66.22L118.49,65.86L119.34,65.52L122.72,62.25L123.57,61.91L129.49,60.42L130.34,60.66L132.03,60.34L132.88,58.95L134.57,58.06L135.42,57.62L138.8,56.87L139.65,56.52L142.19,56.6L143.04,55.59L147.27,52.64L148.11,52.81L149.81,52.64L150.65,54.49L152.35,56.98L153.19,57.35L154.04,56.35L154.88,56.58L156.58,56.33L157.42,57.08L159.96,57.85L160.81,59.07L164.19,62.29L165.04,62.18L166.73,61.92L167.58,60.08L170.97,51.48L171.81,51.35L173.5,50.44L174.35,50.19L175.2,49.28L176.04,47.12L181.12,38.79L181.97,35.6L183.66,31.8L184.51,29.66L187.89,13.8L188.74,14.31L191.28,23.62L192.12,23.29L197.2,39.7L198.05,46.61L201.43,59.81L202.28,61.69L203.13,65.2L203.97,65.19L205.67,63.78L206.51,64.46L207.36,64.63L208.21,62.99L211.59,52.69L212.44,51.12L214.13,36.86L214.98,33.93L216.67,26.34L217.52,24.81L219.21,22.32L220.05,21.35L224.29,6.74L225.13,8.19L230.21,45.31L231.06,45.94L231.9,47.76L232.75,47.63L235.29,52.23L236.14,51.38L237.83,46.06L238.67,42.64L242.06,29.18L242.91,31.53L243.75,32.57L244.6,31.91L247.98,36.8L248.83,41.7L252.22,56.82L253.06,56.8L253.91,56.95L254.76,55.46L257.29,51.04L258.14,50.3L259.83,51.92L260.68,51.4L261.53,52.26L262.37,55.02L264.07,55.7L264.91,54.59L266.6,53.23L267.45,49.59L269.14,45.95L269.99,46.69L270.84,48.76L271.68,54.22L277.61,88.01L278.45,86.77L280.15,82.93L280.99,82.65L283.53,73.11L284.38,71.16L285.22,73.32L286.07,70.98L287.76,68.53L288.61,65.84L289.46,64.35L290.3,65.5L291.15,65.63L292,72.37L297.07,102.72L297.92,112.05L300.46,123.5L301.31,127.98L303,125.89L303.84,123.56L304.69,121.77L305.54,122.44L306.38,123.35L307.23,122.46L311.46,107.86L312.31,107.24L313.16,106.05L314,106.79L314.85,107.1L315.69,103.14L319.08,91.48L319.93,86.31L321.62,80.86L322.47,79.75L325,82.51L325.85,86.53L327.54,88.96L328.39,88.05L330.08,90.63L330.93,88.6L333.47,82.59L334.31,82.64L335.16,82.25L336.01,80.96L336.85,79.23L337.7,79.25L339.39,78.38L340.24,78.99L343.62,77.44L344.47,77.84L346.16,78.82L347.01,79.85L349.55,81.22L350.4,82.66L352.93,77.8L353.78,75.25L355.47,67.89L356.32,62.49L359.71,46.84L360.55,46.45L361.4,47.05L362.24,48.64L363.09,48.69L363.94,47.89L368.17,36.52L369.02,35.8L369.86,36.66L370.71,34.5L372.4,33.88L373.25,35.28L374.94,40.25L375.79,40.51L377.48,37.96L378.33,37.4L379.17,37.07L380.02,38.88L380.86,39.41L381.71,42.15L383.4,43.25L384.25,44.24L385.94,49.23L386.79,49.62L389.33,49.3L390.17,47.78L391.02,45.97L391.87,50.24L395.25,64.84L396.1,66.41L396.95,68.68L397.79,68.42L399.48,66.75L400.33,66.76L401.18,65.86L402.02,66.17L404.56,77.36L405.41,77.22L407.95,80.76L408.79,81.93L410.49,84.53L411.33,82.8L413.87,69.55L414.72,65.67L418.95,42.22L419.8,40.25L421.49,35.11L422.34,33.2L423.18,32.12L424.03,27.64L428.26,16.05L429.11,17.71L431.65,26.48L432.49,27.16L435.03,38.06L435.88,38.62L437.57,41.52L438.42,43.57L440.11,43.65L440.96,45.63L442.65,49.36L443.5,49.05L445.19,42.72L446.03,43.12L447.73,45.27L448.57,46.42L449.42,46.5L450.27,48.61L453.65,68.29L454.5,69.89L457.88,79.58L458.73,79.06L460.42,85.75L461.27,84.98L462.96,83.33L463.81,82.63L464.65,82.59L465.5,85.09L467.19,95.19L468.04,97.17L469.73,98.87L470.58,101.75L471.43,104L472.27,103.26L473.12,101.65L473.96,103.16L476.5,100.57L477.35,101.32L479.89,99.27L480.74,96.26L482.43,89.59L483.27,86.01L485.81,78.76L486.66,79.97L489.2,83.66L490.05,83.02L491.74,83.18L492.58,83.92L496.82,94.61L497.66,95.16L498.51,94.44L499.36,92.48L501.05,90.75L501.89,89.56L503.59,88.07L504.43,87.45L506.13,88.05L506.97,92.31L508.67,98.65L509.51,99.48L511.2,99.28L512.05,98.44L515.44,91.37L516.28,89.28L517.98,88.33L518.82,83.5L523.9,62.28L524.75,62.06L527.29,62.19L528.13,60.24L528.98,59.43L529.82,62.05L534.9,77.57L535.75,78.19L537.44,77.34L538.29,78.27L540.83,65.76L541.67,64.59L545.06,72.5L545.91,73.35L546.75,70.96L547.6,71.41L550.14,74.44L550.98,73.7L551.83,73.43L552.68,71.45L556.06,65.63L556.91,65.44L560.29,58.45L561.14,56.88L563.68,48.76L564.53,47.62L567.06,49.32L567.91,49.58L568.76,49.84L569.6,51.27L572.99,62.92L573.84,65.27L575.53,72.48L576.37,73.69L578.07,76.62L578.91,77.41L579.76,78.58L580.61,78.33L582.3,76.65L583.15,76.81L585.68,78.75L586.53,78.07L588.22,79.62L589.07,79.03L591.61,80.67L592.46,80.46L593.3,80.91L594.15,79.28L597.53,86.37L598.38,91.76L601.77,103.07L602.61,103.15L604.3,101.46L605.15,100.4L606,100.82L606.84,99.28L608.54,97.8L609.38,95.9L611.08,93.86L611.92,92.61L615.31,88.78L616.15,85.29L617,82.31" style="vector-effect: none; fill: none; stroke: rgb(255, 127, 14); stroke-opacity: 1; stroke-width: 2px; opacity: 1;"/></g><g class="points"/><g class="text"/></g></g></g><g class="overplot"/><path class="xlines-above crisp" d="M0,0" style="fill: none;"/><path class="ylines-above crisp" d="M0,0" style="fill: none;"/><g class="overlines-above"/><g class="xaxislayer-above"/><g class="yaxislayer-above"><g class="y2tick"><text text-anchor="end" x="52" y="4.199999999999999" transform="translate(0,319.26)" style="font-family: 'Open Sans', verdana, arial, sans-serif; font-size: 12px; fill: rgb(214, 223, 239); fill-opacity: 1; white-space: pre; opacity: 1;">−5000</text></g><g class="y2tick"><text text-anchor="end" x="52" y="4.199999999999999" style="font-family: 'Open Sans', verdana, arial, sans-serif; font-size: 12px; fill: rgb(214, 223, 239); fill-opacity: 1; white-space: pre; opacity: 1;" transform="translate(0,260.53)">0</text></g><g class="y2tick"><text text-anchor="end" x="52" y="4.199999999999999" style="font-family: 'Open Sans', verdana, arial, sans-serif; font-size: 12px; fill: rgb(214, 223, 239); fill-opacity: 1; white-space: pre; opacity: 1;" transform="translate(0,201.79)">5000</text></g></g><g class="overaxes-above"/></g><g class="subplot x3y3"><g class="layer-subplot"><g class="shapelayer"/><g class="imagelayer"/></g><g class="minor-gridlayer"><g class="x3"/><g class="y3"/></g><g class="gridlayer"><g class="x3"><path class="x3grid crisp" transform="translate(78.39,0)" d="M0,335.28v134.72" style="stroke: rgb(49, 52, 57); stroke-opacity: 1; stroke-width: 1px;"/><path class="x3grid crisp" transform="translate(156.26,0)" d="M0,335.28v134.72" style="stroke: rgb(49, 52, 57); stroke-opacity: 1; stroke-width: 1px;"/><path class="x3grid crisp" transform="translate(234.12,0)" d="M0,335.28v134.72" style="stroke: rgb(49, 52, 57); stroke-opacity: 1; stroke-width: 1px;"/><path class="x3grid crisp" transform="translate(310.29,0)" d="M0,335.28v134.72" style="stroke: rgb(49, 52, 57); stroke-opacity: 1; stroke-width: 1px;"/><path class="x3grid crisp" transform="translate(387.31,0)" d="M0,335.28v134.72" style="stroke: rgb(49, 52, 57); stroke-opacity: 1; stroke-width: 1px;"/><path class="x3grid crisp" transform="translate(465.18,0)" d="M0,335.28v134.72" style="stroke: rgb(49, 52, 57); stroke-opacity: 1; stroke-width: 1px;"/><path class="x3grid crisp" transform="translate(543.05,0)" d="M0,335.28v134.72" style="stroke: rgb(49, 52, 57); stroke-opacity: 1; stroke-width: 1px;"/><path class="x3grid crisp" transform="translate(619.22,0)" d="M0,335.28v134.72" style="stroke: rgb(49, 52, 57); stroke-opacity: 1; stroke-width: 1px;"/></g><g class="y3"><path class="y3grid crisp" transform="translate(0,443.01)" d="M53,0h617" style="stroke: rgb(49, 52, 57); stroke-opacity: 1; stroke-width: 1px;"/><path class="y3grid crisp" transform="translate(0,403.41999999999996)" d="M53,0h617" style="stroke: rgb(49, 52, 57); stroke-opacity: 1; stroke-width: 1px;"/><path class="y3grid crisp" transform="translate(0,363.82)" d="M53,0h617" style="stroke: rgb(49, 52, 57); stroke-opacity: 1; stroke-width: 1px;"/></g></g><g class="zerolinelayer"/><path class="xlines-below"/><path class="ylines-below"/><g class="overlines-below"/><g class="xaxislayer-below"/><g class="yaxislayer-below"/><g class="overaxes-below"/><g class="plot" transform="translate(53,335.28)" clip-path="url(#clip4d192dx3y3plot)"><g class="scatterlayer mlayer"><g class="trace scatter traceea56ba58-a1c8-4da6-ae93-c38b25a0143e" style="stroke-miterlimit: 2; opacity: 1;"><g class="fills"/><g class="errorbars"/><g class="lines"><path class="js-line" d="M33.01,101.15L34.7,101.36L35.55,101.02L37.24,96.35L38.09,96.22L38.93,96.29L39.78,95.43L41.47,94.16L42.32,94.24L44.01,90.54L44.86,86.99L46.55,80.51L47.4,99.19L50.78,83.3L51.63,82.86L55.01,71.25L55.86,69.72L56.71,68.57L57.55,69.02L62.63,77.18L63.48,76.86L64.32,76.52L65.17,66.32L66.86,62.38L67.71,61.54L71.94,52.38L72.79,51.6L73.63,51.2L74.48,51.73L76.17,52.68L77.02,52.64L78.71,50.57L79.56,50.78L81.25,54.7L82.1,58.75L87.18,87.4L88.02,89.98L89.71,95.47L90.56,96.76L92.25,98.24L93.1,96.14L94.79,92.65L95.64,93.21L96.49,94.59L97.33,94.43L99.02,94.45L99.87,95.49L101.56,96.25L102.41,96.2L104.1,98.32L104.95,99.81L107.49,106.47L108.33,104.35L110.03,93.62L110.87,84.88L114.26,33.4L115.11,26.65L115.95,24.55L116.8,25.39L117.64,25.88L118.49,27.45L119.34,31.17L120.18,62.73L122.72,52.17L123.57,51.82L124.42,50.19L125.26,53.34L127.8,49.05L128.65,50.17L131.19,55.6L132.03,55.4L132.88,55.93L133.73,52.97L136.26,44.73L137.11,43.12L137.96,42.66L138.8,40.2L139.65,38.99L140.5,39.58L141.34,39.61L142.19,36.75L143.04,33.87L143.88,33.9L146.42,34.52L147.27,36L148.11,37.56L148.96,34.6L149.81,33.54L150.65,35.01L152.35,39.91L153.19,41.02L154.04,38.7L154.88,38.59L157.42,39.34L158.27,40.93L160.81,46.04L161.66,51.61L164.19,53.54L165.04,52.18L166.73,49.17L167.58,32.04L169.27,28.89L170.12,27.03L173.5,19.31L174.35,19.04L175.2,19.25L176.04,28.78L176.89,35.68L177.74,33.92L178.58,32.56L179.43,37.54L181.12,38.55L181.97,48.06L182.81,50.13L183.66,46.32L184.51,41.41L185.35,44.04L186.2,51.06L187.05,51.67L188.74,46.69L189.59,47L192.12,50.95L192.97,51.01L194.66,51.05L195.51,51.56L196.36,51L197.2,52.13L198.9,53.92L199.74,55.52L201.43,57.01L202.28,57.62L203.97,57.49L204.82,55.64L209.05,41.97L209.9,40.22L211.59,34.86L212.44,31.88L214.13,13.23L214.98,10.44L216.67,6.74L217.52,13.68L218.36,17.9L219.21,18.25L220.05,20.05L220.9,28.01L221.75,30.58L222.59,36.99L223.44,51.11L224.29,51.18L225.13,52.04L225.98,54.48L229.36,68.21L230.21,68.35L233.6,57.46L234.44,54.45L239.52,31.63L240.37,30.7L242.06,16.08L242.91,15.1L248.83,25.63L249.68,28.31L250.52,30.22L251.37,34.9L255.6,60.4L256.45,62.39L257.29,64.42L258.14,62.04L259.83,47.3L260.68,43.96L261.53,42.69L262.37,43.54L263.22,44.09L264.07,41.89L265.76,42.19L266.6,42.17L268.3,22.57L269.14,22.47L270.84,23.35L271.68,25.34L273.38,34.7L274.22,41.12L278.45,75.91L279.3,74.64L280.15,72.71L280.99,72.83L283.53,69.21L284.38,67.38L286.07,64.47L286.92,62.07L291.15,50.41L292,49.14L292.84,51.64L293.69,57.3L299.61,97.15L300.46,100.8L301.31,98.64L302.15,99.46L306.38,102.8L307.23,103.05L309.77,103.19L310.62,105.09L311.46,104.27L312.31,106.99L314,117.59L314.85,109.85L317.39,110.13L318.23,111.41L321.62,115.51L322.47,113.48L325,107.7L325.85,102.29L328.39,85.2L329.24,82.1L330.08,82.42L330.93,85.1L332.62,87.45L333.47,87.72L334.31,87.38L335.16,87.88L336.85,86.66L337.7,83.05L339.39,76.1L340.24,76.81L344.47,79.84L345.32,81.7L346.16,83.6L347.01,81.27L347.86,80.27L348.7,82.59L349.55,85.96L350.4,83L352.09,88.08L352.93,88.22L353.78,85.16L354.63,77.49L357.17,56.75L358.01,52.89L358.86,53.51L359.71,50.89L360.55,49.18L361.4,49.84L363.09,51.98L363.94,51.96L365.63,51.41L366.48,51L367.32,51.41L368.17,50.98L369.86,54.62L370.71,53.49L371.55,53.22L372.4,54.3L373.25,54.75L374.09,56.43L374.94,56.99L375.79,56.26L377.48,45.04L378.33,43.55L379.17,39.72L380.02,39.72L382.56,41.91L383.4,43.43L387.64,48.84L388.48,45.15L389.33,43.95L390.17,37.8L391.87,29.06L392.71,31.9L396.1,45.87L396.95,47.24L400.33,49.75L401.18,49.24L402.87,49.11L403.72,50.56L405.41,52.15L406.26,52.37L412.18,74.81L413.03,75.91L414.72,75L415.57,72.24L417.26,57.05L418.1,53.98L420.64,51.52L421.49,51.76L424.03,54.33L424.88,49.94L425.72,48.08L426.57,49.24L429.11,48.58L429.95,50.67L432.49,57.19L433.34,58.21L434.19,59.25L435.03,58.21L437.57,52.14L438.42,50.65L440.96,42.54L441.8,41.68L443.5,43.3L444.34,39.63L446.03,28.61L446.88,28.93L447.73,30.19L448.57,27.07L450.27,22.25L451.11,23.56L454.5,37.33L455.34,40.79L459.58,58.34L460.42,64.6L462.96,76.33L463.81,78.3L464.65,78.72L465.5,78.05L466.35,76.23L467.19,77.83L471.43,84.15L472.27,85.43L473.96,87.81L474.81,89.73L479.04,96.24L479.89,97.46L481.58,98.67L482.43,97.61L483.27,96.82L484.12,97.41L486.66,98.75L487.51,100.39L491.74,107.08L492.58,112.47L493.43,117.46L494.28,88.63L496.82,83.73L497.66,83.37L498.51,81.81L499.36,82.39L503.59,84.56L504.43,84.94L506.13,85.71L506.97,81.39L508.67,86.59L509.51,87.64L512.05,92.71L512.9,94.28L516.28,97.63L517.13,98.23L517.98,99.4L518.82,97.82L520.51,92.92L521.36,85.57L523.9,71.46L524.75,68.17L526.44,65.12L527.29,66.14L528.13,65.98L528.98,66.59L530.67,70.14L531.52,73.89L534.9,89.61L535.75,104.06L536.6,103.07L537.44,98.18L538.29,92.53L539.13,81.83L541.67,49.48L542.52,47.24L545.06,46.3L545.91,46.83L547.6,43.96L548.44,44.5L550.14,47.29L550.98,55.47L553.52,62.15L554.37,66.89L558.6,78.53L559.45,79.22L561.99,51.85L562.83,48.91L564.53,39.64L565.37,38.6L567.06,40.26L567.91,41.57L569.6,44.46L570.45,47.68L575.53,73.37L576.37,83.03L578.07,85.44L578.91,85.3L579.76,84.66L580.61,80.64L583.15,67.69L583.99,67.77L585.68,68.01L586.53,67.2L588.22,66.46L589.07,66.62L589.92,66.92L590.76,65.08L594.99,85.75L595.84,80.94L597.53,83.36L598.38,82.96L599.23,83.33L600.07,82.33L600.92,82.21L601.77,83.45L602.61,84.13L603.46,86.24L607.69,91.78L608.54,92.07L611.08,93.36L611.92,102.34L612.77,111.84L613.61,110.88L616.15,112.51L617,112.19" style="vector-effect: none; fill: none; stroke: rgb(44, 160, 44); stroke-opacity: 1; stroke-width: 2px; opacity: 1;"/></g><g class="points"/><g class="text"/></g><g class="trace scatter trace71b88822-d1ec-4ed7-b353-f12c78a98f50" style="stroke-miterlimit: 2; opacity: 1;"><g class="fills"/><g class="errorbars"/><g class="lines"><path class="js-line" d="M60.94,127.98L62.63,124.91L63.48,124.35L69.4,120.02L70.25,118.59L71.09,119.51L71.94,118.92L72.79,119.28L73.63,114.14L76.17,92.9L77.02,83.42L78.71,74.33L79.56,66.83L81.25,59.44L82.1,57.03L84.64,48.53L85.48,48.2L92.25,52.75L93.1,54.07L95.64,56.12L96.49,55.84L98.18,55.1L99.02,53.31L100.72,51.18L101.56,51.08L104.95,49.65L105.8,49.21L109.18,48.03L110.03,47.88L111.72,50.18L112.57,52.54L114.26,57.67L115.11,61.71L119.34,87.14L120.18,87.42L121.03,88.23L121.88,90.15L126.95,99.46L127.8,100.92L129.49,103.48L130.34,108.02L132.03,120.44L132.88,116.93L136.26,106.7L137.11,105.8L137.96,105.05L138.8,101.37L139.65,100.02L140.5,101.28L142.19,105.05L143.04,99.57L146.42,90.59L147.27,91.53L148.11,91.61L148.96,90.61L151.5,89.51L152.35,88.74L154.04,88.77L154.88,89.09L156.58,89.8L157.42,87.29L160.81,76.59L161.66,73.83L166.73,51.71L167.58,54.57L171.81,82.05L172.66,82.8L174.35,87L175.2,83.4L176.04,81.99L176.89,85.25L180.28,98.06L181.12,100.17L186.2,114.44L187.05,116.27L188.74,119.47L189.59,119.95L191.28,117.91L192.12,116.29L194.66,106.12L195.51,100.97L203.13,60.56L203.97,59.1L206.51,62.78L207.36,65.06L212.44,81.45L213.28,83.15L216.67,86.82L217.52,86.66L218.36,85.75L219.21,83.62L220.9,79.63L221.75,80.82L222.59,80.53L223.44,79.22L225.13,79.84L225.98,80.13L226.83,80.12L227.67,79.04L229.36,79.68L230.21,79.04L234.44,74.87L235.29,74.14L236.98,73.22L237.83,73.55L239.52,78.57L240.37,83.3L242.06,93.39L242.91,95.2L244.6,97.54L245.45,96.93L249.68,69.23L250.52,60.64L252.22,39.5L253.06,33.63L253.91,30.05L254.76,31.01L258.14,38.82L258.99,40.02L263.22,46.05L264.07,49.33L268.3,78.3L269.14,86.8L269.99,87.59L270.84,82.68L271.68,75.38L272.53,60.04L275.07,20.79L275.91,22.28L276.76,24.88L277.61,24.93L279.3,18.86L280.15,18.29L281.84,17.52L282.69,18.79L283.53,21.09L284.38,28.04L287.76,45.29L288.61,50.97L290.3,66.97L291.15,75.45L292.84,71.56L293.69,68.12L295.38,53.66L296.23,43.53L298.77,22.72L299.61,22.93L302.15,15.76L303,17L308.08,35.16L308.92,37.78L310.62,44.25L311.46,49.58L315.69,76.48L316.54,74.7L320.77,65.19L321.62,66.06L324.16,69.92L325,70.61L327.54,69.86L328.39,69.35L330.08,68.73L330.93,69.52L333.47,77.05L334.31,83.36L337.7,106.59L338.55,110.42L341.09,119.9L341.93,121.32L342.78,119.65L343.62,121.14L345.32,122.31L346.16,120.63L347.86,114.66L348.7,108.99L351.24,85.85L352.09,86.53L352.93,88.32L353.78,76.76L355.47,57.69L356.32,55.2L357.17,56.26L358.01,66.04L360.55,107L361.4,111.44L364.78,115.26L365.63,115.23L369.86,114.82L370.71,114.21L371.55,113.67L372.4,116.73L374.09,119.48L374.94,119.72L377.48,121.4L378.33,122.06L383.4,126.97L384.25,124.67L385.94,116.89L386.79,111.72L391.87,74.05L392.71,69.13L393.56,66.16L394.41,65.97L395.25,65.07L396.1,62.06L400.33,46.95L401.18,46.54L402.02,47.03L402.87,45.46L405.41,42.71L406.26,42.92L407.1,43.07L407.95,44.4L408.79,44.94L409.64,44.53L411.33,45.29L412.18,45.51L421.49,71.27L422.34,73.55L424.88,83.32L425.72,88.5L429.11,101.93L429.95,103.66L432.49,106.82L433.34,107.15L440.11,102.1L440.96,102.12L442.65,102.49L443.5,98.49L447.73,73.59L448.57,74.4L450.27,74.12L451.11,69.73L453.65,46.21L454.5,40.48L457.04,26.31L457.88,23.34L458.73,23.18L459.58,20.9L460.42,21.11L461.27,22.17L464.65,31.88L465.5,33.52L467.19,32.78L468.04,33.04L470.58,35.72L471.43,37.86L475.66,51.76L476.5,50.31L479.89,43.69L480.74,43.76L486.66,54.88L487.51,55.53L490.05,61.29L490.89,64.73L491.74,67.03L492.58,66.87L493.43,66.66L494.28,64.6L496.82,61.7L497.66,62.32L499.36,64.24L500.2,63.44L502.74,65.97L503.59,68.22L505.28,75.73L506.13,81.3L508.67,94.15L509.51,91.63L512.9,64.73L513.74,58.42L516.28,45.48L517.13,42.99L517.98,40.51L518.82,43.05L520.51,54.94L521.36,65.89L523.9,89.71L524.75,93.83L529.82,116.12L530.67,117.93L531.52,118.83L532.36,118.39L535.75,106.71L536.6,104.69L539.13,99.98L539.98,99.85L543.37,102.41L544.21,103.46L545.91,106.16L546.75,108.84L547.6,108.89L548.44,105.49L549.29,101.38L550.14,93.45L553.52,60.13L554.37,55.2L556.06,51.79L556.91,54.21L563.68,82.02L564.53,86.4L569.6,107.24L570.45,105.42L574.68,87.79L575.53,83.92L580.61,61.65L581.45,62.12L583.15,67.48L583.99,71.08L586.53,83.65L587.38,83.55L589.07,85.66L589.92,85.72L591.61,79.81L592.46,78.64L594.99,71.31L595.84,62.36L600.92,11.11L601.77,6.99L602.61,7.83L603.46,10.24L607.69,21.6L608.54,23.53L610.23,29.49L611.08,33.18L612.77,38.5L613.61,42.57L616.15,61.92L617,71.33" style="vector-effect: none; fill: none; stroke: rgb(220, 57, 18); stroke-opacity: 1; stroke-width: 2px; opacity: 1;"/></g><g class="points"/><g class="text"/></g></g></g><g class="overplot"/><path class="xlines-above crisp" d="M0,0" style="fill: none;"/><path class="ylines-above crisp" d="M0,0" style="fill: none;"/><g class="overlines-above"/><g class="xaxislayer-above"><g class="x3tick"><text text-anchor="middle" x="0" y="483" transform="translate(78.39,0)" style="font-family: 'Open Sans', verdana, arial, sans-serif; font-size: 12px; fill: rgb(214, 223, 239); fill-opacity: 1; white-space: pre; opacity: 1;">Jul 2020</text></g><g class="x3tick"><text text-anchor="middle" x="0" y="483" style="font-family: 'Open Sans', verdana, arial, sans-serif; font-size: 12px; fill: rgb(214, 223, 239); fill-opacity: 1; white-space: pre; opacity: 1;" transform="translate(156.26,0)">Oct 2020</text></g><g class="x3tick"><text text-anchor="middle" x="0" y="483" style="font-family: 'Open Sans', verdana, arial, sans-serif; font-size: 12px; fill: rgb(214, 223, 239); fill-opacity: 1; white-space: pre; opacity: 1;" transform="translate(234.12,0)">Jan 2021</text></g><g class="x3tick"><text text-anchor="middle" x="0" y="483" style="font-family: 'Open Sans', verdana, arial, sans-serif; font-size: 12px; fill: rgb(214, 223, 239); fill-opacity: 1; white-space: pre; opacity: 1;" transform="translate(310.29,0)">Apr 2021</text></g><g class="x3tick"><text text-anchor="middle" x="0" y="483" style="font-family: 'Open Sans', verdana, arial, sans-serif; font-size: 12px; fill: rgb(214, 223, 239); fill-opacity: 1; white-space: pre; opacity: 1;" transform="translate(387.31,0)">Jul 2021</text></g><g class="x3tick"><text text-anchor="middle" x="0" y="483" style="font-family: 'Open Sans', verdana, arial, sans-serif; font-size: 12px; fill: rgb(214, 223, 239); fill-opacity: 1; white-space: pre; opacity: 1;" transform="translate(465.18,0)">Oct 2021</text></g><g class="x3tick"><text text-anchor="middle" x="0" y="483" style="font-family: 'Open Sans', verdana, arial, sans-serif; font-size: 12px; fill: rgb(214, 223, 239); fill-opacity: 1; white-space: pre; opacity: 1;" transform="translate(543.05,0)">Jan 2022</text></g><g class="x3tick"><text text-anchor="middle" x="0" y="483" style="font-family: 'Open Sans', verdana, arial, sans-serif; font-size: 12px; fill: rgb(214, 223, 239); fill-opacity: 1; white-space: pre; opacity: 1;" transform="translate(619.22,0)">Apr 2022</text></g></g><g class="yaxislayer-above"><g class="y3tick"><text text-anchor="end" x="52" y="4.199999999999999" transform="translate(0,443.01)" style="font-family: 'Open Sans', verdana, arial, sans-serif; font-size: 12px; fill: rgb(214, 223, 239); fill-opacity: 1; white-space: pre; opacity: 1;">0.4</text></g><g class="y3tick"><text text-anchor="end" x="52" y="4.199999999999999" style="font-family: 'Open Sans', verdana, arial, sans-serif; font-size: 12px; fill: rgb(214, 223, 239); fill-opacity: 1; white-space: pre; opacity: 1;" transform="translate(0,403.41999999999996)">0.6</text></g><g class="y3tick"><text text-anchor="end" x="52" y="4.199999999999999" style="font-family: 'Open Sans', verdana, arial, sans-serif; font-size: 12px; fill: rgb(214, 223, 239); fill-opacity: 1; white-space: pre; opacity: 1;" transform="translate(0,363.82)">0.8</text></g></g><g class="overaxes-above"/></g></g><g class="polarlayer"/><g class="smithlayer"/><g class="ternarylayer"/><g class="geolayer"/><g class="funnelarealayer"/><g class="pielayer"/><g class="iciclelayer"/><g class="treemaplayer"/><g class="sunburstlayer"/><g class="glimages"/><defs id="topdefs-4d192d"><g class="clips"/><clipPath id="legend4d192d"><rect width="365" height="29" x="0" y="0"/></clipPath></defs><g class="layer-above"><g class="imagelayer"/><g class="shapelayer"/></g><g class="infolayer"><g class="legend" pointer-events="all" transform="translate(305,11.579999999999991)"><rect class="bg" shape-rendering="crispEdges" style="stroke: rgb(68, 68, 68); stroke-opacity: 1; fill: rgb(33, 34, 38); fill-opacity: 1; stroke-width: 0px;" width="365" height="29" x="0" y="0"/><g class="scrollbox" transform="" clip-path="url(#legend4d192d)"><g class="groups"><g class="traces" transform="translate(0,14.5)" style="opacity: 1;"><text class="legendtext" text-anchor="start" x="40" y="4.680000000000001" style="font-family: 'Open Sans', verdana, arial, sans-serif; font-size: 12px; fill: rgb(214, 223, 239); fill-opacity: 1; white-space: pre;">Price</text><g class="layers" style="opacity: 1;"><g class="legendfill"/><g class="legendlines"><path class="js-line" d="M5,0h30" style="fill: none; stroke: rgb(31, 119, 180); stroke-opacity: 1; stroke-width: 2px;"/></g><g class="legendsymbols"><g class="legendpoints"/></g></g><rect class="legendtoggle" x="0" y="-9.5" width="71.5625" height="19" style="fill: rgb(0, 0, 0); fill-opacity: 0;"/></g><g class="traces" transform="translate(74.0625,14.5)" style="opacity: 1;"><text class="legendtext" text-anchor="start" x="40" y="4.680000000000001" style="font-family: 'Open Sans', verdana, arial, sans-serif; font-size: 12px; fill: rgb(214, 223, 239); fill-opacity: 1; white-space: pre;">MACD</text><g class="layers" style="opacity: 1;"><g class="legendfill"/><g class="legendlines"><path class="js-line" d="M5,0h30" style="fill: none; stroke: rgb(255, 127, 14); stroke-opacity: 1; stroke-width: 2px;"/></g><g class="legendsymbols"><g class="legendpoints"/></g></g><rect class="legendtoggle" x="0" y="-9.5" width="78.453125" height="19" style="fill: rgb(0, 0, 0); fill-opacity: 0;"/></g><g class="traces" transform="translate(155.015625,14.5)" style="opacity: 1;"><text class="legendtext" text-anchor="start" x="40" y="4.680000000000001" style="font-family: 'Open Sans', verdana, arial, sans-serif; font-size: 12px; fill: rgb(214, 223, 239); fill-opacity: 1; white-space: pre;">Price Sim</text><g class="layers" style="opacity: 1;"><g class="legendfill"/><g class="legendlines"><path class="js-line" d="M5,0h30" style="fill: none; stroke: rgb(44, 160, 44); stroke-opacity: 1; stroke-width: 2px;"/></g><g class="legendsymbols"><g class="legendpoints"/></g></g><rect class="legendtoggle" x="0" y="-9.5" width="98.9375" height="19" style="fill: rgb(0, 0, 0); fill-opacity: 0;"/></g><g class="traces" transform="translate(256.453125,14.5)" style="opacity: 1;"><text class="legendtext" text-anchor="start" x="40" y="4.680000000000001" style="font-family: 'Open Sans', verdana, arial, sans-serif; font-size: 12px; fill: rgb(214, 223, 239); fill-opacity: 1; white-space: pre;">MACD Sim</text><g class="layers" style="opacity: 1;"><g class="legendfill"/><g class="legendlines"><path class="js-line" d="M5,0h30" style="fill: none; stroke: rgb(220, 57, 18); stroke-opacity: 1; stroke-width: 2px;"/></g><g class="legendsymbols"><g class="legendpoints"/></g></g><rect class="legendtoggle" x="0" y="-9.5" width="105.828125" height="19" style="fill: rgb(0, 0, 0); fill-opacity: 0;"/></g></g></g><rect class="scrollbar" rx="20" ry="3" width="0" height="0" style="fill: rgb(128, 139, 164); fill-opacity: 1;" x="0" y="0"/></g><g class="g-gtitle"/><g class="g-xtitle"/><g class="g-x2title"/><g class="g-x3title"/><g class="g-ytitle"/><g class="g-y2title"/><g class="g-y3title"/></g></svg>