<svg class="main-svg" xmlns="http://www.w3.org/2000/svg" xmlns:xlink="http://www.w3.org/1999/xlink" width="700" height="350" style="" viewBox="0 0 700 350"><rect x="0" y="0" width="700" height="350" style="fill: rgb(255, 255, 255); fill-opacity: 1;"/><defs id="defs-de97b3"><g class="clips"><clipPath id="clipde97b3xyplot" class="plotclip"><rect width="635" height="261"/></clipPath><clipPath class="axesclip" id="clipde97b3x"><rect x="35" y="0" width="635" height="350"/></clipPath><clipPath class="axesclip" id="clipde97b3y"><rect x="0" y="46" width="700" height="261"/></clipPath><clipPath class="axesclip" id="clipde97b3xy"><rect x="35" y="46" width="635" height="261"/></clipPath></g><g class="gradients"/><g class="patterns"/></defs><g class="bglayer"><rect class="bg" x="35" y="46" width="635" height="261" style="fill: rgb(229, 236, 246); fill-opacity: 1; stroke-width: 0;"/></g><g class="layer-below"><g class="imagelayer"/><g class="shapelayer"/></g><g class="cartesianlayer"><g class="subplot xy"><g class="layer-subplot"><g class="shapelayer"/><g class="imagelayer"/></g><g class="minor-gridlayer"><g class="x"/><g class="y"/></g><g class="gridlayer"><g class="x"><path class="xgrid crisp" transform="translate(148.29000000000002,0)" d="M0,46v261" style="stroke: rgb(255, 255, 255); stroke-opacity: 1; stroke-width: 1px;"/><path class="xgrid crisp" transform="translate(284.43,0)" d="M0,46v261" style="stroke: rgb(255, 255, 255); stroke-opacity: 1; stroke-width: 1px;"/><path class="xgrid crisp" transform="translate(420.57,0)" d="M0,46v261" style="stroke: rgb(255, 255, 255); stroke-opacity: 1; stroke-width: 1px;"/><path class="xgrid crisp" transform="translate(556.71,0)" d="M0,46v261" style="stroke: rgb(255, 255, 255); stroke-opacity: 1; stroke-width: 1px;"/></g><g class="y"><path class="ygrid crisp" transform="translate(0,284.25)" d="M35,0h635" style="stroke: rgb(255, 255, 255); stroke-opacity: 1; stroke-width: 1px;"/><path class="ygrid crisp" transform="translate(0,242.15)" d="M35,0h635" style="stroke: rgb(255, 255, 255); stroke-opacity: 1; stroke-width: 1px;"/><path class="ygrid crisp" transform="translate(0,200.05)" d="M35,0h635" style="stroke: rgb(255, 255, 255); stroke-opacity: 1; stroke-width: 1px;"/><path class="ygrid crisp" transform="translate(0,157.95999999999998)" d="M35,0h635" style="stroke: rgb(255, 255, 255); stroke-opacity: 1; stroke-width: 1px;"/><path class="ygrid crisp" transform="translate(0,115.86)" d="M35,0h635" style="stroke: rgb(255, 255, 255); stroke-opacity: 1; stroke-width: 1px;"/><path class="ygrid crisp" transform="translate(0,73.77)" d="M35,0h635" style="stroke: rgb(255, 255, 255); stroke-opacity: 1; stroke-width: 1px;"/></g></g><g class="zerolinelayer"/><path class="xlines-below"/><path class="ylines-below"/><g class="overlines-below"/><g class="xaxislayer-below"/><g class="yaxislayer-below"/><g class="overaxes-below"/><g class="plot" transform="translate(35,46)" clip-path="url(#clipde97b3xyplot)"><g class="boxlayer mlayer"><g class="trace boxes" style="opacity: 0.75;"><path class="box" d="M30.74,210.44H40.26M30.74,225.74H40.26V209.44H30.74ZM35.5,225.74V226.77M35.5,209.44V197.62" style="vector-effect: none; stroke-width: 2px; stroke: rgb(38, 166, 154); stroke-opacity: 1; fill: rgb(38, 166, 154); fill-opacity: 1; opacity: 1;"/><path class="box" d="M50.18,184.87H59.71M50.18,209.44H59.71V183.87H50.18ZM54.95,209.44V219.7M54.95,183.87V181.81" style="vector-effect: none; stroke-width: 2px; stroke: rgb(38, 166, 154); stroke-opacity: 1; fill: rgb(38, 166, 154); fill-opacity: 1; opacity: 1;"/><path class="box" d="M69.63,182.87H79.16M69.63,183.87H79.16V182.65H69.63ZM74.4,183.87V198.16M74.4,182.65V175.95" style="vector-effect: none; stroke-width: 2px; stroke: rgb(38, 166, 154); stroke-opacity: 1; fill: rgb(38, 166, 154); fill-opacity: 1; opacity: 1;"/><path class="box" d="M89.08,192.19H98.61M89.08,193.19H98.61V182.68H89.08ZM93.84,193.19V210.04M93.84,182.68V182.39" style="vector-effect: none; stroke-width: 2px; stroke: rgb(238, 83, 79); stroke-opacity: 1; fill: rgb(238, 83, 79); fill-opacity: 1; opacity: 1;"/><path class="box" d="M108.53,196.96H118.06M108.53,197.96H118.06V193.22H108.53ZM113.29,197.96V205.63M113.29,193.22V188.57" style="vector-effect: none; stroke-width: 2px; stroke: rgb(238, 83, 79); stroke-opacity: 1; fill: rgb(238, 83, 79); fill-opacity: 1; opacity: 1;"/><path class="box" d="M127.98,167.11H137.51M127.98,197.96H137.51V166.11H127.98ZM132.74,197.96V201.88M132.74,166.11V159.11" style="vector-effect: none; stroke-width: 2px; stroke: rgb(38, 166, 154); stroke-opacity: 1; fill: rgb(38, 166, 154); fill-opacity: 1; opacity: 1;"/><path class="box" d="M147.42,127.3H156.95M147.42,166.13H156.95V126.3H147.42ZM152.19,166.13V173.5M152.19,126.3V117.9" style="vector-effect: none; stroke-width: 2px; stroke: rgb(38, 166, 154); stroke-opacity: 1; fill: rgb(38, 166, 154); fill-opacity: 1; opacity: 1;"/><path class="box" d="M166.87,122.38H176.4M166.87,126.3H176.4V121.38H166.87ZM171.64,126.3V145.03M171.64,121.38V91.88" style="vector-effect: none; stroke-width: 2px; stroke: rgb(38, 166, 154); stroke-opacity: 1; fill: rgb(38, 166, 154); fill-opacity: 1; opacity: 1;"/><path class="box" d="M186.32,120.31H195.85M186.32,121.31H195.85V120.26H186.32ZM191.09,121.31V139.93M191.09,120.26V104.39" style="vector-effect: none; stroke-width: 2px; stroke: rgb(38, 166, 154); stroke-opacity: 1; fill: rgb(38, 166, 154); fill-opacity: 1; opacity: 1;"/><path class="box" d="M205.77,85.36H215.3M205.77,120.26H215.3V84.36H205.77ZM210.53,120.26V122.9M210.53,84.36V77.64" style="vector-effect: none; stroke-width: 2px; stroke: rgb(38, 166, 154); stroke-opacity: 1; fill: rgb(38, 166, 154); fill-opacity: 1; opacity: 1;"/><path class="box" d="M225.22,83.33H234.75M225.22,84.36H234.75V82.33H225.22ZM229.98,84.36V98.97M229.98,82.33V71.3" style="vector-effect: none; stroke-width: 2px; stroke: rgb(38, 166, 154); stroke-opacity: 1; fill: rgb(38, 166, 154); fill-opacity: 1; opacity: 1;"/><path class="box" d="M244.67,93.51H254.2M244.67,94.51H254.2V82.33H244.67ZM249.43,94.51V128.34M249.43,82.33V80.39" style="vector-effect: none; stroke-width: 2px; stroke: rgb(238, 83, 79); stroke-opacity: 1; fill: rgb(238, 83, 79); fill-opacity: 1; opacity: 1;"/><path class="box" d="M264.11,95.54H273.64M264.11,96.47H273.64V94.54H264.11ZM268.88,96.47V111.96M268.88,94.54V79.71" style="vector-effect: none; stroke-width: 2px; stroke: rgb(238, 83, 79); stroke-opacity: 1; fill: rgb(238, 83, 79); fill-opacity: 1; opacity: 1;"/><path class="box" d="M283.56,64.13H293.09M283.56,96.47H293.09V63.13H283.56ZM288.33,96.47V111.2M288.33,63.13V52.22" style="vector-effect: none; stroke-width: 2px; stroke: rgb(38, 166, 154); stroke-opacity: 1; fill: rgb(38, 166, 154); fill-opacity: 1; opacity: 1;"/><path class="box" d="M303.01,80.69H312.54M303.01,81.69H312.54V63.13H303.01ZM307.78,81.69V90.9M307.78,63.13V49.48" style="vector-effect: none; stroke-width: 2px; stroke: rgb(238, 83, 79); stroke-opacity: 1; fill: rgb(238, 83, 79); fill-opacity: 1; opacity: 1;"/><path class="box" d="M322.46,146.76H331.99M322.46,147.76H331.99V81.7H322.46ZM327.22,147.76V188.24M327.22,81.7V73.44" style="vector-effect: none; stroke-width: 2px; stroke: rgb(238, 83, 79); stroke-opacity: 1; fill: rgb(238, 83, 79); fill-opacity: 1; opacity: 1;"/><path class="box" d="M341.91,148.18H351.44M341.91,148.18H351.44V147.76H341.91ZM346.67,148.18V177.71M346.67,147.76V134.79" style="vector-effect: none; stroke-width: 2px; stroke: rgb(238, 83, 79); stroke-opacity: 1; fill: rgb(238, 83, 79); fill-opacity: 1; opacity: 1;"/><path class="box" d="M361.36,124.75H370.89M361.36,148.18H370.89V123.75H361.36ZM366.12,148.18V159.71M366.12,123.75V116.99" style="vector-effect: none; stroke-width: 2px; stroke: rgb(38, 166, 154); stroke-opacity: 1; fill: rgb(38, 166, 154); fill-opacity: 1; opacity: 1;"/><path class="box" d="M380.8,105.17H390.33M380.8,123.75H390.33V104.17H380.8ZM385.57,123.75V132.29M385.57,104.17V96.8" style="vector-effect: none; stroke-width: 2px; stroke: rgb(38, 166, 154); stroke-opacity: 1; fill: rgb(38, 166, 154); fill-opacity: 1; opacity: 1;"/><path class="box" d="M400.25,41.57H409.78M400.25,104.17H409.78V40.57H400.25ZM405.02,104.17V104.17M405.02,40.57V33.53" style="vector-effect: none; stroke-width: 2px; stroke: rgb(38, 166, 154); stroke-opacity: 1; fill: rgb(38, 166, 154); fill-opacity: 1; opacity: 1;"/><path class="box" d="M419.7,78.76H429.23M419.7,79.76H429.23V40.57H419.7ZM424.47,79.76V111.91M424.47,40.57V32.48" style="vector-effect: none; stroke-width: 2px; stroke: rgb(238, 83, 79); stroke-opacity: 1; fill: rgb(238, 83, 79); fill-opacity: 1; opacity: 1;"/><path class="box" d="M439.15,62.27H448.68M439.15,79.76H448.68V61.27H439.15ZM443.91,79.76V98.07M443.91,61.27V55.46" style="vector-effect: none; stroke-width: 2px; stroke: rgb(38, 166, 154); stroke-opacity: 1; fill: rgb(38, 166, 154); fill-opacity: 1; opacity: 1;"/><path class="box" d="M458.6,53.1H468.13M458.6,61.27H468.13V52.1H458.6ZM463.36,61.27V75.45M463.36,52.1V44.69" style="vector-effect: none; stroke-width: 2px; stroke: rgb(38, 166, 154); stroke-opacity: 1; fill: rgb(38, 166, 154); fill-opacity: 1; opacity: 1;"/><path class="box" d="M478.05,83.57H487.58M478.05,84.57H487.58V52.08H478.05ZM482.81,84.57V88.16M482.81,52.08V47.68" style="vector-effect: none; stroke-width: 2px; stroke: rgb(238, 83, 79); stroke-opacity: 1; fill: rgb(238, 83, 79); fill-opacity: 1; opacity: 1;"/><path class="box" d="M497.49,64.65H507.02M497.49,84.57H507.02V63.65H497.49ZM502.26,84.57V90.91M502.26,63.65V62.41" style="vector-effect: none; stroke-width: 2px; stroke: rgb(38, 166, 154); stroke-opacity: 1; fill: rgb(38, 166, 154); fill-opacity: 1; opacity: 1;"/><path class="box" d="M516.94,55.73H526.47M516.94,63.65H526.47V54.73H516.94ZM521.71,63.65V75.88M521.71,54.73V52.18" style="vector-effect: none; stroke-width: 2px; stroke: rgb(38, 166, 154); stroke-opacity: 1; fill: rgb(38, 166, 154); fill-opacity: 1; opacity: 1;"/><path class="box" d="M536.39,61.84H545.92M536.39,62.84H545.92V54.76H536.39ZM541.16,62.84V73.95M541.16,54.76V52.14" style="vector-effect: none; stroke-width: 2px; stroke: rgb(238, 83, 79); stroke-opacity: 1; fill: rgb(238, 83, 79); fill-opacity: 1; opacity: 1;"/><path class="box" d="M555.84,97.31H565.37M555.84,98.31H565.37V62.84H555.84ZM560.6,98.31V103.54M560.6,62.84V57.45" style="vector-effect: none; stroke-width: 2px; stroke: rgb(238, 83, 79); stroke-opacity: 1; fill: rgb(238, 83, 79); fill-opacity: 1; opacity: 1;"/><path class="box" d="M575.29,90.17H584.82M575.29,98.31H584.82V89.17H575.29ZM580.05,98.31V126.69M580.05,89.17V85.03" style="vector-effect: none; stroke-width: 2px; stroke: rgb(38, 166, 154); stroke-opacity: 1; fill: rgb(38, 166, 154); fill-opacity: 1; opacity: 1;"/><path class="box" d="M594.74,100.24H604.26M594.74,101.24H604.26V89.17H594.74ZM599.5,101.24V115.7M599.5,89.17V88.5" style="vector-effect: none; stroke-width: 2px; stroke: rgb(238, 83, 79); stroke-opacity: 1; fill: rgb(238, 83, 79); fill-opacity: 1; opacity: 1;"/></g></g><g class="scatterlayer mlayer"><g class="trace scatter tracea2d8d09b-8411-4e09-a5fe-ffacfb4f9d62" style="stroke-miterlimit: 2; opacity: 1;"><g class="fills"/><g class="errorbars"/><g class="lines"><path class="js-line" d="M35.5,211.28L132.74,144.96L152.19,134.35L171.64,118.43L191.09,105.17L249.43,65.37L268.88,57.41L288.33,75.98L307.78,89.25L346.67,115.78L366.12,134.35L385.57,126.39L405.02,113.12L463.36,73.33L482.81,57.41L502.26,68.03L521.71,81.29L599.5,134.35" style="vector-effect: none; fill: none; stroke: rgb(23, 190, 207); stroke-opacity: 0.75; stroke-dasharray: 3px, 3px; stroke-width: 2px; opacity: 1;"/></g><g class="points"/><g class="text"/></g><g class="trace scatter trace44d52b54-09b8-4f87-897f-5f56f6ce3c0b" style="stroke-miterlimit: 2; opacity: 1;"><g class="fills"/><g class="errorbars"/><g class="lines"><path class="js-line" d="M35.5,244.2L268.88,98.03L366.12,171.11L482.81,98.03L599.5,171.11" style="vector-effect: none; fill: none; stroke: rgb(127, 127, 127); stroke-opacity: 0.5; stroke-dasharray: 3px, 3px; stroke-width: 2px; opacity: 1;"/></g><g class="points"><path class="point" transform="translate(35.5,244.2)" d="M3,0A3,3 0 1,1 0,-3A3,3 0 0,1 3,0Z" style="opacity: 1; stroke-width: 0px; fill: rgb(227, 119, 194); fill-opacity: 0.5;"/><path class="point" transform="translate(152.19,171.11)" d="M3,0A3,3 0 1,1 0,-3A3,3 0 0,1 3,0Z" style="opacity: 1; stroke-width: 0px; fill: rgb(227, 119, 194); fill-opacity: 0.5;"/><path class="point" transform="translate(268.88,98.03)" d="M3,0A3,3 0 1,1 0,-3A3,3 0 0,1 3,0Z" style="opacity: 1; stroke-width: 0px; fill: rgb(227, 119, 194); fill-opacity: 0.5;"/><path class="point" transform="translate(366.12,171.11)" d="M3,0A3,3 0 1,1 0,-3A3,3 0 0,1 3,0Z" style="opacity: 1; stroke-width: 0px; fill: rgb(227, 119, 194); fill-opacity: 0.5;"/><path class="point" transform="translate(482.81,98.03)" d="M3,0A3,3 0 1,1 0,-3A3,3 0 0,1 3,0Z" style="opacity: 1; stroke-width: 0px; fill: rgb(227, 119, 194); fill-opacity: 0.5;"/><path class="point" transform="translate(599.5,171.11)" d="M3,0A3,3 0 1,1 0,-3A3,3 0 0,1 3,0Z" style="opacity: 1; stroke-width: 0px; fill: rgb(227, 119, 194); fill-opacity: 0.5;"/></g><g class="text"/></g><g class="trace scatter trace30088a67-88a5-4ef4-a72e-23fd14466e34" style="stroke-miterlimit: 2; opacity: 1;"><g class="fills"/><g class="errorbars"/><g class="lines"><path class="js-line" d="M35.5,178.36L268.88,16.8L366.12,97.58L482.81,16.8L599.5,97.58" style="vector-effect: none; fill: none; stroke: rgb(127, 127, 127); stroke-opacity: 0.5; stroke-dasharray: 3px, 3px; stroke-width: 2px; opacity: 1;"/></g><g class="points"><path class="point" transform="translate(35.5,178.36)" d="M3,0A3,3 0 1,1 0,-3A3,3 0 0,1 3,0Z" style="opacity: 1; stroke-width: 0px; fill: rgb(227, 119, 194); fill-opacity: 0.5;"/><path class="point" transform="translate(152.19,97.58)" d="M3,0A3,3 0 1,1 0,-3A3,3 0 0,1 3,0Z" style="opacity: 1; stroke-width: 0px; fill: rgb(227, 119, 194); fill-opacity: 0.5;"/><path class="point" transform="translate(268.88,16.8)" d="M3,0A3,3 0 1,1 0,-3A3,3 0 0,1 3,0Z" style="opacity: 1; stroke-width: 0px; fill: rgb(227, 119, 194); fill-opacity: 0.5;"/><path class="point" transform="translate(366.12,97.58)" d="M3,0A3,3 0 1,1 0,-3A3,3 0 0,1 3,0Z" style="opacity: 1; stroke-width: 0px; fill: rgb(227, 119, 194); fill-opacity: 0.5;"/><path class="point" transform="translate(482.81,16.8)" d="M3,0A3,3 0 1,1 0,-3A3,3 0 0,1 3,0Z" style="opacity: 1; stroke-width: 0px; fill: rgb(227, 119, 194); fill-opacity: 0.5;"/><path class="point" transform="translate(599.5,97.58)" d="M3,0A3,3 0 1,1 0,-3A3,3 0 0,1 3,0Z" style="opacity: 1; stroke-width: 0px; fill: rgb(227, 119, 194); fill-opacity: 0.5;"/></g><g class="text"/></g></g></g><g class="overplot"/><path class="xlines-above crisp" d="M0,0" style="fill: none;"/><path class="ylines-above crisp" d="M0,0" style="fill: none;"/><g class="overlines-above"/><g class="xaxislayer-above"><g class="xtick"><text text-anchor="middle" x="0" y="320" transform="translate(148.29000000000002,0)" style="font-family: 'Open Sans', verdana, arial, sans-serif; font-size: 12px; fill: rgb(42, 63, 95); fill-opacity: 1; white-space: pre; opacity: 1;"><tspan class="line" dy="0em" x="0" y="320">Nov 15</tspan><tspan class="line" dy="1.3em" x="0" y="320">2020</tspan></text></g><g class="xtick"><text text-anchor="middle" x="0" y="320" style="font-family: 'Open Sans', verdana, arial, sans-serif; font-size: 12px; fill: rgb(42, 63, 95); fill-opacity: 1; white-space: pre; opacity: 1;" transform="translate(284.43,0)">Nov 22</text></g><g class="xtick"><text text-anchor="middle" x="0" y="320" style="font-family: 'Open Sans', verdana, arial, sans-serif; font-size: 12px; fill: rgb(42, 63, 95); fill-opacity: 1; white-space: pre; opacity: 1;" transform="translate(420.57,0)">Nov 29</text></g><g class="xtick"><text text-anchor="middle" x="0" y="320" style="font-family: 'Open Sans', verdana, arial, sans-serif; font-size: 12px; fill: rgb(42, 63, 95); fill-opacity: 1; white-space: pre; opacity: 1;" transform="translate(556.71,0)">Dec 6</text></g></g><g class="yaxislayer-above"><g class="ytick"><text text-anchor="end" x="34" y="4.199999999999999" transform="translate(0,284.25)" style="font-family: 'Open Sans', verdana, arial, sans-serif; font-size: 12px; fill: rgb(42, 63, 95); fill-opacity: 1; white-space: pre; opacity: 1;">15k</text></g><g class="ytick"><text text-anchor="end" x="34" y="4.199999999999999" style="font-family: 'Open Sans', verdana, arial, sans-serif; font-size: 12px; fill: rgb(42, 63, 95); fill-opacity: 1; white-space: pre; opacity: 1;" transform="translate(0,242.15)">16k</text></g><g class="ytick"><text text-anchor="end" x="34" y="4.199999999999999" style="font-family: 'Open Sans', verdana, arial, sans-serif; font-size: 12px; fill: rgb(42, 63, 95); fill-opacity: 1; white-space: pre; opacity: 1;" transform="translate(0,200.05)">17k</text></g><g class="ytick"><text text-anchor="end" x="34" y="4.199999999999999" style="font-family: 'Open Sans', verdana, arial, sans-serif; font-size: 12px; fill: rgb(42, 63, 95); fill-opacity: 1; white-space: pre; opacity: 1;" transform="translate(0,157.95999999999998)">18k</text></g><g class="ytick"><text text-anchor="end" x="34" y="4.199999999999999" style="font-family: 'Open Sans', verdana, arial, sans-serif; font-size: 12px; fill: rgb(42, 63, 95); fill-opacity: 1; white-space: pre; opacity: 1;" transform="translate(0,115.86)">19k</text></g><g class="ytick"><text text-anchor="end" x="34" y="4.199999999999999" style="font-family: 'Open Sans', verdana, arial, sans-serif; font-size: 12px; fill: rgb(42, 63, 95); fill-opacity: 1; white-space: pre; opacity: 1;" transform="translate(0,73.77)">20k</text></g></g><g class="overaxes-above"/></g></g><g class="polarlayer"/><g class="smithlayer"/><g class="ternarylayer"/><g class="geolayer"/><g class="funnelarealayer"/><g class="pielayer"/><g class="iciclelayer"/><g class="treemaplayer"/><g class="sunburstlayer"/><g class="glimages"/><defs id="topdefs-de97b3"><g class="clips"/><clipPath id="legendde97b3"><rect width="271" height="29" x="0" y="0"/></clipPath></defs><g class="layer-above"><g class="imagelayer"/><g class="shapelayer"/></g><g class="infolayer"><g class="legend" pointer-events="all" transform="translate(399,11.779999999999994)"><rect class="bg" shape-rendering="crispEdges" width="271" height="29" x="0" y="0" style="stroke: rgb(68, 68, 68); stroke-opacity: 1; fill: rgb(255, 255, 255); fill-opacity: 1; stroke-width: 0px;"/><g class="scrollbox" transform="" clip-path="url(#legendde97b3)"><g class="groups"><g class="traces" transform="translate(0,14.5)" style="opacity: 1;"><text class="legendtext" text-anchor="start" x="40" y="4.680000000000001" style="font-family: 'Open Sans', verdana, arial, sans-serif; font-size: 12px; fill: rgb(42, 63, 95); fill-opacity: 1; white-space: pre;">OHLC</text><g class="layers" style="opacity: 0.75;"><g class="legendfill"/><g class="legendlines"/><g class="legendsymbols"><g class="legendpoints"><path class="legendcandle" d="M15,0H8M8,-6V6H-8Z" transform="translate(20,0)" style="stroke-miterlimit: 1; stroke-width: 2px; fill: rgb(238, 83, 79); fill-opacity: 1; stroke: rgb(238, 83, 79); stroke-opacity: 1;"/><path class="legendcandle" d="M-15,0H-8M-8,6V-6H8Z" transform="translate(20,0)" style="stroke-miterlimit: 1; stroke-width: 2px; fill: rgb(38, 166, 154); fill-opacity: 1; stroke: rgb(38, 166, 154); stroke-opacity: 1;"/></g></g></g><rect class="legendtoggle" x="0" y="-9.5" width="76.03125" height="19" style="fill: rgb(0, 0, 0); fill-opacity: 0;"/></g><g class="traces" transform="translate(78.53125,14.5)" style="opacity: 1;"><text class="legendtext" text-anchor="start" x="40" y="4.680000000000001" style="font-family: 'Open Sans', verdana, arial, sans-serif; font-size: 12px; fill: rgb(42, 63, 95); fill-opacity: 1; white-space: pre;">Pattern</text><g class="layers" style="opacity: 1;"><g class="legendfill"/><g class="legendlines"><path class="js-line" d="M5,0h30" style="fill: none; stroke: rgb(23, 190, 207); stroke-opacity: 0.75; stroke-dasharray: 3px, 3px; stroke-width: 2px;"/></g><g class="legendsymbols"><g class="legendpoints"/></g></g><rect class="legendtoggle" x="0" y="-9.5" width="86.265625" height="19" style="fill: rgb(0, 0, 0); fill-opacity: 0;"/></g><g class="traces" transform="translate(167.296875,14.5)" style="opacity: 1;"><text class="legendtext" text-anchor="start" x="40" y="4.680000000000001" style="font-family: 'Open Sans', verdana, arial, sans-serif; font-size: 12px; fill: rgb(42, 63, 95); fill-opacity: 1; white-space: pre;">Max error</text><g class="layers" style="opacity: 1;"><g class="legendfill"/><g class="legendlines"><path class="js-line" d="M5,0h30" style="fill: none; stroke: rgb(127, 127, 127); stroke-opacity: 0.5; stroke-dasharray: 3px, 3px; stroke-width: 2px;"/></g><g class="legendsymbols"><g class="legendpoints"><path class="scatterpts" transform="translate(20,0)" d="M3,0A3,3 0 1,1 0,-3A3,3 0 0,1 3,0Z" style="opacity: 1; stroke-width: 0px; fill: rgb(227, 119, 194); fill-opacity: 0.5;"/></g></g></g><rect class="legendtoggle" x="0" y="-9.5" width="100.984375" height="19" style="fill: rgb(0, 0, 0); fill-opacity: 0;"/></g></g></g><rect class="scrollbar" rx="20" ry="3" width="0" height="0" x="0" y="0" style="fill: rgb(128, 139, 164); fill-opacity: 1;"/></g><g class="g-gtitle"/><g class="g-xtitle"/><g class="g-ytitle"/></g></svg>