<svg class="main-svg" xmlns="http://www.w3.org/2000/svg" xmlns:xlink="http://www.w3.org/1999/xlink" width="700" height="350" style="" viewBox="0 0 700 350"><rect x="0" y="0" width="700" height="350" style="fill: rgb(33, 34, 38); fill-opacity: 1;"/><defs id="defs-038543"><g class="clips"><clipPath id="clip038543xyplot" class="plotclip"><rect width="635" height="261"/></clipPath><clipPath class="axesclip" id="clip038543x"><rect x="35" y="0" width="635" height="350"/></clipPath><clipPath class="axesclip" id="clip038543y"><rect x="0" y="46" width="700" height="261"/></clipPath><clipPath class="axesclip" id="clip038543xy"><rect x="35" y="46" width="635" height="261"/></clipPath></g><g class="gradients"/><g class="patterns"/></defs><g class="bglayer"/><g class="layer-below"><g class="imagelayer"/><g class="shapelayer"/></g><g class="cartesianlayer"><g class="subplot xy"><g class="layer-subplot"><g class="shapelayer"/><g class="imagelayer"/></g><g class="minor-gridlayer"><g class="x"/><g class="y"/></g><g class="gridlayer"><g class="x"><path class="xgrid crisp" transform="translate(89.95,0)" d="M0,46v261" style="stroke: rgb(49, 52, 57); stroke-opacity: 1; stroke-width: 1px;"/><path class="xgrid crisp" transform="translate(226.09,0)" d="M0,46v261" style="stroke: rgb(49, 52, 57); stroke-opacity: 1; stroke-width: 1px;"/><path class="xgrid crisp" transform="translate(362.22,0)" d="M0,46v261" style="stroke: rgb(49, 52, 57); stroke-opacity: 1; stroke-width: 1px;"/><path class="xgrid crisp" transform="translate(498.36,0)" d="M0,46v261" style="stroke: rgb(49, 52, 57); stroke-opacity: 1; stroke-width: 1px;"/><path class="xgrid crisp" transform="translate(634.5,0)" d="M0,46v261" style="stroke: rgb(49, 52, 57); stroke-opacity: 1; stroke-width: 1px;"/></g><g class="y"><path class="ygrid crisp" transform="translate(0,240.92)" d="M35,0h635" style="stroke: rgb(49, 52, 57); stroke-opacity: 1; stroke-width: 1px;"/><path class="ygrid crisp" transform="translate(0,160.57)" d="M35,0h635" style="stroke: rgb(49, 52, 57); stroke-opacity: 1; stroke-width: 1px;"/><path class="ygrid crisp" transform="translate(0,80.22)" d="M35,0h635" style="stroke: rgb(49, 52, 57); stroke-opacity: 1; stroke-width: 1px;"/></g></g><g class="zerolinelayer"/><path class="xlines-below"/><path class="ylines-below"/><g class="overlines-below"/><g class="xaxislayer-below"/><g class="yaxislayer-below"/><g class="overaxes-below"/><g class="plot" transform="translate(35,46)" clip-path="url(#clip038543xyplot)"><g class="boxlayer mlayer"><g class="trace boxes" style="opacity: 0.75;"><path class="box" d="M30.74,71.3H40.26M30.74,72.3H40.26V56.78H30.74ZM35.5,72.3V73.14M35.5,56.78V53.58" style="vector-effect: none; stroke-width: 2px; stroke: rgb(238, 83, 79); stroke-opacity: 1; fill: rgb(238, 83, 79); fill-opacity: 1; opacity: 1;"/><path class="box" d="M50.18,59.84H59.71M50.18,72.3H59.71V58.84H50.18ZM54.95,72.3V76.22M54.95,58.84V55.52" style="vector-effect: none; stroke-width: 2px; stroke: rgb(38, 166, 154); stroke-opacity: 1; fill: rgb(38, 166, 154); fill-opacity: 1; opacity: 1;"/><path class="box" d="M69.63,57.92H79.16M69.63,58.84H79.16V57.92H69.63ZM74.4,58.84V65.53M74.4,57.92V47.61" style="vector-effect: none; stroke-width: 2px; stroke: rgb(38, 166, 154); stroke-opacity: 1; fill: rgb(38, 166, 154); fill-opacity: 1; opacity: 1;"/><path class="box" d="M89.08,69.72H98.61M89.08,70.72H98.61V57.92H89.08ZM93.84,70.72V74.11M93.84,57.92V55.89" style="vector-effect: none; stroke-width: 2px; stroke: rgb(238, 83, 79); stroke-opacity: 1; fill: rgb(238, 83, 79); fill-opacity: 1; opacity: 1;"/><path class="box" d="M108.53,40.21H118.06M108.53,70.72H118.06V39.21H108.53ZM113.29,70.72V71.67M113.29,39.21V33.84" style="vector-effect: none; stroke-width: 2px; stroke: rgb(38, 166, 154); stroke-opacity: 1; fill: rgb(38, 166, 154); fill-opacity: 1; opacity: 1;"/><path class="box" d="M127.98,88.62H137.51M127.98,89.62H137.51V39.21H127.98ZM132.74,89.62V105.38M132.74,39.21V36.71" style="vector-effect: none; stroke-width: 2px; stroke: rgb(238, 83, 79); stroke-opacity: 1; fill: rgb(238, 83, 79); fill-opacity: 1; opacity: 1;"/><path class="box" d="M147.42,97.28H156.95M147.42,98.28H156.95V89.62H147.42ZM152.19,98.28V110.43M152.19,89.62V87.65" style="vector-effect: none; stroke-width: 2px; stroke: rgb(238, 83, 79); stroke-opacity: 1; fill: rgb(238, 83, 79); fill-opacity: 1; opacity: 1;"/><path class="box" d="M166.87,105.98H176.4M166.87,106.98H176.4V98.28H166.87ZM171.64,106.98V118.03M171.64,98.28V96.15" style="vector-effect: none; stroke-width: 2px; stroke: rgb(238, 83, 79); stroke-opacity: 1; fill: rgb(238, 83, 79); fill-opacity: 1; opacity: 1;"/><path class="box" d="M186.32,129.02H195.85M186.32,130.02H195.85V106.98H186.32ZM191.09,130.02V135.24M191.09,106.98V106.31" style="vector-effect: none; stroke-width: 2px; stroke: rgb(238, 83, 79); stroke-opacity: 1; fill: rgb(238, 83, 79); fill-opacity: 1; opacity: 1;"/><path class="box" d="M205.77,192.69H215.3M205.77,193.69H215.3V130.03H205.77ZM210.53,193.69V194.38M210.53,130.03V126.73" style="vector-effect: none; stroke-width: 2px; stroke: rgb(238, 83, 79); stroke-opacity: 1; fill: rgb(238, 83, 79); fill-opacity: 1; opacity: 1;"/><path class="box" d="M225.22,179.58H234.75M225.22,193.73H234.75V178.58H225.22ZM229.98,193.73V199.25M229.98,178.58V152.19" style="vector-effect: none; stroke-width: 2px; stroke: rgb(38, 166, 154); stroke-opacity: 1; fill: rgb(38, 166, 154); fill-opacity: 1; opacity: 1;"/><path class="box" d="M244.67,208.32H254.2M244.67,209.32H254.2V178.58H244.67ZM249.43,209.32V230.51M249.43,178.58V160.17" style="vector-effect: none; stroke-width: 2px; stroke: rgb(238, 83, 79); stroke-opacity: 1; fill: rgb(238, 83, 79); fill-opacity: 1; opacity: 1;"/><path class="box" d="M264.11,210.32H273.64M264.11,210.51H273.64V209.32H264.11ZM268.88,210.51V247.95M268.88,209.32V191.02" style="vector-effect: none; stroke-width: 2px; stroke: rgb(238, 83, 79); stroke-opacity: 1; fill: rgb(238, 83, 79); fill-opacity: 1; opacity: 1;"/><path class="box" d="M283.56,207.38H293.09M283.56,210.51H293.09V206.38H283.56ZM288.33,210.51V214.98M288.33,206.38V177.51" style="vector-effect: none; stroke-width: 2px; stroke: rgb(38, 166, 154); stroke-opacity: 1; fill: rgb(38, 166, 154); fill-opacity: 1; opacity: 1;"/><path class="box" d="M303.01,194.53H312.54M303.01,206.38H312.54V193.53H303.01ZM307.78,206.38V216.94M307.78,193.53V189.4" style="vector-effect: none; stroke-width: 2px; stroke: rgb(38, 166, 154); stroke-opacity: 1; fill: rgb(38, 166, 154); fill-opacity: 1; opacity: 1;"/><path class="box" d="M322.46,174.57H331.99M322.46,193.53H331.99V173.57H322.46ZM327.22,193.53V203.28M327.22,173.57V171.46" style="vector-effect: none; stroke-width: 2px; stroke: rgb(38, 166, 154); stroke-opacity: 1; fill: rgb(38, 166, 154); fill-opacity: 1; opacity: 1;"/><path class="box" d="M341.91,195.94H351.44M341.91,196.94H351.44V173.57H341.91ZM346.67,196.94V209.59M346.67,173.57V173.57" style="vector-effect: none; stroke-width: 2px; stroke: rgb(238, 83, 79); stroke-opacity: 1; fill: rgb(238, 83, 79); fill-opacity: 1; opacity: 1;"/><path class="box" d="M361.36,188.77H370.89M361.36,196.94H370.89V187.77H361.36ZM366.12,196.94V203.75M366.12,187.77V182.25" style="vector-effect: none; stroke-width: 2px; stroke: rgb(38, 166, 154); stroke-opacity: 1; fill: rgb(38, 166, 154); fill-opacity: 1; opacity: 1;"/><path class="box" d="M380.8,214.56H390.33M380.8,215.56H390.33V187.77H380.8ZM385.57,215.56V216.54M385.57,187.77V183.51" style="vector-effect: none; stroke-width: 2px; stroke: rgb(238, 83, 79); stroke-opacity: 1; fill: rgb(238, 83, 79); fill-opacity: 1; opacity: 1;"/><path class="box" d="M400.25,190.79H409.78M400.25,215.56H409.78V189.79H400.25ZM405.02,215.56V215.95M405.02,189.79V186.16" style="vector-effect: none; stroke-width: 2px; stroke: rgb(38, 166, 154); stroke-opacity: 1; fill: rgb(38, 166, 154); fill-opacity: 1; opacity: 1;"/><path class="box" d="M419.7,206.76H429.23M419.7,207.76H429.23V189.79H419.7ZM424.47,207.76V215.33M424.47,189.79V182.43" style="vector-effect: none; stroke-width: 2px; stroke: rgb(238, 83, 79); stroke-opacity: 1; fill: rgb(238, 83, 79); fill-opacity: 1; opacity: 1;"/><path class="box" d="M439.15,204.84H448.68M439.15,207.76H448.68V203.84H439.15ZM443.91,207.76V211.84M443.91,203.84V200.45" style="vector-effect: none; stroke-width: 2px; stroke: rgb(38, 166, 154); stroke-opacity: 1; fill: rgb(38, 166, 154); fill-opacity: 1; opacity: 1;"/><path class="box" d="M458.6,191.2H468.13M458.6,203.84H468.13V190.2H458.6ZM463.36,203.84V206.89M463.36,190.2V187.08" style="vector-effect: none; stroke-width: 2px; stroke: rgb(38, 166, 154); stroke-opacity: 1; fill: rgb(38, 166, 154); fill-opacity: 1; opacity: 1;"/><path class="box" d="M478.05,208.24H487.58M478.05,209.24H487.58V190.2H478.05ZM482.81,209.24V213.14M482.81,190.2V184.15" style="vector-effect: none; stroke-width: 2px; stroke: rgb(238, 83, 79); stroke-opacity: 1; fill: rgb(238, 83, 79); fill-opacity: 1; opacity: 1;"/><path class="box" d="M497.49,201.47H507.02M497.49,209.24H507.02V200.47H497.49ZM502.26,209.24V216.31M502.26,200.47V197.4" style="vector-effect: none; stroke-width: 2px; stroke: rgb(38, 166, 154); stroke-opacity: 1; fill: rgb(38, 166, 154); fill-opacity: 1; opacity: 1;"/><path class="box" d="M516.94,201.47H526.47M516.94,202.28H526.47V200.47H516.94ZM521.71,202.28V206.26M521.71,200.47V191.32" style="vector-effect: none; stroke-width: 2px; stroke: rgb(238, 83, 79); stroke-opacity: 1; fill: rgb(238, 83, 79); fill-opacity: 1; opacity: 1;"/><path class="box" d="M536.39,206.75H545.92M536.39,207.75H545.92V202.28H536.39ZM541.16,207.75V226.75M541.16,202.28V196.74" style="vector-effect: none; stroke-width: 2px; stroke: rgb(238, 83, 79); stroke-opacity: 1; fill: rgb(238, 83, 79); fill-opacity: 1; opacity: 1;"/><path class="box" d="M555.84,215.94H565.37M555.84,216.94H565.37V207.75H555.84ZM560.6,216.94V222.51M560.6,207.75V204.6" style="vector-effect: none; stroke-width: 2px; stroke: rgb(238, 83, 79); stroke-opacity: 1; fill: rgb(238, 83, 79); fill-opacity: 1; opacity: 1;"/><path class="box" d="M575.29,211.49H584.82M575.29,216.94H584.82V210.49H575.29ZM580.05,216.94V219.83M580.05,210.49V206.72" style="vector-effect: none; stroke-width: 2px; stroke: rgb(38, 166, 154); stroke-opacity: 1; fill: rgb(38, 166, 154); fill-opacity: 1; opacity: 1;"/><path class="box" d="M594.74,204.47H604.26M594.74,210.49H604.26V203.47H594.74ZM599.5,210.49V213.57M599.5,203.47V201.54" style="vector-effect: none; stroke-width: 2px; stroke: rgb(38, 166, 154); stroke-opacity: 1; fill: rgb(38, 166, 154); fill-opacity: 1; opacity: 1;"/></g></g><g class="scatterlayer mlayer"><g class="trace scatter trace3643da64-1a9a-4306-973a-976cfa117198" style="stroke-miterlimit: 2; opacity: 1;"><g class="fills"/><g class="errorbars"/><g class="lines"><path class="js-line" d="M35.5,48.24L132.74,120.76L152.19,132.37L171.64,149.77L191.09,164.28L249.43,207.79L268.88,216.49L288.33,196.19L307.78,181.68L346.67,152.67L366.12,132.37L385.57,141.07L405.02,155.57L463.36,199.09L482.81,216.49L502.26,204.89L521.71,190.38L599.5,132.37" style="vector-effect: none; fill: none; stroke: rgb(23, 190, 207); stroke-opacity: 0.75; stroke-dasharray: 3px, 3px; stroke-width: 2px; opacity: 1;"/></g><g class="points"/><g class="text"/></g><g class="trace scatter trace5b2a53cb-22fb-47e9-b76c-7f6a11ca51ba" style="stroke-miterlimit: 2; opacity: 1;"><g class="fills"/><g class="errorbars"/><g class="lines"><path class="js-line" d="M35.5,79.68L268.88,239.52L366.12,159.6L482.81,239.52L599.5,159.6" style="vector-effect: none; fill: none; stroke: rgb(127, 127, 127); stroke-opacity: 0.5; stroke-dasharray: 3px, 3px; stroke-width: 2px; opacity: 1;"/></g><g class="points"><path class="point" transform="translate(35.5,79.68)" d="M3,0A3,3 0 1,1 0,-3A3,3 0 0,1 3,0Z" style="opacity: 1; stroke-width: 0px; fill: rgb(227, 119, 194); fill-opacity: 0.5;"/><path class="point" transform="translate(152.19,159.6)" d="M3,0A3,3 0 1,1 0,-3A3,3 0 0,1 3,0Z" style="opacity: 1; stroke-width: 0px; fill: rgb(227, 119, 194); fill-opacity: 0.5;"/><path class="point" transform="translate(268.88,239.52)" d="M3,0A3,3 0 1,1 0,-3A3,3 0 0,1 3,0Z" style="opacity: 1; stroke-width: 0px; fill: rgb(227, 119, 194); fill-opacity: 0.5;"/><path class="point" transform="translate(366.12,159.6)" d="M3,0A3,3 0 1,1 0,-3A3,3 0 0,1 3,0Z" style="opacity: 1; stroke-width: 0px; fill: rgb(227, 119, 194); fill-opacity: 0.5;"/><path class="point" transform="translate(482.81,239.52)" d="M3,0A3,3 0 1,1 0,-3A3,3 0 0,1 3,0Z" style="opacity: 1; stroke-width: 0px; fill: rgb(227, 119, 194); fill-opacity: 0.5;"/><path class="point" transform="translate(599.5,159.6)" d="M3,0A3,3 0 1,1 0,-3A3,3 0 0,1 3,0Z" style="opacity: 1; stroke-width: 0px; fill: rgb(227, 119, 194); fill-opacity: 0.5;"/></g><g class="text"/></g><g class="trace scatter trace6b58eadf-a221-4303-b408-7b9c51169ef7" style="stroke-miterlimit: 2; opacity: 1;"><g class="fills"/><g class="errorbars"/><g class="lines"><path class="js-line" d="M35.5,16.8L268.88,193.47L366.12,105.13L482.81,193.47L599.5,105.13" style="vector-effect: none; fill: none; stroke: rgb(127, 127, 127); stroke-opacity: 0.5; stroke-dasharray: 3px, 3px; stroke-width: 2px; opacity: 1;"/></g><g class="points"><path class="point" transform="translate(35.5,16.8)" d="M3,0A3,3 0 1,1 0,-3A3,3 0 0,1 3,0Z" style="opacity: 1; stroke-width: 0px; fill: rgb(227, 119, 194); fill-opacity: 0.5;"/><path class="point" transform="translate(152.19,105.13)" d="M3,0A3,3 0 1,1 0,-3A3,3 0 0,1 3,0Z" style="opacity: 1; stroke-width: 0px; fill: rgb(227, 119, 194); fill-opacity: 0.5;"/><path class="point" transform="translate(268.88,193.47)" d="M3,0A3,3 0 1,1 0,-3A3,3 0 0,1 3,0Z" style="opacity: 1; stroke-width: 0px; fill: rgb(227, 119, 194); fill-opacity: 0.5;"/><path class="point" transform="translate(366.12,105.13)" d="M3,0A3,3 0 1,1 0,-3A3,3 0 0,1 3,0Z" style="opacity: 1; stroke-width: 0px; fill: rgb(227, 119, 194); fill-opacity: 0.5;"/><path class="point" transform="translate(482.81,193.47)" d="M3,0A3,3 0 1,1 0,-3A3,3 0 0,1 3,0Z" style="opacity: 1; stroke-width: 0px; fill: rgb(227, 119, 194); fill-opacity: 0.5;"/><path class="point" transform="translate(599.5,105.13)" d="M3,0A3,3 0 1,1 0,-3A3,3 0 0,1 3,0Z" style="opacity: 1; stroke-width: 0px; fill: rgb(227, 119, 194); fill-opacity: 0.5;"/></g><g class="text"/></g></g></g><g class="overplot"/><path class="xlines-above crisp" d="M0,0" style="fill: none;"/><path class="ylines-above crisp" d="M0,0" style="fill: none;"/><g class="overlines-above"/><g class="xaxislayer-above"><g class="xtick"><text text-anchor="middle" x="0" y="320" transform="translate(89.95,0)" style="font-family: 'Open Sans', verdana, arial, sans-serif; font-size: 12px; fill: rgb(214, 223, 239); fill-opacity: 1; white-space: pre; opacity: 1;"><tspan class="line" dy="0em" x="0" y="320">May 1</tspan><tspan class="line" dy="1.3em" x="0" y="320">2022</tspan></text></g><g class="xtick"><text text-anchor="middle" x="0" y="320" style="font-family: 'Open Sans', verdana, arial, sans-serif; font-size: 12px; fill: rgb(214, 223, 239); fill-opacity: 1; white-space: pre; opacity: 1;" transform="translate(226.09,0)">May 8</text></g><g class="xtick"><text text-anchor="middle" x="0" y="320" style="font-family: 'Open Sans', verdana, arial, sans-serif; font-size: 12px; fill: rgb(214, 223, 239); fill-opacity: 1; white-space: pre; opacity: 1;" transform="translate(362.22,0)">May 15</text></g><g class="xtick"><text text-anchor="middle" x="0" y="320" style="font-family: 'Open Sans', verdana, arial, sans-serif; font-size: 12px; fill: rgb(214, 223, 239); fill-opacity: 1; white-space: pre; opacity: 1;" transform="translate(498.36,0)">May 22</text></g><g class="xtick"><text text-anchor="middle" x="0" y="320" style="font-family: 'Open Sans', verdana, arial, sans-serif; font-size: 12px; fill: rgb(214, 223, 239); fill-opacity: 1; white-space: pre; opacity: 1;" transform="translate(634.5,0)">May 29</text></g></g><g class="yaxislayer-above"><g class="ytick"><text text-anchor="end" x="34" y="4.199999999999999" transform="translate(0,240.92)" style="font-family: 'Open Sans', verdana, arial, sans-serif; font-size: 12px; fill: rgb(214, 223, 239); fill-opacity: 1; white-space: pre; opacity: 1;">30k</text></g><g class="ytick"><text text-anchor="end" x="34" y="4.199999999999999" style="font-family: 'Open Sans', verdana, arial, sans-serif; font-size: 12px; fill: rgb(214, 223, 239); fill-opacity: 1; white-space: pre; opacity: 1;" transform="translate(0,160.57)">35k</text></g><g class="ytick"><text text-anchor="end" x="34" y="4.199999999999999" style="font-family: 'Open Sans', verdana, arial, sans-serif; font-size: 12px; fill: rgb(214, 223, 239); fill-opacity: 1; white-space: pre; opacity: 1;" transform="translate(0,80.22)">40k</text></g></g><g class="overaxes-above"/></g></g><g class="polarlayer"/><g class="smithlayer"/><g class="ternarylayer"/><g class="geolayer"/><g class="funnelarealayer"/><g class="pielayer"/><g class="iciclelayer"/><g class="treemaplayer"/><g class="sunburstlayer"/><g class="glimages"/><defs id="topdefs-038543"><g class="clips"/><clipPath id="legend038543"><rect width="271" height="29" x="0" y="0"/></clipPath></defs><g class="layer-above"><g class="imagelayer"/><g class="shapelayer"/></g><g class="infolayer"><g class="legend" pointer-events="all" transform="translate(399,11.779999999999994)"><rect class="bg" shape-rendering="crispEdges" width="271" height="29" x="0" y="0" style="stroke: rgb(68, 68, 68); stroke-opacity: 1; fill: rgb(33, 34, 38); fill-opacity: 1; stroke-width: 0px;"/><g class="scrollbox" transform="" clip-path="url(#legend038543)"><g class="groups"><g class="traces" transform="translate(0,14.5)" style="opacity: 1;"><text class="legendtext" text-anchor="start" x="40" y="4.680000000000001" style="font-family: 'Open Sans', verdana, arial, sans-serif; font-size: 12px; fill: rgb(214, 223, 239); fill-opacity: 1; white-space: pre;">OHLC</text><g class="layers" style="opacity: 0.75;"><g class="legendfill"/><g class="legendlines"/><g class="legendsymbols"><g class="legendpoints"><path class="legendcandle" d="M15,0H8M8,-6V6H-8Z" transform="translate(20,0)" style="stroke-miterlimit: 1; stroke-width: 2px; fill: rgb(238, 83, 79); fill-opacity: 1; stroke: rgb(238, 83, 79); stroke-opacity: 1;"/><path class="legendcandle" d="M-15,0H-8M-8,6V-6H8Z" transform="translate(20,0)" style="stroke-miterlimit: 1; stroke-width: 2px; fill: rgb(38, 166, 154); fill-opacity: 1; stroke: rgb(38, 166, 154); stroke-opacity: 1;"/></g></g></g><rect class="legendtoggle" x="0" y="-9.5" width="76.03125" height="19" style="fill: rgb(0, 0, 0); fill-opacity: 0;"/></g><g class="traces" transform="translate(78.53125,14.5)" style="opacity: 1;"><text class="legendtext" text-anchor="start" x="40" y="4.680000000000001" style="font-family: 'Open Sans', verdana, arial, sans-serif; font-size: 12px; fill: rgb(214, 223, 239); fill-opacity: 1; white-space: pre;">Pattern</text><g class="layers" style="opacity: 1;"><g class="legendfill"/><g class="legendlines"><path class="js-line" d="M5,0h30" style="fill: none; stroke: rgb(23, 190, 207); stroke-opacity: 0.75; stroke-dasharray: 3px, 3px; stroke-width: 2px;"/></g><g class="legendsymbols"><g class="legendpoints"/></g></g><rect class="legendtoggle" x="0" y="-9.5" width="86.265625" height="19" style="fill: rgb(0, 0, 0); fill-opacity: 0;"/></g><g class="traces" transform="translate(167.296875,14.5)" style="opacity: 1;"><text class="legendtext" text-anchor="start" x="40" y="4.680000000000001" style="font-family: 'Open Sans', verdana, arial, sans-serif; font-size: 12px; fill: rgb(214, 223, 239); fill-opacity: 1; white-space: pre;">Max error</text><g class="layers" style="opacity: 1;"><g class="legendfill"/><g class="legendlines"><path class="js-line" d="M5,0h30" style="fill: none; stroke: rgb(127, 127, 127); stroke-opacity: 0.5; stroke-dasharray: 3px, 3px; stroke-width: 2px;"/></g><g class="legendsymbols"><g class="legendpoints"><path class="scatterpts" transform="translate(20,0)" d="M3,0A3,3 0 1,1 0,-3A3,3 0 0,1 3,0Z" style="opacity: 1; stroke-width: 0px; fill: rgb(227, 119, 194); fill-opacity: 0.5;"/></g></g></g><rect class="legendtoggle" x="0" y="-9.5" width="100.984375" height="19" style="fill: rgb(0, 0, 0); fill-opacity: 0;"/></g></g></g><rect class="scrollbar" rx="20" ry="3" width="0" height="0" x="0" y="0" style="fill: rgb(128, 139, 164); fill-opacity: 1;"/></g><g class="g-gtitle"/><g class="g-xtitle"/><g class="g-ytitle"/></g></svg>