<svg class="main-svg" xmlns="http://www.w3.org/2000/svg" xmlns:xlink="http://www.w3.org/1999/xlink" width="700" height="350" style="" viewBox="0 0 700 350"><rect x="0" y="0" width="700" height="350" style="fill: rgb(33, 34, 38); fill-opacity: 1;"/><defs id="defs-ab2366"><g class="clips"><clipPath id="clipab2366xyplot" class="plotclip"><rect width="635" height="274"/></clipPath><clipPath class="axesclip" id="clipab2366x"><rect x="35" y="0" width="635" height="350"/></clipPath><clipPath class="axesclip" id="clipab2366y"><rect x="0" y="46" width="700" height="274"/></clipPath><clipPath class="axesclip" id="clipab2366xy"><rect x="35" y="46" width="635" height="274"/></clipPath></g><g class="gradients"/><g class="patterns"/></defs><g class="bglayer"/><g class="layer-below"><g class="imagelayer"/><g class="shapelayer"/></g><g class="cartesianlayer"><g class="subplot xy"><g class="layer-subplot"><g class="shapelayer"/><g class="imagelayer"/></g><g class="minor-gridlayer"><g class="x"/><g class="y"/></g><g class="gridlayer"><g class="x"><path class="xgrid crisp" transform="translate(107.8,0)" d="M0,46v274" style="stroke: rgb(49, 52, 57); stroke-opacity: 1; stroke-width: 1px;"/><path class="xgrid crisp" transform="translate(229.14,0)" d="M0,46v274" style="stroke: rgb(49, 52, 57); stroke-opacity: 1; stroke-width: 1px;"/><path class="xgrid crisp" transform="translate(354.52,0)" d="M0,46v274" style="stroke: rgb(49, 52, 57); stroke-opacity: 1; stroke-width: 1px;"/><path class="xgrid crisp" transform="translate(475.86,0)" d="M0,46v274" style="stroke: rgb(49, 52, 57); stroke-opacity: 1; stroke-width: 1px;"/><path class="xgrid crisp" transform="translate(601.24,0)" d="M0,46v274" style="stroke: rgb(49, 52, 57); stroke-opacity: 1; stroke-width: 1px;"/></g><g class="y"><path class="ygrid crisp" transform="translate(0,313.32)" d="M35,0h635" style="stroke: rgb(49, 52, 57); stroke-opacity: 1; stroke-width: 1px;"/><path class="ygrid crisp" transform="translate(0,267.09000000000003)" d="M35,0h635" style="stroke: rgb(49, 52, 57); stroke-opacity: 1; stroke-width: 1px;"/><path class="ygrid crisp" transform="translate(0,220.87)" d="M35,0h635" style="stroke: rgb(49, 52, 57); stroke-opacity: 1; stroke-width: 1px;"/><path class="ygrid crisp" transform="translate(0,174.65)" d="M35,0h635" style="stroke: rgb(49, 52, 57); stroke-opacity: 1; stroke-width: 1px;"/><path class="ygrid crisp" transform="translate(0,128.43)" d="M35,0h635" style="stroke: rgb(49, 52, 57); stroke-opacity: 1; stroke-width: 1px;"/><path class="ygrid crisp" transform="translate(0,82.21000000000001)" d="M35,0h635" style="stroke: rgb(49, 52, 57); stroke-opacity: 1; stroke-width: 1px;"/></g></g><g class="zerolinelayer"/><path class="xlines-below"/><path class="ylines-below"/><g class="overlines-below"/><g class="xaxislayer-below"/><g class="yaxislayer-below"/><g class="overaxes-below"/><g class="plot" transform="translate(35,46)" clip-path="url(#clipab2366xyplot)"><g class="scatterlayer mlayer"><g class="trace scatter trace2e791ec5-09fa-4b1d-816f-703d925881f0" style="stroke-miterlimit: 2; opacity: 1;"><g class="fills"/><g class="errorbars"/><g class="lines"><path class="js-line" d="M0,85.47L4.04,89.08L8.09,72.13L12.13,73.94L16.18,66.18L20.22,62.08L24.27,70.76L28.31,73.16L32.36,60.57L36.4,55.78L40.45,45.53L44.49,42.56L48.54,40.73L52.58,19.31L56.62,16.59L60.67,13.7L64.71,17.09L68.76,31.49L72.8,24.34L76.85,28.71L80.89,23.2L84.94,21.6L88.98,31.61L93.03,53.12L97.07,50.59L101.11,61.61L105.16,56.97L109.2,62.47L113.25,86.77L117.29,81.74L121.34,71.82L125.38,82.96L129.43,77.33L133.47,78.93L137.52,85.41L141.56,75.02L145.61,68.63L149.65,69.87L153.69,77.99L157.74,85.12L161.78,87.59L165.83,87.51L169.87,78.49L173.92,99.88L177.96,89.49L182.01,84.81L186.05,95.41L190.1,104.33L194.14,96.59L198.18,96.06L202.23,103.42L206.27,85.3L210.32,114.3L218.41,124.28L222.45,137.54L226.5,174.17L230.54,165.47L234.59,183.16L238.63,183.84L242.68,181.46L246.72,174.07L250.76,162.59L254.81,176.04L258.85,170.76L262.9,186.75L266.94,171.92L270.99,182.26L275.03,180L279.08,172.16L283.12,183.11L287.17,178.07L291.21,179.11L295.25,182.26L299.3,187.54L303.34,183.83L307.39,179.79L311.43,158.84L315.48,158.22" style="vector-effect: none; fill: none; stroke: rgb(31, 119, 180); stroke-opacity: 1; stroke-width: 2px; opacity: 1;"/></g><g class="points"/><g class="text"/></g><g class="trace scatter traceb8c0302a-fc66-44d0-8320-dbf7154e2050" style="stroke-miterlimit: 2; opacity: 0.5;"><g class="fills"/><g class="errorbars"/><g class="lines"><path class="js-line" d="M315.48,158.22L319.52,149.37L323.57,157.47L331.66,151.48L335.7,158.64L343.79,152.54L347.83,151.06L351.88,149.52L355.92,152.66L359.97,142.83L364.01,139.54L368.06,134.65L372.1,135.06L376.15,135.25L380.19,130.98L384.24,135.63L388.28,150.21L392.32,146.95L396.37,155.31L400.41,140.96L404.46,142.4L412.55,139.86L416.59,142.13L420.64,137.94" style="vector-effect: none; fill: none; stroke: rgb(147, 180, 36); stroke-opacity: 1; stroke-width: 2px; opacity: 1;"/></g><g class="points"/><g class="text"/></g><g class="trace scatter trace2f971e91-8937-4521-af09-fd622b42a8b6" style="stroke-miterlimit: 2; opacity: 0.5;"><g class="fills"/><g class="errorbars"/><g class="lines"><path class="js-line" d="M315.48,158.22L319.52,156.25" style="vector-effect: none; fill: none; stroke: rgb(184, 188, 34); stroke-opacity: 1; stroke-width: 2px; opacity: 1;"/></g><g class="points"/><g class="text"/></g><g class="trace scatter tracef0e9dd41-8298-4cbb-9408-01d7b0cfe739" style="stroke-miterlimit: 2; opacity: 0.5;"><g class="fills"/><g class="errorbars"/><g class="lines"><path class="js-line" d="M315.48,158.22L319.52,158.13L323.57,168.17L327.61,164.45L331.66,147.8L335.7,129.33L339.75,135.18L343.79,123.57L347.83,115.87L351.88,119.23L355.92,54.18L359.97,53.79L364.01,67.63" style="vector-effect: none; fill: none; stroke: rgb(84, 168, 41); stroke-opacity: 1; stroke-width: 2px; opacity: 1;"/></g><g class="points"/><g class="text"/></g><g class="trace scatter traceef16f355-e626-4b74-a8c5-fcf858cac8cb" style="stroke-miterlimit: 2; opacity: 0.5;"><g class="fills"/><g class="errorbars"/><g class="lines"><path class="js-line" d="M315.48,158.22L319.52,168.89L323.57,185.05L327.61,178.82L331.66,169.16" style="vector-effect: none; fill: none; stroke: rgb(195, 158, 30); stroke-opacity: 1; stroke-width: 2px; opacity: 1;"/></g><g class="points"/><g class="text"/></g><g class="trace scatter trace99a10367-33d2-4c86-ac05-033247bee0c4" style="stroke-miterlimit: 2; opacity: 0.5;"><g class="fills"/><g class="errorbars"/><g class="lines"><path class="js-line" d="M315.48,158.22L319.52,168.55L323.57,157.79L327.61,157.46L331.66,149.21L335.7,148.03L339.75,148.75" style="vector-effect: none; fill: none; stroke: rgb(185, 188, 34); stroke-opacity: 1; stroke-width: 2px; opacity: 1;"/></g><g class="points"/><g class="text"/></g><g class="trace scatter trace1504c440-20aa-4abd-8d77-10e5c7671018" style="stroke-miterlimit: 2; opacity: 0.5;"><g class="fills"/><g class="errorbars"/><g class="lines"><path class="js-line" d="M315.48,158.22L319.52,128.66L323.57,122.6L327.61,123.6L331.66,131.33L335.7,106.53L339.75,105.9L343.79,113.22L347.83,109.68L351.88,133.46L355.92,108.08L359.97,114.33L364.01,108.81L368.06,99.54L372.1,103.26L376.15,117.79L380.19,112.67L384.24,154.84L388.28,154.6L392.32,153.58L396.37,172.03" style="vector-effect: none; fill: none; stroke: rgb(44, 160, 44); stroke-opacity: 1; stroke-width: 2px; opacity: 1;"/></g><g class="points"/><g class="text"/></g><g class="trace scatter trace38c68335-be92-4e99-93b1-1c67a61958d9" style="stroke-miterlimit: 2; opacity: 0.5;"><g class="fills"/><g class="errorbars"/><g class="lines"><path class="js-line" d="M315.48,158.22L319.52,127.48L323.57,153.72L327.61,152.14L331.66,174.53L335.7,141.35L339.75,145.13L343.79,137.78L347.83,143.48L351.88,166.45L355.92,174.93L359.97,166.63L364.01,153.71L368.06,158.2L372.1,151.18L376.15,137.74L380.19,157.11L384.24,167.65L388.28,165.38L392.32,183.36L396.37,184.74L400.41,152.63L404.46,158.34L408.5,153.08L412.55,167.39L416.59,139.55L420.64,127.57L424.68,130.55L428.73,144.93L432.77,146.98L436.82,165.2L440.86,167.89L444.9,166.96L448.95,198.94L452.99,191.72L461.08,174.46L465.13,199.13L469.17,193.53L473.22,174.17L477.26,175.81L481.31,164.46L485.35,171.4L489.39,183.75L493.44,181.49L497.48,174.42L501.53,169.47L505.57,182.26L509.62,178.02L513.66,180.88L517.71,188.79L521.75,181.25L525.8,183.76L529.84,177.7L533.89,187.1L537.93,189.96L541.97,189.23L546.02,196.76L550.06,200.74L554.11,199.65L558.15,197.58L562.2,205.1L566.24,213.51L570.29,194.64L574.33,193.5L578.38,182.71L582.42,177.71L586.46,168.71L590.51,153.84L594.55,136.05L598.6,131.55L602.64,131.57L606.69,114.02" style="vector-effect: none; fill: none; stroke: rgb(195, 157, 30); stroke-opacity: 1; stroke-width: 2px; opacity: 1;"/></g><g class="points"/><g class="text"/></g><g class="trace scatter traced84c987a-9417-4c35-b9d7-b50896d2afb3" style="stroke-miterlimit: 2; opacity: 0.5;"><g class="fills"/><g class="errorbars"/><g class="lines"><path class="js-line" d="M315.48,158.22L319.52,160.92L323.57,154.81L327.61,161.28L331.66,187.3L335.7,201.35L339.75,184.05L343.79,175.91L347.83,188.57L351.88,189.43L355.92,186.41L364.01,199.55L368.06,196.49L372.1,182.33L376.15,155.74L380.19,158.86L384.24,155.38L388.28,149.07L392.32,135.23L396.37,111.56L400.41,120.98L404.46,119.96L408.5,113.81L412.55,115.6" style="vector-effect: none; fill: none; stroke: rgb(189, 181, 33); stroke-opacity: 1; stroke-width: 2px; opacity: 1;"/></g><g class="points"/><g class="text"/></g><g class="trace scatter trace2621fac2-9779-412d-a8f6-ad23b77cadb3" style="stroke-miterlimit: 2; opacity: 0.5;"><g class="fills"/><g class="errorbars"/><g class="lines"><path class="js-line" d="M315.48,158.22L319.52,152.78L323.57,138.81L327.61,136.06L331.66,140.58L335.7,139.3L339.75,143.16L343.79,158.91L347.83,183.25L351.88,181.92L355.92,176.2L359.97,175.39L364.01,176.04L368.06,192.04L372.1,194.26L376.15,181.95L380.19,178.32L384.24,196.66L388.28,187.68L392.32,184.82L396.37,191.57L400.41,199.78L404.46,195.94L408.5,196.77L412.55,195.5L416.59,184.69L420.64,186.34L424.68,174.02L428.73,174.13L432.77,176.43L436.82,174.37L440.86,174.78L444.9,192.05L448.95,197.96L452.99,194.37L457.04,199.31L461.08,191.08L465.13,193.46L469.17,198.06L473.22,201.42L477.26,214.45L481.31,216.47L485.35,224.76L493.44,223.13L497.48,223.36L501.53,218.4L505.57,211.98L509.62,219.32L513.66,216.59L521.75,216.52L525.8,221.29L529.84,220.46L533.89,224.25L537.93,229.61L541.97,252.78L546.02,260.3L550.06,253.88L558.15,249.98L562.2,250.79L566.24,248.87L570.29,245.83L574.33,243.36L578.38,244.92L582.42,241.72L586.46,240.47L590.51,250.31L594.55,248.04L598.6,224.72L602.64,225.77L606.69,220.3L610.73,212.32L618.82,209.41L622.87,214.21L626.91,220.34L630.96,221.2L635,222.09" style="vector-effect: none; fill: none; stroke: rgb(220, 57, 18); stroke-opacity: 1; stroke-width: 2px; opacity: 1;"/></g><g class="points"/><g class="text"/></g><g class="trace scatter trace0c215d06-de3a-49ba-80b3-602f9645ffe6" style="stroke-miterlimit: 2; opacity: 0.5;"><g class="fills"/><g class="errorbars"/><g class="lines"><path class="js-line" d="M315.48,158.22L319.52,161.72L323.57,171.24L327.61,193.12L331.66,191.47L335.7,197.93L339.75,200.8L343.79,195.88L347.83,174.63L351.88,191.31L355.92,195.89L359.97,195.38L364.01,202.19L368.06,189.66L372.1,192.25L376.15,180.11" style="vector-effect: none; fill: none; stroke: rgb(210, 94, 22); stroke-opacity: 1; stroke-width: 2px; opacity: 1;"/></g><g class="points"/><g class="text"/></g><g class="trace scatter trace07edeb71-2739-43d1-a6e5-c0bfe509455f" style="stroke-miterlimit: 2; opacity: 0.5;"><g class="fills"/><g class="errorbars"/><g class="lines"><path class="js-line" d="M315.48,158.22L319.52,150.62L323.57,148.42L327.61,147.06" style="vector-effect: none; fill: none; stroke: rgb(156, 182, 36); stroke-opacity: 1; stroke-width: 2px; opacity: 1;"/></g><g class="points"/><g class="text"/></g></g></g><g class="overplot"/><path class="xlines-above crisp" d="M0,0" style="fill: none;"/><path class="ylines-above crisp" d="M0,0" style="fill: none;"/><g class="overlines-above"/><g class="xaxislayer-above"><g class="xtick"><text text-anchor="middle" x="0" y="333" transform="translate(107.8,0)" style="font-family: 'Open Sans', verdana, arial, sans-serif; font-size: 12px; fill: rgb(214, 223, 239); fill-opacity: 1; white-space: pre; opacity: 1;">Apr 2022</text></g><g class="xtick"><text text-anchor="middle" x="0" y="333" style="font-family: 'Open Sans', verdana, arial, sans-serif; font-size: 12px; fill: rgb(214, 223, 239); fill-opacity: 1; white-space: pre; opacity: 1;" transform="translate(229.14,0)">May 2022</text></g><g class="xtick"><text text-anchor="middle" x="0" y="333" style="font-family: 'Open Sans', verdana, arial, sans-serif; font-size: 12px; fill: rgb(214, 223, 239); fill-opacity: 1; white-space: pre; opacity: 1;" transform="translate(354.52,0)">Jun 2022</text></g><g class="xtick"><text text-anchor="middle" x="0" y="333" style="font-family: 'Open Sans', verdana, arial, sans-serif; font-size: 12px; fill: rgb(214, 223, 239); fill-opacity: 1; white-space: pre; opacity: 1;" transform="translate(475.86,0)">Jul 2022</text></g><g class="xtick"><text text-anchor="middle" x="0" y="333" style="font-family: 'Open Sans', verdana, arial, sans-serif; font-size: 12px; fill: rgb(214, 223, 239); fill-opacity: 1; white-space: pre; opacity: 1;" transform="translate(601.24,0)">Aug 2022</text></g></g><g class="yaxislayer-above"><g class="ytick"><text text-anchor="end" x="34" y="4.199999999999999" transform="translate(0,313.32)" style="font-family: 'Open Sans', verdana, arial, sans-serif; font-size: 12px; fill: rgb(214, 223, 239); fill-opacity: 1; white-space: pre; opacity: 1;">20k</text></g><g class="ytick"><text text-anchor="end" x="34" y="4.199999999999999" style="font-family: 'Open Sans', verdana, arial, sans-serif; font-size: 12px; fill: rgb(214, 223, 239); fill-opacity: 1; white-space: pre; opacity: 1;" transform="translate(0,267.09000000000003)">25k</text></g><g class="ytick"><text text-anchor="end" x="34" y="4.199999999999999" style="font-family: 'Open Sans', verdana, arial, sans-serif; font-size: 12px; fill: rgb(214, 223, 239); fill-opacity: 1; white-space: pre; opacity: 1;" transform="translate(0,220.87)">30k</text></g><g class="ytick"><text text-anchor="end" x="34" y="4.199999999999999" style="font-family: 'Open Sans', verdana, arial, sans-serif; font-size: 12px; fill: rgb(214, 223, 239); fill-opacity: 1; white-space: pre; opacity: 1;" transform="translate(0,174.65)">35k</text></g><g class="ytick"><text text-anchor="end" x="34" y="4.199999999999999" style="font-family: 'Open Sans', verdana, arial, sans-serif; font-size: 12px; fill: rgb(214, 223, 239); fill-opacity: 1; white-space: pre; opacity: 1;" transform="translate(0,128.43)">40k</text></g><g class="ytick"><text text-anchor="end" x="34" y="4.199999999999999" style="font-family: 'Open Sans', verdana, arial, sans-serif; font-size: 12px; fill: rgb(214, 223, 239); fill-opacity: 1; white-space: pre; opacity: 1;" transform="translate(0,82.21000000000001)">45k</text></g></g><g class="overaxes-above"/></g></g><g class="polarlayer"/><g class="smithlayer"/><g class="ternarylayer"/><g class="geolayer"/><g class="funnelarealayer"/><g class="pielayer"/><g class="iciclelayer"/><g class="treemaplayer"/><g class="sunburstlayer"/><g class="glimages"/><defs id="topdefs-ab2366"><g class="clips"/><clipPath id="legendab2366"><rect width="177" height="29" x="0" y="0"/></clipPath></defs><g class="layer-above"><g class="imagelayer"/><g class="shapelayer"/></g><g class="infolayer"><g class="legend" pointer-events="all" transform="translate(493,11.519999999999996)"><rect class="bg" shape-rendering="crispEdges" style="stroke: rgb(68, 68, 68); stroke-opacity: 1; fill: rgb(33, 34, 38); fill-opacity: 1; stroke-width: 0px;" width="177" height="29" x="0" y="0"/><g class="scrollbox" transform="" clip-path="url(#legendab2366)"><g class="groups"><g class="traces" transform="translate(0,14.5)" style="opacity: 1;"><text class="legendtext" text-anchor="start" x="40" y="4.680000000000001" style="font-family: 'Open Sans', verdana, arial, sans-serif; font-size: 12px; fill: rgb(214, 223, 239); fill-opacity: 1; white-space: pre;">Close</text><g class="layers" style="opacity: 1;"><g class="legendfill"/><g class="legendlines"><path class="js-line" d="M5,0h30" style="fill: none; stroke: rgb(31, 119, 180); stroke-opacity: 1; stroke-width: 2px;"/></g><g class="legendsymbols"><g class="legendpoints"/></g></g><rect class="legendtoggle" x="0" y="-9.5" width="74.859375" height="19" style="fill: rgb(0, 0, 0); fill-opacity: 0;"/></g><g class="traces" transform="translate(77.359375,14.5)" style="opacity: 1;"><text class="legendtext" text-anchor="start" x="40" y="4.680000000000001" style="font-family: 'Open Sans', verdana, arial, sans-serif; font-size: 12px; fill: rgb(214, 223, 239); fill-opacity: 1; white-space: pre;">proj (11)</text><g class="layers" style="opacity: 0.5;"><g class="legendfill"/><g class="legendlines"><path class="js-line" d="M5,0h30" style="fill: none; stroke: rgb(147, 180, 36); stroke-opacity: 1; stroke-width: 2px;"/></g><g class="legendsymbols"><g class="legendpoints"/></g></g><rect class="legendtoggle" x="0" y="-9.5" width="96.890625" height="19" style="fill: rgb(0, 0, 0); fill-opacity: 0;"/></g></g></g><rect class="scrollbar" rx="20" ry="3" width="0" height="0" style="fill: rgb(128, 139, 164); fill-opacity: 1;" x="0" y="0"/></g><g class="g-gtitle"/><g class="g-xtitle"/><g class="g-ytitle"/></g></svg>