<svg class="main-svg" xmlns="http://www.w3.org/2000/svg" xmlns:xlink="http://www.w3.org/1999/xlink" width="700" height="350" style="" viewBox="0 0 700 350"><rect x="0" y="0" width="700" height="350" style="fill: rgb(255, 255, 255); fill-opacity: 1;"/><defs id="defs-7b699f"><g class="clips"><clipPath id="clip7b699fxyplot" class="plotclip"><rect width="635" height="261"/></clipPath><clipPath class="axesclip" id="clip7b699fx"><rect x="35" y="0" width="635" height="350"/></clipPath><clipPath class="axesclip" id="clip7b699fy"><rect x="0" y="46" width="700" height="261"/></clipPath><clipPath class="axesclip" id="clip7b699fxy"><rect x="35" y="46" width="635" height="261"/></clipPath></g><g class="gradients"/><g class="patterns"/></defs><g class="bglayer"><rect class="bg" x="35" y="46" width="635" height="261" style="fill: rgb(229, 236, 246); fill-opacity: 1; stroke-width: 0;"/></g><g class="layer-below"><g class="imagelayer"/><g class="shapelayer"/></g><g class="cartesianlayer"><g class="subplot xy"><g class="layer-subplot"><g class="shapelayer"/><g class="imagelayer"/></g><g class="minor-gridlayer"><g class="x"/><g class="y"/></g><g class="gridlayer"><g class="x"><path class="xgrid crisp" transform="translate(56.4,0)" d="M0,46v261" style="stroke: rgb(255, 255, 255); stroke-opacity: 1; stroke-width: 1px;"/><path class="xgrid crisp" transform="translate(156.29000000000002,0)" d="M0,46v261" style="stroke: rgb(255, 255, 255); stroke-opacity: 1; stroke-width: 1px;"/><path class="xgrid crisp" transform="translate(256.18,0)" d="M0,46v261" style="stroke: rgb(255, 255, 255); stroke-opacity: 1; stroke-width: 1px;"/><path class="xgrid crisp" transform="translate(356.07,0)" d="M0,46v261" style="stroke: rgb(255, 255, 255); stroke-opacity: 1; stroke-width: 1px;"/><path class="xgrid crisp" transform="translate(455.96,0)" d="M0,46v261" style="stroke: rgb(255, 255, 255); stroke-opacity: 1; stroke-width: 1px;"/><path class="xgrid crisp" transform="translate(555.84,0)" d="M0,46v261" style="stroke: rgb(255, 255, 255); stroke-opacity: 1; stroke-width: 1px;"/><path class="xgrid crisp" transform="translate(655.73,0)" d="M0,46v261" style="stroke: rgb(255, 255, 255); stroke-opacity: 1; stroke-width: 1px;"/></g><g class="y"><path class="ygrid crisp" transform="translate(0,301.53999999999996)" d="M35,0h635" style="stroke: rgb(255, 255, 255); stroke-opacity: 1; stroke-width: 1px;"/><path class="ygrid crisp" transform="translate(0,259.40999999999997)" d="M35,0h635" style="stroke: rgb(255, 255, 255); stroke-opacity: 1; stroke-width: 1px;"/><path class="ygrid crisp" transform="translate(0,217.27)" d="M35,0h635" style="stroke: rgb(255, 255, 255); stroke-opacity: 1; stroke-width: 1px;"/><path class="ygrid crisp" transform="translate(0,175.13)" d="M35,0h635" style="stroke: rgb(255, 255, 255); stroke-opacity: 1; stroke-width: 1px;"/><path class="ygrid crisp" transform="translate(0,132.99)" d="M35,0h635" style="stroke: rgb(255, 255, 255); stroke-opacity: 1; stroke-width: 1px;"/><path class="ygrid crisp" transform="translate(0,90.85)" d="M35,0h635" style="stroke: rgb(255, 255, 255); stroke-opacity: 1; stroke-width: 1px;"/><path class="ygrid crisp" transform="translate(0,48.72)" d="M35,0h635" style="stroke: rgb(255, 255, 255); stroke-opacity: 1; stroke-width: 1px;"/></g></g><g class="zerolinelayer"/><path class="xlines-below"/><path class="ylines-below"/><g class="overlines-below"/><g class="xaxislayer-below"/><g class="yaxislayer-below"/><g class="overaxes-below"/><g class="plot" transform="translate(35,46)" clip-path="url(#clip7b699fxyplot)"><g class="scatterlayer mlayer"><g class="trace scatter tracef56529ba-de8b-44d9-aa26-b91231e47a93" style="stroke-miterlimit: 2; opacity: 1;"><g class="fills"/><g class="errorbars"/><g class="lines"><path class="js-line" d="M0,100.1L7.13,110.15L14.27,105.92L21.4,110.94L28.54,133.09L35.67,128.5L42.81,119.46L49.94,129.62L57.08,124.48L64.21,125.94L71.35,131.84L78.48,122.38L85.62,116.55L92.75,117.68L99.89,125.08L107.02,131.58L114.16,133.84L121.29,133.76L128.43,125.54L135.56,145.04L142.7,135.57L149.83,131.3L156.97,140.96L164.1,149.1L171.24,142.04L178.37,141.56L185.51,148.27L192.64,131.74L199.78,158.18L214.04,167.29L221.18,179.37L228.31,212.76L235.45,204.83L242.58,220.96L249.72,221.58L256.85,219.41L263.99,212.67L271.12,202.21L278.26,214.47L285.39,209.66L292.53,224.23L299.66,210.71L306.8,220.14L313.93,218.08L321.07,210.93L328.2,220.91L335.34,216.32L342.47,217.26L349.61,220.14L356.74,224.95L363.88,221.57L371.01,217.89L378.15,198.79L385.28,198.23" style="vector-effect: none; fill: none; stroke: rgb(31, 119, 180); stroke-opacity: 1; stroke-width: 2px; opacity: 1;"/></g><g class="points"/><g class="text"/></g><g class="trace scatter trace8c2015a3-79bb-43cc-8b87-eb630a997cf7" style="stroke-miterlimit: 2; opacity: 1;"><g class="fills"/><g class="errorbars"/><g class="lines"/><g class="points"><path class="point" transform="translate(71.35,131.84)" d="M-4.62,-2H4.62L0,4Z" style="opacity: 1; stroke-width: 1px; fill: rgb(234, 67, 53); fill-opacity: 1; stroke: rgb(181, 31, 18); stroke-opacity: 1;"/></g><g class="text"/></g><g class="trace scatter trace6d4ea3b6-fee8-4293-8822-3fc6324e13c2" style="stroke-miterlimit: 2; opacity: 0.5;"><g class="fills"/><g class="errorbars"/><g class="lines"><path class="js-line" d="M71.35,131.84L78.48,121.77L85.62,130.99L92.75,128.04L99.89,124.17L107.02,132.31L114.16,129.26L121.29,125.38L128.43,123.7L135.56,121.95L142.7,125.51L149.83,114.34L156.97,110.59L164.1,105.03L171.24,105.49L178.37,105.71L185.51,100.85L192.64,106.14L199.78,122.73L206.91,119.02L214.04,128.53L221.18,112.21L228.31,113.84L242.58,110.96L249.72,113.53L256.85,108.77" style="vector-effect: none; fill: none; stroke: rgb(147, 180, 36); stroke-opacity: 1; stroke-width: 2px; opacity: 1;"/></g><g class="points"/><g class="text"/></g><g class="trace scatter tracea3fb5886-14e9-40d3-97c4-9b90605093af" style="stroke-miterlimit: 2; opacity: 0.5;"><g class="fills"/><g class="errorbars"/><g class="lines"><path class="js-line" d="M71.35,131.84L78.48,129.6" style="vector-effect: none; fill: none; stroke: rgb(184, 188, 34); stroke-opacity: 1; stroke-width: 2px; opacity: 1;"/></g><g class="points"/><g class="text"/></g><g class="trace scatter traceea8be5c4-b461-4e59-9a4d-3dce8e44a856" style="stroke-miterlimit: 2; opacity: 0.5;"><g class="fills"/><g class="errorbars"/><g class="lines"><path class="js-line" d="M71.35,131.84L78.48,131.74L85.62,143.16L92.75,138.93L99.89,119.99L107.02,98.98L114.16,105.64L121.29,92.42L128.43,83.67L135.56,87.49L142.7,13.49L149.83,13.05L156.97,28.8" style="vector-effect: none; fill: none; stroke: rgb(84, 168, 41); stroke-opacity: 1; stroke-width: 2px; opacity: 1;"/></g><g class="points"/><g class="text"/></g><g class="trace scatter trace8c0b04b7-3a5c-48d8-82b1-6e0835606fbf" style="stroke-miterlimit: 2; opacity: 0.5;"><g class="fills"/><g class="errorbars"/><g class="lines"><path class="js-line" d="M71.35,131.84L78.48,143.98L85.62,162.35L92.75,155.27L99.89,144.28" style="vector-effect: none; fill: none; stroke: rgb(195, 158, 30); stroke-opacity: 1; stroke-width: 2px; opacity: 1;"/></g><g class="points"/><g class="text"/></g><g class="trace scatter tracec3ec162d-eb5f-4eab-b89b-5151a1f35501" style="stroke-miterlimit: 2; opacity: 0.5;"><g class="fills"/><g class="errorbars"/><g class="lines"><path class="js-line" d="M71.35,131.84L78.48,143.59L85.62,131.34L92.75,130.97L99.89,121.59L107.02,120.25L114.16,121.07" style="vector-effect: none; fill: none; stroke: rgb(185, 188, 34); stroke-opacity: 1; stroke-width: 2px; opacity: 1;"/></g><g class="points"/><g class="text"/></g><g class="trace scatter tracea4e9ceff-f612-45cb-bad4-de79bf5d3bb9" style="stroke-miterlimit: 2; opacity: 0.5;"><g class="fills"/><g class="errorbars"/><g class="lines"><path class="js-line" d="M71.35,131.84L78.48,98.21L85.62,91.33L92.75,92.46L99.89,101.26L107.02,73.05L114.16,72.32L121.29,80.65L128.43,76.62L135.56,103.67L142.7,74.81L149.83,81.91L156.97,75.63L164.1,65.09L171.24,69.32L178.37,85.85L185.51,80.03L192.64,128L199.78,127.73L206.91,126.56L214.04,147.54" style="vector-effect: none; fill: none; stroke: rgb(44, 160, 44); stroke-opacity: 1; stroke-width: 2px; opacity: 1;"/></g><g class="points"/><g class="text"/></g><g class="trace scatter trace8d883c48-0267-4138-90c7-4753ce891d32" style="stroke-miterlimit: 2; opacity: 0.5;"><g class="fills"/><g class="errorbars"/><g class="lines"><path class="js-line" d="M71.35,131.84L78.48,96.88L85.62,126.72L92.75,124.92L99.89,150.39L107.02,112.65L114.16,116.94L121.29,108.59L128.43,115.07L135.56,141.2L142.7,150.84L149.83,141.4L156.97,126.7L164.1,131.82L171.24,123.84L178.37,108.54L185.51,130.58L192.64,142.57L199.78,139.99L206.91,160.44L214.04,162L221.18,125.48L228.31,131.97L235.45,125.99L242.58,142.27L249.72,110.6L256.85,96.97L263.99,100.36L271.12,116.72L278.26,119.06L285.39,139.77L292.53,142.84L299.66,141.78L306.8,178.15L313.93,169.94L321.07,159.29L328.2,150.32L335.34,178.37L342.47,172L349.61,149.98L356.74,151.85L363.88,138.94L371.01,146.84L378.15,160.87L385.28,158.31L392.42,150.26L399.55,144.63L406.69,159.18L413.82,154.35L420.96,157.62L428.09,166.61L435.22,158.04L442.36,160.89L449.49,154L456.63,164.68L463.76,167.94L470.9,167.11L478.03,175.68L485.17,180.2L492.3,178.96L499.44,176.61L513.71,194.73L520.84,173.27L527.98,171.96L535.11,159.69L542.25,154.01L549.38,143.77L556.52,126.85L563.65,106.62L570.79,101.5L577.92,101.53L585.06,81.57" style="vector-effect: none; fill: none; stroke: rgb(195, 157, 30); stroke-opacity: 1; stroke-width: 2px; opacity: 1;"/></g><g class="points"/><g class="text"/></g><g class="trace scatter traced91dac3a-480f-42bb-8772-f40422cb9461" style="stroke-miterlimit: 2; opacity: 0.5;"><g class="fills"/><g class="errorbars"/><g class="lines"><path class="js-line" d="M71.35,131.84L78.48,134.91L85.62,127.96L92.75,135.32L99.89,164.92L107.02,180.9L114.16,161.22L121.29,151.96L128.43,166.36L135.56,167.34L142.7,163.9L156.97,178.85L164.1,175.37L171.24,159.26L178.37,129.01L185.51,132.56L192.64,128.61L199.78,121.43L206.91,105.69L214.04,78.77L221.18,89.48L228.31,88.32L235.45,81.33L242.58,83.36" style="vector-effect: none; fill: none; stroke: rgb(189, 181, 33); stroke-opacity: 1; stroke-width: 2px; opacity: 1;"/></g><g class="points"/><g class="text"/></g><g class="trace scatter trace732bc136-0350-4e77-a5a6-4f850cf13a4b" style="stroke-miterlimit: 2; opacity: 0.5;"><g class="fills"/><g class="errorbars"/><g class="lines"><path class="js-line" d="M71.35,131.84L78.48,125.65L85.62,109.76L92.75,106.64L99.89,111.78L107.02,110.32L114.16,114.7L121.29,132.62L128.43,160.31L135.56,158.79L142.7,152.29L149.83,151.37L156.97,152.1L164.1,170.31L171.24,172.83L178.37,158.83L185.51,154.7L192.64,175.56L199.78,165.35L206.91,162.1L214.04,169.77L221.18,179.12L228.31,174.74L235.45,175.69L242.58,174.24L249.72,161.95L256.85,163.82L263.99,149.82L271.12,149.93L278.26,152.55L285.39,150.21L292.53,150.67L299.66,170.32L306.8,177.04L313.93,172.96L321.07,178.58L328.2,169.21L335.34,171.93L342.47,177.16L349.61,180.98L356.74,195.8L363.88,198.09L371.01,207.53L385.28,205.67L392.42,205.93L399.55,200.29L406.69,192.99L413.82,201.34L420.96,198.23L435.22,198.16L442.36,203.57L449.49,202.64L456.63,206.94L463.76,213.04L470.9,239.4L478.03,247.95L485.17,240.65L499.44,236.21L506.57,237.13L513.71,234.95L520.84,231.49L527.98,228.68L535.11,230.46L542.25,226.82L549.38,225.4L556.52,236.59L563.65,234.01L570.79,207.48L577.92,208.67L585.06,202.46L592.19,193.38L599.33,192.11L606.46,190.06L613.6,195.52L620.73,202.5L635,204.49" style="vector-effect: none; fill: none; stroke: rgb(220, 57, 18); stroke-opacity: 1; stroke-width: 2px; opacity: 1;"/></g><g class="points"/><g class="text"/></g><g class="trace scatter trace7517bec4-ea10-4ff7-9ed3-ecd55b95008b" style="stroke-miterlimit: 2; opacity: 0.5;"><g class="fills"/><g class="errorbars"/><g class="lines"><path class="js-line" d="M71.35,131.84L78.48,135.82L85.62,146.65L92.75,171.53L99.89,169.66L107.02,177.01L114.16,180.27L121.29,174.68L128.43,150.51L135.56,169.47L142.7,174.69L149.83,174.1L156.97,181.86L164.1,167.6L171.24,170.54L178.37,156.74" style="vector-effect: none; fill: none; stroke: rgb(210, 94, 22); stroke-opacity: 1; stroke-width: 2px; opacity: 1;"/></g><g class="points"/><g class="text"/></g><g class="trace scatter trace2ea96270-c5d5-4b12-9be7-df584715453a" style="stroke-miterlimit: 2; opacity: 0.5;"><g class="fills"/><g class="errorbars"/><g class="lines"><path class="js-line" d="M71.35,131.84L78.48,123.2L85.62,120.69L92.75,119.14" style="vector-effect: none; fill: none; stroke: rgb(156, 182, 36); stroke-opacity: 1; stroke-width: 2px; opacity: 1;"/></g><g class="points"/><g class="text"/></g></g></g><g class="overplot"/><path class="xlines-above crisp" d="M0,0" style="fill: none;"/><path class="ylines-above crisp" d="M0,0" style="fill: none;"/><g class="overlines-above"/><g class="xaxislayer-above"><g class="xtick"><text text-anchor="middle" x="0" y="320" transform="translate(56.4,0)" style="font-family: 'Open Sans', verdana, arial, sans-serif; font-size: 12px; fill: rgb(42, 63, 95); fill-opacity: 1; white-space: pre; opacity: 1;"><tspan class="line" dy="0em" x="0" y="320">Apr 10</tspan><tspan class="line" dy="1.3em" x="0" y="320">2022</tspan></text></g><g class="xtick"><text text-anchor="middle" x="0" y="320" style="font-family: 'Open Sans', verdana, arial, sans-serif; font-size: 12px; fill: rgb(42, 63, 95); fill-opacity: 1; white-space: pre; opacity: 1;" transform="translate(156.29000000000002,0)">Apr 24</text></g><g class="xtick"><text text-anchor="middle" x="0" y="320" style="font-family: 'Open Sans', verdana, arial, sans-serif; font-size: 12px; fill: rgb(42, 63, 95); fill-opacity: 1; white-space: pre; opacity: 1;" transform="translate(256.18,0)">May 8</text></g><g class="xtick"><text text-anchor="middle" x="0" y="320" style="font-family: 'Open Sans', verdana, arial, sans-serif; font-size: 12px; fill: rgb(42, 63, 95); fill-opacity: 1; white-space: pre; opacity: 1;" transform="translate(356.07,0)">May 22</text></g><g class="xtick"><text text-anchor="middle" x="0" y="320" style="font-family: 'Open Sans', verdana, arial, sans-serif; font-size: 12px; fill: rgb(42, 63, 95); fill-opacity: 1; white-space: pre; opacity: 1;" transform="translate(455.96,0)">Jun 5</text></g><g class="xtick"><text text-anchor="middle" x="0" y="320" style="font-family: 'Open Sans', verdana, arial, sans-serif; font-size: 12px; fill: rgb(42, 63, 95); fill-opacity: 1; white-space: pre; opacity: 1;" transform="translate(555.84,0)">Jun 19</text></g><g class="xtick"><text text-anchor="middle" x="0" y="320" style="font-family: 'Open Sans', verdana, arial, sans-serif; font-size: 12px; fill: rgb(42, 63, 95); fill-opacity: 1; white-space: pre; opacity: 1;" transform="translate(655.73,0)">Jul 3</text></g></g><g class="yaxislayer-above"><g class="ytick"><text text-anchor="end" x="34" y="4.199999999999999" transform="translate(0,301.53999999999996)" style="font-family: 'Open Sans', verdana, arial, sans-serif; font-size: 12px; fill: rgb(42, 63, 95); fill-opacity: 1; white-space: pre; opacity: 1;">25k</text></g><g class="ytick"><text text-anchor="end" x="34" y="4.199999999999999" style="font-family: 'Open Sans', verdana, arial, sans-serif; font-size: 12px; fill: rgb(42, 63, 95); fill-opacity: 1; white-space: pre; opacity: 1;" transform="translate(0,259.40999999999997)">30k</text></g><g class="ytick"><text text-anchor="end" x="34" y="4.199999999999999" style="font-family: 'Open Sans', verdana, arial, sans-serif; font-size: 12px; fill: rgb(42, 63, 95); fill-opacity: 1; white-space: pre; opacity: 1;" transform="translate(0,217.27)">35k</text></g><g class="ytick"><text text-anchor="end" x="34" y="4.199999999999999" style="font-family: 'Open Sans', verdana, arial, sans-serif; font-size: 12px; fill: rgb(42, 63, 95); fill-opacity: 1; white-space: pre; opacity: 1;" transform="translate(0,175.13)">40k</text></g><g class="ytick"><text text-anchor="end" x="34" y="4.199999999999999" style="font-family: 'Open Sans', verdana, arial, sans-serif; font-size: 12px; fill: rgb(42, 63, 95); fill-opacity: 1; white-space: pre; opacity: 1;" transform="translate(0,132.99)">45k</text></g><g class="ytick"><text text-anchor="end" x="34" y="4.199999999999999" style="font-family: 'Open Sans', verdana, arial, sans-serif; font-size: 12px; fill: rgb(42, 63, 95); fill-opacity: 1; white-space: pre; opacity: 1;" transform="translate(0,90.85)">50k</text></g><g class="ytick"><text text-anchor="end" x="34" y="4.199999999999999" style="font-family: 'Open Sans', verdana, arial, sans-serif; font-size: 12px; fill: rgb(42, 63, 95); fill-opacity: 1; white-space: pre; opacity: 1;" transform="translate(0,48.72)">55k</text></g></g><g class="overaxes-above"/></g></g><g class="polarlayer"/><g class="smithlayer"/><g class="ternarylayer"/><g class="geolayer"/><g class="funnelarealayer"/><g class="pielayer"/><g class="iciclelayer"/><g class="treemaplayer"/><g class="sunburstlayer"/><g class="glimages"/><defs id="topdefs-7b699f"><g class="clips"/><clipPath id="legend7b699f"><rect width="251" height="29" x="0" y="0"/></clipPath></defs><g class="layer-above"><g class="imagelayer"/><g class="shapelayer"/></g><g class="infolayer"><g class="legend" pointer-events="all" transform="translate(419,11.779999999999994)"><rect class="bg" shape-rendering="crispEdges" width="251" height="29" x="0" y="0" style="stroke: rgb(68, 68, 68); stroke-opacity: 1; fill: rgb(255, 255, 255); fill-opacity: 1; stroke-width: 0px;"/><g class="scrollbox" transform="" clip-path="url(#legend7b699f)"><g class="groups"><g class="traces" transform="translate(0,14.5)" style="opacity: 1;"><text class="legendtext" text-anchor="start" x="40" y="4.680000000000001" style="font-family: 'Open Sans', verdana, arial, sans-serif; font-size: 12px; fill: rgb(42, 63, 95); fill-opacity: 1; white-space: pre;">Close</text><g class="layers" style="opacity: 1;"><g class="legendfill"/><g class="legendlines"><path class="js-line" d="M5,0h30" style="fill: none; stroke: rgb(31, 119, 180); stroke-opacity: 1; stroke-width: 2px;"/></g><g class="legendsymbols"><g class="legendpoints"/></g></g><rect class="legendtoggle" x="0" y="-9.5" width="74.859375" height="19" style="fill: rgb(0, 0, 0); fill-opacity: 0;"/></g><g class="traces" transform="translate(77.359375,14.5)" style="opacity: 1;"><text class="legendtext" text-anchor="start" x="40" y="4.680000000000001" style="font-family: 'Open Sans', verdana, arial, sans-serif; font-size: 12px; fill: rgb(42, 63, 95); fill-opacity: 1; white-space: pre;">Exits</text><g class="layers" style="opacity: 1;"><g class="legendfill"/><g class="legendlines"/><g class="legendsymbols"><g class="legendpoints"><path class="scatterpts" transform="translate(20,0)" d="M-4.62,-2H4.62L0,4Z" style="opacity: 1; stroke-width: 1px; fill: rgb(234, 67, 53); fill-opacity: 1; stroke: rgb(181, 31, 18); stroke-opacity: 1;"/></g></g></g><rect class="legendtoggle" x="0" y="-9.5" width="71.46875" height="19" style="fill: rgb(0, 0, 0); fill-opacity: 0;"/></g><g class="traces" transform="translate(151.328125,14.5)" style="opacity: 1;"><text class="legendtext" text-anchor="start" x="40" y="4.680000000000001" style="font-family: 'Open Sans', verdana, arial, sans-serif; font-size: 12px; fill: rgb(42, 63, 95); fill-opacity: 1; white-space: pre;">proj (11)</text><g class="layers" style="opacity: 0.5;"><g class="legendfill"/><g class="legendlines"><path class="js-line" d="M5,0h30" style="fill: none; stroke: rgb(147, 180, 36); stroke-opacity: 1; stroke-width: 2px;"/></g><g class="legendsymbols"><g class="legendpoints"/></g></g><rect class="legendtoggle" x="0" y="-9.5" width="96.890625" height="19" style="fill: rgb(0, 0, 0); fill-opacity: 0;"/></g></g></g><rect class="scrollbar" rx="20" ry="3" width="0" height="0" x="0" y="0" style="fill: rgb(128, 139, 164); fill-opacity: 1;"/></g><g class="g-gtitle"/><g class="g-xtitle"/><g class="g-ytitle"/></g></svg>