<svg class="main-svg" xmlns="http://www.w3.org/2000/svg" xmlns:xlink="http://www.w3.org/1999/xlink" width="700" height="350" style="" viewBox="0 0 700 350"><rect x="0" y="0" width="700" height="350" style="fill: rgb(33, 34, 38); fill-opacity: 1;"/><defs id="defs-79436e"><g class="clips"><clipPath id="clip79436exyplot" class="plotclip"><rect width="635" height="274"/></clipPath><clipPath class="axesclip" id="clip79436ex"><rect x="35" y="0" width="635" height="350"/></clipPath><clipPath class="axesclip" id="clip79436ey"><rect x="0" y="46" width="700" height="274"/></clipPath><clipPath class="axesclip" id="clip79436exy"><rect x="35" y="46" width="635" height="274"/></clipPath></g><g class="gradients"/><g class="patterns"/></defs><g class="bglayer"/><g class="layer-below"><g class="imagelayer"/><g class="shapelayer"><g class="shape-group" data-index="0" clip-path="url(#clip79436ex)"><path data-index="0" fill-rule="evenodd" d="M311.34,320H336.09V46H311.34Z" style="opacity: 0.15; stroke: rgb(0, 0, 0); stroke-opacity: 0; fill: rgb(66, 133, 244); fill-opacity: 1; stroke-width: 0px;"/></g><g class="shape-group" data-index="1" clip-path="url(#clip79436ex)"><path data-index="1" fill-rule="evenodd" d="M451.57,320H541.49V46H451.57Z" style="opacity: 0.15; stroke: rgb(0, 0, 0); stroke-opacity: 0; fill: rgb(66, 133, 244); fill-opacity: 1; stroke-width: 0px;"/></g><g class="shape-group" data-index="2" clip-path="url(#clip79436ex)"><path data-index="2" fill-rule="evenodd" d="M583.56,320H633.88V46H583.56Z" style="opacity: 0.15; stroke: rgb(0, 0, 0); stroke-opacity: 0; fill: rgb(66, 133, 244); fill-opacity: 1; stroke-width: 0px;"/></g></g></g><g class="cartesianlayer"><g class="subplot xy"><g class="layer-subplot"><g class="shapelayer"/><g class="imagelayer"/></g><g class="minor-gridlayer"><g class="x"/><g class="y"/></g><g class="gridlayer"><g class="x"><path class="xgrid crisp" transform="translate(59.75,0)" d="M0,46v274" style="stroke: rgb(49, 52, 57); stroke-opacity: 1; stroke-width: 1px;"/><path class="xgrid crisp" transform="translate(135.64,0)" d="M0,46v274" style="stroke: rgb(49, 52, 57); stroke-opacity: 1; stroke-width: 1px;"/><path class="xgrid crisp" transform="translate(211.53,0)" d="M0,46v274" style="stroke: rgb(49, 52, 57); stroke-opacity: 1; stroke-width: 1px;"/><path class="xgrid crisp" transform="translate(285.77,0)" d="M0,46v274" style="stroke: rgb(49, 52, 57); stroke-opacity: 1; stroke-width: 1px;"/><path class="xgrid crisp" transform="translate(360.83,0)" d="M0,46v274" style="stroke: rgb(49, 52, 57); stroke-opacity: 1; stroke-width: 1px;"/><path class="xgrid crisp" transform="translate(436.72,0)" d="M0,46v274" style="stroke: rgb(49, 52, 57); stroke-opacity: 1; stroke-width: 1px;"/><path class="xgrid crisp" transform="translate(512.62,0)" d="M0,46v274" style="stroke: rgb(49, 52, 57); stroke-opacity: 1; stroke-width: 1px;"/><path class="xgrid crisp" transform="translate(586.86,0)" d="M0,46v274" style="stroke: rgb(49, 52, 57); stroke-opacity: 1; stroke-width: 1px;"/><path class="xgrid crisp" transform="translate(661.92,0)" d="M0,46v274" style="stroke: rgb(49, 52, 57); stroke-opacity: 1; stroke-width: 1px;"/></g><g class="y"><path class="ygrid crisp" transform="translate(0,302.12)" d="M35,0h635" style="stroke: rgb(49, 52, 57); stroke-opacity: 1; stroke-width: 1px;"/><path class="ygrid crisp" transform="translate(0,259.76)" d="M35,0h635" style="stroke: rgb(49, 52, 57); stroke-opacity: 1; stroke-width: 1px;"/><path class="ygrid crisp" transform="translate(0,217.41)" d="M35,0h635" style="stroke: rgb(49, 52, 57); stroke-opacity: 1; stroke-width: 1px;"/><path class="ygrid crisp" transform="translate(0,175.05)" d="M35,0h635" style="stroke: rgb(49, 52, 57); stroke-opacity: 1; stroke-width: 1px;"/><path class="ygrid crisp" transform="translate(0,132.69)" d="M35,0h635" style="stroke: rgb(49, 52, 57); stroke-opacity: 1; stroke-width: 1px;"/><path class="ygrid crisp" transform="translate(0,90.33)" d="M35,0h635" style="stroke: rgb(49, 52, 57); stroke-opacity: 1; stroke-width: 1px;"/><path class="ygrid crisp" transform="translate(0,47.97)" d="M35,0h635" style="stroke: rgb(49, 52, 57); stroke-opacity: 1; stroke-width: 1px;"/></g></g><g class="zerolinelayer"/><path class="xlines-below"/><path class="ylines-below"/><g class="overlines-below"/><g class="xaxislayer-below"/><g class="yaxislayer-below"/><g class="overaxes-below"/><g class="plot" transform="translate(35,46)" clip-path="url(#clip79436exyplot)"><g class="scatterlayer mlayer"><g class="trace scatter traceea4b9642-2665-46b8-af81-a24c4390afba" style="stroke-miterlimit: 2; opacity: 1;"><g class="fills"/><g class="errorbars"/><g class="lines"><path class="js-line" d="M0,256.12L1.65,257.93L2.47,257.36L6.6,257.22L7.42,256.71L9.07,258.59L9.9,258.5L11.55,259.18L12.37,258.26L15.67,259.05L16.5,258.95L18.15,257.64L18.97,258.7L21.45,260.3L22.27,260L24.75,259.51L25.57,259.95L28.05,260.21L28.87,259.26L31.35,259.18L32.17,259.33L40.42,259.63L41.24,258.97L45.37,256.56L46.19,252.82L49.49,250.84L50.32,249.23L51.97,251L52.79,251.03L54.44,248.75L55.27,249.31L57.74,248.48L58.57,249.84L59.39,250.01L60.22,249.28L63.52,246.92L64.34,247.44L65.99,248.48L66.82,249.21L68.47,249.23L69.29,248.84L70.94,250.13L71.77,250.41L75.89,248.37L76.72,249.76L78.37,254.78L79.19,255.34L84.14,254.73L84.96,254.44L85.79,254.55L86.61,253.82L88.26,252.3L89.09,252.27L91.56,252.28L92.39,253.72L94.04,254.83L94.86,253.69L98.16,252.91L98.99,252.81L100.64,253.33L101.46,253.85L105.59,253.45L106.41,252.73L109.71,249.88L110.54,250.08L114.66,249.97L115.49,249.09L116.31,248.18L117.14,244.99L117.96,243.65L118.79,243.88L120.43,243.04L121.26,243.34L122.08,241.37L122.91,241.98L124.56,241.52L125.38,240.16L126.21,240.22L127.03,241.19L128.68,239.28L129.51,234.33L130.33,232.53L131.16,235.06L132.81,233.57L133.63,233.77L136.11,229.64L136.93,230.61L137.76,230.83L138.58,228.65L140.23,222.99L141.06,223.2L142.71,219.44L143.53,221.14L144.36,220.63L145.18,218.57L146.01,218.42L146.83,224.7L147.66,226.42L148.48,224.4L149.31,222.15L150.13,216.95L150.96,218.49L151.78,218.17L152.61,216.75L153.43,218.36L154.26,218.25L155.08,217.1L155.91,217.31L156.73,219.67L159.21,222.37L160.03,219.73L161.68,217.12L162.5,216.52L164.98,201.42L165.8,198.6L166.63,198.5L167.45,201.57L168.28,199.64L169.1,199.74L169.93,199.32L170.75,195.5L172.4,184.96L173.23,184.56L174.05,184.57L174.88,178.2L176.53,174.86L177.35,165.16L178.18,157.65L179,166.16L179.83,159.81L180.65,147.41L182.3,130.41L183.13,128.78L185.6,152.75L186.43,146.55L187.25,134.77L188.08,141.9L189.73,148.06L190.55,144.72L191.38,143.75L192.2,149.83L193.85,163.47L194.68,161.63L195.5,162.61L196.33,158.64L197.98,168.35L198.8,161.54L199.63,150.65L200.45,154.43L201.27,157.84L202.1,156.52L204.57,140.62L205.4,138.69L206.22,131.37L207.05,134.91L208.7,101.48L209.52,106.68L211.17,97.42L212,98.68L212.82,93.33L213.65,97.29L218.6,56.7L219.42,73.67L220.25,89.56L221.07,89.46L221.9,92.63L222.72,102.49L223.55,101.51L224.37,108.19L226.02,92.78L226.85,85.15L228.5,94.45L229.32,93.53L233.45,58.17L234.27,58.07L235.1,45.59L235.92,44.81L237.57,62.53L238.4,55.61L239.22,51.67L240.04,53.13L240.87,50.26L241.69,56.49L243.34,68.09L244.17,70.87L244.99,79.62L245.82,70.72L247.47,62.65L248.29,57.26L249.12,51.13L249.94,50.95L251.59,47.75L252.42,53.19L253.24,54.1L254.07,51.14L254.89,51.53L255.72,58.34L257.37,51.83L258.19,45.5L259.84,43.61L260.67,34.22L261.49,31.46L262.32,31.65L263.97,41.38L264.79,61.87L266.44,62.92L267.27,66.81L269.74,86.87L270.57,91.54L272.22,67.35L273.04,65.39L273.87,71.04L274.69,60.33L275.52,53.91L276.34,57.71L277.17,54.8L277.99,67.7L279.64,58.52L280.46,56.75L281.29,51.02L282.11,53.12L283.76,61.41L284.59,77.89L285.41,90.87L286.24,86.51L289.54,113.66L290.36,142.78L291.19,132.11L292.01,139.02L292.84,141.08L293.66,151.59L295.31,136.76L296.14,132.04L296.96,134.59L297.79,144.26L298.61,149.41L299.44,149.51L301.09,142.81L301.91,140.75L302.74,134.85L303.56,140.8L306.86,159.48L307.69,146.95L308.51,141.83L309.34,141.83L310.16,146.54L310.99,138.71L311.81,128.61L312.64,127.66L315.94,147.76L316.76,150.12L318.41,164.89L319.24,156.94L320.06,154.11L320.88,159.6L321.71,164.11L322.53,155.28L324.18,147.77L325.01,150L326.66,156.63L327.48,153.15L328.31,149.36L329.13,154.31L329.96,153.23L330.78,153.48L331.61,158.86L332.43,157.04L333.26,156.2L334.08,154.14L337.38,162.65L338.21,164.84L339.03,164.85L339.86,163.89L341.51,171.22L342.33,165.07L345.63,150.75L346.46,138.94L350.58,122.12L351.41,126.41L353.06,135.22L353.88,133L354.71,129.69L355.53,120.46L357.18,111.59L358.01,107.18L359.65,104.2L360.48,108.73L362.13,99.14L362.95,101.03L363.78,101.35L364.6,106.13L365.43,108L366.25,104.03L367.9,91.21L368.73,91.22L369.55,88.08L370.38,93.56L371.2,93.24L372.03,97.35L373.68,91.57L374.5,92.11L376.15,97.92L376.98,94.49L378.63,87.66L379.45,86.94L381.1,77.63L381.93,97.1L382.75,103.91L383.58,101.79L384.4,106.43L385.23,106.62L386.05,104.72L386.88,107.6L388.53,96.14L389.35,96.13L390.18,97.77L391,94.92L391.83,97.36L392.65,110.89L393.48,123.44L394.3,117.6L395.13,110.82L395.95,116.78L396.78,118.76L397.6,117.95L398.43,116.91L399.25,122.41L400.07,122.17L400.9,115.81L402.55,96.01L403.37,94.43L404.2,92.83L405.02,83.33L406.67,69.08L407.5,67.39L408.32,66.78L409.15,65.09L409.97,58.84L410.8,61.9L412.45,54.64L413.27,42.28L414.1,39.52L414.92,41.21L415.75,37.91L416.57,30.09L417.4,21.06L418.22,29.04L419.87,40.66L420.7,41.7L421.52,33.83L422.35,39.47L423.17,47.28L424,43.07L424.82,36.69L425.65,37.42L427.3,40.44L428.12,32.87L431.42,39.98L432.25,33.2L433.9,13.7L434.72,20.74L436.37,27.6L437.2,26.34L438.02,23.65L438.85,25.4L440.49,44.96L441.32,52.32L442.14,55.67L442.97,48.7L443.79,48.37L444.62,56.61L446.27,57.45L447.09,50.88L448.74,67.47L449.57,61.31L450.39,53.78L451.22,55.62L452.04,54.64L452.87,58.97L453.69,68.5L454.52,93.73L456.17,88.9L456.99,83.07L457.82,86.31L458.64,92.81L459.47,95L460.29,92.86L461.12,87.44L461.94,97.19L463.59,93.87L464.42,94.34L465.24,101.4L466.07,101.19L466.89,98.85L467.72,100.79L470.19,86.5L471.02,82.43L472.67,84.62L473.49,82.12L475.14,99.82L475.97,99.51L476.79,100.18L477.62,98.15L478.44,98.08L479.26,101.22L480.09,102.38L480.91,110.66L483.39,122.72L484.21,120.79L485.04,123.79L485.86,119.03L486.69,113.98L487.51,115.82L488.34,117.42L489.16,115.72L489.99,116.16L490.81,119.28L493.29,122.36L494.11,138.95L494.94,148.94L495.76,146.92L496.59,147.22L497.41,142.88L498.24,140.39L499.06,143.31L500.71,137.3L501.54,138.09L502.36,137.74L503.19,134.75L504.84,141.83L505.66,128.52L508.96,111.82L509.79,111.7L510.61,111.41L511.44,117.42L513.09,119.61L513.91,119.26L514.74,112.5L515.56,112.48L517.21,128.5L518.04,128.82L519.68,138.5L520.51,138.92L521.33,138.17L522.16,139.65L523.81,131.82L524.63,136.74L526.28,111.85L527.11,111.22L529.58,132.69L530.41,134.41L531.23,136.54L532.06,134.75L532.88,124.54L533.71,129.05L535.36,133.35L536.18,136.58L537.01,133.04L537.83,132.91L539.48,124.96L540.31,123.09L541.13,120.43L541.96,122.74L542.78,124.79L543.61,119.73L544.43,118.23L545.26,113.84L546.91,110.16L547.73,103.28L549.38,97.3L550.21,99.1L551.86,104.76L552.68,102.72L553.51,101.68L554.33,102.8L555.16,103.56L555.98,112.39L558.46,118.2L559.28,118.55L560.93,129.01L561.75,125.8L562.58,127.64L563.4,127.37L564.23,127.52L565.05,129.3L565.88,128.41L566.7,123.65L567.53,122.87L568.35,124.52L570,130.87L570.83,131.42L571.65,130.12L572.48,133.83L573.3,133.86L574.13,130.47L575.78,137.51L576.6,136.77L577.43,135.06L578.25,137.66L579.08,132.74L579.9,140.38L582.38,152.67L583.2,165.26L584.03,166.6L584.85,172.75L585.68,177.09L586.5,172.65L587.33,172.73L588.15,168.2L588.98,171L589.8,170.44L590.63,174.12L591.45,172.03L593.1,174.16L593.93,171.35L595.58,173.99L596.4,172.73L598.05,176.62L598.88,176L599.7,174.38L600.52,166.81L601.35,163.78" style="vector-effect: none; fill: none; stroke: rgb(31, 119, 180); stroke-opacity: 1; stroke-width: 2px; opacity: 1;"/></g><g class="points"/><g class="text"/></g><g class="trace scatter trace3b6ce6a4-2367-4af4-a664-56c8505e77f4" style="stroke-miterlimit: 2; opacity: 1;"><g class="fills"/><g class="errorbars"/><g class="lines"/><g class="points"><path class="point plotly-customdata" transform="translate(276.34,57.71)" d="M4.55,0L0,4.55L-4.55,0L0,-4.55Z" style="opacity: 1; stroke-width: 1px; fill: rgb(66, 133, 244); fill-opacity: 1; stroke: rgb(11, 84, 205); stroke-opacity: 1;"/><path class="point plotly-customdata" transform="translate(416.57,30.09)" d="M4.55,0L0,4.55L-4.55,0L0,-4.55Z" style="opacity: 1; stroke-width: 1px; fill: rgb(66, 133, 244); fill-opacity: 1; stroke: rgb(11, 84, 205); stroke-opacity: 1;"/><path class="point plotly-customdata" transform="translate(548.56,98.02)" d="M4.55,0L0,4.55L-4.55,0L0,-4.55Z" style="opacity: 1; stroke-width: 1px; fill: rgb(66, 133, 244); fill-opacity: 1; stroke: rgb(11, 84, 205); stroke-opacity: 1;"/></g><g class="text"/></g><g class="trace scatter trace94be4a99-5870-47d1-b2ab-5786d47fa8d6" style="stroke-miterlimit: 2; opacity: 1;"><g class="fills"/><g class="errorbars"/><g class="lines"/><g class="points"><path class="point plotly-customdata" transform="translate(301.09,142.81)" d="M4.55,0L0,4.55L-4.55,0L0,-4.55Z" style="opacity: 1; stroke-width: 1px; fill: rgb(55, 177, 63); fill-opacity: 1; stroke: rgb(38, 123, 44); stroke-opacity: 1;"/><path class="point plotly-customdata" transform="translate(506.49,123.2)" d="M4.55,0L0,4.55L-4.55,0L0,-4.55Z" style="opacity: 1; stroke-width: 1px; fill: rgb(55, 177, 63); fill-opacity: 1; stroke: rgb(38, 123, 44); stroke-opacity: 1;"/><path class="point plotly-customdata" transform="translate(598.88,176)" d="M4.55,0L0,4.55L-4.55,0L0,-4.55Z" style="opacity: 1; stroke-width: 1px; fill: rgb(55, 177, 63); fill-opacity: 1; stroke: rgb(38, 123, 44); stroke-opacity: 1;"/></g><g class="text"/></g><g class="trace scatter trace16672f91-8497-483b-b889-30444f088868" style="stroke-miterlimit: 2;"><g class="fills"><g><path class="js-fill" d="M276.34,51.02L300.26,151.59L300.26,144.71L299.44,149.51L298.61,149.41L297.79,144.26L296.96,134.59L296.14,132.04L295.31,136.76L293.66,151.59L292.84,141.08L292.01,139.02L291.19,132.11L290.36,142.78L289.54,113.66L286.24,86.51L285.41,90.87L284.59,77.89L283.76,61.41L282.11,53.12L281.29,51.02L280.46,56.75L279.64,58.52L277.99,67.7L277.17,54.8L276.34,57.71Z" style="fill: rgb(23, 190, 207); fill-opacity: 0.25; stroke-width: 0;"/></g></g><g class="errorbars"/><g class="lines"><path class="js-line" d="M276.34,57.71L277.17,54.8L277.99,67.7L279.64,58.52L280.46,56.75L281.29,51.02L282.11,53.12L283.76,61.41L284.59,77.89L285.41,90.87L286.24,86.51L289.54,113.66L290.36,142.78L291.19,132.11L292.01,139.02L292.84,141.08L293.66,151.59L295.31,136.76L296.14,132.04L296.96,134.59L297.79,144.26L298.61,149.41L299.44,149.51L300.26,144.71" style="vector-effect: none; fill: none; stroke: rgb(0, 0, 0); stroke-opacity: 0; stroke-width: 0px; opacity: 1;"/></g><g class="points"/><g class="text"/></g><g class="trace scatter tracea6c0b641-2acc-454f-8fad-73c9eb77c4a1" style="stroke-miterlimit: 2;"><g class="fills"/><g class="errorbars"/><g class="lines"><path class="js-line" d="M276.34,51.02L300.26,151.59" style="vector-effect: none; fill: none; stroke: rgb(23, 190, 207); stroke-opacity: 0.75; stroke-width: 2px; opacity: 1;"/></g><g class="points"/><g class="text"/></g><g class="trace scatter trace676c2cdc-c5c4-4c03-a2b8-e0b2972d6db2" style="stroke-miterlimit: 2;"><g class="fills"><g><path class="js-fill" d="M416.57,13.7L505.66,148.94L505.66,128.52L504.84,141.83L503.19,134.75L502.36,137.74L501.54,138.09L500.71,137.3L499.06,143.31L498.24,140.39L497.41,142.88L496.59,147.22L495.76,146.92L494.94,148.94L494.11,138.95L493.29,122.36L490.81,119.28L489.99,116.16L489.16,115.72L488.34,117.42L487.51,115.82L486.69,113.98L485.86,119.03L485.04,123.79L484.21,120.79L483.39,122.72L480.91,110.66L480.09,102.38L479.26,101.22L478.44,98.08L477.62,98.15L476.79,100.18L475.97,99.51L475.14,99.82L473.49,82.12L472.67,84.62L471.02,82.43L470.19,86.5L467.72,100.79L466.89,98.85L466.07,101.19L465.24,101.4L464.42,94.34L463.59,93.87L461.94,97.19L461.12,87.44L460.29,92.86L459.47,95L458.64,92.81L457.82,86.31L456.99,83.07L456.17,88.9L454.52,93.73L453.69,68.5L452.87,58.97L452.04,54.64L451.22,55.62L450.39,53.78L449.57,61.31L448.74,67.47L447.09,50.88L446.27,57.45L444.62,56.61L443.79,48.37L442.97,48.7L442.14,55.67L441.32,52.32L440.49,44.96L438.85,25.4L438.02,23.65L437.2,26.34L436.37,27.6L434.72,20.74L433.9,13.7L432.25,33.2L431.42,39.98L428.12,32.87L427.3,40.44L425.65,37.42L424.82,36.69L424,43.07L423.17,47.28L422.35,39.47L421.52,33.83L420.7,41.7L419.87,40.66L418.22,29.04L417.4,21.06L416.57,30.09Z" style="fill: rgb(23, 190, 207); fill-opacity: 0.25; stroke-width: 0;"/></g></g><g class="errorbars"/><g class="lines"><path class="js-line" d="M416.57,30.09L417.4,21.06L418.22,29.04L419.87,40.66L420.7,41.7L421.52,33.83L422.35,39.47L423.17,47.28L424,43.07L424.82,36.69L425.65,37.42L427.3,40.44L428.12,32.87L431.42,39.98L432.25,33.2L433.9,13.7L434.72,20.74L436.37,27.6L437.2,26.34L438.02,23.65L438.85,25.4L440.49,44.96L441.32,52.32L442.14,55.67L442.97,48.7L443.79,48.37L444.62,56.61L446.27,57.45L447.09,50.88L448.74,67.47L449.57,61.31L450.39,53.78L451.22,55.62L452.04,54.64L452.87,58.97L453.69,68.5L454.52,93.73L456.17,88.9L456.99,83.07L457.82,86.31L458.64,92.81L459.47,95L460.29,92.86L461.12,87.44L461.94,97.19L463.59,93.87L464.42,94.34L465.24,101.4L466.07,101.19L466.89,98.85L467.72,100.79L470.19,86.5L471.02,82.43L472.67,84.62L473.49,82.12L475.14,99.82L475.97,99.51L476.79,100.18L477.62,98.15L478.44,98.08L479.26,101.22L480.09,102.38L480.91,110.66L483.39,122.72L484.21,120.79L485.04,123.79L485.86,119.03L486.69,113.98L487.51,115.82L488.34,117.42L489.16,115.72L489.99,116.16L490.81,119.28L493.29,122.36L494.11,138.95L494.94,148.94L495.76,146.92L496.59,147.22L497.41,142.88L498.24,140.39L499.06,143.31L500.71,137.3L501.54,138.09L502.36,137.74L503.19,134.75L504.84,141.83L505.66,128.52" style="vector-effect: none; fill: none; stroke: rgb(0, 0, 0); stroke-opacity: 0; stroke-width: 0px; opacity: 1;"/></g><g class="points"/><g class="text"/></g><g class="trace scatter trace326c9d30-35a2-4d17-93d3-b749e304a931" style="stroke-miterlimit: 2;"><g class="fills"/><g class="errorbars"/><g class="lines"><path class="js-line" d="M416.57,13.7L505.66,148.94" style="vector-effect: none; fill: none; stroke: rgb(23, 190, 207); stroke-opacity: 0.75; stroke-width: 2px; opacity: 1;"/></g><g class="points"/><g class="text"/></g><g class="trace scatter trace3fc35100-0c5a-4b06-b71a-a5459fc3a2a5" style="stroke-miterlimit: 2;"><g class="fills"><g><path class="js-fill" d="M548.56,97.3L598.05,177.09L598.05,176.62L596.4,172.73L595.58,173.99L593.93,171.35L593.1,174.16L591.45,172.03L590.63,174.12L589.8,170.44L588.98,171L588.15,168.2L587.33,172.73L586.5,172.65L585.68,177.09L584.85,172.75L584.03,166.6L583.2,165.26L582.38,152.67L579.9,140.38L579.08,132.74L578.25,137.66L577.43,135.06L576.6,136.77L575.78,137.51L574.13,130.47L573.3,133.86L572.48,133.83L571.65,130.12L570.83,131.42L570,130.87L568.35,124.52L567.53,122.87L566.7,123.65L565.88,128.41L565.05,129.3L564.23,127.52L563.4,127.37L562.58,127.64L561.75,125.8L560.93,129.01L559.28,118.55L558.46,118.2L555.98,112.39L555.16,103.56L554.33,102.8L553.51,101.68L552.68,102.72L551.86,104.76L550.21,99.1L549.38,97.3L548.56,98.02Z" style="fill: rgb(23, 190, 207); fill-opacity: 0.25; stroke-width: 0;"/></g></g><g class="errorbars"/><g class="lines"><path class="js-line" d="M548.56,98.02L549.38,97.3L550.21,99.1L551.86,104.76L552.68,102.72L553.51,101.68L554.33,102.8L555.16,103.56L555.98,112.39L558.46,118.2L559.28,118.55L560.93,129.01L561.75,125.8L562.58,127.64L563.4,127.37L564.23,127.52L565.05,129.3L565.88,128.41L566.7,123.65L567.53,122.87L568.35,124.52L570,130.87L570.83,131.42L571.65,130.12L572.48,133.83L573.3,133.86L574.13,130.47L575.78,137.51L576.6,136.77L577.43,135.06L578.25,137.66L579.08,132.74L579.9,140.38L582.38,152.67L583.2,165.26L584.03,166.6L584.85,172.75L585.68,177.09L586.5,172.65L587.33,172.73L588.15,168.2L588.98,171L589.8,170.44L590.63,174.12L591.45,172.03L593.1,174.16L593.93,171.35L595.58,173.99L596.4,172.73L598.05,176.62" style="vector-effect: none; fill: none; stroke: rgb(0, 0, 0); stroke-opacity: 0; stroke-width: 0px; opacity: 1;"/></g><g class="points"/><g class="text"/></g><g class="trace scatter trace35823cbb-436d-4736-a263-492153c7a62e" style="stroke-miterlimit: 2;"><g class="fills"/><g class="errorbars"/><g class="lines"><path class="js-line" d="M548.56,97.3L598.05,177.09" style="vector-effect: none; fill: none; stroke: rgb(23, 190, 207); stroke-opacity: 0.75; stroke-width: 2px; opacity: 1;"/></g><g class="points"/><g class="text"/></g></g></g><g class="overplot"/><path class="xlines-above crisp" d="M0,0" style="fill: none;"/><path class="ylines-above crisp" d="M0,0" style="fill: none;"/><g class="overlines-above"/><g class="xaxislayer-above"><g class="xtick"><text text-anchor="middle" x="0" y="333" transform="translate(59.75,0)" style="font-family: 'Open Sans', verdana, arial, sans-serif; font-size: 12px; fill: rgb(214, 223, 239); fill-opacity: 1; white-space: pre; opacity: 1;">Jul 2020</text></g><g class="xtick"><text text-anchor="middle" x="0" y="333" style="font-family: 'Open Sans', verdana, arial, sans-serif; font-size: 12px; fill: rgb(214, 223, 239); fill-opacity: 1; white-space: pre; opacity: 1;" transform="translate(135.64,0)">Oct 2020</text></g><g class="xtick"><text text-anchor="middle" x="0" y="333" style="font-family: 'Open Sans', verdana, arial, sans-serif; font-size: 12px; fill: rgb(214, 223, 239); fill-opacity: 1; white-space: pre; opacity: 1;" transform="translate(211.53,0)">Jan 2021</text></g><g class="xtick"><text text-anchor="middle" x="0" y="333" style="font-family: 'Open Sans', verdana, arial, sans-serif; font-size: 12px; fill: rgb(214, 223, 239); fill-opacity: 1; white-space: pre; opacity: 1;" transform="translate(285.77,0)">Apr 2021</text></g><g class="xtick"><text text-anchor="middle" x="0" y="333" style="font-family: 'Open Sans', verdana, arial, sans-serif; font-size: 12px; fill: rgb(214, 223, 239); fill-opacity: 1; white-space: pre; opacity: 1;" transform="translate(360.83,0)">Jul 2021</text></g><g class="xtick"><text text-anchor="middle" x="0" y="333" style="font-family: 'Open Sans', verdana, arial, sans-serif; font-size: 12px; fill: rgb(214, 223, 239); fill-opacity: 1; white-space: pre; opacity: 1;" transform="translate(436.72,0)">Oct 2021</text></g><g class="xtick"><text text-anchor="middle" x="0" y="333" style="font-family: 'Open Sans', verdana, arial, sans-serif; font-size: 12px; fill: rgb(214, 223, 239); fill-opacity: 1; white-space: pre; opacity: 1;" transform="translate(512.62,0)">Jan 2022</text></g><g class="xtick"><text text-anchor="middle" x="0" y="333" style="font-family: 'Open Sans', verdana, arial, sans-serif; font-size: 12px; fill: rgb(214, 223, 239); fill-opacity: 1; white-space: pre; opacity: 1;" transform="translate(586.86,0)">Apr 2022</text></g><g class="xtick"><text text-anchor="middle" x="0" y="333" style="font-family: 'Open Sans', verdana, arial, sans-serif; font-size: 12px; fill: rgb(214, 223, 239); fill-opacity: 1; white-space: pre; opacity: 1;" transform="translate(661.92,0)">Jul 2022</text></g></g><g class="yaxislayer-above"><g class="ytick"><text text-anchor="end" x="34" y="4.199999999999999" transform="translate(0,302.12)" style="font-family: 'Open Sans', verdana, arial, sans-serif; font-size: 12px; fill: rgb(214, 223, 239); fill-opacity: 1; white-space: pre; opacity: 1;">10k</text></g><g class="ytick"><text text-anchor="end" x="34" y="4.199999999999999" style="font-family: 'Open Sans', verdana, arial, sans-serif; font-size: 12px; fill: rgb(214, 223, 239); fill-opacity: 1; white-space: pre; opacity: 1;" transform="translate(0,259.76)">20k</text></g><g class="ytick"><text text-anchor="end" x="34" y="4.199999999999999" style="font-family: 'Open Sans', verdana, arial, sans-serif; font-size: 12px; fill: rgb(214, 223, 239); fill-opacity: 1; white-space: pre; opacity: 1;" transform="translate(0,217.41)">30k</text></g><g class="ytick"><text text-anchor="end" x="34" y="4.199999999999999" style="font-family: 'Open Sans', verdana, arial, sans-serif; font-size: 12px; fill: rgb(214, 223, 239); fill-opacity: 1; white-space: pre; opacity: 1;" transform="translate(0,175.05)">40k</text></g><g class="ytick"><text text-anchor="end" x="34" y="4.199999999999999" style="font-family: 'Open Sans', verdana, arial, sans-serif; font-size: 12px; fill: rgb(214, 223, 239); fill-opacity: 1; white-space: pre; opacity: 1;" transform="translate(0,132.69)">50k</text></g><g class="ytick"><text text-anchor="end" x="34" y="4.199999999999999" style="font-family: 'Open Sans', verdana, arial, sans-serif; font-size: 12px; fill: rgb(214, 223, 239); fill-opacity: 1; white-space: pre; opacity: 1;" transform="translate(0,90.33)">60k</text></g><g class="ytick"><text text-anchor="end" x="34" y="4.199999999999999" style="font-family: 'Open Sans', verdana, arial, sans-serif; font-size: 12px; fill: rgb(214, 223, 239); fill-opacity: 1; white-space: pre; opacity: 1;" transform="translate(0,47.97)">70k</text></g></g><g class="overaxes-above"/></g></g><g class="polarlayer"/><g class="smithlayer"/><g class="ternarylayer"/><g class="geolayer"/><g class="funnelarealayer"/><g class="pielayer"/><g class="iciclelayer"/><g class="treemaplayer"/><g class="sunburstlayer"/><g class="glimages"/><defs id="topdefs-79436e"><g class="clips"/><clipPath id="legend79436e"><rect width="326" height="29" x="0" y="0"/></clipPath></defs><g class="layer-above"><g class="imagelayer"/><g class="shapelayer"/></g><g class="infolayer"><g class="legend" pointer-events="all" transform="translate(344,11.519999999999996)"><rect class="bg" shape-rendering="crispEdges" width="326" height="29" x="0" y="0" style="stroke: rgb(68, 68, 68); stroke-opacity: 1; fill: rgb(33, 34, 38); fill-opacity: 1; stroke-width: 0px;"/><g class="scrollbox" transform="" clip-path="url(#legend79436e)"><g class="groups"><g class="traces" transform="translate(0,14.5)" style="opacity: 1;"><text class="legendtext" text-anchor="start" x="40" y="4.680000000000001" style="font-family: 'Open Sans', verdana, arial, sans-serif; font-size: 12px; fill: rgb(214, 223, 239); fill-opacity: 1; white-space: pre;">Close</text><g class="layers" style="opacity: 1;"><g class="legendfill"/><g class="legendlines"><path class="js-line" d="M5,0h30" style="fill: none; stroke: rgb(31, 119, 180); stroke-opacity: 1; stroke-width: 2px;"/></g><g class="legendsymbols"><g class="legendpoints"/></g></g><rect class="legendtoggle" x="0" y="-9.5" width="74.859375" height="19" style="fill: rgb(0, 0, 0); fill-opacity: 0;"/></g><g class="traces" transform="translate(77.359375,14.5)" style="opacity: 1;"><text class="legendtext" text-anchor="start" x="40" y="4.680000000000001" style="font-family: 'Open Sans', verdana, arial, sans-serif; font-size: 12px; fill: rgb(214, 223, 239); fill-opacity: 1; white-space: pre;">Start</text><g class="layers" style="opacity: 1;"><g class="legendfill"/><g class="legendlines"/><g class="legendsymbols"><g class="legendpoints"><path class="scatterpts" transform="translate(20,0)" d="M4.55,0L0,4.55L-4.55,0L0,-4.55Z" style="opacity: 1; stroke-width: 1px; fill: rgb(66, 133, 244); fill-opacity: 1; stroke: rgb(11, 84, 205); stroke-opacity: 1;"/></g></g></g><rect class="legendtoggle" x="0" y="-9.5" width="72.5" height="19" style="fill: rgb(0, 0, 0); fill-opacity: 0;"/></g><g class="traces" transform="translate(152.359375,14.5)" style="opacity: 1;"><text class="legendtext" text-anchor="start" x="40" y="4.680000000000001" style="font-family: 'Open Sans', verdana, arial, sans-serif; font-size: 12px; fill: rgb(214, 223, 239); fill-opacity: 1; white-space: pre;">Closed</text><g class="layers" style="opacity: 1;"><g class="legendfill"/><g class="legendlines"/><g class="legendsymbols"><g class="legendpoints"><path class="scatterpts" transform="translate(20,0)" d="M4.55,0L0,4.55L-4.55,0L0,-4.55Z" style="opacity: 1; stroke-width: 1px; fill: rgb(55, 177, 63); fill-opacity: 1; stroke: rgb(38, 123, 44); stroke-opacity: 1;"/></g></g></g><rect class="legendtoggle" x="0" y="-9.5" width="82.34375" height="19" style="fill: rgb(0, 0, 0); fill-opacity: 0;"/></g><g class="traces" transform="translate(237.203125,14.5)" style="opacity: 1;"><text class="legendtext" text-anchor="start" x="40" y="4.680000000000001" style="font-family: 'Open Sans', verdana, arial, sans-serif; font-size: 12px; fill: rgb(214, 223, 239); fill-opacity: 1; white-space: pre;">Pattern</text><g class="layers"><g class="legendfill"><path class="js-fill" d="M5,-2h30v6h-30z" style="stroke-width: 0; fill: rgb(23, 190, 207); fill-opacity: 0.25;"/></g><g class="legendlines"><path class="js-line" d="M5,-2h30" style="fill: none; stroke: rgb(23, 190, 207); stroke-opacity: 0.75; stroke-width: 2px;"/></g><g class="legendsymbols"><g class="legendpoints"/></g></g><rect class="legendtoggle" x="0" y="-9.5" width="86.265625" height="19" style="fill: rgb(0, 0, 0); fill-opacity: 0;"/></g></g></g><rect class="scrollbar" rx="20" ry="3" width="0" height="0" x="0" y="0" style="fill: rgb(128, 139, 164); fill-opacity: 1;"/></g><g class="g-gtitle"/><g class="g-xtitle"/><g class="g-ytitle"/></g></svg>