<svg class="main-svg" xmlns="http://www.w3.org/2000/svg" xmlns:xlink="http://www.w3.org/1999/xlink" width="700" height="350" style="" viewBox="0 0 700 350"><rect x="0" y="0" width="700" height="350" style="fill: rgb(255, 255, 255); fill-opacity: 1;"/><defs id="defs-149c87"><g class="clips"><clipPath id="clip149c87xyplot" class="plotclip"><rect width="635" height="274"/></clipPath><clipPath class="axesclip" id="clip149c87x"><rect x="35" y="0" width="635" height="350"/></clipPath><clipPath class="axesclip" id="clip149c87y"><rect x="0" y="46" width="700" height="274"/></clipPath><clipPath class="axesclip" id="clip149c87xy"><rect x="35" y="46" width="635" height="274"/></clipPath></g><g class="gradients"/><g class="patterns"/></defs><g class="bglayer"><rect class="bg" x="35" y="46" width="635" height="274" style="fill: rgb(229, 236, 246); fill-opacity: 1; stroke-width: 0;"/></g><g class="layer-below"><g class="imagelayer"/><g class="shapelayer"><g class="shape-group" data-index="0" clip-path="url(#clip149c87x)"><path data-index="0" fill-rule="evenodd" d="M228.37,320H254.51V46H228.37Z" style="opacity: 0.15; stroke: rgb(0, 0, 0); stroke-opacity: 0; fill: rgb(66, 133, 244); fill-opacity: 1; stroke-width: 0px;"/></g><g class="shape-group" data-index="1" clip-path="url(#clip149c87x)"><path data-index="1" fill-rule="evenodd" d="M336.39,320H427.85V46H336.39Z" style="opacity: 0.15; stroke: rgb(0, 0, 0); stroke-opacity: 0; fill: rgb(66, 133, 244); fill-opacity: 1; stroke-width: 0px;"/></g><g class="shape-group" data-index="2" clip-path="url(#clip149c87x)"><path data-index="2" fill-rule="evenodd" d="M548.92,320H575.05V46H548.92Z" style="opacity: 0.15; stroke: rgb(0, 0, 0); stroke-opacity: 0; fill: rgb(66, 133, 244); fill-opacity: 1; stroke-width: 0px;"/></g></g></g><g class="cartesianlayer"><g class="subplot xy"><g class="layer-subplot"><g class="shapelayer"/><g class="imagelayer"/></g><g class="minor-gridlayer"><g class="x"/><g class="y"/></g><g class="gridlayer"><g class="x"><path class="xgrid crisp" transform="translate(61.129999999999995,0)" d="M0,46v274" style="stroke: rgb(255, 255, 255); stroke-opacity: 1; stroke-width: 1px;"/><path class="xgrid crisp" transform="translate(141.26999999999998,0)" d="M0,46v274" style="stroke: rgb(255, 255, 255); stroke-opacity: 1; stroke-width: 1px;"/><path class="xgrid crisp" transform="translate(221.41,0)" d="M0,46v274" style="stroke: rgb(255, 255, 255); stroke-opacity: 1; stroke-width: 1px;"/><path class="xgrid crisp" transform="translate(299.8,0)" d="M0,46v274" style="stroke: rgb(255, 255, 255); stroke-opacity: 1; stroke-width: 1px;"/><path class="xgrid crisp" transform="translate(379.07,0)" d="M0,46v274" style="stroke: rgb(255, 255, 255); stroke-opacity: 1; stroke-width: 1px;"/><path class="xgrid crisp" transform="translate(459.2,0)" d="M0,46v274" style="stroke: rgb(255, 255, 255); stroke-opacity: 1; stroke-width: 1px;"/><path class="xgrid crisp" transform="translate(539.3399999999999,0)" d="M0,46v274" style="stroke: rgb(255, 255, 255); stroke-opacity: 1; stroke-width: 1px;"/><path class="xgrid crisp" transform="translate(617.74,0)" d="M0,46v274" style="stroke: rgb(255, 255, 255); stroke-opacity: 1; stroke-width: 1px;"/></g><g class="y"><path class="ygrid crisp" transform="translate(0,302.12)" d="M35,0h635" style="stroke: rgb(255, 255, 255); stroke-opacity: 1; stroke-width: 1px;"/><path class="ygrid crisp" transform="translate(0,259.76)" d="M35,0h635" style="stroke: rgb(255, 255, 255); stroke-opacity: 1; stroke-width: 1px;"/><path class="ygrid crisp" transform="translate(0,217.41)" d="M35,0h635" style="stroke: rgb(255, 255, 255); stroke-opacity: 1; stroke-width: 1px;"/><path class="ygrid crisp" transform="translate(0,175.05)" d="M35,0h635" style="stroke: rgb(255, 255, 255); stroke-opacity: 1; stroke-width: 1px;"/><path class="ygrid crisp" transform="translate(0,132.69)" d="M35,0h635" style="stroke: rgb(255, 255, 255); stroke-opacity: 1; stroke-width: 1px;"/><path class="ygrid crisp" transform="translate(0,90.33)" d="M35,0h635" style="stroke: rgb(255, 255, 255); stroke-opacity: 1; stroke-width: 1px;"/><path class="ygrid crisp" transform="translate(0,47.97)" d="M35,0h635" style="stroke: rgb(255, 255, 255); stroke-opacity: 1; stroke-width: 1px;"/></g></g><g class="zerolinelayer"/><path class="xlines-below"/><path class="ylines-below"/><g class="overlines-below"/><g class="xaxislayer-below"/><g class="yaxislayer-below"/><g class="overaxes-below"/><g class="plot" transform="translate(35,46)" clip-path="url(#clip149c87xyplot)"><g class="scatterlayer mlayer"><g class="trace scatter traceea3eb5e3-1dd7-434f-8ab8-a58890ab410a" style="stroke-miterlimit: 2; opacity: 1;"><g class="fills"/><g class="errorbars"/><g class="lines"><path class="js-line" d="M0,256.12L1.74,257.93L2.61,257.36L6.97,257.22L7.84,256.71L9.58,258.59L10.45,258.5L12.19,259.18L13.07,258.26L16.55,259.05L17.42,258.95L19.16,257.64L20.03,258.7L22.65,260.3L23.52,260L26.13,259.51L27,259.95L29.62,260.21L30.49,259.26L33.1,259.18L33.97,259.33L42.68,259.63L43.55,258.97L47.91,256.56L48.78,252.82L52.26,250.84L53.13,249.23L54.88,251L55.75,251.03L57.49,248.75L58.36,249.31L60.97,248.48L61.84,249.84L62.72,250.01L63.59,249.28L67.07,246.92L67.94,247.44L68.81,248.59L69.68,248.48L71.43,249.45L72.3,249.23L73.17,248.84L74.04,250.19L77.52,249.82L78.4,249.22L80.14,248.37L81.01,249.76L82.75,254.78L83.62,255.34L88.85,254.73L89.72,254.44L90.59,254.55L91.46,253.82L93.2,252.3L94.07,252.27L96.69,252.28L97.56,253.72L99.3,254.83L100.17,253.69L103.66,252.91L104.53,252.81L106.27,253.33L107.14,253.85L111.5,253.45L112.37,252.73L115.85,249.88L116.72,250.08L121.08,249.97L121.95,249.09L122.82,248.18L123.69,244.99L124.56,243.65L125.43,243.88L127.17,243.04L128.05,243.34L128.92,241.37L129.79,241.98L131.53,241.52L132.4,240.16L133.27,240.22L134.14,241.19L135.88,239.28L136.76,234.33L137.63,232.53L138.5,235.06L140.24,233.57L141.11,233.77L143.72,229.64L144.6,230.61L145.47,230.83L146.34,228.65L148.08,222.99L148.95,223.2L150.69,219.44L151.56,221.14L152.43,220.63L153.31,218.57L154.18,218.42L155.05,224.7L155.92,226.42L156.79,224.4L157.66,222.15L158.53,216.95L159.4,218.49L160.27,218.17L161.15,216.75L162.02,218.36L162.89,218.25L163.76,217.1L164.63,217.31L165.5,219.67L167.24,221.21L168.11,222.37L169.86,217.58L170.73,217.12L171.6,216.52L172.47,210.69L174.21,201.42L175.08,198.6L175.95,198.5L176.82,201.57L177.7,199.64L178.57,199.74L179.44,199.32L180.31,195.5L182.05,184.96L182.92,184.56L183.79,184.57L184.66,178.2L186.41,174.86L187.28,165.16L188.15,157.65L189.02,166.16L189.89,159.81L190.76,147.41L192.5,130.41L193.37,128.78L194.25,136.66L195.12,151.51L195.99,152.75L196.86,146.55L197.73,134.77L198.6,141.9L200.34,148.06L201.21,144.72L202.09,143.75L202.96,149.83L203.83,162.2L204.7,163.47L205.57,161.63L206.44,162.61L207.31,158.64L208.18,162.61L209.05,168.35L209.92,161.54L210.8,150.65L211.67,154.43L212.54,157.84L213.41,156.52L216.02,140.62L216.89,138.69L217.76,131.37L218.64,134.91L220.38,101.48L221.25,106.68L222.99,97.42L223.86,98.68L224.73,93.33L225.6,97.29L230.83,56.7L231.7,73.67L232.57,89.56L233.44,89.46L234.31,92.63L235.19,102.49L236.06,101.51L236.93,108.19L238.67,92.78L239.54,85.15L241.28,94.45L242.15,93.53L245.64,63.75L246.51,58.17L247.38,58.07L248.25,45.59L249.12,44.81L249.99,57.27L250.86,62.53L251.74,55.61L252.61,51.67L253.48,53.13L254.35,50.26L255.22,56.49L256.96,68.09L257.83,70.87L258.7,79.62L259.57,70.72L260.45,63.44L261.32,62.65L263.06,51.13L263.93,50.95L265.67,47.75L266.54,53.19L267.41,54.1L268.29,51.14L269.16,51.53L270.03,58.34L271.77,51.83L272.64,45.5L274.38,43.61L275.25,34.22L276.12,31.46L277,31.65L278.74,41.38L279.61,61.87L281.35,62.92L282.22,66.81L283.96,85.62L284.84,86.87L285.71,91.54L286.58,76.65L288.32,65.39L289.19,71.04L290.93,53.91L291.8,57.71L292.67,54.8L293.55,67.7L295.29,58.52L296.16,56.75L297.03,51.02L297.9,53.12L299.64,61.41L300.51,77.89L301.39,90.87L302.26,86.51L305.74,113.66L306.61,142.78L307.48,132.11L308.35,139.02L309.22,141.08L310.1,151.59L311.84,136.76L312.71,132.04L313.58,134.59L314.45,144.26L315.32,149.41L316.19,149.51L317.94,142.81L318.81,140.75L319.68,134.85L320.55,140.8L324.03,159.48L324.9,146.95L325.78,141.83L326.65,141.83L327.52,146.54L328.39,138.71L329.26,128.61L330.13,127.66L333.61,147.76L334.49,150.12L336.23,164.89L337.1,156.94L337.97,154.11L338.84,159.6L339.71,164.11L340.58,155.28L342.33,147.77L343.2,150L344.94,156.63L345.81,153.15L346.68,149.36L347.55,154.31L348.42,153.23L349.29,153.48L350.16,158.86L351.04,157.04L351.91,156.2L352.78,154.14L356.26,162.65L357.13,164.84L358,164.85L358.88,163.89L360.62,171.22L361.49,165.07L364.97,150.75L365.84,138.94L367.59,129.48L368.46,129.25L370.2,122.12L371.07,126.41L372.81,135.22L373.68,133L374.55,129.69L375.43,120.46L376.3,112.5L377.17,111.59L378.91,105.22L379.78,104.2L380.65,108.73L381.52,100.95L382.39,99.14L383.26,101.03L384.14,101.35L385.01,106.13L385.88,108L386.75,104.03L388.49,91.21L389.36,91.22L390.23,88.08L391.1,93.56L391.98,93.24L392.85,97.35L394.59,91.57L395.46,92.11L397.2,97.92L398.07,94.49L399.81,87.66L400.69,86.94L402.43,77.63L403.3,97.1L404.17,103.91L405.04,101.79L405.91,106.43L406.78,106.62L407.65,104.72L408.53,107.6L410.27,96.14L411.14,96.13L412.01,97.77L412.88,94.92L413.75,97.36L414.62,110.89L415.49,123.44L416.36,117.6L417.24,110.82L418.11,116.78L418.98,118.76L419.85,117.95L420.72,116.91L421.59,122.41L422.46,122.17L423.33,115.81L425.08,96.01L425.95,94.43L426.82,92.83L427.69,83.33L428.56,70.53L429.43,69.08L432.04,65.09L432.91,58.84L433.79,61.9L434.66,59.42L435.53,54.64L436.4,42.28L437.27,39.52L438.14,41.21L439.01,37.91L439.88,30.09L440.75,21.06L441.63,29.04L443.37,40.66L444.24,41.7L445.11,33.83L445.98,39.47L446.85,47.28L447.72,43.07L448.59,36.69L449.47,37.42L451.21,40.44L452.08,32.87L455.56,39.98L456.43,33.2L458.18,13.7L459.05,20.74L460.79,27.6L461.66,26.34L462.53,23.65L463.4,25.4L465.14,44.96L466.02,52.32L466.89,55.67L467.76,48.7L468.63,48.37L469.5,56.61L471.24,57.45L472.11,50.88L473.85,67.47L474.73,61.31L475.6,53.78L476.47,55.62L477.34,54.64L478.21,58.97L479.08,68.5L479.95,93.73L481.69,88.9L482.57,83.07L483.44,86.31L484.31,92.81L485.18,95L486.05,92.86L486.92,87.44L487.79,97.19L489.53,93.87L490.4,94.34L491.28,101.4L492.15,101.19L493.02,98.85L493.89,100.79L495.63,91.51L496.5,86.5L497.37,82.43L498.24,84.29L499.12,84.62L499.99,82.12L501.73,99.82L502.6,99.51L503.47,100.18L504.34,98.15L505.21,98.08L506.08,101.22L506.95,102.38L507.83,110.66L510.44,122.72L511.31,120.79L512.18,123.79L513.05,119.03L513.92,113.98L514.79,115.82L515.67,117.42L516.54,115.72L517.41,116.16L518.28,119.28L520.89,122.36L521.76,138.95L522.63,148.94L523.5,146.92L524.38,147.22L525.25,142.88L526.12,140.39L526.99,143.31L528.73,137.3L529.6,138.09L530.47,137.74L531.34,134.75L533.09,141.83L533.96,128.52L537.44,111.82L538.31,111.7L539.18,111.41L540.05,117.42L541.8,119.61L542.67,119.26L543.54,112.5L544.41,112.48L546.15,128.5L547.02,128.82L548.77,138.5L549.64,138.92L550.51,138.17L551.38,139.65L553.12,131.82L553.99,136.74L555.73,111.85L556.6,111.22L557.48,117.21L558.35,128.73L560.09,134.41L560.96,136.54L561.83,134.75L562.7,124.54L564.44,133.02L565.32,133.35L566.19,136.58L567.06,133.04L567.93,132.91L568.8,126.7L571.41,120.43L572.28,122.74L573.16,124.79L574.03,119.73L574.9,118.23L575.77,113.84L577.51,110.16L578.38,103.28L580.12,97.3L580.99,99.1L582.74,104.76L583.61,102.72L584.48,101.68L585.35,102.8L586.22,103.56L587.09,112.39L589.71,118.2L590.58,118.55L592.32,129.01L593.19,125.8L594.06,127.64L594.93,127.37L595.8,127.52L596.67,129.3L597.54,128.41L598.42,123.65L599.29,122.87L600.16,124.52L601.9,130.87L602.77,131.42L603.64,130.12L604.51,133.83L605.38,133.86L606.26,130.47L608,137.51L608.87,136.77L609.74,135.06L610.61,137.66L611.48,132.74L612.35,140.38L614.97,152.67L615.84,165.26L616.71,166.6L617.58,172.75L618.45,177.09L619.32,172.65L620.19,172.73L621.06,168.2L621.93,171L622.81,170.44L623.68,174.12L624.55,172.03L626.29,174.16L627.16,171.35L628.9,173.99L629.77,172.73L631.52,176.62L632.39,176L633.26,174.38L634.13,166.81L635,163.78" style="vector-effect: none; fill: none; stroke: rgb(31, 119, 180); stroke-opacity: 1; stroke-width: 2px; opacity: 1;"/></g><g class="points"/><g class="text"/></g><g class="trace scatter tracec85cf561-deb3-4b44-bc8a-7c8f3eb9df24" style="stroke-miterlimit: 2; opacity: 1;"><g class="fills"/><g class="errorbars"/><g class="lines"/><g class="points"><path class="point plotly-customdata" transform="translate(193.37,128.78)" d="M4.55,0L0,4.55L-4.55,0L0,-4.55Z" style="opacity: 1; stroke-width: 1px; fill: rgb(66, 133, 244); fill-opacity: 1; stroke: rgb(11, 84, 205); stroke-opacity: 1;"/><path class="point plotly-customdata" transform="translate(301.39,90.87)" d="M4.55,0L0,4.55L-4.55,0L0,-4.55Z" style="opacity: 1; stroke-width: 1px; fill: rgb(66, 133, 244); fill-opacity: 1; stroke: rgb(11, 84, 205); stroke-opacity: 1;"/><path class="point plotly-customdata" transform="translate(513.92,113.98)" d="M4.55,0L0,4.55L-4.55,0L0,-4.55Z" style="opacity: 1; stroke-width: 1px; fill: rgb(66, 133, 244); fill-opacity: 1; stroke: rgb(11, 84, 205); stroke-opacity: 1;"/></g><g class="text"/></g><g class="trace scatter trace2fef3d54-58a7-4185-b18c-8ee683423cd1" style="stroke-miterlimit: 2; opacity: 1;"><g class="fills"/><g class="errorbars"/><g class="lines"/><g class="points"><path class="point plotly-customdata" transform="translate(219.51,113.29)" d="M4.55,0L0,4.55L-4.55,0L0,-4.55Z" style="opacity: 1; stroke-width: 1px; fill: rgb(55, 177, 63); fill-opacity: 1; stroke: rgb(38, 123, 44); stroke-opacity: 1;"/><path class="point plotly-customdata" transform="translate(392.85,97.35)" d="M4.55,0L0,4.55L-4.55,0L0,-4.55Z" style="opacity: 1; stroke-width: 1px; fill: rgb(55, 177, 63); fill-opacity: 1; stroke: rgb(38, 123, 44); stroke-opacity: 1;"/><path class="point plotly-customdata" transform="translate(540.05,117.42)" d="M4.55,0L0,4.55L-4.55,0L0,-4.55Z" style="opacity: 1; stroke-width: 1px; fill: rgb(55, 177, 63); fill-opacity: 1; stroke: rgb(38, 123, 44); stroke-opacity: 1;"/></g><g class="text"/></g><g class="trace scatter tracee3bd0a68-18c2-4c44-bbc6-2ec76d5d5272" style="stroke-miterlimit: 2;"><g class="fills"><g><path class="js-fill" d="M193.37,128.78L205.57,168.35L206.44,166.98L218.64,128.78L218.64,134.91L217.76,131.37L216.89,138.69L216.02,140.62L213.41,156.52L212.54,157.84L211.67,154.43L210.8,150.65L209.92,161.54L209.05,168.35L208.18,162.61L207.31,158.64L206.44,162.61L205.57,161.63L204.7,163.47L203.83,162.2L202.96,149.83L202.09,143.75L201.21,144.72L200.34,148.06L198.6,141.9L197.73,134.77L196.86,146.55L195.99,152.75L195.12,151.51L194.25,136.66L193.37,128.78Z" style="fill: rgb(23, 190, 207); fill-opacity: 0.25; stroke-width: 0;"/></g></g><g class="errorbars"/><g class="lines"><path class="js-line" d="M193.37,128.78L194.25,136.66L195.12,151.51L195.99,152.75L196.86,146.55L197.73,134.77L198.6,141.9L200.34,148.06L201.21,144.72L202.09,143.75L202.96,149.83L203.83,162.2L204.7,163.47L205.57,161.63L206.44,162.61L207.31,158.64L208.18,162.61L209.05,168.35L209.92,161.54L210.8,150.65L211.67,154.43L212.54,157.84L213.41,156.52L216.02,140.62L216.89,138.69L217.76,131.37L218.64,134.91" style="vector-effect: none; fill: none; stroke: rgb(0, 0, 0); stroke-opacity: 0; stroke-width: 0px; opacity: 1;"/></g><g class="points"/><g class="text"/></g><g class="trace scatter trace426eac6d-4089-4fce-8f32-0493e41df5d0" style="stroke-miterlimit: 2;"><g class="fills"/><g class="errorbars"/><g class="lines"><path class="js-line" d="M193.37,128.78L205.57,168.35L206.44,166.98L218.64,128.78" style="vector-effect: none; fill: none; stroke: rgb(23, 190, 207); stroke-opacity: 0.75; stroke-width: 2px; opacity: 1;"/></g><g class="points"/><g class="text"/></g><g class="trace scatter tracee90b70fa-f299-45f4-92d1-d2730885bb93" style="stroke-miterlimit: 2;"><g class="fills"><g><path class="js-fill" d="M301.39,86.51L346.68,171.22L347.55,169.59L391.98,86.51L391.98,93.24L391.1,93.56L390.23,88.08L389.36,91.22L388.49,91.21L386.75,104.03L385.88,108L385.01,106.13L384.14,101.35L383.26,101.03L382.39,99.14L381.52,100.95L380.65,108.73L379.78,104.2L378.91,105.22L377.17,111.59L376.3,112.5L375.43,120.46L374.55,129.69L373.68,133L372.81,135.22L371.07,126.41L370.2,122.12L368.46,129.25L367.59,129.48L365.84,138.94L364.97,150.75L361.49,165.07L360.62,171.22L358.88,163.89L358,164.85L357.13,164.84L356.26,162.65L352.78,154.14L351.91,156.2L351.04,157.04L350.16,158.86L349.29,153.48L348.42,153.23L347.55,154.31L346.68,149.36L345.81,153.15L344.94,156.63L343.2,150L342.33,147.77L340.58,155.28L339.71,164.11L338.84,159.6L337.97,154.11L337.1,156.94L336.23,164.89L334.49,150.12L333.61,147.76L330.13,127.66L329.26,128.61L328.39,138.71L327.52,146.54L326.65,141.83L325.78,141.83L324.9,146.95L324.03,159.48L320.55,140.8L319.68,134.85L318.81,140.75L317.94,142.81L316.19,149.51L315.32,149.41L314.45,144.26L313.58,134.59L312.71,132.04L311.84,136.76L310.1,151.59L309.22,141.08L308.35,139.02L307.48,132.11L306.61,142.78L305.74,113.66L304.87,111.79L304,100.73L303.13,95.14L302.26,86.51L301.39,90.87Z" style="fill: rgb(23, 190, 207); fill-opacity: 0.25; stroke-width: 0;"/></g></g><g class="errorbars"/><g class="lines"><path class="js-line" d="M301.39,90.87L302.26,86.51L303.13,95.14L304,100.73L304.87,111.79L305.74,113.66L306.61,142.78L307.48,132.11L308.35,139.02L309.22,141.08L310.1,151.59L311.84,136.76L312.71,132.04L313.58,134.59L314.45,144.26L315.32,149.41L316.19,149.51L317.94,142.81L318.81,140.75L319.68,134.85L320.55,140.8L324.03,159.48L324.9,146.95L325.78,141.83L326.65,141.83L327.52,146.54L328.39,138.71L329.26,128.61L330.13,127.66L333.61,147.76L334.49,150.12L336.23,164.89L337.1,156.94L337.97,154.11L338.84,159.6L339.71,164.11L340.58,155.28L342.33,147.77L343.2,150L344.94,156.63L345.81,153.15L346.68,149.36L347.55,154.31L348.42,153.23L349.29,153.48L350.16,158.86L351.04,157.04L351.91,156.2L352.78,154.14L356.26,162.65L357.13,164.84L358,164.85L358.88,163.89L360.62,171.22L361.49,165.07L364.97,150.75L365.84,138.94L367.59,129.48L368.46,129.25L370.2,122.12L371.07,126.41L372.81,135.22L373.68,133L374.55,129.69L375.43,120.46L376.3,112.5L377.17,111.59L378.91,105.22L379.78,104.2L380.65,108.73L381.52,100.95L382.39,99.14L383.26,101.03L384.14,101.35L385.01,106.13L385.88,108L386.75,104.03L388.49,91.21L389.36,91.22L390.23,88.08L391.1,93.56L391.98,93.24" style="vector-effect: none; fill: none; stroke: rgb(0, 0, 0); stroke-opacity: 0; stroke-width: 0px; opacity: 1;"/></g><g class="points"/><g class="text"/></g><g class="trace scatter trace0d2f2868-37b8-45fc-a50a-5b5ca01d103b" style="stroke-miterlimit: 2;"><g class="fills"/><g class="errorbars"/><g class="lines"><path class="js-line" d="M301.39,86.51L346.68,171.22L347.55,169.59L391.98,86.51" style="vector-effect: none; fill: none; stroke: rgb(23, 190, 207); stroke-opacity: 0.75; stroke-width: 2px; opacity: 1;"/></g><g class="points"/><g class="text"/></g><g class="trace scatter traceba4a59d7-13d1-4220-a7d8-57a9620a93af" style="stroke-miterlimit: 2;"><g class="fills"><g><path class="js-fill" d="M513.92,111.41L526.12,148.94L526.99,147.64L539.18,111.41L539.18,111.41L538.31,111.7L537.44,111.82L533.96,128.52L533.09,141.83L531.34,134.75L530.47,137.74L529.6,138.09L528.73,137.3L526.99,143.31L526.12,140.39L525.25,142.88L524.38,147.22L523.5,146.92L522.63,148.94L521.76,138.95L520.89,122.36L518.28,119.28L517.41,116.16L516.54,115.72L515.67,117.42L513.92,113.98Z" style="fill: rgb(23, 190, 207); fill-opacity: 0.25; stroke-width: 0;"/></g></g><g class="errorbars"/><g class="lines"><path class="js-line" d="M513.92,113.98L515.67,117.42L516.54,115.72L517.41,116.16L518.28,119.28L520.89,122.36L521.76,138.95L522.63,148.94L523.5,146.92L524.38,147.22L525.25,142.88L526.12,140.39L526.99,143.31L528.73,137.3L529.6,138.09L530.47,137.74L531.34,134.75L533.09,141.83L533.96,128.52L537.44,111.82L538.31,111.7L539.18,111.41" style="vector-effect: none; fill: none; stroke: rgb(0, 0, 0); stroke-opacity: 0; stroke-width: 0px; opacity: 1;"/></g><g class="points"/><g class="text"/></g><g class="trace scatter traced97325a3-906f-428d-9c58-80069132f199" style="stroke-miterlimit: 2;"><g class="fills"/><g class="errorbars"/><g class="lines"><path class="js-line" d="M513.92,111.41L526.12,148.94L526.99,147.64L539.18,111.41" style="vector-effect: none; fill: none; stroke: rgb(23, 190, 207); stroke-opacity: 0.75; stroke-width: 2px; opacity: 1;"/></g><g class="points"/><g class="text"/></g></g></g><g class="overplot"/><path class="xlines-above crisp" d="M0,0" style="fill: none;"/><path class="ylines-above crisp" d="M0,0" style="fill: none;"/><g class="overlines-above"/><g class="xaxislayer-above"><g class="xtick"><text text-anchor="middle" x="0" y="333" transform="translate(61.129999999999995,0)" style="font-family: 'Open Sans', verdana, arial, sans-serif; font-size: 12px; fill: rgb(42, 63, 95); fill-opacity: 1; white-space: pre; opacity: 1;">Jul 2020</text></g><g class="xtick"><text text-anchor="middle" x="0" y="333" style="font-family: 'Open Sans', verdana, arial, sans-serif; font-size: 12px; fill: rgb(42, 63, 95); fill-opacity: 1; white-space: pre; opacity: 1;" transform="translate(141.26999999999998,0)">Oct 2020</text></g><g class="xtick"><text text-anchor="middle" x="0" y="333" style="font-family: 'Open Sans', verdana, arial, sans-serif; font-size: 12px; fill: rgb(42, 63, 95); fill-opacity: 1; white-space: pre; opacity: 1;" transform="translate(221.41,0)">Jan 2021</text></g><g class="xtick"><text text-anchor="middle" x="0" y="333" style="font-family: 'Open Sans', verdana, arial, sans-serif; font-size: 12px; fill: rgb(42, 63, 95); fill-opacity: 1; white-space: pre; opacity: 1;" transform="translate(299.8,0)">Apr 2021</text></g><g class="xtick"><text text-anchor="middle" x="0" y="333" style="font-family: 'Open Sans', verdana, arial, sans-serif; font-size: 12px; fill: rgb(42, 63, 95); fill-opacity: 1; white-space: pre; opacity: 1;" transform="translate(379.07,0)">Jul 2021</text></g><g class="xtick"><text text-anchor="middle" x="0" y="333" style="font-family: 'Open Sans', verdana, arial, sans-serif; font-size: 12px; fill: rgb(42, 63, 95); fill-opacity: 1; white-space: pre; opacity: 1;" transform="translate(459.2,0)">Oct 2021</text></g><g class="xtick"><text text-anchor="middle" x="0" y="333" style="font-family: 'Open Sans', verdana, arial, sans-serif; font-size: 12px; fill: rgb(42, 63, 95); fill-opacity: 1; white-space: pre; opacity: 1;" transform="translate(539.3399999999999,0)">Jan 2022</text></g><g class="xtick"><text text-anchor="middle" x="0" y="333" style="font-family: 'Open Sans', verdana, arial, sans-serif; font-size: 12px; fill: rgb(42, 63, 95); fill-opacity: 1; white-space: pre; opacity: 1;" transform="translate(617.74,0)">Apr 2022</text></g></g><g class="yaxislayer-above"><g class="ytick"><text text-anchor="end" x="34" y="4.199999999999999" transform="translate(0,302.12)" style="font-family: 'Open Sans', verdana, arial, sans-serif; font-size: 12px; fill: rgb(42, 63, 95); fill-opacity: 1; white-space: pre; opacity: 1;">10k</text></g><g class="ytick"><text text-anchor="end" x="34" y="4.199999999999999" style="font-family: 'Open Sans', verdana, arial, sans-serif; font-size: 12px; fill: rgb(42, 63, 95); fill-opacity: 1; white-space: pre; opacity: 1;" transform="translate(0,259.76)">20k</text></g><g class="ytick"><text text-anchor="end" x="34" y="4.199999999999999" style="font-family: 'Open Sans', verdana, arial, sans-serif; font-size: 12px; fill: rgb(42, 63, 95); fill-opacity: 1; white-space: pre; opacity: 1;" transform="translate(0,217.41)">30k</text></g><g class="ytick"><text text-anchor="end" x="34" y="4.199999999999999" style="font-family: 'Open Sans', verdana, arial, sans-serif; font-size: 12px; fill: rgb(42, 63, 95); fill-opacity: 1; white-space: pre; opacity: 1;" transform="translate(0,175.05)">40k</text></g><g class="ytick"><text text-anchor="end" x="34" y="4.199999999999999" style="font-family: 'Open Sans', verdana, arial, sans-serif; font-size: 12px; fill: rgb(42, 63, 95); fill-opacity: 1; white-space: pre; opacity: 1;" transform="translate(0,132.69)">50k</text></g><g class="ytick"><text text-anchor="end" x="34" y="4.199999999999999" style="font-family: 'Open Sans', verdana, arial, sans-serif; font-size: 12px; fill: rgb(42, 63, 95); fill-opacity: 1; white-space: pre; opacity: 1;" transform="translate(0,90.33)">60k</text></g><g class="ytick"><text text-anchor="end" x="34" y="4.199999999999999" style="font-family: 'Open Sans', verdana, arial, sans-serif; font-size: 12px; fill: rgb(42, 63, 95); fill-opacity: 1; white-space: pre; opacity: 1;" transform="translate(0,47.97)">70k</text></g></g><g class="overaxes-above"/></g></g><g class="polarlayer"/><g class="smithlayer"/><g class="ternarylayer"/><g class="geolayer"/><g class="funnelarealayer"/><g class="pielayer"/><g class="iciclelayer"/><g class="treemaplayer"/><g class="sunburstlayer"/><g class="glimages"/><defs id="topdefs-149c87"><g class="clips"/><clipPath id="legend149c87"><rect width="326" height="29" x="0" y="0"/></clipPath></defs><g class="layer-above"><g class="imagelayer"/><g class="shapelayer"/></g><g class="infolayer"><g class="legend" pointer-events="all" transform="translate(344,11.519999999999996)"><rect class="bg" shape-rendering="crispEdges" width="326" height="29" x="0" y="0" style="stroke: rgb(68, 68, 68); stroke-opacity: 1; fill: rgb(255, 255, 255); fill-opacity: 1; stroke-width: 0px;"/><g class="scrollbox" transform="" clip-path="url(#legend149c87)"><g class="groups"><g class="traces" transform="translate(0,14.5)" style="opacity: 1;"><text class="legendtext" text-anchor="start" x="40" y="4.680000000000001" style="font-family: 'Open Sans', verdana, arial, sans-serif; font-size: 12px; fill: rgb(42, 63, 95); fill-opacity: 1; white-space: pre;">Close</text><g class="layers" style="opacity: 1;"><g class="legendfill"/><g class="legendlines"><path class="js-line" d="M5,0h30" style="fill: none; stroke: rgb(31, 119, 180); stroke-opacity: 1; stroke-width: 2px;"/></g><g class="legendsymbols"><g class="legendpoints"/></g></g><rect class="legendtoggle" x="0" y="-9.5" width="74.859375" height="19" style="fill: rgb(0, 0, 0); fill-opacity: 0;"/></g><g class="traces" transform="translate(77.359375,14.5)" style="opacity: 1;"><text class="legendtext" text-anchor="start" x="40" y="4.680000000000001" style="font-family: 'Open Sans', verdana, arial, sans-serif; font-size: 12px; fill: rgb(42, 63, 95); fill-opacity: 1; white-space: pre;">Start</text><g class="layers" style="opacity: 1;"><g class="legendfill"/><g class="legendlines"/><g class="legendsymbols"><g class="legendpoints"><path class="scatterpts" transform="translate(20,0)" d="M4.55,0L0,4.55L-4.55,0L0,-4.55Z" style="opacity: 1; stroke-width: 1px; fill: rgb(66, 133, 244); fill-opacity: 1; stroke: rgb(11, 84, 205); stroke-opacity: 1;"/></g></g></g><rect class="legendtoggle" x="0" y="-9.5" width="72.5" height="19" style="fill: rgb(0, 0, 0); fill-opacity: 0;"/></g><g class="traces" transform="translate(152.359375,14.5)" style="opacity: 1;"><text class="legendtext" text-anchor="start" x="40" y="4.680000000000001" style="font-family: 'Open Sans', verdana, arial, sans-serif; font-size: 12px; fill: rgb(42, 63, 95); fill-opacity: 1; white-space: pre;">Closed</text><g class="layers" style="opacity: 1;"><g class="legendfill"/><g class="legendlines"/><g class="legendsymbols"><g class="legendpoints"><path class="scatterpts" transform="translate(20,0)" d="M4.55,0L0,4.55L-4.55,0L0,-4.55Z" style="opacity: 1; stroke-width: 1px; fill: rgb(55, 177, 63); fill-opacity: 1; stroke: rgb(38, 123, 44); stroke-opacity: 1;"/></g></g></g><rect class="legendtoggle" x="0" y="-9.5" width="82.34375" height="19" style="fill: rgb(0, 0, 0); fill-opacity: 0;"/></g><g class="traces" transform="translate(237.203125,14.5)" style="opacity: 1;"><text class="legendtext" text-anchor="start" x="40" y="4.680000000000001" style="font-family: 'Open Sans', verdana, arial, sans-serif; font-size: 12px; fill: rgb(42, 63, 95); fill-opacity: 1; white-space: pre;">Pattern</text><g class="layers"><g class="legendfill"><path class="js-fill" d="M5,-2h30v6h-30z" style="stroke-width: 0; fill: rgb(23, 190, 207); fill-opacity: 0.25;"/></g><g class="legendlines"><path class="js-line" d="M5,-2h30" style="fill: none; stroke: rgb(23, 190, 207); stroke-opacity: 0.75; stroke-width: 2px;"/></g><g class="legendsymbols"><g class="legendpoints"/></g></g><rect class="legendtoggle" x="0" y="-9.5" width="86.265625" height="19" style="fill: rgb(0, 0, 0); fill-opacity: 0;"/></g></g></g><rect class="scrollbar" rx="20" ry="3" width="0" height="0" x="0" y="0" style="fill: rgb(128, 139, 164); fill-opacity: 1;"/></g><g class="g-gtitle"/><g class="g-xtitle"/><g class="g-ytitle"/></g></svg>