<svg class="main-svg" xmlns="http://www.w3.org/2000/svg" xmlns:xlink="http://www.w3.org/1999/xlink" width="700" height="350" style="" viewBox="0 0 700 350"><rect x="0" y="0" width="700" height="350" style="fill: rgb(33, 34, 38); fill-opacity: 1;"/><defs id="defs-9aabd4"><g class="clips"><clipPath id="clip9aabd4xyplot" class="plotclip"><rect width="629" height="274"/></clipPath><clipPath class="axesclip" id="clip9aabd4x"><rect x="41" y="0" width="629" height="350"/></clipPath><clipPath class="axesclip" id="clip9aabd4y"><rect x="0" y="46" width="700" height="274"/></clipPath><clipPath class="axesclip" id="clip9aabd4xy"><rect x="41" y="46" width="629" height="274"/></clipPath></g><g class="gradients"/><g class="patterns"/></defs><g class="bglayer"/><g class="layer-below"><g class="imagelayer"/><g class="shapelayer"/></g><g class="cartesianlayer"><g class="subplot xy"><g class="layer-subplot"><g class="shapelayer"/><g class="imagelayer"/></g><g class="minor-gridlayer"><g class="x"/><g class="y"/></g><g class="gridlayer"><g class="x"><path class="xgrid crisp" transform="translate(66.88,0)" d="M0,46v274" style="stroke: rgb(49, 52, 57); stroke-opacity: 1; stroke-width: 1px;"/><path class="xgrid crisp" transform="translate(146.26,0)" d="M0,46v274" style="stroke: rgb(49, 52, 57); stroke-opacity: 1; stroke-width: 1px;"/><path class="xgrid crisp" transform="translate(225.64,0)" d="M0,46v274" style="stroke: rgb(49, 52, 57); stroke-opacity: 1; stroke-width: 1px;"/><path class="xgrid crisp" transform="translate(303.3,0)" d="M0,46v274" style="stroke: rgb(49, 52, 57); stroke-opacity: 1; stroke-width: 1px;"/><path class="xgrid crisp" transform="translate(381.82,0)" d="M0,46v274" style="stroke: rgb(49, 52, 57); stroke-opacity: 1; stroke-width: 1px;"/><path class="xgrid crisp" transform="translate(461.2,0)" d="M0,46v274" style="stroke: rgb(49, 52, 57); stroke-opacity: 1; stroke-width: 1px;"/><path class="xgrid crisp" transform="translate(540.5799999999999,0)" d="M0,46v274" style="stroke: rgb(49, 52, 57); stroke-opacity: 1; stroke-width: 1px;"/><path class="xgrid crisp" transform="translate(618.23,0)" d="M0,46v274" style="stroke: rgb(49, 52, 57); stroke-opacity: 1; stroke-width: 1px;"/></g><g class="y"><path class="ygrid crisp" transform="translate(0,309.46)" d="M41,0h629" style="stroke: rgb(49, 52, 57); stroke-opacity: 1; stroke-width: 1px;"/><path class="ygrid crisp" transform="translate(0,272.75)" d="M41,0h629" style="stroke: rgb(49, 52, 57); stroke-opacity: 1; stroke-width: 1px;"/><path class="ygrid crisp" transform="translate(0,236.03)" d="M41,0h629" style="stroke: rgb(49, 52, 57); stroke-opacity: 1; stroke-width: 1px;"/><path class="ygrid crisp" transform="translate(0,199.31)" d="M41,0h629" style="stroke: rgb(49, 52, 57); stroke-opacity: 1; stroke-width: 1px;"/><path class="ygrid crisp" transform="translate(0,162.59)" d="M41,0h629" style="stroke: rgb(49, 52, 57); stroke-opacity: 1; stroke-width: 1px;"/><path class="ygrid crisp" transform="translate(0,125.88)" d="M41,0h629" style="stroke: rgb(49, 52, 57); stroke-opacity: 1; stroke-width: 1px;"/><path class="ygrid crisp" transform="translate(0,89.16)" d="M41,0h629" style="stroke: rgb(49, 52, 57); stroke-opacity: 1; stroke-width: 1px;"/><path class="ygrid crisp" transform="translate(0,52.44)" d="M41,0h629" style="stroke: rgb(49, 52, 57); stroke-opacity: 1; stroke-width: 1px;"/></g></g><g class="zerolinelayer"/><path class="xlines-below"/><path class="ylines-below"/><g class="overlines-below"/><g class="xaxislayer-below"/><g class="yaxislayer-below"/><g class="overaxes-below"/><g class="plot" transform="translate(41,46)" clip-path="url(#clip9aabd4xyplot)"><g class="scatterlayer mlayer"><g class="trace scatter tracef2c3f3eb-bce0-4f43-989e-69964cfe1655" style="stroke-miterlimit: 2; opacity: 1;"><g class="fills"/><g class="errorbars"/><g class="lines"><path class="js-line" d="M50.91,227.22L51.77,226.94L52.63,224.96L53.5,225.53L54.36,223.18L58.67,205.02L59.53,192.36L61.26,183.26L62.12,173.46L62.99,167.49L63.85,170.91L65.57,158.68L66.44,155.3L67.3,146.96L68.16,146.26L69.03,151.04L69.89,146.61L70.75,134.69L71.61,135.76L72.48,135.05L73.34,123.97L74.2,122.15L75.07,117.39L77.65,99.14L78.52,98.45L81.97,91.33L82.83,82.16L83.69,87.52L84.56,81.89L86.28,75.01L87.15,65.11L88.87,54.44L89.73,53.29L92.32,67.53L93.19,64.57L96.64,89.4L97.5,99.06L100.09,147.84L100.95,154.91L106.99,192.26L107.85,189.52L110.44,205.12L111.3,203.01L112.17,201.58L113.03,204.32L113.89,202.91L114.76,205.22L118.21,205.94L119.07,209.95L120.8,201.67L121.66,199.68L123.38,211.8L124.25,213.17L125.11,214.56L125.97,212.74L128.56,200.4L129.42,194.38L132.88,166.47L133.74,162.48L134.6,158.48L135.46,166.7L136.33,168.09L137.19,167.41L138.05,171.62L138.91,168.08L140.64,161.45L141.5,161.8L142.37,159.72L143.23,163.76L144.95,157.56L145.82,165L146.68,164.69L147.54,149.17L148.41,150.31L149.27,148.71L150.13,154.05L150.99,150.73L152.72,144.93L153.58,140.27L159.62,92.19L160.49,94.66L161.35,86.41L162.21,92.63L163.07,96.68L163.94,105.47L164.8,105.29L165.66,107.4L166.53,103.59L167.39,91.58L169.11,81.46L169.98,75.21L170.84,78.54L171.7,94.49L172.57,98.93L173.43,115.74L174.29,119.01L175.15,119.17L177.74,113.14L178.6,115.68L181.19,123.99L182.06,123.93L182.92,129.11L183.78,126.16L184.64,128.82L185.51,136.69L186.37,157.74L187.23,155.83L188.1,150.92L188.96,158.87L189.82,161.42L190.68,159.62L192.41,166.03L193.27,162.8L195,149.59L195.86,151.04L196.72,154.21L197.59,148.32L198.45,142.18L199.31,151.07L201.04,134.74L201.9,130.45L203.63,121.08L204.49,101.81L205.35,99.47L206.22,101.63L207.94,123.13L208.8,121.18L209.67,121.19L210.53,119.96L213.98,112.97L214.84,96.02L217.43,79.27L218.29,86.61L219.16,89.29L220.02,86.23L220.88,86.32L221.75,90.84L222.61,111.27L223.47,109.56L224.33,106.65L225.2,107.6L226.06,105.43L226.92,110.3L227.79,109.24L228.65,109.85L229.51,114.6L230.37,124.75L231.24,125.23L232.1,113.94L232.96,109.81L233.83,114.36L234.69,106.77L235.55,110.33L237.28,124.78L238.14,111.07L239,128.05L239.87,130.05L240.73,130.48L241.59,129.56L242.45,127.86L243.32,129.13L245.04,134.35L245.91,135.97L247.63,134.44L248.49,131.24L251.08,114.71L251.95,105.33L253.67,71.73L254.53,74.81L255.4,55.07L256.26,58.42L257.98,32.96L258.85,37.46L259.71,45.56L260.57,30.28L262.3,43.71L263.16,52.45L264.89,75.63L265.75,85.08L269.2,109.67L270.06,100.3L270.93,102.8L271.79,109.83L272.65,104.42L273.52,113.83L276.1,101.97L276.97,87.85L277.83,87.03L278.69,79.98L281.28,61.7L282.14,56.46L283.01,55.05L283.87,44.52L285.6,57.55L286.46,73.07L291.64,121.2L292.5,135.69L294.22,138.76L295.09,137L295.95,133.06L296.81,125.22L298.54,113.9L299.4,114.4L300.26,110.72L301.13,99.49L301.99,94.79L302.85,96.08L303.71,85.98L304.58,98.41L308.03,150.71L308.89,158.87L311.48,178.17L312.34,181.81L315.79,192.52L316.66,194.23L318.38,197.58L319.25,193.69L320.11,193.32L320.97,182.48L321.83,179.47L322.7,184.64L323.56,186.9L324.42,191.28L327.01,200.94L327.87,209.4L330.46,223.79L331.33,230.11L332.19,235.89L333.05,233.32L336.5,252.03L337.36,256.25L339.09,260.3L339.95,259.85L340.82,259.21L341.68,255.53L342.54,255.01L343.4,253.31L344.27,253.53L345.13,251.43L347.72,240.17L348.58,233.33L350.31,216.97L351.17,205.63L352.03,203.28L352.9,192.47L353.76,187.83L354.62,173.75L355.48,176.51L356.35,164.07L357.21,150.52L358.07,157.69L358.94,158.39L359.8,165.24L360.66,159.74L361.52,160.68L362.39,163.38L363.25,169.55L364.98,177.57L365.84,180.35L366.7,178.4L367.56,181.61L369.29,186.02L370.15,179.65L371.02,180.52L371.88,179.69L375.33,187.13L376.19,185.28L383.09,137.34L383.96,126L384.82,134.78L385.68,132.67L386.55,131.46L387.41,128.07L388.27,125.89L389.13,121.49L390.86,119.26L391.72,119.28L392.59,124.4L393.45,123.03L395.17,110.24L396.04,107.06L396.9,103.93L397.76,105.86L399.49,99.67L400.35,97.05L402.94,84.69L403.8,77.03L407.25,37.58L408.12,38.96L409.84,56.29L410.71,55.23L411.57,54.89L412.43,52.32L415.02,76.68L415.88,76.44L418.47,88.25L419.33,78.08L420.2,79.24L421.06,83.31L421.92,88.3L422.78,102.3L425.37,135.82L426.24,138.38L427.96,145.57L428.82,151.34L429.69,150.52L430.55,151.45L432.28,159.02L433.14,165.15L434.86,167.27L435.73,170.16L436.59,173.09L437.45,171.31L439.18,160.43L440.04,159.46L443.49,149.73L444.36,141.58L445.22,135.98L446.08,125.1L447.81,116.25L448.67,120.43L449.53,122.73L450.4,120.24L451.26,116.16L452.12,118.4L452.98,117.75L453.85,120.45L455.57,122.18L456.43,121.04L459.02,108.14L459.89,102.25L461.61,85.1L462.47,65.96L463.34,52.56L464.2,52.99L465.93,23.06L466.79,13.7L467.65,23.12L468.51,22.64L471.1,48.38L471.97,57.24L473.69,77.36L474.55,90.78L476.28,116.01L477.14,122.85L478.87,135.71L479.73,139.25L480.59,142.9L481.46,140.82L482.32,142.64L483.18,132.03L484.91,140.28L485.77,142.08L486.63,140.93L487.5,147.24L495.26,209.05L496.12,214.17L501.3,241.78L502.16,240.1L504.75,206.25L505.62,205.29L506.48,206.06L507.34,204.06L508.2,205.02L509.07,203.25L509.93,204.35L510.79,213.7L511.66,212.33L512.52,216.04L515.11,217.61L515.97,215.22L517.7,165.8L518.56,165.76L520.28,165.97L521.15,167.72L522.01,167.64L522.87,170L523.74,165.76L524.6,166.38L526.32,162.74L527.19,167.33L528.91,177.01L529.78,177.58L532.36,182.11L533.23,180.82L535.81,183.69L536.68,188.01L539.27,197.53L540.13,199.33L541.85,205.81L542.72,204.95L544.44,199.65L545.31,196.97L546.17,193.8L547.03,179.76L547.89,168.84L548.76,172.14L549.62,171.22L550.48,172.32L551.35,173.3L552.21,176.13L553.07,172.56L553.93,189.4L555.66,191.65L556.52,187.75L557.39,186.58L558.25,177.66L559.97,160.54L560.84,139.45L564.29,102.34L565.15,95.8L566.88,85.44L567.74,85.99L568.6,79.73L569.47,88.6L572.05,126.32L572.92,128.06L574.64,142.26L575.5,145.66L578.09,154.23L578.96,160.41L579.82,180.17L580.68,181.47L581.54,177.69L582.41,169.44L585,129.62L585.86,126.4L587.58,126.45L588.45,129.37L589.31,126.63L590.17,129.85L591.04,132.19L591.9,142.18L592.76,142.02L593.62,140.74L594.49,141.48L595.35,147.14L597.08,154.13L597.94,170.09L598.8,171.77L599.66,169.31L600.53,176.56L601.39,167.66L604.84,117.91L605.7,116.1L607.43,91.37L608.29,93.42L610.02,96.92L610.88,106.67L614.33,149.57L615.19,156.88L616.06,159.27L616.92,164.12L622.96,195.92L623.82,198.91L625.55,201.28L626.41,204.04L628.14,206.74L629,210.72" style="vector-effect: none; fill: none; stroke: rgb(108, 166, 205); stroke-opacity: 1; stroke-width: 2px; opacity: 1;"/></g><g class="points"/><g class="text"/></g></g></g><g class="overplot"/><path class="xlines-above crisp" d="M0,0" style="fill: none;"/><path class="ylines-above crisp" d="M0,0" style="fill: none;"/><g class="overlines-above"/><g class="xaxislayer-above"><g class="xtick"><text text-anchor="middle" x="0" y="333" transform="translate(66.88,0)" style="font-family: 'Open Sans', verdana, arial, sans-serif; font-size: 12px; fill: rgb(214, 223, 239); fill-opacity: 1; white-space: pre; opacity: 1;">Jul 2020</text></g><g class="xtick"><text text-anchor="middle" x="0" y="333" style="font-family: 'Open Sans', verdana, arial, sans-serif; font-size: 12px; fill: rgb(214, 223, 239); fill-opacity: 1; white-space: pre; opacity: 1;" transform="translate(146.26,0)">Oct 2020</text></g><g class="xtick"><text text-anchor="middle" x="0" y="333" style="font-family: 'Open Sans', verdana, arial, sans-serif; font-size: 12px; fill: rgb(214, 223, 239); fill-opacity: 1; white-space: pre; opacity: 1;" transform="translate(225.64,0)">Jan 2021</text></g><g class="xtick"><text text-anchor="middle" x="0" y="333" style="font-family: 'Open Sans', verdana, arial, sans-serif; font-size: 12px; fill: rgb(214, 223, 239); fill-opacity: 1; white-space: pre; opacity: 1;" transform="translate(303.3,0)">Apr 2021</text></g><g class="xtick"><text text-anchor="middle" x="0" y="333" style="font-family: 'Open Sans', verdana, arial, sans-serif; font-size: 12px; fill: rgb(214, 223, 239); fill-opacity: 1; white-space: pre; opacity: 1;" transform="translate(381.82,0)">Jul 2021</text></g><g class="xtick"><text text-anchor="middle" x="0" y="333" style="font-family: 'Open Sans', verdana, arial, sans-serif; font-size: 12px; fill: rgb(214, 223, 239); fill-opacity: 1; white-space: pre; opacity: 1;" transform="translate(461.2,0)">Oct 2021</text></g><g class="xtick"><text text-anchor="middle" x="0" y="333" style="font-family: 'Open Sans', verdana, arial, sans-serif; font-size: 12px; fill: rgb(214, 223, 239); fill-opacity: 1; white-space: pre; opacity: 1;" transform="translate(540.5799999999999,0)">Jan 2022</text></g><g class="xtick"><text text-anchor="middle" x="0" y="333" style="font-family: 'Open Sans', verdana, arial, sans-serif; font-size: 12px; fill: rgb(214, 223, 239); fill-opacity: 1; white-space: pre; opacity: 1;" transform="translate(618.23,0)">Apr 2022</text></g></g><g class="yaxislayer-above"><g class="ytick"><text text-anchor="end" x="40" y="4.199999999999999" transform="translate(0,309.46)" style="font-family: 'Open Sans', verdana, arial, sans-serif; font-size: 12px; fill: rgb(214, 223, 239); fill-opacity: 1; white-space: pre; opacity: 1;">20%</text></g><g class="ytick"><text text-anchor="end" x="40" y="4.199999999999999" style="font-family: 'Open Sans', verdana, arial, sans-serif; font-size: 12px; fill: rgb(214, 223, 239); fill-opacity: 1; white-space: pre; opacity: 1;" transform="translate(0,272.75)">30%</text></g><g class="ytick"><text text-anchor="end" x="40" y="4.199999999999999" style="font-family: 'Open Sans', verdana, arial, sans-serif; font-size: 12px; fill: rgb(214, 223, 239); fill-opacity: 1; white-space: pre; opacity: 1;" transform="translate(0,236.03)">40%</text></g><g class="ytick"><text text-anchor="end" x="40" y="4.199999999999999" style="font-family: 'Open Sans', verdana, arial, sans-serif; font-size: 12px; fill: rgb(214, 223, 239); fill-opacity: 1; white-space: pre; opacity: 1;" transform="translate(0,199.31)">50%</text></g><g class="ytick"><text text-anchor="end" x="40" y="4.199999999999999" style="font-family: 'Open Sans', verdana, arial, sans-serif; font-size: 12px; fill: rgb(214, 223, 239); fill-opacity: 1; white-space: pre; opacity: 1;" transform="translate(0,162.59)">60%</text></g><g class="ytick"><text text-anchor="end" x="40" y="4.199999999999999" style="font-family: 'Open Sans', verdana, arial, sans-serif; font-size: 12px; fill: rgb(214, 223, 239); fill-opacity: 1; white-space: pre; opacity: 1;" transform="translate(0,125.88)">70%</text></g><g class="ytick"><text text-anchor="end" x="40" y="4.199999999999999" style="font-family: 'Open Sans', verdana, arial, sans-serif; font-size: 12px; fill: rgb(214, 223, 239); fill-opacity: 1; white-space: pre; opacity: 1;" transform="translate(0,89.16)">80%</text></g><g class="ytick"><text text-anchor="end" x="40" y="4.199999999999999" style="font-family: 'Open Sans', verdana, arial, sans-serif; font-size: 12px; fill: rgb(214, 223, 239); fill-opacity: 1; white-space: pre; opacity: 1;" transform="translate(0,52.44)">90%</text></g></g><g class="overaxes-above"/></g></g><g class="polarlayer"/><g class="smithlayer"/><g class="ternarylayer"/><g class="geolayer"/><g class="funnelarealayer"/><g class="pielayer"/><g class="iciclelayer"/><g class="treemaplayer"/><g class="sunburstlayer"/><g class="glimages"/><defs id="topdefs-9aabd4"><g class="clips"/><clipPath id="legend9aabd4"><rect width="103" height="29" x="0" y="0"/></clipPath></defs><g class="layer-above"><g class="imagelayer"/><g class="shapelayer"/></g><g class="infolayer"><g class="legend" pointer-events="all" transform="translate(567,11.519999999999996)"><rect class="bg" shape-rendering="crispEdges" style="stroke: rgb(68, 68, 68); stroke-opacity: 1; fill: rgb(33, 34, 38); fill-opacity: 1; stroke-width: 0px;" width="103" height="29" x="0" y="0"/><g class="scrollbox" transform="" clip-path="url(#legend9aabd4)"><g class="groups"><g class="traces" transform="translate(0,14.5)" style="opacity: 1;"><text class="legendtext" text-anchor="start" x="40" y="4.680000000000001" style="font-family: 'Open Sans', verdana, arial, sans-serif; font-size: 12px; fill: rgb(214, 223, 239); fill-opacity: 1; white-space: pre;">Similarity</text><g class="layers" style="opacity: 1;"><g class="legendfill"/><g class="legendlines"><path class="js-line" d="M5,0h30" style="fill: none; stroke: rgb(108, 166, 205); stroke-opacity: 1; stroke-width: 2px;"/></g><g class="legendsymbols"><g class="legendpoints"/></g></g><rect class="legendtoggle" x="0" y="-9.5" width="99.71875" height="19" style="fill: rgb(0, 0, 0); fill-opacity: 0;"/></g></g></g><rect class="scrollbar" rx="20" ry="3" width="0" height="0" style="fill: rgb(128, 139, 164); fill-opacity: 1;" x="0" y="0"/></g><g class="g-gtitle"/><g class="g-xtitle"/><g class="g-ytitle"/></g></svg>