<svg class="main-svg" xmlns="http://www.w3.org/2000/svg" xmlns:xlink="http://www.w3.org/1999/xlink" width="700" height="350" style="" viewBox="0 0 700 350"><rect x="0" y="0" width="700" height="350" style="fill: rgb(33, 34, 38); fill-opacity: 1;"/><defs id="defs-9410b7"><g class="clips"><clipPath id="clip9410b7xyplot" class="plotclip"><rect width="635" height="261"/></clipPath><clipPath class="axesclip" id="clip9410b7x"><rect x="35" y="0" width="635" height="350"/></clipPath><clipPath class="axesclip" id="clip9410b7y"><rect x="0" y="46" width="700" height="261"/></clipPath><clipPath class="axesclip" id="clip9410b7xy"><rect x="35" y="46" width="635" height="261"/></clipPath></g><g class="gradients"/><g class="patterns"/></defs><g class="bglayer"/><g class="layer-below"><g class="imagelayer"/><g class="shapelayer"><g class="shape-group" data-index="0" clip-path="url(#clip9410b7x)"><path data-index="0" fill-rule="evenodd" d="M175.53,307H467.01V46H175.53Z" style="opacity: 0.15; stroke: rgb(0, 0, 0); stroke-opacity: 0; fill: rgb(66, 133, 244); fill-opacity: 1; stroke-width: 0px;"/></g></g></g><g class="cartesianlayer"><g class="subplot xy"><g class="layer-subplot"><g class="shapelayer"/><g class="imagelayer"/></g><g class="minor-gridlayer"><g class="x"/><g class="y"/></g><g class="gridlayer"><g class="x"><path class="xgrid crisp" transform="translate(92.25,0)" d="M0,46v261" style="stroke: rgb(49, 52, 57); stroke-opacity: 1; stroke-width: 1px;"/><path class="xgrid crisp" transform="translate(165.12,0)" d="M0,46v261" style="stroke: rgb(49, 52, 57); stroke-opacity: 1; stroke-width: 1px;"/><path class="xgrid crisp" transform="translate(237.99,0)" d="M0,46v261" style="stroke: rgb(49, 52, 57); stroke-opacity: 1; stroke-width: 1px;"/><path class="xgrid crisp" transform="translate(310.86,0)" d="M0,46v261" style="stroke: rgb(49, 52, 57); stroke-opacity: 1; stroke-width: 1px;"/><path class="xgrid crisp" transform="translate(383.73,0)" d="M0,46v261" style="stroke: rgb(49, 52, 57); stroke-opacity: 1; stroke-width: 1px;"/><path class="xgrid crisp" transform="translate(456.6,0)" d="M0,46v261" style="stroke: rgb(49, 52, 57); stroke-opacity: 1; stroke-width: 1px;"/><path class="xgrid crisp" transform="translate(529.47,0)" d="M0,46v261" style="stroke: rgb(49, 52, 57); stroke-opacity: 1; stroke-width: 1px;"/><path class="xgrid crisp" transform="translate(602.34,0)" d="M0,46v261" style="stroke: rgb(49, 52, 57); stroke-opacity: 1; stroke-width: 1px;"/></g><g class="y"><path class="ygrid crisp" transform="translate(0,303.65)" d="M35,0h635" style="stroke: rgb(49, 52, 57); stroke-opacity: 1; stroke-width: 1px;"/><path class="ygrid crisp" transform="translate(0,258.74)" d="M35,0h635" style="stroke: rgb(49, 52, 57); stroke-opacity: 1; stroke-width: 1px;"/><path class="ygrid crisp" transform="translate(0,213.83)" d="M35,0h635" style="stroke: rgb(49, 52, 57); stroke-opacity: 1; stroke-width: 1px;"/><path class="ygrid crisp" transform="translate(0,168.92000000000002)" d="M35,0h635" style="stroke: rgb(49, 52, 57); stroke-opacity: 1; stroke-width: 1px;"/><path class="ygrid crisp" transform="translate(0,124.01)" d="M35,0h635" style="stroke: rgb(49, 52, 57); stroke-opacity: 1; stroke-width: 1px;"/><path class="ygrid crisp" transform="translate(0,79.09)" d="M35,0h635" style="stroke: rgb(49, 52, 57); stroke-opacity: 1; stroke-width: 1px;"/></g></g><g class="zerolinelayer"/><path class="xlines-below"/><path class="ylines-below"/><g class="overlines-below"/><g class="xaxislayer-below"/><g class="yaxislayer-below"/><g class="overaxes-below"/><g class="plot" transform="translate(35,46)" clip-path="url(#clip9410b7xyplot)"><g class="scatterlayer mlayer"><g class="trace scatter traceda835df9-501f-46ca-abfa-cf86612261b9" style="stroke-miterlimit: 2; opacity: 1;"><g class="fills"/><g class="errorbars"/><g class="lines"><path class="js-line" d="M0,184.36L5.2,172.98L10.41,169.88L15.61,168.36L20.82,158.53L26.02,148.63L31.23,189.91L36.43,204.35L41.64,199.84L46.84,209.7L52.05,210.09L57.25,206.07L62.46,212.17L72.87,187.88L78.07,187.84L83.28,191.33L88.48,185.28L93.69,190.45L98.89,219.14L104.1,245.76L109.3,233.37L114.51,218.99L119.71,231.65L124.92,235.84L130.12,234.12L135.33,231.92L140.53,243.57L145.74,243.08L150.94,229.58L156.15,198.01L161.35,187.59L171.76,180.85L176.97,160.7L182.17,133.55L187.38,130.48L192.58,126.9L197.79,125.61L202.99,122.02L208.2,108.77L213.4,115.26L218.61,110.01L223.81,99.87L229.02,73.65L234.22,67.81L239.43,71.39L244.63,64.38L249.84,47.8L255.04,28.65L260.25,45.57L265.45,64.77L270.66,70.23L275.86,72.43L281.07,55.73L286.27,67.71L291.48,84.26L296.68,75.33L301.89,61.81L307.09,63.36L312.3,67.08L317.5,69.76L322.7,53.71L333.11,62.56L338.32,65.27L343.52,68.78L348.73,54.4L353.93,22.35L359.14,13.05L364.34,27.99L369.55,34.67L374.75,42.52L379.96,39.86L385.16,34.15L390.37,37.86L395.57,71.27L400.78,79.33L405.98,94.95L411.19,102.04L416.39,87.27L421.6,86.57L426.8,104.05L432.01,105.35L437.21,105.82L442.42,91.9L447.62,118.8L452.83,127.08L458.03,114.01L463.24,98.04L468.44,101.95L473.65,99.88L478.85,109.04L484.06,129.26L489.26,182.76L494.47,177.34L499.67,172.52L504.88,160.15L510.08,167.02L515.29,180.81L520.49,185.44L525.7,180.92L530.9,169.42L536.11,190.09L541.31,187.79L546.52,183.06L551.72,184.06L556.93,199.02L562.13,198.59L567.34,193.61L572.54,197.74L577.75,183.25L582.95,178.05L588.16,167.43L593.36,158.8L598.57,162.74L603.77,163.44L608.98,158.13L614.18,181.12L619.39,195.67L624.59,195.01L629.8,196.44L635,192.12" style="vector-effect: none; fill: none; stroke: rgb(31, 119, 180); stroke-opacity: 1; stroke-width: 2px; opacity: 1;"/></g><g class="points"/><g class="text"/></g><g class="trace scatter trace724dddfa-83f9-4025-85e3-e17fad14639b" style="stroke-miterlimit: 2; opacity: 1;"><g class="fills"/><g class="errorbars"/><g class="lines"/><g class="points"><path class="point plotly-customdata" transform="translate(140.53,243.57)" d="M4.55,0L0,4.55L-4.55,0L0,-4.55Z" style="opacity: 1; stroke-width: 1px; fill: rgb(66, 133, 244); fill-opacity: 1; stroke: rgb(11, 84, 205); stroke-opacity: 1;"/></g><g class="text"/></g><g class="trace scatter tracef92b2a53-569e-44da-8137-44492cc07bee" style="stroke-miterlimit: 2; opacity: 1;"><g class="fills"/><g class="errorbars"/><g class="lines"/><g class="points"><path class="point plotly-customdata" transform="translate(432.01,105.35)" d="M4.55,0L0,4.55L-4.55,0L0,-4.55Z" style="opacity: 1; stroke-width: 1px; fill: rgb(55, 177, 63); fill-opacity: 1; stroke: rgb(38, 123, 44); stroke-opacity: 1;"/></g><g class="text"/></g><g class="trace scatter trace7892fcb5-01a8-470f-9a57-1715feb8c0ee" style="stroke-miterlimit: 2;"><g class="fills"><g><path class="js-fill" d="M140.53,243.57L255.04,13.05L260.25,23.53L312.3,128.31L317.5,117.83L369.55,13.05L374.75,23.53L426.8,128.31L426.8,104.05L421.6,86.57L416.39,87.27L411.19,102.04L405.98,94.95L400.78,79.33L395.57,71.27L390.37,37.86L385.16,34.15L379.96,39.86L374.75,42.52L369.55,34.67L364.34,27.99L359.14,13.05L353.93,22.35L348.73,54.4L343.52,68.78L338.32,65.27L333.11,62.56L322.7,53.71L317.5,69.76L312.3,67.08L307.09,63.36L301.89,61.81L296.68,75.33L291.48,84.26L286.27,67.71L281.07,55.73L275.86,72.43L270.66,70.23L265.45,64.77L260.25,45.57L255.04,28.65L249.84,47.8L244.63,64.38L239.43,71.39L234.22,67.81L229.02,73.65L223.81,99.87L218.61,110.01L213.4,115.26L208.2,108.77L202.99,122.02L197.79,125.61L192.58,126.9L187.38,130.48L182.17,133.55L176.97,160.7L171.76,180.85L161.35,187.59L156.15,198.01L150.94,229.58L145.74,243.08L140.53,243.57Z" style="fill: rgb(23, 190, 207); fill-opacity: 0.25; stroke-width: 0;"/></g></g><g class="errorbars"/><g class="lines"><path class="js-line" d="M140.53,243.57L145.74,243.08L150.94,229.58L156.15,198.01L161.35,187.59L171.76,180.85L176.97,160.7L182.17,133.55L187.38,130.48L192.58,126.9L197.79,125.61L202.99,122.02L208.2,108.77L213.4,115.26L218.61,110.01L223.81,99.87L229.02,73.65L234.22,67.81L239.43,71.39L244.63,64.38L249.84,47.8L255.04,28.65L260.25,45.57L265.45,64.77L270.66,70.23L275.86,72.43L281.07,55.73L286.27,67.71L291.48,84.26L296.68,75.33L301.89,61.81L307.09,63.36L312.3,67.08L317.5,69.76L322.7,53.71L333.11,62.56L338.32,65.27L343.52,68.78L348.73,54.4L353.93,22.35L359.14,13.05L364.34,27.99L369.55,34.67L374.75,42.52L379.96,39.86L385.16,34.15L390.37,37.86L395.57,71.27L400.78,79.33L405.98,94.95L411.19,102.04L416.39,87.27L421.6,86.57L426.8,104.05" style="vector-effect: none; fill: none; stroke: rgb(0, 0, 0); stroke-opacity: 0; stroke-width: 0px; opacity: 1;"/></g><g class="points"/><g class="text"/></g><g class="trace scatter traceaa7e1238-cfc9-46f5-8d00-42b6ff3f9572" style="stroke-miterlimit: 2;"><g class="fills"/><g class="errorbars"/><g class="lines"><path class="js-line" d="M140.53,243.57L255.04,13.05L260.25,23.53L312.3,128.31L317.5,117.83L369.55,13.05L374.75,23.53L426.8,128.31" style="vector-effect: none; fill: none; stroke: rgb(23, 190, 207); stroke-opacity: 0.75; stroke-width: 2px; opacity: 1;"/></g><g class="points"/><g class="text"/></g></g></g><g class="overplot"/><path class="xlines-above crisp" d="M0,0" style="fill: none;"/><path class="ylines-above crisp" d="M0,0" style="fill: none;"/><g class="overlines-above"/><g class="xaxislayer-above"><g class="xtick"><text text-anchor="middle" x="0" y="320" transform="translate(92.25,0)" style="font-family: 'Open Sans', verdana, arial, sans-serif; font-size: 12px; fill: rgb(214, 223, 239); fill-opacity: 1; white-space: pre; opacity: 1;"><tspan class="line" dy="0em" x="0" y="320">Sep 12</tspan><tspan class="line" dy="1.3em" x="0" y="320">2021</tspan></text></g><g class="xtick"><text text-anchor="middle" x="0" y="320" style="font-family: 'Open Sans', verdana, arial, sans-serif; font-size: 12px; fill: rgb(214, 223, 239); fill-opacity: 1; white-space: pre; opacity: 1;" transform="translate(165.12,0)">Sep 26</text></g><g class="xtick"><text text-anchor="middle" x="0" y="320" style="font-family: 'Open Sans', verdana, arial, sans-serif; font-size: 12px; fill: rgb(214, 223, 239); fill-opacity: 1; white-space: pre; opacity: 1;" transform="translate(237.99,0)">Oct 10</text></g><g class="xtick"><text text-anchor="middle" x="0" y="320" style="font-family: 'Open Sans', verdana, arial, sans-serif; font-size: 12px; fill: rgb(214, 223, 239); fill-opacity: 1; white-space: pre; opacity: 1;" transform="translate(310.86,0)">Oct 24</text></g><g class="xtick"><text text-anchor="middle" x="0" y="320" style="font-family: 'Open Sans', verdana, arial, sans-serif; font-size: 12px; fill: rgb(214, 223, 239); fill-opacity: 1; white-space: pre; opacity: 1;" transform="translate(383.73,0)">Nov 7</text></g><g class="xtick"><text text-anchor="middle" x="0" y="320" style="font-family: 'Open Sans', verdana, arial, sans-serif; font-size: 12px; fill: rgb(214, 223, 239); fill-opacity: 1; white-space: pre; opacity: 1;" transform="translate(456.6,0)">Nov 21</text></g><g class="xtick"><text text-anchor="middle" x="0" y="320" style="font-family: 'Open Sans', verdana, arial, sans-serif; font-size: 12px; fill: rgb(214, 223, 239); fill-opacity: 1; white-space: pre; opacity: 1;" transform="translate(529.47,0)">Dec 5</text></g><g class="xtick"><text text-anchor="middle" x="0" y="320" style="font-family: 'Open Sans', verdana, arial, sans-serif; font-size: 12px; fill: rgb(214, 223, 239); fill-opacity: 1; white-space: pre; opacity: 1;" transform="translate(602.34,0)">Dec 19</text></g></g><g class="yaxislayer-above"><g class="ytick"><text text-anchor="end" x="34" y="4.199999999999999" transform="translate(0,303.65)" style="font-family: 'Open Sans', verdana, arial, sans-serif; font-size: 12px; fill: rgb(214, 223, 239); fill-opacity: 1; white-space: pre; opacity: 1;">40k</text></g><g class="ytick"><text text-anchor="end" x="34" y="4.199999999999999" style="font-family: 'Open Sans', verdana, arial, sans-serif; font-size: 12px; fill: rgb(214, 223, 239); fill-opacity: 1; white-space: pre; opacity: 1;" transform="translate(0,258.74)">45k</text></g><g class="ytick"><text text-anchor="end" x="34" y="4.199999999999999" style="font-family: 'Open Sans', verdana, arial, sans-serif; font-size: 12px; fill: rgb(214, 223, 239); fill-opacity: 1; white-space: pre; opacity: 1;" transform="translate(0,213.83)">50k</text></g><g class="ytick"><text text-anchor="end" x="34" y="4.199999999999999" style="font-family: 'Open Sans', verdana, arial, sans-serif; font-size: 12px; fill: rgb(214, 223, 239); fill-opacity: 1; white-space: pre; opacity: 1;" transform="translate(0,168.92000000000002)">55k</text></g><g class="ytick"><text text-anchor="end" x="34" y="4.199999999999999" style="font-family: 'Open Sans', verdana, arial, sans-serif; font-size: 12px; fill: rgb(214, 223, 239); fill-opacity: 1; white-space: pre; opacity: 1;" transform="translate(0,124.01)">60k</text></g><g class="ytick"><text text-anchor="end" x="34" y="4.199999999999999" style="font-family: 'Open Sans', verdana, arial, sans-serif; font-size: 12px; fill: rgb(214, 223, 239); fill-opacity: 1; white-space: pre; opacity: 1;" transform="translate(0,79.09)">65k</text></g></g><g class="overaxes-above"/></g></g><g class="polarlayer"/><g class="smithlayer"/><g class="ternarylayer"/><g class="geolayer"/><g class="funnelarealayer"/><g class="pielayer"/><g class="iciclelayer"/><g class="treemaplayer"/><g class="sunburstlayer"/><g class="glimages"/><defs id="topdefs-9410b7"><g class="clips"/><clipPath id="legend9410b7"><rect width="326" height="29" x="0" y="0"/></clipPath></defs><g class="layer-above"><g class="imagelayer"/><g class="shapelayer"/></g><g class="infolayer"><g class="legend" pointer-events="all" transform="translate(344,11.779999999999994)"><rect class="bg" shape-rendering="crispEdges" width="326" height="29" x="0" y="0" style="stroke: rgb(68, 68, 68); stroke-opacity: 1; fill: rgb(33, 34, 38); fill-opacity: 1; stroke-width: 0px;"/><g class="scrollbox" transform="" clip-path="url(#legend9410b7)"><g class="groups"><g class="traces" transform="translate(0,14.5)" style="opacity: 1;"><text class="legendtext" text-anchor="start" x="40" y="4.680000000000001" style="font-family: 'Open Sans', verdana, arial, sans-serif; font-size: 12px; fill: rgb(214, 223, 239); fill-opacity: 1; white-space: pre;">Close</text><g class="layers" style="opacity: 1;"><g class="legendfill"/><g class="legendlines"><path class="js-line" d="M5,0h30" style="fill: none; stroke: rgb(31, 119, 180); stroke-opacity: 1; stroke-width: 2px;"/></g><g class="legendsymbols"><g class="legendpoints"/></g></g><rect class="legendtoggle" x="0" y="-9.5" width="74.859375" height="19" style="fill: rgb(0, 0, 0); fill-opacity: 0;"/></g><g class="traces" transform="translate(77.359375,14.5)" style="opacity: 1;"><text class="legendtext" text-anchor="start" x="40" y="4.680000000000001" style="font-family: 'Open Sans', verdana, arial, sans-serif; font-size: 12px; fill: rgb(214, 223, 239); fill-opacity: 1; white-space: pre;">Start</text><g class="layers" style="opacity: 1;"><g class="legendfill"/><g class="legendlines"/><g class="legendsymbols"><g class="legendpoints"><path class="scatterpts" transform="translate(20,0)" d="M4.55,0L0,4.55L-4.55,0L0,-4.55Z" style="opacity: 1; stroke-width: 1px; fill: rgb(66, 133, 244); fill-opacity: 1; stroke: rgb(11, 84, 205); stroke-opacity: 1;"/></g></g></g><rect class="legendtoggle" x="0" y="-9.5" width="72.5" height="19" style="fill: rgb(0, 0, 0); fill-opacity: 0;"/></g><g class="traces" transform="translate(152.359375,14.5)" style="opacity: 1;"><text class="legendtext" text-anchor="start" x="40" y="4.680000000000001" style="font-family: 'Open Sans', verdana, arial, sans-serif; font-size: 12px; fill: rgb(214, 223, 239); fill-opacity: 1; white-space: pre;">Closed</text><g class="layers" style="opacity: 1;"><g class="legendfill"/><g class="legendlines"/><g class="legendsymbols"><g class="legendpoints"><path class="scatterpts" transform="translate(20,0)" d="M4.55,0L0,4.55L-4.55,0L0,-4.55Z" style="opacity: 1; stroke-width: 1px; fill: rgb(55, 177, 63); fill-opacity: 1; stroke: rgb(38, 123, 44); stroke-opacity: 1;"/></g></g></g><rect class="legendtoggle" x="0" y="-9.5" width="82.34375" height="19" style="fill: rgb(0, 0, 0); fill-opacity: 0;"/></g><g class="traces" transform="translate(237.203125,14.5)" style="opacity: 1;"><text class="legendtext" text-anchor="start" x="40" y="4.680000000000001" style="font-family: 'Open Sans', verdana, arial, sans-serif; font-size: 12px; fill: rgb(214, 223, 239); fill-opacity: 1; white-space: pre;">Pattern</text><g class="layers"><g class="legendfill"><path class="js-fill" d="M5,-2h30v6h-30z" style="stroke-width: 0; fill: rgb(23, 190, 207); fill-opacity: 0.25;"/></g><g class="legendlines"><path class="js-line" d="M5,-2h30" style="fill: none; stroke: rgb(23, 190, 207); stroke-opacity: 0.75; stroke-width: 2px;"/></g><g class="legendsymbols"><g class="legendpoints"/></g></g><rect class="legendtoggle" x="0" y="-9.5" width="86.265625" height="19" style="fill: rgb(0, 0, 0); fill-opacity: 0;"/></g></g></g><rect class="scrollbar" rx="20" ry="3" width="0" height="0" x="0" y="0" style="fill: rgb(128, 139, 164); fill-opacity: 1;"/></g><g class="g-gtitle"/><g class="g-xtitle"/><g class="g-ytitle"/></g></svg>