<svg class="main-svg" xmlns="http://www.w3.org/2000/svg" xmlns:xlink="http://www.w3.org/1999/xlink" width="700" height="350" style="" viewBox="0 0 700 350"><rect x="0" y="0" width="700" height="350" style="fill: rgb(255, 255, 255); fill-opacity: 1;"/><defs id="defs-e4f159"><g class="clips"><clipPath id="clipe4f159xyplot" class="plotclip"><rect width="635" height="261"/></clipPath><clipPath class="axesclip" id="clipe4f159x"><rect x="35" y="0" width="635" height="350"/></clipPath><clipPath class="axesclip" id="clipe4f159y"><rect x="0" y="46" width="700" height="261"/></clipPath><clipPath class="axesclip" id="clipe4f159xy"><rect x="35" y="46" width="635" height="261"/></clipPath></g><g class="gradients"/><g class="patterns"/></defs><g class="bglayer"><rect class="bg" x="35" y="46" width="635" height="261" style="fill: rgb(229, 236, 246); fill-opacity: 1; stroke-width: 0;"/></g><g class="layer-below"><g class="imagelayer"/><g class="shapelayer"/></g><g class="cartesianlayer"><g class="subplot xy"><g class="layer-subplot"><g class="shapelayer"/><g class="imagelayer"/></g><g class="minor-gridlayer"><g class="x"/><g class="y"/></g><g class="gridlayer"><g class="x"><path class="xgrid crisp" transform="translate(45.41,0)" d="M0,46v261" style="stroke: rgb(255, 255, 255); stroke-opacity: 1; stroke-width: 1px;"/><path class="xgrid crisp" transform="translate(118.28,0)" d="M0,46v261" style="stroke: rgb(255, 255, 255); stroke-opacity: 1; stroke-width: 1px;"/><path class="xgrid crisp" transform="translate(191.15,0)" d="M0,46v261" style="stroke: rgb(255, 255, 255); stroke-opacity: 1; stroke-width: 1px;"/><path class="xgrid crisp" transform="translate(264.02,0)" d="M0,46v261" style="stroke: rgb(255, 255, 255); stroke-opacity: 1; stroke-width: 1px;"/><path class="xgrid crisp" transform="translate(336.89,0)" d="M0,46v261" style="stroke: rgb(255, 255, 255); stroke-opacity: 1; stroke-width: 1px;"/><path class="xgrid crisp" transform="translate(409.75,0)" d="M0,46v261" style="stroke: rgb(255, 255, 255); stroke-opacity: 1; stroke-width: 1px;"/><path class="xgrid crisp" transform="translate(482.62,0)" d="M0,46v261" style="stroke: rgb(255, 255, 255); stroke-opacity: 1; stroke-width: 1px;"/><path class="xgrid crisp" transform="translate(555.49,0)" d="M0,46v261" style="stroke: rgb(255, 255, 255); stroke-opacity: 1; stroke-width: 1px;"/><path class="xgrid crisp" transform="translate(628.36,0)" d="M0,46v261" style="stroke: rgb(255, 255, 255); stroke-opacity: 1; stroke-width: 1px;"/></g><g class="y"><path class="ygrid crisp" transform="translate(0,263.31)" d="M35,0h635" style="stroke: rgb(255, 255, 255); stroke-opacity: 1; stroke-width: 1px;"/><path class="ygrid crisp" transform="translate(0,218.68)" d="M35,0h635" style="stroke: rgb(255, 255, 255); stroke-opacity: 1; stroke-width: 1px;"/><path class="ygrid crisp" transform="translate(0,174.05)" d="M35,0h635" style="stroke: rgb(255, 255, 255); stroke-opacity: 1; stroke-width: 1px;"/><path class="ygrid crisp" transform="translate(0,129.43)" d="M35,0h635" style="stroke: rgb(255, 255, 255); stroke-opacity: 1; stroke-width: 1px;"/><path class="ygrid crisp" transform="translate(0,84.8)" d="M35,0h635" style="stroke: rgb(255, 255, 255); stroke-opacity: 1; stroke-width: 1px;"/></g></g><g class="zerolinelayer"/><path class="xlines-below"/><path class="ylines-below"/><g class="overlines-below"/><g class="xaxislayer-below"/><g class="yaxislayer-below"/><g class="overaxes-below"/><g class="plot" transform="translate(35,46)" clip-path="url(#clipe4f159xyplot)"><g class="scatterlayer mlayer"><g class="trace scatter trace3f9082d5-59b3-4dce-9fc5-95a4c29a69ed" style="stroke-miterlimit: 2;"><g class="fills"><g><path class="js-fill" d="M0,240.27L62.46,240.27L72.87,126.66L187.38,126.66L197.79,13.05L312.3,13.05L322.7,126.66L437.21,126.66L447.62,13.05L562.13,13.05L572.54,126.66L635,126.66L635,97.23L624.59,111.06L614.18,110.59L603.77,109.31L593.36,91.94L582.95,92.63L572.54,107.31L562.13,100.26L551.72,84.74L541.31,76.73L530.9,43.53L520.49,39.85L510.08,45.52L499.67,48.17L489.26,40.36L478.85,33.72L468.44,18.88L458.03,28.12L447.62,59.97L437.21,74.26L426.8,70.77L416.39,68.08L405.98,63.26L395.57,59.28L385.16,75.23L374.75,72.57L364.34,68.87L353.93,67.33L343.52,80.76L333.11,89.65L322.7,73.19L312.3,61.29L301.89,77.88L291.48,75.7L281.07,70.27L270.66,51.2L260.25,34.39L249.84,53.41L239.43,69.89L229.02,76.85L218.61,73.3L208.2,79.1L197.79,105.15L187.38,115.23L176.97,120.45L166.56,114L156.15,127.16L145.74,130.73L135.33,132.01L124.92,135.57L114.51,138.62L104.1,165.6L93.69,185.62L72.87,192.31L62.46,202.67L52.05,234.04L41.64,247.46L31.23,247.95L20.82,236.37L0,240.27Z" style="fill: rgb(23, 190, 207); fill-opacity: 0.25; stroke-width: 0;"/></g></g><g class="errorbars"/><g class="lines"><path class="js-line" d="M0,240.27L20.82,236.37L31.23,247.95L41.64,247.46L52.05,234.04L62.46,202.67L72.87,192.31L93.69,185.62L104.1,165.6L114.51,138.62L124.92,135.57L135.33,132.01L145.74,130.73L156.15,127.16L166.56,114L176.97,120.45L187.38,115.23L197.79,105.15L208.2,79.1L218.61,73.3L229.02,76.85L239.43,69.89L249.84,53.41L260.25,34.39L270.66,51.2L281.07,70.27L291.48,75.7L301.89,77.88L312.3,61.29L322.7,73.19L333.11,89.65L343.52,80.76L353.93,67.33L364.34,68.87L374.75,72.57L385.16,75.23L395.57,59.28L405.98,63.26L416.39,68.08L426.8,70.77L437.21,74.26L447.62,59.97L458.03,28.12L468.44,18.88L478.85,33.72L489.26,40.36L499.67,48.17L510.08,45.52L520.49,39.85L530.9,43.53L541.31,76.73L551.72,84.74L562.13,100.26L572.54,107.31L582.95,92.63L593.36,91.94L603.77,109.31L614.18,110.59L624.59,111.06L635,97.23" style="vector-effect: none; fill: none; stroke: rgb(31, 119, 180); stroke-opacity: 1; stroke-width: 2px; opacity: 1;"/></g><g class="points"/><g class="text"/></g><g class="trace scatter trace0b116914-6bd4-4b56-8652-bd443ed32125" style="stroke-miterlimit: 2;"><g class="fills"/><g class="errorbars"/><g class="lines"><path class="js-line" d="M0,240.27L62.46,240.27L72.87,126.66L187.38,126.66L197.79,13.05L312.3,13.05L322.7,126.66L437.21,126.66L447.62,13.05L562.13,13.05L572.54,126.66L635,126.66" style="vector-effect: none; fill: none; stroke: rgb(23, 190, 207); stroke-opacity: 0.75; stroke-width: 2px; opacity: 1;"/></g><g class="points"/><g class="text"/></g></g></g><g class="overplot"/><path class="xlines-above crisp" d="M0,0" style="fill: none;"/><path class="ylines-above crisp" d="M0,0" style="fill: none;"/><g class="overlines-above"/><g class="xaxislayer-above"><g class="xtick"><text text-anchor="middle" x="0" y="320" transform="translate(45.41,0)" style="font-family: 'Open Sans', verdana, arial, sans-serif; font-size: 12px; fill: rgb(42, 63, 95); fill-opacity: 1; white-space: pre; opacity: 1;"><tspan class="line" dy="0em" x="0" y="320">Sep 26</tspan><tspan class="line" dy="1.3em" x="0" y="320">2021</tspan></text></g><g class="xtick"><text text-anchor="middle" x="0" y="320" style="font-family: 'Open Sans', verdana, arial, sans-serif; font-size: 12px; fill: rgb(42, 63, 95); fill-opacity: 1; white-space: pre; opacity: 1;" transform="translate(118.28,0)">Oct 3</text></g><g class="xtick"><text text-anchor="middle" x="0" y="320" style="font-family: 'Open Sans', verdana, arial, sans-serif; font-size: 12px; fill: rgb(42, 63, 95); fill-opacity: 1; white-space: pre; opacity: 1;" transform="translate(191.15,0)">Oct 10</text></g><g class="xtick"><text text-anchor="middle" x="0" y="320" style="font-family: 'Open Sans', verdana, arial, sans-serif; font-size: 12px; fill: rgb(42, 63, 95); fill-opacity: 1; white-space: pre; opacity: 1;" transform="translate(264.02,0)">Oct 17</text></g><g class="xtick"><text text-anchor="middle" x="0" y="320" style="font-family: 'Open Sans', verdana, arial, sans-serif; font-size: 12px; fill: rgb(42, 63, 95); fill-opacity: 1; white-space: pre; opacity: 1;" transform="translate(336.89,0)">Oct 24</text></g><g class="xtick"><text text-anchor="middle" x="0" y="320" style="font-family: 'Open Sans', verdana, arial, sans-serif; font-size: 12px; fill: rgb(42, 63, 95); fill-opacity: 1; white-space: pre; opacity: 1;" transform="translate(409.75,0)">Oct 31</text></g><g class="xtick"><text text-anchor="middle" x="0" y="320" style="font-family: 'Open Sans', verdana, arial, sans-serif; font-size: 12px; fill: rgb(42, 63, 95); fill-opacity: 1; white-space: pre; opacity: 1;" transform="translate(482.62,0)">Nov 7</text></g><g class="xtick"><text text-anchor="middle" x="0" y="320" style="font-family: 'Open Sans', verdana, arial, sans-serif; font-size: 12px; fill: rgb(42, 63, 95); fill-opacity: 1; white-space: pre; opacity: 1;" transform="translate(555.49,0)">Nov 14</text></g><g class="xtick"><text text-anchor="middle" x="0" y="320" style="font-family: 'Open Sans', verdana, arial, sans-serif; font-size: 12px; fill: rgb(42, 63, 95); fill-opacity: 1; white-space: pre; opacity: 1;" transform="translate(628.36,0)">Nov 21</text></g></g><g class="yaxislayer-above"><g class="ytick"><text text-anchor="end" x="34" y="4.199999999999999" transform="translate(0,263.31)" style="font-family: 'Open Sans', verdana, arial, sans-serif; font-size: 12px; fill: rgb(42, 63, 95); fill-opacity: 1; white-space: pre; opacity: 1;">45k</text></g><g class="ytick"><text text-anchor="end" x="34" y="4.199999999999999" style="font-family: 'Open Sans', verdana, arial, sans-serif; font-size: 12px; fill: rgb(42, 63, 95); fill-opacity: 1; white-space: pre; opacity: 1;" transform="translate(0,218.68)">50k</text></g><g class="ytick"><text text-anchor="end" x="34" y="4.199999999999999" style="font-family: 'Open Sans', verdana, arial, sans-serif; font-size: 12px; fill: rgb(42, 63, 95); fill-opacity: 1; white-space: pre; opacity: 1;" transform="translate(0,174.05)">55k</text></g><g class="ytick"><text text-anchor="end" x="34" y="4.199999999999999" style="font-family: 'Open Sans', verdana, arial, sans-serif; font-size: 12px; fill: rgb(42, 63, 95); fill-opacity: 1; white-space: pre; opacity: 1;" transform="translate(0,129.43)">60k</text></g><g class="ytick"><text text-anchor="end" x="34" y="4.199999999999999" style="font-family: 'Open Sans', verdana, arial, sans-serif; font-size: 12px; fill: rgb(42, 63, 95); fill-opacity: 1; white-space: pre; opacity: 1;" transform="translate(0,84.8)">65k</text></g></g><g class="overaxes-above"/></g></g><g class="polarlayer"/><g class="smithlayer"/><g class="ternarylayer"/><g class="geolayer"/><g class="funnelarealayer"/><g class="pielayer"/><g class="iciclelayer"/><g class="treemaplayer"/><g class="sunburstlayer"/><g class="glimages"/><defs id="topdefs-e4f159"><g class="clips"/><clipPath id="legende4f159"><rect width="89" height="29" x="0" y="0"/></clipPath></defs><g class="layer-above"><g class="imagelayer"/><g class="shapelayer"/></g><g class="infolayer"><g class="legend" pointer-events="all" transform="translate(581,11.779999999999994)"><rect class="bg" shape-rendering="crispEdges" style="stroke: rgb(68, 68, 68); stroke-opacity: 1; fill: rgb(255, 255, 255); fill-opacity: 1; stroke-width: 0px;" width="89" height="29" x="0" y="0"/><g class="scrollbox" transform="" clip-path="url(#legende4f159)"><g class="groups"><g class="traces" transform="translate(0,14.5)" style="opacity: 1;"><text class="legendtext" text-anchor="start" x="40" y="4.680000000000001" style="font-family: 'Open Sans', verdana, arial, sans-serif; font-size: 12px; fill: rgb(42, 63, 95); fill-opacity: 1; white-space: pre;">Pattern</text><g class="layers"><g class="legendfill"><path class="js-fill" d="M5,-2h30v6h-30z" style="stroke-width: 0; fill: rgb(23, 190, 207); fill-opacity: 0.25;"/></g><g class="legendlines"><path class="js-line" d="M5,-2h30" style="fill: none; stroke: rgb(23, 190, 207); stroke-opacity: 0.75; stroke-width: 2px;"/></g><g class="legendsymbols"><g class="legendpoints"/></g></g><rect class="legendtoggle" x="0" y="-9.5" width="86.265625" height="19" style="fill: rgb(0, 0, 0); fill-opacity: 0;"/></g></g></g><rect class="scrollbar" rx="20" ry="3" width="0" height="0" style="fill: rgb(128, 139, 164); fill-opacity: 1;" x="0" y="0"/></g><g class="g-gtitle"/><g class="g-xtitle"/><g class="g-ytitle"/></g></svg>