<svg class="main-svg" xmlns="http://www.w3.org/2000/svg" xmlns:xlink="http://www.w3.org/1999/xlink" width="700" height="350" style="" viewBox="0 0 700 350"><rect x="0" y="0" width="700" height="350" style="fill: rgb(33, 34, 38); fill-opacity: 1;"/><defs id="defs-0d8a41"><g class="clips"><clipPath id="clip0d8a41xyplot" class="plotclip"><rect width="635" height="261"/></clipPath><clipPath class="axesclip" id="clip0d8a41x"><rect x="35" y="0" width="635" height="350"/></clipPath><clipPath class="axesclip" id="clip0d8a41y"><rect x="0" y="46" width="700" height="261"/></clipPath><clipPath class="axesclip" id="clip0d8a41xy"><rect x="35" y="46" width="635" height="261"/></clipPath></g><g class="gradients"/><g class="patterns"/></defs><g class="bglayer"/><g class="layer-below"><g class="imagelayer"/><g class="shapelayer"/></g><g class="cartesianlayer"><g class="subplot xy"><g class="layer-subplot"><g class="shapelayer"/><g class="imagelayer"/></g><g class="minor-gridlayer"><g class="x"/><g class="y"/></g><g class="gridlayer"><g class="x"><path class="xgrid crisp" transform="translate(99.58,0)" d="M0,46v261" style="stroke: rgb(49, 52, 57); stroke-opacity: 1; stroke-width: 1px;"/><path class="xgrid crisp" transform="translate(174.92,0)" d="M0,46v261" style="stroke: rgb(49, 52, 57); stroke-opacity: 1; stroke-width: 1px;"/><path class="xgrid crisp" transform="translate(250.25,0)" d="M0,46v261" style="stroke: rgb(49, 52, 57); stroke-opacity: 1; stroke-width: 1px;"/><path class="xgrid crisp" transform="translate(325.59,0)" d="M0,46v261" style="stroke: rgb(49, 52, 57); stroke-opacity: 1; stroke-width: 1px;"/><path class="xgrid crisp" transform="translate(400.93,0)" d="M0,46v261" style="stroke: rgb(49, 52, 57); stroke-opacity: 1; stroke-width: 1px;"/><path class="xgrid crisp" transform="translate(476.27,0)" d="M0,46v261" style="stroke: rgb(49, 52, 57); stroke-opacity: 1; stroke-width: 1px;"/><path class="xgrid crisp" transform="translate(551.61,0)" d="M0,46v261" style="stroke: rgb(49, 52, 57); stroke-opacity: 1; stroke-width: 1px;"/><path class="xgrid crisp" transform="translate(626.95,0)" d="M0,46v261" style="stroke: rgb(49, 52, 57); stroke-opacity: 1; stroke-width: 1px;"/></g><g class="y"><path class="ygrid crisp" transform="translate(0,285.88)" d="M35,0h635" style="stroke: rgb(49, 52, 57); stroke-opacity: 1; stroke-width: 1px;"/><path class="ygrid crisp" transform="translate(0,242.3)" d="M35,0h635" style="stroke: rgb(49, 52, 57); stroke-opacity: 1; stroke-width: 1px;"/><path class="ygrid crisp" transform="translate(0,198.73)" d="M35,0h635" style="stroke: rgb(49, 52, 57); stroke-opacity: 1; stroke-width: 1px;"/><path class="ygrid crisp" transform="translate(0,155.15)" d="M35,0h635" style="stroke: rgb(49, 52, 57); stroke-opacity: 1; stroke-width: 1px;"/><path class="ygrid crisp" transform="translate(0,111.57)" d="M35,0h635" style="stroke: rgb(49, 52, 57); stroke-opacity: 1; stroke-width: 1px;"/><path class="ygrid crisp" transform="translate(0,67.99)" d="M35,0h635" style="stroke: rgb(49, 52, 57); stroke-opacity: 1; stroke-width: 1px;"/></g></g><g class="zerolinelayer"/><path class="xlines-below"/><path class="ylines-below"/><g class="overlines-below"/><g class="xaxislayer-below"/><g class="yaxislayer-below"/><g class="overaxes-below"/><g class="plot" transform="translate(35,46)" clip-path="url(#clip0d8a41xyplot)"><g class="scatterlayer mlayer"><g class="trace scatter tracece1658ec-4aae-45f3-aee6-afce2eab2179" style="stroke-miterlimit: 2; opacity: 1;"><g class="fills"/><g class="errorbars"/><g class="lines"><path class="js-line" d="M0,122L10.76,128.94L21.53,111.85L32.29,139.19L43.05,143.89L53.81,148.61L64.58,161.11L75.34,195.64L86.1,187.44L96.86,204.11L107.63,204.76L118.39,202.52L129.15,195.55L139.92,184.72L150.68,197.4L161.44,192.42L172.2,207.5L182.97,193.52L193.73,203.27L204.49,201.14L215.25,193.74L226.02,204.07L236.78,199.31L247.54,200.29L258.31,203.26L269.07,208.24L279.83,204.74L290.59,200.94L301.36,181.19L312.12,180.61" style="vector-effect: none; fill: none; stroke: rgb(31, 119, 180); stroke-opacity: 1; stroke-width: 2px; opacity: 1;"/></g><g class="points"/><g class="text"/></g><g class="trace scatter trace627bdd2e-591b-4bd1-9826-a0bab475f62d" style="stroke-miterlimit: 2; opacity: 0.3;"><g class="fills"/><g class="errorbars"/><g class="lines"><path class="js-line" d="M312.12,180.61L322.88,186.61L333.64,204.03L344.41,206.37L355.17,202.79L365.93,214.71L376.69,224.18L387.46,226.74L398.22,231.61L408.98,236.04L419.75,213.74L430.51,209.18L441.27,209.93L452.03,215.76L462.8,197.06L473.56,196.58L484.32,202.1L495.08,199.43L505.85,217.36L516.61,198.22L527.37,202.93L538.14,198.77L548.9,191.78L559.66,194.59L570.42,205.54L581.19,201.68L591.95,233.49L613.47,232.54L624.24,246.45L635,247.95" style="vector-effect: none; fill: none; stroke: rgb(215, 75, 20); stroke-opacity: 1; stroke-width: 2px; opacity: 1;"/></g><g class="points"/><g class="text"/></g><g class="trace scatter trace55f25cad-bc00-4bbe-85cf-fead4e84fda2" style="stroke-miterlimit: 2; opacity: 0.3;"><g class="fills"/><g class="errorbars"/><g class="lines"><path class="js-line" d="M312.12,180.61L322.88,203L333.64,201.65L344.41,220.76L355.17,192.44L365.93,195.66L376.69,189.39L387.46,194.26L398.22,213.86L408.98,221.1L419.75,214.02L430.51,202.99L441.27,206.82L452.03,200.83L462.8,189.36L473.56,205.89L484.32,214.89L495.08,212.96L505.85,228.3L516.61,229.48L527.37,202.07L538.14,206.94L548.9,202.45L559.66,214.67L570.42,190.91L581.19,180.68L591.95,183.22L602.71,195.5L613.47,197.25L624.24,212.79L635,215.09" style="vector-effect: none; fill: none; stroke: rgb(211, 91, 22); stroke-opacity: 1; stroke-width: 2px; opacity: 1;"/></g><g class="points"/><g class="text"/></g><g class="trace scatter tracea16cec6d-085a-4f37-9921-ed1575329e7e" style="stroke-miterlimit: 2; opacity: 0.3;"><g class="fills"/><g class="errorbars"/><g class="lines"><path class="js-line" d="M312.12,180.61L322.88,175.67L333.64,188.43L344.41,184.2L355.17,187.06L365.93,194.94L376.69,187.43L387.46,189.93L398.22,183.88L408.98,193.26L419.75,196.11L430.51,195.39L441.27,202.9L452.03,206.87L462.8,205.78L473.56,203.71L484.32,211.22L495.08,219.61L505.85,200.79L516.61,199.64L527.37,188.88L538.14,183.89L548.9,174.91L559.66,160.07L570.42,142.32L581.19,137.83L591.95,137.86L602.71,120.35L613.47,126.3L624.24,139.22L635,144.8" style="vector-effect: none; fill: none; stroke: rgb(195, 159, 30); stroke-opacity: 1; stroke-width: 2px; opacity: 1;"/></g><g class="points"/><g class="text"/></g><g class="trace scatter tracef41bb67c-c5b9-4ac5-8ee3-82915ec8cd11" style="stroke-miterlimit: 2; opacity: 0.3;"><g class="fills"/><g class="errorbars"/><g class="lines"><path class="js-line" d="M312.12,180.61L322.88,158.7L333.64,157.37L344.41,144.84L355.17,139.04L365.93,128.59L376.69,111.32L387.46,90.66L398.22,85.44L408.98,85.47L419.75,65.09L430.51,72.02L441.27,87.06L452.03,93.55L462.8,102.3L473.56,88.19L484.32,77.59L495.08,59.23L505.85,43.08L516.61,50.32L527.37,27.44L538.14,33.66L548.9,34.35L559.66,44.69L570.42,13.05L581.19,19.86L591.95,20.74L602.71,30.71L613.47,41.93L624.24,41.84L635,22.72" style="vector-effect: none; fill: none; stroke: rgb(44, 160, 44); stroke-opacity: 1; stroke-width: 2px; opacity: 1;"/></g><g class="points"/><g class="text"/></g><g class="trace scatter trace3ff06ebf-40a4-467b-8e4a-7e645ef78a71" style="stroke-miterlimit: 2; opacity: 0.3;"><g class="fills"/><g class="errorbars"/><g class="lines"><path class="js-line" d="M312.12,180.61L322.88,185.49L333.64,196.11L344.41,200.69L355.17,206.87L365.93,196.91L376.69,189.43L387.46,176.46L398.22,165.07L408.98,170.18L419.75,154.03L430.51,158.42L441.27,158.9L452.03,166.21L462.8,143.87L473.56,148.68L484.32,149.3L505.85,164.26L516.61,164.2L527.37,150.7L538.14,133.88L548.9,137.16L559.66,134.42L570.42,132.78L581.19,144.7L591.95,136.17L602.71,150.15L613.47,135.53L624.24,136.68L635,137.52" style="vector-effect: none; fill: none; stroke: rgb(155, 182, 36); stroke-opacity: 1; stroke-width: 2px; opacity: 1;"/></g><g class="points"/><g class="text"/></g><g class="trace scatter traced70208e6-e6ab-41a1-95ee-d509a44ab566" style="stroke-miterlimit: 2; opacity: 0.3;"><g class="fills"/><g class="errorbars"/><g class="lines"><path class="js-line" d="M312.12,180.61L322.88,179.75L333.64,174.6L344.41,176.1L355.17,161.61L365.93,169.21L376.69,162.15L387.46,162.25L398.22,139.96L408.98,144.07L419.75,140.7L430.51,138.22L441.27,126.52L452.03,117.65L462.8,137.28L473.56,145.03L484.32,141.95L495.08,144.19L505.85,132.71L516.61,146.89L527.37,156.76L538.14,145.61L548.9,136.97L559.66,139L570.42,141.88L581.19,143.89L591.95,131.99L602.71,133.65L613.47,141.39L624.24,143.75L635,141" style="vector-effect: none; fill: none; stroke: rgb(138, 179, 37); stroke-opacity: 1; stroke-width: 2px; opacity: 1;"/></g><g class="points"/><g class="text"/></g><g class="trace scatter trace7ee64c39-1af5-4d62-a935-ef817aba98fb" style="stroke-miterlimit: 2; opacity: 0.3;"><g class="fills"/><g class="errorbars"/><g class="lines"><path class="js-line" d="M312.12,180.61L322.88,174.95L333.64,166.89L344.41,172.18L355.17,183.74L365.93,177.44L376.69,179.4L387.46,170.53L398.22,196.02L408.98,191.18L419.75,178.74L430.51,176.3L441.27,180.32L452.03,179.18L462.8,182.61L473.56,196.64L484.32,218.31L495.08,217.12L505.85,212.03L516.61,211.31L527.37,211.88L538.14,226.14L548.9,228.11L559.66,217.15L570.42,213.92L581.19,230.24L591.95,222.25L602.71,219.71L613.47,225.71L624.24,233.03L635,229.6" style="vector-effect: none; fill: none; stroke: rgb(204, 119, 25); stroke-opacity: 1; stroke-width: 2px; opacity: 1;"/></g><g class="points"/><g class="text"/></g><g class="trace scatter tracedaad5eb5-5c8a-4f6a-ab41-9ddd1144affe" style="stroke-miterlimit: 2; opacity: 0.3;"><g class="fills"/><g class="errorbars"/><g class="lines"><path class="js-line" d="M312.12,180.61L322.88,201.82L333.64,205.24L344.41,204.58L355.17,215.27L365.93,223.98L376.69,216.25L387.46,222.45L398.22,215.64L408.98,210.01L419.75,210.66L430.51,219.61L441.27,185.11L452.03,177.15L462.8,180.48L473.56,189.57L484.32,210.45L495.08,208.88L505.85,215.05L516.61,217.79L527.37,213.09L538.14,192.81L548.9,208.73L559.66,213.1L570.42,212.61L581.19,219.12L591.95,207.15L602.71,209.62L613.47,198.04L624.24,199.28L635,193.97" style="vector-effect: none; fill: none; stroke: rgb(218, 62, 18); stroke-opacity: 1; stroke-width: 2px; opacity: 1;"/></g><g class="points"/><g class="text"/></g><g class="trace scatter tracecd57df46-7b86-4c6a-809f-fe44f971086f" style="stroke-miterlimit: 2; opacity: 0.3;"><g class="fills"/><g class="errorbars"/><g class="lines"><path class="js-line" d="M312.12,180.61L322.88,177.66L333.64,183.89L344.41,185.62L355.17,176.58L365.93,173.14L376.69,165.78L387.46,163.64L398.22,162.33L408.98,146.95L419.75,145L430.51,142.92L441.27,145.36L452.03,155.7L462.8,150.56L473.56,153.7L484.32,149.74L495.08,148.59L505.85,155.78L516.61,171.23L527.37,169.41L538.14,177.32L548.9,173.99L559.66,177.94L570.42,195.39L581.19,191.77L591.95,184.65L602.71,192.65L613.47,188.61L624.24,189.76L635,194.41" style="vector-effect: none; fill: none; stroke: rgb(178, 187, 34); stroke-opacity: 1; stroke-width: 2px; opacity: 1;"/></g><g class="points"/><g class="text"/></g><g class="trace scatter traced8eea701-83ec-4e76-9491-e6871f29c894" style="stroke-miterlimit: 2; opacity: 0.3;"><g class="fills"/><g class="errorbars"/><g class="lines"><path class="js-line" d="M312.12,180.61L322.88,175.9L333.64,178.77L344.41,175.14L355.17,174.09L365.93,180.68L376.69,194.86L387.46,193.19L398.22,200.45L408.98,197.39L419.75,201.02L430.51,217.02L441.27,213.71L452.03,207.17L462.8,214.51L473.56,210.8L484.32,211.86L495.08,216.12L505.85,209.28L516.61,205.07L527.37,205.89L548.9,215.93L559.66,217.56L570.42,217.51L581.19,211.57L591.95,225.66L602.71,218.82L613.47,215.73L624.24,222.71L635,228.59" style="vector-effect: none; fill: none; stroke: rgb(220, 57, 18); stroke-opacity: 1; stroke-width: 2px; opacity: 1;"/></g><g class="points"/><g class="text"/></g><g class="trace scatter trace50d4aa5e-8041-4c2b-9f96-31a872e218de" style="stroke-miterlimit: 2; opacity: 1;"><g class="fills"/><g class="errorbars"/><g class="lines"><path class="js-line" d="M312.12,180.61L322.88,178.7L333.64,186.16L344.41,184.91L355.17,185.4L365.93,187.81L376.69,188.41L387.46,183.2L398.22,189.95L408.98,192.22L419.75,187.42L430.51,185.84L441.27,182.72L452.03,178.16L462.8,181.55L473.56,193.07L484.32,206.28L495.08,204.15L505.85,205.04L516.61,198.93L527.37,195.47L538.14,188.35L548.9,183.35L559.66,186.26L570.42,193.15L581.19,186.22L591.95,183.94L602.71,194.08L613.47,192.93L624.24,194.52L635,194.19" style="vector-effect: none; fill: none; stroke: rgb(195, 157, 30); stroke-opacity: 1; stroke-width: 2px; opacity: 1;"/></g><g class="points"/><g class="text"/></g></g></g><g class="overplot"/><path class="xlines-above crisp" d="M0,0" style="fill: none;"/><path class="ylines-above crisp" d="M0,0" style="fill: none;"/><g class="overlines-above"/><g class="xaxislayer-above"><g class="xtick"><text text-anchor="middle" x="0" y="320" transform="translate(99.58,0)" style="font-family: 'Open Sans', verdana, arial, sans-serif; font-size: 12px; fill: rgb(214, 223, 239); fill-opacity: 1; white-space: pre; opacity: 1;"><tspan class="line" dy="0em" x="0" y="320">May 8</tspan><tspan class="line" dy="1.3em" x="0" y="320">2022</tspan></text></g><g class="xtick"><text text-anchor="middle" x="0" y="320" style="font-family: 'Open Sans', verdana, arial, sans-serif; font-size: 12px; fill: rgb(214, 223, 239); fill-opacity: 1; white-space: pre; opacity: 1;" transform="translate(174.92,0)">May 15</text></g><g class="xtick"><text text-anchor="middle" x="0" y="320" style="font-family: 'Open Sans', verdana, arial, sans-serif; font-size: 12px; fill: rgb(214, 223, 239); fill-opacity: 1; white-space: pre; opacity: 1;" transform="translate(250.25,0)">May 22</text></g><g class="xtick"><text text-anchor="middle" x="0" y="320" style="font-family: 'Open Sans', verdana, arial, sans-serif; font-size: 12px; fill: rgb(214, 223, 239); fill-opacity: 1; white-space: pre; opacity: 1;" transform="translate(325.59,0)">May 29</text></g><g class="xtick"><text text-anchor="middle" x="0" y="320" style="font-family: 'Open Sans', verdana, arial, sans-serif; font-size: 12px; fill: rgb(214, 223, 239); fill-opacity: 1; white-space: pre; opacity: 1;" transform="translate(400.93,0)">Jun 5</text></g><g class="xtick"><text text-anchor="middle" x="0" y="320" style="font-family: 'Open Sans', verdana, arial, sans-serif; font-size: 12px; fill: rgb(214, 223, 239); fill-opacity: 1; white-space: pre; opacity: 1;" transform="translate(476.27,0)">Jun 12</text></g><g class="xtick"><text text-anchor="middle" x="0" y="320" style="font-family: 'Open Sans', verdana, arial, sans-serif; font-size: 12px; fill: rgb(214, 223, 239); fill-opacity: 1; white-space: pre; opacity: 1;" transform="translate(551.61,0)">Jun 19</text></g><g class="xtick"><text text-anchor="middle" x="0" y="320" style="font-family: 'Open Sans', verdana, arial, sans-serif; font-size: 12px; fill: rgb(214, 223, 239); fill-opacity: 1; white-space: pre; opacity: 1;" transform="translate(626.95,0)">Jun 26</text></g></g><g class="yaxislayer-above"><g class="ytick"><text text-anchor="end" x="34" y="4.199999999999999" transform="translate(0,285.88)" style="font-family: 'Open Sans', verdana, arial, sans-serif; font-size: 12px; fill: rgb(214, 223, 239); fill-opacity: 1; white-space: pre; opacity: 1;">25k</text></g><g class="ytick"><text text-anchor="end" x="34" y="4.199999999999999" style="font-family: 'Open Sans', verdana, arial, sans-serif; font-size: 12px; fill: rgb(214, 223, 239); fill-opacity: 1; white-space: pre; opacity: 1;" transform="translate(0,242.3)">30k</text></g><g class="ytick"><text text-anchor="end" x="34" y="4.199999999999999" style="font-family: 'Open Sans', verdana, arial, sans-serif; font-size: 12px; fill: rgb(214, 223, 239); fill-opacity: 1; white-space: pre; opacity: 1;" transform="translate(0,198.73)">35k</text></g><g class="ytick"><text text-anchor="end" x="34" y="4.199999999999999" style="font-family: 'Open Sans', verdana, arial, sans-serif; font-size: 12px; fill: rgb(214, 223, 239); fill-opacity: 1; white-space: pre; opacity: 1;" transform="translate(0,155.15)">40k</text></g><g class="ytick"><text text-anchor="end" x="34" y="4.199999999999999" style="font-family: 'Open Sans', verdana, arial, sans-serif; font-size: 12px; fill: rgb(214, 223, 239); fill-opacity: 1; white-space: pre; opacity: 1;" transform="translate(0,111.57)">45k</text></g><g class="ytick"><text text-anchor="end" x="34" y="4.199999999999999" style="font-family: 'Open Sans', verdana, arial, sans-serif; font-size: 12px; fill: rgb(214, 223, 239); fill-opacity: 1; white-space: pre; opacity: 1;" transform="translate(0,67.99)">50k</text></g></g><g class="overaxes-above"/></g></g><g class="polarlayer"/><g class="smithlayer"/><g class="ternarylayer"/><g class="geolayer"/><g class="funnelarealayer"/><g class="pielayer"/><g class="iciclelayer"/><g class="treemaplayer"/><g class="sunburstlayer"/><g class="glimages"/><defs id="topdefs-0d8a41"><g class="clips"/><clipPath id="legend0d8a41"><rect width="309" height="29" x="0" y="0"/></clipPath></defs><g class="layer-above"><g class="imagelayer"/><g class="shapelayer"/></g><g class="infolayer"><g class="legend" pointer-events="all" transform="translate(361,11.779999999999994)"><rect class="bg" shape-rendering="crispEdges" style="stroke: rgb(68, 68, 68); stroke-opacity: 1; fill: rgb(33, 34, 38); fill-opacity: 1; stroke-width: 0px;" width="309" height="29" x="0" y="0"/><g class="scrollbox" transform="" clip-path="url(#legend0d8a41)"><g class="groups"><g class="traces" transform="translate(0,14.5)" style="opacity: 1;"><text class="legendtext" text-anchor="start" x="40" y="4.680000000000001" style="font-family: 'Open Sans', verdana, arial, sans-serif; font-size: 12px; fill: rgb(214, 223, 239); fill-opacity: 1; white-space: pre;">Close</text><g class="layers" style="opacity: 1;"><g class="legendfill"/><g class="legendlines"><path class="js-line" d="M5,0h30" style="fill: none; stroke: rgb(31, 119, 180); stroke-opacity: 1; stroke-width: 2px;"/></g><g class="legendsymbols"><g class="legendpoints"/></g></g><rect class="legendtoggle" x="0" y="-9.5" width="74.859375" height="19" style="fill: rgb(0, 0, 0); fill-opacity: 0;"/></g><g class="traces" transform="translate(77.359375,14.5)" style="opacity: 1;"><text class="legendtext" text-anchor="start" x="40" y="4.680000000000001" style="font-family: 'Open Sans', verdana, arial, sans-serif; font-size: 12px; fill: rgb(214, 223, 239); fill-opacity: 1; white-space: pre;">proj (10)</text><g class="layers" style="opacity: 0.3;"><g class="legendfill"/><g class="legendlines"><path class="js-line" d="M5,0h30" style="fill: none; stroke: rgb(215, 75, 20); stroke-opacity: 1; stroke-width: 2px;"/></g><g class="legendsymbols"><g class="legendpoints"/></g></g><rect class="legendtoggle" x="0" y="-9.5" width="96.890625" height="19" style="fill: rgb(0, 0, 0); fill-opacity: 0;"/></g><g class="traces" transform="translate(176.75,14.5)" style="opacity: 1;"><text class="legendtext" text-anchor="start" x="40" y="4.680000000000001" style="font-family: 'Open Sans', verdana, arial, sans-serif; font-size: 12px; fill: rgb(214, 223, 239); fill-opacity: 1; white-space: pre;">Q=50% (proj)</text><g class="layers" style="opacity: 1;"><g class="legendfill"/><g class="legendlines"><path class="js-line" d="M5,0h30" style="fill: none; stroke: rgb(195, 157, 30); stroke-opacity: 1; stroke-width: 2px;"/></g><g class="legendsymbols"><g class="legendpoints"/></g></g><rect class="legendtoggle" x="0" y="-9.5" width="129.078125" height="19" style="fill: rgb(0, 0, 0); fill-opacity: 0;"/></g></g></g><rect class="scrollbar" rx="20" ry="3" width="0" height="0" style="fill: rgb(128, 139, 164); fill-opacity: 1;" x="0" y="0"/></g><g class="g-gtitle"/><g class="g-xtitle"/><g class="g-ytitle"/></g></svg>