<svg class="main-svg" xmlns="http://www.w3.org/2000/svg" xmlns:xlink="http://www.w3.org/1999/xlink" width="700" height="350" style="" viewBox="0 0 700 350"><rect x="0" y="0" width="700" height="350" style="fill: rgb(33, 34, 38); fill-opacity: 1;"/><defs id="defs-722ccc"><g class="clips"><clipPath id="clip722cccxyplot" class="plotclip"><rect width="635" height="277"/></clipPath><clipPath class="axesclip" id="clip722cccx"><rect x="35" y="0" width="635" height="350"/></clipPath><clipPath class="axesclip" id="clip722cccy"><rect x="0" y="30" width="700" height="277"/></clipPath><clipPath class="axesclip" id="clip722cccxy"><rect x="35" y="30" width="635" height="277"/></clipPath></g><g class="gradients"/><g class="patterns"/></defs><g class="bglayer"/><g class="layer-below"><g class="imagelayer"/><g class="shapelayer"/></g><g class="cartesianlayer"><g class="subplot xy"><g class="layer-subplot"><g class="shapelayer"/><g class="imagelayer"/></g><g class="minor-gridlayer"><g class="x"/><g class="y"/></g><g class="gridlayer"><g class="x"><path class="xgrid crisp" transform="translate(45.41,0)" d="M0,30v277" style="stroke: rgb(49, 52, 57); stroke-opacity: 1; stroke-width: 1px;"/><path class="xgrid crisp" transform="translate(118.28,0)" d="M0,30v277" style="stroke: rgb(49, 52, 57); stroke-opacity: 1; stroke-width: 1px;"/><path class="xgrid crisp" transform="translate(191.15,0)" d="M0,30v277" style="stroke: rgb(49, 52, 57); stroke-opacity: 1; stroke-width: 1px;"/><path class="xgrid crisp" transform="translate(264.02,0)" d="M0,30v277" style="stroke: rgb(49, 52, 57); stroke-opacity: 1; stroke-width: 1px;"/><path class="xgrid crisp" transform="translate(336.89,0)" d="M0,30v277" style="stroke: rgb(49, 52, 57); stroke-opacity: 1; stroke-width: 1px;"/><path class="xgrid crisp" transform="translate(409.75,0)" d="M0,30v277" style="stroke: rgb(49, 52, 57); stroke-opacity: 1; stroke-width: 1px;"/><path class="xgrid crisp" transform="translate(482.62,0)" d="M0,30v277" style="stroke: rgb(49, 52, 57); stroke-opacity: 1; stroke-width: 1px;"/><path class="xgrid crisp" transform="translate(555.49,0)" d="M0,30v277" style="stroke: rgb(49, 52, 57); stroke-opacity: 1; stroke-width: 1px;"/><path class="xgrid crisp" transform="translate(628.36,0)" d="M0,30v277" style="stroke: rgb(49, 52, 57); stroke-opacity: 1; stroke-width: 1px;"/></g><g class="y"><path class="ygrid crisp" transform="translate(0,260.63)" d="M35,0h635" style="stroke: rgb(49, 52, 57); stroke-opacity: 1; stroke-width: 1px;"/><path class="ygrid crisp" transform="translate(0,213.27)" d="M35,0h635" style="stroke: rgb(49, 52, 57); stroke-opacity: 1; stroke-width: 1px;"/><path class="ygrid crisp" transform="translate(0,165.9)" d="M35,0h635" style="stroke: rgb(49, 52, 57); stroke-opacity: 1; stroke-width: 1px;"/><path class="ygrid crisp" transform="translate(0,118.54)" d="M35,0h635" style="stroke: rgb(49, 52, 57); stroke-opacity: 1; stroke-width: 1px;"/><path class="ygrid crisp" transform="translate(0,71.18)" d="M35,0h635" style="stroke: rgb(49, 52, 57); stroke-opacity: 1; stroke-width: 1px;"/></g></g><g class="zerolinelayer"/><path class="xlines-below"/><path class="ylines-below"/><g class="overlines-below"/><g class="xaxislayer-below"/><g class="yaxislayer-below"/><g class="overaxes-below"/><g class="plot" transform="translate(35,30)" clip-path="url(#clip722cccxyplot)"><g class="scatterlayer mlayer"><g class="trace scatter tracea67474d4-8b1d-47a6-8e68-27f91d79090c" style="stroke-miterlimit: 2;"><g class="fills"><g><path class="js-fill" d="M0,255L114.51,146.28L124.92,134.42L135.33,126.52L145.74,116.63L239.43,27.69L249.84,13.85L260.25,19.78L270.66,29.66L374.75,128.49L385.16,134.42L395.57,120.59L405.98,110.7L499.67,21.76L510.08,13.85L520.49,25.71L530.9,35.59L635,134.42L635,103.19L624.59,117.87L614.18,117.37L603.77,116.01L593.36,97.58L582.95,98.31L572.54,113.89L562.13,106.41L551.72,89.94L541.31,81.43L530.9,46.2L520.49,42.29L510.08,48.31L499.67,51.12L489.26,42.84L478.85,35.79L468.44,20.04L458.03,29.85L447.62,63.65L437.21,78.81L426.8,75.11L416.39,72.25L405.98,67.13L395.57,62.92L385.16,79.84L374.75,77.01L364.34,73.09L353.93,71.46L343.52,85.71L333.11,95.14L322.7,77.68L312.3,65.05L301.89,82.66L291.48,80.34L281.07,74.58L270.66,54.33L260.25,36.49L249.84,56.68L239.43,74.17L229.02,81.56L218.61,77.79L208.2,83.94L197.79,111.6L187.38,122.29L176.97,127.83L166.56,120.98L156.15,134.96L145.74,138.74L135.33,140.11L124.92,143.88L114.51,147.12L104.1,175.75L93.69,197L72.87,204.1L62.46,215.1L52.05,248.39L41.64,262.63L31.23,263.15L20.82,250.86L0,255Z" style="fill: rgb(255, 100, 0); fill-opacity: 0.25; stroke-width: 0;"/></g></g><g class="errorbars"/><g class="lines"><path class="js-line" d="M0,255L20.82,250.86L31.23,263.15L41.64,262.63L52.05,248.39L62.46,215.1L72.87,204.1L93.69,197L104.1,175.75L114.51,147.12L124.92,143.88L135.33,140.11L145.74,138.74L156.15,134.96L166.56,120.98L176.97,127.83L187.38,122.29L197.79,111.6L208.2,83.94L218.61,77.79L229.02,81.56L239.43,74.17L249.84,56.68L260.25,36.49L270.66,54.33L281.07,74.58L291.48,80.34L301.89,82.66L312.3,65.05L322.7,77.68L333.11,95.14L343.52,85.71L353.93,71.46L364.34,73.09L374.75,77.01L385.16,79.84L395.57,62.92L405.98,67.13L416.39,72.25L426.8,75.11L437.21,78.81L447.62,63.65L458.03,29.85L468.44,20.04L478.85,35.79L489.26,42.84L499.67,51.12L510.08,48.31L520.49,42.29L530.9,46.2L541.31,81.43L551.72,89.94L562.13,106.41L572.54,113.89L582.95,98.31L593.36,97.58L603.77,116.01L614.18,117.37L624.59,117.87L635,103.19" style="vector-effect: none; fill: none; stroke: rgb(31, 119, 180); stroke-opacity: 1; stroke-width: 2px; opacity: 1;"/></g><g class="points"/><g class="text"/></g><g class="trace scatter trace7521cbb2-9e80-4abc-a386-306f4baec0a5" style="stroke-miterlimit: 2;"><g class="fills"/><g class="errorbars"/><g class="lines"><path class="js-line" d="M0,255L114.51,146.28L124.92,134.42L135.33,126.52L145.74,116.63L239.43,27.69L249.84,13.85L260.25,19.78L270.66,29.66L374.75,128.49L385.16,134.42L395.57,120.59L405.98,110.7L499.67,21.76L510.08,13.85L520.49,25.71L530.9,35.59L635,134.42" style="vector-effect: none; fill: none; stroke: rgb(255, 127, 14); stroke-opacity: 1; stroke-width: 2px; opacity: 1;"/></g><g class="points"/><g class="text"/></g></g></g><g class="overplot"/><path class="xlines-above crisp" d="M0,0" style="fill: none;"/><path class="ylines-above crisp" d="M0,0" style="fill: none;"/><g class="overlines-above"/><g class="xaxislayer-above"><g class="xtick"><text text-anchor="middle" x="0" y="320" transform="translate(45.41,0)" style="font-family: 'Open Sans', verdana, arial, sans-serif; font-size: 12px; fill: rgb(214, 223, 239); fill-opacity: 1; white-space: pre; opacity: 1;"><tspan class="line" dy="0em" x="0" y="320">Sep 26</tspan><tspan class="line" dy="1.3em" x="0" y="320">2021</tspan></text></g><g class="xtick"><text text-anchor="middle" x="0" y="320" style="font-family: 'Open Sans', verdana, arial, sans-serif; font-size: 12px; fill: rgb(214, 223, 239); fill-opacity: 1; white-space: pre; opacity: 1;" transform="translate(118.28,0)">Oct 3</text></g><g class="xtick"><text text-anchor="middle" x="0" y="320" style="font-family: 'Open Sans', verdana, arial, sans-serif; font-size: 12px; fill: rgb(214, 223, 239); fill-opacity: 1; white-space: pre; opacity: 1;" transform="translate(191.15,0)">Oct 10</text></g><g class="xtick"><text text-anchor="middle" x="0" y="320" style="font-family: 'Open Sans', verdana, arial, sans-serif; font-size: 12px; fill: rgb(214, 223, 239); fill-opacity: 1; white-space: pre; opacity: 1;" transform="translate(264.02,0)">Oct 17</text></g><g class="xtick"><text text-anchor="middle" x="0" y="320" style="font-family: 'Open Sans', verdana, arial, sans-serif; font-size: 12px; fill: rgb(214, 223, 239); fill-opacity: 1; white-space: pre; opacity: 1;" transform="translate(336.89,0)">Oct 24</text></g><g class="xtick"><text text-anchor="middle" x="0" y="320" style="font-family: 'Open Sans', verdana, arial, sans-serif; font-size: 12px; fill: rgb(214, 223, 239); fill-opacity: 1; white-space: pre; opacity: 1;" transform="translate(409.75,0)">Oct 31</text></g><g class="xtick"><text text-anchor="middle" x="0" y="320" style="font-family: 'Open Sans', verdana, arial, sans-serif; font-size: 12px; fill: rgb(214, 223, 239); fill-opacity: 1; white-space: pre; opacity: 1;" transform="translate(482.62,0)">Nov 7</text></g><g class="xtick"><text text-anchor="middle" x="0" y="320" style="font-family: 'Open Sans', verdana, arial, sans-serif; font-size: 12px; fill: rgb(214, 223, 239); fill-opacity: 1; white-space: pre; opacity: 1;" transform="translate(555.49,0)">Nov 14</text></g><g class="xtick"><text text-anchor="middle" x="0" y="320" style="font-family: 'Open Sans', verdana, arial, sans-serif; font-size: 12px; fill: rgb(214, 223, 239); fill-opacity: 1; white-space: pre; opacity: 1;" transform="translate(628.36,0)">Nov 21</text></g></g><g class="yaxislayer-above"><g class="ytick"><text text-anchor="end" x="34" y="4.199999999999999" transform="translate(0,260.63)" style="font-family: 'Open Sans', verdana, arial, sans-serif; font-size: 12px; fill: rgb(214, 223, 239); fill-opacity: 1; white-space: pre; opacity: 1;">45k</text></g><g class="ytick"><text text-anchor="end" x="34" y="4.199999999999999" style="font-family: 'Open Sans', verdana, arial, sans-serif; font-size: 12px; fill: rgb(214, 223, 239); fill-opacity: 1; white-space: pre; opacity: 1;" transform="translate(0,213.27)">50k</text></g><g class="ytick"><text text-anchor="end" x="34" y="4.199999999999999" style="font-family: 'Open Sans', verdana, arial, sans-serif; font-size: 12px; fill: rgb(214, 223, 239); fill-opacity: 1; white-space: pre; opacity: 1;" transform="translate(0,165.9)">55k</text></g><g class="ytick"><text text-anchor="end" x="34" y="4.199999999999999" style="font-family: 'Open Sans', verdana, arial, sans-serif; font-size: 12px; fill: rgb(214, 223, 239); fill-opacity: 1; white-space: pre; opacity: 1;" transform="translate(0,118.54)">60k</text></g><g class="ytick"><text text-anchor="end" x="34" y="4.199999999999999" style="font-family: 'Open Sans', verdana, arial, sans-serif; font-size: 12px; fill: rgb(214, 223, 239); fill-opacity: 1; white-space: pre; opacity: 1;" transform="translate(0,71.18)">65k</text></g></g><g class="overaxes-above"/></g></g><g class="polarlayer"/><g class="smithlayer"/><g class="ternarylayer"/><g class="geolayer"/><g class="funnelarealayer"/><g class="pielayer"/><g class="iciclelayer"/><g class="treemaplayer"/><g class="sunburstlayer"/><g class="glimages"/><defs id="topdefs-722ccc"><g class="clips"/></defs><g class="layer-above"><g class="imagelayer"/><g class="shapelayer"/></g><g class="infolayer"><g class="g-gtitle"/><g class="g-xtitle"/><g class="g-ytitle"/></g></svg>