<svg class="main-svg" xmlns="http://www.w3.org/2000/svg" xmlns:xlink="http://www.w3.org/1999/xlink" width="700" height="350" style="" viewBox="0 0 700 350"><rect x="0" y="0" width="700" height="350" style="fill: rgb(255, 255, 255); fill-opacity: 1;"/><defs id="defs-3d084f"><g class="clips"><clipPath id="clip3d084fxyplot" class="plotclip"><rect width="635" height="277"/></clipPath><clipPath class="axesclip" id="clip3d084fx"><rect x="35" y="0" width="635" height="350"/></clipPath><clipPath class="axesclip" id="clip3d084fy"><rect x="0" y="30" width="700" height="277"/></clipPath><clipPath class="axesclip" id="clip3d084fxy"><rect x="35" y="30" width="635" height="277"/></clipPath></g><g class="gradients"/><g class="patterns"/></defs><g class="bglayer"><rect class="bg" x="35" y="30" width="635" height="277" style="fill: rgb(229, 236, 246); fill-opacity: 1; stroke-width: 0;"/></g><g class="layer-below"><g class="imagelayer"/><g class="shapelayer"/></g><g class="cartesianlayer"><g class="subplot xy"><g class="layer-subplot"><g class="shapelayer"/><g class="imagelayer"/></g><g class="minor-gridlayer"><g class="x"/><g class="y"/></g><g class="gridlayer"><g class="x"><path class="xgrid crisp" transform="translate(45.41,0)" d="M0,30v277" style="stroke: rgb(255, 255, 255); stroke-opacity: 1; stroke-width: 1px;"/><path class="xgrid crisp" transform="translate(118.28,0)" d="M0,30v277" style="stroke: rgb(255, 255, 255); stroke-opacity: 1; stroke-width: 1px;"/><path class="xgrid crisp" transform="translate(191.15,0)" d="M0,30v277" style="stroke: rgb(255, 255, 255); stroke-opacity: 1; stroke-width: 1px;"/><path class="xgrid crisp" transform="translate(264.02,0)" d="M0,30v277" style="stroke: rgb(255, 255, 255); stroke-opacity: 1; stroke-width: 1px;"/><path class="xgrid crisp" transform="translate(336.89,0)" d="M0,30v277" style="stroke: rgb(255, 255, 255); stroke-opacity: 1; stroke-width: 1px;"/><path class="xgrid crisp" transform="translate(409.75,0)" d="M0,30v277" style="stroke: rgb(255, 255, 255); stroke-opacity: 1; stroke-width: 1px;"/><path class="xgrid crisp" transform="translate(482.62,0)" d="M0,30v277" style="stroke: rgb(255, 255, 255); stroke-opacity: 1; stroke-width: 1px;"/><path class="xgrid crisp" transform="translate(555.49,0)" d="M0,30v277" style="stroke: rgb(255, 255, 255); stroke-opacity: 1; stroke-width: 1px;"/><path class="xgrid crisp" transform="translate(628.36,0)" d="M0,30v277" style="stroke: rgb(255, 255, 255); stroke-opacity: 1; stroke-width: 1px;"/></g><g class="y"><path class="ygrid crisp" transform="translate(0,259.8)" d="M35,0h635" style="stroke: rgb(255, 255, 255); stroke-opacity: 1; stroke-width: 1px;"/><path class="ygrid crisp" transform="translate(0,211.24)" d="M35,0h635" style="stroke: rgb(255, 255, 255); stroke-opacity: 1; stroke-width: 1px;"/><path class="ygrid crisp" transform="translate(0,162.67)" d="M35,0h635" style="stroke: rgb(255, 255, 255); stroke-opacity: 1; stroke-width: 1px;"/><path class="ygrid crisp" transform="translate(0,114.1)" d="M35,0h635" style="stroke: rgb(255, 255, 255); stroke-opacity: 1; stroke-width: 1px;"/><path class="ygrid crisp" transform="translate(0,65.53)" d="M35,0h635" style="stroke: rgb(255, 255, 255); stroke-opacity: 1; stroke-width: 1px;"/></g></g><g class="zerolinelayer"/><path class="xlines-below"/><path class="ylines-below"/><g class="overlines-below"/><g class="xaxislayer-below"/><g class="yaxislayer-below"/><g class="overaxes-below"/><g class="plot" transform="translate(35,30)" clip-path="url(#clip3d084fxyplot)"><g class="scatterlayer mlayer"><g class="trace scatter traced46195a1-2fed-4abe-840f-e6b2d9c605f0" style="stroke-miterlimit: 2;"><g class="fills"><g><path class="js-fill" d="M0,263.15L114.51,150.76L124.92,138.5L135.33,130.33L145.74,120.11L239.43,28.15L249.84,13.85L260.25,19.98L270.66,30.2L374.75,132.37L385.16,138.5L395.57,124.2L405.98,113.98L499.67,22.02L510.08,13.85L520.49,26.11L530.9,36.33L635,138.5L635,99.12L624.59,114.18L614.18,113.66L603.77,112.26L593.36,93.36L582.95,94.12L572.54,110.09L562.13,102.42L551.72,85.53L541.31,76.81L530.9,40.68L520.49,36.67L510.08,42.84L499.67,45.72L489.26,37.23L478.85,30L468.44,13.85L458.03,23.91L447.62,58.57L437.21,74.12L426.8,70.32L416.39,67.39L405.98,62.14L395.57,57.82L385.16,75.18L374.75,72.28L364.34,68.26L353.93,66.58L343.52,81.2L333.11,90.86L322.7,72.96L312.3,60.01L301.89,78.06L291.48,75.69L281.07,69.78L270.66,49.02L260.25,30.72L249.84,51.43L239.43,69.36L229.02,76.94L218.61,73.07L208.2,79.38L197.79,107.74L187.38,118.71L176.97,124.39L166.56,117.36L156.15,131.69L145.74,135.58L135.33,136.98L124.92,140.84L114.51,144.17L104.1,173.53L93.69,195.31L72.87,202.6L62.46,213.88L52.05,248.02L41.64,262.61L31.23,263.15L20.82,250.54L0,254.79Z" style="fill: rgb(255, 100, 0); fill-opacity: 0.25; stroke-width: 0;"/></g></g><g class="errorbars"/><g class="lines"><path class="js-line" d="M0,254.79L20.82,250.54L31.23,263.15L41.64,262.61L52.05,248.02L62.46,213.88L72.87,202.6L93.69,195.31L104.1,173.53L114.51,144.17L124.92,140.84L135.33,136.98L145.74,135.58L156.15,131.69L166.56,117.36L176.97,124.39L187.38,118.71L197.79,107.74L208.2,79.38L218.61,73.07L229.02,76.94L239.43,69.36L249.84,51.43L260.25,30.72L270.66,49.02L281.07,69.78L291.48,75.69L301.89,78.06L312.3,60.01L322.7,72.96L333.11,90.86L343.52,81.2L353.93,66.58L364.34,68.26L374.75,72.28L385.16,75.18L395.57,57.82L405.98,62.14L416.39,67.39L426.8,70.32L437.21,74.12L447.62,58.57L458.03,23.91L468.44,13.85L478.85,30L489.26,37.23L499.67,45.72L510.08,42.84L520.49,36.67L530.9,40.68L541.31,76.81L551.72,85.53L562.13,102.42L572.54,110.09L582.95,94.12L593.36,93.36L603.77,112.26L614.18,113.66L624.59,114.18L635,99.12" style="vector-effect: none; fill: none; stroke: rgb(31, 119, 180); stroke-opacity: 1; stroke-width: 2px; opacity: 1;"/></g><g class="points"/><g class="text"/></g><g class="trace scatter trace880db384-0bd1-4954-92b0-fbda22a3969b" style="stroke-miterlimit: 2;"><g class="fills"/><g class="errorbars"/><g class="lines"><path class="js-line" d="M0,263.15L114.51,150.76L124.92,138.5L135.33,130.33L145.74,120.11L239.43,28.15L249.84,13.85L260.25,19.98L270.66,30.2L374.75,132.37L385.16,138.5L395.57,124.2L405.98,113.98L499.67,22.02L510.08,13.85L520.49,26.11L530.9,36.33L635,138.5" style="vector-effect: none; fill: none; stroke: rgb(255, 127, 14); stroke-opacity: 1; stroke-width: 2px; opacity: 1;"/></g><g class="points"/><g class="text"/></g></g></g><g class="overplot"/><path class="xlines-above crisp" d="M0,0" style="fill: none;"/><path class="ylines-above crisp" d="M0,0" style="fill: none;"/><g class="overlines-above"/><g class="xaxislayer-above"><g class="xtick"><text text-anchor="middle" x="0" y="320" transform="translate(45.41,0)" style="font-family: 'Open Sans', verdana, arial, sans-serif; font-size: 12px; fill: rgb(42, 63, 95); fill-opacity: 1; white-space: pre; opacity: 1;"><tspan class="line" dy="0em" x="0" y="320">Sep 26</tspan><tspan class="line" dy="1.3em" x="0" y="320">2021</tspan></text></g><g class="xtick"><text text-anchor="middle" x="0" y="320" style="font-family: 'Open Sans', verdana, arial, sans-serif; font-size: 12px; fill: rgb(42, 63, 95); fill-opacity: 1; white-space: pre; opacity: 1;" transform="translate(118.28,0)">Oct 3</text></g><g class="xtick"><text text-anchor="middle" x="0" y="320" style="font-family: 'Open Sans', verdana, arial, sans-serif; font-size: 12px; fill: rgb(42, 63, 95); fill-opacity: 1; white-space: pre; opacity: 1;" transform="translate(191.15,0)">Oct 10</text></g><g class="xtick"><text text-anchor="middle" x="0" y="320" style="font-family: 'Open Sans', verdana, arial, sans-serif; font-size: 12px; fill: rgb(42, 63, 95); fill-opacity: 1; white-space: pre; opacity: 1;" transform="translate(264.02,0)">Oct 17</text></g><g class="xtick"><text text-anchor="middle" x="0" y="320" style="font-family: 'Open Sans', verdana, arial, sans-serif; font-size: 12px; fill: rgb(42, 63, 95); fill-opacity: 1; white-space: pre; opacity: 1;" transform="translate(336.89,0)">Oct 24</text></g><g class="xtick"><text text-anchor="middle" x="0" y="320" style="font-family: 'Open Sans', verdana, arial, sans-serif; font-size: 12px; fill: rgb(42, 63, 95); fill-opacity: 1; white-space: pre; opacity: 1;" transform="translate(409.75,0)">Oct 31</text></g><g class="xtick"><text text-anchor="middle" x="0" y="320" style="font-family: 'Open Sans', verdana, arial, sans-serif; font-size: 12px; fill: rgb(42, 63, 95); fill-opacity: 1; white-space: pre; opacity: 1;" transform="translate(482.62,0)">Nov 7</text></g><g class="xtick"><text text-anchor="middle" x="0" y="320" style="font-family: 'Open Sans', verdana, arial, sans-serif; font-size: 12px; fill: rgb(42, 63, 95); fill-opacity: 1; white-space: pre; opacity: 1;" transform="translate(555.49,0)">Nov 14</text></g><g class="xtick"><text text-anchor="middle" x="0" y="320" style="font-family: 'Open Sans', verdana, arial, sans-serif; font-size: 12px; fill: rgb(42, 63, 95); fill-opacity: 1; white-space: pre; opacity: 1;" transform="translate(628.36,0)">Nov 21</text></g></g><g class="yaxislayer-above"><g class="ytick"><text text-anchor="end" x="34" y="4.199999999999999" transform="translate(0,259.8)" style="font-family: 'Open Sans', verdana, arial, sans-serif; font-size: 12px; fill: rgb(42, 63, 95); fill-opacity: 1; white-space: pre; opacity: 1;">45k</text></g><g class="ytick"><text text-anchor="end" x="34" y="4.199999999999999" style="font-family: 'Open Sans', verdana, arial, sans-serif; font-size: 12px; fill: rgb(42, 63, 95); fill-opacity: 1; white-space: pre; opacity: 1;" transform="translate(0,211.24)">50k</text></g><g class="ytick"><text text-anchor="end" x="34" y="4.199999999999999" style="font-family: 'Open Sans', verdana, arial, sans-serif; font-size: 12px; fill: rgb(42, 63, 95); fill-opacity: 1; white-space: pre; opacity: 1;" transform="translate(0,162.67)">55k</text></g><g class="ytick"><text text-anchor="end" x="34" y="4.199999999999999" style="font-family: 'Open Sans', verdana, arial, sans-serif; font-size: 12px; fill: rgb(42, 63, 95); fill-opacity: 1; white-space: pre; opacity: 1;" transform="translate(0,114.1)">60k</text></g><g class="ytick"><text text-anchor="end" x="34" y="4.199999999999999" style="font-family: 'Open Sans', verdana, arial, sans-serif; font-size: 12px; fill: rgb(42, 63, 95); fill-opacity: 1; white-space: pre; opacity: 1;" transform="translate(0,65.53)">65k</text></g></g><g class="overaxes-above"/></g></g><g class="polarlayer"/><g class="smithlayer"/><g class="ternarylayer"/><g class="geolayer"/><g class="funnelarealayer"/><g class="pielayer"/><g class="iciclelayer"/><g class="treemaplayer"/><g class="sunburstlayer"/><g class="glimages"/><defs id="topdefs-3d084f"><g class="clips"/></defs><g class="layer-above"><g class="imagelayer"/><g class="shapelayer"/></g><g class="infolayer"><g class="g-gtitle"/><g class="g-xtitle"/><g class="g-ytitle"/></g></svg>