<svg class="main-svg" xmlns="http://www.w3.org/2000/svg" xmlns:xlink="http://www.w3.org/1999/xlink" width="700" height="350" style="" viewBox="0 0 700 350"><rect x="0" y="0" width="700" height="350" style="fill: rgb(33, 34, 38); fill-opacity: 1;"/><defs id="defs-a77ee3"><g class="clips"><clipPath id="clipa77ee3xyplot" class="plotclip"><rect width="640" height="274"/></clipPath><clipPath class="axesclip" id="clipa77ee3x"><rect x="30" y="0" width="640" height="350"/></clipPath><clipPath class="axesclip" id="clipa77ee3y"><rect x="0" y="46" width="700" height="274"/></clipPath><clipPath class="axesclip" id="clipa77ee3xy"><rect x="30" y="46" width="640" height="274"/></clipPath></g><g class="gradients"/><g class="patterns"/></defs><g class="bglayer"/><g class="layer-below"><g class="imagelayer"/><g class="shapelayer"/></g><g class="cartesianlayer"><g class="subplot xy"><g class="layer-subplot"><g class="shapelayer"/><g class="imagelayer"/></g><g class="minor-gridlayer"><g class="x"/><g class="y"/></g><g class="gridlayer"><g class="x"><path class="xgrid crisp" transform="translate(120.68,0)" d="M0,46v274" style="stroke: rgb(49, 52, 57); stroke-opacity: 1; stroke-width: 1px;"/><path class="xgrid crisp" transform="translate(211.86,0)" d="M0,46v274" style="stroke: rgb(49, 52, 57); stroke-opacity: 1; stroke-width: 1px;"/><path class="xgrid crisp" transform="translate(302.91,0)" d="M0,46v274" style="stroke: rgb(49, 52, 57); stroke-opacity: 1; stroke-width: 1px;"/><path class="xgrid crisp" transform="translate(394.09,0)" d="M0,46v274" style="stroke: rgb(49, 52, 57); stroke-opacity: 1; stroke-width: 1px;"/><path class="xgrid crisp" transform="translate(485.15,0)" d="M0,46v274" style="stroke: rgb(49, 52, 57); stroke-opacity: 1; stroke-width: 1px;"/><path class="xgrid crisp" transform="translate(576.33,0)" d="M0,46v274" style="stroke: rgb(49, 52, 57); stroke-opacity: 1; stroke-width: 1px;"/><path class="xgrid crisp" transform="translate(667.38,0)" d="M0,46v274" style="stroke: rgb(49, 52, 57); stroke-opacity: 1; stroke-width: 1px;"/></g><g class="y"><path class="ygrid crisp" transform="translate(0,241.74)" d="M30,0h640" style="stroke: rgb(49, 52, 57); stroke-opacity: 1; stroke-width: 1px;"/><path class="ygrid crisp" transform="translate(0,165.78)" d="M30,0h640" style="stroke: rgb(49, 52, 57); stroke-opacity: 1; stroke-width: 1px;"/><path class="ygrid crisp" transform="translate(0,89.82)" d="M30,0h640" style="stroke: rgb(49, 52, 57); stroke-opacity: 1; stroke-width: 1px;"/></g></g><g class="zerolinelayer"><path class="yzl zl crisp" transform="translate(0,317.7)" d="M30,0h640" style="stroke: rgb(49, 52, 57); stroke-opacity: 1; stroke-width: 2px;"/></g><path class="xlines-below"/><path class="ylines-below"/><g class="overlines-below"/><g class="xaxislayer-below"/><g class="yaxislayer-below"/><g class="overaxes-below"/><g class="plot" transform="translate(30,46)" clip-path="url(#clipa77ee3xyplot)"><g class="scatterlayer mlayer"><g class="trace scatter traceaff32bb7-1deb-4ef8-9c05-73862cfad7f0" style="stroke-miterlimit: 2; opacity: 1;"><g class="fills"/><g class="errorbars"/><g class="lines"><path class="js-line" d="M0,256.51L2.12,256.73L2.25,257.06L3.99,257.4L4.37,257.5L5.74,256.8L6.11,256.8L6.61,256.85L6.98,256.7L13.97,255.36L14.09,255.75L14.84,255.5L14.97,255.88L15.34,256.72L15.72,256.06L16.59,256.36L16.71,256.57L17.71,257.27L17.84,256.79L18.83,257.32L19.21,257.5L20.58,256.59L20.95,256.63L22.33,257.88L22.83,257.79L23.82,256.87L23.95,256.87L24.7,257.22L24.82,256.89L26.32,256.52L26.44,256.42L29.81,257.46L29.94,257.03L30.06,256.89L31.06,256.62L31.43,256.45L39.29,255.38L39.42,255.63L40.41,255.36L40.66,255.55L46.4,254.28L46.53,254.12L48.4,253.93L48.52,254.24L51.64,253.68L51.76,253.79L52.89,253.59L53.26,253.73L53.51,253.6L53.76,253.82L54.13,253.92L54.38,254.45L54.63,254.16L55.01,253.89L59.37,253.35L59.5,253.2L60.37,253.07L60.5,253.19L60.62,253.36L62.49,253.36L62.86,253.57L64.24,253.8L64.61,253.98L66.36,254.08L66.48,253.84L67.23,254.05L67.36,253.82L67.48,253.67L68.48,253.02L68.6,253.16L68.98,253.49L71.6,253.93L71.72,254.39L71.85,254.29L71.97,255.11L72.1,255.13L72.72,256.21L72.97,255.4L73.34,255.06L74.22,256.15L74.34,255.63L74.47,255.41L74.59,255.66L74.71,255.42L75.09,254.96L75.46,255.01L75.59,255.44L76.09,255.56L76.21,255.1L76.46,255.71L76.83,255.6L76.96,255.46L77.83,255.03L77.96,255.53L78.08,256.05L78.58,255.58L78.71,255.4L79.45,256.45L79.58,256.12L79.7,255.83L80.83,254.7L81.2,255.03L82.07,254.3L82.2,254.64L82.57,253.87L82.95,254.3L83.07,254.78L83.94,253.97L84.07,254.62L84.82,254.22L84.94,254.49L85.07,254.77L86.44,255.1L86.56,255.05L87.44,254.19L87.56,254.12L88.44,254.82L88.56,254.76L88.68,254.73L89.06,254.91L89.31,254.37L89.43,254.22L90.31,254.1L90.43,254.19L93.42,253.33L93.55,253.35L94.55,253.21L94.67,253.18L95.54,252.81L95.67,252.95L98.66,252.62L98.79,252.89L100.53,252.01L100.66,252.05L101.53,252.01L101.66,252.04L102.53,252.11L103.03,252.33L103.15,252.65L103.53,252.48L103.9,252.49L104.4,252.36L104.77,252.53L106.02,252.18L106.15,252.5L107.64,253.08L107.77,253.36L108.52,253.16L108.64,253.12L109.51,253.27L109.64,253.74L111.26,252.99L111.39,252.8L116.13,252.67L116.25,252.83L117.25,252.31L117.37,252.45L118.25,251.89L118.37,251.86L122.49,251.36L122.61,251.05L123.61,251.04L123.98,251.07L124.86,251.25L124.98,251.23L125.98,251.4L126.1,251.39L127.48,251.39L127.6,251.67L130.22,252.18L130.34,252.45L134.96,251.33L135.33,251.39L136.21,251.38L136.46,250.86L142.82,250.03L143.19,250.44L144.94,249.44L145.06,249.49L146.31,249.4L146.68,249.5L147.68,249.23L147.81,249.46L148.93,248.95L149.3,249.47L149.43,249.15L149.8,249.42L150.18,249.32L151.18,248.82L151.3,249.02L152.42,248.29L152.8,248.27L153.79,247.75L153.92,247.92L156.79,248.32L157.16,248.14L157.29,247.95L157.54,248.86L157.66,248.79L158.53,248.59L158.91,248.46L160.03,247.91L160.16,247.58L164.4,247.39L164.52,247.73L166.39,248.13L166.89,248.02L168.14,247.31L168.51,247.17L169.39,247.1L169.51,247.16L172.13,247.14L172.25,246.79L173.38,246.23L173.75,246.19L174.87,246.06L175,246.38L176,245.64L176.37,245.73L177.37,245.55L177.49,245.48L180.36,245.28L180.74,245.14L182.11,245.08L182.48,245.16L183.61,244.83L183.73,244.86L186.22,246.21L186.35,245.87L187.35,244.92L187.85,244.89L188.59,244.79L188.72,244.8L190.59,244.44L190.72,244.75L193.33,244.13L193.46,244.45L194.71,244.96L194.83,244.77L194.96,244.49L199.07,244.11L199.2,244.29L200.32,243.58L200.44,243.54L208.05,242.77L208.18,243.34L209.05,243.64L209.18,243.32L209.55,243.24L212.29,242.24L212.42,242.25L214.41,242.08L214.79,242.31L216.04,243.02L216.16,242.7L216.91,243.26L217.03,243.58L217.78,244.21L217.91,243.89L218.28,243.62L219.28,242.42L219.4,242.47L220.53,241.7L220.9,241.6L224.77,241.57L224.89,242.06L225.39,242.5L225.52,241.92L225.64,241.19L227.01,240.73L227.14,240.9L228.01,242.05L228.13,241.68L228.26,241.15L229.13,242.17L229.26,241.78L229.76,241.72L230.5,241.22L230.63,241.62L231,242.11L231.38,241.74L231.5,241.31L232.25,241.34L232.38,241.01L233.62,240.36L234,240.36L235,240.38L235.12,240.51L235.99,241.36L236.24,241.16L236.62,240.75L236.99,240.62L237.12,240.34L237.49,240.4L238.61,241.04L238.74,240.93L241.98,240.19L242.1,240.32L242.98,240.69L243.1,240.57L243.98,240.07L244.1,240.04L246.47,240.12L246.6,240.38L248.09,240.37L248.22,240.31L248.97,239.94L249.09,240.18L250.59,240.74L250.71,240.55L250.84,241.07L251.09,240.63L251.46,240.28L252.58,240.05L252.71,240.22L253.21,240.73L253.46,240.13L253.58,240.13L256.07,240.5L256.2,241.15L256.82,243.65L256.95,242.58L257.07,241.86L258.07,242.86L258.57,242.13L259.32,242.35L259.44,241.98L259.57,241.72L259.82,242.28L260.19,242.12L260.32,242.51L261.19,243.38L261.44,242.78L261.56,242.34L262.81,241.36L262.94,241.55L263.06,241.7L264.06,240.8L264.18,240.46L265.43,240.03L265.55,239.94L267.3,240.77L267.43,240.28L269.05,239.98L269.17,240.31L269.3,240.75L269.42,240.14L270.04,240.79L270.17,240.71L270.29,241.31L270.79,240.83L270.92,240.38L271.17,241.41L271.67,240.88L271.79,240.5L272.79,240.83L273.29,241.26L275.28,243.59L275.41,243.43L276.03,242.9L276.16,243.21L276.28,243.06L276.78,242.37L277.03,242.73L277.15,242.68L278.03,244.01L278.15,243.44L279.9,242.16L280.27,242.39L281.15,241.32L281.27,241.66L282.89,240.55L283.02,240.56L283.77,240.76L283.89,240.48L284.64,240.31L284.76,240.62L285.76,240.04L285.89,240.04L287.63,240.12L287.76,240.29L288.63,240.39L289,240.36L289.13,239.97L289.5,240.53L289.88,240.22L290.75,240.46L290.88,240.06L291.87,239.69L292,239.6L293.87,240.1L294.24,239.9L294.62,239.44L294.74,240.6L295.12,241.16L295.24,240.61L295.37,240.08L296.24,239.62L296.36,239.64L297.24,238.63L297.36,238.68L297.74,238.59L299.48,238.51L299.61,238.72L301.23,238.18L301.35,238.35L302.97,238.29L303.1,238.34L303.97,238.19L304.1,238.19L304.97,239.09L305.09,238.76L305.72,238.88L305.84,238.51L305.97,238.3L306.84,238.69L306.97,238.44L311.33,239.63L311.71,238.92L313.08,238.1L313.45,237.85L317.94,236.7L318.07,236.99L319.06,236.68L319.19,236.55L321.43,236.49L321.56,236.19L323.31,236.24L323.43,236.03L325.18,235.13L325.3,235.08L328.29,234.92L328.42,235.39L331.16,235.34L331.29,235.58L334.41,234.47L334.53,234.5L336.28,234.41L336.4,234.32L337.52,233.77L337.9,233.79L338.77,233.89L338.9,233.71L340.64,234.02L340.77,233.69L341.39,233.89L341.64,233.8L341.77,234.15L342.39,233.89L342.51,233.61L344.01,233.17L344.14,233.07L348.5,233.47L348.63,233.29L349.5,233.15L349.62,233.16L351.49,232.57L351.87,232.65L354.49,231.65L354.61,231.62L359.98,230.48L360.1,230.12L360.97,230.27L361.1,230.04L361.47,229.92L363.59,229.46L363.72,229.62L367.09,227.03L367.21,226.51L367.96,227.3L368.08,228.26L368.83,231.07L368.96,230.46L369.33,229.86L370.33,228.9L370.45,229.12L371.08,227.88L371.2,228.42L371.33,228.86L371.45,229.49L371.95,228.78L372.08,228.67L372.82,227.78L372.95,228.06L373.07,228.29L373.95,228.88L374.07,229.95L374.2,230.84L374.57,229.73L374.82,230.56L374.94,230.04L375.44,230.94L375.69,229.97L375.82,229.64L375.94,230.58L376.57,229.94L376.69,229.6L377.19,229.38L377.31,228.92L378.94,229.82L379.06,229.75L379.31,230.12L379.43,229.58L379.81,229.44L380.93,228.6L381.06,228.63L382.55,229.11L382.68,228.54L382.8,228.8L383.3,228.18L383.43,228.15L384.3,227.54L384.42,227.68L385.3,227.81L385.42,228.09L386.05,228.51L386.17,228.86L387.79,227.35L387.92,227.67L388.79,227L388.91,227.17L391.16,226.43L391.28,226.28L392.53,226.37L392.91,226.27L394.28,225.53L394.78,225.61L395.77,225.72L395.9,225.45L396.65,225.39L396.77,225.01L399.14,225.79L399.27,227.24L399.39,228.22L399.89,227.86L400.02,226.9L401.64,229.55L401.76,228.92L402.76,226.81L402.88,226.89L403.01,227.33L404.76,229.64L405.13,228.97L406,227.08L406.13,228.53L406.38,228.59L406.5,229.59L407.25,229.31L407.37,230.09L408.62,234.04L408.87,232.14L409.74,231.5L409.87,232.46L410.74,230.1L410.87,230.09L411.24,230.34L411.49,229.76L411.62,229.45L411.74,228.88L412.36,229.37L412.49,229.35L413.49,228.3L413.86,228L414.11,227.87L414.24,228.29L414.36,228.24L414.73,228.21L415.73,227.05L415.86,226.96L416.6,226.82L416.73,226.84L417.48,226.86L417.6,227.14L417.85,227.6L418.23,226.96L418.35,226.79L419.47,225.75L419.6,226.63L420.47,226.11L420.85,225.57L424.46,224.25L424.59,224.6L424.71,224.71L424.84,224.25L425.34,225.23L425.46,225.29L426.08,226.37L426.33,225.69L426.46,225.27L427.33,226.16L427.46,226.06L427.96,226.49L428.7,227.39L428.83,226.42L429.95,224.96L430.08,225.01L430.7,224.4L430.82,223.95L431.82,224.18L432.2,223.75L433.57,222.94L433.94,222.92L434.82,223.39L434.94,223.04L435.69,222.81L435.81,222.93L435.94,223.46L436.56,225.67L436.81,225L436.94,224.08L437.68,225.66L437.93,224.85L438.31,224.29L438.81,225.5L439.31,225.18L439.43,224.85L440.43,223.4L440.55,223.36L443.05,223.31L443.17,223.57L443.55,223.35L443.67,223.92L443.8,224.77L444.05,223.74L444.67,224.24L444.79,223.92L445.67,222.94L445.79,223.15L448.91,221.36L449.04,221.34L449.78,220.88L449.91,221.07L450.03,221.15L451.03,220.49L451.41,220.92L451.53,221.27L451.9,220.4L452.28,220.56L453.53,219.42L453.65,219.19L456.89,217.97L457.02,217.52L457.89,217.39L458.02,217.87L458.89,219.02L459.26,218.63L460.26,216.81L460.39,216.45L461.38,216.53L461.51,217.1L462.38,223.19L462.76,221.09L463.01,220.48L464,231.08L464.13,227.6L465.38,234.98L465.5,231.65L466.25,228.61L466.37,229.25L466.5,231.16L467.5,225.88L467.99,226.3L468.49,224.49L468.87,225.32L468.99,226.73L469.37,225.1L469.74,224.42L469.99,223.41L470.61,225L470.74,224.57L470.86,224.89L471.11,223.54L471.49,223.53L471.74,225.32L471.99,224.55L472.36,223.12L472.48,223.61L472.61,222.8L472.86,223.04L473.36,222.44L474.36,220.29L474.48,220.42L474.98,218.47L475.23,219.16L475.35,222.19L475.98,220.16L476.35,220.65L476.73,220.32L476.85,220.08L476.98,221.4L477.1,220.86L477.22,222.07L478.97,219.17L479.35,219.62L480.34,217.94L480.47,217.63L481.22,218.57L481.34,217.92L481.47,218.11L481.59,217.69L481.96,217.31L483.34,215.98L483.71,215.8L484.96,214.08L485.08,213.71L485.46,213.92L485.58,213.37L485.71,212.53L486.45,216.58L486.58,215.49L486.7,216.47L487.33,215.43L487.58,216.15L487.7,216.79L488.33,218.12L488.45,217.97L488.58,217.1L489.82,215.27L489.95,216.08L490.7,213.17L490.95,213.92L491.07,213.99L492.57,215.53L492.69,217.45L494.44,212.46L494.56,213.04L495.06,211.48L495.44,212.28L495.56,212.69L497.81,210.22L497.93,210.77L498.55,211.14L498.68,210.32L499.43,210.35L499.55,210.45L500.67,209.34L501.17,210.19L501.67,208.11L502.3,208.36L502.42,208.58L502.55,209.04L503.04,208.55L503.17,207.67L503.92,207.69L504.04,209.25L504.29,209.98L505.16,207.04L505.54,206.57L507.41,207.07L507.53,206.36L507.78,208.26L508.41,208.08L508.53,208.87L509.53,205.98L509.9,205.58L510.28,206.41L510.4,206.53L512.9,203.34L513.02,202.84L513.77,202.11L513.9,201.88L514.64,202.71L514.77,201.97L516.02,201.72L516.14,202.15L516.52,201.07L516.89,201.77L517.01,202.39L517.14,203.86L517.39,201.99L517.76,202.17L518.01,202.95L518.26,202.27L518.64,201.56L519.01,201.54L519.13,201.41L519.63,201.48L521.38,200.67L521.5,201.07L521.75,202.04L522.13,201.05L522.25,200.67L522.38,200.75L522.63,200.08L523,199.94L523.38,199.44L523.5,198.89L524.25,199.36L524.37,198.59L525,198.46L525.12,198.71L525.25,199.29L525.62,200.36L525.75,199.33L525.87,198.75L526.87,197.72L526.99,198.08L527.62,198L527.74,197.54L529.11,196.66L529.24,197.15L529.36,197.97L531.86,195.91L531.98,196L532.73,197.13L532.86,196.51L532.98,196.63L533.6,198.67L533.73,197.96L533.85,197.06L534.35,197.15L534.48,198.65L534.73,199.43L534.85,198.57L535.23,199.51L535.6,197.82L536.1,198.49L536.22,198.67L538.34,194.35L538.72,194.22L539.59,192.72L539.72,192.99L539.84,193.62L540.84,192.59L540.96,192.73L541.34,192.95L541.59,192.64L541.84,194.4L542.21,193.45L542.33,194.98L542.46,195.83L543.33,192.62L543.46,193.16L543.58,192.42L544.83,194.8L544.95,193.44L545.95,191L546.08,191.22L546.2,191.43L546.7,190.99L546.83,192.54L547.45,193.02L547.57,192.31L547.7,192.09L547.82,193.19L547.95,193.16L549.57,198.82L549.69,197.01L550.32,194.4L550.57,195.87L550.94,196.11L551.19,194.37L551.32,195.76L551.44,197.26L551.81,197.5L551.94,196.31L552.94,200.39L553.06,199.31L553.19,197.72L553.56,197.91L553.69,199.03L553.81,197.69L554.06,198.66L554.43,200.81L554.56,201.35L554.68,199.46L554.93,200.7L555.31,201.22L556.3,195.48L556.43,196.46L556.55,195.33L557.18,193.45L557.3,193.93L557.43,195.13L557.93,194.26L558.05,195.24L558.18,196L558.3,195.62L558.43,195.82L558.8,197.12L559.05,196.54L559.67,197.45L559.8,196.25L560.67,201.16L560.8,200.96L560.92,199.17L561.04,201.85L561.54,201.11L561.67,198.96L562.67,205.18L562.79,203.59L563.17,203.87L563.29,202.48L563.54,205.67L564.04,204.41L564.16,204.92L564.54,201.3L565.04,201.69L565.16,202.26L565.29,200.94L565.91,201.22L566.03,201.98L567.03,209.54L567.16,209.41L567.66,207.84L567.78,207.95L567.9,207.33L568.03,205.28L568.4,205.54L568.53,206.89L568.78,207.47L568.9,206.79L569.4,206.66L569.78,205.52L570.15,206.28L570.52,207.35L570.65,206.13L571.02,206.67L571.4,203.8L571.9,204.35L572.02,205.14L573.02,201.13L573.14,201.18L573.77,201.66L573.89,200.19L574.64,198.54L574.89,198.84L575.01,199.82L576.76,204.91L577.26,205.17L578.01,201.73L578.13,204.77L578.26,204.51L578.38,205.28L578.51,205.78L578.88,205.27L579.01,206.03L579.13,207.18L580.25,210.63L580.63,209.02L580.75,207.08L581.13,209.68L581.5,210.15L581.75,210.74L581.87,209.13L582,210.56L582.37,208.99L582.75,209.23L583.37,205.89L583.5,206.39L583.62,206.74L583.75,205.19L584.24,205.96L584.37,207.61L584.49,208.27L584.62,207.36L584.99,206.74L585.12,206.39L585.24,207.74L585.37,204.22L585.99,203.57L586.12,204.09L586.24,204.3L587.24,202.92L587.61,204.01L587.74,204.13L587.86,202L588.11,202.13L588.49,203.38L588.98,204.46L589.36,203.49L589.48,202.98L589.73,205.09L589.86,205.87L590.23,206.43L590.36,206.34L590.48,205.36L591.35,207.01L591.48,205.84L592.35,206.54L592.48,205.05L592.98,204.62L593.1,203.77L593.85,203.38L593.97,204.46L594.1,204.95L594.22,203.71L594.6,202.89L594.85,202.94L594.97,202.18L595.1,202.02L595.47,202.9L595.84,200.12L596.47,200.39L596.59,201.17L596.72,201.78L597.22,200.8L597.34,200.83L597.47,200.6L597.59,201.58L597.72,201.75L599.21,203.9L599.34,203.38L599.84,202.23L600.09,203.19L600.21,204.45L600.71,205.51L600.96,204.84L601.08,203.67L601.21,204.46L601.71,202.93L601.83,204.1L601.96,203.91L603.33,200.85L603.45,201.24L603.58,201.43L604.33,201.06L604.45,201.35L605.32,200.3L605.45,200.69L605.95,200.56L606.07,201.69L606.2,201.99L606.32,200.6L606.45,199.99L606.82,200.06L606.95,200.87L607.2,201.85L607.32,200.56L607.69,200.54L608.19,200.74L608.57,200.49L608.69,200.97L608.94,199.42L609.07,199.53L609.44,199.5L609.69,200.83L609.94,199.29L610.44,199.26L610.56,199.66L610.81,197.92L611.19,198.07L612.31,196.33L612.43,195.39L613.81,197.04L613.93,196.22L614.93,195.02L615.05,195.62L615.55,195.62L615.68,195.13L616.68,192.93L616.8,193.45L618.17,192.48L618.3,192.71L618.42,193.81L619.54,194.58L619.92,194.16L620.29,196.2L620.79,195.67L620.92,195.88L621.17,196.1L621.91,193.65L622.04,193.77L622.66,193.96L622.79,194.48L623.41,194.1L623.54,194.52L623.66,194.43L623.78,193.77L623.91,194.71L624.28,194.66L624.41,194.82L625.28,197.74L625.41,197.71L625.53,197.28L626.15,198.49L626.4,197.98L626.53,197.11L627.9,195.98L628.03,196.99L629.15,200.38L629.52,199.53L630.65,195.77L630.77,196.36L631.77,193.42L632.14,192.81L633.02,192.78L633.14,192.7L634.01,192.41L634.14,192.73L635.14,189.73L635.26,189.87L635.63,189.41L635.76,188.91L635.88,190.05L636.13,189.11L636.63,188.77L636.88,188.58L637.01,188.82L637.51,189.29L637.75,190.22L637.88,190.11L638.25,188.95L638.5,188.61L639.38,189.35L639.5,188.62L640,187.41" style="vector-effect: none; fill: none; stroke: rgb(127, 127, 127); stroke-opacity: 1; stroke-width: 2px; opacity: 1;"/></g><g class="points"/><g class="text"/></g><g class="trace scatter trace6b09e0fb-9a56-42e3-99f6-18ec7e5b8185" style="stroke-miterlimit: 2;"><g class="fills"><g><path class="js-fill" d="M0,256.51L96.29,256.14L96.42,255.5L102.16,254.98L102.28,255.16L103.28,255.98L103.4,255.66L104.28,255.64L104.4,254.91L109.64,256.51L110.01,256.51L112.26,255.7L112.63,256.13L113.88,255.7L114.01,255.96L114.38,256.06L115.25,256.36L115.38,256.24L115.5,255.83L115.63,255.71L115.75,256L116.13,256.44L117.5,256.19L117.87,256.09L119.24,255.49L119.62,255.57L121.61,255.76L121.74,255.25L122.49,255.55L122.61,255.47L122.74,255.33L124.36,255.88L124.48,256.09L127.73,256.51L127.85,256.51L148.56,255.91L148.68,255.55L149.3,256.4L149.55,256.32L149.68,256.34L150.55,254.66L150.68,254.74L151.05,254.31L151.92,253.7L152.05,253.93L152.17,254.1L152.8,254.08L152.92,253.69L153.67,252.86L153.92,253.11L154.04,253.36L155.92,252.54L156.29,252.65L156.79,253.22L157.16,252.9L157.29,252.91L158.16,253.62L158.28,253.25L158.91,253.25L159.03,253.47L159.16,253.43L161.03,252.67L161.15,254.84L162.03,254.72L162.4,254.76L163.27,254.67L163.4,254.74L164.15,254.05L164.27,254.27L164.4,254.2L165.02,254.72L165.27,254.6L165.39,254.18L165.52,252.9L166.14,253.84L166.27,253.55L167.27,254.85L167.64,254.58L167.76,254.18L168.89,253.5L169.01,253.96L170.38,253.54L170.51,253.35L171.63,253.24L172.01,253.07L173,253L173.13,253.44L174,252.48L174.13,252.55L174.75,251.88L174.87,251.05L175.62,251.49L175.75,251.06L176.87,251.23L177.24,251.19L177.37,251.35L177.74,250.92L178.12,250.75L178.99,250.6L179.12,250.93L180.24,251.94L180.36,251.64L182.98,252.06L183.36,252.64L183.73,251.6L183.85,251.87L184.35,251.99L185.1,252.06L185.23,251.93L185.35,251.72L185.6,251.08L185.98,251.82L186.22,252.18L186.47,251.78L186.85,251.64L188.1,250.97L188.22,250.85L189.47,250.96L189.59,250.61L190.72,250.9L190.84,251L191.46,250.14L191.59,249.56L192.46,250.09L192.59,249.57L192.96,249.19L193.21,249L193.46,249.81L193.83,249.85L194.08,249.48L194.33,250.17L194.71,250.19L194.96,249.52L195.58,249.77L195.7,249.74L196.08,249.79L196.45,249.26L197.45,250.25L197.7,249.94L197.82,249.99L199.07,249.72L199.2,249.76L200.07,249.48L200.19,249.58L201.32,248.76L201.69,248.88L202.56,248.75L202.69,248.65L203.81,248.63L203.94,248.34L205.43,248.66L205.56,248.65L207.18,246.89L207.3,247.15L209.55,247.81L209.67,247.64L210.92,246.58L211.3,246.57L212.54,246.52L212.67,246.16L214.04,245.68L214.16,245.82L215.04,245.51L215.16,246.08L215.79,245.91L215.91,246.16L216.04,246.24L216.78,245.67L216.91,246.19L217.03,247.2L217.78,247.92L217.91,247.42L218.28,247.17L219.4,245.76L219.53,246.08L220.53,244.62L220.9,244.5L223.15,244.93L223.52,244.48L225.39,246.42L225.52,246.09L225.64,245.09L226.64,244.89L227.01,245.13L228.01,246.14L228.13,245.82L228.26,245.05L229.13,246.24L229.26,245.81L229.76,245.73L229.88,245.99L230.01,245.31L230.13,245.28L230.5,245.38L231,249.08L231.38,248.59L231.5,248.41L233.37,247.15L233.5,247.17L234.37,246.86L234.5,246.97L235.24,247.39L235.37,247.81L235.74,247.54L235.99,248.03L236.12,248.57L237.61,247.51L237.74,248.32L238.74,248.98L239.24,248.27L240.61,248.23L240.98,247.5L241.11,247.66L241.36,247.26L241.48,244.71L242.73,244.5L242.85,244.86L242.98,245.6L243.23,244.78L243.6,244.99L243.73,245L243.98,244.23L244.47,244.63L244.6,244.7L248.22,245.61L248.34,245.18L249.34,246.01L249.71,246.52L250.84,246.59L250.96,246.43L252.46,244.87L252.58,245.85L253.58,245.09L253.7,245.2L254.95,244.84L255.08,245.36L255.95,244.7L256.07,245.07L256.2,245.62L256.82,248.58L256.95,247.3L257.07,246.62L257.57,246.84L257.7,247.81L258.57,246.63L258.69,247.09L260.19,246.5L260.32,246.62L261.44,246.22L261.56,245.67L262.81,244.85L262.94,244.91L263.06,245.03L263.31,244.56L263.68,244.5L264.06,244.26L264.18,241.5L264.56,240.71L264.93,241.22L265.06,241.63L265.93,240.33L266.3,240.76L266.43,241.13L267.3,241.24L267.43,240.73L269.17,239.95L269.3,240.53L269.42,239.54L270.04,240.08L270.17,239.91L270.29,240.61L270.79,239.95L270.92,239.42L271.17,240.57L271.54,240.17L271.67,239.87L272.54,239.18L272.66,239.31L272.79,239.79L273.54,240.61L273.66,241.7L274.54,241.15L274.66,242.37L275.41,242.67L275.53,241.63L276.16,242.24L276.28,241.76L276.41,240.02L276.78,240.23L276.91,241.22L277.78,243.36L278.03,243.12L278.15,242.66L279.4,241.2L279.52,242.05L279.77,241.52L279.9,241.98L280.27,242.23L280.52,241.03L280.77,241.56L281.15,242.14L282.39,240.04L282.52,240.72L284.14,239.71L284.26,239.51L285.89,239.63L286.01,239.46L286.51,239.04L286.76,239.39L286.88,241.71L287.26,241.51L287.51,242.19L287.63,242.79L288.63,242.51L289,242.7L289.88,241.68L290,242.24L290.38,242.17L290.75,242.52L291.75,240.78L291.87,240.87L293.62,242.72L293.74,242.31L294.24,242.49L294.37,241.84L294.49,241.96L294.62,241.42L294.74,242.63L295.12,243.45L295.37,242.22L295.49,241.85L296.49,241.19L296.86,241.02L297.74,240.22L297.86,240.73L298.73,238.59L298.86,238.92L300.73,237.69L300.85,237.9L303.47,237.85L303.97,237.89L304.97,238.68L305.09,238.13L306.47,238.3L306.59,237.69L307.46,238.1L307.59,237.87L307.71,237.81L308.71,238L309.09,238.12L310.08,235.9L310.46,236.56L310.83,236.53L311.33,237.24L311.71,236.24L312.58,237.59L312.7,236.91L312.83,236.45L313.58,235.58L313.7,236.01L314.45,235.6L314.57,236.09L314.7,236.72L317.32,234.15L317.44,234.33L321.43,234.17L321.56,234.07L321.81,232.83L322.31,233.5L322.43,234.13L323.31,234.27L323.43,233.85L325.3,233.28L325.68,233.52L325.92,233.09L326.55,233.49L326.67,233.42L327.42,233.23L327.55,233.41L328.29,233.1L328.42,233.53L329.29,232.89L329.42,232.78L330.42,232.62L330.54,232.65L332.16,232.76L332.29,232.23L333.66,230.5L333.91,230.79L334.03,230.68L335.28,231.02L335.4,230.2L335.53,231.35L336.15,230.77L336.28,230.64L338.02,228.34L338.15,228.42L339.15,229.91L339.27,229.85L339.65,229.33L339.77,229.9L340.14,229.12L340.52,229.53L341.39,230.94L341.64,230.4L341.77,230.7L341.89,230.17L342.26,229.86L343.51,227.32L343.64,227.58L344.01,227.7L344.14,227.34L344.51,228.03L344.88,228.23L346.13,229L346.26,228.35L346.63,227.7L346.88,227.43L347,228.18L347.13,228.13L347.5,228.33L347.63,227.73L348,227.93L348.38,227.92L348.75,226.76L348.88,227.26L349.37,227.45L349.5,227.58L349.62,227.02L349.75,227.23L350.12,226.76L351.12,226.35L351.25,226.66L351.99,227.67L352.12,227.31L352.24,227.3L353.24,226.02L353.62,225.84L354.86,224.87L354.99,224.33L355.74,224.36L355.86,221.32L358.11,221.18L358.23,221.57L358.48,221.92L359.85,220.42L359.98,221.36L360.23,220.8L360.6,222.72L361.97,219.23L362.35,219.52L362.47,219.85L363.34,220.11L363.47,219.92L364.34,219.54L364.47,219.08L365.46,217.57L365.96,218.33L366.84,216.18L366.96,216.23L367.09,215.92L367.83,214.31L367.96,214.76L368.08,216.26L368.83,220.35L368.96,218.43L369.33,217.86L370.33,215.43L370.45,216.17L370.58,216.03L370.7,214.61L371.08,213.79L371.33,214.79L371.45,215.35L372.33,214.39L372.45,213.11L372.82,212.97L372.95,214.4L374.07,217.2L374.2,218.79L374.57,214.78L374.94,216.31L375.44,217.97L375.82,215.63L375.94,216.94L376.32,216.61L377.31,213.39L377.44,213.17L378.31,215.67L378.44,214.49L378.56,213.54L379.19,214.95L379.43,213.94L379.81,213.3L379.93,213.55L380.06,212.86L380.18,212.28L381.18,212.96L381.56,212.21L381.8,211.56L382.05,211.74L382.55,211.96L383.55,209.23L383.8,209.75L384.17,210.1L384.55,209.88L384.67,210.67L385.3,209.6L385.42,210.05L385.55,210.49L386.17,212.24L386.42,211.59L386.79,210.74L386.92,211.32L387.29,210.04L387.67,209.62L388.04,208.19L388.17,207.43L388.91,208.06L389.04,206.92L389.66,204.14L389.79,204.88L389.91,206.06L390.29,207.47L390.66,206.13L390.79,205.84L391.28,205.33L391.41,204.96L391.53,204.85L391.66,205.26L392.03,205.74L392.16,204.92L392.53,205.87L392.91,206.31L393.03,206.85L393.4,205.37L393.78,204.64L394.28,202.97L394.78,203.34L395.15,205.49L395.53,204.77L395.65,203.63L396.52,202.43L396.65,203.35L397.27,201.53L397.52,201.96L397.65,201.69L398.14,200.96L398.39,201.23L398.52,202.68L399.02,203.87L399.14,203.01L399.27,206.74L399.39,206.89L399.52,204.65L399.89,205.86L400.02,203.78L400.14,203.96L401.01,209.09L401.14,205.43L401.76,208.23L402.01,206.89L402.14,206.74L402.63,205.79L402.76,203.19L402.88,203.32L403.01,204.65L404.38,209.19L404.51,208.33L404.76,208.36L406,202.82L406.13,205.01L406.38,204.6L406.5,207.28L407.25,204.44L407.37,206.54L407.75,208.47L407.87,207.81L408.12,209.32L408.25,211.33L408.62,213.85L408.87,209.9L409.12,210.01L409.5,209.28L409.74,209.56L409.87,211.84L410.62,207.62L410.74,208.03L410.87,208.52L411.24,208.99L411.37,207.17L411.74,205.51L412.24,206.75L412.61,205.84L412.99,207.12L413.24,206.32L413.49,208.54L413.86,206.72L413.99,205.81L414.24,207.01L414.36,206.76L414.73,207.02L415.23,205.19L415.73,205.22L415.86,205.57L415.98,204.18L416.11,203.21L417.35,202.42L417.48,202.76L417.73,203.57L417.85,203.5L418.23,202.06L419.47,197.5L419.6,199.46L419.97,199.08L420.22,199.63L421.72,197.68L421.84,198.08L422.97,195.56L423.47,195.32L424.46,191.1L424.59,192.78L424.84,192.15L425.46,194.24L425.59,194.25L426.08,195.57L426.46,191.83L426.58,192.37L427.46,193.5L427.96,193.55L428.7,197.46L428.83,195.41L428.95,193.75L429.58,189.56L429.95,189.73L430.08,189.65L430.45,189.41L430.57,187.98L431.32,186.35L431.45,189.05L432.45,186.55L433.07,186.86L433.19,187.17L433.94,185.66L434.07,186.79L434.19,187.29L434.44,187.07L434.82,185.95L435.31,184.15L435.69,184.34L435.81,184.76L436.56,189.8L436.69,188.27L436.81,187.9L436.94,185.66L437.56,185.84L437.68,188.43L437.81,188.62L437.93,187.09L438.56,185.44L438.68,186.07L438.81,188.8L439.56,185.86L439.68,186.02L440.18,187.15L440.43,184.66L440.93,186.23L441.05,187.12L442.18,184.02L442.3,185.04L442.67,185.22L442.8,186.32L443.05,184.97L443.17,186.1L443.55,185.29L443.8,188.01L444.05,185.86L444.42,186.48L444.54,187.38L444.92,184.89L445.29,184.97L445.42,183.71L445.79,186.3L446.17,185.66L446.29,186.94L446.67,184.23L447.04,182.08L447.16,182.93L447.29,181.82L447.54,182.38L447.91,181.86L448.16,182.16L448.29,182.04L448.41,180.98L449.04,180.15L449.16,179.68L449.78,178.23L450.03,178.48L450.16,178.41L450.78,176.71L451.03,177.3L451.41,178.44L451.53,178.59L451.78,178.2L451.9,177.06L452.4,177.45L452.53,177.1L452.65,176.14L453.65,173.54L454.02,173.54L454.52,172.57L454.9,173.42L455.02,173.35L455.27,171.53L455.77,172.52L455.9,173.43L457.02,168.07L457.14,167.49L457.77,168.37L457.89,167.73L458.02,168.78L458.39,170.5L458.51,168.51L458.64,166.91L459.76,157.02L460.14,154.02L460.51,157.13L460.64,156.11L461.13,154.94L461.26,154.59L461.38,156.38L461.51,160.02L462.26,172.79L462.38,170.39L462.76,163.65L463.63,177.51L463.75,171.07L464.5,187.02L464.63,180.05L465.38,186.67L465.5,178.94L465.62,179.83L465.75,174.08L465.87,178.09L466.25,171.5L466.5,176.58L466.62,174.61L466.75,175.51L467.12,168.35L467.25,169.46L467.5,168.43L467.99,168.2L468.49,160.02L468.87,162.23L468.99,166.76L469.37,162.55L469.74,162.86L469.87,165.51L470.74,158.67L470.86,157.55L471.49,154.93L471.61,157.57L471.74,159.3L471.99,157.16L472.36,156.07L472.61,155.28L473.36,157.84L473.48,157.69L473.61,157.95L473.73,156.79L474.11,157.05L475.23,148.27L475.35,154.9L476.85,145.09L477.1,146.07L477.22,148.59L477.6,147.26L477.72,144.09L478.85,137.31L478.97,137.71L479.35,141.85L479.47,141.05L479.72,143.83L479.84,144.48L480.47,138.92L480.59,144.69L480.72,145.47L481.09,143.87L481.22,145.02L481.34,143.74L481.47,143.84L481.59,143.14L481.96,135.91L482.96,144.17L483.09,140.52L483.21,140.83L483.34,140.71L483.71,139.84L483.96,139.89L484.83,132.69L484.96,129.28L485.46,129.94L485.71,126.09L485.83,135.11L486.45,144.31L486.83,143.45L487.2,142.58L487.33,140.46L487.7,145.74L488.08,144.39L488.33,145.61L488.95,140.05L489.07,141.42L489.32,138.15L489.45,142.09L489.82,139.46L489.95,142.27L490.82,131.61L491.07,133.63L491.19,133.63L492.44,139.65L492.57,137.65L493.32,144.52L493.44,141.94L493.81,131.07L494.19,134.42L494.31,139.06L495.06,135.15L495.19,136.89L495.93,139.28L496.06,136.92L496.93,135.44L497.06,135.97L497.18,136.68L497.68,136.65L497.81,135.56L498.05,139.02L498.55,136.7L498.68,136.75L499.55,130.57L499.68,132.41L500.3,129.92L500.42,130.43L500.55,131.99L500.67,131.52L501.17,134.51L501.3,134.37L501.42,137.93L501.67,133.29L502.17,136.24L502.3,135.36L502.55,137.68L503.04,135.29L503.17,130.31L503.79,127.04L503.92,125.28L504.04,124.92L504.17,121.12L504.29,125.51L504.67,120.67L504.79,120.75L504.92,118.55L505.04,119.18L505.54,118.89L505.66,118.07L505.79,118.67L506.04,117.3L506.54,118.11L506.66,117.44L506.91,119.48L507.29,123.56L507.66,127.05L507.78,124.91L508.16,122.03L508.53,128.48L509.03,128.06L509.16,124.03L509.28,124.88L509.41,121.91L509.53,122.78L509.9,123.38L510.03,121.54L510.4,126.19L510.78,122.63L510.9,121.63L511.15,124.94L511.28,122.32L511.65,123.1L511.78,125.24L512.02,118.61L512.52,114.37L512.65,115.13L512.77,113.84L512.9,111.73L513.9,107L514.27,108.26L514.52,107.1L514.64,109.25L514.77,106.74L515.27,106.22L515.39,110.9L516.27,116.01L516.39,113.95L516.52,112.23L517.14,120.73L517.26,118.18L517.39,114.95L517.89,118.15L518.26,116.47L518.64,112.92L518.76,112.33L519.01,113.85L519.13,113.62L519.63,115.06L519.88,116.13L520.01,112.92L522.5,102.85L522.63,103.91L524.12,94.47L524.25,96.05L524.87,93.8L525,92.83L525.62,96.31L525.75,94.85L525.87,93.53L526.12,88.3L526.74,90.48L526.87,90.31L527.37,91.37L527.49,89.91L527.62,90.3L527.74,88.39L528.36,90.34L528.49,90.02L528.61,88.21L529.99,78.45L530.11,79.73L530.36,81.97L530.49,81.57L530.86,79.12L531.36,80.67L531.86,81.28L532.23,84.12L532.61,83.3L532.73,81.53L532.98,78.08L533.1,81.48L533.48,85.01L533.73,82.3L533.85,81.67L533.98,81.81L534.35,85.09L534.73,92.86L535.23,92.11L535.35,88.53L535.72,84.66L536.1,85.06L536.22,85.91L537.35,74.57L537.47,75.58L537.84,76.24L537.97,74.98L538.09,66.7L539.59,57.93L539.72,58.59L539.84,61.86L540.09,58.1L540.46,58.51L540.59,56.33L540.71,56.19L540.84,54.82L540.96,53.65L541.34,55.73L541.46,57.1L541.59,56.95L541.84,62.19L542.21,57.77L542.58,62.31L542.71,66.42L543.08,64.4L543.21,58.86L543.46,60.01L543.58,54.01L543.96,56.01L544.08,63.04L544.21,59.03L544.46,65.92L544.83,68.39L545.7,54.07L545.83,54.83L545.95,54.39L546.95,72.23L547.57,71.53L547.7,69.44L548.45,79.36L548.57,78.93L548.7,80.03L549.32,88.36L549.44,83.14L549.57,81.15L550.32,72.49L550.44,80.25L550.94,80.44L551.19,73.92L551.32,79.53L552.19,86.56L552.31,88.34L552.81,88.47L552.94,93.22L553.81,80.53L553.93,83.25L554.56,96.03L554.93,93.34L555.31,95.66L556.3,78.07L556.43,80.98L557.18,70.84L557.3,71.83L557.43,75.36L557.93,71.12L558.05,73.72L558.18,80.97L558.3,79.78L558.43,82.58L558.8,90.04L559.05,88.54L559.17,93.5L559.67,93.06L559.8,90.01L559.92,89.34L560.05,92.87L560.67,99.62L560.8,91.34L560.92,87.26L561.04,94.97L561.42,90.54L561.54,92.26L561.67,87.03L561.92,96.75L562.29,103.21L562.42,100.08L562.67,109.09L562.79,105.41L563.17,105.17L563.29,101.78L563.66,110.49L564.04,105.32L564.16,105.98L564.29,104.13L564.41,101.97L565.29,96.43L565.41,99.34L565.78,100.15L565.91,97.76L566.28,110.21L566.66,117.06L567.66,109.74L567.78,110.12L568.03,100.82L568.53,107.99L568.65,105.57L568.78,107.76L568.9,106.01L569.4,103.92L569.65,100.38L570.15,102.86L570.27,109.78L570.4,110.39L570.52,109.52L570.65,107.83L571.02,109.41L571.15,106.04L571.4,102.65L571.52,105.51L571.9,106.49L572.02,110.91L572.27,95.27L572.4,92.5L572.89,96.28L573.02,91.4L573.14,90.64L573.27,91.12L573.64,92.77L574.52,84.38L574.77,85.35L574.89,86.09L576.39,103.49L576.51,104.45L577.26,109.71L577.38,106.61L577.51,106.33L577.63,102.53L578.01,101.13L578.13,110.51L578.26,110.36L578.38,114.74L579.01,116.61L579.13,118.85L579.26,117.55L579.75,119.81L579.88,120.48L580.25,122.72L580.88,112.3L581,113.84L581.63,127.51L581.87,121.87L582,125.5L583.37,111.36L583.5,123.73L583.75,120.82L584.49,134.65L584.62,130.08L585.12,125.3L585.24,128.09L585.37,116.27L585.49,113.63L585.87,117.19L585.99,116.92L586.12,116.64L586.37,116.97L586.74,116.43L586.86,114.52L586.99,112.89L587.24,112.94L587.61,116.62L587.74,117.54L587.86,108.04L587.99,108.32L588.11,108.11L588.49,111.21L588.74,114.94L588.98,114.27L589.36,109.72L589.61,106.7L589.86,114.74L590.23,117.46L590.48,114.91L590.61,118.91L590.73,118.56L591.35,121.26L591.48,117.1L592.1,118.02L592.23,124.74L592.35,129.1L592.98,124.9L593.1,120.46L593.85,117.52L593.97,120.44L594.1,122.92L594.22,117.61L594.6,116.09L594.85,117.36L594.97,112.62L595.1,112.51L595.47,116.01L596.47,100.07L596.59,100.6L596.72,102.6L596.84,102.93L597.22,97.66L597.34,97.11L597.47,98.51L597.59,103.12L598.59,111.43L598.96,110.83L599.21,113.33L599.34,110.22L599.84,106.51L600.09,108.55L600.21,109.44L600.34,111.84L600.71,108.41L600.83,103.99L601.21,92.01L601.71,95.64L601.83,96.6L602.95,86.3L603.33,86.99L603.58,88.85L603.7,84.18L604.2,85.6L604.33,89.82L604.58,85.31L604.7,87.69L605.08,85.98L605.57,87.94L605.95,90.5L606.07,94.58L606.2,81.76L606.32,75.67L606.45,74.11L606.95,75.3L607.07,75.95L607.32,71.93L607.69,73.22L607.82,74.28L607.94,70.86L608.57,72.7L608.69,71.23L609.44,64.71L609.57,68.52L609.69,69.43L609.81,61.65L609.94,57.16L610.56,60.06L610.69,57.36L611.19,55.19L611.31,56.65L611.44,63.29L612.43,47.36L612.56,51.08L613.06,53.83L613.31,52.76L613.81,59.92L613.93,56.08L614.31,52.23L614.68,53.87L614.93,53.77L615.05,51.76L615.18,54.37L615.55,57.84L615.68,57.43L615.8,54.38L616.55,40.02L616.68,42.86L616.8,48.15L616.92,50.15L617.3,49.28L617.42,45.5L617.67,58.56L618.3,54.94L618.42,60.63L618.55,61.18L618.67,60.45L619.05,58.95L619.54,64.82L620.04,64.27L620.17,64.77L620.42,67.3L620.79,63.82L620.92,63.44L621.17,65.05L621.79,59.6L621.91,59.35L622.04,60.02L622.16,59.44L622.66,56.28L622.91,58.63L623.04,55.81L623.54,57.43L623.78,52.95L623.91,58.43L624.41,59.44L624.53,64.53L625.28,70.11L625.66,67.78L626.03,63.87L626.15,69.3L626.53,60.34L626.9,58.69L627.15,57.01L627.4,60.04L627.78,56.87L628.03,58.5L628.15,57.72L628.28,60.72L628.77,58.23L628.9,51.68L629.02,59.93L629.65,53.33L629.77,48.19L631.64,28.26L631.77,32.35L632.39,27.17L632.64,27.45L633.02,26.68L633.14,24.03L633.51,29.34L633.89,32.81L634.14,33.03L634.39,29.52L634.76,31.41L634.89,29.42L635.14,34.89L635.26,31.78L635.63,30.54L635.88,31.85L636.63,29.24L636.76,29.62L637.01,28.34L637.51,31.69L637.63,31.87L637.75,33.59L637.88,33.71L638.25,29.22L638.5,23.99L638.63,22.79L639.63,13.7L640,15.15L640,256.51L0,256.51Z" style="fill: rgb(0, 128, 0); fill-opacity: 0.25; stroke-width: 0;"/></g></g><g class="errorbars"/><g class="lines"><path class="js-line" d="M0,256.51L640,256.51" style="vector-effect: none; fill: none; stroke: rgb(0, 0, 0); stroke-opacity: 0; stroke-width: 0px; opacity: 1;"/></g><g class="points"/><g class="text"/></g><g class="trace scatter tracedf3aa569-83d5-4085-a115-9ee7024eb9fb" style="stroke-miterlimit: 2;"><g class="fills"/><g class="errorbars"/><g class="lines"><path class="js-line" d="M0,256.51L96.29,256.14L96.42,255.5L102.16,254.98L102.28,255.16L103.28,255.98L103.4,255.66L104.28,255.64L104.4,254.91L109.64,256.51L110.01,256.51L112.26,255.7L112.63,256.13L113.88,255.7L114.01,255.96L114.38,256.06L115.25,256.36L115.38,256.24L115.5,255.83L115.63,255.71L115.75,256L116.13,256.44L117.5,256.19L117.87,256.09L119.24,255.49L119.62,255.57L121.61,255.76L121.74,255.25L122.49,255.55L122.61,255.47L122.74,255.33L124.36,255.88L124.48,256.09L127.73,256.51L127.85,256.51L148.56,255.91L148.68,255.55L149.3,256.4L149.55,256.32L149.68,256.34L150.55,254.66L150.68,254.74L151.05,254.31L151.92,253.7L152.05,253.93L152.17,254.1L152.8,254.08L152.92,253.69L153.67,252.86L153.92,253.11L154.04,253.36L155.92,252.54L156.29,252.65L156.79,253.22L157.16,252.9L157.29,252.91L158.16,253.62L158.28,253.25L158.91,253.25L159.03,253.47L159.16,253.43L161.03,252.67L161.15,254.84L162.03,254.72L162.4,254.76L163.27,254.67L163.4,254.74L164.15,254.05L164.27,254.27L164.4,254.2L165.02,254.72L165.27,254.6L165.39,254.18L165.52,252.9L166.14,253.84L166.27,253.55L167.27,254.85L167.64,254.58L167.76,254.18L168.89,253.5L169.01,253.96L170.38,253.54L170.51,253.35L171.63,253.24L172.01,253.07L173,253L173.13,253.44L174,252.48L174.13,252.55L174.75,251.88L174.87,251.05L175.62,251.49L175.75,251.06L176.87,251.23L177.24,251.19L177.37,251.35L177.74,250.92L178.12,250.75L178.99,250.6L179.12,250.93L180.24,251.94L180.36,251.64L182.98,252.06L183.36,252.64L183.73,251.6L183.85,251.87L184.35,251.99L185.1,252.06L185.23,251.93L185.35,251.72L185.6,251.08L185.98,251.82L186.22,252.18L186.47,251.78L186.85,251.64L188.1,250.97L188.22,250.85L189.47,250.96L189.59,250.61L190.72,250.9L190.84,251L191.46,250.14L191.59,249.56L192.46,250.09L192.59,249.57L192.96,249.19L193.21,249L193.46,249.81L193.83,249.85L194.08,249.48L194.33,250.17L194.71,250.19L194.96,249.52L195.58,249.77L195.7,249.74L196.08,249.79L196.45,249.26L197.45,250.25L197.7,249.94L197.82,249.99L199.07,249.72L199.2,249.76L200.07,249.48L200.19,249.58L201.32,248.76L201.69,248.88L202.56,248.75L202.69,248.65L203.81,248.63L203.94,248.34L205.43,248.66L205.56,248.65L207.18,246.89L207.3,247.15L209.55,247.81L209.67,247.64L210.92,246.58L211.3,246.57L212.54,246.52L212.67,246.16L214.04,245.68L214.16,245.82L215.04,245.51L215.16,246.08L215.79,245.91L215.91,246.16L216.04,246.24L216.78,245.67L216.91,246.19L217.03,247.2L217.78,247.92L217.91,247.42L218.28,247.17L219.4,245.76L219.53,246.08L220.53,244.62L220.9,244.5L223.15,244.93L223.52,244.48L225.39,246.42L225.52,246.09L225.64,245.09L226.64,244.89L227.01,245.13L228.01,246.14L228.13,245.82L228.26,245.05L229.13,246.24L229.26,245.81L229.76,245.73L229.88,245.99L230.01,245.31L230.13,245.28L230.5,245.38L231,249.08L231.38,248.59L231.5,248.41L233.37,247.15L233.5,247.17L234.37,246.86L234.5,246.97L235.24,247.39L235.37,247.81L235.74,247.54L235.99,248.03L236.12,248.57L237.61,247.51L237.74,248.32L238.74,248.98L239.24,248.27L240.61,248.23L240.98,247.5L241.11,247.66L241.36,247.26L241.48,244.71L242.73,244.5L242.85,244.86L242.98,245.6L243.23,244.78L243.6,244.99L243.73,245L243.98,244.23L244.47,244.63L244.6,244.7L248.22,245.61L248.34,245.18L249.34,246.01L249.71,246.52L250.84,246.59L250.96,246.43L252.46,244.87L252.58,245.85L253.58,245.09L253.7,245.2L254.95,244.84L255.08,245.36L255.95,244.7L256.07,245.07L256.2,245.62L256.82,248.58L256.95,247.3L257.07,246.62L257.57,246.84L257.7,247.81L258.57,246.63L258.69,247.09L260.19,246.5L260.32,246.62L261.44,246.22L261.56,245.67L262.81,244.85L262.94,244.91L263.06,245.03L263.31,244.56L263.68,244.5L264.06,244.26L264.18,241.5L264.56,240.71L264.93,241.22L265.06,241.63L265.93,240.33L266.3,240.76L266.43,241.13L267.3,241.24L267.43,240.73L269.17,239.95L269.3,240.53L269.42,239.54L270.04,240.08L270.17,239.91L270.29,240.61L270.79,239.95L270.92,239.42L271.17,240.57L271.54,240.17L271.67,239.87L272.54,239.18L272.66,239.31L272.79,239.79L273.54,240.61L273.66,241.7L274.54,241.15L274.66,242.37L275.41,242.67L275.53,241.63L276.16,242.24L276.28,241.76L276.41,240.02L276.78,240.23L276.91,241.22L277.78,243.36L278.03,243.12L278.15,242.66L279.4,241.2L279.52,242.05L279.77,241.52L279.9,241.98L280.27,242.23L280.52,241.03L280.77,241.56L281.15,242.14L282.39,240.04L282.52,240.72L284.14,239.71L284.26,239.51L285.89,239.63L286.01,239.46L286.51,239.04L286.76,239.39L286.88,241.71L287.26,241.51L287.51,242.19L287.63,242.79L288.63,242.51L289,242.7L289.88,241.68L290,242.24L290.38,242.17L290.75,242.52L291.75,240.78L291.87,240.87L293.62,242.72L293.74,242.31L294.24,242.49L294.37,241.84L294.49,241.96L294.62,241.42L294.74,242.63L295.12,243.45L295.37,242.22L295.49,241.85L296.49,241.19L296.86,241.02L297.74,240.22L297.86,240.73L298.73,238.59L298.86,238.92L300.73,237.69L300.85,237.9L303.47,237.85L303.97,237.89L304.97,238.68L305.09,238.13L306.47,238.3L306.59,237.69L307.46,238.1L307.59,237.87L307.71,237.81L308.71,238L309.09,238.12L310.08,235.9L310.46,236.56L310.83,236.53L311.33,237.24L311.71,236.24L312.58,237.59L312.7,236.91L312.83,236.45L313.58,235.58L313.7,236.01L314.45,235.6L314.57,236.09L314.7,236.72L317.32,234.15L317.44,234.33L321.43,234.17L321.56,234.07L321.81,232.83L322.31,233.5L322.43,234.13L323.31,234.27L323.43,233.85L325.3,233.28L325.68,233.52L325.92,233.09L326.55,233.49L326.67,233.42L327.42,233.23L327.55,233.41L328.29,233.1L328.42,233.53L329.29,232.89L329.42,232.78L330.42,232.62L330.54,232.65L332.16,232.76L332.29,232.23L333.66,230.5L333.91,230.79L334.03,230.68L335.28,231.02L335.4,230.2L335.53,231.35L336.15,230.77L336.28,230.64L338.02,228.34L338.15,228.42L339.15,229.91L339.27,229.85L339.65,229.33L339.77,229.9L340.14,229.12L340.52,229.53L341.39,230.94L341.64,230.4L341.77,230.7L341.89,230.17L342.26,229.86L343.51,227.32L343.64,227.58L344.01,227.7L344.14,227.34L344.51,228.03L344.88,228.23L346.13,229L346.26,228.35L346.63,227.7L346.88,227.43L347,228.18L347.13,228.13L347.5,228.33L347.63,227.73L348,227.93L348.38,227.92L348.75,226.76L348.88,227.26L349.37,227.45L349.5,227.58L349.62,227.02L349.75,227.23L350.12,226.76L351.12,226.35L351.25,226.66L351.99,227.67L352.12,227.31L352.24,227.3L353.24,226.02L353.62,225.84L354.86,224.87L354.99,224.33L355.74,224.36L355.86,221.32L358.11,221.18L358.23,221.57L358.48,221.92L359.85,220.42L359.98,221.36L360.23,220.8L360.6,222.72L361.97,219.23L362.35,219.52L362.47,219.85L363.34,220.11L363.47,219.92L364.34,219.54L364.47,219.08L365.46,217.57L365.96,218.33L366.84,216.18L366.96,216.23L367.09,215.92L367.83,214.31L367.96,214.76L368.08,216.26L368.83,220.35L368.96,218.43L369.33,217.86L370.33,215.43L370.45,216.17L370.58,216.03L370.7,214.61L371.08,213.79L371.33,214.79L371.45,215.35L372.33,214.39L372.45,213.11L372.82,212.97L372.95,214.4L374.07,217.2L374.2,218.79L374.57,214.78L374.94,216.31L375.44,217.97L375.82,215.63L375.94,216.94L376.32,216.61L377.31,213.39L377.44,213.17L378.31,215.67L378.44,214.49L378.56,213.54L379.19,214.95L379.43,213.94L379.81,213.3L379.93,213.55L380.06,212.86L380.18,212.28L381.18,212.96L381.56,212.21L381.8,211.56L382.05,211.74L382.55,211.96L383.55,209.23L383.8,209.75L384.17,210.1L384.55,209.88L384.67,210.67L385.3,209.6L385.42,210.05L385.55,210.49L386.17,212.24L386.42,211.59L386.79,210.74L386.92,211.32L387.29,210.04L387.67,209.62L388.04,208.19L388.17,207.43L388.91,208.06L389.04,206.92L389.66,204.14L389.79,204.88L389.91,206.06L390.29,207.47L390.66,206.13L390.79,205.84L391.28,205.33L391.41,204.96L391.53,204.85L391.66,205.26L392.03,205.74L392.16,204.92L392.53,205.87L392.91,206.31L393.03,206.85L393.4,205.37L393.78,204.64L394.28,202.97L394.78,203.34L395.15,205.49L395.53,204.77L395.65,203.63L396.52,202.43L396.65,203.35L397.27,201.53L397.52,201.96L397.65,201.69L398.14,200.96L398.39,201.23L398.52,202.68L399.02,203.87L399.14,203.01L399.27,206.74L399.39,206.89L399.52,204.65L399.89,205.86L400.02,203.78L400.14,203.96L401.01,209.09L401.14,205.43L401.76,208.23L402.01,206.89L402.14,206.74L402.63,205.79L402.76,203.19L402.88,203.32L403.01,204.65L404.38,209.19L404.51,208.33L404.76,208.36L406,202.82L406.13,205.01L406.38,204.6L406.5,207.28L407.25,204.44L407.37,206.54L407.75,208.47L407.87,207.81L408.12,209.32L408.25,211.33L408.62,213.85L408.87,209.9L409.12,210.01L409.5,209.28L409.74,209.56L409.87,211.84L410.62,207.62L410.74,208.03L410.87,208.52L411.24,208.99L411.37,207.17L411.74,205.51L412.24,206.75L412.61,205.84L412.99,207.12L413.24,206.32L413.49,208.54L413.86,206.72L413.99,205.81L414.24,207.01L414.36,206.76L414.73,207.02L415.23,205.19L415.73,205.22L415.86,205.57L415.98,204.18L416.11,203.21L417.35,202.42L417.48,202.76L417.73,203.57L417.85,203.5L418.23,202.06L419.47,197.5L419.6,199.46L419.97,199.08L420.22,199.63L421.72,197.68L421.84,198.08L422.97,195.56L423.47,195.32L424.46,191.1L424.59,192.78L424.84,192.15L425.46,194.24L425.59,194.25L426.08,195.57L426.46,191.83L426.58,192.37L427.46,193.5L427.96,193.55L428.7,197.46L428.83,195.41L428.95,193.75L429.58,189.56L429.95,189.73L430.08,189.65L430.45,189.41L430.57,187.98L431.32,186.35L431.45,189.05L432.45,186.55L433.07,186.86L433.19,187.17L433.94,185.66L434.07,186.79L434.19,187.29L434.44,187.07L434.82,185.95L435.31,184.15L435.69,184.34L435.81,184.76L436.56,189.8L436.69,188.27L436.81,187.9L436.94,185.66L437.56,185.84L437.68,188.43L437.81,188.62L437.93,187.09L438.56,185.44L438.68,186.07L438.81,188.8L439.56,185.86L439.68,186.02L440.18,187.15L440.43,184.66L440.93,186.23L441.05,187.12L442.18,184.02L442.3,185.04L442.67,185.22L442.8,186.32L443.05,184.97L443.17,186.1L443.55,185.29L443.8,188.01L444.05,185.86L444.42,186.48L444.54,187.38L444.92,184.89L445.29,184.97L445.42,183.71L445.79,186.3L446.17,185.66L446.29,186.94L446.67,184.23L447.04,182.08L447.16,182.93L447.29,181.82L447.54,182.38L447.91,181.86L448.16,182.16L448.29,182.04L448.41,180.98L449.04,180.15L449.16,179.68L449.78,178.23L450.03,178.48L450.16,178.41L450.78,176.71L451.03,177.3L451.41,178.44L451.53,178.59L451.78,178.2L451.9,177.06L452.4,177.45L452.53,177.1L452.65,176.14L453.65,173.54L454.02,173.54L454.52,172.57L454.9,173.42L455.02,173.35L455.27,171.53L455.77,172.52L455.9,173.43L457.02,168.07L457.14,167.49L457.77,168.37L457.89,167.73L458.02,168.78L458.39,170.5L458.51,168.51L458.64,166.91L459.76,157.02L460.14,154.02L460.51,157.13L460.64,156.11L461.13,154.94L461.26,154.59L461.38,156.38L461.51,160.02L462.26,172.79L462.38,170.39L462.76,163.65L463.63,177.51L463.75,171.07L464.5,187.02L464.63,180.05L465.38,186.67L465.5,178.94L465.62,179.83L465.75,174.08L465.87,178.09L466.25,171.5L466.5,176.58L466.62,174.61L466.75,175.51L467.12,168.35L467.25,169.46L467.5,168.43L467.99,168.2L468.49,160.02L468.87,162.23L468.99,166.76L469.37,162.55L469.74,162.86L469.87,165.51L470.74,158.67L470.86,157.55L471.49,154.93L471.61,157.57L471.74,159.3L471.99,157.16L472.36,156.07L472.61,155.28L473.36,157.84L473.48,157.69L473.61,157.95L473.73,156.79L474.11,157.05L475.23,148.27L475.35,154.9L476.85,145.09L477.1,146.07L477.22,148.59L477.6,147.26L477.72,144.09L478.85,137.31L478.97,137.71L479.35,141.85L479.47,141.05L479.72,143.83L479.84,144.48L480.47,138.92L480.59,144.69L480.72,145.47L481.09,143.87L481.22,145.02L481.34,143.74L481.47,143.84L481.59,143.14L481.96,135.91L482.96,144.17L483.09,140.52L483.21,140.83L483.34,140.71L483.71,139.84L483.96,139.89L484.83,132.69L484.96,129.28L485.46,129.94L485.71,126.09L485.83,135.11L486.45,144.31L486.83,143.45L487.2,142.58L487.33,140.46L487.7,145.74L488.08,144.39L488.33,145.61L488.95,140.05L489.07,141.42L489.32,138.15L489.45,142.09L489.82,139.46L489.95,142.27L490.82,131.61L491.07,133.63L491.19,133.63L492.44,139.65L492.57,137.65L493.32,144.52L493.44,141.94L493.81,131.07L494.19,134.42L494.31,139.06L495.06,135.15L495.19,136.89L495.93,139.28L496.06,136.92L496.93,135.44L497.06,135.97L497.18,136.68L497.68,136.65L497.81,135.56L498.05,139.02L498.55,136.7L498.68,136.75L499.55,130.57L499.68,132.41L500.3,129.92L500.42,130.43L500.55,131.99L500.67,131.52L501.17,134.51L501.3,134.37L501.42,137.93L501.67,133.29L502.17,136.24L502.3,135.36L502.55,137.68L503.04,135.29L503.17,130.31L503.79,127.04L503.92,125.28L504.04,124.92L504.17,121.12L504.29,125.51L504.67,120.67L504.79,120.75L504.92,118.55L505.04,119.18L505.54,118.89L505.66,118.07L505.79,118.67L506.04,117.3L506.54,118.11L506.66,117.44L506.91,119.48L507.29,123.56L507.66,127.05L507.78,124.91L508.16,122.03L508.53,128.48L509.03,128.06L509.16,124.03L509.28,124.88L509.41,121.91L509.53,122.78L509.9,123.38L510.03,121.54L510.4,126.19L510.78,122.63L510.9,121.63L511.15,124.94L511.28,122.32L511.65,123.1L511.78,125.24L512.02,118.61L512.52,114.37L512.65,115.13L512.77,113.84L512.9,111.73L513.9,107L514.27,108.26L514.52,107.1L514.64,109.25L514.77,106.74L515.27,106.22L515.39,110.9L516.27,116.01L516.39,113.95L516.52,112.23L517.14,120.73L517.26,118.18L517.39,114.95L517.89,118.15L518.26,116.47L518.64,112.92L518.76,112.33L519.01,113.85L519.13,113.62L519.63,115.06L519.88,116.13L520.01,112.92L522.5,102.85L522.63,103.91L524.12,94.47L524.25,96.05L524.87,93.8L525,92.83L525.62,96.31L525.75,94.85L525.87,93.53L526.12,88.3L526.74,90.48L526.87,90.31L527.37,91.37L527.49,89.91L527.62,90.3L527.74,88.39L528.36,90.34L528.49,90.02L528.61,88.21L529.99,78.45L530.11,79.73L530.36,81.97L530.49,81.57L530.86,79.12L531.36,80.67L531.86,81.28L532.23,84.12L532.61,83.3L532.73,81.53L532.98,78.08L533.1,81.48L533.48,85.01L533.73,82.3L533.85,81.67L533.98,81.81L534.35,85.09L534.73,92.86L535.23,92.11L535.35,88.53L535.72,84.66L536.1,85.06L536.22,85.91L537.35,74.57L537.47,75.58L537.84,76.24L537.97,74.98L538.09,66.7L539.59,57.93L539.72,58.59L539.84,61.86L540.09,58.1L540.46,58.51L540.59,56.33L540.71,56.19L540.84,54.82L540.96,53.65L541.34,55.73L541.46,57.1L541.59,56.95L541.84,62.19L542.21,57.77L542.58,62.31L542.71,66.42L543.08,64.4L543.21,58.86L543.46,60.01L543.58,54.01L543.96,56.01L544.08,63.04L544.21,59.03L544.46,65.92L544.83,68.39L545.7,54.07L545.83,54.83L545.95,54.39L546.95,72.23L547.57,71.53L547.7,69.44L548.45,79.36L548.57,78.93L548.7,80.03L549.32,88.36L549.44,83.14L549.57,81.15L550.32,72.49L550.44,80.25L550.94,80.44L551.19,73.92L551.32,79.53L552.19,86.56L552.31,88.34L552.81,88.47L552.94,93.22L553.81,80.53L553.93,83.25L554.56,96.03L554.93,93.34L555.31,95.66L556.3,78.07L556.43,80.98L557.18,70.84L557.3,71.83L557.43,75.36L557.93,71.12L558.05,73.72L558.18,80.97L558.3,79.78L558.43,82.58L558.8,90.04L559.05,88.54L559.17,93.5L559.67,93.06L559.8,90.01L559.92,89.34L560.05,92.87L560.67,99.62L560.8,91.34L560.92,87.26L561.04,94.97L561.42,90.54L561.54,92.26L561.67,87.03L561.92,96.75L562.29,103.21L562.42,100.08L562.67,109.09L562.79,105.41L563.17,105.17L563.29,101.78L563.66,110.49L564.04,105.32L564.16,105.98L564.29,104.13L564.41,101.97L565.29,96.43L565.41,99.34L565.78,100.15L565.91,97.76L566.28,110.21L566.66,117.06L567.66,109.74L567.78,110.12L568.03,100.82L568.53,107.99L568.65,105.57L568.78,107.76L568.9,106.01L569.4,103.92L569.65,100.38L570.15,102.86L570.27,109.78L570.4,110.39L570.52,109.52L570.65,107.83L571.02,109.41L571.15,106.04L571.4,102.65L571.52,105.51L571.9,106.49L572.02,110.91L572.27,95.27L572.4,92.5L572.89,96.28L573.02,91.4L573.14,90.64L573.27,91.12L573.64,92.77L574.52,84.38L574.77,85.35L574.89,86.09L576.39,103.49L576.51,104.45L577.26,109.71L577.38,106.61L577.51,106.33L577.63,102.53L578.01,101.13L578.13,110.51L578.26,110.36L578.38,114.74L579.01,116.61L579.13,118.85L579.26,117.55L579.75,119.81L579.88,120.48L580.25,122.72L580.88,112.3L581,113.84L581.63,127.51L581.87,121.87L582,125.5L583.37,111.36L583.5,123.73L583.75,120.82L584.49,134.65L584.62,130.08L585.12,125.3L585.24,128.09L585.37,116.27L585.49,113.63L585.87,117.19L585.99,116.92L586.12,116.64L586.37,116.97L586.74,116.43L586.86,114.52L586.99,112.89L587.24,112.94L587.61,116.62L587.74,117.54L587.86,108.04L587.99,108.32L588.11,108.11L588.49,111.21L588.74,114.94L588.98,114.27L589.36,109.72L589.61,106.7L589.86,114.74L590.23,117.46L590.48,114.91L590.61,118.91L590.73,118.56L591.35,121.26L591.48,117.1L592.1,118.02L592.23,124.74L592.35,129.1L592.98,124.9L593.1,120.46L593.85,117.52L593.97,120.44L594.1,122.92L594.22,117.61L594.6,116.09L594.85,117.36L594.97,112.62L595.1,112.51L595.47,116.01L596.47,100.07L596.59,100.6L596.72,102.6L596.84,102.93L597.22,97.66L597.34,97.11L597.47,98.51L597.59,103.12L598.59,111.43L598.96,110.83L599.21,113.33L599.34,110.22L599.84,106.51L600.09,108.55L600.21,109.44L600.34,111.84L600.71,108.41L600.83,103.99L601.21,92.01L601.71,95.64L601.83,96.6L602.95,86.3L603.33,86.99L603.58,88.85L603.7,84.18L604.2,85.6L604.33,89.82L604.58,85.31L604.7,87.69L605.08,85.98L605.57,87.94L605.95,90.5L606.07,94.58L606.2,81.76L606.32,75.67L606.45,74.11L606.95,75.3L607.07,75.95L607.32,71.93L607.69,73.22L607.82,74.28L607.94,70.86L608.57,72.7L608.69,71.23L609.44,64.71L609.57,68.52L609.69,69.43L609.81,61.65L609.94,57.16L610.56,60.06L610.69,57.36L611.19,55.19L611.31,56.65L611.44,63.29L612.43,47.36L612.56,51.08L613.06,53.83L613.31,52.76L613.81,59.92L613.93,56.08L614.31,52.23L614.68,53.87L614.93,53.77L615.05,51.76L615.18,54.37L615.55,57.84L615.68,57.43L615.8,54.38L616.55,40.02L616.68,42.86L616.8,48.15L616.92,50.15L617.3,49.28L617.42,45.5L617.67,58.56L618.3,54.94L618.42,60.63L618.55,61.18L618.67,60.45L619.05,58.95L619.54,64.82L620.04,64.27L620.17,64.77L620.42,67.3L620.79,63.82L620.92,63.44L621.17,65.05L621.79,59.6L621.91,59.35L622.04,60.02L622.16,59.44L622.66,56.28L622.91,58.63L623.04,55.81L623.54,57.43L623.78,52.95L623.91,58.43L624.41,59.44L624.53,64.53L625.28,70.11L625.66,67.78L626.03,63.87L626.15,69.3L626.53,60.34L626.9,58.69L627.15,57.01L627.4,60.04L627.78,56.87L628.03,58.5L628.15,57.72L628.28,60.72L628.77,58.23L628.9,51.68L629.02,59.93L629.65,53.33L629.77,48.19L631.64,28.26L631.77,32.35L632.39,27.17L632.64,27.45L633.02,26.68L633.14,24.03L633.51,29.34L633.89,32.81L634.14,33.03L634.39,29.52L634.76,31.41L634.89,29.42L635.14,34.89L635.26,31.78L635.63,30.54L635.88,31.85L636.63,29.24L636.76,29.62L637.01,28.34L637.51,31.69L637.63,31.87L637.75,33.59L637.88,33.71L638.25,29.22L638.5,23.99L638.63,22.79L639.63,13.7L640,15.15" style="vector-effect: none; fill: none; stroke: rgb(0, 0, 0); stroke-opacity: 0; stroke-width: 0px; opacity: 1;"/></g><g class="points"/><g class="text"/></g><g class="trace scatter traced185bba8-b3f5-44fe-92c8-9296052036f8" style="stroke-miterlimit: 2;"><g class="fills"><g><path class="js-fill" d="M0,256.51L2.12,256.97L2.25,257.48L2.99,257.39L3.12,257.87L6.11,257.53L6.24,257.73L6.98,257.39L7.23,257.66L7.36,257.58L11.72,256.94L11.85,256.74L15.09,256.98L15.22,257.41L15.34,257.79L15.84,257.46L15.97,257.18L17.71,259.31L17.96,258.92L18.46,258.87L18.71,258.39L18.83,258.92L19.21,259.17L20.08,259.07L20.21,258.53L22.33,260.17L22.83,259.9L23.95,259.06L24.07,259.37L26.44,258.95L26.57,259.13L28.19,259.34L28.31,259.53L29.81,260.01L29.94,259.8L31.93,259.14L32.31,259.03L33.55,259.5L33.68,259.56L34.92,259.45L35.05,259.33L35.8,258.84L35.92,259.2L36.05,259.09L37.17,258.42L37.54,258.28L37.92,258.18L38.04,258.33L38.42,258.35L39.42,258.77L39.54,258.89L40.41,258.99L40.66,259.05L41.29,258.65L41.41,258.22L43.78,257.63L43.91,257.57L48.15,257.44L48.27,257.28L49.27,257.84L49.39,257.78L50.27,258.04L50.64,258.05L54.26,258.9L54.38,259.2L59.5,258.5L59.62,258.4L59.75,258.24L59.87,258.63L60.25,258.76L60.37,258.69L61.24,258.76L61.37,258.92L63.11,259.43L63.24,259.18L64.74,259.49L64.86,259.55L65.98,259.39L66.36,259.28L67.73,258.5L68.23,258.49L69.23,258.19L69.35,258.27L70.85,257.45L70.97,257.83L71.6,257.86L71.72,258.1L72.72,259.42L72.97,258.96L73.34,258.76L74.59,259.15L74.71,258.81L75.34,258.12L75.59,258.53L76.09,258.67L77.21,257.92L77.33,257.85L77.96,258.43L78.08,258.9L79.08,258.99L79.45,259.17L80.58,257.93L80.7,257.82L83.82,258.02L83.94,257.83L84.07,258.32L84.69,258.04L84.82,257.94L85.82,259.11L86.07,259.2L87.81,258.48L88.19,258.58L89.18,258.31L89.31,258.45L89.43,258.42L91.8,257.38L91.93,257.44L93.67,256.51L93.8,256.52L94.67,256.51L94.8,256.51L130.1,256.89L130.22,257.37L131.09,257.57L131.22,257.44L131.47,257.05L133.59,257.45L133.71,257.25L135.83,257.66L136.21,257.57L136.46,257.09L136.71,257.55L137.08,257.58L137.95,257.48L138.08,257.31L153.79,256.51L153.92,256.51L640,256.51L640,256.51L0,256.51Z" style="fill: rgb(255, 0, 0); fill-opacity: 0.25; stroke-width: 0;"/></g></g><g class="errorbars"/><g class="lines"><path class="js-line" d="M0,256.51L640,256.51" style="vector-effect: none; fill: none; stroke: rgb(0, 0, 0); stroke-opacity: 0; stroke-width: 0px; opacity: 1;"/></g><g class="points"/><g class="text"/></g><g class="trace scatter trace9b8279b2-4413-42a7-a6bd-46e227efa18d" style="stroke-miterlimit: 2;"><g class="fills"/><g class="errorbars"/><g class="lines"><path class="js-line" d="M0,256.51L2.12,256.97L2.25,257.48L2.99,257.39L3.12,257.87L6.11,257.53L6.24,257.73L6.98,257.39L7.23,257.66L7.36,257.58L11.72,256.94L11.85,256.74L15.09,256.98L15.22,257.41L15.34,257.79L15.84,257.46L15.97,257.18L17.71,259.31L17.96,258.92L18.46,258.87L18.71,258.39L18.83,258.92L19.21,259.17L20.08,259.07L20.21,258.53L22.33,260.17L22.83,259.9L23.95,259.06L24.07,259.37L26.44,258.95L26.57,259.13L28.19,259.34L28.31,259.53L29.81,260.01L29.94,259.8L31.93,259.14L32.31,259.03L33.55,259.5L33.68,259.56L34.92,259.45L35.05,259.33L35.8,258.84L35.92,259.2L36.05,259.09L37.17,258.42L37.54,258.28L37.92,258.18L38.04,258.33L38.42,258.35L39.42,258.77L39.54,258.89L40.41,258.99L40.66,259.05L41.29,258.65L41.41,258.22L43.78,257.63L43.91,257.57L48.15,257.44L48.27,257.28L49.27,257.84L49.39,257.78L50.27,258.04L50.64,258.05L54.26,258.9L54.38,259.2L59.5,258.5L59.62,258.4L59.75,258.24L59.87,258.63L60.25,258.76L60.37,258.69L61.24,258.76L61.37,258.92L63.11,259.43L63.24,259.18L64.74,259.49L64.86,259.55L65.98,259.39L66.36,259.28L67.73,258.5L68.23,258.49L69.23,258.19L69.35,258.27L70.85,257.45L70.97,257.83L71.6,257.86L71.72,258.1L72.72,259.42L72.97,258.96L73.34,258.76L74.59,259.15L74.71,258.81L75.34,258.12L75.59,258.53L76.09,258.67L77.21,257.92L77.33,257.85L77.96,258.43L78.08,258.9L79.08,258.99L79.45,259.17L80.58,257.93L80.7,257.82L83.82,258.02L83.94,257.83L84.07,258.32L84.69,258.04L84.82,257.94L85.82,259.11L86.07,259.2L87.81,258.48L88.19,258.58L89.18,258.31L89.31,258.45L89.43,258.42L91.8,257.38L91.93,257.44L93.67,256.51L93.8,256.52L94.67,256.51L94.8,256.51L130.1,256.89L130.22,257.37L131.09,257.57L131.22,257.44L131.47,257.05L133.59,257.45L133.71,257.25L135.83,257.66L136.21,257.57L136.46,257.09L136.71,257.55L137.08,257.58L137.95,257.48L138.08,257.31L153.79,256.51L153.92,256.51L640,256.51" style="vector-effect: none; fill: none; stroke: rgb(0, 0, 0); stroke-opacity: 0; stroke-width: 0px; opacity: 1;"/></g><g class="points"/><g class="text"/></g><g class="trace scatter trace3e185174-9962-45e3-b2ea-856be020afca" style="stroke-miterlimit: 2; opacity: 1;"><g class="fills"/><g class="errorbars"/><g class="lines"><path class="js-line" d="M0,256.51L1.37,256.55L1.87,256.43L3.12,257.87L3.49,257.75L5.74,257.51L6.11,257.53L6.61,257.56L6.98,257.39L7.86,257.58L7.98,257.5L9.98,256.9L10.1,257.07L12.22,256.75L12.35,256.68L13.47,256.22L13.6,256.43L14.97,256.84L15.09,256.98L15.34,257.79L15.84,257.46L15.97,257.18L17.71,259.31L17.96,258.92L18.46,258.87L18.71,258.39L18.83,258.92L19.21,259.17L20.08,259.07L20.21,258.53L22.33,260.17L22.83,259.9L23.95,259.06L24.07,259.37L26.44,258.95L26.57,259.13L28.19,259.34L28.31,259.53L29.81,260.01L29.94,259.8L31.93,259.14L32.31,259.03L33.55,259.5L33.68,259.56L34.92,259.45L35.05,259.33L35.8,258.84L35.92,259.2L36.05,259.09L37.17,258.42L37.54,258.28L37.92,258.18L38.04,258.33L38.42,258.35L39.42,258.77L39.54,258.89L40.41,258.99L40.66,259.05L41.29,258.65L41.41,258.22L43.78,257.63L43.91,257.57L48.15,257.44L48.27,257.28L49.27,257.84L49.39,257.78L50.27,258.04L50.64,258.05L54.26,258.9L54.38,259.2L59.5,258.5L59.62,258.4L59.75,258.24L59.87,258.63L60.25,258.76L60.37,258.69L61.24,258.76L61.37,258.92L63.11,259.43L63.24,259.18L64.74,259.49L64.86,259.55L65.98,259.39L66.36,259.28L67.73,258.5L68.23,258.49L69.23,258.19L69.35,258.27L70.85,257.45L70.97,257.83L71.6,257.86L71.72,258.1L72.72,259.42L72.97,258.96L73.34,258.76L74.59,259.15L74.71,258.81L75.34,258.12L75.59,258.53L76.09,258.67L77.21,257.92L77.33,257.85L77.96,258.43L78.08,258.9L79.08,258.99L79.45,259.17L80.58,257.93L80.7,257.82L83.82,258.02L83.94,257.83L84.07,258.32L84.69,258.04L84.82,257.94L85.82,259.11L86.07,259.2L87.81,258.48L88.19,258.58L89.18,258.31L89.31,258.45L89.43,258.42L91.8,257.38L91.93,257.44L93.67,256.49L93.8,256.52L94.42,256.51L94.55,256.32L94.67,256.29L95.54,255.87L95.67,256.01L96.04,255.97L96.29,256.14L96.54,255.52L97.04,255.42L98.04,255.26L98.16,254.98L99.16,255.13L99.54,255.11L99.91,254.69L100.04,254.82L100.41,255.03L101.28,254.82L101.41,254.86L102.4,255.54L102.53,255.38L103.03,255.6L103.28,255.98L103.53,255.75L103.9,255.61L105.15,255.07L105.27,255.14L106.15,255.66L106.52,255.83L108.77,256.55L109.27,256.29L110.14,256.84L110.26,256.4L112.26,255.7L112.63,256.13L113.88,255.7L114.01,255.96L114.38,256.06L115.25,256.36L115.38,256.24L115.63,255.71L115.75,256L116.13,256.44L117,256.25L117.12,256.34L117.87,256.09L118,255.93L119.87,255.68L119.99,255.82L120.99,255.53L121.49,255.76L122.36,255.55L122.49,255.55L123.61,255.34L123.98,255.55L124.86,256.23L125.11,256.03L125.23,255.94L126.73,256.23L126.85,256.17L127.85,257.07L127.98,256.9L128.6,256.73L129.35,256.03L129.47,256.44L131.09,257.57L131.22,257.44L131.47,257.05L133.59,257.45L133.71,257.25L135.83,257.66L136.21,257.57L136.46,257.09L136.71,257.55L137.08,257.58L137.95,257.48L138.08,257.31L148.43,256.45L148.56,255.91L148.68,255.55L148.93,256.34L149.3,256.4L151.92,253.7L152.05,253.93L152.17,254.1L152.8,254.08L152.92,253.69L153.67,252.86L153.92,253.11L154.04,253.36L155.92,252.54L156.29,252.65L156.79,253.22L157.16,252.9L157.29,252.91L158.16,253.62L158.28,253.25L158.91,253.25L159.03,253.47L159.16,253.43L161.03,252.67L161.15,254.84L162.03,254.72L162.4,254.76L163.27,254.67L163.4,254.74L164.15,254.05L164.27,254.27L164.4,254.2L165.02,254.72L165.27,254.6L165.39,254.18L165.52,252.9L166.14,253.84L166.27,253.55L167.27,254.85L167.64,254.58L167.76,254.18L168.89,253.5L169.01,253.96L170.38,253.54L170.51,253.35L171.63,253.24L172.01,253.07L173,253L173.13,253.44L174,252.48L174.13,252.55L174.75,251.88L174.87,251.05L175.62,251.49L175.75,251.06L176.87,251.23L177.24,251.19L177.37,251.35L177.74,250.92L178.12,250.75L178.99,250.6L179.12,250.93L180.24,251.94L180.36,251.64L182.98,252.06L183.36,252.64L183.73,251.6L183.85,251.87L184.35,251.99L185.1,252.06L185.23,251.93L185.35,251.72L185.6,251.08L185.98,251.82L186.22,252.18L186.47,251.78L186.85,251.64L188.1,250.97L188.22,250.85L189.47,250.96L189.59,250.61L190.72,250.9L190.84,251L191.46,250.14L191.59,249.56L192.46,250.09L192.59,249.57L192.96,249.19L193.21,249L193.46,249.81L193.83,249.85L194.08,249.48L194.33,250.17L194.71,250.19L194.96,249.52L195.58,249.77L195.7,249.74L196.08,249.79L196.45,249.26L197.45,250.25L197.7,249.94L197.82,249.99L199.07,249.72L199.2,249.76L200.07,249.48L200.19,249.58L201.32,248.76L201.69,248.88L202.56,248.75L202.69,248.65L203.81,248.63L203.94,248.34L205.43,248.66L205.56,248.65L207.18,246.89L207.3,247.15L209.55,247.81L209.67,247.64L210.92,246.58L211.3,246.57L212.54,246.52L212.67,246.16L214.04,245.68L214.16,245.82L215.04,245.51L215.16,246.08L215.79,245.91L215.91,246.16L216.04,246.24L216.78,245.67L216.91,246.19L217.03,247.2L217.78,247.92L217.91,247.42L218.28,247.17L219.4,245.76L219.53,246.08L220.53,244.62L220.9,244.5L223.15,244.93L223.52,244.48L225.39,246.42L225.52,246.09L225.64,245.09L226.64,244.89L227.01,245.13L228.01,246.14L228.13,245.82L228.26,245.05L229.13,246.24L229.26,245.81L229.76,245.73L229.88,245.99L230.01,245.31L230.13,245.28L230.5,245.38L231,249.08L231.38,248.59L231.5,248.41L233.37,247.15L233.5,247.17L234.37,246.86L234.5,246.97L235.24,247.39L235.37,247.81L235.74,247.54L235.99,248.03L236.12,248.57L237.61,247.51L237.74,248.32L238.74,248.98L239.24,248.27L240.61,248.23L240.98,247.5L241.11,247.66L241.36,247.26L241.48,244.71L242.73,244.5L242.85,244.86L242.98,245.6L243.23,244.78L243.6,244.99L243.73,245L243.98,244.23L244.47,244.63L244.6,244.7L248.22,245.61L248.34,245.18L249.34,246.01L249.71,246.52L250.84,246.59L250.96,246.43L252.46,244.87L252.58,245.85L253.58,245.09L253.7,245.2L254.95,244.84L255.08,245.36L255.95,244.7L256.07,245.07L256.2,245.62L256.82,248.58L256.95,247.3L257.07,246.62L257.57,246.84L257.7,247.81L258.57,246.63L258.69,247.09L260.19,246.5L260.32,246.62L261.44,246.22L261.56,245.67L262.81,244.85L262.94,244.91L263.06,245.03L263.31,244.56L263.68,244.5L264.06,244.26L264.18,241.5L264.56,240.71L264.93,241.22L265.06,241.63L265.93,240.33L266.3,240.76L266.43,241.13L267.3,241.24L267.43,240.73L269.17,239.95L269.3,240.53L269.42,239.54L270.04,240.08L270.17,239.91L270.29,240.61L270.79,239.95L270.92,239.42L271.17,240.57L271.54,240.17L271.67,239.87L272.54,239.18L272.66,239.31L272.79,239.79L273.54,240.61L273.66,241.7L274.54,241.15L274.66,242.37L275.41,242.67L275.53,241.63L276.16,242.24L276.28,241.76L276.41,240.02L276.78,240.23L276.91,241.22L277.78,243.36L278.03,243.12L278.15,242.66L279.4,241.2L279.52,242.05L279.77,241.52L279.9,241.98L280.27,242.23L280.52,241.03L280.77,241.56L281.15,242.14L282.39,240.04L282.52,240.72L284.14,239.71L284.26,239.51L285.89,239.63L286.01,239.46L286.51,239.04L286.76,239.39L286.88,241.71L287.26,241.51L287.51,242.19L287.63,242.79L288.63,242.51L289,242.7L289.88,241.68L290,242.24L290.38,242.17L290.75,242.52L291.75,240.78L291.87,240.87L293.62,242.72L293.74,242.31L294.24,242.49L294.37,241.84L294.49,241.96L294.62,241.42L294.74,242.63L295.12,243.45L295.37,242.22L295.49,241.85L296.49,241.19L296.86,241.02L297.74,240.22L297.86,240.73L298.73,238.59L298.86,238.92L300.73,237.69L300.85,237.9L303.47,237.85L303.97,237.89L304.97,238.68L305.09,238.13L306.47,238.3L306.59,237.69L307.46,238.1L307.59,237.87L307.71,237.81L308.71,238L309.09,238.12L310.08,235.9L310.46,236.56L310.83,236.53L311.33,237.24L311.71,236.24L312.58,237.59L312.7,236.91L312.83,236.45L313.58,235.58L313.7,236.01L314.45,235.6L314.57,236.09L314.7,236.72L317.32,234.15L317.44,234.33L321.43,234.17L321.56,234.07L321.81,232.83L322.31,233.5L322.43,234.13L323.31,234.27L323.43,233.85L325.3,233.28L325.68,233.52L325.92,233.09L326.55,233.49L326.67,233.42L327.42,233.23L327.55,233.41L328.29,233.1L328.42,233.53L329.29,232.89L329.42,232.78L330.42,232.62L330.54,232.65L332.16,232.76L332.29,232.23L333.66,230.5L333.91,230.79L334.03,230.68L335.28,231.02L335.4,230.2L335.53,231.35L336.15,230.77L336.28,230.64L338.02,228.34L338.15,228.42L339.15,229.91L339.27,229.85L339.65,229.33L339.77,229.9L340.14,229.12L340.52,229.53L341.39,230.94L341.64,230.4L341.77,230.7L341.89,230.17L342.26,229.86L343.51,227.32L343.64,227.58L344.01,227.7L344.14,227.34L344.51,228.03L344.88,228.23L346.13,229L346.26,228.35L346.63,227.7L346.88,227.43L347,228.18L347.13,228.13L347.5,228.33L347.63,227.73L348,227.93L348.38,227.92L348.75,226.76L348.88,227.26L349.37,227.45L349.5,227.58L349.62,227.02L349.75,227.23L350.12,226.76L351.12,226.35L351.25,226.66L351.99,227.67L352.12,227.31L352.24,227.3L353.24,226.02L353.62,225.84L354.86,224.87L354.99,224.33L355.74,224.36L355.86,221.32L358.11,221.18L358.23,221.57L358.48,221.92L359.85,220.42L359.98,221.36L360.23,220.8L360.6,222.72L361.97,219.23L362.35,219.52L362.47,219.85L363.34,220.11L363.47,219.92L364.34,219.54L364.47,219.08L365.46,217.57L365.96,218.33L366.84,216.18L366.96,216.23L367.09,215.92L367.83,214.31L367.96,214.76L368.08,216.26L368.83,220.35L368.96,218.43L369.33,217.86L370.33,215.43L370.45,216.17L370.58,216.03L370.7,214.61L371.08,213.79L371.33,214.79L371.45,215.35L372.33,214.39L372.45,213.11L372.82,212.97L372.95,214.4L374.07,217.2L374.2,218.79L374.57,214.78L374.94,216.31L375.44,217.97L375.82,215.63L375.94,216.94L376.32,216.61L377.31,213.39L377.44,213.17L378.31,215.67L378.44,214.49L378.56,213.54L379.19,214.95L379.43,213.94L379.81,213.3L379.93,213.55L380.06,212.86L380.18,212.28L381.18,212.96L381.56,212.21L381.8,211.56L382.05,211.74L382.55,211.96L383.55,209.23L383.8,209.75L384.17,210.1L384.55,209.88L384.67,210.67L385.3,209.6L385.42,210.05L385.55,210.49L386.17,212.24L386.42,211.59L386.79,210.74L386.92,211.32L387.29,210.04L387.67,209.62L388.04,208.19L388.17,207.43L388.91,208.06L389.04,206.92L389.66,204.14L389.79,204.88L389.91,206.06L390.29,207.47L390.66,206.13L390.79,205.84L391.28,205.33L391.41,204.96L391.53,204.85L391.66,205.26L392.03,205.74L392.16,204.92L392.53,205.87L392.91,206.31L393.03,206.85L393.4,205.37L393.78,204.64L394.28,202.97L394.78,203.34L395.15,205.49L395.53,204.77L395.65,203.63L396.52,202.43L396.65,203.35L397.27,201.53L397.52,201.96L397.65,201.69L398.14,200.96L398.39,201.23L398.52,202.68L399.02,203.87L399.14,203.01L399.27,206.74L399.39,206.89L399.52,204.65L399.89,205.86L400.02,203.78L400.14,203.96L401.01,209.09L401.14,205.43L401.76,208.23L402.01,206.89L402.14,206.74L402.63,205.79L402.76,203.19L402.88,203.32L403.01,204.65L404.38,209.19L404.51,208.33L404.76,208.36L406,202.82L406.13,205.01L406.38,204.6L406.5,207.28L407.25,204.44L407.37,206.54L407.75,208.47L407.87,207.81L408.12,209.32L408.25,211.33L408.62,213.85L408.87,209.9L409.12,210.01L409.5,209.28L409.74,209.56L409.87,211.84L410.62,207.62L410.74,208.03L410.87,208.52L411.24,208.99L411.37,207.17L411.74,205.51L412.24,206.75L412.61,205.84L412.99,207.12L413.24,206.32L413.49,208.54L413.86,206.72L413.99,205.81L414.24,207.01L414.36,206.76L414.73,207.02L415.23,205.19L415.73,205.22L415.86,205.57L415.98,204.18L416.11,203.21L417.35,202.42L417.48,202.76L417.73,203.57L417.85,203.5L418.23,202.06L419.47,197.5L419.6,199.46L419.97,199.08L420.22,199.63L421.72,197.68L421.84,198.08L422.97,195.56L423.47,195.32L424.46,191.1L424.59,192.78L424.84,192.15L425.46,194.24L425.59,194.25L426.08,195.57L426.46,191.83L426.58,192.37L427.46,193.5L427.96,193.55L428.7,197.46L428.83,195.41L428.95,193.75L429.58,189.56L429.95,189.73L430.08,189.65L430.45,189.41L430.57,187.98L431.32,186.35L431.45,189.05L432.45,186.55L433.07,186.86L433.19,187.17L433.94,185.66L434.07,186.79L434.19,187.29L434.44,187.07L434.82,185.95L435.31,184.15L435.69,184.34L435.81,184.76L436.56,189.8L436.69,188.27L436.81,187.9L436.94,185.66L437.56,185.84L437.68,188.43L437.81,188.62L437.93,187.09L438.56,185.44L438.68,186.07L438.81,188.8L439.56,185.86L439.68,186.02L440.18,187.15L440.43,184.66L440.93,186.23L441.05,187.12L442.18,184.02L442.3,185.04L442.67,185.22L442.8,186.32L443.05,184.97L443.17,186.1L443.55,185.29L443.8,188.01L444.05,185.86L444.42,186.48L444.54,187.38L444.92,184.89L445.29,184.97L445.42,183.71L445.79,186.3L446.17,185.66L446.29,186.94L446.67,184.23L447.04,182.08L447.16,182.93L447.29,181.82L447.54,182.38L447.91,181.86L448.16,182.16L448.29,182.04L448.41,180.98L449.04,180.15L449.16,179.68L449.78,178.23L450.03,178.48L450.16,178.41L450.78,176.71L451.03,177.3L451.41,178.44L451.53,178.59L451.78,178.2L451.9,177.06L452.4,177.45L452.53,177.1L452.65,176.14L453.65,173.54L454.02,173.54L454.52,172.57L454.9,173.42L455.02,173.35L455.27,171.53L455.77,172.52L455.9,173.43L457.02,168.07L457.14,167.49L457.77,168.37L457.89,167.73L458.02,168.78L458.39,170.5L458.51,168.51L458.64,166.91L459.76,157.02L460.14,154.02L460.51,157.13L460.64,156.11L461.13,154.94L461.26,154.59L461.38,156.38L461.51,160.02L462.26,172.79L462.38,170.39L462.76,163.65L463.63,177.51L463.75,171.07L464.5,187.02L464.63,180.05L465.38,186.67L465.5,178.94L465.62,179.83L465.75,174.08L465.87,178.09L466.25,171.5L466.5,176.58L466.62,174.61L466.75,175.51L467.12,168.35L467.25,169.46L467.5,168.43L467.99,168.2L468.49,160.02L468.87,162.23L468.99,166.76L469.37,162.55L469.74,162.86L469.87,165.51L470.74,158.67L470.86,157.55L471.49,154.93L471.61,157.57L471.74,159.3L471.99,157.16L472.36,156.07L472.61,155.28L473.36,157.84L473.48,157.69L473.61,157.95L473.73,156.79L474.11,157.05L475.23,148.27L475.35,154.9L476.85,145.09L477.1,146.07L477.22,148.59L477.6,147.26L477.72,144.09L478.85,137.31L478.97,137.71L479.35,141.85L479.47,141.05L479.72,143.83L479.84,144.48L480.47,138.92L480.59,144.69L480.72,145.47L481.09,143.87L481.22,145.02L481.34,143.74L481.47,143.84L481.59,143.14L481.96,135.91L482.96,144.17L483.09,140.52L483.21,140.83L483.34,140.71L483.71,139.84L483.96,139.89L484.83,132.69L484.96,129.28L485.46,129.94L485.71,126.09L485.83,135.11L486.45,144.31L486.83,143.45L487.2,142.58L487.33,140.46L487.7,145.74L488.08,144.39L488.33,145.61L488.95,140.05L489.07,141.42L489.32,138.15L489.45,142.09L489.82,139.46L489.95,142.27L490.82,131.61L491.07,133.63L491.19,133.63L492.44,139.65L492.57,137.65L493.32,144.52L493.44,141.94L493.81,131.07L494.19,134.42L494.31,139.06L495.06,135.15L495.19,136.89L495.93,139.28L496.06,136.92L496.93,135.44L497.06,135.97L497.18,136.68L497.68,136.65L497.81,135.56L498.05,139.02L498.55,136.7L498.68,136.75L499.55,130.57L499.68,132.41L500.3,129.92L500.42,130.43L500.55,131.99L500.67,131.52L501.17,134.51L501.3,134.37L501.42,137.93L501.67,133.29L502.17,136.24L502.3,135.36L502.55,137.68L503.04,135.29L503.17,130.31L503.79,127.04L503.92,125.28L504.04,124.92L504.17,121.12L504.29,125.51L504.67,120.67L504.79,120.75L504.92,118.55L505.04,119.18L505.54,118.89L505.66,118.07L505.79,118.67L506.04,117.3L506.54,118.11L506.66,117.44L506.91,119.48L507.29,123.56L507.66,127.05L507.78,124.91L508.16,122.03L508.53,128.48L509.03,128.06L509.16,124.03L509.28,124.88L509.41,121.91L509.53,122.78L509.9,123.38L510.03,121.54L510.4,126.19L510.78,122.63L510.9,121.63L511.15,124.94L511.28,122.32L511.65,123.1L511.78,125.24L512.02,118.61L512.52,114.37L512.65,115.13L512.77,113.84L512.9,111.73L513.9,107L514.27,108.26L514.52,107.1L514.64,109.25L514.77,106.74L515.27,106.22L515.39,110.9L516.27,116.01L516.39,113.95L516.52,112.23L517.14,120.73L517.26,118.18L517.39,114.95L517.89,118.15L518.26,116.47L518.64,112.92L518.76,112.33L519.01,113.85L519.13,113.62L519.63,115.06L519.88,116.13L520.01,112.92L522.5,102.85L522.63,103.91L524.12,94.47L524.25,96.05L524.87,93.8L525,92.83L525.62,96.31L525.75,94.85L525.87,93.53L526.12,88.3L526.74,90.48L526.87,90.31L527.37,91.37L527.49,89.91L527.62,90.3L527.74,88.39L528.36,90.34L528.49,90.02L528.61,88.21L529.99,78.45L530.11,79.73L530.36,81.97L530.49,81.57L530.86,79.12L531.36,80.67L531.86,81.28L532.23,84.12L532.61,83.3L532.73,81.53L532.98,78.08L533.1,81.48L533.48,85.01L533.73,82.3L533.85,81.67L533.98,81.81L534.35,85.09L534.73,92.86L535.23,92.11L535.35,88.53L535.72,84.66L536.1,85.06L536.22,85.91L537.35,74.57L537.47,75.58L537.84,76.24L537.97,74.98L538.09,66.7L539.59,57.93L539.72,58.59L539.84,61.86L540.09,58.1L540.46,58.51L540.59,56.33L540.71,56.19L540.84,54.82L540.96,53.65L541.34,55.73L541.46,57.1L541.59,56.95L541.84,62.19L542.21,57.77L542.58,62.31L542.71,66.42L543.08,64.4L543.21,58.86L543.46,60.01L543.58,54.01L543.96,56.01L544.08,63.04L544.21,59.03L544.46,65.92L544.83,68.39L545.7,54.07L545.83,54.83L545.95,54.39L546.95,72.23L547.57,71.53L547.7,69.44L548.45,79.36L548.57,78.93L548.7,80.03L549.32,88.36L549.44,83.14L549.57,81.15L550.32,72.49L550.44,80.25L550.94,80.44L551.19,73.92L551.32,79.53L552.19,86.56L552.31,88.34L552.81,88.47L552.94,93.22L553.81,80.53L553.93,83.25L554.56,96.03L554.93,93.34L555.31,95.66L556.3,78.07L556.43,80.98L557.18,70.84L557.3,71.83L557.43,75.36L557.93,71.12L558.05,73.72L558.18,80.97L558.3,79.78L558.43,82.58L558.8,90.04L559.05,88.54L559.17,93.5L559.67,93.06L559.8,90.01L559.92,89.34L560.05,92.87L560.67,99.62L560.8,91.34L560.92,87.26L561.04,94.97L561.42,90.54L561.54,92.26L561.67,87.03L561.92,96.75L562.29,103.21L562.42,100.08L562.67,109.09L562.79,105.41L563.17,105.17L563.29,101.78L563.66,110.49L564.04,105.32L564.16,105.98L564.29,104.13L564.41,101.97L565.29,96.43L565.41,99.34L565.78,100.15L565.91,97.76L566.28,110.21L566.66,117.06L567.66,109.74L567.78,110.12L568.03,100.82L568.53,107.99L568.65,105.57L568.78,107.76L568.9,106.01L569.4,103.92L569.65,100.38L570.15,102.86L570.27,109.78L570.4,110.39L570.52,109.52L570.65,107.83L571.02,109.41L571.15,106.04L571.4,102.65L571.52,105.51L571.9,106.49L572.02,110.91L572.27,95.27L572.4,92.5L572.89,96.28L573.02,91.4L573.14,90.64L573.27,91.12L573.64,92.77L574.52,84.38L574.77,85.35L574.89,86.09L576.39,103.49L576.51,104.45L577.26,109.71L577.38,106.61L577.51,106.33L577.63,102.53L578.01,101.13L578.13,110.51L578.26,110.36L578.38,114.74L579.01,116.61L579.13,118.85L579.26,117.55L579.75,119.81L579.88,120.48L580.25,122.72L580.88,112.3L581,113.84L581.63,127.51L581.87,121.87L582,125.5L583.37,111.36L583.5,123.73L583.75,120.82L584.49,134.65L584.62,130.08L585.12,125.3L585.24,128.09L585.37,116.27L585.49,113.63L585.87,117.19L585.99,116.92L586.12,116.64L586.37,116.97L586.74,116.43L586.86,114.52L586.99,112.89L587.24,112.94L587.61,116.62L587.74,117.54L587.86,108.04L587.99,108.32L588.11,108.11L588.49,111.21L588.74,114.94L588.98,114.27L589.36,109.72L589.61,106.7L589.86,114.74L590.23,117.46L590.48,114.91L590.61,118.91L590.73,118.56L591.35,121.26L591.48,117.1L592.1,118.02L592.23,124.74L592.35,129.1L592.98,124.9L593.1,120.46L593.85,117.52L593.97,120.44L594.1,122.92L594.22,117.61L594.6,116.09L594.85,117.36L594.97,112.62L595.1,112.51L595.47,116.01L596.47,100.07L596.59,100.6L596.72,102.6L596.84,102.93L597.22,97.66L597.34,97.11L597.47,98.51L597.59,103.12L598.59,111.43L598.96,110.83L599.21,113.33L599.34,110.22L599.84,106.51L600.09,108.55L600.21,109.44L600.34,111.84L600.71,108.41L600.83,103.99L601.21,92.01L601.71,95.64L601.83,96.6L602.95,86.3L603.33,86.99L603.58,88.85L603.7,84.18L604.2,85.6L604.33,89.82L604.58,85.31L604.7,87.69L605.08,85.98L605.57,87.94L605.95,90.5L606.07,94.58L606.2,81.76L606.32,75.67L606.45,74.11L606.95,75.3L607.07,75.95L607.32,71.93L607.69,73.22L607.82,74.28L607.94,70.86L608.57,72.7L608.69,71.23L609.44,64.71L609.57,68.52L609.69,69.43L609.81,61.65L609.94,57.16L610.56,60.06L610.69,57.36L611.19,55.19L611.31,56.65L611.44,63.29L612.43,47.36L612.56,51.08L613.06,53.83L613.31,52.76L613.81,59.92L613.93,56.08L614.31,52.23L614.68,53.87L614.93,53.77L615.05,51.76L615.18,54.37L615.55,57.84L615.68,57.43L615.8,54.38L616.55,40.02L616.68,42.86L616.8,48.15L616.92,50.15L617.3,49.28L617.42,45.5L617.67,58.56L618.3,54.94L618.42,60.63L618.55,61.18L618.67,60.45L619.05,58.95L619.54,64.82L620.04,64.27L620.17,64.77L620.42,67.3L620.79,63.82L620.92,63.44L621.17,65.05L621.79,59.6L621.91,59.35L622.04,60.02L622.16,59.44L622.66,56.28L622.91,58.63L623.04,55.81L623.54,57.43L623.78,52.95L623.91,58.43L624.41,59.44L624.53,64.53L625.28,70.11L625.66,67.78L626.03,63.87L626.15,69.3L626.53,60.34L626.9,58.69L627.15,57.01L627.4,60.04L627.78,56.87L628.03,58.5L628.15,57.72L628.28,60.72L628.77,58.23L628.9,51.68L629.02,59.93L629.65,53.33L629.77,48.19L631.64,28.26L631.77,32.35L632.39,27.17L632.64,27.45L633.02,26.68L633.14,24.03L633.51,29.34L633.89,32.81L634.14,33.03L634.39,29.52L634.76,31.41L634.89,29.42L635.14,34.89L635.26,31.78L635.63,30.54L635.88,31.85L636.63,29.24L636.76,29.62L637.01,28.34L637.51,31.69L637.63,31.87L637.75,33.59L637.88,33.71L638.25,29.22L638.5,23.99L638.63,22.79L639.63,13.7L640,15.15" style="vector-effect: none; fill: none; stroke: rgb(148, 103, 189); stroke-opacity: 1; stroke-width: 2px; opacity: 1;"/></g><g class="points"/><g class="text"/></g><g class="trace scatter tracef3333475-9a18-43b5-a7ec-887d1d7878df" style="stroke-miterlimit: 2; opacity: 0;"><g class="fills"/><g class="errorbars"/><g class="lines"><path class="js-line" d="M0,256.51L640,256.51" style="vector-effect: none; fill: none; stroke: rgb(0, 0, 0); stroke-opacity: 0; stroke-width: 0px; opacity: 1;"/></g><g class="points"/><g class="text"/></g></g></g><g class="overplot"/><path class="xlines-above crisp" d="M0,0" style="fill: none;"/><path class="ylines-above crisp" d="M0,0" style="fill: none;"/><g class="overlines-above"/><g class="xaxislayer-above"><g class="xtick"><text text-anchor="middle" x="0" y="333" transform="translate(120.68,0)" style="font-family: 'Open Sans', verdana, arial, sans-serif; font-size: 12px; fill: rgb(214, 223, 239); fill-opacity: 1; white-space: pre; opacity: 1;">2012</text></g><g class="xtick"><text text-anchor="middle" x="0" y="333" style="font-family: 'Open Sans', verdana, arial, sans-serif; font-size: 12px; fill: rgb(214, 223, 239); fill-opacity: 1; white-space: pre; opacity: 1;" transform="translate(211.86,0)">2014</text></g><g class="xtick"><text text-anchor="middle" x="0" y="333" style="font-family: 'Open Sans', verdana, arial, sans-serif; font-size: 12px; fill: rgb(214, 223, 239); fill-opacity: 1; white-space: pre; opacity: 1;" transform="translate(302.91,0)">2016</text></g><g class="xtick"><text text-anchor="middle" x="0" y="333" style="font-family: 'Open Sans', verdana, arial, sans-serif; font-size: 12px; fill: rgb(214, 223, 239); fill-opacity: 1; white-space: pre; opacity: 1;" transform="translate(394.09,0)">2018</text></g><g class="xtick"><text text-anchor="middle" x="0" y="333" style="font-family: 'Open Sans', verdana, arial, sans-serif; font-size: 12px; fill: rgb(214, 223, 239); fill-opacity: 1; white-space: pre; opacity: 1;" transform="translate(485.15,0)">2020</text></g><g class="xtick"><text text-anchor="middle" x="0" y="333" style="font-family: 'Open Sans', verdana, arial, sans-serif; font-size: 12px; fill: rgb(214, 223, 239); fill-opacity: 1; white-space: pre; opacity: 1;" transform="translate(576.33,0)">2022</text></g><g class="xtick"><text text-anchor="middle" x="0" y="333" style="font-family: 'Open Sans', verdana, arial, sans-serif; font-size: 12px; fill: rgb(214, 223, 239); fill-opacity: 1; white-space: pre; opacity: 1;" transform="translate(667.38,0)">2024</text></g></g><g class="yaxislayer-above"><g class="ytick"><text text-anchor="end" x="29" y="4.199999999999999" transform="translate(0,317.7)" style="font-family: 'Open Sans', verdana, arial, sans-serif; font-size: 12px; fill: rgb(214, 223, 239); fill-opacity: 1; white-space: pre; opacity: 1;">0</text></g><g class="ytick"><text text-anchor="end" x="29" y="4.199999999999999" style="font-family: 'Open Sans', verdana, arial, sans-serif; font-size: 12px; fill: rgb(214, 223, 239); fill-opacity: 1; white-space: pre; opacity: 1;" transform="translate(0,241.74)">5</text></g><g class="ytick"><text text-anchor="end" x="29" y="4.199999999999999" style="font-family: 'Open Sans', verdana, arial, sans-serif; font-size: 12px; fill: rgb(214, 223, 239); fill-opacity: 1; white-space: pre; opacity: 1;" transform="translate(0,165.78)">10</text></g><g class="ytick"><text text-anchor="end" x="29" y="4.199999999999999" style="font-family: 'Open Sans', verdana, arial, sans-serif; font-size: 12px; fill: rgb(214, 223, 239); fill-opacity: 1; white-space: pre; opacity: 1;" transform="translate(0,89.82)">15</text></g></g><g class="overaxes-above"/></g></g><g class="polarlayer"/><g class="smithlayer"/><g class="ternarylayer"/><g class="geolayer"/><g class="funnelarealayer"/><g class="pielayer"/><g class="iciclelayer"/><g class="treemaplayer"/><g class="sunburstlayer"/><g class="glimages"/><defs id="topdefs-a77ee3"><g class="clips"/><clipPath id="legenda77ee3"><rect width="192" height="29" x="0" y="0"/></clipPath></defs><g class="layer-above"><g class="imagelayer"/><g class="shapelayer"><g class="shape-group" data-index="0" clip-path="url(#clipa77ee3y)"><path data-index="0" fill-rule="evenodd" d="M30,302.51L670,302.51" style="opacity: 1; stroke: rgb(128, 128, 128); stroke-opacity: 1; fill: rgb(0, 0, 0); fill-opacity: 0; stroke-dasharray: 9px, 9px; stroke-width: 2px;"/></g></g></g><g class="infolayer"><g class="legend" pointer-events="all" transform="translate(478,11.519999999999996)"><rect class="bg" shape-rendering="crispEdges" style="stroke: rgb(68, 68, 68); stroke-opacity: 1; fill: rgb(33, 34, 38); fill-opacity: 1; stroke-width: 0px;" width="192" height="29" x="0" y="0"/><g class="scrollbox" transform="" clip-path="url(#legenda77ee3)"><g class="groups"><g class="traces" transform="translate(0,14.5)" style="opacity: 1;"><text class="legendtext" text-anchor="start" x="40" y="4.680000000000001" style="font-family: 'Open Sans', verdana, arial, sans-serif; font-size: 12px; fill: rgb(214, 223, 239); fill-opacity: 1; white-space: pre;">Benchmark</text><g class="layers" style="opacity: 1;"><g class="legendfill"/><g class="legendlines"><path class="js-line" d="M5,0h30" style="fill: none; stroke: rgb(127, 127, 127); stroke-opacity: 1; stroke-width: 2px;"/></g><g class="legendsymbols"><g class="legendpoints"/></g></g><rect class="legendtoggle" x="0" y="-9.5" width="110.421875" height="19" style="fill: rgb(0, 0, 0); fill-opacity: 0;"/></g><g class="traces" transform="translate(112.921875,14.5)" style="opacity: 1;"><text class="legendtext" text-anchor="start" x="40" y="4.680000000000001" style="font-family: 'Open Sans', verdana, arial, sans-serif; font-size: 12px; fill: rgb(214, 223, 239); fill-opacity: 1; white-space: pre;">Value</text><g class="layers" style="opacity: 1;"><g class="legendfill"/><g class="legendlines"><path class="js-line" d="M5,0h30" style="fill: none; stroke: rgb(148, 103, 189); stroke-opacity: 1; stroke-width: 2px;"/></g><g class="legendsymbols"><g class="legendpoints"/></g></g><rect class="legendtoggle" x="0" y="-9.5" width="75.953125" height="19" style="fill: rgb(0, 0, 0); fill-opacity: 0;"/></g></g></g><rect class="scrollbar" rx="20" ry="3" width="0" height="0" style="fill: rgb(128, 139, 164); fill-opacity: 1;" x="0" y="0"/></g><g class="g-gtitle"/><g class="g-xtitle"/><g class="g-ytitle"/></g></svg>