<svg class="main-svg" xmlns="http://www.w3.org/2000/svg" xmlns:xlink="http://www.w3.org/1999/xlink" width="700" height="350" style="" viewBox="0 0 700 350"><rect x="0" y="0" width="700" height="350" style="fill: rgb(33, 34, 38); fill-opacity: 1;"/><defs id="defs-ecde91"><g class="clips"><clipPath id="clipecde91xyplot" class="plotclip"><rect width="634" height="274"/></clipPath><clipPath class="axesclip" id="clipecde91x"><rect x="36" y="0" width="634" height="350"/></clipPath><clipPath class="axesclip" id="clipecde91y"><rect x="0" y="46" width="700" height="274"/></clipPath><clipPath class="axesclip" id="clipecde91xy"><rect x="36" y="46" width="634" height="274"/></clipPath></g><g class="gradients"/><g class="patterns"/></defs><g class="bglayer"/><g class="layer-below"><g class="imagelayer"/><g class="shapelayer"/></g><g class="cartesianlayer"><g class="subplot xy"><g class="layer-subplot"><g class="shapelayer"/><g class="imagelayer"/></g><g class="minor-gridlayer"><g class="x"/><g class="y"/></g><g class="gridlayer"><g class="x"><path class="xgrid crisp" transform="translate(123.15,0)" d="M0,46v274" style="stroke: rgb(49, 52, 57); stroke-opacity: 1; stroke-width: 1px;"/><path class="xgrid crisp" transform="translate(258.98,0)" d="M0,46v274" style="stroke: rgb(49, 52, 57); stroke-opacity: 1; stroke-width: 1px;"/><path class="xgrid crisp" transform="translate(394.62,0)" d="M0,46v274" style="stroke: rgb(49, 52, 57); stroke-opacity: 1; stroke-width: 1px;"/><path class="xgrid crisp" transform="translate(530.45,0)" d="M0,46v274" style="stroke: rgb(49, 52, 57); stroke-opacity: 1; stroke-width: 1px;"/><path class="xgrid crisp" transform="translate(666.1,0)" d="M0,46v274" style="stroke: rgb(49, 52, 57); stroke-opacity: 1; stroke-width: 1px;"/></g><g class="y"><path class="ygrid crisp" transform="translate(0,298.40999999999997)" d="M36,0h634" style="stroke: rgb(49, 52, 57); stroke-opacity: 1; stroke-width: 1px;"/><path class="ygrid crisp" transform="translate(0,255.05)" d="M36,0h634" style="stroke: rgb(49, 52, 57); stroke-opacity: 1; stroke-width: 1px;"/><path class="ygrid crisp" transform="translate(0,211.69)" d="M36,0h634" style="stroke: rgb(49, 52, 57); stroke-opacity: 1; stroke-width: 1px;"/><path class="ygrid crisp" transform="translate(0,168.32999999999998)" d="M36,0h634" style="stroke: rgb(49, 52, 57); stroke-opacity: 1; stroke-width: 1px;"/><path class="ygrid crisp" transform="translate(0,124.97)" d="M36,0h634" style="stroke: rgb(49, 52, 57); stroke-opacity: 1; stroke-width: 1px;"/><path class="ygrid crisp" transform="translate(0,81.61)" d="M36,0h634" style="stroke: rgb(49, 52, 57); stroke-opacity: 1; stroke-width: 1px;"/></g></g><g class="zerolinelayer"/><path class="xlines-below"/><path class="ylines-below"/><g class="overlines-below"/><g class="xaxislayer-below"/><g class="yaxislayer-below"/><g class="overaxes-below"/><g class="plot" transform="translate(36,46)" clip-path="url(#clipecde91xyplot)"><g class="scatterlayer mlayer"><g class="trace scatter tracea1cd30d2-4d86-4e0c-88f8-2ca41ce6abe9" style="stroke-miterlimit: 2; opacity: 1;"><g class="fills"/><g class="errorbars"/><g class="lines"><path class="js-line" d="M0,252.41L1.11,253.47L1.3,253L1.86,252.96L2.04,252.96L2.23,253.77L3.16,253.33L3.34,254.06L3.53,253.23L3.72,254.12L3.9,255.6L5.02,256.48L5.2,255.93L5.76,255.38L6.5,253.67L7.06,253.79L7.25,253.3L7.43,254.19L7.62,254.64L8.55,253.78L8.73,254.06L9.85,253.67L10.03,253.74L10.96,253.9L11.15,254.06L12.26,254.4L12.45,254.1L13.01,253.61L13.56,254.07L15.61,254.51L16.17,254.89L16.35,256.2L16.72,254.4L16.91,253.95L18.21,253.2L18.77,253.57L20.25,255.58L20.44,255.43L20.63,254.6L21.93,256.08L22.11,255.48L23.04,255.06L23.23,254.11L23.97,254.19L24.16,256.21L24.34,256.79L24.71,256.49L25.27,256.52L26.01,256.23L26.57,256.36L27.31,255.13L28.06,255.3L31.03,253.54L31.22,254.19L31.77,254.12L31.96,255.06L33.08,255.07L33.26,254.88L34.38,253.4L34.56,252.93L35.12,254.38L35.68,254.31L36.23,255.3L36.98,254.68L38.84,254.53L39.02,255.24L41.07,252.18L41.25,252.32L42.37,253.74L42.55,254.24L43.48,253.67L43.67,253.94L44.04,252.55L44.22,252.92L44.78,252.92L47.57,253.07L47.75,252.68L48.87,253.7L49.06,252.88L49.98,253.72L50.36,253.29L50.54,252.62L50.73,252.85L51.28,252.35L51.47,251.77L52.03,252.2L52.59,253.17L53.14,252.73L53.89,252.73L54.44,253.02L54.63,252.34L55.74,250.07L55.93,246.99L56.67,246.25L56.86,247.04L57.05,247.65L57.79,248.52L57.97,248.28L58.16,247.63L59.27,247.78L59.46,247.04L60.39,247.79L60.58,247.52L61.88,246.91L62.06,246.96L63.18,253.11L63.36,250.51L63.73,249.42L64.29,250.12L64.48,251.5L65.04,251.07L65.78,250.08L65.96,250.18L66.15,249.64L66.34,249.47L66.89,249.63L67.08,248.92L67.26,248.71L68.19,248.35L68.38,249.22L68.75,248.91L68.94,249.56L69.49,250.8L69.68,251.26L69.87,250.03L70.05,249.64L70.8,247.73L71.17,248.02L71.35,247.87L72.65,246.74L72.84,246.24L73.4,245.92L73.58,246.62L73.77,246.98L75.07,241.99L75.25,241.87L75.44,242.81L76,242.13L76.18,241.95L76.56,240.45L76.74,240.57L77.3,241.08L77.67,240.52L77.86,241.02L78.04,242.32L79.9,240.35L80.09,240.72L81.2,241.13L81.39,239.83L81.76,241.03L81.94,239.89L82.5,240.18L82.69,239.97L82.87,240.88L83.06,240.69L83.25,241.91L83.8,240.81L83.99,240.87L84.17,239.77L84.55,241.38L85.1,240.93L85.66,240.5L86.4,239.85L86.59,239.14L86.96,240.34L87.7,241.45L87.89,241.22L88.08,241.55L88.26,243.51L89.01,243.74L89.19,242.95L89.75,245.16L90.49,245.04L90.86,245.08L91.05,243.36L91.98,245.01L92.16,241.3L92.91,238.82L93.09,239.2L93.28,240.58L94.39,245.07L94.58,244.53L95.69,243.61L95.88,242.18L96.07,242.92L96.25,242.72L96.81,241.81L97,242.88L97.55,242.2L98.11,242.7L98.48,240.95L98.85,241.75L99.41,242.98L101.27,239.76L101.45,240.12L102.01,239.77L103.31,239.74L103.5,238.62L104.61,239.07L104.8,239.57L104.99,238.88L105.36,239.88L105.91,240.27L107.22,238.6L107.4,238.55L107.59,238.81L107.77,238.44L107.96,241.25L108.52,241.13L108.7,241.99L108.89,242.22L109.07,241.48L109.26,241.27L111.67,239.76L111.86,240.06L112.42,239.91L112.6,240.7L113.16,240.63L113.72,241.18L114.46,239.09L115.21,238.95L117.06,240.22L117.62,241.17L118.18,241.19L118.36,242.01L119.29,241.42L119.48,240.8L120.22,243.85L120.41,242.6L120.97,241.32L121.71,241.44L123.01,239.44L123.2,239.63L125.42,237.03L125.61,237.1L126.73,235.55L126.91,235.79L127.1,235.8L128.21,234.73L128.4,234.8L129.33,235.01L129.51,235.34L129.7,235L130.07,235.27L130.63,235.21L133.79,234.01L133.97,235.33L135.27,234.41L135.83,234.65L136.2,233.91L136.39,233.61L137.13,234.73L137.32,233.95L137.87,234.3L138.43,234.35L139.18,234.18L139.73,233.55L140.29,234.6L140.48,234.41L141.03,234.49L142.33,231.52L142.52,231.88L142.71,232.38L144.38,235.88L144.94,234.58L145.12,233.94L145.31,234.38L145.49,235.9L146.24,237.79L146.42,236.51L146.61,236.3L147.72,234.75L147.91,235.24L149.02,234.77L149.21,235.81L149.4,237.05L149.58,236.97L150.14,235.95L150.32,236.11L150.51,235.17L152.74,233.7L152.93,233.69L154.6,234.7L154.78,235.44L157.39,231.87L158.13,232.1L158.69,232.16L159.24,231.35L159.99,229.83L160.54,230.77L161.1,231.56L161.29,231.32L161.84,231.1L165.93,229.66L166.12,228.72L166.3,229.31L166.49,229.17L167.05,229.16L169.65,227.99L169.83,228.91L170.02,228.45L170.39,228.68L170.95,228.56L171.69,227.77L172.25,227.62L174.11,228.75L174.85,227.84L175.22,227.79L175.41,227.27L176.71,224.9L176.9,223.58L178.01,222.63L178.2,222.79L178.75,222.45L180.05,222.77L180.24,222.27L180.43,224.35L180.8,223.39L181.36,222.88L182.84,220.71L183.03,221.28L183.21,221.15L183.4,220.04L184.51,219.58L184.7,221.87L185.26,222.46L185.44,221.56L185.81,222.21L186,222.06L186.56,220.97L186.74,221.54L187.12,221.03L187.3,220.19L189.16,224L189.53,223.05L189.72,223.6L189.9,222.51L190.46,221.72L192.32,217.3L192.5,217.42L193.06,217.09L193.43,217.8L193.8,217.03L194.36,218.04L196.03,217.88L196.22,219.33L197.34,217.49L197.52,218.87L198.26,218.95L198.45,217.81L199.57,218.66L199.75,218.25L200.12,216.49L200.31,216.84L201.05,217.44L202.54,216.26L202.72,217.04L203.84,216.59L204.02,217.02L204.21,217.16L204.77,219.18L205.51,216.35L206.07,216.72L206.25,216.63L206.44,216.9L206.63,215.52L208.11,214.02L208.67,213.78L209.41,213.42L209.97,214.57L210.53,214.57L210.71,210.56L212.94,209.41L213.13,209.86L214.24,210.61L214.43,209.95L215.17,210.66L215.36,209.31L215.55,209.66L215.92,209.14L216.47,208.53L216.66,208.51L216.85,210.99L217.03,210.37L217.22,210.99L217.77,213.03L219.08,209.3L219.26,209.64L219.45,209.41L219.63,209.46L219.82,208.07L220.38,207.8L220.56,208.35L220.75,208.9L222.42,209.64L223.16,208.11L224.28,205.09L224.46,205.22L225.76,206.51L225.95,205.86L226.14,205.54L227.62,201.11L228.18,201.93L228.37,202.32L228.55,201.5L228.74,200.61L230.04,211.81L230.22,209L230.78,208.43L230.97,208.82L231.15,206.73L231.34,205.59L231.53,206.19L232.27,206.01L232.64,205.63L232.83,203.63L233.38,202.5L233.57,204.17L233.94,206.75L234.13,206.25L234.68,205.1L234.87,205.17L235.06,203.93L235.24,203.65L235.43,201.66L235.98,201.55L236.17,203.49L236.73,202.96L237.29,206.68L238.03,212.77L238.59,209.8L238.77,213.81L239.14,211.08L239.89,213.4L240.44,210.91L240.63,212.56L241.19,212L241.75,209.56L241.93,209.63L242.49,208.97L243.05,206.69L243.23,207.68L243.79,207.73L244.16,211.1L244.35,207.28L244.53,207.15L245.09,208.52L245.46,207.59L245.65,207.77L246.95,202.48L247.13,202.32L247.69,202.2L247.88,203.39L248.43,204.24L248.99,203.14L249.18,203.51L249.36,202.3L249.55,202.6L249.74,202.81L250.48,203.15L250.66,202.26L251.78,198.45L251.96,198.74L252.15,200.16L252.34,199.78L252.89,199.33L254.57,196.08L254.75,196.77L254.94,196.97L255.5,199.36L255.68,198.8L255.87,200.27L256.05,199.6L256.24,199.9L256.8,198.57L256.98,200.36L258.1,195.98L258.28,196.12L258.47,196.25L258.84,193.42L259.4,193.8L259.58,192.55L259.95,193.75L260.14,192.81L260.7,191.75L261.07,188.03L261.26,195.85L262,199.56L262.18,199.11L262.37,199.08L263.49,195.41L263.67,194.82L264.6,196.5L264.79,195.63L265.9,198.85L266.09,199.23L267.76,195.42L267.94,196.19L268.69,197.73L268.87,199.84L269.25,201.21L269.8,200.67L269.99,199.37L270.55,199.61L271.1,200.78L272.4,198.57L272.59,198.39L272.96,197.35L273.15,198.19L273.71,198.11L275.01,201.92L275.19,201.59L275.38,206.1L275.56,205.85L275.75,203.85L276.31,204.98L276.49,202.13L276.68,202.24L276.86,204.53L277.61,203.85L277.79,204.35L277.98,209.21L278.16,205.19L278.35,207.15L278.91,209.97L279.28,205.85L279.65,206.79L280.21,207.02L280.58,203.75L280.77,204.82L280.95,206.51L281.51,208.71L281.88,208.57L282.07,207.47L283,212.43L283.55,212.11L284.11,209.49L284.3,209.61L284.48,207L284.85,205.94L285.41,205.29L286.15,210.08L286.71,208.17L287.27,206.47L287.46,208.32L288.57,212.48L288.76,215.92L289.31,217.62L289.69,212.08L289.87,211.69L290.06,212.35L290.61,212.38L290.99,211.45L291.17,214.13L292.1,208.88L292.29,208.16L293.22,209.41L293.4,206.92L293.59,206.99L293.77,206.37L293.96,205.32L294.89,207.26L295.07,207.16L295.26,205.83L296,208.89L296.19,205.91L297.12,201.6L297.3,200.5L298.42,203.34L298.6,202.32L299.16,202.54L299.91,202.43L300.28,202.81L300.46,201.64L302.32,199.31L302.51,198.4L302.69,198.25L302.88,199.68L303.06,199.57L303.62,197.63L303.99,196.35L304.36,197.46L304.92,197.96L305.48,194.89L305.67,196.96L306.41,196.48L306.59,197.48L306.78,197.62L306.97,196.96L307.52,195.69L308.08,193.73L308.27,193.8L308.82,194.01L310.5,191.91L310.68,191.44L311.61,189.02L311.8,189.64L311.98,186.09L312.73,184.91L312.91,187.21L313.28,189.62L313.47,187.62L314.03,188.07L314.58,190.55L314.77,190.06L315.33,193.34L315.51,193.31L315.7,190.59L315.89,189.14L316.07,190.12L316.63,191.8L317,190.56L317.19,192.14L317.37,192.25L318.11,191.65L318.3,192.93L318.49,192.47L318.67,194.55L319.23,199.94L319.6,197.02L319.79,196.24L320.72,192.19L320.9,193.01L322.57,187.06L323.13,186.72L323.5,189.81L323.88,188.75L324.43,187.76L325.18,185.88L325.73,186.41L327.03,183.44L327.22,184L327.78,185.69L328.33,184.16L328.71,182.94L328.89,183.94L329.08,181.12L329.82,182.37L330.01,184.51L330.19,184.33L330.38,185.78L330.94,189.72L331.31,187.54L331.49,184.66L332.24,187.36L332.42,185.31L332.61,189.12L332.98,187.29L333.54,185.55L334.28,189.93L334.84,188.33L335.21,187.97L335.4,185.91L335.58,186.06L336.32,187.79L336.7,183.83L336.88,184.93L337.44,185.25L337.63,186.21L338,184.78L338.18,184.78L338.74,185.5L338.93,184.84L339.11,184.38L339.3,182.99L339.48,183.8L340.04,184.36L340.78,186.85L341.34,186.34L341.71,189.51L341.9,187.79L342.08,186.46L342.64,187L342.83,188.29L343.39,185.12L343.94,185.28L344.13,182.97L344.69,184.9L345.24,183.83L345.43,185.98L345.8,183.59L345.99,182.92L347.29,180.65L347.85,179.75L348.4,180.23L348.59,179.52L349.15,179.96L349.33,178.76L349.52,178.94L349.7,178.38L349.89,176.79L350.63,176.36L350.82,177.04L351,177.05L351.19,177L351.75,175.98L352.12,175.04L352.49,175.62L353.05,176.97L353.23,177.07L353.42,176.33L353.61,175.99L354.35,174.76L354.53,174.92L355.65,173.55L355.84,173.88L356.95,171.61L357.14,171.97L357.69,170.63L358.25,172.14L358.44,171.95L358.81,169.42L358.99,170.48L359.55,168.74L359.74,169.22L359.92,167.72L360.11,166.12L360.29,166.2L360.85,164.56L361.04,165.71L361.41,163.36L361.6,162.27L362.71,162.72L362.9,164.07L363.45,166.4L363.64,164.33L363.83,162.29L364.2,166.07L364.75,163.05L366.06,155.9L366.24,158.4L367.54,155.26L367.73,155L369.21,175.1L369.4,172.71L369.96,167.16L370.7,176.01L371.26,183.81L371.44,177.26L371.63,182.76L371.82,193.04L372,180.9L372.56,196.77L372.74,191.25L373.3,195.54L373.86,196.64L374.42,184.34L374.6,189L375.16,182.84L375.35,183.17L375.53,187.85L375.72,186.68L375.9,188.49L376.46,180.31L376.65,180.33L376.83,178.17L377.76,177.87L377.95,173.13L378.13,174.17L378.32,172.53L378.5,170.93L379.06,172.75L379.25,177.78L379.81,170.36L380.36,171.15L380.55,174.36L380.73,167.05L380.92,164.38L381.11,167.12L381.66,164.97L381.85,163.36L382.96,158.88L383.15,161.57L383.34,164.08L383.71,161.26L384.26,159.94L384.45,159.95L384.64,155.82L384.82,156.38L385.01,155.54L385.75,156.52L386.12,157.9L386.31,156.97L386.87,155.82L387.05,154.78L387.24,155.17L387.42,157.32L388.54,149.41L388.72,156.81L390.03,150.46L390.21,150.56L390.77,148L390.95,146.67L391.14,150.33L391.33,148.97L391.51,155.85L392.25,150.03L392.44,147.1L393.37,143.16L393.56,144.13L393.74,141.73L394.11,140.32L394.67,144.35L394.86,143.57L395.23,145L395.41,145.11L395.97,140.37L396.34,141.32L396.53,146.98L396.71,147.96L397.27,146.06L397.46,147.93L397.83,145.64L398.02,142.91L399.13,136.46L399.32,137.36L399.87,139.86L400.06,143.19L400.43,139.54L400.62,139.77L401.17,139.04L401.36,137.46L401.55,138.12L401.73,134.5L401.92,135.42L402.47,134.15L403.22,123.49L403.78,124.98L404.15,119.05L404.33,128.19L405.26,139.45L405.45,135.45L405.82,140.01L406.38,139.79L406.56,136.84L407.68,145.99L407.86,142.38L408.05,147L408.42,142.73L408.98,141.33L409.35,139.92L409.54,137.78L410.46,142.39L410.65,140.95L411.77,130.55L411.95,132.12L412.14,133.67L412.32,133.53L412.88,137.14L413.62,129.65L414.18,134.35L414.37,131.77L414.55,140.4L414.74,136.16L414.92,138.8L415.48,138.98L416.04,122.3L416.23,122.45L416.78,126.96L416.97,131.24L417.53,127.68L418.08,127.02L418.83,131.8L419.38,132.34L420.13,127.42L420.68,128.75L421.06,124.66L421.43,126.49L421.99,125.58L422.17,125.53L422.36,128.8L422.54,129.63L422.73,129.18L423.29,129.27L423.66,127.13L424.03,127.97L424.59,127.06L424.96,128.63L425.14,128.02L425.89,124.53L427.19,129.67L427.37,128.89L427.56,132.66L427.93,127.55L428.49,131.26L429.05,135.49L429.23,134.63L429.98,130.16L430.53,121.82L431.09,119.89L431.28,117.85L431.46,121.62L431.65,120.05L431.83,124.3L433.13,112.72L433.69,113.01L434.43,111.17L435.18,110.59L435.36,110.11L435.55,111.33L435.74,114.17L436.85,121.32L437.04,119.46L437.59,115.39L437.97,121.79L438.15,121.12L438.34,116.7L438.89,121.96L439.08,117.03L439.27,117.76L439.45,112.93L439.64,115.63L440.2,114.85L440.57,111.52L440.75,116.15L440.94,114.01L441.5,111.34L441.68,111.08L441.87,113.6L442.05,115.31L442.24,113.27L442.8,111.74L442.98,113.42L443.17,110.47L443.35,105.83L444.84,95.24L445.4,96.02L445.58,95.22L445.77,97.81L446.14,94.43L446.7,95.69L446.88,96.03L447.07,95.47L447.26,98.18L448,94.09L448.19,94.3L448.37,94.57L448.56,90.32L448.74,92.19L449.3,93.02L449.67,96.96L450.04,93.25L450.6,98.94L450.79,99.68L450.97,104.58L451.34,97.07L451.9,97.94L452.09,100.31L453.57,91.11L453.76,91.34L453.95,92.1L454.87,92.52L455.06,94.19L455.8,88.13L455.99,89.19L456.18,89.25L457.1,84.88L457.29,85.9L457.48,87.6L457.66,84.91L457.85,87.47L458.41,85.06L458.96,81.31L459.15,82.22L459.71,78.28L459.89,78.17L460.08,79.21L461.19,73.97L461.38,73.47L461.56,75.92L461.75,74.63L462.31,73.64L462.68,72.27L462.86,73.96L463.05,74.68L463.61,77.9L463.79,75.45L463.98,73.24L464.91,62.63L465.09,65.38L465.28,62.47L465.65,66.73L466.21,67.51L466.77,63.17L466.95,63.33L467.51,63.52L467.88,64.6L468.07,62.68L468.25,61.27L468.81,59.76L469,62.58L469.18,64.34L469.37,62.19L469.55,57.94L470.48,54.86L470.67,56.92L471.41,50.83L471.78,50.89L471.97,53.3L472.9,51.88L473.08,53.01L473.46,55.71L474.01,54.97L474.2,53.9L474.39,51.74L474.57,52.15L474.76,56.89L475.69,61.58L475.87,60.28L476.06,58.58L476.61,60.81L476.8,69.4L477.17,71.22L477.36,66.69L477.92,73.25L478.1,68.92L478.29,66.55L478.66,65.55L479.22,67.03L479.4,68.99L479.59,67.12L479.77,62.44L479.96,62.53L480.52,58.82L481.07,56.83L481.26,62.65L481.82,62.31L482,63.13L482.56,50.06L483.12,51.82L483.86,44.87L484.42,44.93L484.6,45.95L484.79,50.61L485.16,44.77L485.72,43.87L486.09,44.05L486.28,42.83L486.46,41.4L487.02,44.59L487.76,51.55L488.32,46.62L489.06,58.83L489.62,55.12L490.37,44.93L490.92,46.18L491.67,53.68L492.22,56.64L492.78,47.15L493.52,41.95L495.01,50.09L495.2,59.93L495.38,59.28L495.57,59.69L496.13,59.51L496.5,55.84L496.68,63.14L496.87,59.83L497.61,66.67L497.8,66.59L497.98,68.61L498.91,79.25L499.1,76.32L499.28,75.34L499.47,69.03L500.21,63.6L500.4,56.28L501.33,83.03L501.51,82.55L501.7,77L501.89,82.22L502.07,88.42L502.63,88.19L502.81,85.16L503,85.57L503.19,92.74L504.3,100.46L504.49,91.34L505.23,88.12L505.42,91.33L505.6,88.4L505.79,91.16L505.97,94.76L506.72,103.75L506.9,94.8L507.83,104.77L508.02,98.49L508.58,86.02L509.13,87.4L509.88,81.25L510.43,78.58L510.62,75.28L510.99,80.78L511.18,79.42L511.73,74.46L511.92,77.4L512.11,84.88L512.29,84.61L512.48,87.5L513.59,98.85L514.34,98.05L514.52,94.06L514.71,97.76L514.89,103.52L515.82,111.48L516.01,110.14L516.19,100.18L516.38,107.48L516.94,101.9L517.12,102.31L517.31,95L518.24,113.54L518.42,110.66L518.79,117.52L518.98,112.61L519.54,112.98L519.72,109.68L519.91,118.02L520.1,119.25L520.28,119.73L520.84,115.18L521.02,120.95L521.4,115.97L521.58,110.6L522.51,111.33L522.7,106.9L522.88,111.46L523.44,110.18L523.63,108.45L523.81,108.97L524,114.41L524.74,129.96L524.93,129.13L525.11,124.09L525.3,129.82L525.48,127.82L526.23,124.83L526.41,125.3L526.6,122.4L526.78,114.46L527.34,116.59L527.53,122.98L527.71,121.21L527.9,124.21L528.09,123.58L528.83,118.77L529.2,113.45L529.39,113.68L529.94,118.02L530.5,125.09L530.69,122.26L531.24,123.97L531.8,114.78L531.99,122L532.55,123.2L532.73,128.2L532.92,116.55L533.1,114.96L533.29,112.75L533.85,114.25L534.03,115.18L534.4,108.72L534.59,109.96L535.15,110.36L535.33,110.31L535.52,104.63L535.7,105.95L535.89,102.32L536.45,101.52L537,104.52L537.19,108.58L537.93,114.85L538.12,114.76L538.31,111.25L539.23,122.64L539.42,122.44L539.61,121.64L539.79,124.99L540.54,126.8L540.72,123.5L540.91,123.56L541.09,119.08L541.65,118.25L541.84,129.43L542.02,129.34L542.21,133.08L544.44,141.61L544.62,137.43L544.99,143.49L545.55,138.77L545.74,134.19L546.11,135.25L546.3,141.98L547.04,146.7L547.22,146.59L547.41,142.39L547.6,146.22L548.15,140.11L548.34,139.62L548.53,140.79L548.71,141.06L549.64,132.72L549.83,145.47L550.01,154.28L550.2,148.91L550.75,152.19L551.31,164.52L551.5,160.17L552.06,155.89L552.24,155.39L552.43,156.74L552.61,145.2L552.8,142.36L553.54,142.43L553.73,142.8L554.66,144.86L554.84,142.83L555.03,141.12L555.4,141.78L555.96,144.95L556.14,145.74L556.33,136.17L556.7,135.47L557.26,137.82L558,143.88L558.56,141.39L558.93,137.62L559.12,143.52L559.3,144.71L559.86,147.98L560.05,146.75L560.23,145.07L560.42,148.61L560.6,147.55L561.35,149.26L561.53,151L561.72,146.71L561.9,147.22L562.65,146.06L562.83,149.75L563.02,153.1L563.2,151.07L563.76,150.08L564.51,142.48L565.25,142.79L565.43,144.89L565.62,144.75L565.81,138.87L566.36,136.48L566.55,137.69L566.74,139.68L567.11,133.15L567.66,137.09L568.22,116.52L568.41,120.54L568.96,122.08L569.15,115L569.52,124.95L569.71,126.05L570.45,121.82L570.64,121.94L570.82,126.02L571.94,131.85L572.12,130.89L572.31,133.99L572.87,133.46L573.05,132.63L573.24,133.88L573.42,131.19L573.61,126.94L574.17,125.74L574.35,127.38L574.54,127.26L574.73,129.28L574.91,131.8L575.47,129.44L575.65,123.23L576.21,112.73L576.77,115.04L577.51,108.57L578.07,112.06L578.26,113.54L578.44,110.65L578.63,109.18L579.56,104.98L579.74,106.7L579.93,101.4L580.67,103.37L581.04,106.45L581.23,101.7L581.41,102.11L583.27,106.64L583.46,110.86L584.02,91.92L584.57,92.05L584.76,93.73L585.13,95.09L585.32,92.97L585.87,92.53L586.06,93.29L586.25,89.38L587.73,79.11L587.92,79.43L588.48,76.84L588.66,80.4L588.85,81.24L589.03,75.11L589.22,70.38L589.96,71.33L590.15,72.3L590.33,68.95L591.08,66.9L591.26,67.12L591.45,74.44L592.75,67.16L592.93,61.12L594.05,68.44L594.24,64.43L594.98,71.83L595.16,68.14L595.35,67.14L595.54,68.63L595.72,65.4L596.28,66.38L596.65,63.89L597.02,66.01L597.58,68.7L597.95,62.8L598.14,57.44L598.88,56.82L599.07,52.13L599.62,62.76L600.18,62.06L600.37,59.13L600.74,59.64L600.92,52.87L601.48,54.94L601.67,54.59L601.85,60.78L602.23,61.47L602.78,57.94L603.53,64.85L604.08,62.1L604.83,70.63L605.38,67.05L605.57,66.93L605.76,62.53L605.94,67.64L606.13,66.76L606.69,65.08L607.43,59.97L608.17,57.5L608.54,59.3L608.73,57.37L609.29,54.02L609.47,58.05L609.84,52.42L610.03,57.86L610.59,57.47L610.77,57.23L610.96,63.07L611.33,66.17L611.89,65.25L612.07,68.71L612.63,66.11L613.19,61.17L613.37,66.06L613.75,61.98L613.93,56.02L614.68,54.2L614.86,50.48L615.23,56.09L615.79,52.33L615.98,51.71L616.16,54.55L616.35,54.99L616.53,58.43L617.28,54.81L617.46,59.95L617.65,68.12L617.83,65.95L618.39,61.1L618.58,61.26L618.76,55.36L620.06,45.26L620.25,46.77L620.44,40.95L620.99,42.17L621.18,38.85L621.36,38.99L621.55,35.31L621.74,38.16L622.29,34.11L622.48,35.87L622.67,32.62L623.04,34.23L623.59,34.6L623.78,31.98L623.97,35.66L624.15,37.75L625.27,44.32L625.45,38.57L625.64,37.19L626.2,40.42L626.57,37.93L626.75,41.51L626.94,39.17L627.5,35.16L628.24,30.13L628.98,29.82L629.54,30.37L630.28,34.35L630.47,34.42L630.66,36.08L630.84,35.57L631.4,30.38L632.14,20.75L632.89,21.5L633.07,22.1L633.26,18.14L633.44,13.7L634,14.01" style="vector-effect: none; fill: none; stroke: rgb(31, 119, 180); stroke-opacity: 1; stroke-width: 2px; opacity: 1;"/></g><g class="points"/><g class="text"/></g><g class="trace scatter trace02d591ff-9fb9-4756-b1f9-49663003a9bc" style="stroke-miterlimit: 2; opacity: 1;"><g class="fills"/><g class="errorbars"/><g class="lines"><path class="js-line" d="M0,252.41L0.93,252.42L1.11,253.25L2.04,252.93L2.23,253.41L2.42,253.44L2.6,252.56L3.16,252.6L3.34,253.43L3.53,252.67L3.9,254.07L4.46,254.34L4.83,256.15L5.2,255.38L5.76,255.1L6.5,253.66L7.06,253.76L8.36,252.09L8.55,252.32L9.1,251.65L9.66,251.54L11.15,252.22L11.33,252.25L11.71,252.11L12.26,251.86L13.56,252.49L13.75,251.82L14.87,250.81L15.05,250.93L15.24,251.66L15.42,251.43L15.61,252.18L16.17,252.77L16.35,253.17L16.54,252.11L16.72,251.09L17.65,250.44L17.84,250.43L19.51,250.57L20.07,251.89L20.25,253.02L20.81,252.67L21.37,253.22L21.74,254.47L21.93,255.76L22.86,255.19L23.04,254.99L23.23,253.55L23.41,254.21L23.97,254L24.71,255.63L25.27,254.86L26.01,252.85L26.57,253.05L28.06,251.95L28.24,252.64L29.17,252.57L29.36,251.99L29.54,251.83L29.73,252.16L29.92,252.53L31.22,252.28L31.77,252.16L31.96,253.23L32.33,252L32.52,252.16L33.08,251.82L34.56,252.7L34.75,253.3L37.16,253L37.35,252.83L38.84,251.79L39.02,252.43L41.62,251.46L42.18,250.76L42.74,251.13L42.92,250.37L44.78,250.18L44.97,249.64L46.27,250.38L46.45,249.88L47.57,249.98L47.75,249.39L47.94,249.82L48.13,249.07L48.68,249.43L49.24,248.37L49.43,248.48L49.98,248.59L51.47,247.74L51.66,248.17L52.59,249.54L52.77,249.24L52.96,248.7L54.26,250.64L54.44,250.2L54.63,249.63L56.49,247.32L56.67,247.42L56.86,246.71L57.23,247.67L57.79,248.14L58.35,247.34L58.53,247.76L59.09,247.84L60.58,247.99L60.76,248.59L61.88,247.98L62.06,248.46L63.18,254.18L63.36,252.13L63.55,250.94L63.73,251.23L64.29,251.31L64.48,253.26L65.04,253.06L65.78,251.76L65.96,252.43L66.34,252.1L66.89,252.17L67.26,251.16L67.45,252.35L67.64,253.35L68.57,253.35L68.75,253.67L68.94,252.81L69.49,253.84L70.24,253.37L70.8,252.48L72.47,253.28L72.65,252.01L73.95,251.33L74.14,250.66L74.88,251L75.07,249.41L75.44,250.52L76,249.76L76.56,249.22L76.74,247.89L78.04,249.61L78.6,248.98L78.79,249.17L78.97,248.29L79.16,248.28L81.2,248.99L81.39,248.26L81.76,249.53L81.94,248.17L82.5,248.68L83.25,250.69L83.8,250.61L84.17,248.25L84.55,250.45L85.1,249.93L85.66,249.18L86.4,249.4L86.59,248.93L86.96,249.83L87.7,251.07L87.89,251.05L88.08,251.86L88.45,254.23L89.01,254.01L89.19,253.62L89.75,255.54L90.49,255.91L90.86,257.16L91.05,256.28L91.61,257.5L92.35,254.82L92.91,255.21L93.28,256.92L93.65,256.84L94.21,258.11L94.58,258.7L94.77,260.3L95.69,257.19L95.88,256.85L96.25,257.46L96.81,256.61L97.18,258.01L97.55,257.05L98.11,257.83L98.85,255.08L99.41,255.13L99.97,256.12L100.15,255.05L100.71,255.29L101.27,255.63L101.45,254.64L102.38,255.14L102.57,255.44L104.99,256.09L105.17,257.14L106.1,256.06L106.29,254.63L107.96,252.49L108.52,252.74L108.89,252.45L109.07,252.92L109.26,253.34L109.82,252.84L110,253.67L110.19,254.31L111.12,254.53L111.3,253.91L112.6,254.76L112.79,253.29L113.72,253.61L113.9,253.02L114.46,252.15L115.21,252.31L115.58,251.89L115.76,252.89L116.69,252.79L116.88,253.37L117.99,255.47L118.18,255.41L119.29,254.99L119.48,254.02L120.22,258.06L120.41,256.83L120.59,255.74L120.78,255.33L120.97,255.66L121.71,256.64L123.38,253.93L123.57,254.25L124.87,253.49L125.42,253.59L125.98,253.26L126.17,253.51L126.73,253.73L126.91,253.98L127.1,253.35L127.28,253.3L127.47,252.12L128.58,252.61L128.77,252.71L131.93,251.02L132.11,250.27L132.67,250.4L133.42,250.76L135.27,252.73L135.83,252.38L136.57,252.26L137.13,253.25L137.87,252.73L138.43,252.89L139.73,251.13L139.92,251.43L140.1,251.59L141.03,252.04L141.22,251.6L142.33,250.69L142.52,250.7L142.89,250.23L143.08,250.51L143.63,250.69L144.38,251.32L144.94,250.16L145.12,250.09L145.31,247.72L146.24,242.78L146.42,242.93L146.61,244.05L146.98,243.42L147.54,243.25L148.28,242.44L148.84,243.36L149.02,243.14L149.21,241.72L150.51,238.21L150.7,237.6L150.88,237.43L151.44,238.44L151.81,238.7L152,237.8L152.74,238.54L152.93,237.8L153.48,237.81L154.23,237.78L154.6,238.95L154.78,238.69L155.53,237.82L155.71,237.39L155.9,238.08L156.08,238.12L156.64,238.45L157.39,237.61L158.13,239.69L158.69,238.77L159.24,239.06L159.8,236.67L159.99,236.87L160.54,237.6L161.1,238.16L161.29,236.56L162.22,237.89L162.4,236.86L162.59,236.91L163.15,236.27L163.52,234.19L163.89,234.47L164.63,233.99L165,234.07L165.19,234.78L165.93,234.29L166.12,232.21L167.05,233.18L167.23,233.43L169.09,233.82L169.65,234.66L170.02,237.28L170.39,237.04L170.95,237.26L171.51,235.82L171.69,236.53L172.25,236.66L173.92,238.59L174.11,239.64L175.41,238.08L175.59,238.8L176.52,236.32L176.71,236.77L176.9,237.37L179.13,236.18L179.31,236.6L180.05,236.69L180.24,236.7L180.43,239.1L180.8,238.31L181.36,238.35L181.54,237.66L182.1,238.18L182.84,238.92L183.03,240.04L183.4,239.68L183.96,239.71L184.14,239.8L184.33,239.15L184.51,238.42L185.44,236.56L185.63,236.59L186,237.31L186.56,236.3L187.3,238.09L187.86,237.8L189.53,233.39L189.72,233.72L190.46,233.6L190.65,234.11L191.02,233.86L191.95,235.25L192.13,235.04L192.32,235.16L193.06,235.34L193.25,234.22L193.8,235.52L194.36,235.12L194.55,234.47L196.03,234.35L196.22,235.49L196.41,235.92L196.96,234.89L197.15,234.78L197.34,235.24L197.52,236.36L198.26,236.59L198.45,235.83L200.12,236.18L200.31,235.83L201.61,238.14L202.17,237.06L202.91,235.39L203.47,234.46L204.02,233.11L204.21,233.23L204.77,233.71L204.95,233.84L205.14,232.81L206.81,231.1L207.37,231.68L207.56,231.29L207.93,232.12L208.11,232.27L210.71,228.35L211.27,228.63L211.46,228.93L211.64,228.71L211.83,228.04L212.57,228.44L212.76,229.81L213.32,231.09L213.87,231.13L214.06,231.33L214.24,230.69L214.43,230.39L215.17,230.43L215.36,230.32L216.47,230.87L216.66,228.57L217.77,225.22L217.96,225.31L218.15,225.76L218.52,224.92L219.08,225.23L219.26,224.14L219.63,225.56L219.82,224.71L220.38,223.79L220.75,224.24L220.93,223.06L222.42,223.84L223.16,223.11L223.35,223.03L223.54,222.06L224.46,222L224.65,221.19L228.18,217.3L228.37,218.1L228.74,216.91L228.92,218.5L230.04,224.72L230.22,223.42L230.78,222.16L231.34,219.16L231.53,219.61L232.27,219.64L232.64,220.12L232.83,219.11L233.38,218.14L233.57,218.81L233.75,219.74L233.94,221.05L234.13,220.92L234.68,219.97L235.24,220.25L235.43,218.47L235.98,218.53L236.17,219.46L236.73,220.34L237.29,220.87L237.66,221.12L237.84,224.22L238.03,226.68L238.59,224.29L238.77,226.03L238.96,226.08L239.14,224.75L239.89,226.23L240.07,225.37L240.26,224.44L240.44,223.56L240.63,225.21L241.19,224.65L241.75,223.04L241.93,225.14L242.67,225.05L242.86,225.79L243.23,223.93L243.79,224L243.97,224.28L244.53,224.63L245.09,225.11L245.28,224.91L245.46,225.57L245.65,226.17L246.95,221.88L247.13,222.03L247.69,221.83L248.25,222.43L248.43,223.56L249.18,222.03L249.36,222.29L249.55,223.28L249.74,223.41L250.48,226.3L251.04,224.63L251.59,224.58L251.78,225.09L251.96,223.28L252.89,223.16L253.08,223.51L255.68,226.71L255.87,227.44L256.8,226.01L256.98,227.07L257.54,226.48L258.1,224.46L258.84,225.57L259.4,222.87L259.77,222.44L259.95,223.35L261.44,219.8L262,219.43L262.18,220.65L262.56,219.67L262.74,219.06L263.86,219.02L264.04,219.81L264.97,221.1L265.16,220.3L267.57,219.57L267.76,219.99L267.94,220.21L268.69,219.78L269.99,220.52L270.17,221.69L271.1,222.13L271.29,222.01L271.66,219.67L271.85,220.19L272.4,220.97L272.59,221.13L272.78,222.3L273.15,223.66L273.71,223.41L273.89,223.39L275.01,221.73L275.19,222.25L276.31,226.35L276.49,225.05L276.68,224.18L277.05,225.68L277.61,227.32L277.98,229.64L278.35,229.11L278.91,228.24L279.47,225.66L279.65,225.73L280.21,225.37L280.77,223.79L280.95,224.44L281.51,225.96L281.7,225.66L281.88,226.94L282.81,225.17L283,226.37L283.55,227.43L284.11,225.89L285.41,223.8L285.6,227.27L287.46,232.85L288.01,233.18L288.57,234.35L288.76,235.91L289.31,237.49L289.69,234.62L290.99,232.55L291.17,233.4L291.36,231.1L291.92,231.19L292.1,231.32L293.4,230.04L293.59,227.71L293.96,226.05L294.7,226.72L295.07,226.75L295.26,226.08L296.19,226.28L296.37,227.29L297.49,226.9L297.68,228.06L298.42,228.43L298.6,227.29L298.79,227.16L298.98,227.77L299.16,226.07L301.21,225.86L301.39,225.58L302.32,226.1L302.51,226.14L302.88,226.99L303.06,226.85L303.62,226.25L303.81,226.36L303.99,225.87L304.18,225.32L304.92,224.08L305.11,224.44L305.29,226.28L306.22,230.12L306.41,229.23L306.59,229.56L306.97,228.75L307.52,226.83L308.82,225.75L309.01,226.44L309.38,226.03L309.57,224.08L310.12,224.64L310.31,224.02L310.5,223.06L311.61,223.23L311.8,223.29L312.17,222.59L312.73,221.67L313.1,222.41L313.28,222.1L313.47,221.61L314.03,222.17L314.21,223.57L315.7,226.22L315.89,225.55L316.63,225.85L316.81,225.21L317.19,227.12L317.37,226.26L318.11,227.02L318.49,228.25L318.67,229.27L319.23,229.02L319.42,226.65L320.72,225.78L320.9,226.85L321.83,226.77L322.02,225.47L322.57,226.03L323.13,226.56L323.32,227.04L323.69,226.29L323.88,224.45L325.18,223.41L325.73,223.7L326.1,223.95L326.48,222.87L327.03,223.66L327.41,224.13L327.78,223.81L328.33,223.31L329.08,220.81L329.64,221.45L329.82,221.1L330.01,221.23L330.19,223.57L330.38,223.55L330.94,226.06L331.12,225.27L331.31,226.75L331.68,225.57L332.24,227.03L332.42,226.34L332.61,229.39L332.79,229.62L332.98,227.91L333.54,227.16L333.72,228.21L334.09,227.1L334.28,228.87L335.21,227.98L335.4,226.66L335.58,226.2L336.32,227.13L338.18,220.04L338.74,220.35L339.48,221.03L340.04,220.99L340.23,222.05L340.78,220.91L341.34,221.17L341.9,224.29L342.08,222.88L342.64,223.13L342.83,224.76L343.2,223.09L343.39,221.97L343.94,221.65L344.13,219.89L344.69,219.19L345.24,217.61L346.73,215.32L346.92,215.97L347.1,216.64L347.29,215.19L347.85,214.19L348.59,212.37L349.15,212.59L349.7,213.57L349.89,213L350.45,212.61L351,213.05L351.19,212.28L352.49,211.83L353.05,212.07L353.23,213.41L353.61,211.91L353.79,210.47L354.72,211.11L354.91,208.72L355.09,209.46L355.65,208.93L355.84,208.35L356.95,208.67L357.14,208.51L357.51,207.73L357.69,207.94L358.25,208.36L358.81,207.19L358.99,208.49L359.55,208.67L359.74,209.66L360.11,208.83L360.29,209.55L360.85,209.07L361.04,209.28L361.22,210.77L361.6,210.05L362.34,210.92L362.71,211.36L362.9,213.04L363.45,214.13L363.83,213.33L364.01,212.23L364.2,214.11L364.75,213.65L364.94,212.47L365.31,210.47L365.5,210.69L366.06,210.48L366.8,210.27L367.54,211.7L367.91,210.54L368.1,211.34L368.66,214.28L369.4,224.38L369.96,221.64L371.26,239.25L371.44,234.86L372,234.81L372.56,243.96L372.74,240.03L373.86,249.12L374.05,242.61L374.42,237.74L374.6,240.9L375.16,239.96L375.53,245.66L375.9,245.37L376.46,241.83L376.83,238.03L377.02,233.44L377.95,237.47L378.13,240.77L378.32,242.95L378.5,238.56L379.06,240.47L379.25,242.28L379.81,241.29L380.36,238.53L380.73,235.89L380.92,237.46L381.11,239.53L381.85,240.68L382.04,241.68L382.41,239.76L382.96,241.65L383.34,245.63L383.71,244.31L384.26,240.98L384.45,242.63L385.01,241.91L385.75,237.96L385.94,234.28L386.31,237.63L386.87,236.61L387.05,236.2L387.24,233.18L388.17,226.6L388.35,227.93L388.54,231.65L388.72,237.57L388.91,235.65L389.47,234.84L389.65,233.9L390.03,235.8L390.21,235.9L390.77,236.86L390.95,236.42L391.14,238.61L391.33,236.43L391.51,240.06L392.07,239.6L392.25,239L392.44,239.85L392.63,239.66L393.37,238.61L393.93,240.96L394.11,237.92L394.67,237.39L394.86,237.67L395.04,236.45L395.97,238.34L396.16,236.43L397.27,237.62L397.46,237.29L397.64,235.69L398.57,237.44L398.76,237.6L400.06,233.1L400.25,233.56L400.43,234.14L400.62,233.92L401.17,235.48L401.92,237.29L402.47,235.58L402.85,236.12L403.22,234.18L403.78,235.61L403.96,235.68L404.15,234.8L404.33,235.07L404.52,233.54L405.63,236.17L405.82,235.38L406.38,234.57L407.12,236.13L407.68,238.04L408.05,240.3L408.42,239.61L408.98,238.24L409.16,238.95L409.54,238.09L409.72,237.58L411.58,234.1L411.77,235.57L411.95,237.48L412.32,236.65L412.88,237.73L413.62,235.24L414.18,236.5L414.55,239.34L414.92,238.61L415.48,237.48L415.85,237.86L416.78,228.5L417.15,229.5L417.34,230.64L418.08,228.33L418.64,228.97L418.83,229.64L419.38,227.89L419.57,224.08L420.68,226.8L420.87,225.54L421.43,223.58L421.99,223.97L423.29,226.04L423.47,224.71L423.66,224.56L423.84,224.79L424.03,225.26L424.96,221.82L425.14,222.23L425.89,221.8L426.26,222L426.44,221.06L427.19,221.83L427.37,221.14L427.56,216.94L428.67,212.63L428.86,212.83L429.05,211.78L429.23,214.33L429.98,214.53L431.46,221.04L431.65,219.72L431.83,221.08L432.39,220.48L432.58,218.07L433.69,213.34L433.88,213.68L434.25,214.01L434.43,212.72L436.66,204.86L436.85,206.12L437.04,208.88L438.89,203.94L439.08,205.2L439.64,201.81L440.2,202.3L440.38,203.05L440.57,202.14L440.75,200.14L441.68,205.28L441.87,204.99L442.05,203.32L442.98,201.47L443.17,202.5L444.1,200.65L444.28,200.94L444.84,199.37L445.4,199.3L445.96,201.16L446.14,199.91L446.7,200.07L447.26,202.74L447.44,200.77L448,200.35L448.56,196.7L448.74,198.04L449.3,198L450.04,193.81L450.6,193.92L450.79,195.44L450.97,196.15L451.16,194.11L451.34,192.71L451.9,191.84L452.09,193.41L452.46,194.5L452.64,193.41L453.2,192.82L453.39,193.95L453.76,192.5L453.95,192.69L455.25,190.97L455.8,191.28L457.29,196.49L457.48,195.92L457.66,199.89L457.85,202.31L458.41,200.15L458.59,199.92L459.15,196.28L459.71,196.46L459.89,197.49L460.26,195.82L460.45,196.35L461.19,198.67L461.38,198.96L461.56,201.01L462.31,196.59L462.49,198.32L463.05,200.91L463.61,203.69L463.98,199.61L464.35,201.38L464.91,200.54L465.09,200.7L465.28,200.36L465.47,199.13L466.21,200.58L466.4,199.17L466.58,200.14L466.77,198.52L466.95,195.59L467.51,195.18L467.7,193.57L468.07,191.64L468.25,192.92L468.81,193.87L469.37,196.99L469.55,196.63L470.11,195.48L470.85,191.4L471.41,193.41L471.78,195.73L472.16,195.49L472.9,195.26L473.46,196.8L474.01,194.96L474.2,196.73L474.76,195.77L475.31,198.69L475.5,198.66L475.69,196.42L476.61,190.07L476.8,190.97L476.99,190.72L477.17,192.18L478.29,188.14L478.47,187.98L478.66,187.65L479.22,189.47L479.59,192.12L479.77,189.79L479.96,186.6L480.52,186.35L480.7,185.27L481.26,183.18L481.82,183.49L482,182.92L482.19,185.04L483.12,183.13L483.3,183.04L483.49,182.32L483.68,184.37L483.86,184.85L484.42,184.05L484.6,185.2L484.98,184.42L485.16,185.07L485.72,184.98L486.46,188.97L487.02,186.62L487.21,183.95L487.39,184.23L487.76,188.46L488.32,188.58L488.51,190.82L488.69,191.9L488.88,189.14L489.06,191.36L489.62,190.2L489.81,188.47L490.37,189.47L490.92,191.48L491.48,188.8L491.67,191.73L492.22,193.61L492.41,191.67L492.59,191.33L493.71,190.23L493.9,190.31L494.27,190.67L494.82,187.13L495.57,180.99L496.13,180.99L496.5,180.38L496.68,180.68L496.87,183.82L498.73,192.43L498.91,191.03L499.1,189.98L499.28,191.29L499.47,190.37L500.03,189.66L500.77,185.5L501.33,184.79L501.7,182.43L502.07,184.79L502.63,185.84L502.81,184.66L503,184.76L503.19,188.04L504.12,188.7L504.3,190.83L504.67,190.75L505.42,197.87L505.6,195.72L505.97,200.25L506.53,205.32L506.72,205.12L506.9,200.32L507.27,202.57L507.83,200.87L508.39,195.64L508.58,195.8L509.13,196.09L509.32,193.16L509.88,194.08L510.43,194.81L510.62,194.9L510.8,196.02L511.73,200.04L511.92,201.29L512.29,202.81L512.48,201.5L513.03,201.52L513.59,206.51L514.34,204.3L514.71,202.1L514.89,203.42L515.08,206.32L515.64,206.77L515.82,209.11L516.19,208.47L516.38,211.26L516.94,210.47L517.31,205.32L517.68,207.86L518.24,209.66L518.79,212.77L518.98,212.09L519.54,212.83L519.72,210.02L520.1,213.24L520.28,214.21L521.58,205.62L522.33,205.2L522.88,206.91L523.44,206.97L523.63,206.56L523.81,207.9L524,210.71L524.93,218.78L525.11,217.55L525.3,218.5L525.48,218.27L526.23,216.36L526.6,218.05L526.78,215.86L527.71,217.25L527.9,218.94L528.09,217.84L528.83,218.22L529.01,218.89L529.2,216.98L529.39,217.14L530.32,219.17L530.5,221.13L531.43,214.62L531.62,214.68L532.55,213.85L532.73,215.25L533.29,213.6L533.85,214.15L534.03,215.56L534.4,215.17L534.59,213.27L535.15,214.35L535.33,213.55L535.52,211.21L536.63,207.53L536.82,208.04L537.19,210.39L537.75,212.04L537.93,212.69L538.12,212.41L538.31,210.73L539.05,213.68L539.23,213.41L539.42,214.23L539.61,213.93L539.79,214.31L540.54,214.84L541.65,209.73L541.84,213.01L542.02,213.2L542.21,211.76L542.39,212.44L542.95,211.43L544.44,220.61L544.62,219.21L544.99,221.31L545.55,219.01L545.74,215.58L546.11,218.01L546.3,219.51L546.85,220.01L547.04,222.21L547.22,221.53L547.41,217.37L548.34,210.61L548.53,212.61L548.71,212.93L549.64,208.72L549.83,207.88L550.94,205.75L551.13,206.24L551.31,206.72L552.24,203.69L552.43,205.2L552.8,201.13L553.36,202.42L553.91,203.71L554.1,203.13L554.66,203.13L555.4,201.44L555.96,203.14L556.33,200.69L556.52,202.71L556.7,203.82L558,209.58L558.56,208.5L558.93,209.42L559.12,211.19L559.3,211.56L559.86,210.76L560.05,210.73L560.23,209.75L560.42,210.64L560.6,210.27L561.35,210.06L563.2,205.43L563.76,206.26L564.51,202.61L565.25,204.01L565.62,207.51L565.81,206.46L566.36,204.96L568.41,200.73L568.96,200.5L569.15,199.43L569.34,199.96L569.52,201.64L570.27,200.87L570.45,200.58L570.64,200.65L570.82,201.78L571.01,201.49L571.75,203.53L571.94,204.16L572.31,203.32L572.87,202.9L573.05,202.45L573.24,202.88L573.42,204.06L573.61,202.25L574.17,202.65L574.35,205.75L574.54,206.65L574.73,211.85L574.91,211.05L575.47,214.55L575.65,212.68L575.84,215.32L576.03,213.93L576.21,217.1L576.77,216.87L576.95,214.66L577.51,218.58L578.07,215.73L578.26,216.08L578.44,215.18L578.63,215.87L578.81,215.1L579.37,215.04L579.56,216.49L579.74,216.74L579.93,216.23L580.67,215.76L582.16,207.93L582.34,208.35L582.53,208.83L583.27,209.08L583.46,211.23L583.64,212.75L584.02,210.9L584.57,210.02L585.13,215.39L585.32,213.45L585.87,213.21L586.43,213.84L586.62,215.02L587.17,213.67L587.36,214.37L587.55,211.19L588.48,211.37L588.66,211.48L588.85,212.46L589.22,211.64L589.96,211.62L590.15,213.03L590.33,212.16L590.52,209.94L591.08,210.8L591.26,209.75L591.45,208.8L592.38,209.15L592.56,208.28L592.75,208.92L592.93,208.09L593.12,208.28L593.86,208.93L594.42,211.62L594.98,211.18L595.16,210.91L595.35,211.37L595.54,208.67L596.28,206.83L596.65,207.22L596.84,208.67L600.18,198.53L600.37,199.72L600.55,198.83L600.74,200.06L600.92,199.71L601.48,199.29L601.85,201.25L602.23,200.92L602.78,200.03L603.34,202.44L603.53,201.8L604.08,202.06L604.83,206.1L605.38,205.91L605.57,207.92L606.13,207.75L606.69,207.1L606.87,206.28L607.24,207.53L607.43,206.94L608.17,207.81L608.54,209.18L608.73,208.71L609.29,208.28L609.84,205.49L610.03,206.02L610.59,205.84L611.14,207.56L611.33,208.79L611.89,208.49L612.07,209.71L612.45,208.41L612.63,209.4L613.19,210.91L613.37,212.37L613.93,210.79L614.49,210.65L615.23,208.75L615.79,208.32L615.98,207.66L616.16,208.63L616.35,209.3L617.46,212.99L617.65,212.09L617.83,214.92L618.39,213.62L618.58,212.34L618.76,212.37L618.95,209.93L619.69,208.09L619.88,208.39L620.25,209.18L620.44,208.19L620.99,208.42L621.18,205.59L622.29,203.04L622.48,203.57L623.78,203.25L623.97,202.07L624.9,199.7L625.08,200.18L625.27,200.73L625.45,200.14L625.64,199.05L626.38,198.53L626.57,196.57L626.75,192.75L626.94,192.79L627.5,192.89L627.68,191.97L627.87,193.37L628.24,192.7L628.98,191.79L630.28,190.73L630.47,191.57L630.84,189.59L631.4,189.95L631.58,191.13L631.96,191.83L632.14,193.15L633.26,195.09L633.44,193.1L634,192.79" style="vector-effect: none; fill: none; stroke: rgb(255, 127, 14); stroke-opacity: 1; stroke-width: 2px; opacity: 1;"/></g><g class="points"/><g class="text"/></g><g class="trace scatter trace2aa3d3e3-7d42-42ad-aea1-c904c7a9ee7d" style="stroke-miterlimit: 2; opacity: 1;"><g class="fills"/><g class="errorbars"/><g class="lines"><path class="js-line" d="M0,252.41L0.74,254.01L1.11,253.72L1.3,253.36L2.42,254.14L2.6,253.59L3.72,253.7L3.9,254.24L5.2,255.05L5.76,254.69L6.32,253.23L6.5,254.14L7.06,253.66L7.8,252.92L8.36,252.42L9.66,249.18L9.85,249.67L10.03,249.09L10.96,248.37L11.15,248.78L11.71,248.29L12.26,247.53L12.64,247.89L13.01,247.35L13.56,249.02L13.75,248.37L14.12,249.11L14.31,249.61L15.24,250.74L15.61,250.33L16.17,250.42L16.35,250.93L16.54,250.02L16.72,249.71L17.47,249.32L17.65,249.77L17.84,249.89L18.95,249.54L19.14,249.99L20.44,250.27L20.63,249.38L21.93,251.9L22.11,251.76L23.04,250.52L23.23,249.52L24.16,249.99L24.34,250.94L24.53,251.75L24.71,250.52L25.27,249.78L26.01,249.74L26.57,250.12L27.31,249.17L28.06,249.76L30.85,250.3L31.03,249.79L32.15,251.81L32.33,251.25L32.52,251.42L33.08,250.7L33.63,250.78L33.82,250.3L34.38,250.59L35.12,251.11L35.68,250.81L36.23,251.5L36.98,251.32L37.16,251.46L37.35,250.58L37.53,250.4L37.72,250.71L38.28,250.84L38.84,250.91L39.02,251.96L40.14,251.03L40.32,248.14L41.25,249.53L41.44,250.01L42.18,249.84L42.37,250.29L42.55,250.3L42.74,248.97L43.67,248.49L43.85,248.71L44.04,248.23L44.22,248.4L44.78,248.51L44.97,249.16L45.34,247.92L45.52,248.23L47.57,248.77L47.75,248.41L48.87,249.85L49.06,249.33L49.98,250.26L50.36,249.82L50.54,249.27L51.28,249.61L51.47,249.32L52.59,250.86L52.96,250.23L53.14,250.28L54.44,250.72L54.63,250.06L56.86,247.51L57.05,247.94L57.23,246.19L57.79,246.39L57.97,246.62L59.09,246.6L59.27,246.59L59.46,245.88L59.83,247.1L60.39,246.74L60.76,247.54L61.13,247.12L61.69,246.98L62.99,253.1L63.18,252.71L63.36,250.86L63.55,249.51L63.73,249.87L64.29,250.74L65.04,251.85L65.78,251.02L66.34,250.26L66.89,251L68.19,249.73L68.38,250.5L69.68,252.93L69.87,251.86L70.05,251.6L70.8,249.51L70.98,249.82L71.17,249.13L71.54,248.79L72.1,248.04L72.28,248.23L72.47,249.88L73.4,248.24L73.58,248.93L73.77,249.53L73.95,248.89L74.14,246.76L75.07,245.06L75.25,244.61L76.18,244.44L76.37,243.41L76.56,242.73L76.74,242.8L77.3,243.37L77.67,243.01L77.86,243.63L78.04,245.2L80.27,242.12L80.64,242.33L81.76,242.52L81.94,241.77L82.69,241.65L82.87,242.43L83.06,242.32L83.25,244.03L84.17,241.54L84.36,242.19L84.55,242.63L86.4,241.86L86.59,240.7L88.45,246.04L89.01,245.57L89.19,245.26L89.75,248.15L90.49,247.75L90.68,248.42L90.86,247.77L91.05,246.73L91.79,246.36L91.98,247.19L92.16,245.27L92.35,246.94L92.91,247.25L94.21,252.07L94.39,252.5L96.81,248.01L97,248.42L97.18,248.2L98.11,248.18L98.3,246.68L99.41,246.8L99.6,247.16L101.08,246.09L101.27,246.73L101.45,246.84L102.01,246.27L104.06,244.02L104.61,244.19L104.8,244.86L104.99,243.87L105.36,244.58L105.91,244.61L107.22,242.21L107.4,242.48L107.59,242.1L107.96,242.95L108.52,242.71L109.07,244.25L109.26,242.06L109.82,240.91L110.19,241.67L110.37,241.72L111.67,239.08L111.86,240.11L112.42,239.54L112.6,240.38L112.79,240.72L113.16,239.2L113.72,239.5L113.9,238.71L114.09,239.33L114.46,238.28L115.21,237.65L115.39,238.67L115.76,238.34L116.32,238.04L117.62,239.04L117.81,238.42L117.99,238.51L118.36,239.11L119.11,238.34L119.29,238.5L119.48,237.86L119.66,239.34L120.22,240.08L120.97,237.49L121.71,237.42L122.82,235.74L123.01,236.09L123.57,236.65L124.12,236.37L124.87,235.76L125.42,236.15L125.8,236.38L125.98,235.7L126.17,235.58L126.73,234.74L126.91,235.26L127.1,235.58L128.77,232.27L129.33,232.72L130.07,233.36L130.63,233.48L132.11,233.34L132.3,233.07L133.42,230.88L133.79,231.51L133.97,233.31L135.27,231.23L135.83,231.78L136.02,231.84L136.2,230.66L136.39,229.48L136.57,229.67L137.13,230.38L137.87,228.63L138.43,228.74L138.8,228.24L140.1,230.03L140.29,230.32L141.03,230.93L141.22,230.51L141.41,230.42L141.59,230.78L141.78,230.47L142.33,229.38L142.89,230.44L143.08,232.31L143.63,231.75L143.82,232.17L144.01,233.42L144.38,234.08L144.94,232.38L145.12,232.17L145.31,233.09L145.49,234.68L146.24,236.58L146.42,235.15L147.72,233.24L147.91,233.35L148.28,233.26L149.21,234.57L149.4,235.46L150.14,234.75L150.32,234.52L150.88,233.86L151.44,234.04L151.62,233.44L152,234.68L152.18,234.86L152.93,233.93L153.11,234.16L153.3,235.06L153.48,235.32L154.23,234.7L155.53,235.52L155.71,234.99L156.64,232.68L156.83,232.51L157.39,231.88L158.13,231.96L158.69,232.28L159.24,231.61L159.61,229.88L159.99,230.46L160.54,230.71L160.73,230.9L161.1,230.26L161.29,231.67L162.03,231.42L162.22,230.5L163.52,229.64L163.7,229.65L164.63,228.4L164.82,228.06L165.75,228.45L165.93,228.88L166.12,228.45L166.49,228.78L167.05,229.11L167.79,228.54L168.35,228.2L169.09,228.25L169.65,227.77L169.83,228.72L170.39,228.22L170.95,228.15L172.62,225.13L172.81,225.56L173.55,224.28L173.92,224.84L174.11,225.47L177.64,221.06L177.82,221.51L178.2,221.74L178.75,221.04L179.5,219.95L180.05,219.82L180.43,220.73L181.36,218.29L181.54,218.54L182.84,217.36L183.03,217.59L183.96,216.07L184.14,216.82L184.51,213.78L184.7,215.52L185.81,216.91L186,216.66L186.56,215.57L186.74,215.84L186.93,214.53L188.04,215.95L188.23,214.89L189.16,217.18L189.53,215.81L189.72,216.47L189.9,215.87L190.46,215.31L191.76,212.94L191.95,211.95L192.5,212.2L193.06,211.41L193.43,209.86L193.62,210.23L193.8,210.83L195.11,212.76L195.66,211.54L196.03,212.03L196.22,214.2L197.71,211.98L198.26,211.86L198.45,210.4L198.82,211.29L199.01,212.05L199.57,212.67L199.75,212.3L199.94,211.17L200.12,210.62L200.31,210.77L201.05,211.21L201.24,211.32L201.42,210.44L201.61,211.52L202.17,210.17L202.54,208.31L202.91,209.11L203.47,209.24L204.21,210.45L204.77,212.51L204.95,212.91L205.14,211.78L205.33,211.73L207.74,206.43L208.11,206.87L208.67,206.73L210.34,209.06L210.53,209.04L211.46,201.27L211.64,201.03L211.83,201.46L212.01,200.77L212.57,199.86L213.32,199.42L213.87,199.53L214.24,200.35L214.43,197.28L214.62,198.09L215.17,197.8L215.36,196.97L216.47,194.94L216.66,195.21L217.77,200.4L217.96,199.99L219.08,197.29L219.26,198.22L220.38,197.05L220.56,197.33L221.12,197.51L221.86,197.56L222.42,197.95L223.16,195.4L223.35,194.51L225.02,189.23L225.76,190.11L226.88,187.9L227.07,185L227.44,183.25L227.62,180.77L228.55,179.15L228.74,183.89L228.92,183.12L229.48,186.8L229.67,183.62L230.04,189.59L230.22,189.74L230.97,185.75L231.15,182.85L231.34,181.96L231.53,182.8L232.27,183.59L233.38,180.38L233.57,182.05L234.13,184.44L234.68,182.89L235.98,178.19L236.17,179.26L236.73,177.97L237.29,180.38L237.47,177.78L237.84,181.96L238.03,185L238.59,180.51L238.77,184.7L238.96,187.67L239.14,186.01L239.89,190.92L240.44,187.75L240.63,190.79L241.19,190.47L241.37,188.01L241.75,187.87L241.93,189.11L242.49,188.07L243.05,181.79L243.23,183.61L243.79,184.76L244.16,187.87L244.35,184.63L244.53,181.88L245.65,181.3L245.83,179.66L246.95,178.23L247.13,178.61L247.69,177.8L247.88,179.19L248.06,178.14L248.43,179.7L248.99,178.63L249.18,179.31L249.55,178.25L249.74,177.74L250.48,177.81L250.66,176.94L250.85,177.05L251.04,175.47L251.96,172.16L252.15,173.09L252.34,173.22L253.27,172.12L253.45,170.7L253.64,171.51L254.19,171.22L254.38,171.26L254.57,170.31L254.94,172.21L255.5,175.81L255.87,176.8L256.05,174.71L256.24,175.27L256.8,174.87L256.98,175.89L257.35,175.29L257.54,173.99L259.58,167.35L259.77,167.71L259.95,169.62L260.14,169.53L260.7,170.16L261.07,165.74L261.44,169.03L262,171.24L264.04,166.93L264.6,166.97L264.79,166.49L264.97,168.65L265.16,166.39L265.34,166.62L265.9,166.71L267.94,161L268.69,160.64L269.8,166.87L269.99,164.65L270.36,163.61L270.55,164.7L271.1,168.26L271.66,165.41L271.85,166.85L272.4,166.44L272.96,162.69L273.15,163.41L273.71,163.67L275.56,179.3L275.75,175.26L276.31,177.16L276.68,172.88L277.05,176.52L277.61,174.51L277.98,181.3L278.16,175.04L278.91,187.25L279.09,186.62L279.28,183.2L279.47,178.82L279.65,179.22L280.21,180.99L280.58,173.92L280.77,174.37L280.95,176.71L283,188.39L283.18,186.93L283.55,187.23L284.11,182.89L284.3,182.84L284.48,177.69L284.67,178.38L284.85,176.87L285.41,172.62L286.15,181.56L286.71,181.14L287.08,180.32L287.27,180.58L287.46,184.09L289.31,198.81L289.69,191.37L289.87,191.45L290.06,190.53L290.99,187.98L291.17,190.71L292.29,180.06L292.47,180.22L293.22,182.3L293.4,179.27L293.96,177.07L294.7,180.67L295.26,178.02L295.82,179.47L296,181.77L296.19,177.3L296.37,174.72L296.56,179.25L297.12,178.95L297.3,176.87L297.86,180.64L298.42,180.38L298.6,177.97L298.79,177.58L298.98,178.37L299.16,179.04L301.39,175.16L301.58,175.26L302.32,172.4L302.51,172.8L302.69,173.97L303.06,177.62L303.62,174.43L303.99,173.39L304.18,173.7L304.36,172.43L305.48,167.55L305.67,170.89L306.41,169.78L306.59,170.96L309.57,164.84L310.12,165.48L310.5,163.76L310.68,163.99L311.43,163.28L312.17,160.43L312.73,160.98L313.28,162.18L313.47,158.55L314.21,162.65L314.4,163.28L315.33,168.88L315.51,167.29L315.7,165.6L315.89,164.02L316.07,166.72L316.63,168.39L316.81,168.11L317,168.49L317.19,170.93L318.11,170.08L318.3,171.26L318.49,171.58L318.67,173.82L319.23,177.2L319.42,174.81L319.6,174.41L321.09,166.43L321.27,166.71L321.83,165.7L322.39,162.77L322.57,163L323.13,162.78L323.32,164.8L323.88,163.62L324.43,161.48L324.8,160.45L325.18,160.56L325.73,160.74L326.48,157.68L327.03,156.49L327.78,159.26L328.33,158.41L328.71,157.2L328.89,158.55L329.08,159.5L330.01,164.25L330.19,166.11L330.94,172.64L331.12,170.77L331.31,170.06L331.49,167.69L331.68,169.53L332.24,170.93L332.61,171.26L332.98,166.59L333.54,164.82L334.28,170.47L334.84,169.17L335.02,169.34L335.21,168.97L335.4,166.9L336.32,166.69L336.51,165.65L336.7,163.29L336.88,164.11L337.44,163.69L337.63,164.65L338,162.96L338.18,162.89L338.74,164.99L339.11,163.78L339.3,163.54L340.78,169.67L341.34,168.98L341.71,170.74L341.9,169.64L342.08,168.45L342.64,169.26L342.83,171.35L344.13,166.18L344.31,165.49L344.5,165L344.69,167.64L345.24,165.61L345.43,167.07L345.62,167.27L346.54,165.3L346.73,166.65L347.85,164.3L348.03,163.79L348.4,163.37L348.59,163.57L349.15,164.34L349.33,164.01L349.52,165.39L350.63,165.21L350.82,166.13L351.19,165.39L351.75,163.7L352.12,160.19L352.49,161.01L353.05,162.38L353.42,163.81L353.79,162.61L354.35,163.27L354.53,163.51L354.72,162.48L356.39,159.38L356.95,158.97L357.14,159.12L357.51,155.32L357.69,155.4L358.25,156.84L358.44,157.04L358.81,153.65L358.99,155.31L359.55,154.19L359.74,154.1L359.92,154.78L360.11,153.55L360.29,154.22L360.85,152.95L361.22,155.19L361.6,154.77L362.34,154.25L362.71,155L362.9,157.14L363.45,159.55L363.64,157.57L363.83,157.24L364.01,157.07L364.2,151.8L364.75,151.04L364.94,147.34L365.13,147.85L365.5,146.77L366.06,144.76L366.43,142.18L366.8,143.56L367.54,142.15L367.73,141.68L367.91,143.06L368.1,146.2L369.4,158.5L369.96,153.22L370.14,156.36L370.33,151.92L370.7,156.21L371.26,161.68L371.44,155.8L371.63,161.19L371.82,171.84L372.74,162.9L372.93,161.96L373.12,160.16L373.3,162.79L373.86,161.01L374.42,156.76L374.6,160.26L375.16,155.85L375.35,156.32L375.53,159.1L378.13,135.34L378.32,129.49L379.25,134.48L379.43,132.02L379.81,131.3L380.36,133.14L380.92,130.48L381.11,139.65L381.66,138.68L382.96,132.32L383.15,135.35L383.52,133.89L383.71,132.06L384.64,126.3L384.82,129.35L385.75,132.29L385.94,133.17L386.12,133.57L386.31,130.48L388.17,125.73L388.35,122.1L388.54,119.65L388.72,125.08L388.91,125.79L389.47,124.6L389.65,121.54L390.95,113.79L391.33,115.52L391.51,119.51L392.07,120L392.25,116.32L393.37,99.76L393.56,101.04L394.11,87.74L394.67,93.62L395.41,100.03L395.97,88.66L396.53,98.25L396.71,97.8L397.27,95.5L397.46,98.06L397.83,95.6L398.02,91.1L398.57,92.35L398.76,90.02L399.13,86.22L399.32,90.68L399.87,91.72L400.06,94.99L400.25,90.02L400.43,90.19L400.62,90.56L401.17,87.95L401.36,82.12L401.55,84.67L401.92,82.98L402.47,80.48L402.85,72.31L403.22,72.42L403.78,70.9L404.15,64.08L404.33,73.98L404.52,77.72L405.82,88.34L406.38,88.4L406.56,85.48L406.75,89.09L406.93,92.4L407.12,95.56L407.68,94.71L407.86,86.87L408.05,93.36L408.42,89.22L408.98,85.02L409.16,86.18L409.35,82.78L409.54,79.53L410.46,85L410.65,80.13L410.84,79.63L411.02,75.25L411.77,66.27L411.95,71.44L412.14,72.65L413.44,78.89L413.62,77.04L414.18,77.76L414.37,72.57L414.92,86.3L415.48,86.37L415.67,87.83L415.85,78.04L416.23,73.49L416.78,82.74L416.97,90.74L417.53,86.44L418.08,86.32L418.45,88.55L418.64,86.76L418.83,86.27L419.38,86.26L419.57,83.79L420.13,80.9L420.68,83.86L420.87,81.52L421.24,83.25L421.43,84.34L421.99,85.21L422.17,83.76L422.54,87.66L422.73,87.07L423.29,86.9L423.47,86.7L423.66,82.38L423.84,82.06L424.03,84.28L424.59,84.01L424.77,85.09L424.96,86.17L425.14,91.92L426.07,83.04L426.26,84.32L426.44,86.45L427.19,89.75L427.37,86.6L427.56,91.87L427.93,88.62L428.49,92.82L428.67,92.44L428.86,89.31L429.23,91.36L429.98,89.65L430.35,79.92L430.53,80.45L431.09,79.98L431.28,77.59L431.46,83.35L431.65,83.07L431.83,86.22L432.39,78.85L432.58,78.47L432.76,79.95L433.13,77.18L433.69,78.79L433.88,78.79L434.06,79.77L434.25,80.68L434.43,80.07L435.18,79.76L435.36,77.67L435.55,79.87L435.74,83.28L436.85,96.68L437.04,95.94L437.59,92.69L438.89,104.23L439.08,97.41L439.27,97.52L439.45,94.08L440.38,96.89L440.57,94.23L440.75,98.84L440.94,95.89L441.5,94.6L441.68,93.01L441.87,96.63L442.05,99.27L445.58,79.72L445.77,83.06L446.14,79.96L446.7,81.96L447.26,85.55L447.44,83.69L448,81.06L448.56,77.74L448.74,78.34L449.3,81.43L449.67,87.42L450.04,86.7L450.6,91.86L450.79,90.4L450.97,94.56L451.16,95.76L451.9,90.11L452.09,90.69L452.27,90.89L452.46,89.41L452.64,92.41L453.2,90.68L453.57,89.5L453.76,90.99L453.95,91.03L454.87,89.84L455.06,92.23L456.36,86.12L456.55,86.27L457.1,84.34L457.29,85.1L457.48,84.43L457.66,80.73L458.41,82.64L458.59,80.22L458.78,79.98L458.96,81.62L459.15,81.78L459.71,80.01L460.08,79.81L460.26,81.25L461.56,71.56L461.75,71L462.31,71.16L462.49,72.22L462.68,71.51L462.86,73.19L463.05,76.13L463.61,77.74L463.79,76.31L463.98,75.87L464.17,73.08L464.35,73.17L464.91,73.52L465.65,89.25L466.21,88.4L466.4,86.95L466.58,87.15L466.77,85.86L467.7,88.12L467.88,89.21L468.25,90.07L468.81,90.49L469.37,98.9L469.55,98.47L470.11,95.34L470.3,92.3L470.85,92.79L471.41,88.96L471.78,84.75L472.16,84.92L472.9,83.25L473.08,83.18L473.27,85.74L474.2,88.8L474.76,88.17L475.31,94.59L475.5,95.26L475.69,93.48L475.87,92L476.61,92.72L476.8,96.68L477.92,105.2L478.1,103.1L478.29,100.94L478.66,96.65L479.22,98.15L479.4,98.29L479.59,96.22L479.77,95.31L479.96,90.21L481.07,86.24L481.26,90.2L481.82,90.72L482,89.53L482.19,89.2L482.38,86.55L483.3,93.17L483.49,89.45L483.86,84.7L484.42,85.69L484.6,82.08L484.79,85.9L485.16,83.73L485.72,83.07L486.09,84.78L486.28,80.87L487.76,90.41L488.32,88.7L489.06,100.34L489.62,96.58L489.81,92.2L490.37,95.05L490.92,97.23L491.11,96.67L491.29,93.44L492.22,101.48L492.41,97.25L493.52,98.63L493.71,97.59L494.27,100L494.82,96.55L495.38,102.07L495.57,101.89L496.13,103.12L496.5,98.73L496.87,101.94L497.61,105.77L497.98,112.01L498.17,121.31L498.73,120.09L498.91,124.94L499.1,127.1L499.28,126.66L499.47,121.97L500.21,113.08L500.4,114.27L500.58,124.41L501.51,105.63L501.7,105.18L502.07,113.25L502.63,111.97L502.81,110.04L503,108.94L503.19,110.94L503.37,113.77L504.12,117.14L504.3,122.63L504.67,114.79L505.23,115.68L505.42,117.31L505.6,116.74L505.79,120.19L506.72,131.38L506.9,127.84L507.09,121.8L507.83,128.15L508.02,123.11L508.58,106.09L509.13,106.88L509.32,102.25L509.88,102.74L510.43,98.17L510.62,97.36L510.8,99.43L510.99,103.72L511.73,97.24L511.92,101.89L513.22,114.8L513.41,109.73L513.59,113.8L514.34,113.25L514.52,108.39L514.89,117.62L515.08,121.66L515.64,120.23L515.82,126.71L516.01,127.35L516.19,120.9L516.38,138.39L517.12,138.02L517.31,135.93L518.24,154.05L518.42,154.5L518.61,158.33L518.79,157.1L518.98,150.57L519.54,152.72L519.72,151.66L519.91,161.57L520.1,162.08L520.28,161.95L520.84,161.16L521.02,164.56L521.21,162.43L521.4,156.21L522.7,142.82L522.88,146.72L523.44,143.8L523.81,144.35L524,150.52L524.93,163.66L525.11,158.57L525.3,162.81L525.48,160.97L526.23,157.32L526.41,157.61L526.6,152.84L526.78,148.46L527.34,151.03L527.53,156.8L527.9,158.49L529.2,147.48L529.39,148.38L529.94,153.42L530.13,155.77L530.5,154.77L530.69,152.14L531.24,151.92L531.43,147.61L531.8,141.29L531.99,143.99L532.55,145.08L532.73,152.78L533.1,144.67L533.29,134.82L533.85,134.18L534.03,134.87L534.22,130.2L534.4,128.38L534.59,130.45L535.15,131.69L535.33,132.74L535.52,128.25L535.7,129.38L535.89,126.32L536.45,126.65L536.63,123.97L536.82,126.72L537,126.5L537.19,130.68L537.75,135.54L538.12,134.56L538.31,130.18L539.23,139.33L539.42,140.79L539.61,139.7L539.79,140.6L540.54,142.48L541.65,131.22L541.84,141.06L542.02,139.7L542.21,142.02L542.39,144.85L542.95,143.42L543.14,146.04L543.69,155.24L544.25,153.74L544.44,154.63L544.62,150.52L544.99,155.81L545.55,152.6L545.74,147.1L546.11,148.33L546.3,154.52L547.41,156.41L547.6,162.04L548.9,149.91L549.45,150.28L549.64,149.44L549.83,152.7L551.31,176.3L551.5,174.07L552.24,174.79L552.43,179.39L552.8,165L553.36,167.86L553.54,164.21L554.66,169.4L554.84,168.78L555.03,167.42L555.4,168.36L555.96,167.73L556.14,168.58L556.33,163.92L557.63,171.59L557.82,168.99L558,171.31L558.56,169.72L558.75,167.84L559.86,176.15L560.05,175.83L560.23,173.9L560.42,176.86L560.6,175.88L561.35,177.15L561.53,179.19L561.72,176.64L561.9,177.04L562.65,174.45L563.02,174.94L564.51,159.48L565.25,161.77L565.62,164.87L565.81,160.87L566.36,160.21L566.55,161.19L566.74,160.47L566.92,158.67L567.11,156.12L567.66,158.96L568.22,148.07L568.41,157.33L569.52,161.54L569.71,162.34L570.64,158.69L570.82,161.82L572.87,168.42L573.05,168.08L573.42,169.98L573.61,167.53L574.17,168.55L574.91,173.04L575.47,171.48L576.03,164.61L576.21,165.39L576.77,166.24L576.95,163.4L577.51,164.76L578.07,164.43L579.56,156.33L579.74,158.6L579.93,156.86L580.67,157.02L581.04,162.25L581.41,158.25L581.97,157.53L582.16,157.98L582.34,156.51L582.53,157.14L582.72,154.47L583.27,155.24L583.46,159.29L583.83,152.77L584.02,156.65L584.57,159.55L586.25,152.29L586.43,149.66L586.62,151.74L587.17,150.73L587.36,149.22L587.73,145.16L587.92,147.44L588.48,148.5L588.85,147.95L589.03,150.18L589.22,145.33L589.96,144.41L590.15,145.04L590.33,142.47L591.26,138.01L591.45,142.88L592.38,137.2L592.56,136.6L592.93,134.93L593.12,136.86L594.05,138.5L594.24,133.54L594.98,136.38L595.16,134.64L595.35,134.96L595.54,136.35L595.72,133.58L596.28,133.36L596.65,133.21L596.84,135.27L597.02,133.82L597.58,135.81L598.32,128.66L598.88,129.77L599.25,128.45L599.44,132.55L599.62,132.27L600.18,132.46L600.55,132.81L600.74,133.11L601.48,127.18L601.67,129.41L601.85,133.19L602.04,132.18L602.23,123.2L602.78,120.45L602.97,122.76L603.15,124.43L604.08,122.35L604.27,125.35L604.83,130.07L605.38,128.81L605.57,129.37L605.76,127.74L605.94,131.34L607.43,123.89L608.17,124.98L608.36,126.41L608.73,124.06L609.29,119.89L609.84,118.38L610.03,122.43L610.59,123.08L611.14,133.16L611.33,132.6L611.89,130.73L612.26,135.81L612.63,135.13L613.19,133.09L613.37,137.76L613.93,135.31L614.49,135.36L615.05,131.16L615.23,133.25L615.79,130.48L616.35,134.62L616.53,138.15L617.28,133.72L617.46,140.37L617.65,141.95L617.83,134.91L619.88,120.44L620.06,121.39L620.25,123.08L620.44,119.98L620.99,120.56L621.18,117.52L621.55,123.49L621.74,121.83L622.29,120.88L622.48,122.62L623.04,120.17L623.59,119.29L624.15,121.37L624.34,121L624.9,123.07L625.08,121.06L625.27,123.64L625.64,121.61L626.2,122.97L627.68,114.48L627.87,116.52L628.05,114.31L628.24,114.41L628.98,114.39L629.35,113.93L629.54,115.13L630.47,117.92L630.66,121.98L630.84,121.89L631.4,118.19L631.96,112.31L632.14,112.83L632.89,114.36L633.07,115.88L633.26,113.96L633.44,112.34L634,113.24" style="vector-effect: none; fill: none; stroke: rgb(44, 160, 44); stroke-opacity: 1; stroke-width: 2px; opacity: 1;"/></g><g class="points"/><g class="text"/></g></g></g><g class="overplot"/><path class="xlines-above crisp" d="M0,0" style="fill: none;"/><path class="ylines-above crisp" d="M0,0" style="fill: none;"/><g class="overlines-above"/><g class="xaxislayer-above"><g class="xtick"><text text-anchor="middle" x="0" y="333" transform="translate(123.15,0)" style="font-family: 'Open Sans', verdana, arial, sans-serif; font-size: 12px; fill: rgb(214, 223, 239); fill-opacity: 1; white-space: pre; opacity: 1;">2016</text></g><g class="xtick"><text text-anchor="middle" x="0" y="333" style="font-family: 'Open Sans', verdana, arial, sans-serif; font-size: 12px; fill: rgb(214, 223, 239); fill-opacity: 1; white-space: pre; opacity: 1;" transform="translate(258.98,0)">2018</text></g><g class="xtick"><text text-anchor="middle" x="0" y="333" style="font-family: 'Open Sans', verdana, arial, sans-serif; font-size: 12px; fill: rgb(214, 223, 239); fill-opacity: 1; white-space: pre; opacity: 1;" transform="translate(394.62,0)">2020</text></g><g class="xtick"><text text-anchor="middle" x="0" y="333" style="font-family: 'Open Sans', verdana, arial, sans-serif; font-size: 12px; fill: rgb(214, 223, 239); fill-opacity: 1; white-space: pre; opacity: 1;" transform="translate(530.45,0)">2022</text></g><g class="xtick"><text text-anchor="middle" x="0" y="333" style="font-family: 'Open Sans', verdana, arial, sans-serif; font-size: 12px; fill: rgb(214, 223, 239); fill-opacity: 1; white-space: pre; opacity: 1;" transform="translate(666.1,0)">2024</text></g></g><g class="yaxislayer-above"><g class="ytick"><text text-anchor="end" x="35" y="4.199999999999999" transform="translate(0,298.40999999999997)" style="font-family: 'Open Sans', verdana, arial, sans-serif; font-size: 12px; fill: rgb(214, 223, 239); fill-opacity: 1; white-space: pre; opacity: 1;">100</text></g><g class="ytick"><text text-anchor="end" x="35" y="4.199999999999999" style="font-family: 'Open Sans', verdana, arial, sans-serif; font-size: 12px; fill: rgb(214, 223, 239); fill-opacity: 1; white-space: pre; opacity: 1;" transform="translate(0,255.05)">200</text></g><g class="ytick"><text text-anchor="end" x="35" y="4.199999999999999" style="font-family: 'Open Sans', verdana, arial, sans-serif; font-size: 12px; fill: rgb(214, 223, 239); fill-opacity: 1; white-space: pre; opacity: 1;" transform="translate(0,211.69)">300</text></g><g class="ytick"><text text-anchor="end" x="35" y="4.199999999999999" style="font-family: 'Open Sans', verdana, arial, sans-serif; font-size: 12px; fill: rgb(214, 223, 239); fill-opacity: 1; white-space: pre; opacity: 1;" transform="translate(0,168.32999999999998)">400</text></g><g class="ytick"><text text-anchor="end" x="35" y="4.199999999999999" style="font-family: 'Open Sans', verdana, arial, sans-serif; font-size: 12px; fill: rgb(214, 223, 239); fill-opacity: 1; white-space: pre; opacity: 1;" transform="translate(0,124.97)">500</text></g><g class="ytick"><text text-anchor="end" x="35" y="4.199999999999999" style="font-family: 'Open Sans', verdana, arial, sans-serif; font-size: 12px; fill: rgb(214, 223, 239); fill-opacity: 1; white-space: pre; opacity: 1;" transform="translate(0,81.61)">600</text></g></g><g class="overaxes-above"/></g></g><g class="polarlayer"/><g class="smithlayer"/><g class="ternarylayer"/><g class="geolayer"/><g class="funnelarealayer"/><g class="pielayer"/><g class="iciclelayer"/><g class="treemaplayer"/><g class="sunburstlayer"/><g class="glimages"/><defs id="topdefs-ecde91"><g class="clips"/><clipPath id="legendecde91"><rect width="284" height="29" x="0" y="0"/></clipPath></defs><g class="layer-above"><g class="imagelayer"/><g class="shapelayer"/></g><g class="infolayer"><g class="legend" pointer-events="all" transform="translate(386,11.519999999999996)"><rect class="bg" shape-rendering="crispEdges" style="stroke: rgb(68, 68, 68); stroke-opacity: 1; fill: rgb(33, 34, 38); fill-opacity: 1; stroke-width: 0px;" width="284" height="29" x="0" y="0"/><g class="scrollbox" transform="" clip-path="url(#legendecde91)"><g class="groups"><g class="traces" transform="translate(0,14.5)" style="opacity: 1;"><text class="legendtext" text-anchor="start" x="40" y="4.680000000000001" style="font-family: 'Open Sans', verdana, arial, sans-serif; font-size: 12px; fill: rgb(214, 223, 239); fill-opacity: 1; white-space: pre;">Technology</text><g class="layers" style="opacity: 1;"><g class="legendfill"/><g class="legendlines"><path class="js-line" d="M5,0h30" style="fill: none; stroke: rgb(31, 119, 180); stroke-opacity: 1; stroke-width: 2px;"/></g><g class="legendsymbols"><g class="legendpoints"/></g></g><rect class="legendtoggle" x="0" y="-9.5" width="110.921875" height="19" style="fill: rgb(0, 0, 0); fill-opacity: 0;"/></g><g class="traces" transform="translate(113.421875,14.5)" style="opacity: 1;"><text class="legendtext" text-anchor="start" x="40" y="4.680000000000001" style="font-family: 'Open Sans', verdana, arial, sans-serif; font-size: 12px; fill: rgb(214, 223, 239); fill-opacity: 1; white-space: pre;">Finance</text><g class="layers" style="opacity: 1;"><g class="legendfill"/><g class="legendlines"><path class="js-line" d="M5,0h30" style="fill: none; stroke: rgb(255, 127, 14); stroke-opacity: 1; stroke-width: 2px;"/></g><g class="legendsymbols"><g class="legendpoints"/></g></g><rect class="legendtoggle" x="0" y="-9.5" width="88.484375" height="19" style="fill: rgb(0, 0, 0); fill-opacity: 0;"/></g><g class="traces" transform="translate(204.40625,14.5)" style="opacity: 1;"><text class="legendtext" text-anchor="start" x="40" y="4.680000000000001" style="font-family: 'Open Sans', verdana, arial, sans-serif; font-size: 12px; fill: rgb(214, 223, 239); fill-opacity: 1; white-space: pre;">Retail</text><g class="layers" style="opacity: 1;"><g class="legendfill"/><g class="legendlines"><path class="js-line" d="M5,0h30" style="fill: none; stroke: rgb(44, 160, 44); stroke-opacity: 1; stroke-width: 2px;"/></g><g class="legendsymbols"><g class="legendpoints"/></g></g><rect class="legendtoggle" x="0" y="-9.5" width="76.515625" height="19" style="fill: rgb(0, 0, 0); fill-opacity: 0;"/></g></g></g><rect class="scrollbar" rx="20" ry="3" width="0" height="0" style="fill: rgb(128, 139, 164); fill-opacity: 1;" x="0" y="0"/></g><g class="g-gtitle"/><g class="g-xtitle"/><g class="g-ytitle"/></g></svg>