<svg class="main-svg" xmlns="http://www.w3.org/2000/svg" xmlns:xlink="http://www.w3.org/1999/xlink" width="700" height="350" style="" viewBox="0 0 700 350"><rect x="0" y="0" width="700" height="350" style="fill: rgb(255, 255, 255); fill-opacity: 1;"/><defs id="defs-8a2f2a"><g class="clips"><clipPath id="clip8a2f2axyplot" class="plotclip"><rect width="617" height="274"/></clipPath><clipPath class="axesclip" id="clip8a2f2ax"><rect x="53" y="0" width="617" height="350"/></clipPath><clipPath class="axesclip" id="clip8a2f2ay"><rect x="0" y="46" width="700" height="274"/></clipPath><clipPath class="axesclip" id="clip8a2f2axy"><rect x="53" y="46" width="617" height="274"/></clipPath></g><g class="gradients"/><g class="patterns"/></defs><g class="bglayer"><rect class="bg" x="53" y="46" width="617" height="274" style="fill: rgb(229, 236, 246); fill-opacity: 1; stroke-width: 0;"/></g><g class="layer-below"><g class="imagelayer"/><g class="shapelayer"/></g><g class="cartesianlayer"><g class="subplot xy"><g class="layer-subplot"><g class="shapelayer"/><g class="imagelayer"/></g><g class="minor-gridlayer"><g class="x"/><g class="y"/></g><g class="gridlayer"><g class="x"><path class="xgrid crisp" transform="translate(92.53,0)" d="M0,46v274" style="stroke: rgb(255, 255, 255); stroke-opacity: 1; stroke-width: 1px;"/><path class="xgrid crisp" transform="translate(206.17,0)" d="M0,46v274" style="stroke: rgb(255, 255, 255); stroke-opacity: 1; stroke-width: 1px;"/><path class="xgrid crisp" transform="translate(317.96,0)" d="M0,46v274" style="stroke: rgb(255, 255, 255); stroke-opacity: 1; stroke-width: 1px;"/><path class="xgrid crisp" transform="translate(431.6,0)" d="M0,46v274" style="stroke: rgb(255, 255, 255); stroke-opacity: 1; stroke-width: 1px;"/><path class="xgrid crisp" transform="translate(543.39,0)" d="M0,46v274" style="stroke: rgb(255, 255, 255); stroke-opacity: 1; stroke-width: 1px;"/><path class="xgrid crisp" transform="translate(657.03,0)" d="M0,46v274" style="stroke: rgb(255, 255, 255); stroke-opacity: 1; stroke-width: 1px;"/></g><g class="y"><path class="ygrid crisp" transform="translate(0,296)" d="M53,0h617" style="stroke: rgb(255, 255, 255); stroke-opacity: 1; stroke-width: 1px;"/><path class="ygrid crisp" transform="translate(0,248.02)" d="M53,0h617" style="stroke: rgb(255, 255, 255); stroke-opacity: 1; stroke-width: 1px;"/><path class="ygrid crisp" transform="translate(0,152.06)" d="M53,0h617" style="stroke: rgb(255, 255, 255); stroke-opacity: 1; stroke-width: 1px;"/><path class="ygrid crisp" transform="translate(0,104.08)" d="M53,0h617" style="stroke: rgb(255, 255, 255); stroke-opacity: 1; stroke-width: 1px;"/><path class="ygrid crisp" transform="translate(0,56.09)" d="M53,0h617" style="stroke: rgb(255, 255, 255); stroke-opacity: 1; stroke-width: 1px;"/></g></g><g class="zerolinelayer"><path class="yzl zl crisp" transform="translate(0,200.04)" d="M53,0h617" style="stroke: rgb(255, 255, 255); stroke-opacity: 1; stroke-width: 2px;"/></g><path class="xlines-below"/><path class="ylines-below"/><g class="overlines-below"/><g class="xaxislayer-below"/><g class="yaxislayer-below"/><g class="overaxes-below"/><g class="plot" transform="translate(53,46)" clip-path="url(#clip8a2f2axyplot)"><g class="scatterlayer mlayer"><g class="trace scatter traced743e5fb-2c03-4af2-959e-68e3575ca570" style="stroke-miterlimit: 2; opacity: 1;"><g class="fills"/><g class="errorbars"/><g class="lines"><path class="js-line" d="M17.91,160.66L19.76,166.56L20.38,165.95L22.23,157.92L22.85,158.52L23.47,159.84L24.09,157.8L24.7,158.84L25.32,157.3L25.94,157.1L26.56,155.33L27.18,158.67L27.79,155.67L28.41,155.09L29.03,152.85L30.26,156.9L30.88,152.8L31.5,153.25L32.12,157.62L32.73,156.44L33.35,158.79L35.2,148.71L35.82,150.6L36.44,150.56L37.06,149.37L37.67,149.18L38.29,147.22L38.91,144.63L39.53,150.75L40.15,150.07L40.76,151.19L42,149.74L42.62,150.06L43.23,148.91L43.85,150.33L44.47,150.62L45.09,152.42L45.7,152.91L46.32,155.18L47.56,153.76L48.17,150.02L48.79,149.61L49.41,150.21L50.03,148.76L50.64,143.33L51.26,141.09L51.88,135.13L53.12,138.26L53.73,136.86L54.35,134.89L54.97,137.56L55.59,139.08L56.2,138.31L56.82,137.13L57.44,139.61L58.06,135.85L58.67,136.89L59.29,138.33L59.91,137.43L61.14,136.82L61.76,134.25L64.23,137.94L64.85,137.32L66.09,139.79L66.7,143.93L67.94,147.57L68.56,149.04L70.41,156.4L71.03,155.25L73.5,167.48L74.11,166.59L75.35,166.14L75.97,164.78L79.67,179.81L80.29,176.96L81.53,169.93L82.14,170.17L82.76,170.86L83.38,170.11L84.61,169.29L85.23,169.61L86.47,163.69L87.08,164.48L87.7,161.41L88.32,163.52L89.55,168.59L90.17,166.57L90.79,164.62L91.41,159.06L92.64,157.16L93.26,162.02L94.5,163.97L95.11,163.33L96.97,149.26L97.58,144.99L98.2,141.95L98.82,145.43L100.05,152.29L100.67,149.63L101.29,150.73L101.91,154.1L103.14,155.66L103.76,154.93L104.38,155.66L104.99,158.68L105.61,158.44L106.23,160.25L106.85,161.25L107.47,158.51L108.08,158.6L108.7,162.88L111.17,175.41L111.79,171.57L112.41,173.04L113.02,178.52L113.64,179.12L114.26,182.64L114.88,185.25L115.49,184.81L116.11,186.91L117.96,198.38L118.58,196.01L119.2,194.94L119.82,196.07L121.05,191.02L121.67,192.35L122.91,194.74L123.52,191.5L124.76,193.75L125.38,192.88L126.61,196.02L127.23,193.08L128.46,186.65L129.08,186.69L129.7,188.68L130.32,187.04L132.17,183.46L132.79,183.11L133.41,180.12L134.02,181.22L134.64,182.17L135.26,185.36L135.88,185.1L136.49,178.35L137.73,183.7L138.35,181.4L139.58,187.4L140.2,183.3L140.82,184.23L141.43,180.73L142.05,183.69L142.67,182.1L143.9,183.42L144.52,182.27L145.76,177.41L146.38,178.63L146.99,178.98L147.61,173.67L148.23,167.69L148.85,171.49L149.46,170.51L150.08,167.24L151.32,165.64L151.93,168.28L154.4,159.83L155.02,163.41L156.26,162.7L156.87,161.97L157.49,160.14L158.11,155.81L158.73,156.85L159.35,153.03L159.96,153.53L160.58,151.87L161.82,150.23L162.43,148.29L163.05,148.51L163.67,147.12L164.9,153.5L165.52,152.95L167.37,159.85L167.99,159.1L168.61,156.87L169.23,157.14L169.84,156.53L170.46,155.18L171.08,157.12L172.93,152.16L173.55,148.73L177.26,142.2L177.87,143.28L178.49,143.68L179.11,142.07L180.34,141.94L180.96,141.52L181.58,141.64L182.2,142.88L182.81,144.01L183.43,142.04L184.05,137.77L184.67,139.27L185.9,135.53L186.52,136.08L187.14,136.29L187.76,134.88L188.37,133.93L188.99,136.9L189.61,134.38L190.23,136.73L190.84,137.42L191.46,135.8L192.08,134.69L192.7,135.37L193.31,135.14L193.93,136.59L195.78,140.91L196.4,140.06L197.02,139.08L197.64,140.1L198.26,139.9L198.87,141.37L200.73,139.51L201.34,137.1L201.96,136.67L202.58,139.59L203.81,137.31L204.43,136.81L205.05,135.93L205.67,137.33L206.9,139.04L207.52,134.4L208.14,136.43L208.75,134.33L209.37,132.96L209.99,135.2L211.23,138.42L211.84,137L212.46,135.73L213.08,136.49L213.7,136.56L214.31,135.12L218.64,128.78L219.25,127.97L222.34,122.17L222.96,123.37L223.58,123.58L224.2,125.04L224.81,123.52L225.43,125.05L226.05,126.09L226.67,124.87L227.9,125.19L228.52,125.99L230.37,126.17L230.99,126.95L231.61,125.82L232.22,127.44L233.46,129.29L234.08,128.03L235.93,126.53L236.55,125.13L238.4,123.09L239.02,123.7L240.25,122.91L240.87,124.36L241.49,124.3L242.11,125.33L242.72,125.67L243.34,125.09L244.58,123.89L245.19,124.02L247.05,121.1L247.66,120.4L248.28,121.17L248.9,120.55L250.14,119.12L250.75,117.72L251.99,117.22L252.61,119.35L253.84,123.33L254.46,124.23L255.08,124.52L255.69,123.35L256.31,124.14L256.93,126.97L257.55,127.3L258.16,129.02L259.4,128.78L260.02,127.08L260.63,126.56L261.25,124.7L261.87,127.32L262.49,126.54L263.11,126.89L263.72,125.89L264.96,126.89L265.58,126.02L266.81,123.84L267.43,125.42L268.05,124.97L268.66,122.41L269.9,125.63L270.52,124.49L271.13,124.33L271.75,121.12L274.84,128.17L275.46,128.11L276.08,128.62L276.69,127.62L277.93,129.12L278.55,128.33L279.16,127.86L279.78,126.31L280.4,123.59L281.02,124.69L281.63,125.18L282.25,124.13L282.87,123.05L283.49,124.64L284.1,124.29L284.72,122.68L285.34,125.11L285.96,122.22L286.57,121.68L287.19,123.24L287.81,120.88L288.43,122.09L290.28,123.89L290.9,120.47L293.37,116.27L293.99,112.69L295.22,114.45L295.84,113.71L296.46,113.3L297.07,115.38L297.69,113.73L298.31,114.78L299.54,116.61L300.16,115.18L301.4,120.83L302.02,119.04L303.25,123.66L303.87,122.48L305.1,124.15L305.72,123.31L306.34,122.81L306.96,120.55L308.81,118.95L309.43,120.69L310.66,122.18L311.28,122.69L312.51,123.46L313.13,122.44L314.98,123.35L315.6,122.72L316.84,126.04L317.46,127.01L319.31,127.41L319.93,126.08L320.54,125.39L321.16,122.98L321.78,123.15L322.4,122.54L323.63,122.5L324.25,124.11L324.87,123.99L325.48,124.68L326.1,124.46L326.72,125.94L327.95,126.59L328.57,126.24L331.04,128.07L331.66,127.11L332.28,127.13L332.9,128.44L334.13,128.85L334.75,127.37L338.45,123.11L339.07,123.69L339.69,123.52L340.31,124.21L340.92,123.56L341.54,124.16L342.16,124.09L342.78,123.19L343.4,123.32L344.01,124.94L344.63,125.95L345.25,123.55L347.72,115.39L348.34,117.32L352.04,108.88L352.66,110.66L353.89,108.57L354.51,109.44L355.13,111.29L355.75,110.33L356.37,110.27L356.98,111.04L357.6,111.47L358.22,110.62L358.84,108.67L359.45,109.31L360.07,108.82L360.69,109.29L361.92,112.3L362.54,110.41L363.16,109.05L363.78,109.99L365.63,117.28L366.25,117.05L366.86,115.99L367.48,116.01L368.1,120.12L369.95,124.23L370.57,125.39L371.19,124.64L371.81,127.33L373.04,132.55L373.66,131.2L376.13,135.34L376.75,140.03L378.6,147.7L379.22,147.86L380.45,147.55L381.07,148.05L382.31,149.6L382.92,149.95L383.54,150.92L384.16,148.6L384.78,149.17L385.39,146.4L386.63,143.8L387.25,144.9L389.1,142.83L389.72,143.01L390.33,143.11L390.95,140.77L392.19,138.79L392.8,139.06L394.66,134.51L395.28,132.57L396.51,131L397.13,131.24L397.75,130.38L398.36,131.44L399.6,131.64L400.22,132.62L400.83,133.01L401.45,135.61L402.07,134.97L402.69,137.38L404.54,143.23L405.16,144.34L405.77,142.02L406.39,144.09L408.25,148.25L408.86,149.02L409.48,151.13L410.1,150.48L411.95,154.06L412.57,155.71L413.19,157.5L413.8,156.57L415.66,152.8L416.27,153.09L418.74,148.12L419.36,147.67L419.98,145.82L420.6,146.76L421.22,147.78L421.83,144.69L422.45,144.45L423.07,148.45L423.69,147.38L424.3,148.59L426.16,140.29L426.77,139.12L427.39,138.4L428.01,136.41L432.33,129.43L432.95,129.65L434.19,127.83L434.8,128.09L436.66,128.33L437.27,126.84L439.13,122.76L439.74,120.25L440.98,121.38L441.6,118.44L442.83,117.62L443.45,120.35L444.07,119.72L444.68,121.49L445.3,123.64L445.92,123.02L447.77,122.72L448.39,121.45L449.63,120.31L450.24,120.86L450.86,121.83L451.48,120.84L452.1,118.81L452.71,119.64L455.18,117.4L455.8,119.18L457.04,118.78L457.65,120.16L458.27,119.24L458.89,119.89L459.51,119.9L460.13,118.65L460.74,119.86L461.36,119.36L463.21,118.74L463.83,116.45L464.45,117.88L465.07,117.14L466.3,118.64L466.92,119.6L469.39,120.76L470.01,122.03L471.24,123.56L471.86,123.79L473.71,128.4L474.33,126.9L475.57,128.61L476.18,128.23L477.42,129.47L478.04,129.77L480.51,128.06L481.12,128.06L482.36,128.45L482.98,126.73L485.45,127.95L486.07,129.97L486.68,130.14L487.3,131.39L487.92,129.72L488.54,130.99L491.62,132.4L492.24,130.64L493.48,132.01L494.09,131.05L496.56,131.17L497.18,132.79L498.42,133.69L499.04,132.24L499.65,132.37L500.27,131.24L501.51,131.25L502.12,132.44L502.74,131.97L503.36,129.27L503.98,130.09L504.59,128.34L507.06,124.63L507.68,124.93L508.3,123.2L508.92,124.1L509.53,124.71L510.15,122.56L513.24,124.78L513.86,124.33L514.48,123.25L515.09,123.92L516.33,122.93L516.95,124.7L518.18,127.84L518.8,128.58L520.03,128.7L520.65,128.55L521.27,128.15L521.89,129.03L523.74,127.17L524.36,127.64L524.97,128.59L525.59,127.68L526.21,126.67L526.83,127.25L528.06,123.81L528.68,126.37L531.15,124.87L531.77,125.15L533,124.16L533.62,123.92L534.24,123.63L534.86,124.57L536.71,120.63L537.33,120.2L539.8,118.82L540.42,118.88L541.03,119.13L541.65,118.54L542.89,120.2L543.5,118.75L544.74,119.06L545.36,118.84L546.59,121.21L547.21,121.06L548.44,121.09L549.06,122.82L550.91,122.37L551.53,122.82L553.39,122.14L554,123.56L554.62,123.26L555.24,124.23L556.47,122.93L557.09,123.76L558.94,124.84L559.56,124.13L560.18,124.53L560.8,126.1L566.97,143.91L567.59,143.28L568.83,147.93L569.44,150.28L573.15,164.58L573.77,166.66L578.71,183.49L579.33,183.4L579.94,181.84L580.56,182.44L581.18,182.18L581.8,181.06L583.03,180.59L583.65,179.19L584.88,175.52L585.5,176.26L586.74,177.34L587.35,176.05L589.82,177.13L590.44,177.1L592.3,174.53L592.91,175.69L594.15,174.99L594.77,174.82L596,174.27L596.62,174.8L599.71,182.06L600.32,184.15L600.94,184.73L601.56,186.92L604.65,195.75L605.27,196.55L607.12,192.62L607.74,190.45L608.97,190.05L609.59,188.79L610.82,188.26L611.44,186.9L612.68,185.3L613.29,184.39L614.53,182L615.15,180.73L616.38,177.5L617,178.66" style="vector-effect: none; fill: none; stroke: rgb(31, 119, 180); stroke-opacity: 1; stroke-width: 2px; opacity: 1;"/></g><g class="points"/><g class="text"/></g><g class="trace scatter tracedad4c8d2-bf74-4478-9a46-1832451a4fd1" style="stroke-miterlimit: 2; opacity: 1;"><g class="fills"/><g class="errorbars"/><g class="lines"><path class="js-line" d="M17.91,118.29L18.53,120.21L19.15,112.3L19.76,108.79L20.38,114.96L22.85,142.95L23.47,141.2L25.32,153.58L25.94,145.55L26.56,142.75L27.18,151.92L29.03,168.98L29.65,168.19L30.26,162.46L30.88,167.54L31.5,175.55L32.12,164.78L33.35,154.95L33.97,159.02L35.2,171.99L35.82,174L36.44,178.48L37.06,176.54L38.91,180.38L39.53,180.17L40.76,185.51L41.38,185.69L42,187.1L42.62,193.14L43.85,192.26L44.47,197.22L45.09,202.59L45.7,200.77L46.32,192.05L46.94,194.97L47.56,194.7L48.17,196.4L51.88,242.37L52.5,239.27L53.12,238.84L53.73,243.89L54.35,248.15L54.97,242.91L56.2,249.5L56.82,255.02L59.29,235.05L59.91,235.31L60.53,234.23L61.14,231.66L61.76,239.94L63,234.29L63.61,234.37L64.23,229.73L64.85,233.79L67.32,221.74L67.94,212.03L69.79,191.34L70.41,184.24L71.03,185.52L71.64,179.16L72.88,153.04L73.5,153.83L74.11,145.31L74.73,143.7L75.35,139.28L75.97,141.85L76.58,133.67L77.2,122.3L77.82,124.71L79.67,105.81L80.29,113.82L81.53,125.58L82.14,119.38L82.76,121.11L83.38,118.36L85.23,114.47L85.85,119.4L87.08,130.94L87.7,136.35L88.32,133.38L88.94,126.48L89.55,117.83L90.17,119.26L90.79,127.45L91.41,141.3L92.03,140.56L92.64,149.59L93.26,149.31L93.88,146.21L94.5,146.74L95.11,154.43L96.97,186.5L97.58,192.11L98.2,200.93L98.82,186.8L100.05,169.95L100.67,172.66L101.91,166.64L102.52,168.14L103.14,167.76L103.76,169.22L104.38,165.08L104.99,155.32L105.61,155.02L106.23,150.73L106.85,149.88L107.47,154.69L108.08,155.98L108.7,151.53L111.17,118.06L111.79,118.05L112.41,114.5L113.02,102.54L114.26,83.16L114.88,72.63L115.49,69.69L116.11,62.91L117.96,41.2L118.58,47.68L119.2,49.68L119.82,44.28L121.05,46.24L121.67,41.86L122.29,40.79L122.91,37.97L123.52,42.68L124.14,38.03L125.99,28.12L126.61,28.87L127.23,29.57L127.85,34.33L129.08,36.94L129.7,36.03L130.32,35.13L130.93,31.58L132.79,40.57L133.41,40.96L134.02,41.37L134.64,44.14L137.11,76.52L137.73,80.1L138.96,96.57L139.58,94.76L141.43,113.28L142.05,115.41L143.29,126.61L143.9,127.66L146.38,141.04L146.99,142.09L148.23,156.26L148.85,155.88L150.08,172.21L150.7,174.81L153.17,192.67L153.79,189.64L156.26,164.54L156.87,163L157.49,158.32L158.11,162.51L158.73,160.13L159.35,165.61L160.58,159.6L161.2,160.24L163.67,175.45L164.29,170.18L164.9,167.13L165.52,170.88L166.14,168.21L166.76,168.86L169.84,186.87L170.46,187.19L171.08,187.61L171.7,191.32L176.02,218.59L176.64,220.63L177.26,223.98L177.87,223.25L178.49,224.97L179.11,227.58L179.73,225.98L181.58,223.48L182.2,221.15L182.81,221.77L183.43,226.98L184.67,229.53L185.29,229.18L186.52,223.89L187.14,224.66L187.76,223.58L188.37,224.97L189.61,228.14L190.23,224.8L190.84,223.24L191.46,226.57L193.31,231.96L193.93,228.43L195.17,226.15L195.78,221.49L197.02,220.02L197.64,222.78L198.26,223.75L198.87,223.28L200.11,226.49L200.73,229.23L201.96,229.82L202.58,226.97L205.05,236.27L205.67,234.49L206.9,227.22L207.52,228.3L208.75,224.14L209.37,222.8L211.84,207.68L212.46,208.71L213.08,208.68L213.7,211.04L214.93,215.1L215.55,214.82L216.17,210.59L216.78,211.98L217.4,216.55L218.02,214.93L218.64,216.14L219.25,216.83L219.87,222.62L220.49,222.35L221.11,225.59L221.72,226.09L222.34,224.88L222.96,224.68L223.58,222.64L224.2,220.09L224.81,224.67L225.43,224.89L226.05,223.45L227.28,229.42L227.9,228.38L228.52,228.94L229.14,227.63L230.99,234.49L231.61,235.51L232.22,235.39L232.84,232.48L234.69,242.18L235.31,243.56L236.55,241.36L237.17,242.67L237.78,242.43L238.4,239.06L239.02,239.28L239.64,240.56L240.25,239.99L240.87,242.21L241.49,243.26L242.11,239.17L242.72,237.68L243.34,234.06L243.96,235.03L244.58,234.39L245.81,230.06L246.43,234.91L247.05,235.43L247.66,239.34L249.52,232.97L250.14,234.22L250.75,232.8L251.37,234.24L252.61,223.59L253.22,224.59L253.84,224.31L254.46,225.01L255.69,223.25L256.31,223.68L256.93,226.73L257.55,225.21L259.4,217.29L260.02,218.06L261.25,223.34L261.87,225.25L262.49,225.46L263.11,224.5L264.34,232.53L264.96,231.97L266.19,233.2L266.81,236.37L267.43,235.53L268.05,237.53L269.28,242.75L269.9,242.38L271.13,243.45L271.75,240.3L272.37,245.59L272.99,244.81L273.6,245.84L274.22,244.23L274.84,239.23L276.08,241.72L276.69,239.56L277.93,240.72L278.55,240.1L279.16,239.67L279.78,236.18L281.02,241.17L281.63,239.91L282.87,231.57L283.49,230.48L284.1,233.49L284.72,233.31L285.34,231.21L286.57,234.55L287.19,226.85L288.43,225.24L289.05,224.95L290.28,229L290.9,226.18L293.37,237.1L293.99,235.47L294.6,234.06L295.22,239.3L297.07,244.71L297.69,245.55L298.31,248.53L298.93,245.16L299.54,244.5L300.16,245.79L302.02,250.47L302.63,246.73L303.25,245.99L303.87,247.48L304.49,245.9L305.1,246.67L306.34,251.57L306.96,251.57L307.57,253.62L308.19,252.6L308.81,254.79L309.43,254.46L310.04,251.33L311.9,247.53L312.51,247.99L313.13,248.9L313.75,246.32L315.6,242.57L316.22,243.29L316.84,241.77L317.46,243.23L318.07,242.18L318.69,244.75L319.31,244.82L319.93,242.64L320.54,243.56L321.16,246.74L321.78,247.64L322.4,243.66L323.01,243.94L323.63,243.07L324.87,240.45L325.48,243.88L327.34,240.09L327.95,237.27L329.81,237.6L330.43,236.99L332.28,236.73L332.9,235.16L334.13,231.95L334.75,233.71L337.22,235.69L337.84,235.68L338.45,235.82L339.07,237.13L339.69,236.98L340.31,238.36L340.92,240.88L341.54,240.07L342.16,238.85L342.78,240.52L343.4,241.51L344.01,238.58L344.63,237.6L345.25,238.58L345.87,247.56L346.48,247.37L347.1,249.32L348.34,247.19L348.95,249L350.19,256.85L350.81,254.83L351.42,253.39L352.04,257.77L353.28,258.55L353.89,257.34L354.51,259.74L355.13,258.53L356.37,257.02L356.98,256.49L357.6,254.69L358.22,255.97L358.84,257.82L359.45,256.41L360.07,256.94L360.69,256.1L361.31,256.4L361.92,254.23L363.16,257L363.78,260.3L364.39,252.69L365.01,252.81L365.63,252.23L367.48,259.53L368.1,254.26L368.72,246.24L369.34,248.89L369.95,252.85L370.57,251.04L371.19,249.62L371.81,245.57L373.04,231.47L373.66,231.61L374.28,230.88L374.89,231.52L375.51,229.45L376.13,227.17L376.75,220.2L377.98,205.39L378.6,200.8L379.22,201.31L379.83,198.54L381.07,199.92L381.69,199.75L382.92,194.24L383.54,194.39L384.78,193.01L385.39,196.95L386.01,198.66L386.63,196.48L387.25,196L387.86,194.42L388.48,195.55L389.1,194.01L391.57,206.07L392.19,204.59L393.42,198.58L394.04,199.54L394.66,200.32L395.28,202.68L396.51,210.92L397.13,212.24L399.6,203.11L400.22,198.69L403.3,184.58L403.92,179.76L404.54,175.85L405.16,178.23L405.77,184.07L406.39,181.58L410.1,162.34L410.72,161.34L413.19,165.11L413.8,166.69L415.66,169.15L416.27,171.44L418.13,180.62L418.74,183.43L419.98,186.73L420.6,189.97L421.83,198.42L422.45,192.96L424.3,185.48L424.92,186.95L425.54,187.96L426.16,190.71L430.48,219.28L431.1,222.39L433.57,230.68L434.19,233.97L434.8,235.71L435.42,235.38L436.04,235.54L436.66,236.34L437.27,234.94L437.89,238.89L438.51,237.96L440.36,233.55L440.98,238.21L442.21,248.43L442.83,245.68L443.45,246.94L444.07,245.86L447.16,237.04L447.77,237.2L448.39,235.86L449.01,236.62L452.1,231.79L452.71,232.52L453.95,230.13L454.57,231.33L455.18,229.31L455.8,231.87L456.42,229.33L457.04,231.65L457.65,231.95L458.27,234.75L460.74,231.06L461.36,234.24L462.6,237.95L463.21,243.82L463.83,244.94L464.45,248.02L465.68,248.09L466.3,246.95L466.92,248.18L467.54,247.02L468.15,246.75L468.77,247.37L470.62,249.48L471.24,247.92L473.1,244.26L473.71,246.81L474.33,244.61L474.95,245.32L476.18,246.83L476.8,245.3L477.42,245.81L478.04,244.65L479.27,244.3L479.89,243.89L480.51,244.04L481.12,245.15L482.98,241.83L483.59,244.17L486.07,237.47L486.68,235.03L487.92,230.2L488.54,232.51L489.15,232.46L489.77,231.61L490.39,231.3L491.01,234.12L492.24,231.93L492.86,234.73L493.48,236.56L494.09,234.24L495.95,232.52L496.56,233.74L497.8,236.37L498.42,236.35L499.04,236.49L499.65,233.41L501.51,234.08L502.12,230.95L503.98,232.69L504.59,235.91L506.45,238.63L507.06,236.64L507.68,236.79L508.3,235.54L508.92,236.26L509.53,234.5L510.15,234.97L510.77,236.72L512.01,234.46L512.62,235.51L513.24,234.95L513.86,235.77L515.09,235.35L515.71,234.84L518.18,230.04L518.8,226.75L519.42,228.96L520.03,227.38L521.27,228.91L521.89,228.72L522.5,228L523.12,226.06L524.36,228.39L524.97,228.47L526.21,229.6L526.83,231.97L528.68,236.64L529.3,235.27L530.53,234.92L531.15,234.3L531.77,234.79L532.39,232.64L533.62,232.04L534.24,233.16L534.86,233.22L535.47,235.14L536.09,235.82L536.71,237.64L537.33,239.78L537.94,238.17L538.56,237.41L539.18,237.95L541.65,239.99L542.27,238.48L544.12,240.42L544.74,238.95L546.59,236.42L547.21,236.63L548.44,236.42L549.06,237.78L549.68,238L550.3,239.67L551.53,242.6L552.15,242.05L553.39,240.74L554,241.44L555.86,241.59L556.47,244.14L557.09,245.36L557.71,244.69L560.18,245.13L560.8,238.05L571.3,130.94L571.91,122.48L578.09,50.27L578.71,47.92L579.94,50.8L580.56,51.06L582.41,54.64L583.03,56.23L585.5,70.06L586.12,66.13L586.74,66.32L587.35,65.03L587.97,67.43L588.59,66.88L589.21,64.49L590.44,65.82L591.06,67.82L594.15,62.7L594.77,63.86L596,66.5L596.62,63.9L598.47,51.34L599.09,49.31L602.79,29.66L603.41,23.91L604.65,14.86L605.27,13.7L608.35,26.75L608.97,29.37L609.59,30.72L610.21,35.64L611.44,40.04L612.06,46.05L617,81.59" style="vector-effect: none; fill: none; stroke: rgb(255, 127, 14); stroke-opacity: 1; stroke-width: 2px; opacity: 1;"/></g><g class="points"/><g class="text"/></g><g class="trace scatter trace11b458f5-fa47-4f49-9dec-a1b4a5f52855" style="stroke-miterlimit: 2; opacity: 1;"><g class="fills"/><g class="errorbars"/><g class="lines"><path class="js-line" d="M17.91,184.1L18.53,180.18L19.15,184.57L21.62,175.55L22.23,177.68L23.47,172.35L24.09,171.7L24.7,170.19L25.32,166.54L26.56,177.59L27.18,158.03L28.41,160.43L29.03,159.67L30.26,160.8L30.88,163.94L32.12,161.36L32.73,171.04L36.44,152.7L37.06,158.47L37.67,157.07L38.29,158.59L38.91,162.23L39.53,149.91L40.76,141.28L41.38,141.12L42.62,132.67L43.23,134.22L44.47,128.66L45.09,122L45.7,122.68L46.32,121.38L47.56,115.4L48.17,115.77L48.79,109.58L51.26,95.31L51.88,96.78L52.5,95.25L53.12,96.48L53.73,95.1L54.35,95.53L54.97,96.56L56.2,89.24L56.82,87.89L57.44,89.17L58.06,102.31L61.14,115.16L61.76,112.37L62.38,116.69L63,114.24L63.61,112.29L64.23,114.4L64.85,112.62L65.47,116.5L66.09,118.31L66.7,117.34L67.32,117.92L67.94,120.03L69.79,131.9L70.41,132.98L71.03,133.43L71.64,132.85L72.26,133.66L72.88,136.18L73.5,135.73L74.11,142.03L74.73,142.73L75.35,145.14L75.97,142.47L76.58,144.97L77.2,146.38L77.82,141.55L79.06,144.79L79.67,147.84L80.91,146.1L81.53,149.15L82.14,152.13L82.76,149.32L84,152.33L84.61,152.27L87.08,148.37L87.7,148.61L88.32,146.71L88.94,149.18L90.17,155.51L90.79,155.3L92.03,154.4L92.64,150.78L93.88,143.77L94.5,142.59L95.73,136.44L96.35,138.21L96.97,133.43L97.58,135.16L98.2,134.29L98.82,138.25L101.29,143.83L101.91,140.51L102.52,137.58L103.14,137.93L103.76,138.41L105.61,145.57L106.23,145.91L107.47,148L108.08,146.68L108.7,145.53L109.32,147.99L113.64,169.83L114.26,176.82L116.11,185.58L116.73,187.66L117.96,188.08L118.58,186.87L119.2,186.15L119.82,187.65L121.05,195.55L121.67,195.56L122.29,196.24L122.91,195.38L123.52,195.26L124.14,197.72L125.38,200.73L125.99,197.16L126.61,194.75L127.23,197.74L127.85,195.95L128.46,196.88L129.08,196.17L129.7,192.4L130.32,195.38L130.93,202.89L132.79,195.9L133.41,199.14L134.02,198.8L134.64,194.5L136.49,175.75L137.11,171.45L139.58,139.46L140.2,139.66L141.43,133.86L142.05,129.47L143.9,119.54L144.52,117.91L145.14,119.77L145.76,118.35L146.99,114.93L147.61,117.31L148.23,121.15L148.85,116.01L149.46,105.84L150.08,111.2L150.7,111.63L151.32,108.17L152.55,99.62L153.17,99.82L156.26,127.7L156.87,130.33L158.11,146.08L158.73,144.93L159.35,147.9L160.58,159.83L161.2,160L163.67,152L164.29,151.71L165.52,152.64L166.14,149.56L167.37,142.36L167.99,142.4L169.84,134.2L170.46,139L172.32,132.23L172.93,130.07L174.79,132.42L175.4,131.18L176.02,131.14L176.64,129.36L177.26,130.03L177.87,127.6L179.11,121.48L179.73,121.94L181.58,129.34L182.2,128.07L183.43,123.7L184.05,126.92L185.29,129.64L185.9,133.79L186.52,133.72L187.14,132.08L188.37,137.36L188.99,131.13L189.61,134.88L190.23,134.14L190.84,135.01L191.46,136.59L192.08,134.34L193.31,129.51L193.93,128.73L195.17,125.94L195.78,125.94L197.02,130.69L197.64,126.32L198.87,125.17L199.49,122.78L200.11,122.38L200.73,124.44L201.96,127.36L202.58,124.67L203.2,121.68L203.81,123.5L205.67,123.27L206.28,123.99L206.9,124.99L207.52,129.37L208.14,128.94L208.75,132.86L211.84,144.76L212.46,144.65L213.08,143.96L213.7,141.55L214.31,141.94L214.93,141.21L215.55,140.63L216.17,144.95L216.78,144.76L217.4,141.46L218.64,142.37L219.25,141.92L219.87,139.3L220.49,140.72L221.11,138.6L221.72,138.99L222.34,141.54L222.96,139.14L223.58,140.17L224.81,135.09L225.43,132.76L226.67,129.86L227.28,126.87L227.9,126.75L228.52,122.85L229.14,124.5L229.75,121.17L231.61,114.93L232.22,115.32L232.84,117.69L233.46,111.3L234.08,110.74L234.69,107.58L235.31,108.11L235.93,114.05L239.64,123.53L240.25,124.36L240.87,120.08L241.49,120.43L242.11,122.42L242.72,122.37L243.34,129.03L244.58,130.42L245.19,135.54L245.81,137.87L246.43,134.63L247.05,137.2L247.66,134.28L250.75,144.79L251.37,144.43L252.61,151.66L253.22,145.8L254.46,141.64L255.08,144.71L255.69,146.04L256.31,143.87L258.16,139.31L258.78,142.27L260.02,146.61L260.63,145.02L261.25,146.04L261.87,138.52L263.11,140.65L263.72,136.43L264.34,132.53L264.96,133.63L266.19,135.78L266.81,134.16L268.05,128.62L268.66,127.6L269.9,118.98L270.52,120.79L271.13,120.75L271.75,129.17L272.37,124.04L272.99,124.45L273.6,121.3L274.22,116.99L274.84,119.95L276.08,116.45L276.69,119.61L277.93,114.46L278.55,115.31L279.16,116.64L279.78,122.11L280.4,123.79L281.02,120.35L281.63,121.87L282.25,127.52L282.87,132.66L283.49,130.53L284.1,126.18L284.72,126.8L285.34,125.57L285.96,129.27L286.57,128.04L287.81,141L288.43,139.51L290.28,132.44L290.9,138.12L292.13,134.93L292.75,138.1L293.37,134.91L293.99,139.48L295.22,133.27L295.84,133.98L296.46,135.28L297.07,129.61L297.69,130.4L298.31,125.51L298.93,125.41L299.54,124.5L300.16,123.79L300.78,117.65L301.4,113.38L302.02,114.83L302.63,117.02L303.25,116.18L303.87,115.51L304.49,115.98L305.1,117.59L305.72,113.81L306.34,115.74L306.96,120.41L307.57,119.99L308.19,121.8L308.81,121.56L309.43,119.53L313.13,124.03L313.75,125.58L314.37,125.52L314.98,124.11L315.6,124.35L316.22,120.84L316.84,120.88L317.46,118.09L318.07,120.59L318.69,118.54L319.31,118.47L319.93,121.54L320.54,121.62L321.16,120.66L321.78,119.81L322.4,125.34L324.25,124.13L324.87,124.74L325.48,120.56L326.1,120.83L326.72,120.25L327.34,121.29L327.95,125.01L329.19,123.55L329.81,122.63L330.43,122.14L331.04,120.35L333.51,122.78L334.13,125.93L335.37,127.14L335.98,129.95L337.22,127.16L337.84,129.44L339.07,127.55L339.69,128.06L341.54,123.15L342.16,124.28L344.63,119.29L345.25,122.07L345.87,118.27L346.48,119.97L347.72,129.29L348.34,129.15L348.95,129.86L349.57,130.7L350.19,128.85L350.81,129.63L351.42,132.05L352.66,129.08L353.28,130.75L353.89,131.98L354.51,129.58L355.13,129.03L355.75,131.79L356.37,131.36L356.98,132.57L357.6,133.47L358.22,132.5L360.07,135.68L360.69,135.2L361.31,133.89L361.92,134.54L363.16,137.11L363.78,132.22L364.39,134.88L365.01,133.13L366.86,118.58L367.48,119.22L368.1,118.99L368.72,123.45L369.95,117.89L370.57,118.16L371.19,118.15L372.42,119.17L373.04,123.54L373.66,124.71L374.28,123.78L374.89,121.21L375.51,121.55L376.13,122.47L376.75,123.75L377.36,126.84L379.22,123.74L379.83,126.5L381.69,124.87L382.31,127.21L382.92,128.62L383.54,127.61L384.78,131.89L385.39,130.12L386.01,127.75L386.63,129.45L387.25,129.34L387.86,132.11L389.72,130.62L390.33,127.89L390.95,128.34L391.57,126.73L392.8,128.62L393.42,133.92L394.04,134.31L394.66,135.68L395.28,136.47L395.89,134.14L397.13,134.56L397.75,136.15L398.98,138.86L399.6,140.25L400.22,140.32L400.83,141.45L402.07,140.77L402.69,142.46L403.3,139.65L403.92,142.96L404.54,143.3L405.16,141.04L406.39,138.55L407.01,137.51L408.25,143.97L408.86,142.75L409.48,140.96L410.1,144.43L410.72,144.44L411.33,143.33L413.19,134.68L413.8,133.22L414.42,134.74L415.04,133.68L415.66,134.06L416.27,132.93L418.13,128.91L418.74,129.86L419.98,129.05L420.6,125.51L421.22,121.62L421.83,126.22L422.45,127.93L423.07,126.44L424.92,135.4L425.54,137.19L426.16,137.78L426.77,136.58L427.39,137.19L428.01,136.09L429.86,131.5L430.48,129.51L431.71,127.57L432.33,127.75L433.57,125.47L434.19,125.49L434.8,124.38L435.42,125.03L436.66,125.89L437.27,128.78L437.89,128.09L438.51,131.33L439.74,139.49L440.36,137L441.6,136.06L442.21,131.37L442.83,134.33L443.45,128.73L444.68,130.06L445.3,127.78L447.16,130.45L447.77,129.94L449.01,132.37L449.63,133.17L450.24,132.83L450.86,130.52L452.1,137.86L452.71,134.57L453.33,135.7L453.95,139.98L454.57,138.55L455.18,140.87L455.8,135.12L456.42,139.06L458.27,130.92L458.89,131.02L459.51,130.81L460.13,134.33L460.74,135.19L461.36,133.68L461.98,133.51L462.6,132.19L463.21,125.76L463.83,127.68L464.45,124.3L465.07,125.06L465.68,124.69L466.3,124.38L466.92,122.43L468.15,124.67L468.77,124.32L470.01,121.38L470.62,117.51L471.86,120.34L472.48,116.47L473.1,118.87L473.71,113.36L474.33,118.41L474.95,115.05L476.8,115.35L477.42,114.73L478.04,114.91L478.65,116.52L479.89,118.71L480.51,117.24L481.12,117.66L481.74,119.79L482.36,120.22L482.98,123.19L483.59,120.7L484.21,121.16L484.83,121L486.68,125.86L487.3,125.84L487.92,131.42L488.54,127.03L489.77,126.97L490.39,128.56L491.62,124.51L492.24,127.47L493.48,120.72L494.09,123.72L495.95,126.19L496.56,125.95L497.8,117.13L498.42,117.21L500.89,125.13L501.51,123.91L503.36,128.87L503.98,126.07L505.21,125.8L505.83,128.97L506.45,127.48L507.06,130.66L507.68,130.02L508.3,133.15L508.92,131.26L509.53,133.09L510.15,135.89L510.77,133.26L511.39,133.56L512.01,134.89L512.62,132.93L513.24,133.55L513.86,133.54L514.48,135L515.09,133.71L515.71,135.46L516.33,138.37L516.95,137.45L518.18,134.32L518.8,134.38L519.42,131.71L520.03,133.8L520.65,132.84L521.27,133.88L521.89,132.86L522.5,135.33L523.74,136.19L524.36,133.97L524.97,133.12L525.59,134.45L526.21,135.16L526.83,132.23L528.06,134.96L528.68,128.72L529.92,132.2L530.53,132.77L531.15,133.26L531.77,131.2L533,134.38L533.62,135.79L534.86,132.87L535.47,133.63L536.09,134.78L536.71,133.03L537.33,133.01L537.94,134.97L538.56,136.42L539.18,136L539.8,134.73L542.27,131.88L542.89,131.73L544.74,131.28L545.36,132.24L546.59,129.76L547.21,130.26L547.83,128.4L548.44,129.48L549.68,125.51L550.3,124.08L551.53,119.47L552.15,120.12L553.39,122.84L554,120.14L554.62,121.32L555.24,120.44L555.86,122.54L556.47,120.71L557.71,118.51L558.33,119.81L558.94,119.37L559.56,120.39L560.18,120L560.8,124.73L562.03,130.13L562.65,132.77L563.27,133.4L563.88,135.51L566.97,149.8L567.59,155.12L570.06,164.01L570.68,165.45L573.77,178.92L574.38,179.15L575,180.56L575.62,185.24L578.09,194.54L578.71,195.8L579.33,193.07L579.94,193.6L580.56,191.94L581.18,191.12L581.8,192.13L583.65,189.17L584.27,190.57L585.5,185.78L586.12,188.23L586.74,186.39L587.35,189.6L587.97,187.95L588.59,189.67L589.82,189.66L590.44,187.53L591.06,187.12L591.68,188.14L593.53,194.18L594.15,192.83L594.77,192.87L595.38,192.08L596,191.34L596.62,192.71L597.85,197.82L598.47,196.58L600.32,199.71L600.94,200.66L601.56,202L602.18,201.02L602.79,199.95L603.41,201.71L604.03,205.69L604.65,204.05L605.27,203.95L605.88,202.79L606.5,204.9L607.12,203.55L607.74,204.48L608.35,202.85L609.59,203.64L610.21,199.52L612.68,192.62L613.29,189.5L613.91,187.86L614.53,189.44L617,175.91" style="vector-effect: none; fill: none; stroke: rgb(44, 160, 44); stroke-opacity: 1; stroke-width: 2px; opacity: 1;"/></g><g class="points"/><g class="text"/></g><g class="trace scatter trace67ce912c-ec73-4a1e-8d8e-526881726ee5" style="stroke-miterlimit: 2; opacity: 1;"><g class="fills"/><g class="errorbars"/><g class="lines"><path class="js-line" d="M17.91,153.11L18.53,153.42L19.15,156L19.76,159L20.38,156.8L22.85,141.21L23.47,142.77L24.7,138.76L25.32,138.75L26.56,140.48L27.18,147.55L27.79,139.12L28.41,140.06L29.03,134.67L29.65,132.96L30.26,135.99L31.5,126.1L32.12,132.4L32.73,132.22L33.35,134.14L33.97,136.39L34.59,135.62L35.2,134.08L35.82,134.94L36.44,134.42L37.06,131.78L38.29,130.79L38.91,128.92L40.15,137.83L40.76,138.18L42,141.55L42.62,140.28L43.85,141.86L44.47,139.66L45.09,139.16L45.7,139.8L46.94,147.7L47.56,152.3L48.17,153.97L48.79,151.85L49.41,152.04L50.03,151.42L51.88,141.88L52.5,143.41L53.12,142.57L53.73,140.31L54.35,137.6L54.97,139.14L55.59,140.05L56.2,139.12L58.06,131.37L58.67,132.22L59.29,135.07L59.91,132.38L60.53,131.55L61.14,132.53L61.76,129.61L62.38,130.06L63,131.54L63.61,131.98L64.23,134.09L66.09,129.39L66.7,130.16L67.32,131.47L67.94,136.53L69.17,141.08L69.79,139.35L72.26,151.44L72.88,159.53L73.5,159.12L74.11,162.24L75.97,167.06L76.58,170.27L77.82,177.19L78.44,179.82L79.06,179.83L79.67,182.7L81.53,171.5L82.14,174.48L83.38,175.95L84,178.32L85.23,181.1L85.85,179.67L87.08,172.37L87.7,169.79L89.55,176.35L90.17,174.82L91.41,161.23L92.03,163.12L92.64,158.62L93.26,159.11L93.88,162.18L94.5,162.87L95.11,159.48L96.35,148L96.97,146.98L98.2,138.98L98.82,145.68L100.05,153.73L100.67,151.29L101.29,152.33L101.91,154.92L102.52,155.31L103.14,154.8L103.76,153.61L104.38,154.31L104.99,157.61L105.61,157.13L106.23,159.27L106.85,158.16L107.47,154.96L108.08,154.9L108.7,156.22L111.17,167.65L111.79,165.5L112.41,165.72L113.02,167.76L116.73,185.53L117.35,185.7L117.96,188.5L118.58,185.6L119.2,185.38L119.82,188.16L121.05,183.36L121.67,186.39L122.29,185.86L122.91,188.08L123.52,186.73L124.14,187.68L125.38,189.61L125.99,195.08L126.61,196.52L127.23,195.77L127.85,196.82L128.46,195.93L129.08,196.36L129.7,199.06L130.32,198.6L130.93,196.51L132.17,197.52L132.79,196.58L134.02,194.77L134.64,195.36L135.88,192.22L136.49,186.6L137.11,187.95L137.73,191.35L138.35,187.73L138.96,188.83L139.58,194.54L140.2,189.55L140.82,191.77L141.43,188.29L142.05,187.59L142.67,185.25L143.29,187.23L143.9,185.54L146.38,179.15L146.99,180.16L148.23,171.05L148.85,172.78L149.46,171.95L150.08,165.51L151.32,163.84L151.93,163.06L153.79,159.1L154.4,160.97L155.02,164.66L155.64,162.73L157.49,159.39L158.11,151.76L158.73,154.25L159.35,149.62L160.58,144.86L161.2,144.46L161.82,143.85L162.43,144.34L163.67,141.58L164.29,142.42L164.9,143.32L165.52,139.7L166.14,143.21L166.76,142.99L167.37,141.42L169.84,138.56L170.46,134.8L171.08,135.98L171.7,135.55L172.32,134.74L172.93,135.37L173.55,130.12L174.79,126.95L175.4,123.79L176.02,121.6L176.64,122.74L177.26,119.95L177.87,122.03L178.49,125.71L179.11,125.03L179.73,126.02L180.96,120.54L181.58,121.7L182.81,125.92L183.43,123.45L184.05,122.73L184.67,118.81L185.9,120.92L186.52,122.47L187.14,123.13L187.76,122.68L188.37,119.9L188.99,121.87L189.61,118.76L190.23,120.48L190.84,120.49L191.46,117.21L192.7,120.35L193.31,119.56L195.78,127.82L196.4,127.67L197.02,126.37L197.64,126.96L198.26,127.08L198.87,126.35L199.49,127.98L200.11,126.74L201.34,121.81L201.96,122.31L203.2,127.36L203.81,125.76L204.43,124.39L205.05,121.14L205.67,121.07L206.28,122.46L206.9,124.91L207.52,124.09L208.14,126.28L208.75,124.82L209.99,124.62L210.61,126.65L211.23,126.09L211.84,126.72L213.7,127.01L214.31,126.08L214.93,125.85L215.55,126.45L218.02,129.35L218.64,128.87L219.25,129.45L219.87,127.74L221.11,128.07L221.72,127.44L222.34,127.57L222.96,128.98L223.58,129.77L224.2,132.5L225.43,133.47L226.05,134.9L227.28,134.93L227.9,135.84L228.52,138.38L229.14,138.03L229.75,138.05L230.37,137.57L230.99,139.2L231.61,139.91L232.22,138.02L234.08,137.78L234.69,138.79L237.78,130.77L238.4,132.49L240.25,128.9L240.87,129.51L241.49,128.17L242.11,129.24L242.72,130.44L243.34,127.98L243.96,126.98L244.58,127.46L245.19,125.49L245.81,125.74L246.43,124.39L247.66,122.14L248.28,122.42L250.14,118.9L250.75,120.85L251.99,120.56L252.61,121.56L254.46,125.28L255.08,123.55L255.69,123.52L256.31,124.47L256.93,120.85L257.55,122.97L258.78,125.28L259.4,124.91L260.02,124.42L260.63,124.92L261.25,122.08L261.87,125.07L263.72,123.66L264.34,124.53L266.81,121.79L267.43,125.42L268.66,124.14L269.28,128.28L269.9,129.17L270.52,127.6L271.13,127.63L271.75,125.58L272.99,124.09L273.6,124.63L275.46,130.96L276.08,129.37L276.69,129.37L277.31,130.84L278.55,132.42L279.16,131.98L279.78,131.56L280.4,129.1L281.02,129.95L281.63,129.21L282.25,129.89L282.87,128.88L285.34,134.27L285.96,131.42L287.19,132.28L287.81,128.99L288.43,129.32L289.05,130.76L290.28,130.84L290.9,131.39L291.52,130.83L292.13,131.34L293.37,127.88L293.99,128.53L294.6,130.6L295.22,129.14L296.46,125.54L297.07,126.46L297.69,126.48L298.31,127.34L300.78,132.79L301.4,132L302.02,131.82L302.63,130.74L304.49,130.32L305.1,127.75L305.72,127.88L306.34,126.04L308.19,121.61L308.81,120.85L311.9,123.57L312.51,121.58L313.13,120.8L313.75,121.66L316.22,126.85L316.84,127.47L317.46,127.84L318.07,126.39L319.31,125.46L319.93,125.91L322.4,124.62L323.01,125.14L326.72,128.39L327.34,128.4L327.95,127.29L328.57,127.81L330.43,129.74L331.04,130.8L332.9,130.91L333.51,130.26L335.98,126.91L336.6,128.04L337.22,128.7L337.84,127.8L338.45,128.72L339.07,127.79L340.31,128.02L340.92,128.27L343.4,130.25L344.01,132.82L344.63,133.32L345.25,131.96L348.34,122.5L348.95,121.25L350.19,118.35L350.81,120.69L352.04,119.21L352.66,118.3L353.28,117.57L353.89,118.28L355.75,116.83L356.37,117.51L356.98,116.06L357.6,116.53L358.22,117.07L358.84,115.67L360.07,114.72L360.69,115.58L361.31,114.58L361.92,115.1L363.16,113L363.78,113.65L366.25,123.21L366.86,122.24L367.48,121.41L368.1,122.79L368.72,123.99L369.34,121.72L370.57,121.58L371.19,123.75L372.42,126.6L373.04,128.6L374.89,129.36L375.51,130.55L376.75,132.18L377.36,137L379.22,143.26L379.83,143.98L381.07,142.72L381.69,142.21L382.92,143.35L383.54,143.24L384.16,144.35L384.78,142.1L386.01,144.17L386.63,146.43L387.86,145.96L388.48,146.55L389.1,147.8L389.72,146L390.33,146.02L390.95,144.26L392.19,144.34L392.8,146.32L394.04,146.15L394.66,145.66L395.28,144.44L395.89,141.55L397.13,138.12L397.75,139.53L398.36,139.68L398.98,140.94L399.6,141.16L400.22,144.53L402.69,148.68L403.3,151.62L404.54,153.77L405.16,152.56L406.39,151.94L407.01,153.87L407.63,153.61L408.25,154.65L410.1,158.9L410.72,158.79L412.57,159.05L413.19,158.88L413.8,159.68L414.42,159.05L415.04,158.96L415.66,160.15L416.89,158.04L417.51,158.06L418.13,157.67L418.74,154.75L420.6,153.93L421.22,151.51L421.83,146.83L422.45,150.82L424.3,151.48L424.92,149.59L427.39,143.14L428.01,139.55L430.48,134.79L431.1,134.72L432.33,133.28L432.95,132.59L436.66,125.6L437.27,125.6L439.13,121.14L439.74,122.53L440.36,124.74L440.98,120.39L442.83,118.53L443.45,120.14L444.68,120.73L445.3,122.57L447.16,125.99L447.77,126.29L449.63,127.15L450.24,127.61L451.48,128.89L452.1,127.71L453.33,129.85L453.95,128.48L455.18,128.58L455.8,129.99L456.42,129.36L457.04,130.5L459.51,131.58L460.13,130.14L460.74,130.05L461.36,128.88L462.6,127.21L463.21,127.85L465.07,125.48L465.68,125.9L466.92,125.95L467.54,124.89L470.01,124.21L470.62,125.58L471.24,124.63L471.86,125.48L473.1,127.15L473.71,127.6L474.33,126.24L474.95,127.5L476.18,126.25L476.8,125.89L478.04,126.83L478.65,125.76L479.89,125.68L480.51,126.82L481.74,124.48L482.36,125.06L483.59,124.4L484.21,124.84L485.45,123.88L486.07,124.99L487.3,125.82L487.92,124.81L489.15,125.29L489.77,125.62L490.39,124.46L491.01,125.42L494.09,127.15L494.71,126.27L496.56,125.3L497.18,127.19L498.42,128.91L499.04,127.47L499.65,128.77L500.27,127.1L501.51,126.92L502.12,127.15L503.36,125.76L503.98,127.3L505.83,124.13L506.45,124.71L507.68,124.43L508.3,124.28L508.92,124.54L509.53,123.86L510.77,123.04L511.39,123.52L513.24,122.89L513.86,122.51L514.48,122.11L515.09,123.18L516.33,121.37L516.95,122.59L519.42,126.53L520.03,126.28L522.5,124.83L523.12,126.06L523.74,125.05L524.36,126.16L525.59,125.37L526.21,124.73L526.83,124.71L527.45,123.52L528.06,122.4L528.68,124.42L530.53,123.31L531.15,123.73L532.39,125.17L533,125.12L534.24,124.42L534.86,125.51L536.09,124.44L536.71,124.86L537.94,123.35L538.56,123.17L539.18,123.03L539.8,124.08L541.03,124.93L541.65,124.91L542.27,126.24L542.89,124.71L545.36,127.14L545.97,128.12L546.59,128.77L547.21,128.22L547.83,129.7L548.44,129.18L550.3,130.43L550.91,131.03L552.77,131.65L553.39,130.44L554,131.02L554.62,130.2L557.09,128.61L557.71,129L558.94,126.61L559.56,126.22L560.8,127.29L561.41,129.71L562.03,130.46L562.65,132.52L567.59,146.29L568.21,147.08L573.15,166.61L573.77,169.85L576.24,179.91L576.85,183.3L578.09,189.06L578.71,188.94L581.18,190.88L581.8,189.32L582.41,189.93L583.03,188.9L585.5,184.07L586.12,184.7L586.74,186.12L587.35,185.47L588.59,183.02L589.21,184.74L589.82,184.46L590.44,185.7L591.68,185.82L592.3,184.86L592.91,185.97L593.53,184.65L594.15,185.65L594.77,184.61L596.62,184.76L597.24,187.32L597.85,187.35L598.47,189.03L599.09,188.22L599.71,189.37L600.94,189.76L601.56,191.91L603.41,196.9L604.03,199.51L605.27,201.96L605.88,200.81L609.59,193L610.21,192.29L611.44,191.98L612.06,190.82L613.29,187.15L613.91,186.58L616.38,180.47L617,179.99" style="vector-effect: none; fill: none; stroke: rgb(220, 57, 18); stroke-opacity: 1; stroke-width: 2px; opacity: 1;"/></g><g class="points"/><g class="text"/></g></g></g><g class="overplot"/><path class="xlines-above crisp" d="M0,0" style="fill: none;"/><path class="ylines-above crisp" d="M0,0" style="fill: none;"/><g class="overlines-above"/><g class="xaxislayer-above"><g class="xtick"><text text-anchor="middle" x="0" y="333" transform="translate(92.53,0)" style="font-family: 'Open Sans', verdana, arial, sans-serif; font-size: 12px; fill: rgb(42, 63, 95); fill-opacity: 1; white-space: pre; opacity: 1;">Jul 2021</text></g><g class="xtick"><text text-anchor="middle" x="0" y="333" style="font-family: 'Open Sans', verdana, arial, sans-serif; font-size: 12px; fill: rgb(42, 63, 95); fill-opacity: 1; white-space: pre; opacity: 1;" transform="translate(206.17,0)">Jan 2022</text></g><g class="xtick"><text text-anchor="middle" x="0" y="333" style="font-family: 'Open Sans', verdana, arial, sans-serif; font-size: 12px; fill: rgb(42, 63, 95); fill-opacity: 1; white-space: pre; opacity: 1;" transform="translate(317.96,0)">Jul 2022</text></g><g class="xtick"><text text-anchor="middle" x="0" y="333" style="font-family: 'Open Sans', verdana, arial, sans-serif; font-size: 12px; fill: rgb(42, 63, 95); fill-opacity: 1; white-space: pre; opacity: 1;" transform="translate(431.6,0)">Jan 2023</text></g><g class="xtick"><text text-anchor="middle" x="0" y="333" style="font-family: 'Open Sans', verdana, arial, sans-serif; font-size: 12px; fill: rgb(42, 63, 95); fill-opacity: 1; white-space: pre; opacity: 1;" transform="translate(543.39,0)">Jul 2023</text></g><g class="xtick"><text text-anchor="middle" x="0" y="333" style="font-family: 'Open Sans', verdana, arial, sans-serif; font-size: 12px; fill: rgb(42, 63, 95); fill-opacity: 1; white-space: pre; opacity: 1;" transform="translate(657.03,0)">Jan 2024</text></g></g><g class="yaxislayer-above"><g class="ytick"><text text-anchor="end" x="52" y="4.199999999999999" transform="translate(0,296)" style="font-family: 'Open Sans', verdana, arial, sans-serif; font-size: 12px; fill: rgb(42, 63, 95); fill-opacity: 1; white-space: pre; opacity: 1;">−400μ</text></g><g class="ytick"><text text-anchor="end" x="52" y="4.199999999999999" style="font-family: 'Open Sans', verdana, arial, sans-serif; font-size: 12px; fill: rgb(42, 63, 95); fill-opacity: 1; white-space: pre; opacity: 1;" transform="translate(0,248.02)">−200μ</text></g><g class="ytick"><text text-anchor="end" x="52" y="4.199999999999999" style="font-family: 'Open Sans', verdana, arial, sans-serif; font-size: 12px; fill: rgb(42, 63, 95); fill-opacity: 1; white-space: pre; opacity: 1;" transform="translate(0,200.04)">0</text></g><g class="ytick"><text text-anchor="end" x="52" y="4.199999999999999" style="font-family: 'Open Sans', verdana, arial, sans-serif; font-size: 12px; fill: rgb(42, 63, 95); fill-opacity: 1; white-space: pre; opacity: 1;" transform="translate(0,152.06)">200μ</text></g><g class="ytick"><text text-anchor="end" x="52" y="4.199999999999999" style="font-family: 'Open Sans', verdana, arial, sans-serif; font-size: 12px; fill: rgb(42, 63, 95); fill-opacity: 1; white-space: pre; opacity: 1;" transform="translate(0,104.08)">400μ</text></g><g class="ytick"><text text-anchor="end" x="52" y="4.199999999999999" style="font-family: 'Open Sans', verdana, arial, sans-serif; font-size: 12px; fill: rgb(42, 63, 95); fill-opacity: 1; white-space: pre; opacity: 1;" transform="translate(0,56.09)">600μ</text></g></g><g class="overaxes-above"/></g></g><g class="polarlayer"/><g class="smithlayer"/><g class="ternarylayer"/><g class="geolayer"/><g class="funnelarealayer"/><g class="pielayer"/><g class="iciclelayer"/><g class="treemaplayer"/><g class="sunburstlayer"/><g class="glimages"/><defs id="topdefs-8a2f2a"><g class="clips"/><clipPath id="legend8a2f2a"><rect width="347" height="29" x="0" y="0"/></clipPath></defs><g class="layer-above"><g class="imagelayer"/><g class="shapelayer"/></g><g class="infolayer"><g class="legend" pointer-events="all" transform="translate(323,11.519999999999996)"><rect class="bg" shape-rendering="crispEdges" width="347" height="29" x="0" y="0" style="stroke: rgb(68, 68, 68); stroke-opacity: 1; fill: rgb(255, 255, 255); fill-opacity: 1; stroke-width: 0px;"/><g class="scrollbox" transform="" clip-path="url(#legend8a2f2a)"><g class="groups"><g class="traces" transform="translate(0,14.5)" style="opacity: 1;"><text class="legendtext" text-anchor="start" x="40" y="4.680000000000001" style="font-family: 'Open Sans', verdana, arial, sans-serif; font-size: 12px; fill: rgb(42, 63, 95); fill-opacity: 1; white-space: pre;">Binance</text><g class="layers" style="opacity: 1;"><g class="legendfill"/><g class="legendlines"><path class="js-line" d="M5,0h30" style="fill: none; stroke: rgb(31, 119, 180); stroke-opacity: 1; stroke-width: 2px;"/></g><g class="legendsymbols"><g class="legendpoints"/></g></g><rect class="legendtoggle" x="0" y="-9.5" width="89.828125" height="19" style="fill: rgb(0, 0, 0); fill-opacity: 0;"/></g><g class="traces" transform="translate(92.328125,14.5)" style="opacity: 1;"><text class="legendtext" text-anchor="start" x="40" y="4.680000000000001" style="font-family: 'Open Sans', verdana, arial, sans-serif; font-size: 12px; fill: rgb(42, 63, 95); fill-opacity: 1; white-space: pre;">Bybit</text><g class="layers" style="opacity: 1;"><g class="legendfill"/><g class="legendlines"><path class="js-line" d="M5,0h30" style="fill: none; stroke: rgb(255, 127, 14); stroke-opacity: 1; stroke-width: 2px;"/></g><g class="legendsymbols"><g class="legendpoints"/></g></g><rect class="legendtoggle" x="0" y="-9.5" width="73.328125" height="19" style="fill: rgb(0, 0, 0); fill-opacity: 0;"/></g><g class="traces" transform="translate(168.15625,14.5)" style="opacity: 1;"><text class="legendtext" text-anchor="start" x="40" y="4.680000000000001" style="font-family: 'Open Sans', verdana, arial, sans-serif; font-size: 12px; fill: rgb(42, 63, 95); fill-opacity: 1; white-space: pre;">Bitfinex</text><g class="layers" style="opacity: 1;"><g class="legendfill"/><g class="legendlines"><path class="js-line" d="M5,0h30" style="fill: none; stroke: rgb(44, 160, 44); stroke-opacity: 1; stroke-width: 2px;"/></g><g class="legendsymbols"><g class="legendpoints"/></g></g><rect class="legendtoggle" x="0" y="-9.5" width="88.109375" height="19" style="fill: rgb(0, 0, 0); fill-opacity: 0;"/></g><g class="traces" transform="translate(258.765625,14.5)" style="opacity: 1;"><text class="legendtext" text-anchor="start" x="40" y="4.680000000000001" style="font-family: 'Open Sans', verdana, arial, sans-serif; font-size: 12px; fill: rgb(42, 63, 95); fill-opacity: 1; white-space: pre;">KuCoin</text><g class="layers" style="opacity: 1;"><g class="legendfill"/><g class="legendlines"><path class="js-line" d="M5,0h30" style="fill: none; stroke: rgb(220, 57, 18); stroke-opacity: 1; stroke-width: 2px;"/></g><g class="legendsymbols"><g class="legendpoints"/></g></g><rect class="legendtoggle" x="0" y="-9.5" width="84.96875" height="19" style="fill: rgb(0, 0, 0); fill-opacity: 0;"/></g></g></g><rect class="scrollbar" rx="20" ry="3" width="0" height="0" x="0" y="0" style="fill: rgb(128, 139, 164); fill-opacity: 1;"/></g><g class="g-gtitle"/><g class="g-xtitle"/><g class="g-ytitle"/></g></svg>