<svg class="main-svg" xmlns="http://www.w3.org/2000/svg" xmlns:xlink="http://www.w3.org/1999/xlink" width="700" height="350" style="" viewBox="0 0 700 350"><rect x="0" y="0" width="700" height="350" style="fill: rgb(33, 34, 38); fill-opacity: 1;"/><defs id="defs-5b2d4e"><g class="clips"><clipPath id="clip5b2d4exyplot" class="plotclip"><rect width="626" height="274"/></clipPath><clipPath class="axesclip" id="clip5b2d4ex"><rect x="44" y="0" width="626" height="350"/></clipPath><clipPath class="axesclip" id="clip5b2d4ey"><rect x="0" y="46" width="700" height="274"/></clipPath><clipPath class="axesclip" id="clip5b2d4exy"><rect x="44" y="46" width="626" height="274"/></clipPath></g><g class="gradients"/><g class="patterns"/></defs><g class="bglayer"/><g class="layer-below"><g class="imagelayer"/><g class="shapelayer"/></g><g class="cartesianlayer"><g class="subplot xy"><g class="layer-subplot"><g class="shapelayer"/><g class="imagelayer"/></g><g class="minor-gridlayer"><g class="x"/><g class="y"/></g><g class="gridlayer"><g class="x"><path class="xgrid crisp" transform="translate(132.7,0)" d="M0,46v274" style="stroke: rgb(49, 52, 57); stroke-opacity: 1; stroke-width: 1px;"/><path class="xgrid crisp" transform="translate(221.88,0)" d="M0,46v274" style="stroke: rgb(49, 52, 57); stroke-opacity: 1; stroke-width: 1px;"/><path class="xgrid crisp" transform="translate(310.94,0)" d="M0,46v274" style="stroke: rgb(49, 52, 57); stroke-opacity: 1; stroke-width: 1px;"/><path class="xgrid crisp" transform="translate(400.13,0)" d="M0,46v274" style="stroke: rgb(49, 52, 57); stroke-opacity: 1; stroke-width: 1px;"/><path class="xgrid crisp" transform="translate(489.19,0)" d="M0,46v274" style="stroke: rgb(49, 52, 57); stroke-opacity: 1; stroke-width: 1px;"/><path class="xgrid crisp" transform="translate(578.38,0)" d="M0,46v274" style="stroke: rgb(49, 52, 57); stroke-opacity: 1; stroke-width: 1px;"/><path class="xgrid crisp" transform="translate(667.44,0)" d="M0,46v274" style="stroke: rgb(49, 52, 57); stroke-opacity: 1; stroke-width: 1px;"/></g><g class="y"><path class="ygrid crisp" transform="translate(0,243.43)" d="M44,0h626" style="stroke: rgb(49, 52, 57); stroke-opacity: 1; stroke-width: 1px;"/><path class="ygrid crisp" transform="translate(0,174.37)" d="M44,0h626" style="stroke: rgb(49, 52, 57); stroke-opacity: 1; stroke-width: 1px;"/><path class="ygrid crisp" transform="translate(0,105.3)" d="M44,0h626" style="stroke: rgb(49, 52, 57); stroke-opacity: 1; stroke-width: 1px;"/></g></g><g class="zerolinelayer"><path class="yzl zl crisp" transform="translate(0,312.5)" d="M44,0h626" style="stroke: rgb(49, 52, 57); stroke-opacity: 1; stroke-width: 2px;"/></g><path class="xlines-below"/><path class="ylines-below"/><g class="overlines-below"/><g class="xaxislayer-below"/><g class="yaxislayer-below"/><g class="overaxes-below"/><g class="plot" transform="translate(44,46)" clip-path="url(#clip5b2d4exyplot)"><g class="scatterlayer mlayer"><g class="trace scatter trace433d3cb5-0746-46cb-bef0-d43e3e497f49" style="stroke-miterlimit: 2; opacity: 1;"><g class="fills"/><g class="errorbars"/><g class="lines"><path class="js-line" d="M0,259.59L2.56,259.94L2.68,259.85L3.9,260.19L4.27,260.23L11.47,258.75L11.59,258.69L13.18,257.9L13.3,257.76L14.88,258.55L15.01,258.89L16.23,258.29L16.35,258.35L17.32,258.62L17.45,258.32L18.3,258.01L18.42,258.24L18.79,258.4L19.64,258.29L19.76,258.12L20.62,257.66L20.74,257.75L20.86,257.82L30.01,258.18L30.13,258.01L31.84,257.21L31.96,257.17L32.82,257.34L32.94,257.38L33.79,257.01L34.16,256.97L35.38,256.51L35.5,256.58L38.55,256.76L38.68,256.8L39.53,256.34L39.77,256.33L46.48,255.76L46.61,255.95L48.31,255.32L48.68,255.14L49.78,254.78L49.9,254.93L50.02,255.18L50.75,255.43L50.88,255.26L51.24,255.1L52.22,255.02L52.34,255.12L53.44,255.83L53.8,255.55L56.73,255.77L56.85,255.93L59.29,255.31L59.42,255.31L63.2,255.59L63.32,255.78L66.13,255.67L66.25,255.42L69.18,253.64L69.3,253.48L70.15,253.95L70.27,253.83L70.88,255.1L71.13,254.76L71.25,254.44L71.98,254.22L72.1,254.68L72.59,254.99L72.71,254.44L72.84,254.36L73.57,253.91L73.81,254.2L73.93,254.43L76.98,253.61L77.11,253.69L78.2,254.56L78.57,253.95L79.55,252.87L79.67,253.63L80.52,253.57L80.64,253.44L82.47,254.09L82.84,254.26L82.96,253.95L83.33,254.4L83.69,254.59L84.55,254.36L84.67,254.45L85.4,253.81L85.65,253.94L85.77,253.89L86.38,253.95L86.5,254.23L86.62,254.27L89.18,253.01L89.31,252.87L91.5,252.93L91.62,252.08L93.21,251.37L93.33,251.11L94.06,250.06L94.19,250.44L94.31,250.29L96.63,249.39L96.75,249.37L98.33,246.94L98.46,247.05L99.07,246.91L99.19,246.67L99.55,247.15L100.77,245.97L100.9,246.22L101.02,246.29L101.63,247.78L101.75,246.82L102.6,248.42L102.73,246.81L105.53,249.38L105.9,248.38L106.14,248.08L106.39,248.35L106.88,248.03L107.12,247.85L107.24,248.39L107.61,248.29L109.32,247.59L109.44,247.54L110.54,248.13L110.66,247.65L112.12,246.99L112.24,247.17L113.1,246.67L113.22,247L113.59,247.01L113.95,247.95L114.07,247.61L114.44,247.29L115.29,246.41L115.42,246.46L118.1,244.57L118.22,244.88L119.56,244.92L119.69,244.99L120.91,243.71L121.27,244.01L122.13,245.03L122.25,244.96L122.37,244.63L122.61,245.25L122.98,245.71L124.08,245.5L124.2,245.89L124.32,246.63L124.69,245.85L125.05,246.64L125.18,246.82L126.64,248.13L126.76,248.79L127.37,248.62L127.49,248.82L127.62,249.18L128.96,247.1L129.08,247.26L129.2,247.32L129.81,247.21L129.93,247.55L130.06,248.75L130.3,248.93L130.79,248.67L130.91,248.75L131.15,249.7L131.64,248.91L131.76,249.16L132.86,249.7L133.23,248.97L133.47,248.42L133.72,249.14L134.08,249.24L135.06,250.48L135.42,250.02L135.91,249.86L136.03,249.56L136.16,251.63L136.28,251.97L136.77,251.38L136.89,251.42L137.74,251.41L137.86,250.86L138.35,250.48L138.6,250.9L138.72,250.92L139.57,251.59L139.69,251.43L140.06,251.69L140.18,251.49L140.55,252.1L140.91,252.44L141.77,251.86L141.89,252.16L143.6,251.09L143.72,251.39L143.84,251.7L145.31,252.21L145.43,251.93L146.89,253.14L147.01,252.9L147.14,252.92L149.45,251.09L149.58,251.45L149.7,251.94L150.31,251.48L150.43,251.59L152.26,251.41L152.38,251.63L153.24,251.71L153.36,251.9L154.21,252.45L154.58,252.81L155.43,252.59L155.55,252.28L158.12,252.27L158.24,251.56L159.34,250.83L159.7,250.6L160.19,250.88L160.56,250.45L161.41,249.11L161.53,249.34L162.63,249.65L162.75,249.8L164.09,249.55L164.22,250.44L164.34,250.28L164.46,250.54L164.83,251.03L166.05,249.83L166.17,249.94L166.53,250.14L167.39,249.78L167.51,250L169.46,248.31L169.58,248.51L172.15,248.32L172.51,248.54L173.37,248.37L173.49,248.04L174.59,246.89L174.71,247.16L175.93,247.24L176.05,247.32L176.3,247.67L176.42,247.52L176.78,246.82L179.35,247.97L179.47,247.61L179.59,247.24L179.83,247.8L180.32,247.52L181.05,247.47L181.18,248.94L181.91,249.11L182.03,248.87L183.74,247.4L183.86,247.69L183.98,247.9L184.71,248.36L184.96,248.06L185.32,248.01L186.42,247.71L186.54,247.91L187.4,247.98L187.52,247.84L189.11,247.64L189.23,247.87L190.69,248.3L190.81,248.11L191.55,248.11L191.67,246.67L193.01,245.55L193.13,245.77L193.25,245.84L197.52,243.42L197.65,243.79L198.62,244.12L198.99,244.14L199.23,244.25L199.48,243.87L199.84,243.64L201.18,243.1L201.55,242.81L202.4,243.4L202.53,243.22L202.65,242.63L203.5,242.41L203.62,243.01L204.97,242.68L205.09,242.68L206.31,241.41L206.67,241.36L206.8,241.52L207.16,241.13L207.65,240.94L208.5,242.21L208.63,241.49L209.6,241.3L209.72,241.5L210.09,241.48L210.21,241.1L210.46,242.23L210.58,241.55L210.94,241.7L211.19,241.92L211.8,241.82L211.92,242.02L212.16,241.49L212.65,241.77L212.77,242.02L213.02,242.62L213.14,242.28L213.51,241.78L214.6,239.98L214.73,240.07L215.7,239.35L216.07,239.39L218.02,236.97L218.26,236.98L219.48,238.54L219.61,238.13L220.46,239.89L220.58,239.25L220.7,238.48L221.44,238.63L221.68,238.16L222.17,238.51L222.29,239.02L223.02,240.01L223.14,239.65L223.27,238.66L224.24,240.07L224.73,239.42L225.46,238.37L225.58,239.32L225.83,236.99L226.44,237.05L226.56,236.83L228.15,234.61L228.27,234.4L228.88,233.38L229,233.58L229.12,234.39L229.24,233.99L229.85,234.25L229.98,234.44L230.83,235.95L230.95,235.42L231.07,235.63L232.29,234.76L232.42,234.89L232.78,235.71L233.15,234.96L233.27,235.43L234.86,234.85L234.98,234.98L236.56,233.46L236.69,233.96L236.81,234.42L237.05,234.35L237.66,235.29L237.78,234.97L238.64,234.08L238.76,234.12L239.61,233.22L240.1,233.92L240.22,233.34L240.83,233.7L240.96,233.84L243.03,234.64L243.4,234.4L244.25,235.14L244.62,234.68L245.11,234.79L245.47,236.21L245.59,235.44L245.96,234.87L246.81,233.33L246.94,233.65L247.06,234.98L248.52,236.61L248.64,237.52L249.38,236.03L249.5,237.54L250.23,236.65L250.35,236.81L250.47,237.17L251.08,240.04L251.21,239.89L251.33,238.45L251.57,237.58L251.94,237.71L252.06,238.93L252.91,237.82L253.04,238.34L253.89,236.83L254.01,237.43L254.62,237.56L254.74,237.33L254.87,237.17L255.72,238.48L255.84,238.29L256.21,238.19L257.18,237.95L257.31,238.33L258.4,236.18L258.77,237.1L258.89,237.28L259.01,236.14L259.14,235.83L259.26,236.08L259.62,235.68L259.75,235.34L260.84,236.74L260.97,237.56L262.31,235.97L262.43,236.18L262.67,236.23L263.28,236.6L263.41,236.86L263.53,235.94L264.14,236.76L264.26,236.63L265.24,239.09L265.6,238.77L265.85,238.46L265.97,238.6L266.46,238.9L266.58,238.43L266.82,239.28L267.31,239.25L267.68,241.41L268.16,240.91L268.29,240.56L269.14,241.36L269.26,241.33L269.38,241.45L269.51,240.21L269.87,240.69L269.99,240.55L270.12,242.15L270.73,241.42L270.85,241.89L271.09,241.11L271.7,241.5L271.82,241.68L272.07,241.75L272.56,241.1L272.68,240.74L272.92,241.25L273.29,241.04L273.41,241.58L274.63,239.55L275,239.83L275.36,240L275.48,239.73L275.85,239.67L276.83,238.64L276.95,238.79L277.56,239.02L277.68,238.41L278.66,237.61L278.78,238.2L279.63,237.33L279.75,237.88L280.12,238.46L281.1,239.22L281.22,240.81L281.83,241.83L282.07,241.7L282.19,241.64L283.17,242.31L283.54,241.48L283.9,241.4L284.02,241.15L284.39,240.86L285.37,240.02L285.49,240.36L286.1,240.32L286.22,240.22L286.34,240.24L286.46,240.07L286.95,240.63L287.07,240.6L288.66,241.93L288.9,241.36L289.03,241.06L290.37,240.72L290.49,240.61L290.61,240.75L290.73,240.28L290.86,240.28L291.22,240.02L292.08,240.63L292.2,240.8L292.93,238.5L293.05,238.88L293.17,238.56L293.91,237.52L294.27,237.68L294.64,237.36L297.32,237.8L297.44,237.63L297.69,238.92L298.18,237.73L298.3,236.79L298.42,235.85L299.03,236.35L299.15,236.35L299.4,236.56L300.01,236.25L300.13,236.69L301.47,235.74L301.59,235.67L302.45,235.39L302.57,235.47L303.54,236.12L303.67,236.31L304.4,236.98L304.52,237.23L305.13,236.72L305.37,237.33L305.74,238L306.72,236.49L306.84,236.63L307.08,236.49L308.55,236.68L308.67,236.41L309.64,235.46L310.01,235.29L311.35,235.49L311.84,235.41L315.26,234.12L315.38,232.29L316.23,231.47L316.36,231.08L320.26,229.39L320.38,229.45L321.11,228.83L321.24,229.23L322.21,228.17L322.33,228.22L322.46,228.28L323.68,228.41L323.8,228.79L324.77,229.03L324.9,228.59L325.02,228.63L326.73,226.96L327.09,225.95L328.07,225.01L328.19,226.32L328.8,225.38L329.04,225.55L329.17,225.41L330.87,225.13L331,226.64L331.85,228.32L332.22,227.3L332.34,227.63L332.7,227.31L333.07,227.43L333.92,228.01L334.17,227.86L334.29,228.2L334.78,227.62L334.9,227.5L335.88,226.13L336.12,226.31L336.49,225.86L336.73,225.52L336.85,226.24L336.97,226.51L337.34,226.7L337.46,226.37L337.58,224.6L337.71,224.99L338.19,224.18L338.32,223.86L338.56,224.73L339.17,223.15L339.29,223.32L339.41,224.09L339.9,224.26L340.02,223.61L340.15,223.56L340.27,223.74L340.76,223.19L340.88,222.82L341.24,222.54L341.73,223.03L342.1,223.9L342.46,223.18L343.68,225.22L343.81,225.59L344.17,225.93L344.29,225.28L344.42,225L345.27,225.19L345.39,224.71L346.37,224.31L346.73,223.59L346.86,223.44L346.98,223.62L347.1,224.56L347.95,224.21L348.08,222.79L349.78,219.55L350.15,219.72L350.39,220.95L351,220.73L351.13,219.93L351.49,219.47L351.86,219.69L351.98,219.95L352.83,220.81L352.96,220.97L353.93,220.16L354.05,219.72L354.42,219.11L354.91,219.46L355.4,220.58L356.49,219.96L356.62,219.46L357.35,219.39L357.47,218.94L357.96,219.16L358.08,218.43L358.2,218.39L359.67,221.49L359.91,221.28L360.03,223.12L360.52,222.48L360.76,224.47L360.89,223.82L361.25,222.23L361.62,219.62L362.23,219.91L362.35,220.11L362.96,218.11L363.33,219.12L363.45,218.81L364.18,218.62L364.3,217.86L364.67,217.42L364.91,218.24L365.03,218.19L365.77,220.06L365.89,220.67L366.01,221.66L366.38,219.68L366.62,221.27L366.74,220.94L367.23,221.22L367.35,220.79L367.47,219.97L367.72,220.79L368.57,219.18L368.94,218.91L369.06,218.3L369.3,219.67L369.43,221.46L370.28,222.32L370.65,221.58L371.99,215.3L372.35,215.41L372.84,215.88L373.21,215.54L374.18,215.47L374.31,215.57L374.43,215.74L374.55,214.88L374.92,214.48L375.16,213.93L375.4,214.51L375.77,214.63L375.89,214.36L376.26,215.23L376.62,215.26L377.48,216.93L377.6,216.35L379.31,214.85L379.43,215.48L380.16,214.57L380.28,214.84L380.41,214.46L380.89,214.53L381.02,214.18L381.14,213.72L381.87,214.87L381.99,212.02L382.6,210.1L382.85,210.56L382.97,210.14L383.82,208.63L383.95,207.55L384.56,208.19L384.8,207.91L385.17,207.45L386.14,204.8L386.26,205.18L386.39,206.14L386.87,207.35L387,205.95L387.12,206.66L387.24,205.3L388.22,207.53L388.58,206.73L388.83,206.82L389.68,203.85L389.8,204.89L389.92,205.84L390.29,205.97L390.41,205.18L390.66,208.34L391.14,207.6L391.27,206.38L391.51,207.94L391.63,207.11L392,206.76L392.12,206.23L392.24,208.18L392.49,207.87L392.85,208.91L393.22,206.36L393.34,210.12L393.71,211.62L393.95,209.49L394.07,209.48L395.9,218.74L396.27,218.15L396.39,218.24L396.51,216.53L396.76,217.13L397.12,215.54L397.61,219.71L398.1,219.68L398.22,219.56L398.34,219.09L398.46,220.48L398.83,220.88L398.95,220.33L399.2,222.7L399.32,224.26L399.68,225.26L399.93,222.61L400.17,222.85L400.54,222.46L400.78,222.42L400.9,226.44L401.51,224.25L401.64,223.6L401.76,223.47L401.88,223.86L402.25,224.44L402.73,222.7L403.22,223.6L403.59,222.46L403.95,222.83L404.08,223.25L405.05,218.24L405.17,219.09L406.03,218.74L406.15,218.84L407.49,217.84L407.61,217.7L407.74,218.14L408.22,217.44L408.35,217.53L408.59,218.31L408.71,218.2L409.08,216.66L410.3,212.5L410.42,213.54L410.79,214.13L410.91,214.63L411.27,213.82L411.64,213.49L412.74,211.08L412.86,211.51L413.47,211.43L413.59,210.44L414.45,209.4L414.57,209.88L414.69,210.14L415.06,210.06L415.18,211.07L415.54,208.22L415.91,209.06L416.03,210.51L416.4,211.56L416.76,214.52L417.01,213.18L417.25,213.67L417.62,215.2L417.74,214.29L418.11,216.26L418.59,216.45L419.33,217.72L419.45,216.09L420.3,212.18L420.67,212.71L421.03,212.41L421.4,210.98L421.89,211.2L422.01,211.98L422.99,209.7L423.23,209.75L423.6,210.83L424.08,209.99L424.45,209.49L424.94,210.17L425.3,208.98L426.16,208.34L426.28,208.57L426.4,207.48L426.65,209.8L427.01,212.56L427.99,208.11L428.11,209.72L428.23,209.99L428.96,207.16L429.09,207.21L429.21,209.75L429.94,208.1L430.06,208.17L430.55,208.96L431.53,204.33L431.65,204.46L431.77,205.58L432.38,204.54L432.5,205.01L432.62,205.85L433.23,204.99L433.48,205.56L433.84,204.23L433.97,204.07L434.09,205.53L435.55,201.15L435.67,201.29L435.8,201.54L436.04,201.01L436.41,199.95L436.53,200.09L436.65,199.26L436.77,199.16L437.75,195.99L438.11,195.55L438.36,195.62L438.48,194.65L439.82,192.65L439.94,192.86L440.07,193.67L440.31,194.04L440.68,192.84L440.92,192.46L441.65,194.64L441.77,194.05L442.87,190.56L443.24,189.34L444.21,188.2L444.46,186.73L445.07,185.76L445.31,184.02L445.43,184.78L445.92,184.53L446.04,183.28L446.65,179.71L447.02,180.16L447.14,179.25L447.63,179.81L448,179.36L448.36,181.79L448.61,177.79L448.85,181.64L449.22,181.86L449.58,177.57L450.07,178.11L450.19,178.62L450.31,176.64L450.56,177.23L451.05,178.78L451.17,177.58L451.41,180.33L451.78,184.2L452.27,190.66L452.63,184.03L452.88,183.01L453.49,192.53L453.61,187.54L454.34,198.76L454.59,197.6L454.71,198.09L455.2,203.41L455.32,197.55L455.44,197.9L455.56,194.54L456.29,199.1L456.42,198.05L456.54,198.97L457.88,187.09L458,187.77L458.12,187.19L458.73,191.95L458.98,190.22L459.1,188.15L459.47,188.1L459.59,189.3L460.56,183.56L460.69,182.75L461.17,179.38L461.54,180.8L461.66,181.28L462.27,178.27L462.52,178.36L463,178.93L464.59,174.56L464.71,171.81L464.83,169.5L464.96,173.92L465.57,169.7L465.69,169.83L465.93,170.32L466.3,167.93L466.42,165.93L466.79,169.3L467.15,167.17L468.49,161.46L468.86,161.92L469.71,158.91L469.84,160.33L469.96,160.04L470.08,164.67L470.2,164.91L470.57,162.61L470.69,164.24L470.93,161.17L471.06,150.66L471.79,142.69L472.28,143.48L472.4,146.99L473.25,140.52L473.37,140.37L474.23,129.06L474.35,130.64L474.47,130.85L474.96,121.05L475.08,123.96L475.2,134.96L475.33,134.87L475.81,143.38L475.94,138.68L476.18,144.24L476.55,140.73L476.67,140.54L477.03,149.64L477.64,149.35L477.77,148.2L478.62,139.23L478.74,143.18L479.96,131.28L480.21,134.63L480.33,135.13L481.3,141.06L481.67,141.05L481.79,139.43L481.91,145.08L482.04,140.77L482.16,147.53L482.52,147.62L482.65,145.87L483.62,135.98L483.74,136.27L484.23,135.13L484.35,136.08L484.48,137.51L484.6,136.87L484.72,138.23L485.09,141.88L486.18,132.22L486.43,133.08L486.79,131.51L486.92,130.85L487.04,133.58L487.16,132.05L487.28,132.92L487.65,133.58L487.77,127.19L488.01,126.33L488.14,128.47L488.5,126.82L488.62,123L488.75,123.96L488.87,122.9L489.36,117.96L490.45,128.53L490.58,124L490.7,122.82L491.06,126.04L491.19,126.22L491.31,124.03L491.55,127.96L492.04,127.24L492.89,111.18L493.02,112.33L493.14,117.54L493.26,122.91L493.87,120.84L493.99,117.23L494.85,119.16L494.97,118.91L495.46,121.2L496.55,134L496.68,133.71L497.04,126.86L497.9,138.85L498.02,133.89L498.14,135.06L498.87,129.19L498.99,130.04L499.12,134.48L499.24,135.05L499.6,131.48L499.85,134.94L500.09,133.77L500.46,133.58L500.58,135.14L500.82,131.89L501.31,128.85L501.56,126.75L501.68,124.17L502.53,119.82L502.65,120.18L503.02,119.47L503.14,121.28L503.39,122.51L503.87,119.59L504,119.94L504.12,120.79L504.24,120.89L504.36,123.01L504.73,121.88L504.85,126.8L505.09,124.82L505.22,123.86L505.83,131.68L506.07,126.76L506.44,128L506.68,129.66L506.8,126.91L506.92,128.88L507.29,127.13L507.66,129.04L507.78,129.74L508.27,130.09L508.39,129.27L508.51,130.87L509.24,127.09L509.36,128.17L509.49,126.86L510.83,119.9L510.95,120.19L511.07,120.5L511.19,120.81L511.56,119.06L512.9,108.2L513.27,108.84L513.51,103.95L513.76,106.86L514.12,111L514.98,104.12L515.1,106.46L515.22,108.34L515.83,107.77L515.95,105.84L516.81,107.22L516.93,106.95L517.05,103.76L517.54,101.41L517.66,102.39L517.78,106.42L518.39,102.9L518.64,104.32L518.76,105.18L520.22,95.55L520.34,97.21L521.81,110.02L521.93,109.51L522.05,106.96L522.3,105.83L522.66,107.46L522.79,111.11L522.91,110.14L523.03,111.54L523.15,110.33L523.52,114.02L523.88,109.65L524.37,110.16L524.49,111.53L524.62,112.16L524.74,109.16L524.86,108.02L525.59,103.14L526.2,103.31L526.32,103.8L526.45,99.89L527.06,102.57L527.18,101.02L527.42,100.78L528.15,104.37L528.28,102.14L528.64,102.13L528.76,101.07L529.74,89.54L529.98,94.95L531.33,79.8L531.45,75.69L531.57,76.24L531.69,71.09L532.91,81.31L533.03,77.9L533.16,75.1L533.77,70.16L534.13,72.4L534.25,73.07L534.62,68.39L534.74,70.82L534.86,75.86L534.99,78.94L535.6,75.69L535.72,75.22L536.82,89.05L537.18,89.88L537.55,92.41L537.67,80.7L538.28,74.89L538.52,78.06L538.89,78.83L539.13,73.96L539.38,82.02L539.74,81.77L539.87,77.64L540.23,83.43L540.72,86.58L540.84,91.06L541.09,86.02L541.45,85.73L541.7,84.21L542.43,93.84L542.55,88.02L543.16,101.04L543.28,96.32L543.4,91.57L544.26,80.36L544.38,76.29L544.99,71.13L545.11,72.38L545.23,75.72L545.36,76.04L545.72,71.68L546.58,85.07L546.7,83.05L546.82,80.16L547.43,85.79L547.55,83.33L547.67,83.51L547.92,89.25L548.28,88.1L548.41,94.51L548.53,94.76L548.65,87.3L548.77,93.62L549.26,91.69L549.38,84.78L550.36,109.08L550.48,104.27L550.85,105.93L550.97,102.02L551.21,114.58L551.82,111.4L551.94,111.23L552.92,99.93L553.04,106.1L553.41,105.29L553.53,102.58L553.77,108.99L553.9,114.81L554.63,122.29L554.75,120.7L555.24,116.15L555.36,116.7L555.48,113.61L555.97,110.03L556.09,114.49L556.21,112.59L556.34,115.25L557.31,104.34L557.68,106.63L558.9,95.56L559.02,96.89L559.39,98.09L559.51,99.52L559.75,93.44L559.87,87.99L560.36,90.63L560.48,84.17L561.22,84.96L561.34,80.38L561.46,81.18L561.58,77.36L561.95,76.2L562.07,76.37L562.19,74.77L562.44,77.97L562.8,82.15L562.92,82.51L563.05,82.19L563.17,79.55L564.14,94.6L564.63,95.95L564.88,96.03L565.36,86.53L565.49,96.68L565.85,100.01L566.34,93.44L566.46,96.81L567.32,100.92L567.44,108.71L567.56,113.24L568.05,104.87L568.17,104.56L569.02,113.09L569.15,108.17L569.27,113.04L569.76,107.36L569.88,107.25L570,107.74L570.12,103.64L570.61,98.27L570.73,101.43L570.85,106.25L570.98,94.67L571.59,106.01L571.71,112.52L572.32,111.37L572.44,116.28L573.17,100.2L573.29,101.52L573.42,99.48L573.54,98.87L573.9,102.35L574.15,99.1L574.39,102.24L574.76,106.37L574.88,109.6L575.12,102.03L575.25,102.56L575.61,103.81L575.86,109.84L576.1,108.55L576.47,106.08L576.59,105.04L576.71,107.44L576.83,114.55L577.81,119.47L578.3,121.41L579.15,126.67L579.27,125.3L579.39,126.72L579.52,121.84L579.88,121.28L581.59,109.66L581.71,108.16L581.83,108.87L581.96,106.64L582.08,104.55L582.44,107.66L582.69,105.08L582.81,99.37L583.42,95.31L583.54,98.2L583.66,99.32L584.4,94.09L584.52,95.81L584.64,97.04L586.1,104.73L586.23,104.09L586.71,95.68L587.08,99.12L587.2,101.34L588.91,88.87L589.28,90.96L589.4,91.63L589.52,88.32L589.64,86.63L590.13,82.58L590.37,85.14L590.5,84.19L591.23,89.03L591.35,83.23L591.84,83.58L591.96,82.26L592.08,81.03L592.33,83.8L592.69,83.47L592.94,85.14L593.06,80.2L593.18,78.86L593.55,78.95L593.67,80.07L593.91,82.99L594.04,74.73L594.4,74.8L594.52,76.64L594.77,74.54L595.26,75.81L595.38,75.81L595.74,72.53L596.11,73.55L596.23,76.35L596.48,74.83L596.6,72.24L597.45,66.37L597.82,67.83L597.94,68.22L598.06,69.7L598.31,66.36L598.67,63.35L598.79,63.86L598.92,63.18L599.04,60.99L599.77,63.17L599.89,59.94L600.38,61.78L600.5,58.81L600.87,52.53L601.23,54.13L601.48,55.33L601.6,54.82L601.72,56.03L602.09,58.23L602.21,58.79L602.33,56.99L602.45,56.17L602.58,56.01L602.94,52.51L603.19,51.33L603.31,53.42L603.43,54.69L604.04,51.96L604.16,53.32L604.28,50.55L604.65,49.89L604.77,50.78L604.89,54.01L605.87,69.54L605.99,69.22L606.36,67.44L606.72,73.25L607.21,71.29L607.33,69.81L607.58,70.72L608.43,58.49L608.55,56.79L609.04,56.54L609.16,63.77L610.02,73.03L610.14,71.4L610.26,72.18L610.63,69.03L610.75,67.86L610.87,71.67L610.99,73.33L611.48,71.04L611.6,75.42L611.73,77.05L611.97,76.22L612.34,73.52L612.46,74.96L612.7,72.28L612.82,69.54L613.56,66.11L613.68,68.09L614.04,68.23L615.26,80.82L615.39,79.41L615.75,77.2L616,73.28L616.12,69.45L616.24,70.43L616.61,67.69L616.73,64.93L618.31,54.15L618.44,55.01L618.56,54.3L618.8,55.73L619.17,55.92L619.41,56.37L619.66,54.38L620.02,56.3L620.51,49.61L620.88,52.31L621,50.68L621.24,47.05L621.73,49.42L621.85,48.3L622.71,52.45L622.83,52.34L622.95,51.88L623.07,53L623.56,60.34L623.93,65.1L624.29,60.43L624.54,59.76L625.39,63.5L625.51,57.16L626,51.55" style="vector-effect: none; fill: none; stroke: rgb(31, 119, 180); stroke-opacity: 1; stroke-width: 2px; opacity: 1;"/></g><g class="points"/><g class="text"/></g><g class="trace scatter trace6474024e-c257-45b8-bfd1-5dbe1a0a2239" style="stroke-miterlimit: 2; opacity: 1;"><g class="fills"/><g class="errorbars"/><g class="lines"><path class="js-line" d="M0,259.59L2.56,259.94L2.68,259.85L3.9,260.19L4.27,260.23L11.47,258.75L11.59,258.69L13.18,257.9L13.3,257.76L14.88,258.55L15.01,258.89L16.23,258.29L16.35,258.35L17.32,258.62L17.45,258.32L18.3,258.01L18.42,258.24L18.79,258.4L19.64,258.29L19.76,258.12L20.62,257.66L20.74,257.75L20.86,257.82L30.01,258.18L30.13,258.01L31.84,257.21L31.96,257.17L32.82,257.34L32.94,257.38L33.79,257.01L34.16,256.97L35.38,256.51L35.5,256.58L38.55,256.76L38.68,256.8L39.53,256.34L39.77,256.33L46.48,255.76L46.61,255.95L48.31,255.32L48.68,255.14L49.78,254.78L49.9,254.93L50.02,255.18L50.75,255.43L50.88,255.26L51.24,255.1L52.22,255.02L52.34,255.12L53.44,255.83L53.8,255.55L56.73,255.77L56.85,255.93L59.29,255.31L59.42,255.31L63.2,255.59L63.32,255.78L66.13,255.67L66.25,255.42L69.18,253.64L69.3,253.48L70.15,253.95L70.27,253.83L70.88,255.1L71.13,254.76L71.25,254.44L71.98,254.22L72.1,254.68L72.59,254.99L72.71,254.44L72.84,254.36L73.57,253.91L73.81,254.2L73.93,254.43L76.98,253.61L77.11,253.69L78.2,254.56L78.57,253.95L79.55,252.87L79.67,253.63L80.52,253.57L80.64,253.44L82.47,254.09L82.84,254.26L82.96,253.95L83.33,254.4L83.69,254.59L84.55,254.36L84.67,254.45L85.4,253.81L85.65,253.94L85.77,253.89L86.38,253.95L86.5,254.23L86.62,254.27L89.18,253.01L89.31,252.87L91.5,252.93L91.62,252.08L93.21,251.37L93.33,251.11L94.06,250.06L94.19,250.44L94.31,250.29L96.63,249.39L96.75,249.37L98.33,246.94L98.46,247.05L99.07,246.91L99.19,246.67L99.55,247.15L100.77,245.97L100.9,246.22L101.02,246.29L101.63,247.78L101.75,246.82L102.6,248.42L102.73,246.81L105.53,249.38L105.9,248.38L106.14,248.08L106.39,248.35L106.88,248.03L107.12,247.85L107.24,248.39L107.61,248.29L109.32,247.59L109.44,247.54L110.54,248.13L110.66,247.65L112.12,246.99L112.24,247.17L113.1,246.67L113.22,247L113.59,247.01L113.95,247.95L114.07,247.61L114.44,247.29L115.29,246.41L115.42,246.46L118.1,244.56L118.22,244.87L119.56,244.91L119.69,244.98L120.91,243.69L121.27,244L122.13,245.02L122.25,244.96L122.37,244.63L122.61,245.24L122.98,245.71L124.08,245.5L124.2,245.89L124.32,246.63L124.69,245.85L125.05,246.64L125.18,246.82L126.64,248.14L126.76,248.8L127.37,248.63L127.49,248.83L127.62,249.2L128.96,247.1L129.08,247.25L129.2,247.31L129.81,247.21L129.93,247.55L130.67,249.06L130.79,248.68L130.91,248.76L131.15,249.72L131.64,248.93L131.76,249.18L132.86,249.73L133.23,248.98L133.47,248.43L133.72,249.15L134.08,249.26L135.06,250.51L135.42,250.04L135.91,249.89L136.03,249.58L136.16,251.67L136.28,252.02L136.77,251.42L136.89,251.46L137.74,251.45L137.86,250.9L138.35,250.51L138.6,250.94L138.72,250.95L139.57,251.64L139.69,251.48L140.06,251.75L140.18,251.54L140.55,252.16L140.91,252.5L141.77,251.91L141.89,252.22L143.6,251.13L143.72,251.44L143.84,251.75L145.31,252.27L145.43,251.98L146.89,253.22L147.01,252.97L147.75,252.17L147.87,251.75L147.99,251.86L148.23,251.51L148.6,251.15L149.45,251.13L149.58,251.5L149.7,252L150.8,251.45L151.28,251.58L152.14,251.31L152.26,251.45L152.38,251.68L153.24,251.76L153.36,251.96L154.21,252.52L154.58,252.89L155.43,252.67L155.55,252.35L158.12,252.34L158.24,251.61L159.34,250.86L159.7,250.63L160.19,250.92L160.56,250.48L161.41,249.09L161.53,249.32L162.63,249.64L162.75,249.79L164.09,249.54L164.22,250.46L164.34,250.29L164.46,250.56L164.83,251.07L166.05,249.83L166.17,249.95L166.53,250.15L167.39,249.78L167.51,250.01L169.46,248.26L169.58,248.47L171.05,248.41L171.17,248.71L172.02,248.16L172.15,248.27L172.51,248.49L173.37,248.31L173.49,247.98L174.59,246.78L174.71,247.06L175.93,247.14L176.05,247.23L176.3,247.6L176.42,247.44L176.78,246.71L179.35,247.9L179.47,247.53L179.59,247.15L179.83,247.73L180.32,247.44L181.05,247.39L181.18,248.91L181.91,249.09L182.03,248.83L183.74,247.3L183.86,247.61L183.98,247.82L184.71,248.31L184.84,247.95L184.96,248L189.23,247.8L189.59,248.09L190.45,248.16L190.57,248.29L191.42,247.8L191.55,248.05L191.67,246.54L193.01,245.37L193.13,245.6L195.08,244.89L195.21,244.65L197.52,243.12L197.65,243.51L198.62,243.86L198.99,243.88L199.23,243.99L199.48,243.59L199.84,243.35L201.55,242.48L201.67,242.76L202.4,243.1L202.53,242.91L202.65,242.29L203.5,242.05L203.62,242.69L204.97,242.34L205.09,242.34L206.31,241L206.67,240.94L206.8,241.11L207.16,240.7L207.65,240.5L208.5,241.84L208.63,241.08L209.6,240.88L209.72,241.09L210.09,241.06L210.21,240.67L210.46,241.87L210.58,241.14L210.94,241.3L211.19,241.54L211.8,241.43L211.92,241.64L212.16,241.07L212.65,241.38L212.77,241.64L213.02,242.27L213.14,241.92L213.51,241.39L214.6,239.48L214.73,239.57L215.7,238.81L216.07,238.86L217.78,236.37L217.9,236.63L218.26,236.29L218.63,237.27L220.34,239.01L220.46,239.38L221.19,237.81L221.31,237.91L221.44,238.05L222.05,237.57L222.17,237.92L222.29,238.46L223.02,239.51L223.14,239.13L223.27,238.08L224.24,239.58L224.73,238.88L225.46,237.77L225.58,238.78L225.83,236.3L226.44,236.36L226.56,236.13L228.15,233.76L228.27,233.53L228.88,232.43L229,232.65L229.12,233.51L229.24,233.1L229.37,233.6L229.85,233.37L229.98,233.58L230.83,235.19L230.95,234.62L231.07,234.84L232.29,233.92L232.42,234.05L232.78,234.93L233.15,234.13L233.27,234.63L234.86,234.01L234.98,234.15L235.34,234.55L236.56,232.52L236.69,233.06L236.81,233.55L237.05,233.47L237.66,234.48L237.78,234.14L238.64,233.18L238.76,233.23L239.61,232.26L240.1,233.01L240.22,232.39L240.83,232.77L240.96,232.92L243.03,233.79L243.4,233.53L244.25,234.33L244.5,233.79L244.62,233.83L245.23,234.03L245.35,234.83L245.47,235.48L245.96,234.03L246.08,234.05L246.81,232.38L246.94,232.72L247.06,234.15L248.52,235.9L248.64,236.88L249.38,235.27L249.5,236.9L250.23,235.94L250.35,236.11L250.47,236.5L251.08,239.6L251.21,239.44L251.33,237.89L251.57,236.95L251.94,237.09L252.06,238.4L252.91,237.21L253.04,237.77L253.89,236.14L254.01,236.79L254.62,236.92L254.74,236.68L254.87,236.51L255.72,237.92L255.84,237.71L256.21,237.61L256.57,237.94L257.18,237.34L257.31,237.75L258.4,235.44L258.77,236.43L258.89,236.62L259.01,235.39L260.11,234.64L260.48,234.77L260.97,236.94L261.45,236.58L261.58,235.63L262.31,235.21L262.43,235.44L263.41,236.18L263.53,235.17L264.26,235.93L264.38,236.71L265.11,237.82L265.24,238.6L265.85,237.92L265.97,238.07L266.46,238.39L266.58,237.88L266.82,238.8L267.31,238.77L267.68,241.12L268.16,240.57L268.29,240.19L269.14,241.06L269.26,241.03L269.38,241.16L269.51,239.81L269.87,240.33L269.99,240.19L270.12,241.91L270.73,241.12L270.85,241.64L271.09,240.79L271.7,241.21L271.82,241.41L272.07,241.48L272.56,240.77L272.68,240.38L272.92,240.93L273.29,240.71L273.41,241.29L274.63,239.08L275,239.38L275.36,239.57L275.48,239.28L275.85,239.21L276.83,238.09L276.95,238.25L277.56,238.5L277.68,237.84L278.66,236.96L278.78,237.61L279.63,236.66L279.75,237.26L280.12,237.89L281.1,238.72L281.22,240.46L281.83,241.57L282.07,241.43L282.19,241.36L283.17,242.09L283.54,241.19L283.9,241.1L284.02,240.83L284.39,240.5L285.37,239.58L285.49,239.95L286.1,239.91L286.22,239.8L286.34,239.82L286.46,239.63L286.59,239.85L286.95,240.26L288.17,240.59L288.29,241.32L288.66,241.68L288.9,241.05L289.03,240.73L290.37,240.35L290.49,240.23L290.61,240.38L290.73,239.87L290.86,239.87L291.22,239.58L291.71,239.9L292.08,240.26L292.2,240.44L292.32,238.74L293.42,237.2L293.78,236.96L295.13,236.69L295.49,236.92L296.71,237.4L296.83,237.13L297.32,237.14L297.44,236.96L297.57,237.73L297.69,238.38L298.3,236.03L298.42,234.99L299.76,235.73L299.88,235.67L300.01,235.43L300.13,235.92L300.62,235.82L300.74,235.69L302.69,234.59L302.81,234.71L303.3,234.26L303.42,234.99L303.54,235.29L304.52,236.51L304.89,236.08L305.01,235.9L305.74,237.37L305.86,236.98L305.98,236.19L307.94,236.22L308.3,236.43L310.01,234.36L310.13,234.27L311.35,234.58L311.84,234.49L315.26,233.06L315.38,231.02L316.23,230.12L316.36,229.68L316.84,229.44L316.97,228.96L318.19,228.5L318.55,228.43L319.53,227.71L319.65,227.85L320.38,227.86L320.5,227.45L321.6,227.4L321.97,227.33L322.21,226.43L322.82,226.55L322.94,226.25L324.04,227.28L324.53,227.07L324.77,227.39L325.02,226.94L325.38,226.56L328.07,222.91L328.19,224.37L328.8,223.32L329.04,223.51L329.17,223.36L330.02,223.55L330.14,222.92L330.87,223.04L331,224.73L331.85,226.61L332.22,225.47L332.34,225.84L332.7,225.49L333.07,225.62L333.92,226.27L334.17,226.1L334.29,226.48L334.78,225.83L334.9,225.7L335.88,224.16L336.12,224.37L336.49,223.86L336.73,223.47L336.85,224.29L336.97,224.58L337.34,224.8L337.46,224.43L337.58,222.44L337.71,222.88L338.19,221.97L338.32,221.62L338.56,222.59L339.17,220.82L339.29,221L339.41,221.88L339.9,222.06L340.02,221.33L340.39,221.31L340.76,220.86L341.24,220.13L341.73,220.68L342.1,221.66L342.46,220.85L343.68,223.14L343.81,223.56L344.17,223.94L344.29,223.21L344.42,222.9L345.27,223.12L345.39,222.58L346.37,222.12L346.73,221.31L346.86,221.14L346.98,221.34L347.1,222.41L347.95,222L348.08,220.41L349.78,216.76L350.15,216.96L350.39,218.35L351,218.09L351.13,217.19L351.49,216.67L351.86,216.92L351.98,217.21L352.83,218.19L352.96,218.37L354.05,216.96L354.42,216.26L355.52,217.92L355.64,217.78L355.76,218.31L356.25,217.44L356.37,217.45L357.47,216.07L357.96,216.33L358.2,215.45L358.69,216.1L358.81,216.08L360.4,221.94L360.52,220.07L360.76,222.32L360.89,221.59L361.25,219.79L361.62,216.83L362.23,217.16L362.35,217.39L362.96,215.12L363.2,215.36L363.33,216.26L364.67,214.33L364.79,214.83L366.01,219.15L366.38,216.9L367.23,218.65L367.35,218.16L368.21,216.76L368.33,216.99L369.06,215.33L369.18,215.44L369.3,216.89L369.91,219.72L370.16,219.35L370.28,219.9L370.77,217.95L370.89,215.81L371.01,215.71L371.13,213.72L372.35,212.05L372.48,212.55L372.6,212.04L373.21,212.2L373.33,212.34L373.7,211.93L374.18,212.13L374.31,212.24L374.43,212.42L374.55,211.45L374.92,210.99L375.16,210.37L375.4,211.03L375.77,211.16L375.89,210.86L376.26,211.85L376.62,211.88L377.48,213.78L377.6,213.13L378.33,212.33L378.45,213.28L380.16,211.1L380.28,211.4L381.14,210.12L381.26,210.3L381.38,211.23L381.87,211.43L381.99,208.19L382.6,206L382.85,206.53L382.97,206.05L383.82,204.33L383.95,203.09L384.56,203.82L384.8,203.5L385.17,202.98L386.14,199.94L386.26,200.38L386.39,201.48L386.87,202.87L387,201.26L387.12,202.07L387.24,200.51L388.22,203.06L388.58,202.15L388.83,202.26L389.68,198.86L389.8,200.05L389.92,201.13L390.29,201.28L390.41,200.38L390.66,204L391.14,203.15L391.27,201.75L391.51,203.54L391.63,202.58L392,202.19L392.12,201.58L392.24,203.81L392.49,203.46L392.85,204.64L393.22,201.73L393.34,206.03L393.71,207.75L393.95,205.31L394.07,205.3L395.9,215.92L396.27,215.24L396.39,215.35L396.51,213.38L396.76,214.08L397.12,212.24L397.61,217.04L398.1,217L398.22,216.86L398.34,216.32L398.46,217.92L398.83,218.37L398.95,217.75L399.07,219.27L399.2,220.46L399.68,223.4L399.93,220.36L400.05,220.66L400.78,220.14L400.9,224.76L401.76,221.35L401.88,221.79L402.25,222.47L402.37,221.56L402.49,221.02L402.73,220.46L403.22,221.5L403.47,221.67L403.59,220.19L403.95,220.62L404.08,221.09L405.05,215.35L405.17,216.32L406.03,215.92L406.15,216.03L407,215.28L407.37,214.9L408.35,214.52L408.47,214.82L408.59,215.42L408.71,215.29L409.08,213.52L410.3,208.73L410.42,209.92L410.79,210.61L410.91,211.18L411.27,210.25L411.64,209.87L412.74,207.09L412.86,207.58L413.47,207.49L413.59,206.35L414.32,205.06L414.57,205.71L414.69,206L415.06,205.91L415.18,207.07L415.54,203.79L415.91,204.76L416.03,206.43L416.4,207.65L416.76,211.05L417.01,209.5L417.25,210.07L417.62,211.84L417.74,210.79L418.11,213.07L418.59,213.29L419.33,214.76L419.45,212.87L420.3,208.34L420.67,208.96L421.03,208.61L421.4,206.95L421.89,207.21L422.01,208.11L422.99,205.47L423.23,205.53L423.6,206.78L424.08,205.8L424.45,205.23L424.94,206.02L425.3,204.63L426.16,203.9L426.28,204.17L426.4,202.9L426.65,205.59L427.01,208.78L427.99,203.63L428.11,205.5L428.23,205.8L428.96,202.52L429.09,202.58L429.21,205.53L429.94,203.62L430.06,203.7L430.55,204.61L431.53,199.23L431.65,199.38L431.77,200.68L432.38,199.48L432.5,200.02L432.62,200.99L433.23,200L433.48,200.66L433.84,199.11L433.97,198.93L434.09,200.62L435.19,195.43L435.55,195.53L435.67,195.7L435.8,195.99L436.04,195.37L436.41,194.14L436.53,194.3L436.65,193.33L436.77,193.21L437.38,193.3L437.75,189.53L438.11,189.03L438.36,189.1L438.48,187.97L439.82,185.65L439.94,185.9L440.07,186.84L440.31,187.26L440.68,185.87L440.92,185.43L441.65,187.97L441.77,187.27L442.87,183.22L443.24,181.79L444.21,180.46L444.46,178.75L445.07,177.62L445.31,175.59L445.43,176.47L445.92,176.18L446.04,174.73L446.65,170.56L447.02,171.08L447.14,170.02L447.63,170.68L448,170.15L448.36,172.99L448.61,168.33L448.85,172.82L449.22,173.07L449.58,168.06L450.07,168.7L450.19,169.29L450.31,166.98L450.56,167.67L451.05,169.48L451.17,168.07L451.41,171.29L451.78,175.81L452.27,183.36L452.63,175.62L452.88,174.42L453.49,185.54L453.61,179.71L454.34,192.83L454.59,191.48L454.71,192.05L455.2,198.26L455.32,191.41L455.44,191.82L455.56,187.9L456.29,193.23L456.42,192L456.54,193.07L457.88,179.19L458,179.99L458.12,179.3L458.73,184.88L458.98,182.85L459.1,180.43L459.47,180.37L459.59,181.77L460.56,175.06L460.69,174.12L461.17,170.18L461.54,171.85L461.66,172.41L462.27,168.88L462.52,168.99L463,169.65L464.59,164.53L464.71,161.31L464.83,158.61L464.96,163.79L465.57,158.84L465.69,158.99L465.93,159.56L466.3,156.76L466.42,154.42L466.79,158.37L467.15,155.87L468.49,149.18L468.86,149.72L469.71,146.2L469.84,147.86L469.96,147.52L470.08,152.94L470.2,153.22L470.57,150.54L470.69,152.44L470.93,148.85L471.06,136.53L471.79,127.18L472.28,128.12L472.4,132.23L473.25,124.64L473.37,124.46L474.23,111.18L474.35,113.04L474.47,113.29L474.96,101.78L475.08,105.19L475.2,118.11L475.33,118.01L475.81,128L475.94,122.48L476.18,129.01L476.55,124.88L476.67,124.66L477.03,135.34L477.64,135L477.77,133.65L478.62,123.13L478.74,127.76L479.96,113.79L480.21,117.73L480.33,118.32L481.3,125.28L481.67,125.26L481.79,123.36L481.91,129.99L482.04,124.93L482.16,132.86L482.52,132.97L482.65,130.92L483.62,119.3L483.74,119.64L484.23,118.3L484.35,119.42L484.48,121.1L484.6,120.34L484.72,121.95L485.09,126.25L486.18,114.88L486.43,115.9L486.79,114.05L486.92,113.27L487.04,116.48L487.16,114.68L487.28,115.7L487.65,116.48L487.77,108.96L487.89,109.05L488.01,107.95L488.14,110.46L488.5,108.53L488.62,104.03L488.75,105.17L488.87,103.92L489.36,98.11L490.45,110.54L490.58,105.22L490.7,103.82L491.06,107.61L491.19,107.83L491.31,105.25L491.55,109.87L492.04,109.02L492.89,90.14L493.02,91.49L493.14,97.62L493.26,103.94L493.87,101.5L493.99,97.25L494.85,99.53L494.97,99.23L495.46,101.93L496.55,117L496.68,116.67L497.04,108.6L497.9,122.72L498.02,116.88L498.14,118.25L498.87,111.34L498.99,112.34L499.12,117.57L499.24,118.24L499.6,114.03L499.85,118.11L500.09,116.73L500.46,116.51L500.58,118.35L500.82,114.52L501.31,110.93L501.56,108.46L501.68,105.42L502.53,100.31L502.65,100.73L503.02,99.89L503.14,102.02L503.39,103.47L503.87,100.03L504,100.44L504.12,101.44L504.24,101.57L504.36,104.06L504.73,102.73L504.85,108.52L505.09,106.19L505.22,105.06L505.83,114.28L506.07,108.47L506.44,109.94L506.68,111.89L506.8,108.65L506.92,110.98L507.29,108.91L507.53,109.22L507.66,111.16L508.51,113.32L508.63,110.41L509,110.39L509.12,109.35L509.36,110.13L509.49,108.6L509.85,104.72L509.97,105.76L510.22,103.09L510.34,104.74L510.71,102.46L511.68,97.46L511.8,96.68L511.93,96.3L512.05,92.96L513.39,85.92L513.51,81.57L514.12,89.87L514.24,85.29L514.37,86.22L514.49,84.48L514.61,82.3L514.98,81.77L515.1,84.52L515.22,86.74L515.83,86.07L515.95,83.79L516.81,85.42L516.93,85.1L517.05,81.33L517.54,78.56L517.66,79.71L517.78,84.48L518.39,80.31L518.64,81.99L518.76,83.01L520.22,71.63L520.34,73.6L521.81,88.73L521.93,88.12L522.05,85.11L522.3,83.78L522.66,85.71L522.79,90.01L522.91,88.87L523.03,90.52L523.15,89.09L523.52,93.46L523.88,88.3L524.37,88.89L524.49,90.51L524.62,91.26L524.74,87.71L524.86,86.37L525.59,80.6L526.2,80.8L526.32,81.38L526.45,76.75L527.06,79.93L527.18,78.1L527.42,77.81L528.15,82.06L528.28,79.41L528.64,79.4L528.76,78.15L529.74,64.51L529.98,70.91L531.33,52.98L531.45,48.12L531.57,48.77L531.69,42.67L532.91,54.77L533.03,50.73L533.16,47.42L533.77,41.57L534.01,42.76L534.13,44.23L534.25,45.01L534.62,39.48L534.99,51.96L535.47,51.72L535.6,48.12L535.72,47.56L535.84,51.72L535.96,50.63L536.45,54.71L537.55,67.9L537.67,54.04L538.28,47.17L538.52,50.92L538.89,51.83L539.13,46.06L539.38,55.61L539.74,55.31L539.87,50.42L540.23,57.29L540.72,61.01L540.84,66.33L541.09,60.35L541.45,60.01L541.7,58.21L542.43,69.62L542.55,62.73L543.16,78.15L543.28,72.56L543.4,66.93L544.26,53.65L544.38,48.82L544.99,42.71L545.11,44.19L545.23,48.15L545.36,48.52L545.72,43.36L546.58,59.23L546.7,56.84L546.82,53.41L547.43,60.08L547.55,57.16L547.67,57.37L547.92,64.18L548.28,62.81L548.41,70.42L548.53,70.7L548.65,61.86L548.77,69.35L549.26,67.07L549.38,58.89L550.36,87.69L550.48,81.98L550.85,83.95L550.97,79.31L551.21,94.23L551.82,90.45L551.94,90.25L552.92,76.84L553.04,84.15L553.41,83.2L553.53,79.98L553.77,87.59L553.9,94.5L554.63,103.37L554.75,101.49L555.24,96.08L555.36,96.73L555.48,93.07L555.97,88.82L556.09,94.11L556.21,91.87L556.34,95.02L557.31,82.07L557.68,84.79L558.9,71.65L559.02,73.23L559.39,74.66L559.51,76.35L559.63,69.84L559.75,69.14L560.48,58.13L560.61,58.53L560.73,58.53L561.22,59.07L561.34,53.63L561.46,54.58L561.58,50.04L561.95,48.66L562.07,48.87L562.19,46.95L562.44,50.77L562.8,55.73L562.92,56.16L563.05,55.78L563.17,52.64L564.14,70.52L564.63,72.13L564.88,72.22L565.36,60.94L565.49,73L565.85,76.95L566.34,69.15L566.46,73.15L567.32,78.03L567.44,87.29L567.56,92.67L568.05,82.74L568.17,82.36L569.02,92.5L569.15,86.65L569.27,92.45L569.76,85.69L569.88,85.56L570,86.15L570.12,81.27L570.61,74.89L570.73,78.65L570.85,84.37L570.98,70.61L571.59,84.08L571.71,91.82L572.32,90.46L572.44,96.3L573.17,77.15L573.29,78.73L573.42,76.3L573.54,75.58L573.9,79.72L574.15,75.85L574.39,79.59L574.76,84.5L574.88,88.35L575.12,79.34L575.25,79.97L575.61,81.46L575.86,88.64L576.1,87.1L576.47,84.16L576.59,82.92L576.71,85.77L576.83,94.24L577.81,100.1L578.3,102.41L579.15,108.67L579.27,107.04L579.39,108.73L579.52,102.92L579.88,102.25L581.59,88.42L581.71,86.63L581.83,87.48L581.96,84.83L582.08,82.34L582.44,86.04L582.69,82.97L582.81,76.17L583.42,71.34L583.54,74.78L583.66,76.11L584.4,69.88L584.52,71.94L584.64,73.4L586.1,82.57L586.23,81.81L586.71,71.78L587.08,75.88L587.2,78.53L588.91,63.66L589.28,66.15L589.4,66.95L589.52,63L589.64,60.99L590.13,56.16L590.37,59.21L590.5,58.08L591.23,63.85L591.35,56.94L591.84,57.35L591.96,55.78L592.08,54.32L592.33,57.62L592.69,57.23L592.94,59.21L593.06,53.33L593.18,51.72L593.55,51.83L593.67,53.16L593.91,56.64L594.04,46.8L594.4,46.89L594.52,49.08L594.77,46.57L595.26,48.09L595.38,48.09L595.74,44.17L596.11,45.39L596.23,48.74L596.48,46.92L596.6,43.82L597.45,36.82L597.82,38.56L597.94,39.03L598.06,40.79L598.31,36.81L598.67,33.21L598.79,33.82L598.92,33.01L599.04,30.4L599.77,33L599.89,29.14L600.38,31.33L600.5,27.79L600.87,20.29L601.23,22.21L601.48,23.64L601.6,23.03L601.72,24.47L602.09,27.1L602.21,27.77L602.33,25.62L602.45,24.65L602.58,24.46L602.94,20.27L603.19,18.86L603.31,21.36L603.43,22.87L604.04,19.62L604.16,21.24L604.28,17.93L604.65,17.14L604.77,18.21L604.89,22.06L605.87,40.6L605.99,40.22L606.36,38.1L606.72,45.05L607.21,42.7L607.33,40.93L607.58,42.02L608.43,27.39L608.55,25.37L609.04,25.06L609.16,33.71L610.02,44.78L610.14,42.83L610.26,43.76L610.63,39.99L610.75,38.59L610.87,43.15L610.99,45.13L611.48,42.4L611.6,47.64L611.73,49.59L611.97,48.6L612.34,45.36L612.46,47.08L612.7,43.89L612.82,40.6L613.56,36.51L613.68,38.87L614.04,39.04L615.26,54.09L615.39,52.4L615.75,49.77L616,45.08L616.12,40.5L616.24,41.67L616.61,38.39L616.73,35.09L618.31,22.2L618.44,23.23L618.56,22.38L618.8,24.09L619.17,24.32L619.41,24.85L619.66,22.47L620.02,24.78L620.51,16.76L620.88,19.99L621,18.04L621.24,13.7L621.73,16.53L621.85,15.19L622.71,20.16L622.83,20.03L622.95,19.48L623.07,20.82L623.56,29.61L623.93,35.3L624.29,29.71L624.54,28.91L625.39,33.39L625.51,25.8L626,19.08" style="vector-effect: none; fill: none; stroke: rgb(255, 127, 14); stroke-opacity: 1; stroke-width: 2px; opacity: 1;"/></g><g class="points"/><g class="text"/></g></g></g><g class="overplot"/><path class="xlines-above crisp" d="M0,0" style="fill: none;"/><path class="ylines-above crisp" d="M0,0" style="fill: none;"/><g class="overlines-above"/><g class="xaxislayer-above"><g class="xtick"><text text-anchor="middle" x="0" y="333" transform="translate(132.7,0)" style="font-family: 'Open Sans', verdana, arial, sans-serif; font-size: 12px; fill: rgb(214, 223, 239); fill-opacity: 1; white-space: pre; opacity: 1;">2012</text></g><g class="xtick"><text text-anchor="middle" x="0" y="333" style="font-family: 'Open Sans', verdana, arial, sans-serif; font-size: 12px; fill: rgb(214, 223, 239); fill-opacity: 1; white-space: pre; opacity: 1;" transform="translate(221.88,0)">2014</text></g><g class="xtick"><text text-anchor="middle" x="0" y="333" style="font-family: 'Open Sans', verdana, arial, sans-serif; font-size: 12px; fill: rgb(214, 223, 239); fill-opacity: 1; white-space: pre; opacity: 1;" transform="translate(310.94,0)">2016</text></g><g class="xtick"><text text-anchor="middle" x="0" y="333" style="font-family: 'Open Sans', verdana, arial, sans-serif; font-size: 12px; fill: rgb(214, 223, 239); fill-opacity: 1; white-space: pre; opacity: 1;" transform="translate(400.13,0)">2018</text></g><g class="xtick"><text text-anchor="middle" x="0" y="333" style="font-family: 'Open Sans', verdana, arial, sans-serif; font-size: 12px; fill: rgb(214, 223, 239); fill-opacity: 1; white-space: pre; opacity: 1;" transform="translate(489.19,0)">2020</text></g><g class="xtick"><text text-anchor="middle" x="0" y="333" style="font-family: 'Open Sans', verdana, arial, sans-serif; font-size: 12px; fill: rgb(214, 223, 239); fill-opacity: 1; white-space: pre; opacity: 1;" transform="translate(578.38,0)">2022</text></g><g class="xtick"><text text-anchor="middle" x="0" y="333" style="font-family: 'Open Sans', verdana, arial, sans-serif; font-size: 12px; fill: rgb(214, 223, 239); fill-opacity: 1; white-space: pre; opacity: 1;" transform="translate(667.44,0)">2024</text></g></g><g class="yaxislayer-above"><g class="ytick"><text text-anchor="end" x="43" y="4.199999999999999" transform="translate(0,312.5)" style="font-family: 'Open Sans', verdana, arial, sans-serif; font-size: 12px; fill: rgb(214, 223, 239); fill-opacity: 1; white-space: pre; opacity: 1;">0</text></g><g class="ytick"><text text-anchor="end" x="43" y="4.199999999999999" style="font-family: 'Open Sans', verdana, arial, sans-serif; font-size: 12px; fill: rgb(214, 223, 239); fill-opacity: 1; white-space: pre; opacity: 1;" transform="translate(0,243.43)">1000</text></g><g class="ytick"><text text-anchor="end" x="43" y="4.199999999999999" style="font-family: 'Open Sans', verdana, arial, sans-serif; font-size: 12px; fill: rgb(214, 223, 239); fill-opacity: 1; white-space: pre; opacity: 1;" transform="translate(0,174.37)">2000</text></g><g class="ytick"><text text-anchor="end" x="43" y="4.199999999999999" style="font-family: 'Open Sans', verdana, arial, sans-serif; font-size: 12px; fill: rgb(214, 223, 239); fill-opacity: 1; white-space: pre; opacity: 1;" transform="translate(0,105.3)">3000</text></g></g><g class="overaxes-above"/></g></g><g class="polarlayer"/><g class="smithlayer"/><g class="ternarylayer"/><g class="geolayer"/><g class="funnelarealayer"/><g class="pielayer"/><g class="iciclelayer"/><g class="treemaplayer"/><g class="sunburstlayer"/><g class="glimages"/><defs id="topdefs-5b2d4e"><g class="clips"/><clipPath id="legend5b2d4e"><rect width="277" height="29" x="0" y="0"/></clipPath></defs><g class="layer-above"><g class="imagelayer"/><g class="shapelayer"/></g><g class="infolayer"><g class="legend" pointer-events="all" transform="translate(393,11.519999999999996)"><rect class="bg" shape-rendering="crispEdges" style="stroke: rgb(68, 68, 68); stroke-opacity: 1; fill: rgb(33, 34, 38); fill-opacity: 1; stroke-width: 0px;" width="277" height="29" x="0" y="0"/><g class="scrollbox" transform="" clip-path="url(#legend5b2d4e)"><g class="groups"><g class="traces" transform="translate(0,14.5)" style="opacity: 1;"><text class="legendtext" text-anchor="start" x="40" y="4.680000000000001" style="font-family: 'Open Sans', verdana, arial, sans-serif; font-size: 12px; fill: rgb(214, 223, 239); fill-opacity: 1; white-space: pre;">Value (kept)</text><g class="layers" style="opacity: 1;"><g class="legendfill"/><g class="legendlines"><path class="js-line" d="M5,0h30" style="fill: none; stroke: rgb(31, 119, 180); stroke-opacity: 1; stroke-width: 2px;"/></g><g class="legendsymbols"><g class="legendpoints"/></g></g><rect class="legendtoggle" x="0" y="-9.5" width="117.53125" height="19" style="fill: rgb(0, 0, 0); fill-opacity: 0;"/></g><g class="traces" transform="translate(120.03125,14.5)" style="opacity: 1;"><text class="legendtext" text-anchor="start" x="40" y="4.680000000000001" style="font-family: 'Open Sans', verdana, arial, sans-serif; font-size: 12px; fill: rgb(214, 223, 239); fill-opacity: 1; white-space: pre;">Value (reinvested)</text><g class="layers" style="opacity: 1;"><g class="legendfill"/><g class="legendlines"><path class="js-line" d="M5,0h30" style="fill: none; stroke: rgb(255, 127, 14); stroke-opacity: 1; stroke-width: 2px;"/></g><g class="legendsymbols"><g class="legendpoints"/></g></g><rect class="legendtoggle" x="0" y="-9.5" width="154.078125" height="19" style="fill: rgb(0, 0, 0); fill-opacity: 0;"/></g></g></g><rect class="scrollbar" rx="20" ry="3" width="0" height="0" style="fill: rgb(128, 139, 164); fill-opacity: 1;" x="0" y="0"/></g><g class="g-gtitle"/><g class="g-xtitle"/><g class="g-ytitle"/></g></svg>