<svg class="main-svg" xmlns="http://www.w3.org/2000/svg" xmlns:xlink="http://www.w3.org/1999/xlink" width="700" height="350" style="" viewBox="0 0 700 350"><rect x="0" y="0" width="700" height="350" style="fill: rgb(255, 255, 255); fill-opacity: 1;"/><defs id="defs-e578a1"><g class="clips"><clipPath id="clipe578a1xyplot" class="plotclip"><rect width="584" height="274"/></clipPath><clipPath class="axesclip" id="clipe578a1x"><rect x="86" y="0" width="584" height="350"/></clipPath><clipPath class="axesclip" id="clipe578a1y"><rect x="0" y="46" width="700" height="274"/></clipPath><clipPath class="axesclip" id="clipe578a1xy"><rect x="86" y="46" width="584" height="274"/></clipPath></g><g class="gradients"/><g class="patterns"/></defs><g class="bglayer"><rect class="bg" x="86" y="46" width="584" height="274" style="fill: rgb(229, 236, 246); fill-opacity: 1; stroke-width: 0;"/></g><g class="layer-below"><g class="imagelayer"/><g class="shapelayer"/></g><g class="cartesianlayer"><g class="subplot xy"><g class="layer-subplot"><g class="shapelayer"/><g class="imagelayer"/></g><g class="minor-gridlayer"><g class="x"/><g class="y"/></g><g class="gridlayer"><g class="x"><path class="xgrid crisp" transform="translate(178.7,0)" d="M0,46v274" style="stroke: rgb(255, 255, 255); stroke-opacity: 1; stroke-width: 1px;"/><path class="xgrid crisp" transform="translate(271.4,0)" d="M0,46v274" style="stroke: rgb(255, 255, 255); stroke-opacity: 1; stroke-width: 1px;"/><path class="xgrid crisp" transform="translate(364.1,0)" d="M0,46v274" style="stroke: rgb(255, 255, 255); stroke-opacity: 1; stroke-width: 1px;"/><path class="xgrid crisp" transform="translate(456.79,0)" d="M0,46v274" style="stroke: rgb(255, 255, 255); stroke-opacity: 1; stroke-width: 1px;"/><path class="xgrid crisp" transform="translate(549.49,0)" d="M0,46v274" style="stroke: rgb(255, 255, 255); stroke-opacity: 1; stroke-width: 1px;"/><path class="xgrid crisp" transform="translate(642.19,0)" d="M0,46v274" style="stroke: rgb(255, 255, 255); stroke-opacity: 1; stroke-width: 1px;"/></g><g class="y"><path class="ygrid crisp" transform="translate(0,256.98)" d="M86,0h584" style="stroke: rgb(255, 255, 255); stroke-opacity: 1; stroke-width: 1px;"/><path class="ygrid crisp" transform="translate(0,207.66)" d="M86,0h584" style="stroke: rgb(255, 255, 255); stroke-opacity: 1; stroke-width: 1px;"/><path class="ygrid crisp" transform="translate(0,158.34)" d="M86,0h584" style="stroke: rgb(255, 255, 255); stroke-opacity: 1; stroke-width: 1px;"/><path class="ygrid crisp" transform="translate(0,109.02000000000001)" d="M86,0h584" style="stroke: rgb(255, 255, 255); stroke-opacity: 1; stroke-width: 1px;"/><path class="ygrid crisp" transform="translate(0,59.7)" d="M86,0h584" style="stroke: rgb(255, 255, 255); stroke-opacity: 1; stroke-width: 1px;"/></g></g><g class="zerolinelayer"><path class="xzl zl crisp" transform="translate(86,0)" d="M0,46v274" style="stroke: rgb(255, 255, 255); stroke-opacity: 1; stroke-width: 2px;"/><path class="yzl zl crisp" transform="translate(0,306.3)" d="M86,0h584" style="stroke: rgb(255, 255, 255); stroke-opacity: 1; stroke-width: 2px;"/></g><path class="xlines-below"/><path class="ylines-below"/><g class="overlines-below"/><g class="xaxislayer-below"/><g class="yaxislayer-below"/><g class="overaxes-below"/><g class="plot" transform="translate(86,46)" clip-path="url(#clipe578a1xyplot)"><g class="scatterlayer mlayer"><g class="trace scatter tracea2ed7f49-f16a-4b85-8a6a-873942f0688b" style="stroke-miterlimit: 2; opacity: 0.5;"><g class="fills"/><g class="errorbars"/><g class="lines"><path class="js-line" d="M0,260.3L4.63,218.68L9.27,218.68L18.54,218.68L23.17,198.41L27.81,178.19L32.44,178.19L129.78,178.19" style="vector-effect: none; fill: none; stroke: rgb(198, 145, 28); stroke-opacity: 1; stroke-width: 2px; opacity: 1;"/></g><g class="points"/><g class="text"/></g><g class="trace scatter tracec6f1a9c5-0222-4cf4-b177-233d8616f72f" style="stroke-miterlimit: 2; opacity: 0.5;"><g class="fills"/><g class="errorbars"/><g class="lines"><path class="js-line" d="M0,260.3L4.63,249.51L9.27,249.51L13.9,248.95L18.54,229.29L69.52,229.29" style="vector-effect: none; fill: none; stroke: rgb(211, 90, 22); stroke-opacity: 1; stroke-width: 2px; opacity: 1;"/></g><g class="points"/><g class="text"/></g><g class="trace scatter trace9cac8d48-26c8-4f20-a735-bae6f976cbe7" style="stroke-miterlimit: 2; opacity: 0.5;"><g class="fills"/><g class="errorbars"/><g class="lines"><path class="js-line" d="M0,260.3L4.63,259.43L9.27,230.63L13.9,209.44L18.54,209.44L23.17,183.75L27.81,167.99L32.44,43.33L37.08,43.33L74.16,43.33" style="vector-effect: none; fill: none; stroke: rgb(77, 166, 41); stroke-opacity: 1; stroke-width: 2px; opacity: 1;"/></g><g class="points"/><g class="text"/></g><g class="trace scatter trace536bfffc-1bcf-47bb-a9a5-680b57fc9751" style="stroke-miterlimit: 2; opacity: 0.5;"><g class="fills"/><g class="errorbars"/><g class="lines"><path class="js-line" d="M0,260.3L27.81,260.3L32.44,253.83L41.71,253.83L46.35,246.16L64.89,246.16L69.52,239.83L74.16,236.64L78.79,236.64L143.68,236.64" style="vector-effect: none; fill: none; stroke: rgb(213, 81, 21); stroke-opacity: 1; stroke-width: 2px; opacity: 1;"/></g><g class="points"/><g class="text"/></g><g class="trace scatter tracefb46a6dc-99ec-44b0-8bd6-0461a9aca0dc" style="stroke-miterlimit: 2; opacity: 0.5;"><g class="fills"/><g class="errorbars"/><g class="lines"><path class="js-line" d="M0,260.3L4.63,229.23L9.27,218.59L18.54,218.59" style="vector-effect: none; fill: none; stroke: rgb(209, 101, 23); stroke-opacity: 1; stroke-width: 2px; opacity: 1;"/></g><g class="points"/><g class="text"/></g><g class="trace scatter tracef4b6df9a-8ae9-4c1c-b1b5-329f0b28a31f" style="stroke-miterlimit: 2; opacity: 0.5;"><g class="fills"/><g class="errorbars"/><g class="lines"><path class="js-line" d="M0,260.3L4.63,257.53L9.27,257.53" style="vector-effect: none; fill: none; stroke: rgb(219, 59, 18); stroke-opacity: 1; stroke-width: 2px; opacity: 1;"/></g><g class="points"/><g class="text"/></g><g class="trace scatter trace3d0596dd-2563-427f-9f1a-acd92063e521" style="stroke-miterlimit: 2; opacity: 0.5;"><g class="fills"/><g class="errorbars"/><g class="lines"><path class="js-line" d="M0,260.3L4.63,253.41L9.27,253.41L23.17,253.41L27.81,244.38L32.44,229.79L37.08,229.79L41.71,223.61L46.35,223.61L69.52,223.61L74.16,194.71L148.32,194.71" style="vector-effect: none; fill: none; stroke: rgb(202, 127, 26); stroke-opacity: 1; stroke-width: 2px; opacity: 1;"/></g><g class="points"/><g class="text"/></g><g class="trace scatter trace4091b01c-ea63-4023-82b9-eb3f6f8caa12" style="stroke-miterlimit: 2; opacity: 0.5;"><g class="fills"/><g class="errorbars"/><g class="lines"><path class="js-line" d="M0,260.3L4.63,242.4L9.27,242.4L69.52,242.06L74.16,237.41L115.87,237.41" style="vector-effect: none; fill: none; stroke: rgb(214, 80, 20); stroke-opacity: 1; stroke-width: 2px; opacity: 1;"/></g><g class="points"/><g class="text"/></g><g class="trace scatter trace97eccb9b-9be9-46fe-8cb3-be8c10c6dade" style="stroke-miterlimit: 2; opacity: 0.5;"><g class="fills"/><g class="errorbars"/><g class="lines"><path class="js-line" d="M0,260.3L4.63,240.96L9.27,236.99L13.9,236.99L18.54,223.41L23.17,217.34L27.81,217.34L32.44,197.21L37.08,189.58L162.22,189.58" style="vector-effect: none; fill: none; stroke: rgb(201, 132, 27); stroke-opacity: 1; stroke-width: 2px; opacity: 1;"/></g><g class="points"/><g class="text"/></g><g class="trace scatter trace20e28b12-4ee3-4379-8904-bc2bbb386082" style="stroke-miterlimit: 2; opacity: 0.5;"><g class="fills"/><g class="errorbars"/><g class="lines"><path class="js-line" d="M0,260.3L4.63,255.44L9.27,255.44L13.9,255.13L18.54,252.87L41.71,251.57L46.35,251.57L50.98,249.31L55.62,249.31L60.25,249.31L64.89,246.18L69.52,243L74.16,243L78.79,243L83.43,238.99L92.7,221.85L97.33,221.85L101.97,221.85L106.6,210.52L111.24,202.88L115.87,201.29L254.92,201.29L259.56,189.28L264.19,123.99L268.83,99.82L287.37,99.82L292,75.42L296.63,57.13L301.27,57.13L324.44,56.98L329.08,37.09L333.71,13.7" style="vector-effect: none; fill: none; stroke: rgb(44, 160, 44); stroke-opacity: 1; stroke-width: 2px; opacity: 1;"/></g><g class="points"/><g class="text"/></g><g class="trace scatter trace938df5c2-6f9e-459d-900c-94af845c9ca6" style="stroke-miterlimit: 2; opacity: 0.5;"><g class="fills"/><g class="errorbars"/><g class="lines"><path class="js-line" d="M0,260.3L69.52,260.25L74.16,260.25L97.33,260.25" style="vector-effect: none; fill: none; stroke: rgb(220, 57, 18); stroke-opacity: 1; stroke-width: 2px; opacity: 1;"/></g><g class="points"/><g class="text"/></g><g class="trace scatter tracedfc32f96-43a1-4065-a0a4-4e77e242176e" style="stroke-miterlimit: 2; opacity: 0.5;"><g class="fills"/><g class="errorbars"/><g class="lines"><path class="js-line" d="M0,260.3L9.27,253L13.9,251.85L18.54,248.17L23.17,247.28L69.52,247.28L74.16,238.67L78.79,228.08L83.43,228.08L88.06,228.08L92.7,225.75L97.33,213.54L101.97,213.54L120.51,213.5" style="vector-effect: none; fill: none; stroke: rgb(207, 106, 24); stroke-opacity: 1; stroke-width: 2px; opacity: 1;"/></g><g class="points"/><g class="text"/></g><g class="trace scatter traceefc46963-089c-47db-83cf-28b7967bd332" style="stroke-miterlimit: 2; opacity: 0.5;"><g class="fills"/><g class="errorbars"/><g class="lines"><path class="js-line" d="M0,260.3L4.63,239.32L9.27,239.32L32.44,239.32L37.08,234.06L41.71,228.48L46.35,228.48L50.98,228.48" style="vector-effect: none; fill: none; stroke: rgb(211, 91, 22); stroke-opacity: 1; stroke-width: 2px; opacity: 1;"/></g><g class="points"/><g class="text"/></g><g class="trace scatter trace3adbd08b-a2dc-4468-8fe8-56b375d1dadc" style="stroke-miterlimit: 2; opacity: 0.5;"><g class="fills"/><g class="errorbars"/><g class="lines"><path class="js-line" d="M0,260.3L9.27,259.02L13.9,259.02L23.17,259.02" style="vector-effect: none; fill: none; stroke: rgb(219, 58, 18); stroke-opacity: 1; stroke-width: 2px; opacity: 1;"/></g><g class="points"/><g class="text"/></g><g class="trace scatter tracec1ef0fba-ec12-4aa9-b511-17713a04c8ac" style="stroke-miterlimit: 2; opacity: 0.5;"><g class="fills"/><g class="errorbars"/><g class="lines"><path class="js-line" d="M0,260.3L4.63,213.43L9.27,209.31L18.54,209.31L23.17,203.46L27.81,197.43L32.44,197.43L64.89,197.43L69.52,176.98L74.16,166.84L78.79,152.36L83.43,142.64" style="vector-effect: none; fill: none; stroke: rgb(189, 183, 33); stroke-opacity: 1; stroke-width: 2px; opacity: 1;"/></g><g class="points"/><g class="text"/></g><g class="trace scatter tracee9bae72d-75ee-4f98-a61f-81db43526f1e" style="stroke-miterlimit: 2; opacity: 0.5;"><g class="fills"/><g class="errorbars"/><g class="lines"><path class="js-line" d="M0,260.3L4.63,257L9.27,257L64.89,257" style="vector-effect: none; fill: none; stroke: rgb(219, 60, 18); stroke-opacity: 1; stroke-width: 2px; opacity: 1;"/></g><g class="points"/><g class="text"/></g><g class="trace scatter trace6e7c33f4-39a1-44c1-9a9b-0936e89436fa" style="stroke-miterlimit: 2; opacity: 0.5;"><g class="fills"/><g class="errorbars"/><g class="lines"><path class="js-line" d="M0,260.3L4.63,254.7L9.27,215.14L13.9,180.74L18.54,180.74L23.17,168.1L27.81,168.1" style="vector-effect: none; fill: none; stroke: rgb(196, 155, 29); stroke-opacity: 1; stroke-width: 2px; opacity: 1;"/></g><g class="points"/><g class="text"/></g><g class="trace scatter trace5afac5bf-9739-44e7-8a94-65b7fa595eb4" style="stroke-miterlimit: 2; opacity: 0.5;"><g class="fills"/><g class="errorbars"/><g class="lines"><path class="js-line" d="M0,260.3L4.63,236.23L9.27,227.7L13.9,181.85L18.54,177.65L23.17,127.3L27.81,67.76L78.79,67.76L83.43,13.7" style="vector-effect: none; fill: none; stroke: rgb(44, 160, 44); stroke-opacity: 1; stroke-width: 2px; opacity: 1;"/></g><g class="points"/><g class="text"/></g><g class="trace scatter trace24685e51-69fa-4fc7-b93e-2af49c859ba5" style="stroke-miterlimit: 2; opacity: 0.5;"><g class="fills"/><g class="errorbars"/><g class="lines"><path class="js-line" d="M0,260.3L4.63,257.93L9.27,257.93L13.9,257.93L18.54,234.77L32.44,234.77L37.08,230.49L50.98,230.49L55.62,171.13" style="vector-effect: none; fill: none; stroke: rgb(196, 152, 29); stroke-opacity: 1; stroke-width: 2px; opacity: 1;"/></g><g class="points"/><g class="text"/></g><g class="trace scatter traceea4c4a25-b022-4274-98cf-d99f32cf9ea8" style="stroke-miterlimit: 2; opacity: 0.5;"><g class="fills"/><g class="errorbars"/><g class="lines"><path class="js-line" d="M0,260.3L4.63,251.93L9.27,251.93L129.78,251.93" style="vector-effect: none; fill: none; stroke: rgb(217, 65, 19); stroke-opacity: 1; stroke-width: 2px; opacity: 1;"/></g><g class="points"/><g class="text"/></g><g class="trace scatter trace1740fd28-b12d-4d4a-9da1-c9c539e49b6d" style="stroke-miterlimit: 2; opacity: 0.5;"><g class="fills"/><g class="errorbars"/><g class="lines"><path class="js-line" d="M0,260.3L4.63,243.66L9.27,242.37L27.81,242.37L32.44,224.24L37.08,212.47L41.71,212.47L69.52,212.47L74.16,207.16L78.79,207.16L83.43,188.4L88.06,162.48L92.7,110.07L97.33,101.87L101.97,99.11L106.6,88.23L111.24,88.23L115.87,88.23L120.51,74.35L152.95,74.35" style="vector-effect: none; fill: none; stroke: rgb(114, 174, 39); stroke-opacity: 1; stroke-width: 2px; opacity: 1;"/></g><g class="points"/><g class="text"/></g><g class="trace scatter tracedcab5fd7-4c94-4604-a25a-7232304a40fd" style="stroke-miterlimit: 2; opacity: 0.5;"><g class="fills"/><g class="errorbars"/><g class="lines"><path class="js-line" d="M0,260.3L4.63,188.78L9.27,188.78L18.54,188.78L23.17,172.05L27.81,172.05L32.44,163.55L37.08,48.96L41.71,13.7" style="vector-effect: none; fill: none; stroke: rgb(44, 160, 44); stroke-opacity: 1; stroke-width: 2px; opacity: 1;"/></g><g class="points"/><g class="text"/></g><g class="trace scatter trace0ee25120-23e0-481c-8842-e1068638bacf" style="stroke-miterlimit: 2; opacity: 0.5;"><g class="fills"/><g class="errorbars"/><g class="lines"><path class="js-line" d="M0,260.3L4.63,239.31L9.27,210.82L46.35,210.82L50.98,184.28L55.62,163.76L60.25,163.76L64.89,152.63L69.52,150.27L83.43,150.27L88.06,113.58L92.7,105.13L97.33,104.84L101.97,104.84L106.6,52.16L111.24,51.25L115.87,51.25L143.68,51.25L148.32,47.43L152.95,47.43L157.59,35.45L171.49,35.45" style="vector-effect: none; fill: none; stroke: rgb(68, 165, 42); stroke-opacity: 1; stroke-width: 2px; opacity: 1;"/></g><g class="points"/><g class="text"/></g><g class="trace scatter trace1c598c57-95db-4798-aa2e-340ee80da021" style="stroke-miterlimit: 2; opacity: 0.5;"><g class="fills"/><g class="errorbars"/><g class="lines"><path class="js-line" d="M0,260.3L4.63,235.37L9.27,235.37L23.17,235.37L27.81,230.21L32.44,213.11L37.08,212.83L46.35,212.83L50.98,203.03L55.62,198.16L60.25,197.28L64.89,191.93L69.52,191.92L92.7,191.92" style="vector-effect: none; fill: none; stroke: rgb(202, 129, 26); stroke-opacity: 1; stroke-width: 2px; opacity: 1;"/></g><g class="points"/><g class="text"/></g><g class="trace scatter tracec62664df-d0f0-4dd0-904f-b1e1d6b149ea" style="stroke-miterlimit: 2; opacity: 0.5;"><g class="fills"/><g class="errorbars"/><g class="lines"><path class="js-line" d="M0,260.3L4.63,254.91L9.27,254.91L32.44,254.91L37.08,233.25L41.71,233.25" style="vector-effect: none; fill: none; stroke: rgb(212, 85, 21); stroke-opacity: 1; stroke-width: 2px; opacity: 1;"/></g><g class="points"/><g class="text"/></g><g class="trace scatter trace1d4ec62f-d70b-476a-9f89-7639b96dc2a1" style="stroke-miterlimit: 2; opacity: 0.5;"><g class="fills"/><g class="errorbars"/><g class="lines"><path class="js-line" d="M0,260.3L4.63,258.63L9.27,258.53L18.54,258.53L23.17,255.22L55.62,254.84" style="vector-effect: none; fill: none; stroke: rgb(218, 62, 18); stroke-opacity: 1; stroke-width: 2px; opacity: 1;"/></g><g class="points"/><g class="text"/></g><g class="trace scatter trace6e08d41d-410b-4c24-b786-76f456b83bc4" style="stroke-miterlimit: 2; opacity: 0.5;"><g class="fills"/><g class="errorbars"/><g class="lines"><path class="js-line" d="M0,260.3L4.63,249.36L9.27,181.11L13.9,177.57L18.54,177.57L60.25,177.57" style="vector-effect: none; fill: none; stroke: rgb(198, 145, 28); stroke-opacity: 1; stroke-width: 2px; opacity: 1;"/></g><g class="points"/><g class="text"/></g><g class="trace scatter traced6501835-b97d-4cd6-a2d3-12d73600cb6c" style="stroke-miterlimit: 2; opacity: 0.5;"><g class="fills"/><g class="errorbars"/><g class="lines"><path class="js-line" d="M0,260.3L4.63,256.91L9.27,256.59L13.9,246.33L18.54,246.33L111.24,246.33" style="vector-effect: none; fill: none; stroke: rgb(216, 71, 19); stroke-opacity: 1; stroke-width: 2px; opacity: 1;"/></g><g class="points"/><g class="text"/></g><g class="trace scatter trace8799a26e-bfbc-4770-b4bb-a600995a2918" style="stroke-miterlimit: 2; opacity: 0.5;"><g class="fills"/><g class="errorbars"/><g class="lines"><path class="js-line" d="M0,260.3L4.63,253.76L9.27,233.84L13.9,228.3L18.54,228.3L166.86,228.3L171.49,217.56L180.76,217.56L185.4,141.58L190.03,91.55L194.67,91.55L208.57,91.55L213.21,90.08L217.84,90.08L222.48,77.25L278.1,77.12L282.73,50.79L287.37,49.76L292,49.76L324.44,49.76L329.08,21.84L333.71,19.22L338.35,19.22L342.98,19.22L347.62,13.7" style="vector-effect: none; fill: none; stroke: rgb(44, 160, 44); stroke-opacity: 1; stroke-width: 2px; opacity: 1;"/></g><g class="points"/><g class="text"/></g><g class="trace scatter trace98acedfd-9e4a-44c5-94b0-00fb6f83ff75" style="stroke-miterlimit: 2; opacity: 0.5;"><g class="fills"/><g class="errorbars"/><g class="lines"><path class="js-line" d="M0,260.3L4.63,235.75L9.27,217.2L13.9,206.37L18.54,191.54L23.17,188.34L27.81,142.86L32.44,123.42L37.08,123.42L176.13,123.42" style="vector-effect: none; fill: none; stroke: rgb(171, 185, 35); stroke-opacity: 1; stroke-width: 2px; opacity: 1;"/></g><g class="points"/><g class="text"/></g><g class="trace scatter trace5e9a1a67-5d82-47eb-91b0-fc6b800a40c6" style="stroke-miterlimit: 2; opacity: 0.5;"><g class="fills"/><g class="errorbars"/><g class="lines"><path class="js-line" d="M0,260.3L9.27,259.9L13.9,259.9L69.52,259.9" style="vector-effect: none; fill: none; stroke: rgb(220, 57, 18); stroke-opacity: 1; stroke-width: 2px; opacity: 1;"/></g><g class="points"/><g class="text"/></g><g class="trace scatter trace5daa01cf-d13e-46fe-977b-03dff0d7a1c1" style="stroke-miterlimit: 2; opacity: 0.5;"><g class="fills"/><g class="errorbars"/><g class="lines"><path class="js-line" d="M0,260.3L4.63,259.98L9.27,218.94L18.54,218.3L23.17,214.21L27.81,210.95L32.44,201.79L69.52,201.79L74.16,190.1L78.79,187.22L83.43,178.39L106.6,178.39L111.24,169.47L115.87,162.04L120.51,161.44L125.14,158.91L129.78,143.69L139.05,138.95" style="vector-effect: none; fill: none; stroke: rgb(188, 186, 33); stroke-opacity: 1; stroke-width: 2px; opacity: 1;"/></g><g class="points"/><g class="text"/></g><g class="trace scatter traceb1d947d0-f4bb-483e-8f63-1a6d027bdbf4" style="stroke-miterlimit: 2; opacity: 0.5;"><g class="fills"/><g class="errorbars"/><g class="lines"><path class="js-line" d="M0,260.3L4.63,258.89L9.27,258.89L37.08,258.89" style="vector-effect: none; fill: none; stroke: rgb(219, 58, 18); stroke-opacity: 1; stroke-width: 2px; opacity: 1;"/></g><g class="points"/><g class="text"/></g><g class="trace scatter tracee82beeba-bf0b-492f-803d-c697cd128f9f" style="stroke-miterlimit: 2; opacity: 0.5;"><g class="fills"/><g class="errorbars"/><g class="lines"><path class="js-line" d="M0,260.3L4.63,239.63L9.27,239.63L13.9,239.63L18.54,226.91L23.17,225.44L27.81,225.44L101.97,225.44" style="vector-effect: none; fill: none; stroke: rgb(210, 94, 22); stroke-opacity: 1; stroke-width: 2px; opacity: 1;"/></g><g class="points"/><g class="text"/></g><g class="trace scatter trace7d5ed668-a11c-42d3-b400-c16d1c97d01e" style="stroke-miterlimit: 2; opacity: 0.5;"><g class="fills"/><g class="errorbars"/><g class="lines"><path class="js-line" d="M0,260.3L4.63,253.86L9.27,253.86L23.17,253.86L27.81,240.76L32.44,239.29L37.08,232.29L41.71,232.29L46.35,207.41" style="vector-effect: none; fill: none; stroke: rgb(206, 112, 24); stroke-opacity: 1; stroke-width: 2px; opacity: 1;"/></g><g class="points"/><g class="text"/></g><g class="trace scatter tracee7b77ac6-cce8-451d-b8b8-0a50f9c8c745" style="stroke-miterlimit: 2; opacity: 0.5;"><g class="fills"/><g class="errorbars"/><g class="lines"><path class="js-line" d="M0,260.3L4.63,258.78L9.27,258.78L13.9,258.78L18.54,247.55L27.81,246.23L32.44,246.23L139.05,246.23" style="vector-effect: none; fill: none; stroke: rgb(216, 71, 19); stroke-opacity: 1; stroke-width: 2px; opacity: 1;"/></g><g class="points"/><g class="text"/></g><g class="trace scatter trace43a020f1-f8b1-42f0-96d5-495cab779a2b" style="stroke-miterlimit: 2; opacity: 0.5;"><g class="fills"/><g class="errorbars"/><g class="lines"><path class="js-line" d="M0,260.3L4.63,257.03L9.27,257.03L41.71,257.03L46.35,246.78L55.62,232.7L60.25,232.7L64.89,232.7L69.52,231.1L162.22,231.1L166.86,216.65L171.49,216.65L176.13,204.62L199.3,204.62" style="vector-effect: none; fill: none; stroke: rgb(205, 116, 25); stroke-opacity: 1; stroke-width: 2px; opacity: 1;"/></g><g class="points"/><g class="text"/></g><g class="trace scatter trace18874090-e1d9-4638-9a64-63f981033e0f" style="stroke-miterlimit: 2; opacity: 0.5;"><g class="fills"/><g class="errorbars"/><g class="lines"><path class="js-line" d="M0,260.3L9.27,258.47L13.9,247.99" style="vector-effect: none; fill: none; stroke: rgb(216, 69, 19); stroke-opacity: 1; stroke-width: 2px; opacity: 1;"/></g><g class="points"/><g class="text"/></g><g class="trace scatter trace0fbf6cba-bd39-42ae-8f1d-db37f7624916" style="stroke-miterlimit: 2; opacity: 0.5;"><g class="fills"/><g class="errorbars"/><g class="lines"><path class="js-line" d="M0,260.3L4.63,245.14L9.27,245.14L13.9,241.38L18.54,190.66L23.17,133.38L27.81,133.38L32.44,121.75L37.08,118.51L55.62,118.51L60.25,105.38L64.89,52.71L69.52,13.7" style="vector-effect: none; fill: none; stroke: rgb(44, 160, 44); stroke-opacity: 1; stroke-width: 2px; opacity: 1;"/></g><g class="points"/><g class="text"/></g><g class="trace scatter trace559d243a-b190-417d-bf8c-1ebcd3dda87e" style="stroke-miterlimit: 2; opacity: 0.5;"><g class="fills"/><g class="errorbars"/><g class="lines"><path class="js-line" d="M0,260.3L4.63,221.37L9.27,218.27L13.9,218.27L18.54,210.13L23.17,210.13L27.81,200.76L32.44,176.68L37.08,176.68L41.71,137.37L46.35,122.09L50.98,113.03L55.62,113.03L60.25,113.03" style="vector-effect: none; fill: none; stroke: rgb(160, 183, 35); stroke-opacity: 1; stroke-width: 2px; opacity: 1;"/></g><g class="points"/><g class="text"/></g><g class="trace scatter trace528541dd-8657-4308-99c9-b6c721e161b8" style="stroke-miterlimit: 2; opacity: 0.5;"><g class="fills"/><g class="errorbars"/><g class="lines"><path class="js-line" d="M0,260.3L4.63,239.22L9.27,229.48L13.9,225.22L18.54,225.22L23.17,222.25L27.81,222.25L55.62,222.25L60.25,213.35L69.52,213.35L74.16,191.62L78.79,181.74L83.43,181.74L166.86,181.74" style="vector-effect: none; fill: none; stroke: rgb(199, 140, 28); stroke-opacity: 1; stroke-width: 2px; opacity: 1;"/></g><g class="points"/><g class="text"/></g><g class="trace scatter tracefd5b91a1-5db3-4b3a-b8bc-790dc09da28f" style="stroke-miterlimit: 2; opacity: 0.5;"><g class="fills"/><g class="errorbars"/><g class="lines"><path class="js-line" d="M0,260.3L4.63,259.33L9.27,259.33" style="vector-effect: none; fill: none; stroke: rgb(219, 58, 18); stroke-opacity: 1; stroke-width: 2px; opacity: 1;"/></g><g class="points"/><g class="text"/></g><g class="trace scatter trace37107b62-71c1-4265-82f1-c5cc4b83a7cd" style="stroke-miterlimit: 2; opacity: 0.5;"><g class="fills"/><g class="errorbars"/><g class="lines"><path class="js-line" d="M0,260.3L4.63,242.68L9.27,242.68L505.21,242.68" style="vector-effect: none; fill: none; stroke: rgb(215, 75, 20); stroke-opacity: 1; stroke-width: 2px; opacity: 1;"/></g><g class="points"/><g class="text"/></g><g class="trace scatter traced3c72558-bed8-464e-ae74-1d5790c365c6" style="stroke-miterlimit: 2; opacity: 0.5;"><g class="fills"/><g class="errorbars"/><g class="lines"><path class="js-line" d="M0,260.3L4.63,252.53L9.27,252.53L13.9,241.92L18.54,241.92L273.46,241.92" style="vector-effect: none; fill: none; stroke: rgb(215, 76, 20); stroke-opacity: 1; stroke-width: 2px; opacity: 1;"/></g><g class="points"/><g class="text"/></g><g class="trace scatter trace8031c052-b615-4b86-a2c2-61e361050710" style="stroke-miterlimit: 2; opacity: 0.5;"><g class="fills"/><g class="errorbars"/><g class="lines"><path class="js-line" d="M0,260.3L4.63,252.2L9.27,234.25L13.9,224.59L18.54,224.59L23.17,195.46L27.81,181.54L60.25,181.54" style="vector-effect: none; fill: none; stroke: rgb(199, 140, 28); stroke-opacity: 1; stroke-width: 2px; opacity: 1;"/></g><g class="points"/><g class="text"/></g><g class="trace scatter tracec2073991-dbe4-42da-bd7c-eb59112dba36" style="stroke-miterlimit: 2; opacity: 0.5;"><g class="fills"/><g class="errorbars"/><g class="lines"><path class="js-line" d="M0,260.3L4.63,249.18L9.27,245.93L584,245.93" style="vector-effect: none; fill: none; stroke: rgb(216, 71, 19); stroke-opacity: 1; stroke-width: 2px; opacity: 1;"/></g><g class="points"/><g class="text"/></g><g class="trace scatter trace586227b3-e32e-4252-8559-74e331030f5f" style="stroke-miterlimit: 2; opacity: 0.5;"><g class="fills"/><g class="errorbars"/><g class="lines"><path class="js-line" d="M0,260.3L4.63,248.96L9.27,247.12L13.9,244.15L18.54,244.15L23.17,217.51L27.81,203.58L41.71,203.58L46.35,193.19L60.25,193.19L64.89,188.52L78.79,188.52L83.43,182.68L125.14,182.68" style="vector-effect: none; fill: none; stroke: rgb(199, 139, 28); stroke-opacity: 1; stroke-width: 2px; opacity: 1;"/></g><g class="points"/><g class="text"/></g><g class="trace scatter trace3c34fe1c-4591-46b1-aa76-af9a115e62c9" style="stroke-miterlimit: 2; opacity: 0.5;"><g class="fills"/><g class="errorbars"/><g class="lines"><path class="js-line" d="M0,260.3L4.63,251.85L9.27,251.85L50.98,251.85L55.62,248.35L60.25,222.06L64.89,178.09L69.52,178.09L74.16,165.88L129.78,165.88L134.41,164.56L162.22,164.56L166.86,157.93L176.13,157.93" style="vector-effect: none; fill: none; stroke: rgb(193, 166, 31); stroke-opacity: 1; stroke-width: 2px; opacity: 1;"/></g><g class="points"/><g class="text"/></g><g class="trace scatter trace6d1a0a2e-88b4-43a2-b4ee-b4bb367ca7d2" style="stroke-miterlimit: 2; opacity: 0.5;"><g class="fills"/><g class="errorbars"/><g class="lines"><path class="js-line" d="M0,260.3L4.63,257.59L9.27,257.59" style="vector-effect: none; fill: none; stroke: rgb(219, 59, 18); stroke-opacity: 1; stroke-width: 2px; opacity: 1;"/></g><g class="points"/><g class="text"/></g><g class="trace scatter trace5408e458-30eb-47b4-a17f-7fec349973cc" style="stroke-miterlimit: 2; opacity: 0.5;"><g class="fills"/><g class="errorbars"/><g class="lines"><path class="js-line" d="M0,260.3L4.63,218.74L9.27,218.74L18.54,218.74L23.17,206.83L27.81,203.5L32.44,203.5L37.08,129.36L41.71,115.19L74.16,115.19L78.79,108.34L83.43,101.22L88.06,101.22L106.6,101.22L111.24,99.87L115.87,64.79L120.51,64.79L180.76,64.08L185.4,55.9L213.21,55.9L217.84,46.12L222.48,32.96L227.11,24.67L231.75,13.7" style="vector-effect: none; fill: none; stroke: rgb(44, 160, 44); stroke-opacity: 1; stroke-width: 2px; opacity: 1;"/></g><g class="points"/><g class="text"/></g></g></g><g class="overplot"/><path class="xlines-above crisp" d="M0,0" style="fill: none;"/><path class="ylines-above crisp" d="M0,0" style="fill: none;"/><g class="overlines-above"/><g class="xaxislayer-above"><g class="xtick"><text text-anchor="middle" x="0" y="333" transform="translate(86,0)" style="font-family: 'Open Sans', verdana, arial, sans-serif; font-size: 12px; fill: rgb(42, 63, 95); fill-opacity: 1; white-space: pre; opacity: 1;">0</text></g><g class="xtick"><text text-anchor="middle" x="0" y="333" style="font-family: 'Open Sans', verdana, arial, sans-serif; font-size: 12px; fill: rgb(42, 63, 95); fill-opacity: 1; white-space: pre; opacity: 1;" transform="translate(178.7,0)">20</text></g><g class="xtick"><text text-anchor="middle" x="0" y="333" style="font-family: 'Open Sans', verdana, arial, sans-serif; font-size: 12px; fill: rgb(42, 63, 95); fill-opacity: 1; white-space: pre; opacity: 1;" transform="translate(271.4,0)">40</text></g><g class="xtick"><text text-anchor="middle" x="0" y="333" style="font-family: 'Open Sans', verdana, arial, sans-serif; font-size: 12px; fill: rgb(42, 63, 95); fill-opacity: 1; white-space: pre; opacity: 1;" transform="translate(364.1,0)">60</text></g><g class="xtick"><text text-anchor="middle" x="0" y="333" style="font-family: 'Open Sans', verdana, arial, sans-serif; font-size: 12px; fill: rgb(42, 63, 95); fill-opacity: 1; white-space: pre; opacity: 1;" transform="translate(456.79,0)">80</text></g><g class="xtick"><text text-anchor="middle" x="0" y="333" style="font-family: 'Open Sans', verdana, arial, sans-serif; font-size: 12px; fill: rgb(42, 63, 95); fill-opacity: 1; white-space: pre; opacity: 1;" transform="translate(549.49,0)">100</text></g><g class="xtick"><text text-anchor="middle" x="0" y="333" style="font-family: 'Open Sans', verdana, arial, sans-serif; font-size: 12px; fill: rgb(42, 63, 95); fill-opacity: 1; white-space: pre; opacity: 1;" transform="translate(642.19,0)">120</text></g></g><g class="yaxislayer-above"><g class="ytick"><text text-anchor="end" x="85" y="4.199999999999999" transform="translate(0,306.3)" style="font-family: 'Open Sans', verdana, arial, sans-serif; font-size: 12px; fill: rgb(42, 63, 95); fill-opacity: 1; white-space: pre; opacity: 1;">0.00%</text></g><g class="ytick"><text text-anchor="end" x="85" y="4.199999999999999" style="font-family: 'Open Sans', verdana, arial, sans-serif; font-size: 12px; fill: rgb(42, 63, 95); fill-opacity: 1; white-space: pre; opacity: 1;" transform="translate(0,256.98)">10.00%</text></g><g class="ytick"><text text-anchor="end" x="85" y="4.199999999999999" style="font-family: 'Open Sans', verdana, arial, sans-serif; font-size: 12px; fill: rgb(42, 63, 95); fill-opacity: 1; white-space: pre; opacity: 1;" transform="translate(0,207.66)">20.00%</text></g><g class="ytick"><text text-anchor="end" x="85" y="4.199999999999999" style="font-family: 'Open Sans', verdana, arial, sans-serif; font-size: 12px; fill: rgb(42, 63, 95); fill-opacity: 1; white-space: pre; opacity: 1;" transform="translate(0,158.34)">30.00%</text></g><g class="ytick"><text text-anchor="end" x="85" y="4.199999999999999" style="font-family: 'Open Sans', verdana, arial, sans-serif; font-size: 12px; fill: rgb(42, 63, 95); fill-opacity: 1; white-space: pre; opacity: 1;" transform="translate(0,109.02000000000001)">40.00%</text></g><g class="ytick"><text text-anchor="end" x="85" y="4.199999999999999" style="font-family: 'Open Sans', verdana, arial, sans-serif; font-size: 12px; fill: rgb(42, 63, 95); fill-opacity: 1; white-space: pre; opacity: 1;" transform="translate(0,59.7)">50.00%</text></g></g><g class="overaxes-above"/></g></g><g class="polarlayer"/><g class="smithlayer"/><g class="ternarylayer"/><g class="geolayer"/><g class="funnelarealayer"/><g class="pielayer"/><g class="iciclelayer"/><g class="treemaplayer"/><g class="sunburstlayer"/><g class="glimages"/><defs id="topdefs-e578a1"><g class="clips"/><clipPath id="legende578a1"><rect width="100" height="29" x="0" y="0"/></clipPath></defs><g class="layer-above"><g class="imagelayer"/><g class="shapelayer"/></g><g class="infolayer"><g class="legend" pointer-events="all" transform="translate(570,11.519999999999996)"><rect class="bg" shape-rendering="crispEdges" width="100" height="29" x="0" y="0" style="stroke: rgb(68, 68, 68); stroke-opacity: 1; fill: rgb(255, 255, 255); fill-opacity: 1; stroke-width: 0px;"/><g class="scrollbox" transform="" clip-path="url(#legende578a1)"><g class="groups"><g class="traces" transform="translate(0,14.5)" style="opacity: 1;"><text class="legendtext" text-anchor="start" x="40" y="4.680000000000001" style="font-family: 'Open Sans', verdana, arial, sans-serif; font-size: 12px; fill: rgb(42, 63, 95); fill-opacity: 1; white-space: pre;">proj (50)</text><g class="layers" style="opacity: 0.5;"><g class="legendfill"/><g class="legendlines"><path class="js-line" d="M5,0h30" style="fill: none; stroke: rgb(198, 145, 28); stroke-opacity: 1; stroke-width: 2px;"/></g><g class="legendsymbols"><g class="legendpoints"/></g></g><rect class="legendtoggle" x="0" y="-9.5" width="96.890625" height="19" style="fill: rgb(0, 0, 0); fill-opacity: 0;"/></g></g></g><rect class="scrollbar" rx="20" ry="3" width="0" height="0" x="0" y="0" style="fill: rgb(128, 139, 164); fill-opacity: 1;"/></g><g class="g-gtitle"/><g class="g-xtitle"/><g class="g-ytitle" transform="translate(1.0966796875,0)"><text class="ytitle" transform="rotate(-90,12.903125000000003,183)" x="12.903125000000003" y="183" text-anchor="middle" style="font-family: 'Open Sans', verdana, arial, sans-serif; font-size: 14px; fill: rgb(42, 63, 95); opacity: 1; font-weight: normal; white-space: pre;">MFE Return</text></g></g></svg>