<svg class="main-svg" xmlns="http://www.w3.org/2000/svg" xmlns:xlink="http://www.w3.org/1999/xlink" width="700" height="350" style="" viewBox="0 0 700 350"><rect x="0" y="0" width="700" height="350" style="fill: rgb(33, 34, 38); fill-opacity: 1;"/><defs id="defs-e19288"><g class="clips"><clipPath id="clipe19288xyplot" class="plotclip"><rect width="617" height="274"/></clipPath><clipPath class="axesclip" id="clipe19288x"><rect x="53" y="0" width="617" height="350"/></clipPath><clipPath class="axesclip" id="clipe19288y"><rect x="0" y="46" width="700" height="274"/></clipPath><clipPath class="axesclip" id="clipe19288xy"><rect x="53" y="46" width="617" height="274"/></clipPath></g><g class="gradients"/><g class="patterns"/></defs><g class="bglayer"/><g class="layer-below"><g class="imagelayer"/><g class="shapelayer"/></g><g class="cartesianlayer"><g class="subplot xy"><g class="layer-subplot"><g class="shapelayer"/><g class="imagelayer"/></g><g class="minor-gridlayer"><g class="x"/><g class="y"/></g><g class="gridlayer"><g class="x"><path class="xgrid crisp" transform="translate(154.42000000000002,0)" d="M0,46v274" style="stroke: rgb(49, 52, 57); stroke-opacity: 1; stroke-width: 1px;"/><path class="xgrid crisp" transform="translate(257.53999999999996,0)" d="M0,46v274" style="stroke: rgb(49, 52, 57); stroke-opacity: 1; stroke-width: 1px;"/><path class="xgrid crisp" transform="translate(360.65,0)" d="M0,46v274" style="stroke: rgb(49, 52, 57); stroke-opacity: 1; stroke-width: 1px;"/><path class="xgrid crisp" transform="translate(465.46,0)" d="M0,46v274" style="stroke: rgb(49, 52, 57); stroke-opacity: 1; stroke-width: 1px;"/><path class="xgrid crisp" transform="translate(568.58,0)" d="M0,46v274" style="stroke: rgb(49, 52, 57); stroke-opacity: 1; stroke-width: 1px;"/></g><g class="y"><path class="ygrid crisp" transform="translate(0,299.38)" d="M53,0h617" style="stroke: rgb(49, 52, 57); stroke-opacity: 1; stroke-width: 1px;"/><path class="ygrid crisp" transform="translate(0,264.41999999999996)" d="M53,0h617" style="stroke: rgb(49, 52, 57); stroke-opacity: 1; stroke-width: 1px;"/><path class="ygrid crisp" transform="translate(0,194.49)" d="M53,0h617" style="stroke: rgb(49, 52, 57); stroke-opacity: 1; stroke-width: 1px;"/><path class="ygrid crisp" transform="translate(0,159.53)" d="M53,0h617" style="stroke: rgb(49, 52, 57); stroke-opacity: 1; stroke-width: 1px;"/><path class="ygrid crisp" transform="translate(0,124.57)" d="M53,0h617" style="stroke: rgb(49, 52, 57); stroke-opacity: 1; stroke-width: 1px;"/><path class="ygrid crisp" transform="translate(0,89.61)" d="M53,0h617" style="stroke: rgb(49, 52, 57); stroke-opacity: 1; stroke-width: 1px;"/><path class="ygrid crisp" transform="translate(0,54.65)" d="M53,0h617" style="stroke: rgb(49, 52, 57); stroke-opacity: 1; stroke-width: 1px;"/></g></g><g class="zerolinelayer"><path class="yzl zl crisp" transform="translate(0,229.45)" d="M53,0h617" style="stroke: rgb(49, 52, 57); stroke-opacity: 1; stroke-width: 2px;"/></g><path class="xlines-below"/><path class="ylines-below"/><g class="overlines-below"/><g class="xaxislayer-below"/><g class="yaxislayer-below"/><g class="overaxes-below"/><g class="plot" transform="translate(53,46)" clip-path="url(#clipe19288xyplot)"><g class="scatterlayer mlayer"><g class="trace scatter trace7dae2f45-6c17-4174-90f5-c7308e0e1936" style="stroke-miterlimit: 2; opacity: 1;"><g class="fills"/><g class="errorbars"/><g class="lines"><path class="js-line" d="M42.26,163.31L43.95,162.54L45.64,159.68L49.02,155.79L50.71,155.3L54.09,155.37L55.78,156.26L57.47,157.9L59.16,157.06L65.93,152.84L67.62,153.35L71,150.88L72.69,150.89L74.38,150.73L76.07,153.33L77.76,155.46L79.45,158.81L81.14,159.2L82.83,162.61L86.21,167.83L87.9,169.83L89.59,170.09L91.28,171.98L92.97,175.31L94.66,180.92L99.73,193.42L101.42,196.37L106.5,198.01L108.19,196.46L109.88,194.85L111.57,194.65L116.64,206.06L118.33,208.22L121.71,236.19L123.4,245.58L126.78,256.86L128.47,259.31L130.16,260.3L131.85,254.88L135.23,245.11L136.92,242.72L143.68,219.2L145.38,216.17L147.07,214.69L148.76,214.96L157.21,199.05L158.9,195.81L160.59,193.56L162.28,189L167.35,180.13L169.04,180.7L175.8,182.08L177.49,183.6L184.25,178.57L185.95,179.65L187.64,180.55L189.33,179.96L197.78,169.72L199.47,168.23L202.85,157.61L204.54,153.56L207.92,148.16L209.61,147.01L212.99,144.19L214.68,139.39L216.37,136.74L218.06,136.59L223.13,150.45L224.82,150.94L226.52,149.1L228.21,150.32L229.9,151.37L231.59,150.93L234.97,150.78L236.66,152.4L240.04,159.44L241.73,161.88L245.11,169.43L246.8,172.39L248.49,172.91L250.18,171.51L251.87,171.03L253.56,169.34L255.25,169.51L256.94,165.87L260.32,166.96L262.01,166.49L267.08,167.92L268.78,168.14L272.16,168.28L273.85,171.45L280.61,177.58L282.3,178.03L285.68,179.78L287.37,181.31L290.75,183.22L292.44,182.03L294.13,181.22L295.82,182.38L299.2,185.06L300.89,186.88L305.96,188.56L307.65,188.39L314.42,189.58L316.11,188.05L317.8,187.49L319.49,186.03L327.94,185.06L329.63,185.02L339.77,186.08L341.46,184.9L349.92,176.31L351.61,168.41L356.68,153.82L358.37,149.97L360.06,144.91L361.75,145.32L365.13,145.41L366.82,143.15L368.51,141.66L370.2,141.96L371.89,141.81L373.58,142.61L375.27,142.57L376.96,145.62L380.34,148.21L382.03,149.28L385.41,150.73L387.1,149.69L388.79,150.73L390.48,153.21L392.18,154.83L393.87,158.02L402.32,169.59L404.01,172.44L407.39,174.79L409.08,174.69L410.77,174.89L412.46,173.52L414.15,175.67L415.84,183.96L420.91,198.5L422.6,200.78L425.98,205.14L427.67,205.35L432.75,204.21L434.44,201.87L442.89,188.68L444.58,187.48L449.65,192.17L451.34,190.92L461.48,186.21L463.17,186.63L466.55,187.7L468.24,187.39L469.93,186.42L471.62,186.68L473.32,186.48L475.01,184.92L478.39,179.94L480.08,177.21L483.46,172.64L485.15,171.54L486.84,170.44L488.53,170.7L491.91,170.4L493.6,168.76L495.29,166.67L496.98,160.17L500.36,150.65L502.05,147L505.43,143.59L507.12,139.72L512.19,137.93L513.88,136.61L515.58,136.36L517.27,137.74L520.65,136.13L522.34,127.83L524.03,122.04L525.72,122.28L527.41,119.57L529.1,119L530.79,119.51L532.48,118.35L535.86,112.89L537.55,113.45L539.24,115.31L540.93,113.3L544.31,102.66L546,99.84L549.38,90.5L551.07,90.25L552.76,91.16L554.45,88.78L556.15,90.08L557.84,100.99L559.53,110.71L561.22,115.76L562.91,117.92L564.6,112.28L566.29,113.26L567.98,112.61L569.67,111.54L571.36,115.69L576.43,120.29L578.12,127.65L581.5,138.93L583.19,145.44L584.88,146.81L586.57,146.41L589.95,145.05L591.64,134.23L596.72,90.1L598.41,82.37L600.1,81.22L601.79,76.02L603.48,76.19L605.17,74.79L606.86,69.75L608.55,57.21L613.62,34.02L615.31,22.1L617,13.7" style="vector-effect: none; fill: none; stroke: rgb(31, 119, 180); stroke-opacity: 1; stroke-width: 2px; opacity: 1;"/></g><g class="points"/><g class="text"/></g><g class="trace scatter trace9f57072b-5e35-41d7-a14d-9d19557eead1" style="stroke-miterlimit: 2; opacity: 1;"><g class="fills"/><g class="errorbars"/><g class="lines"><path class="js-line" d="M55.78,157.91L60.85,157.4L62.55,156.96L76.07,152.89L77.76,153.4L82.83,156.86L84.52,158.62L94.66,170.16L96.35,173.24L104.81,188.24L106.5,190.19L109.88,192.13L111.57,192.63L114.95,195.69L116.64,197.77L118.33,199.86L120.02,205.09L130.16,241.51L131.85,244.18L133.54,245.3L135.23,245.26L136.92,244.75L138.61,243.19L141.99,237.29L143.68,233.67L148.76,224.65L150.45,222.12L157.21,210.9L158.9,207.88L169.04,190.02L170.73,188.26L174.11,185.77L175.8,185.03L180.87,183.6L182.56,182.77L185.95,181.47L187.64,181.29L191.02,180.38L192.71,179.4L199.47,174.05L201.16,171.58L211.3,154.94L212.99,152.79L218.06,145.27L219.75,144.55L223.13,146.12L224.82,147.08L236.66,150.26L238.35,151.5L243.42,157.15L245.11,159.61L248.49,164.31L250.18,165.75L253.56,167.31L255.25,167.75L260.32,167.2L262.01,167.05L272.16,167.8L273.85,168.53L285.68,175.86L287.37,176.95L292.44,179.65L294.13,179.97L299.2,181.87L300.89,182.87L307.65,186.04L309.35,186.59L316.11,187.98L317.8,187.88L329.63,185.8L331.32,185.69L343.15,185.2L344.84,184.44L349.92,181.38L351.61,178.79L358.37,164.69L360.06,160.73L363.44,155.12L365.13,153.18L370.2,147.81L371.89,146.61L375.27,145.16L376.96,145.25L388.79,148.88L390.48,149.75L393.87,152.22L395.56,153.84L402.32,161.3L404.01,163.53L409.08,168.85L410.77,170.06L414.15,171.73L415.84,174.18L420.91,184.22L422.6,187.53L427.67,195.98L429.36,197.8L432.75,200.13L434.44,200.47L437.82,199.36L439.51,198.15L446.27,192.73L447.96,192.18L453.03,191.59L454.72,191.13L464.86,188.1L466.55,188.02L475.01,186.77L476.7,185.98L481.77,181.44L483.46,179.68L488.53,175.37L490.22,174.46L495.29,171.47L496.98,169.21L508.81,148.95L510.5,146.88L515.58,141.99L517.27,141.14L520.65,139.49L522.34,137.16L527.41,129.33L529.1,127.26L539.24,118.33L540.93,117.32L546,110.2L547.69,106.98L551.07,101L552.76,99.03L556.15,95.6L557.84,96.68L562.91,105.77L564.6,107.07L567.98,109.17L569.67,109.65L576.43,114.7L578.12,117.29L581.5,124.09L583.19,128.36L586.57,134.92L588.26,137.13L589.95,138.71L591.64,137.82L593.33,133.85L595.02,127.9L601.79,100.36L603.48,95.53L606.86,87.05L608.55,81.08L615.31,53.4L617,45.46" style="vector-effect: none; fill: none; stroke: rgb(255, 127, 14); stroke-opacity: 1; stroke-width: 2px; opacity: 1;"/></g><g class="points"/><g class="text"/></g></g></g><g class="overplot"/><path class="xlines-above crisp" d="M0,0" style="fill: none;"/><path class="ylines-above crisp" d="M0,0" style="fill: none;"/><g class="overlines-above"/><g class="xaxislayer-above"><g class="xtick"><text text-anchor="middle" x="0" y="333" transform="translate(53,0)" style="font-family: 'Open Sans', verdana, arial, sans-serif; font-size: 12px; fill: rgb(214, 223, 239); fill-opacity: 1; white-space: pre; opacity: 1;">Jan 2020</text></g><g class="xtick"><text text-anchor="middle" x="0" y="333" style="font-family: 'Open Sans', verdana, arial, sans-serif; font-size: 12px; fill: rgb(214, 223, 239); fill-opacity: 1; white-space: pre; opacity: 1;" transform="translate(154.42000000000002,0)">Mar 2020</text></g><g class="xtick"><text text-anchor="middle" x="0" y="333" style="font-family: 'Open Sans', verdana, arial, sans-serif; font-size: 12px; fill: rgb(214, 223, 239); fill-opacity: 1; white-space: pre; opacity: 1;" transform="translate(257.53999999999996,0)">May 2020</text></g><g class="xtick"><text text-anchor="middle" x="0" y="333" style="font-family: 'Open Sans', verdana, arial, sans-serif; font-size: 12px; fill: rgb(214, 223, 239); fill-opacity: 1; white-space: pre; opacity: 1;" transform="translate(360.65,0)">Jul 2020</text></g><g class="xtick"><text text-anchor="middle" x="0" y="333" style="font-family: 'Open Sans', verdana, arial, sans-serif; font-size: 12px; fill: rgb(214, 223, 239); fill-opacity: 1; white-space: pre; opacity: 1;" transform="translate(465.46,0)">Sep 2020</text></g><g class="xtick"><text text-anchor="middle" x="0" y="333" style="font-family: 'Open Sans', verdana, arial, sans-serif; font-size: 12px; fill: rgb(214, 223, 239); fill-opacity: 1; white-space: pre; opacity: 1;" transform="translate(568.58,0)">Nov 2020</text></g></g><g class="yaxislayer-above"><g class="ytick"><text text-anchor="end" x="52" y="4.199999999999999" transform="translate(0,299.38)" style="font-family: 'Open Sans', verdana, arial, sans-serif; font-size: 12px; fill: rgb(214, 223, 239); fill-opacity: 1; white-space: pre; opacity: 1;">−1000</text></g><g class="ytick"><text text-anchor="end" x="52" y="4.199999999999999" style="font-family: 'Open Sans', verdana, arial, sans-serif; font-size: 12px; fill: rgb(214, 223, 239); fill-opacity: 1; white-space: pre; opacity: 1;" transform="translate(0,264.41999999999996)">−500</text></g><g class="ytick"><text text-anchor="end" x="52" y="4.199999999999999" style="font-family: 'Open Sans', verdana, arial, sans-serif; font-size: 12px; fill: rgb(214, 223, 239); fill-opacity: 1; white-space: pre; opacity: 1;" transform="translate(0,229.45)">0</text></g><g class="ytick"><text text-anchor="end" x="52" y="4.199999999999999" style="font-family: 'Open Sans', verdana, arial, sans-serif; font-size: 12px; fill: rgb(214, 223, 239); fill-opacity: 1; white-space: pre; opacity: 1;" transform="translate(0,194.49)">500</text></g><g class="ytick"><text text-anchor="end" x="52" y="4.199999999999999" style="font-family: 'Open Sans', verdana, arial, sans-serif; font-size: 12px; fill: rgb(214, 223, 239); fill-opacity: 1; white-space: pre; opacity: 1;" transform="translate(0,159.53)">1000</text></g><g class="ytick"><text text-anchor="end" x="52" y="4.199999999999999" style="font-family: 'Open Sans', verdana, arial, sans-serif; font-size: 12px; fill: rgb(214, 223, 239); fill-opacity: 1; white-space: pre; opacity: 1;" transform="translate(0,124.57)">1500</text></g><g class="ytick"><text text-anchor="end" x="52" y="4.199999999999999" style="font-family: 'Open Sans', verdana, arial, sans-serif; font-size: 12px; fill: rgb(214, 223, 239); fill-opacity: 1; white-space: pre; opacity: 1;" transform="translate(0,89.61)">2000</text></g><g class="ytick"><text text-anchor="end" x="52" y="4.199999999999999" style="font-family: 'Open Sans', verdana, arial, sans-serif; font-size: 12px; fill: rgb(214, 223, 239); fill-opacity: 1; white-space: pre; opacity: 1;" transform="translate(0,54.65)">2500</text></g></g><g class="overaxes-above"/></g></g><g class="polarlayer"/><g class="smithlayer"/><g class="ternarylayer"/><g class="geolayer"/><g class="funnelarealayer"/><g class="pielayer"/><g class="iciclelayer"/><g class="treemaplayer"/><g class="sunburstlayer"/><g class="glimages"/><defs id="topdefs-e19288"><g class="clips"/><clipPath id="legende19288"><rect width="164" height="29" x="0" y="0"/></clipPath></defs><g class="layer-above"><g class="imagelayer"/><g class="shapelayer"/></g><g class="infolayer"><g class="legend" pointer-events="all" transform="translate(506,11.519999999999996)"><rect class="bg" shape-rendering="crispEdges" style="stroke: rgb(68, 68, 68); stroke-opacity: 1; fill: rgb(33, 34, 38); fill-opacity: 1; stroke-width: 0px;" width="164" height="29" x="0" y="0"/><g class="scrollbox" transform="" clip-path="url(#legende19288)"><g class="groups"><g class="traces" transform="translate(0,14.5)" style="opacity: 1;"><text class="legendtext" text-anchor="start" x="40" y="4.680000000000001" style="font-family: 'Open Sans', verdana, arial, sans-serif; font-size: 12px; fill: rgb(214, 223, 239); fill-opacity: 1; white-space: pre;">MACD</text><g class="layers" style="opacity: 1;"><g class="legendfill"/><g class="legendlines"><path class="js-line" d="M5,0h30" style="fill: none; stroke: rgb(31, 119, 180); stroke-opacity: 1; stroke-width: 2px;"/></g><g class="legendsymbols"><g class="legendpoints"/></g></g><rect class="legendtoggle" x="0" y="-9.5" width="78.453125" height="19" style="fill: rgb(0, 0, 0); fill-opacity: 0;"/></g><g class="traces" transform="translate(80.953125,14.5)" style="opacity: 1;"><text class="legendtext" text-anchor="start" x="40" y="4.680000000000001" style="font-family: 'Open Sans', verdana, arial, sans-serif; font-size: 12px; fill: rgb(214, 223, 239); fill-opacity: 1; white-space: pre;">Signal</text><g class="layers" style="opacity: 1;"><g class="legendfill"/><g class="legendlines"><path class="js-line" d="M5,0h30" style="fill: none; stroke: rgb(255, 127, 14); stroke-opacity: 1; stroke-width: 2px;"/></g><g class="legendsymbols"><g class="legendpoints"/></g></g><rect class="legendtoggle" x="0" y="-9.5" width="79.578125" height="19" style="fill: rgb(0, 0, 0); fill-opacity: 0;"/></g></g></g><rect class="scrollbar" rx="20" ry="3" width="0" height="0" style="fill: rgb(128, 139, 164); fill-opacity: 1;" x="0" y="0"/></g><g class="g-gtitle"/><g class="g-xtitle"/><g class="g-ytitle"/></g></svg>