<svg class="main-svg" xmlns="http://www.w3.org/2000/svg" xmlns:xlink="http://www.w3.org/1999/xlink" width="700" height="350" style="" viewBox="0 0 700 350"><rect x="0" y="0" width="700" height="350" style="fill: rgb(255, 255, 255); fill-opacity: 1;"/><defs id="defs-655c9a"><g class="clips"><clipPath id="clip655c9axyplot" class="plotclip"><rect width="626" height="274"/></clipPath><clipPath class="axesclip" id="clip655c9ax"><rect x="44" y="0" width="626" height="350"/></clipPath><clipPath class="axesclip" id="clip655c9ay"><rect x="0" y="46" width="700" height="274"/></clipPath><clipPath class="axesclip" id="clip655c9axy"><rect x="44" y="46" width="626" height="274"/></clipPath></g><g class="gradients"/><g class="patterns"/></defs><g class="bglayer"><rect class="bg" x="44" y="46" width="626" height="274" style="fill: rgb(229, 236, 246); fill-opacity: 1; stroke-width: 0;"/></g><g class="layer-below"><g class="imagelayer"/><g class="shapelayer"/></g><g class="cartesianlayer"><g class="subplot xy"><g class="layer-subplot"><g class="shapelayer"/><g class="imagelayer"/></g><g class="minor-gridlayer"><g class="x"/><g class="y"/></g><g class="gridlayer"><g class="x"><path class="xgrid crisp" transform="translate(122.04,0)" d="M0,46v274" style="stroke: rgb(255, 255, 255); stroke-opacity: 1; stroke-width: 1px;"/><path class="xgrid crisp" transform="translate(200.07,0)" d="M0,46v274" style="stroke: rgb(255, 255, 255); stroke-opacity: 1; stroke-width: 1px;"/><path class="xgrid crisp" transform="translate(278.96000000000004,0)" d="M0,46v274" style="stroke: rgb(255, 255, 255); stroke-opacity: 1; stroke-width: 1px;"/><path class="xgrid crisp" transform="translate(357.86,0)" d="M0,46v274" style="stroke: rgb(255, 255, 255); stroke-opacity: 1; stroke-width: 1px;"/><path class="xgrid crisp" transform="translate(435.04,0)" d="M0,46v274" style="stroke: rgb(255, 255, 255); stroke-opacity: 1; stroke-width: 1px;"/><path class="xgrid crisp" transform="translate(513.0699999999999,0)" d="M0,46v274" style="stroke: rgb(255, 255, 255); stroke-opacity: 1; stroke-width: 1px;"/><path class="xgrid crisp" transform="translate(591.96,0)" d="M0,46v274" style="stroke: rgb(255, 255, 255); stroke-opacity: 1; stroke-width: 1px;"/></g><g class="y"><path class="ygrid crisp" transform="translate(0,250.32)" d="M44,0h626" style="stroke: rgb(255, 255, 255); stroke-opacity: 1; stroke-width: 1px;"/><path class="ygrid crisp" transform="translate(0,188.11)" d="M44,0h626" style="stroke: rgb(255, 255, 255); stroke-opacity: 1; stroke-width: 1px;"/><path class="ygrid crisp" transform="translate(0,125.91)" d="M44,0h626" style="stroke: rgb(255, 255, 255); stroke-opacity: 1; stroke-width: 1px;"/><path class="ygrid crisp" transform="translate(0,63.71)" d="M44,0h626" style="stroke: rgb(255, 255, 255); stroke-opacity: 1; stroke-width: 1px;"/></g></g><g class="zerolinelayer"><path class="yzl zl crisp" transform="translate(0,312.52)" d="M44,0h626" style="stroke: rgb(255, 255, 255); stroke-opacity: 1; stroke-width: 2px;"/></g><path class="xlines-below"/><path class="ylines-below"/><g class="overlines-below"/><g class="xaxislayer-below"/><g class="yaxislayer-below"/><g class="overaxes-below"/><g class="plot" transform="translate(44,46)" clip-path="url(#clip655c9axyplot)"><g class="scatterlayer mlayer"><g class="trace scatter trace0b7013a9-d3bd-40cb-a122-d49ab8338590" style="stroke-miterlimit: 2; opacity: 1;"><g class="fills"/><g class="errorbars"/><g class="lines"><path class="js-line" d="M0,260.3L66.03,259.84L66.89,259.23L101.19,258.64L102.05,258.14L108.05,257.9L108.91,257.55L126.06,258.47L126.92,258.32L147.5,258.73L148.35,258.59L228.1,258.19L228.96,257.98L245.25,257.8L246.11,257.8L264.12,257.29L264.98,256.81L299.28,256.22L300.14,255.71L302.71,255.21L303.57,255.21L318.15,254.82L319,254.42L320.72,254.28L321.58,254.58L323.29,255.28L324.15,254.74L325.86,254.82L326.72,254.92L336.15,254.85L337.01,254.85L370.45,254.34L371.31,254.04L375.6,253.52L376.46,253.92L404.76,253.86L405.61,254.32L419.33,254.84L420.19,254.84L431.34,255.11L432.2,255.89L434.77,256.31L435.63,256.67L437.34,256.2L438.2,256.08L444.2,256.2L445.06,256.2L449.35,256.95L450.21,256.44L457.92,256.53L458.78,256.53L505.09,255.87L505.95,255.46L513.66,255.55L514.52,255.53L529.1,256.19L529.96,256.34L538.53,256.81L539.39,257.04L551.39,256.83L552.25,256.46L601.99,256.5L602.85,256.9L626,257.07" style="vector-effect: none; fill: none; stroke: rgb(31, 119, 180); stroke-opacity: 1; stroke-width: 2px; opacity: 1;"/></g><g class="points"/><g class="text"/></g><g class="trace scatter trace54a419fa-f36e-4f02-96f2-d6a32c37684a" style="stroke-miterlimit: 2; opacity: 1;"><g class="fills"/><g class="errorbars"/><g class="lines"><path class="js-line" d="M0,260.3L22.3,259.64L23.15,259.29L35.16,259.02L36.02,258.93L42.88,258.96L43.73,258.9L66.03,259.38L66.89,258.08L69.46,258.57L70.32,257.77L72.89,257.29L73.75,257.29L101.19,256.78L102.05,255.54L104.62,255.3L105.48,255.42L108.05,254.95L108.91,254.1L110.62,254.55L111.48,255.59L116.62,256.18L117.48,255.86L120.05,256.02L120.91,256.5L124.34,256.7L125.2,256.78L128.63,255.82L129.49,256.09L138.06,256.35L138.92,256.91L180.94,256.57L181.8,256.38L182.65,255.99L183.51,256.62L190.37,255.88L191.23,255.88L228.1,255.7L228.96,255.16L240.11,255.44L240.97,255.18L256.4,254.64L257.26,254.11L263.26,253.44L264.12,253.26L265.84,251.92L266.69,251.92L270.12,251.53L270.98,250.98L280.41,250.67L281.27,250.02L282.13,250.02L282.99,251.42L288.13,251.06L288.99,250.87L289.85,251.47L290.7,251.1L296.71,250.69L297.56,250.41L299.28,250.18L300.14,248.58L301.85,247.05L302.71,247.05L311.28,247.05L312.14,245.99L317.29,245.72L318.15,245.72L319.86,243.47L320.72,243.78L323.29,247.35L324.15,245.44L325.01,244.38L325.86,245.71L327.58,246.3L328.44,245.82L346.44,245.45L347.3,245.32L349.02,246.04L349.87,246.04L355.02,246.02L355.88,244.35L357.59,243.7L358.45,245.02L368.74,245.02L369.6,244.02L370.45,244.02L371.31,242.9L373.88,241.82L374.74,240.14L377.32,242.44L378.17,242.44L387.61,241.98L388.46,241.19L390.18,240.68L391.04,240.68L391.89,240.68L392.75,241.45L394.47,240.82L395.32,241.2L396.18,242.13L397.04,241.14L403.04,241.21L403.9,241.91L404.76,242.27L405.61,244.05L407.33,244.25L408.19,245.26L410.76,246.78L411.62,246.78L415.05,247.31L415.9,245.81L423.62,246.2L424.48,247.03L427.05,246.74L427.91,246.67L431.34,246.96L432.2,249.65L433.05,249.65L433.91,251.09L434.77,250.99L435.63,252.14L436.48,250.51L437.34,250.64L439.06,250.62L439.92,250.62L440.77,251.1L441.63,250.63L445.06,250.63L445.92,251.57L449.35,252.95L450.21,251.38L452.78,251.65L453.64,251.65L485.36,251.53L486.22,250.37L493.94,249.63L494.8,249.63L497.37,251.04L498.23,251.04L501.66,250.68L502.52,249.75L505.09,249.75L505.95,248.48L508.52,248.74L509.38,248.74L526.53,248.69L527.38,250.66L531.67,251.31L532.53,251.31L537.67,251.29L538.53,252.72L540.25,253.41L541.1,253.41L550.54,253.5L551.39,252.86L553.11,251.84L553.97,251.8L563.4,251.15L564.26,250.74L565.97,252L566.83,251.84L569.4,252.46L570.26,252.9L571.98,252.4L572.83,252.4L579.69,251.88L580.55,250.9L595.13,251.02L595.99,252.03L599.42,251.03L600.27,251.03L601.99,252.01L602.85,253.2L606.28,253.16L607.13,253.91L612.28,253.84L613.14,253.84L618.28,253.36L619.14,252.78L622.57,252.78L623.43,253.61L625.14,253.72L626,253.72" style="vector-effect: none; fill: none; stroke: rgb(255, 127, 14); stroke-opacity: 1; stroke-width: 2px; opacity: 1;"/></g><g class="points"/><g class="text"/></g><g class="trace scatter trace190fe816-cd86-41a7-8708-39b49745bed7" style="stroke-miterlimit: 2; opacity: 1;"><g class="fills"/><g class="errorbars"/><g class="lines"><path class="js-line" d="M0,260.3L4.29,260.19L5.15,259.54L21.44,259.45L22.3,258.95L24.01,258.3L24.87,258.3L35.16,257.61L36.02,257.41L39.45,257.43L40.3,257.43L47.16,257.38L48.02,258.4L54.02,258.83L54.88,258.26L60.03,258.56L60.88,258.56L66.03,258.52L66.89,255.61L68.6,255.63L69.46,256.71L71.18,253.96L72.03,253.96L77.18,253.82L78.04,253.82L79.75,253.34L80.61,252.82L84.9,252.82L85.75,254.46L95.19,254.49L96.04,253.66L97.76,252.57L98.62,252.57L101.19,252.53L102.05,248.97L102.9,249.48L103.76,248.74L105.48,248.62L106.33,248.57L108.05,247.29L108.91,244.85L110.62,246.13L111.48,249.13L113.19,249.68L114.05,249.68L114.91,249.68L115.77,251.08L116.62,250.91L117.48,249.9L119.2,249.7L120.05,250.41L120.91,251.94L121.77,251.59L122.63,251.5L123.48,252.94L126.06,251.59L126.92,250.4L127.77,250.7L128.63,249.8L130.35,250.62L131.2,252.62L134.63,251.77L135.49,251.77L138.06,251.43L138.92,253.09L147.5,253.45L148.35,252.48L149.21,252.53L150.07,253.42L155.21,253.89L156.07,253.64L159.5,253.68L160.36,252.82L161.22,253.17L162.07,252.67L164.65,253.21L165.5,253.1L171.51,253.06L172.36,253.06L179.22,252.63L180.08,252.15L181.8,251.58L182.65,250.47L183.51,252.27L184.37,251.78L185.23,251.88L186.08,250.51L193.8,249.65L194.66,249.38L197.23,250.12L198.09,250.77L210.95,250.42L211.81,249.58L212.67,250.66L213.53,250.31L216.96,249.57L217.81,249.45L227.25,248.71L228.1,249.69L228.96,247.97L229.82,248.19L233.25,248L234.11,248.2L235.82,248.77L236.68,248.86L238.39,248.45L239.25,249.09L241.82,248.04L242.68,247.27L246.11,246.4L246.97,246.4L256.4,246.27L257.26,244.48L258.98,243.93L259.83,243.57L261.55,242.79L262.41,243.43L264.12,241.42L264.98,236.42L269.27,236.47L270.12,234.86L271.84,232.43L272.7,233.41L274.41,233.86L275.27,233.86L276.98,233.22L277.84,230.24L278.7,230.17L279.56,231.17L280.41,231.2L281.27,228.44L282.13,228.44L282.99,234.87L284.7,235.04L285.56,233.41L288.13,233.41L288.99,232.57L289.85,235.14L290.7,233.57L293.28,233.57L294.13,232.73L295.85,234.51L296.71,231.84L298.42,230.24L299.28,229.63L300.99,217.44L301.85,216.25L311.28,216.25L312.14,210.81L314.72,208.85L315.57,206.5L316.43,209.41L317.29,209.41L318.15,209.41L319,201.51L319.86,197.09L320.72,198.77L323.29,218.41L324.15,207.89L325.01,202.08L325.86,209.41L327.58,212.62L328.44,210.01L342.16,210.01L343.01,211.66L343.87,207.99L344.73,207.99L347.3,207.27L348.16,211.23L351.59,211.23L352.45,212.98L353.3,210.13L354.16,210.13L355.02,211.15L355.88,202.04L356.73,201.59L357.59,198.47L358.45,205.68L359.31,205.68L368.74,205.72L369.6,200.01L370.45,200.01L371.31,193.45L373.03,185.86L373.88,187.06L374.74,177.1L375.6,182.05L376.46,190.69L377.32,190.69L385.89,190.11L386.75,187.79L387.61,187.79L388.46,182.72L389.32,179.44L390.18,179.44L391.89,179.44L392.75,184.66L394.47,180.4L395.32,182.93L396.18,189.22L397.04,182.55L401.33,182.55L402.18,183.59L403.04,183.05L403.9,187.65L404.76,190.01L405.61,201.82L407.33,203.12L408.19,208.89L409.9,215.2L410.76,217.54L414.19,217.91L415.05,220.17L415.9,212.7L416.76,212.57L417.62,214.7L418.48,213.68L422.76,213.68L423.62,214.71L424.48,218.97L425.34,217.46L430.48,217.13L431.34,218.56L432.2,231.96L433.05,231.96L433.91,237.85L434.77,237.46L435.63,242.15L436.48,235.48L437.34,235.99L438.2,234.48L440.77,237.79L441.63,235.97L445.06,235.97L445.92,239.57L446.78,241.67L447.63,241.18L448.49,244.77L449.35,244.91L450.21,238.87L451.06,239.87L469.93,239.87L470.79,238.66L472.5,237.69L473.36,237.69L480.22,237.69L481.08,239.52L485.36,239.52L486.22,235.34L487.08,234.98L487.94,232.68L494.8,232.68L495.65,235.36L498.23,238.33L499.08,238.33L499.94,238.33L500.8,236.04L501.66,237.03L502.52,233.65L505.09,233.64L505.95,228.66L507.66,229.69L508.52,229.69L513.66,229.72L514.52,229.38L519.67,229.62L520.52,232.3L523.1,231.63L523.95,230.65L525.67,230.76L526.53,229.55L527.38,237.59L528.24,238.59L529.1,238.17L529.96,240.25L533.39,240.25L534.24,239.05L536.82,239.05L537.67,240.2L539.39,247.68L540.25,247.68L543.68,247.24L544.53,248.1L545.39,249.16L546.25,248.69L549.68,248.63L550.54,247.96L552.25,243.33L553.11,243.33L558.25,243.19L559.11,243.19L562.54,242.83L563.4,241.13L564.26,239.82L565.12,242.69L565.97,243.84L566.83,243.31L568.55,243.31L569.4,245.28L570.26,246.67L571.12,245.09L574.55,245.09L575.41,243.53L576.26,243.71L577.12,244.77L578.84,244.77L579.69,243.5L580.55,240.51L581.41,240.51L595.13,240.93L595.99,244.24L598.56,240.95L599.42,240.95L601.13,241.62L601.99,244.2L602.85,248.12L603.7,247.97L606.28,247.97L607.13,250.06L608.85,250.37L609.71,249.89L616.57,249.89L617.42,248.43L618.28,248.65L619.14,247.12L622.57,247.12L623.43,249.46L624.28,250.33L625.14,249.77L626,249.77" style="vector-effect: none; fill: none; stroke: rgb(44, 160, 44); stroke-opacity: 1; stroke-width: 2px; opacity: 1;"/></g><g class="points"/><g class="text"/></g><g class="trace scatter trace81258581-964b-43e7-8dfc-d91a750df0f4" style="stroke-miterlimit: 2; opacity: 1;"><g class="fills"/><g class="errorbars"/><g class="lines"><path class="js-line" d="M0,260.3L4.29,260.13L5.15,259.16L21.44,259.03L22.3,258.25L24.01,257.25L24.87,257.25L32.59,257.05L33.44,256.33L34.3,257.07L35.16,256.07L37.73,255.78L38.59,255.78L47.16,255.68L48.02,257.49L54.02,258.26L54.88,257.35L56.6,257.83L57.45,257.83L66.03,257.76L66.89,253L68.6,253.03L69.46,254.8L71.18,250.28L72.03,250.28L75.46,250.02L76.32,250.02L78.04,250.02L78.89,248.62L79.75,249.08L80.61,248.07L84.9,248.07L85.75,251.38L95.19,251.44L96.04,249.88L96.9,247.82L97.76,247.82L101.19,247.74L102.05,240.59L102.9,241.62L103.76,240.13L104.62,239.24L105.48,239.9L107.19,239.14L108.05,237.23L108.91,232.31L109.76,233.1L110.62,234.89L111.48,240.91L113.19,242.02L114.05,242.02L114.91,242.02L115.77,245.09L116.62,244.72L117.48,242.5L119.2,242.06L120.05,243.62L120.91,246.95L121.77,246.19L122.63,245.98L123.48,249.15L124.34,248.27L125.2,248.81L126.92,243.59L127.77,244.25L128.63,242.28L129.49,244.08L130.35,244.08L131.2,248.3L133.78,246.51L134.63,246.51L138.06,245.83L138.92,249.2L147.5,249.89L148.35,248.04L149.21,248.14L150.07,249.83L155.21,250.73L156.07,250.26L159.5,250.33L160.36,248.71L161.22,249.37L162.07,248.43L163.79,249.23L164.65,249.44L167.22,249.42L168.08,249.42L173.22,249.16L174.08,248.32L179.22,248.32L180.08,247.39L180.94,247.33L181.8,246.27L182.65,244.09L183.51,247.62L184.37,246.66L185.23,246.86L186.08,244.15L186.94,243.99L187.8,244.88L188.66,244.12L189.52,244.51L190.37,243.5L192.09,243.5L192.95,242.31L194.66,241.82L195.52,241.82L196.38,241.82L197.23,243.41L198.95,244.82L199.81,244.82L204.09,244.21L204.95,245.17L205.81,243.89L206.67,244.1L210.95,244.1L211.81,242.35L212.67,244.6L213.53,243.87L216.1,243.13L216.96,242.32L219.53,242.06L220.39,242.06L221.24,242.06L222.1,240.86L226.39,241.03L227.25,240.47L228.1,242.61L228.96,238.86L229.82,239.35L230.68,238.92L234.11,239.38L234.96,240.64L236.68,240.84L237.54,239.96L238.39,239.96L239.25,241.35L240.11,240.87L240.97,239.05L241.82,239.05L242.68,237.32L245.25,235.4L246.11,235.4L256.4,235.08L257.26,230.93L258.12,230.93L258.98,229.59L261.55,226.83L262.41,228.45L264.12,223.39L264.98,210.86L269.27,210.98L270.12,206.51L270.98,200.24L271.84,199.79L273.55,203.74L274.41,203.74L275.27,203.74L276.13,202.04L276.98,201.9L277.84,193.32L278.7,193.1L279.56,196L280.41,196.07L281.27,188.13L282.13,188.13L282.99,207.99L284.7,208.52L285.56,204L288.13,204L288.99,201.61L289.85,208.89L290.7,204.45L293.28,204.45L294.13,202.09L295.85,207.12L296.71,199.55L298.42,195.05L299.28,193.32L300.99,158.88L301.85,155.5L311.28,155.5L312.14,137.5L313,135.55L313.86,131.01L314.72,131.01L315.57,122.73L316.43,132.98L317.29,132.98L318.15,132.98L319,105.27L319.86,89.75L320.72,95.66L323.29,164.54L324.15,127.63L325.01,107.27L325.86,132.97L327.58,144.22L328.44,135.09L342.16,135.09L343.01,140.84L343.87,128.02L344.73,128.02L346.44,128.02L347.3,125.46L348.16,139.52L349.02,139.52L351.59,139.52L352.45,145.56L353.3,135.74L354.16,135.74L355.02,139.27L355.88,107.61L356.73,106.02L357.59,95.19L358.45,120.26L359.31,120.26L368.74,120.39L369.6,99.82L370.45,99.82L371.31,75.14L373.03,46.61L373.88,51.14L374.74,13.7L375.6,32.28L376.46,64.78L377.32,64.78L382.46,64.78L383.32,62.45L385.89,62.45L386.75,53.16L387.61,53.16L388.46,32.58L389.32,19.22L390.18,19.22L391.89,19.22L392.75,41.46L394.47,23.3L395.32,34.11L396.18,60.89L397.04,32.47L401.33,32.47L402.18,36.82L403.04,34.56L403.9,53.82L404.76,63.64L405.61,113.04L406.47,118.48L407.33,118.48L409.04,155.53L409.9,160.79L410.76,168.99L411.62,168.99L413.33,168.99L414.19,170.1L415.05,176.85L415.9,154.54L416.76,154.13L417.62,160.49L418.48,157.47L419.33,157.47L422.76,157.47L423.62,160.64L424.48,173.84L425.34,169.14L427.05,169.14L427.91,168.18L430.48,168.18L431.34,172.44L432.2,212.46L433.05,212.46L433.91,226.29L434.77,225.37L435.63,236.37L436.48,220.72L437.34,221.93L438.2,218.38L439.06,221.79L439.92,221.79L440.77,225.86L441.63,221.86L445.06,221.86L445.92,229.77L446.78,234.36L447.63,233.3L448.49,241.16L449.35,241.46L450.21,228.23L451.06,230.43L469.93,230.43L470.79,227.96L471.64,225.98L472.5,225.98L480.22,225.98L481.08,229.84L485.36,229.84L486.22,221.34L487.08,220.59L487.94,215.91L494.8,215.91L495.65,221.93L497.37,228.58L498.23,228.58L499.94,228.58L500.8,223.96L501.66,225.97L502.52,219.15L505.09,219.12L505.95,208.35L506.8,210.58L507.66,210.58L511.95,210.58L512.81,212.05L514.52,209.87L515.38,209.87L519.67,210.41L520.52,216.53L522.24,216.53L523.1,215.06L523.95,212.91L524.81,213.16L525.67,213.16L526.53,210.44L527.38,228.45L528.24,230.68L529.1,229.75L529.96,234.41L533.39,234.41L534.24,232.19L536.82,232.19L537.67,234.36L539.39,248.37L540.25,248.37L543.68,247.74L544.53,248.98L545.39,250.52L546.25,249.84L549.68,249.75L550.54,248.8L552.25,242.31L553.11,242.31L556.54,242.09L557.4,242.09L562.54,241.53L563.4,238.86L564.26,236.8L565.12,241.31L565.97,243.11L566.83,242.28L568.55,242.28L569.4,245.37L570.26,247.54L571.12,245.07L574.55,245.07L575.41,242.72L576.26,242.99L577.12,244.59L578.84,244.59L579.69,242.67L580.55,238.14L581.41,238.14L583.12,238.2L583.98,239.24L586.55,238.83L587.41,238.83L595.13,238.83L595.99,244.2L597.7,238.87L598.56,238.87L600.27,238.87L601.13,239.96L602.85,250.5L603.7,250.26L606.28,250.26L607.13,253L608.85,253.41L609.71,252.82L616.57,252.82L617.42,251.02L618.28,251.29L619.14,249.4L622.57,249.4L623.43,252.5L624.28,253.66L625.14,252.91L626,252.91" style="vector-effect: none; fill: none; stroke: rgb(220, 57, 18); stroke-opacity: 1; stroke-width: 2px; opacity: 1;"/></g><g class="points"/><g class="text"/></g></g></g><g class="overplot"/><path class="xlines-above crisp" d="M0,0" style="fill: none;"/><path class="ylines-above crisp" d="M0,0" style="fill: none;"/><g class="overlines-above"/><g class="xaxislayer-above"><g class="xtick"><text text-anchor="middle" x="0" y="333" transform="translate(44,0)" style="font-family: 'Open Sans', verdana, arial, sans-serif; font-size: 12px; fill: rgb(42, 63, 95); fill-opacity: 1; white-space: pre; opacity: 1;">Jan 2020</text></g><g class="xtick"><text text-anchor="middle" x="0" y="333" style="font-family: 'Open Sans', verdana, arial, sans-serif; font-size: 12px; fill: rgb(42, 63, 95); fill-opacity: 1; white-space: pre; opacity: 1;" transform="translate(122.04,0)">Apr 2020</text></g><g class="xtick"><text text-anchor="middle" x="0" y="333" style="font-family: 'Open Sans', verdana, arial, sans-serif; font-size: 12px; fill: rgb(42, 63, 95); fill-opacity: 1; white-space: pre; opacity: 1;" transform="translate(200.07,0)">Jul 2020</text></g><g class="xtick"><text text-anchor="middle" x="0" y="333" style="font-family: 'Open Sans', verdana, arial, sans-serif; font-size: 12px; fill: rgb(42, 63, 95); fill-opacity: 1; white-space: pre; opacity: 1;" transform="translate(278.96000000000004,0)">Oct 2020</text></g><g class="xtick"><text text-anchor="middle" x="0" y="333" style="font-family: 'Open Sans', verdana, arial, sans-serif; font-size: 12px; fill: rgb(42, 63, 95); fill-opacity: 1; white-space: pre; opacity: 1;" transform="translate(357.86,0)">Jan 2021</text></g><g class="xtick"><text text-anchor="middle" x="0" y="333" style="font-family: 'Open Sans', verdana, arial, sans-serif; font-size: 12px; fill: rgb(42, 63, 95); fill-opacity: 1; white-space: pre; opacity: 1;" transform="translate(435.04,0)">Apr 2021</text></g><g class="xtick"><text text-anchor="middle" x="0" y="333" style="font-family: 'Open Sans', verdana, arial, sans-serif; font-size: 12px; fill: rgb(42, 63, 95); fill-opacity: 1; white-space: pre; opacity: 1;" transform="translate(513.0699999999999,0)">Jul 2021</text></g><g class="xtick"><text text-anchor="middle" x="0" y="333" style="font-family: 'Open Sans', verdana, arial, sans-serif; font-size: 12px; fill: rgb(42, 63, 95); fill-opacity: 1; white-space: pre; opacity: 1;" transform="translate(591.96,0)">Oct 2021</text></g></g><g class="yaxislayer-above"><g class="ytick"><text text-anchor="end" x="43" y="4.199999999999999" transform="translate(0,312.52)" style="font-family: 'Open Sans', verdana, arial, sans-serif; font-size: 12px; fill: rgb(42, 63, 95); fill-opacity: 1; white-space: pre; opacity: 1;">0</text></g><g class="ytick"><text text-anchor="end" x="43" y="4.199999999999999" style="font-family: 'Open Sans', verdana, arial, sans-serif; font-size: 12px; fill: rgb(42, 63, 95); fill-opacity: 1; white-space: pre; opacity: 1;" transform="translate(0,250.32)">1000</text></g><g class="ytick"><text text-anchor="end" x="43" y="4.199999999999999" style="font-family: 'Open Sans', verdana, arial, sans-serif; font-size: 12px; fill: rgb(42, 63, 95); fill-opacity: 1; white-space: pre; opacity: 1;" transform="translate(0,188.11)">2000</text></g><g class="ytick"><text text-anchor="end" x="43" y="4.199999999999999" style="font-family: 'Open Sans', verdana, arial, sans-serif; font-size: 12px; fill: rgb(42, 63, 95); fill-opacity: 1; white-space: pre; opacity: 1;" transform="translate(0,125.91)">3000</text></g><g class="ytick"><text text-anchor="end" x="43" y="4.199999999999999" style="font-family: 'Open Sans', verdana, arial, sans-serif; font-size: 12px; fill: rgb(42, 63, 95); fill-opacity: 1; white-space: pre; opacity: 1;" transform="translate(0,63.71)">4000</text></g></g><g class="overaxes-above"/></g></g><g class="polarlayer"/><g class="smithlayer"/><g class="ternarylayer"/><g class="geolayer"/><g class="funnelarealayer"/><g class="pielayer"/><g class="iciclelayer"/><g class="treemaplayer"/><g class="sunburstlayer"/><g class="glimages"/><defs id="topdefs-655c9a"><g class="clips"/><clipPath id="legend655c9a"><rect width="259" height="29" x="0" y="0"/></clipPath></defs><g class="layer-above"><g class="imagelayer"/><g class="shapelayer"/></g><g class="infolayer"><g class="legend" pointer-events="all" transform="translate(411,11.519999999999996)"><rect class="bg" shape-rendering="crispEdges" style="stroke: rgb(68, 68, 68); stroke-opacity: 1; fill: rgb(255, 255, 255); fill-opacity: 1; stroke-width: 0px;" width="259" height="29" x="0" y="0"/><g class="scrollbox" transform="" clip-path="url(#legend655c9a)"><g class="groups"><g class="traces" transform="translate(0,14.5)" style="opacity: 1;"><text class="legendtext" text-anchor="start" x="40" y="4.680000000000001" style="font-family: 'Open Sans', verdana, arial, sans-serif; font-size: 12px; fill: rgb(42, 63, 95); fill-opacity: 1; white-space: pre;">0.5</text><g class="layers" style="opacity: 1;"><g class="legendfill"/><g class="legendlines"><path class="js-line" d="M5,0h30" style="fill: none; stroke: rgb(31, 119, 180); stroke-opacity: 1; stroke-width: 2px;"/></g><g class="legendsymbols"><g class="legendpoints"/></g></g><rect class="legendtoggle" x="0" y="-9.5" width="62.125" height="19" style="fill: rgb(0, 0, 0); fill-opacity: 0;"/></g><g class="traces" transform="translate(64.625,14.5)" style="opacity: 1;"><text class="legendtext" text-anchor="start" x="40" y="4.680000000000001" style="font-family: 'Open Sans', verdana, arial, sans-serif; font-size: 12px; fill: rgb(42, 63, 95); fill-opacity: 1; white-space: pre;">1.0</text><g class="layers" style="opacity: 1;"><g class="legendfill"/><g class="legendlines"><path class="js-line" d="M5,0h30" style="fill: none; stroke: rgb(255, 127, 14); stroke-opacity: 1; stroke-width: 2px;"/></g><g class="legendsymbols"><g class="legendpoints"/></g></g><rect class="legendtoggle" x="0" y="-9.5" width="62.125" height="19" style="fill: rgb(0, 0, 0); fill-opacity: 0;"/></g><g class="traces" transform="translate(129.25,14.5)" style="opacity: 1;"><text class="legendtext" text-anchor="start" x="40" y="4.680000000000001" style="font-family: 'Open Sans', verdana, arial, sans-serif; font-size: 12px; fill: rgb(42, 63, 95); fill-opacity: 1; white-space: pre;">2.0</text><g class="layers" style="opacity: 1;"><g class="legendfill"/><g class="legendlines"><path class="js-line" d="M5,0h30" style="fill: none; stroke: rgb(44, 160, 44); stroke-opacity: 1; stroke-width: 2px;"/></g><g class="legendsymbols"><g class="legendpoints"/></g></g><rect class="legendtoggle" x="0" y="-9.5" width="62.125" height="19" style="fill: rgb(0, 0, 0); fill-opacity: 0;"/></g><g class="traces" transform="translate(193.875,14.5)" style="opacity: 1;"><text class="legendtext" text-anchor="start" x="40" y="4.680000000000001" style="font-family: 'Open Sans', verdana, arial, sans-serif; font-size: 12px; fill: rgb(42, 63, 95); fill-opacity: 1; white-space: pre;">3.0</text><g class="layers" style="opacity: 1;"><g class="legendfill"/><g class="legendlines"><path class="js-line" d="M5,0h30" style="fill: none; stroke: rgb(220, 57, 18); stroke-opacity: 1; stroke-width: 2px;"/></g><g class="legendsymbols"><g class="legendpoints"/></g></g><rect class="legendtoggle" x="0" y="-9.5" width="62.125" height="19" style="fill: rgb(0, 0, 0); fill-opacity: 0;"/></g></g></g><rect class="scrollbar" rx="20" ry="3" width="0" height="0" style="fill: rgb(128, 139, 164); fill-opacity: 1;" x="0" y="0"/></g><g class="g-gtitle"/><g class="g-xtitle"/><g class="g-ytitle"/></g></svg>