<svg class="main-svg" xmlns="http://www.w3.org/2000/svg" xmlns:xlink="http://www.w3.org/1999/xlink" width="700" height="350" style="" viewBox="0 0 700 350"><rect x="0" y="0" width="700" height="350" style="fill: rgb(255, 255, 255); fill-opacity: 1;"/><defs id="defs-eead28"><g class="clips"><clipPath id="clipeead28xyplot" class="plotclip"><rect width="575" height="252"/></clipPath><clipPath class="axesclip" id="clipeead28x"><rect x="95" y="0" width="575" height="350"/></clipPath><clipPath class="axesclip" id="clipeead28y"><rect x="0" y="46" width="700" height="252"/></clipPath><clipPath class="axesclip" id="clipeead28xy"><rect x="95" y="46" width="575" height="252"/></clipPath></g><g class="gradients"/><g class="patterns"/></defs><g class="bglayer"><rect class="bg" x="95" y="46" width="575" height="252" style="fill: rgb(229, 236, 246); fill-opacity: 1; stroke-width: 0;"/></g><g class="layer-below"><g class="imagelayer"/><g class="shapelayer"/></g><g class="cartesianlayer"><g class="subplot xy"><g class="layer-subplot"><g class="shapelayer"/><g class="imagelayer"/></g><g class="minor-gridlayer"><g class="x"/><g class="y"/></g><g class="gridlayer"><g class="x"><path class="xgrid crisp" transform="translate(141.49,0)" d="M0,46v252" style="stroke: rgb(255, 255, 255); stroke-opacity: 1; stroke-width: 1px;"/><path class="xgrid crisp" transform="translate(226.77,0)" d="M0,46v252" style="stroke: rgb(255, 255, 255); stroke-opacity: 1; stroke-width: 1px;"/><path class="xgrid crisp" transform="translate(397.32,0)" d="M0,46v252" style="stroke: rgb(255, 255, 255); stroke-opacity: 1; stroke-width: 1px;"/><path class="xgrid crisp" transform="translate(482.6,0)" d="M0,46v252" style="stroke: rgb(255, 255, 255); stroke-opacity: 1; stroke-width: 1px;"/><path class="xgrid crisp" transform="translate(567.87,0)" d="M0,46v252" style="stroke: rgb(255, 255, 255); stroke-opacity: 1; stroke-width: 1px;"/><path class="xgrid crisp" transform="translate(653.15,0)" d="M0,46v252" style="stroke: rgb(255, 255, 255); stroke-opacity: 1; stroke-width: 1px;"/></g><g class="y"><path class="ygrid crisp" transform="translate(0,261.06)" d="M95,0h575" style="stroke: rgb(255, 255, 255); stroke-opacity: 1; stroke-width: 1px;"/><path class="ygrid crisp" transform="translate(0,221.37)" d="M95,0h575" style="stroke: rgb(255, 255, 255); stroke-opacity: 1; stroke-width: 1px;"/><path class="ygrid crisp" transform="translate(0,181.67)" d="M95,0h575" style="stroke: rgb(255, 255, 255); stroke-opacity: 1; stroke-width: 1px;"/><path class="ygrid crisp" transform="translate(0,141.98000000000002)" d="M95,0h575" style="stroke: rgb(255, 255, 255); stroke-opacity: 1; stroke-width: 1px;"/><path class="ygrid crisp" transform="translate(0,102.28)" d="M95,0h575" style="stroke: rgb(255, 255, 255); stroke-opacity: 1; stroke-width: 1px;"/></g></g><g class="zerolinelayer"><path class="xzl zl crisp" transform="translate(312.05,0)" d="M0,46v252" style="stroke: rgb(255, 255, 255); stroke-opacity: 1; stroke-width: 2px;"/><path class="yzl zl crisp" transform="translate(0,62.59)" d="M95,0h575" style="stroke: rgb(255, 255, 255); stroke-opacity: 1; stroke-width: 2px;"/></g><path class="xlines-below"/><path class="ylines-below"/><g class="overlines-below"/><g class="xaxislayer-below"/><g class="yaxislayer-below"/><g class="overaxes-below"/><g class="plot" transform="translate(95,46)" clip-path="url(#clipeead28xyplot)"><g class="scatterlayer mlayer"><g class="trace scatter traceecde8f24-32ef-4a5e-ba99-a421bb1f26ab" style="stroke-miterlimit: 2; opacity: 1;"><g class="fills"/><g class="errorbars"/><g class="lines"/><g class="points"><path class="point plotly-customdata" transform="translate(236.22,114.19)" d="M3.5,0A3.5,3.5 0 1,1 0,-3.5A3.5,3.5 0 0,1 3.5,0Z" style="opacity: 1; stroke-width: 1px; fill: rgb(55, 177, 63); fill-opacity: 1; stroke: rgb(38, 123, 44); stroke-opacity: 1;"/><path class="point plotly-customdata" transform="translate(236.52,58.44)" d="M3.5,0A3.5,3.5 0 1,1 0,-3.5A3.5,3.5 0 0,1 3.5,0Z" style="opacity: 1; stroke-width: 1px; fill: rgb(55, 177, 63); fill-opacity: 1; stroke: rgb(38, 123, 44); stroke-opacity: 1;"/><path class="point plotly-customdata" transform="translate(305.37,53.13)" d="M3.5,0A3.5,3.5 0 1,1 0,-3.5A3.5,3.5 0 0,1 3.5,0Z" style="opacity: 1; stroke-width: 1px; fill: rgb(55, 177, 63); fill-opacity: 1; stroke: rgb(38, 123, 44); stroke-opacity: 1;"/><path class="point plotly-customdata" transform="translate(334.8,17.37)" d="M3.5,0A3.5,3.5 0 1,1 0,-3.5A3.5,3.5 0 0,1 3.5,0Z" style="opacity: 1; stroke-width: 1px; fill: rgb(55, 177, 63); fill-opacity: 1; stroke: rgb(38, 123, 44); stroke-opacity: 1;"/><path class="point plotly-customdata" transform="translate(221.59,25.53)" d="M3.5,0A3.5,3.5 0 1,1 0,-3.5A3.5,3.5 0 0,1 3.5,0Z" style="opacity: 1; stroke-width: 1px; fill: rgb(55, 177, 63); fill-opacity: 1; stroke: rgb(38, 123, 44); stroke-opacity: 1;"/><path class="point plotly-customdata" transform="translate(539.28,21.88)" d="M3.5,0A3.5,3.5 0 1,1 0,-3.5A3.5,3.5 0 0,1 3.5,0Z" style="opacity: 1; stroke-width: 1px; fill: rgb(55, 177, 63); fill-opacity: 1; stroke: rgb(38, 123, 44); stroke-opacity: 1;"/><path class="point plotly-customdata" transform="translate(251.51,30.26)" d="M3.5,0A3.5,3.5 0 1,1 0,-3.5A3.5,3.5 0 0,1 3.5,0Z" style="opacity: 1; stroke-width: 1px; fill: rgb(55, 177, 63); fill-opacity: 1; stroke: rgb(38, 123, 44); stroke-opacity: 1;"/><path class="point plotly-customdata" transform="translate(222.24,17.16)" d="M3.5,0A3.5,3.5 0 1,1 0,-3.5A3.5,3.5 0 0,1 3.5,0Z" style="opacity: 1; stroke-width: 1px; fill: rgb(55, 177, 63); fill-opacity: 1; stroke: rgb(38, 123, 44); stroke-opacity: 1;"/><path class="point plotly-customdata" transform="translate(235.04,26.65)" d="M3.5,0A3.5,3.5 0 1,1 0,-3.5A3.5,3.5 0 0,1 3.5,0Z" style="opacity: 1; stroke-width: 1px; fill: rgb(55, 177, 63); fill-opacity: 1; stroke: rgb(38, 123, 44); stroke-opacity: 1;"/><path class="point plotly-customdata" transform="translate(387.34,19.29)" d="M3.5,0A3.5,3.5 0 1,1 0,-3.5A3.5,3.5 0 0,1 3.5,0Z" style="opacity: 1; stroke-width: 1px; fill: rgb(55, 177, 63); fill-opacity: 1; stroke: rgb(38, 123, 44); stroke-opacity: 1;"/><path class="point plotly-customdata" transform="translate(218.02,109.52)" d="M3.5,0A3.5,3.5 0 1,1 0,-3.5A3.5,3.5 0 0,1 3.5,0Z" style="opacity: 1; stroke-width: 1px; fill: rgb(55, 177, 63); fill-opacity: 1; stroke: rgb(38, 123, 44); stroke-opacity: 1;"/><path class="point plotly-customdata" transform="translate(445.35,23.49)" d="M3.5,0A3.5,3.5 0 1,1 0,-3.5A3.5,3.5 0 0,1 3.5,0Z" style="opacity: 1; stroke-width: 1px; fill: rgb(55, 177, 63); fill-opacity: 1; stroke: rgb(38, 123, 44); stroke-opacity: 1;"/><path class="point plotly-customdata" transform="translate(541.88,118.64)" d="M3.5,0A3.5,3.5 0 1,1 0,-3.5A3.5,3.5 0 0,1 3.5,0Z" style="opacity: 1; stroke-width: 1px; fill: rgb(55, 177, 63); fill-opacity: 1; stroke: rgb(38, 123, 44); stroke-opacity: 1;"/><path class="point plotly-customdata" transform="translate(347.01,29.23)" d="M3.5,0A3.5,3.5 0 1,1 0,-3.5A3.5,3.5 0 0,1 3.5,0Z" style="opacity: 1; stroke-width: 1px; fill: rgb(55, 177, 63); fill-opacity: 1; stroke: rgb(38, 123, 44); stroke-opacity: 1;"/><path class="point plotly-customdata" transform="translate(246.91,19.99)" d="M3.5,0A3.5,3.5 0 1,1 0,-3.5A3.5,3.5 0 0,1 3.5,0Z" style="opacity: 1; stroke-width: 1px; fill: rgb(55, 177, 63); fill-opacity: 1; stroke: rgb(38, 123, 44); stroke-opacity: 1;"/><path class="point plotly-customdata" transform="translate(283.62,69.87)" d="M3.5,0A3.5,3.5 0 1,1 0,-3.5A3.5,3.5 0 0,1 3.5,0Z" style="opacity: 1; stroke-width: 1px; fill: rgb(55, 177, 63); fill-opacity: 1; stroke: rgb(38, 123, 44); stroke-opacity: 1;"/><path class="point plotly-customdata" transform="translate(229.84,17.14)" d="M3.5,0A3.5,3.5 0 1,1 0,-3.5A3.5,3.5 0 0,1 3.5,0Z" style="opacity: 1; stroke-width: 1px; fill: rgb(55, 177, 63); fill-opacity: 1; stroke: rgb(38, 123, 44); stroke-opacity: 1;"/><path class="point plotly-customdata" transform="translate(352.91,25.29)" d="M3.5,0A3.5,3.5 0 1,1 0,-3.5A3.5,3.5 0 0,1 3.5,0Z" style="opacity: 1; stroke-width: 1px; fill: rgb(55, 177, 63); fill-opacity: 1; stroke: rgb(38, 123, 44); stroke-opacity: 1;"/><path class="point plotly-customdata" transform="translate(272.81,35.1)" d="M3.5,0A3.5,3.5 0 1,1 0,-3.5A3.5,3.5 0 0,1 3.5,0Z" style="opacity: 1; stroke-width: 1px; fill: rgb(55, 177, 63); fill-opacity: 1; stroke: rgb(38, 123, 44); stroke-opacity: 1;"/><path class="point plotly-customdata" transform="translate(248.29,16.98)" d="M3.5,0A3.5,3.5 0 1,1 0,-3.5A3.5,3.5 0 0,1 3.5,0Z" style="opacity: 1; stroke-width: 1px; fill: rgb(55, 177, 63); fill-opacity: 1; stroke: rgb(38, 123, 44); stroke-opacity: 1;"/><path class="point plotly-customdata" transform="translate(258.37,18.58)" d="M3.5,0A3.5,3.5 0 1,1 0,-3.5A3.5,3.5 0 0,1 3.5,0Z" style="opacity: 1; stroke-width: 1px; fill: rgb(55, 177, 63); fill-opacity: 1; stroke: rgb(38, 123, 44); stroke-opacity: 1;"/><path class="point plotly-customdata" transform="translate(518.94,25.48)" d="M3.5,0A3.5,3.5 0 1,1 0,-3.5A3.5,3.5 0 0,1 3.5,0Z" style="opacity: 1; stroke-width: 1px; fill: rgb(55, 177, 63); fill-opacity: 1; stroke: rgb(38, 123, 44); stroke-opacity: 1;"/><path class="point plotly-customdata" transform="translate(244.18,27.69)" d="M3.5,0A3.5,3.5 0 1,1 0,-3.5A3.5,3.5 0 0,1 3.5,0Z" style="opacity: 1; stroke-width: 1px; fill: rgb(55, 177, 63); fill-opacity: 1; stroke: rgb(38, 123, 44); stroke-opacity: 1;"/><path class="point plotly-customdata" transform="translate(236.41,22.81)" d="M3.5,0A3.5,3.5 0 1,1 0,-3.5A3.5,3.5 0 0,1 3.5,0Z" style="opacity: 1; stroke-width: 1px; fill: rgb(55, 177, 63); fill-opacity: 1; stroke: rgb(38, 123, 44); stroke-opacity: 1;"/><path class="point plotly-customdata" transform="translate(234.84,26.79)" d="M3.5,0A3.5,3.5 0 1,1 0,-3.5A3.5,3.5 0 0,1 3.5,0Z" style="opacity: 1; stroke-width: 1px; fill: rgb(55, 177, 63); fill-opacity: 1; stroke: rgb(38, 123, 44); stroke-opacity: 1;"/><path class="point plotly-customdata" transform="translate(234.8,19.88)" d="M3.5,0A3.5,3.5 0 1,1 0,-3.5A3.5,3.5 0 0,1 3.5,0Z" style="opacity: 1; stroke-width: 1px; fill: rgb(55, 177, 63); fill-opacity: 1; stroke: rgb(38, 123, 44); stroke-opacity: 1;"/><path class="point plotly-customdata" transform="translate(246.06,39.55)" d="M3.5,0A3.5,3.5 0 1,1 0,-3.5A3.5,3.5 0 0,1 3.5,0Z" style="opacity: 1; stroke-width: 1px; fill: rgb(55, 177, 63); fill-opacity: 1; stroke: rgb(38, 123, 44); stroke-opacity: 1;"/><path class="point plotly-customdata" transform="translate(339.35,54.79)" d="M3.5,0A3.5,3.5 0 1,1 0,-3.5A3.5,3.5 0 0,1 3.5,0Z" style="opacity: 1; stroke-width: 1px; fill: rgb(55, 177, 63); fill-opacity: 1; stroke: rgb(38, 123, 44); stroke-opacity: 1;"/><path class="point plotly-customdata" transform="translate(276.83,39.77)" d="M3.5,0A3.5,3.5 0 1,1 0,-3.5A3.5,3.5 0 0,1 3.5,0Z" style="opacity: 1; stroke-width: 1px; fill: rgb(55, 177, 63); fill-opacity: 1; stroke: rgb(38, 123, 44); stroke-opacity: 1;"/><path class="point plotly-customdata" transform="translate(354.78,18.7)" d="M3.5,0A3.5,3.5 0 1,1 0,-3.5A3.5,3.5 0 0,1 3.5,0Z" style="opacity: 1; stroke-width: 1px; fill: rgb(55, 177, 63); fill-opacity: 1; stroke: rgb(38, 123, 44); stroke-opacity: 1;"/></g><g class="text"/></g><g class="trace scatter trace051c7369-0ef5-43c5-a70a-c10709fdfd0d" style="stroke-miterlimit: 2; opacity: 1;"><g class="fills"/><g class="errorbars"/><g class="lines"/><g class="points"><path class="point plotly-customdata" transform="translate(127.56,119.16)" d="M3.5,0A3.5,3.5 0 1,1 0,-3.5A3.5,3.5 0 0,1 3.5,0Z" style="opacity: 1; stroke-width: 1px; fill: rgb(234, 67, 53); fill-opacity: 1; stroke: rgb(181, 31, 18); stroke-opacity: 1;"/><path class="point plotly-customdata" transform="translate(176.47,86.34)" d="M3.5,0A3.5,3.5 0 1,1 0,-3.5A3.5,3.5 0 0,1 3.5,0Z" style="opacity: 1; stroke-width: 1px; fill: rgb(234, 67, 53); fill-opacity: 1; stroke: rgb(181, 31, 18); stroke-opacity: 1;"/><path class="point plotly-customdata" transform="translate(211.63,43.22)" d="M3.5,0A3.5,3.5 0 1,1 0,-3.5A3.5,3.5 0 0,1 3.5,0Z" style="opacity: 1; stroke-width: 1px; fill: rgb(234, 67, 53); fill-opacity: 1; stroke: rgb(181, 31, 18); stroke-opacity: 1;"/><path class="point plotly-customdata" transform="translate(189.71,42.03)" d="M3.5,0A3.5,3.5 0 1,1 0,-3.5A3.5,3.5 0 0,1 3.5,0Z" style="opacity: 1; stroke-width: 1px; fill: rgb(234, 67, 53); fill-opacity: 1; stroke: rgb(181, 31, 18); stroke-opacity: 1;"/><path class="point plotly-customdata" transform="translate(79.25,159.8)" d="M3.5,0A3.5,3.5 0 1,1 0,-3.5A3.5,3.5 0 0,1 3.5,0Z" style="opacity: 1; stroke-width: 1px; fill: rgb(234, 67, 53); fill-opacity: 1; stroke: rgb(181, 31, 18); stroke-opacity: 1;"/><path class="point plotly-customdata" transform="translate(33.13,235.02)" d="M3.5,0A3.5,3.5 0 1,1 0,-3.5A3.5,3.5 0 0,1 3.5,0Z" style="opacity: 1; stroke-width: 1px; fill: rgb(234, 67, 53); fill-opacity: 1; stroke: rgb(181, 31, 18); stroke-opacity: 1;"/><path class="point plotly-customdata" transform="translate(212.3,37.27)" d="M3.5,0A3.5,3.5 0 1,1 0,-3.5A3.5,3.5 0 0,1 3.5,0Z" style="opacity: 1; stroke-width: 1px; fill: rgb(234, 67, 53); fill-opacity: 1; stroke: rgb(181, 31, 18); stroke-opacity: 1;"/><path class="point plotly-customdata" transform="translate(196.95,69.97)" d="M3.5,0A3.5,3.5 0 1,1 0,-3.5A3.5,3.5 0 0,1 3.5,0Z" style="opacity: 1; stroke-width: 1px; fill: rgb(234, 67, 53); fill-opacity: 1; stroke: rgb(181, 31, 18); stroke-opacity: 1;"/><path class="point plotly-customdata" transform="translate(212.92,35.52)" d="M3.5,0A3.5,3.5 0 1,1 0,-3.5A3.5,3.5 0 0,1 3.5,0Z" style="opacity: 1; stroke-width: 1px; fill: rgb(234, 67, 53); fill-opacity: 1; stroke: rgb(181, 31, 18); stroke-opacity: 1;"/><path class="point plotly-customdata" transform="translate(205.47,27.36)" d="M3.5,0A3.5,3.5 0 1,1 0,-3.5A3.5,3.5 0 0,1 3.5,0Z" style="opacity: 1; stroke-width: 1px; fill: rgb(234, 67, 53); fill-opacity: 1; stroke: rgb(181, 31, 18); stroke-opacity: 1;"/><path class="point plotly-customdata" transform="translate(210.18,48.67)" d="M3.5,0A3.5,3.5 0 1,1 0,-3.5A3.5,3.5 0 0,1 3.5,0Z" style="opacity: 1; stroke-width: 1px; fill: rgb(234, 67, 53); fill-opacity: 1; stroke: rgb(181, 31, 18); stroke-opacity: 1;"/><path class="point plotly-customdata" transform="translate(162.3,121.62)" d="M3.5,0A3.5,3.5 0 1,1 0,-3.5A3.5,3.5 0 0,1 3.5,0Z" style="opacity: 1; stroke-width: 1px; fill: rgb(234, 67, 53); fill-opacity: 1; stroke: rgb(181, 31, 18); stroke-opacity: 1;"/><path class="point plotly-customdata" transform="translate(190.7,84.39)" d="M3.5,0A3.5,3.5 0 1,1 0,-3.5A3.5,3.5 0 0,1 3.5,0Z" style="opacity: 1; stroke-width: 1px; fill: rgb(234, 67, 53); fill-opacity: 1; stroke: rgb(181, 31, 18); stroke-opacity: 1;"/><path class="point plotly-customdata" transform="translate(84.91,207.45)" d="M3.5,0A3.5,3.5 0 1,1 0,-3.5A3.5,3.5 0 0,1 3.5,0Z" style="opacity: 1; stroke-width: 1px; fill: rgb(234, 67, 53); fill-opacity: 1; stroke: rgb(181, 31, 18); stroke-opacity: 1;"/><path class="point plotly-customdata" transform="translate(143.8,94.77)" d="M3.5,0A3.5,3.5 0 1,1 0,-3.5A3.5,3.5 0 0,1 3.5,0Z" style="opacity: 1; stroke-width: 1px; fill: rgb(234, 67, 53); fill-opacity: 1; stroke: rgb(181, 31, 18); stroke-opacity: 1;"/><path class="point plotly-customdata" transform="translate(164.15,91.31)" d="M3.5,0A3.5,3.5 0 1,1 0,-3.5A3.5,3.5 0 0,1 3.5,0Z" style="opacity: 1; stroke-width: 1px; fill: rgb(234, 67, 53); fill-opacity: 1; stroke: rgb(181, 31, 18); stroke-opacity: 1;"/><path class="point plotly-customdata" transform="translate(180.32,65.13)" d="M3.5,0A3.5,3.5 0 1,1 0,-3.5A3.5,3.5 0 0,1 3.5,0Z" style="opacity: 1; stroke-width: 1px; fill: rgb(234, 67, 53); fill-opacity: 1; stroke: rgb(181, 31, 18); stroke-opacity: 1;"/><path class="point plotly-customdata" transform="translate(206.51,33.67)" d="M3.5,0A3.5,3.5 0 1,1 0,-3.5A3.5,3.5 0 0,1 3.5,0Z" style="opacity: 1; stroke-width: 1px; fill: rgb(234, 67, 53); fill-opacity: 1; stroke: rgb(181, 31, 18); stroke-opacity: 1;"/><path class="point plotly-customdata" transform="translate(155.16,77.82)" d="M3.5,0A3.5,3.5 0 1,1 0,-3.5A3.5,3.5 0 0,1 3.5,0Z" style="opacity: 1; stroke-width: 1px; fill: rgb(234, 67, 53); fill-opacity: 1; stroke: rgb(181, 31, 18); stroke-opacity: 1;"/><path class="point plotly-customdata" transform="translate(206.69,45.02)" d="M3.5,0A3.5,3.5 0 1,1 0,-3.5A3.5,3.5 0 0,1 3.5,0Z" style="opacity: 1; stroke-width: 1px; fill: rgb(234, 67, 53); fill-opacity: 1; stroke: rgb(181, 31, 18); stroke-opacity: 1;"/></g><g class="text"/></g></g></g><g class="overplot"/><path class="xlines-above crisp" d="M0,0" style="fill: none;"/><path class="ylines-above crisp" d="M0,0" style="fill: none;"/><g class="overlines-above"/><g class="xaxislayer-above"><g class="xtick"><text text-anchor="middle" x="0" y="311" transform="translate(141.49,0)" style="font-family: 'Open Sans', verdana, arial, sans-serif; font-size: 12px; fill: rgb(42, 63, 95); fill-opacity: 1; white-space: pre; opacity: 1;">−40.00%</text></g><g class="xtick"><text text-anchor="middle" x="0" y="311" style="font-family: 'Open Sans', verdana, arial, sans-serif; font-size: 12px; fill: rgb(42, 63, 95); fill-opacity: 1; white-space: pre; opacity: 1;" transform="translate(226.77,0)">−20.00%</text></g><g class="xtick"><text text-anchor="middle" x="0" y="311" style="font-family: 'Open Sans', verdana, arial, sans-serif; font-size: 12px; fill: rgb(42, 63, 95); fill-opacity: 1; white-space: pre; opacity: 1;" transform="translate(312.05,0)">0.00%</text></g><g class="xtick"><text text-anchor="middle" x="0" y="311" style="font-family: 'Open Sans', verdana, arial, sans-serif; font-size: 12px; fill: rgb(42, 63, 95); fill-opacity: 1; white-space: pre; opacity: 1;" transform="translate(397.32,0)">20.00%</text></g><g class="xtick"><text text-anchor="middle" x="0" y="311" style="font-family: 'Open Sans', verdana, arial, sans-serif; font-size: 12px; fill: rgb(42, 63, 95); fill-opacity: 1; white-space: pre; opacity: 1;" transform="translate(482.6,0)">40.00%</text></g><g class="xtick"><text text-anchor="middle" x="0" y="311" style="font-family: 'Open Sans', verdana, arial, sans-serif; font-size: 12px; fill: rgb(42, 63, 95); fill-opacity: 1; white-space: pre; opacity: 1;" transform="translate(567.87,0)">60.00%</text></g><g class="xtick"><text text-anchor="middle" x="0" y="311" style="font-family: 'Open Sans', verdana, arial, sans-serif; font-size: 12px; fill: rgb(42, 63, 95); fill-opacity: 1; white-space: pre; opacity: 1;" transform="translate(653.15,0)">80.00%</text></g></g><g class="yaxislayer-above"><g class="ytick"><text text-anchor="end" x="94" y="4.199999999999999" transform="translate(0,261.06)" style="font-family: 'Open Sans', verdana, arial, sans-serif; font-size: 12px; fill: rgb(42, 63, 95); fill-opacity: 1; white-space: pre; opacity: 1;">−50.00%</text></g><g class="ytick"><text text-anchor="end" x="94" y="4.199999999999999" style="font-family: 'Open Sans', verdana, arial, sans-serif; font-size: 12px; fill: rgb(42, 63, 95); fill-opacity: 1; white-space: pre; opacity: 1;" transform="translate(0,221.37)">−40.00%</text></g><g class="ytick"><text text-anchor="end" x="94" y="4.199999999999999" style="font-family: 'Open Sans', verdana, arial, sans-serif; font-size: 12px; fill: rgb(42, 63, 95); fill-opacity: 1; white-space: pre; opacity: 1;" transform="translate(0,181.67)">−30.00%</text></g><g class="ytick"><text text-anchor="end" x="94" y="4.199999999999999" style="font-family: 'Open Sans', verdana, arial, sans-serif; font-size: 12px; fill: rgb(42, 63, 95); fill-opacity: 1; white-space: pre; opacity: 1;" transform="translate(0,141.98000000000002)">−20.00%</text></g><g class="ytick"><text text-anchor="end" x="94" y="4.199999999999999" style="font-family: 'Open Sans', verdana, arial, sans-serif; font-size: 12px; fill: rgb(42, 63, 95); fill-opacity: 1; white-space: pre; opacity: 1;" transform="translate(0,102.28)">−10.00%</text></g><g class="ytick"><text text-anchor="end" x="94" y="4.199999999999999" style="font-family: 'Open Sans', verdana, arial, sans-serif; font-size: 12px; fill: rgb(42, 63, 95); fill-opacity: 1; white-space: pre; opacity: 1;" transform="translate(0,62.59)">0.00%</text></g></g><g class="overaxes-above"/></g></g><g class="polarlayer"/><g class="smithlayer"/><g class="ternarylayer"/><g class="geolayer"/><g class="funnelarealayer"/><g class="pielayer"/><g class="iciclelayer"/><g class="treemaplayer"/><g class="sunburstlayer"/><g class="glimages"/><defs id="topdefs-eead28"><g class="clips"/><clipPath id="legendeead28"><rect width="256" height="29" x="0" y="0"/></clipPath></defs><g class="layer-above"><g class="imagelayer"/><g class="shapelayer"><g class="shape-group" data-index="0" clip-path="url(#clipeead28y)"><path data-index="0" fill-rule="evenodd" d="M95,62.59L670,62.59" style="opacity: 1; stroke: rgb(128, 128, 128); stroke-opacity: 1; fill: rgb(0, 0, 0); fill-opacity: 0; stroke-dasharray: 9px, 9px; stroke-width: 2px;"/></g><g class="shape-group" data-index="1" clip-path="url(#clipeead28x)"><path data-index="1" fill-rule="evenodd" d="M312.05,298L312.05,46" style="opacity: 1; stroke: rgb(128, 128, 128); stroke-opacity: 1; fill: rgb(0, 0, 0); fill-opacity: 0; stroke-dasharray: 9px, 9px; stroke-width: 2px;"/></g></g></g><g class="infolayer"><g class="legend" pointer-events="all" transform="translate(414,11.959999999999994)"><rect class="bg" shape-rendering="crispEdges" width="256" height="29" x="0" y="0" style="stroke: rgb(68, 68, 68); stroke-opacity: 1; fill: rgb(255, 255, 255); fill-opacity: 1; stroke-width: 0px;"/><g class="scrollbox" transform="" clip-path="url(#legendeead28)"><g class="groups"><g class="traces" transform="translate(0,14.5)" style="opacity: 1;"><text class="legendtext" text-anchor="start" x="40" y="4.680000000000001" style="font-family: 'Open Sans', verdana, arial, sans-serif; font-size: 12px; fill: rgb(42, 63, 95); fill-opacity: 1; white-space: pre;">Closed - Profit</text><g class="layers" style="opacity: 1;"><g class="legendfill"/><g class="legendlines"/><g class="legendsymbols"><g class="legendpoints"><path class="scatterpts" transform="translate(20,0)" d="M3.5,0A3.5,3.5 0 1,1 0,-3.5A3.5,3.5 0 0,1 3.5,0Z" style="opacity: 1; stroke-width: 1px; fill: rgb(55, 177, 63); fill-opacity: 1; stroke: rgb(38, 123, 44); stroke-opacity: 1;"/></g></g></g><rect class="legendtoggle" x="0" y="-9.5" width="128.109375" height="19" style="fill: rgb(0, 0, 0); fill-opacity: 0;"/></g><g class="traces" transform="translate(130.609375,14.5)" style="opacity: 1;"><text class="legendtext" text-anchor="start" x="40" y="4.680000000000001" style="font-family: 'Open Sans', verdana, arial, sans-serif; font-size: 12px; fill: rgb(42, 63, 95); fill-opacity: 1; white-space: pre;">Closed - Loss</text><g class="layers" style="opacity: 1;"><g class="legendfill"/><g class="legendlines"/><g class="legendsymbols"><g class="legendpoints"><path class="scatterpts" transform="translate(20,0)" d="M3.5,0A3.5,3.5 0 1,1 0,-3.5A3.5,3.5 0 0,1 3.5,0Z" style="opacity: 1; stroke-width: 1px; fill: rgb(234, 67, 53); fill-opacity: 1; stroke: rgb(181, 31, 18); stroke-opacity: 1;"/></g></g></g><rect class="legendtoggle" x="0" y="-9.5" width="122.6875" height="19" style="fill: rgb(0, 0, 0); fill-opacity: 0;"/></g></g></g><rect class="scrollbar" rx="20" ry="3" width="0" height="0" x="0" y="0" style="fill: rgb(128, 139, 164); fill-opacity: 1;"/></g><g class="g-gtitle"/><g class="g-xtitle"><text class="xtitle" x="382.5" y="337.8" text-anchor="middle" style="font-family: 'Open Sans', verdana, arial, sans-serif; font-size: 14px; fill: rgb(42, 63, 95); opacity: 1; font-weight: normal; white-space: pre;">Return</text></g><g class="g-ytitle" transform="translate(1.9248046875,0)"><text class="ytitle" transform="rotate(-90,12.075000000000003,172)" x="12.075000000000003" y="172" text-anchor="middle" style="font-family: 'Open Sans', verdana, arial, sans-serif; font-size: 14px; fill: rgb(42, 63, 95); opacity: 1; font-weight: normal; white-space: pre;">MAE Return</text></g></g></svg>