<svg class="main-svg" xmlns="http://www.w3.org/2000/svg" xmlns:xlink="http://www.w3.org/1999/xlink" width="700" height="350" style="" viewBox="0 0 700 350"><rect x="0" y="0" width="700" height="350" style="fill: rgb(33, 34, 38); fill-opacity: 1;"/><defs id="defs-b55031"><g class="clips"><clipPath id="clipb55031xyplot" class="plotclip"><rect width="640" height="274"/></clipPath><clipPath class="axesclip" id="clipb55031x"><rect x="30" y="0" width="640" height="350"/></clipPath><clipPath class="axesclip" id="clipb55031y"><rect x="0" y="46" width="700" height="274"/></clipPath><clipPath class="axesclip" id="clipb55031xy"><rect x="30" y="46" width="640" height="274"/></clipPath></g><g class="gradients"/><g class="patterns"/></defs><g class="bglayer"/><g class="layer-below"><g class="imagelayer"/><g class="shapelayer"/></g><g class="cartesianlayer"><g class="subplot xy"><g class="layer-subplot"><g class="shapelayer"/><g class="imagelayer"/></g><g class="minor-gridlayer"><g class="x"/><g class="y"/></g><g class="gridlayer"><g class="x"><path class="xgrid crisp" transform="translate(118.3,0)" d="M0,46v274" style="stroke: rgb(49, 52, 57); stroke-opacity: 1; stroke-width: 1px;"/><path class="xgrid crisp" transform="translate(255.33,0)" d="M0,46v274" style="stroke: rgb(49, 52, 57); stroke-opacity: 1; stroke-width: 1px;"/><path class="xgrid crisp" transform="translate(392.18,0)" d="M0,46v274" style="stroke: rgb(49, 52, 57); stroke-opacity: 1; stroke-width: 1px;"/><path class="xgrid crisp" transform="translate(529.21,0)" d="M0,46v274" style="stroke: rgb(49, 52, 57); stroke-opacity: 1; stroke-width: 1px;"/><path class="xgrid crisp" transform="translate(666.06,0)" d="M0,46v274" style="stroke: rgb(49, 52, 57); stroke-opacity: 1; stroke-width: 1px;"/></g><g class="y"><path class="ygrid crisp" transform="translate(0,315.5)" d="M30,0h640" style="stroke: rgb(49, 52, 57); stroke-opacity: 1; stroke-width: 1px;"/><path class="ygrid crisp" transform="translate(0,276.73)" d="M30,0h640" style="stroke: rgb(49, 52, 57); stroke-opacity: 1; stroke-width: 1px;"/><path class="ygrid crisp" transform="translate(0,237.95)" d="M30,0h640" style="stroke: rgb(49, 52, 57); stroke-opacity: 1; stroke-width: 1px;"/><path class="ygrid crisp" transform="translate(0,199.18)" d="M30,0h640" style="stroke: rgb(49, 52, 57); stroke-opacity: 1; stroke-width: 1px;"/><path class="ygrid crisp" transform="translate(0,160.41)" d="M30,0h640" style="stroke: rgb(49, 52, 57); stroke-opacity: 1; stroke-width: 1px;"/><path class="ygrid crisp" transform="translate(0,121.64)" d="M30,0h640" style="stroke: rgb(49, 52, 57); stroke-opacity: 1; stroke-width: 1px;"/><path class="ygrid crisp" transform="translate(0,82.87)" d="M30,0h640" style="stroke: rgb(49, 52, 57); stroke-opacity: 1; stroke-width: 1px;"/></g></g><g class="zerolinelayer"/><path class="xlines-below"/><path class="ylines-below"/><g class="overlines-below"/><g class="xaxislayer-below"/><g class="yaxislayer-below"/><g class="overaxes-below"/><g class="plot" transform="translate(30,46)" clip-path="url(#clipb55031xyplot)"><g class="scatterlayer mlayer"><g class="trace scatter trace5d6107ac-3da9-4c9e-80d6-ddb2873ca45c" style="stroke-miterlimit: 2; opacity: 1;"><g class="fills"/><g class="errorbars"/><g class="lines"><path class="js-line" d="M70.67,260.3L76.3,260.3L76.49,207.34L81.92,207.34L82.11,187.56L87.73,187.56L87.92,165.49L93.54,165.49L93.73,187.52L98.98,187.52L99.17,166.53L104.79,166.53L104.98,175.14L110.42,175.14L110.6,160.17L116.23,160.17L116.41,135.41L121.85,135.41L122.04,110.25L127.66,110.25L127.85,107.13L133.47,107.13L133.66,144.54L139.1,144.54L139.29,137.14L144.91,137.14L145.1,115.12L150.53,115.12L150.72,108.44L156.34,108.44L156.53,75.97L162.16,75.97L162.34,92.99L167.4,92.99L167.59,66.83L173.22,66.83L173.4,115.01L178.84,115.01L179.03,86.87L184.65,86.87L184.84,48.57L190.28,48.57L190.46,40.14L196.09,40.14L196.27,36L201.9,36L202.09,18.14L207.52,18.14L207.71,55.87L213.33,55.87L213.52,35.43L218.96,35.43L219.14,19.59L224.77,19.59L224.96,13.7L230.58,13.7L230.77,94.57L235.83,94.57L236.02,89.84L241.64,89.84L241.83,163.51L247.26,163.51L247.45,138.39L253.08,138.39L253.26,167.22L258.7,167.22L258.89,182.47L264.51,182.47L264.7,161.88L270.32,161.88L270.51,177.44L275.95,177.44L276.13,182.26L281.76,182.26L281.94,185.86L287.38,185.86L287.57,211.63L293.19,211.63L293.38,216.41L299,216.41L299.19,220.96L304.25,220.96L304.44,214.86L310.06,214.86L310.25,210.43L315.69,210.43L315.88,191.19L321.5,191.19L321.69,150.59L327.12,150.59L327.31,118L332.93,118L333.12,153.06L344.37,153.19L344.56,174.13L350.18,174.13L350.37,162.24L355.81,162.24L355.99,181.93L361.62,181.93L361.8,188.09L367.43,188.09L367.62,162.46L372.86,162.46L373.05,174.22L378.68,174.22L378.86,202.44L384.3,202.44L384.49,175.19L390.11,175.19L390.3,165.93L395.74,165.93L395.92,172.82L401.55,172.82L401.73,152.89L407.36,152.89L407.55,147.1L412.98,147.1L413.17,160.39L418.79,160.39L418.98,134.56L424.42,134.56L424.6,103.26L430.23,103.26L430.42,64.81L436.04,64.81L436.23,53.56L441.29,53.56L441.48,37.59L447.1,37.59L447.29,27.67L452.72,27.67L452.91,64.73L458.54,64.73L458.72,152.52L469.97,152.04L470.16,136.09L475.78,136.09L475.97,125.22L481.41,125.22L481.59,148.46L487.22,148.46L487.4,108.65L492.84,108.65L493.03,123.85L498.65,123.85L498.84,159.15L504.46,159.15L504.65,184.88L515.52,185.44L515.71,163L521.15,163L521.34,186.53L526.96,186.53L527.15,203.63L532.58,203.63L532.77,228.49L538.39,228.49L538.58,218.46L544.21,218.46L544.39,226.67L555.64,227.16L555.83,223.55L561.27,223.55L561.45,233.86L572.89,233.25L573.08,209.52L578.14,209.52L578.32,207L583.95,207L584.14,190.49L589.57,190.49L589.76,186.12L595.38,186.12L595.57,192.22L601.01,192.22L601.2,181.39L606.82,181.39L607.01,186.56L612.63,186.56L612.82,195.45L618.25,195.45L618.44,197.24L624.07,197.24L624.25,163.8L629.69,163.8L629.88,151.38L635.5,151.38L635.69,136.86L640,136.86" style="vector-effect: none; fill: none; stroke: rgb(31, 119, 180); stroke-opacity: 1; stroke-width: 2px; opacity: 1;"/></g><g class="points"/><g class="text"/></g></g></g><g class="overplot"/><path class="xlines-above crisp" d="M0,0" style="fill: none;"/><path class="ylines-above crisp" d="M0,0" style="fill: none;"/><g class="overlines-above"/><g class="xaxislayer-above"><g class="xtick"><text text-anchor="middle" x="0" y="333" transform="translate(118.3,0)" style="font-family: 'Open Sans', verdana, arial, sans-serif; font-size: 12px; fill: rgb(214, 223, 239); fill-opacity: 1; white-space: pre; opacity: 1;">2016</text></g><g class="xtick"><text text-anchor="middle" x="0" y="333" style="font-family: 'Open Sans', verdana, arial, sans-serif; font-size: 12px; fill: rgb(214, 223, 239); fill-opacity: 1; white-space: pre; opacity: 1;" transform="translate(255.33,0)">2018</text></g><g class="xtick"><text text-anchor="middle" x="0" y="333" style="font-family: 'Open Sans', verdana, arial, sans-serif; font-size: 12px; fill: rgb(214, 223, 239); fill-opacity: 1; white-space: pre; opacity: 1;" transform="translate(392.18,0)">2020</text></g><g class="xtick"><text text-anchor="middle" x="0" y="333" style="font-family: 'Open Sans', verdana, arial, sans-serif; font-size: 12px; fill: rgb(214, 223, 239); fill-opacity: 1; white-space: pre; opacity: 1;" transform="translate(529.21,0)">2022</text></g><g class="xtick"><text text-anchor="middle" x="0" y="333" style="font-family: 'Open Sans', verdana, arial, sans-serif; font-size: 12px; fill: rgb(214, 223, 239); fill-opacity: 1; white-space: pre; opacity: 1;" transform="translate(666.06,0)">2024</text></g></g><g class="yaxislayer-above"><g class="ytick"><text text-anchor="end" x="29" y="4.199999999999999" transform="translate(0,315.5)" style="font-family: 'Open Sans', verdana, arial, sans-serif; font-size: 12px; fill: rgb(214, 223, 239); fill-opacity: 1; white-space: pre; opacity: 1;">30</text></g><g class="ytick"><text text-anchor="end" x="29" y="4.199999999999999" style="font-family: 'Open Sans', verdana, arial, sans-serif; font-size: 12px; fill: rgb(214, 223, 239); fill-opacity: 1; white-space: pre; opacity: 1;" transform="translate(0,276.73)">40</text></g><g class="ytick"><text text-anchor="end" x="29" y="4.199999999999999" style="font-family: 'Open Sans', verdana, arial, sans-serif; font-size: 12px; fill: rgb(214, 223, 239); fill-opacity: 1; white-space: pre; opacity: 1;" transform="translate(0,237.95)">50</text></g><g class="ytick"><text text-anchor="end" x="29" y="4.199999999999999" style="font-family: 'Open Sans', verdana, arial, sans-serif; font-size: 12px; fill: rgb(214, 223, 239); fill-opacity: 1; white-space: pre; opacity: 1;" transform="translate(0,199.18)">60</text></g><g class="ytick"><text text-anchor="end" x="29" y="4.199999999999999" style="font-family: 'Open Sans', verdana, arial, sans-serif; font-size: 12px; fill: rgb(214, 223, 239); fill-opacity: 1; white-space: pre; opacity: 1;" transform="translate(0,160.41)">70</text></g><g class="ytick"><text text-anchor="end" x="29" y="4.199999999999999" style="font-family: 'Open Sans', verdana, arial, sans-serif; font-size: 12px; fill: rgb(214, 223, 239); fill-opacity: 1; white-space: pre; opacity: 1;" transform="translate(0,121.64)">80</text></g><g class="ytick"><text text-anchor="end" x="29" y="4.199999999999999" style="font-family: 'Open Sans', verdana, arial, sans-serif; font-size: 12px; fill: rgb(214, 223, 239); fill-opacity: 1; white-space: pre; opacity: 1;" transform="translate(0,82.87)">90</text></g></g><g class="overaxes-above"/></g></g><g class="polarlayer"/><g class="smithlayer"/><g class="ternarylayer"/><g class="geolayer"/><g class="funnelarealayer"/><g class="pielayer"/><g class="iciclelayer"/><g class="treemaplayer"/><g class="sunburstlayer"/><g class="glimages"/><defs id="topdefs-b55031"><g class="clips"/><clipPath id="legendb55031"><rect width="68" height="29" x="0" y="0"/></clipPath></defs><g class="layer-above"><g class="imagelayer"/><g class="shapelayer"/></g><g class="infolayer"><g class="legend" pointer-events="all" transform="translate(602,11.519999999999996)"><rect class="bg" shape-rendering="crispEdges" style="stroke: rgb(68, 68, 68); stroke-opacity: 1; fill: rgb(33, 34, 38); fill-opacity: 1; stroke-width: 0px;" width="68" height="29" x="0" y="0"/><g class="scrollbox" transform="" clip-path="url(#legendb55031)"><g class="groups"><g class="traces" transform="translate(0,14.5)" style="opacity: 1;"><text class="legendtext" text-anchor="start" x="40" y="4.680000000000001" style="font-family: 'Open Sans', verdana, arial, sans-serif; font-size: 12px; fill: rgb(214, 223, 239); fill-opacity: 1; white-space: pre;">real</text><g class="layers" style="opacity: 1;"><g class="legendfill"/><g class="legendlines"><path class="js-line" d="M5,0h30" style="fill: none; stroke: rgb(31, 119, 180); stroke-opacity: 1; stroke-width: 2px;"/></g><g class="legendsymbols"><g class="legendpoints"/></g></g><rect class="legendtoggle" x="0" y="-9.5" width="65.28125" height="19" style="fill: rgb(0, 0, 0); fill-opacity: 0;"/></g></g></g><rect class="scrollbar" rx="20" ry="3" width="0" height="0" style="fill: rgb(128, 139, 164); fill-opacity: 1;" x="0" y="0"/></g><g class="g-gtitle"/><g class="g-xtitle"/><g class="g-ytitle"/></g></svg>