<svg class="main-svg" xmlns="http://www.w3.org/2000/svg" xmlns:xlink="http://www.w3.org/1999/xlink" width="700" height="350" style="" viewBox="0 0 700 350"><rect x="0" y="0" width="700" height="350" style="fill: rgb(33, 34, 38); fill-opacity: 1;"/><defs id="defs-e17a7f"><g class="clips"><clipPath id="clipe17a7fxyplot" class="plotclip"><rect width="628" height="274"/></clipPath><clipPath class="axesclip" id="clipe17a7fx"><rect x="42" y="0" width="628" height="350"/></clipPath><clipPath class="axesclip" id="clipe17a7fy"><rect x="0" y="46" width="700" height="274"/></clipPath><clipPath class="axesclip" id="clipe17a7fxy"><rect x="42" y="46" width="628" height="274"/></clipPath></g><g class="gradients"/><g class="patterns"/></defs><g class="bglayer"/><g class="layer-below"><g class="imagelayer"/><g class="shapelayer"/></g><g class="cartesianlayer"><g class="subplot xy"><g class="layer-subplot"><g class="shapelayer"/><g class="imagelayer"/></g><g class="minor-gridlayer"><g class="x"/><g class="y"/></g><g class="gridlayer"><g class="x"><path class="xgrid crisp" transform="translate(143.79000000000002,0)" d="M0,46v274" style="stroke: rgb(49, 52, 57); stroke-opacity: 1; stroke-width: 1px;"/><path class="xgrid crisp" transform="translate(249.03,0)" d="M0,46v274" style="stroke: rgb(49, 52, 57); stroke-opacity: 1; stroke-width: 1px;"/><path class="xgrid crisp" transform="translate(354.27,0)" d="M0,46v274" style="stroke: rgb(49, 52, 57); stroke-opacity: 1; stroke-width: 1px;"/><path class="xgrid crisp" transform="translate(461.24,0)" d="M0,46v274" style="stroke: rgb(49, 52, 57); stroke-opacity: 1; stroke-width: 1px;"/><path class="xgrid crisp" transform="translate(566.48,0)" d="M0,46v274" style="stroke: rgb(49, 52, 57); stroke-opacity: 1; stroke-width: 1px;"/></g><g class="y"><path class="ygrid crisp" transform="translate(0,293.77)" d="M42,0h628" style="stroke: rgb(49, 52, 57); stroke-opacity: 1; stroke-width: 1px;"/><path class="ygrid crisp" transform="translate(0,248.32)" d="M42,0h628" style="stroke: rgb(49, 52, 57); stroke-opacity: 1; stroke-width: 1px;"/><path class="ygrid crisp" transform="translate(0,157.42000000000002)" d="M42,0h628" style="stroke: rgb(49, 52, 57); stroke-opacity: 1; stroke-width: 1px;"/><path class="ygrid crisp" transform="translate(0,111.97)" d="M42,0h628" style="stroke: rgb(49, 52, 57); stroke-opacity: 1; stroke-width: 1px;"/><path class="ygrid crisp" transform="translate(0,66.51)" d="M42,0h628" style="stroke: rgb(49, 52, 57); stroke-opacity: 1; stroke-width: 1px;"/></g></g><g class="zerolinelayer"><path class="yzl zl crisp" transform="translate(0,202.87)" d="M42,0h628" style="stroke: rgb(49, 52, 57); stroke-opacity: 1; stroke-width: 2px;"/></g><path class="xlines-below"/><path class="ylines-below"/><g class="overlines-below"/><g class="xaxislayer-below"/><g class="yaxislayer-below"/><g class="overaxes-below"/><g class="plot" transform="translate(42,46)" clip-path="url(#clipe17a7fxyplot)"><g class="scatterlayer mlayer"><g class="trace scatter trace71ae7e4b-cd23-4c39-876d-62f475982550" style="stroke-miterlimit: 2; opacity: 1;"><g class="fills"/><g class="errorbars"/><g class="lines"><path class="js-line" d="M1.73,158.5L5.18,165.4L6.9,176.49L8.63,178.44L10.35,186.08L13.8,184.39L15.53,184.82L18.98,174.68L20.7,181.15L22.43,178.73L24.15,178.36L25.88,178.66L27.6,182.78L29.33,182.18L31.05,185.19L32.78,190.26L34.51,210.39L36.23,217.19L37.96,211.25L41.41,208.02L43.13,208.51L44.86,207.14L46.58,204.06L48.31,202.38L50.03,203.43L51.76,200.73" style="vector-effect: none; fill: none; stroke: rgb(31, 119, 180); stroke-opacity: 1; stroke-width: 2px; opacity: 1;"/><path class="js-line" d="M55.21,167.37L56.93,166.19L58.66,140.7L60.38,141.05L62.11,135.35L63.84,126.97L65.56,125.34L67.29,124.05L69.01,128.59L70.74,135.37L72.46,136.33L74.19,136.61L75.91,134.32L77.64,122.66L79.36,126.26L81.09,146.34L82.81,149.32L84.54,148.78L86.26,158.7L87.99,166.65L89.71,159.55L91.44,165.36L93.16,159.28L94.89,154.11L96.62,154.75L98.34,162.93L100.07,130.77" style="vector-effect: none; fill: none; stroke: rgb(31, 119, 180); stroke-opacity: 1; stroke-width: 2px; opacity: 1;"/><path class="js-line" d="M103.52,159.08L105.24,166.62L106.97,183.6L108.69,182.25L110.42,187.28L112.14,189.11L113.87,185.65L115.59,169.02L117.32,182.06L119.04,185.36L120.77,184.8L122.49,190.2L124.22,180.89L125.95,182.57L127.67,173.32L129.4,174.31L131.12,169.95L132.85,167.96L134.57,172.79L136.3,173.66L138.02,167.1L139.75,164.36L141.47,158.89L143.2,156.9L144.92,156.12L146.65,144.24L148.37,142.66L150.1,140.93L151.82,143L153.55,150.8" style="vector-effect: none; fill: none; stroke: rgb(31, 119, 180); stroke-opacity: 1; stroke-width: 2px; opacity: 1;"/><path class="js-line" d="M157,158.9L158.73,156.03L160.45,155.2L162.18,160.43L163.9,171.97L165.63,170.51L167.35,176.48L169.08,174.05L170.8,176.88L172.53,190.06L174.25,187.09L175.98,181.99L177.7,188.03L179.43,185L181.15,185.63L182.88,189.11L184.6,183.66L186.33,180.34L188.05,180.97L191.51,188.99L193.23,190.24L194.96,190.32L196.68,185.47L198.41,196.96L200.13,191.44L201.86,188.83L203.58,194.54L205.31,198.94" style="vector-effect: none; fill: none; stroke: rgb(31, 119, 180); stroke-opacity: 1; stroke-width: 2px; opacity: 1;"/><path class="js-line" d="M208.76,156.51L210.48,161.12L212.21,149.61L213.93,168.06L215.66,171.22L217.38,174.4L219.11,182.92L220.84,205.15L222.56,200.86L224.29,213.19L226.01,212.53L227.74,211.14L229.46,206.3L231.19,199.19L232.91,207.71L234.64,204.39L236.36,214.46L238.09,205.05L239.81,211.62L241.54,210.26L243.26,204.99L244.99,212.23L246.71,208.94L248.44,209.49L250.16,211.23L251.89,215.01L253.62,213.9L255.34,210.18L257.07,196.7L258.79,196.31" style="vector-effect: none; fill: none; stroke: rgb(31, 119, 180); stroke-opacity: 1; stroke-width: 2px; opacity: 1;"/><path class="js-line" d="M262.24,151.77L263.97,157.59L265.69,156.61L267.42,156.05L269.14,144.89L270.87,146.53L272.59,153.7L274.32,154.48L276.04,162.33L277.77,167.84L279.49,180.03L281.22,212.63L282.95,214.77L284.67,211.98L286.4,228.69L288.12,228.01L289.85,239.09L291.57,227.38L293.3,227.03L295.02,226.18L296.75,231.7L298.47,223.32L300.2,222.21L301.92,220.15L303.65,223.77L305.37,225.99L307.1,229.46L308.82,230.81L310.55,233.24" style="vector-effect: none; fill: none; stroke: rgb(31, 119, 180); stroke-opacity: 1; stroke-width: 2px; opacity: 1;"/><path class="js-line" d="M314,157.19L315.73,156.54L317.45,145.53L319.18,146.01L320.9,141.79L322.63,128.94L324.35,127.84L326.08,129.48L327.8,138.11L331.25,156.23L332.98,145.75L338.15,134.22L339.88,139.06L341.6,118.94L343.33,108.28L346.78,110.93L348.51,116.23L350.23,119.18L351.96,117.48L353.68,132.19L355.41,133.63L357.13,113.69L358.86,102.92L360.58,103.38L362.31,105.13L364.03,108.9" style="vector-effect: none; fill: none; stroke: rgb(31, 119, 180); stroke-opacity: 1; stroke-width: 2px; opacity: 1;"/><path class="js-line" d="M367.48,160.15L370.93,163.53L372.66,157.11L374.38,160.31L376.11,158.22L377.84,152.04L379.56,158.33L381.29,150.7L383.01,150.6L384.74,146.26L386.46,146.05L389.91,148.85L391.64,151.32L393.36,156.66L395.09,157.86L396.81,180.62L398.54,177.81L400.26,174.22L401.99,175.54L403.71,174.28L405.44,175.58L407.16,173.57L408.89,186.64L410.62,188.77L412.34,192.91L414.07,186.27L415.79,191.16L417.52,188.69" style="vector-effect: none; fill: none; stroke: rgb(31, 119, 180); stroke-opacity: 1; stroke-width: 2px; opacity: 1;"/><path class="js-line" d="M420.97,158.65L422.69,160.2L424.42,158.46L426.14,160.42L427.87,171.43L429.59,166.32L431.32,165.87L433.04,142.71L434.77,139.33L436.49,138.33L438.22,131.54L439.95,154.96L441.67,155.58L443.4,161.68L445.12,160.87L446.85,156.87L448.57,164.86L450.3,163.45L452.02,170.83L453.75,174.71L455.47,164.93L457.2,166.24L458.92,170.31L460.65,171.83L462.37,167.08L464.1,168.35L465.82,164.78L467.55,163.13L469.27,164.72" style="vector-effect: none; fill: none; stroke: rgb(31, 119, 180); stroke-opacity: 1; stroke-width: 2px; opacity: 1;"/><path class="js-line" d="M472.73,160.02L476.18,144.81L477.9,146.88L479.63,149.3L481.35,154.11L483.08,155.64L484.8,155.29L486.53,158.88L488.25,159.94L489.98,158.69L491.7,156.04L495.15,159.75L496.88,157.39L498.6,154.06L500.33,156.61L502.05,158.9L503.78,159.91L505.51,158.51L507.23,158.09L508.96,153.87L510.68,156.48L514.13,139.71L515.86,145.41L519.31,139.14L521.03,141.3L522.76,142.94" style="vector-effect: none; fill: none; stroke: rgb(31, 119, 180); stroke-opacity: 1; stroke-width: 2px; opacity: 1;"/><path class="js-line" d="M526.21,160.48L527.93,159.92L529.66,149.53L531.38,148.02L533.11,151.98L534.84,155.57L536.56,178.44L538.29,207.95L540.01,189.03L541.74,195.16L543.46,197.76L545.19,202.71L546.91,199.77L548.64,196.82L550.36,199.2L555.54,198.74L557.26,203.39L558.99,208.99L560.71,204.52L562.44,199.85L564.16,199.92L567.62,201.48L569.34,201.7L571.07,204.22L572.79,201.69L574.52,193.67" style="vector-effect: none; fill: none; stroke: rgb(31, 119, 180); stroke-opacity: 1; stroke-width: 2px; opacity: 1;"/><path class="js-line" d="M577.97,155.24L579.69,157.66L581.42,154.68L583.14,156.77L584.87,155.23L586.59,158.46L588.32,153.3L590.04,154.65L591.77,154.71L593.49,155.03L595.22,153.67L596.95,145.97L598.67,145.51L600.4,151.54L602.12,161.15L603.85,159.18L605.57,159.67L607.3,163.94L609.02,157.69L610.75,158.87L612.47,158.7L614.2,159.15L615.92,158.47L617.65,158.55L619.37,157.5L622.82,162.42L624.55,161.22L628,162.49" style="vector-effect: none; fill: none; stroke: rgb(31, 119, 180); stroke-opacity: 1; stroke-width: 2px; opacity: 1;"/></g><g class="points"/><g class="text"/></g><g class="trace scatter trace6d023fcd-1bc3-4fad-a2b2-86c6f01c384c" style="stroke-miterlimit: 2; opacity: 1;"><g class="fills"/><g class="errorbars"/><g class="lines"><path class="js-line" d="M1.73,153.26L3.45,157.37L5.18,155.4L6.9,170.09L8.63,178.05L10.35,191.62L12.08,197.73L13.8,193.76L15.53,198.26L18.98,180.83L20.7,188.3L22.43,184.58L24.15,183.35L25.88,182.12L27.6,190.47L31.05,197.5L32.78,203.21L34.51,229.92L36.23,239.13L37.96,231.3L39.68,237.01L43.13,235.34L44.86,238.06L46.58,230.58L48.31,227.56L50.03,227.18L51.76,222.07" style="vector-effect: none; fill: none; stroke: rgb(255, 127, 14); stroke-opacity: 1; stroke-width: 2px; opacity: 1;"/><path class="js-line" d="M55.21,165.76L56.93,166.06L58.66,141.29L62.11,135.27L63.84,128.35L65.56,129.97L67.29,120.46L70.74,145.86L72.46,146.68L74.19,149.44L75.91,145.36L77.64,125.31L79.36,129.55L81.09,149.6L82.81,157.39L84.54,159.18L86.26,170.18L87.99,174.64L89.71,169.31L91.44,173.29L93.16,172.67L94.89,159.12L96.62,157.77L98.34,170.73L100.07,146.53" style="vector-effect: none; fill: none; stroke: rgb(255, 127, 14); stroke-opacity: 1; stroke-width: 2px; opacity: 1;"/><path class="js-line" d="M103.52,158.58L105.24,167.42L106.97,184.04L108.69,180.39L110.42,188.79L112.14,193.16L113.87,187.13L115.59,175.43L117.32,184.73L119.04,188.44L120.77,187.28L122.49,191.55L124.22,186.06L125.95,183.81L127.67,172.19L129.4,168.92L131.12,158.95L132.85,158.88L134.57,165.44L136.3,162.57L138.02,156.82L141.47,146.51L143.2,146.61L144.92,143.82L146.65,132.47L150.1,124.03L151.82,125.32L153.55,133.23" style="vector-effect: none; fill: none; stroke: rgb(255, 127, 14); stroke-opacity: 1; stroke-width: 2px; opacity: 1;"/><path class="js-line" d="M157,157.17L158.73,152.04L160.45,152.15L162.18,159.36L163.9,175.18L165.63,171.12L167.35,173.83L169.08,169.23L170.8,172.53L172.53,187.74L174.25,184.49L175.98,178.69L177.7,185.18L181.15,182.38L182.88,186.92L186.33,179.63L188.05,181.37L189.78,187.31L191.51,188.8L194.96,191.58L196.68,185.87L198.41,199.12L200.13,193.81L201.86,190.64L203.58,198.64L205.31,204.26" style="vector-effect: none; fill: none; stroke: rgb(255, 127, 14); stroke-opacity: 1; stroke-width: 2px; opacity: 1;"/><path class="js-line" d="M208.76,154.49L210.48,160.43L212.21,147.8L213.93,163.18L215.66,167.54L217.38,172.27L219.11,181.81L220.84,203.67L222.56,195.79L224.29,217.6L226.01,226.47L229.46,218.87L231.19,211.69L232.91,221.57L234.64,216.13L236.36,230.09L238.09,221.92L239.81,226.5L241.54,225.44L243.26,219.93L244.99,225.63L246.71,225.08L248.44,227.83L250.16,239.15L251.89,245.5L253.62,242.85L255.34,238.5L257.07,223.68L258.79,228.03" style="vector-effect: none; fill: none; stroke: rgb(255, 127, 14); stroke-opacity: 1; stroke-width: 2px; opacity: 1;"/><path class="js-line" d="M262.24,155.55L263.97,162.91L265.69,159.61L267.42,159.16L269.14,152.42L270.87,158.06L272.59,160.61L274.32,161.08L276.04,176.63L279.49,204.02L281.22,234.01L282.95,233.13L284.67,230.44L286.4,251.07L288.12,248.72L289.85,260.3L291.57,243.6L295.02,243.95L296.75,253.1L300.2,231.24L301.92,229.17L303.65,234.6L305.37,235.37L310.55,251.12" style="vector-effect: none; fill: none; stroke: rgb(255, 127, 14); stroke-opacity: 1; stroke-width: 2px; opacity: 1;"/><path class="js-line" d="M314,155.42L315.73,153.87L317.45,137.29L319.18,140.84L320.9,129.59L322.63,118.74L324.35,121.97L326.08,123.16L327.8,133.57L331.25,161.5L332.98,145.33L334.7,128.62L336.43,119.69L338.15,94.07L339.88,97.07L341.6,45.59L343.33,53.25L345.05,58.13L346.78,46.01L348.51,54.44L350.23,51.89L351.96,41.13L353.68,74.18L355.41,74.95L357.13,33.25L358.86,14.12L360.58,13.7L362.31,20.44L364.03,23.54" style="vector-effect: none; fill: none; stroke: rgb(255, 127, 14); stroke-opacity: 1; stroke-width: 2px; opacity: 1;"/><path class="js-line" d="M367.48,157.18L370.93,160.62L372.66,143.38L374.38,149.02L376.11,147.95L377.84,137.37L379.56,147.44L381.29,126.78L383.01,122.68L384.74,112.11L386.46,108.76L389.91,119.48L391.64,123.11L393.36,129.38L395.09,127.43L396.81,159.96L398.54,164.96L400.26,159.08L401.99,158.63L403.71,153.04L405.44,153.83L407.16,148.36L408.89,174.58L410.62,176.86L412.34,185.31L414.07,168.29L415.79,172.35L417.52,168.2" style="vector-effect: none; fill: none; stroke: rgb(255, 127, 14); stroke-opacity: 1; stroke-width: 2px; opacity: 1;"/><path class="js-line" d="M420.97,158.15L422.69,161.07L424.42,158.09L426.14,152.43L427.87,160.37L429.59,150.61L431.32,149.83L434.77,129.64L436.49,131.71L438.22,138.59L439.95,157.64L441.67,149.91L443.4,173.27L445.12,178.9L446.85,173.55L448.57,192.81L450.3,186.76L453.75,204.66L455.47,193.91L457.2,193.82L458.92,195.29L460.65,198.7L462.37,192.81L464.1,193.56L465.82,192.51L467.55,192.76L469.27,193.86" style="vector-effect: none; fill: none; stroke: rgb(255, 127, 14); stroke-opacity: 1; stroke-width: 2px; opacity: 1;"/><path class="js-line" d="M472.73,163.03L476.18,148.12L477.9,149.73L479.63,149.93L481.35,153.25L483.08,156.2L484.8,154.97L486.53,160.39L488.25,162.43L489.98,159.77L491.7,160.95L493.43,159.33L495.15,163.24L498.6,153.39L500.33,157.08L502.05,161.36L503.78,161.8L507.23,156.41L508.96,147.9L510.68,151.09L512.41,130.88L514.13,112.7L515.86,121.75L517.58,114.62L519.31,103.5L522.76,111.64" style="vector-effect: none; fill: none; stroke: rgb(255, 127, 14); stroke-opacity: 1; stroke-width: 2px; opacity: 1;"/><path class="js-line" d="M526.21,165.5L527.93,163.8L529.66,147.46L531.38,149.93L533.11,157.95L534.84,158.47L536.56,192.39L538.29,225.86L540.01,197.19L541.74,198.95L543.46,203.54L545.19,208.36L546.91,205.51L548.64,204.05L550.36,209.25L552.09,211.38L553.81,209.73L555.54,208.85L557.26,219.77L558.99,224.68L560.71,220.82L562.44,213.91L564.16,210.92L565.89,211.65L567.62,210.65L569.34,212.2L571.07,215.8L572.79,209.06L574.52,197.73" style="vector-effect: none; fill: none; stroke: rgb(255, 127, 14); stroke-opacity: 1; stroke-width: 2px; opacity: 1;"/><path class="js-line" d="M577.97,153.66L579.69,162.74L581.42,156.16L583.14,159.83L584.87,157.69L586.59,164.68L588.32,156.01L590.04,159.01L591.77,158.63L593.49,159.08L595.22,157.17L596.95,148.99L598.67,150.98L600.4,158.64L602.12,176.1L603.85,172.56L605.57,173.17L607.3,176.22L609.02,167.3L610.75,168.03L612.47,167.21L615.92,166.69L617.65,167.08L619.37,165.65L621.1,168.17L622.82,172.24L624.55,170.17L628,171.03" style="vector-effect: none; fill: none; stroke: rgb(255, 127, 14); stroke-opacity: 1; stroke-width: 2px; opacity: 1;"/></g><g class="points"/><g class="text"/></g></g></g><g class="overplot"/><path class="xlines-above crisp" d="M0,0" style="fill: none;"/><path class="ylines-above crisp" d="M0,0" style="fill: none;"/><g class="overlines-above"/><g class="xaxislayer-above"><g class="xtick"><text text-anchor="middle" x="0" y="333" transform="translate(42,0)" style="font-family: 'Open Sans', verdana, arial, sans-serif; font-size: 12px; fill: rgb(214, 223, 239); fill-opacity: 1; white-space: pre; opacity: 1;">Jan 2022</text></g><g class="xtick"><text text-anchor="middle" x="0" y="333" style="font-family: 'Open Sans', verdana, arial, sans-serif; font-size: 12px; fill: rgb(214, 223, 239); fill-opacity: 1; white-space: pre; opacity: 1;" transform="translate(143.79000000000002,0)">Mar 2022</text></g><g class="xtick"><text text-anchor="middle" x="0" y="333" style="font-family: 'Open Sans', verdana, arial, sans-serif; font-size: 12px; fill: rgb(214, 223, 239); fill-opacity: 1; white-space: pre; opacity: 1;" transform="translate(249.03,0)">May 2022</text></g><g class="xtick"><text text-anchor="middle" x="0" y="333" style="font-family: 'Open Sans', verdana, arial, sans-serif; font-size: 12px; fill: rgb(214, 223, 239); fill-opacity: 1; white-space: pre; opacity: 1;" transform="translate(354.27,0)">Jul 2022</text></g><g class="xtick"><text text-anchor="middle" x="0" y="333" style="font-family: 'Open Sans', verdana, arial, sans-serif; font-size: 12px; fill: rgb(214, 223, 239); fill-opacity: 1; white-space: pre; opacity: 1;" transform="translate(461.24,0)">Sep 2022</text></g><g class="xtick"><text text-anchor="middle" x="0" y="333" style="font-family: 'Open Sans', verdana, arial, sans-serif; font-size: 12px; fill: rgb(214, 223, 239); fill-opacity: 1; white-space: pre; opacity: 1;" transform="translate(566.48,0)">Nov 2022</text></g></g><g class="yaxislayer-above"><g class="ytick"><text text-anchor="end" x="41" y="4.199999999999999" transform="translate(0,293.77)" style="font-family: 'Open Sans', verdana, arial, sans-serif; font-size: 12px; fill: rgb(214, 223, 239); fill-opacity: 1; white-space: pre; opacity: 1;">−0.4</text></g><g class="ytick"><text text-anchor="end" x="41" y="4.199999999999999" style="font-family: 'Open Sans', verdana, arial, sans-serif; font-size: 12px; fill: rgb(214, 223, 239); fill-opacity: 1; white-space: pre; opacity: 1;" transform="translate(0,248.32)">−0.2</text></g><g class="ytick"><text text-anchor="end" x="41" y="4.199999999999999" style="font-family: 'Open Sans', verdana, arial, sans-serif; font-size: 12px; fill: rgb(214, 223, 239); fill-opacity: 1; white-space: pre; opacity: 1;" transform="translate(0,202.87)">0</text></g><g class="ytick"><text text-anchor="end" x="41" y="4.199999999999999" style="font-family: 'Open Sans', verdana, arial, sans-serif; font-size: 12px; fill: rgb(214, 223, 239); fill-opacity: 1; white-space: pre; opacity: 1;" transform="translate(0,157.42000000000002)">0.2</text></g><g class="ytick"><text text-anchor="end" x="41" y="4.199999999999999" style="font-family: 'Open Sans', verdana, arial, sans-serif; font-size: 12px; fill: rgb(214, 223, 239); fill-opacity: 1; white-space: pre; opacity: 1;" transform="translate(0,111.97)">0.4</text></g><g class="ytick"><text text-anchor="end" x="41" y="4.199999999999999" style="font-family: 'Open Sans', verdana, arial, sans-serif; font-size: 12px; fill: rgb(214, 223, 239); fill-opacity: 1; white-space: pre; opacity: 1;" transform="translate(0,66.51)">0.6</text></g></g><g class="overaxes-above"/></g></g><g class="polarlayer"/><g class="smithlayer"/><g class="ternarylayer"/><g class="geolayer"/><g class="funnelarealayer"/><g class="pielayer"/><g class="iciclelayer"/><g class="treemaplayer"/><g class="sunburstlayer"/><g class="glimages"/><defs id="topdefs-e17a7f"><g class="clips"/><clipPath id="legende17a7f"><rect width="202" height="29" x="0" y="0"/></clipPath></defs><g class="layer-above"><g class="imagelayer"/><g class="shapelayer"/></g><g class="infolayer"><g class="legend" pointer-events="all" transform="translate(468,11.519999999999996)"><rect class="bg" shape-rendering="crispEdges" style="stroke: rgb(68, 68, 68); stroke-opacity: 1; fill: rgb(33, 34, 38); fill-opacity: 1; stroke-width: 0px;" width="202" height="29" x="0" y="0"/><g class="scrollbox" transform="" clip-path="url(#legende17a7f)"><g class="groups"><g class="traces" transform="translate(0,14.5)" style="opacity: 1;"><text class="legendtext" text-anchor="start" x="40" y="4.680000000000001" style="font-family: 'Open Sans', verdana, arial, sans-serif; font-size: 12px; fill: rgb(214, 223, 239); fill-opacity: 1; white-space: pre;">BTC-USD</text><g class="layers" style="opacity: 1;"><g class="legendfill"/><g class="legendlines"><path class="js-line" d="M5,0h30" style="fill: none; stroke: rgb(31, 119, 180); stroke-opacity: 1; stroke-width: 2px;"/></g><g class="legendsymbols"><g class="legendpoints"/></g></g><rect class="legendtoggle" x="0" y="-9.5" width="98.1875" height="19" style="fill: rgb(0, 0, 0); fill-opacity: 0;"/></g><g class="traces" transform="translate(100.6875,14.5)" style="opacity: 1;"><text class="legendtext" text-anchor="start" x="40" y="4.680000000000001" style="font-family: 'Open Sans', verdana, arial, sans-serif; font-size: 12px; fill: rgb(214, 223, 239); fill-opacity: 1; white-space: pre;">ETH-USD</text><g class="layers" style="opacity: 1;"><g class="legendfill"/><g class="legendlines"><path class="js-line" d="M5,0h30" style="fill: none; stroke: rgb(255, 127, 14); stroke-opacity: 1; stroke-width: 2px;"/></g><g class="legendsymbols"><g class="legendpoints"/></g></g><rect class="legendtoggle" x="0" y="-9.5" width="98.1875" height="19" style="fill: rgb(0, 0, 0); fill-opacity: 0;"/></g></g></g><rect class="scrollbar" rx="20" ry="3" width="0" height="0" style="fill: rgb(128, 139, 164); fill-opacity: 1;" x="0" y="0"/></g><g class="g-gtitle"/><g class="g-xtitle"/><g class="g-ytitle"/></g></svg>