<svg class="main-svg" xmlns="http://www.w3.org/2000/svg" xmlns:xlink="http://www.w3.org/1999/xlink" width="700" height="350" style="" viewBox="0 0 700 350"><rect x="0" y="0" width="700" height="350" style="fill: rgb(33, 34, 38); fill-opacity: 1;"/><defs id="defs-fd25fc"><g class="clips"><clipPath id="clipfd25fcxyplot" class="plotclip"><rect width="630" height="274"/></clipPath><clipPath class="axesclip" id="clipfd25fcx"><rect x="40" y="0" width="630" height="350"/></clipPath><clipPath class="axesclip" id="clipfd25fcy"><rect x="0" y="46" width="700" height="274"/></clipPath><clipPath class="axesclip" id="clipfd25fcxy"><rect x="40" y="46" width="630" height="274"/></clipPath></g><g class="gradients"/><g class="patterns"/></defs><g class="bglayer"/><g class="layer-below"><g class="imagelayer"/><g class="shapelayer"><g class="shape-group" data-index="0" clip-path="url(#clipfd25fcx)"><path data-index="0" fill-rule="evenodd" d="M251.92,320H338.3V46H251.92Z" style="opacity: 0.15; stroke: rgb(0, 0, 0); stroke-opacity: 0; fill: rgb(66, 133, 244); fill-opacity: 1; stroke-width: 0px;"/></g><g class="shape-group" data-index="1" clip-path="url(#clipfd25fcx)"><path data-index="1" fill-rule="evenodd" d="M368.24,320H425.83V46H368.24Z" style="opacity: 0.15; stroke: rgb(0, 0, 0); stroke-opacity: 0; fill: rgb(66, 133, 244); fill-opacity: 1; stroke-width: 0px;"/></g><g class="shape-group" data-index="2" clip-path="url(#clipfd25fcx)"><path data-index="2" fill-rule="evenodd" d="M430.44,320H506.45V46H430.44Z" style="opacity: 0.15; stroke: rgb(0, 0, 0); stroke-opacity: 0; fill: rgb(66, 133, 244); fill-opacity: 1; stroke-width: 0px;"/></g></g></g><g class="cartesianlayer"><g class="subplot xy"><g class="layer-subplot"><g class="shapelayer"/><g class="imagelayer"/></g><g class="minor-gridlayer"><g class="x"/><g class="y"/></g><g class="gridlayer"><g class="x"><path class="xgrid crisp" transform="translate(144.23000000000002,0)" d="M0,46v274" style="stroke: rgb(49, 52, 57); stroke-opacity: 1; stroke-width: 1px;"/><path class="xgrid crisp" transform="translate(250.19,0)" d="M0,46v274" style="stroke: rgb(49, 52, 57); stroke-opacity: 1; stroke-width: 1px;"/><path class="xgrid crisp" transform="translate(354.42,0)" d="M0,46v274" style="stroke: rgb(49, 52, 57); stroke-opacity: 1; stroke-width: 1px;"/><path class="xgrid crisp" transform="translate(460.38,0)" d="M0,46v274" style="stroke: rgb(49, 52, 57); stroke-opacity: 1; stroke-width: 1px;"/><path class="xgrid crisp" transform="translate(564.62,0)" d="M0,46v274" style="stroke: rgb(49, 52, 57); stroke-opacity: 1; stroke-width: 1px;"/></g><g class="y"><path class="ygrid crisp" transform="translate(0,250.57)" d="M40,0h630" style="stroke: rgb(49, 52, 57); stroke-opacity: 1; stroke-width: 1px;"/><path class="ygrid crisp" transform="translate(0,184.3)" d="M40,0h630" style="stroke: rgb(49, 52, 57); stroke-opacity: 1; stroke-width: 1px;"/><path class="ygrid crisp" transform="translate(0,118.03)" d="M40,0h630" style="stroke: rgb(49, 52, 57); stroke-opacity: 1; stroke-width: 1px;"/><path class="ygrid crisp" transform="translate(0,51.76)" d="M40,0h630" style="stroke: rgb(49, 52, 57); stroke-opacity: 1; stroke-width: 1px;"/></g></g><g class="zerolinelayer"><path class="yzl zl crisp" transform="translate(0,316.85)" d="M40,0h630" style="stroke: rgb(49, 52, 57); stroke-opacity: 1; stroke-width: 2px;"/></g><path class="xlines-below"/><path class="ylines-below"/><g class="overlines-below"/><g class="xaxislayer-below"/><g class="yaxislayer-below"/><g class="overaxes-below"/><g class="plot" transform="translate(40,46)" clip-path="url(#clipfd25fcxyplot)"><g class="scatterlayer mlayer"><g class="trace scatter trace4cedc8ef-220e-4826-878e-53d0b56f93cc" style="stroke-miterlimit: 2; opacity: 1;"><g class="fills"/><g class="errorbars"/><g class="lines"><path class="js-line" d="M0,257.77L1.73,256.01L2.3,257.08L3.46,259.18L4.03,258.73L5.18,258.81L5.76,259.98L6.91,260.1L7.49,259.95L8.64,259.86L9.21,259.14L17.85,257.82L18.43,257.55L21.31,256.87L21.88,256.8L23.61,257.61L24.19,257.59L25.91,257.51L26.49,257.29L32.82,255.27L33.4,255.18L36.28,254.18L36.86,254L39.16,255.54L39.73,255.44L41.46,254.47L42.04,254.32L43.19,255.91L43.77,257.39L46.07,256.78L46.65,257.04L47.8,258.24L48.37,257.91L50.1,257.1L50.68,257.17L55.28,255.26L55.86,255.28L58.74,255.24L59.31,255.3L65.07,254.45L65.65,254.13L69.1,252.27L69.68,251.66L73.14,248.56L73.71,247.41L74.29,247.45L74.86,246.64L76.01,247.57L76.59,246.91L77.74,247.84L78.32,247.14L81.77,240.72L82.35,238.64L82.93,238.36L83.5,240.59L84.08,243.65L84.65,242.23L85.8,241.68L86.38,241.05L88.11,237.62L88.68,237.49L89.84,233.05L90.41,234.17L90.99,234.21L91.56,233.2L92.71,231.99L93.29,234.73L93.87,234.81L94.44,236.8L95.02,238.98L95.59,237.96L96.17,236.27L96.75,236.71L97.32,236.38L98.47,234.96L99.05,235.19L99.63,234.54L100.2,235.72L101.93,237.98L102.5,236.99L103.66,237.63L104.23,238.29L105.38,237.09L105.96,236.42L107.11,236.35L107.69,235.79L109.99,239.71L110.57,239.49L111.14,239.37L111.72,240.89L112.87,245.08L113.45,242.61L116.33,234.04L116.9,234.54L117.48,234.48L118.05,236.27L118.63,237.31L119.2,235.97L119.78,233.79L120.36,234.49L120.93,234.79L121.51,233.36L122.08,234.06L122.66,234.87L123.24,234.16L123.81,233.12L124.39,229.24L126.12,225.56L126.69,226.61L127.27,225.98L127.84,223.56L129.57,215L130.15,215.43L131.3,213.15L131.87,215.42L134.18,218.25L134.75,215.68L135.9,212.82L136.48,213.41L137.63,213.36L138.21,210.95L139.36,209.04L139.94,206.95L142.24,214.28L142.82,210.8L143.39,210.11L143.97,213.57L145.12,216.42L145.69,215.52L146.27,215.35L146.85,218.69L147.42,225.65L148,225.26L148.57,222.59L149.15,223.6L149.73,219L150.88,218.73L151.45,221.54L152.03,222.5L152.61,221.34L153.18,221.6L153.76,219.78L154.33,219.01L154.91,216.52L155.48,215.34L156.06,215.99L157.79,212.28L158.36,213.37L159.52,214.05L160.09,212.95L160.67,212.56L161.24,210.58L162.39,206.92L162.97,207L164.7,194.59L165.27,195.7L165.85,195.54L166.43,196.28L167,198.63L167.58,195.81L168.73,190.47L169.31,191.86L169.88,192.48L170.46,195.89L171.03,196.17L171.61,193.08L172.76,194.33L173.34,190.73L173.91,189.61L174.49,186.72L176.79,174.07L177.37,172.07L178.52,176.21L179.1,172.1L180.25,180.86L180.82,184.98L181.4,190.91L181.97,185.95L183.13,176.77L183.7,169.16L184.28,168.02L184.85,168.62L186.01,162.66L186.58,164.01L187.16,162.02L187.73,163.29L188.31,162.3L188.88,156.98L191.19,133.86L191.76,137.26L194.07,118.88L194.64,113.77L195.8,50.58L196.37,53.22L196.95,69.22L197.52,74.1L198.1,50.58L198.67,42.13L199.25,49.5L199.83,50.67L200.4,39.07L201.55,13.7L202.13,19.72L203.86,55.63L204.43,87.02L205.01,75.87L205.59,88.38L206.16,84.99L206.74,65.01L207.31,59.29L207.89,74.54L208.46,75.38L209.04,94.19L210.77,78.26L211.34,69.3L211.92,68.23L212.5,48.45L213.07,41.09L213.65,49.3L214.8,74.17L215.37,78.05L216.53,88.08L217.1,80.99L217.68,87.27L218.25,85.7L218.83,113.88L219.41,128.28L219.98,118.31L220.56,117.22L221.13,104.47L222.86,127.81L223.44,122.84L224.01,120.18L224.59,123.73L225.74,114.88L226.32,119.08L228.62,157L229.2,152.19L229.77,157.55L230.35,173.31L230.92,175.18L231.5,167.61L233.23,155.8L233.8,161.82L237.26,127.69L237.83,128.46L238.99,118.01L239.56,126.87L240.71,135.99L241.29,138.49L241.86,142.74L242.44,136.79L243.59,130L244.17,127.9L246.47,117.45L247.05,125.16L248.78,150.16L249.35,150.56L250.5,146.7L251.08,148.8L252.23,162.55L252.81,160.71L253.96,165.4L254.53,158.23L255.69,151.77L256.26,154.24L256.84,155.45L257.41,154.52L259.14,165.42L259.72,165.31L260.29,172.58L260.87,178.72L261.44,177.87L262.02,180.58L263.17,173.39L263.75,177.5L264.9,182.18L265.48,179.87L266.05,177.82L266.63,179.79L267.2,180.67L267.78,179.15L269.51,164.93L270.08,161.87L271.23,164.5L271.81,163.72L272.39,161.58L272.96,156.11L274.11,153.4L274.69,152.98L275.27,145.56L275.84,149.83L276.99,150.01L277.57,148.5L278.14,146.5L278.72,147.65L279.3,150.38L279.87,149.32L281.02,142.43L281.6,140.44L284.48,149.44L285.05,156.47L285.63,158.66L286.21,156.45L286.78,156.13L287.36,156.85L289.09,162.6L289.66,161.27L290.81,158.89L291.39,162.74L292.54,170.75L293.12,171.3L294.84,175.17L295.42,173.25L298.3,168.84L298.88,170.37L299.45,170.67L300.03,169.95L300.6,168.92L301.18,169.75L301.76,170.35L302.33,178.09L304.06,185.72L304.63,183.74L305.79,184.5L306.36,184.31L307.51,181.15L308.09,181.56L308.67,181.35L309.82,189.29L310.39,190.33L310.97,188.25L311.54,189.21L312.12,189.6L312.7,191.56L315,184.24L315.58,184.04L318.46,180.68L319.03,181.14L320.76,187.95L321.33,188.05L321.91,187.85L322.49,186.82L324.79,172.51L325.37,172.45L325.94,173.12L326.52,172.15L327.09,169.71L327.67,162.37L328.24,161.79L328.82,164.28L330.55,162.02L331.12,163.34L334,175.79L334.58,177.57L335.16,178.03L335.73,179.62L336.31,185.67L336.88,184.95L337.46,187.34L338.61,187.04L339.19,186.64L339.76,189.29L340.34,186.38L340.91,186.53L341.49,184.75L343.22,186.27L343.79,185.63L345.52,182.76L346.1,181.36L346.67,182.03L347.25,180.46L348.4,177.49L348.98,178.57L349.55,178L350.13,175.97L351.86,173.63L352.43,178.18L353.58,185.05L354.16,187.09L356.46,186.99L357.04,185.11L358.19,184.26L358.77,184.6L359.92,186.81L360.49,186.66L362.22,181.81L362.8,181.79L364.52,184.79L365.1,183.13L365.68,182.36L366.25,183.56L367.4,183.4L367.98,183.78L368.56,184.57L369.13,183.91L370.28,183.39L370.86,183.36L372.01,182.88L372.59,183.52L373.74,187.61L374.31,187.55L374.89,187.19L375.47,183.28L376.04,183.19L376.62,183.97L377.77,185.12L378.35,184.98L379.5,184.72L380.07,184.99L381.8,185.04L382.38,184.95L382.95,184.97L383.53,186.27L384.68,186.98L385.26,185.86L386.98,186.64L387.56,185.74L389.29,185.01L389.86,185.95L391.59,186.17L392.17,186.47L393.32,196.71L393.89,196.93L394.47,197.27L395.05,196.46L396.77,210.66L397.35,211.82L400.23,220.72L400.8,215.77L401.38,214.13L401.96,216.58L403.11,215.39L403.68,218.31L404.26,218.42L404.84,220.14L405.99,225.73L406.56,225.19L407.14,223.27L409.44,226.22L410.02,227.64L411.17,227.58L411.75,224.91L413.47,217.59L414.05,218.07L414.63,218.34L415.78,216.28L416.35,219.31L417.5,221.48L418.08,219.94L419.23,219.75L419.81,220.76L420.38,220.47L420.96,219.12L422.69,219.65L423.26,217.84L424.41,217.22L424.99,217.27L426.14,222.01L426.72,222.18L427.29,223.25L427.87,222.31L430.17,222.35L430.75,221.63L432.48,223.29L433.05,223.25L435.36,223.29L435.93,224.47L437.08,224.85L437.66,224.85L440.54,224.91L441.12,225.42L441.69,225.69L442.27,223.34L443.42,222.13L443.99,222.31L446.87,222.7L447.45,222.36L449.18,218.15L449.75,218.25L450.33,217.99L450.9,216.6L452.06,219.58L452.63,219.67L453.78,219.57L454.36,219.51L456.09,220.64L456.66,219.84L457.82,218.96L458.39,219.04L459.54,218.53L460.12,218.89L461.27,219.04L461.85,218.84L465.3,216.91L465.88,217.25L468.76,218.2L469.33,217.16L471.06,215.81L471.64,216.45L472.21,215.97L472.79,209.25L473.36,203.88L473.94,205.36L474.52,204.53L477.39,200.42L477.97,202.65L478.55,203.92L479.12,203.31L479.7,202.78L480.27,203.3L482,200.74L482.58,200.71L484.31,199.7L484.88,197.53L485.46,197.84L486.03,200.45L487.18,200.98L487.76,200.74L488.34,201.15L488.91,200.43L490.06,198.29L490.64,195.19L491.79,194.25L492.37,194.84L494.67,187.01L495.25,178.45L495.82,176.78L496.4,170.29L497.55,163.4L498.13,165.1L499.28,173.78L499.85,166.02L501.01,165.39L501.58,167.93L502.16,167.65L502.73,165.02L503.31,164.21L503.88,159.13L504.46,154.29L505.04,155.26L505.61,156.43L506.76,158.92L507.34,157.43L507.92,155.48L508.49,159.7L509.64,167.49L510.22,167.77L510.8,165L511.37,165.39L511.95,168.14L514.25,162.03L514.83,157.8L516.55,148.35L517.13,149.64L517.71,148.72L518.28,145.58L520.01,126.56L520.59,126.43L521.74,100.45L522.31,116.28L523.46,112.38L524.04,121.54L525.19,131.89L525.77,117.33L526.34,118.92L526.92,123.95L528.07,120.01L528.65,111.69L529.22,104.79L529.8,107.39L530.37,117.71L530.95,116.65L531.53,120L533.25,138.65L533.83,143.52L535.56,128.29L536.13,130.22L537.86,141.24L538.44,139.01L540.16,145.46L540.74,144.16L541.32,143.84L541.89,139.32L545.92,114.39L546.5,114L547.07,113.82L547.65,118.01L548.8,119.61L549.38,124.4L550.53,136.43L551.11,134.97L552.26,134.1L552.83,128.83L553.41,128.01L553.99,134.33L554.56,137.44L555.14,134.2L556.29,136.31L556.86,133.85L557.44,135.41L558.02,139.41L559.17,144.13L559.74,143.45L560.32,142.11L560.9,136.21L562.05,130.39L562.62,130.71L564.35,131.92L564.93,134.2L566.08,136.65L566.65,134.1L568.38,133.68L568.96,134.53L570.69,136.48L571.26,135.66L572.99,140.38L573.56,152.46L575.29,162.65L575.87,161.91L576.44,163.24L577.02,162.87L577.6,160.07L578.75,161.19L579.32,162.09L580.48,164.33L581.05,162.78L582.78,157.37L583.35,158.81L584.51,160.09L585.08,160.18L587.39,164.75L587.96,164.74L589.11,161.56L589.69,162.83L590.84,171.56L591.42,161.14L592.57,145.31L593.14,145.74L593.72,146.36L594.3,148.39L595.45,148.6L596.02,147.35L596.6,148.22L597.18,146.66L598.33,146.74L598.9,147.85L600.05,153.77L600.63,151.71L601.78,154.41L602.36,154.18L602.93,154.97L603.51,157.27L604.09,157.67L604.66,156.83L606.97,167.68L607.54,173.96L608.12,173.69L608.69,175.92L609.27,177.7L609.84,175.25L611.57,169.22L612.15,169.58L613.3,173.52L613.88,173.79L614.45,173.81L615.03,171.77L616.76,170.67L617.33,171.95L618.48,174.81L619.06,175.09L619.63,174.58L620.21,175.72L621.36,178.03L621.94,181.63L623.09,175.46L623.67,175.58L624.24,175.74L624.82,172.78L625.39,172.16L625.97,173.08L627.12,174.41L627.7,174.34L628.85,172.69L629.42,173.54L630,174.98" style="vector-effect: none; fill: none; stroke: rgb(31, 119, 180); stroke-opacity: 1; stroke-width: 2px; opacity: 1;"/></g><g class="points"/><g class="text"/></g><g class="trace scatter trace98eee4c3-542a-457e-a535-9efcbc3e22b0" style="stroke-miterlimit: 2; opacity: 1;"><g class="fills"/><g class="errorbars"/><g class="lines"/><g class="points"><path class="point plotly-customdata" transform="translate(211.92,68.23)" d="M4.55,0L0,4.55L-4.55,0L0,-4.55Z" style="opacity: 1; stroke-width: 1px; fill: rgb(66, 133, 244); fill-opacity: 1; stroke: rgb(11, 84, 205); stroke-opacity: 1;"/><path class="point plotly-customdata" transform="translate(328.24,161.79)" d="M4.55,0L0,4.55L-4.55,0L0,-4.55Z" style="opacity: 1; stroke-width: 1px; fill: rgb(66, 133, 244); fill-opacity: 1; stroke: rgb(11, 84, 205); stroke-opacity: 1;"/><path class="point plotly-customdata" transform="translate(390.44,185.88)" d="M4.55,0L0,4.55L-4.55,0L0,-4.55Z" style="opacity: 1; stroke-width: 1px; fill: rgb(66, 133, 244); fill-opacity: 1; stroke: rgb(11, 84, 205); stroke-opacity: 1;"/></g><g class="text"/></g><g class="trace scatter trace39b8fa74-48e3-4b22-827b-216d224d256b" style="stroke-miterlimit: 2; opacity: 1;"><g class="fills"/><g class="errorbars"/><g class="lines"/><g class="points"><path class="point plotly-customdata" transform="translate(298.3,168.84)" d="M4.55,0L0,4.55L-4.55,0L0,-4.55Z" style="opacity: 1; stroke-width: 1px; fill: rgb(55, 177, 63); fill-opacity: 1; stroke: rgb(38, 123, 44); stroke-opacity: 1;"/><path class="point plotly-customdata" transform="translate(385.83,186.41)" d="M4.55,0L0,4.55L-4.55,0L0,-4.55Z" style="opacity: 1; stroke-width: 1px; fill: rgb(55, 177, 63); fill-opacity: 1; stroke: rgb(38, 123, 44); stroke-opacity: 1;"/><path class="point plotly-customdata" transform="translate(466.45,217.39)" d="M4.55,0L0,4.55L-4.55,0L0,-4.55Z" style="opacity: 1; stroke-width: 1px; fill: rgb(55, 177, 63); fill-opacity: 1; stroke: rgb(38, 123, 44); stroke-opacity: 1;"/></g><g class="text"/></g><g class="trace scatter traceefa23a7b-b4bd-4121-ac5a-13bb24830ddf" style="stroke-miterlimit: 2;"><g class="fills"><g><path class="js-fill" d="M211.92,41.09L229.2,182.18L229.77,179.34L246.47,111.64L247.05,114.95L263.17,182.18L263.75,181.47L264.32,180.29L280.45,146.91L281.02,147.86L297.72,182.18L297.72,169.95L295.42,173.25L294.84,175.17L293.12,171.3L292.54,170.75L291.39,162.74L290.81,158.89L289.66,161.27L289.09,162.6L287.36,156.85L286.78,156.13L286.21,156.45L285.63,158.66L285.05,156.47L284.48,149.44L281.6,140.44L281.02,142.43L279.87,149.32L279.3,150.38L278.72,147.65L278.14,146.5L277.57,148.5L276.99,150.01L275.84,149.83L275.27,145.56L274.69,152.98L274.11,153.4L272.96,156.11L272.39,161.58L271.81,163.72L271.23,164.5L270.08,161.87L269.51,164.93L267.78,179.15L267.2,180.67L266.63,179.79L266.05,177.82L265.48,179.87L264.9,182.18L263.75,177.5L263.17,173.39L262.02,180.58L261.44,177.87L260.87,178.72L260.29,172.58L259.72,165.31L259.14,165.42L257.41,154.52L256.84,155.45L256.26,154.24L255.69,151.77L254.53,158.23L253.96,165.4L252.81,160.71L252.23,162.55L251.08,148.8L250.5,146.7L249.35,150.56L248.78,150.16L247.05,125.16L246.47,117.45L244.17,127.9L243.59,130L242.44,136.79L241.86,142.74L241.29,138.49L240.71,135.99L239.56,126.87L238.99,118.01L237.83,128.46L237.26,127.69L233.8,161.82L233.23,155.8L231.5,167.61L230.92,175.18L230.35,173.31L229.77,157.55L229.2,152.19L228.62,157L226.32,119.08L225.74,114.88L224.59,123.73L224.01,120.18L223.44,122.84L222.86,127.81L221.13,104.47L220.56,117.22L219.98,118.31L219.41,128.28L218.83,113.88L218.25,85.7L217.68,87.27L217.1,80.99L216.53,88.08L215.37,78.05L214.8,74.17L213.65,49.3L213.07,41.09L211.92,68.23Z" style="fill: rgb(23, 190, 207); fill-opacity: 0.25; stroke-width: 0;"/></g></g><g class="errorbars"/><g class="lines"><path class="js-line" d="M211.92,68.23L213.07,41.09L213.65,49.3L214.8,74.17L215.37,78.05L216.53,88.08L217.1,80.99L217.68,87.27L218.25,85.7L218.83,113.88L219.41,128.28L219.98,118.31L220.56,117.22L221.13,104.47L222.86,127.81L223.44,122.84L224.01,120.18L224.59,123.73L225.74,114.88L226.32,119.08L228.62,157L229.2,152.19L229.77,157.55L230.35,173.31L230.92,175.18L231.5,167.61L233.23,155.8L233.8,161.82L237.26,127.69L237.83,128.46L238.99,118.01L239.56,126.87L240.71,135.99L241.29,138.49L241.86,142.74L242.44,136.79L243.59,130L244.17,127.9L246.47,117.45L247.05,125.16L248.78,150.16L249.35,150.56L250.5,146.7L251.08,148.8L252.23,162.55L252.81,160.71L253.96,165.4L254.53,158.23L255.69,151.77L256.26,154.24L256.84,155.45L257.41,154.52L259.14,165.42L259.72,165.31L260.29,172.58L260.87,178.72L261.44,177.87L262.02,180.58L263.17,173.39L263.75,177.5L264.9,182.18L265.48,179.87L266.05,177.82L266.63,179.79L267.2,180.67L267.78,179.15L269.51,164.93L270.08,161.87L271.23,164.5L271.81,163.72L272.39,161.58L272.96,156.11L274.11,153.4L274.69,152.98L275.27,145.56L275.84,149.83L276.99,150.01L277.57,148.5L278.14,146.5L278.72,147.65L279.3,150.38L279.87,149.32L281.02,142.43L281.6,140.44L284.48,149.44L285.05,156.47L285.63,158.66L286.21,156.45L286.78,156.13L287.36,156.85L289.09,162.6L289.66,161.27L290.81,158.89L291.39,162.74L292.54,170.75L293.12,171.3L294.84,175.17L295.42,173.25L297.72,169.95" style="vector-effect: none; fill: none; stroke: rgb(0, 0, 0); stroke-opacity: 0; stroke-width: 0px; opacity: 1;"/></g><g class="points"/><g class="text"/></g><g class="trace scatter traceedb6b3a9-e46d-41ad-b74e-6b92ad1e86f2" style="stroke-miterlimit: 2;"><g class="fills"/><g class="errorbars"/><g class="lines"><path class="js-line" d="M211.92,41.09L229.2,182.18L229.77,179.34L246.47,111.64L247.05,114.95L263.17,182.18L263.75,181.47L264.32,180.29L280.45,146.91L281.02,147.86L297.72,182.18" style="vector-effect: none; fill: none; stroke: rgb(23, 190, 207); stroke-opacity: 0.75; stroke-width: 2px; opacity: 1;"/></g><g class="points"/><g class="text"/></g><g class="trace scatter trace3e37993a-7406-4578-b81c-a7b28d9e9a4e" style="stroke-miterlimit: 2;"><g class="fills"><g><path class="js-fill" d="M328.24,161.79L339.76,189.29L340.34,188.46L351.28,175.54L351.86,176.51L362.8,189.09L363.37,188.74L374.31,182.7L374.89,183.04L385.26,189.29L385.26,185.86L384.68,186.98L383.53,186.27L382.95,184.97L382.38,184.95L381.8,185.04L380.07,184.99L379.5,184.72L378.35,184.98L377.77,185.12L376.62,183.97L376.04,183.19L375.47,183.28L374.89,187.19L374.31,187.55L373.74,187.61L372.59,183.52L372.01,182.88L370.86,183.36L370.28,183.39L369.13,183.91L368.56,184.57L367.98,183.78L367.4,183.4L366.25,183.56L365.68,182.36L365.1,183.13L364.52,184.79L362.8,181.79L362.22,181.81L360.49,186.66L359.92,186.81L358.77,184.6L358.19,184.26L357.04,185.11L356.46,186.99L354.16,187.09L353.58,185.05L352.43,178.18L351.86,173.63L350.13,175.97L349.55,178L348.98,178.57L348.4,177.49L347.25,180.46L346.67,182.03L346.1,181.36L345.52,182.76L343.79,185.63L343.22,186.27L341.49,184.75L340.91,186.53L340.34,186.38L339.76,189.29L339.19,186.64L338.61,187.04L337.46,187.34L336.88,184.95L336.31,185.67L335.73,179.62L335.16,178.03L334.58,177.57L334,175.79L331.12,163.34L330.55,162.02L329.97,162.49L329.4,163.63L328.82,164.28L328.24,161.79Z" style="fill: rgb(23, 190, 207); fill-opacity: 0.25; stroke-width: 0;"/></g></g><g class="errorbars"/><g class="lines"><path class="js-line" d="M328.24,161.79L328.82,164.28L329.4,163.63L329.97,162.49L330.55,162.02L331.12,163.34L334,175.79L334.58,177.57L335.16,178.03L335.73,179.62L336.31,185.67L336.88,184.95L337.46,187.34L338.61,187.04L339.19,186.64L339.76,189.29L340.34,186.38L340.91,186.53L341.49,184.75L343.22,186.27L343.79,185.63L345.52,182.76L346.1,181.36L346.67,182.03L347.25,180.46L348.4,177.49L348.98,178.57L349.55,178L350.13,175.97L351.86,173.63L352.43,178.18L353.58,185.05L354.16,187.09L356.46,186.99L357.04,185.11L358.19,184.26L358.77,184.6L359.92,186.81L360.49,186.66L362.22,181.81L362.8,181.79L364.52,184.79L365.1,183.13L365.68,182.36L366.25,183.56L367.4,183.4L367.98,183.78L368.56,184.57L369.13,183.91L370.28,183.39L370.86,183.36L372.01,182.88L372.59,183.52L373.74,187.61L374.31,187.55L374.89,187.19L375.47,183.28L376.04,183.19L376.62,183.97L377.77,185.12L378.35,184.98L379.5,184.72L380.07,184.99L381.8,185.04L382.38,184.95L382.95,184.97L383.53,186.27L384.68,186.98L385.26,185.86" style="vector-effect: none; fill: none; stroke: rgb(0, 0, 0); stroke-opacity: 0; stroke-width: 0px; opacity: 1;"/></g><g class="points"/><g class="text"/></g><g class="trace scatter trace8d2a41a9-a133-494d-a020-b777dcbf934b" style="stroke-miterlimit: 2;"><g class="fills"/><g class="errorbars"/><g class="lines"><path class="js-line" d="M328.24,161.79L339.76,189.29L340.34,188.46L351.28,175.54L351.86,176.51L362.8,189.09L363.37,188.74L374.31,182.7L374.89,183.04L385.26,189.29" style="vector-effect: none; fill: none; stroke: rgb(23, 190, 207); stroke-opacity: 0.75; stroke-width: 2px; opacity: 1;"/></g><g class="points"/><g class="text"/></g><g class="trace scatter trace3208b16d-25b8-4137-8702-fa68c43e24ac" style="stroke-miterlimit: 2;"><g class="fills"><g><path class="js-fill" d="M390.44,185.88L405.41,227.98L405.99,227.33L420.38,206.93L420.96,207.41L435.93,227.98L436.51,227.41L450.9,217.45L451.48,217.93L465.88,227.98L465.88,217.25L465.3,216.91L461.85,218.84L461.27,219.04L460.12,218.89L459.54,218.53L458.39,219.04L457.82,218.96L456.66,219.84L456.09,220.64L454.36,219.51L453.78,219.57L452.63,219.67L452.06,219.58L450.9,216.6L450.33,217.99L449.75,218.25L449.18,218.15L447.45,222.36L446.87,222.7L443.99,222.31L443.42,222.13L442.27,223.34L441.69,225.69L441.12,225.42L440.54,224.91L437.66,224.85L437.08,224.85L435.93,224.47L435.36,223.29L433.05,223.25L432.48,223.29L430.75,221.63L430.17,222.35L427.87,222.31L427.29,223.25L426.72,222.18L426.14,222.01L424.99,217.27L424.41,217.22L423.26,217.84L422.69,219.65L420.96,219.12L420.38,220.47L419.81,220.76L419.23,219.75L418.08,219.94L417.5,221.48L416.35,219.31L415.78,216.28L414.63,218.34L414.05,218.07L413.47,217.59L411.75,224.91L411.17,227.58L410.02,227.64L409.44,226.22L407.14,223.27L406.56,225.19L405.99,225.73L404.84,220.14L404.26,218.42L403.68,218.31L403.11,215.39L401.96,216.58L401.38,214.13L400.8,215.77L400.23,220.72L397.35,211.82L396.77,210.66L395.62,203.09L395.05,196.46L394.47,197.27L393.89,196.93L392.74,192.85L392.17,186.47L390.44,185.88Z" style="fill: rgb(23, 190, 207); fill-opacity: 0.25; stroke-width: 0;"/></g></g><g class="errorbars"/><g class="lines"><path class="js-line" d="M390.44,185.88L392.17,186.47L392.74,192.85L393.89,196.93L394.47,197.27L395.05,196.46L395.62,203.09L396.77,210.66L397.35,211.82L400.23,220.72L400.8,215.77L401.38,214.13L401.96,216.58L403.11,215.39L403.68,218.31L404.26,218.42L404.84,220.14L405.99,225.73L406.56,225.19L407.14,223.27L409.44,226.22L410.02,227.64L411.17,227.58L411.75,224.91L413.47,217.59L414.05,218.07L414.63,218.34L415.78,216.28L416.35,219.31L417.5,221.48L418.08,219.94L419.23,219.75L419.81,220.76L420.38,220.47L420.96,219.12L422.69,219.65L423.26,217.84L424.41,217.22L424.99,217.27L426.14,222.01L426.72,222.18L427.29,223.25L427.87,222.31L430.17,222.35L430.75,221.63L432.48,223.29L433.05,223.25L435.36,223.29L435.93,224.47L437.08,224.85L437.66,224.85L440.54,224.91L441.12,225.42L441.69,225.69L442.27,223.34L443.42,222.13L443.99,222.31L446.87,222.7L447.45,222.36L449.18,218.15L449.75,218.25L450.33,217.99L450.9,216.6L452.06,219.58L452.63,219.67L453.78,219.57L454.36,219.51L456.09,220.64L456.66,219.84L457.82,218.96L458.39,219.04L459.54,218.53L460.12,218.89L461.27,219.04L461.85,218.84L465.3,216.91L465.88,217.25" style="vector-effect: none; fill: none; stroke: rgb(0, 0, 0); stroke-opacity: 0; stroke-width: 0px; opacity: 1;"/></g><g class="points"/><g class="text"/></g><g class="trace scatter tracedbbc3867-54ad-492c-b65b-ced95baa98a9" style="stroke-miterlimit: 2;"><g class="fills"/><g class="errorbars"/><g class="lines"><path class="js-line" d="M390.44,185.88L405.41,227.98L405.99,227.33L420.38,206.93L420.96,207.41L435.93,227.98L436.51,227.41L450.9,217.45L451.48,217.93L465.88,227.98" style="vector-effect: none; fill: none; stroke: rgb(23, 190, 207); stroke-opacity: 0.75; stroke-width: 2px; opacity: 1;"/></g><g class="points"/><g class="text"/></g></g></g><g class="overplot"/><path class="xlines-above crisp" d="M0,0" style="fill: none;"/><path class="ylines-above crisp" d="M0,0" style="fill: none;"/><g class="overlines-above"/><g class="xaxislayer-above"><g class="xtick"><text text-anchor="middle" x="0" y="333" transform="translate(40,0)" style="font-family: 'Open Sans', verdana, arial, sans-serif; font-size: 12px; fill: rgb(214, 223, 239); fill-opacity: 1; white-space: pre; opacity: 1;">Jan 2017</text></g><g class="xtick"><text text-anchor="middle" x="0" y="333" style="font-family: 'Open Sans', verdana, arial, sans-serif; font-size: 12px; fill: rgb(214, 223, 239); fill-opacity: 1; white-space: pre; opacity: 1;" transform="translate(144.23000000000002,0)">Jul 2017</text></g><g class="xtick"><text text-anchor="middle" x="0" y="333" style="font-family: 'Open Sans', verdana, arial, sans-serif; font-size: 12px; fill: rgb(214, 223, 239); fill-opacity: 1; white-space: pre; opacity: 1;" transform="translate(250.19,0)">Jan 2018</text></g><g class="xtick"><text text-anchor="middle" x="0" y="333" style="font-family: 'Open Sans', verdana, arial, sans-serif; font-size: 12px; fill: rgb(214, 223, 239); fill-opacity: 1; white-space: pre; opacity: 1;" transform="translate(354.42,0)">Jul 2018</text></g><g class="xtick"><text text-anchor="middle" x="0" y="333" style="font-family: 'Open Sans', verdana, arial, sans-serif; font-size: 12px; fill: rgb(214, 223, 239); fill-opacity: 1; white-space: pre; opacity: 1;" transform="translate(460.38,0)">Jan 2019</text></g><g class="xtick"><text text-anchor="middle" x="0" y="333" style="font-family: 'Open Sans', verdana, arial, sans-serif; font-size: 12px; fill: rgb(214, 223, 239); fill-opacity: 1; white-space: pre; opacity: 1;" transform="translate(564.62,0)">Jul 2019</text></g></g><g class="yaxislayer-above"><g class="ytick"><text text-anchor="end" x="39" y="4.199999999999999" transform="translate(0,316.85)" style="font-family: 'Open Sans', verdana, arial, sans-serif; font-size: 12px; fill: rgb(214, 223, 239); fill-opacity: 1; white-space: pre; opacity: 1;">0</text></g><g class="ytick"><text text-anchor="end" x="39" y="4.199999999999999" style="font-family: 'Open Sans', verdana, arial, sans-serif; font-size: 12px; fill: rgb(214, 223, 239); fill-opacity: 1; white-space: pre; opacity: 1;" transform="translate(0,250.57)">5k</text></g><g class="ytick"><text text-anchor="end" x="39" y="4.199999999999999" style="font-family: 'Open Sans', verdana, arial, sans-serif; font-size: 12px; fill: rgb(214, 223, 239); fill-opacity: 1; white-space: pre; opacity: 1;" transform="translate(0,184.3)">10k</text></g><g class="ytick"><text text-anchor="end" x="39" y="4.199999999999999" style="font-family: 'Open Sans', verdana, arial, sans-serif; font-size: 12px; fill: rgb(214, 223, 239); fill-opacity: 1; white-space: pre; opacity: 1;" transform="translate(0,118.03)">15k</text></g><g class="ytick"><text text-anchor="end" x="39" y="4.199999999999999" style="font-family: 'Open Sans', verdana, arial, sans-serif; font-size: 12px; fill: rgb(214, 223, 239); fill-opacity: 1; white-space: pre; opacity: 1;" transform="translate(0,51.76)">20k</text></g></g><g class="overaxes-above"/></g></g><g class="polarlayer"/><g class="smithlayer"/><g class="ternarylayer"/><g class="geolayer"/><g class="funnelarealayer"/><g class="pielayer"/><g class="iciclelayer"/><g class="treemaplayer"/><g class="sunburstlayer"/><g class="glimages"/><defs id="topdefs-fd25fc"><g class="clips"/><clipPath id="legendfd25fc"><rect width="326" height="29" x="0" y="0"/></clipPath></defs><g class="layer-above"><g class="imagelayer"/><g class="shapelayer"/></g><g class="infolayer"><g class="legend" pointer-events="all" transform="translate(344,11.519999999999996)"><rect class="bg" shape-rendering="crispEdges" style="stroke: rgb(68, 68, 68); stroke-opacity: 1; fill: rgb(33, 34, 38); fill-opacity: 1; stroke-width: 0px;" width="326" height="29" x="0" y="0"/><g class="scrollbox" transform="" clip-path="url(#legendfd25fc)"><g class="groups"><g class="traces" transform="translate(0,14.5)" style="opacity: 1;"><text class="legendtext" text-anchor="start" x="40" y="4.680000000000001" style="font-family: 'Open Sans', verdana, arial, sans-serif; font-size: 12px; fill: rgb(214, 223, 239); fill-opacity: 1; white-space: pre;">Close</text><g class="layers" style="opacity: 1;"><g class="legendfill"/><g class="legendlines"><path class="js-line" d="M5,0h30" style="fill: none; stroke: rgb(31, 119, 180); stroke-opacity: 1; stroke-width: 2px;"/></g><g class="legendsymbols"><g class="legendpoints"/></g></g><rect class="legendtoggle" x="0" y="-9.5" width="74.859375" height="19" style="fill: rgb(0, 0, 0); fill-opacity: 0;"/></g><g class="traces" transform="translate(77.359375,14.5)" style="opacity: 1;"><text class="legendtext" text-anchor="start" x="40" y="4.680000000000001" style="font-family: 'Open Sans', verdana, arial, sans-serif; font-size: 12px; fill: rgb(214, 223, 239); fill-opacity: 1; white-space: pre;">Start</text><g class="layers" style="opacity: 1;"><g class="legendfill"/><g class="legendlines"/><g class="legendsymbols"><g class="legendpoints"><path class="scatterpts" transform="translate(20,0)" d="M4.55,0L0,4.55L-4.55,0L0,-4.55Z" style="opacity: 1; stroke-width: 1px; fill: rgb(66, 133, 244); fill-opacity: 1; stroke: rgb(11, 84, 205); stroke-opacity: 1;"/></g></g></g><rect class="legendtoggle" x="0" y="-9.5" width="72.5" height="19" style="fill: rgb(0, 0, 0); fill-opacity: 0;"/></g><g class="traces" transform="translate(152.359375,14.5)" style="opacity: 1;"><text class="legendtext" text-anchor="start" x="40" y="4.680000000000001" style="font-family: 'Open Sans', verdana, arial, sans-serif; font-size: 12px; fill: rgb(214, 223, 239); fill-opacity: 1; white-space: pre;">Closed</text><g class="layers" style="opacity: 1;"><g class="legendfill"/><g class="legendlines"/><g class="legendsymbols"><g class="legendpoints"><path class="scatterpts" transform="translate(20,0)" d="M4.55,0L0,4.55L-4.55,0L0,-4.55Z" style="opacity: 1; stroke-width: 1px; fill: rgb(55, 177, 63); fill-opacity: 1; stroke: rgb(38, 123, 44); stroke-opacity: 1;"/></g></g></g><rect class="legendtoggle" x="0" y="-9.5" width="82.34375" height="19" style="fill: rgb(0, 0, 0); fill-opacity: 0;"/></g><g class="traces" transform="translate(237.203125,14.5)" style="opacity: 1;"><text class="legendtext" text-anchor="start" x="40" y="4.680000000000001" style="font-family: 'Open Sans', verdana, arial, sans-serif; font-size: 12px; fill: rgb(214, 223, 239); fill-opacity: 1; white-space: pre;">Pattern</text><g class="layers"><g class="legendfill"><path class="js-fill" d="M5,-2h30v6h-30z" style="stroke-width: 0; fill: rgb(23, 190, 207); fill-opacity: 0.25;"/></g><g class="legendlines"><path class="js-line" d="M5,-2h30" style="fill: none; stroke: rgb(23, 190, 207); stroke-opacity: 0.75; stroke-width: 2px;"/></g><g class="legendsymbols"><g class="legendpoints"/></g></g><rect class="legendtoggle" x="0" y="-9.5" width="86.265625" height="19" style="fill: rgb(0, 0, 0); fill-opacity: 0;"/></g></g></g><rect class="scrollbar" rx="20" ry="3" width="0" height="0" style="fill: rgb(128, 139, 164); fill-opacity: 1;" x="0" y="0"/></g><g class="g-gtitle"/><g class="g-xtitle"/><g class="g-ytitle"/></g></svg>