<svg class="main-svg" xmlns="http://www.w3.org/2000/svg" xmlns:xlink="http://www.w3.org/1999/xlink" width="700" height="350" style="" viewBox="0 0 700 350"><rect x="0" y="0" width="700" height="350" style="fill: rgb(255, 255, 255); fill-opacity: 1;"/><defs id="defs-ca8008"><g class="clips"><clipPath id="clipca8008xyplot" class="plotclip"><rect width="635" height="261"/></clipPath><clipPath class="axesclip" id="clipca8008x"><rect x="35" y="0" width="635" height="350"/></clipPath><clipPath class="axesclip" id="clipca8008y"><rect x="0" y="46" width="700" height="261"/></clipPath><clipPath class="axesclip" id="clipca8008xy"><rect x="35" y="46" width="635" height="261"/></clipPath></g><g class="gradients"/><g class="patterns"/></defs><g class="bglayer"><rect class="bg" x="35" y="46" width="635" height="261" style="fill: rgb(229, 236, 246); fill-opacity: 1; stroke-width: 0;"/></g><g class="layer-below"><g class="imagelayer"/><g class="shapelayer"><g class="shape-group" data-index="0" clip-path="url(#clipca8008x)"><path data-index="0" fill-rule="evenodd" d="M93.67,307H100.57V46H93.67Z" style="opacity: 0.15; stroke: rgb(0, 0, 0); stroke-opacity: 0; fill: rgb(255, 69, 0); fill-opacity: 1; stroke-width: 0px;"/></g><g class="shape-group" data-index="1" clip-path="url(#clipca8008x)"><path data-index="1" fill-rule="evenodd" d="M321.44,307H349.05V46H321.44Z" style="opacity: 0.15; stroke: rgb(0, 0, 0); stroke-opacity: 0; fill: rgb(255, 69, 0); fill-opacity: 1; stroke-width: 0px;"/></g><g class="shape-group" data-index="2" clip-path="url(#clipca8008x)"><path data-index="2" fill-rule="evenodd" d="M452.58,307H473.29V46H452.58Z" style="opacity: 0.15; stroke: rgb(0, 0, 0); stroke-opacity: 0; fill: rgb(255, 69, 0); fill-opacity: 1; stroke-width: 0px;"/></g></g></g><g class="cartesianlayer"><g class="subplot xy"><g class="layer-subplot"><g class="shapelayer"/><g class="imagelayer"/></g><g class="minor-gridlayer"><g class="x"/><g class="y"/></g><g class="gridlayer"><g class="x"><path class="xgrid crisp" transform="translate(86.77000000000001,0)" d="M0,46v261" style="stroke: rgb(255, 255, 255); stroke-opacity: 1; stroke-width: 1px;"/><path class="xgrid crisp" transform="translate(183.4,0)" d="M0,46v261" style="stroke: rgb(255, 255, 255); stroke-opacity: 1; stroke-width: 1px;"/><path class="xgrid crisp" transform="translate(280.03,0)" d="M0,46v261" style="stroke: rgb(255, 255, 255); stroke-opacity: 1; stroke-width: 1px;"/><path class="xgrid crisp" transform="translate(376.66,0)" d="M0,46v261" style="stroke: rgb(255, 255, 255); stroke-opacity: 1; stroke-width: 1px;"/><path class="xgrid crisp" transform="translate(473.29,0)" d="M0,46v261" style="stroke: rgb(255, 255, 255); stroke-opacity: 1; stroke-width: 1px;"/><path class="xgrid crisp" transform="translate(569.92,0)" d="M0,46v261" style="stroke: rgb(255, 255, 255); stroke-opacity: 1; stroke-width: 1px;"/><path class="xgrid crisp" transform="translate(666.55,0)" d="M0,46v261" style="stroke: rgb(255, 255, 255); stroke-opacity: 1; stroke-width: 1px;"/></g><g class="y"><path class="ygrid crisp" transform="translate(0,269.7)" d="M35,0h635" style="stroke: rgb(255, 255, 255); stroke-opacity: 1; stroke-width: 1px;"/><path class="ygrid crisp" transform="translate(0,216.78)" d="M35,0h635" style="stroke: rgb(255, 255, 255); stroke-opacity: 1; stroke-width: 1px;"/><path class="ygrid crisp" transform="translate(0,163.86)" d="M35,0h635" style="stroke: rgb(255, 255, 255); stroke-opacity: 1; stroke-width: 1px;"/><path class="ygrid crisp" transform="translate(0,110.94)" d="M35,0h635" style="stroke: rgb(255, 255, 255); stroke-opacity: 1; stroke-width: 1px;"/><path class="ygrid crisp" transform="translate(0,58.019999999999996)" d="M35,0h635" style="stroke: rgb(255, 255, 255); stroke-opacity: 1; stroke-width: 1px;"/></g></g><g class="zerolinelayer"/><path class="xlines-below"/><path class="ylines-below"/><g class="overlines-below"/><g class="xaxislayer-below"/><g class="yaxislayer-below"/><g class="overaxes-below"/><g class="plot" transform="translate(35,46)" clip-path="url(#clipca8008xyplot)"><g class="boxlayer mlayer"><g class="trace boxes" style="opacity: 0.75;"><path class="box" d="M1.76,29.23H5.14M1.76,36.23H5.14V28.23H1.76ZM3.45,36.23V37.57M3.45,28.23V26.55" style="vector-effect: none; stroke-width: 2px; stroke: rgb(38, 166, 154); stroke-opacity: 1; fill: rgb(38, 166, 154); fill-opacity: 1; opacity: 1;"/><path class="box" d="M8.66,27.59H12.04M8.66,28.19H12.04V27.59H8.66ZM10.35,28.19V31.53M10.35,27.59V21.81" style="vector-effect: none; stroke-width: 2px; stroke: rgb(38, 166, 154); stroke-opacity: 1; fill: rgb(38, 166, 154); fill-opacity: 1; opacity: 1;"/><path class="box" d="M15.56,34.83H18.95M15.56,35.83H18.95V27.6H15.56ZM17.26,35.83V37.58M17.26,27.6V26.52" style="vector-effect: none; stroke-width: 2px; stroke: rgb(238, 83, 79); stroke-opacity: 1; fill: rgb(238, 83, 79); fill-opacity: 1; opacity: 1;"/><path class="box" d="M22.47,16.22H25.85M22.47,35.86H25.85V15.22H22.47ZM24.16,35.86V36.03M24.16,15.22V13.05" style="vector-effect: none; stroke-width: 2px; stroke: rgb(38, 166, 154); stroke-opacity: 1; fill: rgb(38, 166, 154); fill-opacity: 1; opacity: 1;"/><path class="box" d="M29.37,47.27H32.75M29.37,48.27H32.75V15.24H29.37ZM31.06,48.27V55.88M31.06,15.24V14.25" style="vector-effect: none; stroke-width: 2px; stroke: rgb(238, 83, 79); stroke-opacity: 1; fill: rgb(238, 83, 79); fill-opacity: 1; opacity: 1;"/><path class="box" d="M36.27,52.92H39.65M36.27,53.92H39.65V48.29H36.27ZM37.96,53.92V59.84M37.96,48.29V47.75" style="vector-effect: none; stroke-width: 2px; stroke: rgb(238, 83, 79); stroke-opacity: 1; fill: rgb(238, 83, 79); fill-opacity: 1; opacity: 1;"/><path class="box" d="M43.17,58.63H46.56M43.17,59.63H46.56V53.91H43.17ZM44.86,59.63V65.57M44.86,53.91V52.98" style="vector-effect: none; stroke-width: 2px; stroke: rgb(238, 83, 79); stroke-opacity: 1; fill: rgb(238, 83, 79); fill-opacity: 1; opacity: 1;"/><path class="box" d="M50.08,73.9H53.46M50.08,74.9H53.46V59.62H50.08ZM51.77,74.9V76.81M51.77,59.62V59.62" style="vector-effect: none; stroke-width: 2px; stroke: rgb(238, 83, 79); stroke-opacity: 1; fill: rgb(238, 83, 79); fill-opacity: 1; opacity: 1;"/><path class="box" d="M56.98,113.72H60.36M56.98,114.72H60.36V74.89H56.98ZM58.67,114.72V114.72M58.67,74.89V73.18" style="vector-effect: none; stroke-width: 2px; stroke: rgb(238, 83, 79); stroke-opacity: 1; fill: rgb(238, 83, 79); fill-opacity: 1; opacity: 1;"/><path class="box" d="M63.88,108.03H67.26M63.88,114.96H67.26V107.03H63.88ZM65.57,114.96V118.44M65.57,107.03V90.38" style="vector-effect: none; stroke-width: 2px; stroke: rgb(38, 166, 154); stroke-opacity: 1; fill: rgb(38, 166, 154); fill-opacity: 1; opacity: 1;"/><path class="box" d="M70.78,128.12H74.16M70.78,129.12H74.16V107.11H70.78ZM72.47,129.12V137.22M72.47,107.11V96.55" style="vector-effect: none; stroke-width: 2px; stroke: rgb(238, 83, 79); stroke-opacity: 1; fill: rgb(238, 83, 79); fill-opacity: 1; opacity: 1;"/><path class="box" d="M77.68,128.11H81.07M77.68,129.11H81.07V127.94H77.68ZM79.38,129.11V156.49M79.38,127.94V117.52" style="vector-effect: none; stroke-width: 2px; stroke: rgb(38, 166, 154); stroke-opacity: 1; fill: rgb(38, 166, 154); fill-opacity: 1; opacity: 1;"/><path class="box" d="M84.59,126.45H87.97M84.59,128.12H87.97V125.45H84.59ZM86.28,128.12V130.75M86.28,125.45V108.07" style="vector-effect: none; stroke-width: 2px; stroke: rgb(38, 166, 154); stroke-opacity: 1; fill: rgb(38, 166, 154); fill-opacity: 1; opacity: 1;"/><path class="box" d="M91.49,117.79H94.87M91.49,125.42H94.87V116.79H91.49ZM93.18,125.42V131.59M93.18,116.79V115.82" style="vector-effect: none; stroke-width: 2px; stroke: rgb(38, 166, 154); stroke-opacity: 1; fill: rgb(38, 166, 154); fill-opacity: 1; opacity: 1;"/><path class="box" d="M98.39,105.05H101.77M98.39,116.82H101.77V104.05H98.39ZM100.08,116.82V122.86M100.08,104.05V104.02" style="vector-effect: none; stroke-width: 2px; stroke: rgb(38, 166, 154); stroke-opacity: 1; fill: rgb(38, 166, 154); fill-opacity: 1; opacity: 1;"/><path class="box" d="M105.29,118.31H108.67M105.29,119.31H108.67V104.06H105.29ZM106.98,119.31V125.78M106.98,104.06V104.05" style="vector-effect: none; stroke-width: 2px; stroke: rgb(238, 83, 79); stroke-opacity: 1; fill: rgb(238, 83, 79); fill-opacity: 1; opacity: 1;"/><path class="box" d="M112.19,114.35H115.58M112.19,119.32H115.58V113.35H112.19ZM113.89,119.32V122.41M113.89,113.35V110.51" style="vector-effect: none; stroke-width: 2px; stroke: rgb(38, 166, 154); stroke-opacity: 1; fill: rgb(38, 166, 154); fill-opacity: 1; opacity: 1;"/><path class="box" d="M119.1,130.41H122.48M119.1,131.41H122.48V113.37H119.1ZM120.79,131.41V131.41M120.79,113.37V111.31" style="vector-effect: none; stroke-width: 2px; stroke: rgb(238, 83, 79); stroke-opacity: 1; fill: rgb(238, 83, 79); fill-opacity: 1; opacity: 1;"/><path class="box" d="M126,115.53H129.38M126,131.4H129.38V114.53H126ZM127.69,131.4V131.52M127.69,114.53V113.3" style="vector-effect: none; stroke-width: 2px; stroke: rgb(38, 166, 154); stroke-opacity: 1; fill: rgb(38, 166, 154); fill-opacity: 1; opacity: 1;"/><path class="box" d="M132.9,125.32H136.28M132.9,126.32H136.28V114.57H132.9ZM134.59,126.32V130.63M134.59,114.57V110.82" style="vector-effect: none; stroke-width: 2px; stroke: rgb(238, 83, 79); stroke-opacity: 1; fill: rgb(238, 83, 79); fill-opacity: 1; opacity: 1;"/><path class="box" d="M139.8,124.87H143.19M139.8,126.33H143.19V123.87H139.8ZM141.49,126.33V128.15M141.49,123.87V122.21" style="vector-effect: none; stroke-width: 2px; stroke: rgb(38, 166, 154); stroke-opacity: 1; fill: rgb(38, 166, 154); fill-opacity: 1; opacity: 1;"/><path class="box" d="M146.71,115.43H150.09M146.71,123.87H150.09V114.43H146.71ZM148.4,123.87V125.53M148.4,114.43V113.35" style="vector-effect: none; stroke-width: 2px; stroke: rgb(38, 166, 154); stroke-opacity: 1; fill: rgb(38, 166, 154); fill-opacity: 1; opacity: 1;"/><path class="box" d="M153.61,126.4H156.99M153.61,127.4H156.99V114.59H153.61ZM155.3,127.4V128.7M155.3,114.59V111.61" style="vector-effect: none; stroke-width: 2px; stroke: rgb(238, 83, 79); stroke-opacity: 1; fill: rgb(238, 83, 79); fill-opacity: 1; opacity: 1;"/><path class="box" d="M160.51,122.51H163.89M160.51,127.37H163.89V121.51H160.51ZM162.2,127.37V130.7M162.2,121.51V120.25" style="vector-effect: none; stroke-width: 2px; stroke: rgb(38, 166, 154); stroke-opacity: 1; fill: rgb(38, 166, 154); fill-opacity: 1; opacity: 1;"/><path class="box" d="M167.41,122.49H170.79M167.41,122.49H170.79V121.53H167.41ZM169.1,122.49V124.37M169.1,121.53V116.19" style="vector-effect: none; stroke-width: 2px; stroke: rgb(238, 83, 79); stroke-opacity: 1; fill: rgb(238, 83, 79); fill-opacity: 1; opacity: 1;"/><path class="box" d="M174.31,124.62H177.7M174.31,125.62H177.7V122.47H174.31ZM176.01,125.62V136.26M176.01,122.47V119.62" style="vector-effect: none; stroke-width: 2px; stroke: rgb(238, 83, 79); stroke-opacity: 1; fill: rgb(238, 83, 79); fill-opacity: 1; opacity: 1;"/><path class="box" d="M181.22,131.39H184.6M181.22,132.39H184.6V125.79H181.22ZM182.91,132.39V135.57M182.91,125.79V124.77" style="vector-effect: none; stroke-width: 2px; stroke: rgb(238, 83, 79); stroke-opacity: 1; fill: rgb(238, 83, 79); fill-opacity: 1; opacity: 1;"/><path class="box" d="M188.12,131.4H191.5M188.12,132.44H191.5V130.4H188.12ZM189.81,132.44V133.16M189.81,130.4V130.4" style="vector-effect: none; stroke-width: 2px; stroke: rgb(38, 166, 154); stroke-opacity: 1; fill: rgb(38, 166, 154); fill-opacity: 1; opacity: 1;"/><path class="box" d="M195.02,124.72H198.4M195.02,128.23H198.4V123.72H195.02ZM196.71,128.23V130.13M196.71,123.72V123.17" style="vector-effect: none; stroke-width: 2px; stroke: rgb(38, 166, 154); stroke-opacity: 1; fill: rgb(38, 166, 154); fill-opacity: 1; opacity: 1;"/><path class="box" d="M201.92,100.59H205.31M201.92,123.75H205.31V99.59H201.92ZM203.61,123.75V125.23M203.61,99.59V97.23" style="vector-effect: none; stroke-width: 2px; stroke: rgb(38, 166, 154); stroke-opacity: 1; fill: rgb(38, 166, 154); fill-opacity: 1; opacity: 1;"/><path class="box" d="M208.83,98.89H212.21M208.83,99.62H212.21V98.89H208.83ZM210.52,99.62V104.25M210.52,98.89V94.05" style="vector-effect: none; stroke-width: 2px; stroke: rgb(38, 166, 154); stroke-opacity: 1; fill: rgb(38, 166, 154); fill-opacity: 1; opacity: 1;"/><path class="box" d="M215.73,118.99H219.11M215.73,119.99H219.11V98.89H215.73ZM217.42,119.99V123.14M217.42,98.89V97.15" style="vector-effect: none; stroke-width: 2px; stroke: rgb(238, 83, 79); stroke-opacity: 1; fill: rgb(238, 83, 79); fill-opacity: 1; opacity: 1;"/><path class="box" d="M222.63,113.91H226.01M222.63,120.03H226.01V112.91H222.63ZM224.32,120.03V121.54M224.32,112.91V111.46" style="vector-effect: none; stroke-width: 2px; stroke: rgb(38, 166, 154); stroke-opacity: 1; fill: rgb(38, 166, 154); fill-opacity: 1; opacity: 1;"/><path class="box" d="M229.53,119.99H232.91M229.53,120.99H232.91V112.91H229.53ZM231.22,120.99V124.47M231.22,112.91V111.16" style="vector-effect: none; stroke-width: 2px; stroke: rgb(238, 83, 79); stroke-opacity: 1; fill: rgb(238, 83, 79); fill-opacity: 1; opacity: 1;"/><path class="box" d="M236.43,119.97H239.82M236.43,120.97H239.82V119.63H236.43ZM238.13,120.97V123.15M238.13,119.63V118.6" style="vector-effect: none; stroke-width: 2px; stroke: rgb(38, 166, 154); stroke-opacity: 1; fill: rgb(38, 166, 154); fill-opacity: 1; opacity: 1;"/><path class="box" d="M243.34,118.85H246.72M243.34,119.61H246.72V118.85H243.34ZM245.03,119.61V122.36M245.03,118.85V116.61" style="vector-effect: none; stroke-width: 2px; stroke: rgb(38, 166, 154); stroke-opacity: 1; fill: rgb(38, 166, 154); fill-opacity: 1; opacity: 1;"/><path class="box" d="M250.24,104.35H253.62M250.24,118.81H253.62V103.35H250.24ZM251.93,118.81V118.98M251.93,103.35V99.94" style="vector-effect: none; stroke-width: 2px; stroke: rgb(38, 166, 154); stroke-opacity: 1; fill: rgb(38, 166, 154); fill-opacity: 1; opacity: 1;"/><path class="box" d="M257.14,104.63H260.52M257.14,105.63H260.52V103.34H257.14ZM258.83,105.63V125.15M258.83,103.34V102.09" style="vector-effect: none; stroke-width: 2px; stroke: rgb(238, 83, 79); stroke-opacity: 1; fill: rgb(238, 83, 79); fill-opacity: 1; opacity: 1;"/><path class="box" d="M264.04,114.59H267.42M264.04,115.59H267.42V105.67H264.04ZM265.73,115.59V118.45M265.73,105.67V104.59" style="vector-effect: none; stroke-width: 2px; stroke: rgb(238, 83, 79); stroke-opacity: 1; fill: rgb(238, 83, 79); fill-opacity: 1; opacity: 1;"/><path class="box" d="M270.94,116.58H274.33M270.94,116.68H274.33V115.58H270.94ZM272.64,116.68V117.65M272.64,115.58V111.41" style="vector-effect: none; stroke-width: 2px; stroke: rgb(238, 83, 79); stroke-opacity: 1; fill: rgb(238, 83, 79); fill-opacity: 1; opacity: 1;"/><path class="box" d="M277.85,126.56H281.23M277.85,127.56H281.23V116.69H277.85ZM279.54,127.56V128.68M279.54,116.69V115.26" style="vector-effect: none; stroke-width: 2px; stroke: rgb(238, 83, 79); stroke-opacity: 1; fill: rgb(238, 83, 79); fill-opacity: 1; opacity: 1;"/><path class="box" d="M284.75,134.21H288.13M284.75,135.21H288.13V127.55H284.75ZM286.44,135.21V136.53M286.44,127.55V124.19" style="vector-effect: none; stroke-width: 2px; stroke: rgb(238, 83, 79); stroke-opacity: 1; fill: rgb(238, 83, 79); fill-opacity: 1; opacity: 1;"/><path class="box" d="M291.65,151.12H295.03M291.65,152.12H295.03V135.08H291.65ZM293.34,152.12V152.12M293.34,135.08V133.71" style="vector-effect: none; stroke-width: 2px; stroke: rgb(238, 83, 79); stroke-opacity: 1; fill: rgb(238, 83, 79); fill-opacity: 1; opacity: 1;"/><path class="box" d="M298.55,196.37H301.94M298.55,197.37H301.94V152.39H298.55ZM300.24,197.37V201.04M300.24,152.39V151.78" style="vector-effect: none; stroke-width: 2px; stroke: rgb(238, 83, 79); stroke-opacity: 1; fill: rgb(238, 83, 79); fill-opacity: 1; opacity: 1;"/><path class="box" d="M305.46,199.34H308.84M305.46,200.34H308.84V197.37H305.46ZM307.15,200.34V213.64M307.15,197.37V191.75" style="vector-effect: none; stroke-width: 2px; stroke: rgb(238, 83, 79); stroke-opacity: 1; fill: rgb(238, 83, 79); fill-opacity: 1; opacity: 1;"/><path class="box" d="M312.36,197.47H315.74M312.36,200.45H315.74V196.47H312.36ZM314.05,200.45V221.81M314.05,196.47V195.73" style="vector-effect: none; stroke-width: 2px; stroke: rgb(38, 166, 154); stroke-opacity: 1; fill: rgb(38, 166, 154); fill-opacity: 1; opacity: 1;"/><path class="box" d="M319.26,218.66H322.64M319.26,219.66H322.64V196.43H319.26ZM320.95,219.66V220.89M320.95,196.43V193.33" style="vector-effect: none; stroke-width: 2px; stroke: rgb(238, 83, 79); stroke-opacity: 1; fill: rgb(238, 83, 79); fill-opacity: 1; opacity: 1;"/><path class="box" d="M326.16,218.71H329.54M326.16,219.62H329.54V218.71H326.16ZM327.85,219.62V220.24M327.85,218.71V210.54" style="vector-effect: none; stroke-width: 2px; stroke: rgb(38, 166, 154); stroke-opacity: 1; fill: rgb(38, 166, 154); fill-opacity: 1; opacity: 1;"/><path class="box" d="M333.06,233.1H336.45M333.06,234.1H336.45V218.69H333.06ZM334.76,234.1V247.95M334.76,218.69V215.91" style="vector-effect: none; stroke-width: 2px; stroke: rgb(238, 83, 79); stroke-opacity: 1; fill: rgb(238, 83, 79); fill-opacity: 1; opacity: 1;"/><path class="box" d="M339.97,218.84H343.35M339.97,234.17H343.35V217.84H339.97ZM341.66,234.17V244.16M341.66,217.84V216.46" style="vector-effect: none; stroke-width: 2px; stroke: rgb(38, 166, 154); stroke-opacity: 1; fill: rgb(38, 166, 154); fill-opacity: 1; opacity: 1;"/><path class="box" d="M346.87,217.35H350.25M346.87,217.84H350.25V217.35H346.87ZM348.56,217.84V226.99M348.56,217.35V214.03" style="vector-effect: none; stroke-width: 2px; stroke: rgb(38, 166, 154); stroke-opacity: 1; fill: rgb(38, 166, 154); fill-opacity: 1; opacity: 1;"/><path class="box" d="M353.77,216.41H357.15M353.77,217.41H357.15V216.18H353.77ZM355.46,217.41V219.31M355.46,216.18V206.55" style="vector-effect: none; stroke-width: 2px; stroke: rgb(38, 166, 154); stroke-opacity: 1; fill: rgb(38, 166, 154); fill-opacity: 1; opacity: 1;"/><path class="box" d="M360.67,222.84H364.06M360.67,223.84H364.06V216.08H360.67ZM362.36,223.84V225.31M362.36,216.08V214.85" style="vector-effect: none; stroke-width: 2px; stroke: rgb(238, 83, 79); stroke-opacity: 1; fill: rgb(238, 83, 79); fill-opacity: 1; opacity: 1;"/><path class="box" d="M367.58,213.21H370.96M367.58,223.84H370.96V212.21H367.58ZM369.27,223.84V224.23M369.27,212.21V211.68" style="vector-effect: none; stroke-width: 2px; stroke: rgb(38, 166, 154); stroke-opacity: 1; fill: rgb(38, 166, 154); fill-opacity: 1; opacity: 1;"/><path class="box" d="M374.48,211.22H377.86M374.48,212.22H377.86V210.66H374.48ZM376.17,212.22V215.47M376.17,210.66V208.11" style="vector-effect: none; stroke-width: 2px; stroke: rgb(38, 166, 154); stroke-opacity: 1; fill: rgb(38, 166, 154); fill-opacity: 1; opacity: 1;"/><path class="box" d="M381.38,208.8H384.76M381.38,210.64H384.76V207.8H381.38ZM383.07,210.64V213.49M383.07,207.8V207.6" style="vector-effect: none; stroke-width: 2px; stroke: rgb(38, 166, 154); stroke-opacity: 1; fill: rgb(38, 166, 154); fill-opacity: 1; opacity: 1;"/><path class="box" d="M388.28,211.83H391.66M388.28,212.83H391.66V207.86H388.28ZM389.97,212.83V212.94M389.97,207.86V204.82" style="vector-effect: none; stroke-width: 2px; stroke: rgb(238, 83, 79); stroke-opacity: 1; fill: rgb(238, 83, 79); fill-opacity: 1; opacity: 1;"/><path class="box" d="M395.18,214.91H398.57M395.18,215.91H398.57V212.82H395.18ZM396.88,215.91V217.13M396.88,212.82V208.05" style="vector-effect: none; stroke-width: 2px; stroke: rgb(238, 83, 79); stroke-opacity: 1; fill: rgb(238, 83, 79); fill-opacity: 1; opacity: 1;"/><path class="box" d="M402.09,219.73H405.47M402.09,220.73H405.47V215.96H402.09ZM403.78,220.73V221.28M403.78,215.96V211.37" style="vector-effect: none; stroke-width: 2px; stroke: rgb(238, 83, 79); stroke-opacity: 1; fill: rgb(238, 83, 79); fill-opacity: 1; opacity: 1;"/><path class="box" d="M408.99,221.72H412.37M408.99,222.6H412.37V220.72H408.99ZM410.68,222.6V224.36M410.68,220.72V219.84" style="vector-effect: none; stroke-width: 2px; stroke: rgb(238, 83, 79); stroke-opacity: 1; fill: rgb(238, 83, 79); fill-opacity: 1; opacity: 1;"/><path class="box" d="M415.89,224.98H419.27M415.89,225.98H419.27V222.55H415.89ZM417.58,225.98V237.14M417.58,222.55V222.2" style="vector-effect: none; stroke-width: 2px; stroke: rgb(238, 83, 79); stroke-opacity: 1; fill: rgb(238, 83, 79); fill-opacity: 1; opacity: 1;"/><path class="box" d="M422.79,230.43H426.17M422.79,231.43H426.17V225.6H422.79ZM424.48,231.43V233.5M424.48,225.6V217" style="vector-effect: none; stroke-width: 2px; stroke: rgb(238, 83, 79); stroke-opacity: 1; fill: rgb(238, 83, 79); fill-opacity: 1; opacity: 1;"/><path class="box" d="M429.69,231.72H433.08M429.69,231.72H433.08V231.37H429.69ZM431.39,231.72V234M431.39,231.37V230.35" style="vector-effect: none; stroke-width: 2px; stroke: rgb(238, 83, 79); stroke-opacity: 1; fill: rgb(238, 83, 79); fill-opacity: 1; opacity: 1;"/><path class="box" d="M436.6,231.14H439.98M436.6,231.72H439.98V231.14H436.6ZM438.29,231.72V234.63M438.29,231.14V228.37" style="vector-effect: none; stroke-width: 2px; stroke: rgb(38, 166, 154); stroke-opacity: 1; fill: rgb(38, 166, 154); fill-opacity: 1; opacity: 1;"/><path class="box" d="M443.5,222.25H446.88M443.5,231.14H446.88V221.25H443.5ZM445.19,231.14V233.61M445.19,221.25V220.96" style="vector-effect: none; stroke-width: 2px; stroke: rgb(38, 166, 154); stroke-opacity: 1; fill: rgb(38, 166, 154); fill-opacity: 1; opacity: 1;"/><path class="box" d="M450.4,221.69H453.78M450.4,221.69H453.78V221.31H450.4ZM452.09,221.69V230.67M452.09,221.31V216.97" style="vector-effect: none; stroke-width: 2px; stroke: rgb(238, 83, 79); stroke-opacity: 1; fill: rgb(238, 83, 79); fill-opacity: 1; opacity: 1;"/><path class="box" d="M457.3,218.9H460.69M457.3,221.64H460.69V217.9H457.3ZM458.99,221.64V225.57M458.99,217.9V217.4" style="vector-effect: none; stroke-width: 2px; stroke: rgb(38, 166, 154); stroke-opacity: 1; fill: rgb(38, 166, 154); fill-opacity: 1; opacity: 1;"/><path class="box" d="M464.21,207.37H467.59M464.21,217.9H467.59V206.37H464.21ZM465.9,217.9V220.56M465.9,206.37V204.95" style="vector-effect: none; stroke-width: 2px; stroke: rgb(38, 166, 154); stroke-opacity: 1; fill: rgb(38, 166, 154); fill-opacity: 1; opacity: 1;"/><path class="box" d="M471.11,205.38H474.49M471.11,206.37H474.49V205.38H471.11ZM472.8,206.37V210.39M472.8,205.38V199.2" style="vector-effect: none; stroke-width: 2px; stroke: rgb(38, 166, 154); stroke-opacity: 1; fill: rgb(38, 166, 154); fill-opacity: 1; opacity: 1;"/><path class="box" d="M478.01,206.53H481.39M478.01,206.85H481.39V205.53H478.01ZM479.7,206.85V208.39M479.7,205.53V203.83" style="vector-effect: none; stroke-width: 2px; stroke: rgb(238, 83, 79); stroke-opacity: 1; fill: rgb(238, 83, 79); fill-opacity: 1; opacity: 1;"/><path class="box" d="M484.91,213.59H488.29M484.91,214.59H488.29V206.86H484.91ZM486.6,214.59V216M486.6,206.86V206.86" style="vector-effect: none; stroke-width: 2px; stroke: rgb(238, 83, 79); stroke-opacity: 1; fill: rgb(238, 83, 79); fill-opacity: 1; opacity: 1;"/><path class="box" d="M491.81,223.01H495.2M491.81,224.01H495.2V214.64H491.81ZM493.51,224.01V224.5M493.51,214.64V214.64" style="vector-effect: none; stroke-width: 2px; stroke: rgb(238, 83, 79); stroke-opacity: 1; fill: rgb(238, 83, 79); fill-opacity: 1; opacity: 1;"/><path class="box" d="M498.72,229.85H502.1M498.72,230.85H502.1V224.01H498.72ZM500.41,230.85V231.02M500.41,224.01V223.24" style="vector-effect: none; stroke-width: 2px; stroke: rgb(238, 83, 79); stroke-opacity: 1; fill: rgb(238, 83, 79); fill-opacity: 1; opacity: 1;"/><path class="box" d="M505.62,222.45H509M505.62,230.83H509V221.45H505.62ZM507.31,230.83V234.28M507.31,221.45V221.34" style="vector-effect: none; stroke-width: 2px; stroke: rgb(38, 166, 154); stroke-opacity: 1; fill: rgb(38, 166, 154); fill-opacity: 1; opacity: 1;"/><path class="box" d="M512.52,218.67H515.9M512.52,221.46H515.9V217.67H512.52ZM514.21,221.46V226.99M514.21,217.67V215.34" style="vector-effect: none; stroke-width: 2px; stroke: rgb(38, 166, 154); stroke-opacity: 1; fill: rgb(38, 166, 154); fill-opacity: 1; opacity: 1;"/><path class="box" d="M519.42,215.85H522.81M519.42,217.63H522.81V214.85H519.42ZM521.11,217.63V219.5M521.11,214.85V211.65" style="vector-effect: none; stroke-width: 2px; stroke: rgb(38, 166, 154); stroke-opacity: 1; fill: rgb(38, 166, 154); fill-opacity: 1; opacity: 1;"/><path class="box" d="M526.33,212.1H529.71M526.33,214.87H529.71V211.1H526.33ZM528.02,214.87V218.21M528.02,211.1V207.67" style="vector-effect: none; stroke-width: 2px; stroke: rgb(38, 166, 154); stroke-opacity: 1; fill: rgb(38, 166, 154); fill-opacity: 1; opacity: 1;"/><path class="box" d="M533.23,214.45H536.61M533.23,215.45H536.61V211.05H533.23ZM534.92,215.45V215.46M534.92,211.05V206.76" style="vector-effect: none; stroke-width: 2px; stroke: rgb(238, 83, 79); stroke-opacity: 1; fill: rgb(238, 83, 79); fill-opacity: 1; opacity: 1;"/><path class="box" d="M540.13,198.39H543.51M540.13,215.42H543.51V197.39H540.13ZM541.82,215.42V215.42M541.82,197.39V195.83" style="vector-effect: none; stroke-width: 2px; stroke: rgb(38, 166, 154); stroke-opacity: 1; fill: rgb(38, 166, 154); fill-opacity: 1; opacity: 1;"/><path class="box" d="M547.03,188.83H550.41M547.03,197.58H550.41V187.83H547.03ZM548.72,197.58V205.88M548.72,187.83V184.89" style="vector-effect: none; stroke-width: 2px; stroke: rgb(38, 166, 154); stroke-opacity: 1; fill: rgb(38, 166, 154); fill-opacity: 1; opacity: 1;"/><path class="box" d="M553.93,188.79H557.32M553.93,189.49H557.32V187.79H553.93ZM555.63,189.49V191.84M555.63,187.79V179.28" style="vector-effect: none; stroke-width: 2px; stroke: rgb(238, 83, 79); stroke-opacity: 1; fill: rgb(238, 83, 79); fill-opacity: 1; opacity: 1;"/><path class="box" d="M560.84,190.2H564.22M560.84,190.2H564.22V189.48H560.84ZM562.53,190.2V197.97M562.53,189.48V187.84" style="vector-effect: none; stroke-width: 2px; stroke: rgb(238, 83, 79); stroke-opacity: 1; fill: rgb(238, 83, 79); fill-opacity: 1; opacity: 1;"/><path class="box" d="M567.74,193.96H571.12M567.74,194.96H571.12V190.21H567.74ZM569.43,194.96V196.14M569.43,190.21V184.84" style="vector-effect: none; stroke-width: 2px; stroke: rgb(238, 83, 79); stroke-opacity: 1; fill: rgb(238, 83, 79); fill-opacity: 1; opacity: 1;"/><path class="box" d="M574.64,196.6H578.02M574.64,197.6H578.02V195.05H574.64ZM576.33,197.6V202.5M576.33,195.05V192.19" style="vector-effect: none; stroke-width: 2px; stroke: rgb(238, 83, 79); stroke-opacity: 1; fill: rgb(238, 83, 79); fill-opacity: 1; opacity: 1;"/><path class="box" d="M581.54,196.6H584.92M581.54,197.6H584.92V196.08H581.54ZM583.23,197.6V199.28M583.23,196.08V192.22" style="vector-effect: none; stroke-width: 2px; stroke: rgb(38, 166, 154); stroke-opacity: 1; fill: rgb(38, 166, 154); fill-opacity: 1; opacity: 1;"/><path class="box" d="M588.44,208.29H591.83M588.44,209.29H591.83V196.1H588.44ZM590.14,209.29V209.29M590.14,196.1V195.66" style="vector-effect: none; stroke-width: 2px; stroke: rgb(238, 83, 79); stroke-opacity: 1; fill: rgb(238, 83, 79); fill-opacity: 1; opacity: 1;"/><path class="box" d="M595.35,210.29H598.73M595.35,210.58H598.73V209.29H595.35ZM597.04,210.58V215.48M597.04,209.29V209.29" style="vector-effect: none; stroke-width: 2px; stroke: rgb(238, 83, 79); stroke-opacity: 1; fill: rgb(238, 83, 79); fill-opacity: 1; opacity: 1;"/><path class="box" d="M602.25,193.68H605.63M602.25,210.53H605.63V192.68H602.25ZM603.94,210.53V212.37M603.94,192.68V192.09" style="vector-effect: none; stroke-width: 2px; stroke: rgb(38, 166, 154); stroke-opacity: 1; fill: rgb(38, 166, 154); fill-opacity: 1; opacity: 1;"/><path class="box" d="M609.15,184.02H612.53M609.15,192.65H612.53V183.02H609.15ZM610.84,192.65V194.89M610.84,183.02V180.19" style="vector-effect: none; stroke-width: 2px; stroke: rgb(38, 166, 154); stroke-opacity: 1; fill: rgb(38, 166, 154); fill-opacity: 1; opacity: 1;"/><path class="box" d="M616.05,183.43H619.44M616.05,183.43H619.44V183H616.05ZM617.74,183.43V186.85M617.74,183V178.24" style="vector-effect: none; stroke-width: 2px; stroke: rgb(238, 83, 79); stroke-opacity: 1; fill: rgb(238, 83, 79); fill-opacity: 1; opacity: 1;"/><path class="box" d="M622.96,184.51H626.34M622.96,185H626.34V183.51H622.96ZM624.65,185V185.8M624.65,183.51V175.3" style="vector-effect: none; stroke-width: 2px; stroke: rgb(238, 83, 79); stroke-opacity: 1; fill: rgb(238, 83, 79); fill-opacity: 1; opacity: 1;"/><path class="box" d="M629.86,187.38H633.24M629.86,188.38H633.24V185.05H629.86ZM631.55,188.38V189.03M631.55,185.05V180.08" style="vector-effect: none; stroke-width: 2px; stroke: rgb(238, 83, 79); stroke-opacity: 1; fill: rgb(238, 83, 79); fill-opacity: 1; opacity: 1;"/></g></g></g><g class="overplot"/><path class="xlines-above crisp" d="M0,0" style="fill: none;"/><path class="ylines-above crisp" d="M0,0" style="fill: none;"/><g class="overlines-above"/><g class="xaxislayer-above"><g class="xtick"><text text-anchor="middle" x="0" y="320" transform="translate(86.77000000000001,0)" style="font-family: 'Open Sans', verdana, arial, sans-serif; font-size: 12px; fill: rgb(42, 63, 95); fill-opacity: 1; white-space: pre; opacity: 1;"><tspan class="line" dy="0em" x="0" y="320">May 8</tspan><tspan class="line" dy="1.3em" x="0" y="320">2022</tspan></text></g><g class="xtick"><text text-anchor="middle" x="0" y="320" style="font-family: 'Open Sans', verdana, arial, sans-serif; font-size: 12px; fill: rgb(42, 63, 95); fill-opacity: 1; white-space: pre; opacity: 1;" transform="translate(183.4,0)">May 22</text></g><g class="xtick"><text text-anchor="middle" x="0" y="320" style="font-family: 'Open Sans', verdana, arial, sans-serif; font-size: 12px; fill: rgb(42, 63, 95); fill-opacity: 1; white-space: pre; opacity: 1;" transform="translate(280.03,0)">Jun 5</text></g><g class="xtick"><text text-anchor="middle" x="0" y="320" style="font-family: 'Open Sans', verdana, arial, sans-serif; font-size: 12px; fill: rgb(42, 63, 95); fill-opacity: 1; white-space: pre; opacity: 1;" transform="translate(376.66,0)">Jun 19</text></g><g class="xtick"><text text-anchor="middle" x="0" y="320" style="font-family: 'Open Sans', verdana, arial, sans-serif; font-size: 12px; fill: rgb(42, 63, 95); fill-opacity: 1; white-space: pre; opacity: 1;" transform="translate(473.29,0)">Jul 3</text></g><g class="xtick"><text text-anchor="middle" x="0" y="320" style="font-family: 'Open Sans', verdana, arial, sans-serif; font-size: 12px; fill: rgb(42, 63, 95); fill-opacity: 1; white-space: pre; opacity: 1;" transform="translate(569.92,0)">Jul 17</text></g><g class="xtick"><text text-anchor="middle" x="0" y="320" style="font-family: 'Open Sans', verdana, arial, sans-serif; font-size: 12px; fill: rgb(42, 63, 95); fill-opacity: 1; white-space: pre; opacity: 1;" transform="translate(666.55,0)">Jul 31</text></g></g><g class="yaxislayer-above"><g class="ytick"><text text-anchor="end" x="34" y="4.199999999999999" transform="translate(0,269.7)" style="font-family: 'Open Sans', verdana, arial, sans-serif; font-size: 12px; fill: rgb(42, 63, 95); fill-opacity: 1; white-space: pre; opacity: 1;">20k</text></g><g class="ytick"><text text-anchor="end" x="34" y="4.199999999999999" style="font-family: 'Open Sans', verdana, arial, sans-serif; font-size: 12px; fill: rgb(42, 63, 95); fill-opacity: 1; white-space: pre; opacity: 1;" transform="translate(0,216.78)">25k</text></g><g class="ytick"><text text-anchor="end" x="34" y="4.199999999999999" style="font-family: 'Open Sans', verdana, arial, sans-serif; font-size: 12px; fill: rgb(42, 63, 95); fill-opacity: 1; white-space: pre; opacity: 1;" transform="translate(0,163.86)">30k</text></g><g class="ytick"><text text-anchor="end" x="34" y="4.199999999999999" style="font-family: 'Open Sans', verdana, arial, sans-serif; font-size: 12px; fill: rgb(42, 63, 95); fill-opacity: 1; white-space: pre; opacity: 1;" transform="translate(0,110.94)">35k</text></g><g class="ytick"><text text-anchor="end" x="34" y="4.199999999999999" style="font-family: 'Open Sans', verdana, arial, sans-serif; font-size: 12px; fill: rgb(42, 63, 95); fill-opacity: 1; white-space: pre; opacity: 1;" transform="translate(0,58.019999999999996)">40k</text></g></g><g class="overaxes-above"/></g></g><g class="polarlayer"/><g class="smithlayer"/><g class="ternarylayer"/><g class="geolayer"/><g class="funnelarealayer"/><g class="pielayer"/><g class="iciclelayer"/><g class="treemaplayer"/><g class="sunburstlayer"/><g class="glimages"/><defs id="topdefs-ca8008"><g class="clips"/><clipPath id="legendca8008"><rect width="79" height="29" x="0" y="0"/></clipPath></defs><g class="layer-above"><g class="imagelayer"/><g class="shapelayer"/></g><g class="infolayer"><g class="legend" pointer-events="all" transform="translate(591,11.779999999999994)"><rect class="bg" shape-rendering="crispEdges" width="79" height="29" x="0" y="0" style="stroke: rgb(68, 68, 68); stroke-opacity: 1; fill: rgb(255, 255, 255); fill-opacity: 1; stroke-width: 0px;"/><g class="scrollbox" transform="" clip-path="url(#legendca8008)"><g class="groups"><g class="traces" transform="translate(0,14.5)" style="opacity: 1;"><text class="legendtext" text-anchor="start" x="40" y="4.680000000000001" style="font-family: 'Open Sans', verdana, arial, sans-serif; font-size: 12px; fill: rgb(42, 63, 95); fill-opacity: 1; white-space: pre;">OHLC</text><g class="layers" style="opacity: 0.75;"><g class="legendfill"/><g class="legendlines"/><g class="legendsymbols"><g class="legendpoints"><path class="legendcandle" d="M15,0H8M8,-6V6H-8Z" transform="translate(20,0)" style="stroke-miterlimit: 1; stroke-width: 2px; fill: rgb(238, 83, 79); fill-opacity: 1; stroke: rgb(238, 83, 79); stroke-opacity: 1;"/><path class="legendcandle" d="M-15,0H-8M-8,6V-6H8Z" transform="translate(20,0)" style="stroke-miterlimit: 1; stroke-width: 2px; fill: rgb(38, 166, 154); fill-opacity: 1; stroke: rgb(38, 166, 154); stroke-opacity: 1;"/></g></g></g><rect class="legendtoggle" x="0" y="-9.5" width="76.03125" height="19" style="fill: rgb(0, 0, 0); fill-opacity: 0;"/></g></g></g><rect class="scrollbar" rx="20" ry="3" width="0" height="0" x="0" y="0" style="fill: rgb(128, 139, 164); fill-opacity: 1;"/></g><g class="g-gtitle"/><g class="g-xtitle"/><g class="g-ytitle"/></g></svg>