<svg class="main-svg" xmlns="http://www.w3.org/2000/svg" xmlns:xlink="http://www.w3.org/1999/xlink" width="700" height="350" style="" viewBox="0 0 700 350"><rect x="0" y="0" width="700" height="350" style="fill: rgb(33, 34, 38); fill-opacity: 1;"/><defs id="defs-012e5c"><g class="clips"><clipPath id="clip012e5cxyplot" class="plotclip"><rect width="630" height="274"/></clipPath><clipPath class="axesclip" id="clip012e5cx"><rect x="40" y="0" width="630" height="350"/></clipPath><clipPath class="axesclip" id="clip012e5cy"><rect x="0" y="46" width="700" height="274"/></clipPath><clipPath class="axesclip" id="clip012e5cxy"><rect x="40" y="46" width="630" height="274"/></clipPath></g><g class="gradients"/><g class="patterns"/></defs><g class="bglayer"/><g class="layer-below"><g class="imagelayer"/><g class="shapelayer"/></g><g class="cartesianlayer"><g class="subplot xy"><g class="layer-subplot"><g class="shapelayer"><g class="shape-group" data-index="0" clip-path="url(#clip012e5cxy)"><path data-index="0" fill-rule="evenodd" d="M40,96.78999999999999H670V252.68H40Z" style="opacity: 0.2; stroke: rgb(0, 0, 0); stroke-opacity: 0; fill: rgb(123, 104, 238); fill-opacity: 1; stroke-width: 0px;"/></g></g><g class="imagelayer"/></g><g class="minor-gridlayer"><g class="x"/><g class="y"/></g><g class="gridlayer"><g class="x"><path class="xgrid crisp" transform="translate(142.12,0)" d="M0,46v274" style="stroke: rgb(49, 52, 57); stroke-opacity: 1; stroke-width: 1px;"/><path class="xgrid crisp" transform="translate(247.69,0)" d="M0,46v274" style="stroke: rgb(49, 52, 57); stroke-opacity: 1; stroke-width: 1px;"/><path class="xgrid crisp" transform="translate(353.27,0)" d="M0,46v274" style="stroke: rgb(49, 52, 57); stroke-opacity: 1; stroke-width: 1px;"/><path class="xgrid crisp" transform="translate(460.58,0)" d="M0,46v274" style="stroke: rgb(49, 52, 57); stroke-opacity: 1; stroke-width: 1px;"/><path class="xgrid crisp" transform="translate(566.15,0)" d="M0,46v274" style="stroke: rgb(49, 52, 57); stroke-opacity: 1; stroke-width: 1px;"/></g><g class="y"><path class="ygrid crisp" transform="translate(0,294.03999999999996)" d="M40,0h630" style="stroke: rgb(49, 52, 57); stroke-opacity: 1; stroke-width: 1px;"/><path class="ygrid crisp" transform="translate(0,254.27)" d="M40,0h630" style="stroke: rgb(49, 52, 57); stroke-opacity: 1; stroke-width: 1px;"/><path class="ygrid crisp" transform="translate(0,214.5)" d="M40,0h630" style="stroke: rgb(49, 52, 57); stroke-opacity: 1; stroke-width: 1px;"/><path class="ygrid crisp" transform="translate(0,134.95999999999998)" d="M40,0h630" style="stroke: rgb(49, 52, 57); stroke-opacity: 1; stroke-width: 1px;"/><path class="ygrid crisp" transform="translate(0,95.19)" d="M40,0h630" style="stroke: rgb(49, 52, 57); stroke-opacity: 1; stroke-width: 1px;"/><path class="ygrid crisp" transform="translate(0,55.42)" d="M40,0h630" style="stroke: rgb(49, 52, 57); stroke-opacity: 1; stroke-width: 1px;"/></g></g><g class="zerolinelayer"><path class="yzl zl crisp" transform="translate(0,174.73)" d="M40,0h630" style="stroke: rgb(49, 52, 57); stroke-opacity: 1; stroke-width: 2px;"/></g><path class="xlines-below"/><path class="ylines-below"/><g class="overlines-below"/><g class="xaxislayer-below"/><g class="yaxislayer-below"/><g class="overaxes-below"/><g class="plot" transform="translate(40,46)" clip-path="url(#clip012e5cxyplot)"><g class="scatterlayer mlayer"><g class="trace scatter tracebb415470-3fd2-422a-a993-00468bf70178" style="stroke-miterlimit: 2; opacity: 1;"><g class="fills"/><g class="errorbars"/><g class="lines"><path class="js-line" d="M45,206.82L46.73,161.97L48.46,148.93L53.65,56.47L55.38,37.02L57.12,64.11L58.85,111.73L60.58,110.52L62.31,134.09L65.77,155.29L67.5,110.61L69.23,158.59L70.96,184.98L72.69,178.82L74.42,184.68L76.15,165.2L77.88,105.89L79.62,105.35L81.35,81.48L83.08,106.73L84.81,106.41L88.27,76.06L90,108.11L91.73,95.73L93.46,145.96L95.19,83.34L96.92,76.68L98.65,125.83L100.38,242.69L103.85,148.52L105.58,157.42L107.31,176.06L109.04,145.36L110.77,175.61L112.5,182.9L114.23,145.46L115.96,162.87L117.69,136.5L119.42,124.79L122.88,45.54L124.62,111.28L126.35,59.98L128.08,45.97L129.81,39.14L131.54,45.06L133.27,84.36L135,93.35L136.73,74.28L138.46,117.14L141.92,174.14L143.65,190.41L145.38,166.51L147.12,190.11L150.58,128.22L152.31,119.13L154.04,105.71L155.77,44.77L159.23,60.24L160.96,81.25L162.69,92.96L164.42,122.8L166.15,128.86L167.88,144.07L169.62,144.8L171.35,168.11L173.08,200.25L174.81,178.04L176.54,161.66L178.27,166.05L180,172.57L181.73,149.31L185.19,170.39L186.92,167.88L190.38,210.54L192.12,139.5L193.85,144.63L195.58,164.33L197.31,137.37L199.04,129.44L200.77,149.12L202.5,127.16L204.23,151.35L205.96,127.32L207.69,44.75L209.42,31.49L212.88,94.76L214.62,27.92L218.08,121.26L219.81,142.95L221.54,145.79L223.27,93.67L225,217.11L226.73,239.8L228.46,183.54L230.19,184.64L231.92,179.91L233.65,162.92L235.38,143.45L237.12,136.65L238.85,169.62L240.58,112.79L242.31,113.16L244.04,132.44L245.77,65.57L247.5,89.02L249.23,107.26L250.96,220.74L254.42,150.61L256.15,173.75L257.88,170.06L259.62,140.66L261.35,139.58L263.08,148.31L264.81,150.67L266.54,112.4L268.27,97.45L270,97.3L271.73,108.47L273.46,50.44L275.19,50.96L276.92,121.74L278.65,154.9L280.38,37.63L282.12,26.23L283.85,53.22L287.31,90.31L289.04,90.89L290.77,94.1L292.5,85L295.96,113.19L297.69,141.05L299.42,124.21L301.15,61.7L302.88,54.47L304.62,96.74L306.35,87.7L308.08,117.79L309.81,158.91L311.54,166.83L313.27,125.43L315,137.27L316.73,143.13L318.46,139.17L320.19,164.51L321.92,141.65L323.65,204.49L325.38,208.14L328.85,169.03L330.58,174.27L332.31,182.55L334.04,158.47L335.77,76.56L337.5,54.4L339.23,13.7L340.96,37.69L342.69,54.48L344.42,152.11L346.15,150.11L347.88,123.64L349.62,125.32L351.35,109.89L354.81,98.65L356.54,104.58L360,150.43L361.73,144.97L363.46,156.49L365.19,138.44L366.92,180.8L368.65,160.56L370.38,180.4L372.12,167.56L373.85,112.36L375.58,124.18L377.31,147.57L379.04,141.71L380.77,143.86L382.5,46.38L384.23,64.38L385.96,133.62L387.69,146.07L389.42,185.42L391.15,184.6L392.88,144.4L394.62,61.23L396.35,51.84L398.08,95.87L399.81,191.88L401.54,186.18L403.27,165.99L405,147.59L406.73,139.86L408.46,121.3L410.19,172.9L411.92,163.51L413.65,173.46L415.38,122.18L417.12,105.91L418.85,102.98L420.58,72.96L422.31,71.5L424.04,100.42L425.77,100.09L427.5,50.21L429.23,74.83L430.96,64.01L432.69,107.85L434.42,85.53L436.15,116.42L437.88,183.1L439.62,246.27L441.35,218.89L443.08,165.47L444.81,227.97L446.54,216.59L448.27,192.19L450,201.82L451.73,172.63L453.46,146.64L455.19,132.76L456.92,130.8L458.65,112.57L460.38,81.61L462.12,81.66L463.85,88.99L465.58,83.02L467.31,101.57L469.04,110.28L470.77,104.44L472.5,105.23L474.23,121.55L475.96,106.2L477.69,100.09L479.42,86.07L481.15,72.4L482.88,83.95L484.62,109.94L486.35,94.57L488.08,130.03L489.81,122.16L491.54,92.89L493.27,162.44L495,80.2L496.73,130.84L498.46,65.9L500.19,53.83L503.65,130.73L505.38,100.43L507.12,84.34L508.85,59.31L512.31,56.65L514.04,98.45L515.77,141.45L517.5,76.91L519.23,140.29L520.96,83.39L522.69,89.91L524.42,83.77L526.15,74.07L527.88,83.12L529.62,87.83L531.35,247.94L533.08,238.02L534.81,201.98L536.54,135.04L538.27,146.78L543.46,68.07L545.19,97.62L546.92,100.92L548.65,112.14L553.85,164.47L555.58,150.26L557.31,149.87L559.04,208.13L560.77,178.65L562.5,167.62L564.23,168.6L565.96,136.94L567.69,117.69L569.42,84.56L571.15,87.32L572.88,73.36L574.62,49.16L576.35,88.81L578.08,93.9L579.81,105.41L581.54,151.25L583.27,145.12L585,148.59L586.73,156.87L588.46,188.23L590.19,176.31L591.92,178.19L593.65,162.18L595.38,154.81L597.12,143.8L598.85,136.39L600.58,144L602.31,185.17L604.04,260.3L605.77,194.33L607.5,161.92L609.23,76.29L610.96,90.13L612.69,71.74L614.42,70.68L616.15,66.58L617.88,84.21L619.62,90.66L621.35,94.19L623.08,84.47L624.81,99.67L626.54,101.5L628.27,111.55L630,115.27" style="vector-effect: none; fill: none; stroke: rgb(108, 166, 205); stroke-opacity: 1; stroke-width: 2px; opacity: 1;"/></g><g class="points"/><g class="text"/></g></g></g><g class="overplot"/><path class="xlines-above crisp" d="M0,0" style="fill: none;"/><path class="ylines-above crisp" d="M0,0" style="fill: none;"/><g class="overlines-above"/><g class="xaxislayer-above"><g class="xtick"><text text-anchor="middle" x="0" y="333" transform="translate(40,0)" style="font-family: 'Open Sans', verdana, arial, sans-serif; font-size: 12px; fill: rgb(214, 223, 239); fill-opacity: 1; white-space: pre; opacity: 1;">Jan 2022</text></g><g class="xtick"><text text-anchor="middle" x="0" y="333" style="font-family: 'Open Sans', verdana, arial, sans-serif; font-size: 12px; fill: rgb(214, 223, 239); fill-opacity: 1; white-space: pre; opacity: 1;" transform="translate(142.12,0)">Mar 2022</text></g><g class="xtick"><text text-anchor="middle" x="0" y="333" style="font-family: 'Open Sans', verdana, arial, sans-serif; font-size: 12px; fill: rgb(214, 223, 239); fill-opacity: 1; white-space: pre; opacity: 1;" transform="translate(247.69,0)">May 2022</text></g><g class="xtick"><text text-anchor="middle" x="0" y="333" style="font-family: 'Open Sans', verdana, arial, sans-serif; font-size: 12px; fill: rgb(214, 223, 239); fill-opacity: 1; white-space: pre; opacity: 1;" transform="translate(353.27,0)">Jul 2022</text></g><g class="xtick"><text text-anchor="middle" x="0" y="333" style="font-family: 'Open Sans', verdana, arial, sans-serif; font-size: 12px; fill: rgb(214, 223, 239); fill-opacity: 1; white-space: pre; opacity: 1;" transform="translate(460.58,0)">Sep 2022</text></g><g class="xtick"><text text-anchor="middle" x="0" y="333" style="font-family: 'Open Sans', verdana, arial, sans-serif; font-size: 12px; fill: rgb(214, 223, 239); fill-opacity: 1; white-space: pre; opacity: 1;" transform="translate(566.15,0)">Nov 2022</text></g></g><g class="yaxislayer-above"><g class="ytick"><text text-anchor="end" x="39" y="4.199999999999999" transform="translate(0,294.03999999999996)" style="font-family: 'Open Sans', verdana, arial, sans-serif; font-size: 12px; fill: rgb(214, 223, 239); fill-opacity: 1; white-space: pre; opacity: 1;">−3</text></g><g class="ytick"><text text-anchor="end" x="39" y="4.199999999999999" style="font-family: 'Open Sans', verdana, arial, sans-serif; font-size: 12px; fill: rgb(214, 223, 239); fill-opacity: 1; white-space: pre; opacity: 1;" transform="translate(0,254.27)">−2</text></g><g class="ytick"><text text-anchor="end" x="39" y="4.199999999999999" style="font-family: 'Open Sans', verdana, arial, sans-serif; font-size: 12px; fill: rgb(214, 223, 239); fill-opacity: 1; white-space: pre; opacity: 1;" transform="translate(0,214.5)">−1</text></g><g class="ytick"><text text-anchor="end" x="39" y="4.199999999999999" style="font-family: 'Open Sans', verdana, arial, sans-serif; font-size: 12px; fill: rgb(214, 223, 239); fill-opacity: 1; white-space: pre; opacity: 1;" transform="translate(0,174.73)">0</text></g><g class="ytick"><text text-anchor="end" x="39" y="4.199999999999999" style="font-family: 'Open Sans', verdana, arial, sans-serif; font-size: 12px; fill: rgb(214, 223, 239); fill-opacity: 1; white-space: pre; opacity: 1;" transform="translate(0,134.95999999999998)">1</text></g><g class="ytick"><text text-anchor="end" x="39" y="4.199999999999999" style="font-family: 'Open Sans', verdana, arial, sans-serif; font-size: 12px; fill: rgb(214, 223, 239); fill-opacity: 1; white-space: pre; opacity: 1;" transform="translate(0,95.19)">2</text></g><g class="ytick"><text text-anchor="end" x="39" y="4.199999999999999" style="font-family: 'Open Sans', verdana, arial, sans-serif; font-size: 12px; fill: rgb(214, 223, 239); fill-opacity: 1; white-space: pre; opacity: 1;" transform="translate(0,55.42)">3</text></g></g><g class="overaxes-above"/></g></g><g class="polarlayer"/><g class="smithlayer"/><g class="ternarylayer"/><g class="geolayer"/><g class="funnelarealayer"/><g class="pielayer"/><g class="iciclelayer"/><g class="treemaplayer"/><g class="sunburstlayer"/><g class="glimages"/><defs id="topdefs-012e5c"><g class="clips"/><clipPath id="legend012e5c"><rect width="91" height="29" x="0" y="0"/></clipPath></defs><g class="layer-above"><g class="imagelayer"/><g class="shapelayer"/></g><g class="infolayer"><g class="legend" pointer-events="all" transform="translate(579,11.519999999999996)"><rect class="bg" shape-rendering="crispEdges" style="stroke: rgb(68, 68, 68); stroke-opacity: 1; fill: rgb(33, 34, 38); fill-opacity: 1; stroke-width: 0px;" width="91" height="29" x="0" y="0"/><g class="scrollbox" transform="" clip-path="url(#legend012e5c)"><g class="groups"><g class="traces" transform="translate(0,14.5)" style="opacity: 1;"><text class="legendtext" text-anchor="start" x="40" y="4.680000000000001" style="font-family: 'Open Sans', verdana, arial, sans-serif; font-size: 12px; fill: rgb(214, 223, 239); fill-opacity: 1; white-space: pre;">Z-score</text><g class="layers" style="opacity: 1;"><g class="legendfill"/><g class="legendlines"><path class="js-line" d="M5,0h30" style="fill: none; stroke: rgb(108, 166, 205); stroke-opacity: 1; stroke-width: 2px;"/></g><g class="legendsymbols"><g class="legendpoints"/></g></g><rect class="legendtoggle" x="0" y="-9.5" width="88.234375" height="19" style="fill: rgb(0, 0, 0); fill-opacity: 0;"/></g></g></g><rect class="scrollbar" rx="20" ry="3" width="0" height="0" style="fill: rgb(128, 139, 164); fill-opacity: 1;" x="0" y="0"/></g><g class="g-gtitle"/><g class="g-xtitle"/><g class="g-ytitle"/></g></svg>