<svg class="main-svg" xmlns="http://www.w3.org/2000/svg" xmlns:xlink="http://www.w3.org/1999/xlink" width="700" height="350" style="" viewBox="0 0 700 350"><rect x="0" y="0" width="700" height="350" style="fill: rgb(255, 255, 255); fill-opacity: 1;"/><defs id="defs-170237"><g class="clips"><clipPath id="clip170237xyplot" class="plotclip"><rect width="634" height="274"/></clipPath><clipPath class="axesclip" id="clip170237x"><rect x="36" y="0" width="634" height="350"/></clipPath><clipPath class="axesclip" id="clip170237y"><rect x="0" y="46" width="700" height="274"/></clipPath><clipPath class="axesclip" id="clip170237xy"><rect x="36" y="46" width="634" height="274"/></clipPath></g><g class="gradients"/><g class="patterns"/></defs><g class="bglayer"><rect class="bg" x="36" y="46" width="634" height="274" style="fill: rgb(229, 236, 246); fill-opacity: 1; stroke-width: 0;"/></g><g class="layer-below"><g class="imagelayer"/><g class="shapelayer"/></g><g class="cartesianlayer"><g class="subplot xy"><g class="layer-subplot"><g class="shapelayer"/><g class="imagelayer"/></g><g class="minor-gridlayer"><g class="x"/><g class="y"/></g><g class="gridlayer"><g class="x"><path class="xgrid crisp" transform="translate(197.73,0)" d="M0,46v274" style="stroke: rgb(255, 255, 255); stroke-opacity: 1; stroke-width: 1px;"/><path class="xgrid crisp" transform="translate(359.47,0)" d="M0,46v274" style="stroke: rgb(255, 255, 255); stroke-opacity: 1; stroke-width: 1px;"/><path class="xgrid crisp" transform="translate(521.2,0)" d="M0,46v274" style="stroke: rgb(255, 255, 255); stroke-opacity: 1; stroke-width: 1px;"/></g><g class="y"><path class="ygrid crisp" transform="translate(0,257.6)" d="M36,0h634" style="stroke: rgb(255, 255, 255); stroke-opacity: 1; stroke-width: 1px;"/><path class="ygrid crisp" transform="translate(0,207.91)" d="M36,0h634" style="stroke: rgb(255, 255, 255); stroke-opacity: 1; stroke-width: 1px;"/><path class="ygrid crisp" transform="translate(0,158.22)" d="M36,0h634" style="stroke: rgb(255, 255, 255); stroke-opacity: 1; stroke-width: 1px;"/><path class="ygrid crisp" transform="translate(0,108.53)" d="M36,0h634" style="stroke: rgb(255, 255, 255); stroke-opacity: 1; stroke-width: 1px;"/><path class="ygrid crisp" transform="translate(0,58.84)" d="M36,0h634" style="stroke: rgb(255, 255, 255); stroke-opacity: 1; stroke-width: 1px;"/></g></g><g class="zerolinelayer"><path class="xzl zl crisp" transform="translate(36,0)" d="M0,46v274" style="stroke: rgb(255, 255, 255); stroke-opacity: 1; stroke-width: 2px;"/><path class="yzl zl crisp" transform="translate(0,307.29)" d="M36,0h634" style="stroke: rgb(255, 255, 255); stroke-opacity: 1; stroke-width: 2px;"/></g><path class="xlines-below"/><path class="ylines-below"/><g class="overlines-below"/><g class="xaxislayer-below"/><g class="yaxislayer-below"/><g class="overaxes-below"/><g class="plot" transform="translate(36,46)" clip-path="url(#clip170237xyplot)"><g class="scatterlayer mlayer"><g class="trace scatter trace1c313772-92cf-4f01-ac82-f4cc3dc934ca" style="stroke-miterlimit: 2;"><g class="fills"><g><path class="js-fill" d="M0,260.05L22.64,258.69L25.88,258.57L45.29,257.47L48.52,256.49L64.69,254.74L67.93,254.53L77.63,253.31L80.87,252.96L93.81,252.02L97.04,251.79L100.28,247.72L103.51,245.22L109.98,243.65L113.21,240.93L119.68,241.45L122.92,240.94L135.86,240.36L139.09,239.01L161.73,237.98L164.97,234.86L168.2,235.53L171.44,240.54L174.67,242.45L177.91,241.92L187.61,239.42L190.85,244.36L213.49,242.36L216.72,241.56L223.19,239.45L226.43,239.04L236.13,238.69L239.37,223.08L245.84,223.07L249.07,222.27L252.31,222.13L255.54,221.15L258.78,220.77L262.01,212.4L271.71,211.16L274.95,208.39L278.18,206.84L281.42,208.96L287.89,203.72L291.12,199.73L294.36,197.75L297.59,205.37L320.23,204.38L323.47,201.67L333.17,199.44L336.41,198.18L342.88,197.89L346.11,196.17L349.35,194.34L352.58,220.2L362.29,220.2L365.52,219.22L368.76,216.88L371.99,216.65L378.46,216.65L381.69,215.11L384.93,213.26L388.16,212.43L391.4,204.91L394.63,202.84L397.87,202.84L401.1,201.59L414.04,200.6L417.28,102.8L420.51,78.09L423.74,75.92L426.98,75.92L430.21,62.63L433.45,13.7L436.68,13.7L498.14,13.7L498.14,260.3L0,260.3Z" style="fill: rgb(0, 128, 0); fill-opacity: 0.25; stroke-width: 0;"/></g></g><g class="errorbars"/><g class="lines"><path class="js-line" d="M0,260.3L498.14,260.3" style="vector-effect: none; fill: none; stroke: rgb(0, 0, 0); stroke-opacity: 0; stroke-width: 0px; opacity: 1;"/></g><g class="points"/><g class="text"/></g><g class="trace scatter tracef23716ae-8f46-47de-91c5-3545bb22552e" style="stroke-miterlimit: 2;"><g class="fills"/><g class="errorbars"/><g class="lines"><path class="js-line" d="M0,260.05L22.64,258.69L25.88,258.57L45.29,257.47L48.52,256.49L64.69,254.74L67.93,254.53L77.63,253.31L80.87,252.96L93.81,252.02L97.04,251.79L100.28,247.72L103.51,245.22L109.98,243.65L113.21,240.93L119.68,241.45L122.92,240.94L135.86,240.36L139.09,239.01L161.73,237.98L164.97,234.86L168.2,235.53L171.44,240.54L174.67,242.45L177.91,241.92L187.61,239.42L190.85,244.36L213.49,242.36L216.72,241.56L223.19,239.45L226.43,239.04L236.13,238.69L239.37,223.08L245.84,223.07L249.07,222.27L252.31,222.13L255.54,221.15L258.78,220.77L262.01,212.4L271.71,211.16L274.95,208.39L278.18,206.84L281.42,208.96L287.89,203.72L291.12,199.73L294.36,197.75L297.59,205.37L320.23,204.38L323.47,201.67L333.17,199.44L336.41,198.18L342.88,197.89L346.11,196.17L349.35,194.34L352.58,220.2L362.29,220.2L365.52,219.22L368.76,216.88L371.99,216.65L378.46,216.65L381.69,215.11L384.93,213.26L388.16,212.43L391.4,204.91L394.63,202.84L397.87,202.84L401.1,201.59L414.04,200.6L417.28,102.8L420.51,78.09L423.74,75.92L426.98,75.92L430.21,62.63L433.45,13.7L436.68,13.7L498.14,13.7" style="vector-effect: none; fill: none; stroke: rgb(0, 0, 0); stroke-opacity: 0; stroke-width: 0px; opacity: 1;"/></g><g class="points"/><g class="text"/></g><g class="trace scatter trace68b64e28-c095-4df0-9bff-f8d50f138ad6" style="stroke-miterlimit: 2; opacity: 1;"><g class="fills"/><g class="errorbars"/><g class="lines"><path class="js-line" d="M0,260.05L22.64,258.69L25.88,258.57L45.29,257.47L48.52,256.49L64.69,254.74L67.93,254.53L77.63,253.31L80.87,252.96L93.81,252.02L97.04,251.79L100.28,247.72L103.51,245.22L109.98,243.65L113.21,240.93L119.68,241.45L122.92,240.94L135.86,240.36L139.09,239.01L161.73,237.98L164.97,234.86L168.2,235.53L171.44,240.54L174.67,242.45L177.91,241.92L187.61,239.42L190.85,244.36L213.49,242.36L216.72,241.56L223.19,239.45L226.43,239.04L236.13,238.69L239.37,223.08L245.84,223.07L249.07,222.27L252.31,222.13L255.54,221.15L258.78,220.77L262.01,212.4L271.71,211.16L274.95,208.39L278.18,206.84L281.42,208.96L287.89,203.72L291.12,199.73L294.36,197.75L297.59,205.37L320.23,204.38L323.47,201.67L333.17,199.44L336.41,198.18L342.88,197.89L346.11,196.17L349.35,194.34L352.58,220.2L362.29,220.2L365.52,219.22L368.76,216.88L371.99,216.65L378.46,216.65L381.69,215.11L384.93,213.26L388.16,212.43L391.4,204.91L394.63,202.84L397.87,202.84L401.1,201.59L414.04,200.6L417.28,102.8L420.51,78.09L423.74,75.92L426.98,75.92L430.21,62.63L433.45,13.7L436.68,13.7L498.14,13.7" style="vector-effect: none; fill: none; stroke: rgb(50, 205, 50); stroke-opacity: 1; stroke-width: 2px; opacity: 1;"/></g><g class="points"/><g class="text"/></g><g class="trace scatter traced59e6a0e-e1bc-4c0d-9d2e-89cc622d0021" style="stroke-miterlimit: 2; opacity: 0;"><g class="fills"/><g class="errorbars"/><g class="lines"><path class="js-line" d="M0,260.3L498.14,260.3" style="vector-effect: none; fill: none; stroke: rgb(0, 0, 0); stroke-opacity: 0; stroke-width: 0px; opacity: 1;"/></g><g class="points"/><g class="text"/></g><g class="trace scatter traced03dc190-4cba-4460-b087-3c4890cffa8b" style="stroke-miterlimit: 2;"><g class="fills"><g><path class="js-fill" d="M0,259.93L32.35,258.75L35.58,258.78L45.29,258.5L48.52,258.47L74.4,257.92L77.63,257.89L135.86,256.29L139.09,256.76L142.33,256.92L145.56,253.31L152.03,253.25L155.27,250.51L158.5,250.59L161.73,244.54L164.97,242.25L168.2,241.09L184.38,239.65L187.61,239.65L190.85,236.57L194.08,236.34L197.32,236.34L200.55,235.33L207.02,231.09L210.26,230.77L213.49,230.77L216.72,228.6L219.96,239.2L223.19,239.2L232.9,239.2L236.13,238.12L245.84,237.82L249.07,237.82L278.18,237.82L281.42,233.88L294.36,233.98L297.59,236.39L300.83,236.6L304.06,237.65L307.3,238.64L310.53,238.64L329.94,238.58L333.17,226.83L378.46,226.62L381.69,189.16L391.4,189.16L394.63,159.14L634,159.14L634,260.3L0,260.3Z" style="fill: rgb(0, 128, 0); fill-opacity: 0.25; stroke-width: 0;"/></g></g><g class="errorbars"/><g class="lines"><path class="js-line" d="M0,260.3L634,260.3" style="vector-effect: none; fill: none; stroke: rgb(0, 0, 0); stroke-opacity: 0; stroke-width: 0px; opacity: 1;"/></g><g class="points"/><g class="text"/></g><g class="trace scatter trace055f0f33-210b-4a61-a917-58ce1dba1842" style="stroke-miterlimit: 2;"><g class="fills"/><g class="errorbars"/><g class="lines"><path class="js-line" d="M0,259.93L32.35,258.75L35.58,258.78L45.29,258.5L48.52,258.47L74.4,257.92L77.63,257.89L135.86,256.29L139.09,256.76L142.33,256.92L145.56,253.31L152.03,253.25L155.27,250.51L158.5,250.59L161.73,244.54L164.97,242.25L168.2,241.09L184.38,239.65L187.61,239.65L190.85,236.57L194.08,236.34L197.32,236.34L200.55,235.33L207.02,231.09L210.26,230.77L213.49,230.77L216.72,228.6L219.96,239.2L223.19,239.2L232.9,239.2L236.13,238.12L245.84,237.82L249.07,237.82L278.18,237.82L281.42,233.88L294.36,233.98L297.59,236.39L300.83,236.6L304.06,237.65L307.3,238.64L310.53,238.64L329.94,238.58L333.17,226.83L378.46,226.62L381.69,189.16L391.4,189.16L394.63,159.14L634,159.14" style="vector-effect: none; fill: none; stroke: rgb(0, 0, 0); stroke-opacity: 0; stroke-width: 0px; opacity: 1;"/></g><g class="points"/><g class="text"/></g><g class="trace scatter trace8c42594e-da23-42b5-8425-ce3acc900e53" style="stroke-miterlimit: 2; opacity: 1;"><g class="fills"/><g class="errorbars"/><g class="lines"><path class="js-line" d="M0,259.93L32.35,258.75L35.58,258.78L45.29,258.5L48.52,258.47L74.4,257.92L77.63,257.89L135.86,256.29L139.09,256.76L142.33,256.92L145.56,253.31L152.03,253.25L155.27,250.51L158.5,250.59L161.73,244.54L164.97,242.25L168.2,241.09L184.38,239.65L187.61,239.65L190.85,236.57L194.08,236.34L197.32,236.34L200.55,235.33L207.02,231.09L210.26,230.77L213.49,230.77L216.72,228.6L219.96,239.2L223.19,239.2L232.9,239.2L236.13,238.12L245.84,237.82L249.07,237.82L278.18,237.82L281.42,233.88L294.36,233.98L297.59,236.39L300.83,236.6L304.06,237.65L307.3,238.64L310.53,238.64L329.94,238.58L333.17,226.83L378.46,226.62L381.69,189.16L391.4,189.16L394.63,159.14L634,159.14" style="vector-effect: none; fill: none; stroke: rgb(123, 104, 238); stroke-opacity: 1; stroke-width: 2px; opacity: 1;"/></g><g class="points"/><g class="text"/></g><g class="trace scatter trace2f3cb79b-d46c-4057-8d3c-670c9f8045bd" style="stroke-miterlimit: 2; opacity: 0;"><g class="fills"/><g class="errorbars"/><g class="lines"><path class="js-line" d="M0,260.3L634,260.3" style="vector-effect: none; fill: none; stroke: rgb(0, 0, 0); stroke-opacity: 0; stroke-width: 0px; opacity: 1;"/></g><g class="points"/><g class="text"/></g></g></g><g class="overplot"/><path class="xlines-above crisp" d="M0,0" style="fill: none;"/><path class="ylines-above crisp" d="M0,0" style="fill: none;"/><g class="overlines-above"/><g class="xaxislayer-above"><g class="xtick"><text text-anchor="middle" x="0" y="333" transform="translate(36,0)" style="font-family: 'Open Sans', verdana, arial, sans-serif; font-size: 12px; fill: rgb(42, 63, 95); fill-opacity: 1; white-space: pre; opacity: 1;">0</text></g><g class="xtick"><text text-anchor="middle" x="0" y="333" style="font-family: 'Open Sans', verdana, arial, sans-serif; font-size: 12px; fill: rgb(42, 63, 95); fill-opacity: 1; white-space: pre; opacity: 1;" transform="translate(197.73,0)">50</text></g><g class="xtick"><text text-anchor="middle" x="0" y="333" style="font-family: 'Open Sans', verdana, arial, sans-serif; font-size: 12px; fill: rgb(42, 63, 95); fill-opacity: 1; white-space: pre; opacity: 1;" transform="translate(359.47,0)">100</text></g><g class="xtick"><text text-anchor="middle" x="0" y="333" style="font-family: 'Open Sans', verdana, arial, sans-serif; font-size: 12px; fill: rgb(42, 63, 95); fill-opacity: 1; white-space: pre; opacity: 1;" transform="translate(521.2,0)">150</text></g></g><g class="yaxislayer-above"><g class="ytick"><text text-anchor="end" x="35" y="4.199999999999999" transform="translate(0,307.29)" style="font-family: 'Open Sans', verdana, arial, sans-serif; font-size: 12px; fill: rgb(42, 63, 95); fill-opacity: 1; white-space: pre; opacity: 1;">0</text></g><g class="ytick"><text text-anchor="end" x="35" y="4.199999999999999" style="font-family: 'Open Sans', verdana, arial, sans-serif; font-size: 12px; fill: rgb(42, 63, 95); fill-opacity: 1; white-space: pre; opacity: 1;" transform="translate(0,257.6)">50</text></g><g class="ytick"><text text-anchor="end" x="35" y="4.199999999999999" style="font-family: 'Open Sans', verdana, arial, sans-serif; font-size: 12px; fill: rgb(42, 63, 95); fill-opacity: 1; white-space: pre; opacity: 1;" transform="translate(0,207.91)">100</text></g><g class="ytick"><text text-anchor="end" x="35" y="4.199999999999999" style="font-family: 'Open Sans', verdana, arial, sans-serif; font-size: 12px; fill: rgb(42, 63, 95); fill-opacity: 1; white-space: pre; opacity: 1;" transform="translate(0,158.22)">150</text></g><g class="ytick"><text text-anchor="end" x="35" y="4.199999999999999" style="font-family: 'Open Sans', verdana, arial, sans-serif; font-size: 12px; fill: rgb(42, 63, 95); fill-opacity: 1; white-space: pre; opacity: 1;" transform="translate(0,108.53)">200</text></g><g class="ytick"><text text-anchor="end" x="35" y="4.199999999999999" style="font-family: 'Open Sans', verdana, arial, sans-serif; font-size: 12px; fill: rgb(42, 63, 95); fill-opacity: 1; white-space: pre; opacity: 1;" transform="translate(0,58.84)">250</text></g></g><g class="overaxes-above"/></g></g><g class="polarlayer"/><g class="smithlayer"/><g class="ternarylayer"/><g class="geolayer"/><g class="funnelarealayer"/><g class="pielayer"/><g class="iciclelayer"/><g class="treemaplayer"/><g class="sunburstlayer"/><g class="glimages"/><defs id="topdefs-170237"><g class="clips"/><clipPath id="legend170237"><rect width="267" height="29" x="0" y="0"/></clipPath></defs><g class="layer-above"><g class="imagelayer"/><g class="shapelayer"><g class="shape-group" data-index="0" clip-path="url(#clip170237y)"><path data-index="0" fill-rule="evenodd" d="M36,306.3L670,306.3" style="opacity: 1; stroke: rgb(128, 128, 128); stroke-opacity: 1; fill: rgb(0, 0, 0); fill-opacity: 0; stroke-dasharray: 9px, 9px; stroke-width: 2px;"/></g><g class="shape-group" data-index="1" clip-path="url(#clip170237y)"><path data-index="1" fill-rule="evenodd" d="M36,306.3L670,306.3" style="opacity: 1; stroke: rgb(128, 128, 128); stroke-opacity: 1; fill: rgb(0, 0, 0); fill-opacity: 0; stroke-dasharray: 9px, 9px; stroke-width: 2px;"/></g></g></g><g class="infolayer"><g class="legend" pointer-events="all" transform="translate(403,11.519999999999996)"><rect class="bg" shape-rendering="crispEdges" width="267" height="29" x="0" y="0" style="stroke: rgb(68, 68, 68); stroke-opacity: 1; fill: rgb(255, 255, 255); fill-opacity: 1; stroke-width: 0px;"/><g class="scrollbox" transform="" clip-path="url(#legend170237)"><g class="groups"><g class="traces" transform="translate(0,14.5)" style="opacity: 1;"><text class="legendtext" text-anchor="start" x="40" y="4.680000000000001" style="font-family: 'Open Sans', verdana, arial, sans-serif; font-size: 12px; fill: rgb(42, 63, 95); fill-opacity: 1; white-space: pre;">Edge Ratio (S)</text><g class="layers" style="opacity: 1;"><g class="legendfill"/><g class="legendlines"><path class="js-line" d="M5,0h30" style="fill: none; stroke: rgb(50, 205, 50); stroke-opacity: 1; stroke-width: 2px;"/></g><g class="legendsymbols"><g class="legendpoints"/></g></g><rect class="legendtoggle" x="0" y="-9.5" width="130.59375" height="19" style="fill: rgb(0, 0, 0); fill-opacity: 0;"/></g><g class="traces" transform="translate(133.09375,14.5)" style="opacity: 1;"><text class="legendtext" text-anchor="start" x="40" y="4.680000000000001" style="font-family: 'Open Sans', verdana, arial, sans-serif; font-size: 12px; fill: rgb(42, 63, 95); fill-opacity: 1; white-space: pre;">Edge Ratio (R)</text><g class="layers" style="opacity: 1;"><g class="legendfill"/><g class="legendlines"><path class="js-line" d="M5,0h30" style="fill: none; stroke: rgb(123, 104, 238); stroke-opacity: 1; stroke-width: 2px;"/></g><g class="legendsymbols"><g class="legendpoints"/></g></g><rect class="legendtoggle" x="0" y="-9.5" width="130.734375" height="19" style="fill: rgb(0, 0, 0); fill-opacity: 0;"/></g></g></g><rect class="scrollbar" rx="20" ry="3" width="0" height="0" x="0" y="0" style="fill: rgb(128, 139, 164); fill-opacity: 1;"/></g><g class="g-gtitle"/><g class="g-xtitle"/><g class="g-ytitle"/></g></svg>