<svg class="main-svg" xmlns="http://www.w3.org/2000/svg" xmlns:xlink="http://www.w3.org/1999/xlink" width="700" height="350" style="" viewBox="0 0 700 350"><rect x="0" y="0" width="700" height="350" style="fill: rgb(255, 255, 255); fill-opacity: 1;"/><defs id="defs-a02e14"><g class="clips"><clipPath id="clipa02e14xyplot" class="plotclip"><rect width="630" height="274"/></clipPath><clipPath class="axesclip" id="clipa02e14x"><rect x="40" y="0" width="630" height="350"/></clipPath><clipPath class="axesclip" id="clipa02e14y"><rect x="0" y="46" width="700" height="274"/></clipPath><clipPath class="axesclip" id="clipa02e14xy"><rect x="40" y="46" width="630" height="274"/></clipPath></g><g class="gradients"/><g class="patterns"/></defs><g class="bglayer"><rect class="bg" x="40" y="46" width="630" height="274" style="fill: rgb(229, 236, 246); fill-opacity: 1; stroke-width: 0;"/></g><g class="layer-below"><g class="imagelayer"/><g class="shapelayer"/></g><g class="cartesianlayer"><g class="subplot xy"><g class="layer-subplot"><g class="shapelayer"/><g class="imagelayer"/></g><g class="minor-gridlayer"><g class="x"/><g class="y"/></g><g class="gridlayer"><g class="x"><path class="xgrid crisp" transform="translate(144.70999999999998,0)" d="M0,46v274" style="stroke: rgb(255, 255, 255); stroke-opacity: 1; stroke-width: 1px;"/><path class="xgrid crisp" transform="translate(250.58,0)" d="M0,46v274" style="stroke: rgb(255, 255, 255); stroke-opacity: 1; stroke-width: 1px;"/><path class="xgrid crisp" transform="translate(354.71,0)" d="M0,46v274" style="stroke: rgb(255, 255, 255); stroke-opacity: 1; stroke-width: 1px;"/><path class="xgrid crisp" transform="translate(460.58,0)" d="M0,46v274" style="stroke: rgb(255, 255, 255); stroke-opacity: 1; stroke-width: 1px;"/><path class="xgrid crisp" transform="translate(564.71,0)" d="M0,46v274" style="stroke: rgb(255, 255, 255); stroke-opacity: 1; stroke-width: 1px;"/></g><g class="y"><path class="ygrid crisp" transform="translate(0,286.8)" d="M40,0h630" style="stroke: rgb(255, 255, 255); stroke-opacity: 1; stroke-width: 1px;"/><path class="ygrid crisp" transform="translate(0,246.05)" d="M40,0h630" style="stroke: rgb(255, 255, 255); stroke-opacity: 1; stroke-width: 1px;"/><path class="ygrid crisp" transform="translate(0,205.3)" d="M40,0h630" style="stroke: rgb(255, 255, 255); stroke-opacity: 1; stroke-width: 1px;"/><path class="ygrid crisp" transform="translate(0,164.54000000000002)" d="M40,0h630" style="stroke: rgb(255, 255, 255); stroke-opacity: 1; stroke-width: 1px;"/><path class="ygrid crisp" transform="translate(0,123.79)" d="M40,0h630" style="stroke: rgb(255, 255, 255); stroke-opacity: 1; stroke-width: 1px;"/><path class="ygrid crisp" transform="translate(0,83.03999999999999)" d="M40,0h630" style="stroke: rgb(255, 255, 255); stroke-opacity: 1; stroke-width: 1px;"/></g></g><g class="zerolinelayer"/><path class="xlines-below"/><path class="ylines-below"/><g class="overlines-below"/><g class="xaxislayer-below"/><g class="yaxislayer-below"/><g class="overaxes-below"/><g class="plot" transform="translate(40,46)" clip-path="url(#clipa02e14xyplot)"><g class="scatterlayer mlayer"><g class="trace scatter trace4e857a49-d11c-47b9-b575-1dc5914cd536" style="stroke-miterlimit: 2; opacity: 1;"><g class="fills"/><g class="errorbars"/><g class="lines"><path class="js-line" d="M2.3,251.92L6.33,248.66L6.9,248.61L9.78,245.5L10.36,245.6L14.96,246.73L15.53,245.95L18.41,243.31L18.99,243.33L20.14,243.39L20.71,243.11L25.89,240.02L26.47,240.25L28.77,241.61L29.34,241.81L31.64,242.21L32.22,242.92L35.1,246.1L35.67,246.1L38.55,245.71L39.12,246.39L40.27,248.33L40.85,251.54L43.15,260.24L43.73,260.03L44.3,260.3L48.9,255.16L49.48,254.64L52.36,255.76L52.93,255.31L55.81,253.15L56.38,252.66L57.53,252.25L58.11,252.59L61.56,253.4L62.14,253.06L64.44,252.76L65.01,252.62L66.74,251.11L67.32,250.56L68.47,249.23L69.04,248.34L71.34,245.43L71.92,245.14L73.07,244.03L73.64,243.26L74.79,242.91L75.37,243.45L76.52,244.85L77.1,244.74L80.55,242.41L81.12,242.65L84.58,244.94L85.15,244.68L88.6,242.01L89.18,241.93L91.48,241.9L92.05,241.9L93.21,242.01L93.78,242.23L96.66,242.97L97.23,243.02L102.41,243.72L102.99,244.11L107.59,244.23L108.16,244.12L110.47,243.67L111.04,243.65L115.64,244.23L116.22,244.03L119.1,242.24L119.67,241.05L123.12,235.62L123.7,235.5L126,234.62L126.58,234.21L127.73,233.72L128.3,234.02L131.18,233.55L131.75,233L134.05,233.08L134.63,233.54L138.66,234.91L139.23,234.63L140.96,234.05L141.53,235.07L144.41,239.61L144.99,239.82L149.01,238.17L149.59,237.76L151.32,236.8L151.89,237.22L154.77,238.36L155.34,238.17L157.07,237.65L157.64,237.75L161.1,238.12L161.67,237.82L163.97,235.73L164.55,235.32L166.27,234.91L166.85,235.07L168.58,234.42L169.15,233.2L172.03,228.48L172.6,227.92L177.21,225.19L177.78,223.72L180.08,218.96L180.66,219.2L181.23,219.09L181.81,217.91L185.26,212.93L185.84,211.51L187.56,207.17L188.14,206.72L189.29,205.58L189.86,206.79L191.59,209.1L192.16,208.38L194.47,203.49L195.04,203.87L196.19,203.44L196.77,204.36L197.92,205.2L198.49,206.25L199.07,206.56L199.64,205.9L200.79,204.39L201.37,201.74L204.25,186.93L204.82,186.13L205.97,186.16L206.55,185.19L212.88,150.94L213.45,144.87L215.75,122.13L216.33,123.15L218.05,131.3L218.63,132.55L219.21,132.05L219.78,130.53L220.36,131.09L220.93,133.63L221.51,134.67L222.08,139.03L224.38,150.69L224.96,149.27L225.53,151.37L226.11,150.23L230.14,137.65L230.71,133.55L233.01,111.22L233.59,105.7L235.32,90.9L235.89,89.08L238.19,78.04L238.77,72.2L240.49,57.08L241.07,59.41L242.79,80.91L243.37,87.45L244.52,90.51L245.1,89.47L246.82,81.02L247.4,81.61L249.12,72.81L249.7,67.04L252,43.81L252.58,43.9L253.15,44.71L253.73,43.46L254.88,46.99L255.45,45.03L256.03,44.45L256.6,47.99L257.75,55.07L258.33,60.46L258.9,62.4L259.48,61.23L260.05,60.24L260.63,56.18L262.36,44.68L262.93,41.88L265.23,42.75L265.81,45.47L268.11,43.06L268.68,39.93L270.99,27.76L271.56,27.11L276.16,73.05L276.74,72.96L278.47,64.4L279.04,57.27L280.77,50.93L281.34,51.11L281.92,51.37L282.49,52.54L283.64,50.64L284.22,46.65L285.37,47.67L285.95,54.36L292.27,128.82L292.85,127.43L293.42,129.37L294,127.75L295.15,126.26L295.73,129.59L297.45,134.84L298.03,133.31L299.18,128.57L299.75,130.02L300.33,130.69L300.9,133.97L301.48,138.64L302.05,138.27L302.63,137.34L303.78,134.51L304.36,129.93L306.66,121.7L307.23,124.4L310.11,143.63L310.68,144.41L311.26,147.72L311.84,147.3L312.41,145.55L313.56,143.99L314.14,141.22L314.71,140.09L315.29,140.7L316.44,140.98L317.01,142.04L318.16,141.53L318.74,142.99L319.89,144.39L320.47,144.39L322.77,147.31L323.34,149.61L325.64,154.91L326.22,154.35L327.37,152.26L327.95,149.43L332.55,115.41L333.12,116.06L334.85,120.22L335.42,117.9L338.3,97.44L338.88,97.54L340.03,93.69L340.6,92.5L341.75,91.94L342.33,94.38L342.9,94.69L343.48,92.82L345.78,82.02L346.36,82.32L347.51,84.14L348.08,84.66L348.66,83.75L349.23,85.3L350.96,84.94L351.53,83.97L353.26,74.79L353.84,76.84L355.56,88.54L356.14,94.6L357.29,96.13L357.86,95.56L360.16,87.09L360.74,86.95L363.62,106.44L364.19,106.55L364.77,104.5L365.34,105.59L366.49,109.77L367.07,108.9L369.37,88.44L369.95,82.15L372.82,59.15L373.4,57.42L375.12,50.88L375.7,45.32L377.42,34.28L378,28.62L379.15,23.97L379.73,24.67L380.3,25.18L380.88,27.9L382.6,33.61L383.18,34.24L383.75,33.18L384.33,34.12L385.48,31.29L386.05,29.16L387.21,28.91L387.78,29.07L388.93,28.56L389.51,24.82L391.23,14.38L391.81,13.7L394.68,25.61L395.26,31.75L396.99,42.05L397.56,45.37L398.14,44.86L398.71,46.36L401.01,54L401.59,52.76L402.16,52.98L402.74,50L403.32,48.64L403.89,51.62L406.77,77.5L407.34,78.75L410.22,85.9L410.79,84.55L412.52,89.02L413.1,88.94L413.67,90.59L414.25,89.55L415.97,81.01L416.55,78.12L417.7,74.95L418.27,77.56L420.58,89.85L421.15,90.05L421.73,90.04L422.3,91.08L423.45,97L424.03,101.72L425.75,110.24L426.33,110.59L428.05,106.97L428.63,105.87L429.21,105.56L429.78,106.94L430.36,107.12L430.93,108.22L431.51,110.26L432.08,115.68L434.38,133.73L434.96,133.4L437.84,127.13L438.41,125.83L439.56,127.3L440.14,124.38L441.29,118.98L441.86,113.37L443.59,103.65L444.16,103.65L445.89,107.95L446.47,107.12L447.04,105.86L447.62,107.25L448.77,111.02L449.34,116.03L451.07,125.71L451.64,127.17L453.37,125.34L453.95,120.54L455.67,109.06L456.25,107.9L458.55,123.63L459.12,121.31L460.27,120.98L460.85,120.29L462.58,122.98L463.15,121.07L466.03,112.62L466.6,111.47L467.75,109.14L468.33,106.61L471.78,90.82L472.36,91.26L474.08,93.47L474.66,93.46L480.41,117.48L480.99,116.75L482.14,117.36L482.71,116.08L483.86,115.33L484.44,115.31L487.32,121.17L487.89,120.94L488.47,121.64L489.04,123.88L489.62,123.59L490.19,124.17L490.77,125.82L491.34,124.93L492.49,127.84L493.07,130.31L493.64,133.32L494.22,140.98L497.1,160.61L497.67,160.38L498.82,158.5L499.4,158.96L499.97,158.78L501.12,160.85L501.7,160.93L502.27,160.62L502.85,161.16L504,161L504.58,162.38L505.73,162.79L506.3,161.02L508.03,156.66L508.6,156.45L509.75,159.53L510.33,158.25L512.05,157.05L512.63,157.72L513.78,163.75L514.36,170.05L517.23,196.26L517.81,197.6L518.38,199.21L518.96,198.94L519.53,199.34L521.26,196.36L521.84,196.11L522.41,195.5L522.99,196.15L526.44,201.82L527.01,201.49L528.16,198.49L528.74,196.51L529.89,194.86L530.47,195.33L532.19,199.28L532.77,199.3L534.49,195.27L535.07,192.97L536.79,187.83L537.37,187.85L538.52,190.01L539.1,191.58L539.67,191.4L540.25,190.28L541.4,187.43L541.97,185.72L542.55,185.41L543.12,186.12L545.42,188.06L546,187.9L550.6,182.73L551.18,182.8L552.33,184.65L552.9,187.46L555.21,194.74L555.78,194.32L556.36,193.97L556.93,195.01L559.81,200.21L560.38,200.14L562.11,200.07L562.68,200.27L564.41,202.28L564.99,201.15L567.29,193.94L567.86,194.86L570.74,201.22L571.32,201.88L573.04,203.56L573.62,204.05L575.92,203.71L576.49,203.2L577.64,202.61L578.22,202.66L579.37,201.88L579.95,201.29L581.67,200.52L582.25,201.25L583.97,203.13L584.55,203.16L586.27,203.26L586.85,202.94L590.88,203.02L591.45,202.17L594.33,197.52L594.9,197.74L596.05,197.93L596.63,198.43L598.93,196.65L599.51,198.01L601.81,211.59L602.38,213.37L602.96,212.77L603.53,213.34L605.26,213.45L605.84,213.37L608.71,215.14L609.29,214.95L610.44,214.19L611.01,214.51L612.16,214.11L612.74,213.7L615.04,212.22L615.62,212.12L617.34,212.04L617.92,211.92L619.64,211.17L620.22,210.61L621.37,210.79L621.95,211.13L623.67,213.46L624.25,213.32L628.85,213.35L629.42,213.55L630,213.85" style="vector-effect: none; fill: none; stroke: rgb(31, 119, 180); stroke-opacity: 1; stroke-width: 2px; opacity: 1;"/></g><g class="points"/><g class="text"/></g><g class="trace scatter trace131edf6e-5ded-44dc-9b2e-7b5d08db8b32" style="stroke-miterlimit: 2; opacity: 1;"><g class="fills"/><g class="errorbars"/><g class="lines"><path class="js-line" d="M18.41,247.11L21.86,247.11L22.44,244.91L25.89,244.91L26.47,243.49L29.92,243.49L30.49,242.5L37.97,242.52L38.55,243.53L42,243.53L42.58,247.38L46.03,247.38L46.6,250.73L50.05,250.73L50.63,253.99L54.08,253.99L54.66,255.43L58.11,255.43L58.68,256.36L62.14,256.36L62.71,254.89L66.16,254.89L66.74,253.39L70.19,253.39L70.77,250.96L74.22,250.96L74.79,249.36L78.25,249.36L78.82,247.16L82.27,247.16L82.85,245.85L86.3,245.85L86.88,244.4L94.36,243.7L94.93,243.19L114.49,243.91L115.07,244.07L122.55,243.58L123.12,242.02L126.58,242.02L127.15,239.9L130.6,239.9L131.18,237.77L134.63,237.77L135.21,235.75L138.66,235.75L139.23,234.28L146.71,234.91L147.29,236.01L150.74,236.01L151.32,236.79L158.79,237.51L159.37,238.36L162.82,238.36L163.4,237.46L166.85,237.46L167.42,236.52L170.88,236.52L171.45,234.81L174.9,234.81L175.48,232.4L178.93,232.4L179.51,228.48L182.96,228.48L183.53,224.75L186.99,224.75L187.56,219.14L191.01,219.14L191.59,214.95L195.04,214.95L195.62,210.37L199.07,210.37L199.64,207.39L203.1,207.39L203.67,201.26L207.12,201.26L207.7,194.82L211.15,194.82L211.73,182.92L215.18,182.92L215.75,167.42L219.21,167.42L219.78,153.85L223.23,153.85L223.81,146.67L227.26,146.67L227.84,141.09L231.29,141.09L231.86,136.1L235.32,136.1L235.89,127.66L239.34,127.66L239.92,109.93L243.37,109.93L243.95,99.46L247.4,99.46L247.97,84.72L251.42,84.72L252,68.09L255.45,68.09L256.03,60.91L259.48,60.91L260.05,62.21L263.51,62.21L264.08,51.11L267.53,51.11L268.11,43.77L271.56,43.77L272.14,46.29L275.59,46.29L276.16,53.23L287.67,53.11L288.25,64.31L291.7,64.31L292.27,81.79L295.73,81.79L296.3,92.65L299.75,92.65L300.33,109.58L303.78,109.58L304.36,125.17L307.81,125.17L308.38,133.94L319.89,134.36L320.47,135.68L323.92,135.68L324.49,141.63L331.97,141.92L332.55,137.58L336,137.58L336.58,130.64L340.03,130.64L340.6,120.2L344.05,120.2L344.63,105.92L348.08,105.92L348.66,94.93L352.11,94.93L352.68,85.33L356.14,85.33L356.71,83.49L364.19,83.31L364.77,88.29L372.25,88.81L372.82,86.35L376.27,86.35L376.85,73.72L380.3,73.72L380.88,62.58L384.33,62.58L384.9,47.82L388.36,47.82L388.93,35.49L392.38,35.49L392.96,26.78L396.41,26.78L396.99,29.08L400.44,29.08L401.01,32.08L404.47,32.08L405.04,41.82L408.49,41.82L409.07,52.6L412.52,52.6L413.1,67.89L416.55,67.89L417.12,74.34L420.58,74.34L421.15,82.42L424.6,82.42L425.18,88.49L428.63,88.49L429.21,94.19L432.66,94.19L433.23,102.69L436.68,102.69L437.26,113.19L440.71,113.19L441.29,117.21L448.77,116.98L449.34,120.8L452.79,120.8L453.37,119.63L460.85,119.22L461.42,122.94L464.88,122.94L465.45,123.71L468.9,123.71L469.48,116.88L472.93,116.88L473.51,109.75L476.96,109.75L477.53,106.66L480.99,106.66L481.56,105.14L485.01,105.14L485.59,106.59L489.04,106.59L489.62,113.4L493.07,113.4L493.64,123.5L497.1,123.5L497.67,132.38L501.12,132.38L501.7,140.04L505.15,140.04L505.73,148.21L509.18,148.21L509.75,155.19L513.21,155.19L513.78,161.13L517.23,161.13L517.81,169.9L521.26,169.9L521.84,177.47L525.29,177.47L525.86,185.75L529.32,185.75L529.89,193.12L533.34,193.12L533.92,197.99L537.37,197.99L537.95,196.32L541.4,196.32L541.97,194.44L545.42,194.44L546,191.28L549.45,191.28L550.03,188.46L557.51,187.84L558.08,190.28L561.53,190.28L562.11,193.01L565.56,193.01L566.14,194.16L569.59,194.16L570.16,198.15L573.62,198.15L574.19,200.38L581.67,200.84L582.25,201.28L585.7,201.28L586.27,203.32L593.75,203.2L594.33,201.71L597.78,201.71L598.36,200.17L601.81,200.17L602.38,202.69L605.84,202.69L606.41,205.12L609.86,205.12L610.44,207.67L613.89,207.67L614.47,210.52L617.92,210.52L618.49,213.64L625.97,213.31L626.55,212.86L630,212.86" style="vector-effect: none; fill: none; stroke: rgb(255, 127, 14); stroke-opacity: 1; stroke-width: 2px; opacity: 1;"/></g><g class="points"/><g class="text"/></g><g class="trace scatter trace4002bf7e-846f-48f8-8b3e-20a7d26c6977" style="stroke-miterlimit: 2; opacity: 1;"><g class="fills"/><g class="errorbars"/><g class="lines"><path class="js-line" d="M86.88,246.9L121.4,247.08L121.97,244.86L139.23,244.86L139.81,240.58L156.49,240.58L157.07,238.85L174.33,238.85L174.9,235.33L191.59,235.33L192.16,226.78L209.42,226.78L210,212.37L227.26,212.37L227.84,194.91L243.37,194.91L243.95,166.91L261.21,166.91L261.78,130.12L278.47,130.12L279.04,99.05L296.3,99.05L296.88,92.26L313.56,92.26L314.14,90.69L331.4,90.69L331.97,93.55L349.23,93.55L349.81,103.13L366.49,103.13L367.07,114.5L384.33,114.5L384.9,94.95L401.59,94.95L402.16,77.05L419.42,77.05L420,73.24L437.26,73.24L437.84,80.32L471.21,80.8L471.78,93.66L488.47,93.66L489.04,109.39L506.3,109.39L506.88,121.22L523.56,121.22L524.14,136.46L541.4,136.46L541.97,152.64L559.23,152.64L559.81,173.41L576.49,173.41L577.07,188.31L594.33,188.31L594.9,197.52L611.59,197.52L612.16,199.65L630,199.65" style="vector-effect: none; fill: none; stroke: rgb(44, 160, 44); stroke-opacity: 1; stroke-width: 2px; opacity: 1;"/></g><g class="points"/><g class="text"/></g></g></g><g class="overplot"/><path class="xlines-above crisp" d="M0,0" style="fill: none;"/><path class="ylines-above crisp" d="M0,0" style="fill: none;"/><g class="overlines-above"/><g class="xaxislayer-above"><g class="xtick"><text text-anchor="middle" x="0" y="333" transform="translate(40,0)" style="font-family: 'Open Sans', verdana, arial, sans-serif; font-size: 12px; fill: rgb(42, 63, 95); fill-opacity: 1; white-space: pre; opacity: 1;">Jan 2020</text></g><g class="xtick"><text text-anchor="middle" x="0" y="333" style="font-family: 'Open Sans', verdana, arial, sans-serif; font-size: 12px; fill: rgb(42, 63, 95); fill-opacity: 1; white-space: pre; opacity: 1;" transform="translate(144.70999999999998,0)">Jul 2020</text></g><g class="xtick"><text text-anchor="middle" x="0" y="333" style="font-family: 'Open Sans', verdana, arial, sans-serif; font-size: 12px; fill: rgb(42, 63, 95); fill-opacity: 1; white-space: pre; opacity: 1;" transform="translate(250.58,0)">Jan 2021</text></g><g class="xtick"><text text-anchor="middle" x="0" y="333" style="font-family: 'Open Sans', verdana, arial, sans-serif; font-size: 12px; fill: rgb(42, 63, 95); fill-opacity: 1; white-space: pre; opacity: 1;" transform="translate(354.71,0)">Jul 2021</text></g><g class="xtick"><text text-anchor="middle" x="0" y="333" style="font-family: 'Open Sans', verdana, arial, sans-serif; font-size: 12px; fill: rgb(42, 63, 95); fill-opacity: 1; white-space: pre; opacity: 1;" transform="translate(460.58,0)">Jan 2022</text></g><g class="xtick"><text text-anchor="middle" x="0" y="333" style="font-family: 'Open Sans', verdana, arial, sans-serif; font-size: 12px; fill: rgb(42, 63, 95); fill-opacity: 1; white-space: pre; opacity: 1;" transform="translate(564.71,0)">Jul 2022</text></g></g><g class="yaxislayer-above"><g class="ytick"><text text-anchor="end" x="39" y="4.199999999999999" transform="translate(0,286.8)" style="font-family: 'Open Sans', verdana, arial, sans-serif; font-size: 12px; fill: rgb(42, 63, 95); fill-opacity: 1; white-space: pre; opacity: 1;">10k</text></g><g class="ytick"><text text-anchor="end" x="39" y="4.199999999999999" style="font-family: 'Open Sans', verdana, arial, sans-serif; font-size: 12px; fill: rgb(42, 63, 95); fill-opacity: 1; white-space: pre; opacity: 1;" transform="translate(0,246.05)">20k</text></g><g class="ytick"><text text-anchor="end" x="39" y="4.199999999999999" style="font-family: 'Open Sans', verdana, arial, sans-serif; font-size: 12px; fill: rgb(42, 63, 95); fill-opacity: 1; white-space: pre; opacity: 1;" transform="translate(0,205.3)">30k</text></g><g class="ytick"><text text-anchor="end" x="39" y="4.199999999999999" style="font-family: 'Open Sans', verdana, arial, sans-serif; font-size: 12px; fill: rgb(42, 63, 95); fill-opacity: 1; white-space: pre; opacity: 1;" transform="translate(0,164.54000000000002)">40k</text></g><g class="ytick"><text text-anchor="end" x="39" y="4.199999999999999" style="font-family: 'Open Sans', verdana, arial, sans-serif; font-size: 12px; fill: rgb(42, 63, 95); fill-opacity: 1; white-space: pre; opacity: 1;" transform="translate(0,123.79)">50k</text></g><g class="ytick"><text text-anchor="end" x="39" y="4.199999999999999" style="font-family: 'Open Sans', verdana, arial, sans-serif; font-size: 12px; fill: rgb(42, 63, 95); fill-opacity: 1; white-space: pre; opacity: 1;" transform="translate(0,83.03999999999999)">60k</text></g></g><g class="overaxes-above"/></g></g><g class="polarlayer"/><g class="smithlayer"/><g class="ternarylayer"/><g class="geolayer"/><g class="funnelarealayer"/><g class="pielayer"/><g class="iciclelayer"/><g class="treemaplayer"/><g class="sunburstlayer"/><g class="glimages"/><defs id="topdefs-a02e14"><g class="clips"/><clipPath id="legenda02e14"><rect width="334" height="29" x="0" y="0"/></clipPath></defs><g class="layer-above"><g class="imagelayer"/><g class="shapelayer"/></g><g class="infolayer"><g class="legend" pointer-events="all" transform="translate(336,11.519999999999996)"><rect class="bg" shape-rendering="crispEdges" style="stroke: rgb(68, 68, 68); stroke-opacity: 1; fill: rgb(255, 255, 255); fill-opacity: 1; stroke-width: 0px;" width="334" height="29" x="0" y="0"/><g class="scrollbox" transform="" clip-path="url(#legenda02e14)"><g class="groups"><g class="traces" transform="translate(0,14.5)" style="opacity: 1;"><text class="legendtext" text-anchor="start" x="40" y="4.680000000000001" style="font-family: 'Open Sans', verdana, arial, sans-serif; font-size: 12px; fill: rgb(42, 63, 95); fill-opacity: 1; white-space: pre;">SMA (D)</text><g class="layers" style="opacity: 1;"><g class="legendfill"/><g class="legendlines"><path class="js-line" d="M5,0h30" style="fill: none; stroke: rgb(31, 119, 180); stroke-opacity: 1; stroke-width: 2px;"/></g><g class="legendsymbols"><g class="legendpoints"/></g></g><rect class="legendtoggle" x="0" y="-9.5" width="93.390625" height="19" style="fill: rgb(0, 0, 0); fill-opacity: 0;"/></g><g class="traces" transform="translate(95.890625,14.5)" style="opacity: 1;"><text class="legendtext" text-anchor="start" x="40" y="4.680000000000001" style="font-family: 'Open Sans', verdana, arial, sans-serif; font-size: 12px; fill: rgb(42, 63, 95); fill-opacity: 1; white-space: pre;">SMA (W-MON)</text><g class="layers" style="opacity: 1;"><g class="legendfill"/><g class="legendlines"><path class="js-line" d="M5,0h30" style="fill: none; stroke: rgb(255, 127, 14); stroke-opacity: 1; stroke-width: 2px;"/></g><g class="legendsymbols"><g class="legendpoints"/></g></g><rect class="legendtoggle" x="0" y="-9.5" width="130" height="19" style="fill: rgb(0, 0, 0); fill-opacity: 0;"/></g><g class="traces" transform="translate(228.390625,14.5)" style="opacity: 1;"><text class="legendtext" text-anchor="start" x="40" y="4.680000000000001" style="font-family: 'Open Sans', verdana, arial, sans-serif; font-size: 12px; fill: rgb(42, 63, 95); fill-opacity: 1; white-space: pre;">SMA (MS)</text><g class="layers" style="opacity: 1;"><g class="legendfill"/><g class="legendlines"><path class="js-line" d="M5,0h30" style="fill: none; stroke: rgb(44, 160, 44); stroke-opacity: 1; stroke-width: 2px;"/></g><g class="legendsymbols"><g class="legendpoints"/></g></g><rect class="legendtoggle" x="0" y="-9.5" width="102.453125" height="19" style="fill: rgb(0, 0, 0); fill-opacity: 0;"/></g></g></g><rect class="scrollbar" rx="20" ry="3" width="0" height="0" style="fill: rgb(128, 139, 164); fill-opacity: 1;" x="0" y="0"/></g><g class="g-gtitle"/><g class="g-xtitle"/><g class="g-ytitle"/></g></svg>