<svg class="main-svg" xmlns="http://www.w3.org/2000/svg" xmlns:xlink="http://www.w3.org/1999/xlink" width="700" height="350" style="" viewBox="0 0 700 350"><rect x="0" y="0" width="700" height="350" style="fill: rgb(255, 255, 255); fill-opacity: 1;"/><defs id="defs-2eb18c"><g class="clips"><clipPath id="clip2eb18cxyplot" class="plotclip"><rect width="635" height="274"/></clipPath><clipPath class="axesclip" id="clip2eb18cx"><rect x="35" y="0" width="635" height="350"/></clipPath><clipPath class="axesclip" id="clip2eb18cy"><rect x="0" y="46" width="700" height="274"/></clipPath><clipPath class="axesclip" id="clip2eb18cxy"><rect x="35" y="46" width="635" height="274"/></clipPath></g><g class="gradients"/><g class="patterns"/></defs><g class="bglayer"><rect class="bg" x="35" y="46" width="635" height="274" style="fill: rgb(229, 236, 246); fill-opacity: 1; stroke-width: 0;"/></g><g class="layer-below"><g class="imagelayer"/><g class="shapelayer"/></g><g class="cartesianlayer"><g class="subplot xy"><g class="layer-subplot"><g class="shapelayer"/><g class="imagelayer"/></g><g class="minor-gridlayer"><g class="x"/><g class="y"/></g><g class="gridlayer"><g class="x"><path class="xgrid crisp" transform="translate(119.62,0)" d="M0,46v274" style="stroke: rgb(255, 255, 255); stroke-opacity: 1; stroke-width: 1px;"/><path class="xgrid crisp" transform="translate(250.94,0)" d="M0,46v274" style="stroke: rgb(255, 255, 255); stroke-opacity: 1; stroke-width: 1px;"/><path class="xgrid crisp" transform="translate(382.09,0)" d="M0,46v274" style="stroke: rgb(255, 255, 255); stroke-opacity: 1; stroke-width: 1px;"/><path class="xgrid crisp" transform="translate(513.4200000000001,0)" d="M0,46v274" style="stroke: rgb(255, 255, 255); stroke-opacity: 1; stroke-width: 1px;"/><path class="xgrid crisp" transform="translate(644.57,0)" d="M0,46v274" style="stroke: rgb(255, 255, 255); stroke-opacity: 1; stroke-width: 1px;"/></g><g class="y"><path class="ygrid crisp" transform="translate(0,262.33000000000004)" d="M35,0h635" style="stroke: rgb(255, 255, 255); stroke-opacity: 1; stroke-width: 1px;"/><path class="ygrid crisp" transform="translate(0,222.45)" d="M35,0h635" style="stroke: rgb(255, 255, 255); stroke-opacity: 1; stroke-width: 1px;"/><path class="ygrid crisp" transform="translate(0,182.56)" d="M35,0h635" style="stroke: rgb(255, 255, 255); stroke-opacity: 1; stroke-width: 1px;"/><path class="ygrid crisp" transform="translate(0,142.67000000000002)" d="M35,0h635" style="stroke: rgb(255, 255, 255); stroke-opacity: 1; stroke-width: 1px;"/><path class="ygrid crisp" transform="translate(0,102.78999999999999)" d="M35,0h635" style="stroke: rgb(255, 255, 255); stroke-opacity: 1; stroke-width: 1px;"/><path class="ygrid crisp" transform="translate(0,62.9)" d="M35,0h635" style="stroke: rgb(255, 255, 255); stroke-opacity: 1; stroke-width: 1px;"/></g></g><g class="zerolinelayer"><path class="yzl zl crisp" transform="translate(0,302.22)" d="M35,0h635" style="stroke: rgb(255, 255, 255); stroke-opacity: 1; stroke-width: 2px;"/></g><path class="xlines-below"/><path class="ylines-below"/><g class="overlines-below"/><g class="xaxislayer-below"/><g class="yaxislayer-below"/><g class="overaxes-below"/><g class="plot" transform="translate(35,46)" clip-path="url(#clip2eb18cxyplot)"><g class="scatterlayer mlayer"><g class="trace scatter trace0c1727b9-23fa-46b3-bfc5-1ebea3cc5a04" style="stroke-miterlimit: 2; opacity: 1;"><g class="fills"/><g class="errorbars"/><g class="lines"><path class="js-line" d="M35.75,255.18L86.95,254.54L87.13,254.53L117.67,253.88L117.85,253.86L130.25,253.84L130.43,253.84L140.49,253.65L140.67,253.64L151.63,252.89L151.81,252.88L169.41,251.66L169.59,251.66L174.44,250.93L174.62,250.88L178.76,248.74L178.94,248.61L183.07,246.53L183.25,246.47L186.3,246.07L186.48,246.05L191.15,244.95L191.33,244.81L198.52,239.91L198.7,239.85L204.27,237.61L204.45,237.46L206.24,234.92L206.42,234.66L209.66,229.47L209.84,229.05L211.63,223.39L211.81,222.66L217.92,198.5L218.1,198.02L219.54,196.61L219.72,196.64L220.44,197.52L220.62,197.93L221.69,200.85L221.87,201.53L224.21,209.44L224.39,209.73L225.65,212.12L225.83,212.74L227.44,215.27L227.62,215.39L231.22,218.4L231.4,218.38L232.83,219.37L233.01,219.65L236.43,223.7L236.61,223.76L238.22,223.43L238.4,223.29L241.64,222.47L241.82,222.42L243.97,222.36L244.15,222.4L245.41,223.5L245.59,223.73L251.16,229.28L251.34,229.27L254.57,228.56L254.75,228.52L258.34,228.45L258.52,228.47L261.4,228.55L261.58,228.72L264.45,229.94L264.63,229.9L268.76,230.13L268.94,230.19L271.28,230.31L271.46,230.3L273.61,230.76L273.79,230.9L278.29,236.16L278.46,236.41L282.06,240.41L282.24,240.55L284.57,241.25L284.75,241.27L287.81,241.35L287.99,241.37L293.2,241.49L293.38,241.47L298.41,240.16L298.59,240.04L305.23,235.15L305.41,234.82L309.54,228.71L309.72,228.49L312.42,224.36L312.6,223.96L316.19,216.97L316.37,216.79L321.76,212.44L321.94,212.58L323.56,213.4L323.74,213.46L326.61,214.61L326.79,214.63L329.31,214.71L329.49,214.95L332.36,218.29L332.54,218.45L337.39,221.69L337.57,221.79L341.16,222.6L341.34,222.66L345.3,224.89L345.48,225.04L348.35,226.84L348.53,226.85L351.05,225.53L351.22,225.45L352.84,224.18L353.02,224.01L358.23,219.14L358.41,219.15L359.85,219.65L360.03,219.87L367.03,228.95L367.21,229.08L368.65,229.43L368.83,229.12L374.04,222.34L374.22,222.13L377.45,218.8L377.63,218.75L381.59,218.79L381.77,218.78L385.54,218.02L385.72,217.87L388.77,214.58L388.95,214.39L392.37,211.53L392.55,211.46L394.7,211.43L394.88,211.51L399.55,212.95L399.73,212.93L400.81,211.86L400.99,211.6L403.86,206.5L404.04,206.06L406.74,197.7L406.92,197.15L412.67,175.03L412.85,173.99L420.21,117.71L420.39,115.81L423.45,91.25L423.63,90.23L426.32,66.46L426.5,64.27L429.19,42.84L429.37,42.04L432.61,29.18L432.79,29.08L434.23,28.54L434.4,28.5L435.66,29.39L435.84,29.4L436.74,30.19L436.92,30.86L437.82,36.99L438,38.73L446.08,111.15L446.26,111.89L448.06,116.28L448.24,116.61L449.86,119.16L450.03,118.69L451.11,116.82L451.29,116.98L451.47,117.03L452.01,115.75L452.19,115.1L455.42,96.31L455.6,95.02L459.74,70.68L459.92,70.45L461.17,69.58L461.35,70L461.71,70.47L462.25,70.09L462.43,69.92L464.23,63.81L464.41,62.64L468.54,37.12L468.72,35.5L471.23,15.44L471.41,14.76L472.67,13.79L472.85,13.7L473.21,14.07L473.39,15.06L477.7,40.54L477.88,42.17L483.09,78.19L483.27,78.98L486.5,89.48L486.68,89.77L488.66,95.45L489.02,95.15L489.2,95.05L490.1,96.52L490.28,96.8L491.18,96.75L491.36,96.48L493.15,93.18L493.33,92.61L497.28,88.1L497.46,88.05L497.64,87.8L498,88.17L498.18,88.45L499.08,88.46L499.26,88.42L501.06,90.11L501.24,90.76L503.39,104.79L503.57,106.14L506.81,123.81L506.99,124.71L508.78,137.57L508.96,138.99L511.48,153.64L511.66,154.42L515.97,170.09L516.15,170.52L517.05,171.1L517.23,170.87L521,166.81L521.18,166.94L524.23,168.72L524.41,168.8L527.65,174.77L527.83,175.15L530.16,177.64L530.34,177.65L533.39,178.1L533.57,177.99L534.65,178.1L534.83,178.29L542.38,187.7L542.56,188.04L543.99,189.26L544.17,189.23L545.97,188.62L546.15,188.35L549.56,180.09L549.74,179.64L555.85,164.42L556.03,164.45L557.11,164.33L557.29,164.18L562.5,152.58L562.68,152.01L566.45,142.33L566.63,142.21L569.68,143.35L569.86,143.49L571.66,145.16L571.84,145.52L575.07,147.91L575.25,147.83L576.69,146.01L576.87,145.68L583.16,136.96L583.34,136.73L584.24,136.92L584.42,137.01L585.31,138.23L585.49,138.58L590.88,147.75L591.06,147.95L594.12,150.48L594.3,150.33L596.81,148.32L596.99,147.75L602.2,126.47L602.38,125.68L605.08,111.45L605.26,110.21L607.41,101.18L607.59,100.51L611.72,86.71L611.9,86.39L613.34,84.17L613.52,84.4" style="vector-effect: none; fill: none; stroke: rgb(31, 119, 180); stroke-opacity: 1; stroke-width: 2px; opacity: 1;"/></g><g class="points"/><g class="text"/></g><g class="trace scatter traceceb16d99-31c2-4308-916d-02cc938bbf5b" style="stroke-miterlimit: 2; opacity: 1;"><g class="fills"/><g class="errorbars"/><g class="lines"><path class="js-line" d="M35.75,254.98L113.9,254.49L114.08,254.48L144.26,253.73L144.44,253.72L178.58,251.43L178.76,251.39L194.75,247.39L194.93,247.32L206.24,242.42L206.42,242.3L210.91,238.8L211.09,238.6L221.51,224.88L221.69,224.75L229.96,219.24L230.14,219.16L239.84,215.14L240.02,215.09L243.97,214.72L244.15,214.73L246.85,215.58L247.03,215.7L255.65,223.46L255.83,223.55L259.24,224.65L259.42,224.69L262.48,225.94L262.66,226.04L265.71,227.01L265.89,227.05L271.46,227.82L271.64,227.86L275.95,229.82L276.13,229.91L285.83,233.49L286.01,233.54L300.56,238.01L300.74,238.04L307.21,238.08L307.39,238.05L312.06,236.29L312.24,236.16L332.54,221.52L332.72,221.44L339.91,218.67L340.09,218.64L343.86,218.76L344.04,218.79L360.57,222.1L360.75,222.19L367.21,224.27L367.39,224.28L374.58,223.96L374.76,223.94L386.08,221.31L386.26,221.25L392.55,219.93L392.73,219.91L396.32,218.82L396.5,218.71L404.4,213.24L404.58,213.08L411.41,205.28L411.59,204.98L413.92,199.43L414.1,198.81L422.19,171.41L422.37,170.67L428.48,142.05L428.66,141.08L437.28,98.37L437.46,97.79L443.21,84.69L443.39,84.36L448.42,77.96L448.6,77.92L451.83,77.29L452.01,77.12L453.63,74.71L453.81,74.5L456.5,72.21L456.68,72.2L457.76,72.51L457.94,72.73L459.2,73L459.38,73.05L460.45,73.62L460.63,73.81L463.33,76.65L463.51,76.61L466.38,75.53L466.56,75.55L468.54,75.03L468.72,74.72L470.52,72.88L470.7,72.86L471.95,72.82L472.13,72.86L476.26,68.21L476.44,67.97L479.86,63.93L480.04,63.79L482.37,61.98L482.55,61.91L484.89,60.27L485.07,60.04L486.68,59.12L486.86,59.11L488.3,59.64L488.48,59.77L493.87,63.68L494.05,63.63L496.21,63.86L496.39,63.97L498.54,65.1L498.72,65.42L500.7,69.5L500.88,70.02L508.42,96.83L508.6,97.59L512.2,109.14L512.38,109.68L516.51,120.7L516.69,121.11L529.98,150.58L530.16,151.13L535.55,164.54L535.73,164.96L538.96,170.88L539.14,171.14L544.71,177.87L544.89,177.94L547.23,178.2L547.41,178.15L552.08,177.59L552.26,177.59L558.01,176.66L558.19,176.49L564.83,170.01L565.01,169.81L569.51,165.85L569.68,165.75L571.48,163.86L571.66,163.65L576.15,158.15L576.33,157.89L583.7,148.23L583.88,148.1L587.29,146.52L587.47,146.44L593.94,144.38L594.12,144.39L598.43,143.46L598.61,143.36L601.66,140.86L601.84,140.69L604.9,136.89L605.08,136.56L612.62,123.52L612.8,123.31L613.52,122.5" style="vector-effect: none; fill: none; stroke: rgb(255, 127, 14); stroke-opacity: 1; stroke-width: 2px; opacity: 1;"/></g><g class="points"/><g class="text"/></g><g class="trace scatter trace22b83d31-6b89-4304-9366-4ea0188fd96c" style="stroke-miterlimit: 2; opacity: 1;"><g class="fills"/><g class="errorbars"/><g class="lines"/><g class="points"><path class="point plotly-customdata" transform="translate(53.9,255.07)" d="M-4.62,2H4.62L0,-4Z" style="opacity: 1; stroke-width: 1px; fill: rgb(55, 177, 63); fill-opacity: 1; stroke: rgb(38, 123, 44); stroke-opacity: 1;"/><path class="point plotly-customdata" transform="translate(72.94,255)" d="M-4.62,2H4.62L0,-4Z" style="opacity: 1; stroke-width: 1px; fill: rgb(55, 177, 63); fill-opacity: 1; stroke: rgb(38, 123, 44); stroke-opacity: 1;"/><path class="point plotly-customdata" transform="translate(301.82,234.42)" d="M-4.62,2H4.62L0,-4Z" style="opacity: 1; stroke-width: 1px; fill: rgb(55, 177, 63); fill-opacity: 1; stroke: rgb(38, 123, 44); stroke-opacity: 1;"/><path class="point plotly-customdata" transform="translate(355.9,217.8)" d="M-4.62,2H4.62L0,-4Z" style="opacity: 1; stroke-width: 1px; fill: rgb(55, 177, 63); fill-opacity: 1; stroke: rgb(38, 123, 44); stroke-opacity: 1;"/><path class="point plotly-customdata" transform="translate(372.42,220)" d="M-4.62,2H4.62L0,-4Z" style="opacity: 1; stroke-width: 1px; fill: rgb(55, 177, 63); fill-opacity: 1; stroke: rgb(38, 123, 44); stroke-opacity: 1;"/><path class="point plotly-customdata" transform="translate(459.02,64.06)" d="M-4.62,2H4.62L0,-4Z" style="opacity: 1; stroke-width: 1px; fill: rgb(55, 177, 63); fill-opacity: 1; stroke: rgb(38, 123, 44); stroke-opacity: 1;"/><path class="point plotly-customdata" transform="translate(550.64,163.43)" d="M-4.62,2H4.62L0,-4Z" style="opacity: 1; stroke-width: 1px; fill: rgb(55, 177, 63); fill-opacity: 1; stroke: rgb(38, 123, 44); stroke-opacity: 1;"/><path class="point plotly-customdata" transform="translate(598.25,118.6)" d="M-4.62,2H4.62L0,-4Z" style="opacity: 1; stroke-width: 1px; fill: rgb(55, 177, 63); fill-opacity: 1; stroke: rgb(38, 123, 44); stroke-opacity: 1;"/></g><g class="text"/></g><g class="trace scatter trace6f8fd2db-d90a-4cfb-9cfb-cb146ab555e9" style="stroke-miterlimit: 2; opacity: 1;"><g class="fills"/><g class="errorbars"/><g class="lines"/><g class="points"><path class="point plotly-customdata" transform="translate(65.03,255.3)" d="M-4.62,-2H4.62L0,4Z" style="opacity: 1; stroke-width: 1px; fill: rgb(234, 67, 53); fill-opacity: 1; stroke: rgb(181, 31, 18); stroke-opacity: 1;"/><path class="point plotly-customdata" transform="translate(231.75,228.74)" d="M-4.62,-2H4.62L0,4Z" style="opacity: 1; stroke-width: 1px; fill: rgb(234, 67, 53); fill-opacity: 1; stroke: rgb(181, 31, 18); stroke-opacity: 1;"/><path class="point plotly-customdata" transform="translate(335.06,219.34)" d="M-4.62,-2H4.62L0,4Z" style="opacity: 1; stroke-width: 1px; fill: rgb(234, 67, 53); fill-opacity: 1; stroke: rgb(181, 31, 18); stroke-opacity: 1;"/><path class="point plotly-customdata" transform="translate(362.18,229.57)" d="M-4.62,-2H4.62L0,4Z" style="opacity: 1; stroke-width: 1px; fill: rgb(234, 67, 53); fill-opacity: 1; stroke: rgb(181, 31, 18); stroke-opacity: 1;"/><path class="point plotly-customdata" transform="translate(443.21,114.16)" d="M-4.62,-2H4.62L0,4Z" style="opacity: 1; stroke-width: 1px; fill: rgb(234, 67, 53); fill-opacity: 1; stroke: rgb(181, 31, 18); stroke-opacity: 1;"/><path class="point plotly-customdata" transform="translate(480.76,84.31)" d="M-4.62,-2H4.62L0,4Z" style="opacity: 1; stroke-width: 1px; fill: rgb(234, 67, 53); fill-opacity: 1; stroke: rgb(181, 31, 18); stroke-opacity: 1;"/><path class="point plotly-customdata" transform="translate(589.63,153.18)" d="M-4.62,-2H4.62L0,4Z" style="opacity: 1; stroke-width: 1px; fill: rgb(234, 67, 53); fill-opacity: 1; stroke: rgb(181, 31, 18); stroke-opacity: 1;"/></g><g class="text"/></g></g></g><g class="overplot"/><path class="xlines-above crisp" d="M0,0" style="fill: none;"/><path class="ylines-above crisp" d="M0,0" style="fill: none;"/><g class="overlines-above"/><g class="xaxislayer-above"><g class="xtick"><text text-anchor="middle" x="0" y="333" transform="translate(119.62,0)" style="font-family: 'Open Sans', verdana, arial, sans-serif; font-size: 12px; fill: rgb(42, 63, 95); fill-opacity: 1; white-space: pre; opacity: 1;">2016</text></g><g class="xtick"><text text-anchor="middle" x="0" y="333" style="font-family: 'Open Sans', verdana, arial, sans-serif; font-size: 12px; fill: rgb(42, 63, 95); fill-opacity: 1; white-space: pre; opacity: 1;" transform="translate(250.94,0)">2018</text></g><g class="xtick"><text text-anchor="middle" x="0" y="333" style="font-family: 'Open Sans', verdana, arial, sans-serif; font-size: 12px; fill: rgb(42, 63, 95); fill-opacity: 1; white-space: pre; opacity: 1;" transform="translate(382.09,0)">2020</text></g><g class="xtick"><text text-anchor="middle" x="0" y="333" style="font-family: 'Open Sans', verdana, arial, sans-serif; font-size: 12px; fill: rgb(42, 63, 95); fill-opacity: 1; white-space: pre; opacity: 1;" transform="translate(513.4200000000001,0)">2022</text></g><g class="xtick"><text text-anchor="middle" x="0" y="333" style="font-family: 'Open Sans', verdana, arial, sans-serif; font-size: 12px; fill: rgb(42, 63, 95); fill-opacity: 1; white-space: pre; opacity: 1;" transform="translate(644.57,0)">2024</text></g></g><g class="yaxislayer-above"><g class="ytick"><text text-anchor="end" x="34" y="4.199999999999999" transform="translate(0,302.22)" style="font-family: 'Open Sans', verdana, arial, sans-serif; font-size: 12px; fill: rgb(42, 63, 95); fill-opacity: 1; white-space: pre; opacity: 1;">0</text></g><g class="ytick"><text text-anchor="end" x="34" y="4.199999999999999" style="font-family: 'Open Sans', verdana, arial, sans-serif; font-size: 12px; fill: rgb(42, 63, 95); fill-opacity: 1; white-space: pre; opacity: 1;" transform="translate(0,262.33000000000004)">10k</text></g><g class="ytick"><text text-anchor="end" x="34" y="4.199999999999999" style="font-family: 'Open Sans', verdana, arial, sans-serif; font-size: 12px; fill: rgb(42, 63, 95); fill-opacity: 1; white-space: pre; opacity: 1;" transform="translate(0,222.45)">20k</text></g><g class="ytick"><text text-anchor="end" x="34" y="4.199999999999999" style="font-family: 'Open Sans', verdana, arial, sans-serif; font-size: 12px; fill: rgb(42, 63, 95); fill-opacity: 1; white-space: pre; opacity: 1;" transform="translate(0,182.56)">30k</text></g><g class="ytick"><text text-anchor="end" x="34" y="4.199999999999999" style="font-family: 'Open Sans', verdana, arial, sans-serif; font-size: 12px; fill: rgb(42, 63, 95); fill-opacity: 1; white-space: pre; opacity: 1;" transform="translate(0,142.67000000000002)">40k</text></g><g class="ytick"><text text-anchor="end" x="34" y="4.199999999999999" style="font-family: 'Open Sans', verdana, arial, sans-serif; font-size: 12px; fill: rgb(42, 63, 95); fill-opacity: 1; white-space: pre; opacity: 1;" transform="translate(0,102.78999999999999)">50k</text></g><g class="ytick"><text text-anchor="end" x="34" y="4.199999999999999" style="font-family: 'Open Sans', verdana, arial, sans-serif; font-size: 12px; fill: rgb(42, 63, 95); fill-opacity: 1; white-space: pre; opacity: 1;" transform="translate(0,62.9)">60k</text></g></g><g class="overaxes-above"/></g></g><g class="polarlayer"/><g class="smithlayer"/><g class="ternarylayer"/><g class="geolayer"/><g class="funnelarealayer"/><g class="pielayer"/><g class="iciclelayer"/><g class="treemaplayer"/><g class="sunburstlayer"/><g class="glimages"/><defs id="topdefs-2eb18c"><g class="clips"/><clipPath id="legend2eb18c"><rect width="135" height="29" x="0" y="0"/></clipPath></defs><g class="layer-above"><g class="imagelayer"/><g class="shapelayer"/></g><g class="infolayer"><g class="legend" pointer-events="all" transform="translate(535,11.519999999999996)"><rect class="bg" shape-rendering="crispEdges" style="stroke: rgb(68, 68, 68); stroke-opacity: 1; fill: rgb(255, 255, 255); fill-opacity: 1; stroke-width: 0px;" width="135" height="29" x="0" y="0"/><g class="scrollbox" transform="" clip-path="url(#legend2eb18c)"><g class="groups"><g class="traces" transform="translate(0,14.5)" style="opacity: 1;"><text class="legendtext" text-anchor="start" x="40" y="4.680000000000001" style="font-family: 'Open Sans', verdana, arial, sans-serif; font-size: 12px; fill: rgb(42, 63, 95); fill-opacity: 1; white-space: pre;">Buy</text><g class="layers" style="opacity: 1;"><g class="legendfill"/><g class="legendlines"/><g class="legendsymbols"><g class="legendpoints"><path class="scatterpts" transform="translate(20,0)" d="M-4.62,2H4.62L0,-4Z" style="opacity: 1; stroke-width: 1px; fill: rgb(55, 177, 63); fill-opacity: 1; stroke: rgb(38, 123, 44); stroke-opacity: 1;"/></g></g></g><rect class="legendtoggle" x="0" y="-9.5" width="65.421875" height="19" style="fill: rgb(0, 0, 0); fill-opacity: 0;"/></g><g class="traces" transform="translate(67.921875,14.5)" style="opacity: 1;"><text class="legendtext" text-anchor="start" x="40" y="4.680000000000001" style="font-family: 'Open Sans', verdana, arial, sans-serif; font-size: 12px; fill: rgb(42, 63, 95); fill-opacity: 1; white-space: pre;">Sell</text><g class="layers" style="opacity: 1;"><g class="legendfill"/><g class="legendlines"/><g class="legendsymbols"><g class="legendpoints"><path class="scatterpts" transform="translate(20,0)" d="M-4.62,-2H4.62L0,4Z" style="opacity: 1; stroke-width: 1px; fill: rgb(234, 67, 53); fill-opacity: 1; stroke: rgb(181, 31, 18); stroke-opacity: 1;"/></g></g></g><rect class="legendtoggle" x="0" y="-9.5" width="64.4375" height="19" style="fill: rgb(0, 0, 0); fill-opacity: 0;"/></g></g></g><rect class="scrollbar" rx="20" ry="3" width="0" height="0" style="fill: rgb(128, 139, 164); fill-opacity: 1;" x="0" y="0"/></g><g class="g-gtitle"/><g class="g-xtitle"/><g class="g-ytitle"/></g></svg>