<svg class="main-svg" xmlns="http://www.w3.org/2000/svg" xmlns:xlink="http://www.w3.org/1999/xlink" width="700" height="350" style="" viewBox="0 0 700 350"><rect x="0" y="0" width="700" height="350" style="fill: rgb(33, 34, 38); fill-opacity: 1;"/><defs id="defs-005db3"><g class="clips"><clipPath id="clip005db3xyplot" class="plotclip"><rect width="628" height="116.45000000000002"/></clipPath><clipPath id="clip005db3x2y2plot" class="plotclip"><rect width="628" height="116.45"/></clipPath><clipPath class="axesclip" id="clip005db3x"><rect x="42" y="0" width="628" height="350"/></clipPath><clipPath class="axesclip" id="clip005db3y"><rect x="0" y="46" width="700" height="116.45000000000002"/></clipPath><clipPath class="axesclip" id="clip005db3xy"><rect x="42" y="46" width="628" height="116.45000000000002"/></clipPath><clipPath class="axesclip" id="clip005db3y2"><rect x="0" y="203.54999999999998" width="700" height="116.45"/></clipPath><clipPath class="axesclip" id="clip005db3xy2"><rect x="42" y="203.54999999999998" width="628" height="116.45"/></clipPath><clipPath class="axesclip" id="clip005db3x2"><rect x="42" y="0" width="628" height="350"/></clipPath><clipPath class="axesclip" id="clip005db3x2y"><rect x="42" y="46" width="628" height="116.45000000000002"/></clipPath><clipPath class="axesclip" id="clip005db3x2y2"><rect x="42" y="203.54999999999998" width="628" height="116.45"/></clipPath></g><g class="gradients"/><g class="patterns"/></defs><g class="bglayer"/><g class="layer-below"><g class="imagelayer"/><g class="shapelayer"/></g><g class="cartesianlayer"><g class="subplot xy"><g class="layer-subplot"><g class="shapelayer"/><g class="imagelayer"/></g><g class="minor-gridlayer"><g class="x"/><g class="y"/></g><g class="gridlayer"><g class="x"><path class="xgrid crisp" transform="translate(143.79000000000002,0)" d="M0,46v116.45000000000002" style="stroke: rgb(49, 52, 57); stroke-opacity: 1; stroke-width: 1px;"/><path class="xgrid crisp" transform="translate(249.03,0)" d="M0,46v116.45000000000002" style="stroke: rgb(49, 52, 57); stroke-opacity: 1; stroke-width: 1px;"/><path class="xgrid crisp" transform="translate(354.27,0)" d="M0,46v116.45000000000002" style="stroke: rgb(49, 52, 57); stroke-opacity: 1; stroke-width: 1px;"/><path class="xgrid crisp" transform="translate(461.24,0)" d="M0,46v116.45000000000002" style="stroke: rgb(49, 52, 57); stroke-opacity: 1; stroke-width: 1px;"/><path class="xgrid crisp" transform="translate(566.48,0)" d="M0,46v116.45000000000002" style="stroke: rgb(49, 52, 57); stroke-opacity: 1; stroke-width: 1px;"/></g><g class="y"><path class="ygrid crisp" transform="translate(0,140.73000000000002)" d="M42,0h628" style="stroke: rgb(49, 52, 57); stroke-opacity: 1; stroke-width: 1px;"/><path class="ygrid crisp" transform="translate(0,113.33)" d="M42,0h628" style="stroke: rgb(49, 52, 57); stroke-opacity: 1; stroke-width: 1px;"/><path class="ygrid crisp" transform="translate(0,85.94)" d="M42,0h628" style="stroke: rgb(49, 52, 57); stroke-opacity: 1; stroke-width: 1px;"/><path class="ygrid crisp" transform="translate(0,58.55)" d="M42,0h628" style="stroke: rgb(49, 52, 57); stroke-opacity: 1; stroke-width: 1px;"/></g></g><g class="zerolinelayer"/><path class="xlines-below"/><path class="ylines-below"/><g class="overlines-below"/><g class="xaxislayer-below"/><g class="yaxislayer-below"/><g class="overaxes-below"/><g class="plot" transform="translate(42,46)" clip-path="url(#clip005db3xyplot)"><g class="scatterlayer mlayer"><g class="trace scatter traced62dadec-6abc-4151-b616-03e212b62bc0" style="stroke-miterlimit: 2;"><g class="fills"><g><path class="js-fill" d="M0,6.95L5.18,6.84L6.9,5.82L12.08,8.02L13.8,10.42L15.53,13.55L17.25,14.85L20.7,17.09L22.43,18.18L29.33,28.82L31.05,29.25L32.78,29.09L34.51,25.12L36.23,22.24L37.96,21.51L39.68,21.37L41.41,22L48.31,29.12L50.03,31.8L53.48,36.72L55.21,39.83L56.93,42.5L58.66,38.83L62.11,34.02L63.84,30.49L67.29,25.1L69.01,23.73L74.19,22.77L75.91,22.64L77.64,21.73L79.36,22.89L81.09,25.63L82.81,25.01L86.26,23.41L87.99,22.58L93.16,25.37L94.89,26.18L98.34,27.9L100.07,27.47L103.52,27.71L105.24,26.83L113.87,27.29L115.59,26.75L122.49,26.83L124.22,28.3L127.67,33.9L129.4,35.25L134.57,32L136.3,31.87L139.75,30.31L141.47,28.32L146.65,22.83L148.37,20.21L151.82,16.6L153.55,16.3L157,15.33L158.73,15.41L163.9,17.18L165.63,16.99L169.08,15.63L170.8,15.73L172.53,14.98L174.25,15.75L181.15,20.57L182.88,22.93L186.33,29.45L188.05,30.44L191.51,32.78L193.23,34.19L194.96,35.34L196.68,35.36L198.41,34.52L200.13,34.93L208.76,35.17L210.48,36.25L212.21,37.5L213.93,37.59L219.11,36.2L220.84,34.12L224.29,32.31L226.01,33.07L229.46,35.28L231.19,37.56L234.64,42.97L236.36,48.43L241.54,59.69L243.26,63.48L253.62,64.36L255.34,65.64L258.79,62.82L260.52,62.83L269.14,62.08L270.87,61.57L277.77,61.46L279.49,60.13L281.22,56.7L282.95,55.58L288.12,54.06L289.85,54.19L291.57,55.66L293.3,58.76L298.47,70.97L300.2,75.77L303.65,86.84L305.37,87.7L308.82,89.97L310.55,89.92L317.45,89.86L319.18,90.01L338.15,88.98L339.88,89.18L346.78,84.19L348.51,83.75L353.68,83.18L355.41,83.8L358.86,83.02L360.58,82.54L364.03,82.59L365.76,82.43L377.84,82.63L379.56,83.72L391.64,81.53L393.36,81.62L395.09,81.84L396.81,80.19L400.26,79.27L401.99,79.27L405.44,79.55L407.16,80.03L412.34,82.56L414.07,84.05L419.24,88.97L420.97,89.03L426.14,90.31L427.87,90.79L431.32,93.1L433.04,91.98L438.22,88.3L439.95,88.25L457.2,88.56L458.92,89.44L460.65,90.63L462.37,93.37L471,95.26L472.73,95.36L474.45,95.3L476.18,94.42L483.08,93.86L484.8,93.99L498.6,94.01L500.33,94.65L505.51,95.96L507.23,96.04L512.41,95.14L514.13,93.79L524.48,91.16L526.21,91.19L529.66,90.98L531.38,90.73L534.84,91.17L536.56,89.93L538.29,86.99L540.01,86.69L545.19,86.73L546.91,87.17L552.09,89.38L553.81,91.2L557.26,96.41L558.99,100.01L560.71,101.62L562.44,101.72L565.89,102.71L567.62,102.83L576.24,102.49L577.97,102.25L612.47,100.69L614.2,100.73L621.1,101.49L622.82,102.38L626.27,102.89L628,102.89L628,104.47L622.82,104.59L621.1,104.98L602.12,104.17L600.4,103.9L595.22,103.93L593.49,104.58L584.87,105.28L583.14,105.55L565.89,105.75L564.16,105.81L558.99,107.23L557.26,108.94L553.81,110.55L552.09,110.63L548.64,109.41L546.91,108.69L540.01,103.01L538.29,101.65L536.56,96.8L534.84,94.95L526.21,98L524.48,98.42L517.58,98.9L515.86,98.83L512.41,98.02L510.68,97.67L462.37,99.13L460.65,100.64L453.75,100.24L452.02,99.74L445.12,99.52L443.4,99.45L434.77,98.71L433.04,98.11L422.69,97.3L420.97,96.98L415.79,97.56L414.07,97.51L403.71,93.73L401.99,93.06L396.81,89.85L395.09,87.25L393.36,87.7L391.64,87.99L381.29,87.77L379.56,87.83L377.84,89.68L376.11,90.78L367.48,90.98L365.76,90.95L358.86,93.82L357.13,94.43L353.68,96.75L351.96,97.46L348.51,97.74L346.78,97.69L341.6,96.75L339.88,96.48L336.43,97.93L334.7,98.49L315.73,97.78L314,97.2L312.27,97.41L310.55,96.76L305.37,97.02L303.65,97.2L301.92,100.55L300.2,103.34L296.75,106.25L295.02,105.98L291.57,104.54L289.85,102.35L284.67,89.86L282.95,86.34L279.49,74.43L277.77,72.04L274.32,71.99L272.59,72.33L260.52,72.99L258.79,73.42L257.07,72.82L255.34,71.86L253.62,72.42L251.89,72.03L244.99,72.18L243.26,71.86L241.54,74.19L239.81,76.11L236.36,77.95L234.64,79.11L229.46,77.74L227.74,76.01L224.29,69.89L222.56,65.07L219.11,55.21L217.38,52.37L212.21,47.24L210.48,47.83L205.31,46.56L203.58,45.21L198.41,44.07L196.68,42.45L191.51,43.03L189.78,42.72L188.05,43.21L186.33,43.49L184.6,44.95L182.88,46.15L181.15,45.87L179.43,45.25L175.98,42.73L174.25,41.82L172.53,39.72L170.8,35.99L167.35,33.17L165.63,31.45L163.9,31.08L162.18,31.4L160.45,33.47L158.73,36.39L151.82,42.23L150.1,42.91L144.92,45.53L143.2,46.34L139.75,46.58L138.02,46.28L134.57,47.84L132.85,48.45L131.12,48.13L129.4,47.83L125.95,50.12L124.22,51.14L120.77,51.33L119.04,51.24L115.59,51.55L113.87,52.86L112.14,53.05L110.42,53.62L103.52,53.1L101.79,53.12L94.89,51.79L93.16,51.34L89.71,48.65L87.99,47.05L86.26,43.57L84.54,40.85L82.81,39.9L81.09,38.7L79.36,42.77L77.64,46.68L75.91,48.04L74.19,49.52L67.29,54.8L65.56,55.29L62.11,54.42L60.38,54.05L58.66,54.52L56.93,52.82L55.21,54.11L53.48,55.35L48.31,58.02L46.58,58.32L43.13,57.25L41.41,56.17L37.96,52.38L36.23,49.45L34.51,43.95L32.78,37.98L31.05,36.85L29.33,36.57L24.15,40.01L22.43,40.76L13.8,39.14L12.08,38.06L5.18,27.25L3.45,25.96L0,26.04Z" style="fill: rgb(128, 128, 128); fill-opacity: 0.2; stroke-width: 0;"/></g></g><g class="errorbars"/><g class="lines"><path class="js-line" d="M0,26.04L3.45,25.96L5.18,27.25L12.08,38.06L13.8,39.14L22.43,40.76L24.15,40.01L29.33,36.57L31.05,36.85L32.78,37.98L34.51,43.95L36.23,49.45L37.96,52.38L41.41,56.17L43.13,57.25L46.58,58.32L48.31,58.02L53.48,55.35L55.21,54.11L56.93,52.82L58.66,54.52L60.38,54.05L62.11,54.42L65.56,55.29L67.29,54.8L74.19,49.52L75.91,48.04L77.64,46.68L79.36,42.77L81.09,38.7L82.81,39.9L84.54,40.85L86.26,43.57L87.99,47.05L89.71,48.65L93.16,51.34L94.89,51.79L101.79,53.12L103.52,53.1L110.42,53.62L112.14,53.05L113.87,52.86L115.59,51.55L119.04,51.24L120.77,51.33L124.22,51.14L125.95,50.12L129.4,47.83L131.12,48.13L132.85,48.45L134.57,47.84L138.02,46.28L139.75,46.58L143.2,46.34L144.92,45.53L150.1,42.91L151.82,42.23L158.73,36.39L160.45,33.47L162.18,31.4L163.9,31.08L165.63,31.45L167.35,33.17L170.8,35.99L172.53,39.72L174.25,41.82L175.98,42.73L179.43,45.25L181.15,45.87L182.88,46.15L184.6,44.95L186.33,43.49L188.05,43.21L189.78,42.72L191.51,43.03L196.68,42.45L198.41,44.07L203.58,45.21L205.31,46.56L210.48,47.83L212.21,47.24L217.38,52.37L219.11,55.21L222.56,65.07L224.29,69.89L227.74,76.01L229.46,77.74L234.64,79.11L236.36,77.95L239.81,76.11L241.54,74.19L243.26,71.86L244.99,72.18L251.89,72.03L253.62,72.42L255.34,71.86L257.07,72.82L258.79,73.42L260.52,72.99L272.59,72.33L274.32,71.99L277.77,72.04L279.49,74.43L282.95,86.34L284.67,89.86L289.85,102.35L291.57,104.54L295.02,105.98L296.75,106.25L300.2,103.34L301.92,100.55L303.65,97.2L305.37,97.02L310.55,96.76L312.27,97.41L314,97.2L315.73,97.78L334.7,98.49L336.43,97.93L339.88,96.48L341.6,96.75L346.78,97.69L348.51,97.74L351.96,97.46L353.68,96.75L357.13,94.43L358.86,93.82L365.76,90.95L367.48,90.98L376.11,90.78L377.84,89.68L379.56,87.83L381.29,87.77L391.64,87.99L393.36,87.7L395.09,87.25L396.81,89.85L401.99,93.06L403.71,93.73L414.07,97.51L415.79,97.56L420.97,96.98L422.69,97.3L433.04,98.11L434.77,98.71L443.4,99.45L445.12,99.52L452.02,99.74L453.75,100.24L460.65,100.64L462.37,99.13L510.68,97.67L512.41,98.02L515.86,98.83L517.58,98.9L524.48,98.42L526.21,98L534.84,94.95L536.56,96.8L538.29,101.65L540.01,103.01L546.91,108.69L548.64,109.41L552.09,110.63L553.81,110.55L557.26,108.94L558.99,107.23L564.16,105.81L565.89,105.75L583.14,105.55L584.87,105.28L593.49,104.58L595.22,103.93L600.4,103.9L602.12,104.17L621.1,104.98L622.82,104.59L628,104.47" style="vector-effect: none; fill: none; stroke: rgb(127, 127, 127); stroke-opacity: 0.5; stroke-width: 2px; opacity: 1;"/></g><g class="points"/><g class="text"/></g><g class="trace scatter tracebccb5f97-a086-4b76-98ff-e46de27c8b3b" style="stroke-miterlimit: 2;"><g class="fills"/><g class="errorbars"/><g class="lines"><path class="js-line" d="M0,6.95L5.18,6.84L6.9,5.82L12.08,8.02L13.8,10.42L15.53,13.55L17.25,14.85L20.7,17.09L22.43,18.18L29.33,28.82L31.05,29.25L32.78,29.09L34.51,25.12L36.23,22.24L37.96,21.51L39.68,21.37L41.41,22L48.31,29.12L50.03,31.8L53.48,36.72L55.21,39.83L56.93,42.5L58.66,38.83L62.11,34.02L63.84,30.49L67.29,25.1L69.01,23.73L74.19,22.77L75.91,22.64L77.64,21.73L79.36,22.89L81.09,25.63L82.81,25.01L86.26,23.41L87.99,22.58L93.16,25.37L94.89,26.18L98.34,27.9L100.07,27.47L103.52,27.71L105.24,26.83L113.87,27.29L115.59,26.75L122.49,26.83L124.22,28.3L127.67,33.9L129.4,35.25L134.57,32L136.3,31.87L139.75,30.31L141.47,28.32L146.65,22.83L148.37,20.21L151.82,16.6L153.55,16.3L157,15.33L158.73,15.41L163.9,17.18L165.63,16.99L169.08,15.63L170.8,15.73L172.53,14.98L174.25,15.75L181.15,20.57L182.88,22.93L186.33,29.45L188.05,30.44L191.51,32.78L193.23,34.19L194.96,35.34L196.68,35.36L198.41,34.52L200.13,34.93L208.76,35.17L210.48,36.25L212.21,37.5L213.93,37.59L219.11,36.2L220.84,34.12L224.29,32.31L226.01,33.07L229.46,35.28L231.19,37.56L234.64,42.97L236.36,48.43L241.54,59.69L243.26,63.48L253.62,64.36L255.34,65.64L258.79,62.82L260.52,62.83L269.14,62.08L270.87,61.57L277.77,61.46L279.49,60.13L281.22,56.7L282.95,55.58L288.12,54.06L289.85,54.19L291.57,55.66L293.3,58.76L298.47,70.97L300.2,75.77L303.65,86.84L305.37,87.7L308.82,89.97L310.55,89.92L317.45,89.86L319.18,90.01L338.15,88.98L339.88,89.18L346.78,84.19L348.51,83.75L353.68,83.18L355.41,83.8L358.86,83.02L360.58,82.54L364.03,82.59L365.76,82.43L377.84,82.63L379.56,83.72L391.64,81.53L393.36,81.62L395.09,81.84L396.81,80.19L400.26,79.27L401.99,79.27L405.44,79.55L407.16,80.03L412.34,82.56L414.07,84.05L419.24,88.97L420.97,89.03L426.14,90.31L427.87,90.79L431.32,93.1L433.04,91.98L438.22,88.3L439.95,88.25L457.2,88.56L458.92,89.44L460.65,90.63L462.37,93.37L471,95.26L472.73,95.36L474.45,95.3L476.18,94.42L483.08,93.86L484.8,93.99L498.6,94.01L500.33,94.65L505.51,95.96L507.23,96.04L512.41,95.14L514.13,93.79L524.48,91.16L526.21,91.19L529.66,90.98L531.38,90.73L534.84,91.17L536.56,89.93L538.29,86.99L540.01,86.69L545.19,86.73L546.91,87.17L552.09,89.38L553.81,91.2L557.26,96.41L558.99,100.01L560.71,101.62L562.44,101.72L565.89,102.71L567.62,102.83L576.24,102.49L577.97,102.25L612.47,100.69L614.2,100.73L621.1,101.49L622.82,102.38L626.27,102.89L628,102.89" style="vector-effect: none; fill: none; stroke: rgb(127, 127, 127); stroke-opacity: 0.5; stroke-width: 2px; opacity: 1;"/></g><g class="points"/><g class="text"/></g><g class="trace scatter traced1619b76-a894-40f5-860e-48d1f4c9baec" style="stroke-miterlimit: 2; opacity: 1;"><g class="fills"/><g class="errorbars"/><g class="lines"><path class="js-line" d="M0,16.49L3.45,16.45L5.18,17.05L8.63,19.53L10.35,21.34L17.25,27.46L18.98,27.95L29.33,32.69L31.05,33.05L34.51,34.53L36.23,35.84L51.76,45.32L53.48,46.04L56.93,47.66L58.66,46.68L72.46,36.98L74.19,36.15L77.64,34.2L79.36,32.83L81.09,32.17L82.81,32.46L86.26,33.49L87.99,34.82L94.89,38.98L96.62,39.6L98.34,40.48L100.07,40.36L113.87,40.07L115.59,39.15L122.49,39.03L124.22,39.72L127.67,41.25L129.4,41.54L141.47,37.56L143.2,36.47L146.65,33.62L148.37,32.16L151.82,29.41L153.55,28.52L162.18,24.19L163.9,24.13L169.08,24.96L170.8,25.86L177.7,31.03L179.43,32.16L186.33,36.47L188.05,36.82L194.96,39.09L196.68,38.9L213.93,43.14L215.66,43.87L219.11,45.71L220.84,47.69L224.29,51.1L226.01,53.2L232.91,59.61L234.64,61.04L238.09,64.41L239.81,65.75L243.26,67.67L244.99,67.91L250.16,68.01L251.89,68.14L257.07,68.39L258.79,68.12L276.04,66.66L277.77,66.75L279.49,67.28L281.22,69.08L301.92,90.9L303.65,92.02L314,93.53L315.73,93.77L332.98,93.96L334.7,93.81L357.13,89.06L358.86,88.42L365.76,86.69L367.48,86.77L376.11,86.63L377.84,86.15L383.01,85.55L384.74,85.44L396.81,85.02L398.54,85.37L407.16,87.44L408.89,88.25L419.24,92.83L420.97,93.01L433.04,95.04L434.77,94.72L441.67,93.76L443.4,93.85L457.2,94.52L458.92,95.05L465.82,96.64L467.55,96.67L476.18,96.67L477.9,96.35L491.7,96.09L493.43,96.14L512.41,96.58L514.13,96.26L527.93,94.36L529.66,93.98L534.84,93.06L536.56,93.36L541.74,95.55L543.46,96.33L560.71,104.08L562.44,103.94L572.79,104.44L574.52,104.34L593.49,103.05L595.22,102.86L602.12,102.48L603.85,102.5L628,103.68" style="vector-effect: none; fill: none; stroke: rgb(108, 166, 205); stroke-opacity: 1; stroke-width: 2px; opacity: 1;"/></g><g class="points"/><g class="text"/></g><g class="trace scatter tracec1c52541-3a91-49ed-88d7-b5a0e7f95fc7" style="stroke-miterlimit: 2; opacity: 1;"><g class="fills"/><g class="errorbars"/><g class="lines"><path class="js-line" d="M0,18.89L1.73,19.82L3.45,22.25L5.18,23.79L6.9,30.17L8.63,31.28L10.35,35.67L15.53,34.95L17.25,32.45L18.98,29.12L20.7,32.84L22.43,31.45L24.15,31.24L25.88,31.41L27.6,33.78L29.33,33.43L31.05,35.16L32.78,38.08L34.51,49.65L36.23,53.55L37.96,50.14L41.41,48.29L43.13,48.56L44.86,47.78L46.58,46.01L48.31,45.04L50.03,45.65L53.48,43.38L55.21,48.29L56.93,47.74L58.66,35.83L60.38,35.99L62.11,33.33L63.84,29.42L65.56,28.66L67.29,28.06L69.01,30.18L70.74,33.35L72.46,33.79L74.19,33.92L75.91,32.86L77.64,27.41L79.36,29.09L81.09,38.47L82.81,39.86L84.54,39.61L86.26,44.24L87.99,47.95L89.71,44.64L91.44,47.35L93.16,44.51L94.89,42.09L96.62,42.39L98.34,46.21L100.07,31.19L101.79,28.01L103.52,29.19L105.24,33.23L106.97,42.3L108.69,41.58L110.42,44.27L112.14,45.25L113.87,43.4L115.59,34.51L117.32,41.48L119.04,43.24L120.77,42.94L122.49,45.83L124.22,40.85L125.95,41.75L127.67,36.81L129.4,37.34L131.12,35.01L132.85,33.94L134.57,36.52L136.3,36.99L138.02,33.48L139.75,32.02L141.47,29.09L144.92,27.61L146.65,21.26L150.1,19.49L151.82,20.6L153.55,24.77L155.27,22.73L157,23.87L158.73,22.26L160.45,21.8L162.18,24.72L163.9,31.16L165.63,30.34L167.35,33.68L169.08,32.32L170.8,33.89L172.53,41.25L174.25,39.59L175.98,36.75L177.7,40.12L179.43,38.43L181.15,38.78L182.88,40.72L186.33,35.83L188.05,36.18L191.51,40.65L193.23,41.35L194.96,41.4L196.68,38.69L198.41,45.1L200.13,42.02L201.86,40.56L203.58,43.75L205.31,46.2L207.03,44.13L208.76,43.97L210.48,46.1L212.21,40.77L213.93,49.32L217.38,52.26L219.11,56.21L220.84,66.52L222.56,64.53L224.29,70.25L226.01,69.94L227.74,69.3L229.46,67.06L231.19,63.76L232.91,67.71L234.64,66.17L236.36,70.84L238.09,66.47L239.81,69.52L241.54,68.89L243.26,66.45L244.99,69.8L246.71,68.28L250.16,69.34L251.89,71.09L253.62,70.58L255.34,68.85L257.07,62.6L258.79,62.42L260.52,67.88L262.24,66.05L263.97,68.14L265.69,67.79L267.42,67.59L269.14,63.58L270.87,64.17L272.59,66.75L274.32,67.03L276.04,69.84L277.77,71.82L279.49,76.2L281.22,87.91L282.95,88.68L284.67,87.68L286.4,93.68L288.12,93.43L289.85,97.42L291.57,93.21L293.3,93.08L295.02,92.78L296.75,94.76L298.47,91.75L300.2,91.35L301.92,90.61L303.65,91.91L314,96.8L315.73,96.65L317.45,94.09L319.18,94.2L320.9,93.22L322.63,90.24L326.08,90.36L327.8,92.37L331.25,96.58L332.98,94.14L338.15,91.46L339.88,92.59L341.6,87.92L343.33,85.44L346.78,86.06L348.51,87.29L350.23,87.97L351.96,87.58L353.68,91L355.41,91.33L357.13,86.7L358.86,84.2L362.31,84.71L364.03,85.58L365.76,85.65L367.48,86.57L370.93,87.52L372.66,85.72L374.38,86.61L376.11,86.03L377.84,84.29L379.56,86.06L381.29,83.91L383.01,83.88L384.74,82.67L386.46,82.61L391.64,84.09L393.36,85.59L395.09,85.92L396.81,92.32L400.26,90.52L401.99,90.89L407.16,90.34L408.89,94.01L412.34,95.77L414.07,93.91L415.79,95.28L417.52,94.59L420.97,94.81L422.69,95.19L424.42,94.76L426.14,95.24L427.87,97.91L429.59,96.67L431.32,96.56L433.04,90.94L436.49,89.88L438.22,88.23L439.95,93.91L441.67,94.06L443.4,95.54L445.12,95.35L446.85,94.38L448.57,96.32L450.3,95.97L452.02,97.76L453.75,98.7L455.47,96.33L460.65,98.01L462.37,96.85L464.1,97.16L465.82,96.3L467.55,95.89L469.27,96.28L472.73,97.34L474.45,95.76L476.18,93.8L477.9,94.29L483.08,96.32L484.8,96.24L488.25,97.32L489.98,97.03L491.7,96.42L493.43,96.96L495.15,97.28L496.88,96.73L498.6,95.96L500.33,96.55L503.78,97.32L505.51,96.99L507.23,96.89L508.96,95.91L510.68,96.52L512.41,94.46L514.13,92.61L515.86,93.94L519.31,92.48L521.03,92.98L527.93,94.15L529.66,91.58L531.38,91.21L533.11,92.19L534.84,93.07L536.56,98.72L538.29,106.01L540.01,101.34L543.46,103.49L545.19,104.71L548.64,103.26L550.36,103.85L555.54,103.73L557.26,104.88L558.99,106.26L560.71,105.16L562.44,104.01L564.16,104.03L571.07,105.09L572.79,104.46L574.52,102.48L576.24,103.03L577.97,102.7L579.69,103.19L581.42,102.59L583.14,103.01L584.87,102.7L586.59,103.36L588.32,102.3L590.04,102.58L595.22,102.38L596.95,100.8L598.67,100.71L600.4,101.94L602.12,103.91L603.85,103.5L605.57,103.61L607.3,104.48L609.02,103.2L610.75,103.44L621.1,103.72L622.82,104.17L626.27,104.03L628,104.18" style="vector-effect: none; fill: none; stroke: rgb(31, 119, 180); stroke-opacity: 1; stroke-width: 2px; opacity: 1;"/></g><g class="points"/><g class="text"/></g></g></g><g class="overplot"/><path class="xlines-above crisp" d="M0,0" style="fill: none;"/><path class="ylines-above crisp" d="M0,0" style="fill: none;"/><g class="overlines-above"/><g class="xaxislayer-above"/><g class="yaxislayer-above"><g class="ytick"><text text-anchor="end" x="41" y="4.199999999999999" transform="translate(0,140.73000000000002)" style="font-family: 'Open Sans', verdana, arial, sans-serif; font-size: 12px; fill: rgb(214, 223, 239); fill-opacity: 1; white-space: pre; opacity: 1;">20k</text></g><g class="ytick"><text text-anchor="end" x="41" y="4.199999999999999" style="font-family: 'Open Sans', verdana, arial, sans-serif; font-size: 12px; fill: rgb(214, 223, 239); fill-opacity: 1; white-space: pre; opacity: 1;" transform="translate(0,113.33)">30k</text></g><g class="ytick"><text text-anchor="end" x="41" y="4.199999999999999" style="font-family: 'Open Sans', verdana, arial, sans-serif; font-size: 12px; fill: rgb(214, 223, 239); fill-opacity: 1; white-space: pre; opacity: 1;" transform="translate(0,85.94)">40k</text></g><g class="ytick"><text text-anchor="end" x="41" y="4.199999999999999" style="font-family: 'Open Sans', verdana, arial, sans-serif; font-size: 12px; fill: rgb(214, 223, 239); fill-opacity: 1; white-space: pre; opacity: 1;" transform="translate(0,58.55)">50k</text></g></g><g class="overaxes-above"/></g><g class="subplot x2y2"><g class="layer-subplot"><g class="shapelayer"/><g class="imagelayer"/></g><g class="minor-gridlayer"><g class="x2"/><g class="y2"/></g><g class="gridlayer"><g class="x2"><path class="x2grid crisp" transform="translate(143.79000000000002,0)" d="M0,203.54999999999998v116.45" style="stroke: rgb(49, 52, 57); stroke-opacity: 1; stroke-width: 1px;"/><path class="x2grid crisp" transform="translate(249.03,0)" d="M0,203.54999999999998v116.45" style="stroke: rgb(49, 52, 57); stroke-opacity: 1; stroke-width: 1px;"/><path class="x2grid crisp" transform="translate(354.27,0)" d="M0,203.54999999999998v116.45" style="stroke: rgb(49, 52, 57); stroke-opacity: 1; stroke-width: 1px;"/><path class="x2grid crisp" transform="translate(461.24,0)" d="M0,203.54999999999998v116.45" style="stroke: rgb(49, 52, 57); stroke-opacity: 1; stroke-width: 1px;"/><path class="x2grid crisp" transform="translate(566.48,0)" d="M0,203.54999999999998v116.45" style="stroke: rgb(49, 52, 57); stroke-opacity: 1; stroke-width: 1px;"/></g><g class="y2"><path class="y2grid crisp" transform="translate(0,314.17999999999995)" d="M42,0h628" style="stroke: rgb(49, 52, 57); stroke-opacity: 1; stroke-width: 1px;"/><path class="y2grid crisp" transform="translate(0,287.98)" d="M42,0h628" style="stroke: rgb(49, 52, 57); stroke-opacity: 1; stroke-width: 1px;"/><path class="y2grid crisp" transform="translate(0,235.57)" d="M42,0h628" style="stroke: rgb(49, 52, 57); stroke-opacity: 1; stroke-width: 1px;"/><path class="y2grid crisp" transform="translate(0,209.36999999999998)" d="M42,0h628" style="stroke: rgb(49, 52, 57); stroke-opacity: 1; stroke-width: 1px;"/></g></g><g class="zerolinelayer"><path class="y2zl zl crisp" transform="translate(0,261.78)" d="M42,0h628" style="stroke: rgb(49, 52, 57); stroke-opacity: 1; stroke-width: 2px;"/></g><path class="xlines-below"/><path class="ylines-below"/><g class="overlines-below"/><g class="xaxislayer-below"/><g class="yaxislayer-below"/><g class="overaxes-below"/><g class="plot" transform="translate(42,203.54999999999998)" clip-path="url(#clip005db3x2y2plot)"><g class="scatterlayer mlayer"><g class="trace scatter tracecc9e75b0-b0df-454f-90c9-b402c0f3c5cc" style="stroke-miterlimit: 2; opacity: 1;"><g class="fills"/><g class="errorbars"/><g class="lines"><path class="js-line" d="M0,58.23H1.73V58.23H3.45V58.23H5.18V58.23H6.9V58.23H8.63V58.23H10.35V58.23H12.08V58.23H13.8V58.23H15.53V58.23H17.25V58.23H18.98V58.23H20.7V58.23H22.43V58.23H24.15V58.23H25.88V58.23H27.6V58.23H29.33V58.23H31.05V58.23H32.78V58.23H34.51V58.23H36.23V58.23H37.96V58.23H39.68V58.23H41.41V58.23H43.13V58.23H44.86V58.23H46.58V58.23H48.31V58.23H50.03V58.23H51.76V58.23H53.48V58.23H55.21V58.23H56.93V58.23H58.66V58.23H60.38V58.23H62.11V58.23H63.84V58.23H65.56V58.23H67.29V58.23H69.01V58.23H70.74V58.23H72.46V58.23H74.19V58.23H75.91V58.23H77.64V58.23H79.36V58.23H81.09V58.23H82.81V58.23H84.54V58.23H86.26V58.23H87.99V58.23H89.71V58.23H91.44V58.23H93.16V58.23H94.89V58.23H96.62V58.23H98.34V58.23H100.07V58.23H101.79V58.23H103.52V58.23H105.24V58.23H106.97V58.23H108.69V58.23H110.42V58.23H112.14V58.23H113.87V58.23H115.59V58.23H117.32V58.23H119.04V58.23H120.77V58.23H122.49V58.23H124.22V58.23H125.95V110.63H127.67V110.63H129.4V58.23H131.12V58.23H132.85V58.23H134.57V58.23H136.3V58.23H138.02V58.23H139.75V58.23H141.47V58.23H143.2V58.23H144.92V58.23H146.65V58.23H148.37V58.23H150.1V58.23H151.82V58.23H153.55V58.23H155.27V58.23H157V58.23H158.73V58.23H160.45V58.23H162.18V58.23H163.9V58.23H165.63V58.23H167.35V58.23H169.08V58.23H170.8V58.23H172.53V58.23H174.25V58.23H175.98V58.23H177.7V58.23H179.43V58.23H181.15V58.23H182.88V58.23H184.6V58.23H186.33V58.23H188.05V58.23H189.78V58.23H191.51V58.23H193.23V58.23H194.96V58.23H196.68V58.23H198.41V58.23H200.13V58.23H201.86V58.23H203.58V58.23H205.31V58.23H207.03V58.23H208.76V58.23H210.48V58.23H212.21V58.23H213.93V58.23H215.66V58.23H217.38V58.23H219.11V58.23H220.84V5.82H222.56V58.23H224.29V58.23H226.01V58.23H227.74V58.23H229.46V58.23H231.19V58.23H232.91V58.23H234.64V58.23H236.36V58.23H238.09V58.23H239.81V58.23H241.54V58.23H243.26V58.23H244.99V58.23H246.71V58.23H248.44V58.23H250.16V58.23H251.89V58.23H253.62V58.23H255.34V58.23H257.07V58.23H258.79V58.23H260.52V58.23H262.24V58.23H263.97V58.23H265.69V58.23H267.42V58.23H269.14V58.23H270.87V58.23H272.59V58.23H274.32V58.23H276.04V58.23H277.77V58.23H279.49V58.23H281.22V5.82H282.95V5.82H284.67V58.23H286.4V58.23H288.12V58.23H289.85V58.23H291.57V58.23H293.3V58.23H295.02V58.23H296.75V58.23H298.47V58.23H300.2V58.23H301.92V58.23H303.65V58.23H305.37V58.23H307.1V58.23H308.82V58.23H310.55V58.23H312.27V58.23H314V58.23H315.73V58.23H317.45V58.23H319.18V58.23H320.9V58.23H322.63V58.23H324.35V58.23H326.08V58.23H327.8V58.23H329.53V58.23H331.25V58.23H332.98V58.23H334.7V58.23H336.43V58.23H338.15V58.23H339.88V58.23H341.6V58.23H343.33V58.23H345.05V58.23H346.78V58.23H348.51V58.23H350.23V58.23H351.96V58.23H353.68V58.23H355.41V58.23H357.13V58.23H358.86V58.23H360.58V58.23H362.31V58.23H364.03V58.23H365.76V58.23H367.48V58.23H369.21V58.23H370.93V58.23H372.66V58.23H374.38V58.23H376.11V58.23H377.84V58.23H379.56V58.23H381.29V58.23H383.01V58.23H384.74V58.23H386.46V58.23H388.19V58.23H389.91V58.23H391.64V58.23H393.36V58.23H395.09V58.23H396.81V58.23H398.54V58.23H400.26V58.23H401.99V58.23H403.71V58.23H405.44V58.23H407.16V58.23H408.89V58.23H410.62V58.23H412.34V58.23H414.07V58.23H415.79V58.23H417.52V58.23H419.24V58.23H420.97V58.23H422.69V58.23H424.42V58.23H426.14V58.23H427.87V58.23H429.59V58.23H431.32V58.23H433.04V58.23H434.77V58.23H436.49V58.23H438.22V58.23H439.95V58.23H441.67V58.23H443.4V58.23H445.12V58.23H446.85V58.23H448.57V58.23H450.3V58.23H452.02V58.23H453.75V58.23H455.47V58.23H457.2V58.23H458.92V58.23H460.65V58.23H462.37V110.63H464.1V58.23H465.82V58.23H467.55V58.23H469.27V58.23H471V58.23H472.73V58.23H474.45V58.23H476.18V58.23H477.9V58.23H479.63V58.23H481.35V58.23H483.08V58.23H484.8V58.23H486.53V58.23H488.25V58.23H489.98V58.23H491.7V58.23H493.43V58.23H495.15V58.23H496.88V58.23H498.6V58.23H500.33V58.23H502.05V58.23H503.78V58.23H505.51V58.23H507.23V58.23H508.96V58.23H510.68V58.23H512.41V58.23H514.13V58.23H515.86V58.23H517.58V58.23H519.31V58.23H521.03V58.23H522.76V58.23H524.48V58.23H526.21V58.23H527.93V58.23H529.66V58.23H531.38V58.23H533.11V58.23H534.84V58.23H536.56V58.23H538.29V5.82H540.01V58.23H541.74V58.23H543.46V58.23H545.19V58.23H546.91V58.23H548.64V58.23H550.36V58.23H552.09V58.23H553.81V58.23H555.54V58.23H557.26V58.23H558.99V58.23H560.71V58.23H562.44V58.23H564.16V58.23H565.89V58.23H567.62V58.23H569.34V58.23H571.07V58.23H572.79V58.23H574.52V58.23H576.24V58.23H577.97V58.23H579.69V58.23H581.42V58.23H583.14V58.23H584.87V58.23H586.59V58.23H588.32V58.23H590.04V58.23H591.77V58.23H593.49V58.23H595.22V58.23H596.95V58.23H598.67V58.23H600.4V58.23H602.12V58.23H603.85V58.23H605.57V58.23H607.3V58.23H609.02V58.23H610.75V58.23H612.47V58.23H614.2V58.23H615.92V58.23H617.65V58.23H619.37V58.23H621.1V58.23H622.82V58.23H624.55V58.23H626.27V58.23H628V58.23" style="vector-effect: none; fill: none; stroke: rgb(108, 166, 205); stroke-opacity: 1; stroke-width: 2px; opacity: 1;"/></g><g class="points"/><g class="text"/></g></g></g><g class="overplot"/><path class="xlines-above crisp" d="M0,0" style="fill: none;"/><path class="ylines-above crisp" d="M0,0" style="fill: none;"/><g class="overlines-above"/><g class="xaxislayer-above"><g class="x2tick"><text text-anchor="middle" x="0" y="333" transform="translate(42,0)" style="font-family: 'Open Sans', verdana, arial, sans-serif; font-size: 12px; fill: rgb(214, 223, 239); fill-opacity: 1; white-space: pre; opacity: 1;">Jan 2022</text></g><g class="x2tick"><text text-anchor="middle" x="0" y="333" style="font-family: 'Open Sans', verdana, arial, sans-serif; font-size: 12px; fill: rgb(214, 223, 239); fill-opacity: 1; white-space: pre; opacity: 1;" transform="translate(143.79000000000002,0)">Mar 2022</text></g><g class="x2tick"><text text-anchor="middle" x="0" y="333" style="font-family: 'Open Sans', verdana, arial, sans-serif; font-size: 12px; fill: rgb(214, 223, 239); fill-opacity: 1; white-space: pre; opacity: 1;" transform="translate(249.03,0)">May 2022</text></g><g class="x2tick"><text text-anchor="middle" x="0" y="333" style="font-family: 'Open Sans', verdana, arial, sans-serif; font-size: 12px; fill: rgb(214, 223, 239); fill-opacity: 1; white-space: pre; opacity: 1;" transform="translate(354.27,0)">Jul 2022</text></g><g class="x2tick"><text text-anchor="middle" x="0" y="333" style="font-family: 'Open Sans', verdana, arial, sans-serif; font-size: 12px; fill: rgb(214, 223, 239); fill-opacity: 1; white-space: pre; opacity: 1;" transform="translate(461.24,0)">Sep 2022</text></g><g class="x2tick"><text text-anchor="middle" x="0" y="333" style="font-family: 'Open Sans', verdana, arial, sans-serif; font-size: 12px; fill: rgb(214, 223, 239); fill-opacity: 1; white-space: pre; opacity: 1;" transform="translate(566.48,0)">Nov 2022</text></g></g><g class="yaxislayer-above"><g class="y2tick"><text text-anchor="end" x="41" y="4.199999999999999" transform="translate(0,314.17999999999995)" style="font-family: 'Open Sans', verdana, arial, sans-serif; font-size: 12px; fill: rgb(214, 223, 239); fill-opacity: 1; white-space: pre; opacity: 1;">−1</text></g><g class="y2tick"><text text-anchor="end" x="41" y="4.199999999999999" style="font-family: 'Open Sans', verdana, arial, sans-serif; font-size: 12px; fill: rgb(214, 223, 239); fill-opacity: 1; white-space: pre; opacity: 1;" transform="translate(0,287.98)">−0.5</text></g><g class="y2tick"><text text-anchor="end" x="41" y="4.199999999999999" style="font-family: 'Open Sans', verdana, arial, sans-serif; font-size: 12px; fill: rgb(214, 223, 239); fill-opacity: 1; white-space: pre; opacity: 1;" transform="translate(0,261.78)">0</text></g><g class="y2tick"><text text-anchor="end" x="41" y="4.199999999999999" style="font-family: 'Open Sans', verdana, arial, sans-serif; font-size: 12px; fill: rgb(214, 223, 239); fill-opacity: 1; white-space: pre; opacity: 1;" transform="translate(0,235.57)">0.5</text></g><g class="y2tick"><text text-anchor="end" x="41" y="4.199999999999999" style="font-family: 'Open Sans', verdana, arial, sans-serif; font-size: 12px; fill: rgb(214, 223, 239); fill-opacity: 1; white-space: pre; opacity: 1;" transform="translate(0,209.36999999999998)">1</text></g></g><g class="overaxes-above"/></g></g><g class="polarlayer"/><g class="smithlayer"/><g class="ternarylayer"/><g class="geolayer"/><g class="funnelarealayer"/><g class="pielayer"/><g class="iciclelayer"/><g class="treemaplayer"/><g class="sunburstlayer"/><g class="glimages"/><defs id="topdefs-005db3"><g class="clips"/><clipPath id="legend005db3"><rect width="508" height="29" x="0" y="0"/></clipPath></defs><g class="layer-above"><g class="imagelayer"/><g class="shapelayer"/></g><g class="infolayer"><g class="legend" pointer-events="all" transform="translate(162,11.519999999999996)"><rect class="bg" shape-rendering="crispEdges" style="stroke: rgb(68, 68, 68); stroke-opacity: 1; fill: rgb(33, 34, 38); fill-opacity: 1; stroke-width: 0px;" width="508" height="29" x="0" y="0"/><g class="scrollbox" transform="" clip-path="url(#legend005db3)"><g class="groups"><g class="traces" transform="translate(0,14.5)" style="opacity: 1;"><text class="legendtext" text-anchor="start" x="40" y="4.680000000000001" style="font-family: 'Open Sans', verdana, arial, sans-serif; font-size: 12px; fill: rgb(214, 223, 239); fill-opacity: 1; white-space: pre;">Lower band</text><g class="layers"><g class="legendfill"/><g class="legendlines"><path class="js-line" d="M5,0h30" style="fill: none; stroke: rgb(127, 127, 127); stroke-opacity: 0.5; stroke-width: 2px;"/></g><g class="legendsymbols"><g class="legendpoints"/></g></g><rect class="legendtoggle" x="0" y="-9.5" width="112.53125" height="19" style="fill: rgb(0, 0, 0); fill-opacity: 0;"/></g><g class="traces" transform="translate(115.03125,14.5)" style="opacity: 1;"><text class="legendtext" text-anchor="start" x="40" y="4.680000000000001" style="font-family: 'Open Sans', verdana, arial, sans-serif; font-size: 12px; fill: rgb(214, 223, 239); fill-opacity: 1; white-space: pre;">Upper band</text><g class="layers"><g class="legendfill"><path class="js-fill" d="M5,-2h30v6h-30z" style="stroke-width: 0; fill: rgb(128, 128, 128); fill-opacity: 0.2;"/></g><g class="legendlines"><path class="js-line" d="M5,-2h30" style="fill: none; stroke: rgb(127, 127, 127); stroke-opacity: 0.5; stroke-width: 2px;"/></g><g class="legendsymbols"><g class="legendpoints"/></g></g><rect class="legendtoggle" x="0" y="-9.5" width="112.484375" height="19" style="fill: rgb(0, 0, 0); fill-opacity: 0;"/></g><g class="traces" transform="translate(230.015625,14.5)" style="opacity: 1;"><text class="legendtext" text-anchor="start" x="40" y="4.680000000000001" style="font-family: 'Open Sans', verdana, arial, sans-serif; font-size: 12px; fill: rgb(214, 223, 239); fill-opacity: 1; white-space: pre;">Middle band</text><g class="layers" style="opacity: 1;"><g class="legendfill"/><g class="legendlines"><path class="js-line" d="M5,0h30" style="fill: none; stroke: rgb(108, 166, 205); stroke-opacity: 1; stroke-width: 2px;"/></g><g class="legendsymbols"><g class="legendpoints"/></g></g><rect class="legendtoggle" x="0" y="-9.5" width="115.28125" height="19" style="fill: rgb(0, 0, 0); fill-opacity: 0;"/></g><g class="traces" transform="translate(347.796875,14.5)" style="opacity: 1;"><text class="legendtext" text-anchor="start" x="40" y="4.680000000000001" style="font-family: 'Open Sans', verdana, arial, sans-serif; font-size: 12px; fill: rgb(214, 223, 239); fill-opacity: 1; white-space: pre;">Close</text><g class="layers" style="opacity: 1;"><g class="legendfill"/><g class="legendlines"><path class="js-line" d="M5,0h30" style="fill: none; stroke: rgb(31, 119, 180); stroke-opacity: 1; stroke-width: 2px;"/></g><g class="legendsymbols"><g class="legendpoints"/></g></g><rect class="legendtoggle" x="0" y="-9.5" width="74.859375" height="19" style="fill: rgb(0, 0, 0); fill-opacity: 0;"/></g><g class="traces" transform="translate(425.15625,14.5)" style="opacity: 1;"><text class="legendtext" text-anchor="start" x="40" y="4.680000000000001" style="font-family: 'Open Sans', verdana, arial, sans-serif; font-size: 12px; fill: rgb(214, 223, 239); fill-opacity: 1; white-space: pre;">Signal</text><g class="layers" style="opacity: 1;"><g class="legendfill"/><g class="legendlines"><path class="js-line" d="M5,0h30" style="fill: none; stroke: rgb(108, 166, 205); stroke-opacity: 1; stroke-width: 2px;"/></g><g class="legendsymbols"><g class="legendpoints"/></g></g><rect class="legendtoggle" x="0" y="-9.5" width="79.578125" height="19" style="fill: rgb(0, 0, 0); fill-opacity: 0;"/></g></g></g><rect class="scrollbar" rx="20" ry="3" width="0" height="0" style="fill: rgb(128, 139, 164); fill-opacity: 1;" x="0" y="0"/></g><g class="g-gtitle"/><g class="g-xtitle"/><g class="g-x2title"/><g class="g-ytitle"/><g class="g-y2title"/></g></svg>