<svg class="main-svg" xmlns="http://www.w3.org/2000/svg" xmlns:xlink="http://www.w3.org/1999/xlink" width="700" height="350" style="" viewBox="0 0 700 350"><rect x="0" y="0" width="700" height="350" style="fill: rgb(33, 34, 38); fill-opacity: 1;"/><defs id="defs-81a5de"><g class="clips"><clipPath id="clip81a5dexyplot" class="plotclip"><rect width="630" height="274"/></clipPath><clipPath class="axesclip" id="clip81a5dex"><rect x="40" y="0" width="630" height="350"/></clipPath><clipPath class="axesclip" id="clip81a5dey"><rect x="0" y="46" width="700" height="274"/></clipPath><clipPath class="axesclip" id="clip81a5dexy"><rect x="40" y="46" width="630" height="274"/></clipPath></g><g class="gradients"/><g class="patterns"/></defs><g class="bglayer"/><g class="layer-below"><g class="imagelayer"/><g class="shapelayer"/></g><g class="cartesianlayer"><g class="subplot xy"><g class="layer-subplot"><g class="shapelayer"/><g class="imagelayer"/></g><g class="minor-gridlayer"><g class="x"/><g class="y"/></g><g class="gridlayer"><g class="x"><path class="xgrid crisp" transform="translate(170.2,0)" d="M0,46v274" style="stroke: rgb(49, 52, 57); stroke-opacity: 1; stroke-width: 1px;"/><path class="xgrid crisp" transform="translate(287.8,0)" d="M0,46v274" style="stroke: rgb(49, 52, 57); stroke-opacity: 1; stroke-width: 1px;"/><path class="xgrid crisp" transform="translate(418,0)" d="M0,46v274" style="stroke: rgb(49, 52, 57); stroke-opacity: 1; stroke-width: 1px;"/><path class="xgrid crisp" transform="translate(544,0)" d="M0,46v274" style="stroke: rgb(49, 52, 57); stroke-opacity: 1; stroke-width: 1px;"/></g><g class="y"><path class="ygrid crisp" transform="translate(0,256.98)" d="M40,0h630" style="stroke: rgb(49, 52, 57); stroke-opacity: 1; stroke-width: 1px;"/><path class="ygrid crisp" transform="translate(0,207.66)" d="M40,0h630" style="stroke: rgb(49, 52, 57); stroke-opacity: 1; stroke-width: 1px;"/><path class="ygrid crisp" transform="translate(0,158.34)" d="M40,0h630" style="stroke: rgb(49, 52, 57); stroke-opacity: 1; stroke-width: 1px;"/><path class="ygrid crisp" transform="translate(0,109.02000000000001)" d="M40,0h630" style="stroke: rgb(49, 52, 57); stroke-opacity: 1; stroke-width: 1px;"/><path class="ygrid crisp" transform="translate(0,59.7)" d="M40,0h630" style="stroke: rgb(49, 52, 57); stroke-opacity: 1; stroke-width: 1px;"/></g></g><g class="zerolinelayer"><path class="yzl zl crisp" transform="translate(0,306.3)" d="M40,0h630" style="stroke: rgb(49, 52, 57); stroke-opacity: 1; stroke-width: 2px;"/></g><path class="xlines-below"/><path class="ylines-below"/><g class="overlines-below"/><g class="xaxislayer-below"/><g class="yaxislayer-below"/><g class="overaxes-below"/><g class="plot" transform="translate(40,46)" clip-path="url(#clip81a5dexyplot)"><g class="scatterlayer mlayer"><g class="trace scatter tracea808caa7-20a5-49d3-8a6e-8b4056cc1877" style="stroke-miterlimit: 2; opacity: 1;"><g class="fills"/><g class="errorbars"/><g class="lines"><path class="js-line" d="M92.4,205.74L100.8,41.34L105,15.23L113.4,15.23L117.6,13.7L121.8,20.85L126,20.85L130.2,20.85L134.4,95.9L138.6,160.74L142.8,160.74L147,79.47L151.2,14.63L155.4,14.63L159.6,13.7L163.8,13.7L168,69.75L176.4,234.15L180.6,260.3L184.8,238.3L189,156.1L193.2,102.81L197.4,124.81L201.6,207.01L205.8,258.56L214.2,258.56L218.4,209.47L222.6,183.82L226.8,101.62L231,70.25L235.2,17.44L239.4,67.03L243.6,67.03L247.8,63.29L252,19.79L256.2,45.89L260.4,128.09L264.6,200.13L268.8,256.23L273,256.23L277.2,203.92L281.4,121.72L285.6,87.72L289.8,121.11L294,191.96L298.2,225.96L302.4,166.74L306.6,109.53L310.8,27.33L315,32.42L319.2,18.78L323.4,18.78L327.6,93.33L331.8,175.53L336,175.53L344.4,13.7L348.6,13.7L365.4,13.7L369.6,38.64L373.8,120.84L378,184.57L382.2,240.08L386.4,217.99L390.6,154.26L394.8,156.01L399,178.1L403.2,253.8L407.4,253.8L411.6,240.08L415.8,245.19L420,245.19L424.2,236.38L428.4,178.52L432.6,141.07L436.8,92.25L441,94.21L445.2,131.24L449.4,120.39L453.6,95.49L457.8,18.82L462,57.3L470.4,216.58L474.6,260.3L478.8,178.1L483,178.1L487.2,123.82L491.4,127.65L495.6,89.09L499.8,131.99L504,166.23L508.2,157.1L512.4,142.88L516.6,104.81L520.8,152.49L525,178.1L529.2,260.3L533.4,260.3L537.6,260.3L541.8,237.68L546,237.68L550.2,231.68L554.4,213.56L558.6,131.36L562.8,55.15L567,39.3L571.2,46.13L575.4,114.8L579.6,89.2L583.8,114.19L588,65.43L592.2,65.43L596.4,89.6L600.6,84.29L604.8,108.52L609,103.19L613.2,170.79L617.4,202.14L621.6,151.48L625.8,69.28L630,13.7" style="vector-effect: none; fill: none; stroke: rgb(31, 119, 180); stroke-opacity: 1; stroke-width: 2px; opacity: 1;"/></g><g class="points"/><g class="text"/></g><g class="trace scatter tracecf7e086f-3747-4c61-be9c-2816642c8979" style="stroke-miterlimit: 2; opacity: 1;"><g class="fills"/><g class="errorbars"/><g class="lines"><path class="js-line" d="M92.4,242.11L96.6,196.53L100.8,123.54L105,60.04L109.2,23.94L113.4,15.23L117.6,14.72L130.2,20.85L134.4,45.86L142.8,139.13L147,133.65L155.4,36.24L159.6,14.32L163.8,14.01L168,32.38L172.2,78.47L176.4,151.95L180.6,215.47L184.8,244.25L189,218.23L193.2,165.73L197.4,127.9L201.6,144.88L210,241.38L214.2,258.56L218.4,242.2L222.6,217.29L235.2,63.1L239.4,51.57L243.6,50.5L247.8,65.79L252,50.04L256.2,42.99L260.4,64.59L264.6,124.7L268.8,194.82L273,237.53L277.2,238.8L281.4,193.96L285.6,137.79L289.8,110.18L294,133.59L298.2,179.68L302.4,194.89L306.6,167.41L310.8,101.2L315,56.43L319.2,26.18L323.4,23.33L327.6,43.63L331.8,95.88L336,148.13L340.2,148.99L348.6,41.1L352.8,13.7L365.4,13.7L369.6,22.01L373.8,57.73L378,114.68L382.2,181.83L386.4,214.21L390.6,204.11L394.8,176.08L399,162.79L403.2,195.97L407.4,228.56L411.6,249.22L420,243.49L424.2,242.25L428.4,220.03L432.6,185.32L436.8,137.28L441,109.18L445.2,105.9L449.4,115.28L453.6,115.71L457.8,78.23L462,57.2L466.2,71.87L474.6,205.46L478.8,218.33L483,205.5L487.2,160.01L491.4,143.19L495.6,113.52L499.8,116.24L504,129.1L508.2,151.77L512.4,155.4L516.6,134.93L520.8,133.39L525,145.13L529.2,196.96L533.4,232.9L537.6,260.3L546,245.22L550.2,235.68L554.4,227.64L558.6,192.2L567,75.27L571.2,46.86L583.8,106.06L588,89.61L596.4,73.48L600.6,79.77L604.8,94.14L609,98.67L617.4,158.71L621.6,174.8L625.8,140.97L630,78.15" style="vector-effect: none; fill: none; stroke: rgb(255, 127, 14); stroke-opacity: 1; stroke-width: 2px; opacity: 1;"/></g><g class="points"/><g class="text"/></g></g></g><g class="overplot"/><path class="xlines-above crisp" d="M0,0" style="fill: none;"/><path class="ylines-above crisp" d="M0,0" style="fill: none;"/><g class="overlines-above"/><g class="xaxislayer-above"><g class="xtick"><text text-anchor="middle" x="0" y="333" transform="translate(40,0)" style="font-family: 'Open Sans', verdana, arial, sans-serif; font-size: 12px; fill: rgb(214, 223, 239); fill-opacity: 1; white-space: pre; opacity: 1;">Jan 2022</text></g><g class="xtick"><text text-anchor="middle" x="0" y="333" style="font-family: 'Open Sans', verdana, arial, sans-serif; font-size: 12px; fill: rgb(214, 223, 239); fill-opacity: 1; white-space: pre; opacity: 1;" transform="translate(170.2,0)">Feb 2022</text></g><g class="xtick"><text text-anchor="middle" x="0" y="333" style="font-family: 'Open Sans', verdana, arial, sans-serif; font-size: 12px; fill: rgb(214, 223, 239); fill-opacity: 1; white-space: pre; opacity: 1;" transform="translate(287.8,0)">Mar 2022</text></g><g class="xtick"><text text-anchor="middle" x="0" y="333" style="font-family: 'Open Sans', verdana, arial, sans-serif; font-size: 12px; fill: rgb(214, 223, 239); fill-opacity: 1; white-space: pre; opacity: 1;" transform="translate(418,0)">Apr 2022</text></g><g class="xtick"><text text-anchor="middle" x="0" y="333" style="font-family: 'Open Sans', verdana, arial, sans-serif; font-size: 12px; fill: rgb(214, 223, 239); fill-opacity: 1; white-space: pre; opacity: 1;" transform="translate(544,0)">May 2022</text></g></g><g class="yaxislayer-above"><g class="ytick"><text text-anchor="end" x="39" y="4.199999999999999" transform="translate(0,306.3)" style="font-family: 'Open Sans', verdana, arial, sans-serif; font-size: 12px; fill: rgb(214, 223, 239); fill-opacity: 1; white-space: pre; opacity: 1;">0</text></g><g class="ytick"><text text-anchor="end" x="39" y="4.199999999999999" style="font-family: 'Open Sans', verdana, arial, sans-serif; font-size: 12px; fill: rgb(214, 223, 239); fill-opacity: 1; white-space: pre; opacity: 1;" transform="translate(0,256.98)">20</text></g><g class="ytick"><text text-anchor="end" x="39" y="4.199999999999999" style="font-family: 'Open Sans', verdana, arial, sans-serif; font-size: 12px; fill: rgb(214, 223, 239); fill-opacity: 1; white-space: pre; opacity: 1;" transform="translate(0,207.66)">40</text></g><g class="ytick"><text text-anchor="end" x="39" y="4.199999999999999" style="font-family: 'Open Sans', verdana, arial, sans-serif; font-size: 12px; fill: rgb(214, 223, 239); fill-opacity: 1; white-space: pre; opacity: 1;" transform="translate(0,158.34)">60</text></g><g class="ytick"><text text-anchor="end" x="39" y="4.199999999999999" style="font-family: 'Open Sans', verdana, arial, sans-serif; font-size: 12px; fill: rgb(214, 223, 239); fill-opacity: 1; white-space: pre; opacity: 1;" transform="translate(0,109.02000000000001)">80</text></g><g class="ytick"><text text-anchor="end" x="39" y="4.199999999999999" style="font-family: 'Open Sans', verdana, arial, sans-serif; font-size: 12px; fill: rgb(214, 223, 239); fill-opacity: 1; white-space: pre; opacity: 1;" transform="translate(0,59.7)">100</text></g></g><g class="overaxes-above"/></g></g><g class="polarlayer"/><g class="smithlayer"/><g class="ternarylayer"/><g class="geolayer"/><g class="funnelarealayer"/><g class="pielayer"/><g class="iciclelayer"/><g class="treemaplayer"/><g class="sunburstlayer"/><g class="glimages"/><defs id="topdefs-81a5de"><g class="clips"/><clipPath id="legend81a5de"><rect width="134" height="29" x="0" y="0"/></clipPath></defs><g class="layer-above"><g class="imagelayer"/><g class="shapelayer"/></g><g class="infolayer"><g class="legend" pointer-events="all" transform="translate(536,11.519999999999996)"><rect class="bg" shape-rendering="crispEdges" width="134" height="29" x="0" y="0" style="stroke: rgb(68, 68, 68); stroke-opacity: 1; fill: rgb(33, 34, 38); fill-opacity: 1; stroke-width: 0px;"/><g class="scrollbox" transform="" clip-path="url(#legend81a5de)"><g class="groups"><g class="traces" transform="translate(0,14.5)" style="opacity: 1;"><text class="legendtext" text-anchor="start" x="40" y="4.680000000000001" style="font-family: 'Open Sans', verdana, arial, sans-serif; font-size: 12px; fill: rgb(214, 223, 239); fill-opacity: 1; white-space: pre;">%K</text><g class="layers" style="opacity: 1;"><g class="legendfill"/><g class="legendlines"><path class="js-line" d="M5,0h30" style="fill: none; stroke: rgb(31, 119, 180); stroke-opacity: 1; stroke-width: 2px;"/></g><g class="legendsymbols"><g class="legendpoints"/></g></g><rect class="legendtoggle" x="0" y="-9.5" width="63.734375" height="19" style="fill: rgb(0, 0, 0); fill-opacity: 0;"/></g><g class="traces" transform="translate(66.234375,14.5)" style="opacity: 1;"><text class="legendtext" text-anchor="start" x="40" y="4.680000000000001" style="font-family: 'Open Sans', verdana, arial, sans-serif; font-size: 12px; fill: rgb(214, 223, 239); fill-opacity: 1; white-space: pre;">%D</text><g class="layers" style="opacity: 1;"><g class="legendfill"/><g class="legendlines"><path class="js-line" d="M5,0h30" style="fill: none; stroke: rgb(255, 127, 14); stroke-opacity: 1; stroke-width: 2px;"/></g><g class="legendsymbols"><g class="legendpoints"/></g></g><rect class="legendtoggle" x="0" y="-9.5" width="64.671875" height="19" style="fill: rgb(0, 0, 0); fill-opacity: 0;"/></g></g></g><rect class="scrollbar" rx="20" ry="3" width="0" height="0" x="0" y="0" style="fill: rgb(128, 139, 164); fill-opacity: 1;"/></g><g class="g-gtitle"/><g class="g-xtitle"/><g class="g-ytitle"/></g></svg>