<svg class="main-svg" xmlns="http://www.w3.org/2000/svg" xmlns:xlink="http://www.w3.org/1999/xlink" width="700" height="350" style="" viewBox="0 0 700 350"><rect x="0" y="0" width="700" height="350" style="fill: rgb(33, 34, 38); fill-opacity: 1;"/><defs id="defs-386108"><g class="clips"><clipPath id="clip386108xyplot" class="plotclip"><rect width="640" height="274"/></clipPath><clipPath class="axesclip" id="clip386108x"><rect x="30" y="0" width="640" height="350"/></clipPath><clipPath class="axesclip" id="clip386108y"><rect x="0" y="46" width="700" height="274"/></clipPath><clipPath class="axesclip" id="clip386108xy"><rect x="30" y="46" width="640" height="274"/></clipPath></g><g class="gradients"/><g class="patterns"/></defs><g class="bglayer"/><g class="layer-below"><g class="imagelayer"/><g class="shapelayer"/></g><g class="cartesianlayer"><g class="subplot xy"><g class="layer-subplot"><g class="shapelayer"/><g class="imagelayer"/></g><g class="minor-gridlayer"><g class="x"/><g class="y"/></g><g class="gridlayer"><g class="x"><path class="xgrid crisp" transform="translate(118.3,0)" d="M0,46v274" style="stroke: rgb(49, 52, 57); stroke-opacity: 1; stroke-width: 1px;"/><path class="xgrid crisp" transform="translate(255.33,0)" d="M0,46v274" style="stroke: rgb(49, 52, 57); stroke-opacity: 1; stroke-width: 1px;"/><path class="xgrid crisp" transform="translate(392.18,0)" d="M0,46v274" style="stroke: rgb(49, 52, 57); stroke-opacity: 1; stroke-width: 1px;"/><path class="xgrid crisp" transform="translate(529.21,0)" d="M0,46v274" style="stroke: rgb(49, 52, 57); stroke-opacity: 1; stroke-width: 1px;"/><path class="xgrid crisp" transform="translate(666.06,0)" d="M0,46v274" style="stroke: rgb(49, 52, 57); stroke-opacity: 1; stroke-width: 1px;"/></g><g class="y"><path class="ygrid crisp" transform="translate(0,254.5)" d="M30,0h640" style="stroke: rgb(49, 52, 57); stroke-opacity: 1; stroke-width: 1px;"/><path class="ygrid crisp" transform="translate(0,202.71)" d="M30,0h640" style="stroke: rgb(49, 52, 57); stroke-opacity: 1; stroke-width: 1px;"/><path class="ygrid crisp" transform="translate(0,150.91)" d="M30,0h640" style="stroke: rgb(49, 52, 57); stroke-opacity: 1; stroke-width: 1px;"/><path class="ygrid crisp" transform="translate(0,99.11)" d="M30,0h640" style="stroke: rgb(49, 52, 57); stroke-opacity: 1; stroke-width: 1px;"/><path class="ygrid crisp" transform="translate(0,47.31)" d="M30,0h640" style="stroke: rgb(49, 52, 57); stroke-opacity: 1; stroke-width: 1px;"/></g></g><g class="zerolinelayer"><path class="yzl zl crisp" transform="translate(0,306.3)" d="M30,0h640" style="stroke: rgb(49, 52, 57); stroke-opacity: 1; stroke-width: 2px;"/></g><path class="xlines-below"/><path class="ylines-below"/><g class="overlines-below"/><g class="xaxislayer-below"/><g class="yaxislayer-below"/><g class="overaxes-below"/><g class="plot" transform="translate(30,46)" clip-path="url(#clip386108xyplot)"><g class="scatterlayer mlayer"><g class="trace scatter trace44a8315c-3dcb-42bd-b2ac-8df19ca12709" style="stroke-miterlimit: 2; opacity: 1;"><g class="fills"/><g class="errorbars"/><g class="lines"><path class="js-line" d="M18.56,260.3L55.11,260.3L55.3,256.92L55.86,256.92L56.05,253.54L57.18,246.79L57.36,246.79L58.86,246.79L59.05,243.41L59.99,240.03L60.18,240.03L73.86,240.03L74.05,243.41L74.8,236.65L74.99,240.03L75.92,243.41L76.11,243.41L76.49,243.41L76.67,240.03L77.42,240.03L77.61,236.65L77.98,236.65L78.17,233.28L79.11,229.9L79.3,229.9L82.3,229.9L82.48,226.52L83.8,216.38L83.98,216.38L84.36,216.38L84.55,213.01L86.23,192.74L86.42,192.74L89.79,192.74L89.98,189.36L90.92,185.98L91.11,185.98L92.79,185.98L92.98,189.36L94.11,196.12L94.29,196.12L95.23,196.12L95.42,199.49L96.17,199.49L96.36,202.87L96.54,202.87L96.73,206.25L96.92,206.25L97.11,209.63L98.23,209.63L98.42,206.25L98.79,206.25L98.98,202.87L100.11,196.12L100.29,196.12L101.04,196.12L101.23,199.49L102.54,209.63L102.73,209.63L103.1,209.63L103.29,213.01L105.17,233.28L105.35,233.28L106.29,233.28L106.48,229.9L108.17,229.9L108.35,226.52L108.54,223.14L108.73,226.52L108.92,229.9L110.42,229.9L110.6,226.52L112.85,226.52L113.04,223.14L115.1,223.14L115.29,226.52L115.48,226.52L115.66,229.9L116.79,229.9L116.98,226.52L117.91,233.28L118.1,229.9L118.29,229.9L118.48,226.52L119.98,226.52L120.16,223.14L121.1,219.76L121.29,219.76L122.79,219.76L122.98,216.38L123.91,209.63L124.1,209.63L125.04,209.63L125.23,213.01L126.91,213.01L127.1,216.38L128.04,219.76L128.22,219.76L129.16,219.76L129.35,223.14L131.6,223.14L131.79,226.52L135.54,226.52L135.72,229.9L136.47,229.9L136.66,233.28L137.97,243.41L138.16,243.41L138.72,243.41L138.91,246.79L139.85,250.17L140.04,250.17L140.97,250.17L141.16,246.79L141.53,246.79L141.72,250.17L142.1,256.92L142.47,250.17L142.66,246.79L143.6,243.41L143.78,243.41L145.1,243.41L145.28,240.03L146.22,240.03L146.41,236.65L146.6,236.65L146.78,233.28L146.97,233.28L147.16,229.9L148.1,226.52L148.28,226.52L148.85,226.52L149.03,223.14L150.16,216.38L150.35,216.38L151.66,216.38L151.85,213.01L152.78,206.25L152.97,206.25L153.53,206.25L153.72,202.87L155.41,202.87L155.59,199.49L156.34,199.49L156.53,196.12L157.66,189.36L157.84,189.36L159.72,189.36L159.91,192.74L160.47,192.74L160.66,189.36L160.84,189.36L161.03,192.74L161.97,202.87L162.16,199.49L163.09,192.74L163.28,192.74L163.84,185.98L164.22,189.36L164.41,189.36L164.97,189.36L165.16,192.74L165.34,192.74L165.53,196.12L165.72,196.12L165.91,199.49L166.84,202.87L167.03,202.87L167.78,196.12L167.97,199.49L168.15,199.49L168.34,202.87L169.65,192.74L169.84,192.74L170.4,192.74L170.59,196.12L171.72,202.87L171.9,202.87L172.28,202.87L172.47,206.25L174.15,206.25L174.34,209.63L175.09,202.87L175.28,206.25L175.47,206.25L175.65,206.25L175.84,202.87L176.22,202.87L176.4,206.25L177.34,202.87L177.53,202.87L177.72,202.87L177.9,199.49L179.21,199.49L179.4,202.87L180.71,202.87L180.9,206.25L181.28,213.01L181.65,206.25L181.84,202.87L182.03,199.49L182.4,206.25L182.59,206.25L183.71,206.25L183.9,202.87L184.84,199.49L185.03,199.49L185.78,199.49L185.96,202.87L186.53,206.25L186.71,202.87L186.9,202.87L187.09,202.87L187.28,206.25L188.21,213.01L188.4,213.01L193.09,213.01L193.27,216.38L193.65,216.38L193.84,219.76L194.02,219.76L194.21,223.14L194.4,223.14L194.59,226.52L195.52,226.52L195.71,223.14L195.9,223.14L196.09,219.76L197.96,219.76L198.15,216.38L199.09,213.01L199.27,213.01L199.46,213.01L199.65,209.63L200.02,202.87L200.21,206.25L200.4,209.63L201.52,216.38L201.71,213.01L204.9,213.01L205.08,216.38L205.27,216.38L205.46,219.76L208.27,219.76L208.46,216.38L209.77,206.25L209.96,206.25L210.71,206.25L210.9,202.87L212.4,185.98L212.58,185.98L213.9,185.98L214.08,189.36L214.27,189.36L214.46,192.74L214.83,192.74L215.02,189.36L216.71,189.36L216.9,192.74L217.46,196.12L217.64,192.74L217.83,192.74L218.21,185.98L218.58,192.74L218.77,196.12L220.27,196.12L220.46,199.49L220.83,199.49L221.02,196.12L221.58,199.49L221.96,192.74L222.14,192.74L222.52,192.74L222.71,189.36L223.64,185.98L223.83,185.98L226.27,185.98L226.46,182.6L227.02,182.6L227.21,185.98L228.33,196.12L228.52,196.12L229.46,196.12L229.64,199.49L231.33,216.38L231.52,216.38L233.39,216.38L233.58,219.76L234.7,226.52L234.89,226.52L236.2,226.52L236.39,229.9L236.58,229.9L236.77,233.28L237.7,236.65L237.89,236.65L239.58,236.65L239.77,240.03L240.89,250.17L241.08,250.17L241.27,250.17L241.45,253.54L242.39,256.92L242.58,256.92L245.01,256.92L245.2,260.3L311.94,260.3L312.13,256.92L313.06,250.17L313.25,250.17L314.19,250.17L314.38,246.79L314.75,246.79L314.94,243.41L317,243.41L317.19,240.03L318.88,240.03L319.06,236.65L320.75,219.76L320.94,219.76L321.31,219.76L321.5,216.38L322.81,206.25L323,206.25L325.06,206.25L325.25,202.87L326.75,202.87L326.94,199.49L327.12,199.49L327.31,196.12L329.56,196.12L329.75,192.74L330.69,192.74L330.87,196.12L332,202.87L332.19,202.87L332.93,202.87L333.12,206.25L333.5,206.25L333.68,209.63L334.62,206.25L334.81,206.25L335.75,196.12L335.93,199.49L336.12,199.49L336.68,199.49L336.87,196.12L337.62,196.12L337.81,199.49L339.5,216.38L339.68,213.01L340.06,206.25L340.62,209.63L340.81,213.01L343.81,213.01L344,216.38L345.5,216.38L345.68,219.76L345.87,219.76L346.06,223.14L348.31,223.14L348.49,226.52L352.43,226.52L352.62,229.9L353.56,229.9L353.74,233.28L354.87,240.03L355.06,240.03L355.43,240.03L355.62,243.41L358.24,243.41L358.43,246.79L359.93,260.3L360.12,260.3L367.62,260.3L367.8,256.92L369.12,246.79L369.3,246.79L369.49,246.79L369.68,243.41L370.05,243.41L370.24,240.03L371.18,236.65L371.36,236.65L385.05,236.65L385.24,233.28L386.36,223.14L386.55,226.52L387.3,236.65L387.49,233.28L387.67,229.9L388.8,229.9L388.99,233.28L389.92,236.65L390.11,236.65L390.3,236.65L390.49,233.28L390.67,233.28L390.86,229.9L392.17,219.76L392.36,219.76L399.86,219.76L400.05,216.38L402.11,216.38L402.3,213.01L403.8,196.12L403.98,199.49L405.11,209.63L405.3,206.25L405.48,206.25L405.67,202.87L406.05,202.87L406.23,206.25L407.36,213.01L407.55,213.01L409.05,213.01L409.23,216.38L409.42,216.38L409.61,219.76L410.73,229.9L410.92,229.9L414.67,229.9L414.86,226.52L415.61,226.52L415.79,223.14L417.48,206.25L417.67,206.25L417.86,206.25L418.04,202.87L419.73,185.98L419.92,185.98L420.29,185.98L420.48,182.6L420.67,182.6L420.86,179.23L421.04,179.23L421.23,182.6L422.36,189.36L422.54,189.36L423.1,189.36L423.29,185.98L423.85,179.23L424.23,182.6L424.42,185.98L425.35,185.98L425.54,182.6L426.67,175.85L426.85,175.85L428.54,175.85L428.73,172.47L430.04,162.34L430.23,162.34L431.17,162.34L431.35,158.96L432.29,158.96L432.48,155.58L432.85,155.58L433.04,152.2L433.42,152.2L433.6,155.58L434.35,155.58L434.54,158.96L436.23,175.85L436.41,175.85L436.6,175.85L436.79,179.23L438.66,199.49L438.85,196.12L439.41,189.36L439.6,192.74L439.79,196.12L440.54,196.12L440.73,199.49L441.85,199.49L442.04,202.87L443.16,209.63L443.35,209.63L444.48,209.63L444.66,206.25L444.85,209.63L445.04,206.25L445.23,202.87L446.16,199.49L446.35,199.49L447.29,199.49L447.48,202.87L448.04,213.01L448.41,206.25L448.6,206.25L449.91,206.25L450.1,209.63L450.29,209.63L450.47,206.25L451.04,206.25L451.22,209.63L451.6,209.63L451.79,213.01L457.41,213.01L457.6,216.38L458.91,226.52L459.1,226.52L460.04,229.9L460.22,229.9L462.85,229.9L463.03,233.28L464.72,250.17L464.91,250.17L466.78,250.17L466.97,253.54L467.91,256.92L468.1,256.92L469.03,256.92L469.22,260.3L472.22,260.3L472.41,256.92L472.97,256.92L473.16,253.54L474.09,250.17L474.28,250.17L474.66,250.17L474.84,246.79L475.97,240.03L476.16,240.03L483.09,240.03L483.28,236.65L483.47,236.65L483.66,233.28L483.84,233.28L484.03,229.9L484.22,229.9L484.41,226.52L485.53,226.52L485.72,223.14L487.4,223.14L487.59,219.76L489.28,219.76L489.47,216.38L490.59,206.25L490.78,206.25L490.97,206.25L491.15,209.63L491.72,209.63L491.9,213.01L492.84,216.38L493.03,216.38L493.4,216.38L493.59,219.76L494.72,226.52L494.9,226.52L501.84,226.52L502.03,229.9L502.21,229.9L502.4,233.28L502.59,233.28L502.78,236.65L502.96,236.65L503.15,240.03L504.28,240.03L504.46,243.41L506.15,243.41L506.34,246.79L508.03,246.79L508.21,250.17L509.53,260.3L509.71,260.3L570.45,260.3L570.64,256.92L570.83,256.92L571.01,253.54L571.58,253.54L571.76,250.17L574.2,219.76L574.39,219.76L576.64,219.76L576.82,216.38L577.01,216.38L577.2,213.01L578.14,209.63L578.32,209.63L582.45,209.63L582.64,206.25L583.95,192.74L584.14,192.74L584.51,192.74L584.7,189.36L584.89,189.36L585.07,185.98L586.01,182.6L586.2,182.6L586.95,182.6L587.14,179.23L588.07,175.85L588.26,175.85L589.2,175.85L589.38,179.23L589.57,179.23L589.76,182.6L590.32,182.6L590.51,185.98L592.95,216.38L593.13,216.38L595.38,216.38L595.57,219.76L595.76,219.76L595.95,223.14L596.88,226.52L597.07,226.52L599.32,226.52L599.51,223.14L600.26,223.14L600.45,219.76L601.76,206.25L601.94,209.63L603.26,209.63L603.44,213.01L603.63,213.01L603.82,216.38L604.76,219.76L604.94,219.76L605.69,219.76L605.88,223.14L606.82,226.52L607.01,226.52L618.07,226.52L618.25,229.9L619,229.9L619.19,233.28L621.44,260.3L621.63,260.3L623.5,260.3L623.69,256.92L626.13,226.52L626.32,226.52L626.5,226.52L626.69,223.14L627.63,219.76L627.81,219.76L629.13,219.76L629.31,216.38L630.44,209.63L630.63,209.63L631.19,209.63L631.38,206.25L631.56,206.25L631.75,202.87L632.69,199.49L632.88,199.49L634.56,199.49L634.75,196.12L636.81,196.12L637,192.74L638.13,185.98L638.31,185.98L640,185.98" style="vector-effect: none; fill: none; stroke: rgb(44, 160, 44); stroke-opacity: 1; stroke-width: 2px; opacity: 1;"/></g><g class="points"/><g class="text"/></g><g class="trace scatter trace10b4e01c-89c5-495f-89ff-58e0aeafb638" style="stroke-miterlimit: 2; opacity: 1;"><g class="fills"/><g class="errorbars"/><g class="lines"><path class="js-line" d="M18.56,260.3L35.62,260.3L35.81,256.92L37.87,256.92L38.06,253.54L40.87,213.01L41.05,213.01L42.55,199.49L42.74,199.49L43.12,199.49L43.3,196.12L45.37,196.12L45.55,192.74L46.87,182.6L47.05,182.6L47.62,182.6L47.8,179.23L50.05,152.2L50.24,152.2L54.36,152.2L54.55,155.58L56.61,155.58L56.8,158.96L60.18,206.25L60.36,206.25L61.49,213.01L61.68,213.01L61.86,213.01L62.05,216.38L62.61,216.38L62.8,213.01L64.49,189.36L64.67,192.74L64.86,192.74L66.36,179.23L66.55,182.6L68.05,199.49L68.24,196.12L69.92,175.85L70.11,175.85L76.86,175.85L77.05,174.05L81.36,174.05L81.55,177.42L84.55,222.92L84.73,222.92L86.23,222.92L86.42,226.29L88.86,256.7L89.05,256.7L95.61,256.7L95.79,258.5L102.92,258.5L103.1,260.3L109.29,260.3L109.48,258.5L110.6,254.9L110.79,254.9L128.04,254.9L128.22,256.7L129.35,260.3L129.54,260.3L144.16,260.3L144.35,258.5L145.85,249.49L146.03,249.49L154.66,249.49L154.84,247.69L155.78,245.89L155.97,245.89L156.91,245.89L157.09,244.09L162.91,244.09L163.09,245.89L164.78,254.9L164.97,254.9L168.72,254.9L168.9,253.09L173.4,253.09L173.59,254.9L174.53,256.7L174.72,256.7L175.65,256.7L175.84,258.5L187.46,258.5L187.65,260.3L231.7,260.3L231.89,256.92L233.39,243.41L233.58,243.41L237.89,243.41L238.08,240.03L238.45,240.03L238.64,236.65L244.08,152.2L244.26,152.2L249.89,152.2L250.08,148.82L250.45,145.45L250.83,148.82L251.01,148.82L251.39,148.82L251.58,145.45L251.76,145.45L251.95,142.07L254.39,111.66L254.58,111.66L254.95,111.66L255.14,108.29L257.39,81.26L257.57,81.26L258.51,81.26L258.7,77.88L258.89,74.51L259.45,77.88L259.64,81.26L261.32,101.53L261.51,101.53L261.89,101.53L262.07,104.91L263.57,118.42L263.76,118.42L265.45,118.42L265.64,115.04L265.82,115.04L266.01,111.66L268.64,71.13L268.82,74.51L269.01,74.51L269.38,74.51L269.57,77.88L272.01,108.29L272.2,108.29L272.38,108.29L272.57,104.91L274.26,88.02L274.45,91.4L275.76,104.91L275.95,104.91L278.01,131.93L278.2,131.93L279.51,118.42L279.7,121.8L280.82,135.31L281.01,131.93L283.44,101.53L283.63,101.53L285.13,88.02L285.32,88.02L286.63,88.02L286.82,84.64L287.01,84.64L287.19,81.26L287.38,81.26L287.57,77.88L287.76,77.88L287.94,74.51L290.76,33.97L290.94,37.35L293.57,71.13L293.76,71.13L293.94,71.13L294.13,74.51L295.07,77.88L295.25,77.88L296.94,50.86L297.32,54.24L297.5,54.24L297.69,54.24L297.88,50.86L300.32,20.46L300.5,20.46L300.69,20.46L300.88,23.83L309.5,165.71L309.69,165.71L314,165.71L314.19,169.09L320,260.3L320.19,260.3L343.81,260.3L344,256.92L346.81,216.38L346.99,216.38L347.37,216.38L347.56,213.01L349.43,189.36L349.62,189.36L353.18,189.36L353.37,185.98L357.49,125.18L357.68,125.18L360.12,94.77L360.3,94.77L361.8,94.77L361.99,91.4L362.55,84.64L362.74,88.02L362.93,91.4L365.74,128.55L365.93,128.55L366.12,128.55L366.3,131.93L368.37,155.58L368.55,155.58L371.93,155.58L372.11,158.96L374.55,202.87L374.93,199.49L375.11,196.12L375.68,196.12L375.86,192.74L376.05,192.74L376.24,189.36L376.61,185.98L376.8,189.36L376.99,192.74L378.3,209.63L378.49,206.25L378.68,202.87L380.55,202.87L380.74,206.25L381.86,213.01L382.05,213.01L393.3,213.01L393.49,216.38L396.11,253.54L396.3,253.54L397.05,253.54L397.23,256.92L398.17,260.3L398.36,260.3L456.47,260.3L456.66,256.92L460.79,196.12L460.97,196.12L461.91,192.74L462.1,192.74L464.35,162.34L464.53,162.34L468.47,104.91L468.66,104.91L475.22,104.91L475.41,108.29L479.34,169.09L479.53,169.09L479.72,169.09L479.91,172.47L480.84,169.09L481.03,172.47L482.91,192.74L483.09,192.74L483.28,192.74L483.47,196.12L487.22,250.17L487.4,250.17L495.09,250.17L495.28,246.79L495.47,246.79L495.65,243.41L497.53,223.14L497.72,223.14L498.28,223.14L498.47,219.76L501.09,182.6L501.28,182.6L505.4,118.42L505.59,118.42L508.03,118.42L508.21,115.04L508.4,115.04L508.59,111.66L511.59,71.13L511.78,71.13L513.27,54.24L513.46,54.24L513.84,54.24L514.02,57.62L514.21,57.62L514.4,60.99L516.27,81.26L516.46,81.26L517.02,81.26L517.21,84.64L518.52,94.77L518.71,94.77L519.27,94.77L519.46,98.15L519.84,101.53L520.21,98.15L520.4,98.15L521.34,101.53L521.52,101.53L522.09,101.53L522.27,104.91L523.02,104.91L523.21,101.53L523.4,101.53L523.59,98.15L526.77,50.86L526.96,54.24L527.15,54.24L527.33,57.62L528.83,71.13L529.02,71.13L530.15,64.37L530.33,64.37L531.46,57.62L531.65,57.62L534.08,23.83L534.27,23.83L534.83,23.83L535.02,20.46L536.15,13.7L536.33,13.7L536.52,13.7L536.71,17.08L542.14,101.53L542.33,101.53L544.21,101.53L544.39,98.15L545.52,98.15L545.71,94.77L546.46,88.02L546.64,91.4L546.83,94.77L547.02,94.77L547.21,91.4L548.33,81.26L548.52,81.26L549.64,81.26L549.83,84.64L551.89,108.29L552.08,108.29L552.27,108.29L552.45,104.91L554.33,84.64L554.52,84.64L557.33,84.64L557.52,81.26L561.45,20.46L561.64,23.83L564.83,74.51L565.01,71.13L565.2,67.75L566.33,60.99L566.51,64.37L568.01,64.37L568.2,67.75L569.33,74.51L569.51,74.51L570.08,74.51L570.26,77.88L573.64,125.18L573.83,125.18L576.07,125.18L576.26,128.55L580.95,199.49L581.14,199.49L583.2,199.49L583.39,202.87L587.14,260.3L587.32,260.3L610.19,260.3L610.38,256.92L615.44,179.23L615.63,179.23L617.32,179.23L617.5,175.85L617.69,175.85L617.88,172.47L618.82,169.09L619,169.09L628.94,169.09L629.13,172.47L634,250.17L634.19,250.17L636.06,250.17L636.25,253.54L636.44,253.54L636.63,256.92L637.56,260.3L637.75,260.3L640,260.3" style="vector-effect: none; fill: none; stroke: rgb(220, 57, 18); stroke-opacity: 1; stroke-width: 2px; opacity: 1;"/></g><g class="points"/><g class="text"/></g></g></g><g class="overplot"/><path class="xlines-above crisp" d="M0,0" style="fill: none;"/><path class="ylines-above crisp" d="M0,0" style="fill: none;"/><g class="overlines-above"/><g class="xaxislayer-above"><g class="xtick"><text text-anchor="middle" x="0" y="333" transform="translate(118.3,0)" style="font-family: 'Open Sans', verdana, arial, sans-serif; font-size: 12px; fill: rgb(214, 223, 239); fill-opacity: 1; white-space: pre; opacity: 1;">2016</text></g><g class="xtick"><text text-anchor="middle" x="0" y="333" style="font-family: 'Open Sans', verdana, arial, sans-serif; font-size: 12px; fill: rgb(214, 223, 239); fill-opacity: 1; white-space: pre; opacity: 1;" transform="translate(255.33,0)">2018</text></g><g class="xtick"><text text-anchor="middle" x="0" y="333" style="font-family: 'Open Sans', verdana, arial, sans-serif; font-size: 12px; fill: rgb(214, 223, 239); fill-opacity: 1; white-space: pre; opacity: 1;" transform="translate(392.18,0)">2020</text></g><g class="xtick"><text text-anchor="middle" x="0" y="333" style="font-family: 'Open Sans', verdana, arial, sans-serif; font-size: 12px; fill: rgb(214, 223, 239); fill-opacity: 1; white-space: pre; opacity: 1;" transform="translate(529.21,0)">2022</text></g><g class="xtick"><text text-anchor="middle" x="0" y="333" style="font-family: 'Open Sans', verdana, arial, sans-serif; font-size: 12px; fill: rgb(214, 223, 239); fill-opacity: 1; white-space: pre; opacity: 1;" transform="translate(666.06,0)">2024</text></g></g><g class="yaxislayer-above"><g class="ytick"><text text-anchor="end" x="29" y="4.199999999999999" transform="translate(0,306.3)" style="font-family: 'Open Sans', verdana, arial, sans-serif; font-size: 12px; fill: rgb(214, 223, 239); fill-opacity: 1; white-space: pre; opacity: 1;">0</text></g><g class="ytick"><text text-anchor="end" x="29" y="4.199999999999999" style="font-family: 'Open Sans', verdana, arial, sans-serif; font-size: 12px; fill: rgb(214, 223, 239); fill-opacity: 1; white-space: pre; opacity: 1;" transform="translate(0,254.5)">10</text></g><g class="ytick"><text text-anchor="end" x="29" y="4.199999999999999" style="font-family: 'Open Sans', verdana, arial, sans-serif; font-size: 12px; fill: rgb(214, 223, 239); fill-opacity: 1; white-space: pre; opacity: 1;" transform="translate(0,202.71)">20</text></g><g class="ytick"><text text-anchor="end" x="29" y="4.199999999999999" style="font-family: 'Open Sans', verdana, arial, sans-serif; font-size: 12px; fill: rgb(214, 223, 239); fill-opacity: 1; white-space: pre; opacity: 1;" transform="translate(0,150.91)">30</text></g><g class="ytick"><text text-anchor="end" x="29" y="4.199999999999999" style="font-family: 'Open Sans', verdana, arial, sans-serif; font-size: 12px; fill: rgb(214, 223, 239); fill-opacity: 1; white-space: pre; opacity: 1;" transform="translate(0,99.11)">40</text></g><g class="ytick"><text text-anchor="end" x="29" y="4.199999999999999" style="font-family: 'Open Sans', verdana, arial, sans-serif; font-size: 12px; fill: rgb(214, 223, 239); fill-opacity: 1; white-space: pre; opacity: 1;" transform="translate(0,47.31)">50</text></g></g><g class="overaxes-above"/></g></g><g class="polarlayer"/><g class="smithlayer"/><g class="ternarylayer"/><g class="geolayer"/><g class="funnelarealayer"/><g class="pielayer"/><g class="iciclelayer"/><g class="treemaplayer"/><g class="sunburstlayer"/><g class="glimages"/><defs id="topdefs-386108"><g class="clips"/><clipPath id="legend386108"><rect width="135" height="29" x="0" y="0"/></clipPath></defs><g class="layer-above"><g class="imagelayer"/><g class="shapelayer"/></g><g class="infolayer"><g class="legend" pointer-events="all" transform="translate(535,11.519999999999996)"><rect class="bg" shape-rendering="crispEdges" style="stroke: rgb(68, 68, 68); stroke-opacity: 1; fill: rgb(33, 34, 38); fill-opacity: 1; stroke-width: 0px;" width="135" height="29" x="0" y="0"/><g class="scrollbox" transform="" clip-path="url(#legend386108)"><g class="groups"><g class="traces" transform="translate(0,14.5)" style="opacity: 1;"><text class="legendtext" text-anchor="start" x="40" y="4.680000000000001" style="font-family: 'Open Sans', verdana, arial, sans-serif; font-size: 12px; fill: rgb(214, 223, 239); fill-opacity: 1; white-space: pre;">Buy</text><g class="layers" style="opacity: 1;"><g class="legendfill"/><g class="legendlines"><path class="js-line" d="M5,0h30" style="fill: none; stroke: rgb(44, 160, 44); stroke-opacity: 1; stroke-width: 2px;"/></g><g class="legendsymbols"><g class="legendpoints"/></g></g><rect class="legendtoggle" x="0" y="-9.5" width="65.421875" height="19" style="fill: rgb(0, 0, 0); fill-opacity: 0;"/></g><g class="traces" transform="translate(67.921875,14.5)" style="opacity: 1;"><text class="legendtext" text-anchor="start" x="40" y="4.680000000000001" style="font-family: 'Open Sans', verdana, arial, sans-serif; font-size: 12px; fill: rgb(214, 223, 239); fill-opacity: 1; white-space: pre;">Sell</text><g class="layers" style="opacity: 1;"><g class="legendfill"/><g class="legendlines"><path class="js-line" d="M5,0h30" style="fill: none; stroke: rgb(220, 57, 18); stroke-opacity: 1; stroke-width: 2px;"/></g><g class="legendsymbols"><g class="legendpoints"/></g></g><rect class="legendtoggle" x="0" y="-9.5" width="64.4375" height="19" style="fill: rgb(0, 0, 0); fill-opacity: 0;"/></g></g></g><rect class="scrollbar" rx="20" ry="3" width="0" height="0" style="fill: rgb(128, 139, 164); fill-opacity: 1;" x="0" y="0"/></g><g class="g-gtitle"/><g class="g-xtitle"/><g class="g-ytitle"/></g></svg>