<svg class="main-svg" xmlns="http://www.w3.org/2000/svg" xmlns:xlink="http://www.w3.org/1999/xlink" width="700" height="350" style="" viewBox="0 0 700 350"><rect x="0" y="0" width="700" height="350" style="fill: rgb(255, 255, 255); fill-opacity: 1;"/><defs id="defs-3f5394"><g class="clips"><clipPath id="clip3f5394xyplot" class="plotclip"><rect width="634" height="261"/></clipPath><clipPath class="axesclip" id="clip3f5394x"><rect x="36" y="0" width="634" height="350"/></clipPath><clipPath class="axesclip" id="clip3f5394y"><rect x="0" y="46" width="700" height="261"/></clipPath><clipPath class="axesclip" id="clip3f5394xy"><rect x="36" y="46" width="634" height="261"/></clipPath></g><g class="gradients"/><g class="patterns"/></defs><g class="bglayer"><rect class="bg" x="36" y="46" width="634" height="261" style="fill: rgb(229, 236, 246); fill-opacity: 1; stroke-width: 0;"/></g><g class="layer-below"><g class="imagelayer"/><g class="shapelayer"/></g><g class="cartesianlayer"><g class="subplot xy"><g class="layer-subplot"><g class="shapelayer"/><g class="imagelayer"/></g><g class="minor-gridlayer"><g class="x"/><g class="y"/></g><g class="gridlayer"><g class="x"><path class="xgrid crisp" transform="translate(46.57,0)" d="M0,46v261" style="stroke: rgb(255, 255, 255); stroke-opacity: 1; stroke-width: 1px;"/><path class="xgrid crisp" transform="translate(145.19,0)" d="M0,46v261" style="stroke: rgb(255, 255, 255); stroke-opacity: 1; stroke-width: 1px;"/><path class="xgrid crisp" transform="translate(243.81,0)" d="M0,46v261" style="stroke: rgb(255, 255, 255); stroke-opacity: 1; stroke-width: 1px;"/><path class="xgrid crisp" transform="translate(342.43,0)" d="M0,46v261" style="stroke: rgb(255, 255, 255); stroke-opacity: 1; stroke-width: 1px;"/><path class="xgrid crisp" transform="translate(441.06,0)" d="M0,46v261" style="stroke: rgb(255, 255, 255); stroke-opacity: 1; stroke-width: 1px;"/><path class="xgrid crisp" transform="translate(539.6800000000001,0)" d="M0,46v261" style="stroke: rgb(255, 255, 255); stroke-opacity: 1; stroke-width: 1px;"/><path class="xgrid crisp" transform="translate(638.3,0)" d="M0,46v261" style="stroke: rgb(255, 255, 255); stroke-opacity: 1; stroke-width: 1px;"/></g><g class="y"><path class="ygrid crisp" transform="translate(0,249.32)" d="M36,0h634" style="stroke: rgb(255, 255, 255); stroke-opacity: 1; stroke-width: 1px;"/><path class="ygrid crisp" transform="translate(0,192.61)" d="M36,0h634" style="stroke: rgb(255, 255, 255); stroke-opacity: 1; stroke-width: 1px;"/><path class="ygrid crisp" transform="translate(0,135.9)" d="M36,0h634" style="stroke: rgb(255, 255, 255); stroke-opacity: 1; stroke-width: 1px;"/><path class="ygrid crisp" transform="translate(0,79.18)" d="M36,0h634" style="stroke: rgb(255, 255, 255); stroke-opacity: 1; stroke-width: 1px;"/></g></g><g class="zerolinelayer"/><path class="xlines-below"/><path class="ylines-below"/><g class="overlines-below"/><g class="xaxislayer-below"/><g class="yaxislayer-below"/><g class="overaxes-below"/><g class="plot" transform="translate(36,46)" clip-path="url(#clip3f5394xyplot)"><g class="boxlayer mlayer"><g class="trace boxes" style="opacity: 0.75;"><path class="box" d="M1.8,33.58H5.25M1.8,33.58H5.25V33.22H1.8ZM3.52,33.58V40.83M3.52,33.22V18.89" style="vector-effect: none; stroke-width: 2px; stroke: rgb(238, 83, 79); stroke-opacity: 1; fill: rgb(238, 83, 79); fill-opacity: 1; opacity: 1;"/><path class="box" d="M8.84,52.69H12.29M8.84,53.69H12.29V31.99H8.84ZM10.57,53.69V65.15M10.57,31.99V31.99" style="vector-effect: none; stroke-width: 2px; stroke: rgb(238, 83, 79); stroke-opacity: 1; fill: rgb(238, 83, 79); fill-opacity: 1; opacity: 1;"/><path class="box" d="M15.89,49.48H19.34M15.89,56.02H19.34V48.48H15.89ZM17.61,56.02V71.79M17.61,48.48V48.48" style="vector-effect: none; stroke-width: 2px; stroke: rgb(38, 166, 154); stroke-opacity: 1; fill: rgb(38, 166, 154); fill-opacity: 1; opacity: 1;"/><path class="box" d="M22.93,18.77H26.38M22.93,47.17H26.38V17.77H22.93ZM24.66,47.17V52.25M24.66,17.77V13.05" style="vector-effect: none; stroke-width: 2px; stroke: rgb(38, 166, 154); stroke-opacity: 1; fill: rgb(38, 166, 154); fill-opacity: 1; opacity: 1;"/><path class="box" d="M29.97,27.57H33.43M29.97,28.57H33.43V20.28H29.97ZM31.7,28.57V42.42M31.7,20.28V18.73" style="vector-effect: none; stroke-width: 2px; stroke: rgb(238, 83, 79); stroke-opacity: 1; fill: rgb(238, 83, 79); fill-opacity: 1; opacity: 1;"/><path class="box" d="M37.02,37.72H40.47M37.02,38.72H40.47V27.46H37.02ZM38.74,38.72V38.72M38.74,27.46V13.06" style="vector-effect: none; stroke-width: 2px; stroke: rgb(238, 83, 79); stroke-opacity: 1; fill: rgb(238, 83, 79); fill-opacity: 1; opacity: 1;"/><path class="box" d="M44.06,34.26H47.51M44.06,35.26H47.51V33.92H44.06ZM45.79,35.26V37.71M45.79,33.92V19.47" style="vector-effect: none; stroke-width: 2px; stroke: rgb(38, 166, 154); stroke-opacity: 1; fill: rgb(38, 166, 154); fill-opacity: 1; opacity: 1;"/><path class="box" d="M51.11,17.23H54.56M51.11,33.96H54.56V16.23H51.11ZM52.83,33.96V40.2M52.83,16.23V13.3" style="vector-effect: none; stroke-width: 2px; stroke: rgb(38, 166, 154); stroke-opacity: 1; fill: rgb(38, 166, 154); fill-opacity: 1; opacity: 1;"/><path class="box" d="M58.15,79.11H61.6M58.15,80.11H61.6V20.29H58.15ZM59.88,80.11V83.76M59.88,20.29V20.29" style="vector-effect: none; stroke-width: 2px; stroke: rgb(238, 83, 79); stroke-opacity: 1; fill: rgb(238, 83, 79); fill-opacity: 1; opacity: 1;"/><path class="box" d="M65.2,86.62H68.65M65.2,87.62H68.65V82.91H65.2ZM66.92,87.62V100.1M66.92,82.91V80.35" style="vector-effect: none; stroke-width: 2px; stroke: rgb(238, 83, 79); stroke-opacity: 1; fill: rgb(238, 83, 79); fill-opacity: 1; opacity: 1;"/><path class="box" d="M72.24,71.51H75.69M72.24,88.32H75.69V70.51H72.24ZM73.97,88.32V90.43M73.97,70.51V70.51" style="vector-effect: none; stroke-width: 2px; stroke: rgb(38, 166, 154); stroke-opacity: 1; fill: rgb(38, 166, 154); fill-opacity: 1; opacity: 1;"/><path class="box" d="M79.29,59.75H82.74M79.29,71.41H82.74V58.75H79.29ZM81.01,71.41V81.31M81.01,58.75V52.86" style="vector-effect: none; stroke-width: 2px; stroke: rgb(38, 166, 154); stroke-opacity: 1; fill: rgb(38, 166, 154); fill-opacity: 1; opacity: 1;"/><path class="box" d="M86.33,52.32H89.78M86.33,57.08H89.78V51.32H86.33ZM88.06,57.08V71.57M88.06,51.32V33.13" style="vector-effect: none; stroke-width: 2px; stroke: rgb(38, 166, 154); stroke-opacity: 1; fill: rgb(38, 166, 154); fill-opacity: 1; opacity: 1;"/><path class="box" d="M93.37,77.43H96.83M93.37,78.43H96.83V54.81H93.37ZM95.1,78.43V79.23M95.1,54.81V50.45" style="vector-effect: none; stroke-width: 2px; stroke: rgb(238, 83, 79); stroke-opacity: 1; fill: rgb(238, 83, 79); fill-opacity: 1; opacity: 1;"/><path class="box" d="M100.42,94.86H103.87M100.42,95.86H103.87V75.65H100.42ZM102.14,95.86V105.06M102.14,75.65V73.44" style="vector-effect: none; stroke-width: 2px; stroke: rgb(238, 83, 79); stroke-opacity: 1; fill: rgb(238, 83, 79); fill-opacity: 1; opacity: 1;"/><path class="box" d="M107.46,88.26H110.91M107.46,100.11H110.91V87.26H107.46ZM109.19,100.11V100.11M109.19,87.26V80.72" style="vector-effect: none; stroke-width: 2px; stroke: rgb(38, 166, 154); stroke-opacity: 1; fill: rgb(38, 166, 154); fill-opacity: 1; opacity: 1;"/><path class="box" d="M114.51,77.66H117.96M114.51,85.17H117.96V76.66H114.51ZM116.23,85.17V93.9M116.23,76.66V66.25" style="vector-effect: none; stroke-width: 2px; stroke: rgb(38, 166, 154); stroke-opacity: 1; fill: rgb(38, 166, 154); fill-opacity: 1; opacity: 1;"/><path class="box" d="M121.55,87.93H125M121.55,88.93H125V73.33H121.55ZM123.28,88.93V89M123.28,73.33V69.99" style="vector-effect: none; stroke-width: 2px; stroke: rgb(238, 83, 79); stroke-opacity: 1; fill: rgb(238, 83, 79); fill-opacity: 1; opacity: 1;"/><path class="box" d="M128.6,111.4H132.05M128.6,112.4H132.05V85.25H128.6ZM130.32,112.4V112.6M130.32,85.25V80.24" style="vector-effect: none; stroke-width: 2px; stroke: rgb(238, 83, 79); stroke-opacity: 1; fill: rgb(238, 83, 79); fill-opacity: 1; opacity: 1;"/><path class="box" d="M135.64,118.79H139.09M135.64,119.79H139.09V118.66H135.64ZM137.37,119.79V135.28M137.37,118.66V112.53" style="vector-effect: none; stroke-width: 2px; stroke: rgb(38, 166, 154); stroke-opacity: 1; fill: rgb(38, 166, 154); fill-opacity: 1; opacity: 1;"/><path class="box" d="M142.69,107.22H146.14M142.69,123.38H146.14V106.22H142.69ZM144.41,123.38V127.26M144.41,106.22V98.97" style="vector-effect: none; stroke-width: 2px; stroke: rgb(38, 166, 154); stroke-opacity: 1; fill: rgb(38, 166, 154); fill-opacity: 1; opacity: 1;"/><path class="box" d="M149.73,84.02H153.18M149.73,101.17H153.18V83.02H149.73ZM151.46,101.17V101.74M151.46,83.02V78.84" style="vector-effect: none; stroke-width: 2px; stroke: rgb(38, 166, 154); stroke-opacity: 1; fill: rgb(38, 166, 154); fill-opacity: 1; opacity: 1;"/><path class="box" d="M156.77,85.62H160.23M156.77,86.62H160.23V83.38H156.77ZM158.5,86.62V106.49M158.5,83.38V83.38" style="vector-effect: none; stroke-width: 2px; stroke: rgb(238, 83, 79); stroke-opacity: 1; fill: rgb(238, 83, 79); fill-opacity: 1; opacity: 1;"/><path class="box" d="M163.82,94.14H167.27M163.82,95.14H167.27V89.55H163.82ZM165.54,95.14V116.87M165.54,89.55V89.55" style="vector-effect: none; stroke-width: 2px; stroke: rgb(238, 83, 79); stroke-opacity: 1; fill: rgb(238, 83, 79); fill-opacity: 1; opacity: 1;"/><path class="box" d="M170.86,89.55H174.31M170.86,100.11H174.31V88.55H170.86ZM172.59,100.11V108.69M172.59,88.55V86.56" style="vector-effect: none; stroke-width: 2px; stroke: rgb(38, 166, 154); stroke-opacity: 1; fill: rgb(38, 166, 154); fill-opacity: 1; opacity: 1;"/><path class="box" d="M177.91,75.73H181.36M177.91,86.63H181.36V74.73H177.91ZM179.63,86.63V96.88M179.63,74.73V74.73" style="vector-effect: none; stroke-width: 2px; stroke: rgb(38, 166, 154); stroke-opacity: 1; fill: rgb(38, 166, 154); fill-opacity: 1; opacity: 1;"/><path class="box" d="M184.95,89.88H188.4M184.95,90.88H188.4V74.2H184.95ZM186.68,90.88V90.88M186.68,74.2V68.9" style="vector-effect: none; stroke-width: 2px; stroke: rgb(238, 83, 79); stroke-opacity: 1; fill: rgb(238, 83, 79); fill-opacity: 1; opacity: 1;"/><path class="box" d="M192,104.69H195.45M192,105.69H195.45V94.26H192ZM193.72,105.69V111.79M193.72,94.26V84.05" style="vector-effect: none; stroke-width: 2px; stroke: rgb(238, 83, 79); stroke-opacity: 1; fill: rgb(238, 83, 79); fill-opacity: 1; opacity: 1;"/><path class="box" d="M199.04,108.26H202.49M199.04,109.26H202.49V105.19H199.04ZM200.77,109.26V111.14M200.77,105.19V95.07" style="vector-effect: none; stroke-width: 2px; stroke: rgb(238, 83, 79); stroke-opacity: 1; fill: rgb(238, 83, 79); fill-opacity: 1; opacity: 1;"/><path class="box" d="M206.09,105.8H209.54M206.09,110.4H209.54V104.8H206.09ZM207.81,110.4V120.5M207.81,104.8V102.47" style="vector-effect: none; stroke-width: 2px; stroke: rgb(38, 166, 154); stroke-opacity: 1; fill: rgb(38, 166, 154); fill-opacity: 1; opacity: 1;"/><path class="box" d="M213.13,107.45H216.58M213.13,108.45H216.58V104.99H213.13ZM214.86,108.45V128.07M214.86,104.99V104.99" style="vector-effect: none; stroke-width: 2px; stroke: rgb(238, 83, 79); stroke-opacity: 1; fill: rgb(238, 83, 79); fill-opacity: 1; opacity: 1;"/><path class="box" d="M220.17,135.83H223.63M220.17,136.83H223.63V107.91H220.17ZM221.9,136.83V136.9M221.9,107.91V100.97" style="vector-effect: none; stroke-width: 2px; stroke: rgb(238, 83, 79); stroke-opacity: 1; fill: rgb(238, 83, 79); fill-opacity: 1; opacity: 1;"/><path class="box" d="M227.22,154.98H230.67M227.22,155.98H230.67V139.68H227.22ZM228.94,155.98V157.66M228.94,139.68V132.37" style="vector-effect: none; stroke-width: 2px; stroke: rgb(238, 83, 79); stroke-opacity: 1; fill: rgb(238, 83, 79); fill-opacity: 1; opacity: 1;"/><path class="box" d="M234.26,175.29H237.71M234.26,176.29H237.71V156.25H234.26ZM235.99,176.29V176.29M235.99,156.25V153.1" style="vector-effect: none; stroke-width: 2px; stroke: rgb(238, 83, 79); stroke-opacity: 1; fill: rgb(238, 83, 79); fill-opacity: 1; opacity: 1;"/><path class="box" d="M241.31,159.79H244.76M241.31,171.75H244.76V158.79H241.31ZM243.03,171.75V173.54M243.03,158.79V145.82" style="vector-effect: none; stroke-width: 2px; stroke: rgb(38, 166, 154); stroke-opacity: 1; fill: rgb(38, 166, 154); fill-opacity: 1; opacity: 1;"/><path class="box" d="M248.35,152.94H251.8M248.35,156.12H251.8V151.94H248.35ZM250.08,156.12V177.46M250.08,151.94V141.74" style="vector-effect: none; stroke-width: 2px; stroke: rgb(38, 166, 154); stroke-opacity: 1; fill: rgb(38, 166, 154); fill-opacity: 1; opacity: 1;"/><path class="box" d="M255.4,193.73H258.85M255.4,194.73H258.85V153.71H255.4ZM257.12,194.73V198.29M257.12,153.71V136.68" style="vector-effect: none; stroke-width: 2px; stroke: rgb(238, 83, 79); stroke-opacity: 1; fill: rgb(238, 83, 79); fill-opacity: 1; opacity: 1;"/><path class="box" d="M262.44,207.65H265.89M262.44,208.65H265.89V191.89H262.44ZM264.17,208.65V208.65M264.17,191.89V188.96" style="vector-effect: none; stroke-width: 2px; stroke: rgb(238, 83, 79); stroke-opacity: 1; fill: rgb(238, 83, 79); fill-opacity: 1; opacity: 1;"/><path class="box" d="M269.49,180.91H272.94M269.49,209.94H272.94V179.91H269.49ZM271.21,209.94V214.84M271.21,179.91V179.91" style="vector-effect: none; stroke-width: 2px; stroke: rgb(38, 166, 154); stroke-opacity: 1; fill: rgb(38, 166, 154); fill-opacity: 1; opacity: 1;"/><path class="box" d="M276.53,147.65H279.98M276.53,178.37H279.98V146.65H276.53ZM278.26,178.37V183.53M278.26,146.65V143.85" style="vector-effect: none; stroke-width: 2px; stroke: rgb(38, 166, 154); stroke-opacity: 1; fill: rgb(38, 166, 154); fill-opacity: 1; opacity: 1;"/><path class="box" d="M283.57,179.05H287.03M283.57,180.05H287.03V152.08H283.57ZM285.3,180.05V180.05M285.3,152.08V152.08" style="vector-effect: none; stroke-width: 2px; stroke: rgb(238, 83, 79); stroke-opacity: 1; fill: rgb(238, 83, 79); fill-opacity: 1; opacity: 1;"/><path class="box" d="M290.62,177.99H294.07M290.62,177.99H294.07V177.48H290.62ZM292.34,177.99V194.12M292.34,177.48V173.23" style="vector-effect: none; stroke-width: 2px; stroke: rgb(238, 83, 79); stroke-opacity: 1; fill: rgb(238, 83, 79); fill-opacity: 1; opacity: 1;"/><path class="box" d="M297.66,180.2H301.11M297.66,181.2H301.11V177.8H297.66ZM299.39,181.2V199.6M299.39,177.8V171.99" style="vector-effect: none; stroke-width: 2px; stroke: rgb(238, 83, 79); stroke-opacity: 1; fill: rgb(238, 83, 79); fill-opacity: 1; opacity: 1;"/><path class="box" d="M304.71,187.96H308.16M304.71,188.96H308.16V178.22H304.71ZM306.43,188.96V188.96M306.43,178.22V154.88" style="vector-effect: none; stroke-width: 2px; stroke: rgb(238, 83, 79); stroke-opacity: 1; fill: rgb(238, 83, 79); fill-opacity: 1; opacity: 1;"/><path class="box" d="M311.75,167.58H315.2M311.75,193.57H315.2V166.58H311.75ZM313.48,193.57V210.8M313.48,166.58V166.58" style="vector-effect: none; stroke-width: 2px; stroke: rgb(38, 166, 154); stroke-opacity: 1; fill: rgb(38, 166, 154); fill-opacity: 1; opacity: 1;"/><path class="box" d="M318.8,152.81H322.25M318.8,164.28H322.25V151.81H318.8ZM320.52,164.28V167.87M320.52,151.81V151.81" style="vector-effect: none; stroke-width: 2px; stroke: rgb(38, 166, 154); stroke-opacity: 1; fill: rgb(38, 166, 154); fill-opacity: 1; opacity: 1;"/><path class="box" d="M325.84,123.84H329.29M325.84,153.9H329.29V122.84H325.84ZM327.57,153.9V153.9M327.57,122.84V122.84" style="vector-effect: none; stroke-width: 2px; stroke: rgb(38, 166, 154); stroke-opacity: 1; fill: rgb(38, 166, 154); fill-opacity: 1; opacity: 1;"/><path class="box" d="M332.89,96.37H336.34M332.89,122.81H336.34V95.37H332.89ZM334.61,122.81V123.41M334.61,95.37V91.56" style="vector-effect: none; stroke-width: 2px; stroke: rgb(38, 166, 154); stroke-opacity: 1; fill: rgb(38, 166, 154); fill-opacity: 1; opacity: 1;"/><path class="box" d="M339.93,115.47H343.38M339.93,116.47H343.38V99.54H339.93ZM341.66,116.47V121.93M341.66,99.54V99.54" style="vector-effect: none; stroke-width: 2px; stroke: rgb(238, 83, 79); stroke-opacity: 1; fill: rgb(238, 83, 79); fill-opacity: 1; opacity: 1;"/><path class="box" d="M346.97,119.8H350.43M346.97,120.65H350.43V118.8H346.97ZM348.7,120.65V122.1M348.7,118.8V102.02" style="vector-effect: none; stroke-width: 2px; stroke: rgb(238, 83, 79); stroke-opacity: 1; fill: rgb(238, 83, 79); fill-opacity: 1; opacity: 1;"/><path class="box" d="M354.02,117.48H357.47M354.02,121.56H357.47V116.48H354.02ZM355.74,121.56V137.76M355.74,116.48V107.21" style="vector-effect: none; stroke-width: 2px; stroke: rgb(38, 166, 154); stroke-opacity: 1; fill: rgb(38, 166, 154); fill-opacity: 1; opacity: 1;"/><path class="box" d="M361.06,100.4H364.51M361.06,114.08H364.51V99.4H361.06ZM362.79,114.08V114.08M362.79,99.4V87.94" style="vector-effect: none; stroke-width: 2px; stroke: rgb(38, 166, 154); stroke-opacity: 1; fill: rgb(38, 166, 154); fill-opacity: 1; opacity: 1;"/><path class="box" d="M368.11,129.76H371.56M368.11,130.76H371.56V100.71H368.11ZM369.83,130.76V130.76M369.83,100.71V89.17" style="vector-effect: none; stroke-width: 2px; stroke: rgb(238, 83, 79); stroke-opacity: 1; fill: rgb(238, 83, 79); fill-opacity: 1; opacity: 1;"/><path class="box" d="M375.15,140.1H378.6M375.15,141.1H378.6V129.14H375.15ZM376.88,141.1V141.1M376.88,129.14V120.7" style="vector-effect: none; stroke-width: 2px; stroke: rgb(238, 83, 79); stroke-opacity: 1; fill: rgb(238, 83, 79); fill-opacity: 1; opacity: 1;"/><path class="box" d="M382.2,158.07H385.65M382.2,159.07H385.65V136.76H382.2ZM383.92,159.07V159.07M383.92,136.76V133.28" style="vector-effect: none; stroke-width: 2px; stroke: rgb(238, 83, 79); stroke-opacity: 1; fill: rgb(238, 83, 79); fill-opacity: 1; opacity: 1;"/><path class="box" d="M389.24,178.2H392.69M389.24,179.2H392.69V161.85H389.24ZM390.97,179.2V187.44M390.97,161.85V159.07" style="vector-effect: none; stroke-width: 2px; stroke: rgb(238, 83, 79); stroke-opacity: 1; fill: rgb(238, 83, 79); fill-opacity: 1; opacity: 1;"/><path class="box" d="M396.29,200.96H399.74M396.29,201.96H399.74V181.94H396.29ZM398.01,201.96V205.46M398.01,181.94V167.64" style="vector-effect: none; stroke-width: 2px; stroke: rgb(238, 83, 79); stroke-opacity: 1; fill: rgb(238, 83, 79); fill-opacity: 1; opacity: 1;"/><path class="box" d="M403.33,215.08H406.78M403.33,216.08H406.78V203.7H403.33ZM405.06,216.08V227.24M405.06,203.7V201.88" style="vector-effect: none; stroke-width: 2px; stroke: rgb(238, 83, 79); stroke-opacity: 1; fill: rgb(238, 83, 79); fill-opacity: 1; opacity: 1;"/><path class="box" d="M410.37,194.91H413.83M410.37,216.48H413.83V193.91H410.37ZM412.1,216.48V222.92M412.1,193.91V186.77" style="vector-effect: none; stroke-width: 2px; stroke: rgb(38, 166, 154); stroke-opacity: 1; fill: rgb(38, 166, 154); fill-opacity: 1; opacity: 1;"/><path class="box" d="M417.42,194.18H420.87M417.42,195.18H420.87V193.03H417.42ZM419.14,195.18V207.91M419.14,193.03V176.54" style="vector-effect: none; stroke-width: 2px; stroke: rgb(238, 83, 79); stroke-opacity: 1; fill: rgb(238, 83, 79); fill-opacity: 1; opacity: 1;"/><path class="box" d="M424.46,195.65H427.91M424.46,195.65H427.91V195.1H424.46ZM426.19,195.65V207.76M426.19,195.1V191.83" style="vector-effect: none; stroke-width: 2px; stroke: rgb(238, 83, 79); stroke-opacity: 1; fill: rgb(238, 83, 79); fill-opacity: 1; opacity: 1;"/><path class="box" d="M431.51,202.12H434.96M431.51,203.06H434.96V201.12H431.51ZM433.23,203.06V208.98M433.23,201.12V193.86" style="vector-effect: none; stroke-width: 2px; stroke: rgb(238, 83, 79); stroke-opacity: 1; fill: rgb(238, 83, 79); fill-opacity: 1; opacity: 1;"/><path class="box" d="M438.55,211.38H442M438.55,212.38H442V200.1H438.55ZM440.28,212.38V229.39M440.28,200.1V200.1" style="vector-effect: none; stroke-width: 2px; stroke: rgb(238, 83, 79); stroke-opacity: 1; fill: rgb(238, 83, 79); fill-opacity: 1; opacity: 1;"/><path class="box" d="M445.6,195.46H449.05M445.6,212.76H449.05V194.46H445.6ZM447.32,212.76V216.11M447.32,194.46V186.97" style="vector-effect: none; stroke-width: 2px; stroke: rgb(38, 166, 154); stroke-opacity: 1; fill: rgb(38, 166, 154); fill-opacity: 1; opacity: 1;"/><path class="box" d="M452.64,184.73H456.09M452.64,194.07H456.09V183.73H452.64ZM454.37,194.07V202.18M454.37,183.73V182.85" style="vector-effect: none; stroke-width: 2px; stroke: rgb(38, 166, 154); stroke-opacity: 1; fill: rgb(38, 166, 154); fill-opacity: 1; opacity: 1;"/><path class="box" d="M459.69,174.26H463.14M459.69,183.72H463.14V173.26H459.69ZM461.41,183.72V189.86M461.41,173.26V159.58" style="vector-effect: none; stroke-width: 2px; stroke: rgb(38, 166, 154); stroke-opacity: 1; fill: rgb(38, 166, 154); fill-opacity: 1; opacity: 1;"/><path class="box" d="M466.73,195.38H470.18M466.73,196.38H470.18V177.39H466.73ZM468.46,196.38V199.2M468.46,177.39V172.13" style="vector-effect: none; stroke-width: 2px; stroke: rgb(238, 83, 79); stroke-opacity: 1; fill: rgb(238, 83, 79); fill-opacity: 1; opacity: 1;"/><path class="box" d="M473.77,188.3H477.23M473.77,193.67H477.23V187.3H473.77ZM475.5,193.67V194.53M475.5,187.3V169.64" style="vector-effect: none; stroke-width: 2px; stroke: rgb(38, 166, 154); stroke-opacity: 1; fill: rgb(38, 166, 154); fill-opacity: 1; opacity: 1;"/><path class="box" d="M480.82,174.68H484.27M480.82,186.38H484.27V173.68H480.82ZM482.54,186.38V188.47M482.54,173.68V161.37" style="vector-effect: none; stroke-width: 2px; stroke: rgb(38, 166, 154); stroke-opacity: 1; fill: rgb(38, 166, 154); fill-opacity: 1; opacity: 1;"/><path class="box" d="M487.86,184.69H491.31M487.86,185.69H491.31V179.32H487.86ZM489.59,185.69V193.19M489.59,179.32V178.61" style="vector-effect: none; stroke-width: 2px; stroke: rgb(238, 83, 79); stroke-opacity: 1; fill: rgb(238, 83, 79); fill-opacity: 1; opacity: 1;"/><path class="box" d="M494.91,187.27H498.36M494.91,188.27H498.36V182.65H494.91ZM496.63,188.27V193.7M496.63,182.65V167.58" style="vector-effect: none; stroke-width: 2px; stroke: rgb(238, 83, 79); stroke-opacity: 1; fill: rgb(238, 83, 79); fill-opacity: 1; opacity: 1;"/><path class="box" d="M501.95,217.64H505.4M501.95,218.64H505.4V185.67H501.95ZM503.68,218.64V224M503.68,185.67V184.94" style="vector-effect: none; stroke-width: 2px; stroke: rgb(238, 83, 79); stroke-opacity: 1; fill: rgb(238, 83, 79); fill-opacity: 1; opacity: 1;"/><path class="box" d="M509,245.46H512.45M509,246.46H512.45V218.81H509ZM510.72,246.46V247.95M510.72,218.81V213.73" style="vector-effect: none; stroke-width: 2px; stroke: rgb(238, 83, 79); stroke-opacity: 1; fill: rgb(238, 83, 79); fill-opacity: 1; opacity: 1;"/><path class="box" d="M516.04,198.73H519.49M516.04,245.97H519.49V197.73H516.04ZM517.77,245.97V246.39M517.77,197.73V197.73" style="vector-effect: none; stroke-width: 2px; stroke: rgb(38, 166, 154); stroke-opacity: 1; fill: rgb(38, 166, 154); fill-opacity: 1; opacity: 1;"/><path class="box" d="M523.09,189.79H526.54M523.09,193.3H526.54V188.79H523.09ZM524.81,193.3V195.78M524.81,188.79V175.6" style="vector-effect: none; stroke-width: 2px; stroke: rgb(38, 166, 154); stroke-opacity: 1; fill: rgb(38, 166, 154); fill-opacity: 1; opacity: 1;"/><path class="box" d="M530.13,187.88H533.58M530.13,187.88H533.58V187.77H530.13ZM531.86,187.88V191.27M531.86,187.77V171.34" style="vector-effect: none; stroke-width: 2px; stroke: rgb(238, 83, 79); stroke-opacity: 1; fill: rgb(238, 83, 79); fill-opacity: 1; opacity: 1;"/><path class="box" d="M537.17,197.42H540.63M537.17,198.42H540.63V187.45H537.17ZM538.9,198.42V207.95M538.9,187.45V182.69" style="vector-effect: none; stroke-width: 2px; stroke: rgb(238, 83, 79); stroke-opacity: 1; fill: rgb(238, 83, 79); fill-opacity: 1; opacity: 1;"/><path class="box" d="M544.22,198.78H547.67M544.22,199.78H547.67V196.2H544.22ZM545.94,199.78V213.51M545.94,196.2V193.76" style="vector-effect: none; stroke-width: 2px; stroke: rgb(238, 83, 79); stroke-opacity: 1; fill: rgb(238, 83, 79); fill-opacity: 1; opacity: 1;"/><path class="box" d="M551.26,203.28H554.71M551.26,204.28H554.71V197.7H551.26ZM552.99,204.28V208.76M552.99,197.7V193.46" style="vector-effect: none; stroke-width: 2px; stroke: rgb(238, 83, 79); stroke-opacity: 1; fill: rgb(238, 83, 79); fill-opacity: 1; opacity: 1;"/><path class="box" d="M558.31,187.91H561.76M558.31,204.3H561.76V186.91H558.31ZM560.03,204.3V204.3M560.03,186.91V172.04" style="vector-effect: none; stroke-width: 2px; stroke: rgb(38, 166, 154); stroke-opacity: 1; fill: rgb(38, 166, 154); fill-opacity: 1; opacity: 1;"/><path class="box" d="M565.35,160.35H568.8M565.35,184.76H568.8V159.35H565.35ZM567.08,184.76V188.6M567.08,159.35V159.35" style="vector-effect: none; stroke-width: 2px; stroke: rgb(38, 166, 154); stroke-opacity: 1; fill: rgb(38, 166, 154); fill-opacity: 1; opacity: 1;"/><path class="box" d="M572.4,136.73H575.85M572.4,159.58H575.85V135.73H572.4ZM574.12,159.58V159.58M574.12,135.73V131.05" style="vector-effect: none; stroke-width: 2px; stroke: rgb(38, 166, 154); stroke-opacity: 1; fill: rgb(38, 166, 154); fill-opacity: 1; opacity: 1;"/><path class="box" d="M579.44,144.02H582.89M579.44,145.02H582.89V131.04H579.44ZM581.17,145.02V150.2M581.17,131.04V124.35" style="vector-effect: none; stroke-width: 2px; stroke: rgb(238, 83, 79); stroke-opacity: 1; fill: rgb(238, 83, 79); fill-opacity: 1; opacity: 1;"/><path class="box" d="M586.49,119.62H589.94M586.49,143.43H589.94V118.62H586.49ZM588.21,143.43V143.43M588.21,118.62V107.38" style="vector-effect: none; stroke-width: 2px; stroke: rgb(38, 166, 154); stroke-opacity: 1; fill: rgb(38, 166, 154); fill-opacity: 1; opacity: 1;"/><path class="box" d="M593.53,100.22H596.98M593.53,119.93H596.98V99.22H593.53ZM595.26,119.93V120.79M595.26,99.22V85.77" style="vector-effect: none; stroke-width: 2px; stroke: rgb(38, 166, 154); stroke-opacity: 1; fill: rgb(38, 166, 154); fill-opacity: 1; opacity: 1;"/><path class="box" d="M600.57,96.41H604.03M600.57,98.59H604.03V95.41H600.57ZM602.3,98.59V100.84M602.3,95.41V83.29" style="vector-effect: none; stroke-width: 2px; stroke: rgb(38, 166, 154); stroke-opacity: 1; fill: rgb(38, 166, 154); fill-opacity: 1; opacity: 1;"/><path class="box" d="M607.62,75.52H611.07M607.62,89.67H611.07V74.52H607.62ZM609.34,89.67V94.1M609.34,74.52V59.87" style="vector-effect: none; stroke-width: 2px; stroke: rgb(38, 166, 154); stroke-opacity: 1; fill: rgb(38, 166, 154); fill-opacity: 1; opacity: 1;"/><path class="box" d="M614.66,84.52H618.11M614.66,85.52H618.11V74.18H614.66ZM616.39,85.52V86.87M616.39,74.18V70.21" style="vector-effect: none; stroke-width: 2px; stroke: rgb(238, 83, 79); stroke-opacity: 1; fill: rgb(238, 83, 79); fill-opacity: 1; opacity: 1;"/><path class="box" d="M621.71,67.84H625.16M621.71,83.31H625.16V66.84H621.71ZM623.43,83.31V95.31M623.43,66.84V66.84" style="vector-effect: none; stroke-width: 2px; stroke: rgb(38, 166, 154); stroke-opacity: 1; fill: rgb(38, 166, 154); fill-opacity: 1; opacity: 1;"/><path class="box" d="M628.75,85.34H632.2M628.75,86.34H632.2V68.38H628.75ZM630.48,86.34V88.48M630.48,68.38V58.32" style="vector-effect: none; stroke-width: 2px; stroke: rgb(238, 83, 79); stroke-opacity: 1; fill: rgb(238, 83, 79); fill-opacity: 1; opacity: 1;"/></g></g></g><g class="overplot"/><path class="xlines-above crisp" d="M0,0" style="fill: none;"/><path class="ylines-above crisp" d="M0,0" style="fill: none;"/><g class="overlines-above"/><g class="xaxislayer-above"><g class="xtick"><text text-anchor="middle" x="0" y="320" transform="translate(46.57,0)" style="font-family: 'Open Sans', verdana, arial, sans-serif; font-size: 12px; fill: rgb(42, 63, 95); fill-opacity: 1; white-space: pre; opacity: 1;"><tspan class="line" dy="0em" x="0" y="320">Jan 2</tspan><tspan class="line" dy="1.3em" x="0" y="320">2022</tspan></text></g><g class="xtick"><text text-anchor="middle" x="0" y="320" style="font-family: 'Open Sans', verdana, arial, sans-serif; font-size: 12px; fill: rgb(42, 63, 95); fill-opacity: 1; white-space: pre; opacity: 1;" transform="translate(145.19,0)">Jan 16</text></g><g class="xtick"><text text-anchor="middle" x="0" y="320" style="font-family: 'Open Sans', verdana, arial, sans-serif; font-size: 12px; fill: rgb(42, 63, 95); fill-opacity: 1; white-space: pre; opacity: 1;" transform="translate(243.81,0)">Jan 30</text></g><g class="xtick"><text text-anchor="middle" x="0" y="320" style="font-family: 'Open Sans', verdana, arial, sans-serif; font-size: 12px; fill: rgb(42, 63, 95); fill-opacity: 1; white-space: pre; opacity: 1;" transform="translate(342.43,0)">Feb 13</text></g><g class="xtick"><text text-anchor="middle" x="0" y="320" style="font-family: 'Open Sans', verdana, arial, sans-serif; font-size: 12px; fill: rgb(42, 63, 95); fill-opacity: 1; white-space: pre; opacity: 1;" transform="translate(441.06,0)">Feb 27</text></g><g class="xtick"><text text-anchor="middle" x="0" y="320" style="font-family: 'Open Sans', verdana, arial, sans-serif; font-size: 12px; fill: rgb(42, 63, 95); fill-opacity: 1; white-space: pre; opacity: 1;" transform="translate(539.6800000000001,0)">Mar 13</text></g><g class="xtick"><text text-anchor="middle" x="0" y="320" style="font-family: 'Open Sans', verdana, arial, sans-serif; font-size: 12px; fill: rgb(42, 63, 95); fill-opacity: 1; white-space: pre; opacity: 1;" transform="translate(638.3,0)">Mar 27</text></g></g><g class="yaxislayer-above"><g class="ytick"><text text-anchor="end" x="35" y="4.199999999999999" transform="translate(0,306.03)" style="font-family: 'Open Sans', verdana, arial, sans-serif; font-size: 12px; fill: rgb(42, 63, 95); fill-opacity: 1; white-space: pre; opacity: 1;">92</text></g><g class="ytick"><text text-anchor="end" x="35" y="4.199999999999999" style="font-family: 'Open Sans', verdana, arial, sans-serif; font-size: 12px; fill: rgb(42, 63, 95); fill-opacity: 1; white-space: pre; opacity: 1;" transform="translate(0,249.32)">94</text></g><g class="ytick"><text text-anchor="end" x="35" y="4.199999999999999" style="font-family: 'Open Sans', verdana, arial, sans-serif; font-size: 12px; fill: rgb(42, 63, 95); fill-opacity: 1; white-space: pre; opacity: 1;" transform="translate(0,192.61)">96</text></g><g class="ytick"><text text-anchor="end" x="35" y="4.199999999999999" style="font-family: 'Open Sans', verdana, arial, sans-serif; font-size: 12px; fill: rgb(42, 63, 95); fill-opacity: 1; white-space: pre; opacity: 1;" transform="translate(0,135.9)">98</text></g><g class="ytick"><text text-anchor="end" x="35" y="4.199999999999999" style="font-family: 'Open Sans', verdana, arial, sans-serif; font-size: 12px; fill: rgb(42, 63, 95); fill-opacity: 1; white-space: pre; opacity: 1;" transform="translate(0,79.18)">100</text></g></g><g class="overaxes-above"/></g></g><g class="polarlayer"/><g class="smithlayer"/><g class="ternarylayer"/><g class="geolayer"/><g class="funnelarealayer"/><g class="pielayer"/><g class="iciclelayer"/><g class="treemaplayer"/><g class="sunburstlayer"/><g class="glimages"/><defs id="topdefs-3f5394"><g class="clips"/><clipPath id="legend3f5394"><rect width="79" height="29" x="0" y="0"/></clipPath></defs><g class="layer-above"><g class="imagelayer"/><g class="shapelayer"/></g><g class="infolayer"><g class="legend" pointer-events="all" transform="translate(591,11.779999999999994)"><rect class="bg" shape-rendering="crispEdges" width="79" height="29" x="0" y="0" style="stroke: rgb(68, 68, 68); stroke-opacity: 1; fill: rgb(255, 255, 255); fill-opacity: 1; stroke-width: 0px;"/><g class="scrollbox" transform="" clip-path="url(#legend3f5394)"><g class="groups"><g class="traces" transform="translate(0,14.5)" style="opacity: 1;"><text class="legendtext" text-anchor="start" x="40" y="4.680000000000001" style="font-family: 'Open Sans', verdana, arial, sans-serif; font-size: 12px; fill: rgb(42, 63, 95); fill-opacity: 1; white-space: pre;">OHLC</text><g class="layers" style="opacity: 0.75;"><g class="legendfill"/><g class="legendlines"/><g class="legendsymbols"><g class="legendpoints"><path class="legendcandle" d="M15,0H8M8,-6V6H-8Z" transform="translate(20,0)" style="stroke-miterlimit: 1; stroke-width: 2px; fill: rgb(238, 83, 79); fill-opacity: 1; stroke: rgb(238, 83, 79); stroke-opacity: 1;"/><path class="legendcandle" d="M-15,0H-8M-8,6V-6H8Z" transform="translate(20,0)" style="stroke-miterlimit: 1; stroke-width: 2px; fill: rgb(38, 166, 154); fill-opacity: 1; stroke: rgb(38, 166, 154); stroke-opacity: 1;"/></g></g></g><rect class="legendtoggle" x="0" y="-9.5" width="76.03125" height="19" style="fill: rgb(0, 0, 0); fill-opacity: 0;"/></g></g></g><rect class="scrollbar" rx="20" ry="3" width="0" height="0" x="0" y="0" style="fill: rgb(128, 139, 164); fill-opacity: 1;"/></g><g class="g-gtitle"/><g class="g-xtitle"/><g class="g-ytitle"/></g></svg>