<svg class="main-svg" xmlns="http://www.w3.org/2000/svg" xmlns:xlink="http://www.w3.org/1999/xlink" width="700" height="350" style="" viewBox="0 0 700 350"><rect x="0" y="0" width="700" height="350" style="fill: rgb(255, 255, 255); fill-opacity: 1;"/><defs id="defs-c49a49"><g class="clips"><clipPath id="clipc49a49xyplot" class="plotclip"><rect width="632" height="255"/></clipPath><clipPath class="axesclip" id="clipc49a49x"><rect x="38" y="0" width="632" height="350"/></clipPath><clipPath class="axesclip" id="clipc49a49y"><rect x="0" y="65" width="700" height="255"/></clipPath><clipPath class="axesclip" id="clipc49a49xy"><rect x="38" y="65" width="632" height="255"/></clipPath></g><g class="gradients"/><g class="patterns"/></defs><g class="bglayer"><rect class="bg" x="38" y="65" width="632" height="255" style="fill: rgb(229, 236, 246); fill-opacity: 1; stroke-width: 0;"/></g><g class="layer-below"><g class="imagelayer"/><g class="shapelayer"/></g><g class="cartesianlayer"><g class="subplot xy"><g class="layer-subplot"><g class="shapelayer"/><g class="imagelayer"/></g><g class="minor-gridlayer"><g class="x"/><g class="y"/></g><g class="gridlayer"><g class="x"><path class="xgrid crisp" transform="translate(39.74,0)" d="M0,65v255" style="stroke: rgb(255, 255, 255); stroke-opacity: 1; stroke-width: 1px;"/><path class="xgrid crisp" transform="translate(145.07,0)" d="M0,65v255" style="stroke: rgb(255, 255, 255); stroke-opacity: 1; stroke-width: 1px;"/><path class="xgrid crisp" transform="translate(251.56,0)" d="M0,65v255" style="stroke: rgb(255, 255, 255); stroke-opacity: 1; stroke-width: 1px;"/><path class="xgrid crisp" transform="translate(356.32,0)" d="M0,65v255" style="stroke: rgb(255, 255, 255); stroke-opacity: 1; stroke-width: 1px;"/><path class="xgrid crisp" transform="translate(462.81,0)" d="M0,65v255" style="stroke: rgb(255, 255, 255); stroke-opacity: 1; stroke-width: 1px;"/><path class="xgrid crisp" transform="translate(567.56,0)" d="M0,65v255" style="stroke: rgb(255, 255, 255); stroke-opacity: 1; stroke-width: 1px;"/></g><g class="y"><path class="ygrid crisp" transform="translate(0,271.55)" d="M38,0h632" style="stroke: rgb(255, 255, 255); stroke-opacity: 1; stroke-width: 1px;"/><path class="ygrid crisp" transform="translate(0,223.1)" d="M38,0h632" style="stroke: rgb(255, 255, 255); stroke-opacity: 1; stroke-width: 1px;"/><path class="ygrid crisp" transform="translate(0,174.65)" d="M38,0h632" style="stroke: rgb(255, 255, 255); stroke-opacity: 1; stroke-width: 1px;"/><path class="ygrid crisp" transform="translate(0,126.2)" d="M38,0h632" style="stroke: rgb(255, 255, 255); stroke-opacity: 1; stroke-width: 1px;"/><path class="ygrid crisp" transform="translate(0,77.75)" d="M38,0h632" style="stroke: rgb(255, 255, 255); stroke-opacity: 1; stroke-width: 1px;"/></g></g><g class="zerolinelayer"><path class="yzl zl crisp" transform="translate(0,320)" d="M38,0h632" style="stroke: rgb(255, 255, 255); stroke-opacity: 1; stroke-width: 2px;"/></g><path class="xlines-below"/><path class="ylines-below"/><g class="overlines-below"/><g class="xaxislayer-below"/><g class="yaxislayer-below"/><g class="overaxes-below"/><g class="plot" transform="translate(38,65)" clip-path="url(#clipc49a49xyplot)"><g class="scatterlayer mlayer"><g class="trace scatter trace079a0491-7c30-4a07-93c9-6f11f2ca0d30" style="stroke-miterlimit: 2;"><g class="fills"><g><path class="js-fill" d="M632,255L0,255L0,232.98H4.05V232.98H8.1V232.98H12.15V232.98H16.21V232.98H20.26V255H24.31V255H28.36V255H32.41V255H36.46V255H40.51V255H44.56V255H48.62V255H52.67V255H56.72V255H60.77V255H64.82V255H68.87V255H72.92V255H76.97V255H81.03V255H85.08V255H89.13V255H93.18V255H97.23V255H101.28V255H105.33V255H109.38V255H113.44V255H117.49V255H121.54V255H125.59V255H129.64V255H133.69V255H137.74V255H141.79V255H145.85V255H149.9V255H153.95V255H158V255H162.05V255H166.1V255H170.15V255H174.21V255H178.26V255H182.31V255H186.36V255H190.41V255H194.46V255H198.51V255H202.56V255H206.62V255H210.67V255H214.72V255H218.77V255H222.82V255H226.87V255H230.92V255H234.97V255H239.03V255H243.08V255H247.13V255H251.18V255H255.23V255H259.28V255H263.33V254.99H267.38V255H271.44V254.99H275.49V254.99H279.54V254.99H283.59V255H287.64V255H291.69V255H295.74V254.99H299.79V255H303.85V254.99H307.9V255H311.95V254.99H316V254.99H320.05V255H324.1V255H328.15V255H332.21V255H336.26V255H340.31V255H344.36V255H348.41V255H352.46V255H356.51V255H360.56V255H364.62V255H368.67V255H372.72V255H376.77V255H380.82V255H384.87V255H388.92V255H392.97V252.71H397.03V255H401.08V255H405.13V255H409.18V255H413.23V254.99H417.28V254.35H421.33V251.67H425.38V252.03H429.44V255H433.49V254.93H437.54V255H441.59V255H445.64V255H449.69V255H453.74V255H457.79V255H461.85V255H465.9V255H469.95V255H474V255H478.05V255H482.1V255H486.15V255H490.21V255H494.26V255H498.31V255H502.36V255H506.41V255H510.46V255H514.51V255H518.56V255H522.62V255H526.67V255H530.72V255H534.77V255H538.82V255H542.87V255H546.92V255H550.97V255H555.03V255H559.08V255H563.13V255H567.18V255H571.23V255H575.28V255H579.33V255H583.38V255H587.44V255H591.49V255H595.54V255H599.59V255H603.64V255H607.69V255H611.74V255H615.79V255H619.85V255H623.9V255H627.95V255H632V255" style="fill: rgb(170, 13, 254); fill-opacity: 0.8; stroke-width: 0;"/></g><g><path class="js-fill" d="M0,210.95H4.05V210.95H8.1V210.95H12.15V210.95H16.21V210.95H20.26V141.36H24.31V138.45H28.36V134.47H32.41V154.59H36.46V89.96H40.51V96.15H44.56V119.52H48.62V90.76H52.67V72.67H56.72V72.67H60.77V71.39H64.82V69.79H68.87V69.86H72.92V71.47H76.97V73.79H81.03V73.84H85.08V74.35H89.13V75.23H93.18V78.83H97.23V79.51H101.28V79.42H105.33V79.41H109.38V79.81H113.44V79.67H117.49V79.12H121.54V79.6H125.59V78.31H129.64V78.43H133.69V80.66H137.74V80.33H141.79V83.11H145.85V82.88H149.9V82.44H153.95V81.65H158V81.61H162.05V82.4H166.1V82.84H170.15V82.77H174.21V82.41H178.26V79.39H182.31V77.69H186.36V77.21H190.41V79.06H194.46V79.04H198.51V81.13H202.56V81.78H206.62V82.63H210.67V83.04H214.72V83.01H218.77V82.34H222.82V82.28H226.87V81.03H230.92V80.08H234.97V80.93H239.03V80.95H243.08V80.22H247.13V79.12H251.18V89.12H255.23V87.7H259.28V100.94H263.33V94.69H267.38V97.23H271.44V97.5H275.49V100.95H279.54V99.67H283.59V101.26H287.64V100.28H291.69V101.74H295.74V101.5H299.79V103.27H303.85V103.54H307.9V106.11H311.95V105.47H316V108.62H320.05V112.61H324.1V111.63H328.15V113.79H332.21V111.29H336.26V111.8H340.31V111.92H344.36V103.89H348.41V103.6H352.46V101.14H356.51V102.71H360.56V101.82H364.62V102.3H368.67V102.36H372.72V100.55H376.77V104.76H380.82V106.61H384.87V105.26H388.92V118.08H392.97V127.7H397.03V136.09H401.08V132.25H405.13V132.9H409.18V129.89H413.23V133.12H417.28V130.35H421.33V127.94H425.38V127.94H429.44V124.83H433.49V125.24H437.54V124.43H441.59V125.87H445.64V129.61H449.69V128.91H453.74V129.69H457.79V134.19H461.85V134.22H465.9V133.21H469.95V131.27H474V136.76H478.05V134.9H482.1V151.99H486.15V157.38H490.21V156.81H494.26V152.36H498.31V153.53H502.36V153.13H506.41V150.46H510.46V143.08H514.51V140.16H518.56V137.71H522.62V125.79H526.67V116.69H530.72V119.1H534.77V121.21H538.82V124.88H542.87V127.89H546.92V125.45H550.97V125.13H555.03V124.36H559.08V125.39H563.13V123.87H567.18V123.55H571.23V123.41H575.28V120.68H579.33V118.36H583.38V119.18H587.44V118.36H591.49V117.17H595.54V121.3H599.59V118.89H603.64V118.2H607.69V124.57H611.74V125.4H615.79V126.91H619.85V128.84H623.9V127.68H627.95V128.32H632V131.51L632,255V255H627.95V255H623.9V255H619.85V255H615.79V255H611.74V255H607.69V255H603.64V255H599.59V255H595.54V255H591.49V255H587.44V255H583.38V255H579.33V255H575.28V255H571.23V255H567.18V255H563.13V255H559.08V255H555.03V255H550.97V255H546.92V255H542.87V255H538.82V255H534.77V255H530.72V255H526.67V255H522.62V255H518.56V255H514.51V255H510.46V255H506.41V255H502.36V255H498.31V255H494.26V255H490.21V255H486.15V255H482.1V255H478.05V255H474V255H469.95V255H465.9V255H461.85V255H457.79V255H453.74V255H449.69V255H445.64V255H441.59V255H437.54V254.93H433.49V255H429.44V252.03H425.38V251.67H421.33V254.35H417.28V254.99H413.23V255H409.18V255H405.13V255H401.08V255H397.03V252.71H392.97V255H388.92V255H384.87V255H380.82V255H376.77V255H372.72V255H368.67V255H364.62V255H360.56V255H356.51V255H352.46V255H348.41V255H344.36V255H340.31V255H336.26V255H332.21V255H328.15V255H324.1V255H320.05V254.99H316V254.99H311.95V255H307.9V254.99H303.85V255H299.79V254.99H295.74V255H291.69V255H287.64V255H283.59V254.99H279.54V254.99H275.49V254.99H271.44V255H267.38V254.99H263.33V255H259.28V255H255.23V255H251.18V255H247.13V255H243.08V255H239.03V255H234.97V255H230.92V255H226.87V255H222.82V255H218.77V255H214.72V255H210.67V255H206.62V255H202.56V255H198.51V255H194.46V255H190.41V255H186.36V255H182.31V255H178.26V255H174.21V255H170.15V255H166.1V255H162.05V255H158V255H153.95V255H149.9V255H145.85V255H141.79V255H137.74V255H133.69V255H129.64V255H125.59V255H121.54V255H117.49V255H113.44V255H109.38V255H105.33V255H101.28V255H97.23V255H93.18V255H89.13V255H85.08V255H81.03V255H76.97V255H72.92V255H68.87V255H64.82V255H60.77V255H56.72V255H52.67V255H48.62V255H44.56V255H40.51V255H36.46V255H32.41V255H28.36V255H24.31V255H20.26V232.98H16.21V232.98H12.15V232.98H8.1V232.98H4.05V232.98H0Z" style="fill: rgb(50, 131, 254); fill-opacity: 0.8; stroke-width: 0;"/></g></g><g class="errorbars"/><g class="lines"><path class="js-line" d="M0,232.98H4.05V232.98H8.1V232.98H12.15V232.98H16.21V232.98H20.26V255H24.31V255H28.36V255H32.41V255H36.46V255H40.51V255H44.56V255H48.62V255H52.67V255H56.72V255H60.77V255H64.82V255H68.87V255H72.92V255H76.97V255H81.03V255H85.08V255H89.13V255H93.18V255H97.23V255H101.28V255H105.33V255H109.38V255H113.44V255H117.49V255H121.54V255H125.59V255H129.64V255H133.69V255H137.74V255H141.79V255H145.85V255H149.9V255H153.95V255H158V255H162.05V255H166.1V255H170.15V255H174.21V255H178.26V255H182.31V255H186.36V255H190.41V255H194.46V255H198.51V255H202.56V255H206.62V255H210.67V255H214.72V255H218.77V255H222.82V255H226.87V255H230.92V255H234.97V255H239.03V255H243.08V255H247.13V255H251.18V255H255.23V255H259.28V255H263.33V254.99H267.38V255H271.44V254.99H275.49V254.99H279.54V254.99H283.59V255H287.64V255H291.69V255H295.74V254.99H299.79V255H303.85V254.99H307.9V255H311.95V254.99H316V254.99H320.05V255H324.1V255H328.15V255H332.21V255H336.26V255H340.31V255H344.36V255H348.41V255H352.46V255H356.51V255H360.56V255H364.62V255H368.67V255H372.72V255H376.77V255H380.82V255H384.87V255H388.92V255H392.97V252.71H397.03V255H401.08V255H405.13V255H409.18V255H413.23V254.99H417.28V254.35H421.33V251.67H425.38V252.03H429.44V255H433.49V254.93H437.54V255H441.59V255H445.64V255H449.69V255H453.74V255H457.79V255H461.85V255H465.9V255H469.95V255H474V255H478.05V255H482.1V255H486.15V255H490.21V255H494.26V255H498.31V255H502.36V255H506.41V255H510.46V255H514.51V255H518.56V255H522.62V255H526.67V255H530.72V255H534.77V255H538.82V255H542.87V255H546.92V255H550.97V255H555.03V255H559.08V255H563.13V255H567.18V255H571.23V255H575.28V255H579.33V255H583.38V255H587.44V255H591.49V255H595.54V255H599.59V255H603.64V255H607.69V255H611.74V255H615.79V255H619.85V255H623.9V255H627.95V255H632V255" style="vector-effect: none; fill: none; stroke: rgb(31, 119, 180); stroke-opacity: 1; stroke-width: 0px; opacity: 1;"/></g><g class="points"/><g class="text"/></g><g class="trace scatter tracedc3b988d-2741-4c19-bfef-b10f59ef33f1" style="stroke-miterlimit: 2;"><g class="fills"><g><path class="js-fill" d="M0,188.93H4.05V188.93H8.1V188.93H12.15V188.93H16.21V188.93H20.26V141.36H24.31V138.45H28.36V134.47H32.41V154.59H36.46V89.96H40.51V39.68H44.56V119.52H48.62V90.76H52.67V72.67H56.72V72.67H60.77V71.39H64.82V69.79H68.87V69.86H72.92V71.47H76.97V73.79H81.03V73.84H85.08V74.35H89.13V75.23H93.18V71.02H97.23V66.84H101.28V66.63H105.33V66.03H109.38V66.78H113.44V67.15H117.49V64.87H121.54V66.45H125.59V62.38H129.64V62.4H133.69V61.93H137.74V58.42H141.79V61.65H145.85V60.42H149.9V59H153.95V57.09H158V56.84H162.05V56.84H166.1V57.44H170.15V57.29H174.21V53.94H178.26V48.29H182.31V42.75H186.36V43.39H190.41V47.04H194.46V46.9H198.51V49.96H202.56V50.83H206.62V52.63H210.67V53.55H214.72V53.68H218.77V49.14H222.82V48.9H226.87V47.89H230.92V46.74H234.97V47.29H239.03V47.34H243.08V43.35H247.13V41.33H251.18V68.78H255.23V85.83H259.28V92.36H263.33V67.96H267.38V76.48H271.44V55.23H275.49V65.23H279.54V65.79H283.59V68.81H287.64V61.92H291.69V60.72H295.74V61.57H299.79V52.99H303.85V52.49H307.9V52.45H311.95V54.01H316V56.21H320.05V61.38H324.1V61.53H328.15V63.28H332.21V59.76H336.26V61.54H340.31V61.06H344.36V46.38H348.41V45.59H352.46V43.26H356.51V48.55H360.56V47.85H364.62V49.49H368.67V46.25H372.72V44.69H376.77V53.55H380.82V53.73H384.87V54.83H388.92V67.36H392.97V76.61H397.03V84.92H401.08V80.95H405.13V79.67H409.18V72.33H413.23V80.47H417.28V79.16H421.33V75.77H425.38V72.6H429.44V63.43H433.49V66.66H437.54V77.64H441.59V76.34H445.64V76.82H449.69V75.77H453.74V83.71H457.79V92.26H461.85V82.68H465.9V70.54H469.95V76.91H474V88.39H478.05V79.76H482.1V111.37H486.15V122.24H490.21V123.33H494.26V124.26H498.31V126.65H502.36V126.66H506.41V121.48H510.46V124.52H514.51V122.69H518.56V130.91H522.62V99.52H526.67V88.12H530.72V89.4H534.77V90.63H538.82V96.82H542.87V102.07H546.92V97.88H550.97V95.93H555.03V97.7H559.08V100.57H563.13V97.98H567.18V95.68H571.23V96.97H575.28V94.36H579.33V93.93H583.38V96.36H587.44V94.66H591.49V91.16H595.54V94.22H599.59V101.53H603.64V103.22H607.69V124.52H611.74V123.28H615.79V126.9H619.85V127.97H623.9V127.46H627.95V128.32H632V131.48L632,131.51V128.32H627.95V127.68H623.9V128.84H619.85V126.91H615.79V125.4H611.74V124.57H607.69V118.2H603.64V118.89H599.59V121.3H595.54V117.17H591.49V118.36H587.44V119.18H583.38V118.36H579.33V120.68H575.28V123.41H571.23V123.55H567.18V123.87H563.13V125.39H559.08V124.36H555.03V125.13H550.97V125.45H546.92V127.89H542.87V124.88H538.82V121.21H534.77V119.1H530.72V116.69H526.67V125.79H522.62V137.71H518.56V140.16H514.51V143.08H510.46V150.46H506.41V153.13H502.36V153.53H498.31V152.36H494.26V156.81H490.21V157.38H486.15V151.99H482.1V134.9H478.05V136.76H474V131.27H469.95V133.21H465.9V134.22H461.85V134.19H457.79V129.69H453.74V128.91H449.69V129.61H445.64V125.87H441.59V124.43H437.54V125.24H433.49V124.83H429.44V127.94H425.38V127.94H421.33V130.35H417.28V133.12H413.23V129.89H409.18V132.9H405.13V132.25H401.08V136.09H397.03V127.7H392.97V118.08H388.92V105.26H384.87V106.61H380.82V104.76H376.77V100.55H372.72V102.36H368.67V102.3H364.62V101.82H360.56V102.71H356.51V101.14H352.46V103.6H348.41V103.89H344.36V111.92H340.31V111.8H336.26V111.29H332.21V113.79H328.15V111.63H324.1V112.61H320.05V108.62H316V105.47H311.95V106.11H307.9V103.54H303.85V103.27H299.79V101.5H295.74V101.74H291.69V100.28H287.64V101.26H283.59V99.67H279.54V100.95H275.49V97.5H271.44V97.23H267.38V94.69H263.33V100.94H259.28V87.7H255.23V89.12H251.18V79.12H247.13V80.22H243.08V80.95H239.03V80.93H234.97V80.08H230.92V81.03H226.87V82.28H222.82V82.34H218.77V83.01H214.72V83.04H210.67V82.63H206.62V81.78H202.56V81.13H198.51V79.04H194.46V79.06H190.41V77.21H186.36V77.69H182.31V79.39H178.26V82.41H174.21V82.77H170.15V82.84H166.1V82.4H162.05V81.61H158V81.65H153.95V82.44H149.9V82.88H145.85V83.11H141.79V80.33H137.74V80.66H133.69V78.43H129.64V78.31H125.59V79.6H121.54V79.12H117.49V79.67H113.44V79.81H109.38V79.41H105.33V79.42H101.28V79.51H97.23V78.83H93.18V75.23H89.13V74.35H85.08V73.84H81.03V73.79H76.97V71.47H72.92V69.86H68.87V69.79H64.82V71.39H60.77V72.67H56.72V72.67H52.67V90.76H48.62V119.52H44.56V96.15H40.51V89.96H36.46V154.59H32.41V134.47H28.36V138.45H24.31V141.36H20.26V210.95H16.21V210.95H12.15V210.95H8.1V210.95H4.05V210.95H0Z" style="fill: rgb(133, 102, 13); fill-opacity: 0.8; stroke-width: 0;"/></g></g><g class="errorbars"/><g class="lines"><path class="js-line" d="M0,210.95H4.05V210.95H8.1V210.95H12.15V210.95H16.21V210.95H20.26V141.36H24.31V138.45H28.36V134.47H32.41V154.59H36.46V89.96H40.51V96.15H44.56V119.52H48.62V90.76H52.67V72.67H56.72V72.67H60.77V71.39H64.82V69.79H68.87V69.86H72.92V71.47H76.97V73.79H81.03V73.84H85.08V74.35H89.13V75.23H93.18V78.83H97.23V79.51H101.28V79.42H105.33V79.41H109.38V79.81H113.44V79.67H117.49V79.12H121.54V79.6H125.59V78.31H129.64V78.43H133.69V80.66H137.74V80.33H141.79V83.11H145.85V82.88H149.9V82.44H153.95V81.65H158V81.61H162.05V82.4H166.1V82.84H170.15V82.77H174.21V82.41H178.26V79.39H182.31V77.69H186.36V77.21H190.41V79.06H194.46V79.04H198.51V81.13H202.56V81.78H206.62V82.63H210.67V83.04H214.72V83.01H218.77V82.34H222.82V82.28H226.87V81.03H230.92V80.08H234.97V80.93H239.03V80.95H243.08V80.22H247.13V79.12H251.18V89.12H255.23V87.7H259.28V100.94H263.33V94.69H267.38V97.23H271.44V97.5H275.49V100.95H279.54V99.67H283.59V101.26H287.64V100.28H291.69V101.74H295.74V101.5H299.79V103.27H303.85V103.54H307.9V106.11H311.95V105.47H316V108.62H320.05V112.61H324.1V111.63H328.15V113.79H332.21V111.29H336.26V111.8H340.31V111.92H344.36V103.89H348.41V103.6H352.46V101.14H356.51V102.71H360.56V101.82H364.62V102.3H368.67V102.36H372.72V100.55H376.77V104.76H380.82V106.61H384.87V105.26H388.92V118.08H392.97V127.7H397.03V136.09H401.08V132.25H405.13V132.9H409.18V129.89H413.23V133.12H417.28V130.35H421.33V127.94H425.38V127.94H429.44V124.83H433.49V125.24H437.54V124.43H441.59V125.87H445.64V129.61H449.69V128.91H453.74V129.69H457.79V134.19H461.85V134.22H465.9V133.21H469.95V131.27H474V136.76H478.05V134.9H482.1V151.99H486.15V157.38H490.21V156.81H494.26V152.36H498.31V153.53H502.36V153.13H506.41V150.46H510.46V143.08H514.51V140.16H518.56V137.71H522.62V125.79H526.67V116.69H530.72V119.1H534.77V121.21H538.82V124.88H542.87V127.89H546.92V125.45H550.97V125.13H555.03V124.36H559.08V125.39H563.13V123.87H567.18V123.55H571.23V123.41H575.28V120.68H579.33V118.36H583.38V119.18H587.44V118.36H591.49V117.17H595.54V121.3H599.59V118.89H603.64V118.2H607.69V124.57H611.74V125.4H615.79V126.91H619.85V128.84H623.9V127.68H627.95V128.32H632V131.51" style="vector-effect: none; fill: none; stroke: rgb(255, 127, 14); stroke-opacity: 1; stroke-width: 0px; opacity: 1;"/></g><g class="points"/><g class="text"/></g><g class="trace scatter tracefce0ad8a-f89f-4f25-89be-65b56f9405f0" style="stroke-miterlimit: 2;"><g class="fills"><g><path class="js-fill" d="M0,166.91H4.05V166.91H8.1V166.91H12.15V166.91H16.21V166.91H20.26V98.75H24.31V81.88H28.36V97.02H32.41V133.38H36.46V89.96H40.51V12.75H44.56V119.52H48.62V90.76H52.67V72.67H56.72V72.67H60.77V71.39H64.82V69.79H68.87V69.86H72.92V71.47H76.97V73.79H81.03V73.84H85.08V74.35H89.13V75.23H93.18V71.02H97.23V66.84H101.28V66.63H105.33V66.03H109.38V66.78H113.44V67.15H117.49V64.87H121.54V66.45H125.59V62.38H129.64V62.4H133.69V61.93H137.74V58.42H141.79V61.65H145.85V60.42H149.9V59H153.95V57.09H158V56.84H162.05V56.84H166.1V57.44H170.15V57.29H174.21V53.94H178.26V48.29H182.31V42.75H186.36V43.39H190.41V47.04H194.46V46.9H198.51V49.96H202.56V50.83H206.62V52.63H210.67V53.55H214.72V53.68H218.77V49.14H222.82V48.9H226.87V47.89H230.92V46.74H234.97V47.29H239.03V47.34H243.08V43.35H247.13V41.33H251.18V68.78H255.23V69.64H259.28V78.75H263.33V55.4H267.38V61.46H271.44V49.16H275.49V55.71H279.54V54.97H283.59V58.3H287.64V55.99H291.69V55.86H295.74V55.69H299.79V52.01H303.85V52.48H307.9V52.45H311.95V54.01H316V56.21H320.05V61.37H324.1V61.53H328.15V63.28H332.21V59.76H336.26V61.54H340.31V61.06H344.36V46.38H348.41V45.59H352.46V43.26H356.51V48.55H360.56V47.85H364.62V49.48H368.67V46.23H372.72V43.32H376.77V50.21H380.82V50.76H384.87V51.79H388.92V64.28H392.97V76.61H397.03V81.19H401.08V77.15H405.13V75.47H409.18V69.64H413.23V76.11H417.28V71.59H421.33V69.05H425.38V67.22H429.44V60.7H433.49V62.8H437.54V69.27H441.59V66.83H445.64V67.02H449.69V65.9H453.74V73.28H457.79V80.89H461.85V76.71H465.9V61.48H469.95V60.69H474V70.51H478.05V62.26H482.1V90.21H486.15V100.9H490.21V103.17H494.26V101.75H498.31V98.48H502.36V98.09H506.41V92.84H510.46V92.98H514.51V88.69H518.56V91.41H522.62V75.84H526.67V60.46H530.72V63.53H534.77V66.75H538.82V71.6H542.87V75.49H546.92V73.67H550.97V73.35H555.03V76.15H559.08V78.86H563.13V75.37H567.18V74.42H571.23V75.07H575.28V72.4H579.33V75.02H583.38V75.96H587.44V76.49H591.49V74.13H595.54V76.66H599.59V79.77H603.64V81.49H607.69V98.04H611.74V96.03H615.79V97.89H619.85V97.44H623.9V99.01H627.95V101.22H632V103.99L632,131.48V128.32H627.95V127.46H623.9V127.97H619.85V126.9H615.79V123.28H611.74V124.52H607.69V103.22H603.64V101.53H599.59V94.22H595.54V91.16H591.49V94.66H587.44V96.36H583.38V93.93H579.33V94.36H575.28V96.97H571.23V95.68H567.18V97.98H563.13V100.57H559.08V97.7H555.03V95.93H550.97V97.88H546.92V102.07H542.87V96.82H538.82V90.63H534.77V89.4H530.72V88.12H526.67V99.52H522.62V130.91H518.56V122.69H514.51V124.52H510.46V121.48H506.41V126.66H502.36V126.65H498.31V124.26H494.26V123.33H490.21V122.24H486.15V111.37H482.1V79.76H478.05V88.39H474V76.91H469.95V70.54H465.9V82.68H461.85V92.26H457.79V83.71H453.74V75.77H449.69V76.82H445.64V76.34H441.59V77.64H437.54V66.66H433.49V63.43H429.44V72.6H425.38V75.77H421.33V79.16H417.28V80.47H413.23V72.33H409.18V79.67H405.13V80.95H401.08V84.92H397.03V76.61H392.97V67.36H388.92V54.83H384.87V53.73H380.82V53.55H376.77V44.69H372.72V46.25H368.67V49.49H364.62V47.85H360.56V48.55H356.51V43.26H352.46V45.59H348.41V46.38H344.36V61.06H340.31V61.54H336.26V59.76H332.21V63.28H328.15V61.53H324.1V61.38H320.05V56.21H316V54.01H311.95V52.45H307.9V52.49H303.85V52.99H299.79V61.57H295.74V60.72H291.69V61.92H287.64V68.81H283.59V65.79H279.54V65.23H275.49V55.23H271.44V76.48H267.38V67.96H263.33V92.36H259.28V85.83H255.23V68.78H251.18V41.33H247.13V43.35H243.08V47.34H239.03V47.29H234.97V46.74H230.92V47.89H226.87V48.9H222.82V49.14H218.77V53.68H214.72V53.55H210.67V52.63H206.62V50.83H202.56V49.96H198.51V46.9H194.46V47.04H190.41V43.39H186.36V42.75H182.31V48.29H178.26V53.94H174.21V57.29H170.15V57.44H166.1V56.84H162.05V56.84H158V57.09H153.95V59H149.9V60.42H145.85V61.65H141.79V58.42H137.74V61.93H133.69V62.4H129.64V62.38H125.59V66.45H121.54V64.87H117.49V67.15H113.44V66.78H109.38V66.03H105.33V66.63H101.28V66.84H97.23V71.02H93.18V75.23H89.13V74.35H85.08V73.84H81.03V73.79H76.97V71.47H72.92V69.86H68.87V69.79H64.82V71.39H60.77V72.67H56.72V72.67H52.67V90.76H48.62V119.52H44.56V39.68H40.51V89.96H36.46V154.59H32.41V134.47H28.36V138.45H24.31V141.36H20.26V188.93H16.21V188.93H12.15V188.93H8.1V188.93H4.05V188.93H0Z" style="fill: rgb(120, 42, 182); fill-opacity: 0.8; stroke-width: 0;"/></g></g><g class="errorbars"/><g class="lines"><path class="js-line" d="M0,188.93H4.05V188.93H8.1V188.93H12.15V188.93H16.21V188.93H20.26V141.36H24.31V138.45H28.36V134.47H32.41V154.59H36.46V89.96H40.51V39.68H44.56V119.52H48.62V90.76H52.67V72.67H56.72V72.67H60.77V71.39H64.82V69.79H68.87V69.86H72.92V71.47H76.97V73.79H81.03V73.84H85.08V74.35H89.13V75.23H93.18V71.02H97.23V66.84H101.28V66.63H105.33V66.03H109.38V66.78H113.44V67.15H117.49V64.87H121.54V66.45H125.59V62.38H129.64V62.4H133.69V61.93H137.74V58.42H141.79V61.65H145.85V60.42H149.9V59H153.95V57.09H158V56.84H162.05V56.84H166.1V57.44H170.15V57.29H174.21V53.94H178.26V48.29H182.31V42.75H186.36V43.39H190.41V47.04H194.46V46.9H198.51V49.96H202.56V50.83H206.62V52.63H210.67V53.55H214.72V53.68H218.77V49.14H222.82V48.9H226.87V47.89H230.92V46.74H234.97V47.29H239.03V47.34H243.08V43.35H247.13V41.33H251.18V68.78H255.23V85.83H259.28V92.36H263.33V67.96H267.38V76.48H271.44V55.23H275.49V65.23H279.54V65.79H283.59V68.81H287.64V61.92H291.69V60.72H295.74V61.57H299.79V52.99H303.85V52.49H307.9V52.45H311.95V54.01H316V56.21H320.05V61.38H324.1V61.53H328.15V63.28H332.21V59.76H336.26V61.54H340.31V61.06H344.36V46.38H348.41V45.59H352.46V43.26H356.51V48.55H360.56V47.85H364.62V49.49H368.67V46.25H372.72V44.69H376.77V53.55H380.82V53.73H384.87V54.83H388.92V67.36H392.97V76.61H397.03V84.92H401.08V80.95H405.13V79.67H409.18V72.33H413.23V80.47H417.28V79.16H421.33V75.77H425.38V72.6H429.44V63.43H433.49V66.66H437.54V77.64H441.59V76.34H445.64V76.82H449.69V75.77H453.74V83.71H457.79V92.26H461.85V82.68H465.9V70.54H469.95V76.91H474V88.39H478.05V79.76H482.1V111.37H486.15V122.24H490.21V123.33H494.26V124.26H498.31V126.65H502.36V126.66H506.41V121.48H510.46V124.52H514.51V122.69H518.56V130.91H522.62V99.52H526.67V88.12H530.72V89.4H534.77V90.63H538.82V96.82H542.87V102.07H546.92V97.88H550.97V95.93H555.03V97.7H559.08V100.57H563.13V97.98H567.18V95.68H571.23V96.97H575.28V94.36H579.33V93.93H583.38V96.36H587.44V94.66H591.49V91.16H595.54V94.22H599.59V101.53H603.64V103.22H607.69V124.52H611.74V123.28H615.79V126.9H619.85V127.97H623.9V127.46H627.95V128.32H632V131.48" style="vector-effect: none; fill: none; stroke: rgb(44, 160, 44); stroke-opacity: 1; stroke-width: 0px; opacity: 1;"/></g><g class="points"/><g class="text"/></g><g class="trace scatter trace051f7e26-0dfc-47a1-96ff-873dcca5863d" style="stroke-miterlimit: 2;"><g class="fills"><g><path class="js-fill" d="M0,144.89H4.05V144.89H8.1V144.89H12.15V144.89H16.21V144.89H20.26V98.75H24.31V64.56H28.36V97.02H32.41V133.38H36.46V89.96H40.51V12.75H44.56V119.52H48.62V90.76H52.67V72.67H56.72V72.67H60.77V71.39H64.82V69.79H68.87V69.86H72.92V71.47H76.97V73.79H81.03V73.84H85.08V74.35H89.13V75.23H93.18V71.02H97.23V66.84H101.28V66.63H105.33V66.03H109.38V66.78H113.44V67.15H117.49V64.87H121.54V66.45H125.59V62.38H129.64V62.4H133.69V61.93H137.74V58.42H141.79V61.65H145.85V60.42H149.9V59H153.95V57.09H158V56.84H162.05V56.84H166.1V57.44H170.15V57.29H174.21V53.94H178.26V48.29H182.31V42.75H186.36V43.39H190.41V47.04H194.46V46.9H198.51V49.96H202.56V50.83H206.62V52.63H210.67V53.55H214.72V53.68H218.77V49.14H222.82V48.9H226.87V47.89H230.92V46.74H234.97V47.29H239.03V47.34H243.08V43.35H247.13V41.33H251.18V68.78H255.23V69.64H259.28V78.75H263.33V55.4H267.38V61.46H271.44V47.41H275.49V55.71H279.54V54.97H283.59V58.28H287.64V53.06H291.69V51.63H295.74V49.23H299.79V39.6H303.85V40.31H307.9V40.85H311.95V46.05H316V48.17H320.05V49.24H324.1V56.92H328.15V54.59H332.21V52.97H336.26V55.28H340.31V54.81H344.36V28.22H348.41V28.74H352.46V22.13H356.51V25.26H360.56V25.47H364.62V29.06H368.67V28.14H372.72V22.57H376.77V26.09H380.82V27.09H384.87V37.49H388.92V53.82H392.97V76.61H397.03V81.17H401.08V77H405.13V75.02H409.18V65.05H413.23V71.47H417.28V61.98H421.33V60.75H425.38V57.62H429.44V54.34H433.49V59.42H437.54V62.08H441.59V59.14H445.64V55.88H449.69V57.09H453.74V66.83H457.79V62.53H461.85V68.71H465.9V15.75H469.95V12.76H474V20.81H478.05V13.76H482.1V43.62H486.15V50.1H490.21V58.67H494.26V67.62H498.31V71.18H502.36V70.88H506.41V61.76H510.46V71.75H514.51V67.13H518.56V80.21H522.62V75.84H526.67V60.46H530.72V63.53H534.77V66.75H538.82V71.6H542.87V75.49H546.92V73.67H550.97V73.35H555.03V76.15H559.08V78.86H563.13V75.37H567.18V74.42H571.23V75.07H575.28V72.4H579.33V75.02H583.38V75.96H587.44V76.49H591.49V74.13H595.54V76.66H599.59V79.77H603.64V81.49H607.69V98.04H611.74V96.03H615.79V97.89H619.85V97.44H623.9V99.01H627.95V101.22H632V103.99L632,103.99V101.22H627.95V99.01H623.9V97.44H619.85V97.89H615.79V96.03H611.74V98.04H607.69V81.49H603.64V79.77H599.59V76.66H595.54V74.13H591.49V76.49H587.44V75.96H583.38V75.02H579.33V72.4H575.28V75.07H571.23V74.42H567.18V75.37H563.13V78.86H559.08V76.15H555.03V73.35H550.97V73.67H546.92V75.49H542.87V71.6H538.82V66.75H534.77V63.53H530.72V60.46H526.67V75.84H522.62V91.41H518.56V88.69H514.51V92.98H510.46V92.84H506.41V98.09H502.36V98.48H498.31V101.75H494.26V103.17H490.21V100.9H486.15V90.21H482.1V62.26H478.05V70.51H474V60.69H469.95V61.48H465.9V76.71H461.85V80.89H457.79V73.28H453.74V65.9H449.69V67.02H445.64V66.83H441.59V69.27H437.54V62.8H433.49V60.7H429.44V67.22H425.38V69.05H421.33V71.59H417.28V76.11H413.23V69.64H409.18V75.47H405.13V77.15H401.08V81.19H397.03V76.61H392.97V64.28H388.92V51.79H384.87V50.76H380.82V50.21H376.77V43.32H372.72V46.23H368.67V49.48H364.62V47.85H360.56V48.55H356.51V43.26H352.46V45.59H348.41V46.38H344.36V61.06H340.31V61.54H336.26V59.76H332.21V63.28H328.15V61.53H324.1V61.37H320.05V56.21H316V54.01H311.95V52.45H307.9V52.48H303.85V52.01H299.79V55.69H295.74V55.86H291.69V55.99H287.64V58.3H283.59V54.97H279.54V55.71H275.49V49.16H271.44V61.46H267.38V55.4H263.33V78.75H259.28V69.64H255.23V68.78H251.18V41.33H247.13V43.35H243.08V47.34H239.03V47.29H234.97V46.74H230.92V47.89H226.87V48.9H222.82V49.14H218.77V53.68H214.72V53.55H210.67V52.63H206.62V50.83H202.56V49.96H198.51V46.9H194.46V47.04H190.41V43.39H186.36V42.75H182.31V48.29H178.26V53.94H174.21V57.29H170.15V57.44H166.1V56.84H162.05V56.84H158V57.09H153.95V59H149.9V60.42H145.85V61.65H141.79V58.42H137.74V61.93H133.69V62.4H129.64V62.38H125.59V66.45H121.54V64.87H117.49V67.15H113.44V66.78H109.38V66.03H105.33V66.63H101.28V66.84H97.23V71.02H93.18V75.23H89.13V74.35H85.08V73.84H81.03V73.79H76.97V71.47H72.92V69.86H68.87V69.79H64.82V71.39H60.77V72.67H56.72V72.67H52.67V90.76H48.62V119.52H44.56V12.75H40.51V89.96H36.46V133.38H32.41V97.02H28.36V81.88H24.31V98.75H20.26V166.91H16.21V166.91H12.15V166.91H8.1V166.91H4.05V166.91H0Z" style="fill: rgb(86, 86, 86); fill-opacity: 0.8; stroke-width: 0;"/></g></g><g class="errorbars"/><g class="lines"><path class="js-line" d="M0,166.91H4.05V166.91H8.1V166.91H12.15V166.91H16.21V166.91H20.26V98.75H24.31V81.88H28.36V97.02H32.41V133.38H36.46V89.96H40.51V12.75H44.56V119.52H48.62V90.76H52.67V72.67H56.72V72.67H60.77V71.39H64.82V69.79H68.87V69.86H72.92V71.47H76.97V73.79H81.03V73.84H85.08V74.35H89.13V75.23H93.18V71.02H97.23V66.84H101.28V66.63H105.33V66.03H109.38V66.78H113.44V67.15H117.49V64.87H121.54V66.45H125.59V62.38H129.64V62.4H133.69V61.93H137.74V58.42H141.79V61.65H145.85V60.42H149.9V59H153.95V57.09H158V56.84H162.05V56.84H166.1V57.44H170.15V57.29H174.21V53.94H178.26V48.29H182.31V42.75H186.36V43.39H190.41V47.04H194.46V46.9H198.51V49.96H202.56V50.83H206.62V52.63H210.67V53.55H214.72V53.68H218.77V49.14H222.82V48.9H226.87V47.89H230.92V46.74H234.97V47.29H239.03V47.34H243.08V43.35H247.13V41.33H251.18V68.78H255.23V69.64H259.28V78.75H263.33V55.4H267.38V61.46H271.44V49.16H275.49V55.71H279.54V54.97H283.59V58.3H287.64V55.99H291.69V55.86H295.74V55.69H299.79V52.01H303.85V52.48H307.9V52.45H311.95V54.01H316V56.21H320.05V61.37H324.1V61.53H328.15V63.28H332.21V59.76H336.26V61.54H340.31V61.06H344.36V46.38H348.41V45.59H352.46V43.26H356.51V48.55H360.56V47.85H364.62V49.48H368.67V46.23H372.72V43.32H376.77V50.21H380.82V50.76H384.87V51.79H388.92V64.28H392.97V76.61H397.03V81.19H401.08V77.15H405.13V75.47H409.18V69.64H413.23V76.11H417.28V71.59H421.33V69.05H425.38V67.22H429.44V60.7H433.49V62.8H437.54V69.27H441.59V66.83H445.64V67.02H449.69V65.9H453.74V73.28H457.79V80.89H461.85V76.71H465.9V61.48H469.95V60.69H474V70.51H478.05V62.26H482.1V90.21H486.15V100.9H490.21V103.17H494.26V101.75H498.31V98.48H502.36V98.09H506.41V92.84H510.46V92.98H514.51V88.69H518.56V91.41H522.62V75.84H526.67V60.46H530.72V63.53H534.77V66.75H538.82V71.6H542.87V75.49H546.92V73.67H550.97V73.35H555.03V76.15H559.08V78.86H563.13V75.37H567.18V74.42H571.23V75.07H575.28V72.4H579.33V75.02H583.38V75.96H587.44V76.49H591.49V74.13H595.54V76.66H599.59V79.77H603.64V81.49H607.69V98.04H611.74V96.03H615.79V97.89H619.85V97.44H623.9V99.01H627.95V101.22H632V103.99" style="vector-effect: none; fill: none; stroke: rgb(220, 57, 18); stroke-opacity: 1; stroke-width: 0px; opacity: 1;"/></g><g class="points"/><g class="text"/></g><g class="trace scatter tracefafc1826-9e5b-4f35-b394-1e796e458642" style="stroke-miterlimit: 2;"><g class="fills"><g><path class="js-fill" d="M0,122.86H4.05V122.86H8.1V122.86H12.15V122.86H16.21V122.86H20.26V98.75H24.31V64.56H28.36V97.02H32.41V130.85H36.46V85.28H40.51V12.75H44.56V12.75H48.62V12.75H52.67V12.75H56.72V12.75H60.77V12.75H64.82V12.75H68.87V12.75H72.92V12.75H76.97V12.75H81.03V12.75H85.08V12.75H89.13V12.75H93.18V12.75H97.23V12.75H101.28V12.75H105.33V12.75H109.38V12.75H113.44V12.75H117.49V12.75H121.54V12.75H125.59V12.75H129.64V12.75H133.69V14.04H137.74V17.19H141.79V18.38H145.85V19.71H149.9V20.99H153.95V20.51H158V20.7H162.05V22.34H166.1V22.74H170.15V22.66H174.21V25.34H178.26V23.45H182.31V26.56H186.36V24.68H190.41V28.11H194.46V27.98H198.51V30.69H202.56V30.69H206.62V30.86H210.67V32.03H214.72V31.66H218.77V33.06H222.82V33.39H226.87V29.84H230.92V29.89H234.97V29.26H239.03V29.03H243.08V29.59H247.13V28.89H251.18V68.78H255.23V69.64H259.28V78.75H263.33V55.4H267.38V61.46H271.44V47.41H275.49V55.71H279.54V54.97H283.59V58.28H287.64V53.06H291.69V51.63H295.74V49.23H299.79V39.6H303.85V40.31H307.9V40.85H311.95V46.05H316V48.16H320.05V49.24H324.1V56.92H328.15V54.59H332.21V52.97H336.26V55.28H340.31V54.81H344.36V28.22H348.41V28.74H352.46V22.13H356.51V25.26H360.56V25.47H364.62V29.06H368.67V28.14H372.72V22.57H376.77V26.09H380.82V27.09H384.87V37.49H388.92V53.82H392.97V76.61H397.03V81.17H401.08V77H405.13V75.02H409.18V65.05H413.23V71.47H417.28V61.98H421.33V60.75H425.38V57.62H429.44V54.34H433.49V59.41H437.54V62.08H441.59V59.14H445.64V55.88H449.69V57.09H453.74V66.83H457.79V62.53H461.85V68.71H465.9V15.75H469.95V12.76H474V20.81H478.05V13.76H482.1V43.62H486.15V50.1H490.21V58.67H494.26V67.62H498.31V71.18H502.36V70.88H506.41V61.76H510.46V71.75H514.51V67.13H518.56V80.21H522.62V75.84H526.67V60.46H530.72V63.53H534.77V66.75H538.82V71.6H542.87V75.49H546.92V73.67H550.97V73.35H555.03V76.15H559.08V78.86H563.13V75.37H567.18V74.42H571.23V75.07H575.28V72.4H579.33V75.02H583.38V75.96H587.44V76.49H591.49V74.13H595.54V76.66H599.59V79.77H603.64V81.49H607.69V98.04H611.74V96.03H615.79V97.89H619.85V97.44H623.9V99.01H627.95V101.22H632V103.99L632,103.99V101.22H627.95V99.01H623.9V97.44H619.85V97.89H615.79V96.03H611.74V98.04H607.69V81.49H603.64V79.77H599.59V76.66H595.54V74.13H591.49V76.49H587.44V75.96H583.38V75.02H579.33V72.4H575.28V75.07H571.23V74.42H567.18V75.37H563.13V78.86H559.08V76.15H555.03V73.35H550.97V73.67H546.92V75.49H542.87V71.6H538.82V66.75H534.77V63.53H530.72V60.46H526.67V75.84H522.62V80.21H518.56V67.13H514.51V71.75H510.46V61.76H506.41V70.88H502.36V71.18H498.31V67.62H494.26V58.67H490.21V50.1H486.15V43.62H482.1V13.76H478.05V20.81H474V12.76H469.95V15.75H465.9V68.71H461.85V62.53H457.79V66.83H453.74V57.09H449.69V55.88H445.64V59.14H441.59V62.08H437.54V59.42H433.49V54.34H429.44V57.62H425.38V60.75H421.33V61.98H417.28V71.47H413.23V65.05H409.18V75.02H405.13V77H401.08V81.17H397.03V76.61H392.97V53.82H388.92V37.49H384.87V27.09H380.82V26.09H376.77V22.57H372.72V28.14H368.67V29.06H364.62V25.47H360.56V25.26H356.51V22.13H352.46V28.74H348.41V28.22H344.36V54.81H340.31V55.28H336.26V52.97H332.21V54.59H328.15V56.92H324.1V49.24H320.05V48.17H316V46.05H311.95V40.85H307.9V40.31H303.85V39.6H299.79V49.23H295.74V51.63H291.69V53.06H287.64V58.28H283.59V54.97H279.54V55.71H275.49V47.41H271.44V61.46H267.38V55.4H263.33V78.75H259.28V69.64H255.23V68.78H251.18V41.33H247.13V43.35H243.08V47.34H239.03V47.29H234.97V46.74H230.92V47.89H226.87V48.9H222.82V49.14H218.77V53.68H214.72V53.55H210.67V52.63H206.62V50.83H202.56V49.96H198.51V46.9H194.46V47.04H190.41V43.39H186.36V42.75H182.31V48.29H178.26V53.94H174.21V57.29H170.15V57.44H166.1V56.84H162.05V56.84H158V57.09H153.95V59H149.9V60.42H145.85V61.65H141.79V58.42H137.74V61.93H133.69V62.4H129.64V62.38H125.59V66.45H121.54V64.87H117.49V67.15H113.44V66.78H109.38V66.03H105.33V66.63H101.28V66.84H97.23V71.02H93.18V75.23H89.13V74.35H85.08V73.84H81.03V73.79H76.97V71.47H72.92V69.86H68.87V69.79H64.82V71.39H60.77V72.67H56.72V72.67H52.67V90.76H48.62V119.52H44.56V12.75H40.51V89.96H36.46V133.38H32.41V97.02H28.36V64.56H24.31V98.75H20.26V144.89H16.21V144.89H12.15V144.89H8.1V144.89H4.05V144.89H0Z" style="fill: rgb(28, 131, 86); fill-opacity: 0.8; stroke-width: 0;"/></g></g><g class="errorbars"/><g class="lines"><path class="js-line" d="M0,144.89H4.05V144.89H8.1V144.89H12.15V144.89H16.21V144.89H20.26V98.75H24.31V64.56H28.36V97.02H32.41V133.38H36.46V89.96H40.51V12.75H44.56V119.52H48.62V90.76H52.67V72.67H56.72V72.67H60.77V71.39H64.82V69.79H68.87V69.86H72.92V71.47H76.97V73.79H81.03V73.84H85.08V74.35H89.13V75.23H93.18V71.02H97.23V66.84H101.28V66.63H105.33V66.03H109.38V66.78H113.44V67.15H117.49V64.87H121.54V66.45H125.59V62.38H129.64V62.4H133.69V61.93H137.74V58.42H141.79V61.65H145.85V60.42H149.9V59H153.95V57.09H158V56.84H162.05V56.84H166.1V57.44H170.15V57.29H174.21V53.94H178.26V48.29H182.31V42.75H186.36V43.39H190.41V47.04H194.46V46.9H198.51V49.96H202.56V50.83H206.62V52.63H210.67V53.55H214.72V53.68H218.77V49.14H222.82V48.9H226.87V47.89H230.92V46.74H234.97V47.29H239.03V47.34H243.08V43.35H247.13V41.33H251.18V68.78H255.23V69.64H259.28V78.75H263.33V55.4H267.38V61.46H271.44V47.41H275.49V55.71H279.54V54.97H283.59V58.28H287.64V53.06H291.69V51.63H295.74V49.23H299.79V39.6H303.85V40.31H307.9V40.85H311.95V46.05H316V48.17H320.05V49.24H324.1V56.92H328.15V54.59H332.21V52.97H336.26V55.28H340.31V54.81H344.36V28.22H348.41V28.74H352.46V22.13H356.51V25.26H360.56V25.47H364.62V29.06H368.67V28.14H372.72V22.57H376.77V26.09H380.82V27.09H384.87V37.49H388.92V53.82H392.97V76.61H397.03V81.17H401.08V77H405.13V75.02H409.18V65.05H413.23V71.47H417.28V61.98H421.33V60.75H425.38V57.62H429.44V54.34H433.49V59.42H437.54V62.08H441.59V59.14H445.64V55.88H449.69V57.09H453.74V66.83H457.79V62.53H461.85V68.71H465.9V15.75H469.95V12.76H474V20.81H478.05V13.76H482.1V43.62H486.15V50.1H490.21V58.67H494.26V67.62H498.31V71.18H502.36V70.88H506.41V61.76H510.46V71.75H514.51V67.13H518.56V80.21H522.62V75.84H526.67V60.46H530.72V63.53H534.77V66.75H538.82V71.6H542.87V75.49H546.92V73.67H550.97V73.35H555.03V76.15H559.08V78.86H563.13V75.37H567.18V74.42H571.23V75.07H575.28V72.4H579.33V75.02H583.38V75.96H587.44V76.49H591.49V74.13H595.54V76.66H599.59V79.77H603.64V81.49H607.69V98.04H611.74V96.03H615.79V97.89H619.85V97.44H623.9V99.01H627.95V101.22H632V103.99" style="vector-effect: none; fill: none; stroke: rgb(148, 103, 189); stroke-opacity: 1; stroke-width: 0px; opacity: 1;"/></g><g class="points"/><g class="text"/></g><g class="trace scatter trace31277261-b9b5-458a-9dad-802a461fb646" style="stroke-miterlimit: 2;"><g class="fills"><g><path class="js-fill" d="M0,100.84H4.05V100.84H8.1V100.84H12.15V100.84H16.21V100.84H20.26V98.75H24.31V64.56H28.36V97.02H32.41V130.85H36.46V85.28H40.51V12.75H44.56V12.75H48.62V12.75H52.67V12.75H56.72V12.75H60.77V12.75H64.82V12.75H68.87V12.75H72.92V12.75H76.97V12.75H81.03V12.75H85.08V12.75H89.13V12.75H93.18V12.75H97.23V12.75H101.28V12.75H105.33V12.75H109.38V12.75H113.44V12.75H117.49V12.75H121.54V12.75H125.59V12.75H129.64V12.75H133.69V14.04H137.74V17.19H141.79V18.38H145.85V19.71H149.9V20.99H153.95V20.51H158V20.7H162.05V22.34H166.1V22.74H170.15V22.66H174.21V25.34H178.26V23.45H182.31V26.56H186.36V24.68H190.41V28.11H194.46V27.98H198.51V30.69H202.56V30.69H206.62V30.86H210.67V32.03H214.72V31.66H218.77V33.06H222.82V33.39H226.87V29.84H230.92V29.89H234.97V29.26H239.03V29.03H243.08V29.59H247.13V28.89H251.18V68.78H255.23V56.84H259.28V73.87H263.33V55.4H267.38V61.46H271.44V38.64H275.49V55.7H279.54V54.96H283.59V58.28H287.64V53.06H291.69V51.63H295.74V49.23H299.79V39.6H303.85V40.31H307.9V40.85H311.95V46.05H316V48.16H320.05V49.24H324.1V56.92H328.15V54.59H332.21V52.97H336.26V55.28H340.31V54.81H344.36V28.22H348.41V28.74H352.46V22.13H356.51V25.26H360.56V25.47H364.62V29.06H368.67V28.14H372.72V22.57H376.77V26.09H380.82V27.09H384.87V37.49H388.92V53.82H392.97V76.61H397.03V81.17H401.08V77H405.13V75.02H409.18V65.05H413.23V71.47H417.28V61.98H421.33V60.75H425.38V57.62H429.44V54.34H433.49V59.41H437.54V62.08H441.59V59.14H445.64V55.88H449.69V57.09H453.74V66.83H457.79V62.53H461.85V68.71H465.9V15.75H469.95V12.76H474V20.81H478.05V13.76H482.1V43.62H486.15V50.1H490.21V58.67H494.26V67.62H498.31V71.17H502.36V70.88H506.41V61.6H510.46V71.24H514.51V63.79H518.56V80.21H522.62V75.84H526.67V60.46H530.72V63.5H534.77V66.75H538.82V71.6H542.87V75.49H546.92V73.67H550.97V73.35H555.03V76.15H559.08V78.86H563.13V75.37H567.18V74.42H571.23V75.07H575.28V72.4H579.33V75.02H583.38V75.96H587.44V76.49H591.49V74.13H595.54V76.66H599.59V79.77H603.64V77.15H607.69V98.04H611.74V96.03H615.79V97.89H619.85V97.44H623.9V99.01H627.95V101.22H632V103.99L632,103.99V101.22H627.95V99.01H623.9V97.44H619.85V97.89H615.79V96.03H611.74V98.04H607.69V81.49H603.64V79.77H599.59V76.66H595.54V74.13H591.49V76.49H587.44V75.96H583.38V75.02H579.33V72.4H575.28V75.07H571.23V74.42H567.18V75.37H563.13V78.86H559.08V76.15H555.03V73.35H550.97V73.67H546.92V75.49H542.87V71.6H538.82V66.75H534.77V63.53H530.72V60.46H526.67V75.84H522.62V80.21H518.56V67.13H514.51V71.75H510.46V61.76H506.41V70.88H502.36V71.18H498.31V67.62H494.26V58.67H490.21V50.1H486.15V43.62H482.1V13.76H478.05V20.81H474V12.76H469.95V15.75H465.9V68.71H461.85V62.53H457.79V66.83H453.74V57.09H449.69V55.88H445.64V59.14H441.59V62.08H437.54V59.41H433.49V54.34H429.44V57.62H425.38V60.75H421.33V61.98H417.28V71.47H413.23V65.05H409.18V75.02H405.13V77H401.08V81.17H397.03V76.61H392.97V53.82H388.92V37.49H384.87V27.09H380.82V26.09H376.77V22.57H372.72V28.14H368.67V29.06H364.62V25.47H360.56V25.26H356.51V22.13H352.46V28.74H348.41V28.22H344.36V54.81H340.31V55.28H336.26V52.97H332.21V54.59H328.15V56.92H324.1V49.24H320.05V48.16H316V46.05H311.95V40.85H307.9V40.31H303.85V39.6H299.79V49.23H295.74V51.63H291.69V53.06H287.64V58.28H283.59V54.97H279.54V55.71H275.49V47.41H271.44V61.46H267.38V55.4H263.33V78.75H259.28V69.64H255.23V68.78H251.18V28.89H247.13V29.59H243.08V29.03H239.03V29.26H234.97V29.89H230.92V29.84H226.87V33.39H222.82V33.06H218.77V31.66H214.72V32.03H210.67V30.86H206.62V30.69H202.56V30.69H198.51V27.98H194.46V28.11H190.41V24.68H186.36V26.56H182.31V23.45H178.26V25.34H174.21V22.66H170.15V22.74H166.1V22.34H162.05V20.7H158V20.51H153.95V20.99H149.9V19.71H145.85V18.38H141.79V17.19H137.74V14.04H133.69V12.75H129.64V12.75H125.59V12.75H121.54V12.75H117.49V12.75H113.44V12.75H109.38V12.75H105.33V12.75H101.28V12.75H97.23V12.75H93.18V12.75H89.13V12.75H85.08V12.75H81.03V12.75H76.97V12.75H72.92V12.75H68.87V12.75H64.82V12.75H60.77V12.75H56.72V12.75H52.67V12.75H48.62V12.75H44.56V12.75H40.51V85.28H36.46V130.85H32.41V97.02H28.36V64.56H24.31V98.75H20.26V122.86H16.21V122.86H12.15V122.86H8.1V122.86H4.05V122.86H0Z" style="fill: rgb(22, 255, 50); fill-opacity: 0.8; stroke-width: 0;"/></g></g><g class="errorbars"/><g class="lines"><path class="js-line" d="M0,122.86H4.05V122.86H8.1V122.86H12.15V122.86H16.21V122.86H20.26V98.75H24.31V64.56H28.36V97.02H32.41V130.85H36.46V85.28H40.51V12.75H44.56V12.75H48.62V12.75H52.67V12.75H56.72V12.75H60.77V12.75H64.82V12.75H68.87V12.75H72.92V12.75H76.97V12.75H81.03V12.75H85.08V12.75H89.13V12.75H93.18V12.75H97.23V12.75H101.28V12.75H105.33V12.75H109.38V12.75H113.44V12.75H117.49V12.75H121.54V12.75H125.59V12.75H129.64V12.75H133.69V14.04H137.74V17.19H141.79V18.38H145.85V19.71H149.9V20.99H153.95V20.51H158V20.7H162.05V22.34H166.1V22.74H170.15V22.66H174.21V25.34H178.26V23.45H182.31V26.56H186.36V24.68H190.41V28.11H194.46V27.98H198.51V30.69H202.56V30.69H206.62V30.86H210.67V32.03H214.72V31.66H218.77V33.06H222.82V33.39H226.87V29.84H230.92V29.89H234.97V29.26H239.03V29.03H243.08V29.59H247.13V28.89H251.18V68.78H255.23V69.64H259.28V78.75H263.33V55.4H267.38V61.46H271.44V47.41H275.49V55.71H279.54V54.97H283.59V58.28H287.64V53.06H291.69V51.63H295.74V49.23H299.79V39.6H303.85V40.31H307.9V40.85H311.95V46.05H316V48.16H320.05V49.24H324.1V56.92H328.15V54.59H332.21V52.97H336.26V55.28H340.31V54.81H344.36V28.22H348.41V28.74H352.46V22.13H356.51V25.26H360.56V25.47H364.62V29.06H368.67V28.14H372.72V22.57H376.77V26.09H380.82V27.09H384.87V37.49H388.92V53.82H392.97V76.61H397.03V81.17H401.08V77H405.13V75.02H409.18V65.05H413.23V71.47H417.28V61.98H421.33V60.75H425.38V57.62H429.44V54.34H433.49V59.41H437.54V62.08H441.59V59.14H445.64V55.88H449.69V57.09H453.74V66.83H457.79V62.53H461.85V68.71H465.9V15.75H469.95V12.76H474V20.81H478.05V13.76H482.1V43.62H486.15V50.1H490.21V58.67H494.26V67.62H498.31V71.18H502.36V70.88H506.41V61.76H510.46V71.75H514.51V67.13H518.56V80.21H522.62V75.84H526.67V60.46H530.72V63.53H534.77V66.75H538.82V71.6H542.87V75.49H546.92V73.67H550.97V73.35H555.03V76.15H559.08V78.86H563.13V75.37H567.18V74.42H571.23V75.07H575.28V72.4H579.33V75.02H583.38V75.96H587.44V76.49H591.49V74.13H595.54V76.66H599.59V79.77H603.64V81.49H607.69V98.04H611.74V96.03H615.79V97.89H619.85V97.44H623.9V99.01H627.95V101.22H632V103.99" style="vector-effect: none; fill: none; stroke: rgb(140, 86, 75); stroke-opacity: 1; stroke-width: 0px; opacity: 1;"/></g><g class="points"/><g class="text"/></g><g class="trace scatter traceb9727bfb-58e4-477f-a58a-efbb58a62ce1" style="stroke-miterlimit: 2;"><g class="fills"><g><path class="js-fill" d="M0,78.82H4.05V78.82H8.1V78.82H12.15V78.82H16.21V78.82H20.26V98.75H24.31V64.55H28.36V28.89H32.41V28.56H36.46V85.28H40.51V12.75H44.56V12.75H48.62V12.75H52.67V12.75H56.72V12.75H60.77V12.75H64.82V12.75H68.87V12.75H72.92V12.75H76.97V12.75H81.03V12.75H85.08V12.75H89.13V12.75H93.18V12.75H97.23V12.75H101.28V12.75H105.33V12.75H109.38V12.75H113.44V12.75H117.49V12.75H121.54V12.75H125.59V12.75H129.64V12.75H133.69V13.59H137.74V16.6H141.79V12.77H145.85V12.76H149.9V12.8H153.95V16.62H158V17.14H162.05V15.87H166.1V16.83H170.15V17.37H174.21V23.61H178.26V21.47H182.31V12.76H186.36V12.77H190.41V12.77H194.46V12.77H198.51V17.09H202.56V16.79H206.62V15.97H210.67V16.13H214.72V15.64H218.77V33.06H222.82V33.3H226.87V29.83H230.92V24.65H234.97V21.52H239.03V21.56H243.08V17.25H247.13V18.74H251.18V12.76H255.23V12.75H259.28V12.75H263.33V12.81H267.38V12.75H271.44V32.67H275.49V39.33H279.54V41.52H283.59V40.85H287.64V38.52H291.69V30.34H295.74V30.63H299.79V26.56H303.85V31.49H307.9V28.72H311.95V31.77H316V31.34H320.05V27.52H324.1V21.83H328.15V27.13H332.21V21.98H336.26V22.21H340.31V21.76H344.36V23.2H348.41V22.86H352.46V22.13H356.51V22.95H360.56V21.26H364.62V19.49H368.67V20.66H372.72V16.99H376.77V16.49H380.82V15.98H384.87V12.98H388.92V20.02H392.97V47.3H397.03V44.96H401.08V42.07H405.13V42.24H409.18V37.28H413.23V38.8H417.28V35.35H421.33V34.84H425.38V35.62H429.44V13.5H433.49V14.25H437.54V12.75H441.59V12.77H445.64V12.79H449.69V12.77H453.74V12.77H457.79V12.97H461.85V12.8H465.9V13.19H469.95V12.75H474V12.75H478.05V12.75H482.1V20.92H486.15V15.12H490.21V12.75H494.26V12.75H498.31V16.61H502.36V17.44H506.41V20.36H510.46V34.68H514.51V24.76H518.56V33.2H522.62V27.06H526.67V15.22H530.72V21.71H534.77V27.66H538.82V32.75H542.87V30.7H546.92V29.12H550.97V27.76H555.03V26.26H559.08V26.06H563.13V24.15H567.18V25.81H571.23V25.63H575.28V27.28H579.33V25.28H583.38V32.35H587.44V31.32H591.49V29.06H595.54V32.09H599.59V42.33H603.64V36.29H607.69V49.08H611.74V48.47H615.79V49.06H619.85V45.9H623.9V47.66H627.95V50.25H632V51.35L632,103.99V101.22H627.95V99.01H623.9V97.44H619.85V97.89H615.79V96.03H611.74V98.04H607.69V77.15H603.64V79.77H599.59V76.66H595.54V74.13H591.49V76.49H587.44V75.96H583.38V75.02H579.33V72.4H575.28V75.07H571.23V74.42H567.18V75.37H563.13V78.86H559.08V76.15H555.03V73.35H550.97V73.67H546.92V75.49H542.87V71.6H538.82V66.75H534.77V63.5H530.72V60.46H526.67V75.84H522.62V80.21H518.56V63.79H514.51V71.24H510.46V61.6H506.41V70.88H502.36V71.17H498.31V67.62H494.26V58.67H490.21V50.1H486.15V43.62H482.1V13.76H478.05V20.81H474V12.76H469.95V15.75H465.9V68.71H461.85V62.53H457.79V66.83H453.74V57.09H449.69V55.88H445.64V59.14H441.59V62.08H437.54V59.41H433.49V54.34H429.44V57.62H425.38V60.75H421.33V61.98H417.28V71.47H413.23V65.05H409.18V75.02H405.13V77H401.08V81.17H397.03V76.61H392.97V53.82H388.92V37.49H384.87V27.09H380.82V26.09H376.77V22.57H372.72V28.14H368.67V29.06H364.62V25.47H360.56V25.26H356.51V22.13H352.46V28.74H348.41V28.22H344.36V54.81H340.31V55.28H336.26V52.97H332.21V54.59H328.15V56.92H324.1V49.24H320.05V48.16H316V46.05H311.95V40.85H307.9V40.31H303.85V39.6H299.79V49.23H295.74V51.63H291.69V53.06H287.64V58.28H283.59V54.96H279.54V55.7H275.49V38.64H271.44V61.46H267.38V55.4H263.33V73.87H259.28V56.84H255.23V68.78H251.18V28.89H247.13V29.59H243.08V29.03H239.03V29.26H234.97V29.89H230.92V29.84H226.87V33.39H222.82V33.06H218.77V31.66H214.72V32.03H210.67V30.86H206.62V30.69H202.56V30.69H198.51V27.98H194.46V28.11H190.41V24.68H186.36V26.56H182.31V23.45H178.26V25.34H174.21V22.66H170.15V22.74H166.1V22.34H162.05V20.7H158V20.51H153.95V20.99H149.9V19.71H145.85V18.38H141.79V17.19H137.74V14.04H133.69V12.75H129.64V12.75H125.59V12.75H121.54V12.75H117.49V12.75H113.44V12.75H109.38V12.75H105.33V12.75H101.28V12.75H97.23V12.75H93.18V12.75H89.13V12.75H85.08V12.75H81.03V12.75H76.97V12.75H72.92V12.75H68.87V12.75H64.82V12.75H60.77V12.75H56.72V12.75H52.67V12.75H48.62V12.75H44.56V12.75H40.51V85.28H36.46V130.85H32.41V97.02H28.36V64.56H24.31V98.75H20.26V100.84H16.21V100.84H12.15V100.84H8.1V100.84H4.05V100.84H0Z" style="fill: rgb(247, 225, 160); fill-opacity: 0.8; stroke-width: 0;"/></g></g><g class="errorbars"/><g class="lines"><path class="js-line" d="M0,100.84H4.05V100.84H8.1V100.84H12.15V100.84H16.21V100.84H20.26V98.75H24.31V64.56H28.36V97.02H32.41V130.85H36.46V85.28H40.51V12.75H44.56V12.75H48.62V12.75H52.67V12.75H56.72V12.75H60.77V12.75H64.82V12.75H68.87V12.75H72.92V12.75H76.97V12.75H81.03V12.75H85.08V12.75H89.13V12.75H93.18V12.75H97.23V12.75H101.28V12.75H105.33V12.75H109.38V12.75H113.44V12.75H117.49V12.75H121.54V12.75H125.59V12.75H129.64V12.75H133.69V14.04H137.74V17.19H141.79V18.38H145.85V19.71H149.9V20.99H153.95V20.51H158V20.7H162.05V22.34H166.1V22.74H170.15V22.66H174.21V25.34H178.26V23.45H182.31V26.56H186.36V24.68H190.41V28.11H194.46V27.98H198.51V30.69H202.56V30.69H206.62V30.86H210.67V32.03H214.72V31.66H218.77V33.06H222.82V33.39H226.87V29.84H230.92V29.89H234.97V29.26H239.03V29.03H243.08V29.59H247.13V28.89H251.18V68.78H255.23V56.84H259.28V73.87H263.33V55.4H267.38V61.46H271.44V38.64H275.49V55.7H279.54V54.96H283.59V58.28H287.64V53.06H291.69V51.63H295.74V49.23H299.79V39.6H303.85V40.31H307.9V40.85H311.95V46.05H316V48.16H320.05V49.24H324.1V56.92H328.15V54.59H332.21V52.97H336.26V55.28H340.31V54.81H344.36V28.22H348.41V28.74H352.46V22.13H356.51V25.26H360.56V25.47H364.62V29.06H368.67V28.14H372.72V22.57H376.77V26.09H380.82V27.09H384.87V37.49H388.92V53.82H392.97V76.61H397.03V81.17H401.08V77H405.13V75.02H409.18V65.05H413.23V71.47H417.28V61.98H421.33V60.75H425.38V57.62H429.44V54.34H433.49V59.41H437.54V62.08H441.59V59.14H445.64V55.88H449.69V57.09H453.74V66.83H457.79V62.53H461.85V68.71H465.9V15.75H469.95V12.76H474V20.81H478.05V13.76H482.1V43.62H486.15V50.1H490.21V58.67H494.26V67.62H498.31V71.17H502.36V70.88H506.41V61.6H510.46V71.24H514.51V63.79H518.56V80.21H522.62V75.84H526.67V60.46H530.72V63.5H534.77V66.75H538.82V71.6H542.87V75.49H546.92V73.67H550.97V73.35H555.03V76.15H559.08V78.86H563.13V75.37H567.18V74.42H571.23V75.07H575.28V72.4H579.33V75.02H583.38V75.96H587.44V76.49H591.49V74.13H595.54V76.66H599.59V79.77H603.64V77.15H607.69V98.04H611.74V96.03H615.79V97.89H619.85V97.44H623.9V99.01H627.95V101.22H632V103.99" style="vector-effect: none; fill: none; stroke: rgb(227, 119, 194); stroke-opacity: 1; stroke-width: 0px; opacity: 1;"/></g><g class="points"/><g class="text"/></g><g class="trace scatter trace2d9c3852-8f30-48b5-818e-ef040aaed951" style="stroke-miterlimit: 2;"><g class="fills"><g><path class="js-fill" d="M0,56.8H4.05V56.8H8.1V56.8H12.15V56.8H16.21V56.8H20.26V27.85H24.31V12.75H28.36V28.88H32.41V13.12H36.46V85.28H40.51V12.75H44.56V12.75H48.62V12.75H52.67V12.75H56.72V12.75H60.77V12.75H64.82V12.75H68.87V12.75H72.92V12.75H76.97V12.75H81.03V12.75H85.08V12.75H89.13V12.75H93.18V12.75H97.23V12.75H101.28V12.75H105.33V12.75H109.38V12.75H113.44V12.75H117.49V12.75H121.54V12.75H125.59V12.75H129.64V12.75H133.69V13.59H137.74V16.6H141.79V12.77H145.85V12.76H149.9V12.8H153.95V16.62H158V17.14H162.05V15.87H166.1V16.83H170.15V17.37H174.21V23.61H178.26V21.47H182.31V12.76H186.36V12.77H190.41V12.77H194.46V12.77H198.51V17.09H202.56V16.79H206.62V15.97H210.67V16.13H214.72V15.64H218.77V33.06H222.82V33.3H226.87V29.83H230.92V24.65H234.97V21.52H239.03V21.56H243.08V17.25H247.13V18.74H251.18V12.76H255.23V12.75H259.28V12.75H263.33V12.75H267.38V12.75H271.44V26.86H275.49V27.56H279.54V28.03H283.59V28.35H287.64V25.99H291.69V24.28H295.74V22.23H299.79V24.92H303.85V28.99H307.9V27.39H311.95V29.62H316V29.48H320.05V26.38H324.1V16.97H328.15V25.48H332.21V18.75H336.26V17.6H340.31V16.56H344.36V22.41H348.41V20.84H352.46V21.93H356.51V22.46H360.56V19.56H364.62V16.15H368.67V18.49H372.72V14.21H376.77V12.77H380.82V15.92H384.87V12.85H388.92V19.83H392.97V47.29H397.03V44.96H401.08V42.07H405.13V42.23H409.18V37.28H413.23V38.8H417.28V35.35H421.33V34.84H425.38V35.62H429.44V13.5H433.49V14.25H437.54V12.75H441.59V12.77H445.64V12.79H449.69V12.77H453.74V12.77H457.79V12.97H461.85V12.8H465.9V13.18H469.95V12.75H474V12.75H478.05V12.75H482.1V20.92H486.15V15.12H490.21V12.75H494.26V12.75H498.31V16.61H502.36V17.44H506.41V20.36H510.46V34.68H514.51V24.76H518.56V33.2H522.62V27.06H526.67V15.22H530.72V21.71H534.77V27.66H538.82V32.75H542.87V30.7H546.92V29.12H550.97V27.76H555.03V26.26H559.08V26.06H563.13V24.15H567.18V25.81H571.23V25.63H575.28V27.28H579.33V25.28H583.38V32.35H587.44V31.32H591.49V29.06H595.54V32.09H599.59V42.33H603.64V36.29H607.69V49.08H611.74V48.47H615.79V49.06H619.85V45.9H623.9V47.66H627.95V50.25H632V51.35L632,51.35V50.25H627.95V47.66H623.9V45.9H619.85V49.06H615.79V48.47H611.74V49.08H607.69V36.29H603.64V42.33H599.59V32.09H595.54V29.06H591.49V31.32H587.44V32.35H583.38V25.28H579.33V27.28H575.28V25.63H571.23V25.81H567.18V24.15H563.13V26.06H559.08V26.26H555.03V27.76H550.97V29.12H546.92V30.7H542.87V32.75H538.82V27.66H534.77V21.71H530.72V15.22H526.67V27.06H522.62V33.2H518.56V24.76H514.51V34.68H510.46V20.36H506.41V17.44H502.36V16.61H498.31V12.75H494.26V12.75H490.21V15.12H486.15V20.92H482.1V12.75H478.05V12.75H474V12.75H469.95V13.19H465.9V12.8H461.85V12.97H457.79V12.77H453.74V12.77H449.69V12.79H445.64V12.77H441.59V12.75H437.54V14.25H433.49V13.5H429.44V35.62H425.38V34.84H421.33V35.35H417.28V38.8H413.23V37.28H409.18V42.24H405.13V42.07H401.08V44.96H397.03V47.3H392.97V20.02H388.92V12.98H384.87V15.98H380.82V16.49H376.77V16.99H372.72V20.66H368.67V19.49H364.62V21.26H360.56V22.95H356.51V22.13H352.46V22.86H348.41V23.2H344.36V21.76H340.31V22.21H336.26V21.98H332.21V27.13H328.15V21.83H324.1V27.52H320.05V31.34H316V31.77H311.95V28.72H307.9V31.49H303.85V26.56H299.79V30.63H295.74V30.34H291.69V38.52H287.64V40.85H283.59V41.52H279.54V39.33H275.49V32.67H271.44V12.75H267.38V12.81H263.33V12.75H259.28V12.75H255.23V12.76H251.18V18.74H247.13V17.25H243.08V21.56H239.03V21.52H234.97V24.65H230.92V29.83H226.87V33.3H222.82V33.06H218.77V15.64H214.72V16.13H210.67V15.97H206.62V16.79H202.56V17.09H198.51V12.77H194.46V12.77H190.41V12.77H186.36V12.76H182.31V21.47H178.26V23.61H174.21V17.37H170.15V16.83H166.1V15.87H162.05V17.14H158V16.62H153.95V12.8H149.9V12.76H145.85V12.77H141.79V16.6H137.74V13.59H133.69V12.75H129.64V12.75H125.59V12.75H121.54V12.75H117.49V12.75H113.44V12.75H109.38V12.75H105.33V12.75H101.28V12.75H97.23V12.75H93.18V12.75H89.13V12.75H85.08V12.75H81.03V12.75H76.97V12.75H72.92V12.75H68.87V12.75H64.82V12.75H60.77V12.75H56.72V12.75H52.67V12.75H48.62V12.75H44.56V12.75H40.51V85.28H36.46V28.56H32.41V28.89H28.36V64.55H24.31V98.75H20.26V78.82H16.21V78.82H12.15V78.82H8.1V78.82H4.05V78.82H0Z" style="fill: rgb(226, 226, 226); fill-opacity: 0.8; stroke-width: 0;"/></g></g><g class="errorbars"/><g class="lines"><path class="js-line" d="M0,78.82H4.05V78.82H8.1V78.82H12.15V78.82H16.21V78.82H20.26V98.75H24.31V64.55H28.36V28.89H32.41V28.56H36.46V85.28H40.51V12.75H44.56V12.75H48.62V12.75H52.67V12.75H56.72V12.75H60.77V12.75H64.82V12.75H68.87V12.75H72.92V12.75H76.97V12.75H81.03V12.75H85.08V12.75H89.13V12.75H93.18V12.75H97.23V12.75H101.28V12.75H105.33V12.75H109.38V12.75H113.44V12.75H117.49V12.75H121.54V12.75H125.59V12.75H129.64V12.75H133.69V13.59H137.74V16.6H141.79V12.77H145.85V12.76H149.9V12.8H153.95V16.62H158V17.14H162.05V15.87H166.1V16.83H170.15V17.37H174.21V23.61H178.26V21.47H182.31V12.76H186.36V12.77H190.41V12.77H194.46V12.77H198.51V17.09H202.56V16.79H206.62V15.97H210.67V16.13H214.72V15.64H218.77V33.06H222.82V33.3H226.87V29.83H230.92V24.65H234.97V21.52H239.03V21.56H243.08V17.25H247.13V18.74H251.18V12.76H255.23V12.75H259.28V12.75H263.33V12.81H267.38V12.75H271.44V32.67H275.49V39.33H279.54V41.52H283.59V40.85H287.64V38.52H291.69V30.34H295.74V30.63H299.79V26.56H303.85V31.49H307.9V28.72H311.95V31.77H316V31.34H320.05V27.52H324.1V21.83H328.15V27.13H332.21V21.98H336.26V22.21H340.31V21.76H344.36V23.2H348.41V22.86H352.46V22.13H356.51V22.95H360.56V21.26H364.62V19.49H368.67V20.66H372.72V16.99H376.77V16.49H380.82V15.98H384.87V12.98H388.92V20.02H392.97V47.3H397.03V44.96H401.08V42.07H405.13V42.24H409.18V37.28H413.23V38.8H417.28V35.35H421.33V34.84H425.38V35.62H429.44V13.5H433.49V14.25H437.54V12.75H441.59V12.77H445.64V12.79H449.69V12.77H453.74V12.77H457.79V12.97H461.85V12.8H465.9V13.19H469.95V12.75H474V12.75H478.05V12.75H482.1V20.92H486.15V15.12H490.21V12.75H494.26V12.75H498.31V16.61H502.36V17.44H506.41V20.36H510.46V34.68H514.51V24.76H518.56V33.2H522.62V27.06H526.67V15.22H530.72V21.71H534.77V27.66H538.82V32.75H542.87V30.7H546.92V29.12H550.97V27.76H555.03V26.26H559.08V26.06H563.13V24.15H567.18V25.81H571.23V25.63H575.28V27.28H579.33V25.28H583.38V32.35H587.44V31.32H591.49V29.06H595.54V32.09H599.59V42.33H603.64V36.29H607.69V49.08H611.74V48.47H615.79V49.06H619.85V45.9H623.9V47.66H627.95V50.25H632V51.35" style="vector-effect: none; fill: none; stroke: rgb(127, 127, 127); stroke-opacity: 1; stroke-width: 0px; opacity: 1;"/></g><g class="points"/><g class="text"/></g><g class="trace scatter trace0485c616-519c-4dc7-a2bf-9bc878eefafe" style="stroke-miterlimit: 2;"><g class="fills"><g><path class="js-fill" d="M0,34.77H4.05V34.77H8.1V34.77H12.15V34.77H16.21V34.77H20.26V27.85H24.31V12.75H28.36V28.88H32.41V13.12H36.46V85.28H40.51V12.75H44.56V12.75H48.62V12.75H52.67V12.75H56.72V12.75H60.77V12.75H64.82V12.75H68.87V12.75H72.92V12.75H76.97V12.75H81.03V12.75H85.08V12.75H89.13V12.75H93.18V12.75H97.23V12.75H101.28V12.75H105.33V12.75H109.38V12.75H113.44V12.75H117.49V12.75H121.54V12.75H125.59V12.75H129.64V12.75H133.69V13.59H137.74V16.6H141.79V12.77H145.85V12.76H149.9V12.8H153.95V16.62H158V17.14H162.05V15.87H166.1V16.83H170.15V17.37H174.21V23.61H178.26V21.47H182.31V12.76H186.36V12.77H190.41V12.77H194.46V12.77H198.51V17.09H202.56V16.79H206.62V15.97H210.67V16.13H214.72V15.64H218.77V33.06H222.82V33.3H226.87V29.83H230.92V24.65H234.97V21.52H239.03V21.56H243.08V17.25H247.13V18.74H251.18V12.76H255.23V12.75H259.28V12.75H263.33V12.75H267.38V12.75H271.44V26.86H275.49V27.56H279.54V28.02H283.59V28.35H287.64V25.99H291.69V24.28H295.74V22.23H299.79V24.92H303.85V28.99H307.9V27.39H311.95V29.62H316V29.48H320.05V26.38H324.1V16.97H328.15V25.48H332.21V18.75H336.26V17.6H340.31V16.56H344.36V22.41H348.41V20.84H352.46V21.93H356.51V22.46H360.56V19.56H364.62V16.15H368.67V18.49H372.72V14.21H376.77V12.77H380.82V15.92H384.87V12.85H388.92V19.83H392.97V47.29H397.03V44.96H401.08V42.07H405.13V42.23H409.18V37.28H413.23V38.8H417.28V35.34H421.33V34.84H425.38V35.62H429.44V13.5H433.49V14.25H437.54V12.75H441.59V12.76H445.64V12.79H449.69V12.77H453.74V12.76H457.79V12.97H461.85V12.8H465.9V13.18H469.95V12.75H474V12.75H478.05V12.75H482.1V20.92H486.15V15.12H490.21V12.75H494.26V12.75H498.31V16.61H502.36V17.44H506.41V20.35H510.46V34.67H514.51V24.76H518.56V33.2H522.62V27.05H526.67V15.21H530.72V17.95H534.77V20.42H538.82V23.08H542.87V30.69H546.92V29.12H550.97V27.76H555.03V26.26H559.08V26.06H563.13V24.15H567.18V25.81H571.23V25.63H575.28V27.28H579.33V25.28H583.38V32.35H587.44V31.32H591.49V29.06H595.54V32.09H599.59V42.33H603.64V36.29H607.69V49.08H611.74V48.47H615.79V49.06H619.85V45.9H623.9V47.66H627.95V50.25H632V51.35L632,51.35V50.25H627.95V47.66H623.9V45.9H619.85V49.06H615.79V48.47H611.74V49.08H607.69V36.29H603.64V42.33H599.59V32.09H595.54V29.06H591.49V31.32H587.44V32.35H583.38V25.28H579.33V27.28H575.28V25.63H571.23V25.81H567.18V24.15H563.13V26.06H559.08V26.26H555.03V27.76H550.97V29.12H546.92V30.7H542.87V32.75H538.82V27.66H534.77V21.71H530.72V15.22H526.67V27.06H522.62V33.2H518.56V24.76H514.51V34.68H510.46V20.36H506.41V17.44H502.36V16.61H498.31V12.75H494.26V12.75H490.21V15.12H486.15V20.92H482.1V12.75H478.05V12.75H474V12.75H469.95V13.18H465.9V12.8H461.85V12.97H457.79V12.77H453.74V12.77H449.69V12.79H445.64V12.77H441.59V12.75H437.54V14.25H433.49V13.5H429.44V35.62H425.38V34.84H421.33V35.35H417.28V38.8H413.23V37.28H409.18V42.23H405.13V42.07H401.08V44.96H397.03V47.29H392.97V19.83H388.92V12.85H384.87V15.92H380.82V12.77H376.77V14.21H372.72V18.49H368.67V16.15H364.62V19.56H360.56V22.46H356.51V21.93H352.46V20.84H348.41V22.41H344.36V16.56H340.31V17.6H336.26V18.75H332.21V25.48H328.15V16.97H324.1V26.38H320.05V29.48H316V29.62H311.95V27.39H307.9V28.99H303.85V24.92H299.79V22.23H295.74V24.28H291.69V25.99H287.64V28.35H283.59V28.03H279.54V27.56H275.49V26.86H271.44V12.75H267.38V12.75H263.33V12.75H259.28V12.75H255.23V12.76H251.18V18.74H247.13V17.25H243.08V21.56H239.03V21.52H234.97V24.65H230.92V29.83H226.87V33.3H222.82V33.06H218.77V15.64H214.72V16.13H210.67V15.97H206.62V16.79H202.56V17.09H198.51V12.77H194.46V12.77H190.41V12.77H186.36V12.76H182.31V21.47H178.26V23.61H174.21V17.37H170.15V16.83H166.1V15.87H162.05V17.14H158V16.62H153.95V12.8H149.9V12.76H145.85V12.77H141.79V16.6H137.74V13.59H133.69V12.75H129.64V12.75H125.59V12.75H121.54V12.75H117.49V12.75H113.44V12.75H109.38V12.75H105.33V12.75H101.28V12.75H97.23V12.75H93.18V12.75H89.13V12.75H85.08V12.75H81.03V12.75H76.97V12.75H72.92V12.75H68.87V12.75H64.82V12.75H60.77V12.75H56.72V12.75H52.67V12.75H48.62V12.75H44.56V12.75H40.51V85.28H36.46V13.12H32.41V28.88H28.36V12.75H24.31V27.85H20.26V56.8H16.21V56.8H12.15V56.8H8.1V56.8H4.05V56.8H0Z" style="fill: rgb(28, 190, 79); fill-opacity: 0.8; stroke-width: 0;"/></g></g><g class="errorbars"/><g class="lines"><path class="js-line" d="M0,56.8H4.05V56.8H8.1V56.8H12.15V56.8H16.21V56.8H20.26V27.85H24.31V12.75H28.36V28.88H32.41V13.12H36.46V85.28H40.51V12.75H44.56V12.75H48.62V12.75H52.67V12.75H56.72V12.75H60.77V12.75H64.82V12.75H68.87V12.75H72.92V12.75H76.97V12.75H81.03V12.75H85.08V12.75H89.13V12.75H93.18V12.75H97.23V12.75H101.28V12.75H105.33V12.75H109.38V12.75H113.44V12.75H117.49V12.75H121.54V12.75H125.59V12.75H129.64V12.75H133.69V13.59H137.74V16.6H141.79V12.77H145.85V12.76H149.9V12.8H153.95V16.62H158V17.14H162.05V15.87H166.1V16.83H170.15V17.37H174.21V23.61H178.26V21.47H182.31V12.76H186.36V12.77H190.41V12.77H194.46V12.77H198.51V17.09H202.56V16.79H206.62V15.97H210.67V16.13H214.72V15.64H218.77V33.06H222.82V33.3H226.87V29.83H230.92V24.65H234.97V21.52H239.03V21.56H243.08V17.25H247.13V18.74H251.18V12.76H255.23V12.75H259.28V12.75H263.33V12.75H267.38V12.75H271.44V26.86H275.49V27.56H279.54V28.03H283.59V28.35H287.64V25.99H291.69V24.28H295.74V22.23H299.79V24.92H303.85V28.99H307.9V27.39H311.95V29.62H316V29.48H320.05V26.38H324.1V16.97H328.15V25.48H332.21V18.75H336.26V17.6H340.31V16.56H344.36V22.41H348.41V20.84H352.46V21.93H356.51V22.46H360.56V19.56H364.62V16.15H368.67V18.49H372.72V14.21H376.77V12.77H380.82V15.92H384.87V12.85H388.92V19.83H392.97V47.29H397.03V44.96H401.08V42.07H405.13V42.23H409.18V37.28H413.23V38.8H417.28V35.35H421.33V34.84H425.38V35.62H429.44V13.5H433.49V14.25H437.54V12.75H441.59V12.77H445.64V12.79H449.69V12.77H453.74V12.77H457.79V12.97H461.85V12.8H465.9V13.18H469.95V12.75H474V12.75H478.05V12.75H482.1V20.92H486.15V15.12H490.21V12.75H494.26V12.75H498.31V16.61H502.36V17.44H506.41V20.36H510.46V34.68H514.51V24.76H518.56V33.2H522.62V27.06H526.67V15.22H530.72V21.71H534.77V27.66H538.82V32.75H542.87V30.7H546.92V29.12H550.97V27.76H555.03V26.26H559.08V26.06H563.13V24.15H567.18V25.81H571.23V25.63H575.28V27.28H579.33V25.28H583.38V32.35H587.44V31.32H591.49V29.06H595.54V32.09H599.59V42.33H603.64V36.29H607.69V49.08H611.74V48.47H615.79V49.06H619.85V45.9H623.9V47.66H627.95V50.25H632V51.35" style="vector-effect: none; fill: none; stroke: rgb(188, 189, 34); stroke-opacity: 1; stroke-width: 0px; opacity: 1;"/></g><g class="points"/><g class="text"/></g><g class="trace scatter traceb6d042e7-2f48-4b58-9aa9-208c29ace14e" style="stroke-miterlimit: 2;"><g class="fills"><g><path class="js-fill" d="M0,12.75H4.05V12.75H8.1V12.75H12.15V12.75H16.21V12.75H20.26V12.75H24.31V12.75H28.36V12.75H32.41V12.75H36.46V12.75H40.51V12.75H44.56V12.75H48.62V12.75H52.67V12.75H56.72V12.75H60.77V12.75H64.82V12.75H68.87V12.75H72.92V12.75H76.97V12.75H81.03V12.75H85.08V12.75H89.13V12.75H93.18V12.75H97.23V12.75H101.28V12.75H105.33V12.75H109.38V12.75H113.44V12.75H117.49V12.75H121.54V12.75H125.59V12.75H129.64V12.75H133.69V12.75H137.74V12.75H141.79V12.75H145.85V12.75H149.9V12.75H153.95V12.75H158V12.75H162.05V12.75H166.1V12.75H170.15V12.75H174.21V12.75H178.26V12.75H182.31V12.75H186.36V12.75H190.41V12.75H194.46V12.75H198.51V12.75H202.56V12.75H206.62V12.75H210.67V12.75H214.72V12.75H218.77V12.75H222.82V12.75H226.87V12.75H230.92V12.75H234.97V12.75H239.03V12.75H243.08V12.75H247.13V12.75H251.18V12.75H255.23V12.75H259.28V12.75H263.33V12.75H267.38V12.75H271.44V12.75H275.49V12.75H279.54V12.75H283.59V12.75H287.64V12.75H291.69V12.75H295.74V12.75H299.79V12.75H303.85V12.75H307.9V12.75H311.95V12.75H316V12.75H320.05V12.75H324.1V12.75H328.15V12.75H332.21V12.75H336.26V12.75H340.31V12.75H344.36V12.75H348.41V12.75H352.46V12.75H356.51V12.75H360.56V12.75H364.62V12.75H368.67V12.75H372.72V12.75H376.77V12.75H380.82V12.75H384.87V12.75H388.92V12.75H392.97V12.75H397.03V12.75H401.08V12.75H405.13V12.75H409.18V12.75H413.23V12.75H417.28V12.75H421.33V12.75H425.38V12.75H429.44V12.75H433.49V12.75H437.54V12.75H441.59V12.75H445.64V12.75H449.69V12.75H453.74V12.75H457.79V12.75H461.85V12.75H465.9V12.75H469.95V12.75H474V12.75H478.05V12.75H482.1V12.75H486.15V12.75H490.21V12.75H494.26V12.75H498.31V12.75H502.36V12.75H506.41V12.75H510.46V12.75H514.51V12.75H518.56V12.75H522.62V12.75H526.67V12.75H530.72V12.75H534.77V12.75H538.82V12.75H542.87V12.75H546.92V12.75H550.97V12.75H555.03V12.75H559.08V12.75H563.13V12.75H567.18V12.75H571.23V12.75H575.28V12.75H579.33V12.75H583.38V12.75H587.44V12.75H591.49V12.75H595.54V12.75H599.59V12.75H603.64V12.75H607.69V12.75H611.74V12.75H615.79V12.75H619.85V12.75H623.9V12.75H627.95V12.75H632V12.75L632,51.35V50.25H627.95V47.66H623.9V45.9H619.85V49.06H615.79V48.47H611.74V49.08H607.69V36.29H603.64V42.33H599.59V32.09H595.54V29.06H591.49V31.32H587.44V32.35H583.38V25.28H579.33V27.28H575.28V25.63H571.23V25.81H567.18V24.15H563.13V26.06H559.08V26.26H555.03V27.76H550.97V29.12H546.92V30.69H542.87V23.08H538.82V20.42H534.77V17.95H530.72V15.21H526.67V27.05H522.62V33.2H518.56V24.76H514.51V34.67H510.46V20.35H506.41V17.44H502.36V16.61H498.31V12.75H494.26V12.75H490.21V15.12H486.15V20.92H482.1V12.75H478.05V12.75H474V12.75H469.95V13.18H465.9V12.8H461.85V12.97H457.79V12.76H453.74V12.77H449.69V12.79H445.64V12.76H441.59V12.75H437.54V14.25H433.49V13.5H429.44V35.62H425.38V34.84H421.33V35.34H417.28V38.8H413.23V37.28H409.18V42.23H405.13V42.07H401.08V44.96H397.03V47.29H392.97V19.83H388.92V12.85H384.87V15.92H380.82V12.77H376.77V14.21H372.72V18.49H368.67V16.15H364.62V19.56H360.56V22.46H356.51V21.93H352.46V20.84H348.41V22.41H344.36V16.56H340.31V17.6H336.26V18.75H332.21V25.48H328.15V16.97H324.1V26.38H320.05V29.48H316V29.62H311.95V27.39H307.9V28.99H303.85V24.92H299.79V22.23H295.74V24.28H291.69V25.99H287.64V28.35H283.59V28.02H279.54V27.56H275.49V26.86H271.44V12.75H267.38V12.75H263.33V12.75H259.28V12.75H255.23V12.76H251.18V18.74H247.13V17.25H243.08V21.56H239.03V21.52H234.97V24.65H230.92V29.83H226.87V33.3H222.82V33.06H218.77V15.64H214.72V16.13H210.67V15.97H206.62V16.79H202.56V17.09H198.51V12.77H194.46V12.77H190.41V12.77H186.36V12.76H182.31V21.47H178.26V23.61H174.21V17.37H170.15V16.83H166.1V15.87H162.05V17.14H158V16.62H153.95V12.8H149.9V12.76H145.85V12.77H141.79V16.6H137.74V13.59H133.69V12.75H129.64V12.75H125.59V12.75H121.54V12.75H117.49V12.75H113.44V12.75H109.38V12.75H105.33V12.75H101.28V12.75H97.23V12.75H93.18V12.75H89.13V12.75H85.08V12.75H81.03V12.75H76.97V12.75H72.92V12.75H68.87V12.75H64.82V12.75H60.77V12.75H56.72V12.75H52.67V12.75H48.62V12.75H44.56V12.75H40.51V85.28H36.46V13.12H32.41V28.88H28.36V12.75H24.31V27.85H20.26V34.77H16.21V34.77H12.15V34.77H8.1V34.77H4.05V34.77H0Z" style="fill: rgb(196, 69, 28); fill-opacity: 0.8; stroke-width: 0;"/></g></g><g class="errorbars"/><g class="lines"><path class="js-line" d="M0,34.77H4.05V34.77H8.1V34.77H12.15V34.77H16.21V34.77H20.26V27.85H24.31V12.75H28.36V28.88H32.41V13.12H36.46V85.28H40.51V12.75H44.56V12.75H48.62V12.75H52.67V12.75H56.72V12.75H60.77V12.75H64.82V12.75H68.87V12.75H72.92V12.75H76.97V12.75H81.03V12.75H85.08V12.75H89.13V12.75H93.18V12.75H97.23V12.75H101.28V12.75H105.33V12.75H109.38V12.75H113.44V12.75H117.49V12.75H121.54V12.75H125.59V12.75H129.64V12.75H133.69V13.59H137.74V16.6H141.79V12.77H145.85V12.76H149.9V12.8H153.95V16.62H158V17.14H162.05V15.87H166.1V16.83H170.15V17.37H174.21V23.61H178.26V21.47H182.31V12.76H186.36V12.77H190.41V12.77H194.46V12.77H198.51V17.09H202.56V16.79H206.62V15.97H210.67V16.13H214.72V15.64H218.77V33.06H222.82V33.3H226.87V29.83H230.92V24.65H234.97V21.52H239.03V21.56H243.08V17.25H247.13V18.74H251.18V12.76H255.23V12.75H259.28V12.75H263.33V12.75H267.38V12.75H271.44V26.86H275.49V27.56H279.54V28.02H283.59V28.35H287.64V25.99H291.69V24.28H295.74V22.23H299.79V24.92H303.85V28.99H307.9V27.39H311.95V29.62H316V29.48H320.05V26.38H324.1V16.97H328.15V25.48H332.21V18.75H336.26V17.6H340.31V16.56H344.36V22.41H348.41V20.84H352.46V21.93H356.51V22.46H360.56V19.56H364.62V16.15H368.67V18.49H372.72V14.21H376.77V12.77H380.82V15.92H384.87V12.85H388.92V19.83H392.97V47.29H397.03V44.96H401.08V42.07H405.13V42.23H409.18V37.28H413.23V38.8H417.28V35.34H421.33V34.84H425.38V35.62H429.44V13.5H433.49V14.25H437.54V12.75H441.59V12.76H445.64V12.79H449.69V12.77H453.74V12.76H457.79V12.97H461.85V12.8H465.9V13.18H469.95V12.75H474V12.75H478.05V12.75H482.1V20.92H486.15V15.12H490.21V12.75H494.26V12.75H498.31V16.61H502.36V17.44H506.41V20.35H510.46V34.67H514.51V24.76H518.56V33.2H522.62V27.05H526.67V15.21H530.72V17.95H534.77V20.42H538.82V23.08H542.87V30.69H546.92V29.12H550.97V27.76H555.03V26.26H559.08V26.06H563.13V24.15H567.18V25.81H571.23V25.63H575.28V27.28H579.33V25.28H583.38V32.35H587.44V31.32H591.49V29.06H595.54V32.09H599.59V42.33H603.64V36.29H607.69V49.08H611.74V48.47H615.79V49.06H619.85V45.9H623.9V47.66H627.95V50.25H632V51.35" style="vector-effect: none; fill: none; stroke: rgb(23, 190, 207); stroke-opacity: 1; stroke-width: 0px; opacity: 1;"/></g><g class="points"/><g class="text"/></g><g class="trace scatter trace9cb4d6ea-9a0b-4b49-a535-3b3537a07432" style="stroke-miterlimit: 2;"><g class="fills"/><g class="errorbars"/><g class="lines"><path class="js-line" d="M0,12.75H4.05V12.75H8.1V12.75H12.15V12.75H16.21V12.75H20.26V12.75H24.31V12.75H28.36V12.75H32.41V12.75H36.46V12.75H40.51V12.75H44.56V12.75H48.62V12.75H52.67V12.75H56.72V12.75H60.77V12.75H64.82V12.75H68.87V12.75H72.92V12.75H76.97V12.75H81.03V12.75H85.08V12.75H89.13V12.75H93.18V12.75H97.23V12.75H101.28V12.75H105.33V12.75H109.38V12.75H113.44V12.75H117.49V12.75H121.54V12.75H125.59V12.75H129.64V12.75H133.69V12.75H137.74V12.75H141.79V12.75H145.85V12.75H149.9V12.75H153.95V12.75H158V12.75H162.05V12.75H166.1V12.75H170.15V12.75H174.21V12.75H178.26V12.75H182.31V12.75H186.36V12.75H190.41V12.75H194.46V12.75H198.51V12.75H202.56V12.75H206.62V12.75H210.67V12.75H214.72V12.75H218.77V12.75H222.82V12.75H226.87V12.75H230.92V12.75H234.97V12.75H239.03V12.75H243.08V12.75H247.13V12.75H251.18V12.75H255.23V12.75H259.28V12.75H263.33V12.75H267.38V12.75H271.44V12.75H275.49V12.75H279.54V12.75H283.59V12.75H287.64V12.75H291.69V12.75H295.74V12.75H299.79V12.75H303.85V12.75H307.9V12.75H311.95V12.75H316V12.75H320.05V12.75H324.1V12.75H328.15V12.75H332.21V12.75H336.26V12.75H340.31V12.75H344.36V12.75H348.41V12.75H352.46V12.75H356.51V12.75H360.56V12.75H364.62V12.75H368.67V12.75H372.72V12.75H376.77V12.75H380.82V12.75H384.87V12.75H388.92V12.75H392.97V12.75H397.03V12.75H401.08V12.75H405.13V12.75H409.18V12.75H413.23V12.75H417.28V12.75H421.33V12.75H425.38V12.75H429.44V12.75H433.49V12.75H437.54V12.75H441.59V12.75H445.64V12.75H449.69V12.75H453.74V12.75H457.79V12.75H461.85V12.75H465.9V12.75H469.95V12.75H474V12.75H478.05V12.75H482.1V12.75H486.15V12.75H490.21V12.75H494.26V12.75H498.31V12.75H502.36V12.75H506.41V12.75H510.46V12.75H514.51V12.75H518.56V12.75H522.62V12.75H526.67V12.75H530.72V12.75H534.77V12.75H538.82V12.75H542.87V12.75H546.92V12.75H550.97V12.75H555.03V12.75H559.08V12.75H563.13V12.75H567.18V12.75H571.23V12.75H575.28V12.75H579.33V12.75H583.38V12.75H587.44V12.75H591.49V12.75H595.54V12.75H599.59V12.75H603.64V12.75H607.69V12.75H611.74V12.75H615.79V12.75H619.85V12.75H623.9V12.75H627.95V12.75H632V12.75" style="vector-effect: none; fill: none; stroke: rgb(31, 119, 180); stroke-opacity: 1; stroke-width: 0px; opacity: 1;"/></g><g class="points"/><g class="text"/></g></g></g><g class="overplot"/><path class="xlines-above crisp" d="M0,0" style="fill: none;"/><path class="ylines-above crisp" d="M0,0" style="fill: none;"/><g class="overlines-above"/><g class="xaxislayer-above"><g class="xtick"><text text-anchor="middle" x="0" y="333" transform="translate(39.74,0)" style="font-family: 'Open Sans', verdana, arial, sans-serif; font-size: 12px; fill: rgb(42, 63, 95); fill-opacity: 1; white-space: pre; opacity: 1;">Jan 2020</text></g><g class="xtick"><text text-anchor="middle" x="0" y="333" style="font-family: 'Open Sans', verdana, arial, sans-serif; font-size: 12px; fill: rgb(42, 63, 95); fill-opacity: 1; white-space: pre; opacity: 1;" transform="translate(145.07,0)">Jul 2020</text></g><g class="xtick"><text text-anchor="middle" x="0" y="333" style="font-family: 'Open Sans', verdana, arial, sans-serif; font-size: 12px; fill: rgb(42, 63, 95); fill-opacity: 1; white-space: pre; opacity: 1;" transform="translate(251.56,0)">Jan 2021</text></g><g class="xtick"><text text-anchor="middle" x="0" y="333" style="font-family: 'Open Sans', verdana, arial, sans-serif; font-size: 12px; fill: rgb(42, 63, 95); fill-opacity: 1; white-space: pre; opacity: 1;" transform="translate(356.32,0)">Jul 2021</text></g><g class="xtick"><text text-anchor="middle" x="0" y="333" style="font-family: 'Open Sans', verdana, arial, sans-serif; font-size: 12px; fill: rgb(42, 63, 95); fill-opacity: 1; white-space: pre; opacity: 1;" transform="translate(462.81,0)">Jan 2022</text></g><g class="xtick"><text text-anchor="middle" x="0" y="333" style="font-family: 'Open Sans', verdana, arial, sans-serif; font-size: 12px; fill: rgb(42, 63, 95); fill-opacity: 1; white-space: pre; opacity: 1;" transform="translate(567.56,0)">Jul 2022</text></g></g><g class="yaxislayer-above"><g class="ytick"><text text-anchor="end" x="37" y="4.199999999999999" transform="translate(0,320)" style="font-family: 'Open Sans', verdana, arial, sans-serif; font-size: 12px; fill: rgb(42, 63, 95); fill-opacity: 1; white-space: pre; opacity: 1;">0</text></g><g class="ytick"><text text-anchor="end" x="37" y="4.199999999999999" style="font-family: 'Open Sans', verdana, arial, sans-serif; font-size: 12px; fill: rgb(42, 63, 95); fill-opacity: 1; white-space: pre; opacity: 1;" transform="translate(0,271.55)">0.2</text></g><g class="ytick"><text text-anchor="end" x="37" y="4.199999999999999" style="font-family: 'Open Sans', verdana, arial, sans-serif; font-size: 12px; fill: rgb(42, 63, 95); fill-opacity: 1; white-space: pre; opacity: 1;" transform="translate(0,223.1)">0.4</text></g><g class="ytick"><text text-anchor="end" x="37" y="4.199999999999999" style="font-family: 'Open Sans', verdana, arial, sans-serif; font-size: 12px; fill: rgb(42, 63, 95); fill-opacity: 1; white-space: pre; opacity: 1;" transform="translate(0,174.65)">0.6</text></g><g class="ytick"><text text-anchor="end" x="37" y="4.199999999999999" style="font-family: 'Open Sans', verdana, arial, sans-serif; font-size: 12px; fill: rgb(42, 63, 95); fill-opacity: 1; white-space: pre; opacity: 1;" transform="translate(0,126.2)">0.8</text></g><g class="ytick"><text text-anchor="end" x="37" y="4.199999999999999" style="font-family: 'Open Sans', verdana, arial, sans-serif; font-size: 12px; fill: rgb(42, 63, 95); fill-opacity: 1; white-space: pre; opacity: 1;" transform="translate(0,77.75)">1</text></g></g><g class="overaxes-above"/></g></g><g class="polarlayer"/><g class="smithlayer"/><g class="ternarylayer"/><g class="geolayer"/><g class="funnelarealayer"/><g class="pielayer"/><g class="iciclelayer"/><g class="treemaplayer"/><g class="sunburstlayer"/><g class="glimages"/><defs id="topdefs-c49a49"><g class="clips"/><clipPath id="legendc49a49"><rect width="617" height="48" x="0" y="0"/></clipPath></defs><g class="layer-above"><g class="imagelayer"/><g class="shapelayer"/></g><g class="infolayer"><g class="legend" pointer-events="all" transform="translate(53,11.899999999999991)"><rect class="bg" shape-rendering="crispEdges" style="stroke: rgb(68, 68, 68); stroke-opacity: 1; fill: rgb(255, 255, 255); fill-opacity: 1; stroke-width: 0px;" width="617" height="48" x="0" y="0"/><g class="scrollbox" transform="" clip-path="url(#legendc49a49)"><g class="groups"><g class="traces" transform="translate(0,14.5)" style="opacity: 1;"><text class="legendtext" text-anchor="start" x="40" y="4.680000000000001" style="font-family: 'Open Sans', verdana, arial, sans-serif; font-size: 12px; fill: rgb(42, 63, 95); fill-opacity: 1; white-space: pre;">SPY</text><g class="layers"><g class="legendfill"><path class="js-fill" d="M5,-2h30v6h-30z" style="stroke-width: 0; fill: rgb(170, 13, 254); fill-opacity: 0.8;"/></g><g class="legendlines"><path class="js-line" d="M5,-2h30" style="fill: none; stroke: rgb(31, 119, 180); stroke-opacity: 1; stroke-width: 0px;"/></g><g class="legendsymbols"><g class="legendpoints"/></g></g><rect class="legendtoggle" x="0" y="-9.5" width="65.328125" height="19" style="fill: rgb(0, 0, 0); fill-opacity: 0;"/></g><g class="traces" transform="translate(68.6875,14.5)" style="opacity: 1;"><text class="legendtext" text-anchor="start" x="40" y="4.680000000000001" style="font-family: 'Open Sans', verdana, arial, sans-serif; font-size: 12px; fill: rgb(42, 63, 95); fill-opacity: 1; white-space: pre;">TLT</text><g class="layers"><g class="legendfill"><path class="js-fill" d="M5,-2h30v6h-30z" style="stroke-width: 0; fill: rgb(50, 131, 254); fill-opacity: 0.8;"/></g><g class="legendlines"><path class="js-line" d="M5,-2h30" style="fill: none; stroke: rgb(255, 127, 14); stroke-opacity: 1; stroke-width: 0px;"/></g><g class="legendsymbols"><g class="legendpoints"/></g></g><rect class="legendtoggle" x="0" y="-9.5" width="63.96875" height="19" style="fill: rgb(0, 0, 0); fill-opacity: 0;"/></g><g class="traces" transform="translate(137.375,14.5)" style="opacity: 1;"><text class="legendtext" text-anchor="start" x="40" y="4.680000000000001" style="font-family: 'Open Sans', verdana, arial, sans-serif; font-size: 12px; fill: rgb(42, 63, 95); fill-opacity: 1; white-space: pre;">XLF</text><g class="layers"><g class="legendfill"><path class="js-fill" d="M5,-2h30v6h-30z" style="stroke-width: 0; fill: rgb(133, 102, 13); fill-opacity: 0.8;"/></g><g class="legendlines"><path class="js-line" d="M5,-2h30" style="fill: none; stroke: rgb(44, 160, 44); stroke-opacity: 1; stroke-width: 0px;"/></g><g class="legendsymbols"><g class="legendpoints"/></g></g><rect class="legendtoggle" x="0" y="-9.5" width="64.296875" height="19" style="fill: rgb(0, 0, 0); fill-opacity: 0;"/></g><g class="traces" transform="translate(206.0625,14.5)" style="opacity: 1;"><text class="legendtext" text-anchor="start" x="40" y="4.680000000000001" style="font-family: 'Open Sans', verdana, arial, sans-serif; font-size: 12px; fill: rgb(42, 63, 95); fill-opacity: 1; white-space: pre;">XLE</text><g class="layers"><g class="legendfill"><path class="js-fill" d="M5,-2h30v6h-30z" style="stroke-width: 0; fill: rgb(120, 42, 182); fill-opacity: 0.8;"/></g><g class="legendlines"><path class="js-line" d="M5,-2h30" style="fill: none; stroke: rgb(220, 57, 18); stroke-opacity: 1; stroke-width: 0px;"/></g><g class="legendsymbols"><g class="legendpoints"/></g></g><rect class="legendtoggle" x="0" y="-9.5" width="65" height="19" style="fill: rgb(0, 0, 0); fill-opacity: 0;"/></g><g class="traces" transform="translate(274.75,14.5)" style="opacity: 1;"><text class="legendtext" text-anchor="start" x="40" y="4.680000000000001" style="font-family: 'Open Sans', verdana, arial, sans-serif; font-size: 12px; fill: rgb(42, 63, 95); fill-opacity: 1; white-space: pre;">XLU</text><g class="layers"><g class="legendfill"><path class="js-fill" d="M5,-2h30v6h-30z" style="stroke-width: 0; fill: rgb(86, 86, 86); fill-opacity: 0.8;"/></g><g class="legendlines"><path class="js-line" d="M5,-2h30" style="fill: none; stroke: rgb(148, 103, 189); stroke-opacity: 1; stroke-width: 0px;"/></g><g class="legendsymbols"><g class="legendpoints"/></g></g><rect class="legendtoggle" x="0" y="-9.5" width="66.1875" height="19" style="fill: rgb(0, 0, 0); fill-opacity: 0;"/></g><g class="traces" transform="translate(343.4375,14.5)" style="opacity: 1;"><text class="legendtext" text-anchor="start" x="40" y="4.680000000000001" style="font-family: 'Open Sans', verdana, arial, sans-serif; font-size: 12px; fill: rgb(42, 63, 95); fill-opacity: 1; white-space: pre;">XLK</text><g class="layers"><g class="legendfill"><path class="js-fill" d="M5,-2h30v6h-30z" style="stroke-width: 0; fill: rgb(28, 131, 86); fill-opacity: 0.8;"/></g><g class="legendlines"><path class="js-line" d="M5,-2h30" style="fill: none; stroke: rgb(140, 86, 75); stroke-opacity: 1; stroke-width: 0px;"/></g><g class="legendsymbols"><g class="legendpoints"/></g></g><rect class="legendtoggle" x="0" y="-9.5" width="65.71875" height="19" style="fill: rgb(0, 0, 0); fill-opacity: 0;"/></g><g class="traces" transform="translate(412.125,14.5)" style="opacity: 1;"><text class="legendtext" text-anchor="start" x="40" y="4.680000000000001" style="font-family: 'Open Sans', verdana, arial, sans-serif; font-size: 12px; fill: rgb(42, 63, 95); fill-opacity: 1; white-space: pre;">XLB</text><g class="layers"><g class="legendfill"><path class="js-fill" d="M5,-2h30v6h-30z" style="stroke-width: 0; fill: rgb(22, 255, 50); fill-opacity: 0.8;"/></g><g class="legendlines"><path class="js-line" d="M5,-2h30" style="fill: none; stroke: rgb(227, 119, 194); stroke-opacity: 1; stroke-width: 0px;"/></g><g class="legendsymbols"><g class="legendpoints"/></g></g><rect class="legendtoggle" x="0" y="-9.5" width="65.640625" height="19" style="fill: rgb(0, 0, 0); fill-opacity: 0;"/></g><g class="traces" transform="translate(480.8125,14.5)" style="opacity: 1;"><text class="legendtext" text-anchor="start" x="40" y="4.680000000000001" style="font-family: 'Open Sans', verdana, arial, sans-serif; font-size: 12px; fill: rgb(42, 63, 95); fill-opacity: 1; white-space: pre;">XLP</text><g class="layers"><g class="legendfill"><path class="js-fill" d="M5,-2h30v6h-30z" style="stroke-width: 0; fill: rgb(247, 225, 160); fill-opacity: 0.8;"/></g><g class="legendlines"><path class="js-line" d="M5,-2h30" style="fill: none; stroke: rgb(127, 127, 127); stroke-opacity: 1; stroke-width: 0px;"/></g><g class="legendsymbols"><g class="legendpoints"/></g></g><rect class="legendtoggle" x="0" y="-9.5" width="64.640625" height="19" style="fill: rgb(0, 0, 0); fill-opacity: 0;"/></g><g class="traces" transform="translate(549.5,14.5)" style="opacity: 1;"><text class="legendtext" text-anchor="start" x="40" y="4.680000000000001" style="font-family: 'Open Sans', verdana, arial, sans-serif; font-size: 12px; fill: rgb(42, 63, 95); fill-opacity: 1; white-space: pre;">XLY</text><g class="layers"><g class="legendfill"><path class="js-fill" d="M5,-2h30v6h-30z" style="stroke-width: 0; fill: rgb(226, 226, 226); fill-opacity: 0.8;"/></g><g class="legendlines"><path class="js-line" d="M5,-2h30" style="fill: none; stroke: rgb(188, 189, 34); stroke-opacity: 1; stroke-width: 0px;"/></g><g class="legendsymbols"><g class="legendpoints"/></g></g><rect class="legendtoggle" x="0" y="-9.5" width="64.796875" height="19" style="fill: rgb(0, 0, 0); fill-opacity: 0;"/></g><g class="traces" transform="translate(0,33.5)" style="opacity: 1;"><text class="legendtext" text-anchor="start" x="40" y="4.680000000000001" style="font-family: 'Open Sans', verdana, arial, sans-serif; font-size: 12px; fill: rgb(42, 63, 95); fill-opacity: 1; white-space: pre;">XLI</text><g class="layers"><g class="legendfill"><path class="js-fill" d="M5,-2h30v6h-30z" style="stroke-width: 0; fill: rgb(28, 190, 79); fill-opacity: 0.8;"/></g><g class="legendlines"><path class="js-line" d="M5,-2h30" style="fill: none; stroke: rgb(23, 190, 207); stroke-opacity: 1; stroke-width: 0px;"/></g><g class="legendsymbols"><g class="legendpoints"/></g></g><rect class="legendtoggle" x="0" y="-9.5" width="62.453125" height="19" style="fill: rgb(0, 0, 0); fill-opacity: 0;"/></g><g class="traces" transform="translate(68.6875,33.5)" style="opacity: 1;"><text class="legendtext" text-anchor="start" x="40" y="4.680000000000001" style="font-family: 'Open Sans', verdana, arial, sans-serif; font-size: 12px; fill: rgb(42, 63, 95); fill-opacity: 1; white-space: pre;">XLV</text><g class="layers"><g class="legendfill"><path class="js-fill" d="M5,-2h30v6h-30z" style="stroke-width: 0; fill: rgb(196, 69, 28); fill-opacity: 0.8;"/></g><g class="legendlines"><path class="js-line" d="M5,-2h30" style="fill: none; stroke: rgb(31, 119, 180); stroke-opacity: 1; stroke-width: 0px;"/></g><g class="legendsymbols"><g class="legendpoints"/></g></g><rect class="legendtoggle" x="0" y="-9.5" width="65.609375" height="19" style="fill: rgb(0, 0, 0); fill-opacity: 0;"/></g></g></g><rect class="scrollbar" rx="20" ry="3" width="0" height="0" style="fill: rgb(128, 139, 164); fill-opacity: 1;" x="0" y="0"/></g><g class="g-gtitle"/><g class="g-xtitle"/><g class="g-ytitle"/></g></svg>