<svg class="main-svg" xmlns="http://www.w3.org/2000/svg" xmlns:xlink="http://www.w3.org/1999/xlink" width="750" height="670" style="" viewBox="0 0 750 670"><rect x="0" y="0" width="750" height="670" style="fill: rgb(33, 34, 38); fill-opacity: 1;"/><defs id="defs-a67e0b"><g class="clips"><clipPath id="clipa67e0bxyplot" class="plotclip"><rect width="684" height="256.2313432835821"/></clipPath><clipPath id="clipa67e0bx2y2plot" class="plotclip"><rect width="684" height="256.2313432835821"/></clipPath><clipPath class="axesclip" id="clipa67e0bx"><rect x="36" y="0" width="684" height="670"/></clipPath><clipPath class="axesclip" id="clipa67e0by"><rect x="0" y="73" width="750" height="256.2313432835821"/></clipPath><clipPath class="axesclip" id="clipa67e0bxy"><rect x="36" y="73" width="684" height="256.2313432835821"/></clipPath><clipPath class="axesclip" id="clipa67e0by2"><rect x="0" y="361.7686567164179" width="750" height="256.2313432835821"/></clipPath><clipPath class="axesclip" id="clipa67e0bxy2"><rect x="36" y="361.7686567164179" width="684" height="256.2313432835821"/></clipPath><clipPath class="axesclip" id="clipa67e0bx2"><rect x="36" y="0" width="684" height="670"/></clipPath><clipPath class="axesclip" id="clipa67e0bx2y"><rect x="36" y="73" width="684" height="256.2313432835821"/></clipPath><clipPath class="axesclip" id="clipa67e0bx2y2"><rect x="36" y="361.7686567164179" width="684" height="256.2313432835821"/></clipPath></g><g class="gradients"/><g class="patterns"/></defs><g class="bglayer"/><g class="layer-below"><g class="imagelayer"/><g class="shapelayer"/></g><g class="cartesianlayer"><g class="subplot xy"><g class="layer-subplot"><g class="shapelayer"/><g class="imagelayer"/></g><g class="minor-gridlayer"><g class="x"/><g class="y"/></g><g class="gridlayer"><g class="x"><path class="xgrid crisp" transform="translate(40.5,0)" d="M0,73v256.2313432835821" style="stroke: rgb(49, 52, 57); stroke-opacity: 1; stroke-width: 1px;"/><path class="xgrid crisp" transform="translate(180,0)" d="M0,73v256.2313432835821" style="stroke: rgb(49, 52, 57); stroke-opacity: 1; stroke-width: 1px;"/><path class="xgrid crisp" transform="translate(310.5,0)" d="M0,73v256.2313432835821" style="stroke: rgb(49, 52, 57); stroke-opacity: 1; stroke-width: 1px;"/><path class="xgrid crisp" transform="translate(450,0)" d="M0,73v256.2313432835821" style="stroke: rgb(49, 52, 57); stroke-opacity: 1; stroke-width: 1px;"/><path class="xgrid crisp" transform="translate(585,0)" d="M0,73v256.2313432835821" style="stroke: rgb(49, 52, 57); stroke-opacity: 1; stroke-width: 1px;"/></g><g class="y"><path class="ygrid crisp" transform="translate(0,315.15999999999997)" d="M36,0h684" style="stroke: rgb(49, 52, 57); stroke-opacity: 1; stroke-width: 1px;"/><path class="ygrid crisp" transform="translate(0,272.1)" d="M36,0h684" style="stroke: rgb(49, 52, 57); stroke-opacity: 1; stroke-width: 1px;"/><path class="ygrid crisp" transform="translate(0,229.04)" d="M36,0h684" style="stroke: rgb(49, 52, 57); stroke-opacity: 1; stroke-width: 1px;"/><path class="ygrid crisp" transform="translate(0,185.98000000000002)" d="M36,0h684" style="stroke: rgb(49, 52, 57); stroke-opacity: 1; stroke-width: 1px;"/><path class="ygrid crisp" transform="translate(0,142.91)" d="M36,0h684" style="stroke: rgb(49, 52, 57); stroke-opacity: 1; stroke-width: 1px;"/><path class="ygrid crisp" transform="translate(0,99.85)" d="M36,0h684" style="stroke: rgb(49, 52, 57); stroke-opacity: 1; stroke-width: 1px;"/></g></g><g class="zerolinelayer"/><path class="xlines-below"/><path class="ylines-below"/><g class="overlines-below"/><g class="xaxislayer-below"/><g class="yaxislayer-below"/><g class="overaxes-below"/><g class="plot" transform="translate(36,73)" clip-path="url(#clipa67e0bxyplot)"><g class="scatterlayer mlayer"><g class="trace scatter trace3221b3f3-b107-4b49-9e88-05592fe56c64" style="stroke-miterlimit: 2; opacity: 1;"><g class="fills"/><g class="errorbars"/><g class="lines"><path class="js-line" d="M0,147.7L4.5,147.42L9,156.66L13.5,141.19L18,138.35L22.5,138.33L27,122.91L31.5,105.93L36,109.54L40.5,118.18L45,105.8L49.5,111.36L54,104.69L58.5,106.77L63,77.33L67.5,78.22L72,81.81L76.5,72.97L81,72.38L85.5,82.56L90,84.66L94.5,80.86L99,83.66L103.5,95.47L108,93.79L112.5,97.14L117,87.28L121.5,73.8L126,54.47L130.5,56.28L135,48L139.5,54.82L144,53L153,57.27L157.5,62.12L162,43.5L166.5,38.49L175.5,32.66L180,21.83L184.5,33.03L189,17.89L193.5,12.81L198,17.62L202.5,13.41L207,31.61L211.5,29.68L216,40.2L220.5,20.74L225,42.64L229.5,43.71L234,40.35L238.5,41.36L243,30.1L252,55.2L256.5,77.64L261,79.19L265.5,84.02L270,87.16L274.5,88.76L279,75.53L283.5,79.05L288,80.45L292.5,66.52L297,64.64L301.5,73.79L306,108.32L310.5,116.26L319.5,116.79L324,243.42L328.5,217.89L333,233.53L337.5,225.27L342,241.54L346.5,232.45L351,231.89L355.5,190.87L360,190.54L364.5,191.13L369,206.41L373.5,181.17L378,167.46L382.5,169.77L387,168.25L396,188.67L400.5,202.46L405,180.59L409.5,180.21L418.5,164.92L423,167.52L427.5,161.74L432,165.03L436.5,144.33L441,148.44L445.5,141.65L450,143.03L454.5,161.83L459,162.11L463.5,157.28L468,162.71L472.5,162.82L477,171.45L481.5,151.01L486,151.9L490.5,144.94L495,147.88L499.5,161.12L504,161.19L508.5,150.99L513,137.53L517.5,132.32L522,131.5L531,121.78L535.5,121.28L540,78.48L544.5,84.62L549,75.74L553.5,70.41L558,74.33L562.5,73.68L567,69.78L571.5,58.34L576,28.94L580.5,33.63L585,44.34L589.5,80.4L594,87.06L598.5,78.33L607.5,38.32L612,55.78L616.5,53.68L621,41.03L625.5,38.63L630,38.52L634.5,47.39L639,66.39L643.5,62.05L648,60.9L652.5,78.94L657,73.92L661.5,77.02L666,62.12L670.5,47.27L675,51L679.5,39.75L684,50.06" style="vector-effect: none; fill: none; stroke: rgb(123, 104, 238); stroke-opacity: 1; stroke-width: 2px; opacity: 1;"/></g><g class="points"/><g class="text"/></g><g class="trace scatter trace6a278703-ec44-486d-b324-cbb446a6f63f" style="stroke-miterlimit: 2; opacity: 1;"><g class="fills"/><g class="errorbars"/><g class="lines"><path class="js-line" d="M40.5,132.62L58.5,116.19L63,110.08L67.5,104.07L72,99.96L85.5,89.39L90,87.27L94.5,84.22L99,82.12L103.5,80.99L108,82.64L112.5,84.53L117,85.08L121.5,85.16L126,83.37L130.5,80.74L135,77.07L144,71.4L148.5,67.37L166.5,52.3L171,50.42L184.5,43.26L189,39.75L202.5,26.69L207,25.5L211.5,24.62L216,25.07L220.5,23.88L225,25.96L229.5,27.03L234,29.28L238.5,32.13L243,33.38L252,38.59L256.5,43.39L261,47.29L265.5,53.61L279,66.09L283.5,69.86L288,74.89L292.5,77.35L297,78.3L301.5,77.91L319.5,89.82L324,106.61L333,135.8L337.5,151.68L346.5,185.23L351,197.59L364.5,219.85L369,216.15L373.5,212.48L378,205.87L382.5,200.32L387,192.99L396,183.31L400.5,184.47L409.5,182.39L414,179.04L418.5,177.42L423,177.42L432,176.3L436.5,172.85L441,168.82L445.5,162.74L450,158.99L454.5,157.15L463.5,155.3L468,154.82L477,155.57L481.5,156.23L499.5,157.32L504,157.23L508.5,156.6L513,154.08L517.5,151.03L522,147.04L535.5,139.24L540,132.3L558,101.72L562.5,95.86L571.5,82.84L576,73.56L580.5,64.79L585,61.38L589.5,60.96L594,62.09L598.5,62.88L603,61.28L607.5,57.74L612,56.34L616.5,55.88L621,57.09L625.5,57.59L630,57L634.5,53.7L639,51.64L643.5,50.01L648,50.27L652.5,54.33L657,56.15L666,60.59L670.5,61.45L675,62.7L679.5,61.94L684,60.3" style="vector-effect: none; fill: none; stroke: rgb(123, 104, 238); stroke-opacity: 0.7; stroke-width: 2px; opacity: 1;"/></g><g class="points"/><g class="text"/></g></g></g><g class="overplot"/><path class="xlines-above crisp" d="M0,0" style="fill: none;"/><path class="ylines-above crisp" d="M0,0" style="fill: none;"/><g class="overlines-above"/><g class="xaxislayer-above"/><g class="yaxislayer-above"><g class="ytick"><text text-anchor="end" x="35" y="4.199999999999999" transform="translate(0,315.15999999999997)" style="font-family: 'Open Sans', verdana, arial, sans-serif; font-size: 12px; fill: rgb(214, 223, 239); fill-opacity: 1; white-space: pre; opacity: 1;">5k</text></g><g class="ytick"><text text-anchor="end" x="35" y="4.199999999999999" style="font-family: 'Open Sans', verdana, arial, sans-serif; font-size: 12px; fill: rgb(214, 223, 239); fill-opacity: 1; white-space: pre; opacity: 1;" transform="translate(0,272.1)">6k</text></g><g class="ytick"><text text-anchor="end" x="35" y="4.199999999999999" style="font-family: 'Open Sans', verdana, arial, sans-serif; font-size: 12px; fill: rgb(214, 223, 239); fill-opacity: 1; white-space: pre; opacity: 1;" transform="translate(0,229.04)">7k</text></g><g class="ytick"><text text-anchor="end" x="35" y="4.199999999999999" style="font-family: 'Open Sans', verdana, arial, sans-serif; font-size: 12px; fill: rgb(214, 223, 239); fill-opacity: 1; white-space: pre; opacity: 1;" transform="translate(0,185.98000000000002)">8k</text></g><g class="ytick"><text text-anchor="end" x="35" y="4.199999999999999" style="font-family: 'Open Sans', verdana, arial, sans-serif; font-size: 12px; fill: rgb(214, 223, 239); fill-opacity: 1; white-space: pre; opacity: 1;" transform="translate(0,142.91)">9k</text></g><g class="ytick"><text text-anchor="end" x="35" y="4.199999999999999" style="font-family: 'Open Sans', verdana, arial, sans-serif; font-size: 12px; fill: rgb(214, 223, 239); fill-opacity: 1; white-space: pre; opacity: 1;" transform="translate(0,99.85)">10k</text></g></g><g class="overaxes-above"/></g><g class="subplot x2y2"><g class="layer-subplot"><g class="shapelayer"/><g class="imagelayer"/></g><g class="minor-gridlayer"><g class="x2"/><g class="y2"/></g><g class="gridlayer"><g class="x2"><path class="x2grid crisp" transform="translate(40.5,0)" d="M0,361.7686567164179v256.2313432835821" style="stroke: rgb(49, 52, 57); stroke-opacity: 1; stroke-width: 1px;"/><path class="x2grid crisp" transform="translate(180,0)" d="M0,361.7686567164179v256.2313432835821" style="stroke: rgb(49, 52, 57); stroke-opacity: 1; stroke-width: 1px;"/><path class="x2grid crisp" transform="translate(310.5,0)" d="M0,361.7686567164179v256.2313432835821" style="stroke: rgb(49, 52, 57); stroke-opacity: 1; stroke-width: 1px;"/><path class="x2grid crisp" transform="translate(450,0)" d="M0,361.7686567164179v256.2313432835821" style="stroke: rgb(49, 52, 57); stroke-opacity: 1; stroke-width: 1px;"/><path class="x2grid crisp" transform="translate(585,0)" d="M0,361.7686567164179v256.2313432835821" style="stroke: rgb(49, 52, 57); stroke-opacity: 1; stroke-width: 1px;"/></g><g class="y2"><path class="y2grid crisp" transform="translate(0,552.858656716418)" d="M36,0h684" style="stroke: rgb(49, 52, 57); stroke-opacity: 1; stroke-width: 1px;"/><path class="y2grid crisp" transform="translate(0,486.44865671641793)" d="M36,0h684" style="stroke: rgb(49, 52, 57); stroke-opacity: 1; stroke-width: 1px;"/><path class="y2grid crisp" transform="translate(0,420.0286567164179)" d="M36,0h684" style="stroke: rgb(49, 52, 57); stroke-opacity: 1; stroke-width: 1px;"/></g></g><g class="zerolinelayer"/><path class="xlines-below"/><path class="ylines-below"/><g class="overlines-below"/><g class="xaxislayer-below"/><g class="yaxislayer-below"/><g class="overaxes-below"/><g class="plot" transform="translate(36,361.7686567164179)" clip-path="url(#clipa67e0bx2y2plot)"><g class="scatterlayer mlayer"><g class="trace scatter trace8a760d1f-e151-4954-ab2e-1411f1197188" style="stroke-miterlimit: 2; opacity: 1;"><g class="fills"/><g class="errorbars"/><g class="lines"><path class="js-line" d="M0,218.18L4.5,216.59L9,221.1L13.5,212.12L18,210.92L22.5,209.32L27,198.66L31.5,199.67L36,202.7L40.5,205.73L45,199.11L49.5,200.49L54,196.57L58.5,198.76L63,169.9L67.5,169.53L72,171.98L76.5,163.49L81,157.4L85.5,168.55L90,168.35L94.5,164.93L99,166.79L103.5,173.92L108,173.76L112.5,176.1L117,167.08L121.5,163.29L126,156.06L130.5,157.82L135,145.01L139.5,151.03L144,146.36L148.5,139.8L153,138.14L157.5,138.96L162,119.06L166.5,108.29L171,94.49L175.5,93.93L180,86.72L184.5,93.43L189,77.06L193.5,37.8L198,34.22L202.5,12.81L207,38.7L211.5,45.12L216,36.53L220.5,15.83L225,45.29L229.5,47.7L234,37.54L238.5,41.88L243,26.71L247.5,38.05L252,61.16L256.5,90.57L261,89.14L265.5,89.13L270,98.31L274.5,99.48L279,84.07L283.5,92.16L288,92.11L292.5,85.8L297,66.86L301.5,74.4L306,123.76L310.5,122.04L315,123.66L319.5,131.49L324,241.11L328.5,213.41L333,226.55L337.5,224.02L342,243.42L346.5,238.99L351,237.79L355.5,208.9L360,214.02L364.5,213.91L369,226.53L373.5,211.13L378,206.02L382.5,209.43L387,206.55L391.5,212.43L396,216.35L400.5,223.52L405,213.8L409.5,212.89L414,210.17L418.5,201.68L423,201.6L427.5,197.44L432,199.66L436.5,165.67L441,171.03L445.5,161.02L450,163.45L454.5,179.92L459,180.18L463.5,176.29L468,182.75L472.5,181L477,186.73L481.5,161.66L486,162.35L490.5,142.06L495,149.1L499.5,161.48L504,160.89L508.5,147.79L513,144.56L517.5,138.97L522,130.63L526.5,128.24L531,128.36L535.5,126.78L540,102.14L544.5,114.58L549,105.79L553.5,104.32L558,110.16L562.5,113.82L567,115.68L571.5,119.29L576,108.35L580.5,107.42L585,109.27L589.5,139.82L594,143.39L598.5,138.87L603,125.75L607.5,120.76L612,130.49L616.5,123.78L621,115.17L625.5,105.38L630,106.81L634.5,111.27L639,124.83L643.5,115.15L648,113.13L652.5,121.53L657,117.61L661.5,122.15L666,112.9L670.5,98.32L675,97.21L679.5,68.43L684,83.53" style="vector-effect: none; fill: none; stroke: rgb(50, 205, 50); stroke-opacity: 1; stroke-width: 2px; opacity: 1;"/></g><g class="points"/><g class="text"/></g><g class="trace scatter tracececddc37-f392-4602-93b0-cb3a9b08f024" style="stroke-miterlimit: 2; opacity: 1;"><g class="fills"/><g class="errorbars"/><g class="lines"><path class="js-line" d="M40.5,209.5L58.5,202.19L63,198.09L67.5,194.11L72,191.44L81,183.3L85.5,179.58L103.5,167.48L108,167.87L112.5,168.53L117,168.04L126,167.88L130.5,166.81L135,164.48L139.5,163.09L144,161.04L148.5,157.63L157.5,150.36L162,145.55L171,133.9L175.5,127.51L189,108.99L193.5,98.79L198,88.4L202.5,75.78L207,67.74L211.5,61.43L216,55.63L220.5,47.82L234,35.15L238.5,35.56L243,34.81L247.5,37.34L252,39.58L256.5,44.13L261,49.39L265.5,56.72L283.5,76.88L288,83.42L292.5,88.19L297,88.76L301.5,87.15L306,90.61L319.5,99.64L324,115.34L333,140.91L337.5,154.73L346.5,188.84L351,200.25L364.5,226.21L369,224.75L373.5,224.53L378,222.47L382.5,221.02L387,217.33L396,212.53L400.5,213.99L409.5,213.87L414,212.23L432,208.95L436.5,204.28L441,199.75L445.5,193.5L450,188.46L454.5,185.17L463.5,179.63L468,177.74L477,174.8L481.5,174.4L486,173.54L490.5,171.64L499.5,168.36L504,166.43L508.5,163.58L513,159.76L517.5,155.56L522,149.95L531,143.21L535.5,141.68L553.5,122.44L558,119L562.5,116.48L567,114.99L571.5,114.09L576,112.09L580.5,110.15L585,110.87L589.5,113.39L594,117.15L598.5,120.61L603,122.17L607.5,122.86L612,124.34L625.5,125.27L630,125.02L634.5,122.17L639,120.31L643.5,117.94L648,116.68L652.5,116.75L657,115.47L670.5,114.37L675,113.41L684,105" style="vector-effect: none; fill: none; stroke: rgb(50, 205, 50); stroke-opacity: 0.7; stroke-width: 2px; opacity: 1;"/></g><g class="points"/><g class="text"/></g></g></g><g class="overplot"/><path class="xlines-above crisp" d="M0,0" style="fill: none;"/><path class="ylines-above crisp" d="M0,0" style="fill: none;"/><g class="overlines-above"/><g class="xaxislayer-above"><g class="x2tick"><text text-anchor="middle" x="0" y="631" transform="translate(40.5,0)" style="font-family: 'Open Sans', verdana, arial, sans-serif; font-size: 12px; fill: rgb(214, 223, 239); fill-opacity: 1; white-space: pre; opacity: 1;">Jan 2020</text></g><g class="x2tick"><text text-anchor="middle" x="0" y="631" style="font-family: 'Open Sans', verdana, arial, sans-serif; font-size: 12px; fill: rgb(214, 223, 239); fill-opacity: 1; white-space: pre; opacity: 1;" transform="translate(180,0)">Feb 2020</text></g><g class="x2tick"><text text-anchor="middle" x="0" y="631" style="font-family: 'Open Sans', verdana, arial, sans-serif; font-size: 12px; fill: rgb(214, 223, 239); fill-opacity: 1; white-space: pre; opacity: 1;" transform="translate(310.5,0)">Mar 2020</text></g><g class="x2tick"><text text-anchor="middle" x="0" y="631" style="font-family: 'Open Sans', verdana, arial, sans-serif; font-size: 12px; fill: rgb(214, 223, 239); fill-opacity: 1; white-space: pre; opacity: 1;" transform="translate(450,0)">Apr 2020</text></g><g class="x2tick"><text text-anchor="middle" x="0" y="631" style="font-family: 'Open Sans', verdana, arial, sans-serif; font-size: 12px; fill: rgb(214, 223, 239); fill-opacity: 1; white-space: pre; opacity: 1;" transform="translate(585,0)">May 2020</text></g></g><g class="yaxislayer-above"><g class="y2tick"><text text-anchor="end" x="35" y="4.199999999999999" transform="translate(0,552.858656716418)" style="font-family: 'Open Sans', verdana, arial, sans-serif; font-size: 12px; fill: rgb(214, 223, 239); fill-opacity: 1; white-space: pre; opacity: 1;">150</text></g><g class="y2tick"><text text-anchor="end" x="35" y="4.199999999999999" style="font-family: 'Open Sans', verdana, arial, sans-serif; font-size: 12px; fill: rgb(214, 223, 239); fill-opacity: 1; white-space: pre; opacity: 1;" transform="translate(0,486.44865671641793)">200</text></g><g class="y2tick"><text text-anchor="end" x="35" y="4.199999999999999" style="font-family: 'Open Sans', verdana, arial, sans-serif; font-size: 12px; fill: rgb(214, 223, 239); fill-opacity: 1; white-space: pre; opacity: 1;" transform="translate(0,420.0286567164179)">250</text></g></g><g class="overaxes-above"/></g></g><g class="polarlayer"/><g class="smithlayer"/><g class="ternarylayer"/><g class="geolayer"/><g class="funnelarealayer"/><g class="pielayer"/><g class="iciclelayer"/><g class="treemaplayer"/><g class="sunburstlayer"/><g class="glimages"/><defs id="topdefs-a67e0b"><g class="clips"/><clipPath id="legenda67e0b"><rect width="351" height="29" x="0" y="0"/></clipPath></defs><g class="layer-above"><g class="imagelayer"/><g class="shapelayer"/></g><g class="infolayer"><g class="legend" pointer-events="all" transform="translate(369,11.462686567164205)"><rect class="bg" shape-rendering="crispEdges" style="stroke: rgb(68, 68, 68); stroke-opacity: 1; fill: rgb(33, 34, 38); fill-opacity: 1; stroke-width: 0px;" width="351" height="29" x="0" y="0"/><g class="scrollbox" transform="" clip-path="url(#legenda67e0b)"><g class="groups"><g class="traces" transform="translate(0,14.5)" style="opacity: 1;"><text class="legendtext" text-anchor="start" x="40" y="4.680000000000001" style="font-family: 'Open Sans', verdana, arial, sans-serif; font-size: 12px; fill: rgb(214, 223, 239); fill-opacity: 1; white-space: pre;">Close</text><g class="layers" style="opacity: 1;"><g class="legendfill"/><g class="legendlines"><path class="js-line" d="M5,0h30" style="fill: none; stroke: rgb(123, 104, 238); stroke-opacity: 1; stroke-width: 2px;"/></g><g class="legendsymbols"><g class="legendpoints"/></g></g><rect class="legendtoggle" x="0" y="-9.5" width="74.859375" height="19" style="fill: rgb(0, 0, 0); fill-opacity: 0;"/></g><g class="traces" transform="translate(77.359375,14.5)" style="opacity: 1;"><text class="legendtext" text-anchor="start" x="40" y="4.680000000000001" style="font-family: 'Open Sans', verdana, arial, sans-serif; font-size: 12px; fill: rgb(214, 223, 239); fill-opacity: 1; white-space: pre;">Close</text><g class="layers" style="opacity: 1;"><g class="legendfill"/><g class="legendlines"><path class="js-line" d="M5,0h30" style="fill: none; stroke: rgb(50, 205, 50); stroke-opacity: 1; stroke-width: 2px;"/></g><g class="legendsymbols"><g class="legendpoints"/></g></g><rect class="legendtoggle" x="0" y="-9.5" width="74.859375" height="19" style="fill: rgb(0, 0, 0); fill-opacity: 0;"/></g><g class="traces" transform="translate(154.71875,14.5)" style="opacity: 1;"><text class="legendtext" text-anchor="start" x="40" y="4.680000000000001" style="font-family: 'Open Sans', verdana, arial, sans-serif; font-size: 12px; fill: rgb(214, 223, 239); fill-opacity: 1; white-space: pre;">SMA(10)</text><g class="layers" style="opacity: 1;"><g class="legendfill"/><g class="legendlines"><path class="js-line" d="M5,0h30" style="fill: none; stroke: rgb(123, 104, 238); stroke-opacity: 0.7; stroke-width: 2px;"/></g><g class="legendsymbols"><g class="legendpoints"/></g></g><rect class="legendtoggle" x="0" y="-9.5" width="95.1875" height="19" style="fill: rgb(0, 0, 0); fill-opacity: 0;"/></g><g class="traces" transform="translate(252.40625,14.5)" style="opacity: 1;"><text class="legendtext" text-anchor="start" x="40" y="4.680000000000001" style="font-family: 'Open Sans', verdana, arial, sans-serif; font-size: 12px; fill: rgb(214, 223, 239); fill-opacity: 1; white-space: pre;">SMA(10)</text><g class="layers" style="opacity: 1;"><g class="legendfill"/><g class="legendlines"><path class="js-line" d="M5,0h30" style="fill: none; stroke: rgb(50, 205, 50); stroke-opacity: 0.7; stroke-width: 2px;"/></g><g class="legendsymbols"><g class="legendpoints"/></g></g><rect class="legendtoggle" x="0" y="-9.5" width="95.1875" height="19" style="fill: rgb(0, 0, 0); fill-opacity: 0;"/></g></g></g><rect class="scrollbar" rx="20" ry="3" width="0" height="0" style="fill: rgb(128, 139, 164); fill-opacity: 1;" x="0" y="0"/></g><g class="g-gtitle"/><g class="g-xtitle"/><g class="g-x2title"><text class="x2title" x="378" y="657.8" text-anchor="middle" style="font-family: 'Open Sans', verdana, arial, sans-serif; font-size: 14px; fill: rgb(214, 223, 239); opacity: 1; font-weight: normal; white-space: pre;">Index</text></g><g class="g-ytitle"/><g class="g-y2title"/><g class="annotation" data-index="0" style="opacity: 1;"><g class="annotation-text-g" transform="rotate(0,378,61)"><g class="cursor-pointer" transform="translate(339,49)"><rect class="bg" x="0.5" y="0.5" width="77" height="23" style="stroke-width: 1px; stroke: rgb(0, 0, 0); stroke-opacity: 0; fill: rgb(0, 0, 0); fill-opacity: 0;"/><text class="annotation-text" text-anchor="middle" x="39.125" y="18" style="font-family: 'Open Sans', verdana, arial, sans-serif; font-size: 16px; fill: rgb(214, 223, 239); fill-opacity: 1; white-space: pre;">BTC-USD</text></g></g></g><g class="annotation" data-index="1" style="opacity: 1;"><g class="annotation-text-g" transform="rotate(0,378,349.7686567164179)"><g class="cursor-pointer" transform="translate(339,338)"><rect class="bg" x="0.5" y="0.5" width="77" height="23" style="stroke-width: 1px; stroke: rgb(0, 0, 0); stroke-opacity: 0; fill: rgb(0, 0, 0); fill-opacity: 0;"/><text class="annotation-text" text-anchor="middle" x="39.125" y="18" style="font-family: 'Open Sans', verdana, arial, sans-serif; font-size: 16px; fill: rgb(214, 223, 239); fill-opacity: 1; white-space: pre;">ETH-USD</text></g></g></g></g></svg>