<svg class="main-svg" xmlns="http://www.w3.org/2000/svg" xmlns:xlink="http://www.w3.org/1999/xlink" width="700" height="350" style="" viewBox="0 0 700 350"><rect x="0" y="0" width="700" height="350" style="fill: rgb(33, 34, 38); fill-opacity: 1;"/><defs id="defs-882582"><g class="clips"><clipPath id="clip882582xyplot" class="plotclip"><rect width="634" height="274"/></clipPath><clipPath class="axesclip" id="clip882582x"><rect x="36" y="0" width="634" height="350"/></clipPath><clipPath class="axesclip" id="clip882582y"><rect x="0" y="46" width="700" height="274"/></clipPath><clipPath class="axesclip" id="clip882582xy"><rect x="36" y="46" width="634" height="274"/></clipPath></g><g class="gradients"/><g class="patterns"/></defs><g class="bglayer"/><g class="layer-below"><g class="imagelayer"/><g class="shapelayer"/></g><g class="cartesianlayer"><g class="subplot xy"><g class="layer-subplot"><g class="shapelayer"/><g class="imagelayer"/></g><g class="minor-gridlayer"><g class="x"/><g class="y"/></g><g class="gridlayer"><g class="x"><path class="xgrid crisp" transform="translate(40.17,0)" d="M0,46v274" style="stroke: rgb(49, 52, 57); stroke-opacity: 1; stroke-width: 1px;"/><path class="xgrid crisp" transform="translate(169.47,0)" d="M0,46v274" style="stroke: rgb(49, 52, 57); stroke-opacity: 1; stroke-width: 1px;"/><path class="xgrid crisp" transform="translate(290.43,0)" d="M0,46v274" style="stroke: rgb(49, 52, 57); stroke-opacity: 1; stroke-width: 1px;"/><path class="xgrid crisp" transform="translate(419.74,0)" d="M0,46v274" style="stroke: rgb(49, 52, 57); stroke-opacity: 1; stroke-width: 1px;"/><path class="xgrid crisp" transform="translate(544.87,0)" d="M0,46v274" style="stroke: rgb(49, 52, 57); stroke-opacity: 1; stroke-width: 1px;"/></g><g class="y"><path class="ygrid crisp" transform="translate(0,255.56)" d="M36,0h634" style="stroke: rgb(49, 52, 57); stroke-opacity: 1; stroke-width: 1px;"/><path class="ygrid crisp" transform="translate(0,173.45999999999998)" d="M36,0h634" style="stroke: rgb(49, 52, 57); stroke-opacity: 1; stroke-width: 1px;"/><path class="ygrid crisp" transform="translate(0,91.37)" d="M36,0h634" style="stroke: rgb(49, 52, 57); stroke-opacity: 1; stroke-width: 1px;"/></g></g><g class="zerolinelayer"/><path class="xlines-below"/><path class="ylines-below"/><g class="overlines-below"/><g class="xaxislayer-below"/><g class="yaxislayer-below"/><g class="overaxes-below"/><g class="plot" transform="translate(36,46)" clip-path="url(#clip882582xyplot)"><g class="scatterlayer mlayer"><g class="trace scatter trace3bd121fa-30b7-4d5a-b916-bc28c79c07b4" style="stroke-miterlimit: 2; opacity: 1;"><g class="fills"/><g class="errorbars"/><g class="lines"><path class="js-line" d="M0,209.56L4.17,209.41L8.34,214.31L12.51,206.11L16.68,204.61L20.86,204.59L25.03,196.42L29.2,187.42L33.37,189.33L37.54,193.92L41.71,187.36L45.88,190.3L50.05,186.76L54.22,187.87L58.39,172.26L62.57,172.74L66.74,174.64L70.91,169.95L75.08,169.64L79.25,175.04L83.42,176.15L87.59,174.13L91.76,175.62L95.93,181.88L100.11,180.99L104.28,182.76L108.45,177.53L112.62,170.39L116.79,160.15L120.96,161.1L125.13,156.71L129.3,160.33L133.47,159.36L141.82,161.63L145.99,164.2L150.16,154.33L154.33,151.67L162.67,148.58L166.84,142.84L171.01,148.78L175.18,140.75L179.36,138.06L183.53,140.61L187.7,138.38L191.87,148.03L196.04,147L200.21,152.58L204.38,142.26L208.55,153.87L212.72,154.44L216.89,152.66L221.07,153.19L225.24,147.23L233.58,160.53L237.75,172.43L241.92,173.25L246.09,175.81L250.26,177.47L254.43,178.32L258.61,171.31L262.78,173.18L266.95,173.92L271.12,166.53L275.29,165.53L279.46,170.39L283.63,188.69L287.8,192.9L296.14,193.18L300.32,260.3L304.49,246.77L308.66,255.06L312.83,250.68L317,259.3L321.17,254.48L325.34,254.19L329.51,232.44L333.68,232.27L337.86,232.58L342.03,240.68L346.2,227.31L350.37,220.04L354.54,221.26L358.71,220.45L367.05,231.28L371.22,238.59L375.39,227L379.57,226.8L387.91,218.69L392.08,220.07L396.25,217.01L400.42,218.75L404.59,207.78L408.76,209.96L412.93,206.36L417.11,207.09L421.28,217.05L425.45,217.2L429.62,214.64L433.79,217.52L437.96,217.58L442.13,222.15L446.3,211.32L450.47,211.79L454.64,208.1L458.82,209.66L462.99,216.68L467.16,216.71L471.33,211.31L475.5,204.17L479.67,201.41L483.84,200.97L492.18,195.82L496.36,195.56L500.53,172.87L504.7,176.12L508.87,171.42L513.04,168.59L517.21,170.67L521.38,170.32L525.55,168.26L529.72,162.2L533.89,146.61L538.07,149.1L542.24,154.78L546.41,173.89L550.58,177.42L554.75,172.79L563.09,151.58L567.26,160.84L571.43,159.73L575.61,153.02L579.78,151.75L583.95,151.69L588.12,156.39L592.29,166.47L596.46,164.16L600.63,163.55L604.8,173.12L608.97,170.46L613.14,172.1L617.32,164.2L621.49,156.33L625.66,158.31L629.83,152.34L634,157.81" style="vector-effect: none; fill: none; stroke: rgb(31, 119, 180); stroke-opacity: 1; stroke-width: 2px; opacity: 1;"/></g><g class="points"/><g class="text"/></g><g class="trace scatter trace7eb56e63-0175-4ae9-a4a7-5564e16b740b" style="stroke-miterlimit: 2; opacity: 1;"><g class="fills"/><g class="errorbars"/><g class="lines"><path class="js-line" d="M0,209.56L4.17,208.05L8.34,212.35L12.51,203.79L16.68,202.65L20.86,201.12L25.03,190.95L29.2,191.91L33.37,194.81L37.54,197.69L41.71,191.38L45.88,192.69L50.05,188.96L54.22,191.05L58.39,163.52L62.57,163.17L66.74,165.5L70.91,157.41L75.08,151.6L79.25,162.24L83.42,162.04L87.59,158.78L91.76,160.56L95.93,167.35L100.11,167.2L104.28,169.44L108.45,160.83L112.62,157.22L116.79,150.33L120.96,152L125.13,139.79L129.3,145.52L133.47,141.07L137.64,134.81L141.82,133.23L145.99,134.01L150.16,115.03L154.33,104.76L158.5,91.6L162.67,91.07L166.84,84.19L171.01,90.59L175.18,74.97L179.36,37.53L183.53,34.12L187.7,13.7L191.87,38.39L196.04,44.51L200.21,36.32L204.38,16.58L208.55,44.68L212.72,46.98L216.89,37.28L221.07,41.43L225.24,26.96L229.41,37.77L233.58,59.81L237.75,87.86L241.92,86.5L246.09,86.49L250.26,95.25L254.43,96.36L258.61,81.66L262.78,89.38L266.95,89.33L271.12,83.31L275.29,65.25L279.46,72.44L283.63,119.52L287.8,117.87L291.97,119.42L296.14,126.89L300.32,231.43L304.49,205.01L308.66,217.55L312.83,215.13L317,233.64L321.17,229.41L325.34,228.27L329.51,200.72L333.68,205.6L337.86,205.5L342.03,217.53L346.2,202.85L350.37,197.97L354.54,201.22L358.71,198.48L362.88,204.08L367.05,207.82L371.22,214.67L375.39,205.39L379.57,204.52L383.74,201.93L387.91,193.83L392.08,193.75L396.25,189.79L400.42,191.91L404.59,159.49L408.76,164.6L412.93,155.05L417.11,157.37L421.28,173.08L425.45,173.32L429.62,169.62L433.79,175.78L437.96,174.11L442.13,179.57L446.3,155.66L450.47,156.32L454.64,136.97L458.82,143.68L462.99,155.49L467.16,154.93L471.33,142.43L475.5,139.36L479.67,134.03L483.84,126.07L488.01,123.79L492.18,123.91L496.36,122.4L500.53,98.89L504.7,110.76L508.87,102.38L513.04,100.98L517.21,106.54L521.38,110.04L525.55,111.81L529.72,115.25L533.89,104.82L538.07,103.93L542.24,105.7L546.41,134.83L550.58,138.24L554.75,133.93L558.92,121.41L563.09,116.65L567.26,125.94L571.43,119.53L575.61,111.32L579.78,101.99L583.95,103.35L588.12,107.6L592.29,120.54L596.46,111.31L600.63,109.38L604.8,117.39L608.97,113.65L613.14,117.98L617.32,109.16L621.49,95.26L625.66,94.2L629.83,66.75L634,81.15" style="vector-effect: none; fill: none; stroke: rgb(255, 127, 14); stroke-opacity: 1; stroke-width: 2px; opacity: 1;"/></g><g class="points"/><g class="text"/></g></g></g><g class="overplot"/><path class="xlines-above crisp" d="M0,0" style="fill: none;"/><path class="ylines-above crisp" d="M0,0" style="fill: none;"/><g class="overlines-above"/><g class="xaxislayer-above"><g class="xtick"><text text-anchor="middle" x="0" y="333" transform="translate(40.17,0)" style="font-family: 'Open Sans', verdana, arial, sans-serif; font-size: 12px; fill: rgb(214, 223, 239); fill-opacity: 1; white-space: pre; opacity: 1;">Jan 2020</text></g><g class="xtick"><text text-anchor="middle" x="0" y="333" style="font-family: 'Open Sans', verdana, arial, sans-serif; font-size: 12px; fill: rgb(214, 223, 239); fill-opacity: 1; white-space: pre; opacity: 1;" transform="translate(169.47,0)">Feb 2020</text></g><g class="xtick"><text text-anchor="middle" x="0" y="333" style="font-family: 'Open Sans', verdana, arial, sans-serif; font-size: 12px; fill: rgb(214, 223, 239); fill-opacity: 1; white-space: pre; opacity: 1;" transform="translate(290.43,0)">Mar 2020</text></g><g class="xtick"><text text-anchor="middle" x="0" y="333" style="font-family: 'Open Sans', verdana, arial, sans-serif; font-size: 12px; fill: rgb(214, 223, 239); fill-opacity: 1; white-space: pre; opacity: 1;" transform="translate(419.74,0)">Apr 2020</text></g><g class="xtick"><text text-anchor="middle" x="0" y="333" style="font-family: 'Open Sans', verdana, arial, sans-serif; font-size: 12px; fill: rgb(214, 223, 239); fill-opacity: 1; white-space: pre; opacity: 1;" transform="translate(544.87,0)">May 2020</text></g></g><g class="yaxislayer-above"><g class="ytick"><text text-anchor="end" x="35" y="4.199999999999999" transform="translate(0,255.56)" style="font-family: 'Open Sans', verdana, arial, sans-serif; font-size: 12px; fill: rgb(214, 223, 239); fill-opacity: 1; white-space: pre; opacity: 1;">100</text></g><g class="ytick"><text text-anchor="end" x="35" y="4.199999999999999" style="font-family: 'Open Sans', verdana, arial, sans-serif; font-size: 12px; fill: rgb(214, 223, 239); fill-opacity: 1; white-space: pre; opacity: 1;" transform="translate(0,173.45999999999998)">150</text></g><g class="ytick"><text text-anchor="end" x="35" y="4.199999999999999" style="font-family: 'Open Sans', verdana, arial, sans-serif; font-size: 12px; fill: rgb(214, 223, 239); fill-opacity: 1; white-space: pre; opacity: 1;" transform="translate(0,91.37)">200</text></g></g><g class="overaxes-above"/></g></g><g class="polarlayer"/><g class="smithlayer"/><g class="ternarylayer"/><g class="geolayer"/><g class="funnelarealayer"/><g class="pielayer"/><g class="iciclelayer"/><g class="treemaplayer"/><g class="sunburstlayer"/><g class="glimages"/><defs id="topdefs-882582"><g class="clips"/><clipPath id="legend882582"><rect width="202" height="29" x="0" y="0"/></clipPath></defs><g class="layer-above"><g class="imagelayer"/><g class="shapelayer"/></g><g class="infolayer"><g class="legend" pointer-events="all" transform="translate(468,11.519999999999996)"><rect class="bg" shape-rendering="crispEdges" style="stroke: rgb(68, 68, 68); stroke-opacity: 1; fill: rgb(33, 34, 38); fill-opacity: 1; stroke-width: 0px;" width="202" height="29" x="0" y="0"/><g class="scrollbox" transform="" clip-path="url(#legend882582)"><g class="groups"><g class="traces" transform="translate(0,14.5)" style="opacity: 1;"><text class="legendtext" text-anchor="start" x="40" y="4.680000000000001" style="font-family: 'Open Sans', verdana, arial, sans-serif; font-size: 12px; fill: rgb(214, 223, 239); fill-opacity: 1; white-space: pre;">BTC-USD</text><g class="layers" style="opacity: 1;"><g class="legendfill"/><g class="legendlines"><path class="js-line" d="M5,0h30" style="fill: none; stroke: rgb(31, 119, 180); stroke-opacity: 1; stroke-width: 2px;"/></g><g class="legendsymbols"><g class="legendpoints"/></g></g><rect class="legendtoggle" x="0" y="-9.5" width="98.1875" height="19" style="fill: rgb(0, 0, 0); fill-opacity: 0;"/></g><g class="traces" transform="translate(100.6875,14.5)" style="opacity: 1;"><text class="legendtext" text-anchor="start" x="40" y="4.680000000000001" style="font-family: 'Open Sans', verdana, arial, sans-serif; font-size: 12px; fill: rgb(214, 223, 239); fill-opacity: 1; white-space: pre;">ETH-USD</text><g class="layers" style="opacity: 1;"><g class="legendfill"/><g class="legendlines"><path class="js-line" d="M5,0h30" style="fill: none; stroke: rgb(255, 127, 14); stroke-opacity: 1; stroke-width: 2px;"/></g><g class="legendsymbols"><g class="legendpoints"/></g></g><rect class="legendtoggle" x="0" y="-9.5" width="98.1875" height="19" style="fill: rgb(0, 0, 0); fill-opacity: 0;"/></g></g></g><rect class="scrollbar" rx="20" ry="3" width="0" height="0" style="fill: rgb(128, 139, 164); fill-opacity: 1;" x="0" y="0"/></g><g class="g-gtitle"/><g class="g-xtitle"/><g class="g-ytitle"/></g></svg>