<svg class="main-svg" xmlns="http://www.w3.org/2000/svg" xmlns:xlink="http://www.w3.org/1999/xlink" width="750" height="380" style="" viewBox="0 0 750 380"><rect x="0" y="0" width="750" height="380" style="fill: rgb(255, 255, 255); fill-opacity: 1;"/><defs id="defs-597a32"><g class="clips"><clipPath id="clip597a32xyplot" class="plotclip"><rect width="685" height="260"/></clipPath><clipPath class="axesclip" id="clip597a32x"><rect x="35" y="0" width="685" height="380"/></clipPath><clipPath class="axesclip" id="clip597a32y"><rect x="0" y="68" width="750" height="260"/></clipPath><clipPath class="axesclip" id="clip597a32xy"><rect x="35" y="68" width="685" height="260"/></clipPath></g><g class="gradients"/><g class="patterns"/></defs><g class="bglayer"><rect class="bg" x="35" y="68" width="685" height="260" style="fill: rgb(229, 236, 246); fill-opacity: 1; stroke-width: 0;"/></g><g class="layer-below"><g class="imagelayer"/><g class="shapelayer"/></g><g class="cartesianlayer"><g class="subplot xy"><g class="layer-subplot"><g class="shapelayer"/><g class="imagelayer"/></g><g class="minor-gridlayer"><g class="x"/><g class="y"/></g><g class="gridlayer"><g class="x"><path class="xgrid crisp" transform="translate(39.51,0)" d="M0,68v260" style="stroke: rgb(255, 255, 255); stroke-opacity: 1; stroke-width: 1px;"/><path class="xgrid crisp" transform="translate(179.21,0)" d="M0,68v260" style="stroke: rgb(255, 255, 255); stroke-opacity: 1; stroke-width: 1px;"/><path class="xgrid crisp" transform="translate(309.9,0)" d="M0,68v260" style="stroke: rgb(255, 255, 255); stroke-opacity: 1; stroke-width: 1px;"/><path class="xgrid crisp" transform="translate(449.61,0)" d="M0,68v260" style="stroke: rgb(255, 255, 255); stroke-opacity: 1; stroke-width: 1px;"/><path class="xgrid crisp" transform="translate(584.8,0)" d="M0,68v260" style="stroke: rgb(255, 255, 255); stroke-opacity: 1; stroke-width: 1px;"/></g><g class="y"><path class="ygrid crisp" transform="translate(0,313.72)" d="M35,0h685" style="stroke: rgb(255, 255, 255); stroke-opacity: 1; stroke-width: 1px;"/><path class="ygrid crisp" transform="translate(0,270.03)" d="M35,0h685" style="stroke: rgb(255, 255, 255); stroke-opacity: 1; stroke-width: 1px;"/><path class="ygrid crisp" transform="translate(0,226.33)" d="M35,0h685" style="stroke: rgb(255, 255, 255); stroke-opacity: 1; stroke-width: 1px;"/><path class="ygrid crisp" transform="translate(0,182.64)" d="M35,0h685" style="stroke: rgb(255, 255, 255); stroke-opacity: 1; stroke-width: 1px;"/><path class="ygrid crisp" transform="translate(0,138.94)" d="M35,0h685" style="stroke: rgb(255, 255, 255); stroke-opacity: 1; stroke-width: 1px;"/><path class="ygrid crisp" transform="translate(0,95.25)" d="M35,0h685" style="stroke: rgb(255, 255, 255); stroke-opacity: 1; stroke-width: 1px;"/></g></g><g class="zerolinelayer"/><path class="xlines-below"/><path class="ylines-below"/><g class="overlines-below"/><g class="xaxislayer-below"/><g class="yaxislayer-below"/><g class="overaxes-below"/><g class="plot" transform="translate(35,68)" clip-path="url(#clip597a32xyplot)"><g class="scatterlayer mlayer"><g class="trace scatter trace939b062f-8211-43c0-aa46-5acae6e24e2b" style="stroke-miterlimit: 2; opacity: 1;"><g class="fills"/><g class="errorbars"/><g class="lines"><path class="js-line" d="M0,149.87L4.51,149.59L9.01,158.97L13.52,143.26L18.03,140.39L22.53,140.36L27.04,124.72L31.55,107.49L36.05,111.15L40.56,119.92L45.07,107.36L49.57,113L54.08,106.23L58.59,108.34L63.09,78.47L67.6,79.38L72.11,83.01L76.61,74.04L81.12,73.44L85.63,83.78L90.13,85.9L94.64,82.05L99.14,84.89L103.65,96.87L108.16,95.17L112.66,98.56L117.17,88.56L121.68,74.88L126.18,55.27L130.69,57.11L135.2,48.7L139.7,55.63L144.21,53.78L153.22,58.12L157.73,63.04L162.24,44.14L166.74,39.05L175.76,33.14L180.26,22.15L184.77,33.51L189.28,18.15L193.78,13L198.29,17.88L202.8,13.61L207.3,32.08L211.81,30.11L216.32,40.79L220.82,21.04L225.33,43.27L229.84,44.35L234.34,40.95L238.85,41.96L243.36,30.55L252.37,56.01L256.88,78.78L261.38,80.36L265.89,85.25L270.39,88.44L274.9,90.06L279.41,76.64L283.91,80.22L288.42,81.64L292.93,67.5L297.43,65.59L301.94,74.88L306.45,109.91L310.95,117.97L319.97,118.51L324.47,247L328.98,221.09L333.49,236.97L337.99,228.58L342.5,245.09L347.01,235.86L351.51,235.3L356.02,193.67L360.53,193.34L365.03,193.94L369.54,209.45L374.05,183.84L378.55,169.92L383.06,172.27L387.57,170.72L396.58,191.45L401.09,205.43L405.59,183.25L410.1,182.86L419.11,167.35L423.62,169.98L428.13,164.12L432.63,167.46L437.14,146.46L441.64,150.62L446.15,143.73L450.66,145.13L455.16,164.21L459.67,164.49L464.18,159.6L468.68,165.1L473.19,165.22L477.7,173.97L482.2,153.23L486.71,154.13L491.22,147.07L495.72,150.06L500.23,163.49L504.74,163.56L509.24,153.21L513.75,139.56L518.26,134.26L522.76,133.43L531.78,123.57L536.28,123.07L540.79,79.64L545.3,85.86L549.8,76.85L554.31,71.44L558.82,75.42L563.32,74.76L567.83,70.81L572.34,59.2L576.84,29.37L581.35,34.12L585.86,44.99L590.36,81.59L594.87,88.34L599.38,79.49L608.39,38.88L612.89,56.6L617.4,54.47L621.91,41.63L626.41,39.19L630.92,39.09L635.43,48.09L639.93,67.37L644.44,62.96L648.95,61.8L653.45,80.1L657.96,75.01L662.47,78.15L666.97,63.03L671.48,47.97L675.99,51.75L680.49,40.34L685,50.8" style="vector-effect: none; fill: none; stroke: rgb(31, 119, 180); stroke-opacity: 1; stroke-width: 2px; opacity: 1;"/></g><g class="points"/><g class="text"/></g></g></g><g class="overplot"/><path class="xlines-above crisp" d="M0,0" style="fill: none;"/><path class="ylines-above crisp" d="M0,0" style="fill: none;"/><g class="overlines-above"/><g class="xaxislayer-above"><g class="xtick"><text text-anchor="middle" x="0" y="341" transform="translate(39.51,0)" style="font-family: 'Open Sans', verdana, arial, sans-serif; font-size: 12px; fill: rgb(42, 63, 95); fill-opacity: 1; white-space: pre; opacity: 1;">Jan 2020</text></g><g class="xtick"><text text-anchor="middle" x="0" y="341" style="font-family: 'Open Sans', verdana, arial, sans-serif; font-size: 12px; fill: rgb(42, 63, 95); fill-opacity: 1; white-space: pre; opacity: 1;" transform="translate(179.21,0)">Feb 2020</text></g><g class="xtick"><text text-anchor="middle" x="0" y="341" style="font-family: 'Open Sans', verdana, arial, sans-serif; font-size: 12px; fill: rgb(42, 63, 95); fill-opacity: 1; white-space: pre; opacity: 1;" transform="translate(309.9,0)">Mar 2020</text></g><g class="xtick"><text text-anchor="middle" x="0" y="341" style="font-family: 'Open Sans', verdana, arial, sans-serif; font-size: 12px; fill: rgb(42, 63, 95); fill-opacity: 1; white-space: pre; opacity: 1;" transform="translate(449.61,0)">Apr 2020</text></g><g class="xtick"><text text-anchor="middle" x="0" y="341" style="font-family: 'Open Sans', verdana, arial, sans-serif; font-size: 12px; fill: rgb(42, 63, 95); fill-opacity: 1; white-space: pre; opacity: 1;" transform="translate(584.8,0)">May 2020</text></g></g><g class="yaxislayer-above"><g class="ytick"><text text-anchor="end" x="34" y="4.199999999999999" transform="translate(0,313.72)" style="font-family: 'Open Sans', verdana, arial, sans-serif; font-size: 12px; fill: rgb(42, 63, 95); fill-opacity: 1; white-space: pre; opacity: 1;">5k</text></g><g class="ytick"><text text-anchor="end" x="34" y="4.199999999999999" style="font-family: 'Open Sans', verdana, arial, sans-serif; font-size: 12px; fill: rgb(42, 63, 95); fill-opacity: 1; white-space: pre; opacity: 1;" transform="translate(0,270.03)">6k</text></g><g class="ytick"><text text-anchor="end" x="34" y="4.199999999999999" style="font-family: 'Open Sans', verdana, arial, sans-serif; font-size: 12px; fill: rgb(42, 63, 95); fill-opacity: 1; white-space: pre; opacity: 1;" transform="translate(0,226.33)">7k</text></g><g class="ytick"><text text-anchor="end" x="34" y="4.199999999999999" style="font-family: 'Open Sans', verdana, arial, sans-serif; font-size: 12px; fill: rgb(42, 63, 95); fill-opacity: 1; white-space: pre; opacity: 1;" transform="translate(0,182.64)">8k</text></g><g class="ytick"><text text-anchor="end" x="34" y="4.199999999999999" style="font-family: 'Open Sans', verdana, arial, sans-serif; font-size: 12px; fill: rgb(42, 63, 95); fill-opacity: 1; white-space: pre; opacity: 1;" transform="translate(0,138.94)">9k</text></g><g class="ytick"><text text-anchor="end" x="34" y="4.199999999999999" style="font-family: 'Open Sans', verdana, arial, sans-serif; font-size: 12px; fill: rgb(42, 63, 95); fill-opacity: 1; white-space: pre; opacity: 1;" transform="translate(0,95.25)">10k</text></g></g><g class="overaxes-above"/></g></g><g class="polarlayer"/><g class="smithlayer"/><g class="ternarylayer"/><g class="geolayer"/><g class="funnelarealayer"/><g class="pielayer"/><g class="iciclelayer"/><g class="treemaplayer"/><g class="sunburstlayer"/><g class="glimages"/><defs id="topdefs-597a32"><g class="clips"/><clipPath id="legend597a32"><rect width="78" height="29" x="0" y="0"/></clipPath></defs><g class="layer-above"><g class="imagelayer"/><g class="shapelayer"/></g><g class="infolayer"><g class="legend" pointer-events="all" transform="translate(642,11.631578947368453)"><rect class="bg" shape-rendering="crispEdges" width="78" height="29" x="0" y="0" style="stroke: rgb(68, 68, 68); stroke-opacity: 1; fill: rgb(255, 255, 255); fill-opacity: 1; stroke-width: 0px;"/><g class="scrollbox" transform="" clip-path="url(#legend597a32)"><g class="groups"><g class="traces" transform="translate(0,14.5)" style="opacity: 1;"><text class="legendtext" text-anchor="start" x="40" y="4.680000000000001" style="font-family: 'Open Sans', verdana, arial, sans-serif; font-size: 12px; fill: rgb(42, 63, 95); fill-opacity: 1; white-space: pre;">Close</text><g class="layers" style="opacity: 1;"><g class="legendfill"/><g class="legendlines"><path class="js-line" d="M5,0h30" style="fill: none; stroke: rgb(31, 119, 180); stroke-opacity: 1; stroke-width: 2px;"/></g><g class="legendsymbols"><g class="legendpoints"/></g></g><rect class="legendtoggle" x="0" y="-9.5" width="74.859375" height="19" style="fill: rgb(0, 0, 0); fill-opacity: 0;"/></g></g></g><rect class="scrollbar" rx="20" ry="3" width="0" height="0" x="0" y="0" style="fill: rgb(128, 139, 164); fill-opacity: 1;"/></g><g class="g-gtitle"/><g class="g-xtitle"><text class="xtitle" x="377.5" y="367.8" text-anchor="middle" style="font-family: 'Open Sans', verdana, arial, sans-serif; font-size: 14px; fill: rgb(42, 63, 95); opacity: 1; font-weight: normal; white-space: pre;">Index</text></g><g class="g-ytitle"/><g class="annotation" data-index="0" style="opacity: 1;"><g class="annotation-text-g" transform="rotate(0,377.5,56)"><g class="cursor-pointer" transform="translate(339,44)"><rect class="bg" x="0.5" y="0.5" width="77" height="23" style="stroke-width: 1px; stroke: rgb(0, 0, 0); stroke-opacity: 0; fill: rgb(0, 0, 0); fill-opacity: 0;"/><text class="annotation-text" text-anchor="middle" x="39.125" y="18" style="font-family: 'Open Sans', verdana, arial, sans-serif; font-size: 16px; fill: rgb(42, 63, 95); fill-opacity: 1; white-space: pre;">BTC-USD</text></g></g></g></g></svg>