<svg class="main-svg" xmlns="http://www.w3.org/2000/svg" xmlns:xlink="http://www.w3.org/1999/xlink" width="750" height="670" style="" viewBox="0 0 750 670"><rect x="0" y="0" width="750" height="670" style="fill: rgb(33, 34, 38); fill-opacity: 1;"/><defs id="defs-f923c5"><g class="clips"><clipPath id="clipf923c5xyplot" class="plotclip"><rect width="684" height="256.2313432835821"/></clipPath><clipPath id="clipf923c5x2y2plot" class="plotclip"><rect width="684" height="256.2313432835821"/></clipPath><clipPath class="axesclip" id="clipf923c5x"><rect x="36" y="0" width="684" height="670"/></clipPath><clipPath class="axesclip" id="clipf923c5y"><rect x="0" y="73" width="750" height="256.2313432835821"/></clipPath><clipPath class="axesclip" id="clipf923c5xy"><rect x="36" y="73" width="684" height="256.2313432835821"/></clipPath><clipPath class="axesclip" id="clipf923c5y2"><rect x="0" y="361.7686567164179" width="750" height="256.2313432835821"/></clipPath><clipPath class="axesclip" id="clipf923c5xy2"><rect x="36" y="361.7686567164179" width="684" height="256.2313432835821"/></clipPath><clipPath class="axesclip" id="clipf923c5x2"><rect x="36" y="0" width="684" height="670"/></clipPath><clipPath class="axesclip" id="clipf923c5x2y"><rect x="36" y="73" width="684" height="256.2313432835821"/></clipPath><clipPath class="axesclip" id="clipf923c5x2y2"><rect x="36" y="361.7686567164179" width="684" height="256.2313432835821"/></clipPath></g><g class="gradients"/><g class="patterns"/></defs><g class="bglayer"/><g class="layer-below"><g class="imagelayer"/><g class="shapelayer"/></g><g class="cartesianlayer"><g class="subplot xy"><g class="layer-subplot"><g class="shapelayer"/><g class="imagelayer"/></g><g class="minor-gridlayer"><g class="x"/><g class="y"/></g><g class="gridlayer"><g class="x"><path class="xgrid crisp" transform="translate(40.5,0)" d="M0,73v256.2313432835821" style="stroke: rgb(49, 52, 57); stroke-opacity: 1; stroke-width: 1px;"/><path class="xgrid crisp" transform="translate(180,0)" d="M0,73v256.2313432835821" style="stroke: rgb(49, 52, 57); stroke-opacity: 1; stroke-width: 1px;"/><path class="xgrid crisp" transform="translate(310.5,0)" d="M0,73v256.2313432835821" style="stroke: rgb(49, 52, 57); stroke-opacity: 1; stroke-width: 1px;"/><path class="xgrid crisp" transform="translate(450,0)" d="M0,73v256.2313432835821" style="stroke: rgb(49, 52, 57); stroke-opacity: 1; stroke-width: 1px;"/><path class="xgrid crisp" transform="translate(585,0)" d="M0,73v256.2313432835821" style="stroke: rgb(49, 52, 57); stroke-opacity: 1; stroke-width: 1px;"/></g><g class="y"><path class="ygrid crisp" transform="translate(0,315.15999999999997)" d="M36,0h684" style="stroke: rgb(49, 52, 57); stroke-opacity: 1; stroke-width: 1px;"/><path class="ygrid crisp" transform="translate(0,272.1)" d="M36,0h684" style="stroke: rgb(49, 52, 57); stroke-opacity: 1; stroke-width: 1px;"/><path class="ygrid crisp" transform="translate(0,229.04)" d="M36,0h684" style="stroke: rgb(49, 52, 57); stroke-opacity: 1; stroke-width: 1px;"/><path class="ygrid crisp" transform="translate(0,185.98000000000002)" d="M36,0h684" style="stroke: rgb(49, 52, 57); stroke-opacity: 1; stroke-width: 1px;"/><path class="ygrid crisp" transform="translate(0,142.91)" d="M36,0h684" style="stroke: rgb(49, 52, 57); stroke-opacity: 1; stroke-width: 1px;"/><path class="ygrid crisp" transform="translate(0,99.85)" d="M36,0h684" style="stroke: rgb(49, 52, 57); stroke-opacity: 1; stroke-width: 1px;"/></g></g><g class="zerolinelayer"/><path class="xlines-below"/><path class="ylines-below"/><g class="overlines-below"/><g class="xaxislayer-below"/><g class="yaxislayer-below"/><g class="overaxes-below"/><g class="plot" transform="translate(36,73)" clip-path="url(#clipf923c5xyplot)"><g class="scatterlayer mlayer"><g class="trace scatter traceabc86713-1e05-45c3-bf14-1a710c50cad1" style="stroke-miterlimit: 2; opacity: 1;"><g class="fills"/><g class="errorbars"/><g class="lines"><path class="js-line" d="M0,147.7L4.5,147.42L9,156.66L13.5,141.19L18,138.35L22.5,138.33L27,122.91L31.5,105.93L36,109.54L40.5,118.18L45,105.8L49.5,111.36L54,104.69L58.5,106.77L63,77.33L67.5,78.22L72,81.81L76.5,72.97L81,72.38L85.5,82.56L90,84.66L94.5,80.86L99,83.66L103.5,95.47L108,93.79L112.5,97.14L117,87.28L121.5,73.8L126,54.47L130.5,56.28L135,48L139.5,54.82L144,53L153,57.27L157.5,62.12L162,43.5L166.5,38.49L175.5,32.66L180,21.83L184.5,33.03L189,17.89L193.5,12.81L198,17.62L202.5,13.41L207,31.61L211.5,29.68L216,40.2L220.5,20.74L225,42.64L229.5,43.71L234,40.35L238.5,41.36L243,30.1L252,55.2L256.5,77.64L261,79.19L265.5,84.02L270,87.16L274.5,88.76L279,75.53L283.5,79.05L288,80.45L292.5,66.52L297,64.64L301.5,73.79L306,108.32L310.5,116.26L319.5,116.79L324,243.42L328.5,217.89L333,233.53L337.5,225.27L342,241.54L346.5,232.45L351,231.89L355.5,190.87L360,190.54L364.5,191.13L369,206.41L373.5,181.17L378,167.46L382.5,169.77L387,168.25L396,188.67L400.5,202.46L405,180.59L409.5,180.21L418.5,164.92L423,167.52L427.5,161.74L432,165.03L436.5,144.33L441,148.44L445.5,141.65L450,143.03L454.5,161.83L459,162.11L463.5,157.28L468,162.71L472.5,162.82L477,171.45L481.5,151.01L486,151.9L490.5,144.94L495,147.88L499.5,161.12L504,161.19L508.5,150.99L513,137.53L517.5,132.32L522,131.5L531,121.78L535.5,121.28L540,78.48L544.5,84.62L549,75.74L553.5,70.41L558,74.33L562.5,73.68L567,69.78L571.5,58.34L576,28.94L580.5,33.63L585,44.34L589.5,80.4L594,87.06L598.5,78.33L607.5,38.32L612,55.78L616.5,53.68L621,41.03L625.5,38.63L630,38.52L634.5,47.39L639,66.39L643.5,62.05L648,60.9L652.5,78.94L657,73.92L661.5,77.02L666,62.12L670.5,47.27L675,51L679.5,39.75L684,50.06" style="vector-effect: none; fill: none; stroke: rgb(31, 119, 180); stroke-opacity: 1; stroke-width: 2px; opacity: 1;"/></g><g class="points"/><g class="text"/></g></g></g><g class="overplot"/><path class="xlines-above crisp" d="M0,0" style="fill: none;"/><path class="ylines-above crisp" d="M0,0" style="fill: none;"/><g class="overlines-above"/><g class="xaxislayer-above"/><g class="yaxislayer-above"><g class="ytick"><text text-anchor="end" x="35" y="4.199999999999999" transform="translate(0,315.15999999999997)" style="font-family: 'Open Sans', verdana, arial, sans-serif; font-size: 12px; fill: rgb(214, 223, 239); fill-opacity: 1; white-space: pre; opacity: 1;">5k</text></g><g class="ytick"><text text-anchor="end" x="35" y="4.199999999999999" style="font-family: 'Open Sans', verdana, arial, sans-serif; font-size: 12px; fill: rgb(214, 223, 239); fill-opacity: 1; white-space: pre; opacity: 1;" transform="translate(0,272.1)">6k</text></g><g class="ytick"><text text-anchor="end" x="35" y="4.199999999999999" style="font-family: 'Open Sans', verdana, arial, sans-serif; font-size: 12px; fill: rgb(214, 223, 239); fill-opacity: 1; white-space: pre; opacity: 1;" transform="translate(0,229.04)">7k</text></g><g class="ytick"><text text-anchor="end" x="35" y="4.199999999999999" style="font-family: 'Open Sans', verdana, arial, sans-serif; font-size: 12px; fill: rgb(214, 223, 239); fill-opacity: 1; white-space: pre; opacity: 1;" transform="translate(0,185.98000000000002)">8k</text></g><g class="ytick"><text text-anchor="end" x="35" y="4.199999999999999" style="font-family: 'Open Sans', verdana, arial, sans-serif; font-size: 12px; fill: rgb(214, 223, 239); fill-opacity: 1; white-space: pre; opacity: 1;" transform="translate(0,142.91)">9k</text></g><g class="ytick"><text text-anchor="end" x="35" y="4.199999999999999" style="font-family: 'Open Sans', verdana, arial, sans-serif; font-size: 12px; fill: rgb(214, 223, 239); fill-opacity: 1; white-space: pre; opacity: 1;" transform="translate(0,99.85)">10k</text></g></g><g class="overaxes-above"/></g><g class="subplot x2y2"><g class="layer-subplot"><g class="shapelayer"/><g class="imagelayer"/></g><g class="minor-gridlayer"><g class="x2"/><g class="y2"/></g><g class="gridlayer"><g class="x2"><path class="x2grid crisp" transform="translate(40.5,0)" d="M0,361.7686567164179v256.2313432835821" style="stroke: rgb(49, 52, 57); stroke-opacity: 1; stroke-width: 1px;"/><path class="x2grid crisp" transform="translate(180,0)" d="M0,361.7686567164179v256.2313432835821" style="stroke: rgb(49, 52, 57); stroke-opacity: 1; stroke-width: 1px;"/><path class="x2grid crisp" transform="translate(310.5,0)" d="M0,361.7686567164179v256.2313432835821" style="stroke: rgb(49, 52, 57); stroke-opacity: 1; stroke-width: 1px;"/><path class="x2grid crisp" transform="translate(450,0)" d="M0,361.7686567164179v256.2313432835821" style="stroke: rgb(49, 52, 57); stroke-opacity: 1; stroke-width: 1px;"/><path class="x2grid crisp" transform="translate(585,0)" d="M0,361.7686567164179v256.2313432835821" style="stroke: rgb(49, 52, 57); stroke-opacity: 1; stroke-width: 1px;"/></g><g class="y2"><path class="y2grid crisp" transform="translate(0,552.858656716418)" d="M36,0h684" style="stroke: rgb(49, 52, 57); stroke-opacity: 1; stroke-width: 1px;"/><path class="y2grid crisp" transform="translate(0,486.44865671641793)" d="M36,0h684" style="stroke: rgb(49, 52, 57); stroke-opacity: 1; stroke-width: 1px;"/><path class="y2grid crisp" transform="translate(0,420.0286567164179)" d="M36,0h684" style="stroke: rgb(49, 52, 57); stroke-opacity: 1; stroke-width: 1px;"/></g></g><g class="zerolinelayer"/><path class="xlines-below"/><path class="ylines-below"/><g class="overlines-below"/><g class="xaxislayer-below"/><g class="yaxislayer-below"/><g class="overaxes-below"/><g class="plot" transform="translate(36,361.7686567164179)" clip-path="url(#clipf923c5x2y2plot)"><g class="scatterlayer mlayer"><g class="trace scatter tracea6adfbb0-1d50-49b8-acda-4776e8b87d7d" style="stroke-miterlimit: 2; opacity: 1;"><g class="fills"/><g class="errorbars"/><g class="lines"><path class="js-line" d="M0,218.18L4.5,216.59L9,221.1L13.5,212.12L18,210.92L22.5,209.32L27,198.66L31.5,199.67L36,202.7L40.5,205.73L45,199.11L49.5,200.49L54,196.57L58.5,198.76L63,169.9L67.5,169.53L72,171.98L76.5,163.49L81,157.4L85.5,168.55L90,168.35L94.5,164.93L99,166.79L103.5,173.92L108,173.76L112.5,176.1L117,167.08L121.5,163.29L126,156.06L130.5,157.82L135,145.01L139.5,151.03L144,146.36L148.5,139.8L153,138.14L157.5,138.96L162,119.06L166.5,108.29L171,94.49L175.5,93.93L180,86.72L184.5,93.43L189,77.06L193.5,37.8L198,34.22L202.5,12.81L207,38.7L211.5,45.12L216,36.53L220.5,15.83L225,45.29L229.5,47.7L234,37.54L238.5,41.88L243,26.71L247.5,38.05L252,61.16L256.5,90.57L261,89.14L265.5,89.13L270,98.31L274.5,99.48L279,84.07L283.5,92.16L288,92.11L292.5,85.8L297,66.86L301.5,74.4L306,123.76L310.5,122.04L315,123.66L319.5,131.49L324,241.11L328.5,213.41L333,226.55L337.5,224.02L342,243.42L346.5,238.99L351,237.79L355.5,208.9L360,214.02L364.5,213.91L369,226.53L373.5,211.13L378,206.02L382.5,209.43L387,206.55L391.5,212.43L396,216.35L400.5,223.52L405,213.8L409.5,212.89L414,210.17L418.5,201.68L423,201.6L427.5,197.44L432,199.66L436.5,165.67L441,171.03L445.5,161.02L450,163.45L454.5,179.92L459,180.18L463.5,176.29L468,182.75L472.5,181L477,186.73L481.5,161.66L486,162.35L490.5,142.06L495,149.1L499.5,161.48L504,160.89L508.5,147.79L513,144.56L517.5,138.97L522,130.63L526.5,128.24L531,128.36L535.5,126.78L540,102.14L544.5,114.58L549,105.79L553.5,104.32L558,110.16L562.5,113.82L567,115.68L571.5,119.29L576,108.35L580.5,107.42L585,109.27L589.5,139.82L594,143.39L598.5,138.87L603,125.75L607.5,120.76L612,130.49L616.5,123.78L621,115.17L625.5,105.38L630,106.81L634.5,111.27L639,124.83L643.5,115.15L648,113.13L652.5,121.53L657,117.61L661.5,122.15L666,112.9L670.5,98.32L675,97.21L679.5,68.43L684,83.53" style="vector-effect: none; fill: none; stroke: rgb(255, 127, 14); stroke-opacity: 1; stroke-width: 2px; opacity: 1;"/></g><g class="points"/><g class="text"/></g></g></g><g class="overplot"/><path class="xlines-above crisp" d="M0,0" style="fill: none;"/><path class="ylines-above crisp" d="M0,0" style="fill: none;"/><g class="overlines-above"/><g class="xaxislayer-above"><g class="x2tick"><text text-anchor="middle" x="0" y="631" transform="translate(40.5,0)" style="font-family: 'Open Sans', verdana, arial, sans-serif; font-size: 12px; fill: rgb(214, 223, 239); fill-opacity: 1; white-space: pre; opacity: 1;">Jan 2020</text></g><g class="x2tick"><text text-anchor="middle" x="0" y="631" style="font-family: 'Open Sans', verdana, arial, sans-serif; font-size: 12px; fill: rgb(214, 223, 239); fill-opacity: 1; white-space: pre; opacity: 1;" transform="translate(180,0)">Feb 2020</text></g><g class="x2tick"><text text-anchor="middle" x="0" y="631" style="font-family: 'Open Sans', verdana, arial, sans-serif; font-size: 12px; fill: rgb(214, 223, 239); fill-opacity: 1; white-space: pre; opacity: 1;" transform="translate(310.5,0)">Mar 2020</text></g><g class="x2tick"><text text-anchor="middle" x="0" y="631" style="font-family: 'Open Sans', verdana, arial, sans-serif; font-size: 12px; fill: rgb(214, 223, 239); fill-opacity: 1; white-space: pre; opacity: 1;" transform="translate(450,0)">Apr 2020</text></g><g class="x2tick"><text text-anchor="middle" x="0" y="631" style="font-family: 'Open Sans', verdana, arial, sans-serif; font-size: 12px; fill: rgb(214, 223, 239); fill-opacity: 1; white-space: pre; opacity: 1;" transform="translate(585,0)">May 2020</text></g></g><g class="yaxislayer-above"><g class="y2tick"><text text-anchor="end" x="35" y="4.199999999999999" transform="translate(0,552.858656716418)" style="font-family: 'Open Sans', verdana, arial, sans-serif; font-size: 12px; fill: rgb(214, 223, 239); fill-opacity: 1; white-space: pre; opacity: 1;">150</text></g><g class="y2tick"><text text-anchor="end" x="35" y="4.199999999999999" style="font-family: 'Open Sans', verdana, arial, sans-serif; font-size: 12px; fill: rgb(214, 223, 239); fill-opacity: 1; white-space: pre; opacity: 1;" transform="translate(0,486.44865671641793)">200</text></g><g class="y2tick"><text text-anchor="end" x="35" y="4.199999999999999" style="font-family: 'Open Sans', verdana, arial, sans-serif; font-size: 12px; fill: rgb(214, 223, 239); fill-opacity: 1; white-space: pre; opacity: 1;" transform="translate(0,420.0286567164179)">250</text></g></g><g class="overaxes-above"/></g></g><g class="polarlayer"/><g class="smithlayer"/><g class="ternarylayer"/><g class="geolayer"/><g class="funnelarealayer"/><g class="pielayer"/><g class="iciclelayer"/><g class="treemaplayer"/><g class="sunburstlayer"/><g class="glimages"/><defs id="topdefs-f923c5"><g class="clips"/><clipPath id="legendf923c5"><rect width="78" height="29" x="0" y="0"/></clipPath></defs><g class="layer-above"><g class="imagelayer"/><g class="shapelayer"/></g><g class="infolayer"><g class="legend" pointer-events="all" transform="translate(642,11.462686567164205)"><rect class="bg" shape-rendering="crispEdges" style="stroke: rgb(68, 68, 68); stroke-opacity: 1; fill: rgb(33, 34, 38); fill-opacity: 1; stroke-width: 0px;" width="78" height="29" x="0" y="0"/><g class="scrollbox" transform="" clip-path="url(#legendf923c5)"><g class="groups"><g class="traces" transform="translate(0,14.5)" style="opacity: 1;"><text class="legendtext" text-anchor="start" x="40" y="4.680000000000001" style="font-family: 'Open Sans', verdana, arial, sans-serif; font-size: 12px; fill: rgb(214, 223, 239); fill-opacity: 1; white-space: pre;">Close</text><g class="layers" style="opacity: 1;"><g class="legendfill"/><g class="legendlines"><path class="js-line" d="M5,0h30" style="fill: none; stroke: rgb(31, 119, 180); stroke-opacity: 1; stroke-width: 2px;"/></g><g class="legendsymbols"><g class="legendpoints"/></g></g><rect class="legendtoggle" x="0" y="-9.5" width="74.859375" height="19" style="fill: rgb(0, 0, 0); fill-opacity: 0;"/></g></g></g><rect class="scrollbar" rx="20" ry="3" width="0" height="0" style="fill: rgb(128, 139, 164); fill-opacity: 1;" x="0" y="0"/></g><g class="g-gtitle"/><g class="g-xtitle"/><g class="g-x2title"><text class="x2title" x="378" y="657.8" text-anchor="middle" style="font-family: 'Open Sans', verdana, arial, sans-serif; font-size: 14px; fill: rgb(214, 223, 239); opacity: 1; font-weight: normal; white-space: pre;">Index</text></g><g class="g-ytitle"/><g class="g-y2title"/><g class="annotation" data-index="0" style="opacity: 1;"><g class="annotation-text-g" transform="rotate(0,378,61)"><g class="cursor-pointer" transform="translate(339,49)"><rect class="bg" x="0.5" y="0.5" width="77" height="23" style="stroke-width: 1px; stroke: rgb(0, 0, 0); stroke-opacity: 0; fill: rgb(0, 0, 0); fill-opacity: 0;"/><text class="annotation-text" text-anchor="middle" x="39.125" y="18" style="font-family: 'Open Sans', verdana, arial, sans-serif; font-size: 16px; fill: rgb(214, 223, 239); fill-opacity: 1; white-space: pre;">BTC-USD</text></g></g></g><g class="annotation" data-index="1" style="opacity: 1;"><g class="annotation-text-g" transform="rotate(0,378,349.7686567164179)"><g class="cursor-pointer" transform="translate(339,338)"><rect class="bg" x="0.5" y="0.5" width="77" height="23" style="stroke-width: 1px; stroke: rgb(0, 0, 0); stroke-opacity: 0; fill: rgb(0, 0, 0); fill-opacity: 0;"/><text class="annotation-text" text-anchor="middle" x="39.125" y="18" style="font-family: 'Open Sans', verdana, arial, sans-serif; font-size: 16px; fill: rgb(214, 223, 239); fill-opacity: 1; white-space: pre;">ETH-USD</text></g></g></g></g></svg>