<svg class="main-svg" xmlns="http://www.w3.org/2000/svg" xmlns:xlink="http://www.w3.org/1999/xlink" width="700" height="350" style="" viewBox="0 0 700 350"><rect x="0" y="0" width="700" height="350" style="fill: rgb(255, 255, 255); fill-opacity: 1;"/><defs id="defs-9b39a1"><g class="clips"><clipPath id="clip9b39a1xyplot" class="plotclip"><rect width="630" height="274"/></clipPath><clipPath class="axesclip" id="clip9b39a1x"><rect x="40" y="0" width="630" height="350"/></clipPath><clipPath class="axesclip" id="clip9b39a1y"><rect x="0" y="46" width="700" height="274"/></clipPath><clipPath class="axesclip" id="clip9b39a1xy"><rect x="40" y="46" width="630" height="274"/></clipPath></g><g class="gradients"/><g class="patterns"/></defs><g class="bglayer"><rect class="bg" x="40" y="46" width="630" height="274" style="fill: rgb(229, 236, 246); fill-opacity: 1; stroke-width: 0;"/></g><g class="layer-below"><g class="imagelayer"/><g class="shapelayer"/></g><g class="cartesianlayer"><g class="subplot xy"><g class="layer-subplot"><g class="shapelayer"/><g class="imagelayer"/></g><g class="minor-gridlayer"><g class="x"/><g class="y"/></g><g class="gridlayer"><g class="x"><path class="xgrid crisp" transform="translate(143.56,0)" d="M0,46v274" style="stroke: rgb(255, 255, 255); stroke-opacity: 1; stroke-width: 1px;"/><path class="xgrid crisp" transform="translate(248.85,0)" d="M0,46v274" style="stroke: rgb(255, 255, 255); stroke-opacity: 1; stroke-width: 1px;"/><path class="xgrid crisp" transform="translate(354.14,0)" d="M0,46v274" style="stroke: rgb(255, 255, 255); stroke-opacity: 1; stroke-width: 1px;"/><path class="xgrid crisp" transform="translate(461.15,0)" d="M0,46v274" style="stroke: rgb(255, 255, 255); stroke-opacity: 1; stroke-width: 1px;"/><path class="xgrid crisp" transform="translate(566.44,0)" d="M0,46v274" style="stroke: rgb(255, 255, 255); stroke-opacity: 1; stroke-width: 1px;"/></g><g class="y"><path class="ygrid crisp" transform="translate(0,295.18)" d="M40,0h630" style="stroke: rgb(255, 255, 255); stroke-opacity: 1; stroke-width: 1px;"/><path class="ygrid crisp" transform="translate(0,259.12)" d="M40,0h630" style="stroke: rgb(255, 255, 255); stroke-opacity: 1; stroke-width: 1px;"/><path class="ygrid crisp" transform="translate(0,223.07)" d="M40,0h630" style="stroke: rgb(255, 255, 255); stroke-opacity: 1; stroke-width: 1px;"/><path class="ygrid crisp" transform="translate(0,187.01)" d="M40,0h630" style="stroke: rgb(255, 255, 255); stroke-opacity: 1; stroke-width: 1px;"/><path class="ygrid crisp" transform="translate(0,150.95999999999998)" d="M40,0h630" style="stroke: rgb(255, 255, 255); stroke-opacity: 1; stroke-width: 1px;"/><path class="ygrid crisp" transform="translate(0,114.9)" d="M40,0h630" style="stroke: rgb(255, 255, 255); stroke-opacity: 1; stroke-width: 1px;"/><path class="ygrid crisp" transform="translate(0,78.85)" d="M40,0h630" style="stroke: rgb(255, 255, 255); stroke-opacity: 1; stroke-width: 1px;"/></g></g><g class="zerolinelayer"/><path class="xlines-below"/><path class="ylines-below"/><g class="overlines-below"/><g class="xaxislayer-below"/><g class="yaxislayer-below"/><g class="overaxes-below"/><g class="plot" transform="translate(40,46)" clip-path="url(#clip9b39a1xyplot)"><g class="scatterlayer mlayer"><g class="trace scatter tracec3b312ec-8147-473c-ad53-198002a6d4d5" style="stroke-miterlimit: 2; opacity: 1;"><g class="fills"/><g class="errorbars"/><g class="lines"><path class="js-line" d="M0,178.48L1.73,176.95L3.45,185.5L5.18,183.39L6.9,179.79L8.63,182.3L10.36,182.54L13.81,184.49L15.53,184.38L17.26,183.67L18.99,179.75L20.71,181.63L22.44,182.11L24.16,188.64L25.89,187.32L27.62,186.83L29.34,183.67L31.07,182.72L32.79,185.73L37.97,189.15L39.7,182L41.42,194.48L43.15,193.31L44.88,194.74L46.6,193.8L48.33,195.39L50.05,193.64L51.78,195.7L53.51,195.21L55.23,195.16L56.96,200.41L62.14,205.69L63.86,210.84L65.59,210.34L67.32,211.64L69.04,209.33L70.77,210.73L72.49,208.91L74.22,208.86L75.95,212.75L77.67,213.07L82.85,217.2L84.58,217.18L86.3,212.8L88.03,212.88L94.93,207.4L96.66,210.57L98.38,214.54L100.11,213.26L103.56,214.17L105.29,211.21L107.01,209.61L108.74,210.98L110.47,208.69L112.19,209.93L113.92,208.47L115.64,211.94L117.37,211.69L119.1,210.05L120.82,209.79L122.55,212.61L124.27,213.67L126,210.85L129.45,213.74L131.18,212.24L132.9,212.23L134.63,213.5L136.36,218.58L138.08,217.38L141.53,218.77L143.26,216.97L144.99,213.66L146.71,213.2L148.44,212.46L150.16,204.6L151.89,201.71L153.62,200.98L158.79,196.51L160.52,194.41L162.25,194.94L163.97,197.88L165.7,199.91L167.42,203.63L169.15,205.08L170.88,207.8L172.6,211.55L174.33,211.03L176.05,210.9L177.78,212.98L179.51,215.71L181.23,215.26L182.96,215.92L184.68,213.59L188.14,211.11L189.86,212.22L191.59,214.66L193.32,213.48L196.77,220.42L198.49,219.76L200.22,220.72L201.95,218.13L203.67,222.34L205.4,221.45L207.12,221.9L208.85,221.57L210.58,212.39L212.3,214.96L214.03,217.69L215.75,218.69L217.48,216.01L219.21,214.87L220.93,213.32L222.66,215L224.38,208.83L226.11,207.31L229.56,203.06L231.29,203.03L234.74,197.71L236.47,192.76L238.19,190.97L239.92,191.18L241.64,189.73L243.37,189.82L245.1,190.26L246.82,192.4L252,189.73L253.73,182.53L257.18,178.05L258.9,177.34L260.63,173.65L262.36,179L264.08,181.62L265.81,180.05L267.53,180.79L269.26,183.33L270.99,178.69L272.71,178.41L274.44,178.21L276.16,177.04L277.89,176.15L279.62,184.89L281.34,182.25L283.07,184.37L284.79,184.91L286.52,181.1L289.97,179.68L291.7,177.14L293.42,176.52L295.15,173.11L296.88,173.94L298.6,177.21L300.33,172.33L302.05,172.83L303.78,175.34L305.51,99.65L307.23,96.02L308.96,97.97L310.68,84.23L312.41,81.12L314.14,83.18L315.86,78.44L317.59,78.24L319.32,79.27L321.04,75.97L322.77,79.24L324.49,82.37L326.22,83.56L327.95,83.48L329.67,81.13L331.4,86.9L333.12,89.43L334.85,89.51L336.58,93.87L338.3,100.97L340.03,98.79L341.75,94.78L343.48,96.24L346.93,107.41L348.66,110.34L352.11,108.19L353.84,103.59L355.56,102.35L357.29,104.54L360.74,102.47L362.47,99.03L365.92,98.41L367.64,99.31L369.37,103.97L371.1,103.15L374.55,102.18L376.27,102.34L378,104.55L379.73,105.35L381.45,109.62L383.18,111.14L384.9,113.4L386.63,117.79L388.36,101.6L390.08,92.72L391.81,96.85L393.53,91.84L395.26,95.96L396.99,96.77L398.71,100.56L400.44,101.34L402.16,101.43L403.89,104.86L405.62,95.62L407.34,98.96L409.07,98.45L410.79,99.72L412.52,86.52L414.25,79.9L415.97,78.42L417.7,83.46L419.42,90.95L421.15,86.99L422.88,81.08L424.6,81.49L426.33,83.1L428.05,86.06L429.78,85.7L431.51,92.79L433.23,95.59L434.96,93.22L436.68,90.06L438.41,94.05L440.14,93.18L441.86,93.79L445.32,85.21L447.04,82.41L448.77,80.62L450.49,83.59L452.22,83.01L453.95,78.73L455.67,78.7L457.4,75.83L459.12,73.03L460.85,78.83L462.58,80.13L464.3,76.65L467.75,59.13L469.48,57.98L472.93,63.17L474.66,58.47L476.38,55.02L478.11,55.28L479.84,55.32L481.56,57.97L483.29,69.93L485.01,64.08L486.74,71.56L488.47,70.89L490.19,72.47L491.92,77.38L493.64,76.43L495.37,77.27L497.1,79.14L498.82,83.32L502.27,86.24L504,84.28L505.73,87.29L507.45,92.76L509.18,96.32L510.9,102.2L512.63,97.11L514.36,94.9L516.08,89.4L517.81,90.64L519.53,89.95L521.26,87.28L522.99,89.28L524.71,88.85L526.44,89.27L528.16,86.74L529.89,86.94L531.62,88.56L533.34,88.21L535.07,91.16L536.79,90.83L538.52,101.05L540.25,100.56L541.97,97.95L543.7,103.62L545.42,101.99L547.15,101.19L548.88,101.74L552.33,114.26L554.05,115.5L555.78,114.67L557.51,114.87L559.23,111.56L560.96,115.55L562.68,115.58L564.41,111.7L566.14,109.34L567.86,110.08L569.59,105.42L571.32,103.5L573.04,99.88L574.77,100.63L576.49,93.62L578.22,91.29L579.95,95.68L581.67,71.78L583.4,70.2L585.12,69.71L586.85,68.63L588.58,60.28L590.3,50.58L592.03,48.05L593.75,50.13L595.48,47.38L597.21,50.05L598.93,44.13L600.66,37.4L602.38,51.13L604.11,46.15L605.84,43.77L609.29,40.59L611.01,36.2L612.74,31.22L614.47,33.69L616.19,36.66L617.92,28.42L623.1,15.76L624.82,13.7L626.55,19.07L628.27,17.91L630,22.93" style="vector-effect: none; fill: none; stroke: rgb(31, 119, 180); stroke-opacity: 1; stroke-width: 2px; opacity: 1;"/></g><g class="points"/><g class="text"/></g><g class="trace scatter trace1c853015-ed9a-45d5-afaf-680bf4ec3e79" style="stroke-miterlimit: 2; opacity: 1;"><g class="fills"/><g class="errorbars"/><g class="lines"><path class="js-line" d="M0,173.65L1.73,177.9L3.45,176.21L5.18,183.46L6.9,184.89L10.36,189.01L12.08,191.46L13.81,188.53L15.53,188.22L17.26,189.92L18.99,188.03L20.71,189.28L22.44,191.94L24.16,189.44L25.89,190.45L27.62,193.14L29.34,188.7L31.07,184.68L32.79,186.97L34.52,187.45L36.25,188.77L37.97,185.59L39.7,185.28L41.42,180.49L43.15,178.06L44.88,179.49L46.6,182L48.33,184.36L50.05,180.72L53.51,176.89L55.23,177.82L56.96,184.16L58.68,184.14L60.41,184.84L62.14,187.94L65.59,180.9L67.32,179.59L69.04,177.31L70.77,179.26L72.49,176L74.22,177.41L75.95,178.29L77.67,178.12L79.4,173.08L81.12,173.13L82.85,179.98L84.58,182.04L86.3,184.3L88.03,180.86L89.75,179.01L91.48,179.42L98.38,178.48L100.11,179.27L101.84,176.7L103.56,179.71L105.29,181.72L107.01,181.28L108.74,182.21L110.47,181.66L112.19,179.2L113.92,178.17L115.64,178.92L117.37,187.87L119.1,201.88L120.82,199.99L124.27,196.41L126,195.93L127.73,196.48L129.45,186.93L132.9,184.91L134.63,180.95L138.08,179.04L139.81,189.1L141.53,184.96L143.26,188.24L144.99,189.74L146.71,186.29L148.44,189.04L150.16,193.32L151.89,191.31L153.62,192.65L155.34,191.14L157.07,191.02L160.52,186.88L162.25,189.54L165.7,189.51L167.42,187.92L170.88,186.89L172.6,186.59L174.33,186.08L176.05,187.39L177.78,187.91L179.51,185.79L182.96,187.47L184.68,186.52L186.41,185.54L188.14,185.63L189.86,182.63L191.59,186.6L195.04,186.22L196.77,186.45L203.67,180.99L205.4,176.3L210.58,171.9L212.3,176.88L215.75,172.8L217.48,175.17L219.21,173.65L220.93,173.31L222.66,171.54L224.38,172.23L227.84,173.84L229.56,176.57L231.29,174.08L233.01,174.88L234.74,178.3L236.47,172.37L238.19,172.47L239.92,170.8L241.64,166.76L243.37,170.11L245.1,167.85L246.82,171.92L252,182.85L253.73,184.1L255.45,181.35L257.18,182.75L258.9,182.22L260.63,186.45L262.36,186.61L264.08,190.76L265.81,190.34L267.53,192.61L269.26,190.67L270.99,195L272.71,180.12L274.44,178.86L277.89,176.48L279.62,177.41L281.34,177.75L283.07,182.93L284.79,182.08L286.52,179.08L288.25,180.01L289.97,182.14L291.7,180.56L293.42,181.26L295.15,185.49L296.88,182.69L300.33,180.93L302.05,181.34L303.78,178.44L305.51,156.57L307.23,150.34L308.96,150.76L314.14,145.82L315.86,145.57L317.59,145.12L319.32,146.6L321.04,145.72L322.77,149.4L324.49,148.57L326.22,146.15L331.4,133.79L333.12,134.04L338.3,142.81L340.03,144.55L343.48,145.45L345.21,147.63L346.93,150.3L348.66,150.9L350.38,156.67L352.11,158.1L353.84,159.65L355.56,156.97L359.01,158.16L360.74,163.22L362.47,159.35L364.19,162.83L365.92,166.28L367.64,171.56L369.37,173.42L371.1,172.72L372.82,172.74L374.55,171.99L376.27,174.03L378,171.81L379.73,163.66L381.45,165.23L384.9,169.71L386.63,169.43L388.36,173.78L390.08,171.08L391.81,171.9L393.53,171.35L395.26,168.8L396.99,169.46L398.71,172.63L400.44,172.34L402.16,172.23L403.89,176L405.62,177.18L407.34,176.3L409.07,176.59L410.79,175.7L414.25,180.04L415.97,179.37L417.7,177.01L419.42,180.63L421.15,180.43L422.88,181.66L424.6,182.45L426.33,180.84L428.05,177.27L429.78,175.62L431.51,171.03L433.23,175.4L434.96,175.21L436.68,179.23L438.41,176.96L440.14,172.66L441.86,171.17L443.59,175.44L445.32,179.46L447.04,177.55L448.77,177.18L450.49,180.03L452.22,180.8L453.95,184.16L455.67,183.39L457.4,179.6L459.12,177.48L460.85,176.82L462.58,176.26L464.3,177.02L466.03,175.56L467.75,168.66L469.48,169.77L471.21,167.63L472.93,167.73L474.66,169.55L476.38,169.95L478.11,173.1L479.84,173.87L481.56,173.39L483.29,172.83L485.01,176.64L486.74,159.23L488.47,162.41L490.19,160.14L491.92,172.13L493.64,175.53L495.37,175.43L497.1,175.01L498.82,173.27L500.55,173.77L502.27,177.72L504,175.47L505.73,178.75L507.45,183.07L509.18,182.44L510.9,184.39L512.63,181.05L514.36,182.24L516.08,194.99L517.81,198.47L519.53,199.41L521.26,200.9L522.99,200.66L524.71,200.9L526.44,202.38L528.16,206.23L529.89,201.23L531.62,202.96L533.34,201.77L535.07,199.09L536.79,201.21L538.52,198.8L540.25,199.85L541.97,197.44L543.7,201.21L545.42,200.35L547.15,202.42L550.6,205.98L552.33,205.24L555.78,209.1L557.51,208.47L559.23,210.34L560.96,209.36L562.68,208.75L564.41,209.44L567.86,210.28L569.59,209.19L571.32,209.78L573.04,212.97L574.77,215.69L576.49,214.19L578.22,212.49L579.95,212.61L581.67,210.9L583.4,206.22L585.12,203.56L586.85,205.73L588.58,199.3L590.3,196.45L592.03,202.76L593.75,203.27L598.93,208.05L600.66,207.44L602.38,205.14L604.11,204.86L605.84,181.06L607.56,181.6L609.29,178.9L611.01,179.67L614.47,182.47L616.19,187.58L619.64,189.95L621.37,193.03L623.1,191.98L624.82,196.08L626.55,191.19L628.27,191.05L630,192.03" style="vector-effect: none; fill: none; stroke: rgb(255, 127, 14); stroke-opacity: 1; stroke-width: 2px; opacity: 1;"/></g><g class="points"/><g class="text"/></g><g class="trace scatter tracea41da8ea-488e-4bf5-a279-01f5bb0706ed" style="stroke-miterlimit: 2; opacity: 1;"><g class="fills"/><g class="errorbars"/><g class="lines"><path class="js-line" d="M0,176.4L1.73,180.93L3.45,180.23L5.18,177.43L6.9,179.06L10.36,178.21L12.08,180.19L15.53,186.48L17.26,190.91L20.71,187.38L22.44,187.43L24.16,189.61L25.89,189.38L29.34,177.69L31.07,181.43L32.79,183.58L34.52,179.98L36.25,179.53L37.97,184.55L39.7,186.23L41.42,184.41L43.15,187.92L44.88,184.33L46.6,187.22L48.33,186.41L50.05,186.5L51.78,185.73L53.51,185.8L55.23,195.5L58.68,194.25L60.41,191.77L62.14,192.9L63.86,190.83L65.59,188.1L67.32,187.74L69.04,190.22L70.77,191.21L72.49,199.36L74.22,201.05L77.67,197.64L79.4,189.69L81.12,191.7L82.85,190.61L84.58,191.09L86.3,194.61L89.75,196.71L91.48,195.67L93.21,197.95L94.93,198.82L96.66,197.42L98.38,200.29L100.11,198.99L101.84,204.1L103.56,200.64L105.29,200.44L107.01,200.35L108.74,199.19L110.47,200.42L112.19,198.68L113.92,197.51L115.64,192.53L119.1,199.42L120.82,198.96L122.55,201.55L124.27,200.48L126,200.3L127.73,202.79L129.45,203.4L131.18,201.04L132.9,201.12L134.63,204.07L136.36,206.65L138.08,204.63L141.53,197.33L143.26,197.6L144.99,199.69L146.71,197.56L150.16,196.87L151.89,195.06L153.62,197.49L155.34,192.51L157.07,192.5L158.79,191.13L160.52,192.46L162.25,191.35L163.97,191.1L165.7,199.68L167.42,200.08L169.15,198.59L170.88,200.64L172.6,200.48L174.33,194.07L176.05,190.95L177.78,195.8L179.51,194.1L181.23,198.07L182.96,197.74L184.68,199.29L186.41,198.49L188.14,201.64L189.86,207.28L191.59,211.63L193.32,211.77L196.77,212.81L198.49,214.82L200.22,214.79L201.95,217.13L203.67,218.29L205.4,217.72L208.85,218.81L210.58,222.38L214.03,232.62L215.75,237.2L217.48,239.96L219.21,238.99L220.93,239.89L222.66,237.94L224.38,238.42L226.11,237.43L227.84,235.93L229.56,232.57L231.29,232.83L233.01,237.68L234.74,238.77L236.47,238.27L238.19,238.95L239.92,236.83L241.64,237.65L243.37,237.53L245.1,238.13L246.82,236.7L248.55,239.55L250.27,238.72L252,240.05L253.73,240.38L255.45,231.27L257.18,233.75L260.63,234.6L262.36,237.57L264.08,236.27L265.81,231.99L267.53,230.16L269.26,236.22L270.99,235L272.71,236.56L276.16,236.59L277.89,234.44L279.62,230.92L281.34,230.05L283.07,230.16L284.79,232.81L286.52,232.33L288.25,230.99L291.7,228.28L293.42,224.09L295.15,227.15L296.88,214.29L298.6,215.28L300.33,213.05L302.05,214.82L303.78,213.94L305.51,213.65L307.23,209.9L312.41,214.07L314.14,214L317.59,209.52L319.32,216.63L321.04,215.52L322.77,221.01L327.95,224.59L329.67,220.27L331.4,220.3L333.12,214.46L334.85,213.46L336.58,216.95L338.3,219.39L340.03,220.35L341.75,219.48L343.48,221.26L345.21,224.8L346.93,225.04L348.66,225.03L350.38,222.99L352.11,219.98L353.84,223.02L355.56,226.72L357.29,226.77L359.01,227.05L360.74,230.32L364.19,230.56L365.92,231.77L367.64,232.66L369.37,235.42L371.1,234.47L372.82,237.48L374.55,236.64L376.27,238.89L379.73,237.99L381.45,239.74L383.18,241.79L384.9,240.01L388.36,241.2L390.08,240.08L393.53,238.18L395.26,240L398.71,239.27L400.44,241.48L402.16,241.98L403.89,243.94L405.62,241.86L407.34,241.09L409.07,241.72L410.79,241.01L412.52,239.41L414.25,240.93L415.97,238.58L417.7,239.08L419.42,237.86L421.15,238.7L422.88,236.76L424.6,237.12L426.33,237.11L428.05,238.23L431.51,237.3L433.23,235.01L434.96,232.16L436.68,233.51L438.41,235.45L440.14,231.92L445.32,235.29L447.04,234.51L448.77,236.15L450.49,233.15L452.22,233.19L453.95,232.14L455.67,238.13L457.4,237.67L460.85,236.69L462.58,233.38L466.03,236.66L467.75,236.58L469.48,240.69L471.21,247.93L474.66,248.07L476.38,249.59L478.11,251.19L479.84,248.74L481.56,247.81L483.29,248.37L486.74,248.9L488.47,247.81L490.19,249.36L491.92,249.6L493.64,248.1L495.37,248.36L497.1,250.1L498.82,248.1L500.55,247.92L502.27,249.56L504,251.76L505.73,250.56L507.45,249.24L509.18,249.76L510.9,248.79L512.63,249.08L517.81,252.21L519.53,250.94L522.99,253.05L524.71,252.65L526.44,250.52L528.16,250.1L529.89,248.61L531.62,249.6L533.34,251.9L535.07,249.36L536.79,251.44L538.52,252.31L540.25,252.13L541.97,253.49L543.7,251.12L545.42,250.61L547.15,248.64L548.88,248.51L550.6,247.49L552.33,247.95L554.05,248.63L555.78,248.42L557.51,246.59L559.23,248.51L560.96,252.21L562.68,253.81L564.41,254.59L566.14,253.7L567.86,251.99L569.59,253.42L571.32,255.35L573.04,252.78L576.49,251.82L578.22,250.58L581.67,253.17L583.4,254.86L585.12,257.88L586.85,255.1L588.58,255.22L590.3,256.17L592.03,255.77L593.75,257.85L595.48,256.27L597.21,256.16L598.93,255.57L600.66,256.7L602.38,259.38L604.11,257.7L605.84,258.67L607.56,258.72L609.29,253.72L611.01,254.03L612.74,257.49L614.47,258.58L616.19,259.96L617.92,260.3L619.64,257.68L621.37,257.97L623.1,258.09L624.82,249.98L626.55,249.11L628.27,250.64L630,251.98" style="vector-effect: none; fill: none; stroke: rgb(44, 160, 44); stroke-opacity: 1; stroke-width: 2px; opacity: 1;"/></g><g class="points"/><g class="text"/></g></g></g><g class="overplot"/><path class="xlines-above crisp" d="M0,0" style="fill: none;"/><path class="ylines-above crisp" d="M0,0" style="fill: none;"/><g class="overlines-above"/><g class="xaxislayer-above"><g class="xtick"><text text-anchor="middle" x="0" y="333" transform="translate(40,0)" style="font-family: 'Open Sans', verdana, arial, sans-serif; font-size: 12px; fill: rgb(42, 63, 95); fill-opacity: 1; white-space: pre; opacity: 1;">Jan 2020</text></g><g class="xtick"><text text-anchor="middle" x="0" y="333" style="font-family: 'Open Sans', verdana, arial, sans-serif; font-size: 12px; fill: rgb(42, 63, 95); fill-opacity: 1; white-space: pre; opacity: 1;" transform="translate(143.56,0)">Mar 2020</text></g><g class="xtick"><text text-anchor="middle" x="0" y="333" style="font-family: 'Open Sans', verdana, arial, sans-serif; font-size: 12px; fill: rgb(42, 63, 95); fill-opacity: 1; white-space: pre; opacity: 1;" transform="translate(248.85,0)">May 2020</text></g><g class="xtick"><text text-anchor="middle" x="0" y="333" style="font-family: 'Open Sans', verdana, arial, sans-serif; font-size: 12px; fill: rgb(42, 63, 95); fill-opacity: 1; white-space: pre; opacity: 1;" transform="translate(354.14,0)">Jul 2020</text></g><g class="xtick"><text text-anchor="middle" x="0" y="333" style="font-family: 'Open Sans', verdana, arial, sans-serif; font-size: 12px; fill: rgb(42, 63, 95); fill-opacity: 1; white-space: pre; opacity: 1;" transform="translate(461.15,0)">Sep 2020</text></g><g class="xtick"><text text-anchor="middle" x="0" y="333" style="font-family: 'Open Sans', verdana, arial, sans-serif; font-size: 12px; fill: rgb(42, 63, 95); fill-opacity: 1; white-space: pre; opacity: 1;" transform="translate(566.44,0)">Nov 2020</text></g></g><g class="yaxislayer-above"><g class="ytick"><text text-anchor="end" x="39" y="4.199999999999999" transform="translate(0,295.18)" style="font-family: 'Open Sans', verdana, arial, sans-serif; font-size: 12px; fill: rgb(42, 63, 95); fill-opacity: 1; white-space: pre; opacity: 1;">60</text></g><g class="ytick"><text text-anchor="end" x="39" y="4.199999999999999" style="font-family: 'Open Sans', verdana, arial, sans-serif; font-size: 12px; fill: rgb(42, 63, 95); fill-opacity: 1; white-space: pre; opacity: 1;" transform="translate(0,259.12)">80</text></g><g class="ytick"><text text-anchor="end" x="39" y="4.199999999999999" style="font-family: 'Open Sans', verdana, arial, sans-serif; font-size: 12px; fill: rgb(42, 63, 95); fill-opacity: 1; white-space: pre; opacity: 1;" transform="translate(0,223.07)">100</text></g><g class="ytick"><text text-anchor="end" x="39" y="4.199999999999999" style="font-family: 'Open Sans', verdana, arial, sans-serif; font-size: 12px; fill: rgb(42, 63, 95); fill-opacity: 1; white-space: pre; opacity: 1;" transform="translate(0,187.01)">120</text></g><g class="ytick"><text text-anchor="end" x="39" y="4.199999999999999" style="font-family: 'Open Sans', verdana, arial, sans-serif; font-size: 12px; fill: rgb(42, 63, 95); fill-opacity: 1; white-space: pre; opacity: 1;" transform="translate(0,150.95999999999998)">140</text></g><g class="ytick"><text text-anchor="end" x="39" y="4.199999999999999" style="font-family: 'Open Sans', verdana, arial, sans-serif; font-size: 12px; fill: rgb(42, 63, 95); fill-opacity: 1; white-space: pre; opacity: 1;" transform="translate(0,114.9)">160</text></g><g class="ytick"><text text-anchor="end" x="39" y="4.199999999999999" style="font-family: 'Open Sans', verdana, arial, sans-serif; font-size: 12px; fill: rgb(42, 63, 95); fill-opacity: 1; white-space: pre; opacity: 1;" transform="translate(0,78.85)">180</text></g></g><g class="overaxes-above"/></g></g><g class="polarlayer"/><g class="smithlayer"/><g class="ternarylayer"/><g class="geolayer"/><g class="funnelarealayer"/><g class="pielayer"/><g class="iciclelayer"/><g class="treemaplayer"/><g class="sunburstlayer"/><g class="glimages"/><defs id="topdefs-9b39a1"><g class="clips"/><clipPath id="legend9b39a1"><rect width="302" height="29" x="0" y="0"/></clipPath></defs><g class="layer-above"><g class="imagelayer"/><g class="shapelayer"/></g><g class="infolayer"><g class="legend" pointer-events="all" transform="translate(368,11.519999999999996)"><rect class="bg" shape-rendering="crispEdges" width="302" height="29" x="0" y="0" style="stroke: rgb(68, 68, 68); stroke-opacity: 1; fill: rgb(255, 255, 255); fill-opacity: 1; stroke-width: 0px;"/><g class="scrollbox" transform="" clip-path="url(#legend9b39a1)"><g class="groups"><g class="traces" transform="translate(0,14.5)" style="opacity: 1;"><text class="legendtext" text-anchor="start" x="40" y="4.680000000000001" style="font-family: 'Open Sans', verdana, arial, sans-serif; font-size: 12px; fill: rgb(42, 63, 95); fill-opacity: 1; white-space: pre;">BTC/USD</text><g class="layers" style="opacity: 1;"><g class="legendfill"/><g class="legendlines"><path class="js-line" d="M5,0h30" style="fill: none; stroke: rgb(31, 119, 180); stroke-opacity: 1; stroke-width: 2px;"/></g><g class="legendsymbols"><g class="legendpoints"/></g></g><rect class="legendtoggle" x="0" y="-9.5" width="98.1875" height="19" style="fill: rgb(0, 0, 0); fill-opacity: 0;"/></g><g class="traces" transform="translate(100.6875,14.5)" style="opacity: 1;"><text class="legendtext" text-anchor="start" x="40" y="4.680000000000001" style="font-family: 'Open Sans', verdana, arial, sans-serif; font-size: 12px; fill: rgb(42, 63, 95); fill-opacity: 1; white-space: pre;">ETH/USD</text><g class="layers" style="opacity: 1;"><g class="legendfill"/><g class="legendlines"><path class="js-line" d="M5,0h30" style="fill: none; stroke: rgb(255, 127, 14); stroke-opacity: 1; stroke-width: 2px;"/></g><g class="legendsymbols"><g class="legendpoints"/></g></g><rect class="legendtoggle" x="0" y="-9.5" width="98.1875" height="19" style="fill: rgb(0, 0, 0); fill-opacity: 0;"/></g><g class="traces" transform="translate(201.375,14.5)" style="opacity: 1;"><text class="legendtext" text-anchor="start" x="40" y="4.680000000000001" style="font-family: 'Open Sans', verdana, arial, sans-serif; font-size: 12px; fill: rgb(42, 63, 95); fill-opacity: 1; white-space: pre;">XRP/USD</text><g class="layers" style="opacity: 1;"><g class="legendfill"/><g class="legendlines"><path class="js-line" d="M5,0h30" style="fill: none; stroke: rgb(44, 160, 44); stroke-opacity: 1; stroke-width: 2px;"/></g><g class="legendsymbols"><g class="legendpoints"/></g></g><rect class="legendtoggle" x="0" y="-9.5" width="97.984375" height="19" style="fill: rgb(0, 0, 0); fill-opacity: 0;"/></g></g></g><rect class="scrollbar" rx="20" ry="3" width="0" height="0" x="0" y="0" style="fill: rgb(128, 139, 164); fill-opacity: 1;"/></g><g class="g-gtitle"/><g class="g-xtitle"/><g class="g-ytitle"/></g></svg>