<svg class="main-svg" xmlns="http://www.w3.org/2000/svg" xmlns:xlink="http://www.w3.org/1999/xlink" width="700" height="350" style="" viewBox="0 0 700 350"><rect x="0" y="0" width="700" height="350" style="fill: rgb(33, 34, 38); fill-opacity: 1;"/><defs id="defs-3e8bd4"><g class="clips"><clipPath id="clip3e8bd4xyplot" class="plotclip"><rect width="630" height="274"/></clipPath><clipPath class="axesclip" id="clip3e8bd4x"><rect x="40" y="0" width="630" height="350"/></clipPath><clipPath class="axesclip" id="clip3e8bd4y"><rect x="0" y="46" width="700" height="274"/></clipPath><clipPath class="axesclip" id="clip3e8bd4xy"><rect x="40" y="46" width="630" height="274"/></clipPath></g><g class="gradients"/><g class="patterns"/></defs><g class="bglayer"/><g class="layer-below"><g class="imagelayer"/><g class="shapelayer"/></g><g class="cartesianlayer"><g class="subplot xy"><g class="layer-subplot"><g class="shapelayer"/><g class="imagelayer"/></g><g class="minor-gridlayer"><g class="x"/><g class="y"/></g><g class="gridlayer"><g class="x"><path class="xgrid crisp" transform="translate(143.56,0)" d="M0,46v274" style="stroke: rgb(49, 52, 57); stroke-opacity: 1; stroke-width: 1px;"/><path class="xgrid crisp" transform="translate(248.85,0)" d="M0,46v274" style="stroke: rgb(49, 52, 57); stroke-opacity: 1; stroke-width: 1px;"/><path class="xgrid crisp" transform="translate(354.14,0)" d="M0,46v274" style="stroke: rgb(49, 52, 57); stroke-opacity: 1; stroke-width: 1px;"/><path class="xgrid crisp" transform="translate(461.15,0)" d="M0,46v274" style="stroke: rgb(49, 52, 57); stroke-opacity: 1; stroke-width: 1px;"/><path class="xgrid crisp" transform="translate(566.44,0)" d="M0,46v274" style="stroke: rgb(49, 52, 57); stroke-opacity: 1; stroke-width: 1px;"/></g><g class="y"><path class="ygrid crisp" transform="translate(0,257.26)" d="M40,0h630" style="stroke: rgb(49, 52, 57); stroke-opacity: 1; stroke-width: 1px;"/><path class="ygrid crisp" transform="translate(0,191.22)" d="M40,0h630" style="stroke: rgb(49, 52, 57); stroke-opacity: 1; stroke-width: 1px;"/><path class="ygrid crisp" transform="translate(0,125.19)" d="M40,0h630" style="stroke: rgb(49, 52, 57); stroke-opacity: 1; stroke-width: 1px;"/><path class="ygrid crisp" transform="translate(0,59.16)" d="M40,0h630" style="stroke: rgb(49, 52, 57); stroke-opacity: 1; stroke-width: 1px;"/></g></g><g class="zerolinelayer"/><path class="xlines-below"/><path class="ylines-below"/><g class="overlines-below"/><g class="xaxislayer-below"/><g class="yaxislayer-below"/><g class="overaxes-below"/><g class="plot" transform="translate(40,46)" clip-path="url(#clip3e8bd4xyplot)"><g class="scatterlayer mlayer"><g class="trace scatter trace0062d9e9-b21b-4b20-8b8e-fb0d1f247f16" style="stroke-miterlimit: 2; opacity: 1;"><g class="fills"/><g class="errorbars"/><g class="lines"><path class="js-line" d="M0,83.96L1.73,89.27L3.45,89.13L5.18,97.94L6.9,91.91L8.63,87.83L10.36,72.8L12.08,80.11L13.81,80.78L15.53,66.76L17.26,66.21L18.99,66.32L20.71,74.56L22.44,39.2L24.16,53.83L25.89,52.83L27.62,53.6L29.34,58.28L31.07,51.08L32.79,48.3L34.52,58.94L36.25,49.97L37.97,52.06L39.7,46.4L41.42,53.85L48.33,29.46L50.05,13.7L51.78,29.5L53.51,19.23L55.23,16L56.96,25.58L58.68,43.71L60.41,18.87L62.14,20.71L63.86,43.49L65.59,34.58L67.32,56.84L69.04,85.74L70.77,81.33L72.49,86.07L74.22,46.67L75.95,41.8L77.67,51.64L79.4,86.56L81.12,69.54L82.85,72.05L84.58,95.72L86.3,176.55L88.03,160.28L89.75,188.12L91.48,181.37L93.21,223.86L94.93,145L96.66,160.37L98.38,168.36L101.84,134.06L103.56,129.57L105.29,157.37L107.01,158.31L108.74,178.04L110.47,159.77L113.92,118.78L115.64,120.58L117.37,98.39L119.1,100.41L120.82,88.65L122.55,64.03L124.27,43.27L126,54.48L127.73,44.05L129.45,42L131.18,57.45L132.9,57.75L134.63,53.81L136.36,61.01L138.08,50.82L139.81,57.82L141.53,64.02L143.26,54.62L144.99,44.43L146.71,51.67L148.44,60.13L150.16,49.19L153.62,63.98L155.34,58.91L158.79,51.92L160.52,53.17L162.25,84.11L163.97,82.18L165.7,72.17L167.42,78.33L169.15,80.65L170.88,79.6L172.6,73.9L174.33,73.84L176.05,66.85L177.78,68.12L179.51,75.82L181.23,66.6L182.96,71.85L184.68,80.31L186.41,86.29L188.14,77.87L189.86,77.47L191.59,78.51L193.32,83.09L195.04,91.64L196.77,105.51L198.49,95.62L200.22,107.22L201.95,99.8L203.67,92.87L205.4,92.66L207.12,81.45L208.85,78.26L210.58,74.07L212.3,65.24L215.75,77.83L217.48,68.53L219.21,61.99L220.93,70.01L222.66,75.93L224.38,73.64L226.11,73.74L227.84,70.14L229.56,68.8L231.29,61.45L233.01,60.58L234.74,62.27L239.92,58.02L241.64,72.65L243.37,60.6L245.1,28.12L248.55,56.67L250.27,60.33L253.73,77.29L255.45,76.9L257.18,78.89L258.9,79.09L262.36,71.51L264.08,83.26L265.81,71.87L267.53,70.25L269.26,63.59L270.99,61.85L274.44,61.22L276.16,76.51L277.89,72.41L279.62,82.54L281.34,72.9L283.07,70.96L284.79,79.37L286.52,79.41L288.25,81.02L289.97,97.48L291.7,97.07L293.42,86.22L295.15,83.86L296.88,76.51L298.6,69.43L300.33,88.49L303.78,81.73L305.51,72.75L307.23,66.22L308.96,62.83L310.68,60.97L312.41,57.48L314.14,64.06L315.86,50.91L317.59,51.19L319.32,61.92L321.04,43.37L322.77,54.95L324.49,63.08L326.22,45.59L327.95,21.03L329.67,47.05L331.4,76.88L333.12,81.85L334.85,39.46L336.58,28.37L338.3,54.66L340.03,121.79L341.75,101.17L343.48,114.28L345.21,145.94L346.93,136.6L348.66,107.16L350.38,103L352.11,89.5L353.84,82.15L355.56,72L357.29,81.38L359.01,49.88L360.74,71.94L362.47,68.47L364.19,92.84L365.92,78.78L367.64,49.61L369.37,54.31L371.1,34.28L372.82,24.51L374.55,42.2L378,89.51L379.73,142.92L381.45,126.61L383.18,134.78L384.9,135.29L386.63,185.88L388.36,260.3L390.08,218L391.81,216.15L393.53,188.73L395.26,157.95L396.99,152.64L398.71,175.14L400.44,121L402.16,93.27L403.89,79.39L405.62,121.34L407.34,144.28L409.07,136.7L410.79,102.76L412.52,124.08L414.25,133.84L417.7,113.64L419.42,112.01L421.15,106.27L422.88,97.93L424.6,104.19L426.33,102.14L428.05,103.54L429.78,124.24L431.51,122.79L433.23,108.6L434.96,153.18L436.68,129.38L438.41,104.13L440.14,98.09L441.86,96.28L443.59,101.32L445.32,98.56L447.04,106.44L448.77,87.85L450.49,39.9L452.22,66.18L453.95,65.61L455.67,58.09L457.4,67.94L459.12,49.3L460.85,57.74L462.58,77.13L464.3,79.83L466.03,79.35L467.75,78L471.21,96.14L472.93,94.25L474.66,85.69L476.38,83.98L478.11,79.11L479.84,86.38L481.56,70.03L483.29,89.76L485.01,83.57L486.74,92.8L488.47,94.66L490.19,92.72L491.92,106.28L493.64,106.77L495.37,102.85L497.1,93.12L498.82,86.95L500.55,99.5L502.27,95.93L504,83.51L505.73,74.81L507.45,70.78L509.18,78.34L510.9,78.39L512.63,73.77L514.36,79.67L517.81,68.89L519.53,73.2L521.26,56.55L522.99,67.11L524.71,57.37L526.44,63.2L528.16,61.77L529.89,53.25L531.62,65.93L533.34,62.04L535.07,74.95L536.79,71.77L540.25,68.37L541.97,99.72L543.7,79.81L545.42,69.15L547.15,75.45L548.88,67.03L550.6,65.61L552.33,67.88L554.05,51.35L555.78,51.18L557.51,33.69L559.23,40.84L560.96,32.89L562.68,29.84L564.41,39.9L566.14,28.7L567.86,31.89L569.59,38.35L571.32,26.51L573.04,28.99L574.77,28.25L576.49,17.23L578.22,20.79L579.95,46L581.67,34.83L583.4,54.82L586.85,57.98L588.58,57.59L593.75,41.75L595.48,49.07L597.21,53.47L598.93,42.02L600.66,50.63L602.38,54.75L604.11,47.04L605.84,49.41L607.56,62.94L609.29,56.91L611.01,42.87L612.74,53.78L616.19,85.46L617.92,80.57L619.64,78.29L621.37,83L623.1,90.9L624.82,113.34L626.55,118.4L628.27,116.37L630,115.14" style="vector-effect: none; fill: none; stroke: rgb(31, 119, 180); stroke-opacity: 1; stroke-width: 2px; opacity: 1;"/></g><g class="points"/><g class="text"/></g></g></g><g class="overplot"/><path class="xlines-above crisp" d="M0,0" style="fill: none;"/><path class="ylines-above crisp" d="M0,0" style="fill: none;"/><g class="overlines-above"/><g class="xaxislayer-above"><g class="xtick"><text text-anchor="middle" x="0" y="333" transform="translate(40,0)" style="font-family: 'Open Sans', verdana, arial, sans-serif; font-size: 12px; fill: rgb(214, 223, 239); fill-opacity: 1; white-space: pre; opacity: 1;">Jan 2020</text></g><g class="xtick"><text text-anchor="middle" x="0" y="333" style="font-family: 'Open Sans', verdana, arial, sans-serif; font-size: 12px; fill: rgb(214, 223, 239); fill-opacity: 1; white-space: pre; opacity: 1;" transform="translate(143.56,0)">Mar 2020</text></g><g class="xtick"><text text-anchor="middle" x="0" y="333" style="font-family: 'Open Sans', verdana, arial, sans-serif; font-size: 12px; fill: rgb(214, 223, 239); fill-opacity: 1; white-space: pre; opacity: 1;" transform="translate(248.85,0)">May 2020</text></g><g class="xtick"><text text-anchor="middle" x="0" y="333" style="font-family: 'Open Sans', verdana, arial, sans-serif; font-size: 12px; fill: rgb(214, 223, 239); fill-opacity: 1; white-space: pre; opacity: 1;" transform="translate(354.14,0)">Jul 2020</text></g><g class="xtick"><text text-anchor="middle" x="0" y="333" style="font-family: 'Open Sans', verdana, arial, sans-serif; font-size: 12px; fill: rgb(214, 223, 239); fill-opacity: 1; white-space: pre; opacity: 1;" transform="translate(461.15,0)">Sep 2020</text></g><g class="xtick"><text text-anchor="middle" x="0" y="333" style="font-family: 'Open Sans', verdana, arial, sans-serif; font-size: 12px; fill: rgb(214, 223, 239); fill-opacity: 1; white-space: pre; opacity: 1;" transform="translate(566.44,0)">Nov 2020</text></g></g><g class="yaxislayer-above"><g class="ytick"><text text-anchor="end" x="39" y="4.199999999999999" transform="translate(0,257.26)" style="font-family: 'Open Sans', verdana, arial, sans-serif; font-size: 12px; fill: rgb(214, 223, 239); fill-opacity: 1; white-space: pre; opacity: 1;">1.6</text></g><g class="ytick"><text text-anchor="end" x="39" y="4.199999999999999" style="font-family: 'Open Sans', verdana, arial, sans-serif; font-size: 12px; fill: rgb(214, 223, 239); fill-opacity: 1; white-space: pre; opacity: 1;" transform="translate(0,191.22)">1.8</text></g><g class="ytick"><text text-anchor="end" x="39" y="4.199999999999999" style="font-family: 'Open Sans', verdana, arial, sans-serif; font-size: 12px; fill: rgb(214, 223, 239); fill-opacity: 1; white-space: pre; opacity: 1;" transform="translate(0,125.19)">2</text></g><g class="ytick"><text text-anchor="end" x="39" y="4.199999999999999" style="font-family: 'Open Sans', verdana, arial, sans-serif; font-size: 12px; fill: rgb(214, 223, 239); fill-opacity: 1; white-space: pre; opacity: 1;" transform="translate(0,59.16)">2.2</text></g></g><g class="overaxes-above"/></g></g><g class="polarlayer"/><g class="smithlayer"/><g class="ternarylayer"/><g class="geolayer"/><g class="funnelarealayer"/><g class="pielayer"/><g class="iciclelayer"/><g class="treemaplayer"/><g class="sunburstlayer"/><g class="glimages"/><defs id="topdefs-3e8bd4"><g class="clips"/><clipPath id="legend3e8bd4"><rect width="91" height="29" x="0" y="0"/></clipPath></defs><g class="layer-above"><g class="imagelayer"/><g class="shapelayer"><g class="shape-group" data-index="0" clip-path="url(#clip3e8bd4y)"><path data-index="0" fill-rule="evenodd" d="M40,124.85L670,124.85" style="opacity: 1; stroke: rgb(255, 255, 0); stroke-opacity: 1; fill: rgb(0, 0, 0); fill-opacity: 0; stroke-dasharray: 3px, 3px; stroke-width: 2px;"/></g></g></g><g class="infolayer"><g class="legend" pointer-events="all" transform="translate(579,11.519999999999996)"><rect class="bg" shape-rendering="crispEdges" style="stroke: rgb(68, 68, 68); stroke-opacity: 1; fill: rgb(33, 34, 38); fill-opacity: 1; stroke-width: 0px;" width="91" height="29" x="0" y="0"/><g class="scrollbox" transform="" clip-path="url(#legend3e8bd4)"><g class="groups"><g class="traces" transform="translate(0,14.5)" style="opacity: 1;"><text class="legendtext" text-anchor="start" x="40" y="4.680000000000001" style="font-family: 'Open Sans', verdana, arial, sans-serif; font-size: 12px; fill: rgb(214, 223, 239); fill-opacity: 1; white-space: pre;">Log diff</text><g class="layers" style="opacity: 1;"><g class="legendfill"/><g class="legendlines"><path class="js-line" d="M5,0h30" style="fill: none; stroke: rgb(31, 119, 180); stroke-opacity: 1; stroke-width: 2px;"/></g><g class="legendsymbols"><g class="legendpoints"/></g></g><rect class="legendtoggle" x="0" y="-9.5" width="87.765625" height="19" style="fill: rgb(0, 0, 0); fill-opacity: 0;"/></g></g></g><rect class="scrollbar" rx="20" ry="3" width="0" height="0" style="fill: rgb(128, 139, 164); fill-opacity: 1;" x="0" y="0"/></g><g class="g-gtitle"/><g class="g-xtitle"/><g class="g-ytitle"/></g></svg>