<svg class="main-svg" xmlns="http://www.w3.org/2000/svg" xmlns:xlink="http://www.w3.org/1999/xlink" width="700" height="350" style="" viewBox="0 0 700 350"><rect x="0" y="0" width="700" height="350" style="fill: rgb(33, 34, 38); fill-opacity: 1;"/><defs id="defs-a5d581"><g class="clips"><clipPath id="clipa5d581xyplot" class="plotclip"><rect width="630" height="274"/></clipPath><clipPath class="axesclip" id="clipa5d581x"><rect x="40" y="0" width="630" height="350"/></clipPath><clipPath class="axesclip" id="clipa5d581y"><rect x="0" y="46" width="700" height="274"/></clipPath><clipPath class="axesclip" id="clipa5d581xy"><rect x="40" y="46" width="630" height="274"/></clipPath></g><g class="gradients"/><g class="patterns"/></defs><g class="bglayer"/><g class="layer-below"><g class="imagelayer"/><g class="shapelayer"/></g><g class="cartesianlayer"><g class="subplot xy"><g class="layer-subplot"><g class="shapelayer"/><g class="imagelayer"/></g><g class="minor-gridlayer"><g class="x"/><g class="y"/></g><g class="gridlayer"><g class="x"><path class="xgrid crisp" transform="translate(143.56,0)" d="M0,46v274" style="stroke: rgb(49, 52, 57); stroke-opacity: 1; stroke-width: 1px;"/><path class="xgrid crisp" transform="translate(248.85,0)" d="M0,46v274" style="stroke: rgb(49, 52, 57); stroke-opacity: 1; stroke-width: 1px;"/><path class="xgrid crisp" transform="translate(354.14,0)" d="M0,46v274" style="stroke: rgb(49, 52, 57); stroke-opacity: 1; stroke-width: 1px;"/><path class="xgrid crisp" transform="translate(461.15,0)" d="M0,46v274" style="stroke: rgb(49, 52, 57); stroke-opacity: 1; stroke-width: 1px;"/><path class="xgrid crisp" transform="translate(566.44,0)" d="M0,46v274" style="stroke: rgb(49, 52, 57); stroke-opacity: 1; stroke-width: 1px;"/></g><g class="y"><path class="ygrid crisp" transform="translate(0,313.81)" d="M40,0h630" style="stroke: rgb(49, 52, 57); stroke-opacity: 1; stroke-width: 1px;"/><path class="ygrid crisp" transform="translate(0,263.86)" d="M40,0h630" style="stroke: rgb(49, 52, 57); stroke-opacity: 1; stroke-width: 1px;"/><path class="ygrid crisp" transform="translate(0,213.91)" d="M40,0h630" style="stroke: rgb(49, 52, 57); stroke-opacity: 1; stroke-width: 1px;"/><path class="ygrid crisp" transform="translate(0,163.95999999999998)" d="M40,0h630" style="stroke: rgb(49, 52, 57); stroke-opacity: 1; stroke-width: 1px;"/><path class="ygrid crisp" transform="translate(0,114.01)" d="M40,0h630" style="stroke: rgb(49, 52, 57); stroke-opacity: 1; stroke-width: 1px;"/><path class="ygrid crisp" transform="translate(0,64.06)" d="M40,0h630" style="stroke: rgb(49, 52, 57); stroke-opacity: 1; stroke-width: 1px;"/></g></g><g class="zerolinelayer"/><path class="xlines-below"/><path class="ylines-below"/><g class="overlines-below"/><g class="xaxislayer-below"/><g class="yaxislayer-below"/><g class="overaxes-below"/><g class="plot" transform="translate(40,46)" clip-path="url(#clipa5d581xyplot)"><g class="scatterlayer mlayer"><g class="trace scatter tracee5290b15-c438-4871-a682-c9473a4650ad" style="stroke-miterlimit: 2; opacity: 1;"><g class="fills"/><g class="errorbars"/><g class="lines"><path class="js-line" d="M0,217.86L1.73,220.68L3.45,214.64L5.18,211.01L6.9,213.64L8.63,207.6L10.36,213.23L12.08,214.09L13.81,216.91L15.53,215.18L17.26,215L18.99,214.14L20.71,214.73L22.44,213.55L24.16,205.47L25.89,208.19L27.62,198.84L29.34,200.43L31.07,208.83L32.79,210.19L34.52,205.11L36.25,205.65L37.97,210.83L39.7,212.64L41.42,211.55L46.6,207.15L48.33,208.6L50.05,208.15L51.78,205.47L53.51,205.42L55.23,203.02L56.96,198.39L58.68,190.49L60.41,192.81L62.14,186.86L63.86,175.97L65.59,178.24L67.32,162.94L69.04,155.04L70.77,150.28L72.49,141.83L74.22,159.17L75.95,151.46L77.67,165.75L79.4,161.17L81.12,168.02L82.85,159.13L84.58,159.99L86.3,120.68L88.03,128.04L89.75,113.74L91.48,109.24L93.21,93.27L94.93,139.02L96.66,153.05L98.38,146.92L100.11,159.35L101.84,170.88L103.56,172.65L105.29,147.92L107.01,150.32L108.74,139.43L110.47,145.74L112.19,148.37L113.92,164.57L115.64,185.95L117.37,191.26L119.1,189.77L120.82,194.94L122.55,256.81L124.27,248.45L126,250.9L127.73,251L129.45,260.3L131.18,254.67L132.9,253.81L134.63,246.32L136.36,246.14L138.08,248.32L139.81,251.72L141.53,245.37L143.26,245.23L144.99,248.04L146.71,245.59L148.44,247.95L151.89,252.36L153.62,247.55L157.07,247.86L158.79,246.05L160.52,245.78L162.25,237.33L163.97,239.78L165.7,232.61L167.42,233.52L169.15,225.21L170.88,226.98L172.6,236.7L174.33,236.29L176.05,237.29L177.78,238.1L179.51,236.83L181.23,241.19L182.96,233.47L184.68,232.52L186.41,227.57L189.86,237.65L191.59,237.15L196.77,222.9L198.49,222.08L200.22,215.32L201.95,219.36L203.67,219.99L205.4,213.28L207.12,222.76L208.85,220.68L210.58,218.45L212.3,224.49L214.03,224.49L215.75,223.13L217.48,228.07L219.21,225.17L220.93,218.77L222.66,220.81L224.38,230.66L226.11,233.11L227.84,230.03L229.56,229.07L231.29,228.35L233.01,230.62L234.74,227.89L236.47,227.94L238.19,226.35L239.92,226.62L241.64,222.85L243.37,230.84L245.1,224.99L246.82,226.35L248.55,228.26L250.27,221.63L252,218.54L253.73,217.91L255.45,214.73L257.18,214.23L258.9,207.1L260.63,211.92L262.36,204.34L264.08,206.2L265.81,207.88L267.53,207.88L269.26,212.41L270.99,210.05L272.71,212.46L274.44,211.6L277.89,205.65L279.62,213.14L281.34,212.6L283.07,211.23L284.79,212.05L286.52,214.87L289.97,206.74L291.7,208.69L293.42,212.6L295.15,213.1L296.88,212.41L298.6,208.15L300.33,204.29L302.05,209.24L303.78,211.42L305.51,216.68L307.23,224.62L308.96,223.35L310.68,220.63L312.41,223.26L314.14,220.54L315.86,224.9L317.59,225.44L319.32,218.95L321.04,219.99L322.77,213.82L324.49,212.05L326.22,205.74L327.95,208.06L329.67,204.24L331.4,190.95L333.12,191.13L334.85,197.35L336.58,194.21L338.3,187L340.03,156.81L341.75,160.72L343.48,156.27L345.21,141.52L346.93,155.86L348.66,160.58L350.38,160.9L353.84,176.01L355.56,172.97L357.29,172.02L359.01,187.36L360.74,175.1L362.47,177.96L364.19,165.84L365.92,169.29L367.64,168.93L369.37,180.87L371.1,177.24L372.82,169.52L374.55,165.48L376.27,152.64L378,150.32L379.73,112.42L381.45,125.09L383.18,105.07L384.9,119.59L386.63,80.24L388.36,13.7L390.08,27.82L393.53,32.22L395.26,51.24L396.99,65.08L398.71,47.02L400.44,33.44L402.16,76.16L403.89,61.95L405.62,39.44L407.34,32.13L409.07,63.17L410.79,68.12L412.52,80.6L414.25,75.52L415.97,75.66L419.42,89.86L421.15,83.19L422.88,107.25L424.6,159.54L426.33,148.01L428.05,162.76L429.78,147.24L431.51,148.82L433.23,159.35L434.96,130.31L436.68,130.26L438.41,131.21L440.14,132.12L441.86,146.46L443.59,144.42L445.32,157.13L447.04,154.45L448.77,155.95L450.49,164.85L452.22,162.4L453.95,169.2L455.67,187.36L457.4,178.78L459.12,195.67L462.58,173.7L464.3,170.11L466.03,172.11L467.75,169.34L471.21,160.31L472.93,165.71L474.66,174.42L476.38,174.61L478.11,176.15L479.84,173.24L481.56,187.99L483.29,178.74L485.01,177.65L486.74,168.61L488.47,169.7L490.19,167.12L491.92,161.4L493.64,162.17L498.82,181.55L500.55,175.42L502.27,174.56L504,180.1L505.73,187.68L507.45,181.05L509.18,174.33L510.9,177.37L512.63,178.05L514.36,180.64L516.08,185.82L517.81,187.13L519.53,192.35L521.26,201.16L522.99,202.52L524.71,204.83L526.44,200.25L528.16,205.65L529.89,211.69L531.62,209.6L533.34,205.15L535.07,192.17L536.79,200.7L538.52,196.71L540.25,199.52L541.97,186.63L545.42,196.8L547.15,190.58L550.6,201.16L552.33,194.71L554.05,193.21L555.78,196.44L557.51,197.35L559.23,188.58L560.96,173.88L562.68,182.5L566.14,155.45L567.86,162.12L569.59,180.87L571.32,181.5L573.04,175.83L574.77,173.83L576.49,168.48L578.22,177.87L579.95,162.94L581.67,163.26L583.4,169.93L585.12,162.03L588.58,167.48L590.3,181.1L592.03,179.05L593.75,184.5L595.48,186.72L597.21,177.46L598.93,177.42L600.66,175.74L604.11,163.62L605.84,166.89L607.56,157.54L609.29,156.36L612.74,170.34L614.47,164.94L616.19,186.54L617.92,175.15L619.64,177.6L621.37,177.33L623.1,172.97L624.82,155.36L628.27,165.48L630,165.57" style="vector-effect: none; fill: none; stroke: rgb(31, 119, 180); stroke-opacity: 1; stroke-width: 2px; opacity: 1;"/></g><g class="points"/><g class="text"/></g><g class="trace scatter trace2b513225-393c-4ff3-870a-b8ec8e2cbf40" style="stroke-miterlimit: 2; opacity: 1;"><g class="fills"/><g class="errorbars"/><g class="lines"><path class="js-line" d="M0,217.86L1.73,222.22L3.45,216.24L5.18,215.43L6.9,216.12L8.63,208.89L10.36,209.63L13.81,215.93L15.53,209.7L18.99,208.45L20.71,211.75L22.44,198.42L24.16,194.74L25.89,197.36L27.62,187.39L29.34,190.94L31.07,197.42L32.79,197.92L34.52,196.24L36.25,193.49L37.97,199.97L39.7,199.97L41.42,201.41L46.6,189.88L48.33,189.01L50.05,182.15L51.78,185.33L55.23,176.79L56.96,175.3L58.68,173.99L60.41,165.57L62.14,159.22L63.86,157.47L65.59,155.73L67.32,149.68L69.04,155.91L70.77,148.93L72.49,142.95L74.22,140.21L75.95,128.8L77.67,150.12L79.4,162.39L81.12,161.34L82.85,153.3L84.58,165.51L86.3,168.88L88.03,167.19L89.75,168.94L91.48,162.52L93.21,170.81L94.93,169.19L96.66,187.07L98.38,185.45L101.84,191.56L103.56,191.37L105.29,181.78L107.01,184.08L108.74,183.65L110.47,181.03L112.19,173.55L113.92,179.91L115.64,199.79L117.37,196.67L119.1,195.99L120.82,196.67L122.55,253.01L124.27,239.36L126,244.66L127.73,242.42L129.45,252.51L131.18,249.4L132.9,248.52L134.63,239.49L136.36,240.98L138.08,240.98L139.81,246.28L141.53,240.86L143.26,238.49L144.99,239.18L146.71,238.18L148.44,242.73L150.16,242.17L151.89,246.65L153.62,243.16L155.34,242.35L157.07,241.54L158.79,238.74L160.52,238.74L162.25,237.37L163.97,239.36L165.7,229.52L167.42,232.07L169.15,224.28L170.88,225.78L172.6,234.19L176.05,233.01L177.78,234.19L179.51,234.81L181.23,237.06L182.96,230.33L184.68,231.57L186.41,228.21L188.14,231.07L189.86,236.06L191.59,235.81L193.32,232.57L195.04,231.2L198.49,225.4L200.22,222.29L201.95,223.97L203.67,222.6L205.4,215.99L207.12,222.04L210.58,215.43L212.3,219.05L217.48,223.78L219.21,218.8L220.93,214.5L222.66,218.42L224.38,227.89L226.11,230.45L227.84,226.27L229.56,224.9L231.29,222.04L233.01,224.22L234.74,221.79L236.47,221.35L238.19,219.36L239.92,219.17L241.64,219.54L243.37,224.47L245.1,207.89L246.82,213.81L248.55,220.54L250.27,214.5L252,214.43L253.73,215.87L255.45,212.5L257.18,212.63L258.9,205.46L260.63,208.89L262.36,199.97L264.08,205.96L265.81,203.78L267.53,203.22L269.26,205.71L270.99,202.59L272.71,205.15L274.44,204.03L276.16,205.27L277.89,201.66L279.62,212.69L281.34,209.01L283.07,206.95L284.79,210.57L286.52,213.44L288.25,209.82L291.7,212.94L293.42,213.31L295.15,213.06L296.88,210.01L298.6,203.22L300.33,205.83L302.05,209.57L303.78,210.69L305.51,213.19L307.23,219.48L310.68,213.62L312.41,215.37L314.14,214.5L315.86,215.12L317.59,215.8L319.32,212.13L322.77,204.27L324.49,205.15L326.22,191.94L327.95,185.02L329.67,190.81L331.4,188.2L333.12,190.31L334.85,179.97L336.58,171.56L338.3,174.86L340.03,174.24L341.75,168.69L345.21,171.68L346.93,179.72L348.66,171.24L350.38,169.69L352.11,170.87L353.84,175.23L355.56,167.63L357.29,170.87L359.01,173.18L360.74,169.81L362.47,171.24L364.19,169.87L365.92,166.94L367.64,152.61L369.37,168L371.1,154.42L372.82,140.27L374.55,144.94L376.27,145.63L378,153.11L379.73,146L381.45,148.43L383.18,135.41L384.9,148.12L388.36,139.52L390.08,124.57L391.81,124.88L393.53,109.86L395.26,104.75L396.99,112.54L398.71,112.35L400.44,63.61L402.16,82.87L403.89,58.38L407.34,79.82L409.07,100.76L410.79,81.94L412.52,107.74L414.25,109.48L415.97,103.94L417.7,102.81L419.42,108.42L421.15,98.51L422.88,115.96L424.6,168.94L426.33,157.1L428.05,171.68L429.78,166.82L431.51,167.57L433.23,170.75L434.96,165.76L436.68,154.36L438.41,142.26L440.14,139.9L441.86,152.73L443.59,153.3L445.32,164.08L447.04,165.2L448.77,157.85L450.49,143.01L453.95,160.71L455.67,176.73L457.4,171.87L459.12,182.15L460.85,173.24L462.58,170.68L464.3,168.25L466.03,170.06L467.75,166.63L469.48,166.13L471.21,166.01L472.93,170.37L474.66,175.17L476.38,174.61L478.11,174.05L479.84,174.3L481.56,182.4L483.29,181.15L486.74,172.55L488.47,174.42L490.19,171.06L491.92,171.62L493.64,172.55L495.37,177.29L497.1,178.79L498.82,182.77L500.55,181.96L502.27,179.66L504,179.91L505.73,184.02L507.45,175.48L509.18,171.87L510.9,174.98L512.63,173.67L516.08,182.28L517.81,181.03L519.53,188.2L521.26,191.06L522.99,196.48L524.71,195.36L526.44,192.62L528.16,197.86L531.62,203.53L533.34,197.42L535.07,188.69L536.79,196.3L538.52,191.44L540.25,193.8L541.97,192.75L543.7,189.75L545.42,191.25L547.15,187.26L550.6,194.49L552.33,188.57L554.05,180.28L555.78,183.77L559.23,170.56L560.96,149.81L562.68,158.41L564.41,143.64L566.14,125.87L567.86,135.53L569.59,160.59L571.32,155.6L573.04,150.12L574.77,147.38L576.49,135.04L578.22,148.37L581.67,138.46L583.4,156.29L585.12,148.37L586.85,152.42L588.58,154.98L590.3,167.57L592.03,162.52L593.75,166.32L595.48,172.12L597.21,163.89L598.93,158.41L600.66,160.65L602.38,156.6L604.11,145.38L605.84,150.24L607.56,147L609.29,142.58L611.01,143.14L612.74,156.22L614.47,157.35L616.19,187.14L617.92,173.67L621.37,176.92L623.1,175.98L624.82,169.19L626.55,176.23L628.27,179.72L630,179.28" style="vector-effect: none; fill: none; stroke: rgb(255, 127, 14); stroke-opacity: 1; stroke-width: 2px; opacity: 1;"/></g><g class="points"/><g class="text"/></g></g></g><g class="overplot"/><path class="xlines-above crisp" d="M0,0" style="fill: none;"/><path class="ylines-above crisp" d="M0,0" style="fill: none;"/><g class="overlines-above"/><g class="xaxislayer-above"><g class="xtick"><text text-anchor="middle" x="0" y="333" transform="translate(40,0)" style="font-family: 'Open Sans', verdana, arial, sans-serif; font-size: 12px; fill: rgb(214, 223, 239); fill-opacity: 1; white-space: pre; opacity: 1;">Jan 2020</text></g><g class="xtick"><text text-anchor="middle" x="0" y="333" style="font-family: 'Open Sans', verdana, arial, sans-serif; font-size: 12px; fill: rgb(214, 223, 239); fill-opacity: 1; white-space: pre; opacity: 1;" transform="translate(143.56,0)">Mar 2020</text></g><g class="xtick"><text text-anchor="middle" x="0" y="333" style="font-family: 'Open Sans', verdana, arial, sans-serif; font-size: 12px; fill: rgb(214, 223, 239); fill-opacity: 1; white-space: pre; opacity: 1;" transform="translate(248.85,0)">May 2020</text></g><g class="xtick"><text text-anchor="middle" x="0" y="333" style="font-family: 'Open Sans', verdana, arial, sans-serif; font-size: 12px; fill: rgb(214, 223, 239); fill-opacity: 1; white-space: pre; opacity: 1;" transform="translate(354.14,0)">Jul 2020</text></g><g class="xtick"><text text-anchor="middle" x="0" y="333" style="font-family: 'Open Sans', verdana, arial, sans-serif; font-size: 12px; fill: rgb(214, 223, 239); fill-opacity: 1; white-space: pre; opacity: 1;" transform="translate(461.15,0)">Sep 2020</text></g><g class="xtick"><text text-anchor="middle" x="0" y="333" style="font-family: 'Open Sans', verdana, arial, sans-serif; font-size: 12px; fill: rgb(214, 223, 239); fill-opacity: 1; white-space: pre; opacity: 1;" transform="translate(566.44,0)">Nov 2020</text></g></g><g class="yaxislayer-above"><g class="ytick"><text text-anchor="end" x="39" y="4.199999999999999" transform="translate(0,313.81)" style="font-family: 'Open Sans', verdana, arial, sans-serif; font-size: 12px; fill: rgb(214, 223, 239); fill-opacity: 1; white-space: pre; opacity: 1;">0.5</text></g><g class="ytick"><text text-anchor="end" x="39" y="4.199999999999999" style="font-family: 'Open Sans', verdana, arial, sans-serif; font-size: 12px; fill: rgb(214, 223, 239); fill-opacity: 1; white-space: pre; opacity: 1;" transform="translate(0,263.86)">1</text></g><g class="ytick"><text text-anchor="end" x="39" y="4.199999999999999" style="font-family: 'Open Sans', verdana, arial, sans-serif; font-size: 12px; fill: rgb(214, 223, 239); fill-opacity: 1; white-space: pre; opacity: 1;" transform="translate(0,213.91)">1.5</text></g><g class="ytick"><text text-anchor="end" x="39" y="4.199999999999999" style="font-family: 'Open Sans', verdana, arial, sans-serif; font-size: 12px; fill: rgb(214, 223, 239); fill-opacity: 1; white-space: pre; opacity: 1;" transform="translate(0,163.95999999999998)">2</text></g><g class="ytick"><text text-anchor="end" x="39" y="4.199999999999999" style="font-family: 'Open Sans', verdana, arial, sans-serif; font-size: 12px; fill: rgb(214, 223, 239); fill-opacity: 1; white-space: pre; opacity: 1;" transform="translate(0,114.01)">2.5</text></g><g class="ytick"><text text-anchor="end" x="39" y="4.199999999999999" style="font-family: 'Open Sans', verdana, arial, sans-serif; font-size: 12px; fill: rgb(214, 223, 239); fill-opacity: 1; white-space: pre; opacity: 1;" transform="translate(0,64.06)">3</text></g></g><g class="overaxes-above"/></g></g><g class="polarlayer"/><g class="smithlayer"/><g class="ternarylayer"/><g class="geolayer"/><g class="funnelarealayer"/><g class="pielayer"/><g class="iciclelayer"/><g class="treemaplayer"/><g class="sunburstlayer"/><g class="glimages"/><defs id="topdefs-a5d581"><g class="clips"/><clipPath id="legenda5d581"><rect width="227" height="29" x="0" y="0"/></clipPath></defs><g class="layer-above"><g class="imagelayer"/><g class="shapelayer"/></g><g class="infolayer"><g class="legend" pointer-events="all" transform="translate(443,11.519999999999996)"><rect class="bg" shape-rendering="crispEdges" style="stroke: rgb(68, 68, 68); stroke-opacity: 1; fill: rgb(33, 34, 38); fill-opacity: 1; stroke-width: 0px;" width="227" height="29" x="0" y="0"/><g class="scrollbox" transform="" clip-path="url(#legenda5d581)"><g class="groups"><g class="traces" transform="translate(0,14.5)" style="opacity: 1;"><text class="legendtext" text-anchor="start" x="40" y="4.680000000000001" style="font-family: 'Open Sans', verdana, arial, sans-serif; font-size: 12px; fill: rgb(214, 223, 239); fill-opacity: 1; white-space: pre;">ALGOUSDT</text><g class="layers" style="opacity: 1;"><g class="legendfill"/><g class="legendlines"><path class="js-line" d="M5,0h30" style="fill: none; stroke: rgb(31, 119, 180); stroke-opacity: 1; stroke-width: 2px;"/></g><g class="legendsymbols"><g class="legendpoints"/></g></g><rect class="legendtoggle" x="0" y="-9.5" width="109.765625" height="19" style="fill: rgb(0, 0, 0); fill-opacity: 0;"/></g><g class="traces" transform="translate(112.265625,14.5)" style="opacity: 1;"><text class="legendtext" text-anchor="start" x="40" y="4.680000000000001" style="font-family: 'Open Sans', verdana, arial, sans-serif; font-size: 12px; fill: rgb(214, 223, 239); fill-opacity: 1; white-space: pre;">QTUMUSDT</text><g class="layers" style="opacity: 1;"><g class="legendfill"/><g class="legendlines"><path class="js-line" d="M5,0h30" style="fill: none; stroke: rgb(255, 127, 14); stroke-opacity: 1; stroke-width: 2px;"/></g><g class="legendsymbols"><g class="legendpoints"/></g></g><rect class="legendtoggle" x="0" y="-9.5" width="111.875" height="19" style="fill: rgb(0, 0, 0); fill-opacity: 0;"/></g></g></g><rect class="scrollbar" rx="20" ry="3" width="0" height="0" style="fill: rgb(128, 139, 164); fill-opacity: 1;" x="0" y="0"/></g><g class="g-gtitle"/><g class="g-xtitle"/><g class="g-ytitle"/></g></svg>