<svg class="main-svg" xmlns="http://www.w3.org/2000/svg" xmlns:xlink="http://www.w3.org/1999/xlink" width="700" height="350" style="" viewBox="0 0 700 350"><rect x="0" y="0" width="700" height="350" style="fill: rgb(33, 34, 38); fill-opacity: 1;"/><defs id="defs-430fef"><g class="clips"><clipPath id="clip430fefxyplot" class="plotclip"><rect width="637" height="274"/></clipPath><clipPath class="axesclip" id="clip430fefx"><rect x="33" y="0" width="637" height="350"/></clipPath><clipPath class="axesclip" id="clip430fefy"><rect x="0" y="46" width="700" height="274"/></clipPath><clipPath class="axesclip" id="clip430fefxy"><rect x="33" y="46" width="637" height="274"/></clipPath></g><g class="gradients"/><g class="patterns"/></defs><g class="bglayer"/><g class="layer-below"><g class="imagelayer"/><g class="shapelayer"/></g><g class="cartesianlayer"><g class="subplot xy"><g class="layer-subplot"><g class="shapelayer"/><g class="imagelayer"/></g><g class="minor-gridlayer"><g class="x"/><g class="y"/></g><g class="gridlayer"><g class="x"><path class="xgrid crisp" transform="translate(156.5,0)" d="M0,46v274" style="stroke: rgb(49, 52, 57); stroke-opacity: 1; stroke-width: 1px;"/><path class="xgrid crisp" transform="translate(286.5,0)" d="M0,46v274" style="stroke: rgb(49, 52, 57); stroke-opacity: 1; stroke-width: 1px;"/><path class="xgrid crisp" transform="translate(416.5,0)" d="M0,46v274" style="stroke: rgb(49, 52, 57); stroke-opacity: 1; stroke-width: 1px;"/><path class="xgrid crisp" transform="translate(546.5,0)" d="M0,46v274" style="stroke: rgb(49, 52, 57); stroke-opacity: 1; stroke-width: 1px;"/></g><g class="y"><path class="ygrid crisp" transform="translate(0,254.97)" d="M33,0h637" style="stroke: rgb(49, 52, 57); stroke-opacity: 1; stroke-width: 1px;"/><path class="ygrid crisp" transform="translate(0,200.04)" d="M33,0h637" style="stroke: rgb(49, 52, 57); stroke-opacity: 1; stroke-width: 1px;"/><path class="ygrid crisp" transform="translate(0,145.11)" d="M33,0h637" style="stroke: rgb(49, 52, 57); stroke-opacity: 1; stroke-width: 1px;"/><path class="ygrid crisp" transform="translate(0,90.17)" d="M33,0h637" style="stroke: rgb(49, 52, 57); stroke-opacity: 1; stroke-width: 1px;"/></g></g><g class="zerolinelayer"><path class="yzl zl crisp" transform="translate(0,309.9)" d="M33,0h637" style="stroke: rgb(49, 52, 57); stroke-opacity: 1; stroke-width: 2px;"/></g><path class="xlines-below"/><path class="ylines-below"/><g class="overlines-below"/><g class="xaxislayer-below"/><g class="yaxislayer-below"/><g class="overaxes-below"/><g class="plot" transform="translate(33,46)" clip-path="url(#clip430fefxyplot)"><g class="scatterlayer mlayer"><g class="trace scatter trace8d9470aa-15f4-445c-afb4-a527c477fc34" style="stroke-miterlimit: 2; opacity: 1;"><g class="fills"/><g class="errorbars"/><g class="lines"><path class="js-line" d="M0,251.86L6.5,246.7L13,248.24L19.5,241.73L26,250.8L32.5,246.73L39,211.29L45.5,218.18L52,236.36L58.5,174.51L65,245.59L71.5,241.26L78,136.25L84.5,240.83L91,203.23L97.5,147.05L104,136.07L110.5,213.66L117,211.25L123.5,241.99L130,230.92L136.5,129.34L143,198.67L149.5,221.49L156,154.68L162.5,158.44L169,224.14L175.5,157.84L182,166.43L188.5,226.98L195,179.48L201.5,215.36L208,118.38L214.5,191.88L221,98.34L227.5,96.27L234,190.2L240.5,215.96L247,165.64L253.5,182.6L260,163.92L266.5,86.28L273,188.84L279.5,171.1L286,160.91L292.5,206.31L299,138.65L305.5,209.54L312,212.97L318.5,187.25L325,191.24L331.5,178.76L338,202.86L344.5,188.98L351,155.75L357.5,122.92L364,200.13L370.5,220.19L377,151.9L383.5,246.4L390,173.29L396.5,137.12L403,208.31L409.5,168.25L416,212.9L422.5,209.99L429,181.81L435.5,210.81L442,57.49L448.5,208.66L455,143.71L461.5,221.9L468,132.69L474.5,120.46L481,13.7L487.5,203.12L494,89.56L500.5,177.08L507,215.4L513.5,212.62L520,204.85L526.5,137.3L533,231.05L539.5,200.06L546,197.6L552.5,183.08L559,172.09L565.5,160.98L572,201.88L578.5,106.63L585,153.97L591.5,238.69L598,206.82L604.5,192.48L611,194.77L617.5,213.34L624,187.95L630.5,226.11L637,134.68" style="vector-effect: none; fill: none; stroke: rgb(31, 119, 180); stroke-opacity: 1; stroke-width: 2px; opacity: 1;"/></g><g class="points"/><g class="text"/></g><g class="trace scatter trace11822424-d272-4e8c-960a-6255267eac9b" style="stroke-miterlimit: 2; opacity: 1;"><g class="fills"/><g class="errorbars"/><g class="lines"><path class="js-line" d="M0,260.3L26,235.71L32.5,232.01L39,231.47L45.5,220.27L52,220.18L58.5,215.42L65,205.46L71.5,197.93L78,197.48L84.5,194.97L91,201.72L97.5,200.25L104,189.06L110.5,195.3L117,193.37L123.5,188.51L130,189.65L136.5,198.46L143,192.88L149.5,188.4L156,186.89L162.5,181.75L169,190.35L175.5,182.32L182,179.36L188.5,173.73L195,167.51L201.5,164.12L208,169.93L214.5,169.85L221,165.41L227.5,163.85L234,150.95L240.5,157.99L247,155.91L253.5,162.17L260,173.18L266.5,168.02L273,167.38L279.5,172.11L286,172.58L292.5,175.31L299,184.56L305.5,185.96L312,187.75L318.5,187.23L325,178.89L331.5,185.04L338,186.1L344.5,180L351,185.91L357.5,184.12L364,179.95L370.5,180.5L377,178.43L383.5,184.14L390,192.85L396.5,191.02L403,190.08L409.5,180.64L422.5,173.9L429,182.38L435.5,174.82L442,170.04L448.5,150.12L455,149.44L461.5,140.21L468,136.84L474.5,152.63L481,153.02L487.5,159.14L494,150.68L500.5,160.51L507,168.47L513.5,186.86L520,184.86L526.5,193.11L533,191.5L539.5,190.15L546,179.55L552.5,174.46L559,184.6L565.5,182.18L572,181.42L578.5,181.14L585,184.17L591.5,185.75L598,192.27L604.5,185.55L611,187.14L637,199.88" style="vector-effect: none; fill: none; stroke: rgb(255, 255, 0); stroke-opacity: 1; stroke-dasharray: 3px, 3px; stroke-width: 2px; opacity: 1;"/></g><g class="points"/><g class="text"/></g></g></g><g class="overplot"/><path class="xlines-above crisp" d="M0,0" style="fill: none;"/><path class="ylines-above crisp" d="M0,0" style="fill: none;"/><g class="overlines-above"/><g class="xaxislayer-above"><g class="xtick"><text text-anchor="middle" x="0" y="333" transform="translate(156.5,0)" style="font-family: 'Open Sans', verdana, arial, sans-serif; font-size: 12px; fill: rgb(214, 223, 239); fill-opacity: 1; white-space: pre; opacity: 1;">20</text></g><g class="xtick"><text text-anchor="middle" x="0" y="333" style="font-family: 'Open Sans', verdana, arial, sans-serif; font-size: 12px; fill: rgb(214, 223, 239); fill-opacity: 1; white-space: pre; opacity: 1;" transform="translate(286.5,0)">40</text></g><g class="xtick"><text text-anchor="middle" x="0" y="333" style="font-family: 'Open Sans', verdana, arial, sans-serif; font-size: 12px; fill: rgb(214, 223, 239); fill-opacity: 1; white-space: pre; opacity: 1;" transform="translate(416.5,0)">60</text></g><g class="xtick"><text text-anchor="middle" x="0" y="333" style="font-family: 'Open Sans', verdana, arial, sans-serif; font-size: 12px; fill: rgb(214, 223, 239); fill-opacity: 1; white-space: pre; opacity: 1;" transform="translate(546.5,0)">80</text></g></g><g class="yaxislayer-above"><g class="ytick"><text text-anchor="end" x="32" y="4.199999999999999" transform="translate(0,309.9)" style="font-family: 'Open Sans', verdana, arial, sans-serif; font-size: 12px; fill: rgb(214, 223, 239); fill-opacity: 1; white-space: pre; opacity: 1;">0</text></g><g class="ytick"><text text-anchor="end" x="32" y="4.199999999999999" style="font-family: 'Open Sans', verdana, arial, sans-serif; font-size: 12px; fill: rgb(214, 223, 239); fill-opacity: 1; white-space: pre; opacity: 1;" transform="translate(0,254.97)">0.1</text></g><g class="ytick"><text text-anchor="end" x="32" y="4.199999999999999" style="font-family: 'Open Sans', verdana, arial, sans-serif; font-size: 12px; fill: rgb(214, 223, 239); fill-opacity: 1; white-space: pre; opacity: 1;" transform="translate(0,200.04)">0.2</text></g><g class="ytick"><text text-anchor="end" x="32" y="4.199999999999999" style="font-family: 'Open Sans', verdana, arial, sans-serif; font-size: 12px; fill: rgb(214, 223, 239); fill-opacity: 1; white-space: pre; opacity: 1;" transform="translate(0,145.11)">0.3</text></g><g class="ytick"><text text-anchor="end" x="32" y="4.199999999999999" style="font-family: 'Open Sans', verdana, arial, sans-serif; font-size: 12px; fill: rgb(214, 223, 239); fill-opacity: 1; white-space: pre; opacity: 1;" transform="translate(0,90.17)">0.4</text></g></g><g class="overaxes-above"/></g></g><g class="polarlayer"/><g class="smithlayer"/><g class="ternarylayer"/><g class="geolayer"/><g class="funnelarealayer"/><g class="pielayer"/><g class="iciclelayer"/><g class="treemaplayer"/><g class="sunburstlayer"/><g class="glimages"/><defs id="topdefs-430fef"><g class="clips"/><clipPath id="legend430fef"><rect width="386" height="29" x="0" y="0"/></clipPath></defs><g class="layer-above"><g class="imagelayer"/><g class="shapelayer"/></g><g class="infolayer"><g class="legend" pointer-events="all" transform="translate(284,11.519999999999996)"><rect class="bg" shape-rendering="crispEdges" style="stroke: rgb(68, 68, 68); stroke-opacity: 1; fill: rgb(33, 34, 38); fill-opacity: 1; stroke-width: 0px;" width="386" height="29" x="0" y="0"/><g class="scrollbox" transform="" clip-path="url(#legend430fef)"><g class="groups"><g class="traces" transform="translate(0,14.5)" style="opacity: 1;"><text class="legendtext" text-anchor="start" x="40" y="4.680000000000001" style="font-family: 'Open Sans', verdana, arial, sans-serif; font-size: 12px; fill: rgb(214, 223, 239); fill-opacity: 1; white-space: pre;">trades.expectancy</text><g class="layers" style="opacity: 1;"><g class="legendfill"/><g class="legendlines"><path class="js-line" d="M5,0h30" style="fill: none; stroke: rgb(31, 119, 180); stroke-opacity: 1; stroke-width: 2px;"/></g><g class="legendsymbols"><g class="legendpoints"/></g></g><rect class="legendtoggle" x="0" y="-9.5" width="152.8125" height="19" style="fill: rgb(0, 0, 0); fill-opacity: 0;"/></g><g class="traces" transform="translate(155.3125,14.5)" style="opacity: 1;"><text class="legendtext" text-anchor="start" x="40" y="4.680000000000001" style="font-family: 'Open Sans', verdana, arial, sans-serif; font-size: 12px; fill: rgb(214, 223, 239); fill-opacity: 1; white-space: pre;">trades.expectancy (smoothed)</text><g class="layers" style="opacity: 1;"><g class="legendfill"/><g class="legendlines"><path class="js-line" d="M5,0h30" style="fill: none; stroke: rgb(255, 255, 0); stroke-opacity: 1; stroke-dasharray: 3px, 3px; stroke-width: 2px;"/></g><g class="legendsymbols"><g class="legendpoints"/></g></g><rect class="legendtoggle" x="0" y="-9.5" width="227.375" height="19" style="fill: rgb(0, 0, 0); fill-opacity: 0;"/></g></g></g><rect class="scrollbar" rx="20" ry="3" width="0" height="0" style="fill: rgb(128, 139, 164); fill-opacity: 1;" x="0" y="0"/></g><g class="g-gtitle"/><g class="g-xtitle"/><g class="g-ytitle"/></g></svg>