<svg class="main-svg" xmlns="http://www.w3.org/2000/svg" xmlns:xlink="http://www.w3.org/1999/xlink" width="700" height="350" style="" viewBox="0 0 700 350"><rect x="0" y="0" width="700" height="350" style="fill: rgb(33, 34, 38); fill-opacity: 1;"/><defs id="defs-9b9539"><g class="clips"><clipPath id="clip9b9539xyplot" class="plotclip"><rect width="637" height="274"/></clipPath><clipPath class="axesclip" id="clip9b9539x"><rect x="33" y="0" width="637" height="350"/></clipPath><clipPath class="axesclip" id="clip9b9539y"><rect x="0" y="46" width="700" height="274"/></clipPath><clipPath class="axesclip" id="clip9b9539xy"><rect x="33" y="46" width="637" height="274"/></clipPath></g><g class="gradients"/><g class="patterns"/></defs><g class="bglayer"/><g class="layer-below"><g class="imagelayer"/><g class="shapelayer"/></g><g class="cartesianlayer"><g class="subplot xy"><g class="layer-subplot"><g class="shapelayer"/><g class="imagelayer"/></g><g class="minor-gridlayer"><g class="x"/><g class="y"/></g><g class="gridlayer"><g class="x"><path class="xgrid crisp" transform="translate(156.5,0)" d="M0,46v274" style="stroke: rgb(49, 52, 57); stroke-opacity: 1; stroke-width: 1px;"/><path class="xgrid crisp" transform="translate(286.5,0)" d="M0,46v274" style="stroke: rgb(49, 52, 57); stroke-opacity: 1; stroke-width: 1px;"/><path class="xgrid crisp" transform="translate(416.5,0)" d="M0,46v274" style="stroke: rgb(49, 52, 57); stroke-opacity: 1; stroke-width: 1px;"/><path class="xgrid crisp" transform="translate(546.5,0)" d="M0,46v274" style="stroke: rgb(49, 52, 57); stroke-opacity: 1; stroke-width: 1px;"/></g><g class="y"><path class="ygrid crisp" transform="translate(0,260.25)" d="M33,0h637" style="stroke: rgb(49, 52, 57); stroke-opacity: 1; stroke-width: 1px;"/><path class="ygrid crisp" transform="translate(0,211.7)" d="M33,0h637" style="stroke: rgb(49, 52, 57); stroke-opacity: 1; stroke-width: 1px;"/><path class="ygrid crisp" transform="translate(0,163.15)" d="M33,0h637" style="stroke: rgb(49, 52, 57); stroke-opacity: 1; stroke-width: 1px;"/><path class="ygrid crisp" transform="translate(0,114.6)" d="M33,0h637" style="stroke: rgb(49, 52, 57); stroke-opacity: 1; stroke-width: 1px;"/><path class="ygrid crisp" transform="translate(0,66.05)" d="M33,0h637" style="stroke: rgb(49, 52, 57); stroke-opacity: 1; stroke-width: 1px;"/></g></g><g class="zerolinelayer"><path class="yzl zl crisp" transform="translate(0,308.8)" d="M33,0h637" style="stroke: rgb(49, 52, 57); stroke-opacity: 1; stroke-width: 2px;"/></g><path class="xlines-below"/><path class="ylines-below"/><g class="overlines-below"/><g class="xaxislayer-below"/><g class="yaxislayer-below"/><g class="overaxes-below"/><g class="plot" transform="translate(33,46)" clip-path="url(#clip9b9539xyplot)"><g class="scatterlayer mlayer"><g class="trace scatter trace12b429d6-3a7c-49a4-a442-ce010fc3358c" style="stroke-miterlimit: 2; opacity: 1;"><g class="fills"/><g class="errorbars"/><g class="lines"><path class="js-line" d="M0,260.19L13,249.29L19.5,244.48L26,240.15L32.5,251.36L39,245.55L45.5,241.21L52,239.35L58.5,245.02L65,250.13L71.5,242.35L78,237.54L84.5,241.34L91,224.74L97.5,222.67L104,219.81L110.5,260.3L117,236.33L123.5,242.6L130,255L136.5,245.87L143,242.84L149.5,196.93L156,197.66L162.5,236.55L169,223.55L175.5,216.74L182,241.39L188.5,237.39L195,251.36L201.5,227.79L208,195.16L214.5,213.67L221,185.56L227.5,205.06L234,211.05L240.5,173.49L247,180.27L253.5,229.75L260,218.08L266.5,216.28L273,240.24L279.5,142.82L286,206.28L292.5,193.65L299,151.57L305.5,150.38L312,135.39L318.5,139.89L325,246.92L331.5,133.69L338,177.87L344.5,157.41L351,158.16L357.5,181.85L364,204.33L370.5,203.83L377,180.57L383.5,147.18L390,166.92L396.5,165.75L403,208.59L409.5,144.57L416,156.79L422.5,222.23L429,207.19L435.5,207L442,194.83L448.5,225.55L461.5,132.64L468,149.74L474.5,174.98L481,142.39L487.5,183.8L494,185.72L500.5,150.15L507,181.58L513.5,176.23L520,205.33L526.5,134.18L533,198.51L539.5,188.32L546,144.06L552.5,13.7L559,161.04L565.5,68.41L572,144.75L578.5,98.48L585,172.91L591.5,195.97L598,115.4L604.5,199.49L611,84.57L617.5,139.01L624,143.7L630.5,162.97L637,86.95" style="vector-effect: none; fill: none; stroke: rgb(31, 119, 180); stroke-opacity: 1; stroke-width: 2px; opacity: 1;"/></g><g class="points"/><g class="text"/></g><g class="trace scatter trace8262c58a-d595-462c-9def-47848beb9d7d" style="stroke-miterlimit: 2; opacity: 1;"><g class="fills"/><g class="errorbars"/><g class="lines"><path class="js-line" d="M0,254.41L39,244.89L45.5,243.71L52,243.4L58.5,241.86L71.5,236.42L78,238.33L91,237.78L97.5,238.27L110.5,239.15L117,234.71L123.5,232L130,233.39L136.5,233.76L143,229.41L149.5,229.91L156,229.39L162.5,229.03L169,227.22L175.5,222.45L182,224.13L188.5,222.92L195,219.77L201.5,218.52L208,214.19L214.5,208.08L221,207.32L227.5,203.99L234,202.84L240.5,207.35L247,200.26L253.5,202.33L260,201.19L266.5,195.24L273,192.93L279.5,188.44L286,179.46L292.5,182.34L299,174.08L305.5,167.85L312,169.3L318.5,164.49L325,163.31L344.5,178.45L351,179.18L357.5,171.18L364,174.39L370.5,177.46L377,176.18L383.5,176.04L390,180.08L403,180.68L409.5,182.11L416,189.94L422.5,191.04L429,187.73L435.5,181.84L442,184.88L448.5,183.44L455,179.6L461.5,177.45L468,171.77L474.5,170.44L481,165.51L487.5,168.26L494,168.41L500.5,173.29L507,174.62L513.5,174.79L520,157.78L526.5,155.31L533,147.14L539.5,143.45L546,135.68L552.5,132.44L559,138.62L565.5,130.3L572,131.42L578.5,125.47L585,138L591.5,136.27L598,145.73L604.5,139.95L611,138.5L617.5,135.59L637,126.89" style="vector-effect: none; fill: none; stroke: rgb(255, 255, 0); stroke-opacity: 1; stroke-dasharray: 3px, 3px; stroke-width: 2px; opacity: 1;"/></g><g class="points"/><g class="text"/></g></g></g><g class="overplot"/><path class="xlines-above crisp" d="M0,0" style="fill: none;"/><path class="ylines-above crisp" d="M0,0" style="fill: none;"/><g class="overlines-above"/><g class="xaxislayer-above"><g class="xtick"><text text-anchor="middle" x="0" y="333" transform="translate(156.5,0)" style="font-family: 'Open Sans', verdana, arial, sans-serif; font-size: 12px; fill: rgb(214, 223, 239); fill-opacity: 1; white-space: pre; opacity: 1;">20</text></g><g class="xtick"><text text-anchor="middle" x="0" y="333" style="font-family: 'Open Sans', verdana, arial, sans-serif; font-size: 12px; fill: rgb(214, 223, 239); fill-opacity: 1; white-space: pre; opacity: 1;" transform="translate(286.5,0)">40</text></g><g class="xtick"><text text-anchor="middle" x="0" y="333" style="font-family: 'Open Sans', verdana, arial, sans-serif; font-size: 12px; fill: rgb(214, 223, 239); fill-opacity: 1; white-space: pre; opacity: 1;" transform="translate(416.5,0)">60</text></g><g class="xtick"><text text-anchor="middle" x="0" y="333" style="font-family: 'Open Sans', verdana, arial, sans-serif; font-size: 12px; fill: rgb(214, 223, 239); fill-opacity: 1; white-space: pre; opacity: 1;" transform="translate(546.5,0)">80</text></g></g><g class="yaxislayer-above"><g class="ytick"><text text-anchor="end" x="32" y="4.199999999999999" transform="translate(0,308.8)" style="font-family: 'Open Sans', verdana, arial, sans-serif; font-size: 12px; fill: rgb(214, 223, 239); fill-opacity: 1; white-space: pre; opacity: 1;">0</text></g><g class="ytick"><text text-anchor="end" x="32" y="4.199999999999999" style="font-family: 'Open Sans', verdana, arial, sans-serif; font-size: 12px; fill: rgb(214, 223, 239); fill-opacity: 1; white-space: pre; opacity: 1;" transform="translate(0,260.25)">0.1</text></g><g class="ytick"><text text-anchor="end" x="32" y="4.199999999999999" style="font-family: 'Open Sans', verdana, arial, sans-serif; font-size: 12px; fill: rgb(214, 223, 239); fill-opacity: 1; white-space: pre; opacity: 1;" transform="translate(0,211.7)">0.2</text></g><g class="ytick"><text text-anchor="end" x="32" y="4.199999999999999" style="font-family: 'Open Sans', verdana, arial, sans-serif; font-size: 12px; fill: rgb(214, 223, 239); fill-opacity: 1; white-space: pre; opacity: 1;" transform="translate(0,163.15)">0.3</text></g><g class="ytick"><text text-anchor="end" x="32" y="4.199999999999999" style="font-family: 'Open Sans', verdana, arial, sans-serif; font-size: 12px; fill: rgb(214, 223, 239); fill-opacity: 1; white-space: pre; opacity: 1;" transform="translate(0,114.6)">0.4</text></g><g class="ytick"><text text-anchor="end" x="32" y="4.199999999999999" style="font-family: 'Open Sans', verdana, arial, sans-serif; font-size: 12px; fill: rgb(214, 223, 239); fill-opacity: 1; white-space: pre; opacity: 1;" transform="translate(0,66.05)">0.5</text></g></g><g class="overaxes-above"/></g></g><g class="polarlayer"/><g class="smithlayer"/><g class="ternarylayer"/><g class="geolayer"/><g class="funnelarealayer"/><g class="pielayer"/><g class="iciclelayer"/><g class="treemaplayer"/><g class="sunburstlayer"/><g class="glimages"/><defs id="topdefs-9b9539"><g class="clips"/><clipPath id="legend9b9539"><rect width="386" height="29" x="0" y="0"/></clipPath></defs><g class="layer-above"><g class="imagelayer"/><g class="shapelayer"/></g><g class="infolayer"><g class="legend" pointer-events="all" transform="translate(284,11.519999999999996)"><rect class="bg" shape-rendering="crispEdges" width="386" height="29" x="0" y="0" style="stroke: rgb(68, 68, 68); stroke-opacity: 1; fill: rgb(33, 34, 38); fill-opacity: 1; stroke-width: 0px;"/><g class="scrollbox" transform="" clip-path="url(#legend9b9539)"><g class="groups"><g class="traces" transform="translate(0,14.5)" style="opacity: 1;"><text class="legendtext" text-anchor="start" x="40" y="4.680000000000001" style="font-family: 'Open Sans', verdana, arial, sans-serif; font-size: 12px; fill: rgb(214, 223, 239); fill-opacity: 1; white-space: pre;">trades.expectancy</text><g class="layers" style="opacity: 1;"><g class="legendfill"/><g class="legendlines"><path class="js-line" d="M5,0h30" style="fill: none; stroke: rgb(31, 119, 180); stroke-opacity: 1; stroke-width: 2px;"/></g><g class="legendsymbols"><g class="legendpoints"/></g></g><rect class="legendtoggle" x="0" y="-9.5" width="152.8125" height="19" style="fill: rgb(0, 0, 0); fill-opacity: 0;"/></g><g class="traces" transform="translate(155.3125,14.5)" style="opacity: 1;"><text class="legendtext" text-anchor="start" x="40" y="4.680000000000001" style="font-family: 'Open Sans', verdana, arial, sans-serif; font-size: 12px; fill: rgb(214, 223, 239); fill-opacity: 1; white-space: pre;">trades.expectancy (smoothed)</text><g class="layers" style="opacity: 1;"><g class="legendfill"/><g class="legendlines"><path class="js-line" d="M5,0h30" style="fill: none; stroke: rgb(255, 255, 0); stroke-opacity: 1; stroke-dasharray: 3px, 3px; stroke-width: 2px;"/></g><g class="legendsymbols"><g class="legendpoints"/></g></g><rect class="legendtoggle" x="0" y="-9.5" width="227.375" height="19" style="fill: rgb(0, 0, 0); fill-opacity: 0;"/></g></g></g><rect class="scrollbar" rx="20" ry="3" width="0" height="0" x="0" y="0" style="fill: rgb(128, 139, 164); fill-opacity: 1;"/></g><g class="g-gtitle"/><g class="g-xtitle"/><g class="g-ytitle"/></g></svg>