<svg class="main-svg" xmlns="http://www.w3.org/2000/svg" xmlns:xlink="http://www.w3.org/1999/xlink" width="700" height="350" style="" viewBox="0 0 700 350"><rect x="0" y="0" width="700" height="350" style="fill: rgb(255, 255, 255); fill-opacity: 1;"/><defs id="defs-7756af"><g class="clips"><clipPath id="clip7756afxyplot" class="plotclip"><rect width="637" height="274"/></clipPath><clipPath class="axesclip" id="clip7756afx"><rect x="33" y="0" width="637" height="350"/></clipPath><clipPath class="axesclip" id="clip7756afy"><rect x="0" y="46" width="700" height="274"/></clipPath><clipPath class="axesclip" id="clip7756afxy"><rect x="33" y="46" width="637" height="274"/></clipPath></g><g class="gradients"/><g class="patterns"/></defs><g class="bglayer"><rect class="bg" x="33" y="46" width="637" height="274" style="fill: rgb(229, 236, 246); fill-opacity: 1; stroke-width: 0;"/></g><g class="layer-below"><g class="imagelayer"/><g class="shapelayer"/></g><g class="cartesianlayer"><g class="subplot xy"><g class="layer-subplot"><g class="shapelayer"/><g class="imagelayer"/></g><g class="minor-gridlayer"><g class="x"/><g class="y"/></g><g class="gridlayer"><g class="x"><path class="xgrid crisp" transform="translate(156.5,0)" d="M0,46v274" style="stroke: rgb(255, 255, 255); stroke-opacity: 1; stroke-width: 1px;"/><path class="xgrid crisp" transform="translate(286.5,0)" d="M0,46v274" style="stroke: rgb(255, 255, 255); stroke-opacity: 1; stroke-width: 1px;"/><path class="xgrid crisp" transform="translate(416.5,0)" d="M0,46v274" style="stroke: rgb(255, 255, 255); stroke-opacity: 1; stroke-width: 1px;"/><path class="xgrid crisp" transform="translate(546.5,0)" d="M0,46v274" style="stroke: rgb(255, 255, 255); stroke-opacity: 1; stroke-width: 1px;"/></g><g class="y"><path class="ygrid crisp" transform="translate(0,241.52)" d="M33,0h637" style="stroke: rgb(255, 255, 255); stroke-opacity: 1; stroke-width: 1px;"/><path class="ygrid crisp" transform="translate(0,181.91)" d="M33,0h637" style="stroke: rgb(255, 255, 255); stroke-opacity: 1; stroke-width: 1px;"/><path class="ygrid crisp" transform="translate(0,122.31)" d="M33,0h637" style="stroke: rgb(255, 255, 255); stroke-opacity: 1; stroke-width: 1px;"/><path class="ygrid crisp" transform="translate(0,62.71)" d="M33,0h637" style="stroke: rgb(255, 255, 255); stroke-opacity: 1; stroke-width: 1px;"/></g></g><g class="zerolinelayer"><path class="yzl zl crisp" transform="translate(0,301.12)" d="M33,0h637" style="stroke: rgb(255, 255, 255); stroke-opacity: 1; stroke-width: 2px;"/></g><path class="xlines-below"/><path class="ylines-below"/><g class="overlines-below"/><g class="xaxislayer-below"/><g class="yaxislayer-below"/><g class="overaxes-below"/><g class="plot" transform="translate(33,46)" clip-path="url(#clip7756afxyplot)"><g class="scatterlayer mlayer"><g class="trace scatter trace521f5855-99e3-4f4e-b787-529a84d07089" style="stroke-miterlimit: 2; opacity: 1;"><g class="fills"/><g class="errorbars"/><g class="lines"><path class="js-line" d="M0,256.42L6.5,254.93L13,255.84L19.5,258.72L26,253.23L32.5,254.88L39,247.66L45.5,235.98L52,232.11L58.5,244.35L65,237.17L71.5,246.59L78,249.3L84.5,241.96L91,248.32L97.5,234.24L104,247.83L110.5,250.16L117,220.05L123.5,236.7L130,229.98L136.5,210.72L143,195.51L149.5,169.34L156,168.9L162.5,204.96L169,224.12L175.5,209.86L182,193.73L188.5,230.22L195,179.51L201.5,210.84L208,214.21L214.5,180.57L221,152.27L227.5,149.52L234,224.3L240.5,138.22L247,150.99L253.5,149.47L260,149.28L266.5,227.23L273,202.48L286,127.62L292.5,219.06L299,182.98L305.5,173.12L312,173.01L318.5,178.72L325,185.82L331.5,138.26L338,148.35L344.5,119.14L351,155.24L357.5,140.69L364,117.75L370.5,158.91L377,139.36L383.5,185.85L390,171.96L396.5,113.82L403,139.6L409.5,83.68L416,192.96L422.5,116.42L429,117.11L435.5,96.57L442,114.44L448.5,111.54L455,61.88L461.5,78.97L468,109.98L474.5,99.49L494,117.21L500.5,43.71L507,89.85L513.5,30.54L520,153.91L526.5,130.49L533,150.04L539.5,142.08L546,144.56L552.5,122.08L559,129.04L565.5,19.94L572,174.26L578.5,130.2L585,142.61L591.5,13.7L598,175.15L604.5,76.71L611,230.49L617.5,58.82L624,90.97L630.5,30.51L637,112.77" style="vector-effect: none; fill: none; stroke: rgb(31, 119, 180); stroke-opacity: 1; stroke-width: 2px; opacity: 1;"/></g><g class="points"/><g class="text"/></g><g class="trace scatter trace30b0d254-75f8-4a50-ae34-9d9f315938b2" style="stroke-miterlimit: 2; opacity: 1;"><g class="fills"/><g class="errorbars"/><g class="lines"><path class="js-line" d="M0,260.3L32.5,247.49L39,246.65L45.5,246L52,244.32L58.5,243.83L65,241.77L71.5,241.78L78,243.2L91,241.23L97.5,240.51L104,236.93L110.5,231.55L123.5,216.34L130,213.42L136.5,211.04L143,207.01L149.5,204.38L156,203.73L162.5,198.69L169,198.7L182,201.69L188.5,200.03L195,194.49L201.5,194.5L208,187.34L214.5,183.07L221,174.99L227.5,171.97L234,173.61L240.5,172.43L247,170.84L253.5,168.38L260,175.33L266.5,171.2L273,174.69L279.5,176.89L292.5,183.47L299,174.58L312,164.61L318.5,167.37L325,159.53L331.5,153.01L338,151.59L344.5,148.22L351,148.94L357.5,147.55L364,145.11L370.5,144.23L377,140.69L383.5,144.46L390,142.03L396.5,141.97L403,135.73L409.5,133.24L416,125.81L422.5,114.8L435.5,108.35L442,109.93L448.5,101.16L455,100.61L461.5,100.62L468,95.33L474.5,92.88L481,84.78L487.5,93.98L494,99.13L513.5,111.34L520,112.45L526.5,113.63L533,111.25L539.5,119.7L546,129.66L552.5,128.53L559,116.85L565.5,119.36L572,112.83L578.5,121.42L585,115.09L591.5,111.29L598,112.34L604.5,106.19L611,103.92L637,85.73" style="vector-effect: none; fill: none; stroke: rgb(255, 255, 0); stroke-opacity: 1; stroke-dasharray: 3px, 3px; stroke-width: 2px; opacity: 1;"/></g><g class="points"/><g class="text"/></g></g></g><g class="overplot"/><path class="xlines-above crisp" d="M0,0" style="fill: none;"/><path class="ylines-above crisp" d="M0,0" style="fill: none;"/><g class="overlines-above"/><g class="xaxislayer-above"><g class="xtick"><text text-anchor="middle" x="0" y="333" transform="translate(156.5,0)" style="font-family: 'Open Sans', verdana, arial, sans-serif; font-size: 12px; fill: rgb(42, 63, 95); fill-opacity: 1; white-space: pre; opacity: 1;">20</text></g><g class="xtick"><text text-anchor="middle" x="0" y="333" style="font-family: 'Open Sans', verdana, arial, sans-serif; font-size: 12px; fill: rgb(42, 63, 95); fill-opacity: 1; white-space: pre; opacity: 1;" transform="translate(286.5,0)">40</text></g><g class="xtick"><text text-anchor="middle" x="0" y="333" style="font-family: 'Open Sans', verdana, arial, sans-serif; font-size: 12px; fill: rgb(42, 63, 95); fill-opacity: 1; white-space: pre; opacity: 1;" transform="translate(416.5,0)">60</text></g><g class="xtick"><text text-anchor="middle" x="0" y="333" style="font-family: 'Open Sans', verdana, arial, sans-serif; font-size: 12px; fill: rgb(42, 63, 95); fill-opacity: 1; white-space: pre; opacity: 1;" transform="translate(546.5,0)">80</text></g></g><g class="yaxislayer-above"><g class="ytick"><text text-anchor="end" x="32" y="4.199999999999999" transform="translate(0,301.12)" style="font-family: 'Open Sans', verdana, arial, sans-serif; font-size: 12px; fill: rgb(42, 63, 95); fill-opacity: 1; white-space: pre; opacity: 1;">0</text></g><g class="ytick"><text text-anchor="end" x="32" y="4.199999999999999" style="font-family: 'Open Sans', verdana, arial, sans-serif; font-size: 12px; fill: rgb(42, 63, 95); fill-opacity: 1; white-space: pre; opacity: 1;" transform="translate(0,241.52)">0.1</text></g><g class="ytick"><text text-anchor="end" x="32" y="4.199999999999999" style="font-family: 'Open Sans', verdana, arial, sans-serif; font-size: 12px; fill: rgb(42, 63, 95); fill-opacity: 1; white-space: pre; opacity: 1;" transform="translate(0,181.91)">0.2</text></g><g class="ytick"><text text-anchor="end" x="32" y="4.199999999999999" style="font-family: 'Open Sans', verdana, arial, sans-serif; font-size: 12px; fill: rgb(42, 63, 95); fill-opacity: 1; white-space: pre; opacity: 1;" transform="translate(0,122.31)">0.3</text></g><g class="ytick"><text text-anchor="end" x="32" y="4.199999999999999" style="font-family: 'Open Sans', verdana, arial, sans-serif; font-size: 12px; fill: rgb(42, 63, 95); fill-opacity: 1; white-space: pre; opacity: 1;" transform="translate(0,62.71)">0.4</text></g></g><g class="overaxes-above"/></g></g><g class="polarlayer"/><g class="smithlayer"/><g class="ternarylayer"/><g class="geolayer"/><g class="funnelarealayer"/><g class="pielayer"/><g class="iciclelayer"/><g class="treemaplayer"/><g class="sunburstlayer"/><g class="glimages"/><defs id="topdefs-7756af"><g class="clips"/><clipPath id="legend7756af"><rect width="386" height="29" x="0" y="0"/></clipPath></defs><g class="layer-above"><g class="imagelayer"/><g class="shapelayer"/></g><g class="infolayer"><g class="legend" pointer-events="all" transform="translate(284,11.519999999999996)"><rect class="bg" shape-rendering="crispEdges" width="386" height="29" x="0" y="0" style="stroke: rgb(68, 68, 68); stroke-opacity: 1; fill: rgb(255, 255, 255); fill-opacity: 1; stroke-width: 0px;"/><g class="scrollbox" transform="" clip-path="url(#legend7756af)"><g class="groups"><g class="traces" transform="translate(0,14.5)" style="opacity: 1;"><text class="legendtext" text-anchor="start" x="40" y="4.680000000000001" style="font-family: 'Open Sans', verdana, arial, sans-serif; font-size: 12px; fill: rgb(42, 63, 95); fill-opacity: 1; white-space: pre;">trades.expectancy</text><g class="layers" style="opacity: 1;"><g class="legendfill"/><g class="legendlines"><path class="js-line" d="M5,0h30" style="fill: none; stroke: rgb(31, 119, 180); stroke-opacity: 1; stroke-width: 2px;"/></g><g class="legendsymbols"><g class="legendpoints"/></g></g><rect class="legendtoggle" x="0" y="-9.5" width="152.8125" height="19" style="fill: rgb(0, 0, 0); fill-opacity: 0;"/></g><g class="traces" transform="translate(155.3125,14.5)" style="opacity: 1;"><text class="legendtext" text-anchor="start" x="40" y="4.680000000000001" style="font-family: 'Open Sans', verdana, arial, sans-serif; font-size: 12px; fill: rgb(42, 63, 95); fill-opacity: 1; white-space: pre;">trades.expectancy (smoothed)</text><g class="layers" style="opacity: 1;"><g class="legendfill"/><g class="legendlines"><path class="js-line" d="M5,0h30" style="fill: none; stroke: rgb(255, 255, 0); stroke-opacity: 1; stroke-dasharray: 3px, 3px; stroke-width: 2px;"/></g><g class="legendsymbols"><g class="legendpoints"/></g></g><rect class="legendtoggle" x="0" y="-9.5" width="227.375" height="19" style="fill: rgb(0, 0, 0); fill-opacity: 0;"/></g></g></g><rect class="scrollbar" rx="20" ry="3" width="0" height="0" x="0" y="0" style="fill: rgb(128, 139, 164); fill-opacity: 1;"/></g><g class="g-gtitle"/><g class="g-xtitle"/><g class="g-ytitle"/></g></svg>