<svg class="main-svg" xmlns="http://www.w3.org/2000/svg" xmlns:xlink="http://www.w3.org/1999/xlink" width="700" height="350" style="" viewBox="0 0 700 350"><rect x="0" y="0" width="700" height="350" style="fill: rgb(255, 255, 255); fill-opacity: 1;"/><defs id="defs-4c2151"><g class="clips"><clipPath id="clip4c2151xyplot" class="plotclip"><rect width="630" height="274"/></clipPath><clipPath class="axesclip" id="clip4c2151x"><rect x="40" y="0" width="630" height="350"/></clipPath><clipPath class="axesclip" id="clip4c2151y"><rect x="0" y="46" width="700" height="274"/></clipPath><clipPath class="axesclip" id="clip4c2151xy"><rect x="40" y="46" width="630" height="274"/></clipPath></g><g class="gradients"/><g class="patterns"/></defs><g class="bglayer"><rect class="bg" x="40" y="46" width="630" height="274" style="fill: rgb(229, 236, 246); fill-opacity: 1; stroke-width: 0;"/></g><g class="layer-below"><g class="imagelayer"/><g class="shapelayer"/></g><g class="cartesianlayer"><g class="subplot xy"><g class="layer-subplot"><g class="shapelayer"/><g class="imagelayer"/></g><g class="minor-gridlayer"><g class="x"/><g class="y"/></g><g class="gridlayer"><g class="x"><path class="xgrid crisp" transform="translate(114.43,0)" d="M0,46v274" style="stroke: rgb(255, 255, 255); stroke-opacity: 1; stroke-width: 1px;"/><path class="xgrid crisp" transform="translate(189.69,0)" d="M0,46v274" style="stroke: rgb(255, 255, 255); stroke-opacity: 1; stroke-width: 1px;"/><path class="xgrid crisp" transform="translate(265.78,0)" d="M0,46v274" style="stroke: rgb(255, 255, 255); stroke-opacity: 1; stroke-width: 1px;"/><path class="xgrid crisp" transform="translate(341.87,0)" d="M0,46v274" style="stroke: rgb(255, 255, 255); stroke-opacity: 1; stroke-width: 1px;"/><path class="xgrid crisp" transform="translate(416.3,0)" d="M0,46v274" style="stroke: rgb(255, 255, 255); stroke-opacity: 1; stroke-width: 1px;"/><path class="xgrid crisp" transform="translate(491.56,0)" d="M0,46v274" style="stroke: rgb(255, 255, 255); stroke-opacity: 1; stroke-width: 1px;"/><path class="xgrid crisp" transform="translate(567.65,0)" d="M0,46v274" style="stroke: rgb(255, 255, 255); stroke-opacity: 1; stroke-width: 1px;"/><path class="xgrid crisp" transform="translate(643.73,0)" d="M0,46v274" style="stroke: rgb(255, 255, 255); stroke-opacity: 1; stroke-width: 1px;"/></g><g class="y"><path class="ygrid crisp" transform="translate(0,288.24)" d="M40,0h630" style="stroke: rgb(255, 255, 255); stroke-opacity: 1; stroke-width: 1px;"/><path class="ygrid crisp" transform="translate(0,251.66)" d="M40,0h630" style="stroke: rgb(255, 255, 255); stroke-opacity: 1; stroke-width: 1px;"/><path class="ygrid crisp" transform="translate(0,215.08)" d="M40,0h630" style="stroke: rgb(255, 255, 255); stroke-opacity: 1; stroke-width: 1px;"/><path class="ygrid crisp" transform="translate(0,141.92000000000002)" d="M40,0h630" style="stroke: rgb(255, 255, 255); stroke-opacity: 1; stroke-width: 1px;"/><path class="ygrid crisp" transform="translate(0,105.34)" d="M40,0h630" style="stroke: rgb(255, 255, 255); stroke-opacity: 1; stroke-width: 1px;"/><path class="ygrid crisp" transform="translate(0,68.76)" d="M40,0h630" style="stroke: rgb(255, 255, 255); stroke-opacity: 1; stroke-width: 1px;"/></g></g><g class="zerolinelayer"><path class="yzl zl crisp" transform="translate(0,178.5)" d="M40,0h630" style="stroke: rgb(255, 255, 255); stroke-opacity: 1; stroke-width: 2px;"/></g><path class="xlines-below"/><path class="ylines-below"/><g class="overlines-below"/><g class="xaxislayer-below"/><g class="yaxislayer-below"/><g class="overaxes-below"/><g class="plot" transform="translate(40,46)" clip-path="url(#clip4c2151xyplot)"><g class="scatterlayer mlayer"><g class="trace scatter trace3e7c598d-6d3a-4006-ae76-ce8b6b8afd0a" style="stroke-miterlimit: 2; opacity: 1;"><g class="fills"/><g class="errorbars"/><g class="lines"><path class="js-line" d="M49.59,143.58L50.04,152.36L50.38,145.73L50.41,144.8L50.55,138.34L50.69,147.52L51,145.37L51.03,151.17L51.31,156.14L51.52,139.46L51.62,140.36L51.66,140.78L52.62,109.35L52.69,111.27L52.72,111.94L52.76,115.2L52.9,97.46L53.45,111.72L53.48,110.8L53.62,100.7L53.93,111.73L54.03,109.61L54.07,113.79L54.21,123.51L54.89,122.41L54.93,122.91L55,121.52L55.41,127.79L55.45,127.43L55.48,127.5L55.62,129.69L55.79,118.73L56.2,122.98L56.24,130.12L56.27,131.64L56.76,123.98L56.89,125.48L56.93,126.43L56.96,124.21L57.58,132.38L57.62,132.3L57.72,134.2L57.75,131.7L57.82,127.06L58.24,134.11L58.27,139.67L59.2,124.5L59.24,126.52L59.31,129.44L59.44,128.87L59.48,125.12L59.55,123.56L60.27,138.66L60.37,136.91L60.41,135.62L60.75,180.66L61.13,147.55L61.17,145.4L61.27,151.45L61.51,138.36L61.79,143.73L61.82,140.34L61.99,127.27L62.27,137.12L62.3,143.22L62.34,142.41L62.65,146.65L62.68,145.96L62.72,151.81L62.96,170.96L63.16,150.43L63.2,152.79L63.23,147.27L63.27,148.9L63.58,134.45L63.75,141.21L63.78,120.37L63.92,128.27L64.13,103.91L64.16,105.61L64.2,97.88L65.06,127.32L65.09,124.72L65.13,124.97L65.75,125.69L65.96,117.4L65.99,122.44L66.02,123.26L67.09,96.33L67.16,104.19L67.2,105.3L67.4,111.59L67.47,106.59L67.51,102.98L68.37,48.93L68.54,68.97L68.57,80.03L68.68,83.36L69.02,49.95L69.4,56.34L69.44,61.39L69.57,42.39L70.13,80.33L70.16,77.18L70.19,79.04L70.33,72.01L71.19,100.74L71.23,98.97L71.26,98.2L71.64,105.19L71.68,108.87L71.99,114.66L72.37,108.11L72.47,112.27L72.5,112.28L72.54,109.46L72.71,119.98L73.16,116.39L73.19,116.95L73.36,111.19L73.88,121.9L74.02,121.09L74.05,120.01L74.67,85.8L75.02,89.87L75.05,90.13L75.85,116.24L75.95,110.55L75.98,109.98L76.09,117.7L76.19,108.9L76.22,104.86L76.54,123.08L76.98,111.19L77.02,111.6L77.12,114.87L77.5,107.07L77.57,108.31L77.6,98.96L77.78,89.17L78.15,116.03L78.43,107.83L78.46,101.81L78.53,107.33L79.4,34.62L79.74,57.36L79.77,63.69L79.81,63.5L79.84,58.07L79.88,44.61L80.29,89.62L80.5,86.98L80.53,86.11L80.74,87.39L80.91,75.75L80.98,81.67L81.01,75.62L82.15,123.12L82.32,119.47L82.36,116.76L82.43,105.6L83.01,123.07L83.05,120.91L83.08,125.23L83.53,161.74L83.98,143.22L84.01,136.34L84.43,154.39L84.6,143.38L84.63,133.28L84.81,143.37L84.84,145.46L85.01,151.33L85.32,129.03L85.7,129.61L85.74,133.27L85.77,125.54L86.43,146.91L86.46,148.9L86.7,164.14L86.87,123.53L87.05,136.42L87.08,129.09L87.36,117.49L87.73,133.43L87.77,144.26L87.8,144.69L87.84,132.36L88.01,130.14L88.35,190.87L88.6,135.82L88.63,132.34L88.7,154.14L88.87,125.14L89.25,126.18L89.29,109.5L89.97,70.11L90.08,78.36L90.11,79.22L90.15,70.74L90.63,106.78L90.73,99.55L90.77,101.33L90.84,94.25L91.49,104.37L91.53,111.01L91.73,102.68L92.28,126.21L92.32,123.83L92.35,121.57L92.39,117.94L92.97,129.1L93.04,126.39L93.08,128.84L93.87,139.05L93.94,137.47L93.97,138.54L94.28,139.02L94.42,136.05L94.56,142.09L94.66,142.9L94.7,138.38L95.11,141.38L95.14,136.7L95.45,146.11L95.9,140.84L95.94,136.35L96.87,144.83L96.9,146.37L96.94,145.86L97.25,150.14L97.35,149.05L97.38,150.91L97.69,146.63L97.93,158.2L98.04,154.72L98.07,155.42L98.28,152.34L98.38,155.04L98.42,156.99L98.8,160.7L99.07,154.27L99.11,155.06L99.14,155.68L99.18,153.92L99.76,158.38L99.86,156.43L99.9,157.13L100.07,143.9L100.59,152.5L100.62,153.17L100.69,149.29L101.1,154.35L101.35,151.96L101.38,153.36L101.69,152.37L102.24,160.92L102.41,158.08L102.45,157.04L103.48,120.53L103.65,133.97L103.69,136.66L104.21,60.66L104.24,19.14L104.28,13.7L104.62,66.23L104.65,70.83L105.17,110.93L105.55,110.08L105.58,111.4L105.76,112.06L105.79,104.89L105.83,101.35L105.93,72.56L106.45,104.71L106.58,94.65L106.62,99.55L106.65,95.97L107.24,106.67L107.27,104.82L107.31,106.84L107.38,106.11L107.58,112.55L107.65,112.17L107.69,114.3L107.86,115.7L107.96,101.88L108.44,112.51L108.48,112.76L108.69,111.78L109.41,127.76L109.44,131.81L109.72,139.97L110.03,126.81L110.17,131.03L110.2,132.21L110.37,126.26L110.62,141L110.82,139.17L110.86,137.29L111.24,142.19L111.27,152.33L111.62,142.3L111.86,156.17L112.03,149.14L112.06,150.21L112.1,153.39L112.3,146.12L112.79,151.7L112.82,150.72L113.23,141.74L113.58,154.29L113.61,151.27L113.99,155.95L114.2,147.53L114.23,148.41L114.27,136.83L114.37,139.07L114.51,127.61L114.54,113.12L115.3,131.27L115.34,132.87L115.68,143.71L116.13,140.59L116.16,138.22L116.23,141.3L116.47,123.65L116.82,130.76L116.85,131.59L117.47,146.69L117.68,141.95L117.71,134.38L117.99,124.84L118.37,138.56L118.4,137.13L118.44,138.91L118.68,146.17L119.09,135.78L119.13,132.32L119.2,126.48L119.61,139.57L119.64,138.89L119.68,140.77L119.82,135.67L120.13,141.78L120.23,141.03L120.26,141.66L120.33,145.56L120.82,131.35L120.85,131.51L121.09,135.48L121.4,130.53L121.44,127.78L121.54,124.12L122.16,132.35L122.23,131.6L122.26,131.02L122.3,129.84L122.78,134.59L122.92,132.87L122.95,133.01L123.09,131.8L123.33,135.84L123.47,135.37L123.5,136.08L124.06,134.34L124.54,143.63L124.57,142.79L124.68,144.5L124.92,142.27L125.09,143.94L125.12,144.17L125.33,145.07L125.67,141.9L125.81,144.49L125.85,144.71L127.16,172.64L127.36,169.87L127.4,164.55L127.47,164.73L127.5,164.14L127.54,160.73L127.71,159.54L128.29,164.12L128.33,163.46L128.36,162.1L128.43,165.73L128.74,157.14L128.78,157.29L128.81,157.26L128.95,153.39L129.29,159.9L129.47,156.42L129.5,158.3L130.26,167.75L130.4,162.77L130.43,161.7L131.15,151.59L131.33,155.34L131.36,156.28L131.53,155.78L131.6,157.24L131.64,160.44L131.84,179.77L132.29,165.24L132.33,157.97L132.6,156.36L132.88,159.94L132.91,158.79L132.95,162.46L133.01,160.02L133.29,169.47L133.57,165.47L133.6,167.88L134.12,153.83L134.57,158.78L134.6,161.54L134.91,158.58L135.22,164.46L135.32,161.99L135.36,163.07L135.39,163.67L135.6,159.05L135.87,159.66L135.91,158.98L136.08,161.44L136.98,153.56L137.01,154.57L137.94,150.87L137.98,150.9L138.05,150.63L138.25,152.31L138.6,151.33L138.63,151.46L138.73,151.79L138.84,150.43L138.87,149.78L138.94,150.45L139.29,146.92L139.53,150.22L139.56,150.93L140.29,147.84L140.49,148.65L140.53,149.1L140.97,153.61L141.25,149.34L141.28,148.56L141.35,148.07L141.56,152.82L141.6,152.18L141.63,155.36L141.66,154.78L142.18,158.74L142.22,157.5L142.25,158.12L143.11,150.46L143.15,150.73L144.9,141.03L144.97,141.65L145.01,142.18L146.01,133.82L146.11,135.01L146.14,135.14L147.11,125.07L147.38,126.49L147.42,126.89L147.45,128.76L148,121.02L148.07,121.39L148.11,119.8L148.28,122.5L149.14,97.4L149.21,98.82L149.25,99.27L149.49,101.67L150.38,86.41L150.42,87.83L150.49,88.58L150.86,83.91L151.11,87.88L151.14,86.78L152.04,99.22L152.07,98.16L152.69,106.45L152.9,103.01L152.93,100.44L153.04,99.82L153.31,101.72L153.35,103.11L153.38,101.52L153.66,108.98L153.97,108.14L154,109.4L154.24,114.3L154.55,108.75L154.86,112.34L154.9,110.53L155.24,116.4L155.62,112.52L155.65,110.81L156.03,110.24L156.07,112.7L156.21,111.39L156.24,110.99L156.62,123.61L157.07,118.51L157.1,116.75L157.17,117.88L157.48,114.82L157.76,115.06L157.79,115.26L158.24,121.66L158.69,117.64L158.72,116.29L158.76,116.63L159.07,113.65L159.2,114.23L159.24,114.17L159.34,113.86L160.31,124.24L160.51,119.84L160.55,118.85L160.89,120.75L161.13,118.02L161.31,120.52L161.34,119.89L161.89,119.51L162.1,121.1L162.13,121.01L162.17,120.86L162.44,116.79L162.48,115.9L163.06,121.22L163.3,118.18L163.34,118.93L163.58,119.7L163.89,118.2L164.06,119.09L164.1,118.94L164.27,117.85L164.75,121.48L164.96,120.48L164.99,119.3L165.72,113.81L165.85,115.66L165.89,117.06L166.1,115.87L166.34,118.75L166.37,120.51L166.51,120.46L167.2,124.46L167.23,123.09L167.27,123.18L167.72,122.08L167.92,126.47L168.09,124.57L168.13,123.18L168.2,122.08L168.4,126.47L168.71,124.69L168.75,126.46L169.09,129.17L169.4,122.93L169.58,123.66L169.61,124.41L169.85,122.07L170.06,131.97L170.09,138.65L170.2,153.78L170.75,127.26L170.78,122.58L170.95,118.67L171.2,129.54L171.23,131.03L171.47,132.05L171.75,119.35L172.09,119.89L172.13,119.67L172.33,125.6L172.99,109.85L173.02,111.73L173.06,111.12L173.13,115.17L173.26,114.31L173.3,121.03L173.75,96.58L174.13,103.89L174.16,107.33L174.95,49.72L175.19,56.45L175.23,61.08L175.3,57.42L175.74,84.56L176.12,80.86L176.16,83.39L176.74,65.89L176.99,72.36L177.02,76.79L177.88,89.87L177.92,89.84L178.19,96.49L178.74,94.03L178.78,94.14L178.95,102.49L179.19,92.93L179.54,98.07L179.57,96.21L179.78,99.95L180.22,83.66L180.33,91.22L180.36,71.55L180.4,77.5L180.57,44.24L181.05,65.33L181.09,67.34L181.6,84.4L181.91,80.74L181.95,66.27L182.98,102.23L183.02,100.13L183.05,99.89L183.12,101.88L183.15,107.53L183.36,103.58L184.22,129.61L184.33,128.94L184.36,122.81L184.77,135.31L184.91,117.24L185.15,119.52L185.19,118.68L185.5,136.84L185.88,112.05L185.91,111.66L185.94,116.93L186.19,91.87L186.63,108.99L186.67,108.73L186.84,102.39L187.01,130.69L187.05,137.47L187.19,122.46L187.67,153.1L187.7,146.56L187.74,147.57L188.08,153.85L188.56,126.68L188.6,132.81L188.94,146.46L189.46,97.18L189.63,102.03L189.67,106.18L189.77,102.15L190.53,183.03L190.56,163.94L190.6,163.07L191.15,216.5L191.39,192.55L191.42,186.02L191.63,193.81L191.84,182.41L191.87,174.87L192.29,197L192.66,169.04L192.7,178.88L192.8,186.77L192.94,173.24L192.97,170.2L193.01,170.62L193.11,165.24L193.15,165.73L193.18,162.56L193.22,163.64L193.39,157.33L193.73,158.99L193.77,156.11L193.8,157.85L194.35,146.56L194.39,145.49L194.59,148.28L194.84,140.95L194.87,139.57L195.01,142.7L195.42,138.9L195.59,140.02L195.63,139.59L195.73,144.17L196.25,137.22L196.28,137.76L196.32,135.27L197.04,145.35L197.35,144.37L197.39,143.72L197.8,146.16L198.28,140.86L198.32,141.07L198.42,141.78L198.49,139.08L198.52,135.85L198.56,136.11L198.59,133.3L198.63,130.63L199.21,139.72L199.49,137.1L199.52,137.07L199.73,136.46L199.83,139.86L199.87,141.22L199.97,140.16L200.49,157.29L200.83,150.37L200.87,148.75L201.11,159.68L201.55,147.36L201.62,149.92L201.66,148.87L202.24,141L202.55,141.21L202.59,142.25L202.66,141.56L202.86,151.69L203.04,146.46L203.07,144.23L203.11,146.85L203.55,138.37L203.73,139.17L203.76,137.2L203.97,140.41L204.28,130.36L204.38,133.66L204.42,132.15L204.62,139.19L204.79,123.9L204.97,128.19L205,127.99L205.38,122.89L205.62,133.29L205.66,135.92L205.72,133.83L206.21,141.12L206.31,139.03L206.34,141.37L206.38,140.96L206.41,149.51L206.48,148.29L206.79,153.38L206.83,153.28L206.86,159.19L207,180.98L207.52,158.58L207.59,161.56L207.62,161.02L207.69,161.26L208.55,131.2L208.62,133.8L208.65,137.33L208.89,145.12L209.27,134.77L209.38,138.45L209.41,137.84L209.79,132.6L210.24,135.38L210.27,136.47L210.65,124.84L210.96,132.58L211,135.12L211.17,140.69L211.34,132.66L211.55,135.38L211.58,133.76L211.79,134.1L211.93,131.8L211.96,132.03L212,130.6L212.1,131.85L212.2,129.22L212.24,128.86L212.38,131.15L212.44,130.92L212.48,127.99L212.69,131.34L213.31,123.68L213.34,123.74L213.37,126.17L213.48,128.07L213.62,125.42L214.03,126.57L214.06,129.22L214.48,121.55L214.82,126.99L214.86,125.89L214.96,129.58L215.2,122.32L215.58,125.83L215.61,125.43L216.68,138.49L216.72,136.81L216.75,145.16L216.86,145.06L217.51,176.1L217.75,164.74L217.79,162.54L217.89,161.93L218.34,187.39L218.61,172.62L218.65,171.08L218.72,174.87L219.03,154.75L219.06,153.31L219.58,156.83L219.75,147.36L219.85,148.32L219.89,148.59L219.96,144.32L220.2,153.8L220.27,152.3L220.3,168.78L220.4,170.08L220.65,162.49L220.68,159.24L220.75,158.47L220.99,162.02L221.02,159.73L221.06,163.53L221.16,160.77L221.65,164.22L221.68,165.88L221.89,174.5L222.16,159.33L222.3,159.74L222.33,158.32L222.4,161.31L222.54,151.69L223.09,159.99L223.13,159.46L223.23,157.87L223.85,166.04L223.95,165.79L223.99,164.41L224.09,168.58L224.51,156.1L224.78,163.56L224.82,163.46L226.12,114.86L226.5,117.58L226.54,118.63L227.54,77.23L227.61,78.43L227.64,80.67L228.36,99.75L228.54,95.69L228.57,89.84L229.5,105.32L229.54,104.95L229.85,103.24L230.19,111.36L230.29,109.44L230.33,105.64L230.57,96.86L231.09,102.77L231.12,103.29L231.29,102.77L232.05,114.97L232.22,111.96L232.26,111.37L232.33,111.52L232.36,110.94L232.4,109.41L232.47,110.16L232.71,107.79L232.74,98.1L232.81,101.77L233.19,87.31L233.43,95.91L233.46,94.88L234.08,104.17L234.36,103.54L234.4,104.44L234.77,101.8L234.95,105.04L234.98,105.57L235.08,103.13L235.36,107.54L235.7,104.88L235.74,106.59L235.77,105.36L236.32,112.17L236.36,111.64L236.39,112.66L236.46,111.58L236.77,113.87L236.81,115.83L237.46,111.05L237.53,112.88L237.57,116.27L237.67,118.24L237.94,115.23L238.29,116.88L238.32,116.35L238.36,116.07L238.39,120.23L238.56,119.5L238.6,120.51L238.87,120.97L239.12,118.46L239.19,120.52L239.22,122.86L239.5,125.83L239.81,121.68L239.94,122.94L239.98,122.62L240.01,123.04L240.36,120.16L240.56,120.9L240.6,120.58L240.8,118.94L241.05,122.9L241.32,120.12L241.36,119.06L242.15,123.53L242.22,121.21L242.25,120.57L242.32,121.76L242.36,117.24L242.53,115.6L242.8,120.23L243.01,118.26L243.04,119.37L243.08,119.1L243.15,123.52L243.18,127.76L243.25,127.51L244.08,135.16L244.11,133.67L244.39,136.24L244.63,131.1L244.77,134.63L244.8,134.64L244.94,135.01L245.59,130.33L245.66,131.27L245.7,131.44L246.52,155.17L246.8,147.32L246.84,144.69L247.28,155.41L247.59,145.91L247.63,145.11L248.04,149.62L248.18,146.73L248.21,144.37L248.35,136.87L248.63,148.41L248.97,142.23L249.01,142.62L249.21,146.39L249.39,138.98L249.76,143.07L249.8,142.89L250.25,148.71L250.42,142.32L250.56,146.21L250.59,141.17L250.69,134.63L250.9,146.51L250.94,144.52L250.97,122.8L251.11,129.41L251.69,43.12L251.83,68.99L251.87,71.46L252.66,88.84L252.69,86.27L252.76,85.7L253.04,90.15L253.07,95.43L253.49,117.71L253.9,111.6L253.93,112.1L253.97,109.26L254.49,118.61L254.62,114.89L254.66,114.79L254.69,114.3L255.07,120.03L255.11,122.23L255.66,91.71L256.07,103.17L256.1,106.67L256.35,103.42L257.69,128.66L257.72,123.3L257.76,117.29L258.03,130.39L258.21,112.86L258.48,115.78L258.52,109.1L258.59,117.52L258.69,111.73L258.72,108.42L259.41,156.99L259.65,134.14L259.69,133.14L259.76,132.5L260.69,184.41L261.07,182.13L261.1,173.52L261.24,160.35L261.27,156.66L261.31,156.81L261.34,149.51L261.86,141.69L262.17,143.24L262.2,145.64L262.62,118.98L263.03,126.13L263.07,124.46L263.13,115.15L263.86,115.94L263.89,117.32L263.93,114.64L264.55,123.24L264.58,126.04L264.82,128.9L265.2,123.57L265.37,128.06L265.41,128.74L265.48,127.8L265.58,132.49L265.62,165.55L265.68,151.36L266.13,166.49L266.37,160.34L266.41,159.66L267.17,141.56L267.27,143.11L267.3,143.69L267.65,147.01L268.03,137.42L268.17,140.24L268.2,141.16L268.48,136.66L268.92,146.04L268.99,143.69L269.03,143.86L269.23,141.92L269.82,149.14L270.06,148.49L270.1,147.02L270.23,145.86L270.37,150.07L270.41,151L270.44,150.54L270.68,155.9L270.85,155.46L270.89,156.15L271.2,148.43L271.23,149.93L271.27,142.61L271.92,124.07L272.06,131L272.09,134.93L273.09,151.35L273.16,150.07L273.2,147.97L273.89,156.74L274.09,153.33L274.13,153.89L274.16,154.51L274.51,147.11L274.54,145.12L274.58,144.73L274.64,147.66L274.85,147.44L274.89,149.28L274.99,151.1L275.3,141.96L275.47,146.63L275.51,149.88L275.57,151.84L275.71,134.6L275.82,139.84L275.85,132.69L277.06,171.28L277.23,161.97L277.26,161.49L277.54,156.58L277.71,161.56L277.92,160.54L277.95,162.41L278.06,161.16L278.12,163.58L278.16,164.73L278.5,157.88L278.71,170.16L278.78,168.42L278.81,173.95L278.92,188.81L279.57,179.85L279.61,178.27L279.78,177.2L279.99,184.98L280.02,188.23L280.57,197.11L280.81,176.12L280.85,178.57L280.88,179.97L282.67,151.93L282.78,153.1L282.81,154.12L283.09,151.86L283.22,156.3L283.6,152.98L283.64,152.55L283.84,153.14L284.15,149.51L284.19,148.8L284.91,140.93L285.02,141.16L285.05,143.45L285.84,139.55L285.88,139.99L285.95,141.29L286.15,137.76L286.19,135.27L286.53,135.43L286.95,117.16L287.43,119.41L287.46,120.29L287.6,115.13L288.05,124.13L288.19,121.03L288.22,120.59L288.32,117.78L289.08,125.29L289.15,125.08L289.19,123.68L290.15,115.4L290.25,115.63L290.29,116.16L290.32,114.7L290.81,119.1L291.01,116.71L291.05,117.58L291.46,123.04L291.84,119.24L291.87,119.8L292.39,109.99L292.74,112.11L292.77,112.63L293.49,119.88L293.63,119.19L293.67,117.69L294.01,117.53L294.08,121.99L294.46,119.39L294.49,118.91L294.67,117L294.91,120.31L294.94,125.67L295.32,121.83L295.53,129.02L295.6,128.22L295.63,131.73L295.8,150.02L296.28,139.3L296.32,139.53L296.73,135.25L296.97,142.01L297.01,138.69L297.04,146.58L297.77,137.4L297.8,138.78L297.84,144.06L298.32,146.87L298.7,136.17L298.73,136.71L298.77,137.38L298.83,137.45L299.42,128.81L299.73,129.93L299.77,130.99L299.8,125.29L300.42,149.38L300.45,147.44L300.49,147.15L300.59,151.88L300.63,152.15L300.66,149.58L300.8,156.92L301.35,152.27L301.38,152.69L303.04,131.79L303.07,129.95L303.59,115.09L303.8,124.31L303.83,125.01L303.9,124.46L304.07,129.38L304.11,129.15L304.14,129.56L304.42,131.76L304.69,127.66L304.73,127.02L304.93,125.78L305.14,128.23L305.49,127.08L305.52,127.11L305.66,127.04L306.31,141.71L306.55,139.48L306.59,139.23L306.86,135.42L307.04,144.33L307.24,141.49L307.28,144.02L307.35,144.22L307.97,140.36L308.04,141.61L308.07,142.01L308.21,146.19L308.24,149.51L308.28,151.1L308.86,144.56L308.9,145.55L309.45,143L309.83,153.95L309.86,150.9L309.9,153.66L310.55,147.62L310.59,147.69L310.62,148.49L311.14,143.69L311.21,144.78L311.24,143.93L312.07,133.58L312.14,134.06L312.17,136.03L312.38,137.37L312.79,130.69L312.96,134.79L313,135.37L313.79,119.5L314.24,119.88L314.27,123L314.58,122.83L315,125.1L315.03,124.28L315.07,123.87L315.13,123.72L315.31,126.95L315.86,125.29L315.89,123.76L316.79,114.39L316.82,114.61L317,120.47L317.55,116.58L317.58,114.42L317.89,115.32L318.27,108.79L318.44,111.62L318.48,112.45L318.82,109.44L318.92,114.39L319.13,111.68L319.17,110.86L319.27,112.67L319.48,105.32L319.89,110.57L319.92,108.71L320.13,110.35L320.23,108.26L320.27,107.7L320.89,105.79L320.92,110.05L321.03,108.17L321.06,106.96L321.1,105.5L321.47,112.66L321.78,108.02L321.82,108.32L322.03,104.71L322.54,108.72L322.58,108.47L323.09,104.59L323.27,109.47L323.3,109.81L323.37,109.41L323.44,110.83L323.85,110.45L323.89,110.99L324.3,108.59L324.54,113.34L324.58,110.87L324.61,112.59L324.92,112.67L325.16,108.28L325.47,109.07L325.51,109.65L326.02,102.82L326.44,103.26L326.47,103.99L326.82,108.9L327.23,106.89L327.26,105.52L327.57,99.28L327.75,104.12L327.78,104.46L328.02,106.63L328.4,102.93L328.44,103.44L328.47,102.29L328.64,92.32L329.33,108.45L329.4,108.2L329.44,108.15L329.81,110.32L330.12,106.68L330.16,100.72L330.37,93.45L330.81,101.58L330.92,99.06L330.95,99.63L331.19,92.22L331.36,96.4L331.4,97.25L332.12,103.83L332.26,102.97L332.3,102.53L332.33,103.36L332.5,95.04L332.85,97.76L332.88,97.73L333.19,96.95L333.81,111.74L333.85,111.38L334.6,104.25L334.88,106.25L334.91,107.07L335.02,97L335.67,103.81L335.71,102.66L336.26,102.14L336.53,117.42L336.57,116.23L336.6,114.94L337.05,119.85L337.22,109.62L337.26,111.22L337.29,111.13L337.43,110.08L338.05,120.51L338.08,120.26L338.12,117.46L338.19,117.17L338.91,124.78L338.98,121.93L339.01,120.17L339.08,122.2L339.43,116.55L339.46,117.2L339.5,103.53L339.57,106.81L339.81,95.47L340.19,100.56L340.22,99.55L340.74,89.37L340.94,101.98L340.98,102.76L341.53,111.81L341.81,108.99L341.84,108.45L342.39,96.97L342.63,103.11L342.67,106.24L343.7,137.54L343.8,137.46L343.84,136.62L344.22,131L344.77,145.77L344.84,143.72L344.87,142.14L344.94,148.23L345.22,140.3L345.6,142.18L345.63,142.3L346.04,140.48L346.7,164.92L347.01,164.55L347.04,160.72L347.22,148.63L347.87,151.13L347.91,152.86L348.22,148.21L348.73,159L348.77,157.79L349.04,164.73L349.42,156.56L349.49,157.89L349.53,154.98L350.28,165.27L350.32,161.33L350.35,156.72L351.35,134.76L351.45,137.23L351.49,139.3L351.59,136.32L351.94,142.82L352.14,141.55L352.18,142.2L352.35,136.74L352.42,148.62L352.83,142.47L352.87,145.9L353.11,141.15L353.69,150.7L353.73,149.78L353.76,149.63L353.8,152.08L353.83,155.82L353.97,158.86L354.38,152.31L354.42,152.37L354.45,151.22L354.52,149.16L354.94,152.98L355.04,152.82L355.07,153.29L355.97,161.81L356,161.01L356.04,157.22L356.28,161.18L356.76,151.5L356.83,154.26L356.87,154.42L357.21,154.8L357.31,145.46L357.73,146.96L357.76,147.29L357.8,148.14L358.17,140.56L358.21,139.97L358.28,146.35L358.52,136.2L358.86,137.59L358.9,135.11L359.42,134.07L359.55,141.89L359.66,139.32L359.69,137.39L359.76,130.89L360.41,139.78L360.45,139.92L360.86,134.23L360.97,138.86L361,141.5L361.07,141.33L361.1,139.02L361.17,138.44L361.31,141.27L361.34,142.19L361.72,137.88L361.86,143.97L362.21,140.53L362.24,141.31L362.83,135.61L363.03,144.73L363.07,144.09L363.93,133.74L363.96,134.48L364.03,133.95L364.14,136.63L364.31,136.09L364.34,136.36L364.55,146.3L365.2,145.85L365.24,145.37L365.31,139.97L365.34,138.78L365.38,139.04L365.55,135.75L365.58,134.94L365.65,136.92L366.07,133.7L366.1,129.43L366.13,131.51L366.41,100.32L366.44,99.03L366.48,98.54L366.51,87.46L366.58,63.89L367.24,88.39L367.27,89.28L367.38,82.04L367.62,101.39L367.65,103.66L367.69,106.77L367.86,89.09L368.1,95.62L368.13,82.65L368.24,93.35L368.51,60.16L368.68,69.13L368.72,67.1L368.86,43.25L369.41,69.56L369.44,68.85L369.48,70.5L369.65,79.6L369.68,82.42L370.51,125.45L370.58,122.9L370.61,101.55L370.75,71.85L370.92,91.83L370.96,97.2L371.61,122.48L371.72,117.06L371.75,115.25L371.85,112.59L371.96,119.78L371.99,122L372.41,130.3L372.68,117.36L372.72,130.53L373.47,144.92L373.61,144.59L373.65,142.76L373.82,134.34L374.03,138.47L374.06,148.63L374.16,133.54L374.2,129.76L374.58,140.81L374.89,116.33L374.96,133.5L374.99,134.62L375.06,109.99L375.54,135.84L375.58,144.55L375.61,142.31L375.85,162.34L376.2,152.29L376.23,157.75L376.3,163.3L376.44,151.61L376.96,156.21L376.99,155.89L377.09,154.53L377.16,162.59L377.2,161.51L377.23,138.05L377.61,163.9L377.95,137.31L377.99,138.47L378.71,151.77L378.78,144.37L378.82,144.46L379.02,152.68L379.33,135.83L379.37,131.38L379.4,129.65L379.95,139.01L380.02,136.9L380.06,135.23L380.16,138.93L380.54,126.54L380.81,127.98L380.85,129.39L380.88,124.92L380.99,136.85L381.5,136.78L381.54,138.45L381.61,129.83L381.88,141L382.3,136.31L382.33,135.65L382.57,142.03L382.85,133.42L383.02,136.56L383.05,139.1L383.19,141.27L383.26,136.94L383.3,133.31L383.67,142.56L384.16,141.39L384.19,141.21L384.54,134.1L384.71,145.36L384.85,143.5L384.88,135.93L385.26,132.62L385.6,139.96L385.64,139.72L385.67,139.24L385.91,145.23L386.12,138.61L386.4,141.62L386.43,138.83L386.57,141.36L386.64,135.91L387.12,137.63L387.16,137.25L387.29,143.22L387.91,141.66L387.95,139.56L387.98,137.45L388.53,145.79L388.6,144.24L388.64,145.75L388.67,146.53L388.71,138.29L388.74,123.85L389.29,140L389.6,139.87L389.64,140.16L390.22,138.03L390.88,157.51L390.91,158.13L391.15,150.2L391.46,151.39L391.5,155.79L392.08,147.49L392.43,149.68L392.46,152.02L392.84,145.23L393.01,146.75L393.05,150.41L393.19,144.45L393.22,139.79L393.25,139.54L393.29,141.3L393.32,146.14L393.5,151.93L394.05,138.48L394.12,139.75L394.15,145.13L394.25,142.05L394.6,150.4L394.67,150.28L394.7,150.96L394.77,153.24L395.08,141.12L395.22,144.01L395.25,142.05L395.91,153.43L396.08,149.33L396.11,150.42L396.32,155.27L396.63,134.68L396.67,131.9L397.01,128.55L397.18,148.98L397.25,143.17L397.29,148.3L397.42,160.95L397.73,133.25L397.94,140.6L397.98,139.43L398.15,136.07L398.29,149.39L398.49,143.82L398.53,146.72L398.97,140.82L399.08,155.16L399.15,153.92L399.18,155.95L399.35,181.51L399.7,147.12L399.94,149.47L399.97,149.44L400.01,149.74L400.04,149.5L400.08,138.89L400.22,141.4L400.56,129.99L400.9,136.22L400.94,135.97L401.04,126.21L401.46,136.77L401.7,127.56L401.73,129.38L402.18,126.06L402.8,177.82L402.83,227.66L402.94,260.3L403.52,194.18L403.56,198.21L403.66,211.53L404.14,166.78L404.38,178.57L404.42,179.25L404.52,179.63L405.18,152.67L405.21,153.73L405.25,166.84L405.66,163.4L405.87,197.01L406.04,191.58L406.07,188L406.14,183.71L406.45,212.32L406.56,204.51L406.59,209.25L406.66,223.44L407.04,195.36L407.28,207.55L407.31,213.46L408.14,168.34L408.21,172.22L408.24,174.26L408.28,175.01L408.35,164.94L408.38,162.46L409.35,143.02L409.38,142.9L409.55,144.64L409.59,140.37L409.62,130.55L409.8,108.8L410.14,124.3L410.17,126.12L410.35,133.37L410.62,123.58L410.83,128.23L410.86,125.65L411.55,135.35L411.62,127.11L411.66,126.61L411.72,128.14L412.07,125.03L412.1,123.78L412.14,123.53L412.24,126.79L412.28,127.6L412.31,128.12L412.79,123.49L412.83,124.48L412.86,124.01L412.9,123.44L413.17,126.88L413.45,123.73L413.48,126.52L413.83,122.71L414.03,125.15L414.07,126.21L414.14,132.05L414.65,130.26L414.69,128.6L414.96,132.73L415.34,126.09L415.38,126.66L415.72,124.57L415.86,127.68L416.17,127.35L416.2,126.31L416.41,127.59L416.55,124.98L416.58,123.03L416.62,120.07L417.24,124.68L417.27,124.52L417.31,124.6L417.62,125.85L418.13,120.22L418.17,121.07L418.41,122.44L419.17,117.44L419.2,117.25L419.31,116.11L419.37,117.5L419.41,113.74L419.69,104.52L420.13,111.73L420.17,112.88L420.2,112.43L420.41,116.77L420.75,115L420.79,115.14L420.82,116.29L421.03,107.74L421.51,114.95L421.55,115.01L421.61,115.34L421.72,113.45L421.75,114.09L421.79,111.91L421.89,112.56L421.92,112.52L421.96,116.01L422.65,122.54L422.82,119.48L422.86,119.31L422.96,117.62L423.23,120.86L423.54,118.01L423.58,117.81L424.37,121.04L424.41,120.73L424.44,120.89L424.65,121.47L425.3,117.87L425.37,119.43L425.41,121.06L426.27,114.51L426.34,117.34L426.37,118.79L426.92,114.45L427.09,117.61L427.13,118.47L427.2,117.87L427.4,122.28L427.44,124.96L427.99,120.81L428.33,121.74L428.37,121.9L429.3,127.38L429.33,125.88L429.37,124.92L429.58,124.02L429.89,126.76L429.92,126.17L429.95,126.68L430.23,125.43L430.47,129.37L430.75,128.54L430.78,128.58L431.06,122.93L431.09,121.28L431.19,119.29L431.54,126.9L431.64,125.35L431.68,125.77L432.09,132.3L432.4,127.38L432.44,124.9L433.26,137.19L433.3,140.01L433.33,141.37L433.88,133.75L433.92,135.37L433.95,135.36L435.5,193.77L435.54,196.47L435.92,210.57L436.33,179.48L436.36,181.92L436.43,180.72L436.71,204.06L436.74,207.37L436.85,209.14L437.95,174.89L438.19,176.51L438.22,176.79L438.64,178.75L439.15,163L439.19,163.16L439.29,165.34L440.53,147.53L440.57,150.97L440.98,146.84L441.19,151.02L441.22,149.95L441.26,151.28L441.88,140.47L442.08,142.81L442.12,143.94L442.15,144.34L442.53,141.18L442.57,139.55L442.81,147.34L443.12,137.34L443.36,142.4L443.39,141.08L443.43,141.48L443.46,156.37L444.15,139.39L444.25,140.72L444.29,140.26L444.36,139.56L444.6,144.85L444.7,140.85L444.74,139.51L444.77,139.76L444.91,136.15L444.94,132.9L445.87,147.55L445.91,145.6L445.94,145.14L446.05,149.57L446.32,143.5L446.36,139.07L446.43,143.16L447.08,136.86L447.12,136.19L447.46,135.62L447.63,143.81L447.91,139.23L447.94,135.16L448.08,136.13L448.87,123.27L448.98,125.54L449.01,127.77L449.73,109.58L449.94,111.44L449.98,111.37L450.73,99.92L450.77,103.85L450.8,109.06L451.04,105.32L451.28,122.67L451.42,114.21L451.46,122.66L451.53,122.95L451.77,115.31L452.25,118.14L452.28,117.46L452.35,119.34L452.39,114.57L452.97,115.94L453.01,118.07L453.32,121.65L453.73,113.37L453.8,114.66L453.83,115.08L454.11,114.25L454.52,119.74L454.59,118.4L454.63,117.27L455.01,123.29L455.32,115.84L455.35,115.57L455.63,116.64L455.7,113.79L455.9,114.3L455.94,113.3L455.97,110.53L456.63,115.47L456.66,117.14L456.76,118.83L457.07,112.08L457.49,114.13L457.52,114.28L457.59,115.28L458.14,112.13L458.18,97.27L459.35,113.8L459.38,112.96L459.76,108.99L460.49,121.23L460.52,121L460.55,120.75L460.73,124.67L460.76,125.58L462.04,136.8L462.07,134.91L462.31,132.05L462.38,135L462.42,135.45L462.52,135.31L463.1,147.57L463.41,146.09L463.45,143.62L463.83,141.34L464.07,149.43L464.1,149.96L464.17,149.23L464.21,152.6L464.28,152.34L464.31,157.75L464.34,160.13L464.72,142.41L464.83,144.91L464.86,141.12L465.07,119.95L465.52,130.44L465.55,132.87L465.59,132.6L465.62,133.39L465.65,124.69L465.86,107.84L466.21,129.76L466.41,121.76L466.45,123.87L466.76,121.77L467.14,131.67L467.27,129.73L467.31,127.8L467.62,117.44L467.96,130.63L468.03,130.47L468.07,129.94L468.27,125.27L468.79,130.84L468.82,131.04L468.93,128.44L468.96,119.54L469.07,80.3L469.72,99.64L469.76,101.18L470.38,74.12L470.55,77.86L470.58,85.7L471.48,100.16L471.55,97.82L471.58,94.41L471.96,67.87L472.2,86.36L472.24,96.06L473.03,54.31L473.13,70.15L473.17,72.03L473.44,74.84L473.92,41.89L473.96,39.95L473.99,23.87L474.51,64.18L474.65,61.21L474.68,60.64L474.75,65.24L474.96,45.4L474.99,36.17L475.89,85.49L475.92,85.47L475.96,84.91L477.16,114.29L477.2,112.08L477.68,120.43L478.09,119.96L478.13,117.94L478.4,108.68L478.78,115.84L478.82,117.46L479.09,115.04L479.3,117.1L479.33,117.65L479.44,119.17L479.47,120.73L479.68,120.35L479.75,121.59L479.78,122.17L480.23,128.63L480.54,125.99L480.58,124.63L481.26,134.75L481.44,130.53L481.47,130.1L481.75,133.11L481.78,127.31L482.16,129.77L482.2,128.79L482.47,138.27L482.99,136.11L483.02,135.59L483.06,132.39L483.68,139.77L483.71,137.83L483.75,138.54L483.81,144.81L484.3,136.4L484.33,136.56L484.5,137.88L484.64,132.62L484.81,133.62L484.85,133.51L484.88,132.5L485.16,140.83L485.4,139.04L485.43,139.92L485.47,140.87L485.92,135.65L486.05,137.39L486.09,137.32L486.19,135.5L486.26,137.97L486.81,135.77L486.85,136.86L486.92,135.83L487.3,139.52L487.5,137.73L487.54,138.34L487.71,136.54L488.12,140.42L488.16,139.91L488.19,140.62L489.53,147.19L489.57,146.8L489.6,146.46L490.22,152.1L490.43,148.76L490.47,148.26L490.57,144.26L490.81,148.41L490.84,150.03L490.91,151.81L491.12,147.64L491.57,149.77L491.6,150.28L491.67,149.92L491.77,151.57L491.81,153.44L492.67,164.05L492.84,163.15L492.88,162.28L493.02,164.16L493.29,162.08L493.57,162.62L493.6,161.07L494.5,155.26L494.57,155.84L494.6,156.45L494.74,156.64L495.81,151.39L495.84,151.54L495.88,152.99L496.25,154.13L496.43,151.8L496.56,153.43L496.6,153.53L496.77,151.64L497.36,152.82L497.39,152.77L497.56,152.1L498.25,154.39L498.29,153.49L498.36,152.96L498.98,154.33L499.08,153.81L499.11,153.47L499.29,152.64L499.91,155.05L499.94,154.41L499.98,154L500.49,154.82L500.63,153.13L500.67,153.34L500.7,152.88L500.87,152.38L501.08,153.65L501.15,153.07L501.18,152.22L501.29,151.91L501.49,154.05L501.63,153.28L501.66,153.7L503.22,145L503.32,146.09L503.35,146.29L503.53,143.63L503.9,144.4L503.94,148.96L503.97,148.19L504.28,158.31L504.42,154.17L504.46,156.67L505.01,150.79L505.25,153.58L505.28,154.89L505.35,168.65L505.9,154.89L505.94,154.65L506.11,156.59L506.94,133.13L507.21,137L507.25,138.7L507.52,133.59L507.97,143.81L508.07,142.65L508.11,142.55L508.18,141.34L508.32,146.16L508.35,151.92L508.87,144.45L509.11,146.43L509.14,146.53L509.52,161.39L509.59,151.51L509.63,150.21L509.66,147.63L510.07,162.44L510.31,153.76L510.35,154.56L510.38,154.99L510.62,149.23L510.66,150.53L510.69,144.69L511.38,163.95L511.9,161.74L511.93,159.01L511.97,159.74L512.04,150.8L512.14,152.01L512.18,149.03L512.24,156.69L512.55,148.86L512.93,151.65L512.97,151.63L513.59,137.61L513.9,139.52L513.93,143.38L514.04,145.51L514.83,131.97L514.93,132.22L514.97,134.7L515.52,148.17L515.55,157.38L515.9,134.32L516.34,147.58L516.38,150.24L516.41,154.32L516.9,144.85L517.1,148.74L517.14,149.78L517.9,211.55L518.14,198.42L518.17,187.99L518.38,173.87L518.65,200.56L518.89,189.06L518.93,189.35L519,192.85L519.1,169.11L519.24,170.88L519.27,167.6L519.51,160.74L519.58,172.87L519.72,163.49L519.76,161.54L520,142.44L520.17,182.98L520.34,169.56L520.38,169.6L521.24,107.5L521.44,126.99L521.48,138.11L521.79,98.22L522.41,108.31L522.44,108.9L522.62,117.01L522.93,101.44L523.1,105.18L523.13,114.69L523.2,112.61L523.31,114.38L523.34,118.07L523.72,143.49L524.1,122.88L524.13,116.55L524.24,124.1L524.44,94.81L524.48,77.74L524.55,77.14L524.89,114.45L524.93,126.71L525.1,114.93L525.48,145.08L525.68,124.33L525.72,128.48L526.03,114.72L526.2,128.71L526.23,133.6L526.44,137.64L527.17,107.47L527.41,109.68L527.44,113.72L527.54,121.8L527.75,110.07L528.23,118.1L528.27,116.25L528.34,116.94L528.47,113.68L528.51,110.35L528.61,105.9L528.78,110.5L528.82,122.64L529.13,113.98L529.44,129.38L529.54,123.45L529.58,125.68L529.68,120.75L529.75,123.83L529.78,117.39L529.82,119.94L530.37,107.61L530.4,110.67L530.44,108.98L530.82,102.83L531.09,109.8L531.13,107.52L531.16,105.77L531.44,123.75L531.78,108.6L531.82,102.18L532.82,123.1L532.92,121.79L532.95,120.62L533.2,130.5L533.57,126.96L533.61,125.69L533.99,121.69L534.13,125.7L534.16,131.84L535.09,112.3L535.13,112L535.95,150.88L536.4,145.82L536.43,140.66L536.71,146.36L537.05,138.02L537.12,139.04L537.16,142.45L537.26,138.11L537.64,155.31L537.74,153.8L537.78,160.72L537.92,172.21L538.3,136.69L538.4,138.43L538.43,126.94L538.78,131.4L538.81,125.48L538.85,129.14L538.88,136.43L539.12,146.85L539.6,135.88L539.64,136L540.71,123.59L540.88,127.81L540.91,129.51L541.95,111.69L541.98,117.13L542.12,115.08L542.33,121.91L542.74,118.35L542.78,117.29L543.05,114.04L543.36,124.87L543.46,119.78L543.5,115.82L543.84,108.67L544.05,119.4L544.15,118.52L544.19,119.36L544.46,123.28L544.64,115.85L544.67,118.66L544.71,114.5L544.84,112.24L545.15,118.39L545.33,114.28L545.36,111.78L545.39,112.54L545.5,101.26L545.88,108.92L545.91,105.43L546.22,108.86L546.6,89.25L546.81,99.3L546.84,100.6L547.91,114.5L548.05,110.42L548.08,99.33L548.19,107.65L548.36,98.56L548.77,102.05L548.81,98.69L549.12,101.22L549.32,88.58L549.56,92.19L549.6,100.3L549.94,101.45L550.46,87.88L550.49,91.29L550.53,86.72L551.15,96.65L551.22,93.31L551.25,94.25L551.6,96.09L551.67,90.62L551.94,94.14L551.98,93.17L552.49,143.69L552.73,127.7L552.77,123.86L553.01,133.26L553.04,134.46L553.42,118.51L553.63,127.63L553.66,130.74L553.77,130.18L554.01,141.4L554.39,131.95L554.42,129.62L554.46,125.68L554.87,150.88L555.11,132.13L555.15,137.63L555.18,137.24L555.28,144.55L555.35,141.17L555.39,144.61L555.46,149.02L555.9,133.23L556.04,133.82L556.08,134.99L556.25,125.66L556.42,145.87L556.9,128.28L556.94,135.68L557.01,148.45L557.35,128.34L557.7,140.72L557.73,140.13L557.94,133.17L558.35,146.17L558.45,142.61L558.49,147.44L558.63,149.24L559.11,131.12L559.18,144.51L559.21,154.83L559.63,146.44L559.7,156.68L559.73,164.81L560.52,191.54L560.56,188.02L560.69,198.41L561.18,172.31L561.21,170.46L561.97,164.8L562,168.06L562.04,169.59L562.62,163.34L562.66,164.91L562.69,165.59L562.73,168.28L563.31,158.18L563.35,158.65L563.42,156.1L563.59,162.33L564.14,156.35L564.17,158.62L565.31,146.32L565.35,149.96L565.48,148.21L565.79,157.87L566.1,151.06L566.14,150.6L567.03,138.76L567.07,139.94L567.1,139.59L567.38,139.12L568.17,166.34L568.38,156.29L568.41,155.11L568.55,157.54L568.69,145.88L568.93,150.07L568.96,146.91L569.72,124.25L569.79,125.23L569.83,124.92L570.72,107.72L570.83,109.84L570.86,109.68L570.89,110.69L571.45,106.81L571.48,105.16L571.65,100.33L572.24,100.84L572.27,103.12L572.58,97.7L573.03,101.45L573.07,101.32L573.27,102.3L573.48,96.66L573.55,98.18L573.58,97.15L574.24,105.17L574.51,103.58L574.55,102.78L575.06,106.19L575.34,104.61L575.37,103.88L575.65,107.91L575.68,108.48L575.89,106.55L576.1,109.55L576.48,107.83L576.51,107.68L576.75,105.13L577.06,107.3L577.1,108.31L577.24,109.71L577.89,104.9L577.92,105.31L577.96,105.52L578.82,108.39L578.85,106.46L579.23,109.78L579.68,109.13L579.72,108.47L579.82,107.58L580.34,110.07L580.37,110.57L580.41,110.41L580.51,112.41L580.54,113.04L580.78,111.66L581.13,115.66L581.16,114.62L581.2,115.3L581.23,115.54L581.58,113.73L581.82,114.47L581.85,114.38L582.54,117.54L582.71,116.66L582.75,116.04L583.06,115.36L584.44,128.35L584.71,127.08L584.75,126.7L585.09,125.8L585.2,128.43L585.37,128.13L585.4,128.61L585.47,128.92L585.57,125.96L585.68,126.73L585.71,126.23L585.75,126.48L585.82,125.92L585.85,126.44L585.88,119.61L585.92,117.93L586.33,126.85L586.61,120.11L586.64,121.42L586.75,119.57L586.85,122.79L586.99,121.43L587.02,122.9L587.44,139.18L587.88,133.27L587.92,131.85L588.12,131.2L588.3,137.57L588.37,133.86L588.4,131.94L588.88,114.09L589.26,119.46L589.3,120.58L589.71,124.74L589.95,113.87L590.05,117.06L590.09,117.22L591.26,158.27L591.29,169.96L591.33,166.78L591.36,177.6L591.95,175.49L591.98,175.46L592.85,165.36L592.88,167.05L592.91,167.59L593.02,165.43L593.74,182.74L593.84,176.83L593.88,173.73L594.6,156.42L595.09,156.7L595.12,157.8L595.88,150.42L595.91,151.21L595.95,154.48L596.05,155.55L596.26,149.02L596.29,149.69L596.33,148.64L597.22,143.7L597.26,143.28L597.36,145.47L597.98,142.27L598.01,142.48L598.12,141.52L598.39,145.92L598.43,146.05L598.88,144.42L599.05,150.1L599.22,149.13L599.25,148.43L599.29,149.75L599.77,145.28L599.88,146.55L599.91,144.96L599.98,144.8L600.05,146.1L600.08,147.25L600.6,157.15L600.87,154.43L600.91,151.58L601.18,155.27L601.6,150.49L601.63,149.4L601.8,145.94L601.98,152.98L602.11,152.81L602.15,153.71L602.18,153.52L602.29,155.86L602.32,157.92L602.46,159.65L603.22,151.02L603.32,152.94L603.36,153.37L603.42,153.54L603.56,152.01L603.7,153.19" style="vector-effect: none; fill: none; stroke: rgb(31, 119, 180); stroke-opacity: 1; stroke-width: 2px; opacity: 1;"/></g><g class="points"/><g class="text"/></g><g class="trace scatter trace98ea301b-fb32-4ac7-893a-eb4ef2b8461d" style="stroke-miterlimit: 2; opacity: 1;"><g class="fills"/><g class="errorbars"/><g class="lines"/><g class="points"><path class="point" transform="translate(67.09,96.33)" d="M-4.62,-2H4.62L0,4Z" style="opacity: 1; stroke-width: 1px; fill: rgb(234, 67, 53); fill-opacity: 1; stroke: rgb(181, 31, 18); stroke-opacity: 1;"/><path class="point" transform="translate(67.71,89.39)" d="M-4.62,-2H4.62L0,4Z" style="opacity: 1; stroke-width: 1px; fill: rgb(234, 67, 53); fill-opacity: 1; stroke: rgb(181, 31, 18); stroke-opacity: 1;"/><path class="point" transform="translate(71.06,94.22)" d="M-4.62,-2H4.62L0,4Z" style="opacity: 1; stroke-width: 1px; fill: rgb(234, 67, 53); fill-opacity: 1; stroke: rgb(181, 31, 18); stroke-opacity: 1;"/><path class="point" transform="translate(74.43,91.09)" d="M-4.62,-2H4.62L0,4Z" style="opacity: 1; stroke-width: 1px; fill: rgb(234, 67, 53); fill-opacity: 1; stroke: rgb(181, 31, 18); stroke-opacity: 1;"/><path class="point" transform="translate(74.85,94.47)" d="M-4.62,-2H4.62L0,4Z" style="opacity: 1; stroke-width: 1px; fill: rgb(234, 67, 53); fill-opacity: 1; stroke: rgb(181, 31, 18); stroke-opacity: 1;"/><path class="point" transform="translate(77.74,90.55)" d="M-4.62,-2H4.62L0,4Z" style="opacity: 1; stroke-width: 1px; fill: rgb(234, 67, 53); fill-opacity: 1; stroke: rgb(181, 31, 18); stroke-opacity: 1;"/><path class="point" transform="translate(78.6,90.8)" d="M-4.62,-2H4.62L0,4Z" style="opacity: 1; stroke-width: 1px; fill: rgb(234, 67, 53); fill-opacity: 1; stroke: rgb(181, 31, 18); stroke-opacity: 1;"/><path class="point" transform="translate(78.84,96.15)" d="M-4.62,-2H4.62L0,4Z" style="opacity: 1; stroke-width: 1px; fill: rgb(234, 67, 53); fill-opacity: 1; stroke: rgb(181, 31, 18); stroke-opacity: 1;"/><path class="point" transform="translate(89.32,92.19)" d="M-4.62,-2H4.62L0,4Z" style="opacity: 1; stroke-width: 1px; fill: rgb(234, 67, 53); fill-opacity: 1; stroke: rgb(181, 31, 18); stroke-opacity: 1;"/><path class="point" transform="translate(89.49,96.13)" d="M-4.62,-2H4.62L0,4Z" style="opacity: 1; stroke-width: 1px; fill: rgb(234, 67, 53); fill-opacity: 1; stroke: rgb(181, 31, 18); stroke-opacity: 1;"/><path class="point" transform="translate(89.77,93.49)" d="M-4.62,-2H4.62L0,4Z" style="opacity: 1; stroke-width: 1px; fill: rgb(234, 67, 53); fill-opacity: 1; stroke: rgb(181, 31, 18); stroke-opacity: 1;"/><path class="point" transform="translate(90.56,94.91)" d="M-4.62,-2H4.62L0,4Z" style="opacity: 1; stroke-width: 1px; fill: rgb(234, 67, 53); fill-opacity: 1; stroke: rgb(181, 31, 18); stroke-opacity: 1;"/><path class="point" transform="translate(90.84,94.25)" d="M-4.62,-2H4.62L0,4Z" style="opacity: 1; stroke-width: 1px; fill: rgb(234, 67, 53); fill-opacity: 1; stroke: rgb(181, 31, 18); stroke-opacity: 1;"/><path class="point" transform="translate(91.32,96.15)" d="M-4.62,-2H4.62L0,4Z" style="opacity: 1; stroke-width: 1px; fill: rgb(234, 67, 53); fill-opacity: 1; stroke: rgb(181, 31, 18); stroke-opacity: 1;"/><path class="point" transform="translate(104.1,77.69)" d="M-4.62,-2H4.62L0,4Z" style="opacity: 1; stroke-width: 1px; fill: rgb(234, 67, 53); fill-opacity: 1; stroke: rgb(181, 31, 18); stroke-opacity: 1;"/><path class="point" transform="translate(104.86,94.97)" d="M-4.62,-2H4.62L0,4Z" style="opacity: 1; stroke-width: 1px; fill: rgb(234, 67, 53); fill-opacity: 1; stroke: rgb(181, 31, 18); stroke-opacity: 1;"/><path class="point" transform="translate(105,95.8)" d="M-4.62,-2H4.62L0,4Z" style="opacity: 1; stroke-width: 1px; fill: rgb(234, 67, 53); fill-opacity: 1; stroke: rgb(181, 31, 18); stroke-opacity: 1;"/><path class="point" transform="translate(105.86,89.74)" d="M-4.62,-2H4.62L0,4Z" style="opacity: 1; stroke-width: 1px; fill: rgb(234, 67, 53); fill-opacity: 1; stroke: rgb(181, 31, 18); stroke-opacity: 1;"/><path class="point" transform="translate(106.2,94.65)" d="M-4.62,-2H4.62L0,4Z" style="opacity: 1; stroke-width: 1px; fill: rgb(234, 67, 53); fill-opacity: 1; stroke: rgb(181, 31, 18); stroke-opacity: 1;"/><path class="point" transform="translate(106.58,94.65)" d="M-4.62,-2H4.62L0,4Z" style="opacity: 1; stroke-width: 1px; fill: rgb(234, 67, 53); fill-opacity: 1; stroke: rgb(181, 31, 18); stroke-opacity: 1;"/><path class="point" transform="translate(106.65,95.97)" d="M-4.62,-2H4.62L0,4Z" style="opacity: 1; stroke-width: 1px; fill: rgb(234, 67, 53); fill-opacity: 1; stroke: rgb(181, 31, 18); stroke-opacity: 1;"/><path class="point" transform="translate(149.62,96.36)" d="M-4.62,-2H4.62L0,4Z" style="opacity: 1; stroke-width: 1px; fill: rgb(234, 67, 53); fill-opacity: 1; stroke: rgb(181, 31, 18); stroke-opacity: 1;"/><path class="point" transform="translate(149.76,96.59)" d="M-4.62,-2H4.62L0,4Z" style="opacity: 1; stroke-width: 1px; fill: rgb(234, 67, 53); fill-opacity: 1; stroke: rgb(181, 31, 18); stroke-opacity: 1;"/><path class="point" transform="translate(173.75,96.58)" d="M-4.62,-2H4.62L0,4Z" style="opacity: 1; stroke-width: 1px; fill: rgb(234, 67, 53); fill-opacity: 1; stroke: rgb(181, 31, 18); stroke-opacity: 1;"/><path class="point" transform="translate(174.26,94.63)" d="M-4.62,-2H4.62L0,4Z" style="opacity: 1; stroke-width: 1px; fill: rgb(234, 67, 53); fill-opacity: 1; stroke: rgb(181, 31, 18); stroke-opacity: 1;"/><path class="point" transform="translate(174.4,94.57)" d="M-4.62,-2H4.62L0,4Z" style="opacity: 1; stroke-width: 1px; fill: rgb(234, 67, 53); fill-opacity: 1; stroke: rgb(181, 31, 18); stroke-opacity: 1;"/><path class="point" transform="translate(179.12,95.72)" d="M-4.62,-2H4.62L0,4Z" style="opacity: 1; stroke-width: 1px; fill: rgb(234, 67, 53); fill-opacity: 1; stroke: rgb(181, 31, 18); stroke-opacity: 1;"/><path class="point" transform="translate(179.33,95.89)" d="M-4.62,-2H4.62L0,4Z" style="opacity: 1; stroke-width: 1px; fill: rgb(234, 67, 53); fill-opacity: 1; stroke: rgb(181, 31, 18); stroke-opacity: 1;"/><path class="point" transform="translate(179.57,96.21)" d="M-4.62,-2H4.62L0,4Z" style="opacity: 1; stroke-width: 1px; fill: rgb(234, 67, 53); fill-opacity: 1; stroke: rgb(181, 31, 18); stroke-opacity: 1;"/><path class="point" transform="translate(179.88,94.52)" d="M-4.62,-2H4.62L0,4Z" style="opacity: 1; stroke-width: 1px; fill: rgb(234, 67, 53); fill-opacity: 1; stroke: rgb(181, 31, 18); stroke-opacity: 1;"/><path class="point" transform="translate(186.08,92.82)" d="M-4.62,-2H4.62L0,4Z" style="opacity: 1; stroke-width: 1px; fill: rgb(234, 67, 53); fill-opacity: 1; stroke: rgb(181, 31, 18); stroke-opacity: 1;"/><path class="point" transform="translate(186.43,95.85)" d="M-4.62,-2H4.62L0,4Z" style="opacity: 1; stroke-width: 1px; fill: rgb(234, 67, 53); fill-opacity: 1; stroke: rgb(181, 31, 18); stroke-opacity: 1;"/><path class="point" transform="translate(227.33,91.39)" d="M-4.62,-2H4.62L0,4Z" style="opacity: 1; stroke-width: 1px; fill: rgb(234, 67, 53); fill-opacity: 1; stroke: rgb(181, 31, 18); stroke-opacity: 1;"/><path class="point" transform="translate(228.19,88.81)" d="M-4.62,-2H4.62L0,4Z" style="opacity: 1; stroke-width: 1px; fill: rgb(234, 67, 53); fill-opacity: 1; stroke: rgb(181, 31, 18); stroke-opacity: 1;"/><path class="point" transform="translate(228.5,94.83)" d="M-4.62,-2H4.62L0,4Z" style="opacity: 1; stroke-width: 1px; fill: rgb(234, 67, 53); fill-opacity: 1; stroke: rgb(181, 31, 18); stroke-opacity: 1;"/><path class="point" transform="translate(228.85,95.97)" d="M-4.62,-2H4.62L0,4Z" style="opacity: 1; stroke-width: 1px; fill: rgb(234, 67, 53); fill-opacity: 1; stroke: rgb(181, 31, 18); stroke-opacity: 1;"/><path class="point" transform="translate(229.05,96.09)" d="M-4.62,-2H4.62L0,4Z" style="opacity: 1; stroke-width: 1px; fill: rgb(234, 67, 53); fill-opacity: 1; stroke: rgb(181, 31, 18); stroke-opacity: 1;"/><path class="point" transform="translate(233.15,95.39)" d="M-4.62,-2H4.62L0,4Z" style="opacity: 1; stroke-width: 1px; fill: rgb(234, 67, 53); fill-opacity: 1; stroke: rgb(181, 31, 18); stroke-opacity: 1;"/><path class="point" transform="translate(233.4,96.41)" d="M-4.62,-2H4.62L0,4Z" style="opacity: 1; stroke-width: 1px; fill: rgb(234, 67, 53); fill-opacity: 1; stroke: rgb(181, 31, 18); stroke-opacity: 1;"/><path class="point" transform="translate(251.35,92.29)" d="M-4.62,-2H4.62L0,4Z" style="opacity: 1; stroke-width: 1px; fill: rgb(234, 67, 53); fill-opacity: 1; stroke: rgb(181, 31, 18); stroke-opacity: 1;"/><path class="point" transform="translate(251.62,80.97)" d="M-4.62,-2H4.62L0,4Z" style="opacity: 1; stroke-width: 1px; fill: rgb(234, 67, 53); fill-opacity: 1; stroke: rgb(181, 31, 18); stroke-opacity: 1;"/><path class="point" transform="translate(255.66,91.71)" d="M-4.62,-2H4.62L0,4Z" style="opacity: 1; stroke-width: 1px; fill: rgb(234, 67, 53); fill-opacity: 1; stroke: rgb(181, 31, 18); stroke-opacity: 1;"/><path class="point" transform="translate(328.64,92.32)" d="M-4.62,-2H4.62L0,4Z" style="opacity: 1; stroke-width: 1px; fill: rgb(234, 67, 53); fill-opacity: 1; stroke: rgb(181, 31, 18); stroke-opacity: 1;"/><path class="point" transform="translate(330.23,95.05)" d="M-4.62,-2H4.62L0,4Z" style="opacity: 1; stroke-width: 1px; fill: rgb(234, 67, 53); fill-opacity: 1; stroke: rgb(181, 31, 18); stroke-opacity: 1;"/><path class="point" transform="translate(331.09,93.32)" d="M-4.62,-2H4.62L0,4Z" style="opacity: 1; stroke-width: 1px; fill: rgb(234, 67, 53); fill-opacity: 1; stroke: rgb(181, 31, 18); stroke-opacity: 1;"/><path class="point" transform="translate(332.5,95.04)" d="M-4.62,-2H4.62L0,4Z" style="opacity: 1; stroke-width: 1px; fill: rgb(234, 67, 53); fill-opacity: 1; stroke: rgb(181, 31, 18); stroke-opacity: 1;"/><path class="point" transform="translate(332.64,95.83)" d="M-4.62,-2H4.62L0,4Z" style="opacity: 1; stroke-width: 1px; fill: rgb(234, 67, 53); fill-opacity: 1; stroke: rgb(181, 31, 18); stroke-opacity: 1;"/><path class="point" transform="translate(339.67,95.55)" d="M-4.62,-2H4.62L0,4Z" style="opacity: 1; stroke-width: 1px; fill: rgb(234, 67, 53); fill-opacity: 1; stroke: rgb(181, 31, 18); stroke-opacity: 1;"/><path class="point" transform="translate(339.74,96.16)" d="M-4.62,-2H4.62L0,4Z" style="opacity: 1; stroke-width: 1px; fill: rgb(234, 67, 53); fill-opacity: 1; stroke: rgb(181, 31, 18); stroke-opacity: 1;"/><path class="point" transform="translate(339.81,95.47)" d="M-4.62,-2H4.62L0,4Z" style="opacity: 1; stroke-width: 1px; fill: rgb(234, 67, 53); fill-opacity: 1; stroke: rgb(181, 31, 18); stroke-opacity: 1;"/><path class="point" transform="translate(339.98,96.11)" d="M-4.62,-2H4.62L0,4Z" style="opacity: 1; stroke-width: 1px; fill: rgb(234, 67, 53); fill-opacity: 1; stroke: rgb(181, 31, 18); stroke-opacity: 1;"/><path class="point" transform="translate(340.08,96.47)" d="M-4.62,-2H4.62L0,4Z" style="opacity: 1; stroke-width: 1px; fill: rgb(234, 67, 53); fill-opacity: 1; stroke: rgb(181, 31, 18); stroke-opacity: 1;"/><path class="point" transform="translate(340.26,93.61)" d="M-4.62,-2H4.62L0,4Z" style="opacity: 1; stroke-width: 1px; fill: rgb(234, 67, 53); fill-opacity: 1; stroke: rgb(181, 31, 18); stroke-opacity: 1;"/><path class="point" transform="translate(340.5,94.39)" d="M-4.62,-2H4.62L0,4Z" style="opacity: 1; stroke-width: 1px; fill: rgb(234, 67, 53); fill-opacity: 1; stroke: rgb(181, 31, 18); stroke-opacity: 1;"/><path class="point" transform="translate(366.51,87.46)" d="M-4.62,-2H4.62L0,4Z" style="opacity: 1; stroke-width: 1px; fill: rgb(234, 67, 53); fill-opacity: 1; stroke: rgb(181, 31, 18); stroke-opacity: 1;"/><path class="point" transform="translate(367.82,93.8)" d="M-4.62,-2H4.62L0,4Z" style="opacity: 1; stroke-width: 1px; fill: rgb(234, 67, 53); fill-opacity: 1; stroke: rgb(181, 31, 18); stroke-opacity: 1;"/><path class="point" transform="translate(368.06,95.8)" d="M-4.62,-2H4.62L0,4Z" style="opacity: 1; stroke-width: 1px; fill: rgb(234, 67, 53); fill-opacity: 1; stroke: rgb(181, 31, 18); stroke-opacity: 1;"/><path class="point" transform="translate(370.68,88.83)" d="M-4.62,-2H4.62L0,4Z" style="opacity: 1; stroke-width: 1px; fill: rgb(234, 67, 53); fill-opacity: 1; stroke: rgb(181, 31, 18); stroke-opacity: 1;"/><path class="point" transform="translate(469,91.55)" d="M-4.62,-2H4.62L0,4Z" style="opacity: 1; stroke-width: 1px; fill: rgb(234, 67, 53); fill-opacity: 1; stroke: rgb(181, 31, 18); stroke-opacity: 1;"/><path class="point" transform="translate(469.48,92.08)" d="M-4.62,-2H4.62L0,4Z" style="opacity: 1; stroke-width: 1px; fill: rgb(234, 67, 53); fill-opacity: 1; stroke: rgb(181, 31, 18); stroke-opacity: 1;"/><path class="point" transform="translate(469.65,93.72)" d="M-4.62,-2H4.62L0,4Z" style="opacity: 1; stroke-width: 1px; fill: rgb(234, 67, 53); fill-opacity: 1; stroke: rgb(181, 31, 18); stroke-opacity: 1;"/><path class="point" transform="translate(469.79,94.71)" d="M-4.62,-2H4.62L0,4Z" style="opacity: 1; stroke-width: 1px; fill: rgb(234, 67, 53); fill-opacity: 1; stroke: rgb(181, 31, 18); stroke-opacity: 1;"/><path class="point" transform="translate(471.06,96.42)" d="M-4.62,-2H4.62L0,4Z" style="opacity: 1; stroke-width: 1px; fill: rgb(234, 67, 53); fill-opacity: 1; stroke: rgb(181, 31, 18); stroke-opacity: 1;"/><path class="point" transform="translate(471.58,94.41)" d="M-4.62,-2H4.62L0,4Z" style="opacity: 1; stroke-width: 1px; fill: rgb(234, 67, 53); fill-opacity: 1; stroke: rgb(181, 31, 18); stroke-opacity: 1;"/><path class="point" transform="translate(524.44,94.81)" d="M-4.62,-2H4.62L0,4Z" style="opacity: 1; stroke-width: 1px; fill: rgb(234, 67, 53); fill-opacity: 1; stroke: rgb(181, 31, 18); stroke-opacity: 1;"/><path class="point" transform="translate(546.5,93.36)" d="M-4.62,-2H4.62L0,4Z" style="opacity: 1; stroke-width: 1px; fill: rgb(234, 67, 53); fill-opacity: 1; stroke: rgb(181, 31, 18); stroke-opacity: 1;"/><path class="point" transform="translate(548.94,95.72)" d="M-4.62,-2H4.62L0,4Z" style="opacity: 1; stroke-width: 1px; fill: rgb(234, 67, 53); fill-opacity: 1; stroke: rgb(181, 31, 18); stroke-opacity: 1;"/><path class="point" transform="translate(549.15,95.49)" d="M-4.62,-2H4.62L0,4Z" style="opacity: 1; stroke-width: 1px; fill: rgb(234, 67, 53); fill-opacity: 1; stroke: rgb(181, 31, 18); stroke-opacity: 1;"/><path class="point" transform="translate(549.25,93.2)" d="M-4.62,-2H4.62L0,4Z" style="opacity: 1; stroke-width: 1px; fill: rgb(234, 67, 53); fill-opacity: 1; stroke: rgb(181, 31, 18); stroke-opacity: 1;"/><path class="point" transform="translate(549.53,95.17)" d="M-4.62,-2H4.62L0,4Z" style="opacity: 1; stroke-width: 1px; fill: rgb(234, 67, 53); fill-opacity: 1; stroke: rgb(181, 31, 18); stroke-opacity: 1;"/><path class="point" transform="translate(549.7,95.63)" d="M-4.62,-2H4.62L0,4Z" style="opacity: 1; stroke-width: 1px; fill: rgb(234, 67, 53); fill-opacity: 1; stroke: rgb(181, 31, 18); stroke-opacity: 1;"/><path class="point" transform="translate(550.25,94.87)" d="M-4.62,-2H4.62L0,4Z" style="opacity: 1; stroke-width: 1px; fill: rgb(234, 67, 53); fill-opacity: 1; stroke: rgb(181, 31, 18); stroke-opacity: 1;"/><path class="point" transform="translate(551.18,95.27)" d="M-4.62,-2H4.62L0,4Z" style="opacity: 1; stroke-width: 1px; fill: rgb(234, 67, 53); fill-opacity: 1; stroke: rgb(181, 31, 18); stroke-opacity: 1;"/></g><g class="text"/></g><g class="trace scatter traced0715d42-251b-44d3-abfe-60ad2d8a9069" style="stroke-miterlimit: 2; opacity: 1;"><g class="fills"/><g class="errorbars"/><g class="lines"/><g class="points"><path class="point" transform="translate(60.72,169.79)" d="M-4.62,2H4.62L0,-4Z" style="opacity: 1; stroke-width: 1px; fill: rgb(55, 177, 63); fill-opacity: 1; stroke: rgb(38, 123, 44); stroke-opacity: 1;"/><path class="point" transform="translate(62.96,170.96)" d="M-4.62,2H4.62L0,-4Z" style="opacity: 1; stroke-width: 1px; fill: rgb(55, 177, 63); fill-opacity: 1; stroke: rgb(38, 123, 44); stroke-opacity: 1;"/><path class="point" transform="translate(63.1,170.66)" d="M-4.62,2H4.62L0,-4Z" style="opacity: 1; stroke-width: 1px; fill: rgb(55, 177, 63); fill-opacity: 1; stroke: rgb(38, 123, 44); stroke-opacity: 1;"/><path class="point" transform="translate(88.15,175.57)" d="M-4.62,2H4.62L0,-4Z" style="opacity: 1; stroke-width: 1px; fill: rgb(55, 177, 63); fill-opacity: 1; stroke: rgb(38, 123, 44); stroke-opacity: 1;"/><path class="point" transform="translate(127.09,169.28)" d="M-4.62,2H4.62L0,-4Z" style="opacity: 1; stroke-width: 1px; fill: rgb(55, 177, 63); fill-opacity: 1; stroke: rgb(38, 123, 44); stroke-opacity: 1;"/><path class="point" transform="translate(127.36,169.87)" d="M-4.62,2H4.62L0,-4Z" style="opacity: 1; stroke-width: 1px; fill: rgb(55, 177, 63); fill-opacity: 1; stroke: rgb(38, 123, 44); stroke-opacity: 1;"/><path class="point" transform="translate(131.77,169.5)" d="M-4.62,2H4.62L0,-4Z" style="opacity: 1; stroke-width: 1px; fill: rgb(55, 177, 63); fill-opacity: 1; stroke: rgb(38, 123, 44); stroke-opacity: 1;"/><path class="point" transform="translate(133.29,169.47)" d="M-4.62,2H4.62L0,-4Z" style="opacity: 1; stroke-width: 1px; fill: rgb(55, 177, 63); fill-opacity: 1; stroke: rgb(38, 123, 44); stroke-opacity: 1;"/><path class="point" transform="translate(190.42,174.68)" d="M-4.62,2H4.62L0,-4Z" style="opacity: 1; stroke-width: 1px; fill: rgb(55, 177, 63); fill-opacity: 1; stroke: rgb(38, 123, 44); stroke-opacity: 1;"/><path class="point" transform="translate(190.63,183.88)" d="M-4.62,2H4.62L0,-4Z" style="opacity: 1; stroke-width: 1px; fill: rgb(55, 177, 63); fill-opacity: 1; stroke: rgb(38, 123, 44); stroke-opacity: 1;"/><path class="point" transform="translate(193.08,168.65)" d="M-4.62,2H4.62L0,-4Z" style="opacity: 1; stroke-width: 1px; fill: rgb(55, 177, 63); fill-opacity: 1; stroke: rgb(38, 123, 44); stroke-opacity: 1;"/><path class="point" transform="translate(206.9,172.31)" d="M-4.62,2H4.62L0,-4Z" style="opacity: 1; stroke-width: 1px; fill: rgb(55, 177, 63); fill-opacity: 1; stroke: rgb(38, 123, 44); stroke-opacity: 1;"/><path class="point" transform="translate(217.51,176.1)" d="M-4.62,2H4.62L0,-4Z" style="opacity: 1; stroke-width: 1px; fill: rgb(55, 177, 63); fill-opacity: 1; stroke: rgb(38, 123, 44); stroke-opacity: 1;"/><path class="point" transform="translate(217.65,170.88)" d="M-4.62,2H4.62L0,-4Z" style="opacity: 1; stroke-width: 1px; fill: rgb(55, 177, 63); fill-opacity: 1; stroke: rgb(38, 123, 44); stroke-opacity: 1;"/><path class="point" transform="translate(217.99,170.42)" d="M-4.62,2H4.62L0,-4Z" style="opacity: 1; stroke-width: 1px; fill: rgb(55, 177, 63); fill-opacity: 1; stroke: rgb(38, 123, 44); stroke-opacity: 1;"/><path class="point" transform="translate(218.06,171.71)" d="M-4.62,2H4.62L0,-4Z" style="opacity: 1; stroke-width: 1px; fill: rgb(55, 177, 63); fill-opacity: 1; stroke: rgb(38, 123, 44); stroke-opacity: 1;"/><path class="point" transform="translate(220.3,168.78)" d="M-4.62,2H4.62L0,-4Z" style="opacity: 1; stroke-width: 1px; fill: rgb(55, 177, 63); fill-opacity: 1; stroke: rgb(38, 123, 44); stroke-opacity: 1;"/><path class="point" transform="translate(220.4,170.08)" d="M-4.62,2H4.62L0,-4Z" style="opacity: 1; stroke-width: 1px; fill: rgb(55, 177, 63); fill-opacity: 1; stroke: rgb(38, 123, 44); stroke-opacity: 1;"/><path class="point" transform="translate(221.85,168.92)" d="M-4.62,2H4.62L0,-4Z" style="opacity: 1; stroke-width: 1px; fill: rgb(55, 177, 63); fill-opacity: 1; stroke: rgb(38, 123, 44); stroke-opacity: 1;"/><path class="point" transform="translate(224.09,168.58)" d="M-4.62,2H4.62L0,-4Z" style="opacity: 1; stroke-width: 1px; fill: rgb(55, 177, 63); fill-opacity: 1; stroke: rgb(38, 123, 44); stroke-opacity: 1;"/><path class="point" transform="translate(260.62,172.68)" d="M-4.62,2H4.62L0,-4Z" style="opacity: 1; stroke-width: 1px; fill: rgb(55, 177, 63); fill-opacity: 1; stroke: rgb(38, 123, 44); stroke-opacity: 1;"/><path class="point" transform="translate(260.96,171.01)" d="M-4.62,2H4.62L0,-4Z" style="opacity: 1; stroke-width: 1px; fill: rgb(55, 177, 63); fill-opacity: 1; stroke: rgb(38, 123, 44); stroke-opacity: 1;"/><path class="point" transform="translate(261.2,169.54)" d="M-4.62,2H4.62L0,-4Z" style="opacity: 1; stroke-width: 1px; fill: rgb(55, 177, 63); fill-opacity: 1; stroke: rgb(38, 123, 44); stroke-opacity: 1;"/><path class="point" transform="translate(277.06,171.28)" d="M-4.62,2H4.62L0,-4Z" style="opacity: 1; stroke-width: 1px; fill: rgb(55, 177, 63); fill-opacity: 1; stroke: rgb(38, 123, 44); stroke-opacity: 1;"/><path class="point" transform="translate(278.71,170.16)" d="M-4.62,2H4.62L0,-4Z" style="opacity: 1; stroke-width: 1px; fill: rgb(55, 177, 63); fill-opacity: 1; stroke: rgb(38, 123, 44); stroke-opacity: 1;"/><path class="point" transform="translate(399.35,181.51)" d="M-4.62,2H4.62L0,-4Z" style="opacity: 1; stroke-width: 1px; fill: rgb(55, 177, 63); fill-opacity: 1; stroke: rgb(38, 123, 44); stroke-opacity: 1;"/><path class="point" transform="translate(402.77,169.46)" d="M-4.62,2H4.62L0,-4Z" style="opacity: 1; stroke-width: 1px; fill: rgb(55, 177, 63); fill-opacity: 1; stroke: rgb(38, 123, 44); stroke-opacity: 1;"/><path class="point" transform="translate(404.21,174.7)" d="M-4.62,2H4.62L0,-4Z" style="opacity: 1; stroke-width: 1px; fill: rgb(55, 177, 63); fill-opacity: 1; stroke: rgb(38, 123, 44); stroke-opacity: 1;"/><path class="point" transform="translate(405.28,177.69)" d="M-4.62,2H4.62L0,-4Z" style="opacity: 1; stroke-width: 1px; fill: rgb(55, 177, 63); fill-opacity: 1; stroke: rgb(38, 123, 44); stroke-opacity: 1;"/><path class="point" transform="translate(405.8,192.23)" d="M-4.62,2H4.62L0,-4Z" style="opacity: 1; stroke-width: 1px; fill: rgb(55, 177, 63); fill-opacity: 1; stroke: rgb(38, 123, 44); stroke-opacity: 1;"/><path class="point" transform="translate(408.18,168.35)" d="M-4.62,2H4.62L0,-4Z" style="opacity: 1; stroke-width: 1px; fill: rgb(55, 177, 63); fill-opacity: 1; stroke: rgb(38, 123, 44); stroke-opacity: 1;"/><path class="point" transform="translate(434.74,168.46)" d="M-4.62,2H4.62L0,-4Z" style="opacity: 1; stroke-width: 1px; fill: rgb(55, 177, 63); fill-opacity: 1; stroke: rgb(38, 123, 44); stroke-opacity: 1;"/><path class="point" transform="translate(435.3,170.18)" d="M-4.62,2H4.62L0,-4Z" style="opacity: 1; stroke-width: 1px; fill: rgb(55, 177, 63); fill-opacity: 1; stroke: rgb(38, 123, 44); stroke-opacity: 1;"/><path class="point" transform="translate(438.95,169.48)" d="M-4.62,2H4.62L0,-4Z" style="opacity: 1; stroke-width: 1px; fill: rgb(55, 177, 63); fill-opacity: 1; stroke: rgb(38, 123, 44); stroke-opacity: 1;"/><path class="point" transform="translate(505.35,168.65)" d="M-4.62,2H4.62L0,-4Z" style="opacity: 1; stroke-width: 1px; fill: rgb(55, 177, 63); fill-opacity: 1; stroke: rgb(38, 123, 44); stroke-opacity: 1;"/><path class="point" transform="translate(517.76,175.69)" d="M-4.62,2H4.62L0,-4Z" style="opacity: 1; stroke-width: 1px; fill: rgb(55, 177, 63); fill-opacity: 1; stroke: rgb(38, 123, 44); stroke-opacity: 1;"/><path class="point" transform="translate(519.31,168.55)" d="M-4.62,2H4.62L0,-4Z" style="opacity: 1; stroke-width: 1px; fill: rgb(55, 177, 63); fill-opacity: 1; stroke: rgb(38, 123, 44); stroke-opacity: 1;"/><path class="point" transform="translate(519.58,172.87)" d="M-4.62,2H4.62L0,-4Z" style="opacity: 1; stroke-width: 1px; fill: rgb(55, 177, 63); fill-opacity: 1; stroke: rgb(38, 123, 44); stroke-opacity: 1;"/><path class="point" transform="translate(520.1,179.78)" d="M-4.62,2H4.62L0,-4Z" style="opacity: 1; stroke-width: 1px; fill: rgb(55, 177, 63); fill-opacity: 1; stroke: rgb(38, 123, 44); stroke-opacity: 1;"/><path class="point" transform="translate(537.92,172.21)" d="M-4.62,2H4.62L0,-4Z" style="opacity: 1; stroke-width: 1px; fill: rgb(55, 177, 63); fill-opacity: 1; stroke: rgb(38, 123, 44); stroke-opacity: 1;"/><path class="point" transform="translate(559.76,174.25)" d="M-4.62,2H4.62L0,-4Z" style="opacity: 1; stroke-width: 1px; fill: rgb(55, 177, 63); fill-opacity: 1; stroke: rgb(38, 123, 44); stroke-opacity: 1;"/><path class="point" transform="translate(561.28,168.49)" d="M-4.62,2H4.62L0,-4Z" style="opacity: 1; stroke-width: 1px; fill: rgb(55, 177, 63); fill-opacity: 1; stroke: rgb(38, 123, 44); stroke-opacity: 1;"/><path class="point" transform="translate(561.56,169.73)" d="M-4.62,2H4.62L0,-4Z" style="opacity: 1; stroke-width: 1px; fill: rgb(55, 177, 63); fill-opacity: 1; stroke: rgb(38, 123, 44); stroke-opacity: 1;"/><path class="point" transform="translate(562.04,169.59)" d="M-4.62,2H4.62L0,-4Z" style="opacity: 1; stroke-width: 1px; fill: rgb(55, 177, 63); fill-opacity: 1; stroke: rgb(38, 123, 44); stroke-opacity: 1;"/><path class="point" transform="translate(562.18,169.57)" d="M-4.62,2H4.62L0,-4Z" style="opacity: 1; stroke-width: 1px; fill: rgb(55, 177, 63); fill-opacity: 1; stroke: rgb(38, 123, 44); stroke-opacity: 1;"/><path class="point" transform="translate(591.29,169.96)" d="M-4.62,2H4.62L0,-4Z" style="opacity: 1; stroke-width: 1px; fill: rgb(55, 177, 63); fill-opacity: 1; stroke: rgb(38, 123, 44); stroke-opacity: 1;"/><path class="point" transform="translate(591.36,177.6)" d="M-4.62,2H4.62L0,-4Z" style="opacity: 1; stroke-width: 1px; fill: rgb(55, 177, 63); fill-opacity: 1; stroke: rgb(38, 123, 44); stroke-opacity: 1;"/><path class="point" transform="translate(591.74,169.62)" d="M-4.62,2H4.62L0,-4Z" style="opacity: 1; stroke-width: 1px; fill: rgb(55, 177, 63); fill-opacity: 1; stroke: rgb(38, 123, 44); stroke-opacity: 1;"/><path class="point" transform="translate(592.16,170)" d="M-4.62,2H4.62L0,-4Z" style="opacity: 1; stroke-width: 1px; fill: rgb(55, 177, 63); fill-opacity: 1; stroke: rgb(38, 123, 44); stroke-opacity: 1;"/><path class="point" transform="translate(592.95,168.63)" d="M-4.62,2H4.62L0,-4Z" style="opacity: 1; stroke-width: 1px; fill: rgb(55, 177, 63); fill-opacity: 1; stroke: rgb(38, 123, 44); stroke-opacity: 1;"/><path class="point" transform="translate(593.09,173)" d="M-4.62,2H4.62L0,-4Z" style="opacity: 1; stroke-width: 1px; fill: rgb(55, 177, 63); fill-opacity: 1; stroke: rgb(38, 123, 44); stroke-opacity: 1;"/><path class="point" transform="translate(593.5,168.48)" d="M-4.62,2H4.62L0,-4Z" style="opacity: 1; stroke-width: 1px; fill: rgb(55, 177, 63); fill-opacity: 1; stroke: rgb(38, 123, 44); stroke-opacity: 1;"/></g><g class="text"/></g></g></g><g class="overplot"/><path class="xlines-above crisp" d="M0,0" style="fill: none;"/><path class="ylines-above crisp" d="M0,0" style="fill: none;"/><g class="overlines-above"/><g class="xaxislayer-above"><g class="xtick"><text text-anchor="middle" x="0" y="333" transform="translate(40,0)" style="font-family: 'Open Sans', verdana, arial, sans-serif; font-size: 12px; fill: rgb(42, 63, 95); fill-opacity: 1; white-space: pre; opacity: 1;">Jan 2021</text></g><g class="xtick"><text text-anchor="middle" x="0" y="333" style="font-family: 'Open Sans', verdana, arial, sans-serif; font-size: 12px; fill: rgb(42, 63, 95); fill-opacity: 1; white-space: pre; opacity: 1;" transform="translate(114.43,0)">Apr 2021</text></g><g class="xtick"><text text-anchor="middle" x="0" y="333" style="font-family: 'Open Sans', verdana, arial, sans-serif; font-size: 12px; fill: rgb(42, 63, 95); fill-opacity: 1; white-space: pre; opacity: 1;" transform="translate(189.69,0)">Jul 2021</text></g><g class="xtick"><text text-anchor="middle" x="0" y="333" style="font-family: 'Open Sans', verdana, arial, sans-serif; font-size: 12px; fill: rgb(42, 63, 95); fill-opacity: 1; white-space: pre; opacity: 1;" transform="translate(265.78,0)">Oct 2021</text></g><g class="xtick"><text text-anchor="middle" x="0" y="333" style="font-family: 'Open Sans', verdana, arial, sans-serif; font-size: 12px; fill: rgb(42, 63, 95); fill-opacity: 1; white-space: pre; opacity: 1;" transform="translate(341.87,0)">Jan 2022</text></g><g class="xtick"><text text-anchor="middle" x="0" y="333" style="font-family: 'Open Sans', verdana, arial, sans-serif; font-size: 12px; fill: rgb(42, 63, 95); fill-opacity: 1; white-space: pre; opacity: 1;" transform="translate(416.3,0)">Apr 2022</text></g><g class="xtick"><text text-anchor="middle" x="0" y="333" style="font-family: 'Open Sans', verdana, arial, sans-serif; font-size: 12px; fill: rgb(42, 63, 95); fill-opacity: 1; white-space: pre; opacity: 1;" transform="translate(491.56,0)">Jul 2022</text></g><g class="xtick"><text text-anchor="middle" x="0" y="333" style="font-family: 'Open Sans', verdana, arial, sans-serif; font-size: 12px; fill: rgb(42, 63, 95); fill-opacity: 1; white-space: pre; opacity: 1;" transform="translate(567.65,0)">Oct 2022</text></g><g class="xtick"><text text-anchor="middle" x="0" y="333" style="font-family: 'Open Sans', verdana, arial, sans-serif; font-size: 12px; fill: rgb(42, 63, 95); fill-opacity: 1; white-space: pre; opacity: 1;" transform="translate(643.73,0)">Jan 2023</text></g></g><g class="yaxislayer-above"><g class="ytick"><text text-anchor="end" x="39" y="4.199999999999999" transform="translate(0,288.24)" style="font-family: 'Open Sans', verdana, arial, sans-serif; font-size: 12px; fill: rgb(42, 63, 95); fill-opacity: 1; white-space: pre; opacity: 1;">6</text></g><g class="ytick"><text text-anchor="end" x="39" y="4.199999999999999" style="font-family: 'Open Sans', verdana, arial, sans-serif; font-size: 12px; fill: rgb(42, 63, 95); fill-opacity: 1; white-space: pre; opacity: 1;" transform="translate(0,251.66)">4</text></g><g class="ytick"><text text-anchor="end" x="39" y="4.199999999999999" style="font-family: 'Open Sans', verdana, arial, sans-serif; font-size: 12px; fill: rgb(42, 63, 95); fill-opacity: 1; white-space: pre; opacity: 1;" transform="translate(0,215.08)">2</text></g><g class="ytick"><text text-anchor="end" x="39" y="4.199999999999999" style="font-family: 'Open Sans', verdana, arial, sans-serif; font-size: 12px; fill: rgb(42, 63, 95); fill-opacity: 1; white-space: pre; opacity: 1;" transform="translate(0,178.5)">0</text></g><g class="ytick"><text text-anchor="end" x="39" y="4.199999999999999" style="font-family: 'Open Sans', verdana, arial, sans-serif; font-size: 12px; fill: rgb(42, 63, 95); fill-opacity: 1; white-space: pre; opacity: 1;" transform="translate(0,141.92000000000002)">2</text></g><g class="ytick"><text text-anchor="end" x="39" y="4.199999999999999" style="font-family: 'Open Sans', verdana, arial, sans-serif; font-size: 12px; fill: rgb(42, 63, 95); fill-opacity: 1; white-space: pre; opacity: 1;" transform="translate(0,105.34)">4</text></g><g class="ytick"><text text-anchor="end" x="39" y="4.199999999999999" style="font-family: 'Open Sans', verdana, arial, sans-serif; font-size: 12px; fill: rgb(42, 63, 95); fill-opacity: 1; white-space: pre; opacity: 1;" transform="translate(0,68.76)">6</text></g></g><g class="overaxes-above"/></g></g><g class="polarlayer"/><g class="smithlayer"/><g class="ternarylayer"/><g class="geolayer"/><g class="funnelarealayer"/><g class="pielayer"/><g class="iciclelayer"/><g class="treemaplayer"/><g class="sunburstlayer"/><g class="glimages"/><defs id="topdefs-4c2151"><g class="clips"/><clipPath id="legend4c2151"><rect width="252" height="29" x="0" y="0"/></clipPath></defs><g class="layer-above"><g class="imagelayer"/><g class="shapelayer"><g class="shape-group" data-index="0" clip-path="url(#clip4c2151y)"><path data-index="0" fill-rule="evenodd" d="M40,142.65L670,142.65" style="opacity: 1; stroke: rgb(255, 69, 0); stroke-opacity: 1; fill: rgb(0, 0, 0); fill-opacity: 0; stroke-dasharray: 3px, 3px; stroke-width: 2px;"/></g><g class="shape-group" data-index="1" clip-path="url(#clip4c2151y)"><path data-index="1" fill-rule="evenodd" d="M40,178.5L670,178.5" style="opacity: 1; stroke: rgb(255, 255, 0); stroke-opacity: 1; fill: rgb(0, 0, 0); fill-opacity: 0; stroke-dasharray: 3px, 3px; stroke-width: 2px;"/></g><g class="shape-group" data-index="2" clip-path="url(#clip4c2151y)"><path data-index="2" fill-rule="evenodd" d="M40,214.35L670,214.35" style="opacity: 1; stroke: rgb(50, 205, 50); stroke-opacity: 1; fill: rgb(0, 0, 0); fill-opacity: 0; stroke-dasharray: 3px, 3px; stroke-width: 2px;"/></g></g></g><g class="infolayer"><g class="legend" pointer-events="all" transform="translate(418,11.519999999999996)"><rect class="bg" shape-rendering="crispEdges" style="stroke: rgb(68, 68, 68); stroke-opacity: 1; fill: rgb(255, 255, 255); fill-opacity: 1; stroke-width: 0px;" width="252" height="29" x="0" y="0"/><g class="scrollbox" transform="" clip-path="url(#legend4c2151)"><g class="groups"><g class="traces" transform="translate(0,14.5)" style="opacity: 1;"><text class="legendtext" text-anchor="start" x="40" y="4.680000000000001" style="font-family: 'Open Sans', verdana, arial, sans-serif; font-size: 12px; fill: rgb(42, 63, 95); fill-opacity: 1; white-space: pre;">Z-score</text><g class="layers" style="opacity: 1;"><g class="legendfill"/><g class="legendlines"><path class="js-line" d="M5,0h30" style="fill: none; stroke: rgb(31, 119, 180); stroke-opacity: 1; stroke-width: 2px;"/></g><g class="legendsymbols"><g class="legendpoints"/></g></g><rect class="legendtoggle" x="0" y="-9.5" width="88.234375" height="19" style="fill: rgb(0, 0, 0); fill-opacity: 0;"/></g><g class="traces" transform="translate(90.734375,14.5)" style="opacity: 1;"><text class="legendtext" text-anchor="start" x="40" y="4.680000000000001" style="font-family: 'Open Sans', verdana, arial, sans-serif; font-size: 12px; fill: rgb(42, 63, 95); fill-opacity: 1; white-space: pre;">Exits</text><g class="layers" style="opacity: 1;"><g class="legendfill"/><g class="legendlines"/><g class="legendsymbols"><g class="legendpoints"><path class="scatterpts" transform="translate(20,0)" d="M-4.62,-2H4.62L0,4Z" style="opacity: 1; stroke-width: 1px; fill: rgb(234, 67, 53); fill-opacity: 1; stroke: rgb(181, 31, 18); stroke-opacity: 1;"/></g></g></g><rect class="legendtoggle" x="0" y="-9.5" width="71.46875" height="19" style="fill: rgb(0, 0, 0); fill-opacity: 0;"/></g><g class="traces" transform="translate(164.703125,14.5)" style="opacity: 1;"><text class="legendtext" text-anchor="start" x="40" y="4.680000000000001" style="font-family: 'Open Sans', verdana, arial, sans-serif; font-size: 12px; fill: rgb(42, 63, 95); fill-opacity: 1; white-space: pre;">Entries</text><g class="layers" style="opacity: 1;"><g class="legendfill"/><g class="legendlines"/><g class="legendsymbols"><g class="legendpoints"><path class="scatterpts" transform="translate(20,0)" d="M-4.62,2H4.62L0,-4Z" style="opacity: 1; stroke-width: 1px; fill: rgb(55, 177, 63); fill-opacity: 1; stroke: rgb(38, 123, 44); stroke-opacity: 1;"/></g></g></g><rect class="legendtoggle" x="0" y="-9.5" width="84.234375" height="19" style="fill: rgb(0, 0, 0); fill-opacity: 0;"/></g></g></g><rect class="scrollbar" rx="20" ry="3" width="0" height="0" style="fill: rgb(128, 139, 164); fill-opacity: 1;" x="0" y="0"/></g><g class="g-gtitle"/><g class="g-xtitle"/><g class="g-ytitle"/></g></svg>