<svg class="main-svg" xmlns="http://www.w3.org/2000/svg" xmlns:xlink="http://www.w3.org/1999/xlink" width="700" height="350" style="" viewBox="0 0 700 350"><rect x="0" y="0" width="700" height="350" style="fill: rgb(255, 255, 255); fill-opacity: 1;"/><defs id="defs-244d87"><g class="clips"><clipPath id="clip244d87xyplot" class="plotclip"><rect width="627" height="182.7"/></clipPath><clipPath id="clip244d87x2y2plot" class="plotclip"><rect width="627" height="78.3"/></clipPath><clipPath class="axesclip" id="clip244d87x"><rect x="43" y="0" width="627" height="350"/></clipPath><clipPath class="axesclip" id="clip244d87y"><rect x="0" y="46" width="700" height="182.7"/></clipPath><clipPath class="axesclip" id="clip244d87xy"><rect x="43" y="46" width="627" height="182.7"/></clipPath><clipPath class="axesclip" id="clip244d87y2"><rect x="0" y="228.7" width="700" height="78.3"/></clipPath><clipPath class="axesclip" id="clip244d87xy2"><rect x="43" y="228.7" width="627" height="78.3"/></clipPath><clipPath class="axesclip" id="clip244d87x2"><rect x="43" y="0" width="627" height="350"/></clipPath><clipPath class="axesclip" id="clip244d87x2y"><rect x="43" y="46" width="627" height="182.7"/></clipPath><clipPath class="axesclip" id="clip244d87x2y2"><rect x="43" y="228.7" width="627" height="78.3"/></clipPath></g><g class="gradients"/><g class="patterns"/></defs><g class="bglayer"><rect class="bg" x="43" y="46" width="627" height="182.7" style="fill: rgb(229, 236, 246); fill-opacity: 1; stroke-width: 0;"/><rect class="bg" x="43" y="228.7" width="627" height="78.3" style="fill: rgb(229, 236, 246); fill-opacity: 1; stroke-width: 0;"/></g><g class="layer-below"><g class="imagelayer"/><g class="shapelayer"/></g><g class="cartesianlayer"><g class="subplot xy"><g class="layer-subplot"><g class="shapelayer"/><g class="imagelayer"/></g><g class="minor-gridlayer"><g class="x"/><g class="y"/></g><g class="gridlayer"><g class="x"><path class="xgrid crisp" transform="translate(87.78999999999999,0)" d="M0,46v182.7" style="stroke: rgb(255, 255, 255); stroke-opacity: 1; stroke-width: 1px;"/><path class="xgrid crisp" transform="translate(177.36,0)" d="M0,46v182.7" style="stroke: rgb(255, 255, 255); stroke-opacity: 1; stroke-width: 1px;"/><path class="xgrid crisp" transform="translate(266.93,0)" d="M0,46v182.7" style="stroke: rgb(255, 255, 255); stroke-opacity: 1; stroke-width: 1px;"/><path class="xgrid crisp" transform="translate(356.5,0)" d="M0,46v182.7" style="stroke: rgb(255, 255, 255); stroke-opacity: 1; stroke-width: 1px;"/><path class="xgrid crisp" transform="translate(446.07,0)" d="M0,46v182.7" style="stroke: rgb(255, 255, 255); stroke-opacity: 1; stroke-width: 1px;"/><path class="xgrid crisp" transform="translate(535.64,0)" d="M0,46v182.7" style="stroke: rgb(255, 255, 255); stroke-opacity: 1; stroke-width: 1px;"/><path class="xgrid crisp" transform="translate(625.21,0)" d="M0,46v182.7" style="stroke: rgb(255, 255, 255); stroke-opacity: 1; stroke-width: 1px;"/></g><g class="y"><path class="ygrid crisp" transform="translate(0,218.25)" d="M43,0h627" style="stroke: rgb(255, 255, 255); stroke-opacity: 1; stroke-width: 1px;"/><path class="ygrid crisp" transform="translate(0,157.17000000000002)" d="M43,0h627" style="stroke: rgb(255, 255, 255); stroke-opacity: 1; stroke-width: 1px;"/><path class="ygrid crisp" transform="translate(0,96.09)" d="M43,0h627" style="stroke: rgb(255, 255, 255); stroke-opacity: 1; stroke-width: 1px;"/></g></g><g class="zerolinelayer"/><path class="xlines-below"/><path class="ylines-below"/><g class="overlines-below"/><g class="xaxislayer-below"/><g class="yaxislayer-below"/><g class="overaxes-below"/><g class="plot" transform="translate(43,46)" clip-path="url(#clip244d87xyplot)"><g class="boxlayer mlayer"><g class="trace boxes" style="opacity: 0.75;"><path class="box" d="M22.84,91.21H66.73M22.84,92.21H66.73V85.3H22.84ZM44.79,92.21V100.16M44.79,85.3V80.27" style="vector-effect: none; stroke-width: 2px; stroke: rgb(238, 83, 79); stroke-opacity: 1; fill: rgb(238, 83, 79); fill-opacity: 1; opacity: 1;"/><path class="box" d="M112.41,40.03H156.3M112.41,92.21H156.3V39.03H112.41ZM134.36,92.21V102.5M134.36,39.03V33.38" style="vector-effect: none; stroke-width: 2px; stroke: rgb(38, 166, 154); stroke-opacity: 1; fill: rgb(38, 166, 154); fill-opacity: 1; opacity: 1;"/><path class="box" d="M201.98,39.82H245.87M201.98,39.82H245.87V39.03H201.98ZM223.93,39.82V63.97M223.93,39.03V17.1" style="vector-effect: none; stroke-width: 2px; stroke: rgb(238, 83, 79); stroke-opacity: 1; fill: rgb(238, 83, 79); fill-opacity: 1; opacity: 1;"/><path class="box" d="M291.55,21.67H335.44M291.55,39.82H335.44V20.67H291.55ZM313.5,39.82V44.26M313.5,20.67V9.13" style="vector-effect: none; stroke-width: 2px; stroke: rgb(38, 166, 154); stroke-opacity: 1; fill: rgb(38, 166, 154); fill-opacity: 1; opacity: 1;"/><path class="box" d="M381.13,60.24H425.02M381.13,61.24H425.02V20.62H381.13ZM403.07,61.24V140.22M403.07,20.62V19.45" style="vector-effect: none; stroke-width: 2px; stroke: rgb(238, 83, 79); stroke-opacity: 1; fill: rgb(238, 83, 79); fill-opacity: 1; opacity: 1;"/><path class="box" d="M470.7,123.72H514.59M470.7,124.72H514.59V61.24H470.7ZM492.64,124.72V173.56M492.64,61.24V60.07" style="vector-effect: none; stroke-width: 2px; stroke: rgb(238, 83, 79); stroke-opacity: 1; fill: rgb(238, 83, 79); fill-opacity: 1; opacity: 1;"/><path class="box" d="M560.27,116.13H604.16M560.27,124.72H604.16V115.13H560.27ZM582.21,124.72V147.96M582.21,115.13V94.38" style="vector-effect: none; stroke-width: 2px; stroke: rgb(38, 166, 154); stroke-opacity: 1; fill: rgb(38, 166, 154); fill-opacity: 1; opacity: 1;"/></g></g></g><g class="overplot"/><path class="xlines-above crisp" d="M0,0" style="fill: none;"/><path class="ylines-above crisp" d="M0,0" style="fill: none;"/><g class="overlines-above"/><g class="xaxislayer-above"/><g class="yaxislayer-above"><g class="ytick"><text text-anchor="end" x="42" y="4.199999999999999" transform="translate(0,218.25)" style="font-family: 'Open Sans', verdana, arial, sans-serif; font-size: 12px; fill: rgb(42, 63, 95); fill-opacity: 1; white-space: pre; opacity: 1;">45k</text></g><g class="ytick"><text text-anchor="end" x="42" y="4.199999999999999" style="font-family: 'Open Sans', verdana, arial, sans-serif; font-size: 12px; fill: rgb(42, 63, 95); fill-opacity: 1; white-space: pre; opacity: 1;" transform="translate(0,157.17000000000002)">50k</text></g><g class="ytick"><text text-anchor="end" x="42" y="4.199999999999999" style="font-family: 'Open Sans', verdana, arial, sans-serif; font-size: 12px; fill: rgb(42, 63, 95); fill-opacity: 1; white-space: pre; opacity: 1;" transform="translate(0,96.09)">55k</text></g></g><g class="overaxes-above"/></g><g class="subplot x2y2"><g class="layer-subplot"><g class="shapelayer"/><g class="imagelayer"/></g><g class="minor-gridlayer"><g class="x2"/><g class="y2"/></g><g class="gridlayer"><g class="x2"><path class="x2grid crisp" transform="translate(87.78999999999999,0)" d="M0,228.7v78.3" style="stroke: rgb(255, 255, 255); stroke-opacity: 1; stroke-width: 1px;"/><path class="x2grid crisp" transform="translate(177.36,0)" d="M0,228.7v78.3" style="stroke: rgb(255, 255, 255); stroke-opacity: 1; stroke-width: 1px;"/><path class="x2grid crisp" transform="translate(266.93,0)" d="M0,228.7v78.3" style="stroke: rgb(255, 255, 255); stroke-opacity: 1; stroke-width: 1px;"/><path class="x2grid crisp" transform="translate(356.5,0)" d="M0,228.7v78.3" style="stroke: rgb(255, 255, 255); stroke-opacity: 1; stroke-width: 1px;"/><path class="x2grid crisp" transform="translate(446.07,0)" d="M0,228.7v78.3" style="stroke: rgb(255, 255, 255); stroke-opacity: 1; stroke-width: 1px;"/><path class="x2grid crisp" transform="translate(535.64,0)" d="M0,228.7v78.3" style="stroke: rgb(255, 255, 255); stroke-opacity: 1; stroke-width: 1px;"/><path class="x2grid crisp" transform="translate(625.21,0)" d="M0,228.7v78.3" style="stroke: rgb(255, 255, 255); stroke-opacity: 1; stroke-width: 1px;"/></g><g class="y2"><path class="y2grid crisp" transform="translate(0,285.03999999999996)" d="M43,0h627" style="stroke: rgb(255, 255, 255); stroke-opacity: 1; stroke-width: 1px;"/><path class="y2grid crisp" transform="translate(0,263.08)" d="M43,0h627" style="stroke: rgb(255, 255, 255); stroke-opacity: 1; stroke-width: 1px;"/><path class="y2grid crisp" transform="translate(0,241.11999999999998)" d="M43,0h627" style="stroke: rgb(255, 255, 255); stroke-opacity: 1; stroke-width: 1px;"/></g></g><g class="zerolinelayer"><path class="y2zl zl crisp" transform="translate(0,307)" d="M43,0h627" style="stroke: rgb(255, 255, 255); stroke-opacity: 1; stroke-width: 2px;"/></g><path class="xlines-below"/><path class="ylines-below"/><g class="overlines-below"/><g class="xaxislayer-below"/><g class="yaxislayer-below"/><g class="overaxes-below"/><g class="plot" transform="translate(43,228.7)" clip-path="url(#clip244d87x2y2plot)"><g class="barlayer mlayer"><g class="trace bars" style="opacity: 0.5;"><g class="points"><g class="point"><path d="M8.96,78.3V51.62H80.61V78.3Z" style="vector-effect: none; opacity: 1; stroke-width: 0px; fill: rgb(238, 83, 79); fill-opacity: 1;"/></g><g class="point"><path d="M98.53,78.3V43.32H170.19V78.3Z" style="vector-effect: none; opacity: 1; stroke-width: 0px; fill: rgb(38, 166, 154); fill-opacity: 1;"/></g><g class="point"><path d="M188.1,78.3V42.75H259.76V78.3Z" style="vector-effect: none; opacity: 1; stroke-width: 0px; fill: rgb(238, 83, 79); fill-opacity: 1;"/></g><g class="point"><path d="M277.67,78.3V52.75H349.33V78.3Z" style="vector-effect: none; opacity: 1; stroke-width: 0px; fill: rgb(38, 166, 154); fill-opacity: 1;"/></g><g class="point"><path d="M367.24,78.3V19.44H438.9V78.3Z" style="vector-effect: none; opacity: 1; stroke-width: 0px; fill: rgb(238, 83, 79); fill-opacity: 1;"/></g><g class="point"><path d="M456.81,78.3V3.92H528.47V78.3Z" style="vector-effect: none; opacity: 1; stroke-width: 0px; fill: rgb(238, 83, 79); fill-opacity: 1;"/></g><g class="point"><path d="M546.39,78.3V37.95H618.04V78.3Z" style="vector-effect: none; opacity: 1; stroke-width: 0px; fill: rgb(38, 166, 154); fill-opacity: 1;"/></g></g></g></g></g><g class="overplot"/><path class="xlines-above crisp" d="M0,0" style="fill: none;"/><path class="ylines-above crisp" d="M0,0" style="fill: none;"/><g class="overlines-above"/><g class="xaxislayer-above"><g class="x2tick"><text text-anchor="middle" x="0" y="320" transform="translate(87.78999999999999,0)" style="font-family: 'Open Sans', verdana, arial, sans-serif; font-size: 12px; fill: rgb(42, 63, 95); fill-opacity: 1; white-space: pre; opacity: 1;"><tspan class="line" dy="0em" x="0" y="320">Feb 18</tspan><tspan class="line" dy="1.3em" x="0" y="320">2021</tspan></text></g><g class="x2tick"><text text-anchor="middle" x="0" y="320" style="font-family: 'Open Sans', verdana, arial, sans-serif; font-size: 12px; fill: rgb(42, 63, 95); fill-opacity: 1; white-space: pre; opacity: 1;" transform="translate(177.36,0)">Feb 19</text></g><g class="x2tick"><text text-anchor="middle" x="0" y="320" style="font-family: 'Open Sans', verdana, arial, sans-serif; font-size: 12px; fill: rgb(42, 63, 95); fill-opacity: 1; white-space: pre; opacity: 1;" transform="translate(266.93,0)">Feb 20</text></g><g class="x2tick"><text text-anchor="middle" x="0" y="320" style="font-family: 'Open Sans', verdana, arial, sans-serif; font-size: 12px; fill: rgb(42, 63, 95); fill-opacity: 1; white-space: pre; opacity: 1;" transform="translate(356.5,0)">Feb 21</text></g><g class="x2tick"><text text-anchor="middle" x="0" y="320" style="font-family: 'Open Sans', verdana, arial, sans-serif; font-size: 12px; fill: rgb(42, 63, 95); fill-opacity: 1; white-space: pre; opacity: 1;" transform="translate(446.07,0)">Feb 22</text></g><g class="x2tick"><text text-anchor="middle" x="0" y="320" style="font-family: 'Open Sans', verdana, arial, sans-serif; font-size: 12px; fill: rgb(42, 63, 95); fill-opacity: 1; white-space: pre; opacity: 1;" transform="translate(535.64,0)">Feb 23</text></g><g class="x2tick"><text text-anchor="middle" x="0" y="320" style="font-family: 'Open Sans', verdana, arial, sans-serif; font-size: 12px; fill: rgb(42, 63, 95); fill-opacity: 1; white-space: pre; opacity: 1;" transform="translate(625.21,0)">Feb 24</text></g></g><g class="yaxislayer-above"><g class="y2tick"><text text-anchor="end" x="42" y="4.199999999999999" transform="translate(0,307)" style="font-family: 'Open Sans', verdana, arial, sans-serif; font-size: 12px; fill: rgb(42, 63, 95); fill-opacity: 1; white-space: pre; opacity: 1;">0</text></g><g class="y2tick"><text text-anchor="end" x="42" y="4.199999999999999" style="font-family: 'Open Sans', verdana, arial, sans-serif; font-size: 12px; fill: rgb(42, 63, 95); fill-opacity: 1; white-space: pre; opacity: 1;" transform="translate(0,285.03999999999996)">50k</text></g><g class="y2tick"><text text-anchor="end" x="42" y="4.199999999999999" style="font-family: 'Open Sans', verdana, arial, sans-serif; font-size: 12px; fill: rgb(42, 63, 95); fill-opacity: 1; white-space: pre; opacity: 1;" transform="translate(0,263.08)">100k</text></g><g class="y2tick"><text text-anchor="end" x="42" y="4.199999999999999" style="font-family: 'Open Sans', verdana, arial, sans-serif; font-size: 12px; fill: rgb(42, 63, 95); fill-opacity: 1; white-space: pre; opacity: 1;" transform="translate(0,241.11999999999998)">150k</text></g></g><g class="overaxes-above"/></g></g><g class="polarlayer"/><g class="smithlayer"/><g class="ternarylayer"/><g class="geolayer"/><g class="funnelarealayer"/><g class="pielayer"/><g class="iciclelayer"/><g class="treemaplayer"/><g class="sunburstlayer"/><g class="glimages"/><defs id="topdefs-244d87"><g class="clips"/><clipPath id="legend244d87"><rect width="169" height="29" x="0" y="0"/></clipPath></defs><g class="layer-above"><g class="imagelayer"/><g class="shapelayer"/></g><g class="infolayer"><g class="legend" pointer-events="all" transform="translate(501,11.779999999999994)"><rect class="bg" shape-rendering="crispEdges" style="stroke: rgb(68, 68, 68); stroke-opacity: 1; fill: rgb(255, 255, 255); fill-opacity: 1; stroke-width: 0px;" width="169" height="29" x="0" y="0"/><g class="scrollbox" transform="" clip-path="url(#legend244d87)"><g class="groups"><g class="traces" transform="translate(0,14.5)" style="opacity: 1;"><text class="legendtext" text-anchor="start" x="40" y="4.680000000000001" style="font-family: 'Open Sans', verdana, arial, sans-serif; font-size: 12px; fill: rgb(42, 63, 95); fill-opacity: 1; white-space: pre;">OHLC</text><g class="layers" style="opacity: 0.75;"><g class="legendfill"/><g class="legendlines"/><g class="legendsymbols"><g class="legendpoints"><path class="legendcandle" d="M15,0H8M8,-6V6H-8Z" transform="translate(20,0)" style="stroke-miterlimit: 1; stroke-width: 2px; fill: rgb(238, 83, 79); fill-opacity: 1; stroke: rgb(238, 83, 79); stroke-opacity: 1;"/><path class="legendcandle" d="M-15,0H-8M-8,6V-6H8Z" transform="translate(20,0)" style="stroke-miterlimit: 1; stroke-width: 2px; fill: rgb(38, 166, 154); fill-opacity: 1; stroke: rgb(38, 166, 154); stroke-opacity: 1;"/></g></g></g><rect class="legendtoggle" x="0" y="-9.5" width="76.03125" height="19" style="fill: rgb(0, 0, 0); fill-opacity: 0;"/></g><g class="traces" transform="translate(78.53125,14.5)" style="opacity: 1;"><text class="legendtext" text-anchor="start" x="40" y="4.680000000000001" style="font-family: 'Open Sans', verdana, arial, sans-serif; font-size: 12px; fill: rgb(42, 63, 95); fill-opacity: 1; white-space: pre;">Volume</text><g class="layers" style="opacity: 0.5;"><g class="legendfill"/><g class="legendlines"/><g class="legendsymbols"><g class="legendpoints"><path class="legendundefined" d="M6,6H-6V-6H6Z" transform="translate(20,0)" style="stroke-width: 0px; fill: rgb(238, 83, 79); fill-opacity: 1;"/></g></g></g><rect class="legendtoggle" x="0" y="-9.5" width="87.703125" height="19" style="fill: rgb(0, 0, 0); fill-opacity: 0;"/></g></g></g><rect class="scrollbar" rx="20" ry="3" width="0" height="0" style="fill: rgb(128, 139, 164); fill-opacity: 1;" x="0" y="0"/></g><g class="g-gtitle"/><g class="g-xtitle"/><g class="g-x2title"/><g class="g-ytitle"/><g class="g-y2title"/></g></svg>