<svg class="main-svg" xmlns="http://www.w3.org/2000/svg" xmlns:xlink="http://www.w3.org/1999/xlink" width="700" height="350" style="" viewBox="0 0 700 350"><rect x="0" y="0" width="700" height="350" style="fill: rgb(255, 255, 255); fill-opacity: 1;"/><defs id="defs-3197c8"><g class="clips"><clipPath id="clip3197c8xyplot" class="plotclip"><rect width="637" height="274"/></clipPath><clipPath class="axesclip" id="clip3197c8x"><rect x="33" y="0" width="637" height="350"/></clipPath><clipPath class="axesclip" id="clip3197c8y"><rect x="0" y="46" width="700" height="274"/></clipPath><clipPath class="axesclip" id="clip3197c8xy"><rect x="33" y="46" width="637" height="274"/></clipPath></g><g class="gradients"/><g class="patterns"/></defs><g class="bglayer"><rect class="bg" x="33" y="46" width="637" height="274" style="fill: rgb(229, 236, 246); fill-opacity: 1; stroke-width: 0;"/></g><g class="layer-below"><g class="imagelayer"/><g class="shapelayer"/></g><g class="cartesianlayer"><g class="subplot xy"><g class="layer-subplot"><g class="shapelayer"/><g class="imagelayer"/></g><g class="minor-gridlayer"><g class="x"/><g class="y"/></g><g class="gridlayer"><g class="x"><path class="xgrid crisp" transform="translate(55.31,0)" d="M0,46v274" style="stroke: rgb(255, 255, 255); stroke-opacity: 1; stroke-width: 1px;"/><path class="xgrid crisp" transform="translate(131.51999999999998,0)" d="M0,46v274" style="stroke: rgb(255, 255, 255); stroke-opacity: 1; stroke-width: 1px;"/><path class="xgrid crisp" transform="translate(208.99,0)" d="M0,46v274" style="stroke: rgb(255, 255, 255); stroke-opacity: 1; stroke-width: 1px;"/><path class="xgrid crisp" transform="translate(285.19,0)" d="M0,46v274" style="stroke: rgb(255, 255, 255); stroke-opacity: 1; stroke-width: 1px;"/><path class="xgrid crisp" transform="translate(362.66,0)" d="M0,46v274" style="stroke: rgb(255, 255, 255); stroke-opacity: 1; stroke-width: 1px;"/><path class="xgrid crisp" transform="translate(439.28,0)" d="M0,46v274" style="stroke: rgb(255, 255, 255); stroke-opacity: 1; stroke-width: 1px;"/><path class="xgrid crisp" transform="translate(516.75,0)" d="M0,46v274" style="stroke: rgb(255, 255, 255); stroke-opacity: 1; stroke-width: 1px;"/><path class="xgrid crisp" transform="translate(592.95,0)" d="M0,46v274" style="stroke: rgb(255, 255, 255); stroke-opacity: 1; stroke-width: 1px;"/></g><g class="y"><path class="ygrid crisp" transform="translate(0,267.94)" d="M33,0h637" style="stroke: rgb(255, 255, 255); stroke-opacity: 1; stroke-width: 1px;"/><path class="ygrid crisp" transform="translate(0,215.88)" d="M33,0h637" style="stroke: rgb(255, 255, 255); stroke-opacity: 1; stroke-width: 1px;"/><path class="ygrid crisp" transform="translate(0,163.82)" d="M33,0h637" style="stroke: rgb(255, 255, 255); stroke-opacity: 1; stroke-width: 1px;"/><path class="ygrid crisp" transform="translate(0,111.76)" d="M33,0h637" style="stroke: rgb(255, 255, 255); stroke-opacity: 1; stroke-width: 1px;"/><path class="ygrid crisp" transform="translate(0,59.7)" d="M33,0h637" style="stroke: rgb(255, 255, 255); stroke-opacity: 1; stroke-width: 1px;"/></g></g><g class="zerolinelayer"><path class="yzl zl crisp" transform="translate(0,320)" d="M33,0h637" style="stroke: rgb(255, 255, 255); stroke-opacity: 1; stroke-width: 2px;"/></g><path class="xlines-below"/><path class="ylines-below"/><g class="overlines-below"/><g class="xaxislayer-below"/><g class="yaxislayer-below"/><g class="overaxes-below"/><g class="plot" transform="translate(33,46)" clip-path="url(#clip3197c8xyplot)"><g class="scatterlayer mlayer"><g class="trace scatter trace18a72431-3561-41c6-b099-747ee87de424" style="stroke-miterlimit: 2;"><g class="fills"><g><path class="js-fill" d="M637,274L0,274L0,143.85L0.42,144.28L0.84,150.16L1.26,153.04L1.68,148.55L2.11,151.95L2.53,144.78L2.95,139.54L3.37,141.19L3.79,143.42L4.21,142.65L4.63,143.56L5.05,143.46L5.47,145.57L6.32,159.88L6.74,154.64L8.42,141.36L8.84,142.05L9.26,143.85L10.95,138.04L11.37,121.38L11.79,108.3L12.21,116L12.63,123.88L13.05,118.35L13.47,122.27L13.89,135.54L14.31,144.34L14.74,143.08L15.16,137.67L15.58,132.54L16,135.9L16.42,142.41L17.68,156.87L18.1,152.81L18.52,153.01L18.95,154.19L19.37,160.06L19.79,151.84L20.21,151.97L20.63,154.98L21.05,156.2L21.47,160.96L21.89,158.7L22.31,143.85L23.16,151.19L23.58,150.72L24,144.62L24.42,147.06L24.84,157.64L25.68,172.88L26.1,169.15L26.52,170.82L27.79,179.49L28.21,175.86L29.89,173.2L30.31,173.22L33.26,177.96L33.68,183.26L34.1,182.67L34.52,183.41L34.94,185.28L35.37,143.85L36.63,136.42L37.05,136.1L37.47,137.34L37.89,135.44L38.31,135.18L38.73,136.62L40,134.11L40.42,134.77L40.84,134.08L42.1,127.38L42.52,127.31L43.36,120.38L43.79,121.18L44.21,122.54L45.47,127.2L45.89,124.55L46.31,123.04L46.73,123.32L47.15,143.85L48.84,138.86L49.26,140.62L50.1,139.94L50.52,142.54L50.94,142.05L51.36,140.39L51.79,140.82L52.21,140.05L53.47,137.43L53.89,135.3L55.15,128.16L55.57,128.57L56.84,126.32L57.26,127.34L58.94,118.72L59.36,122.58L59.78,122.12L60.21,143.85L60.63,142.77L61.05,144.37L61.47,143.92L61.89,144.78L62.73,144.19L63.15,145.65L64.84,151.6L65.26,151.51L67.36,153.44L67.78,157.51L68.2,158.57L68.63,157.12L69.89,161.64L70.31,158.54L71.57,161.73L71.99,161.74L72.42,161.18L72.84,143.85L73.26,144.32L73.68,149.04L74.52,151.26L74.94,150.69L75.36,149.37L75.78,150.26L76.2,149.58L76.63,149.37L77.47,149.57L77.89,152.26L78.73,151.66L79.15,152.58L79.57,151.51L79.99,152.32L80.41,152.55L81.26,151.47L81.68,149.48L82.1,146.73L82.52,148.47L82.94,147.75L83.36,148.9L83.78,147.16L84.2,142.47L84.62,145.41L85.05,145.32L85.47,146.62L85.89,143.85L86.31,144.28L86.73,146.48L87.15,145.52L87.57,146.26L87.99,145.86L88.83,145.45L89.26,145.87L90.94,142.38L91.36,144.65L91.78,143.11L92.2,143.31L92.62,143.92L93.04,143.96L93.47,145.97L94.31,145.07L94.73,143.56L95.15,143.92L95.57,141.46L95.99,141.04L96.41,138.66L96.83,139.42L97.26,139.14L97.68,137.83L98.1,138.72L98.52,143.85L98.94,144.57L99.36,143.86L99.78,143.62L101.47,144.87L101.89,143.5L102.31,141.57L102.73,142.69L103.15,141.96L104.83,144.05L105.25,141.38L106.52,134.22L106.94,135.31L107.36,134.93L107.78,131.18L108.2,129.43L108.62,130.38L109.04,131.06L111.15,128.13L111.57,143.85L111.99,143.08L112.41,145.11L113.67,147.65L114.1,145.16L114.52,145.45L114.94,144.41L116.2,138.14L116.62,131.33L117.46,130.28L117.88,131.29L118.31,134.76L118.73,132.11L119.15,132.38L120.41,127.03L120.83,126.81L122.1,124.71L122.52,125.41L122.94,125.87L123.36,124.74L124.2,123.43L124.62,143.85L125.88,140.19L126.31,131.99L126.73,133.96L127.15,130.82L128.83,122.05L129.25,121.15L130.52,131.79L130.94,131.32L131.36,126.71L131.78,129.6L132.2,129.33L133.04,136.4L133.46,134.9L133.88,136.04L135.15,130.14L135.57,132.03L135.99,130.61L136.41,133.64L136.83,133.75L137.25,143.85L138.51,141.52L138.94,142.63L139.78,142.39L140.2,142.81L141.04,142.47L141.46,134.42L142.3,137.56L142.73,136.16L143.57,137.69L143.99,137.26L144.83,136.98L145.25,137.29L148.2,136.99L148.62,137.29L149.46,136.32L149.88,136.43L150.72,144.32L151.15,144.45L152.41,149.11L152.83,148.04L153.67,147.34L154.09,147.85L155.36,146.59L155.78,144.74L156.2,145.56L156.62,144.34L157.46,144.48L157.88,142.67L158.3,139.75L158.72,140.69L159.14,139.18L159.57,137.69L159.99,139.68L161.25,138.67L161.67,138.59L162.09,135.61L162.51,137.25L162.93,143.85L164.2,143.17L164.62,141.85L165.04,138.84L165.46,141.81L166.72,139.13L167.14,138.62L169.25,139.21L169.67,140.73L171.78,145.98L172.2,153.59L172.62,156.83L173.04,156.16L173.46,156.46L173.88,151.97L174.3,158.12L175.14,160.1L175.56,159.13L175.99,143.85L176.41,148.44L176.83,147.7L177.67,150.33L178.09,147.4L181.04,136.86L181.46,140.55L181.88,138.24L182.3,138.61L182.72,138.3L183.14,137.21L183.56,137.82L183.98,137.4L185.25,136.58L185.67,136.25L186.93,134.33L187.35,132.4L187.77,132.21L188.19,133.5L188.62,132.92L189.04,143.85L189.46,144.92L189.88,144.23L190.3,144.52L191.56,143.64L191.98,147.29L192.41,147.3L192.83,149.83L193.25,148.71L193.67,149.3L194.09,149.67L194.93,149.63L195.35,150.09L196.19,156.18L196.62,155.33L197.04,156.32L197.46,155.57L197.88,156.03L198.3,157.92L198.72,153.25L199.14,153.89L199.56,153.56L199.98,152.69L200.4,152.92L200.83,143.85L202.09,141.25L202.51,143.89L203.35,143.74L203.77,142.52L204.61,142.47L205.04,141.83L205.88,141.53L206.3,141.45L207.14,143.52L207.56,142.79L209.67,141.49L210.09,141.8L211.35,141.3L211.77,142.26L212.19,141.81L212.61,142.77L213.46,142.21L213.88,143.85L215.14,139.91L215.56,141.43L215.98,141.3L216.4,142.82L216.82,143.79L217.25,143.33L217.67,142.3L218.93,140.26L219.35,140.66L220.61,139.27L221.03,141.31L221.88,140.81L222.3,139.69L222.72,139.36L223.14,137.15L224.4,134.67L224.82,135.67L225.67,134.59L226.09,136.17L226.51,143.85L226.93,143.15L227.35,142.41L227.77,140.17L228.19,140.34L228.61,144.45L230.72,137.43L231.14,137.19L231.56,133.01L231.98,137.9L232.82,151.5L233.24,150.93L233.66,149.09L234.51,147.67L234.93,148.66L237.03,146.06L237.45,146.46L238.3,146.74L238.72,145.97L239.14,147.05L239.56,143.85L240.4,143.39L240.82,144.52L241.66,145.72L242.09,144.28L242.93,142.43L243.35,143.74L243.77,143.88L244.19,146L245.87,141.59L246.3,140.5L247.56,138.45L247.98,139.69L249.24,137.7L249.66,134.85L250.93,130.14L251.35,134.32L251.77,134.59L252.19,143.85L253.45,138.02L253.87,140.2L254.29,138.75L254.72,141.34L256.4,133.49L256.82,132.74L257.24,133.48L257.66,129.37L258.5,125.89L258.93,128.28L259.77,125.89L260.19,126.68L260.61,126.71L261.03,125.94L262.72,129.55L263.14,128.48L263.98,129.38L264.4,128.56L264.82,127.88L265.24,143.85L267.35,139.84L267.77,137.37L268.61,133.08L269.03,134.76L270.29,138.04L270.71,136.01L271.56,133.56L271.98,134.54L272.4,136.83L272.82,136.15L273.24,134.95L274.08,137.13L274.5,136.51L274.92,136.93L275.77,134.79L276.19,135.47L277.45,132.52L277.87,133.68L278.29,143.85L278.71,142.54L279.13,141.24L280.4,139.36L280.82,141.44L282.08,144.53L282.5,143.74L282.92,143.11L283.35,143.45L283.77,145.93L284.19,146.58L284.61,149.48L285.87,157.03L286.29,156.62L286.71,156.9L287.13,155.38L287.56,154.59L287.98,150.56L289.66,155.88L290.08,155.48L290.5,157.43L290.92,143.85L291.34,144.69L291.77,143.71L293.45,146.01L293.87,146.44L294.29,147.51L294.71,147.03L295.13,145.91L295.55,145.17L295.98,145.74L296.4,147.04L299.34,143.74L299.76,144.07L300.61,145.02L301.03,142.94L301.87,137.54L302.29,139.02L302.71,140.5L303.13,140.09L303.55,139.88L303.97,143.85L304.4,143.39L304.82,143.48L305.24,143.63L305.66,145.14L308.19,148.02L308.61,148.06L309.45,148.57L309.87,148.26L311.97,150.16L312.4,147.86L313.66,145.15L314.08,145.89L314.5,146.33L314.92,145.31L315.34,145.35L315.76,144.32L316.18,144.78L316.61,143.85L317.87,143.44L318.29,142.8L319.13,141.65L319.55,142.67L321.24,143.01L321.66,142.48L322.5,142.71L322.92,140.27L324.18,135.67L324.6,135.39L327.55,133.82L327.97,134.14L328.81,136.5L329.24,135.89L330.08,144.11L330.5,144.21L331.34,144.64L331.76,145.29L332.6,141.35L333.03,141.93L334.71,142.19L335.13,146.08L336.39,147.2L336.81,148.82L337.24,147.38L337.66,147.8L338.08,148.13L339.76,147.7L340.18,148.63L341.45,146.04L341.87,148.2L342.29,147.68L342.71,143.85L345.23,153.64L345.66,153.31L346.5,153.47L346.92,154.68L348.18,165.97L348.6,164.12L349.02,162.66L349.44,165.8L349.87,166.51L350.29,164.58L350.71,164.3L351.13,165.64L351.55,165.01L351.97,166.02L352.39,165.79L352.81,163.55L353.23,161.24L353.65,161.8L354.08,162.62L354.5,161.19L354.92,143.85L355.34,144.91L355.76,143.78L356.18,144.03L356.6,143.03L357.44,146.64L357.87,141.72L358.29,143.64L358.71,143.36L359.13,141.41L359.55,135.82L359.97,139.56L360.39,138.93L361.65,133.5L362.08,133.85L362.5,134.26L363.76,131.53L364.18,131.15L365.02,129.16L365.44,129.83L366.71,131.7L367.13,130.05L367.55,130.29L367.97,143.85L369.23,145.77L369.65,145.75L370.07,151.96L370.5,151.25L370.92,152.74L373.02,150.76L373.44,151.33L373.86,151.46L374.28,154.5L374.71,154.5L375.13,158.54L375.97,156.72L376.39,156.9L376.81,158.3L377.23,156.38L377.65,156.79L378.07,158.73L379.34,157.69L379.76,155.73L380.18,153.93L380.6,143.85L382.28,140.54L382.71,137.79L383.13,135.75L383.55,136.67L383.97,137.91L384.39,136.37L384.81,136.59L385.23,136.26L385.65,136.22L386.07,134.27L387.34,136.02L387.76,137.91L389.02,137.77L389.44,139.38L390.7,140.78L391.13,140.22L391.55,139.92L391.97,140.86L392.39,141.7L392.81,146.02L393.65,143.85L394.07,145.44L394.49,146.46L394.91,145.56L395.34,145.6L396.6,146.25L397.02,145.72L398.7,146.27L399.12,145.56L399.55,143.95L399.97,144.61L400.39,144.62L402.07,144.7L402.49,146.07L403.34,146.53L403.76,146.09L404.18,145.89L404.6,144.8L405.86,145.11L406.28,143.85L406.7,144.11L407.12,143.22L409.65,146.77L410.07,146.22L412.6,145.24L413.02,144.86L414.7,146.63L415.12,149.99L416.39,158.55L416.81,158.22L417.23,153.94L418.07,152.62L418.49,155.81L418.91,156.67L419.33,143.85L420.6,147.77L421.02,146.63L421.86,143.76L422.28,145.35L423.54,144.99L423.96,145.8L424.81,152.06L425.23,150.92L425.65,150.84L426.07,148.25L426.49,148.77L426.91,147.35L427.33,148.27L427.75,145.44L428.18,146.05L428.6,145.41L429.02,147.53L429.86,145.58L430.28,145.87L431.12,147.7L431.54,151.03L431.96,152.2L432.39,143.85L433.65,138.9L434.07,131.54L434.49,134.24L434.91,133.56L435.33,132.23L437.02,139.16L437.44,136.17L437.86,136.01L438.28,133.14L438.7,132.25L439.12,136.39L440.38,133.39L440.81,130.96L441.23,131L441.65,128.29L442.91,131.74L443.33,131.94L444.59,132.34L445.02,143.85L445.44,142.82L445.86,143.04L446.28,143.43L447.96,141.61L448.38,143.42L449.23,143.25L449.65,144.42L451.75,142.3L452.17,143.21L453.44,138.39L453.86,141.16L455.12,139.63L455.54,137.41L457.65,132.8L458.07,143.85L458.91,141.39L459.33,142.94L459.75,138.51L460.17,144.66L461.01,144.85L461.44,144.11L462.28,145.26L462.7,142.64L463.12,144.37L463.54,143.36L463.96,142.01L465.65,138.25L466.07,140.43L467.33,152.84L467.75,149.77L469.01,146.92L469.43,147.2L469.86,149.92L470.28,149.2L470.7,143.85L471.12,143.7L471.54,144.84L471.96,142.19L472.38,143.66L472.8,143.6L473.65,141.84L474.07,143.17L475.33,141.74L475.75,142.94L477.01,140.9L477.43,137.18L477.86,137.43L478.28,135.86L479.54,133.65L479.96,129.71L480.38,131.36L480.8,130.43L481.22,126.94L482.07,134.3L482.49,133.74L482.91,132.1L483.33,130.54L483.75,143.85L484.17,141.84L484.59,155.51L485.01,161.24L485.43,160.9L485.85,161.72L486.7,156.05L487.12,159.83L487.54,161.97L487.96,157.42L488.38,157.64L488.8,156.68L490.91,164.65L491.33,171.35L491.75,172.47L492.17,168.33L493.01,171.68L493.43,178.77L493.85,175.61L494.27,176.72L494.7,176L495.12,173.94L495.54,174.66L495.96,174.46L496.38,173.77L496.8,143.85L498.49,150.27L498.91,146.82L499.33,144.91L499.75,138.86L500.59,140.6L501.01,137.87L501.43,140.56L501.85,140.06L502.27,137.55L502.7,137.67L503.12,136.04L503.54,134.68L503.96,138.31L505.22,131.3L505.64,129.81L507.33,126.47L507.75,127.3L508.17,126.81L508.59,143.85L509.01,142.44L509.43,143.13L509.85,144.31L510.27,143.46L510.69,148.44L511.12,148.09L511.54,150.86L513.22,142.56L513.64,143.64L514.06,143.32L514.48,144.92L514.9,144.43L515.33,142.7L515.75,142.36L516.17,143.07L517.85,142.05L518.27,141.04L519.12,142.51L519.54,142.05L519.96,141.12L520.38,143.81L520.8,143.45L521.22,145.95L521.64,143.85L522.06,148.78L522.48,147.18L522.9,147.93L523.33,148.05L523.75,149.33L524.17,147.09L524.59,148.27L525.01,147.84L525.43,148.11L526.69,148.98L527.11,153.11L527.54,155.1L527.96,154.62L528.38,153.2L529.64,157.44L530.06,161.37L530.48,164.99L530.9,164.75L531.32,161.83L532.59,167.59L533.01,169.76L533.43,171.46L533.85,167.11L534.27,143.85L534.69,145.35L535.11,154.46L536.38,156.49L536.8,155.28L538.06,165.04L538.48,167.46L539.74,174.09L540.17,171L541.01,169.04L541.43,171.77L541.85,161.09L542.27,162.77L542.69,159.78L543.53,155.19L543.96,162.79L544.8,167.45L545.22,165.43L546.06,160.46L546.48,161.57L546.9,166.77L547.32,143.85L547.74,144.06L548.17,144.78L548.59,144.82L549.01,145.82L549.85,148.56L550.27,146.88L551.53,135.41L551.95,139.1L552.8,135.47L553.22,137.01L553.64,134.06L554.06,134.68L554.48,134.7L554.9,133.45L555.32,135.29L556.16,129.67L556.59,131.13L557.85,128.72L558.27,129.03L560.8,145.13L561.22,146.72L561.64,146.08L562.06,148.77L562.48,149.23L562.9,145.41L565.01,139.99L565.43,141.54L566.27,140.55L566.69,140.95L567.53,139.59L567.95,140.69L569.22,144.17L569.64,144.76L571.32,137.86L571.74,140.19L572.16,138.97L572.58,141.72L574.69,148.82L575.11,147.24L575.53,150.38L575.95,148.48L576.37,148.01L577.22,149.03L577.64,148.18L578.9,149.93L579.32,148.29L580.16,147.14L580.58,147.83L581.85,145.5L582.27,146.74L583.53,145.81L583.95,146.42L584.79,145.85L585.21,148.2L585.64,152.13L586.06,143.85L586.48,142.46L586.9,144.07L588.16,140.56L588.58,139.29L589,141.63L589.42,139.9L589.85,137.82L590.69,140.03L591.11,139.18L591.53,138.96L591.95,140.91L592.37,140.65L592.79,138.13L594.48,134.45L594.9,136.98L595.32,136.66L595.74,134.93L596.16,134.98L596.58,137.2L597.42,134.91L597.85,135.13L598.27,135.03L599.11,146.04L599.53,145.88L599.95,143.93L600.37,143.43L600.79,139.89L601.21,141.87L601.63,141.24L602.06,140.26L602.9,136.8L603.32,137.48L603.74,138L604.16,141.25L604.58,137.88L605,138.08L605.42,137.66L606.27,135.38L606.69,138.16L607.95,143.1L608.37,142.27L608.79,142.09L609.21,143.56L609.63,142.38L610.05,145.7L610.48,145.91L610.9,144.93L611.32,144.97L611.74,143.85L613,146.5L613.42,146.11L614.27,145.73L614.69,144.15L615.11,143.68L615.53,144.25L615.95,145.61L616.79,145L617.21,143.64L617.63,144.59L618.05,143.11L618.48,143.97L618.9,143.27L619.32,146.6L619.74,146.53L620.16,145.49L620.58,145.43L621,147.86L623.11,147.53L623.53,149.14L623.95,152.71L624.37,143.85L625.21,142.7L625.63,146.69L626.47,148.56L626.9,147.76L627.32,149.85L627.74,148.75L628.16,145.91L629,145.75L629.42,144.51L629.84,144.01L630.26,145.48L631.53,147.32L631.95,146.89L632.37,146.83L632.79,145.46L633.63,144.45L634.05,143.44L634.47,144.67L634.89,143.77L635.32,143.51L635.74,143.62L636.16,142.19L637,143.34" style="fill: rgb(31, 119, 180); fill-opacity: 0.5; stroke-width: 0;"/></g><g><path class="js-fill" d="M0,13.7L637,13.7L637,143.34L636.16,142.19L635.74,143.62L635.32,143.51L634.89,143.77L634.47,144.67L634.05,143.44L633.63,144.45L632.79,145.46L632.37,146.83L631.95,146.89L631.53,147.32L630.26,145.48L629.84,144.01L629.42,144.51L629,145.75L628.16,145.91L627.74,148.75L627.32,149.85L626.9,147.76L626.47,148.56L625.63,146.69L625.21,142.7L624.37,143.85L623.95,152.71L623.53,149.14L623.11,147.53L621,147.86L620.58,145.43L620.16,145.49L619.74,146.53L619.32,146.6L618.9,143.27L618.48,143.97L618.05,143.11L617.63,144.59L617.21,143.64L616.79,145L615.95,145.61L615.53,144.25L615.11,143.68L614.69,144.15L614.27,145.73L613.42,146.11L613,146.5L611.74,143.85L611.32,144.97L610.9,144.93L610.48,145.91L610.05,145.7L609.63,142.38L609.21,143.56L608.79,142.09L608.37,142.27L607.95,143.1L606.69,138.16L606.27,135.38L605.42,137.66L605,138.08L604.58,137.88L604.16,141.25L603.74,138L603.32,137.48L602.9,136.8L602.06,140.26L601.63,141.24L601.21,141.87L600.79,139.89L600.37,143.43L599.95,143.93L599.53,145.88L599.11,146.04L598.27,135.03L597.85,135.13L597.42,134.91L596.58,137.2L596.16,134.98L595.74,134.93L595.32,136.66L594.9,136.98L594.48,134.45L592.79,138.13L592.37,140.65L591.95,140.91L591.53,138.96L591.11,139.18L590.69,140.03L589.85,137.82L589.42,139.9L589,141.63L588.58,139.29L588.16,140.56L586.9,144.07L586.48,142.46L586.06,143.85L585.64,152.13L585.21,148.2L584.79,145.85L583.95,146.42L583.53,145.81L582.27,146.74L581.85,145.5L580.58,147.83L580.16,147.14L579.32,148.29L578.9,149.93L577.64,148.18L577.22,149.03L576.37,148.01L575.95,148.48L575.53,150.38L575.11,147.24L574.69,148.82L572.58,141.72L572.16,138.97L571.74,140.19L571.32,137.86L569.64,144.76L569.22,144.17L567.95,140.69L567.53,139.59L566.69,140.95L566.27,140.55L565.43,141.54L565.01,139.99L562.9,145.41L562.48,149.23L562.06,148.77L561.64,146.08L561.22,146.72L560.8,145.13L558.27,129.03L557.85,128.72L556.59,131.13L556.16,129.67L555.32,135.29L554.9,133.45L554.48,134.7L554.06,134.68L553.64,134.06L553.22,137.01L552.8,135.47L551.95,139.1L551.53,135.41L550.27,146.88L549.85,148.56L549.01,145.82L548.59,144.82L548.17,144.78L547.74,144.06L547.32,143.85L546.9,166.77L546.48,161.57L546.06,160.46L545.22,165.43L544.8,167.45L543.96,162.79L543.53,155.19L542.69,159.78L542.27,162.77L541.85,161.09L541.43,171.77L541.01,169.04L540.17,171L539.74,174.09L538.48,167.46L538.06,165.04L536.8,155.28L536.38,156.49L535.11,154.46L534.69,145.35L534.27,143.85L533.85,167.11L533.43,171.46L533.01,169.76L532.59,167.59L531.32,161.83L530.9,164.75L530.48,164.99L530.06,161.37L529.64,157.44L528.38,153.2L527.96,154.62L527.54,155.1L527.11,153.11L526.69,148.98L525.43,148.11L525.01,147.84L524.59,148.27L524.17,147.09L523.75,149.33L523.33,148.05L522.9,147.93L522.48,147.18L522.06,148.78L521.64,143.85L521.22,145.95L520.8,143.45L520.38,143.81L519.96,141.12L519.54,142.05L519.12,142.51L518.27,141.04L517.85,142.05L516.17,143.07L515.75,142.36L515.33,142.7L514.9,144.43L514.48,144.92L514.06,143.32L513.64,143.64L513.22,142.56L511.54,150.86L511.12,148.09L510.69,148.44L510.27,143.46L509.85,144.31L509.43,143.13L509.01,142.44L508.59,143.85L508.17,126.81L507.75,127.3L507.33,126.47L505.64,129.81L505.22,131.3L503.96,138.31L503.54,134.68L503.12,136.04L502.7,137.67L502.27,137.55L501.85,140.06L501.43,140.56L501.01,137.87L500.59,140.6L499.75,138.86L499.33,144.91L498.91,146.82L498.49,150.27L496.8,143.85L496.38,173.77L495.96,174.46L495.54,174.66L495.12,173.94L494.7,176L494.27,176.72L493.85,175.61L493.43,178.77L493.01,171.68L492.17,168.33L491.75,172.47L491.33,171.35L490.91,164.65L488.8,156.68L488.38,157.64L487.96,157.42L487.54,161.97L487.12,159.83L486.7,156.05L485.85,161.72L485.43,160.9L485.01,161.24L484.59,155.51L484.17,141.84L483.75,143.85L483.33,130.54L482.91,132.1L482.49,133.74L482.07,134.3L481.22,126.94L480.8,130.43L480.38,131.36L479.96,129.71L479.54,133.65L478.28,135.86L477.86,137.43L477.43,137.18L477.01,140.9L475.75,142.94L475.33,141.74L474.07,143.17L473.65,141.84L472.8,143.6L472.38,143.66L471.96,142.19L471.54,144.84L471.12,143.7L470.7,143.85L470.28,149.2L469.86,149.92L469.43,147.2L469.01,146.92L467.75,149.77L467.33,152.84L466.07,140.43L465.65,138.25L463.96,142.01L463.54,143.36L463.12,144.37L462.7,142.64L462.28,145.26L461.44,144.11L461.01,144.85L460.17,144.66L459.75,138.51L459.33,142.94L458.91,141.39L458.07,143.85L457.65,132.8L455.54,137.41L455.12,139.63L453.86,141.16L453.44,138.39L452.17,143.21L451.75,142.3L449.65,144.42L449.23,143.25L448.38,143.42L447.96,141.61L446.28,143.43L445.86,143.04L445.44,142.82L445.02,143.85L444.59,132.34L443.33,131.94L442.91,131.74L441.65,128.29L441.23,131L440.81,130.96L440.38,133.39L439.12,136.39L438.7,132.25L438.28,133.14L437.86,136.01L437.44,136.17L437.02,139.16L435.33,132.23L434.91,133.56L434.49,134.24L434.07,131.54L433.65,138.9L432.39,143.85L431.96,152.2L431.54,151.03L431.12,147.7L430.28,145.87L429.86,145.58L429.02,147.53L428.6,145.41L428.18,146.05L427.75,145.44L427.33,148.27L426.91,147.35L426.49,148.77L426.07,148.25L425.65,150.84L425.23,150.92L424.81,152.06L423.96,145.8L423.54,144.99L422.28,145.35L421.86,143.76L421.02,146.63L420.6,147.77L419.33,143.85L418.91,156.67L418.49,155.81L418.07,152.62L417.23,153.94L416.81,158.22L416.39,158.55L415.12,149.99L414.7,146.63L413.02,144.86L412.6,145.24L410.07,146.22L409.65,146.77L407.12,143.22L406.7,144.11L406.28,143.85L405.86,145.11L404.6,144.8L404.18,145.89L403.76,146.09L403.34,146.53L402.49,146.07L402.07,144.7L400.39,144.62L399.97,144.61L399.55,143.95L399.12,145.56L398.7,146.27L397.02,145.72L396.6,146.25L395.34,145.6L394.91,145.56L394.49,146.46L394.07,145.44L393.65,143.85L392.81,146.02L392.39,141.7L391.97,140.86L391.55,139.92L391.13,140.22L390.7,140.78L389.44,139.38L389.02,137.77L387.76,137.91L387.34,136.02L386.07,134.27L385.65,136.22L385.23,136.26L384.81,136.59L384.39,136.37L383.97,137.91L383.55,136.67L383.13,135.75L382.71,137.79L382.28,140.54L380.6,143.85L380.18,153.93L379.76,155.73L379.34,157.69L378.07,158.73L377.65,156.79L377.23,156.38L376.81,158.3L376.39,156.9L375.97,156.72L375.13,158.54L374.71,154.5L374.28,154.5L373.86,151.46L373.44,151.33L373.02,150.76L370.92,152.74L370.5,151.25L370.07,151.96L369.65,145.75L369.23,145.77L367.97,143.85L367.55,130.29L367.13,130.05L366.71,131.7L365.44,129.83L365.02,129.16L364.18,131.15L363.76,131.53L362.5,134.26L362.08,133.85L361.65,133.5L360.39,138.93L359.97,139.56L359.55,135.82L359.13,141.41L358.71,143.36L358.29,143.64L357.87,141.72L357.44,146.64L356.6,143.03L356.18,144.03L355.76,143.78L355.34,144.91L354.92,143.85L354.5,161.19L354.08,162.62L353.65,161.8L353.23,161.24L352.81,163.55L352.39,165.79L351.97,166.02L351.55,165.01L351.13,165.64L350.71,164.3L350.29,164.58L349.87,166.51L349.44,165.8L349.02,162.66L348.6,164.12L348.18,165.97L346.92,154.68L346.5,153.47L345.66,153.31L345.23,153.64L342.71,143.85L342.29,147.68L341.87,148.2L341.45,146.04L340.18,148.63L339.76,147.7L338.08,148.13L337.66,147.8L337.24,147.38L336.81,148.82L336.39,147.2L335.13,146.08L334.71,142.19L333.03,141.93L332.6,141.35L331.76,145.29L331.34,144.64L330.5,144.21L330.08,144.11L329.24,135.89L328.81,136.5L327.97,134.14L327.55,133.82L324.6,135.39L324.18,135.67L322.92,140.27L322.5,142.71L321.66,142.48L321.24,143.01L319.55,142.67L319.13,141.65L318.29,142.8L317.87,143.44L316.61,143.85L316.18,144.78L315.76,144.32L315.34,145.35L314.92,145.31L314.5,146.33L314.08,145.89L313.66,145.15L312.4,147.86L311.97,150.16L309.87,148.26L309.45,148.57L308.61,148.06L308.19,148.02L305.66,145.14L305.24,143.63L304.82,143.48L304.4,143.39L303.97,143.85L303.55,139.88L303.13,140.09L302.71,140.5L302.29,139.02L301.87,137.54L301.03,142.94L300.61,145.02L299.76,144.07L299.34,143.74L296.4,147.04L295.98,145.74L295.55,145.17L295.13,145.91L294.71,147.03L294.29,147.51L293.87,146.44L293.45,146.01L291.77,143.71L291.34,144.69L290.92,143.85L290.5,157.43L290.08,155.48L289.66,155.88L287.98,150.56L287.56,154.59L287.13,155.38L286.71,156.9L286.29,156.62L285.87,157.03L284.61,149.48L284.19,146.58L283.77,145.93L283.35,143.45L282.92,143.11L282.5,143.74L282.08,144.53L280.82,141.44L280.4,139.36L279.13,141.24L278.71,142.54L278.29,143.85L277.87,133.68L277.45,132.52L276.19,135.47L275.77,134.79L274.92,136.93L274.5,136.51L274.08,137.13L273.24,134.95L272.82,136.15L272.4,136.83L271.98,134.54L271.56,133.56L270.71,136.01L270.29,138.04L269.03,134.76L268.61,133.08L267.77,137.37L267.35,139.84L265.24,143.85L264.82,127.88L264.4,128.56L263.98,129.38L263.14,128.48L262.72,129.55L261.03,125.94L260.61,126.71L260.19,126.68L259.77,125.89L258.93,128.28L258.5,125.89L257.66,129.37L257.24,133.48L256.82,132.74L256.4,133.49L254.72,141.34L254.29,138.75L253.87,140.2L253.45,138.02L252.19,143.85L251.77,134.59L251.35,134.32L250.93,130.14L249.66,134.85L249.24,137.7L247.98,139.69L247.56,138.45L246.3,140.5L245.87,141.59L244.19,146L243.77,143.88L243.35,143.74L242.93,142.43L242.09,144.28L241.66,145.72L240.82,144.52L240.4,143.39L239.56,143.85L239.14,147.05L238.72,145.97L238.3,146.74L237.45,146.46L237.03,146.06L234.93,148.66L234.51,147.67L233.66,149.09L233.24,150.93L232.82,151.5L231.98,137.9L231.56,133.01L231.14,137.19L230.72,137.43L228.61,144.45L228.19,140.34L227.77,140.17L227.35,142.41L226.93,143.15L226.51,143.85L226.09,136.17L225.67,134.59L224.82,135.67L224.4,134.67L223.14,137.15L222.72,139.36L222.3,139.69L221.88,140.81L221.03,141.31L220.61,139.27L219.35,140.66L218.93,140.26L217.67,142.3L217.25,143.33L216.82,143.79L216.4,142.82L215.98,141.3L215.56,141.43L215.14,139.91L213.88,143.85L213.46,142.21L212.61,142.77L212.19,141.81L211.77,142.26L211.35,141.3L210.09,141.8L209.67,141.49L207.56,142.79L207.14,143.52L206.3,141.45L205.88,141.53L205.04,141.83L204.61,142.47L203.77,142.52L203.35,143.74L202.51,143.89L202.09,141.25L200.83,143.85L200.4,152.92L199.98,152.69L199.56,153.56L199.14,153.89L198.72,153.25L198.3,157.92L197.88,156.03L197.46,155.57L197.04,156.32L196.62,155.33L196.19,156.18L195.35,150.09L194.93,149.63L194.09,149.67L193.67,149.3L193.25,148.71L192.83,149.83L192.41,147.3L191.98,147.29L191.56,143.64L190.3,144.52L189.88,144.23L189.46,144.92L189.04,143.85L188.62,132.92L188.19,133.5L187.77,132.21L187.35,132.4L186.93,134.33L185.67,136.25L185.25,136.58L183.98,137.4L183.56,137.82L183.14,137.21L182.72,138.3L182.3,138.61L181.88,138.24L181.46,140.55L181.04,136.86L178.09,147.4L177.67,150.33L176.83,147.7L176.41,148.44L175.99,143.85L175.56,159.13L175.14,160.1L174.3,158.12L173.88,151.97L173.46,156.46L173.04,156.16L172.62,156.83L172.2,153.59L171.78,145.98L169.67,140.73L169.25,139.21L167.14,138.62L166.72,139.13L165.46,141.81L165.04,138.84L164.62,141.85L164.2,143.17L162.93,143.85L162.51,137.25L162.09,135.61L161.67,138.59L161.25,138.67L159.99,139.68L159.57,137.69L159.14,139.18L158.72,140.69L158.3,139.75L157.88,142.67L157.46,144.48L156.62,144.34L156.2,145.56L155.78,144.74L155.36,146.59L154.09,147.85L153.67,147.34L152.83,148.04L152.41,149.11L151.15,144.45L150.72,144.32L149.88,136.43L149.46,136.32L148.62,137.29L148.2,136.99L145.25,137.29L144.83,136.98L143.99,137.26L143.57,137.69L142.73,136.16L142.3,137.56L141.46,134.42L141.04,142.47L140.2,142.81L139.78,142.39L138.94,142.63L138.51,141.52L137.25,143.85L136.83,133.75L136.41,133.64L135.99,130.61L135.57,132.03L135.15,130.14L133.88,136.04L133.46,134.9L133.04,136.4L132.2,129.33L131.78,129.6L131.36,126.71L130.94,131.32L130.52,131.79L129.25,121.15L128.83,122.05L127.15,130.82L126.73,133.96L126.31,131.99L125.88,140.19L124.62,143.85L124.2,123.43L123.36,124.74L122.94,125.87L122.52,125.41L122.1,124.71L120.83,126.81L120.41,127.03L119.15,132.38L118.73,132.11L118.31,134.76L117.88,131.29L117.46,130.28L116.62,131.33L116.2,138.14L114.94,144.41L114.52,145.45L114.1,145.16L113.67,147.65L112.41,145.11L111.99,143.08L111.57,143.85L111.15,128.13L109.04,131.06L108.62,130.38L108.2,129.43L107.78,131.18L107.36,134.93L106.94,135.31L106.52,134.22L105.25,141.38L104.83,144.05L103.15,141.96L102.73,142.69L102.31,141.57L101.89,143.5L101.47,144.87L99.78,143.62L99.36,143.86L98.94,144.57L98.52,143.85L98.1,138.72L97.68,137.83L97.26,139.14L96.83,139.42L96.41,138.66L95.99,141.04L95.57,141.46L95.15,143.92L94.73,143.56L94.31,145.07L93.47,145.97L93.04,143.96L92.62,143.92L92.2,143.31L91.78,143.11L91.36,144.65L90.94,142.38L89.26,145.87L88.83,145.45L87.99,145.86L87.57,146.26L87.15,145.52L86.73,146.48L86.31,144.28L85.89,143.85L85.47,146.62L85.05,145.32L84.62,145.41L84.2,142.47L83.78,147.16L83.36,148.9L82.94,147.75L82.52,148.47L82.1,146.73L81.68,149.48L81.26,151.47L80.41,152.55L79.99,152.32L79.57,151.51L79.15,152.58L78.73,151.66L77.89,152.26L77.47,149.57L76.63,149.37L76.2,149.58L75.78,150.26L75.36,149.37L74.94,150.69L74.52,151.26L73.68,149.04L73.26,144.32L72.84,143.85L72.42,161.18L71.99,161.74L71.57,161.73L70.31,158.54L69.89,161.64L68.63,157.12L68.2,158.57L67.78,157.51L67.36,153.44L65.26,151.51L64.84,151.6L63.15,145.65L62.73,144.19L61.89,144.78L61.47,143.92L61.05,144.37L60.63,142.77L60.21,143.85L59.78,122.12L59.36,122.58L58.94,118.72L57.26,127.34L56.84,126.32L55.57,128.57L55.15,128.16L53.89,135.3L53.47,137.43L52.21,140.05L51.79,140.82L51.36,140.39L50.94,142.05L50.52,142.54L50.1,139.94L49.26,140.62L48.84,138.86L47.15,143.85L46.73,123.32L46.31,123.04L45.89,124.55L45.47,127.2L44.21,122.54L43.79,121.18L43.36,120.38L42.52,127.31L42.1,127.38L40.84,134.08L40.42,134.77L40,134.11L38.73,136.62L38.31,135.18L37.89,135.44L37.47,137.34L37.05,136.1L36.63,136.42L35.37,143.85L34.94,185.28L34.52,183.41L34.1,182.67L33.68,183.26L33.26,177.96L30.31,173.22L29.89,173.2L28.21,175.86L27.79,179.49L26.52,170.82L26.1,169.15L25.68,172.88L24.84,157.64L24.42,147.06L24,144.62L23.58,150.72L23.16,151.19L22.31,143.85L21.89,158.7L21.47,160.96L21.05,156.2L20.63,154.98L20.21,151.97L19.79,151.84L19.37,160.06L18.95,154.19L18.52,153.01L18.1,152.81L17.68,156.87L16.42,142.41L16,135.9L15.58,132.54L15.16,137.67L14.74,143.08L14.31,144.34L13.89,135.54L13.47,122.27L13.05,118.35L12.63,123.88L12.21,116L11.79,108.3L11.37,121.38L10.95,138.04L9.26,143.85L8.84,142.05L8.42,141.36L6.74,154.64L6.32,159.88L5.47,145.57L5.05,143.46L4.63,143.56L4.21,142.65L3.79,143.42L3.37,141.19L2.95,139.54L2.53,144.78L2.11,151.95L1.68,148.55L1.26,153.04L0.84,150.16L0.42,144.28L0,143.85Z" style="fill: rgb(255, 127, 14); fill-opacity: 0.5; stroke-width: 0;"/></g></g><g class="errorbars"/><g class="lines"><path class="js-line" d="M0,143.85L0.42,144.28L0.84,150.16L1.26,153.04L1.68,148.55L2.11,151.95L2.53,144.78L2.95,139.54L3.37,141.19L3.79,143.42L4.21,142.65L4.63,143.56L5.05,143.46L5.47,145.57L6.32,159.88L6.74,154.64L8.42,141.36L8.84,142.05L9.26,143.85L10.95,138.04L11.37,121.38L11.79,108.3L12.21,116L12.63,123.88L13.05,118.35L13.47,122.27L13.89,135.54L14.31,144.34L14.74,143.08L15.16,137.67L15.58,132.54L16,135.9L16.42,142.41L17.68,156.87L18.1,152.81L18.52,153.01L18.95,154.19L19.37,160.06L19.79,151.84L20.21,151.97L20.63,154.98L21.05,156.2L21.47,160.96L21.89,158.7L22.31,143.85L23.16,151.19L23.58,150.72L24,144.62L24.42,147.06L24.84,157.64L25.68,172.88L26.1,169.15L26.52,170.82L27.79,179.49L28.21,175.86L29.89,173.2L30.31,173.22L33.26,177.96L33.68,183.26L34.1,182.67L34.52,183.41L34.94,185.28L35.37,143.85L36.63,136.42L37.05,136.1L37.47,137.34L37.89,135.44L38.31,135.18L38.73,136.62L40,134.11L40.42,134.77L40.84,134.08L42.1,127.38L42.52,127.31L43.36,120.38L43.79,121.18L44.21,122.54L45.47,127.2L45.89,124.55L46.31,123.04L46.73,123.32L47.15,143.85L48.84,138.86L49.26,140.62L50.1,139.94L50.52,142.54L50.94,142.05L51.36,140.39L51.79,140.82L52.21,140.05L53.47,137.43L53.89,135.3L55.15,128.16L55.57,128.57L56.84,126.32L57.26,127.34L58.94,118.72L59.36,122.58L59.78,122.12L60.21,143.85L60.63,142.77L61.05,144.37L61.47,143.92L61.89,144.78L62.73,144.19L63.15,145.65L64.84,151.6L65.26,151.51L67.36,153.44L67.78,157.51L68.2,158.57L68.63,157.12L69.89,161.64L70.31,158.54L71.57,161.73L71.99,161.74L72.42,161.18L72.84,143.85L73.26,144.32L73.68,149.04L74.52,151.26L74.94,150.69L75.36,149.37L75.78,150.26L76.2,149.58L76.63,149.37L77.47,149.57L77.89,152.26L78.73,151.66L79.15,152.58L79.57,151.51L79.99,152.32L80.41,152.55L81.26,151.47L81.68,149.48L82.1,146.73L82.52,148.47L82.94,147.75L83.36,148.9L83.78,147.16L84.2,142.47L84.62,145.41L85.05,145.32L85.47,146.62L85.89,143.85L86.31,144.28L86.73,146.48L87.15,145.52L87.57,146.26L87.99,145.86L88.83,145.45L89.26,145.87L90.94,142.38L91.36,144.65L91.78,143.11L92.2,143.31L92.62,143.92L93.04,143.96L93.47,145.97L94.31,145.07L94.73,143.56L95.15,143.92L95.57,141.46L95.99,141.04L96.41,138.66L96.83,139.42L97.26,139.14L97.68,137.83L98.1,138.72L98.52,143.85L98.94,144.57L99.36,143.86L99.78,143.62L101.47,144.87L101.89,143.5L102.31,141.57L102.73,142.69L103.15,141.96L104.83,144.05L105.25,141.38L106.52,134.22L106.94,135.31L107.36,134.93L107.78,131.18L108.2,129.43L108.62,130.38L109.04,131.06L111.15,128.13L111.57,143.85L111.99,143.08L112.41,145.11L113.67,147.65L114.1,145.16L114.52,145.45L114.94,144.41L116.2,138.14L116.62,131.33L117.46,130.28L117.88,131.29L118.31,134.76L118.73,132.11L119.15,132.38L120.41,127.03L120.83,126.81L122.1,124.71L122.52,125.41L122.94,125.87L123.36,124.74L124.2,123.43L124.62,143.85L125.88,140.19L126.31,131.99L126.73,133.96L127.15,130.82L128.83,122.05L129.25,121.15L130.52,131.79L130.94,131.32L131.36,126.71L131.78,129.6L132.2,129.33L133.04,136.4L133.46,134.9L133.88,136.04L135.15,130.14L135.57,132.03L135.99,130.61L136.41,133.64L136.83,133.75L137.25,143.85L138.51,141.52L138.94,142.63L139.78,142.39L140.2,142.81L141.04,142.47L141.46,134.42L142.3,137.56L142.73,136.16L143.57,137.69L143.99,137.26L144.83,136.98L145.25,137.29L148.2,136.99L148.62,137.29L149.46,136.32L149.88,136.43L150.72,144.32L151.15,144.45L152.41,149.11L152.83,148.04L153.67,147.34L154.09,147.85L155.36,146.59L155.78,144.74L156.2,145.56L156.62,144.34L157.46,144.48L157.88,142.67L158.3,139.75L158.72,140.69L159.14,139.18L159.57,137.69L159.99,139.68L161.25,138.67L161.67,138.59L162.09,135.61L162.51,137.25L162.93,143.85L164.2,143.17L164.62,141.85L165.04,138.84L165.46,141.81L166.72,139.13L167.14,138.62L169.25,139.21L169.67,140.73L171.78,145.98L172.2,153.59L172.62,156.83L173.04,156.16L173.46,156.46L173.88,151.97L174.3,158.12L175.14,160.1L175.56,159.13L175.99,143.85L176.41,148.44L176.83,147.7L177.67,150.33L178.09,147.4L181.04,136.86L181.46,140.55L181.88,138.24L182.3,138.61L182.72,138.3L183.14,137.21L183.56,137.82L183.98,137.4L185.25,136.58L185.67,136.25L186.93,134.33L187.35,132.4L187.77,132.21L188.19,133.5L188.62,132.92L189.04,143.85L189.46,144.92L189.88,144.23L190.3,144.52L191.56,143.64L191.98,147.29L192.41,147.3L192.83,149.83L193.25,148.71L193.67,149.3L194.09,149.67L194.93,149.63L195.35,150.09L196.19,156.18L196.62,155.33L197.04,156.32L197.46,155.57L197.88,156.03L198.3,157.92L198.72,153.25L199.14,153.89L199.56,153.56L199.98,152.69L200.4,152.92L200.83,143.85L202.09,141.25L202.51,143.89L203.35,143.74L203.77,142.52L204.61,142.47L205.04,141.83L205.88,141.53L206.3,141.45L207.14,143.52L207.56,142.79L209.67,141.49L210.09,141.8L211.35,141.3L211.77,142.26L212.19,141.81L212.61,142.77L213.46,142.21L213.88,143.85L215.14,139.91L215.56,141.43L215.98,141.3L216.4,142.82L216.82,143.79L217.25,143.33L217.67,142.3L218.93,140.26L219.35,140.66L220.61,139.27L221.03,141.31L221.88,140.81L222.3,139.69L222.72,139.36L223.14,137.15L224.4,134.67L224.82,135.67L225.67,134.59L226.09,136.17L226.51,143.85L226.93,143.15L227.35,142.41L227.77,140.17L228.19,140.34L228.61,144.45L230.72,137.43L231.14,137.19L231.56,133.01L231.98,137.9L232.82,151.5L233.24,150.93L233.66,149.09L234.51,147.67L234.93,148.66L237.03,146.06L237.45,146.46L238.3,146.74L238.72,145.97L239.14,147.05L239.56,143.85L240.4,143.39L240.82,144.52L241.66,145.72L242.09,144.28L242.93,142.43L243.35,143.74L243.77,143.88L244.19,146L245.87,141.59L246.3,140.5L247.56,138.45L247.98,139.69L249.24,137.7L249.66,134.85L250.93,130.14L251.35,134.32L251.77,134.59L252.19,143.85L253.45,138.02L253.87,140.2L254.29,138.75L254.72,141.34L256.4,133.49L256.82,132.74L257.24,133.48L257.66,129.37L258.5,125.89L258.93,128.28L259.77,125.89L260.19,126.68L260.61,126.71L261.03,125.94L262.72,129.55L263.14,128.48L263.98,129.38L264.4,128.56L264.82,127.88L265.24,143.85L267.35,139.84L267.77,137.37L268.61,133.08L269.03,134.76L270.29,138.04L270.71,136.01L271.56,133.56L271.98,134.54L272.4,136.83L272.82,136.15L273.24,134.95L274.08,137.13L274.5,136.51L274.92,136.93L275.77,134.79L276.19,135.47L277.45,132.52L277.87,133.68L278.29,143.85L278.71,142.54L279.13,141.24L280.4,139.36L280.82,141.44L282.08,144.53L282.5,143.74L282.92,143.11L283.35,143.45L283.77,145.93L284.19,146.58L284.61,149.48L285.87,157.03L286.29,156.62L286.71,156.9L287.13,155.38L287.56,154.59L287.98,150.56L289.66,155.88L290.08,155.48L290.5,157.43L290.92,143.85L291.34,144.69L291.77,143.71L293.45,146.01L293.87,146.44L294.29,147.51L294.71,147.03L295.13,145.91L295.55,145.17L295.98,145.74L296.4,147.04L299.34,143.74L299.76,144.07L300.61,145.02L301.03,142.94L301.87,137.54L302.29,139.02L302.71,140.5L303.13,140.09L303.55,139.88L303.97,143.85L304.4,143.39L304.82,143.48L305.24,143.63L305.66,145.14L308.19,148.02L308.61,148.06L309.45,148.57L309.87,148.26L311.97,150.16L312.4,147.86L313.66,145.15L314.08,145.89L314.5,146.33L314.92,145.31L315.34,145.35L315.76,144.32L316.18,144.78L316.61,143.85L317.87,143.44L318.29,142.8L319.13,141.65L319.55,142.67L321.24,143.01L321.66,142.48L322.5,142.71L322.92,140.27L324.18,135.67L324.6,135.39L327.55,133.82L327.97,134.14L328.81,136.5L329.24,135.89L330.08,144.11L330.5,144.21L331.34,144.64L331.76,145.29L332.6,141.35L333.03,141.93L334.71,142.19L335.13,146.08L336.39,147.2L336.81,148.82L337.24,147.38L337.66,147.8L338.08,148.13L339.76,147.7L340.18,148.63L341.45,146.04L341.87,148.2L342.29,147.68L342.71,143.85L345.23,153.64L345.66,153.31L346.5,153.47L346.92,154.68L348.18,165.97L348.6,164.12L349.02,162.66L349.44,165.8L349.87,166.51L350.29,164.58L350.71,164.3L351.13,165.64L351.55,165.01L351.97,166.02L352.39,165.79L352.81,163.55L353.23,161.24L353.65,161.8L354.08,162.62L354.5,161.19L354.92,143.85L355.34,144.91L355.76,143.78L356.18,144.03L356.6,143.03L357.44,146.64L357.87,141.72L358.29,143.64L358.71,143.36L359.13,141.41L359.55,135.82L359.97,139.56L360.39,138.93L361.65,133.5L362.08,133.85L362.5,134.26L363.76,131.53L364.18,131.15L365.02,129.16L365.44,129.83L366.71,131.7L367.13,130.05L367.55,130.29L367.97,143.85L369.23,145.77L369.65,145.75L370.07,151.96L370.5,151.25L370.92,152.74L373.02,150.76L373.44,151.33L373.86,151.46L374.28,154.5L374.71,154.5L375.13,158.54L375.97,156.72L376.39,156.9L376.81,158.3L377.23,156.38L377.65,156.79L378.07,158.73L379.34,157.69L379.76,155.73L380.18,153.93L380.6,143.85L382.28,140.54L382.71,137.79L383.13,135.75L383.55,136.67L383.97,137.91L384.39,136.37L384.81,136.59L385.23,136.26L385.65,136.22L386.07,134.27L387.34,136.02L387.76,137.91L389.02,137.77L389.44,139.38L390.7,140.78L391.13,140.22L391.55,139.92L391.97,140.86L392.39,141.7L392.81,146.02L393.65,143.85L394.07,145.44L394.49,146.46L394.91,145.56L395.34,145.6L396.6,146.25L397.02,145.72L398.7,146.27L399.12,145.56L399.55,143.95L399.97,144.61L400.39,144.62L402.07,144.7L402.49,146.07L403.34,146.53L403.76,146.09L404.18,145.89L404.6,144.8L405.86,145.11L406.28,143.85L406.7,144.11L407.12,143.22L409.65,146.77L410.07,146.22L412.6,145.24L413.02,144.86L414.7,146.63L415.12,149.99L416.39,158.55L416.81,158.22L417.23,153.94L418.07,152.62L418.49,155.81L418.91,156.67L419.33,143.85L420.6,147.77L421.02,146.63L421.86,143.76L422.28,145.35L423.54,144.99L423.96,145.8L424.81,152.06L425.23,150.92L425.65,150.84L426.07,148.25L426.49,148.77L426.91,147.35L427.33,148.27L427.75,145.44L428.18,146.05L428.6,145.41L429.02,147.53L429.86,145.58L430.28,145.87L431.12,147.7L431.54,151.03L431.96,152.2L432.39,143.85L433.65,138.9L434.07,131.54L434.49,134.24L434.91,133.56L435.33,132.23L437.02,139.16L437.44,136.17L437.86,136.01L438.28,133.14L438.7,132.25L439.12,136.39L440.38,133.39L440.81,130.96L441.23,131L441.65,128.29L442.91,131.74L443.33,131.94L444.59,132.34L445.02,143.85L445.44,142.82L445.86,143.04L446.28,143.43L447.96,141.61L448.38,143.42L449.23,143.25L449.65,144.42L451.75,142.3L452.17,143.21L453.44,138.39L453.86,141.16L455.12,139.63L455.54,137.41L457.65,132.8L458.07,143.85L458.91,141.39L459.33,142.94L459.75,138.51L460.17,144.66L461.01,144.85L461.44,144.11L462.28,145.26L462.7,142.64L463.12,144.37L463.54,143.36L463.96,142.01L465.65,138.25L466.07,140.43L467.33,152.84L467.75,149.77L469.01,146.92L469.43,147.2L469.86,149.92L470.28,149.2L470.7,143.85L471.12,143.7L471.54,144.84L471.96,142.19L472.38,143.66L472.8,143.6L473.65,141.84L474.07,143.17L475.33,141.74L475.75,142.94L477.01,140.9L477.43,137.18L477.86,137.43L478.28,135.86L479.54,133.65L479.96,129.71L480.38,131.36L480.8,130.43L481.22,126.94L482.07,134.3L482.49,133.74L482.91,132.1L483.33,130.54L483.75,143.85L484.17,141.84L484.59,155.51L485.01,161.24L485.43,160.9L485.85,161.72L486.7,156.05L487.12,159.83L487.54,161.97L487.96,157.42L488.38,157.64L488.8,156.68L490.91,164.65L491.33,171.35L491.75,172.47L492.17,168.33L493.01,171.68L493.43,178.77L493.85,175.61L494.27,176.72L494.7,176L495.12,173.94L495.54,174.66L495.96,174.46L496.38,173.77L496.8,143.85L498.49,150.27L498.91,146.82L499.33,144.91L499.75,138.86L500.59,140.6L501.01,137.87L501.43,140.56L501.85,140.06L502.27,137.55L502.7,137.67L503.12,136.04L503.54,134.68L503.96,138.31L505.22,131.3L505.64,129.81L507.33,126.47L507.75,127.3L508.17,126.81L508.59,143.85L509.01,142.44L509.43,143.13L509.85,144.31L510.27,143.46L510.69,148.44L511.12,148.09L511.54,150.86L513.22,142.56L513.64,143.64L514.06,143.32L514.48,144.92L514.9,144.43L515.33,142.7L515.75,142.36L516.17,143.07L517.85,142.05L518.27,141.04L519.12,142.51L519.54,142.05L519.96,141.12L520.38,143.81L520.8,143.45L521.22,145.95L521.64,143.85L522.06,148.78L522.48,147.18L522.9,147.93L523.33,148.05L523.75,149.33L524.17,147.09L524.59,148.27L525.01,147.84L525.43,148.11L526.69,148.98L527.11,153.11L527.54,155.1L527.96,154.62L528.38,153.2L529.64,157.44L530.06,161.37L530.48,164.99L530.9,164.75L531.32,161.83L532.59,167.59L533.01,169.76L533.43,171.46L533.85,167.11L534.27,143.85L534.69,145.35L535.11,154.46L536.38,156.49L536.8,155.28L538.06,165.04L538.48,167.46L539.74,174.09L540.17,171L541.01,169.04L541.43,171.77L541.85,161.09L542.27,162.77L542.69,159.78L543.53,155.19L543.96,162.79L544.8,167.45L545.22,165.43L546.06,160.46L546.48,161.57L546.9,166.77L547.32,143.85L547.74,144.06L548.17,144.78L548.59,144.82L549.01,145.82L549.85,148.56L550.27,146.88L551.53,135.41L551.95,139.1L552.8,135.47L553.22,137.01L553.64,134.06L554.06,134.68L554.48,134.7L554.9,133.45L555.32,135.29L556.16,129.67L556.59,131.13L557.85,128.72L558.27,129.03L560.8,145.13L561.22,146.72L561.64,146.08L562.06,148.77L562.48,149.23L562.9,145.41L565.01,139.99L565.43,141.54L566.27,140.55L566.69,140.95L567.53,139.59L567.95,140.69L569.22,144.17L569.64,144.76L571.32,137.86L571.74,140.19L572.16,138.97L572.58,141.72L574.69,148.82L575.11,147.24L575.53,150.38L575.95,148.48L576.37,148.01L577.22,149.03L577.64,148.18L578.9,149.93L579.32,148.29L580.16,147.14L580.58,147.83L581.85,145.5L582.27,146.74L583.53,145.81L583.95,146.42L584.79,145.85L585.21,148.2L585.64,152.13L586.06,143.85L586.48,142.46L586.9,144.07L588.16,140.56L588.58,139.29L589,141.63L589.42,139.9L589.85,137.82L590.69,140.03L591.11,139.18L591.53,138.96L591.95,140.91L592.37,140.65L592.79,138.13L594.48,134.45L594.9,136.98L595.32,136.66L595.74,134.93L596.16,134.98L596.58,137.2L597.42,134.91L597.85,135.13L598.27,135.03L599.11,146.04L599.53,145.88L599.95,143.93L600.37,143.43L600.79,139.89L601.21,141.87L601.63,141.24L602.06,140.26L602.9,136.8L603.32,137.48L603.74,138L604.16,141.25L604.58,137.88L605,138.08L605.42,137.66L606.27,135.38L606.69,138.16L607.95,143.1L608.37,142.27L608.79,142.09L609.21,143.56L609.63,142.38L610.05,145.7L610.48,145.91L610.9,144.93L611.32,144.97L611.74,143.85L613,146.5L613.42,146.11L614.27,145.73L614.69,144.15L615.11,143.68L615.53,144.25L615.95,145.61L616.79,145L617.21,143.64L617.63,144.59L618.05,143.11L618.48,143.97L618.9,143.27L619.32,146.6L619.74,146.53L620.16,145.49L620.58,145.43L621,147.86L623.11,147.53L623.53,149.14L623.95,152.71L624.37,143.85L625.21,142.7L625.63,146.69L626.47,148.56L626.9,147.76L627.32,149.85L627.74,148.75L628.16,145.91L629,145.75L629.42,144.51L629.84,144.01L630.26,145.48L631.53,147.32L631.95,146.89L632.37,146.83L632.79,145.46L633.63,144.45L634.05,143.44L634.47,144.67L634.89,143.77L635.32,143.51L635.74,143.62L636.16,142.19L637,143.34" style="vector-effect: none; fill: none; stroke: rgb(31, 119, 180); stroke-opacity: 1; stroke-width: 2px; opacity: 1;"/></g><g class="points"/><g class="text"/></g><g class="trace scatter trace9e176741-c13e-4d96-9d89-4c0c33287ace" style="stroke-miterlimit: 2;"><g class="fills"/><g class="errorbars"/><g class="lines"><path class="js-line" d="M0,13.7L637,13.7" style="vector-effect: none; fill: none; stroke: rgb(255, 127, 14); stroke-opacity: 1; stroke-width: 2px; opacity: 1;"/></g><g class="points"/><g class="text"/></g></g></g><g class="overplot"/><path class="xlines-above crisp" d="M0,0" style="fill: none;"/><path class="ylines-above crisp" d="M0,0" style="fill: none;"/><g class="overlines-above"/><g class="xaxislayer-above"><g class="xtick"><text text-anchor="middle" x="0" y="333" transform="translate(55.31,0)" style="font-family: 'Open Sans', verdana, arial, sans-serif; font-size: 12px; fill: rgb(42, 63, 95); fill-opacity: 1; white-space: pre; opacity: 1;">Jan 2018</text></g><g class="xtick"><text text-anchor="middle" x="0" y="333" style="font-family: 'Open Sans', verdana, arial, sans-serif; font-size: 12px; fill: rgb(42, 63, 95); fill-opacity: 1; white-space: pre; opacity: 1;" transform="translate(131.51999999999998,0)">Jul 2018</text></g><g class="xtick"><text text-anchor="middle" x="0" y="333" style="font-family: 'Open Sans', verdana, arial, sans-serif; font-size: 12px; fill: rgb(42, 63, 95); fill-opacity: 1; white-space: pre; opacity: 1;" transform="translate(208.99,0)">Jan 2019</text></g><g class="xtick"><text text-anchor="middle" x="0" y="333" style="font-family: 'Open Sans', verdana, arial, sans-serif; font-size: 12px; fill: rgb(42, 63, 95); fill-opacity: 1; white-space: pre; opacity: 1;" transform="translate(285.19,0)">Jul 2019</text></g><g class="xtick"><text text-anchor="middle" x="0" y="333" style="font-family: 'Open Sans', verdana, arial, sans-serif; font-size: 12px; fill: rgb(42, 63, 95); fill-opacity: 1; white-space: pre; opacity: 1;" transform="translate(362.66,0)">Jan 2020</text></g><g class="xtick"><text text-anchor="middle" x="0" y="333" style="font-family: 'Open Sans', verdana, arial, sans-serif; font-size: 12px; fill: rgb(42, 63, 95); fill-opacity: 1; white-space: pre; opacity: 1;" transform="translate(439.28,0)">Jul 2020</text></g><g class="xtick"><text text-anchor="middle" x="0" y="333" style="font-family: 'Open Sans', verdana, arial, sans-serif; font-size: 12px; fill: rgb(42, 63, 95); fill-opacity: 1; white-space: pre; opacity: 1;" transform="translate(516.75,0)">Jan 2021</text></g><g class="xtick"><text text-anchor="middle" x="0" y="333" style="font-family: 'Open Sans', verdana, arial, sans-serif; font-size: 12px; fill: rgb(42, 63, 95); fill-opacity: 1; white-space: pre; opacity: 1;" transform="translate(592.95,0)">Jul 2021</text></g></g><g class="yaxislayer-above"><g class="ytick"><text text-anchor="end" x="32" y="4.199999999999999" transform="translate(0,320)" style="font-family: 'Open Sans', verdana, arial, sans-serif; font-size: 12px; fill: rgb(42, 63, 95); fill-opacity: 1; white-space: pre; opacity: 1;">0</text></g><g class="ytick"><text text-anchor="end" x="32" y="4.199999999999999" style="font-family: 'Open Sans', verdana, arial, sans-serif; font-size: 12px; fill: rgb(42, 63, 95); fill-opacity: 1; white-space: pre; opacity: 1;" transform="translate(0,267.94)">0.2</text></g><g class="ytick"><text text-anchor="end" x="32" y="4.199999999999999" style="font-family: 'Open Sans', verdana, arial, sans-serif; font-size: 12px; fill: rgb(42, 63, 95); fill-opacity: 1; white-space: pre; opacity: 1;" transform="translate(0,215.88)">0.4</text></g><g class="ytick"><text text-anchor="end" x="32" y="4.199999999999999" style="font-family: 'Open Sans', verdana, arial, sans-serif; font-size: 12px; fill: rgb(42, 63, 95); fill-opacity: 1; white-space: pre; opacity: 1;" transform="translate(0,163.82)">0.6</text></g><g class="ytick"><text text-anchor="end" x="32" y="4.199999999999999" style="font-family: 'Open Sans', verdana, arial, sans-serif; font-size: 12px; fill: rgb(42, 63, 95); fill-opacity: 1; white-space: pre; opacity: 1;" transform="translate(0,111.76)">0.8</text></g><g class="ytick"><text text-anchor="end" x="32" y="4.199999999999999" style="font-family: 'Open Sans', verdana, arial, sans-serif; font-size: 12px; fill: rgb(42, 63, 95); fill-opacity: 1; white-space: pre; opacity: 1;" transform="translate(0,59.7)">1</text></g></g><g class="overaxes-above"/></g></g><g class="polarlayer"/><g class="smithlayer"/><g class="ternarylayer"/><g class="geolayer"/><g class="funnelarealayer"/><g class="pielayer"/><g class="iciclelayer"/><g class="treemaplayer"/><g class="sunburstlayer"/><g class="glimages"/><defs id="topdefs-3197c8"><g class="clips"/><clipPath id="legend3197c8"><rect width="202" height="29" x="0" y="0"/></clipPath></defs><g class="layer-above"><g class="imagelayer"/><g class="shapelayer"/></g><g class="infolayer"><g class="legend" pointer-events="all" transform="translate(468,11.519999999999996)"><rect class="bg" shape-rendering="crispEdges" style="stroke: rgb(68, 68, 68); stroke-opacity: 1; fill: rgb(255, 255, 255); fill-opacity: 1; stroke-width: 0px;" width="202" height="29" x="0" y="0"/><g class="scrollbox" transform="" clip-path="url(#legend3197c8)"><g class="groups"><g class="traces" transform="translate(0,14.5)" style="opacity: 1;"><text class="legendtext" text-anchor="start" x="40" y="4.680000000000001" style="font-family: 'Open Sans', verdana, arial, sans-serif; font-size: 12px; fill: rgb(42, 63, 95); fill-opacity: 1; white-space: pre;">BTC-USD</text><g class="layers"><g class="legendfill"><path class="js-fill" d="M5,-2h30v6h-30z" style="stroke-width: 0; fill: rgb(31, 119, 180); fill-opacity: 0.5;"/></g><g class="legendlines"><path class="js-line" d="M5,-2h30" style="fill: none; stroke: rgb(31, 119, 180); stroke-opacity: 1; stroke-width: 2px;"/></g><g class="legendsymbols"><g class="legendpoints"/></g></g><rect class="legendtoggle" x="0" y="-9.5" width="98.1875" height="19" style="fill: rgb(0, 0, 0); fill-opacity: 0;"/></g><g class="traces" transform="translate(100.6875,14.5)" style="opacity: 1;"><text class="legendtext" text-anchor="start" x="40" y="4.680000000000001" style="font-family: 'Open Sans', verdana, arial, sans-serif; font-size: 12px; fill: rgb(42, 63, 95); fill-opacity: 1; white-space: pre;">ETH-USD</text><g class="layers"><g class="legendfill"><path class="js-fill" d="M5,-2h30v6h-30z" style="stroke-width: 0; fill: rgb(255, 127, 14); fill-opacity: 0.5;"/></g><g class="legendlines"><path class="js-line" d="M5,-2h30" style="fill: none; stroke: rgb(255, 127, 14); stroke-opacity: 1; stroke-width: 2px;"/></g><g class="legendsymbols"><g class="legendpoints"/></g></g><rect class="legendtoggle" x="0" y="-9.5" width="98.1875" height="19" style="fill: rgb(0, 0, 0); fill-opacity: 0;"/></g></g></g><rect class="scrollbar" rx="20" ry="3" width="0" height="0" style="fill: rgb(128, 139, 164); fill-opacity: 1;" x="0" y="0"/></g><g class="g-gtitle"/><g class="g-xtitle"/><g class="g-ytitle"/></g></svg>