<svg class="main-svg" xmlns="http://www.w3.org/2000/svg" xmlns:xlink="http://www.w3.org/1999/xlink" width="700" height="350" style="" viewBox="0 0 700 350"><rect x="0" y="0" width="700" height="350" style="fill: rgb(255, 255, 255); fill-opacity: 1;"/><defs id="defs-7ac14e"><g class="clips"><clipPath id="clip7ac14exyplot" class="plotclip"><rect width="637" height="274"/></clipPath><clipPath class="axesclip" id="clip7ac14ex"><rect x="33" y="0" width="637" height="350"/></clipPath><clipPath class="axesclip" id="clip7ac14ey"><rect x="0" y="46" width="700" height="274"/></clipPath><clipPath class="axesclip" id="clip7ac14exy"><rect x="33" y="46" width="637" height="274"/></clipPath></g><g class="gradients"/><g class="patterns"/></defs><g class="bglayer"><rect class="bg" x="33" y="46" width="637" height="274" style="fill: rgb(229, 236, 246); fill-opacity: 1; stroke-width: 0;"/></g><g class="layer-below"><g class="imagelayer"/><g class="shapelayer"/></g><g class="cartesianlayer"><g class="subplot xy"><g class="layer-subplot"><g class="shapelayer"/><g class="imagelayer"/></g><g class="minor-gridlayer"><g class="x"/><g class="y"/></g><g class="gridlayer"><g class="x"><path class="xgrid crisp" transform="translate(55.31,0)" d="M0,46v274" style="stroke: rgb(255, 255, 255); stroke-opacity: 1; stroke-width: 1px;"/><path class="xgrid crisp" transform="translate(131.51999999999998,0)" d="M0,46v274" style="stroke: rgb(255, 255, 255); stroke-opacity: 1; stroke-width: 1px;"/><path class="xgrid crisp" transform="translate(208.99,0)" d="M0,46v274" style="stroke: rgb(255, 255, 255); stroke-opacity: 1; stroke-width: 1px;"/><path class="xgrid crisp" transform="translate(285.19,0)" d="M0,46v274" style="stroke: rgb(255, 255, 255); stroke-opacity: 1; stroke-width: 1px;"/><path class="xgrid crisp" transform="translate(362.66,0)" d="M0,46v274" style="stroke: rgb(255, 255, 255); stroke-opacity: 1; stroke-width: 1px;"/><path class="xgrid crisp" transform="translate(439.28,0)" d="M0,46v274" style="stroke: rgb(255, 255, 255); stroke-opacity: 1; stroke-width: 1px;"/><path class="xgrid crisp" transform="translate(516.75,0)" d="M0,46v274" style="stroke: rgb(255, 255, 255); stroke-opacity: 1; stroke-width: 1px;"/><path class="xgrid crisp" transform="translate(592.95,0)" d="M0,46v274" style="stroke: rgb(255, 255, 255); stroke-opacity: 1; stroke-width: 1px;"/></g><g class="y"><path class="ygrid crisp" transform="translate(0,267.94)" d="M33,0h637" style="stroke: rgb(255, 255, 255); stroke-opacity: 1; stroke-width: 1px;"/><path class="ygrid crisp" transform="translate(0,215.88)" d="M33,0h637" style="stroke: rgb(255, 255, 255); stroke-opacity: 1; stroke-width: 1px;"/><path class="ygrid crisp" transform="translate(0,163.82)" d="M33,0h637" style="stroke: rgb(255, 255, 255); stroke-opacity: 1; stroke-width: 1px;"/><path class="ygrid crisp" transform="translate(0,111.76)" d="M33,0h637" style="stroke: rgb(255, 255, 255); stroke-opacity: 1; stroke-width: 1px;"/><path class="ygrid crisp" transform="translate(0,59.7)" d="M33,0h637" style="stroke: rgb(255, 255, 255); stroke-opacity: 1; stroke-width: 1px;"/></g></g><g class="zerolinelayer"><path class="yzl zl crisp" transform="translate(0,320)" d="M33,0h637" style="stroke: rgb(255, 255, 255); stroke-opacity: 1; stroke-width: 2px;"/></g><path class="xlines-below"/><path class="ylines-below"/><g class="overlines-below"/><g class="xaxislayer-below"/><g class="yaxislayer-below"/><g class="overaxes-below"/><g class="plot" transform="translate(33,46)" clip-path="url(#clip7ac14exyplot)"><g class="scatterlayer mlayer"><g class="trace scatter trace0c8f7dd9-ad66-497e-ad77-a0b6cfa30f32" style="stroke-miterlimit: 2;"><g class="fills"><g><path class="js-fill" d="M637,274L0,274L0,274L8.84,274L9.26,95.53L10.95,90.61L11.37,77.32L11.79,67.71L12.21,73.29L12.63,79.24L13.05,75.04L13.47,78L13.89,88.53L14.31,95.96L14.74,94.87L15.16,90.3L15.58,86.08L16,88.83L16.42,94.29L17.68,107.19L18.1,103.46L18.52,103.64L18.95,104.72L19.37,110.18L19.79,102.58L20.21,102.7L20.63,105.44L21.05,106.57L21.47,111.04L21.89,108.9L22.31,95.48L23.16,101.8L23.58,101.38L24,95.99L24.42,98.1L24.84,107.62L25.68,122.45L26.1,118.69L26.52,120.42L27.79,129.35L28.21,125.54L29.89,122.9L30.31,122.86L33.26,127.83L33.68,133.46L34.1,132.84L34.52,133.71L34.94,135.74L35.37,94.7L36.63,88.71L37.05,88.69L37.47,89.54L37.89,88.04L38.31,87.72L38.73,88.81L40.84,86.68L41.26,83.86L41.68,83.91L42.1,81.29L42.52,81.28L42.94,79.26L43.36,76.01L43.79,76.66L44.21,77.75L45.47,81.3L45.89,79.21L46.31,78.04L46.73,78.28L47.15,90.23L48.84,86.16L49.26,87.59L50.1,87.09L50.52,89.21L53.05,86.19L53.47,85.14L55.15,77.97L55.57,78.28L56,77.46L56.84,76.61L57.26,77.38L58.94,71.21L59.36,74L59.78,73.66L60.21,90.88L60.63,89.97L61.05,91.29L61.47,90.93L61.89,91.65L62.73,91.15L63.15,92.37L64.84,97.42L65.26,97.35L67.36,99.03L67.78,102.67L68.2,103.62L68.63,102.3L69.89,106.43L70.31,103.59L71.57,106.53L71.99,106.53L72.42,106.01L72.84,93.03L73.26,93.42L73.68,97.47L74.52,99.41L74.94,98.92L75.36,97.76L75.78,98.55L76.2,97.95L76.63,97.77L77.47,97.96L77.89,100.33L78.73,99.79L79.15,100.61L79.57,99.67L79.99,100.39L80.41,100.59L81.26,99.63L81.68,97.89L82.1,95.52L82.52,97.02L82.94,96.4L83.36,97.4L83.78,95.89L84.2,91.92L84.62,94.39L85.05,94.31L85.47,95.42L85.89,91.63L86.31,91.99L86.73,93.86L87.15,93.03L87.57,93.66L87.99,93.32L88.83,92.98L89.26,93.33L90.94,90.4L91.36,92.3L91.78,91.01L92.2,91.18L92.62,91.69L93.04,91.72L93.47,93.42L94.31,92.65L94.73,91.38L95.15,91.69L95.57,89.63L95.99,89.29L96.41,87.34L97.26,87.73L97.68,86.67L98.1,87.39L98.52,91.85L98.94,92.45L99.36,91.85L99.78,91.66L101.47,92.71L101.89,91.56L102.31,89.94L102.73,90.88L103.15,90.27L104.83,92.01L105.25,89.79L106.52,83.99L106.94,84.86L107.36,84.55L107.78,81.6L108.2,80.25L108.62,80.98L109.04,81.5L111.15,79.25L111.57,91.24L111.99,90.6L112.41,92.3L113.67,94.46L114.1,92.35L114.52,92.6L114.94,91.73L116.2,86.58L116.62,81.2L117.46,80.39L117.88,81.18L118.31,83.88L118.73,81.81L119.15,82.01L120.41,77.92L120.83,77.75L122.1,76.17L122.52,76.69L122.94,77.03L124.2,75.22L124.62,92.65L125.88,89.6L126.31,82.98L126.73,84.54L127.15,82.06L128.83,75.37L129.25,74.7L130.52,82.82L130.94,82.45L131.36,78.88L131.78,81.11L132.2,80.9L133.04,86.5L133.46,85.29L133.88,86.21L135.15,81.53L135.57,83.01L135.99,81.89L136.41,84.28L136.83,84.37L137.25,91.49L138.51,89.56L138.94,90.47L139.78,90.28L140.2,90.62L141.04,90.34L141.46,83.82L142.3,86.33L142.73,85.2L143.57,86.43L143.99,86.08L144.83,85.86L145.25,86.1L148.62,86.11L149.04,85.26L149.88,85.42L150.3,91.66L151.15,92.16L151.57,94.01L151.99,94.06L152.41,96.15L153.67,94.61L154.09,95.06L155.36,93.97L155.78,92.41L156.2,93.1L156.62,92.07L157.46,92.19L157.88,90.67L159.14,87.8L159.57,86.59L159.99,88.21L160.41,87.83L160.83,87.15L161.67,87.32L162.09,84.92L162.51,86.23L162.93,91.74L164.2,91.16L164.62,90.07L165.04,87.59L165.46,90.04L166.72,87.83L167.14,87.41L169.25,87.9L169.67,89.14L171.78,93.54L172.2,100.16L172.62,103.09L173.04,102.48L173.46,102.75L173.88,98.73L174.3,104.27L175.14,106.09L175.56,105.2L175.99,93.62L176.41,97.56L176.83,96.92L177.67,99.22L178.09,96.65L181.04,87.84L181.46,90.86L181.88,88.97L182.3,89.27L182.72,89.01L183.14,88.12L183.56,88.62L183.98,88.28L185.25,87.61L185.67,87.34L186.93,85.8L187.35,84.28L187.77,84.13L188.19,85.15L188.62,84.69L189.04,91.61L189.46,92.51L189.88,91.93L190.3,92.17L191.56,91.43L191.98,94.52L192.41,94.53L192.83,96.72L193.25,95.75L193.67,96.26L194.09,96.58L194.93,96.55L195.35,96.94L196.19,102.36L196.62,101.59L197.04,102.49L197.46,101.8L197.88,102.22L198.3,103.95L198.72,99.72L199.56,100L199.98,99.23L200.4,99.44L200.83,91.56L202.09,89.4L202.51,91.59L203.35,91.46L203.77,90.45L204.61,90.41L205.04,89.88L205.88,89.63L206.3,89.56L207.14,91.28L207.56,90.67L209.67,89.59L210.09,89.85L211.35,89.44L211.77,90.23L212.19,89.86L212.61,90.66L213.46,90.19L213.88,91.24L215.14,87.99L215.56,89.23L215.98,89.13L216.4,90.38L216.82,91.19L217.25,90.81L217.67,89.95L218.93,88.28L219.35,88.6L220.61,87.46L221.03,89.14L221.88,88.72L222.3,87.81L222.72,87.54L223.14,85.75L224.4,83.78L224.82,84.57L225.67,83.71L226.09,84.97L226.51,90.89L226.93,90.31L227.35,89.69L227.77,87.85L228.19,87.99L228.61,91.39L230.72,85.63L231.14,85.43L231.56,82.13L231.98,85.99L232.82,97.39L233.24,96.9L233.66,95.31L234.51,94.09L234.93,94.93L237.45,93.05L237.88,93.37L238.72,92.64L239.14,93.56L239.98,91.09L240.4,90.85L241.66,92.81L242.09,91.6L242.93,90.05L243.35,91.15L243.77,91.26L244.19,93.04L245.87,89.36L246.3,88.47L247.56,86.79L247.98,87.8L249.24,86.19L249.66,83.91L250.93,80.24L251.35,83.5L251.77,83.71L252.19,93.35L253.45,88.48L253.87,90.28L254.29,89.08L254.72,91.23L256.4,84.82L256.82,84.21L257.24,84.81L257.66,81.56L258.5,78.87L258.93,80.71L259.77,78.87L260.19,79.48L261.03,78.91L261.45,79.95L262.72,81.7L263.14,80.86L263.98,81.57L264.4,80.93L264.82,80.4L265.24,90.17L267.35,86.88L267.77,84.9L268.61,81.54L269.03,82.85L270.29,85.45L270.71,83.87L271.56,81.95L271.98,82.72L272.4,84.5L273.24,83.02L273.66,83.51L274.08,84.75L275.77,82.9L276.19,83.44L277.45,81.17L277.87,82.07L278.29,90.94L278.71,89.84L279.13,88.77L280.4,87.24L280.82,88.94L282.08,91.5L282.5,90.84L283.35,90.6L283.77,92.67L284.19,93.22L284.61,95.71L285.87,102.38L286.29,102.01L286.71,102.27L287.13,100.89L287.56,100.2L287.98,96.66L289.66,101.37L290.08,101.01L290.5,102.77L290.92,90.7L291.34,91.4L291.77,90.59L293.45,92.51L293.87,92.88L294.29,93.79L294.71,93.38L295.13,92.43L295.55,91.8L295.98,92.28L296.4,93.39L299.34,90.61L299.76,90.89L300.61,91.68L301.03,89.94L301.87,85.54L302.29,86.74L302.71,87.94L303.13,87.61L303.55,87.43L303.97,91.46L304.4,91.08L304.82,91.15L305.24,91.28L305.66,92.55L308.19,95L308.61,95.04L309.45,95.47L309.87,95.21L311.97,96.85L312.4,94.86L313.66,92.56L314.08,93.19L314.5,93.56L314.92,92.7L315.34,92.73L315.76,91.86L317.03,92.38L317.45,91.99L318.29,91.52L318.71,90.78L319.13,90.56L319.55,91.4L322.5,91.44L322.92,89.41L324.18,85.66L324.6,85.44L327.55,84.19L327.97,84.44L328.81,86.33L329.24,85.85L330.08,92.43L330.5,92.51L331.34,92.87L331.76,93.43L332.6,90.12L333.03,90.6L334.71,90.82L335.13,94.1L336.39,95.06L336.81,96.46L337.24,95.21L337.66,95.58L338.08,95.87L339.76,95.49L340.18,96.29L341.45,94.07L341.87,95.92L342.29,95.47L342.71,92.63L345.23,101.15L345.66,100.85L346.5,101L346.92,102.08L348.18,112.65L348.6,110.86L349.02,109.47L349.44,112.48L349.87,113.17L350.29,111.31L350.71,111.04L351.13,112.33L351.55,111.72L351.97,112.7L352.39,112.47L352.81,110.32L353.23,108.13L353.65,108.66L354.08,109.44L354.5,108.08L354.92,91.84L355.34,92.74L355.76,91.78L356.18,91.99L356.6,91.15L357.44,94.21L357.87,90.07L358.29,91.67L358.71,91.43L359.13,89.81L359.55,85.27L359.97,88.29L360.39,87.78L361.65,83.42L362.08,83.69L362.5,84.02L363.76,81.88L364.18,81.58L365.02,80.03L365.44,80.55L366.71,82L367.13,80.72L367.55,80.91L367.97,91.28L369.23,92.89L369.65,92.87L370.07,98.22L370.5,97.6L370.92,98.91L373.02,97.17L373.44,97.67L373.86,97.78L374.28,100.48L374.71,100.47L375.13,104.13L375.97,102.48L376.39,102.64L376.81,103.91L377.23,102.16L377.65,102.53L378.07,104.3L379.34,103.35L379.76,101.56L380.18,99.95L380.6,92.27L382.28,89.51L382.71,87.26L383.13,85.61L383.55,86.35L383.97,87.36L384.39,86.11L384.81,86.3L385.23,86.03L385.65,85.99L386.07,84.43L387.34,85.83L387.76,87.36L389.02,87.25L389.44,88.56L390.7,89.71L391.13,89.25L391.55,89L391.97,89.77L392.39,90.47L392.81,94.11L393.65,91.56L394.07,92.9L394.49,93.77L394.91,93.01L395.34,93.04L397.02,93.14L397.44,93.29L397.86,92.82L398.28,93.25L398.7,93.61L399.55,91.65L399.97,92.2L400.39,92.21L402.07,92.28L402.49,93.44L403.34,93.83L403.76,93.45L405.86,92.62L406.28,92.5L406.7,92.72L407.12,91.97L409.65,94.98L410.07,94.51L412.6,93.68L413.02,93.35L414.7,94.86L415.12,97.78L416.39,105.49L416.81,105.18L417.23,101.28L418.07,100.11L418.49,102.97L418.91,103.76L419.33,96.25L420.6,99.68L421.02,98.66L421.86,96.19L422.28,97.54L423.54,97.25L423.96,97.94L424.81,103.46L425.23,102.44L425.65,102.36L426.07,100.06L426.49,100.52L426.91,99.29L427.33,100.08L427.75,97.63L428.18,98.16L428.6,97.6L429.02,99.44L429.86,97.76L430.28,98.02L431.12,99.61L431.54,102.54L431.96,103.59L432.39,96.06L433.65,91.95L434.07,85.96L434.49,88.13L434.91,87.57L435.33,86.52L437.02,92.16L437.44,89.7L437.86,89.54L438.28,87.2L438.7,86.48L439.12,89.84L440.38,87.4L440.81,85.48L441.23,85.51L441.65,83.38L442.91,86.08L443.33,86.25L444.59,86.56L445.02,91.62L445.86,90.94L446.28,91.27L447.96,89.76L448.38,91.26L449.23,91.12L449.65,92.1L451.75,90.33L452.17,91.09L453.44,87.12L453.86,89.38L455.12,88.13L455.54,86.33L457.65,82.65L458.07,93.16L458.91,91.09L459.33,92.39L459.75,88.69L460.17,93.84L461.01,94.01L461.44,93.38L462.28,94.36L462.7,92.14L463.12,93.6L463.54,92.74L463.96,91.61L465.65,88.48L466.07,90.28L467.33,100.99L467.75,98.27L469.01,95.79L469.43,96.03L469.86,98.4L470.28,97.77L470.7,91.64L471.12,91.51L471.54,92.47L471.96,90.25L472.38,91.48L472.8,91.42L473.65,89.96L474.07,91.06L475.33,89.87L475.75,90.88L477.01,89.19L477.43,86.15L477.86,86.36L478.28,85.09L479.54,83.33L479.96,80.27L480.38,81.55L480.8,80.82L481.22,78.15L482.07,83.86L482.49,83.41L482.91,82.12L483.33,80.91L483.75,90.71L484.17,89.04L484.59,100.75L485.01,105.99L485.43,105.66L485.85,106.41L486.7,101.21L487.12,104.65L487.54,106.64L487.96,102.46L488.38,102.67L488.8,101.78L490.91,109.17L491.33,115.69L491.75,116.82L492.17,112.74L493.01,116.04L493.43,123.29L493.85,120.02L494.27,121.16L494.7,120.42L495.12,118.31L495.54,119.04L495.96,118.83L496.38,118.14L496.8,93.82L498.49,99.28L498.91,96.28L499.33,94.65L499.75,89.52L500.59,90.96L501.01,88.69L501.43,90.91L501.85,90.5L502.27,88.43L502.7,88.53L503.12,87.2L503.54,86.08L503.96,89.03L505.22,83.36L505.64,82.22L507.33,79.71L507.75,80.34L508.17,79.98L508.59,91.97L509.01,90.79L509.43,91.37L509.85,92.36L510.27,91.64L510.69,95.88L511.12,95.58L511.54,97.99L513.22,90.89L513.64,91.79L514.06,91.53L514.48,92.87L515.75,90.72L516.17,91.31L517.85,90.46L518.27,89.62L519.12,90.84L519.54,90.46L519.96,89.69L520.38,91.94L520.8,91.63L521.22,93.74L521.64,93.31L522.06,97.55L522.48,96.16L522.9,96.81L523.33,96.92L523.75,98.04L524.17,96.09L524.59,97.11L525.01,96.74L525.43,96.97L526.69,97.73L527.11,101.39L527.54,103.18L527.96,102.75L528.38,101.48L529.64,105.33L530.06,109L530.48,112.46L530.9,112.23L531.32,109.44L532.59,114.99L533.01,117.15L533.43,118.85L533.85,114.52L534.27,95.95L534.69,97.25L535.11,105.27L536.38,107.13L536.8,106.02L538.06,115.18L538.48,117.52L539.74,124.25L540.17,121.18L541.01,119.29L541.43,122.03L541.85,111.82L542.27,113.29L542.69,110.58L543.53,106.47L543.96,113.37L544.8,117.84L545.22,115.9L546.06,111.31L546.48,112.31L546.9,117.23L547.32,91.25L547.74,91.42L548.17,92.02L548.59,92.06L549.01,92.9L549.85,95.25L550.27,93.8L551.53,84.37L551.95,87.33L552.8,84.41L553.22,85.64L553.64,83.3L554.06,83.78L554.48,83.81L554.9,82.82L555.32,84.27L556.16,79.88L556.59,81.01L557.85,79.15L558.27,79.39L560.8,91.32L561.22,92.64L561.64,92.11L562.06,94.39L562.48,94.78L562.9,91.55L565.01,87.09L565.43,88.36L567.53,86.78L567.95,87.67L569.22,90.52L569.64,91L571.32,85.36L571.74,87.23L572.16,86.25L572.58,88.47L573.43,96.52L573.85,95.67L574.27,98.17L574.69,98.69L575.11,97.31L575.53,100.07L575.95,98.39L576.37,97.98L577.22,98.87L577.64,98.13L578.9,99.67L579.32,98.22L580.16,97.22L580.58,97.82L581.85,95.79L582.27,96.86L583.53,96.06L583.95,96.59L584.79,96.09L585.21,98.15L585.64,101.64L586.06,96.46L586.48,95.27L586.9,96.63L588.58,92.61L589,94.6L589.85,91.41L590.27,92L590.69,93.24L591.53,92.33L591.95,93.96L592.37,93.74L592.79,91.64L594.48,88.7L594.9,90.73L595.32,90.45L595.74,89.06L596.16,89.1L596.58,90.92L597.85,89.24L598.27,89.13L599.11,93.77L599.53,93.64L599.95,91.99L600.37,91.57L600.79,88.63L601.21,90.27L601.63,89.74L602.06,88.94L602.9,86.12L603.32,86.67L603.74,87.09L604.16,89.76L604.58,87L605,87.16L605.42,86.82L606.27,84.98L606.69,87.22L607.95,91.29L608.37,90.6L608.79,90.45L609.21,91.68L609.63,90.69L610.05,93.49L610.48,93.66L610.9,92.84L611.74,92.55L612.16,93.8L613.42,94.47L613.84,94.54L615.11,92.4L615.53,92.89L615.95,94.04L616.79,93.52L617.21,92.37L617.63,93.18L618.05,91.92L618.48,92.65L618.9,92.06L619.32,94.89L619.74,94.83L620.16,93.94L620.58,93.89L621,95.98L623.11,95.69L623.53,97.09L623.95,100.24L624.37,91.08L625.21,90.13L625.63,93.48L627.32,96.19L627.74,95.24L628.58,92.83L629,92.68L629.84,91.22L630.26,92.45L631.53,94.02L631.95,93.65L632.37,93.6L634.05,90.74L634.47,91.77L636.16,89.7L636.58,90.11L637,90.66" style="fill: rgb(31, 119, 180); fill-opacity: 0.5; stroke-width: 0;"/></g><g><path class="js-fill" d="M0,274L8.84,274L9.26,13.7L21.89,13.7L22.31,14.65L26.1,14.46L26.52,14.53L31.16,14.7L31.58,14.71L34.94,14.68L35.37,15.25L38.31,15.48L38.73,15.38L45.47,15.28L45.89,15.19L46.73,15.19L47.15,14.13L418.91,13.71L419.33,14.55L425.23,14.51L425.65,14.51L444.59,14.56L445.02,13.74L533.85,13.75L534.27,15.04L546.9,15.53L547.32,13.7L588.16,14.41L588.58,14.5L598.27,14.57L598.69,13.7L637,13.7L637,90.66L636.58,90.11L636.16,89.7L634.47,91.77L634.05,90.74L632.37,93.6L631.95,93.65L631.53,94.02L630.26,92.45L629.84,91.22L629,92.68L628.58,92.83L627.74,95.24L627.32,96.19L625.63,93.48L625.21,90.13L624.37,91.08L623.95,100.24L623.53,97.09L623.11,95.69L621,95.98L620.58,93.89L620.16,93.94L619.74,94.83L619.32,94.89L618.9,92.06L618.48,92.65L618.05,91.92L617.63,93.18L617.21,92.37L616.79,93.52L615.95,94.04L615.53,92.89L615.11,92.4L613.84,94.54L613.42,94.47L612.16,93.8L611.74,92.55L610.9,92.84L610.48,93.66L610.05,93.49L609.63,90.69L609.21,91.68L608.79,90.45L608.37,90.6L607.95,91.29L606.69,87.22L606.27,84.98L605.42,86.82L605,87.16L604.58,87L604.16,89.76L603.74,87.09L603.32,86.67L602.9,86.12L602.06,88.94L601.63,89.74L601.21,90.27L600.79,88.63L600.37,91.57L599.95,91.99L599.53,93.64L599.11,93.77L598.27,89.13L597.85,89.24L596.58,90.92L596.16,89.1L595.74,89.06L595.32,90.45L594.9,90.73L594.48,88.7L592.79,91.64L592.37,93.74L591.95,93.96L591.53,92.33L590.69,93.24L590.27,92L589.85,91.41L589,94.6L588.58,92.61L586.9,96.63L586.48,95.27L586.06,96.46L585.64,101.64L585.21,98.15L584.79,96.09L583.95,96.59L583.53,96.06L582.27,96.86L581.85,95.79L580.58,97.82L580.16,97.22L579.32,98.22L578.9,99.67L577.64,98.13L577.22,98.87L576.37,97.98L575.95,98.39L575.53,100.07L575.11,97.31L574.69,98.69L574.27,98.17L573.85,95.67L573.43,96.52L572.58,88.47L572.16,86.25L571.74,87.23L571.32,85.36L569.64,91L569.22,90.52L567.95,87.67L567.53,86.78L565.43,88.36L565.01,87.09L562.9,91.55L562.48,94.78L562.06,94.39L561.64,92.11L561.22,92.64L560.8,91.32L558.27,79.39L557.85,79.15L556.59,81.01L556.16,79.88L555.32,84.27L554.9,82.82L554.48,83.81L554.06,83.78L553.64,83.3L553.22,85.64L552.8,84.41L551.95,87.33L551.53,84.37L550.27,93.8L549.85,95.25L549.01,92.9L548.59,92.06L548.17,92.02L547.74,91.42L547.32,91.25L546.9,117.23L546.48,112.31L546.06,111.31L545.22,115.9L544.8,117.84L543.96,113.37L543.53,106.47L542.69,110.58L542.27,113.29L541.85,111.82L541.43,122.03L541.01,119.29L540.17,121.18L539.74,124.25L538.48,117.52L538.06,115.18L536.8,106.02L536.38,107.13L535.11,105.27L534.69,97.25L534.27,95.95L533.85,114.52L533.43,118.85L533.01,117.15L532.59,114.99L531.32,109.44L530.9,112.23L530.48,112.46L530.06,109L529.64,105.33L528.38,101.48L527.96,102.75L527.54,103.18L527.11,101.39L526.69,97.73L525.43,96.97L525.01,96.74L524.59,97.11L524.17,96.09L523.75,98.04L523.33,96.92L522.9,96.81L522.48,96.16L522.06,97.55L521.64,93.31L521.22,93.74L520.8,91.63L520.38,91.94L519.96,89.69L519.54,90.46L519.12,90.84L518.27,89.62L517.85,90.46L516.17,91.31L515.75,90.72L514.48,92.87L514.06,91.53L513.64,91.79L513.22,90.89L511.54,97.99L511.12,95.58L510.69,95.88L510.27,91.64L509.85,92.36L509.43,91.37L509.01,90.79L508.59,91.97L508.17,79.98L507.75,80.34L507.33,79.71L505.64,82.22L505.22,83.36L503.96,89.03L503.54,86.08L503.12,87.2L502.7,88.53L502.27,88.43L501.85,90.5L501.43,90.91L501.01,88.69L500.59,90.96L499.75,89.52L499.33,94.65L498.91,96.28L498.49,99.28L496.8,93.82L496.38,118.14L495.96,118.83L495.54,119.04L495.12,118.31L494.7,120.42L494.27,121.16L493.85,120.02L493.43,123.29L493.01,116.04L492.17,112.74L491.75,116.82L491.33,115.69L490.91,109.17L488.8,101.78L488.38,102.67L487.96,102.46L487.54,106.64L487.12,104.65L486.7,101.21L485.85,106.41L485.43,105.66L485.01,105.99L484.59,100.75L484.17,89.04L483.75,90.71L483.33,80.91L482.91,82.12L482.49,83.41L482.07,83.86L481.22,78.15L480.8,80.82L480.38,81.55L479.96,80.27L479.54,83.33L478.28,85.09L477.86,86.36L477.43,86.15L477.01,89.19L475.75,90.88L475.33,89.87L474.07,91.06L473.65,89.96L472.8,91.42L472.38,91.48L471.96,90.25L471.54,92.47L471.12,91.51L470.7,91.64L470.28,97.77L469.86,98.4L469.43,96.03L469.01,95.79L467.75,98.27L467.33,100.99L466.07,90.28L465.65,88.48L463.96,91.61L463.54,92.74L463.12,93.6L462.7,92.14L462.28,94.36L461.44,93.38L461.01,94.01L460.17,93.84L459.75,88.69L459.33,92.39L458.91,91.09L458.07,93.16L457.65,82.65L455.54,86.33L455.12,88.13L453.86,89.38L453.44,87.12L452.17,91.09L451.75,90.33L449.65,92.1L449.23,91.12L448.38,91.26L447.96,89.76L446.28,91.27L445.86,90.94L445.02,91.62L444.59,86.56L443.33,86.25L442.91,86.08L441.65,83.38L441.23,85.51L440.81,85.48L440.38,87.4L439.12,89.84L438.7,86.48L438.28,87.2L437.86,89.54L437.44,89.7L437.02,92.16L435.33,86.52L434.91,87.57L434.49,88.13L434.07,85.96L433.65,91.95L432.39,96.06L431.96,103.59L431.54,102.54L431.12,99.61L430.28,98.02L429.86,97.76L429.02,99.44L428.6,97.6L428.18,98.16L427.75,97.63L427.33,100.08L426.91,99.29L426.49,100.52L426.07,100.06L425.65,102.36L425.23,102.44L424.81,103.46L423.96,97.94L423.54,97.25L422.28,97.54L421.86,96.19L421.02,98.66L420.6,99.68L419.33,96.25L418.91,103.76L418.49,102.97L418.07,100.11L417.23,101.28L416.81,105.18L416.39,105.49L415.12,97.78L414.7,94.86L413.02,93.35L412.6,93.68L410.07,94.51L409.65,94.98L407.12,91.97L406.7,92.72L406.28,92.5L405.86,92.62L403.76,93.45L403.34,93.83L402.49,93.44L402.07,92.28L400.39,92.21L399.97,92.2L399.55,91.65L398.7,93.61L398.28,93.25L397.86,92.82L397.44,93.29L397.02,93.14L395.34,93.04L394.91,93.01L394.49,93.77L394.07,92.9L393.65,91.56L392.81,94.11L392.39,90.47L391.97,89.77L391.55,89L391.13,89.25L390.7,89.71L389.44,88.56L389.02,87.25L387.76,87.36L387.34,85.83L386.07,84.43L385.65,85.99L385.23,86.03L384.81,86.3L384.39,86.11L383.97,87.36L383.55,86.35L383.13,85.61L382.71,87.26L382.28,89.51L380.6,92.27L380.18,99.95L379.76,101.56L379.34,103.35L378.07,104.3L377.65,102.53L377.23,102.16L376.81,103.91L376.39,102.64L375.97,102.48L375.13,104.13L374.71,100.47L374.28,100.48L373.86,97.78L373.44,97.67L373.02,97.17L370.92,98.91L370.5,97.6L370.07,98.22L369.65,92.87L369.23,92.89L367.97,91.28L367.55,80.91L367.13,80.72L366.71,82L365.44,80.55L365.02,80.03L364.18,81.58L363.76,81.88L362.5,84.02L362.08,83.69L361.65,83.42L360.39,87.78L359.97,88.29L359.55,85.27L359.13,89.81L358.71,91.43L358.29,91.67L357.87,90.07L357.44,94.21L356.6,91.15L356.18,91.99L355.76,91.78L355.34,92.74L354.92,91.84L354.5,108.08L354.08,109.44L353.65,108.66L353.23,108.13L352.81,110.32L352.39,112.47L351.97,112.7L351.55,111.72L351.13,112.33L350.71,111.04L350.29,111.31L349.87,113.17L349.44,112.48L349.02,109.47L348.6,110.86L348.18,112.65L346.92,102.08L346.5,101L345.66,100.85L345.23,101.15L342.71,92.63L342.29,95.47L341.87,95.92L341.45,94.07L340.18,96.29L339.76,95.49L338.08,95.87L337.66,95.58L337.24,95.21L336.81,96.46L336.39,95.06L335.13,94.1L334.71,90.82L333.03,90.6L332.6,90.12L331.76,93.43L331.34,92.87L330.5,92.51L330.08,92.43L329.24,85.85L328.81,86.33L327.97,84.44L327.55,84.19L324.6,85.44L324.18,85.66L322.92,89.41L322.5,91.44L319.55,91.4L319.13,90.56L318.71,90.78L318.29,91.52L317.45,91.99L317.03,92.38L315.76,91.86L315.34,92.73L314.92,92.7L314.5,93.56L314.08,93.19L313.66,92.56L312.4,94.86L311.97,96.85L309.87,95.21L309.45,95.47L308.61,95.04L308.19,95L305.66,92.55L305.24,91.28L304.82,91.15L304.4,91.08L303.97,91.46L303.55,87.43L303.13,87.61L302.71,87.94L302.29,86.74L301.87,85.54L301.03,89.94L300.61,91.68L299.76,90.89L299.34,90.61L296.4,93.39L295.98,92.28L295.55,91.8L295.13,92.43L294.71,93.38L294.29,93.79L293.87,92.88L293.45,92.51L291.77,90.59L291.34,91.4L290.92,90.7L290.5,102.77L290.08,101.01L289.66,101.37L287.98,96.66L287.56,100.2L287.13,100.89L286.71,102.27L286.29,102.01L285.87,102.38L284.61,95.71L284.19,93.22L283.77,92.67L283.35,90.6L282.5,90.84L282.08,91.5L280.82,88.94L280.4,87.24L279.13,88.77L278.71,89.84L278.29,90.94L277.87,82.07L277.45,81.17L276.19,83.44L275.77,82.9L274.08,84.75L273.66,83.51L273.24,83.02L272.4,84.5L271.98,82.72L271.56,81.95L270.71,83.87L270.29,85.45L269.03,82.85L268.61,81.54L267.77,84.9L267.35,86.88L265.24,90.17L264.82,80.4L264.4,80.93L263.98,81.57L263.14,80.86L262.72,81.7L261.45,79.95L261.03,78.91L260.19,79.48L259.77,78.87L258.93,80.71L258.5,78.87L257.66,81.56L257.24,84.81L256.82,84.21L256.4,84.82L254.72,91.23L254.29,89.08L253.87,90.28L253.45,88.48L252.19,93.35L251.77,83.71L251.35,83.5L250.93,80.24L249.66,83.91L249.24,86.19L247.98,87.8L247.56,86.79L246.3,88.47L245.87,89.36L244.19,93.04L243.77,91.26L243.35,91.15L242.93,90.05L242.09,91.6L241.66,92.81L240.4,90.85L239.98,91.09L239.14,93.56L238.72,92.64L237.88,93.37L237.45,93.05L234.93,94.93L234.51,94.09L233.66,95.31L233.24,96.9L232.82,97.39L231.98,85.99L231.56,82.13L231.14,85.43L230.72,85.63L228.61,91.39L228.19,87.99L227.77,87.85L227.35,89.69L226.93,90.31L226.51,90.89L226.09,84.97L225.67,83.71L224.82,84.57L224.4,83.78L223.14,85.75L222.72,87.54L222.3,87.81L221.88,88.72L221.03,89.14L220.61,87.46L219.35,88.6L218.93,88.28L217.67,89.95L217.25,90.81L216.82,91.19L216.4,90.38L215.98,89.13L215.56,89.23L215.14,87.99L213.88,91.24L213.46,90.19L212.61,90.66L212.19,89.86L211.77,90.23L211.35,89.44L210.09,89.85L209.67,89.59L207.56,90.67L207.14,91.28L206.3,89.56L205.88,89.63L205.04,89.88L204.61,90.41L203.77,90.45L203.35,91.46L202.51,91.59L202.09,89.4L200.83,91.56L200.4,99.44L199.98,99.23L199.56,100L198.72,99.72L198.3,103.95L197.88,102.22L197.46,101.8L197.04,102.49L196.62,101.59L196.19,102.36L195.35,96.94L194.93,96.55L194.09,96.58L193.67,96.26L193.25,95.75L192.83,96.72L192.41,94.53L191.98,94.52L191.56,91.43L190.3,92.17L189.88,91.93L189.46,92.51L189.04,91.61L188.62,84.69L188.19,85.15L187.77,84.13L187.35,84.28L186.93,85.8L185.67,87.34L185.25,87.61L183.98,88.28L183.56,88.62L183.14,88.12L182.72,89.01L182.3,89.27L181.88,88.97L181.46,90.86L181.04,87.84L178.09,96.65L177.67,99.22L176.83,96.92L176.41,97.56L175.99,93.62L175.56,105.2L175.14,106.09L174.3,104.27L173.88,98.73L173.46,102.75L173.04,102.48L172.62,103.09L172.2,100.16L171.78,93.54L169.67,89.14L169.25,87.9L167.14,87.41L166.72,87.83L165.46,90.04L165.04,87.59L164.62,90.07L164.2,91.16L162.93,91.74L162.51,86.23L162.09,84.92L161.67,87.32L160.83,87.15L160.41,87.83L159.99,88.21L159.57,86.59L159.14,87.8L157.88,90.67L157.46,92.19L156.62,92.07L156.2,93.1L155.78,92.41L155.36,93.97L154.09,95.06L153.67,94.61L152.41,96.15L151.99,94.06L151.57,94.01L151.15,92.16L150.3,91.66L149.88,85.42L149.04,85.26L148.62,86.11L145.25,86.1L144.83,85.86L143.99,86.08L143.57,86.43L142.73,85.2L142.3,86.33L141.46,83.82L141.04,90.34L140.2,90.62L139.78,90.28L138.94,90.47L138.51,89.56L137.25,91.49L136.83,84.37L136.41,84.28L135.99,81.89L135.57,83.01L135.15,81.53L133.88,86.21L133.46,85.29L133.04,86.5L132.2,80.9L131.78,81.11L131.36,78.88L130.94,82.45L130.52,82.82L129.25,74.7L128.83,75.37L127.15,82.06L126.73,84.54L126.31,82.98L125.88,89.6L124.62,92.65L124.2,75.22L122.94,77.03L122.52,76.69L122.1,76.17L120.83,77.75L120.41,77.92L119.15,82.01L118.73,81.81L118.31,83.88L117.88,81.18L117.46,80.39L116.62,81.2L116.2,86.58L114.94,91.73L114.52,92.6L114.1,92.35L113.67,94.46L112.41,92.3L111.99,90.6L111.57,91.24L111.15,79.25L109.04,81.5L108.62,80.98L108.2,80.25L107.78,81.6L107.36,84.55L106.94,84.86L106.52,83.99L105.25,89.79L104.83,92.01L103.15,90.27L102.73,90.88L102.31,89.94L101.89,91.56L101.47,92.71L99.78,91.66L99.36,91.85L98.94,92.45L98.52,91.85L98.1,87.39L97.68,86.67L97.26,87.73L96.41,87.34L95.99,89.29L95.57,89.63L95.15,91.69L94.73,91.38L94.31,92.65L93.47,93.42L93.04,91.72L92.62,91.69L92.2,91.18L91.78,91.01L91.36,92.3L90.94,90.4L89.26,93.33L88.83,92.98L87.99,93.32L87.57,93.66L87.15,93.03L86.73,93.86L86.31,91.99L85.89,91.63L85.47,95.42L85.05,94.31L84.62,94.39L84.2,91.92L83.78,95.89L83.36,97.4L82.94,96.4L82.52,97.02L82.1,95.52L81.68,97.89L81.26,99.63L80.41,100.59L79.99,100.39L79.57,99.67L79.15,100.61L78.73,99.79L77.89,100.33L77.47,97.96L76.63,97.77L76.2,97.95L75.78,98.55L75.36,97.76L74.94,98.92L74.52,99.41L73.68,97.47L73.26,93.42L72.84,93.03L72.42,106.01L71.99,106.53L71.57,106.53L70.31,103.59L69.89,106.43L68.63,102.3L68.2,103.62L67.78,102.67L67.36,99.03L65.26,97.35L64.84,97.42L63.15,92.37L62.73,91.15L61.89,91.65L61.47,90.93L61.05,91.29L60.63,89.97L60.21,90.88L59.78,73.66L59.36,74L58.94,71.21L57.26,77.38L56.84,76.61L56,77.46L55.57,78.28L55.15,77.97L53.47,85.14L53.05,86.19L50.52,89.21L50.1,87.09L49.26,87.59L48.84,86.16L47.15,90.23L46.73,78.28L46.31,78.04L45.89,79.21L45.47,81.3L44.21,77.75L43.79,76.66L43.36,76.01L42.94,79.26L42.52,81.28L42.1,81.29L41.68,83.91L41.26,83.86L40.84,86.68L38.73,88.81L38.31,87.72L37.89,88.04L37.47,89.54L37.05,88.69L36.63,88.71L35.37,94.7L34.94,135.74L34.52,133.71L34.1,132.84L33.68,133.46L33.26,127.83L30.31,122.86L29.89,122.9L28.21,125.54L27.79,129.35L26.52,120.42L26.1,118.69L25.68,122.45L24.84,107.62L24.42,98.1L24,95.99L23.58,101.38L23.16,101.8L22.31,95.48L21.89,108.9L21.47,111.04L21.05,106.57L20.63,105.44L20.21,102.7L19.79,102.58L19.37,110.18L18.95,104.72L18.52,103.64L18.1,103.46L17.68,107.19L16.42,94.29L16,88.83L15.58,86.08L15.16,90.3L14.74,94.87L14.31,95.96L13.89,88.53L13.47,78L13.05,75.04L12.63,79.24L12.21,73.29L11.79,67.71L11.37,77.32L10.95,90.61L9.26,95.53L8.84,274L0,274Z" style="fill: rgb(255, 127, 14); fill-opacity: 0.5; stroke-width: 0;"/></g></g><g class="errorbars"/><g class="lines"><path class="js-line" d="M0,274L8.84,274L9.26,95.53L10.95,90.61L11.37,77.32L11.79,67.71L12.21,73.29L12.63,79.24L13.05,75.04L13.47,78L13.89,88.53L14.31,95.96L14.74,94.87L15.16,90.3L15.58,86.08L16,88.83L16.42,94.29L17.68,107.19L18.1,103.46L18.52,103.64L18.95,104.72L19.37,110.18L19.79,102.58L20.21,102.7L20.63,105.44L21.05,106.57L21.47,111.04L21.89,108.9L22.31,95.48L23.16,101.8L23.58,101.38L24,95.99L24.42,98.1L24.84,107.62L25.68,122.45L26.1,118.69L26.52,120.42L27.79,129.35L28.21,125.54L29.89,122.9L30.31,122.86L33.26,127.83L33.68,133.46L34.1,132.84L34.52,133.71L34.94,135.74L35.37,94.7L36.63,88.71L37.05,88.69L37.47,89.54L37.89,88.04L38.31,87.72L38.73,88.81L40.84,86.68L41.26,83.86L41.68,83.91L42.1,81.29L42.52,81.28L42.94,79.26L43.36,76.01L43.79,76.66L44.21,77.75L45.47,81.3L45.89,79.21L46.31,78.04L46.73,78.28L47.15,90.23L48.84,86.16L49.26,87.59L50.1,87.09L50.52,89.21L53.05,86.19L53.47,85.14L55.15,77.97L55.57,78.28L56,77.46L56.84,76.61L57.26,77.38L58.94,71.21L59.36,74L59.78,73.66L60.21,90.88L60.63,89.97L61.05,91.29L61.47,90.93L61.89,91.65L62.73,91.15L63.15,92.37L64.84,97.42L65.26,97.35L67.36,99.03L67.78,102.67L68.2,103.62L68.63,102.3L69.89,106.43L70.31,103.59L71.57,106.53L71.99,106.53L72.42,106.01L72.84,93.03L73.26,93.42L73.68,97.47L74.52,99.41L74.94,98.92L75.36,97.76L75.78,98.55L76.2,97.95L76.63,97.77L77.47,97.96L77.89,100.33L78.73,99.79L79.15,100.61L79.57,99.67L79.99,100.39L80.41,100.59L81.26,99.63L81.68,97.89L82.1,95.52L82.52,97.02L82.94,96.4L83.36,97.4L83.78,95.89L84.2,91.92L84.62,94.39L85.05,94.31L85.47,95.42L85.89,91.63L86.31,91.99L86.73,93.86L87.15,93.03L87.57,93.66L87.99,93.32L88.83,92.98L89.26,93.33L90.94,90.4L91.36,92.3L91.78,91.01L92.2,91.18L92.62,91.69L93.04,91.72L93.47,93.42L94.31,92.65L94.73,91.38L95.15,91.69L95.57,89.63L95.99,89.29L96.41,87.34L97.26,87.73L97.68,86.67L98.1,87.39L98.52,91.85L98.94,92.45L99.36,91.85L99.78,91.66L101.47,92.71L101.89,91.56L102.31,89.94L102.73,90.88L103.15,90.27L104.83,92.01L105.25,89.79L106.52,83.99L106.94,84.86L107.36,84.55L107.78,81.6L108.2,80.25L108.62,80.98L109.04,81.5L111.15,79.25L111.57,91.24L111.99,90.6L112.41,92.3L113.67,94.46L114.1,92.35L114.52,92.6L114.94,91.73L116.2,86.58L116.62,81.2L117.46,80.39L117.88,81.18L118.31,83.88L118.73,81.81L119.15,82.01L120.41,77.92L120.83,77.75L122.1,76.17L122.52,76.69L122.94,77.03L124.2,75.22L124.62,92.65L125.88,89.6L126.31,82.98L126.73,84.54L127.15,82.06L128.83,75.37L129.25,74.7L130.52,82.82L130.94,82.45L131.36,78.88L131.78,81.11L132.2,80.9L133.04,86.5L133.46,85.29L133.88,86.21L135.15,81.53L135.57,83.01L135.99,81.89L136.41,84.28L136.83,84.37L137.25,91.49L138.51,89.56L138.94,90.47L139.78,90.28L140.2,90.62L141.04,90.34L141.46,83.82L142.3,86.33L142.73,85.2L143.57,86.43L143.99,86.08L144.83,85.86L145.25,86.1L148.62,86.11L149.04,85.26L149.88,85.42L150.3,91.66L151.15,92.16L151.57,94.01L151.99,94.06L152.41,96.15L153.67,94.61L154.09,95.06L155.36,93.97L155.78,92.41L156.2,93.1L156.62,92.07L157.46,92.19L157.88,90.67L159.14,87.8L159.57,86.59L159.99,88.21L160.41,87.83L160.83,87.15L161.67,87.32L162.09,84.92L162.51,86.23L162.93,91.74L164.2,91.16L164.62,90.07L165.04,87.59L165.46,90.04L166.72,87.83L167.14,87.41L169.25,87.9L169.67,89.14L171.78,93.54L172.2,100.16L172.62,103.09L173.04,102.48L173.46,102.75L173.88,98.73L174.3,104.27L175.14,106.09L175.56,105.2L175.99,93.62L176.41,97.56L176.83,96.92L177.67,99.22L178.09,96.65L181.04,87.84L181.46,90.86L181.88,88.97L182.3,89.27L182.72,89.01L183.14,88.12L183.56,88.62L183.98,88.28L185.25,87.61L185.67,87.34L186.93,85.8L187.35,84.28L187.77,84.13L188.19,85.15L188.62,84.69L189.04,91.61L189.46,92.51L189.88,91.93L190.3,92.17L191.56,91.43L191.98,94.52L192.41,94.53L192.83,96.72L193.25,95.75L193.67,96.26L194.09,96.58L194.93,96.55L195.35,96.94L196.19,102.36L196.62,101.59L197.04,102.49L197.46,101.8L197.88,102.22L198.3,103.95L198.72,99.72L199.56,100L199.98,99.23L200.4,99.44L200.83,91.56L202.09,89.4L202.51,91.59L203.35,91.46L203.77,90.45L204.61,90.41L205.04,89.88L205.88,89.63L206.3,89.56L207.14,91.28L207.56,90.67L209.67,89.59L210.09,89.85L211.35,89.44L211.77,90.23L212.19,89.86L212.61,90.66L213.46,90.19L213.88,91.24L215.14,87.99L215.56,89.23L215.98,89.13L216.4,90.38L216.82,91.19L217.25,90.81L217.67,89.95L218.93,88.28L219.35,88.6L220.61,87.46L221.03,89.14L221.88,88.72L222.3,87.81L222.72,87.54L223.14,85.75L224.4,83.78L224.82,84.57L225.67,83.71L226.09,84.97L226.51,90.89L226.93,90.31L227.35,89.69L227.77,87.85L228.19,87.99L228.61,91.39L230.72,85.63L231.14,85.43L231.56,82.13L231.98,85.99L232.82,97.39L233.24,96.9L233.66,95.31L234.51,94.09L234.93,94.93L237.45,93.05L237.88,93.37L238.72,92.64L239.14,93.56L239.98,91.09L240.4,90.85L241.66,92.81L242.09,91.6L242.93,90.05L243.35,91.15L243.77,91.26L244.19,93.04L245.87,89.36L246.3,88.47L247.56,86.79L247.98,87.8L249.24,86.19L249.66,83.91L250.93,80.24L251.35,83.5L251.77,83.71L252.19,93.35L253.45,88.48L253.87,90.28L254.29,89.08L254.72,91.23L256.4,84.82L256.82,84.21L257.24,84.81L257.66,81.56L258.5,78.87L258.93,80.71L259.77,78.87L260.19,79.48L261.03,78.91L261.45,79.95L262.72,81.7L263.14,80.86L263.98,81.57L264.4,80.93L264.82,80.4L265.24,90.17L267.35,86.88L267.77,84.9L268.61,81.54L269.03,82.85L270.29,85.45L270.71,83.87L271.56,81.95L271.98,82.72L272.4,84.5L273.24,83.02L273.66,83.51L274.08,84.75L275.77,82.9L276.19,83.44L277.45,81.17L277.87,82.07L278.29,90.94L278.71,89.84L279.13,88.77L280.4,87.24L280.82,88.94L282.08,91.5L282.5,90.84L283.35,90.6L283.77,92.67L284.19,93.22L284.61,95.71L285.87,102.38L286.29,102.01L286.71,102.27L287.13,100.89L287.56,100.2L287.98,96.66L289.66,101.37L290.08,101.01L290.5,102.77L290.92,90.7L291.34,91.4L291.77,90.59L293.45,92.51L293.87,92.88L294.29,93.79L294.71,93.38L295.13,92.43L295.55,91.8L295.98,92.28L296.4,93.39L299.34,90.61L299.76,90.89L300.61,91.68L301.03,89.94L301.87,85.54L302.29,86.74L302.71,87.94L303.13,87.61L303.55,87.43L303.97,91.46L304.4,91.08L304.82,91.15L305.24,91.28L305.66,92.55L308.19,95L308.61,95.04L309.45,95.47L309.87,95.21L311.97,96.85L312.4,94.86L313.66,92.56L314.08,93.19L314.5,93.56L314.92,92.7L315.34,92.73L315.76,91.86L317.03,92.38L317.45,91.99L318.29,91.52L318.71,90.78L319.13,90.56L319.55,91.4L322.5,91.44L322.92,89.41L324.18,85.66L324.6,85.44L327.55,84.19L327.97,84.44L328.81,86.33L329.24,85.85L330.08,92.43L330.5,92.51L331.34,92.87L331.76,93.43L332.6,90.12L333.03,90.6L334.71,90.82L335.13,94.1L336.39,95.06L336.81,96.46L337.24,95.21L337.66,95.58L338.08,95.87L339.76,95.49L340.18,96.29L341.45,94.07L341.87,95.92L342.29,95.47L342.71,92.63L345.23,101.15L345.66,100.85L346.5,101L346.92,102.08L348.18,112.65L348.6,110.86L349.02,109.47L349.44,112.48L349.87,113.17L350.29,111.31L350.71,111.04L351.13,112.33L351.55,111.72L351.97,112.7L352.39,112.47L352.81,110.32L353.23,108.13L353.65,108.66L354.08,109.44L354.5,108.08L354.92,91.84L355.34,92.74L355.76,91.78L356.18,91.99L356.6,91.15L357.44,94.21L357.87,90.07L358.29,91.67L358.71,91.43L359.13,89.81L359.55,85.27L359.97,88.29L360.39,87.78L361.65,83.42L362.08,83.69L362.5,84.02L363.76,81.88L364.18,81.58L365.02,80.03L365.44,80.55L366.71,82L367.13,80.72L367.55,80.91L367.97,91.28L369.23,92.89L369.65,92.87L370.07,98.22L370.5,97.6L370.92,98.91L373.02,97.17L373.44,97.67L373.86,97.78L374.28,100.48L374.71,100.47L375.13,104.13L375.97,102.48L376.39,102.64L376.81,103.91L377.23,102.16L377.65,102.53L378.07,104.3L379.34,103.35L379.76,101.56L380.18,99.95L380.6,92.27L382.28,89.51L382.71,87.26L383.13,85.61L383.55,86.35L383.97,87.36L384.39,86.11L384.81,86.3L385.23,86.03L385.65,85.99L386.07,84.43L387.34,85.83L387.76,87.36L389.02,87.25L389.44,88.56L390.7,89.71L391.13,89.25L391.55,89L391.97,89.77L392.39,90.47L392.81,94.11L393.65,91.56L394.07,92.9L394.49,93.77L394.91,93.01L395.34,93.04L397.02,93.14L397.44,93.29L397.86,92.82L398.28,93.25L398.7,93.61L399.55,91.65L399.97,92.2L400.39,92.21L402.07,92.28L402.49,93.44L403.34,93.83L403.76,93.45L405.86,92.62L406.28,92.5L406.7,92.72L407.12,91.97L409.65,94.98L410.07,94.51L412.6,93.68L413.02,93.35L414.7,94.86L415.12,97.78L416.39,105.49L416.81,105.18L417.23,101.28L418.07,100.11L418.49,102.97L418.91,103.76L419.33,96.25L420.6,99.68L421.02,98.66L421.86,96.19L422.28,97.54L423.54,97.25L423.96,97.94L424.81,103.46L425.23,102.44L425.65,102.36L426.07,100.06L426.49,100.52L426.91,99.29L427.33,100.08L427.75,97.63L428.18,98.16L428.6,97.6L429.02,99.44L429.86,97.76L430.28,98.02L431.12,99.61L431.54,102.54L431.96,103.59L432.39,96.06L433.65,91.95L434.07,85.96L434.49,88.13L434.91,87.57L435.33,86.52L437.02,92.16L437.44,89.7L437.86,89.54L438.28,87.2L438.7,86.48L439.12,89.84L440.38,87.4L440.81,85.48L441.23,85.51L441.65,83.38L442.91,86.08L443.33,86.25L444.59,86.56L445.02,91.62L445.86,90.94L446.28,91.27L447.96,89.76L448.38,91.26L449.23,91.12L449.65,92.1L451.75,90.33L452.17,91.09L453.44,87.12L453.86,89.38L455.12,88.13L455.54,86.33L457.65,82.65L458.07,93.16L458.91,91.09L459.33,92.39L459.75,88.69L460.17,93.84L461.01,94.01L461.44,93.38L462.28,94.36L462.7,92.14L463.12,93.6L463.54,92.74L463.96,91.61L465.65,88.48L466.07,90.28L467.33,100.99L467.75,98.27L469.01,95.79L469.43,96.03L469.86,98.4L470.28,97.77L470.7,91.64L471.12,91.51L471.54,92.47L471.96,90.25L472.38,91.48L472.8,91.42L473.65,89.96L474.07,91.06L475.33,89.87L475.75,90.88L477.01,89.19L477.43,86.15L477.86,86.36L478.28,85.09L479.54,83.33L479.96,80.27L480.38,81.55L480.8,80.82L481.22,78.15L482.07,83.86L482.49,83.41L482.91,82.12L483.33,80.91L483.75,90.71L484.17,89.04L484.59,100.75L485.01,105.99L485.43,105.66L485.85,106.41L486.7,101.21L487.12,104.65L487.54,106.64L487.96,102.46L488.38,102.67L488.8,101.78L490.91,109.17L491.33,115.69L491.75,116.82L492.17,112.74L493.01,116.04L493.43,123.29L493.85,120.02L494.27,121.16L494.7,120.42L495.12,118.31L495.54,119.04L495.96,118.83L496.38,118.14L496.8,93.82L498.49,99.28L498.91,96.28L499.33,94.65L499.75,89.52L500.59,90.96L501.01,88.69L501.43,90.91L501.85,90.5L502.27,88.43L502.7,88.53L503.12,87.2L503.54,86.08L503.96,89.03L505.22,83.36L505.64,82.22L507.33,79.71L507.75,80.34L508.17,79.98L508.59,91.97L509.01,90.79L509.43,91.37L509.85,92.36L510.27,91.64L510.69,95.88L511.12,95.58L511.54,97.99L513.22,90.89L513.64,91.79L514.06,91.53L514.48,92.87L515.75,90.72L516.17,91.31L517.85,90.46L518.27,89.62L519.12,90.84L519.54,90.46L519.96,89.69L520.38,91.94L520.8,91.63L521.22,93.74L521.64,93.31L522.06,97.55L522.48,96.16L522.9,96.81L523.33,96.92L523.75,98.04L524.17,96.09L524.59,97.11L525.01,96.74L525.43,96.97L526.69,97.73L527.11,101.39L527.54,103.18L527.96,102.75L528.38,101.48L529.64,105.33L530.06,109L530.48,112.46L530.9,112.23L531.32,109.44L532.59,114.99L533.01,117.15L533.43,118.85L533.85,114.52L534.27,95.95L534.69,97.25L535.11,105.27L536.38,107.13L536.8,106.02L538.06,115.18L538.48,117.52L539.74,124.25L540.17,121.18L541.01,119.29L541.43,122.03L541.85,111.82L542.27,113.29L542.69,110.58L543.53,106.47L543.96,113.37L544.8,117.84L545.22,115.9L546.06,111.31L546.48,112.31L546.9,117.23L547.32,91.25L547.74,91.42L548.17,92.02L548.59,92.06L549.01,92.9L549.85,95.25L550.27,93.8L551.53,84.37L551.95,87.33L552.8,84.41L553.22,85.64L553.64,83.3L554.06,83.78L554.48,83.81L554.9,82.82L555.32,84.27L556.16,79.88L556.59,81.01L557.85,79.15L558.27,79.39L560.8,91.32L561.22,92.64L561.64,92.11L562.06,94.39L562.48,94.78L562.9,91.55L565.01,87.09L565.43,88.36L567.53,86.78L567.95,87.67L569.22,90.52L569.64,91L571.32,85.36L571.74,87.23L572.16,86.25L572.58,88.47L573.43,96.52L573.85,95.67L574.27,98.17L574.69,98.69L575.11,97.31L575.53,100.07L575.95,98.39L576.37,97.98L577.22,98.87L577.64,98.13L578.9,99.67L579.32,98.22L580.16,97.22L580.58,97.82L581.85,95.79L582.27,96.86L583.53,96.06L583.95,96.59L584.79,96.09L585.21,98.15L585.64,101.64L586.06,96.46L586.48,95.27L586.9,96.63L588.58,92.61L589,94.6L589.85,91.41L590.27,92L590.69,93.24L591.53,92.33L591.95,93.96L592.37,93.74L592.79,91.64L594.48,88.7L594.9,90.73L595.32,90.45L595.74,89.06L596.16,89.1L596.58,90.92L597.85,89.24L598.27,89.13L599.11,93.77L599.53,93.64L599.95,91.99L600.37,91.57L600.79,88.63L601.21,90.27L601.63,89.74L602.06,88.94L602.9,86.12L603.32,86.67L603.74,87.09L604.16,89.76L604.58,87L605,87.16L605.42,86.82L606.27,84.98L606.69,87.22L607.95,91.29L608.37,90.6L608.79,90.45L609.21,91.68L609.63,90.69L610.05,93.49L610.48,93.66L610.9,92.84L611.74,92.55L612.16,93.8L613.42,94.47L613.84,94.54L615.11,92.4L615.53,92.89L615.95,94.04L616.79,93.52L617.21,92.37L617.63,93.18L618.05,91.92L618.48,92.65L618.9,92.06L619.32,94.89L619.74,94.83L620.16,93.94L620.58,93.89L621,95.98L623.11,95.69L623.53,97.09L623.95,100.24L624.37,91.08L625.21,90.13L625.63,93.48L627.32,96.19L627.74,95.24L628.58,92.83L629,92.68L629.84,91.22L630.26,92.45L631.53,94.02L631.95,93.65L632.37,93.6L634.05,90.74L634.47,91.77L636.16,89.7L636.58,90.11L637,90.66" style="vector-effect: none; fill: none; stroke: rgb(31, 119, 180); stroke-opacity: 1; stroke-width: 2px; opacity: 1;"/></g><g class="points"/><g class="text"/></g><g class="trace scatter trace0a57d9bb-ecae-4eb4-8733-037eb231ebcc" style="stroke-miterlimit: 2;"><g class="fills"/><g class="errorbars"/><g class="lines"><path class="js-line" d="M0,274L8.84,274L9.26,13.7L21.89,13.7L22.31,14.65L26.1,14.46L26.52,14.53L31.16,14.7L31.58,14.71L34.94,14.68L35.37,15.25L38.31,15.48L38.73,15.38L45.47,15.28L45.89,15.19L46.73,15.19L47.15,14.13L418.91,13.71L419.33,14.55L425.23,14.51L425.65,14.51L444.59,14.56L445.02,13.74L533.85,13.75L534.27,15.04L546.9,15.53L547.32,13.7L588.16,14.41L588.58,14.5L598.27,14.57L598.69,13.7L637,13.7" style="vector-effect: none; fill: none; stroke: rgb(255, 127, 14); stroke-opacity: 1; stroke-width: 2px; opacity: 1;"/></g><g class="points"/><g class="text"/></g></g></g><g class="overplot"/><path class="xlines-above crisp" d="M0,0" style="fill: none;"/><path class="ylines-above crisp" d="M0,0" style="fill: none;"/><g class="overlines-above"/><g class="xaxislayer-above"><g class="xtick"><text text-anchor="middle" x="0" y="333" transform="translate(55.31,0)" style="font-family: 'Open Sans', verdana, arial, sans-serif; font-size: 12px; fill: rgb(42, 63, 95); fill-opacity: 1; white-space: pre; opacity: 1;">Jan 2018</text></g><g class="xtick"><text text-anchor="middle" x="0" y="333" style="font-family: 'Open Sans', verdana, arial, sans-serif; font-size: 12px; fill: rgb(42, 63, 95); fill-opacity: 1; white-space: pre; opacity: 1;" transform="translate(131.51999999999998,0)">Jul 2018</text></g><g class="xtick"><text text-anchor="middle" x="0" y="333" style="font-family: 'Open Sans', verdana, arial, sans-serif; font-size: 12px; fill: rgb(42, 63, 95); fill-opacity: 1; white-space: pre; opacity: 1;" transform="translate(208.99,0)">Jan 2019</text></g><g class="xtick"><text text-anchor="middle" x="0" y="333" style="font-family: 'Open Sans', verdana, arial, sans-serif; font-size: 12px; fill: rgb(42, 63, 95); fill-opacity: 1; white-space: pre; opacity: 1;" transform="translate(285.19,0)">Jul 2019</text></g><g class="xtick"><text text-anchor="middle" x="0" y="333" style="font-family: 'Open Sans', verdana, arial, sans-serif; font-size: 12px; fill: rgb(42, 63, 95); fill-opacity: 1; white-space: pre; opacity: 1;" transform="translate(362.66,0)">Jan 2020</text></g><g class="xtick"><text text-anchor="middle" x="0" y="333" style="font-family: 'Open Sans', verdana, arial, sans-serif; font-size: 12px; fill: rgb(42, 63, 95); fill-opacity: 1; white-space: pre; opacity: 1;" transform="translate(439.28,0)">Jul 2020</text></g><g class="xtick"><text text-anchor="middle" x="0" y="333" style="font-family: 'Open Sans', verdana, arial, sans-serif; font-size: 12px; fill: rgb(42, 63, 95); fill-opacity: 1; white-space: pre; opacity: 1;" transform="translate(516.75,0)">Jan 2021</text></g><g class="xtick"><text text-anchor="middle" x="0" y="333" style="font-family: 'Open Sans', verdana, arial, sans-serif; font-size: 12px; fill: rgb(42, 63, 95); fill-opacity: 1; white-space: pre; opacity: 1;" transform="translate(592.95,0)">Jul 2021</text></g></g><g class="yaxislayer-above"><g class="ytick"><text text-anchor="end" x="32" y="4.199999999999999" transform="translate(0,320)" style="font-family: 'Open Sans', verdana, arial, sans-serif; font-size: 12px; fill: rgb(42, 63, 95); fill-opacity: 1; white-space: pre; opacity: 1;">0</text></g><g class="ytick"><text text-anchor="end" x="32" y="4.199999999999999" style="font-family: 'Open Sans', verdana, arial, sans-serif; font-size: 12px; fill: rgb(42, 63, 95); fill-opacity: 1; white-space: pre; opacity: 1;" transform="translate(0,267.94)">0.2</text></g><g class="ytick"><text text-anchor="end" x="32" y="4.199999999999999" style="font-family: 'Open Sans', verdana, arial, sans-serif; font-size: 12px; fill: rgb(42, 63, 95); fill-opacity: 1; white-space: pre; opacity: 1;" transform="translate(0,215.88)">0.4</text></g><g class="ytick"><text text-anchor="end" x="32" y="4.199999999999999" style="font-family: 'Open Sans', verdana, arial, sans-serif; font-size: 12px; fill: rgb(42, 63, 95); fill-opacity: 1; white-space: pre; opacity: 1;" transform="translate(0,163.82)">0.6</text></g><g class="ytick"><text text-anchor="end" x="32" y="4.199999999999999" style="font-family: 'Open Sans', verdana, arial, sans-serif; font-size: 12px; fill: rgb(42, 63, 95); fill-opacity: 1; white-space: pre; opacity: 1;" transform="translate(0,111.76)">0.8</text></g><g class="ytick"><text text-anchor="end" x="32" y="4.199999999999999" style="font-family: 'Open Sans', verdana, arial, sans-serif; font-size: 12px; fill: rgb(42, 63, 95); fill-opacity: 1; white-space: pre; opacity: 1;" transform="translate(0,59.7)">1</text></g></g><g class="overaxes-above"/></g></g><g class="polarlayer"/><g class="smithlayer"/><g class="ternarylayer"/><g class="geolayer"/><g class="funnelarealayer"/><g class="pielayer"/><g class="iciclelayer"/><g class="treemaplayer"/><g class="sunburstlayer"/><g class="glimages"/><defs id="topdefs-7ac14e"><g class="clips"/><clipPath id="legend7ac14e"><rect width="202" height="29" x="0" y="0"/></clipPath></defs><g class="layer-above"><g class="imagelayer"/><g class="shapelayer"/></g><g class="infolayer"><g class="legend" pointer-events="all" transform="translate(468,11.519999999999996)"><rect class="bg" shape-rendering="crispEdges" style="stroke: rgb(68, 68, 68); stroke-opacity: 1; fill: rgb(255, 255, 255); fill-opacity: 1; stroke-width: 0px;" width="202" height="29" x="0" y="0"/><g class="scrollbox" transform="" clip-path="url(#legend7ac14e)"><g class="groups"><g class="traces" transform="translate(0,14.5)" style="opacity: 1;"><text class="legendtext" text-anchor="start" x="40" y="4.680000000000001" style="font-family: 'Open Sans', verdana, arial, sans-serif; font-size: 12px; fill: rgb(42, 63, 95); fill-opacity: 1; white-space: pre;">BTC-USD</text><g class="layers"><g class="legendfill"><path class="js-fill" d="M5,-2h30v6h-30z" style="stroke-width: 0; fill: rgb(31, 119, 180); fill-opacity: 0.5;"/></g><g class="legendlines"><path class="js-line" d="M5,-2h30" style="fill: none; stroke: rgb(31, 119, 180); stroke-opacity: 1; stroke-width: 2px;"/></g><g class="legendsymbols"><g class="legendpoints"/></g></g><rect class="legendtoggle" x="0" y="-9.5" width="98.1875" height="19" style="fill: rgb(0, 0, 0); fill-opacity: 0;"/></g><g class="traces" transform="translate(100.6875,14.5)" style="opacity: 1;"><text class="legendtext" text-anchor="start" x="40" y="4.680000000000001" style="font-family: 'Open Sans', verdana, arial, sans-serif; font-size: 12px; fill: rgb(42, 63, 95); fill-opacity: 1; white-space: pre;">ETH-USD</text><g class="layers"><g class="legendfill"><path class="js-fill" d="M5,-2h30v6h-30z" style="stroke-width: 0; fill: rgb(255, 127, 14); fill-opacity: 0.5;"/></g><g class="legendlines"><path class="js-line" d="M5,-2h30" style="fill: none; stroke: rgb(255, 127, 14); stroke-opacity: 1; stroke-width: 2px;"/></g><g class="legendsymbols"><g class="legendpoints"/></g></g><rect class="legendtoggle" x="0" y="-9.5" width="98.1875" height="19" style="fill: rgb(0, 0, 0); fill-opacity: 0;"/></g></g></g><rect class="scrollbar" rx="20" ry="3" width="0" height="0" style="fill: rgb(128, 139, 164); fill-opacity: 1;" x="0" y="0"/></g><g class="g-gtitle"/><g class="g-xtitle"/><g class="g-ytitle"/></g></svg>