<svg class="main-svg" xmlns="http://www.w3.org/2000/svg" xmlns:xlink="http://www.w3.org/1999/xlink" width="700" height="350" style="" viewBox="0 0 700 350"><rect x="0" y="0" width="700" height="350" style="fill: rgb(255, 255, 255); fill-opacity: 1;"/><defs id="defs-ab8f7e"><g class="clips"><clipPath id="clipab8f7exyplot" class="plotclip"><rect width="637" height="274"/></clipPath><clipPath class="axesclip" id="clipab8f7ex"><rect x="33" y="0" width="637" height="350"/></clipPath><clipPath class="axesclip" id="clipab8f7ey"><rect x="0" y="46" width="700" height="274"/></clipPath><clipPath class="axesclip" id="clipab8f7exy"><rect x="33" y="46" width="637" height="274"/></clipPath></g><g class="gradients"/><g class="patterns"/></defs><g class="bglayer"><rect class="bg" x="33" y="46" width="637" height="274" style="fill: rgb(229, 236, 246); fill-opacity: 1; stroke-width: 0;"/></g><g class="layer-below"><g class="imagelayer"/><g class="shapelayer"/></g><g class="cartesianlayer"><g class="subplot xy"><g class="layer-subplot"><g class="shapelayer"/><g class="imagelayer"/></g><g class="minor-gridlayer"><g class="x"/><g class="y"/></g><g class="gridlayer"><g class="x"><path class="xgrid crisp" transform="translate(55.31,0)" d="M0,46v274" style="stroke: rgb(255, 255, 255); stroke-opacity: 1; stroke-width: 1px;"/><path class="xgrid crisp" transform="translate(131.51999999999998,0)" d="M0,46v274" style="stroke: rgb(255, 255, 255); stroke-opacity: 1; stroke-width: 1px;"/><path class="xgrid crisp" transform="translate(208.99,0)" d="M0,46v274" style="stroke: rgb(255, 255, 255); stroke-opacity: 1; stroke-width: 1px;"/><path class="xgrid crisp" transform="translate(285.19,0)" d="M0,46v274" style="stroke: rgb(255, 255, 255); stroke-opacity: 1; stroke-width: 1px;"/><path class="xgrid crisp" transform="translate(362.66,0)" d="M0,46v274" style="stroke: rgb(255, 255, 255); stroke-opacity: 1; stroke-width: 1px;"/><path class="xgrid crisp" transform="translate(439.28,0)" d="M0,46v274" style="stroke: rgb(255, 255, 255); stroke-opacity: 1; stroke-width: 1px;"/><path class="xgrid crisp" transform="translate(516.75,0)" d="M0,46v274" style="stroke: rgb(255, 255, 255); stroke-opacity: 1; stroke-width: 1px;"/><path class="xgrid crisp" transform="translate(592.95,0)" d="M0,46v274" style="stroke: rgb(255, 255, 255); stroke-opacity: 1; stroke-width: 1px;"/></g><g class="y"><path class="ygrid crisp" transform="translate(0,267.94)" d="M33,0h637" style="stroke: rgb(255, 255, 255); stroke-opacity: 1; stroke-width: 1px;"/><path class="ygrid crisp" transform="translate(0,215.88)" d="M33,0h637" style="stroke: rgb(255, 255, 255); stroke-opacity: 1; stroke-width: 1px;"/><path class="ygrid crisp" transform="translate(0,163.82)" d="M33,0h637" style="stroke: rgb(255, 255, 255); stroke-opacity: 1; stroke-width: 1px;"/><path class="ygrid crisp" transform="translate(0,111.76)" d="M33,0h637" style="stroke: rgb(255, 255, 255); stroke-opacity: 1; stroke-width: 1px;"/><path class="ygrid crisp" transform="translate(0,59.7)" d="M33,0h637" style="stroke: rgb(255, 255, 255); stroke-opacity: 1; stroke-width: 1px;"/></g></g><g class="zerolinelayer"><path class="yzl zl crisp" transform="translate(0,320)" d="M33,0h637" style="stroke: rgb(255, 255, 255); stroke-opacity: 1; stroke-width: 2px;"/></g><path class="xlines-below"/><path class="ylines-below"/><g class="overlines-below"/><g class="xaxislayer-below"/><g class="yaxislayer-below"/><g class="overaxes-below"/><g class="plot" transform="translate(33,46)" clip-path="url(#clipab8f7exyplot)"><g class="scatterlayer mlayer"><g class="trace scatter trace7280a8a9-72d7-4949-bb5e-f99920ab4f00" style="stroke-miterlimit: 2;"><g class="fills"><g><path class="js-fill" d="M637,274L0,274L0,274L8.84,274L9.26,77.91L10.95,73.69L11.37,62.55L11.79,54.7L12.21,59.23L12.63,64.13L13.05,60.67L13.47,63.11L13.89,71.93L14.31,78.28L14.74,77.34L15.16,73.42L15.58,69.85L16,72.18L16.42,76.84L17.68,88.1L18.1,84.81L18.95,85.92L19.37,90.77L19.79,84.03L20.21,84.14L20.63,86.56L21.05,87.55L21.47,91.54L21.89,89.62L22.31,94.74L23.16,101.17L23.58,100.76L24,95.4L24.42,97.52L24.84,107.06L25.68,121.92L26.1,118.15L26.52,119.84L27.79,128.83L28.21,125.01L29.89,122.26L30.31,122.28L32.84,125.66L33.26,127.21L33.68,132.9L34.1,132.26L34.52,133.07L35.37,137.25L35.79,134.64L36.21,134.22L36.63,135.21L37.05,139.88L37.47,137.5L37.89,136.89L39.15,133.74L39.58,135.44L41.26,126.48L41.68,126.36L43.36,117.46L43.79,119.54L45.47,125.69L45.89,122.33L46.31,120.57L46.73,121.51L47.15,88.64L48.84,84.62L49.26,86.02L50.1,85.47L50.52,87.58L53.05,84.53L53.47,83.48L55.15,76.4L55.57,76.71L56,75.89L56.84,75.04L57.26,75.79L58.94,69.59L59.36,72.33L59.78,72L60.21,90.88L60.63,89.98L61.05,91.29L61.47,90.94L61.89,91.65L62.73,91.16L63.15,92.38L64.84,97.43L65.26,97.35L67.36,99.03L67.78,102.67L68.2,103.62L68.63,102.3L69.89,106.44L70.31,103.59L71.57,106.53L71.99,106.53L72.42,106.01L72.84,106.83L73.26,107.08L73.68,110.39L74.52,112.11L74.94,111.81L75.36,110.98L75.78,111.82L76.2,111.19L76.63,111.28L78.31,113.78L78.73,113.66L79.15,114.56L79.57,114L79.99,114.48L80.84,114.12L81.26,113.61L82.1,110.89L82.52,112.21L82.94,111.8L83.36,112.87L84.2,108.26L84.62,109.99L85.05,110.01L85.47,110.89L85.89,94.1L86.31,94.44L86.73,96.26L87.15,95.49L87.57,96.09L87.99,95.75L88.83,95.41L89.26,95.78L90.94,93.21L91.36,94.98L92.2,93.91L92.62,94.43L93.04,94.39L93.47,96.06L94.31,95.31L94.73,94.26L95.15,94.54L95.57,92.52L95.99,92.15L96.41,90.29L97.26,90.75L97.68,89.59L98.94,92.46L99.36,91.86L99.78,91.66L101.47,92.72L101.89,91.57L102.31,89.95L102.73,90.89L103.15,90.28L104.83,92.02L105.25,89.79L106.52,83.99L106.94,84.86L107.36,84.56L107.78,81.61L108.2,80.25L108.62,80.99L109.04,81.51L111.15,79.26L111.57,91.24L111.99,90.6L112.41,92.3L113.67,94.46L114.1,92.35L114.52,92.6L114.94,91.73L116.2,86.58L116.62,81.2L117.46,80.39L117.88,81.18L118.31,83.88L118.73,81.81L119.15,82.01L120.41,77.92L120.83,77.75L122.1,76.17L122.52,76.69L122.94,77.03L124.2,75.22L124.62,92.65L125.88,89.6L126.31,82.98L126.73,84.54L127.15,82.06L128.83,75.37L129.25,74.7L130.52,82.82L130.94,82.45L131.36,78.88L131.78,81.11L132.2,80.9L133.04,86.5L133.46,85.29L133.88,86.21L135.15,81.53L135.57,83.01L135.99,81.89L136.41,84.28L136.83,84.37L137.25,91.49L138.51,89.56L138.94,90.47L139.78,90.28L140.2,90.62L141.04,90.34L141.46,83.82L142.3,86.33L142.73,85.2L143.57,86.43L143.99,86.08L144.83,85.86L145.25,86.1L148.62,86.11L149.04,85.26L149.88,85.42L150.3,91.66L151.15,92.16L151.57,94.01L151.99,94.06L152.41,96.15L153.67,94.61L154.09,95.06L155.36,93.97L155.78,92.41L156.2,93.1L156.62,92.07L157.46,92.19L157.88,90.67L159.14,87.8L159.57,86.59L159.99,88.21L160.41,87.83L160.83,87.15L161.67,87.32L162.09,84.92L162.51,86.23L162.93,91.74L164.2,91.16L164.62,90.07L165.04,87.59L165.46,90.04L166.72,87.83L167.14,87.41L169.25,87.9L169.67,89.14L171.78,93.54L172.2,100.16L172.62,103.09L173.04,102.48L173.46,102.75L173.88,98.73L174.3,104.27L175.14,106.09L175.56,105.2L177.25,111.47L177.67,112.03L178.93,107.36L179.35,107.45L180.62,104.12L181.04,102.23L181.46,104.62L181.88,103.06L182.3,103.27L184.41,101.96L184.83,102.15L186.93,100.27L187.35,99.19L187.77,99.12L188.19,99.94L188.62,99.61L189.04,91.53L189.46,92.43L189.88,91.84L190.3,92.09L191.56,91.35L191.98,94.44L192.41,94.45L192.83,96.63L193.25,95.67L193.67,96.18L194.09,96.5L194.93,96.47L195.35,96.86L196.19,102.28L196.62,101.51L197.04,102.4L197.46,101.72L197.88,102.14L198.3,103.86L198.72,99.64L199.56,99.92L199.98,99.15L200.83,99.15L201.25,98.22L202.09,97.22L202.51,99.13L203.35,98.99L203.77,98.03L204.61,97.93L205.04,97.48L205.88,97.23L206.3,97.15L207.14,98.65L207.56,98.09L209.67,97.05L210.09,97.28L211.35,96.95L211.77,97.59L212.19,97.26L212.61,97.99L213.46,97.53L213.88,91.18L215.14,87.93L215.56,89.17L215.98,89.06L216.4,90.32L216.82,91.13L217.25,90.74L217.67,89.89L218.93,88.21L219.35,88.54L220.61,87.4L221.03,89.08L221.88,88.66L222.3,87.75L222.72,87.47L223.14,85.69L224.4,83.72L224.82,84.51L225.67,83.65L226.09,84.91L226.51,90.89L226.93,90.31L227.35,89.69L227.77,87.85L228.19,87.99L228.61,91.39L230.72,85.63L231.14,85.43L231.56,82.13L231.98,85.99L232.82,97.39L233.24,96.9L233.66,95.31L234.51,94.09L234.93,94.93L237.45,93.05L237.88,93.37L238.72,92.64L239.14,93.56L240.4,92.66L240.82,93.68L241.66,94.66L242.09,93.42L242.93,91.95L243.35,92.98L243.77,93.1L244.19,94.84L245.87,91.07L246.3,90.14L247.56,88.45L247.98,89.39L249.24,87.7L249.66,85.37L250.93,81.67L251.35,84.94L251.77,85.25L252.19,93.37L253.45,88.51L253.87,90.3L254.29,89.1L254.72,91.25L256.4,84.84L256.82,84.23L257.24,84.83L257.66,81.58L258.5,78.89L258.93,80.73L259.77,78.89L260.19,79.5L261.03,78.93L261.45,79.97L262.72,81.72L263.14,80.88L263.98,81.59L264.4,80.95L264.82,80.42L265.24,90.17L267.35,86.88L267.77,84.9L268.61,81.54L269.03,82.85L270.29,85.45L270.71,83.87L271.56,81.95L271.98,82.72L272.4,84.5L273.24,83.02L273.66,83.51L274.08,84.75L275.77,82.9L276.19,83.44L277.45,81.17L277.87,82.07L278.29,90.94L278.71,89.84L279.13,88.77L280.4,87.24L280.82,88.94L282.08,91.5L282.5,90.84L283.35,90.6L283.77,92.67L284.19,93.22L284.61,95.71L285.87,102.38L286.29,102.01L286.71,102.27L287.13,100.89L287.56,100.2L287.98,96.66L289.66,101.37L290.08,101.01L290.5,102.77L290.92,101.4L291.34,102.02L291.77,101.37L292.19,102.27L293.87,103.55L294.29,104.11L295.98,102.91L296.4,103.91L299.76,101.81L300.19,103.02L300.61,103.12L301.03,100.43L301.87,95.59L302.29,96.94L303.13,97.8L303.55,97.64L304.4,91.02L304.82,91.1L305.24,91.23L305.66,92.5L308.19,94.95L308.61,94.99L309.45,95.42L309.87,95.15L311.97,96.8L312.4,94.81L313.66,92.5L314.08,93.13L314.5,93.5L314.92,92.64L315.34,92.68L315.76,91.81L317.03,92.76L317.45,92.36L318.29,91.89L318.71,91.15L319.13,90.93L319.55,91.77L322.5,91.82L322.92,89.81L324.18,86.05L324.6,85.84L327.55,84.58L327.97,84.83L328.81,86.72L329.24,86.24L330.08,92.43L330.5,92.51L331.34,92.87L331.76,93.43L332.6,90.12L333.03,90.6L334.71,90.82L335.13,94.1L336.39,95.06L336.81,96.46L337.24,95.21L337.66,95.58L338.08,95.86L339.76,95.49L340.18,96.29L341.45,94.07L341.87,95.92L342.29,95.47L342.71,96.3L345.23,104.56L345.66,104.25L346.5,104.4L346.92,105.38L348.18,115.74L348.6,114.07L349.02,112.69L349.44,115.69L349.87,116.29L350.29,114.55L350.71,114.3L351.13,115.55L351.55,114.95L351.97,115.86L352.39,115.69L352.81,113.64L353.23,111.63L353.65,112.16L354.08,112.95L355.76,107.61L356.18,107.84L356.6,106.71L357.02,109.47L357.44,109.7L357.87,106.9L358.29,108.6L358.71,108.41L359.13,106.94L360.39,110.89L360.81,109.38L363.34,103.79L363.76,104.04L365.02,100.39L365.44,100.77L366.71,103.91L367.13,101.55L367.55,101.69L367.97,90.88L369.23,92.5L369.65,92.48L370.07,97.83L370.5,97.21L370.92,98.51L373.02,96.78L373.44,97.27L373.86,97.39L374.28,100.08L374.71,100.07L375.13,103.73L375.97,102.07L376.39,102.24L376.81,103.51L377.23,101.77L377.65,102.13L378.07,103.9L379.34,102.95L379.76,101.18L380.18,99.57L380.6,100.02L381.02,99.49L382.28,97.3L382.71,94.98L383.13,93.03L383.55,93.8L383.97,94.9L385.23,94.08L385.65,93.76L386.07,92L386.49,92.51L386.92,93.5L387.34,93.38L387.76,94.83L388.6,94.95L389.02,95.08L390.28,97.55L390.7,97.54L391.55,96.7L391.97,97.26L392.39,97.97L392.81,101.34L393.23,100.23L393.65,92.8L394.49,95.04L394.91,94.27L397.44,94.55L397.86,94.12L398.7,94.89L399.12,94.3L399.55,92.94L399.97,93.49L400.39,93.5L402.07,93.59L402.49,94.71L403.34,95.13L403.76,94.76L407.12,92.84L407.55,93.45L407.97,93.47L408.39,94.9L410.07,95.35L410.49,95.24L411.33,95.25L411.76,95.39L412.6,94.53L413.02,94.21L414.7,95.7L415.12,98.6L416.39,106.26L416.81,105.94L417.23,102.01L418.07,100.84L418.49,103.69L418.91,104.47L419.33,108.03L420.6,111.59L421.02,110.28L421.86,108.07L422.28,109.24L423.54,109.19L423.96,109.72L424.81,114.75L425.23,113.74L425.65,113.66L426.07,111.29L426.49,111.88L426.91,110.86L427.33,111.54L427.75,109.42L428.18,109.86L428.6,109.35L429.02,111L429.86,109.61L430.28,109.96L431.12,111.32L431.54,113.93L431.96,114.93L432.39,106.86L433.65,103.98L434.07,98.71L434.49,100.63L434.91,100.03L435.33,99.26L437.02,104.24L437.44,102.05L437.86,101.62L438.28,99.35L438.7,98.54L439.12,101.7L440.38,99.43L440.81,98.01L441.23,97.98L441.65,96.25L442.91,98.34L443.33,98.48L444.59,98.76L445.02,91.77L445.86,91.09L446.28,91.42L447.96,89.9L448.38,91.4L449.23,91.25L449.65,92.24L451.75,90.46L452.17,91.22L453.44,87.25L453.86,89.5L455.12,88.25L455.54,86.45L457.65,82.78L458.07,93.16L458.91,91.09L459.33,92.39L459.75,88.69L460.17,93.84L461.01,94.01L461.44,93.38L462.28,94.36L462.7,92.14L463.12,93.6L463.54,92.74L463.96,91.61L465.65,88.48L466.07,90.28L467.33,100.99L467.75,98.27L469.01,95.79L469.43,96.03L469.86,98.4L470.28,97.77L470.7,97.6L471.12,97.39L471.54,98.28L471.96,96.28L472.38,97.38L472.8,97.28L473.65,96.09L474.07,97.1L475.33,95.9L475.75,96.8L477.01,94.74L477.43,91.54L477.86,91.69L478.28,90.34L479.54,88.64L479.96,85.73L480.38,86.9L480.8,86.06L481.22,83.2L482.07,88.72L482.49,88.26L482.91,86.82L483.33,85.62L483.75,90.67L484.17,89L484.59,100.71L485.01,105.95L485.43,105.62L485.85,106.38L486.7,101.17L487.12,104.62L487.54,106.61L487.96,102.42L488.38,102.63L488.8,101.75L490.91,109.14L491.33,115.67L491.75,116.8L492.17,112.7L493.01,116L493.43,123.26L493.85,119.99L494.27,121.13L494.7,120.39L495.12,118.28L495.54,119.01L495.96,118.8L496.38,118.11L496.8,119.7L497.64,122.05L498.06,120.97L498.49,122.62L498.91,119.6L499.33,118.29L499.75,111.49L500.17,111.71L500.59,113.14L501.01,110.29L501.43,112.41L501.85,112.14L503.54,106.89L503.96,109.72L505.22,103.26L505.64,102.87L506.48,103.74L506.91,102.5L508.17,103.15L508.59,90.62L509.01,89.46L509.43,90.03L509.85,91.01L510.27,90.3L510.69,94.5L511.12,94.2L511.54,96.59L513.22,89.55L513.64,90.45L514.06,90.19L514.48,91.51L515.75,89.39L516.17,89.98L517.85,89.13L518.27,88.3L519.12,89.51L519.54,89.13L519.96,88.36L520.38,90.59L520.8,90.29L521.22,92.38L522.06,98.11L522.48,96.74L523.75,98.61L524.17,96.67L524.59,97.68L525.01,97.31L525.43,97.53L526.69,98.27L527.11,101.92L527.54,103.7L527.96,103.29L528.38,102.02L529.64,105.89L530.06,109.56L530.48,113.02L530.9,112.8L531.32,110.03L532.59,115.52L533.01,117.67L533.43,119.38L533.85,115.04L535.53,128.22L535.96,127.55L536.38,128.23L536.8,127.06L537.22,131.36L537.64,132.35L538.06,135.36L538.9,141.38L539.32,139.64L539.74,144.4L540.17,142.52L540.59,142.21L541.01,141.8L541.43,144.26L542.27,137.72L542.69,136.87L543.11,133.75L543.53,134.77L543.96,138.55L544.8,141.97L545.22,140.71L545.64,139.52L546.06,138.67L546.48,138.96L546.9,142.21L547.74,110.25L548.17,110.3L549.43,113.27L549.85,115.03L550.27,113.79L550.69,108.83L551.53,104.01L551.95,107.28L552.8,103.12L553.22,104.18L553.64,102.71L554.06,103.24L554.48,104.06L554.9,103.25L555.32,104.51L557.01,100.79L557.43,102.11L558.27,100.6L558.69,103.15L559.11,102.47L559.53,106.19L559.95,90.9L560.37,91.29L560.8,91.94L562.48,95.4L562.9,92.21L565.01,87.78L565.43,89.03L567.53,87.52L567.95,88.43L569.22,91.17L569.64,91.63L571.32,85.94L571.74,87.8L572.16,86.79L572.58,89.01L573.43,96.53L573.85,95.68L574.27,98.18L574.69,98.7L575.11,97.32L575.53,100.08L575.95,98.4L576.37,97.99L577.22,98.89L577.64,98.14L578.9,99.68L579.32,98.23L580.16,97.23L580.58,97.83L581.85,95.81L582.27,96.88L583.53,96.07L583.95,96.6L584.79,96.11L585.21,98.16L586.06,106.1L586.48,104.91L586.9,106.12L588.58,102.74L589,104.71L589.85,101.9L590.27,102.41L590.69,103.44L591.53,102.43L591.95,103.83L592.37,103.67L592.79,101.76L594.48,100.11L594.9,101.48L596.16,100.1L596.58,101.71L598.27,99.94L598.69,91.22L599.11,93.06L599.53,92.94L599.95,91.29L600.37,90.88L600.79,87.95L601.21,89.58L601.63,89.06L602.06,88.26L602.9,85.45L603.32,86L603.74,86.42L604.16,89.07L604.58,86.32L605,86.48L605.42,86.15L606.27,84.32L606.69,86.54L607.95,90.6L608.37,89.91L608.79,89.76L609.21,90.98L609.63,90L610.05,92.78L610.48,92.95L610.9,92.13L611.74,92.91L612.16,94.15L613.42,94.83L613.84,94.9L615.11,92.74L615.53,93.24L615.95,94.39L616.79,93.87L617.21,92.72L617.63,93.53L618.05,92.29L618.48,93.02L618.9,92.44L619.32,95.27L619.74,95.19L620.16,94.31L620.58,94.27L621,96.35L623.11,96.06L623.53,97.46L623.95,100.6L624.37,99.43L624.79,99.33L625.21,98.9L625.63,102.61L626.47,103.95L626.9,103.28L627.32,105.01L627.74,104.47L628.16,102.24L629.84,100.83L630.26,101.67L631.53,103.43L631.95,103.1L632.37,103.03L632.79,101.65L633.63,100.62L634.05,99.81L634.47,100.84L634.89,100.07L635.32,99.89L635.74,100.38L636.16,99.42L637,100.35" style="fill: rgb(31, 119, 180); fill-opacity: 0.5; stroke-width: 0;"/></g><g><path class="js-fill" d="M0,274L8.84,274L9.26,13.7L34.94,13.7L35.37,57.77L36.63,63.25L37.05,70.69L38.31,63.57L38.73,61.08L39.15,61.77L39.58,64.06L41.26,56.58L41.68,56.33L42.1,54.02L42.52,55.83L42.94,54.12L43.36,54.27L43.79,56.4L44.21,58.58L44.63,57.16L45.05,58.71L45.47,59.05L45.89,56.94L46.31,55.97L46.73,57.04L47.58,13.7L48,13.7L72.42,14L72.84,27.77L74.94,26.59L75.36,27.05L76.63,27.51L77.05,28.43L78.73,28.16L79.15,28.32L79.57,28.87L79.99,28.54L80.41,28.53L81.26,28.32L81.68,29.12L82.1,30.27L82.52,30.07L82.94,30.34L84.2,31.53L84.62,30.55L85.47,30.41L85.89,16.15L90.1,16.37L90.52,16.51L93.04,16.44L93.47,16.4L98.1,16.64L98.52,13.71L175.56,13.7L175.99,27.31L176.41,26.69L176.83,27.08L177.25,26.88L179.35,26.61L179.77,28.08L181.04,28.83L181.46,28L182.72,28.25L183.14,28.39L183.98,28.6L184.41,28.75L186.51,28.7L186.93,28.87L187.77,29.57L188.19,29.32L188.62,29.48L189.04,13.7L200.4,13.7L200.83,21.29L206.3,21.25L206.72,21.14L208.82,20.94L209.25,21.07L213.46,20.9L213.88,13.7L239.14,13.78L239.56,15.45L251.35,15.01L251.77,15.14L252.61,13.7L253.03,13.7L290.5,13.89L290.92,24.4L292.61,24.59L293.03,24.79L294.71,23.96L295.13,24.33L299.76,24.73L300.19,25.47L300.61,25.5L301.03,24.07L302.71,23.36L303.13,23.6L303.55,23.62L303.97,13.7L342.29,13.7L342.71,17.43L352.81,17.08L353.23,17.33L354.5,17.42L354.92,29.81L355.76,29.43L356.18,29.46L357.44,29.01L357.87,30.82L359.13,31.24L359.55,41.18L359.97,38.14L360.39,39.75L360.81,39.06L361.23,41.14L361.65,40.22L362.08,40.12L362.5,36.37L362.92,36.53L363.34,36.56L363.76,37.91L364.18,35.92L364.6,35.07L365.02,35.28L365.44,35.12L366.71,37.55L367.13,35.98L367.55,35.93L367.97,13.7L380.18,13.7L380.6,21.51L383.97,21.13L384.39,21.87L385.23,21.83L385.65,21.44L387.34,21.13L387.76,21.03L392.39,21.12L392.81,20.78L393.23,21.01L393.65,14.79L399.12,14.87L399.55,14.87L418.91,14.36L419.33,26.32L419.75,26.99L420.18,26.67L420.6,26.66L421.44,26.21L421.86,26.49L423.12,26.13L423.54,26.62L426.07,25.57L426.49,25.79L428.18,26.26L428.6,26.32L429.44,26.61L429.86,26.5L431.12,26.34L431.54,25.92L432.81,25.8L433.23,27.21L433.65,26.96L434.07,27.83L435.33,27.84L435.75,27.59L437.02,27.03L437.44,27.36L439.12,26.6L439.54,26.65L440.38,26.78L440.81,27.49L444.59,27.02L445.02,13.94L470.28,13.7L470.7,19.67L473.22,19.57L473.65,19.88L479.54,18.66L479.96,18.85L483.33,17.83L483.75,13.88L496.38,13.84L496.8,40.31L497.64,37.16L498.06,37.67L498.49,36.65L499.33,36.85L499.75,34.05L500.59,34.41L501.01,33.46L503.12,33.14L503.54,32.24L503.96,32.09L504.38,31.13L505.22,30.86L505.64,31.96L506.91,34.76L507.33,35.1L508.17,35.59L508.59,13.7L533.85,14.26L534.27,37.24L534.69,37.52L535.11,36.24L535.53,37.58L535.96,35.98L536.8,36.08L537.22,34.89L538.48,34.77L538.9,37.27L539.32,37.31L539.74,36.4L541.01,40.23L541.43,40.11L541.85,45.81L542.27,42.89L542.69,45.81L543.11,46.34L543.53,48.68L544.8,43.05L545.22,43.99L546.06,47.85L546.48,46.76L546.9,44.54L547.32,32.99L548.17,31.76L548.59,32.81L550.27,34.41L550.69,32.83L551.95,33.99L552.38,32.48L553.22,31.88L553.64,33.02L554.06,33.11L554.48,34.24L555.32,34.24L555.74,36.94L557.01,35.32L557.43,37.2L557.85,36.89L558.27,35.35L559.53,34.42L559.95,14.8L572.58,14.6L573.01,13.7L585.64,13.7L586.06,24.09L588.16,23.52L588.58,24.76L591.53,24.71L591.95,24.37L593.64,24.78L594.06,25.94L594.48,26.61L594.9,25.66L595.32,25.35L595.74,25.97L596.16,26L597,26.09L597.42,26.49L598.27,25.71L598.69,13.7L623.95,14.09L624.37,22.05L625.21,22.64L625.63,23.24L627.32,22.86L627.74,23.44L628.58,23.24L629,23.11L629.84,23.87L630.26,23.35L632.37,23.68L632.79,23.34L637,23.97L637,100.35L636.16,99.42L635.74,100.38L635.32,99.89L634.89,100.07L634.47,100.84L634.05,99.81L633.63,100.62L632.79,101.65L632.37,103.03L631.95,103.1L631.53,103.43L630.26,101.67L629.84,100.83L628.16,102.24L627.74,104.47L627.32,105.01L626.9,103.28L626.47,103.95L625.63,102.61L625.21,98.9L624.79,99.33L624.37,99.43L623.95,100.6L623.53,97.46L623.11,96.06L621,96.35L620.58,94.27L620.16,94.31L619.74,95.19L619.32,95.27L618.9,92.44L618.48,93.02L618.05,92.29L617.63,93.53L617.21,92.72L616.79,93.87L615.95,94.39L615.53,93.24L615.11,92.74L613.84,94.9L613.42,94.83L612.16,94.15L611.74,92.91L610.9,92.13L610.48,92.95L610.05,92.78L609.63,90L609.21,90.98L608.79,89.76L608.37,89.91L607.95,90.6L606.69,86.54L606.27,84.32L605.42,86.15L605,86.48L604.58,86.32L604.16,89.07L603.74,86.42L603.32,86L602.9,85.45L602.06,88.26L601.63,89.06L601.21,89.58L600.79,87.95L600.37,90.88L599.95,91.29L599.53,92.94L599.11,93.06L598.69,91.22L598.27,99.94L596.58,101.71L596.16,100.1L594.9,101.48L594.48,100.11L592.79,101.76L592.37,103.67L591.95,103.83L591.53,102.43L590.69,103.44L590.27,102.41L589.85,101.9L589,104.71L588.58,102.74L586.9,106.12L586.48,104.91L586.06,106.1L585.21,98.16L584.79,96.11L583.95,96.6L583.53,96.07L582.27,96.88L581.85,95.81L580.58,97.83L580.16,97.23L579.32,98.23L578.9,99.68L577.64,98.14L577.22,98.89L576.37,97.99L575.95,98.4L575.53,100.08L575.11,97.32L574.69,98.7L574.27,98.18L573.85,95.68L573.43,96.53L572.58,89.01L572.16,86.79L571.74,87.8L571.32,85.94L569.64,91.63L569.22,91.17L567.95,88.43L567.53,87.52L565.43,89.03L565.01,87.78L562.9,92.21L562.48,95.4L560.8,91.94L560.37,91.29L559.95,90.9L559.53,106.19L559.11,102.47L558.69,103.15L558.27,100.6L557.43,102.11L557.01,100.79L555.32,104.51L554.9,103.25L554.48,104.06L554.06,103.24L553.64,102.71L553.22,104.18L552.8,103.12L551.95,107.28L551.53,104.01L550.69,108.83L550.27,113.79L549.85,115.03L549.43,113.27L548.17,110.3L547.74,110.25L546.9,142.21L546.48,138.96L546.06,138.67L545.64,139.52L545.22,140.71L544.8,141.97L543.96,138.55L543.53,134.77L543.11,133.75L542.69,136.87L542.27,137.72L541.43,144.26L541.01,141.8L540.59,142.21L540.17,142.52L539.74,144.4L539.32,139.64L538.9,141.38L538.06,135.36L537.64,132.35L537.22,131.36L536.8,127.06L536.38,128.23L535.96,127.55L535.53,128.22L533.85,115.04L533.43,119.38L533.01,117.67L532.59,115.52L531.32,110.03L530.9,112.8L530.48,113.02L530.06,109.56L529.64,105.89L528.38,102.02L527.96,103.29L527.54,103.7L527.11,101.92L526.69,98.27L525.43,97.53L525.01,97.31L524.59,97.68L524.17,96.67L523.75,98.61L522.48,96.74L522.06,98.11L521.22,92.38L520.8,90.29L520.38,90.59L519.96,88.36L519.54,89.13L519.12,89.51L518.27,88.3L517.85,89.13L516.17,89.98L515.75,89.39L514.48,91.51L514.06,90.19L513.64,90.45L513.22,89.55L511.54,96.59L511.12,94.2L510.69,94.5L510.27,90.3L509.85,91.01L509.43,90.03L509.01,89.46L508.59,90.62L508.17,103.15L506.91,102.5L506.48,103.74L505.64,102.87L505.22,103.26L503.96,109.72L503.54,106.89L501.85,112.14L501.43,112.41L501.01,110.29L500.59,113.14L500.17,111.71L499.75,111.49L499.33,118.29L498.91,119.6L498.49,122.62L498.06,120.97L497.64,122.05L496.8,119.7L496.38,118.11L495.96,118.8L495.54,119.01L495.12,118.28L494.7,120.39L494.27,121.13L493.85,119.99L493.43,123.26L493.01,116L492.17,112.7L491.75,116.8L491.33,115.67L490.91,109.14L488.8,101.75L488.38,102.63L487.96,102.42L487.54,106.61L487.12,104.62L486.7,101.17L485.85,106.38L485.43,105.62L485.01,105.95L484.59,100.71L484.17,89L483.75,90.67L483.33,85.62L482.91,86.82L482.49,88.26L482.07,88.72L481.22,83.2L480.8,86.06L480.38,86.9L479.96,85.73L479.54,88.64L478.28,90.34L477.86,91.69L477.43,91.54L477.01,94.74L475.75,96.8L475.33,95.9L474.07,97.1L473.65,96.09L472.8,97.28L472.38,97.38L471.96,96.28L471.54,98.28L471.12,97.39L470.7,97.6L470.28,97.77L469.86,98.4L469.43,96.03L469.01,95.79L467.75,98.27L467.33,100.99L466.07,90.28L465.65,88.48L463.96,91.61L463.54,92.74L463.12,93.6L462.7,92.14L462.28,94.36L461.44,93.38L461.01,94.01L460.17,93.84L459.75,88.69L459.33,92.39L458.91,91.09L458.07,93.16L457.65,82.78L455.54,86.45L455.12,88.25L453.86,89.5L453.44,87.25L452.17,91.22L451.75,90.46L449.65,92.24L449.23,91.25L448.38,91.4L447.96,89.9L446.28,91.42L445.86,91.09L445.02,91.77L444.59,98.76L443.33,98.48L442.91,98.34L441.65,96.25L441.23,97.98L440.81,98.01L440.38,99.43L439.12,101.7L438.7,98.54L438.28,99.35L437.86,101.62L437.44,102.05L437.02,104.24L435.33,99.26L434.91,100.03L434.49,100.63L434.07,98.71L433.65,103.98L432.39,106.86L431.96,114.93L431.54,113.93L431.12,111.32L430.28,109.96L429.86,109.61L429.02,111L428.6,109.35L428.18,109.86L427.75,109.42L427.33,111.54L426.91,110.86L426.49,111.88L426.07,111.29L425.65,113.66L425.23,113.74L424.81,114.75L423.96,109.72L423.54,109.19L422.28,109.24L421.86,108.07L421.02,110.28L420.6,111.59L419.33,108.03L418.91,104.47L418.49,103.69L418.07,100.84L417.23,102.01L416.81,105.94L416.39,106.26L415.12,98.6L414.7,95.7L413.02,94.21L412.6,94.53L411.76,95.39L411.33,95.25L410.49,95.24L410.07,95.35L408.39,94.9L407.97,93.47L407.55,93.45L407.12,92.84L403.76,94.76L403.34,95.13L402.49,94.71L402.07,93.59L400.39,93.5L399.97,93.49L399.55,92.94L399.12,94.3L398.7,94.89L397.86,94.12L397.44,94.55L394.91,94.27L394.49,95.04L393.65,92.8L393.23,100.23L392.81,101.34L392.39,97.97L391.97,97.26L391.55,96.7L390.7,97.54L390.28,97.55L389.02,95.08L388.6,94.95L387.76,94.83L387.34,93.38L386.92,93.5L386.49,92.51L386.07,92L385.65,93.76L385.23,94.08L383.97,94.9L383.55,93.8L383.13,93.03L382.71,94.98L382.28,97.3L381.02,99.49L380.6,100.02L380.18,99.57L379.76,101.18L379.34,102.95L378.07,103.9L377.65,102.13L377.23,101.77L376.81,103.51L376.39,102.24L375.97,102.07L375.13,103.73L374.71,100.07L374.28,100.08L373.86,97.39L373.44,97.27L373.02,96.78L370.92,98.51L370.5,97.21L370.07,97.83L369.65,92.48L369.23,92.5L367.97,90.88L367.55,101.69L367.13,101.55L366.71,103.91L365.44,100.77L365.02,100.39L363.76,104.04L363.34,103.79L360.81,109.38L360.39,110.89L359.13,106.94L358.71,108.41L358.29,108.6L357.87,106.9L357.44,109.7L357.02,109.47L356.6,106.71L356.18,107.84L355.76,107.61L354.08,112.95L353.65,112.16L353.23,111.63L352.81,113.64L352.39,115.69L351.97,115.86L351.55,114.95L351.13,115.55L350.71,114.3L350.29,114.55L349.87,116.29L349.44,115.69L349.02,112.69L348.6,114.07L348.18,115.74L346.92,105.38L346.5,104.4L345.66,104.25L345.23,104.56L342.71,96.3L342.29,95.47L341.87,95.92L341.45,94.07L340.18,96.29L339.76,95.49L338.08,95.86L337.66,95.58L337.24,95.21L336.81,96.46L336.39,95.06L335.13,94.1L334.71,90.82L333.03,90.6L332.6,90.12L331.76,93.43L331.34,92.87L330.5,92.51L330.08,92.43L329.24,86.24L328.81,86.72L327.97,84.83L327.55,84.58L324.6,85.84L324.18,86.05L322.92,89.81L322.5,91.82L319.55,91.77L319.13,90.93L318.71,91.15L318.29,91.89L317.45,92.36L317.03,92.76L315.76,91.81L315.34,92.68L314.92,92.64L314.5,93.5L314.08,93.13L313.66,92.5L312.4,94.81L311.97,96.8L309.87,95.15L309.45,95.42L308.61,94.99L308.19,94.95L305.66,92.5L305.24,91.23L304.82,91.1L304.4,91.02L303.55,97.64L303.13,97.8L302.29,96.94L301.87,95.59L301.03,100.43L300.61,103.12L300.19,103.02L299.76,101.81L296.4,103.91L295.98,102.91L294.29,104.11L293.87,103.55L292.19,102.27L291.77,101.37L291.34,102.02L290.92,101.4L290.5,102.77L290.08,101.01L289.66,101.37L287.98,96.66L287.56,100.2L287.13,100.89L286.71,102.27L286.29,102.01L285.87,102.38L284.61,95.71L284.19,93.22L283.77,92.67L283.35,90.6L282.5,90.84L282.08,91.5L280.82,88.94L280.4,87.24L279.13,88.77L278.71,89.84L278.29,90.94L277.87,82.07L277.45,81.17L276.19,83.44L275.77,82.9L274.08,84.75L273.66,83.51L273.24,83.02L272.4,84.5L271.98,82.72L271.56,81.95L270.71,83.87L270.29,85.45L269.03,82.85L268.61,81.54L267.77,84.9L267.35,86.88L265.24,90.17L264.82,80.42L264.4,80.95L263.98,81.59L263.14,80.88L262.72,81.72L261.45,79.97L261.03,78.93L260.19,79.5L259.77,78.89L258.93,80.73L258.5,78.89L257.66,81.58L257.24,84.83L256.82,84.23L256.4,84.84L254.72,91.25L254.29,89.1L253.87,90.3L253.45,88.51L252.19,93.37L251.77,85.25L251.35,84.94L250.93,81.67L249.66,85.37L249.24,87.7L247.98,89.39L247.56,88.45L246.3,90.14L245.87,91.07L244.19,94.84L243.77,93.1L243.35,92.98L242.93,91.95L242.09,93.42L241.66,94.66L240.82,93.68L240.4,92.66L239.14,93.56L238.72,92.64L237.88,93.37L237.45,93.05L234.93,94.93L234.51,94.09L233.66,95.31L233.24,96.9L232.82,97.39L231.98,85.99L231.56,82.13L231.14,85.43L230.72,85.63L228.61,91.39L228.19,87.99L227.77,87.85L227.35,89.69L226.93,90.31L226.51,90.89L226.09,84.91L225.67,83.65L224.82,84.51L224.4,83.72L223.14,85.69L222.72,87.47L222.3,87.75L221.88,88.66L221.03,89.08L220.61,87.4L219.35,88.54L218.93,88.21L217.67,89.89L217.25,90.74L216.82,91.13L216.4,90.32L215.98,89.06L215.56,89.17L215.14,87.93L213.88,91.18L213.46,97.53L212.61,97.99L212.19,97.26L211.77,97.59L211.35,96.95L210.09,97.28L209.67,97.05L207.56,98.09L207.14,98.65L206.3,97.15L205.88,97.23L205.04,97.48L204.61,97.93L203.77,98.03L203.35,98.99L202.51,99.13L202.09,97.22L201.25,98.22L200.83,99.15L199.98,99.15L199.56,99.92L198.72,99.64L198.3,103.86L197.88,102.14L197.46,101.72L197.04,102.4L196.62,101.51L196.19,102.28L195.35,96.86L194.93,96.47L194.09,96.5L193.67,96.18L193.25,95.67L192.83,96.63L192.41,94.45L191.98,94.44L191.56,91.35L190.3,92.09L189.88,91.84L189.46,92.43L189.04,91.53L188.62,99.61L188.19,99.94L187.77,99.12L187.35,99.19L186.93,100.27L184.83,102.15L184.41,101.96L182.3,103.27L181.88,103.06L181.46,104.62L181.04,102.23L180.62,104.12L179.35,107.45L178.93,107.36L177.67,112.03L177.25,111.47L175.56,105.2L175.14,106.09L174.3,104.27L173.88,98.73L173.46,102.75L173.04,102.48L172.62,103.09L172.2,100.16L171.78,93.54L169.67,89.14L169.25,87.9L167.14,87.41L166.72,87.83L165.46,90.04L165.04,87.59L164.62,90.07L164.2,91.16L162.93,91.74L162.51,86.23L162.09,84.92L161.67,87.32L160.83,87.15L160.41,87.83L159.99,88.21L159.57,86.59L159.14,87.8L157.88,90.67L157.46,92.19L156.62,92.07L156.2,93.1L155.78,92.41L155.36,93.97L154.09,95.06L153.67,94.61L152.41,96.15L151.99,94.06L151.57,94.01L151.15,92.16L150.3,91.66L149.88,85.42L149.04,85.26L148.62,86.11L145.25,86.1L144.83,85.86L143.99,86.08L143.57,86.43L142.73,85.2L142.3,86.33L141.46,83.82L141.04,90.34L140.2,90.62L139.78,90.28L138.94,90.47L138.51,89.56L137.25,91.49L136.83,84.37L136.41,84.28L135.99,81.89L135.57,83.01L135.15,81.53L133.88,86.21L133.46,85.29L133.04,86.5L132.2,80.9L131.78,81.11L131.36,78.88L130.94,82.45L130.52,82.82L129.25,74.7L128.83,75.37L127.15,82.06L126.73,84.54L126.31,82.98L125.88,89.6L124.62,92.65L124.2,75.22L122.94,77.03L122.52,76.69L122.1,76.17L120.83,77.75L120.41,77.92L119.15,82.01L118.73,81.81L118.31,83.88L117.88,81.18L117.46,80.39L116.62,81.2L116.2,86.58L114.94,91.73L114.52,92.6L114.1,92.35L113.67,94.46L112.41,92.3L111.99,90.6L111.57,91.24L111.15,79.26L109.04,81.51L108.62,80.99L108.2,80.25L107.78,81.61L107.36,84.56L106.94,84.86L106.52,83.99L105.25,89.79L104.83,92.02L103.15,90.28L102.73,90.89L102.31,89.95L101.89,91.57L101.47,92.72L99.78,91.66L99.36,91.86L98.94,92.46L97.68,89.59L97.26,90.75L96.41,90.29L95.99,92.15L95.57,92.52L95.15,94.54L94.73,94.26L94.31,95.31L93.47,96.06L93.04,94.39L92.62,94.43L92.2,93.91L91.36,94.98L90.94,93.21L89.26,95.78L88.83,95.41L87.99,95.75L87.57,96.09L87.15,95.49L86.73,96.26L86.31,94.44L85.89,94.1L85.47,110.89L85.05,110.01L84.62,109.99L84.2,108.26L83.36,112.87L82.94,111.8L82.52,112.21L82.1,110.89L81.26,113.61L80.84,114.12L79.99,114.48L79.57,114L79.15,114.56L78.73,113.66L78.31,113.78L76.63,111.28L76.2,111.19L75.78,111.82L75.36,110.98L74.94,111.81L74.52,112.11L73.68,110.39L73.26,107.08L72.84,106.83L72.42,106.01L71.99,106.53L71.57,106.53L70.31,103.59L69.89,106.44L68.63,102.3L68.2,103.62L67.78,102.67L67.36,99.03L65.26,97.35L64.84,97.43L63.15,92.38L62.73,91.16L61.89,91.65L61.47,90.94L61.05,91.29L60.63,89.98L60.21,90.88L59.78,72L59.36,72.33L58.94,69.59L57.26,75.79L56.84,75.04L56,75.89L55.57,76.71L55.15,76.4L53.47,83.48L53.05,84.53L50.52,87.58L50.1,85.47L49.26,86.02L48.84,84.62L47.15,88.64L46.73,121.51L46.31,120.57L45.89,122.33L45.47,125.69L43.79,119.54L43.36,117.46L41.68,126.36L41.26,126.48L39.58,135.44L39.15,133.74L37.89,136.89L37.47,137.5L37.05,139.88L36.63,135.21L36.21,134.22L35.79,134.64L35.37,137.25L34.52,133.07L34.1,132.26L33.68,132.9L33.26,127.21L32.84,125.66L30.31,122.28L29.89,122.26L28.21,125.01L27.79,128.83L26.52,119.84L26.1,118.15L25.68,121.92L24.84,107.06L24.42,97.52L24,95.4L23.58,100.76L23.16,101.17L22.31,94.74L21.89,89.62L21.47,91.54L21.05,87.55L20.63,86.56L20.21,84.14L19.79,84.03L19.37,90.77L18.95,85.92L18.1,84.81L17.68,88.1L16.42,76.84L16,72.18L15.58,69.85L15.16,73.42L14.74,77.34L14.31,78.28L13.89,71.93L13.47,63.11L13.05,60.67L12.63,64.13L12.21,59.23L11.79,54.7L11.37,62.55L10.95,73.69L9.26,77.91L8.84,274L0,274Z" style="fill: rgb(255, 127, 14); fill-opacity: 0.5; stroke-width: 0;"/></g></g><g class="errorbars"/><g class="lines"><path class="js-line" d="M0,274L8.84,274L9.26,77.91L10.95,73.69L11.37,62.55L11.79,54.7L12.21,59.23L12.63,64.13L13.05,60.67L13.47,63.11L13.89,71.93L14.31,78.28L14.74,77.34L15.16,73.42L15.58,69.85L16,72.18L16.42,76.84L17.68,88.1L18.1,84.81L18.95,85.92L19.37,90.77L19.79,84.03L20.21,84.14L20.63,86.56L21.05,87.55L21.47,91.54L21.89,89.62L22.31,94.74L23.16,101.17L23.58,100.76L24,95.4L24.42,97.52L24.84,107.06L25.68,121.92L26.1,118.15L26.52,119.84L27.79,128.83L28.21,125.01L29.89,122.26L30.31,122.28L32.84,125.66L33.26,127.21L33.68,132.9L34.1,132.26L34.52,133.07L35.37,137.25L35.79,134.64L36.21,134.22L36.63,135.21L37.05,139.88L37.47,137.5L37.89,136.89L39.15,133.74L39.58,135.44L41.26,126.48L41.68,126.36L43.36,117.46L43.79,119.54L45.47,125.69L45.89,122.33L46.31,120.57L46.73,121.51L47.15,88.64L48.84,84.62L49.26,86.02L50.1,85.47L50.52,87.58L53.05,84.53L53.47,83.48L55.15,76.4L55.57,76.71L56,75.89L56.84,75.04L57.26,75.79L58.94,69.59L59.36,72.33L59.78,72L60.21,90.88L60.63,89.98L61.05,91.29L61.47,90.94L61.89,91.65L62.73,91.16L63.15,92.38L64.84,97.43L65.26,97.35L67.36,99.03L67.78,102.67L68.2,103.62L68.63,102.3L69.89,106.44L70.31,103.59L71.57,106.53L71.99,106.53L72.42,106.01L72.84,106.83L73.26,107.08L73.68,110.39L74.52,112.11L74.94,111.81L75.36,110.98L75.78,111.82L76.2,111.19L76.63,111.28L78.31,113.78L78.73,113.66L79.15,114.56L79.57,114L79.99,114.48L80.84,114.12L81.26,113.61L82.1,110.89L82.52,112.21L82.94,111.8L83.36,112.87L84.2,108.26L84.62,109.99L85.05,110.01L85.47,110.89L85.89,94.1L86.31,94.44L86.73,96.26L87.15,95.49L87.57,96.09L87.99,95.75L88.83,95.41L89.26,95.78L90.94,93.21L91.36,94.98L92.2,93.91L92.62,94.43L93.04,94.39L93.47,96.06L94.31,95.31L94.73,94.26L95.15,94.54L95.57,92.52L95.99,92.15L96.41,90.29L97.26,90.75L97.68,89.59L98.94,92.46L99.36,91.86L99.78,91.66L101.47,92.72L101.89,91.57L102.31,89.95L102.73,90.89L103.15,90.28L104.83,92.02L105.25,89.79L106.52,83.99L106.94,84.86L107.36,84.56L107.78,81.61L108.2,80.25L108.62,80.99L109.04,81.51L111.15,79.26L111.57,91.24L111.99,90.6L112.41,92.3L113.67,94.46L114.1,92.35L114.52,92.6L114.94,91.73L116.2,86.58L116.62,81.2L117.46,80.39L117.88,81.18L118.31,83.88L118.73,81.81L119.15,82.01L120.41,77.92L120.83,77.75L122.1,76.17L122.52,76.69L122.94,77.03L124.2,75.22L124.62,92.65L125.88,89.6L126.31,82.98L126.73,84.54L127.15,82.06L128.83,75.37L129.25,74.7L130.52,82.82L130.94,82.45L131.36,78.88L131.78,81.11L132.2,80.9L133.04,86.5L133.46,85.29L133.88,86.21L135.15,81.53L135.57,83.01L135.99,81.89L136.41,84.28L136.83,84.37L137.25,91.49L138.51,89.56L138.94,90.47L139.78,90.28L140.2,90.62L141.04,90.34L141.46,83.82L142.3,86.33L142.73,85.2L143.57,86.43L143.99,86.08L144.83,85.86L145.25,86.1L148.62,86.11L149.04,85.26L149.88,85.42L150.3,91.66L151.15,92.16L151.57,94.01L151.99,94.06L152.41,96.15L153.67,94.61L154.09,95.06L155.36,93.97L155.78,92.41L156.2,93.1L156.62,92.07L157.46,92.19L157.88,90.67L159.14,87.8L159.57,86.59L159.99,88.21L160.41,87.83L160.83,87.15L161.67,87.32L162.09,84.92L162.51,86.23L162.93,91.74L164.2,91.16L164.62,90.07L165.04,87.59L165.46,90.04L166.72,87.83L167.14,87.41L169.25,87.9L169.67,89.14L171.78,93.54L172.2,100.16L172.62,103.09L173.04,102.48L173.46,102.75L173.88,98.73L174.3,104.27L175.14,106.09L175.56,105.2L177.25,111.47L177.67,112.03L178.93,107.36L179.35,107.45L180.62,104.12L181.04,102.23L181.46,104.62L181.88,103.06L182.3,103.27L184.41,101.96L184.83,102.15L186.93,100.27L187.35,99.19L187.77,99.12L188.19,99.94L188.62,99.61L189.04,91.53L189.46,92.43L189.88,91.84L190.3,92.09L191.56,91.35L191.98,94.44L192.41,94.45L192.83,96.63L193.25,95.67L193.67,96.18L194.09,96.5L194.93,96.47L195.35,96.86L196.19,102.28L196.62,101.51L197.04,102.4L197.46,101.72L197.88,102.14L198.3,103.86L198.72,99.64L199.56,99.92L199.98,99.15L200.83,99.15L201.25,98.22L202.09,97.22L202.51,99.13L203.35,98.99L203.77,98.03L204.61,97.93L205.04,97.48L205.88,97.23L206.3,97.15L207.14,98.65L207.56,98.09L209.67,97.05L210.09,97.28L211.35,96.95L211.77,97.59L212.19,97.26L212.61,97.99L213.46,97.53L213.88,91.18L215.14,87.93L215.56,89.17L215.98,89.06L216.4,90.32L216.82,91.13L217.25,90.74L217.67,89.89L218.93,88.21L219.35,88.54L220.61,87.4L221.03,89.08L221.88,88.66L222.3,87.75L222.72,87.47L223.14,85.69L224.4,83.72L224.82,84.51L225.67,83.65L226.09,84.91L226.51,90.89L226.93,90.31L227.35,89.69L227.77,87.85L228.19,87.99L228.61,91.39L230.72,85.63L231.14,85.43L231.56,82.13L231.98,85.99L232.82,97.39L233.24,96.9L233.66,95.31L234.51,94.09L234.93,94.93L237.45,93.05L237.88,93.37L238.72,92.64L239.14,93.56L240.4,92.66L240.82,93.68L241.66,94.66L242.09,93.42L242.93,91.95L243.35,92.98L243.77,93.1L244.19,94.84L245.87,91.07L246.3,90.14L247.56,88.45L247.98,89.39L249.24,87.7L249.66,85.37L250.93,81.67L251.35,84.94L251.77,85.25L252.19,93.37L253.45,88.51L253.87,90.3L254.29,89.1L254.72,91.25L256.4,84.84L256.82,84.23L257.24,84.83L257.66,81.58L258.5,78.89L258.93,80.73L259.77,78.89L260.19,79.5L261.03,78.93L261.45,79.97L262.72,81.72L263.14,80.88L263.98,81.59L264.4,80.95L264.82,80.42L265.24,90.17L267.35,86.88L267.77,84.9L268.61,81.54L269.03,82.85L270.29,85.45L270.71,83.87L271.56,81.95L271.98,82.72L272.4,84.5L273.24,83.02L273.66,83.51L274.08,84.75L275.77,82.9L276.19,83.44L277.45,81.17L277.87,82.07L278.29,90.94L278.71,89.84L279.13,88.77L280.4,87.24L280.82,88.94L282.08,91.5L282.5,90.84L283.35,90.6L283.77,92.67L284.19,93.22L284.61,95.71L285.87,102.38L286.29,102.01L286.71,102.27L287.13,100.89L287.56,100.2L287.98,96.66L289.66,101.37L290.08,101.01L290.5,102.77L290.92,101.4L291.34,102.02L291.77,101.37L292.19,102.27L293.87,103.55L294.29,104.11L295.98,102.91L296.4,103.91L299.76,101.81L300.19,103.02L300.61,103.12L301.03,100.43L301.87,95.59L302.29,96.94L303.13,97.8L303.55,97.64L304.4,91.02L304.82,91.1L305.24,91.23L305.66,92.5L308.19,94.95L308.61,94.99L309.45,95.42L309.87,95.15L311.97,96.8L312.4,94.81L313.66,92.5L314.08,93.13L314.5,93.5L314.92,92.64L315.34,92.68L315.76,91.81L317.03,92.76L317.45,92.36L318.29,91.89L318.71,91.15L319.13,90.93L319.55,91.77L322.5,91.82L322.92,89.81L324.18,86.05L324.6,85.84L327.55,84.58L327.97,84.83L328.81,86.72L329.24,86.24L330.08,92.43L330.5,92.51L331.34,92.87L331.76,93.43L332.6,90.12L333.03,90.6L334.71,90.82L335.13,94.1L336.39,95.06L336.81,96.46L337.24,95.21L337.66,95.58L338.08,95.86L339.76,95.49L340.18,96.29L341.45,94.07L341.87,95.92L342.29,95.47L342.71,96.3L345.23,104.56L345.66,104.25L346.5,104.4L346.92,105.38L348.18,115.74L348.6,114.07L349.02,112.69L349.44,115.69L349.87,116.29L350.29,114.55L350.71,114.3L351.13,115.55L351.55,114.95L351.97,115.86L352.39,115.69L352.81,113.64L353.23,111.63L353.65,112.16L354.08,112.95L355.76,107.61L356.18,107.84L356.6,106.71L357.02,109.47L357.44,109.7L357.87,106.9L358.29,108.6L358.71,108.41L359.13,106.94L360.39,110.89L360.81,109.38L363.34,103.79L363.76,104.04L365.02,100.39L365.44,100.77L366.71,103.91L367.13,101.55L367.55,101.69L367.97,90.88L369.23,92.5L369.65,92.48L370.07,97.83L370.5,97.21L370.92,98.51L373.02,96.78L373.44,97.27L373.86,97.39L374.28,100.08L374.71,100.07L375.13,103.73L375.97,102.07L376.39,102.24L376.81,103.51L377.23,101.77L377.65,102.13L378.07,103.9L379.34,102.95L379.76,101.18L380.18,99.57L380.6,100.02L381.02,99.49L382.28,97.3L382.71,94.98L383.13,93.03L383.55,93.8L383.97,94.9L385.23,94.08L385.65,93.76L386.07,92L386.49,92.51L386.92,93.5L387.34,93.38L387.76,94.83L388.6,94.95L389.02,95.08L390.28,97.55L390.7,97.54L391.55,96.7L391.97,97.26L392.39,97.97L392.81,101.34L393.23,100.23L393.65,92.8L394.49,95.04L394.91,94.27L397.44,94.55L397.86,94.12L398.7,94.89L399.12,94.3L399.55,92.94L399.97,93.49L400.39,93.5L402.07,93.59L402.49,94.71L403.34,95.13L403.76,94.76L407.12,92.84L407.55,93.45L407.97,93.47L408.39,94.9L410.07,95.35L410.49,95.24L411.33,95.25L411.76,95.39L412.6,94.53L413.02,94.21L414.7,95.7L415.12,98.6L416.39,106.26L416.81,105.94L417.23,102.01L418.07,100.84L418.49,103.69L418.91,104.47L419.33,108.03L420.6,111.59L421.02,110.28L421.86,108.07L422.28,109.24L423.54,109.19L423.96,109.72L424.81,114.75L425.23,113.74L425.65,113.66L426.07,111.29L426.49,111.88L426.91,110.86L427.33,111.54L427.75,109.42L428.18,109.86L428.6,109.35L429.02,111L429.86,109.61L430.28,109.96L431.12,111.32L431.54,113.93L431.96,114.93L432.39,106.86L433.65,103.98L434.07,98.71L434.49,100.63L434.91,100.03L435.33,99.26L437.02,104.24L437.44,102.05L437.86,101.62L438.28,99.35L438.7,98.54L439.12,101.7L440.38,99.43L440.81,98.01L441.23,97.98L441.65,96.25L442.91,98.34L443.33,98.48L444.59,98.76L445.02,91.77L445.86,91.09L446.28,91.42L447.96,89.9L448.38,91.4L449.23,91.25L449.65,92.24L451.75,90.46L452.17,91.22L453.44,87.25L453.86,89.5L455.12,88.25L455.54,86.45L457.65,82.78L458.07,93.16L458.91,91.09L459.33,92.39L459.75,88.69L460.17,93.84L461.01,94.01L461.44,93.38L462.28,94.36L462.7,92.14L463.12,93.6L463.54,92.74L463.96,91.61L465.65,88.48L466.07,90.28L467.33,100.99L467.75,98.27L469.01,95.79L469.43,96.03L469.86,98.4L470.28,97.77L470.7,97.6L471.12,97.39L471.54,98.28L471.96,96.28L472.38,97.38L472.8,97.28L473.65,96.09L474.07,97.1L475.33,95.9L475.75,96.8L477.01,94.74L477.43,91.54L477.86,91.69L478.28,90.34L479.54,88.64L479.96,85.73L480.38,86.9L480.8,86.06L481.22,83.2L482.07,88.72L482.49,88.26L482.91,86.82L483.33,85.62L483.75,90.67L484.17,89L484.59,100.71L485.01,105.95L485.43,105.62L485.85,106.38L486.7,101.17L487.12,104.62L487.54,106.61L487.96,102.42L488.38,102.63L488.8,101.75L490.91,109.14L491.33,115.67L491.75,116.8L492.17,112.7L493.01,116L493.43,123.26L493.85,119.99L494.27,121.13L494.7,120.39L495.12,118.28L495.54,119.01L495.96,118.8L496.38,118.11L496.8,119.7L497.64,122.05L498.06,120.97L498.49,122.62L498.91,119.6L499.33,118.29L499.75,111.49L500.17,111.71L500.59,113.14L501.01,110.29L501.43,112.41L501.85,112.14L503.54,106.89L503.96,109.72L505.22,103.26L505.64,102.87L506.48,103.74L506.91,102.5L508.17,103.15L508.59,90.62L509.01,89.46L509.43,90.03L509.85,91.01L510.27,90.3L510.69,94.5L511.12,94.2L511.54,96.59L513.22,89.55L513.64,90.45L514.06,90.19L514.48,91.51L515.75,89.39L516.17,89.98L517.85,89.13L518.27,88.3L519.12,89.51L519.54,89.13L519.96,88.36L520.38,90.59L520.8,90.29L521.22,92.38L522.06,98.11L522.48,96.74L523.75,98.61L524.17,96.67L524.59,97.68L525.01,97.31L525.43,97.53L526.69,98.27L527.11,101.92L527.54,103.7L527.96,103.29L528.38,102.02L529.64,105.89L530.06,109.56L530.48,113.02L530.9,112.8L531.32,110.03L532.59,115.52L533.01,117.67L533.43,119.38L533.85,115.04L535.53,128.22L535.96,127.55L536.38,128.23L536.8,127.06L537.22,131.36L537.64,132.35L538.06,135.36L538.9,141.38L539.32,139.64L539.74,144.4L540.17,142.52L540.59,142.21L541.01,141.8L541.43,144.26L542.27,137.72L542.69,136.87L543.11,133.75L543.53,134.77L543.96,138.55L544.8,141.97L545.22,140.71L545.64,139.52L546.06,138.67L546.48,138.96L546.9,142.21L547.74,110.25L548.17,110.3L549.43,113.27L549.85,115.03L550.27,113.79L550.69,108.83L551.53,104.01L551.95,107.28L552.8,103.12L553.22,104.18L553.64,102.71L554.06,103.24L554.48,104.06L554.9,103.25L555.32,104.51L557.01,100.79L557.43,102.11L558.27,100.6L558.69,103.15L559.11,102.47L559.53,106.19L559.95,90.9L560.37,91.29L560.8,91.94L562.48,95.4L562.9,92.21L565.01,87.78L565.43,89.03L567.53,87.52L567.95,88.43L569.22,91.17L569.64,91.63L571.32,85.94L571.74,87.8L572.16,86.79L572.58,89.01L573.43,96.53L573.85,95.68L574.27,98.18L574.69,98.7L575.11,97.32L575.53,100.08L575.95,98.4L576.37,97.99L577.22,98.89L577.64,98.14L578.9,99.68L579.32,98.23L580.16,97.23L580.58,97.83L581.85,95.81L582.27,96.88L583.53,96.07L583.95,96.6L584.79,96.11L585.21,98.16L586.06,106.1L586.48,104.91L586.9,106.12L588.58,102.74L589,104.71L589.85,101.9L590.27,102.41L590.69,103.44L591.53,102.43L591.95,103.83L592.37,103.67L592.79,101.76L594.48,100.11L594.9,101.48L596.16,100.1L596.58,101.71L598.27,99.94L598.69,91.22L599.11,93.06L599.53,92.94L599.95,91.29L600.37,90.88L600.79,87.95L601.21,89.58L601.63,89.06L602.06,88.26L602.9,85.45L603.32,86L603.74,86.42L604.16,89.07L604.58,86.32L605,86.48L605.42,86.15L606.27,84.32L606.69,86.54L607.95,90.6L608.37,89.91L608.79,89.76L609.21,90.98L609.63,90L610.05,92.78L610.48,92.95L610.9,92.13L611.74,92.91L612.16,94.15L613.42,94.83L613.84,94.9L615.11,92.74L615.53,93.24L615.95,94.39L616.79,93.87L617.21,92.72L617.63,93.53L618.05,92.29L618.48,93.02L618.9,92.44L619.32,95.27L619.74,95.19L620.16,94.31L620.58,94.27L621,96.35L623.11,96.06L623.53,97.46L623.95,100.6L624.37,99.43L624.79,99.33L625.21,98.9L625.63,102.61L626.47,103.95L626.9,103.28L627.32,105.01L627.74,104.47L628.16,102.24L629.84,100.83L630.26,101.67L631.53,103.43L631.95,103.1L632.37,103.03L632.79,101.65L633.63,100.62L634.05,99.81L634.47,100.84L634.89,100.07L635.32,99.89L635.74,100.38L636.16,99.42L637,100.35" style="vector-effect: none; fill: none; stroke: rgb(31, 119, 180); stroke-opacity: 1; stroke-width: 2px; opacity: 1;"/></g><g class="points"/><g class="text"/></g><g class="trace scatter trace6eea9384-1e42-4f09-9870-01c862180074" style="stroke-miterlimit: 2;"><g class="fills"/><g class="errorbars"/><g class="lines"><path class="js-line" d="M0,274L8.84,274L9.26,13.7L34.94,13.7L35.37,57.77L36.63,63.25L37.05,70.69L38.31,63.57L38.73,61.08L39.15,61.77L39.58,64.06L41.26,56.58L41.68,56.33L42.1,54.02L42.52,55.83L42.94,54.12L43.36,54.27L43.79,56.4L44.21,58.58L44.63,57.16L45.05,58.71L45.47,59.05L45.89,56.94L46.31,55.97L46.73,57.04L47.58,13.7L48,13.7L72.42,14L72.84,27.77L74.94,26.59L75.36,27.05L76.63,27.51L77.05,28.43L78.73,28.16L79.15,28.32L79.57,28.87L79.99,28.54L80.41,28.53L81.26,28.32L81.68,29.12L82.1,30.27L82.52,30.07L82.94,30.34L84.2,31.53L84.62,30.55L85.47,30.41L85.89,16.15L90.1,16.37L90.52,16.51L93.04,16.44L93.47,16.4L98.1,16.64L98.52,13.71L175.56,13.7L175.99,27.31L176.41,26.69L176.83,27.08L177.25,26.88L179.35,26.61L179.77,28.08L181.04,28.83L181.46,28L182.72,28.25L183.14,28.39L183.98,28.6L184.41,28.75L186.51,28.7L186.93,28.87L187.77,29.57L188.19,29.32L188.62,29.48L189.04,13.7L200.4,13.7L200.83,21.29L206.3,21.25L206.72,21.14L208.82,20.94L209.25,21.07L213.46,20.9L213.88,13.7L239.14,13.78L239.56,15.45L251.35,15.01L251.77,15.14L252.61,13.7L253.03,13.7L290.5,13.89L290.92,24.4L292.61,24.59L293.03,24.79L294.71,23.96L295.13,24.33L299.76,24.73L300.19,25.47L300.61,25.5L301.03,24.07L302.71,23.36L303.13,23.6L303.55,23.62L303.97,13.7L342.29,13.7L342.71,17.43L352.81,17.08L353.23,17.33L354.5,17.42L354.92,29.81L355.76,29.43L356.18,29.46L357.44,29.01L357.87,30.82L359.13,31.24L359.55,41.18L359.97,38.14L360.39,39.75L360.81,39.06L361.23,41.14L361.65,40.22L362.08,40.12L362.5,36.37L362.92,36.53L363.34,36.56L363.76,37.91L364.18,35.92L364.6,35.07L365.02,35.28L365.44,35.12L366.71,37.55L367.13,35.98L367.55,35.93L367.97,13.7L380.18,13.7L380.6,21.51L383.97,21.13L384.39,21.87L385.23,21.83L385.65,21.44L387.34,21.13L387.76,21.03L392.39,21.12L392.81,20.78L393.23,21.01L393.65,14.79L399.12,14.87L399.55,14.87L418.91,14.36L419.33,26.32L419.75,26.99L420.18,26.67L420.6,26.66L421.44,26.21L421.86,26.49L423.12,26.13L423.54,26.62L426.07,25.57L426.49,25.79L428.18,26.26L428.6,26.32L429.44,26.61L429.86,26.5L431.12,26.34L431.54,25.92L432.81,25.8L433.23,27.21L433.65,26.96L434.07,27.83L435.33,27.84L435.75,27.59L437.02,27.03L437.44,27.36L439.12,26.6L439.54,26.65L440.38,26.78L440.81,27.49L444.59,27.02L445.02,13.94L470.28,13.7L470.7,19.67L473.22,19.57L473.65,19.88L479.54,18.66L479.96,18.85L483.33,17.83L483.75,13.88L496.38,13.84L496.8,40.31L497.64,37.16L498.06,37.67L498.49,36.65L499.33,36.85L499.75,34.05L500.59,34.41L501.01,33.46L503.12,33.14L503.54,32.24L503.96,32.09L504.38,31.13L505.22,30.86L505.64,31.96L506.91,34.76L507.33,35.1L508.17,35.59L508.59,13.7L533.85,14.26L534.27,37.24L534.69,37.52L535.11,36.24L535.53,37.58L535.96,35.98L536.8,36.08L537.22,34.89L538.48,34.77L538.9,37.27L539.32,37.31L539.74,36.4L541.01,40.23L541.43,40.11L541.85,45.81L542.27,42.89L542.69,45.81L543.11,46.34L543.53,48.68L544.8,43.05L545.22,43.99L546.06,47.85L546.48,46.76L546.9,44.54L547.32,32.99L548.17,31.76L548.59,32.81L550.27,34.41L550.69,32.83L551.95,33.99L552.38,32.48L553.22,31.88L553.64,33.02L554.06,33.11L554.48,34.24L555.32,34.24L555.74,36.94L557.01,35.32L557.43,37.2L557.85,36.89L558.27,35.35L559.53,34.42L559.95,14.8L572.58,14.6L573.01,13.7L585.64,13.7L586.06,24.09L588.16,23.52L588.58,24.76L591.53,24.71L591.95,24.37L593.64,24.78L594.06,25.94L594.48,26.61L594.9,25.66L595.32,25.35L595.74,25.97L596.16,26L597,26.09L597.42,26.49L598.27,25.71L598.69,13.7L623.95,14.09L624.37,22.05L625.21,22.64L625.63,23.24L627.32,22.86L627.74,23.44L628.58,23.24L629,23.11L629.84,23.87L630.26,23.35L632.37,23.68L632.79,23.34L637,23.97" style="vector-effect: none; fill: none; stroke: rgb(255, 127, 14); stroke-opacity: 1; stroke-width: 2px; opacity: 1;"/></g><g class="points"/><g class="text"/></g></g></g><g class="overplot"/><path class="xlines-above crisp" d="M0,0" style="fill: none;"/><path class="ylines-above crisp" d="M0,0" style="fill: none;"/><g class="overlines-above"/><g class="xaxislayer-above"><g class="xtick"><text text-anchor="middle" x="0" y="333" transform="translate(55.31,0)" style="font-family: 'Open Sans', verdana, arial, sans-serif; font-size: 12px; fill: rgb(42, 63, 95); fill-opacity: 1; white-space: pre; opacity: 1;">Jan 2018</text></g><g class="xtick"><text text-anchor="middle" x="0" y="333" style="font-family: 'Open Sans', verdana, arial, sans-serif; font-size: 12px; fill: rgb(42, 63, 95); fill-opacity: 1; white-space: pre; opacity: 1;" transform="translate(131.51999999999998,0)">Jul 2018</text></g><g class="xtick"><text text-anchor="middle" x="0" y="333" style="font-family: 'Open Sans', verdana, arial, sans-serif; font-size: 12px; fill: rgb(42, 63, 95); fill-opacity: 1; white-space: pre; opacity: 1;" transform="translate(208.99,0)">Jan 2019</text></g><g class="xtick"><text text-anchor="middle" x="0" y="333" style="font-family: 'Open Sans', verdana, arial, sans-serif; font-size: 12px; fill: rgb(42, 63, 95); fill-opacity: 1; white-space: pre; opacity: 1;" transform="translate(285.19,0)">Jul 2019</text></g><g class="xtick"><text text-anchor="middle" x="0" y="333" style="font-family: 'Open Sans', verdana, arial, sans-serif; font-size: 12px; fill: rgb(42, 63, 95); fill-opacity: 1; white-space: pre; opacity: 1;" transform="translate(362.66,0)">Jan 2020</text></g><g class="xtick"><text text-anchor="middle" x="0" y="333" style="font-family: 'Open Sans', verdana, arial, sans-serif; font-size: 12px; fill: rgb(42, 63, 95); fill-opacity: 1; white-space: pre; opacity: 1;" transform="translate(439.28,0)">Jul 2020</text></g><g class="xtick"><text text-anchor="middle" x="0" y="333" style="font-family: 'Open Sans', verdana, arial, sans-serif; font-size: 12px; fill: rgb(42, 63, 95); fill-opacity: 1; white-space: pre; opacity: 1;" transform="translate(516.75,0)">Jan 2021</text></g><g class="xtick"><text text-anchor="middle" x="0" y="333" style="font-family: 'Open Sans', verdana, arial, sans-serif; font-size: 12px; fill: rgb(42, 63, 95); fill-opacity: 1; white-space: pre; opacity: 1;" transform="translate(592.95,0)">Jul 2021</text></g></g><g class="yaxislayer-above"><g class="ytick"><text text-anchor="end" x="32" y="4.199999999999999" transform="translate(0,320)" style="font-family: 'Open Sans', verdana, arial, sans-serif; font-size: 12px; fill: rgb(42, 63, 95); fill-opacity: 1; white-space: pre; opacity: 1;">0</text></g><g class="ytick"><text text-anchor="end" x="32" y="4.199999999999999" style="font-family: 'Open Sans', verdana, arial, sans-serif; font-size: 12px; fill: rgb(42, 63, 95); fill-opacity: 1; white-space: pre; opacity: 1;" transform="translate(0,267.94)">0.2</text></g><g class="ytick"><text text-anchor="end" x="32" y="4.199999999999999" style="font-family: 'Open Sans', verdana, arial, sans-serif; font-size: 12px; fill: rgb(42, 63, 95); fill-opacity: 1; white-space: pre; opacity: 1;" transform="translate(0,215.88)">0.4</text></g><g class="ytick"><text text-anchor="end" x="32" y="4.199999999999999" style="font-family: 'Open Sans', verdana, arial, sans-serif; font-size: 12px; fill: rgb(42, 63, 95); fill-opacity: 1; white-space: pre; opacity: 1;" transform="translate(0,163.82)">0.6</text></g><g class="ytick"><text text-anchor="end" x="32" y="4.199999999999999" style="font-family: 'Open Sans', verdana, arial, sans-serif; font-size: 12px; fill: rgb(42, 63, 95); fill-opacity: 1; white-space: pre; opacity: 1;" transform="translate(0,111.76)">0.8</text></g><g class="ytick"><text text-anchor="end" x="32" y="4.199999999999999" style="font-family: 'Open Sans', verdana, arial, sans-serif; font-size: 12px; fill: rgb(42, 63, 95); fill-opacity: 1; white-space: pre; opacity: 1;" transform="translate(0,59.7)">1</text></g></g><g class="overaxes-above"/></g></g><g class="polarlayer"/><g class="smithlayer"/><g class="ternarylayer"/><g class="geolayer"/><g class="funnelarealayer"/><g class="pielayer"/><g class="iciclelayer"/><g class="treemaplayer"/><g class="sunburstlayer"/><g class="glimages"/><defs id="topdefs-ab8f7e"><g class="clips"/><clipPath id="legendab8f7e"><rect width="202" height="29" x="0" y="0"/></clipPath></defs><g class="layer-above"><g class="imagelayer"/><g class="shapelayer"/></g><g class="infolayer"><g class="legend" pointer-events="all" transform="translate(468,11.519999999999996)"><rect class="bg" shape-rendering="crispEdges" width="202" height="29" x="0" y="0" style="stroke: rgb(68, 68, 68); stroke-opacity: 1; fill: rgb(255, 255, 255); fill-opacity: 1; stroke-width: 0px;"/><g class="scrollbox" transform="" clip-path="url(#legendab8f7e)"><g class="groups"><g class="traces" transform="translate(0,14.5)" style="opacity: 1;"><text class="legendtext" text-anchor="start" x="40" y="4.680000000000001" style="font-family: 'Open Sans', verdana, arial, sans-serif; font-size: 12px; fill: rgb(42, 63, 95); fill-opacity: 1; white-space: pre;">BTC-USD</text><g class="layers"><g class="legendfill"><path class="js-fill" d="M5,-2h30v6h-30z" style="stroke-width: 0; fill: rgb(31, 119, 180); fill-opacity: 0.5;"/></g><g class="legendlines"><path class="js-line" d="M5,-2h30" style="fill: none; stroke: rgb(31, 119, 180); stroke-opacity: 1; stroke-width: 2px;"/></g><g class="legendsymbols"><g class="legendpoints"/></g></g><rect class="legendtoggle" x="0" y="-9.5" width="98.1875" height="19" style="fill: rgb(0, 0, 0); fill-opacity: 0;"/></g><g class="traces" transform="translate(100.6875,14.5)" style="opacity: 1;"><text class="legendtext" text-anchor="start" x="40" y="4.680000000000001" style="font-family: 'Open Sans', verdana, arial, sans-serif; font-size: 12px; fill: rgb(42, 63, 95); fill-opacity: 1; white-space: pre;">ETH-USD</text><g class="layers"><g class="legendfill"><path class="js-fill" d="M5,-2h30v6h-30z" style="stroke-width: 0; fill: rgb(255, 127, 14); fill-opacity: 0.5;"/></g><g class="legendlines"><path class="js-line" d="M5,-2h30" style="fill: none; stroke: rgb(255, 127, 14); stroke-opacity: 1; stroke-width: 2px;"/></g><g class="legendsymbols"><g class="legendpoints"/></g></g><rect class="legendtoggle" x="0" y="-9.5" width="98.1875" height="19" style="fill: rgb(0, 0, 0); fill-opacity: 0;"/></g></g></g><rect class="scrollbar" rx="20" ry="3" width="0" height="0" x="0" y="0" style="fill: rgb(128, 139, 164); fill-opacity: 1;"/></g><g class="g-gtitle"/><g class="g-xtitle"/><g class="g-ytitle"/></g></svg>