<svg class="main-svg" xmlns="http://www.w3.org/2000/svg" xmlns:xlink="http://www.w3.org/1999/xlink" width="700" height="350" style="" viewBox="0 0 700 350"><rect x="0" y="0" width="700" height="350" style="fill: rgb(255, 255, 255); fill-opacity: 1;"/><defs id="defs-00e977"><g class="clips"><clipPath id="clip00e977xyplot" class="plotclip"><rect width="627" height="274"/></clipPath><clipPath class="axesclip" id="clip00e977x"><rect x="43" y="0" width="627" height="350"/></clipPath><clipPath class="axesclip" id="clip00e977y"><rect x="0" y="46" width="700" height="274"/></clipPath><clipPath class="axesclip" id="clip00e977xy"><rect x="43" y="46" width="627" height="274"/></clipPath></g><g class="gradients"/><g class="patterns"/></defs><g class="bglayer"><rect class="bg" x="43" y="46" width="627" height="274" style="fill: rgb(229, 236, 246); fill-opacity: 1; stroke-width: 0;"/></g><g class="layer-below"><g class="imagelayer"/><g class="shapelayer"/></g><g class="cartesianlayer"><g class="subplot xy"><g class="layer-subplot"><g class="shapelayer"/><g class="imagelayer"/></g><g class="minor-gridlayer"><g class="x"/><g class="y"/></g><g class="gridlayer"><g class="x"><path class="xgrid crisp" transform="translate(89.89,0)" d="M0,46v274" style="stroke: rgb(255, 255, 255); stroke-opacity: 1; stroke-width: 1px;"/><path class="xgrid crisp" transform="translate(214.81,0)" d="M0,46v274" style="stroke: rgb(255, 255, 255); stroke-opacity: 1; stroke-width: 1px;"/><path class="xgrid crisp" transform="translate(339.73,0)" d="M0,46v274" style="stroke: rgb(255, 255, 255); stroke-opacity: 1; stroke-width: 1px;"/><path class="xgrid crisp" transform="translate(464.99,0)" d="M0,46v274" style="stroke: rgb(255, 255, 255); stroke-opacity: 1; stroke-width: 1px;"/><path class="xgrid crisp" transform="translate(589.91,0)" d="M0,46v274" style="stroke: rgb(255, 255, 255); stroke-opacity: 1; stroke-width: 1px;"/></g><g class="y"><path class="ygrid crisp" transform="translate(0,270.58000000000004)" d="M43,0h627" style="stroke: rgb(255, 255, 255); stroke-opacity: 1; stroke-width: 1px;"/><path class="ygrid crisp" transform="translate(0,231.28)" d="M43,0h627" style="stroke: rgb(255, 255, 255); stroke-opacity: 1; stroke-width: 1px;"/><path class="ygrid crisp" transform="translate(0,191.98)" d="M43,0h627" style="stroke: rgb(255, 255, 255); stroke-opacity: 1; stroke-width: 1px;"/><path class="ygrid crisp" transform="translate(0,152.68)" d="M43,0h627" style="stroke: rgb(255, 255, 255); stroke-opacity: 1; stroke-width: 1px;"/><path class="ygrid crisp" transform="translate(0,113.38)" d="M43,0h627" style="stroke: rgb(255, 255, 255); stroke-opacity: 1; stroke-width: 1px;"/><path class="ygrid crisp" transform="translate(0,74.08)" d="M43,0h627" style="stroke: rgb(255, 255, 255); stroke-opacity: 1; stroke-width: 1px;"/></g></g><g class="zerolinelayer"><path class="yzl zl crisp" transform="translate(0,309.88)" d="M43,0h627" style="stroke: rgb(255, 255, 255); stroke-opacity: 1; stroke-width: 2px;"/></g><path class="xlines-below"/><path class="ylines-below"/><g class="overlines-below"/><g class="xaxislayer-below"/><g class="yaxislayer-below"/><g class="overaxes-below"/><g class="plot" transform="translate(43,46)" clip-path="url(#clip00e977xyplot)"><g class="scatterlayer mlayer"><g class="trace scatter tracebf636c87-a8e4-4929-a628-8d54fa4ee09c" style="stroke-miterlimit: 2; opacity: 1;"><g class="fills"/><g class="errorbars"/><g class="lines"><path class="js-line" d="M0,260.22L2.74,260.1L3.08,259.83L6.84,257.58L7.19,256.16L8.21,256.95L8.56,256.16L9.58,256.28L9.93,255.72L10.95,255.11L11.29,255.84L13.01,257.6L13.35,257.58L17.11,258.38L17.45,258.35L20.19,258.85L20.53,259.08L22.25,258.54L22.59,258.48L27.04,258.52L27.38,258.42L28.06,258.11L28.41,257.86L31.14,257.97L31.49,257.74L38.67,257.91L39.02,258.52L41.07,258.28L41.41,257.72L42.44,257.27L42.78,257.04L45.18,256.11L45.52,255.67L48.26,253.92L48.6,252.35L48.94,249.75L49.28,250.36L49.63,251.41L49.97,251.2L50.31,249.76L51.34,249.98L51.68,248.95L52.02,247.62L52.71,247.83L53.05,249.16L53.39,248.66L53.73,249.13L54.08,250.32L54.76,251.77L55.1,250.41L55.44,250.18L55.79,248.79L56.13,247.49L56.81,247.7L57.16,247.13L58.18,246.78L58.52,247.17L58.87,246.92L59.21,245.75L60.24,243.26L60.58,243.69L60.92,243.38L62.29,239.75L62.63,239.5L63.32,229.29L63.66,230.79L64,233.34L64.34,232.83L64.69,229.31L65.37,230.47L65.71,229.84L66.05,227.33L66.4,224.07L67.08,224.32L67.42,223.2L69.48,207.91L69.82,215.45L70.16,210.87L70.5,213L70.85,217.49L71.19,218.46L71.53,217.53L71.87,212.84L72.56,216.99L72.9,215.77L73.24,215.12L73.93,210.26L74.27,212.12L74.61,215.4L74.95,213.62L75.29,215.34L75.64,220.39L75.98,217.55L76.32,223.53L76.66,222.56L77.01,218.46L77.35,218.98L77.69,217.97L78.38,219.68L78.72,221.71L79.74,221.89L80.09,221.88L80.77,223.16L81.11,222.72L81.46,222.98L82.48,224.59L82.82,223.29L84.19,219.06L84.54,219.82L85.56,220.1L85.9,220.55L86.93,217.65L87.27,217.26L87.96,217.47L88.3,215.72L88.64,215.23L88.98,215.69L89.33,215.15L89.67,217.22L90.01,217.16L90.35,218.15L90.7,215.99L91.04,218.68L92.06,218.41L92.41,217.07L93.78,220.75L94.12,220.53L94.46,237.66L95.15,235.62L95.49,234.59L95.83,236.41L96.17,234.86L96.51,234.42L97.2,229.96L97.54,230.08L97.88,232.1L98.57,227.03L98.91,227.4L99.25,227.07L100.28,231.75L100.62,228.95L100.96,228.86L101.31,227.59L102.33,226.42L102.67,226.88L103.7,223.66L104.04,224.09L104.39,226.41L105.07,226.16L105.41,226.52L105.75,226.35L106.1,227.71L106.44,225.08L107.12,225.25L107.47,223.36L108.49,224L108.84,224.94L111.23,219.26L111.57,213.63L112.26,209.56L112.6,211.04L112.94,210.58L113.63,212.87L113.97,211.28L114.65,208.13L115,208.82L115.34,209.14L115.68,213.2L116.02,211.23L116.36,209.64L117.05,210.95L117.39,206.79L117.73,207.24L118.08,204.07L120.81,186.92L121.16,188.31L121.84,196.01L122.18,193.98L122.53,190.82L122.87,191.92L123.21,190.2L123.55,186.91L123.89,191.65L125.26,198.41L125.61,190.55L126.63,194.16L126.97,187.35L127.32,184.42L127.66,185.15L128,188.67L128.34,189.17L128.69,193.63L129.03,194.29L129.37,194.06L129.71,201.89L130.74,195.9L131.08,201.93L131.42,200.56L131.77,195.82L132.11,196.23L132.45,193.45L133.48,198.2L133.82,195.31L134.16,189.3L134.5,191.27L134.85,193.54L135.53,190.83L135.87,190.95L136.22,191.28L137.24,197.04L137.58,197.99L138.61,202.29L138.95,204.2L139.98,209.31L140.32,208.53L140.66,207.85L141.01,208.4L141.35,208.92L142.38,205.4L142.72,207.15L143.06,206.35L143.4,208.33L144.77,204.54L145.11,204.08L145.46,204.38L145.8,202.52L146.14,201.03L146.48,201.43L146.82,192.36L147.17,193.41L147.51,199.23L147.85,198.34L148.19,207.17L149.56,195.87L149.91,195.23L150.59,186.07L150.93,190.26L152.3,203.53L152.64,201.25L152.99,199.11L153.33,202.46L153.67,202.16L154.01,214.19L154.7,213.91L155.04,211.57L155.38,205.53L155.72,211.32L156.07,214.83L156.41,214.65L156.75,212.14L157.43,213.33L157.78,211.5L158.12,209.73L158.46,212.59L159.83,223.43L160.17,222.66L161.2,225.45L161.54,225.25L162.91,215.43L163.25,217.95L164.28,215.92L164.62,219.06L164.96,218.68L165.31,221.19L165.65,217.94L166.33,218.39L166.68,219.58L167.36,217.71L167.7,218.81L168.39,218.76L168.73,216.17L169.76,216.42L170.1,220.98L170.78,221.01L171.12,222.28L171.47,220.49L172.15,220.9L172.49,220.61L172.84,220.87L173.18,220.02L173.86,220.34L174.2,220.98L175.23,226.49L175.57,227.85L175.92,225.88L176.26,227.3L176.6,226.75L176.94,226.95L177.28,225.44L178.31,225.41L178.65,229.27L179.68,228.08L180.02,229.12L180.37,228.76L180.71,230.36L182.08,226L182.42,226.58L184.13,225.45L184.47,225.73L185.5,228.09L185.84,228.3L187.55,227.19L187.89,224.37L188.24,227.45L188.92,227.26L189.26,225.49L189.61,225.19L189.95,225.9L190.29,226.62L190.63,225.9L190.97,223.83L192,224.21L192.34,225.42L193.37,226.91L193.71,229.38L194.74,228.3L195.08,229.12L195.77,230.85L196.11,230.04L196.45,230.06L196.79,228.86L197.14,229.46L197.48,231.12L198.5,233.25L198.85,233.76L199.19,233.74L199.53,234.72L201.58,225.24L201.93,227.25L202.95,225.64L203.3,228.14L203.64,227.83L203.98,229.84L204.32,227.25L205.01,227.6L205.35,228.55L206.03,227.06L206.38,227.94L206.72,227.7L207.06,227.9L207.4,225.83L208.43,226.03L208.77,229.66L209.46,229.69L209.8,230.71L210.14,229.28L210.83,229.61L211.17,229.38L211.51,229.58L211.85,228.91L212.19,230.11L213.22,229.98L213.56,231.14L214.59,236.66L214.93,236L215.96,232.91L216.3,233.35L217.33,235.73L217.67,235.39L218.01,235.55L219.04,236.47L219.38,236.27L220.75,232.69L221.09,232.37L222.12,229.35L222.46,229.28L222.8,229.63L223.15,231.27L223.49,230.58L223.83,231.02L224.17,232.47L224.52,234.9L224.86,234.2L225.2,234.09L225.88,234.16L226.23,232.41L226.91,233.07L227.25,231.61L228.62,227.86L228.96,227.77L229.65,228.42L229.99,226.89L230.33,227.74L230.68,230.77L231.02,230.79L231.36,229.67L232.04,225.85L232.39,227.65L233.07,226.38L233.41,227.87L234.1,226.5L234.44,226.88L234.78,228.5L235.13,228.08L235.47,228.64L235.81,229.06L237.52,222.69L237.86,219.87L238.55,217.89L238.89,218.6L239.23,220.02L240.26,218.01L240.6,218.84L241.29,221.88L241.63,221.49L241.97,221.48L242.31,220.87L242.65,218.15L243,216.94L243.68,217.16L244.02,218.34L244.37,217.64L244.71,217.97L245.05,218.32L245.39,219.22L245.73,218.96L246.08,217.82L248.13,218.96L248.47,218.58L249.5,219.53L249.84,220.97L250.87,228.22L251.21,227.72L251.55,227.62L251.9,228.31L252.92,226.91L253.26,227.51L255.32,225.58L255.66,225.87L256.34,225.05L256.69,226.86L257.03,226.44L257.37,222.16L257.71,222.36L258.06,221.35L259.08,219.36L259.42,220.24L260.45,221.68L260.79,221.2L261.14,219.18L261.48,219.86L261.82,223.23L262.85,225.36L263.19,226.75L264.56,224.53L264.9,224.63L265.24,226.05L265.59,220.57L265.93,219.31L266.27,219.84L266.61,221.28L267.98,219.95L268.32,219.48L269.35,219.5L269.69,218.65L270.03,217.5L270.38,218.16L270.72,219.81L271.75,219.07L272.09,219.65L273.11,217.5L273.46,215.14L273.8,214.66L274.14,215.11L274.48,215.35L275.51,211.45L275.85,210.07L277.22,196.77L277.56,194.9L278.59,202.6L278.93,195.08L279.96,199.47L280.3,198.5L280.64,193.47L280.99,193.32L281.33,197.75L281.67,196.31L282.01,197.98L282.36,197.62L282.7,197.5L283.04,194.27L283.38,194.82L283.72,196.86L284.07,197.08L284.41,199.33L285.09,204.92L285.44,213.99L285.78,214.77L286.12,213.77L286.46,218.62L286.8,218.47L287.15,221.79L288.17,217.9L288.52,219.53L289.54,216.2L289.88,217.2L292.28,221.02L292.62,218.98L292.97,219.12L293.31,218.25L293.65,217.33L293.99,221.83L294.33,221.69L294.68,224.78L295.7,221.17L296.05,222.68L297.07,219.58L297.41,220.52L299.81,224.07L300.15,222.17L300.49,222.3L300.84,221.49L301.86,219.38L302.21,220.88L302.89,224.04L303.23,222.17L304.26,220.19L304.6,221.01L305.29,215.66L305.63,216.01L305.97,216.16L307.34,220.5L307.68,224.11L309.05,223.04L309.39,225.41L309.74,225.73L310.08,223.91L310.42,223.38L310.76,226.09L311.45,224.34L311.79,225.34L312.13,226.55L312.47,225.98L312.82,226.1L313.16,225.92L313.5,224.32L313.84,224.56L314.18,222.74L315.55,222.85L315.9,225.41L316.92,226.48L317.26,225.26L318.29,226.79L318.63,228.72L320,230L320.34,229.8L320.69,231.7L321.03,230.74L321.37,230.53L322.4,227.81L322.74,228.73L324.11,230.35L324.45,229.44L325.48,228.88L325.82,229.67L326.85,230.33L327.19,230.05L328.56,233.01L328.9,229.96L329.93,230.63L330.27,228.92L331.3,230.3L331.64,230.31L332.67,229.44L333.01,230.11L333.35,230.34L334.72,223.09L335.06,223.96L335.4,223.33L335.75,219.44L336.43,217.87L336.77,216.16L337.12,215.66L337.46,208.04L337.8,195.47L338.14,198.44L338.48,203.48L338.83,202.48L339.17,195.52L339.85,197.8L340.2,196.56L340.54,191.6L340.88,185.15L341.56,186.17L341.91,192.6L343.28,209.07L343.62,208.24L343.96,207.42L344.3,199.22L344.64,200.17L344.99,205.43L345.33,204.62L345.67,212.61L346.7,203.4L347.04,207.2L347.38,205.97L347.72,207.4L348.07,207.09L348.41,206.98L348.75,204.22L349.78,206.62L350.12,208.55L350.81,213.34L351.15,221.11L351.49,221.78L351.83,220.93L352.17,225.08L352.52,224.95L352.86,227.8L353.89,224.47L354.23,225.87L355.25,223.01L355.6,223.87L357.99,227.15L358.33,225.4L358.68,225.51L359.02,224.77L360.05,222.82L360.39,222.68L361.07,218.21L361.41,220.91L361.76,219.33L362.1,219.64L362.44,222.59L362.78,221.87L363.13,223.8L363.81,227.69L364.15,227.62L364.5,226.19L366.21,229.6L366.55,229.73L366.89,229.55L367.23,226.57L368.26,220.83L368.6,223.07L369.63,221.27L369.97,224.06L370.31,223.72L370.66,225.95L371,223.06L371.68,223.46L372.02,224.51L372.71,222.86L373.05,223.83L373.39,223.56L373.74,223.54L374.08,221.35L374.42,219.23L374.76,219.72L375.1,221.02L376.13,219.01L376.47,219.42L377.16,215.52L377.5,216.08L377.84,215.02L378.19,215L378.53,216.18L379.55,216.28L379.9,217.81L380.58,218.16L380.92,216.65L382.29,211.73L382.63,212.61L383.32,212.72L383.66,212.94L384,213.46L384.35,211.19L385.71,208.23L386.06,209.87L386.74,207.27L387.08,207.79L387.43,210.3L387.77,210.66L388.11,213.83L388.79,214.14L389.14,219.72L390.16,215.45L390.51,219.75L390.85,218.77L391.19,215.4L391.53,215.68L391.88,213.7L392.56,217.07L392.9,216.67L393.24,215.44L393.59,214.58L393.93,216.81L394.27,216.07L394.61,216.57L394.96,217.95L395.98,216.01L396.32,217.65L398.04,219.84L398.38,219.48L399.06,222.26L399.4,218.97L399.75,218.77L400.09,216.89L400.77,214.71L401.12,214.97L401.46,214.82L402.83,216.86L403.17,216.47L404.54,220.61L404.88,216.34L405.91,217.29L406.25,214.88L407.28,216.82L407.62,216.84L408.65,215.62L408.99,216.55L409.67,216.84L410.01,218.38L411.73,210.67L412.07,211.26L412.41,212.81L412.75,210.34L413.09,211.49L413.44,210.41L413.78,208.59L414.12,208.69L414.46,211.58L415.15,209L415.49,210.68L416.52,220.21L416.86,215.29L417.2,214.47L417.54,209.47L417.89,204.78L418.57,205.55L418.91,203.48L419.94,202.22L420.28,203.61L420.62,202.73L420.97,198.5L421.99,189.51L422.34,191.08L422.68,189.94L424.05,176.87L424.39,175.96L425.07,139.14L425.42,144.55L425.76,153.75L426.1,151.91L426.44,139.23L427.13,141.34L427.47,140.39L427.81,139.26L428.15,141.13L428.5,142.26L428.84,142.02L429.18,141.7L429.86,141.55L430.21,151.69L431.23,157.26L431.58,156.62L432.26,177.52L432.6,175.58L432.94,181.1L433.29,180.14L433.63,189.39L433.97,186.48L434.31,190.72L434.66,190.47L435,183.09L435.34,182.5L435.68,187.32L436.03,184.51L436.37,185.06L436.71,190.3L437.05,189.02L437.39,192.47L438.08,199.41L438.42,199.27L438.76,196.72L440.47,202.65L440.82,201.39L441.16,195.07L441.5,199.65L441.84,200.66L443.21,191.59L443.55,194.1L444.92,205.25L445.27,201.42L445.61,209.48L445.95,208.16L446.29,202.64L446.63,203.34L446.98,201.98L447.66,204.29L448,207.03L448.35,207.61L448.69,206.94L449.03,207.26L449.37,209.27L450.06,209.09L450.4,208.7L451.77,201.54L452.11,200.9L453.14,194.87L453.48,194.73L453.82,187.73L454.16,192.79L454.51,193.91L455.88,183.88L456.22,186.65L457.59,198.99L457.93,194.75L458.27,203.68L458.61,202.22L458.96,196.1L459.3,196.89L459.64,195.38L460.32,197.93L460.67,200.96L461.01,201.61L461.35,200.87L461.69,201.22L462.04,203.44L462.72,203.24L463.06,202.82L464.43,194.89L464.77,194.17L465.8,187.5L466.14,187.35L466.49,188.11L466.83,191.75L467.17,191.47L467.51,193.8L468.2,191.25L468.54,192.65L468.88,195.15L470.25,190.18L470.59,190.35L470.93,185.79L471.62,186.3L471.96,188.54L475.04,203.61L475.38,197.55L475.73,196.31L476.07,196.51L476.41,198.1L477.09,192.88L477.44,194.38L477.78,193.66L478.12,198.53L478.46,193.33L479.15,193.48L479.49,191.58L479.83,192.34L480.18,195.32L480.52,195.07L480.86,195.84L481.2,195.23L481.54,191.18L481.89,192.21L482.23,196.33L482.57,196.61L482.91,194.68L483.6,196.33L483.94,194.8L484.97,200.62L485.31,200.04L485.65,200.02L485.99,199.11L486.34,195.01L486.68,193.18L487.36,193.52L487.7,195.29L488.05,194.24L488.39,194.74L488.73,195.26L489.07,196.62L489.42,196.22L489.76,194.51L491.81,196.23L492.15,195.65L492.84,197.37L493.18,197.08L493.52,199.26L494.89,183.02L495.23,184.42L495.58,188.79L495.92,180.98L496.26,184.36L496.6,175.89L497.63,161.09L497.97,167.2L498.66,159.58L499,166.69L500.03,173.61L500.37,174.58L501.05,165.47L501.39,167.72L501.74,162.2L502.08,161.09L502.42,157.13L502.76,156.66L503.11,157.23L503.45,164.09L504.82,182.22L505.16,175.11L506.19,187.81L506.53,187.14L506.87,186.97L507.9,180.74L508.24,178.11L508.92,177.49L509.27,166.58L509.95,158.7L510.29,161.57L510.64,160.67L511.32,165.11L511.66,162.03L512.35,155.92L512.69,157.27L513.03,157.88L513.37,165.74L514.06,158.85L514.4,160.51L514.74,161.39L516.45,138.09L516.8,136.39L517.14,132.05L517.48,132.27L517.82,139.17L518.51,133.02L518.85,137.02L519.88,159.76L520.22,148.02L521.59,124.93L521.93,123.62L522.61,104.9L522.96,113.47L524.33,140.58L524.67,135.91L525.01,131.54L525.35,138.38L525.69,137.78L526.04,162.36L526.38,161.54L526.72,161.79L527.06,157.01L527.41,144.67L527.75,156.5L528.09,163.67L528.43,163.3L528.77,158.17L529.46,160.6L529.8,156.86L530.14,153.24L530.49,159.09L531.85,181.24L532.2,178.2L532.88,199.25L533.22,192.61L533.57,193.11L534.59,186.35L534.94,189.16L535.28,193.42L535.62,191.78L535.96,189.23L536.3,190.83L536.65,190.35L536.99,190.26L537.33,191.21L537.67,195.35L538.02,195.02L538.36,197.6L538.7,198.88L539.04,194.15L541.1,189.47L541.44,189.18L541.78,191.59L542.12,190.13L542.46,188.95L543.15,192.98L543.49,190.29L543.83,190.2L544.18,188.14L544.86,188.03L545.2,183.32L546.23,186.16L546.57,187.84L546.91,192.73L547.26,189.33L547.6,188.33L547.94,193.39L548.28,190.91L548.63,190.13L549.31,194.25L549.65,193.19L549.99,193.42L550.34,193.07L550.68,190.09L551.02,190.54L551.36,187.15L552.73,187.36L553.07,192.12L554.1,194.12L554.44,191.85L555.47,194.7L555.81,198.3L556.15,198.86L556.5,201.14L557.52,200.76L557.87,199.39L558.21,197.62L558.55,199.64L558.89,198.89L559.58,198.87L559.92,200.18L560.26,199.96L560.6,201L561.63,203.82L561.97,201.26L562.31,201.42L562.66,198.42L563,198.44L563.34,200.73L564.37,200.05L564.71,201.49L565.74,203.11L566.08,203.11L566.42,201L566.76,201.2L567.11,202.56L567.79,207.2L568.13,197.7L568.82,191.01L569.16,193.49L569.5,191.95L570.19,193.99L570.53,193.29L571.56,192.06L571.9,192.7L572.24,192.47L572.58,193.41L572.92,196.79L573.27,196.52L573.61,194.76L574.64,207.15L574.98,200.76L575.32,199.69L575.66,193.2L576,187.1L576.69,188.1L577.03,185.41L578.06,183.77L578.4,185.58L578.74,184.43L579.09,178.95L580.11,167.26L580.45,169.3L580.8,167.83L582.17,150.84L582.51,149.66L583.19,101.83L583.53,108.85L583.88,120.8L584.22,118.42L584.56,101.94L585.25,107.35L585.59,104.41L586.27,77.39L586.61,79.76L586.96,79.79L587.3,81.16L587.64,89.1L588.33,86.17L588.67,89.53L589.69,82.68L590.04,85.63L591.06,93.64L591.41,86.36L591.75,86.83L592.09,78.33L592.43,78.39L592.78,84.88L593.8,82.93L594.14,87.03L595.17,91.63L595.51,91.61L595.86,85.64L596.2,86.21L596.54,90.05L597.22,103.22L597.57,76.28L598.25,57.32L598.59,64.36L598.94,59.97L599.62,65.75L599.96,63.79L600.99,60.15L601.33,49.55L602.02,46.77L602.36,48.45L602.7,55.58L603.73,51.47L604.07,50.68L605.44,70.49L605.78,68.19L606.12,70.92L606.47,82.95L607.15,75.55L607.49,81.06L607.83,78.27L608.18,79.07L608.52,82.27L609.2,73.97L609.55,74.58L609.89,78.6L610.57,83.36L610.91,83.32L611.26,78.85L611.6,89.44L611.94,84.3L612.28,81.98L612.97,91.64L613.31,87.81L613.65,87.55L613.99,84.78L614.34,86.65L614.68,91.81L615.71,84.57L616.05,90.71L617.42,99.62L617.76,98.91L618.1,97.56L618.79,107.96L619.13,95.64L619.47,94.89L619.81,87.84L620.5,78.7L620.84,68.98L622.21,42.98L622.55,46.87L623.58,63.91L623.92,55.97L625.63,21.79L625.97,25.29L626.32,25.68L626.66,31.5L627,13.7" style="vector-effect: none; fill: none; stroke: rgb(31, 119, 180); stroke-opacity: 1; stroke-width: 2px; opacity: 1;"/></g><g class="points"/><g class="text"/></g></g></g><g class="overplot"/><path class="xlines-above crisp" d="M0,0" style="fill: none;"/><path class="ylines-above crisp" d="M0,0" style="fill: none;"/><g class="overlines-above"/><g class="xaxislayer-above"><g class="xtick"><text text-anchor="middle" x="0" y="333" transform="translate(89.89,0)" style="font-family: 'Open Sans', verdana, arial, sans-serif; font-size: 12px; fill: rgb(42, 63, 95); fill-opacity: 1; white-space: pre; opacity: 1;">2018</text></g><g class="xtick"><text text-anchor="middle" x="0" y="333" style="font-family: 'Open Sans', verdana, arial, sans-serif; font-size: 12px; fill: rgb(42, 63, 95); fill-opacity: 1; white-space: pre; opacity: 1;" transform="translate(214.81,0)">2019</text></g><g class="xtick"><text text-anchor="middle" x="0" y="333" style="font-family: 'Open Sans', verdana, arial, sans-serif; font-size: 12px; fill: rgb(42, 63, 95); fill-opacity: 1; white-space: pre; opacity: 1;" transform="translate(339.73,0)">2020</text></g><g class="xtick"><text text-anchor="middle" x="0" y="333" style="font-family: 'Open Sans', verdana, arial, sans-serif; font-size: 12px; fill: rgb(42, 63, 95); fill-opacity: 1; white-space: pre; opacity: 1;" transform="translate(464.99,0)">2021</text></g><g class="xtick"><text text-anchor="middle" x="0" y="333" style="font-family: 'Open Sans', verdana, arial, sans-serif; font-size: 12px; fill: rgb(42, 63, 95); fill-opacity: 1; white-space: pre; opacity: 1;" transform="translate(589.91,0)">2022</text></g></g><g class="yaxislayer-above"><g class="ytick"><text text-anchor="end" x="42" y="4.199999999999999" transform="translate(0,309.88)" style="font-family: 'Open Sans', verdana, arial, sans-serif; font-size: 12px; fill: rgb(42, 63, 95); fill-opacity: 1; white-space: pre; opacity: 1;">0</text></g><g class="ytick"><text text-anchor="end" x="42" y="4.199999999999999" style="font-family: 'Open Sans', verdana, arial, sans-serif; font-size: 12px; fill: rgb(42, 63, 95); fill-opacity: 1; white-space: pre; opacity: 1;" transform="translate(0,270.58000000000004)">50k</text></g><g class="ytick"><text text-anchor="end" x="42" y="4.199999999999999" style="font-family: 'Open Sans', verdana, arial, sans-serif; font-size: 12px; fill: rgb(42, 63, 95); fill-opacity: 1; white-space: pre; opacity: 1;" transform="translate(0,231.28)">100k</text></g><g class="ytick"><text text-anchor="end" x="42" y="4.199999999999999" style="font-family: 'Open Sans', verdana, arial, sans-serif; font-size: 12px; fill: rgb(42, 63, 95); fill-opacity: 1; white-space: pre; opacity: 1;" transform="translate(0,191.98)">150k</text></g><g class="ytick"><text text-anchor="end" x="42" y="4.199999999999999" style="font-family: 'Open Sans', verdana, arial, sans-serif; font-size: 12px; fill: rgb(42, 63, 95); fill-opacity: 1; white-space: pre; opacity: 1;" transform="translate(0,152.68)">200k</text></g><g class="ytick"><text text-anchor="end" x="42" y="4.199999999999999" style="font-family: 'Open Sans', verdana, arial, sans-serif; font-size: 12px; fill: rgb(42, 63, 95); fill-opacity: 1; white-space: pre; opacity: 1;" transform="translate(0,113.38)">250k</text></g><g class="ytick"><text text-anchor="end" x="42" y="4.199999999999999" style="font-family: 'Open Sans', verdana, arial, sans-serif; font-size: 12px; fill: rgb(42, 63, 95); fill-opacity: 1; white-space: pre; opacity: 1;" transform="translate(0,74.08)">300k</text></g></g><g class="overaxes-above"/></g></g><g class="polarlayer"/><g class="smithlayer"/><g class="ternarylayer"/><g class="geolayer"/><g class="funnelarealayer"/><g class="pielayer"/><g class="iciclelayer"/><g class="treemaplayer"/><g class="sunburstlayer"/><g class="glimages"/><defs id="topdefs-00e977"><g class="clips"/><clipPath id="legend00e977"><rect width="103" height="29" x="0" y="0"/></clipPath></defs><g class="layer-above"><g class="imagelayer"/><g class="shapelayer"/></g><g class="infolayer"><g class="legend" pointer-events="all" transform="translate(567,11.519999999999996)"><rect class="bg" shape-rendering="crispEdges" style="stroke: rgb(68, 68, 68); stroke-opacity: 1; fill: rgb(255, 255, 255); fill-opacity: 1; stroke-width: 0px;" width="103" height="29" x="0" y="0"/><g class="scrollbox" transform="" clip-path="url(#legend00e977)"><g class="groups"><g class="traces" transform="translate(0,14.5)" style="opacity: 1;"><text class="legendtext" text-anchor="start" x="40" y="4.680000000000001" style="font-family: 'Open Sans', verdana, arial, sans-serif; font-size: 12px; fill: rgb(42, 63, 95); fill-opacity: 1; white-space: pre;">BTCUSDT</text><g class="layers" style="opacity: 1;"><g class="legendfill"/><g class="legendlines"><path class="js-line" d="M5,0h30" style="fill: none; stroke: rgb(31, 119, 180); stroke-opacity: 1; stroke-width: 2px;"/></g><g class="legendsymbols"><g class="legendpoints"/></g></g><rect class="legendtoggle" x="0" y="-9.5" width="100.140625" height="19" style="fill: rgb(0, 0, 0); fill-opacity: 0;"/></g></g></g><rect class="scrollbar" rx="20" ry="3" width="0" height="0" style="fill: rgb(128, 139, 164); fill-opacity: 1;" x="0" y="0"/></g><g class="g-gtitle"/><g class="g-xtitle"/><g class="g-ytitle"/></g></svg>