<svg class="main-svg" xmlns="http://www.w3.org/2000/svg" xmlns:xlink="http://www.w3.org/1999/xlink" width="700" height="350" style="" viewBox="0 0 700 350"><rect x="0" y="0" width="700" height="350" style="fill: rgb(33, 34, 38); fill-opacity: 1;"/><defs id="defs-c62715"><g class="clips"><clipPath id="clipc62715xyplot" class="plotclip"><rect width="637" height="261"/></clipPath><clipPath class="axesclip" id="clipc62715x"><rect x="33" y="0" width="637" height="350"/></clipPath><clipPath class="axesclip" id="clipc62715y"><rect x="0" y="46" width="700" height="261"/></clipPath><clipPath class="axesclip" id="clipc62715xy"><rect x="33" y="46" width="637" height="261"/></clipPath></g><g class="gradients"/><g class="patterns"/></defs><g class="bglayer"/><g class="layer-below"><g class="imagelayer"/><g class="shapelayer"/></g><g class="cartesianlayer"><g class="subplot xy"><g class="layer-subplot"><g class="shapelayer"/><g class="imagelayer"/></g><g class="minor-gridlayer"><g class="x"/><g class="y"/></g><g class="gridlayer"><g class="x"><path class="xgrid crisp" transform="translate(115.3,0)" d="M0,46v261" style="stroke: rgb(49, 52, 57); stroke-opacity: 1; stroke-width: 1px;"/><path class="xgrid crisp" transform="translate(259.34000000000003,0)" d="M0,46v261" style="stroke: rgb(49, 52, 57); stroke-opacity: 1; stroke-width: 1px;"/><path class="xgrid crisp" transform="translate(403.37,0)" d="M0,46v261" style="stroke: rgb(49, 52, 57); stroke-opacity: 1; stroke-width: 1px;"/><path class="xgrid crisp" transform="translate(547.4,0)" d="M0,46v261" style="stroke: rgb(49, 52, 57); stroke-opacity: 1; stroke-width: 1px;"/></g><g class="y"><path class="ygrid crisp" transform="translate(0,278.87)" d="M33,0h637" style="stroke: rgb(49, 52, 57); stroke-opacity: 1; stroke-width: 1px;"/><path class="ygrid crisp" transform="translate(0,220.45)" d="M33,0h637" style="stroke: rgb(49, 52, 57); stroke-opacity: 1; stroke-width: 1px;"/><path class="ygrid crisp" transform="translate(0,162.04000000000002)" d="M33,0h637" style="stroke: rgb(49, 52, 57); stroke-opacity: 1; stroke-width: 1px;"/><path class="ygrid crisp" transform="translate(0,103.62)" d="M33,0h637" style="stroke: rgb(49, 52, 57); stroke-opacity: 1; stroke-width: 1px;"/></g></g><g class="zerolinelayer"/><path class="xlines-below"/><path class="ylines-below"/><g class="overlines-below"/><g class="xaxislayer-below"/><g class="yaxislayer-below"/><g class="overaxes-below"/><g class="plot" transform="translate(33,46)" clip-path="url(#clipc62715xyplot)"><g class="scatterlayer mlayer"><g class="trace scatter traceab440fac-f909-4261-b7f8-86d73412accb" style="stroke-miterlimit: 2; opacity: 1;"><g class="fills"/><g class="errorbars"/><g class="lines"><path class="js-line" d="M0,232.87L1.71,229.39L2.57,230.64L3.43,231L4.29,230.02L5.14,229.3L6,229.57L7.72,229.66L8.57,229.22L9.43,229.84L10.29,227.08L11.15,227.52L12,224.76L12.86,225.74L13.72,224.31L14.57,225.03L15.43,224.58L17.15,226.1L18,224.94L19.72,226.63L20.58,227.08L21.43,227.34L22.29,228.5L23.15,230.46L24.01,230.37L26.58,230.73L27.43,229.04L28.29,228.24L29.15,229.04L30.01,228.95L30.86,227.7L33.44,229.39L34.29,232.69L35.15,235.9L36.01,235.19L36.87,234.56L37.72,235.1L39.44,232.42L40.29,233.67L41.15,233.4L42.01,235.99L42.87,231.62L43.72,231.44L45.44,222.62L46.3,225.74L47.15,225.65L48.01,222.8L48.87,218.88L49.73,220.22L50.58,220.48L51.44,221.91L52.3,221.28L53.15,224.23L54.87,220.66L55.73,221.37L56.58,221.37L57.44,220.39L59.16,223.69L60.01,222.53L60.87,220.48L61.73,221.28L62.59,222L63.44,221.64L64.3,221.28L65.16,222.89L68.59,221.82L69.44,219.59L70.3,222.09L71.16,222.27L72.87,223.69L73.73,222.53L74.59,221.46L75.45,222.18L76.3,220.48L77.16,222.27L79.73,219.06L80.59,218.43L81.45,218.97L82.3,218.61L83.16,215.85L84.02,216.83L84.88,214.96L85.73,216.3L88.31,216.12L89.16,218.34L90.02,217.72L90.88,218.17L91.73,217.81L92.59,216.56L93.45,216.38L94.31,217.72L96.02,212.73L96.88,212.64L97.74,213.71L98.59,213L99.45,214.33L100.31,217.1L101.17,218.43L102.02,216.65L103.74,214.6L104.59,211.48L106.31,209.08L107.17,209.79L108.88,212.02L109.74,208.72L111.45,202.22L112.31,204.53L113.17,200.52L114.03,205.51L114.88,202.48L115.74,205.87L117.45,203.29L118.31,203.91L120.03,197.94L120.88,199.45L122.6,192.42L123.46,192.68L124.31,193.13L125.17,190.28L126.89,194.46L127.74,191.26L128.6,191.61L129.46,190.37L131.17,193.66L132.03,191.35L132.89,191.44L133.74,195.53L134.6,198.47L135.46,196.96L136.32,197.94L137.17,197.41L138.03,194.11L138.89,194.55L140.6,193.22L141.46,196.51L142.32,196.6L143.17,195.27L144.89,183.42L145.75,184.84L148.32,191.52L149.18,187.07L152.61,182.35L153.46,185.91L154.32,187.25L155.18,185.64L156.89,192.95L157.75,200.97L158.61,198.56L159.46,199.54L161.18,202.13L162.04,201.33L162.89,199.63L163.75,201.41L164.61,204.18L165.47,202.13L169.75,206.14L170.61,204.18L172.32,206.67L173.18,205.51L174.04,206.76L174.9,205.6L176.61,204.62L177.47,202.84L179.18,207.92L180.04,207.38L180.9,203.02L181.76,205.07L182.61,205.51L183.47,204.53L184.33,202.75L185.18,203.02L187.76,208.45L188.61,209.17L190.33,210.41L191.19,208.9L192.04,213.98L192.9,213.18L194.62,208.28L195.47,204.44L196.33,205.6L197.19,202.75L198.04,199.72L198.9,201.77L199.76,199.1L200.62,200.43L202.33,197.58L203.19,197.14L204.05,197.76L204.9,195.89L205.76,196.69L206.62,193.84L207.48,193.75L208.33,194.82L209.19,195.09L210.05,196.51L210.9,195.53L211.76,196.51L212.62,197.41L213.48,195.53L215.19,198.56L216.05,198.21L216.91,193.57L217.76,196.34L218.62,194.46L219.48,190.46L221.19,191.17L222.05,190.28L224.62,194.46L225.48,197.23L228.05,194.29L228.91,196.07L229.77,195.89L230.62,194.55L231.48,192.95L232.34,194.73L233.2,191.61L234.05,193.84L235.77,196.25L236.62,194.73L237.48,191.7L238.34,194.02L239.2,191.97L240.05,195.27L241.77,194.29L242.63,194.2L243.48,192.15L244.34,193.48L246.06,187.07L246.91,192.86L247.77,192.06L248.63,193.13L249.48,195L250.34,194.55L251.2,196.87L252.06,196.78L253.77,194.46L254.63,196.16L255.49,192.68L256.34,195.53L257.2,195.18L258.06,195.89L259.77,197.14L260.63,195.8L261.49,196.87L262.34,196.6L263.2,196.78L264.06,195L264.92,194.64L265.77,195.62L266.63,196.87L267.49,193.31L269.2,187.43L270.06,187.6L271.78,189.39L272.63,188.14L276.06,183.59L276.92,181.28L277.78,183.86L278.63,178.34L279.49,177.27L280.35,178.16L281.21,172.19L282.06,157.93L282.92,155.53L283.78,157.04L284.64,163.01L285.49,159.54L286.35,158.82L287.21,154.19L288.06,151.52L288.92,152.85L289.78,143.5L290.64,156.86L291.49,164.97L292.35,164.62L293.21,157.31L294.07,163.72L294.92,161.76L295.78,154.99L296.64,147.51L297.5,152.5L298.35,151.25L299.21,146.79L300.92,158.82L301.78,155.35L302.64,153.48L303.5,157.75L305.21,150.09L306.07,149.11L306.93,140.2L307.78,144.03L308.64,148.04L309.5,159.18L311.21,162.48L312.07,158.73L312.93,156.24L313.78,156.15L315.5,160.69L316.36,163.99L317.21,163.1L318.07,160.69L318.93,159.54L319.79,160.96L320.64,160.52L321.5,160.96L322.36,164.17L323.22,159.27L324.07,158.38L324.93,158.73L325.79,154.1L326.64,158.38L327.5,157.04L328.36,153.57L329.22,156.6L330.07,154.55L332.65,148.22L333.5,142.16L334.36,147.06L335.22,144.75L336.08,143.32L336.93,137.26L339.5,146.53L340.36,143.14L341.22,148.75L342.08,140.11L342.93,137.62L343.79,130.04L344.65,120.42L345.51,127.55L347.22,120.33L348.08,119.17L348.94,124.87L349.79,120.42L351.51,126.21L352.36,123.36L353.22,136.9L354.08,135.92L355.79,130.84L356.65,132.63L357.51,132.98L358.37,123.81L359.22,125.14L360.08,122.02L360.94,123L361.8,122.02L363.51,127.46L364.37,129.15L365.22,132.18L366.08,129.86L366.94,128.53L367.8,122.11L368.65,122.56L369.51,124.96L371.23,118.01L372.08,122.2L374.66,118.37L375.51,119.62L378.08,120.69L378.94,122.02L380.66,151.16L381.51,150.89L382.37,150.27L383.23,148.31L385.8,155.7L386.66,147.77L387.52,150.18L388.37,146.26L390.09,150.71L390.94,149.65L391.8,149.91L392.66,148.31L393.52,147.6L394.37,150.45L396.09,147.6L396.95,142.34L397.8,144.39L398.66,138.95L399.52,136.1L400.38,140.65L401.23,145.19L402.09,141.36L403.8,134.23L404.66,134.77L405.52,138.6L406.38,135.66L407.23,135.48L408.09,132.54L408.95,132.27L409.81,134.14L411.52,135.48L412.38,133.52L414.09,116.86L414.95,121.4L415.81,123.54L416.66,123.54L419.24,119.17L420.09,109.28L421.81,114.72L422.67,111.33L423.52,112.31L424.38,115.61L425.24,117.03L426.1,115.88L427.81,127.01L428.67,115.43L430.38,117.3L431.24,114.9L432.1,113.38L432.95,116.14L434.67,119.17L435.53,118.99L438.1,113.56L438.96,115.43L439.81,113.38L440.67,113.83L441.53,115.96L442.38,116.05L443.24,119.62L444.1,117.92L444.96,117.84L445.81,116.59L446.67,116.14L447.53,117.66L449.24,116.68L450.1,117.21L450.96,119.26L451.82,117.3L452.67,119.26L453.53,125.32L454.39,123.45L455.24,127.1L456.1,129.6L456.96,129.78L457.82,130.58L458.67,130.13L459.53,129.95L460.39,134.32L461.25,132.98L462.1,135.75L462.96,136.01L463.82,142.96L465.53,139.49L466.39,139.22L468.1,148.75L468.96,143.76L470.68,138.42L471.53,139.76L472.39,140.2L473.25,139.04L474.96,150.09L475.82,149.65L476.68,150.09L477.54,147.6L478.39,148.22L479.25,147.69L480.11,150.09L480.97,155.7L481.82,156.06L482.68,140.56L484.39,132.27L485.25,132.27L486.11,129.95L486.97,136.01L487.82,133.52L488.68,127.19L489.54,124.96L490.4,127.9L491.25,125.94L492.11,127.99L492.97,124.43L493.83,133.79L494.68,135.83L495.54,134.23L496.4,135.83L497.25,134.68L498.11,133.79L498.97,135.48L499.83,135.48L500.68,132.54L501.54,132.98L502.4,136.99L503.26,138.33L504.11,142.07L504.97,137.53L505.83,140.56L507.54,136.37L508.4,138.42L511.83,134.41L512.69,135.21L513.54,140.56L514.4,140.91L515.26,139.49L516.12,140.02L517.83,139.22L518.69,138.78L519.55,140.47L520.4,138.69L522.12,135.03L522.97,134.59L523.83,132.72L524.69,134.41L525.55,134.94L526.4,134.23L527.26,135.39L528.12,133.96L528.98,132.09L529.83,132.36L530.69,132.09L531.55,130.58L532.41,128.8L533.26,128.88L534.98,123.63L535.83,123.09L536.69,126.39L537.55,123.98L539.26,126.92L540.12,126.57L540.98,127.55L541.84,130.58L542.69,129.24L543.55,130.4L545.27,122.56L546.12,123.45L548.69,113.65L549.55,115.43L550.41,97.88L551.27,97.88L552.12,93.96L552.98,98.41L554.7,97.61L555.55,94.4L556.41,89.86L557.27,91.73L559.84,97.34L560.7,83.09L562.41,63.13L563.27,69.27L564.98,68.38L565.84,69.36L566.7,66.87L567.56,68.47L568.41,71.41L569.27,78.18L570.99,62.24L571.84,64.46L572.7,44.33L573.56,50.74L574.41,60.72L575.27,53.59L576.13,54.48L576.99,50.21L577.84,47.35L578.7,37.91L580.42,23.21L581.27,26.86L582.13,27.04L582.99,13.05L583.85,27.04L584.7,20.62L585.56,28.73L586.42,29.36L587.27,31.58L588.13,23.21L588.99,32.21L589.85,29.18L591.56,20.62L592.42,22.85L594.13,28.29L594.99,38.09L595.85,50.12L596.71,49.14L597.56,40.14L598.42,41.3L599.28,47.27L600.13,43.08L600.99,41.83L601.85,36.4L602.71,35.68L603.56,39.78L604.42,36.22L605.28,43.61L606.14,40.85L606.99,33.99L607.85,34.17L608.71,38.18L609.57,40.4L610.42,45.93L612.99,27.4L613.85,15.1L616.42,24.72L617.28,23.83L618.14,23.21L619,31.41L619.85,32.65L620.71,37.46L621.57,43.43L622.43,41.74L623.28,43.43L624.14,38.09L625,37.55L625.85,40.32L626.71,42.81L627.57,56.09L628.43,51.54L629.28,54.22L630.14,46.82L631,51.19L631.86,52.97L632.71,50.83L633.57,52.08L634.43,46.73L636.14,41.38L637,44.68" style="vector-effect: none; fill: none; stroke: rgb(31, 119, 180); stroke-opacity: 1; stroke-width: 2px; opacity: 1;"/></g><g class="points"/><g class="text"/></g><g class="trace scatter trace1ccccf53-7a3f-4876-ad6a-6b8145622436" style="stroke-miterlimit: 2; opacity: 1;"><g class="fills"/><g class="errorbars"/><g class="lines"><path class="js-line" d="M0,232.87L1.71,229.68L2.57,230.33L4.29,230.68L5.14,230.26L7.72,232.79L8.57,231.9L9.43,232.42L10.29,230.7L13.72,229.58L14.57,230.87L16.29,232.34L17.15,231.83L18,231.68L18.86,233.23L20.58,232.57L21.43,233.42L23.15,236.66L24.01,236.47L24.86,236.53L25.72,237.98L26.58,238.18L27.43,236.47L28.29,236.06L29.15,236.49L30.01,237.47L30.86,237.17L32.58,239.11L33.44,239.13L35.15,246.07L36.01,246.1L37.72,247.65L38.58,247.18L42.01,247.66L42.87,243.19L43.72,244.58L44.58,235.48L47.15,237.53L48.01,235.49L48.87,233.48L49.73,235.02L50.58,233.5L51.44,234.38L52.3,232.4L53.15,236.2L54.87,233.15L55.73,233.8L58.3,234.63L59.16,235.79L60.01,235.83L60.87,233.95L62.59,235.69L63.44,234.42L65.16,233.62L66.01,233.59L67.73,232.34L68.59,230.92L69.44,229.84L70.3,231.21L71.16,231.12L72.02,233.32L72.87,234L73.73,233.02L75.45,232.8L76.3,231.54L77.16,233.29L78.02,232.06L78.87,230.86L79.73,231.78L81.45,230.5L82.3,230.62L83.16,226.87L84.02,227.53L84.88,225.79L85.73,226.48L87.45,224L88.31,224.29L90.02,226.86L90.88,227.08L91.73,226.64L92.59,223.72L93.45,224.14L94.31,222.7L95.16,221.15L96.02,221.46L96.88,220.51L97.74,222.52L98.59,221.62L99.45,221.89L100.31,226.09L101.17,226.43L103.74,222.25L104.59,218.17L106.31,217.98L107.17,218.42L108.02,219.02L108.88,218.56L109.74,216.47L110.6,216.41L111.45,210.43L112.31,211.52L113.17,209.43L114.03,213.63L114.88,213.87L115.74,215.51L117.45,211.34L118.31,213.08L119.17,212.34L120.03,210.1L120.88,211.85L121.74,208.52L123.46,205.62L124.31,205.81L126.03,205.81L126.89,210.4L127.74,207.99L128.6,209.2L129.46,207.78L130.31,208.03L131.17,209.54L132.03,207.55L132.89,208.09L133.74,210.9L136.32,215.62L137.17,209.89L138.89,206.16L139.75,204.85L140.6,203.92L141.46,206.14L142.32,207.57L143.17,204.63L144.03,198.83L144.89,202.51L145.75,206.98L146.6,205.63L147.46,203.97L148.32,204.23L149.18,203.59L150.03,206.75L150.89,205.32L151.75,206.58L152.61,205.08L153.46,205.45L154.32,207.71L155.18,207.85L156.03,211.51L156.89,211.34L157.75,219.45L158.61,217.79L159.46,217.2L160.32,221.33L161.18,216.5L162.04,216.77L162.89,214.06L163.75,215.06L164.61,216.7L165.47,215.72L166.32,215.13L167.18,215.96L169.75,216.79L170.61,215.63L171.47,216.11L172.32,219.39L174.04,216.47L174.9,216.56L177.47,216.94L178.33,220.35L179.18,221.12L180.04,220.57L180.9,217.92L181.76,220.84L182.61,220.72L183.47,219.39L184.33,217.95L185.18,218.72L187.76,219.72L188.61,219.9L190.33,222.61L191.19,220.97L192.04,223.04L192.9,222.64L193.76,221.32L194.62,218.29L195.47,215.46L196.33,215.71L198.04,208.49L198.9,210.66L202.33,206.41L203.19,207.23L204.9,203.62L205.76,205.78L206.62,204.17L207.48,205.68L209.19,209.3L210.05,209.07L210.9,206.81L211.76,207.39L213.48,205.95L214.33,207.54L215.19,207.95L216.05,207.23L216.91,205.75L217.76,207.54L218.62,206.81L219.48,200.63L220.34,201.84L221.19,200.58L222.91,201.71L223.76,205.11L224.62,204.34L225.48,206.86L229.77,200.13L230.62,198.5L231.48,200.08L232.34,198.61L233.2,195.24L234.05,197.93L235.77,198.72L236.62,198.82L237.48,198.05L238.34,198.71L239.2,198.63L240.05,201.19L242.63,201.41L243.48,200.02L244.34,201.05L245.2,200.07L246.06,197.93L246.91,201.42L247.77,198.84L248.63,204.46L250.34,203.61L251.2,204.86L252.06,206.27L252.91,205.21L253.77,203.92L254.63,204.41L255.49,203.23L256.34,204.32L258.06,203.84L258.92,204.58L263.2,204.17L264.06,201.57L265.77,202.11L266.63,201.41L267.49,198.71L268.35,191.81L270.06,193.62L270.92,194.68L271.78,195.58L272.63,194.74L275.2,193.25L276.06,192.95L276.92,191.1L277.78,193.63L282.06,170.57L282.92,172.57L283.78,168.81L284.64,173.74L285.49,172.42L286.35,173.07L289.78,159.5L290.64,165.23L291.49,173.46L292.35,171.8L293.21,171.11L294.07,173.88L294.92,170.89L295.78,159.26L296.64,140.84L297.5,148.6L298.35,150.51L299.21,145.84L300.92,156.72L301.78,151.31L302.64,146.79L303.5,150.19L304.35,148.62L305.21,149.17L306.07,148.93L306.93,145.44L307.78,148.27L308.64,158.9L309.5,169.24L310.36,170.36L311.21,172.19L312.07,169.82L313.78,164.27L314.64,168.16L315.5,168.58L316.36,172.69L318.93,164.21L319.79,165.45L321.5,163.44L322.36,167.25L324.07,164.94L324.93,158.86L325.79,156.42L326.64,162.44L327.5,165.33L328.36,161.75L332.65,137.41L333.5,135.81L334.36,146.67L335.22,138.84L336.08,140.18L336.93,138.53L339.5,152.91L340.36,148.27L341.22,150.95L342.08,145.19L344.65,139.09L345.51,143.55L347.22,141.13L348.08,135.93L348.94,139.6L349.79,136.62L350.65,137.61L351.51,141.67L352.36,142.58L353.22,148.88L354.08,149.66L354.94,147.56L355.79,148.37L356.65,147.35L358.37,141.23L359.22,144.26L361.8,137.19L362.65,141.57L365.22,144.34L366.08,143.58L367.8,142.23L368.65,142.87L369.51,145.22L370.37,140.93L372.08,133.29L372.94,137.99L373.8,138.33L374.66,139.84L375.51,141.52L376.37,141.11L377.23,140.36L378.08,142.17L378.94,144.13L379.8,157.43L381.51,162.58L382.37,163.85L383.23,162.68L384.09,159.61L384.94,158.32L385.8,158.86L387.52,160.79L388.37,155.85L389.23,157.19L390.09,154.19L390.94,154.94L391.8,158.02L392.66,159.58L393.52,158.42L394.37,160.57L395.23,159.32L396.09,157.58L396.95,158.41L397.8,159.99L398.66,159.7L399.52,158.74L400.38,160.28L401.23,163.37L402.09,161.09L404.66,154.33L405.52,155.51L406.38,153.84L407.23,154.86L408.95,152.54L409.81,155.43L411.52,156.13L412.38,153.33L413.24,152.96L414.09,150.19L415.81,153.74L416.66,151.62L417.52,153.36L418.38,152.99L419.24,153.65L420.09,151.67L420.95,151.39L421.81,149.69L424.38,146.3L425.24,147.55L426.95,145.52L427.81,148.12L428.67,138.91L429.52,140.61L430.38,143.23L431.24,138.65L432.95,134.1L433.81,136.67L434.67,137.47L435.53,136.39L436.38,136.77L437.24,135.17L438.1,134.74L438.96,139.37L439.81,137.75L440.67,138.84L441.53,145.48L442.38,145.84L443.24,148.44L444.1,148.01L446.67,146L447.53,147.54L448.39,147.5L449.24,148.26L450.96,148.39L451.82,144.67L454.39,152.88L455.24,152.8L457.82,157.03L458.67,154.4L459.53,156.7L460.39,161.43L462.96,159.38L463.82,164.51L466.39,162.28L467.25,164.49L468.1,166.32L468.96,165.32L469.82,165.13L470.68,160.44L471.53,161.96L472.39,161.35L473.25,159.84L474.11,164.77L474.96,172.02L475.82,169.96L476.68,172.54L477.54,171.16L478.39,168.86L479.25,169.78L480.11,170.03L480.97,173.72L481.82,173.8L482.68,159.72L485.25,155.46L486.11,154.94L486.97,159.9L487.82,158.35L489.54,155.99L490.4,158.2L491.25,158.06L492.11,159.41L492.97,160.01L493.83,168.47L494.68,170.73L495.54,167.82L497.25,169.06L498.11,168.53L498.97,168.43L499.83,165.38L501.54,162.89L502.4,165.37L503.26,166.01L504.11,168.29L505.83,165.39L506.69,164.96L507.54,163.83L508.4,164.81L509.26,164.58L510.11,162.94L510.97,162.97L511.83,162.1L514.4,164.15L515.26,162.19L516.12,164.76L516.97,161.41L517.83,160.08L518.69,160.39L519.55,161.97L520.4,160.3L523.83,156.54L524.69,156.54L525.55,158.54L526.4,158.4L527.26,158.21L528.12,156.1L528.98,153.73L529.83,153.72L530.69,155.02L531.55,154.34L532.41,153.05L533.26,153.98L534.98,151.44L535.83,151.33L536.69,151.91L537.55,150.1L539.26,151.65L540.12,151.53L540.98,152.03L541.84,156.18L542.69,155.01L543.55,155.78L544.41,151.02L545.27,150.74L546.12,152.65L546.98,150.71L547.84,147.99L548.69,148.2L549.55,150.1L550.41,146.88L551.27,147L552.12,146.04L552.98,144.71L553.84,147.46L554.7,148.18L555.55,144.32L556.41,143.04L557.27,144.81L558.13,144.43L558.98,147.07L560.7,148.13L561.55,146.26L562.41,146.16L563.27,147.87L564.13,145.85L564.98,145.93L565.84,146.74L566.7,145L567.56,145.63L568.41,148.44L569.27,149.46L570.13,148.06L570.99,149.21L571.84,148.6L572.7,147.82L573.56,148.82L574.41,146.42L575.27,139.73L576.13,140.38L576.99,139.33L577.84,139.53L578.7,137.49L581.27,135.23L582.13,133.55L582.99,133.68L583.85,137.62L584.7,136.04L585.56,140.56L586.42,141.44L587.27,140.07L588.99,142.02L589.85,137.73L591.56,139.95L592.42,137.64L596.71,144.97L597.56,144.34L598.42,147.47L599.28,144.98L601.85,141.72L602.71,136.86L605.28,140.36L606.14,139.18L606.99,137.05L607.85,137.72L608.71,141.37L609.57,136.88L610.42,139.06L611.28,135.85L612.99,134.54L613.85,130.41L615.57,127.52L616.42,129.3L617.28,130.49L618.14,129.2L619,130.86L619.85,123.05L621.57,132.73L622.43,130.98L624.14,133.46L625,132.29L626.71,135.05L627.57,139.44L629.28,141.7L630.14,139.34L631.86,140.1L632.71,137.91L634.43,138.99L635.29,138.34L637,135.5" style="vector-effect: none; fill: none; stroke: rgb(255, 127, 14); stroke-opacity: 1; stroke-width: 2px; opacity: 1;"/></g><g class="points"/><g class="text"/></g><g class="trace scatter traceeb9a1603-2115-4a81-9c83-55f07c0da3a0" style="stroke-miterlimit: 2; opacity: 1;"><g class="fills"/><g class="errorbars"/><g class="lines"><path class="js-line" d="M0,232.87L1.71,230.19L2.57,230.92L4.29,230.95L5.14,230.89L7.72,232.39L8.57,231.85L9.43,232.05L10.29,230.89L12,231.06L12.86,230.54L14.57,230.43L15.43,230.28L17.15,230.44L18,230.58L18.86,232.01L19.72,231.9L20.58,231.48L21.43,232.3L23.15,234.8L24.01,234.29L25.72,234.54L26.58,235.57L28.29,233.48L29.15,233.49L30.01,234.38L30.86,233.63L31.72,234.74L32.58,234.55L33.44,234.74L34.29,237.94L35.15,241.29L36.01,241.13L36.87,240.75L37.72,242.17L38.58,240.98L39.44,241.1L41.15,242.64L42.01,244.6L42.87,241.83L43.72,242.02L44.58,231.52L45.44,231.1L47.15,231.8L48.01,229.47L48.87,225.89L49.73,227.36L50.58,226.22L51.44,226.94L52.3,225.87L53.15,229.71L54.87,224.36L55.73,225.61L58.3,227.17L59.16,228.56L60.01,227.84L60.87,226.03L61.73,227.77L62.59,227.49L64.3,226.52L65.16,226.44L67.73,225.91L68.59,225.97L69.44,225.26L70.3,227.12L71.16,226.38L72.02,227.34L72.87,227.71L73.73,227.18L75.45,227.57L76.3,225.75L77.16,227.58L78.02,226.45L82.3,224.87L83.16,221.39L84.02,222.01L84.88,220.7L86.59,221.39L87.45,221.45L88.31,221.2L89.16,222.57L91.73,222.89L92.59,221.47L94.31,222.5L95.16,221.01L99.45,222.51L100.31,225.07L102.02,225.47L102.88,224.66L103.74,222.84L104.59,217.63L108.88,219.4L109.74,217.79L111.45,217.23L112.31,217.9L113.17,217.39L114.03,218.56L114.88,217.77L115.74,218.91L117.45,217.34L118.31,218.38L120.03,217.64L120.88,216.53L123.46,203.92L124.31,203.21L126.03,203.65L126.89,205.85L128.6,204.55L129.46,204.12L130.31,204.1L131.17,205.23L132.89,203.64L133.74,204.71L135.46,205.94L136.32,208.96L138.03,201.89L138.89,197.84L139.75,196.38L140.6,192.76L141.46,198.71L142.32,197.36L143.17,193.46L144.03,181.8L145.75,188.04L146.6,187.15L147.46,185.35L148.32,185.75L149.18,185.57L150.03,187.28L150.89,186.68L151.75,187.28L153.46,185.85L154.32,187.73L155.18,183.71L156.03,186.72L156.89,186.92L157.75,194.7L159.46,197.19L160.32,200.87L161.18,197.5L162.04,198.72L162.89,196.28L163.75,197.1L164.61,201.14L165.47,199.18L167.18,201.22L168.04,200.72L169.75,203.1L170.61,201.42L171.47,202.1L172.32,204.57L173.18,203.59L174.04,204.32L175.75,203.55L176.61,204.04L177.47,203.16L178.33,206.78L179.18,207.57L180.04,207.08L180.9,202.73L181.76,206.77L182.61,207.92L183.47,207.05L185.18,206.7L186.04,207.31L187.76,206.78L188.61,207.71L189.47,209.6L190.33,209.61L191.19,209.43L192.04,211.32L192.9,210.91L193.76,208.66L195.47,203.69L196.33,204.65L198.04,196.67L198.9,201.3L199.76,200.75L200.62,198.47L202.33,196.4L203.19,197.34L204.05,195.71L204.9,191.36L205.76,192.5L206.62,191.04L207.48,190.98L208.33,192.93L210.05,195.98L210.9,194.29L212.62,197.22L213.48,194.73L215.19,197.51L216.05,196.85L216.91,195.71L217.76,197.19L219.48,192.48L220.34,192.84L221.19,192.49L222.05,193.2L222.91,192.79L223.76,195.1L224.62,196.02L225.48,198.56L227.19,196.71L228.05,195.51L229.77,196.37L230.62,195.06L231.48,195.96L232.34,195.41L233.2,193.65L234.05,193.78L235.77,194.73L236.62,194L237.48,192.66L238.34,193.79L239.2,193.16L240.05,195.23L241.77,194.52L242.63,194L243.48,193.73L244.34,195.21L246.06,191.85L246.91,193.16L247.77,193.03L248.63,194.77L249.48,195.07L250.34,194.56L252.06,196.81L252.91,196.31L253.77,194.09L254.63,194.75L255.49,194.26L256.34,196.32L258.06,195.84L258.92,195.71L259.77,195.92L260.63,194.9L261.49,195.38L262.34,194.98L263.2,194.82L264.06,192.99L266.63,194.89L267.49,188.39L268.35,181.8L269.2,181.83L270.92,178.05L271.78,179.95L273.49,178.62L274.35,178.55L275.2,178.83L276.06,178.29L276.92,177.93L277.78,179.03L279.49,171.3L280.35,171.89L281.21,171.82L282.06,167.9L283.78,168.14L284.64,171.37L285.49,169.47L286.35,169.43L287.21,166.41L288.06,167.92L288.92,167.71L289.78,166.26L291.49,175.06L292.35,174.46L293.21,171.68L294.07,173.85L294.92,173.4L295.78,168.65L296.64,166.86L297.5,169.67L298.35,168.26L299.21,163.16L300.07,164.53L300.92,168.33L302.64,166.94L303.5,168.98L304.35,168.38L305.21,166.24L306.93,164.38L307.78,165.95L310.36,172.92L311.21,173.33L312.07,172.85L312.93,170.87L313.78,170.02L314.64,171.7L315.5,171.89L316.36,173.11L317.21,172.6L318.07,169.87L318.93,170.07L319.79,171.08L320.64,171.45L321.5,170.48L322.36,172.51L323.22,171.78L324.93,170.68L325.79,169.1L326.64,171.25L327.5,170.06L328.36,170.07L329.22,171.28L330.93,168.57L331.79,167.37L332.65,166.2L333.5,163.1L334.36,164.27L335.22,161.37L336.08,161.57L336.93,159.94L338.65,162.61L339.5,166.35L340.36,164.74L341.22,167.69L342.93,163.73L343.79,163.12L344.65,161.93L345.51,163.57L346.36,163.58L347.22,161.84L348.08,161.14L348.94,162.21L349.79,159.54L350.65,161.07L352.36,161.69L353.22,165.04L354.94,164.18L355.79,165.04L358.37,163.27L359.22,163.57L360.94,161.94L361.8,161.83L363.51,163.43L364.37,162.55L365.22,163.29L366.08,162.43L367.8,161.92L368.65,160.54L369.51,162.1L370.37,159.79L371.23,152.74L372.08,152.31L373.8,152.62L374.66,153.34L375.51,155.7L376.37,155.25L377.23,154.48L378.08,156.2L378.94,157.1L379.8,171.64L380.66,173.82L381.51,173.78L382.37,174.26L383.23,173.66L385.8,172.89L386.66,173.1L387.52,173.02L388.37,169.99L389.23,173.19L390.09,170.82L391.8,172.9L392.66,172.59L393.52,172.21L394.37,173.27L396.09,171.54L396.95,172.31L397.8,173.3L398.66,172.48L399.52,172.77L400.38,174.34L401.23,175.65L402.09,174.69L403.8,171.89L404.66,172.17L405.52,173.26L406.38,172.32L408.95,171.18L409.81,172.73L411.52,173.15L412.38,172.67L414.95,172.08L415.81,172.51L417.52,173.55L418.38,172.57L419.24,173.73L420.09,172.55L426.95,173.57L427.81,177.73L428.67,170.13L429.52,169.67L433.81,170.09L434.67,170.25L435.53,169.26L436.38,170.11L437.24,168.69L438.1,169.25L438.96,171.76L439.81,171.45L441.53,172.52L442.38,172.33L443.24,173.13L444.1,172.75L444.96,172.7L445.81,171.44L446.67,171.19L447.53,172.13L450.96,172.63L451.82,171.61L452.67,172.41L453.53,174.96L454.39,174.53L455.24,175.07L456.1,175.33L456.96,176.47L457.82,177.6L458.67,175.7L460.39,181.44L461.25,181.27L462.96,182.26L463.82,185.13L465.53,184.75L466.39,184.94L467.25,186.12L468.1,185.56L469.82,184.22L470.68,183.29L473.25,182.73L474.11,184.72L474.96,187.14L475.82,186.33L476.68,186.89L477.54,186.28L478.39,185.31L479.25,185.54L480.11,185.84L480.97,188.79L481.82,189.39L482.68,182.58L486.11,178.77L486.97,180.69L489.54,179.08L490.4,179.57L491.25,178.65L492.11,180.37L492.97,181.51L493.83,186.78L494.68,187.72L495.54,186.14L496.4,187.26L497.25,186.42L498.97,185.95L499.83,186.51L500.68,184.62L501.54,185.19L504.11,187.48L504.97,186.18L505.83,186.49L506.69,185.74L507.54,185.15L508.4,185.55L509.26,185.5L510.11,184.61L511.83,183.46L512.69,184.73L514.4,186.11L515.26,185.38L516.12,186.16L516.97,184.37L518.69,184.02L519.55,184.94L523.83,179.88L524.69,180.77L527.26,180.67L528.12,178.91L528.98,175.82L529.83,175.77L531.55,176.25L532.41,174.92L533.26,175.87L534.12,174.35L534.98,172.22L535.83,172.46L536.69,172.7L537.55,172.1L538.41,173.02L539.26,172.79L540.98,172.6L541.84,174.56L542.69,173.25L543.55,173.57L544.41,169.44L545.27,169L546.12,169.28L546.98,168.59L548.69,167.16L549.55,168.16L551.27,161.44L552.12,159.22L552.98,160.11L553.84,162.65L554.7,162.44L555.55,155.86L556.41,153.27L557.27,153.8L558.13,154.12L558.98,156.44L559.84,156.27L560.7,158.02L561.55,157.05L562.41,159.15L563.27,159.69L564.13,157.9L564.98,155.34L565.84,156.68L566.7,155.16L567.56,157.3L568.41,157.68L569.27,159.93L571.84,158.24L572.7,156.18L573.56,156.62L574.41,153.27L575.27,143.45L576.13,145.2L576.99,144.67L577.84,145.53L578.7,144.7L579.56,145.09L580.42,144.23L581.27,145.14L582.99,142.92L583.85,145.15L584.7,142.08L585.56,146.34L586.42,147.28L587.27,145.49L588.13,145.29L588.99,147.08L589.85,143.98L590.7,144.69L592.42,142.65L593.28,142.95L594.13,143.3L594.99,144.76L596.71,147.35L597.56,146.62L598.42,148.42L599.28,147.27L600.13,145.27L600.99,145.74L601.85,145.44L602.71,142.77L606.14,144.92L606.99,143.39L607.85,142.93L608.71,144.44L609.57,142.93L610.42,143.58L612.14,138.36L612.99,138.05L613.85,135.26L614.71,135.64L615.57,135.74L616.42,137.79L617.28,139.39L618.14,139.21L619.85,140.61L620.71,141.74L621.57,144.62L622.43,143.24L625,144.04L625.85,144.66L626.71,145.31L627.57,147.19L629.28,147.97L630.14,144.88L631.86,147.18L632.71,145.71L633.57,146.36L634.43,145.62L636.14,142.3L637,144.32" style="vector-effect: none; fill: none; stroke: rgb(44, 160, 44); stroke-opacity: 1; stroke-width: 2px; opacity: 1;"/></g><g class="points"/><g class="text"/></g><g class="trace scatter trace4894cb1a-617f-4d1f-b986-ab7f771fd26d" style="stroke-miterlimit: 2; opacity: 1;"><g class="fills"/><g class="errorbars"/><g class="lines"><path class="js-line" d="M0,232.87L1.71,228.38L2.57,229.85L7.72,229.92L8.57,228.72L9.43,228.63L10.29,226.66L12.86,225.59L13.72,223.85L16.29,226.09L17.15,225.37L18,226.27L18.86,229.7L19.72,228.56L20.58,228.79L23.15,232.35L24.01,231.33L25.72,231.62L26.58,231.98L27.43,229.83L28.29,230.35L30.01,231.37L30.86,230.4L31.72,231.78L32.58,231.74L33.44,231.24L34.29,235.75L36.01,236L36.87,235.7L37.72,236.74L38.58,235.47L41.15,236.95L42.01,239.28L42.87,237.29L43.72,237.36L44.58,231.89L45.44,232.1L47.15,232.89L48.01,225.43L48.87,224.98L49.73,225.68L50.58,224.73L51.44,225.25L52.3,222.28L53.15,226.5L55.73,221.31L56.58,222.37L58.3,222.49L59.16,224.64L60.01,223.42L60.87,220.45L62.59,223.49L63.44,222.44L64.3,222.74L65.16,221.99L67.73,221.45L68.59,222.15L69.44,220.95L70.3,222.6L71.16,221.76L72.02,223.98L75.45,223.3L76.3,219.88L77.16,222.35L78.02,221.88L79.73,220.97L80.59,221.01L81.45,220.79L82.3,219.52L83.16,217.5L84.02,217.93L84.88,216.35L85.73,216.91L87.45,216.46L88.31,216.66L90.02,218.25L90.88,219.25L91.73,218.82L92.59,216.91L94.31,217.66L95.16,213.85L96.02,214.08L96.88,212.63L99.45,212.52L100.31,218.14L101.17,218.88L102.02,218.14L102.88,217.5L103.74,213.94L105.45,208.8L106.31,208.96L108.88,210.2L109.74,206.17L110.6,205.76L111.45,203.18L112.31,204.15L113.17,202.43L114.03,207.1L114.88,205.13L115.74,207.19L116.6,206.1L117.45,203.54L118.31,205.17L119.17,204.58L120.03,202.72L120.88,203.86L121.74,200.73L122.6,198.24L123.46,199.1L125.17,198.62L126.03,199.71L126.89,202L127.74,200.91L129.46,201.14L130.31,200.48L131.17,201.86L132.03,201.12L132.89,201.7L133.74,205.08L135.46,205.83L136.32,208.82L138.03,201.48L138.89,202.13L139.75,200.41L140.6,196.85L142.32,202.68L143.17,201.3L144.03,190.53L144.89,194.93L145.75,197.35L146.6,197.49L147.46,196.24L148.32,196.76L149.18,196.06L150.03,199.57L150.89,198.87L151.75,200.14L152.61,198.83L153.46,199.71L154.32,202.29L155.18,200.71L156.89,204.42L157.75,210.34L158.61,210.41L159.46,209.09L160.32,212.54L161.18,209.59L162.04,209.5L162.89,206.55L163.75,206.01L164.61,207.89L165.47,205.44L166.32,206.74L168.9,209.55L169.75,208.98L170.61,207.8L171.47,209.12L172.32,211.54L173.18,210.16L174.04,211.63L174.9,211.13L176.61,212.61L177.47,211.72L178.33,216.89L179.18,216.62L180.04,216.87L180.9,213.22L181.76,212.74L182.61,214.46L184.33,212.76L185.18,214.08L186.9,215.48L187.76,214.49L189.47,217.21L190.33,215.3L191.19,215.28L192.04,216.57L192.9,216.66L193.76,214.85L195.47,207.96L196.33,210.41L198.04,201.95L198.9,205.15L201.47,199.89L202.33,200.37L204.05,201.12L204.9,196.67L205.76,199.6L206.62,198.26L210.9,201.09L211.76,201L212.62,201.41L213.48,199.05L215.19,201.68L216.05,201.5L216.91,199.6L217.76,201.89L218.62,199.91L219.48,193.27L221.19,192.59L222.05,193.39L222.91,194.29L223.76,198.89L225.48,202.25L226.34,200.32L227.19,200.21L228.05,198.35L229.77,199.51L230.62,198.35L233.2,196.7L234.05,197.65L235.77,199.76L236.62,199.32L237.48,195.92L238.34,198.12L239.2,196.49L240.05,198.69L241.77,197.15L242.63,197.53L243.48,196.9L244.34,197.6L246.06,192.82L246.91,196.33L247.77,195.61L248.63,201.02L250.34,198.92L251.2,199.94L252.06,202.16L252.91,201.14L253.77,199.44L254.63,200.14L255.49,198.64L256.34,201.36L257.2,200.48L258.06,201L259.77,201.23L260.63,199.82L261.49,200.71L262.34,200.07L263.2,199.71L264.06,197.62L266.63,199.53L267.49,195.49L268.35,191.01L269.2,191.32L270.06,187.38L270.92,186.97L271.78,188.51L272.63,187.33L274.35,186.54L275.2,185.34L276.92,181.44L277.78,182.51L279.49,171.67L280.35,171.29L282.92,149.6L283.78,150.03L284.64,154.4L285.49,153.27L286.35,153.61L287.21,149.53L288.06,141.3L288.92,145.86L289.78,146.54L290.64,156.33L291.49,161.07L292.35,160.18L293.21,155.13L294.07,158.82L294.92,157.87L295.78,150.46L296.64,145.9L297.5,152.27L298.35,149.55L299.21,143.61L300.92,156.85L301.78,152.91L302.64,151.09L303.5,153.99L305.21,147.99L306.07,150.26L306.93,147.08L307.78,147.81L309.5,161.22L310.36,161.66L311.21,162.65L312.07,161.43L313.78,157.35L314.64,160.05L316.36,159.62L317.21,156.67L318.07,153.09L318.93,156.47L319.79,158.44L320.64,157.15L321.5,156.6L322.36,157.89L323.22,154.7L324.07,154.72L324.93,154.22L325.79,149.71L326.64,154.63L327.5,152.93L328.36,152.77L329.22,153.75L330.93,149.46L331.79,150.66L332.65,147.22L333.5,139.78L334.36,144.09L335.22,137.2L336.93,134.93L337.79,137.88L338.65,139.67L339.5,144.14L340.36,142.84L341.22,148.06L342.93,139.56L343.79,138.85L344.65,134.28L345.51,141.39L346.36,141.62L347.22,136.66L348.08,135.68L348.94,139.99L349.79,132.37L350.65,133.76L351.51,136.97L352.36,135.27L354.08,143.98L354.94,144.36L356.65,143.05L357.51,141.12L359.22,141.76L360.08,137.34L361.8,123.24L362.65,127.11L363.51,130.79L364.37,128.56L365.22,130.9L366.08,128.38L366.94,127.21L367.8,124.64L368.65,123.96L369.51,130.26L370.37,125.53L371.23,127.57L372.08,125.3L372.94,125.48L373.8,126.19L374.66,125.78L375.51,127.5L376.37,124.8L377.23,125.1L378.08,127.18L378.94,129.88L379.8,147.31L381.51,152.39L382.37,152.3L384.09,150.48L384.94,150.69L385.8,152.43L386.66,151.16L387.52,152.09L388.37,149.14L390.09,146.92L390.94,149.44L392.66,149.94L393.52,149.48L394.37,151.55L395.23,149.48L396.09,149.1L396.95,149.55L398.66,151.77L399.52,151.3L401.23,156.53L402.09,153.2L403.8,146.83L404.66,146.72L405.52,148.03L406.38,147.58L407.23,144.93L408.09,145.72L409.81,145.34L410.66,146.74L411.52,147.76L412.38,146.31L413.24,145.59L414.09,143.5L415.81,146.11L416.66,145.93L417.52,147.51L418.38,146.2L419.24,146.99L420.09,144.16L421.81,143.95L422.67,142.19L424.38,143.95L425.24,144.97L426.1,144.84L426.95,146.31L427.81,150.71L428.67,143.46L430.38,141.1L431.24,140.8L432.1,140.31L432.95,141.71L433.81,142.89L434.67,142.62L435.53,140.89L436.38,142.01L437.24,139.99L438.1,141.46L438.96,143.18L439.81,141.94L441.53,144.18L442.38,144.16L443.24,147.74L444.1,146.56L444.96,145.5L445.81,143.23L450.1,144.39L450.96,145.16L451.82,144.02L452.67,146.08L453.53,151.16L454.39,148.96L456.1,151.59L456.96,153.31L457.82,153.52L458.67,151.25L460.39,154.43L461.25,154.22L462.1,156.19L462.96,156.01L463.82,158.66L464.68,157.33L465.53,155.17L466.39,156.92L467.25,158.37L468.1,162.77L471.53,155.51L472.39,155.94L473.25,155.35L474.11,159.23L474.96,165.42L475.82,164.6L476.68,166.14L477.54,163.65L478.39,163.36L479.25,164.01L480.11,164.83L480.97,171.06L481.82,170.59L482.68,160.88L484.39,158.39L485.25,157.69L486.11,156.37L486.97,160.23L488.68,158.3L489.54,153.9L492.97,156.56L493.83,165.42L494.68,165.74L495.54,164.04L496.4,164.47L497.25,163.63L498.11,163.15L498.97,163.63L499.83,163.38L500.68,159.55L503.26,163.92L504.11,164.96L504.97,162.18L505.83,162.29L507.54,159.96L508.4,161.43L511.83,158.73L512.69,159.82L514.4,162.04L515.26,161.68L516.12,163.13L516.97,159.55L517.83,160.36L518.69,160.05L519.55,160.48L520.4,159.53L521.26,156.85L522.12,156.94L524.69,154.29L525.55,154.81L527.26,154.67L528.12,151.57L528.98,147.72L529.83,147.9L530.69,148.31L531.55,147.44L532.41,145.95L533.26,146.36L534.98,143.14L535.83,143.59L538.41,146.47L539.26,146.22L540.98,145.72L541.84,149.03L542.69,147.58L543.55,148.85L545.27,140.67L546.12,141.69L546.98,139.49L547.84,139.58L548.69,138.97L549.55,140.33L550.41,136.77L551.27,136.93L552.12,135.18L552.98,136.04L553.84,139.19L554.7,139.47L556.41,131.92L557.27,132.26L558.13,132.58L558.98,134.14L560.7,136.16L561.55,135.12L563.27,138.06L564.13,135.36L564.98,135.23L565.84,136.29L567.56,134.8L568.41,134.32L569.27,137.15L570.13,137.31L571.84,136.86L572.7,134.14L573.56,135.23L574.41,131.49L575.27,126.87L576.13,126.5L576.99,124.03L577.84,126.53L578.7,124.98L579.56,125.3L582.99,120.79L583.85,125.17L584.7,122.08L585.56,125.66L586.42,126.98L587.27,126.43L588.13,125.07L588.99,128.11L589.85,124.26L590.7,125.82L592.42,124.62L593.28,124.92L594.99,126.32L595.85,131.22L596.71,132.8L597.56,130.92L598.42,134.32L599.28,131.85L600.13,130.02L600.99,130.92L601.85,130.56L602.71,125.85L604.42,126.43L605.28,128.79L606.14,127.7L606.99,125.12L607.85,123.6L608.71,126.66L609.57,122.35L610.42,122.13L612.14,114.51L612.99,113.58L614.71,105.29L615.57,101.89L617.28,107.74L618.14,107.94L619,109.73L619.85,109.23L621.57,114.13L622.43,109.69L623.28,111.36L624.14,110.75L626.71,114.94L627.57,121.49L628.43,120.99L629.28,121.67L630.14,116.89L631,120.43L631.86,120.54L632.71,118.18L633.57,118.32L634.43,115.85L636.14,112.72L637,117.01" style="vector-effect: none; fill: none; stroke: rgb(220, 57, 18); stroke-opacity: 1; stroke-width: 2px; opacity: 1;"/></g><g class="points"/><g class="text"/></g><g class="trace scatter traceedf41096-3b00-41a2-89e5-61b574efb927" style="stroke-miterlimit: 2; opacity: 1;"><g class="fills"/><g class="errorbars"/><g class="lines"><path class="js-line" d="M0,232.87L1.71,230.29L2.57,230.61L3.43,231.12L4.29,230.12L5.14,229.44L6,229.99L7.72,231.09L8.57,230.29L9.43,231.2L10.29,230.02L12,230.8L12.86,230.65L14.57,229.73L15.43,229.92L17.15,230.67L18,230.52L18.86,232.34L19.72,232L21.43,233.02L22.29,233.48L23.15,235.22L24.01,235.1L25.72,234.7L26.58,235.4L28.29,233.31L29.15,234.22L33.44,235.81L34.29,238.7L36.01,239.47L36.87,239.56L37.72,241.11L38.58,240.11L39.44,239.64L40.29,240.43L42.01,244.64L42.87,241.94L43.72,242.43L44.58,235.95L45.44,234.6L46.3,236.13L47.15,237.15L48.01,233.61L48.87,231.72L49.73,232.69L52.3,231.53L53.15,234.8L54.87,231.23L55.73,231.67L59.16,233.66L60.01,232.99L60.87,231.5L61.73,232.75L63.44,232.7L64.3,232.43L66.01,232.7L66.87,231.81L68.59,232.05L69.44,231.91L70.3,232.85L71.16,232.28L72.02,233.55L72.87,233.29L74.59,232.87L75.45,233.45L76.3,232.46L77.16,234.04L79.73,232.53L80.59,232.63L81.45,232L82.3,229.95L83.16,229.21L84.02,229.95L85.73,229L86.59,228.6L88.31,229.3L89.16,230.68L90.88,230.97L91.73,229.64L92.59,229.18L93.45,230.02L94.31,229.67L95.16,227.06L96.02,227.1L96.88,226.05L99.45,227.13L100.31,229.21L102.02,229.76L102.88,229.07L105.45,225.78L106.31,226.13L108.88,226.84L109.74,218.66L111.45,203L112.31,204.51L113.17,199.47L114.03,205.07L114.88,202.25L115.74,202.06L117.45,192.41L118.31,193.85L119.17,191.82L120.03,185.99L120.88,194.13L121.74,193.38L122.6,186.4L123.46,190.93L124.31,189.21L125.17,191.82L126.03,191.46L126.89,199.56L127.74,196.75L128.6,197.15L129.46,194.76L130.31,196.78L131.17,198.86L132.03,196.68L132.89,198.8L133.74,205.01L135.46,207.24L136.32,209.12L139.75,198.82L140.6,196.92L142.32,202L143.17,201.2L144.03,195.17L144.89,198.92L146.6,202.82L147.46,201.64L148.32,199.98L149.18,199.98L150.03,202.9L150.89,202.79L151.75,203.66L152.61,202.63L153.46,202.96L154.32,201.32L155.18,199.77L156.03,202.56L156.89,202.34L157.75,210.83L159.46,211.68L160.32,213.41L161.18,213.23L162.04,212.2L162.89,209.64L163.75,210.08L164.61,211.08L165.47,209.65L166.32,209.41L167.18,211.09L168.9,211.65L169.75,212.55L170.61,212.17L171.47,213.13L172.32,215.81L173.18,214.46L174.04,215.84L174.9,215.13L175.75,214.55L176.61,215.55L177.47,214.89L178.33,217.33L179.18,219.09L180.04,217.89L180.9,215.04L181.76,217.45L182.61,218.44L183.47,216.6L184.33,215.8L185.18,216.4L186.9,218.86L187.76,218.22L188.61,218.24L189.47,219.61L191.19,218.39L192.04,220.03L193.76,217.21L194.62,213.4L195.47,211.29L196.33,211.44L197.19,207.95L198.04,208.54L198.9,208.76L199.76,209.86L201.47,205.89L202.33,206.62L204.05,207.3L204.9,201.97L205.76,203.23L206.62,200.76L207.48,200.83L208.33,203.07L210.05,205.54L210.9,204.16L212.62,205.6L213.48,202.61L215.19,207.24L216.05,206.45L216.91,203.51L217.76,205.6L218.62,204.39L219.48,194.89L220.34,196.68L221.19,194.36L222.05,193.14L222.91,194.58L223.76,201.56L224.62,200.36L225.48,204.45L226.34,202.02L227.19,201.64L228.05,199.68L228.91,201.44L229.77,200.76L231.48,199.18L232.34,199.83L233.2,198.26L234.05,199.18L235.77,201.67L236.62,200.68L237.48,197.45L238.34,199.26L239.2,198.04L240.05,201.55L241.77,201.9L242.63,201.5L244.34,202.53L245.2,200.5L246.06,198.1L246.91,201.21L247.77,200.24L248.63,203.69L250.34,202.66L251.2,203.82L252.06,205.46L252.91,204.31L253.77,203.25L254.63,204.37L255.49,202.03L256.34,204.11L257.2,203.67L258.06,204.26L259.77,205.68L260.63,204.32L263.2,205.22L264.06,202.87L266.63,204.25L267.49,200.05L269.2,195.42L270.06,194.29L270.92,193.87L271.78,196.37L274.35,193.66L275.2,190L276.92,188.7L277.78,191.38L279.49,182.41L280.35,183.57L281.21,163.38L282.06,161.81L282.92,166.05L283.78,164.31L285.49,170.35L286.35,169.06L287.21,168.89L288.06,160.06L290.64,168.53L291.49,178.42L292.35,177.44L293.21,168.63L294.92,173.63L295.78,167.01L296.64,161.94L297.5,167.75L298.35,165.84L299.21,157.81L300.92,169.32L301.78,168.74L302.64,166.19L303.5,170.18L306.07,165.45L306.93,165.61L310.36,185.01L311.21,183.58L313.78,179.8L314.64,182.38L315.5,181.93L316.36,182.69L318.07,179.5L318.93,180.42L321.5,179.42L322.36,181.59L324.07,177.54L324.93,177.57L325.79,175.51L326.64,177.74L328.36,177.45L329.22,179.98L333.5,167.81L334.36,171.32L335.22,168.5L336.08,168.32L336.93,166.43L337.79,167.5L338.65,168.88L339.5,172.99L340.36,170.94L341.22,173.84L342.93,167.75L343.79,163.11L344.65,157.3L345.51,164.67L346.36,165.19L347.22,160.62L348.08,159.03L348.94,161.96L349.79,158.57L350.65,161.24L351.51,163.44L352.36,162.88L354.08,169.24L354.94,168.38L355.79,168.76L356.65,167.69L357.51,165.24L358.37,165.86L359.22,165.66L360.08,163.4L360.94,163.16L361.8,158.36L362.65,150.73L363.51,156.1L364.37,155.13L365.22,157.31L366.94,153.34L367.8,152.18L368.65,150.45L369.51,155.34L371.23,151.64L372.08,153.31L373.8,145.84L374.66,148.42L375.51,149.09L376.37,147.71L378.08,151.12L378.94,152.94L380.66,173.41L381.51,171.7L382.37,173.6L383.23,170.85L384.94,170.42L385.8,171.27L387.52,171.65L388.37,170.06L389.23,169.88L390.09,167.47L391.8,172.84L392.66,173.52L393.52,171.97L394.37,173.03L396.09,171.03L396.95,170.99L398.66,173.46L399.52,173.37L401.23,179.89L402.09,177.62L402.95,172.29L403.8,172L404.66,171.2L405.52,172.43L408.95,168.38L409.81,170.36L411.52,172.09L412.38,171.2L414.09,162.4L414.95,162.73L417.52,168.42L418.38,165.1L419.24,167.74L420.09,165.4L420.95,165.89L421.81,164.75L422.67,162.32L423.52,165.17L426.95,168.63L427.81,173.4L428.67,163.99L429.52,164.05L430.38,163.29L431.24,164.92L432.1,163.72L432.95,165.11L433.81,166.98L434.67,166.71L435.53,165.3L436.38,165.98L437.24,163.25L438.1,164.28L438.96,167.66L439.81,166.89L441.53,167.57L442.38,166.31L443.24,168.29L444.1,168.38L444.96,167.86L445.81,165.92L446.67,164.29L447.53,166.83L450.96,167.09L451.82,164.81L452.67,167.44L453.53,172.78L454.39,171.71L455.24,172.88L457.82,176.4L458.67,173.57L460.39,180.7L461.25,179.1L462.96,179.38L463.82,182.46L465.53,180.65L466.39,182.52L468.1,188.19L468.96,187.19L469.82,185.92L470.68,182.76L471.53,181.34L472.39,182.22L473.25,182.09L474.11,186.56L474.96,190.52L475.82,189.14L476.68,190.36L477.54,188.79L478.39,187.21L479.25,190.53L480.11,190.12L480.97,199.06L481.82,198.86L482.68,189.65L484.39,183.67L485.25,184.45L487.82,187.6L488.68,186.39L489.54,185.3L490.4,185.81L491.25,185.54L492.11,187.51L492.97,187.74L493.83,194.52L494.68,195.31L495.54,193.6L497.25,193.57L498.11,193.13L498.97,191.58L499.83,191.81L500.68,188.86L501.54,189.5L503.26,193.78L504.11,193.99L505.83,191.73L506.69,191.05L507.54,189.7L508.4,192.31L510.11,190.3L510.97,190.71L511.83,189.5L512.69,190.44L514.4,191.94L515.26,190.49L516.12,191.59L516.97,188.76L517.83,189.8L518.69,189.12L519.55,190.36L520.4,189.5L522.12,187.24L522.97,186.62L524.69,185.64L525.55,186.54L526.4,185.37L527.26,186.46L528.98,180.23L529.83,180.59L531.55,181.47L532.41,180.77L533.26,179.2L534.12,173.95L536.69,175.99L537.55,177.48L538.41,178.21L539.26,177.91L540.12,178.21L540.98,177.22L541.84,180.73L542.69,179.21L543.55,179.85L544.41,175.6L545.27,174.16L546.12,175.02L547.84,172.82L548.69,173.46L549.55,174.39L550.41,170.47L551.27,171.03L552.12,170.41L552.98,170.77L553.84,174.42L554.7,174.76L555.55,172.37L556.41,168.59L557.27,169.88L558.13,170.09L558.98,171.23L560.7,172.72L561.55,170.26L562.41,170.35L563.27,171.34L564.13,171.09L564.98,170.05L565.84,170.36L566.7,163.22L569.27,170.76L570.13,170.02L570.99,169.88L571.84,166.72L572.7,165.4L573.56,167.31L575.27,162.18L576.13,163.73L576.99,162.15L577.84,163.49L580.42,160.38L581.27,160.97L582.99,159.33L583.85,163.79L584.7,161.27L585.56,164.57L588.13,164.66L588.99,169.41L589.85,164.95L590.7,165.72L592.42,164.29L593.28,165.42L594.13,164.55L594.99,164.83L596.71,171.21L597.56,170.65L598.42,171.99L599.28,170.62L600.13,168.63L600.99,169.67L601.85,169.74L602.71,164.9L603.56,166.18L604.42,164.57L605.28,167.59L606.14,167.41L606.99,162.37L607.85,163.81L608.71,164.98L609.57,163.05L610.42,164.04L611.28,162.85L612.99,159.29L613.85,154.13L614.71,154.35L615.57,151.61L617.28,156.87L618.14,156.83L620.71,158.57L621.57,159.91L622.43,157.47L623.28,159.59L624.14,159.45L625,160.42L628.43,166.34L629.28,166.51L630.14,162.7L631,165.49L631.86,165.13L632.71,160.99L633.57,164.52L634.43,163.9L636.14,161.87L637,161.58" style="vector-effect: none; fill: none; stroke: rgb(148, 103, 189); stroke-opacity: 1; stroke-width: 2px; opacity: 1;"/></g><g class="points"/><g class="text"/></g></g></g><g class="overplot"/><path class="xlines-above crisp" d="M0,0" style="fill: none;"/><path class="ylines-above crisp" d="M0,0" style="fill: none;"/><g class="overlines-above"/><g class="xaxislayer-above"><g class="xtick"><text text-anchor="middle" x="0" y="320" transform="translate(115.3,0)" style="font-family: 'Open Sans', verdana, arial, sans-serif; font-size: 12px; fill: rgb(214, 223, 239); fill-opacity: 1; white-space: pre; opacity: 1;"><tspan class="line" dy="0em" x="0" y="320">Jan 5</tspan><tspan class="line" dy="1.3em" x="0" y="320">2020</tspan></text></g><g class="xtick"><text text-anchor="middle" x="0" y="320" style="font-family: 'Open Sans', verdana, arial, sans-serif; font-size: 12px; fill: rgb(214, 223, 239); fill-opacity: 1; white-space: pre; opacity: 1;" transform="translate(259.34000000000003,0)">Jan 12</text></g><g class="xtick"><text text-anchor="middle" x="0" y="320" style="font-family: 'Open Sans', verdana, arial, sans-serif; font-size: 12px; fill: rgb(214, 223, 239); fill-opacity: 1; white-space: pre; opacity: 1;" transform="translate(403.37,0)">Jan 19</text></g><g class="xtick"><text text-anchor="middle" x="0" y="320" style="font-family: 'Open Sans', verdana, arial, sans-serif; font-size: 12px; fill: rgb(214, 223, 239); fill-opacity: 1; white-space: pre; opacity: 1;" transform="translate(547.4,0)">Jan 26</text></g></g><g class="yaxislayer-above"><g class="ytick"><text text-anchor="end" x="32" y="4.199999999999999" transform="translate(0,278.87)" style="font-family: 'Open Sans', verdana, arial, sans-serif; font-size: 12px; fill: rgb(214, 223, 239); fill-opacity: 1; white-space: pre; opacity: 1;">1</text></g><g class="ytick"><text text-anchor="end" x="32" y="4.199999999999999" style="font-family: 'Open Sans', verdana, arial, sans-serif; font-size: 12px; fill: rgb(214, 223, 239); fill-opacity: 1; white-space: pre; opacity: 1;" transform="translate(0,220.45)">1.2</text></g><g class="ytick"><text text-anchor="end" x="32" y="4.199999999999999" style="font-family: 'Open Sans', verdana, arial, sans-serif; font-size: 12px; fill: rgb(214, 223, 239); fill-opacity: 1; white-space: pre; opacity: 1;" transform="translate(0,162.04000000000002)">1.4</text></g><g class="ytick"><text text-anchor="end" x="32" y="4.199999999999999" style="font-family: 'Open Sans', verdana, arial, sans-serif; font-size: 12px; fill: rgb(214, 223, 239); fill-opacity: 1; white-space: pre; opacity: 1;" transform="translate(0,103.62)">1.6</text></g></g><g class="overaxes-above"/></g></g><g class="polarlayer"/><g class="smithlayer"/><g class="ternarylayer"/><g class="geolayer"/><g class="funnelarealayer"/><g class="pielayer"/><g class="iciclelayer"/><g class="treemaplayer"/><g class="sunburstlayer"/><g class="glimages"/><defs id="topdefs-c62715"><g class="clips"/><clipPath id="legendc62715"><rect width="517" height="29" x="0" y="0"/></clipPath></defs><g class="layer-above"><g class="imagelayer"/><g class="shapelayer"/></g><g class="infolayer"><g class="legend" pointer-events="all" transform="translate(153,11.779999999999994)"><rect class="bg" shape-rendering="crispEdges" width="517" height="29" x="0" y="0" style="stroke: rgb(68, 68, 68); stroke-opacity: 1; fill: rgb(33, 34, 38); fill-opacity: 1; stroke-width: 0px;"/><g class="scrollbox" transform="" clip-path="url(#legendc62715)"><g class="groups"><g class="traces" transform="translate(0,14.5)" style="opacity: 1;"><text class="legendtext" text-anchor="start" x="40" y="4.680000000000001" style="font-family: 'Open Sans', verdana, arial, sans-serif; font-size: 12px; fill: rgb(214, 223, 239); fill-opacity: 1; white-space: pre;">ADAUSDT</text><g class="layers" style="opacity: 1;"><g class="legendfill"/><g class="legendlines"><path class="js-line" d="M5,0h30" style="fill: none; stroke: rgb(31, 119, 180); stroke-opacity: 1; stroke-width: 2px;"/></g><g class="legendsymbols"><g class="legendpoints"/></g></g><rect class="legendtoggle" x="0" y="-9.5" width="101.78125" height="19" style="fill: rgb(0, 0, 0); fill-opacity: 0;"/></g><g class="traces" transform="translate(104.28125,14.5)" style="opacity: 1;"><text class="legendtext" text-anchor="start" x="40" y="4.680000000000001" style="font-family: 'Open Sans', verdana, arial, sans-serif; font-size: 12px; fill: rgb(214, 223, 239); fill-opacity: 1; white-space: pre;">BNBUSDT</text><g class="layers" style="opacity: 1;"><g class="legendfill"/><g class="legendlines"><path class="js-line" d="M5,0h30" style="fill: none; stroke: rgb(255, 127, 14); stroke-opacity: 1; stroke-width: 2px;"/></g><g class="legendsymbols"><g class="legendpoints"/></g></g><rect class="legendtoggle" x="0" y="-9.5" width="101.5625" height="19" style="fill: rgb(0, 0, 0); fill-opacity: 0;"/></g><g class="traces" transform="translate(208.34375,14.5)" style="opacity: 1;"><text class="legendtext" text-anchor="start" x="40" y="4.680000000000001" style="font-family: 'Open Sans', verdana, arial, sans-serif; font-size: 12px; fill: rgb(214, 223, 239); fill-opacity: 1; white-space: pre;">BTCUSDT</text><g class="layers" style="opacity: 1;"><g class="legendfill"/><g class="legendlines"><path class="js-line" d="M5,0h30" style="fill: none; stroke: rgb(44, 160, 44); stroke-opacity: 1; stroke-width: 2px;"/></g><g class="legendsymbols"><g class="legendpoints"/></g></g><rect class="legendtoggle" x="0" y="-9.5" width="100.140625" height="19" style="fill: rgb(0, 0, 0); fill-opacity: 0;"/></g><g class="traces" transform="translate(310.984375,14.5)" style="opacity: 1;"><text class="legendtext" text-anchor="start" x="40" y="4.680000000000001" style="font-family: 'Open Sans', verdana, arial, sans-serif; font-size: 12px; fill: rgb(214, 223, 239); fill-opacity: 1; white-space: pre;">ETHUSDT</text><g class="layers" style="opacity: 1;"><g class="legendfill"/><g class="legendlines"><path class="js-line" d="M5,0h30" style="fill: none; stroke: rgb(220, 57, 18); stroke-opacity: 1; stroke-width: 2px;"/></g><g class="legendsymbols"><g class="legendpoints"/></g></g><rect class="legendtoggle" x="0" y="-9.5" width="100.140625" height="19" style="fill: rgb(0, 0, 0); fill-opacity: 0;"/></g><g class="traces" transform="translate(413.625,14.5)" style="opacity: 1;"><text class="legendtext" text-anchor="start" x="40" y="4.680000000000001" style="font-family: 'Open Sans', verdana, arial, sans-serif; font-size: 12px; fill: rgb(214, 223, 239); fill-opacity: 1; white-space: pre;">XRPUSDT</text><g class="layers" style="opacity: 1;"><g class="legendfill"/><g class="legendlines"><path class="js-line" d="M5,0h30" style="fill: none; stroke: rgb(148, 103, 189); stroke-opacity: 1; stroke-width: 2px;"/></g><g class="legendsymbols"><g class="legendpoints"/></g></g><rect class="legendtoggle" x="0" y="-9.5" width="99.9375" height="19" style="fill: rgb(0, 0, 0); fill-opacity: 0;"/></g></g></g><rect class="scrollbar" rx="20" ry="3" width="0" height="0" x="0" y="0" style="fill: rgb(128, 139, 164); fill-opacity: 1;"/></g><g class="g-gtitle"/><g class="g-xtitle"/><g class="g-ytitle"/></g></svg>