<svg class="main-svg" xmlns="http://www.w3.org/2000/svg" xmlns:xlink="http://www.w3.org/1999/xlink" width="700" height="350" style="" viewBox="0 0 700 350"><rect x="0" y="0" width="700" height="350" style="fill: rgb(255, 255, 255); fill-opacity: 1;"/><defs id="defs-df1def"><g class="clips"><clipPath id="clipdf1defxyplot" class="plotclip"><rect width="637" height="274"/></clipPath><clipPath class="axesclip" id="clipdf1defx"><rect x="33" y="0" width="637" height="350"/></clipPath><clipPath class="axesclip" id="clipdf1defy"><rect x="0" y="46" width="700" height="274"/></clipPath><clipPath class="axesclip" id="clipdf1defxy"><rect x="33" y="46" width="637" height="274"/></clipPath></g><g class="gradients"/><g class="patterns"/></defs><g class="bglayer"><rect class="bg" x="33" y="46" width="637" height="274" style="fill: rgb(229, 236, 246); fill-opacity: 1; stroke-width: 0;"/></g><g class="layer-below"><g class="imagelayer"/><g class="shapelayer"/></g><g class="cartesianlayer"><g class="subplot xy"><g class="layer-subplot"><g class="shapelayer"/><g class="imagelayer"/></g><g class="minor-gridlayer"><g class="x"/><g class="y"/></g><g class="gridlayer"><g class="x"><path class="xgrid crisp" transform="translate(131.81,0)" d="M0,46v274" style="stroke: rgb(255, 255, 255); stroke-opacity: 1; stroke-width: 1px;"/><path class="xgrid crisp" transform="translate(239.45,0)" d="M0,46v274" style="stroke: rgb(255, 255, 255); stroke-opacity: 1; stroke-width: 1px;"/><path class="xgrid crisp" transform="translate(347.09,0)" d="M0,46v274" style="stroke: rgb(255, 255, 255); stroke-opacity: 1; stroke-width: 1px;"/><path class="xgrid crisp" transform="translate(456.49,0)" d="M0,46v274" style="stroke: rgb(255, 255, 255); stroke-opacity: 1; stroke-width: 1px;"/><path class="xgrid crisp" transform="translate(564.13,0)" d="M0,46v274" style="stroke: rgb(255, 255, 255); stroke-opacity: 1; stroke-width: 1px;"/></g><g class="y"><path class="ygrid crisp" transform="translate(0,267.94)" d="M33,0h637" style="stroke: rgb(255, 255, 255); stroke-opacity: 1; stroke-width: 1px;"/><path class="ygrid crisp" transform="translate(0,215.88)" d="M33,0h637" style="stroke: rgb(255, 255, 255); stroke-opacity: 1; stroke-width: 1px;"/><path class="ygrid crisp" transform="translate(0,163.82)" d="M33,0h637" style="stroke: rgb(255, 255, 255); stroke-opacity: 1; stroke-width: 1px;"/><path class="ygrid crisp" transform="translate(0,111.76)" d="M33,0h637" style="stroke: rgb(255, 255, 255); stroke-opacity: 1; stroke-width: 1px;"/><path class="ygrid crisp" transform="translate(0,59.7)" d="M33,0h637" style="stroke: rgb(255, 255, 255); stroke-opacity: 1; stroke-width: 1px;"/></g></g><g class="zerolinelayer"><path class="yzl zl crisp" transform="translate(0,320)" d="M33,0h637" style="stroke: rgb(255, 255, 255); stroke-opacity: 1; stroke-width: 2px;"/></g><path class="xlines-below"/><path class="ylines-below"/><g class="overlines-below"/><g class="xaxislayer-below"/><g class="yaxislayer-below"/><g class="overaxes-below"/><g class="plot" transform="translate(33,46)" clip-path="url(#clipdf1defxyplot)"><g class="scatterlayer mlayer"><g class="trace scatter trace23015a56-dae8-4bd2-b2e8-57880a83cb31" style="stroke-miterlimit: 2;"><g class="fills"><g><path class="js-fill" d="M637,274L0,274L0,274H1.76V274H3.53V274H5.29V274H7.06V274H8.82V274H10.59V274H12.35V274H14.12V274H15.88V274H17.65V274H19.41V274H21.17V274H22.94V274H24.7V274H26.47V274H28.23V274H30V274H31.76V274H33.53V274H35.29V274H37.06V274H38.82V274H40.58V274H42.35V274H44.11V274H45.88V274H47.64V274H49.41V274H51.17V274H52.94V274H54.7V274H56.47V274H58.23V274H59.99V274H61.76V224.59H63.52V224.59H65.29V224.59H67.05V224.59H68.82V224.59H70.58V224.59H72.35V224.59H74.11V208.85H75.88V208.85H77.64V208.85H79.4V208.85H81.17V208.85H82.93V208.85H84.7V208.85H86.46V222.76H88.23V222.76H89.99V222.76H91.76V222.76H93.52V222.76H95.29V222.76H97.05V222.76H98.81V210.78H100.58V210.78H102.34V210.78H104.11V210.78H105.87V210.78H107.64V210.78H109.4V210.78H111.17V203.93H112.93V203.93H114.7V203.93H116.46V203.93H118.22V203.93H119.99V203.93H121.75V203.93H123.52V214.88H125.28V214.88H127.05V214.88H128.81V214.88H130.58V214.88H132.34V214.88H134.11V214.88H135.87V214.88H137.63V214.88H139.4V214.88H141.16V214.88H142.93V214.88H144.69V214.88H146.46V214.88H148.22V274H149.99V274H151.75V274H153.52V274H155.28V274H157.04V274H158.81V274H160.57V274H162.34V274H164.1V274H165.87V274H167.63V274H169.4V274H171.16V274H172.93V236.16H174.69V236.16H176.45V236.16H178.22V236.16H179.98V236.16H181.75V236.16H183.51V236.16H185.28V236.16H187.04V236.16H188.81V236.16H190.57V236.16H192.34V236.16H194.1V236.16H195.86V236.16H197.63V236.16H199.39V236.16H201.16V236.16H202.92V236.16H204.69V236.16H206.45V236.16H208.22V236.16H209.98V121.03H211.75V121.03H213.51V121.03H215.27V121.03H217.04V121.03H218.8V121.03H220.57V121.03H222.33V220.31H224.1V220.31H225.86V220.31H227.63V220.31H229.39V220.31H231.16V220.31H232.92V220.31H234.68V274H236.45V274H238.21V274H239.98V274H241.74V274H243.51V274H245.27V274H247.04V152.65H248.8V152.65H250.57V152.65H252.33V152.65H254.09V152.65H255.86V152.65H257.62V152.65H259.39V152.65H261.15V152.65H262.92V152.65H264.68V152.65H266.45V152.65H268.21V152.65H269.98V152.65H271.74V170.08H273.5V170.08H275.27V170.08H277.03V170.08H278.8V170.08H280.56V170.08H282.33V170.08H284.09V63.93H285.86V63.93H287.62V63.93H289.39V63.93H291.15V63.93H292.91V63.93H294.68V63.93H296.44V70.99H298.21V70.99H299.97V70.99H301.74V70.99H303.5V70.99H305.27V70.99H307.03V70.99H308.8V204.22H310.56V204.22H312.32V204.22H314.09V204.22H315.85V204.22H317.62V204.22H319.38V204.22H321.15V204.22H322.91V204.22H324.68V204.22H326.44V204.22H328.2V204.22H329.97V204.22H331.73V204.22H333.5V274H335.26V274H337.03V274H338.79V274H340.56V274H342.32V274H344.09V274H345.85V13.7H347.61V13.7H349.38V13.7H351.14V13.7H352.91V13.7H354.67V13.7H356.44V13.7H358.2V13.7H359.97V13.7H361.73V13.7H363.5V13.7H365.26V13.7H367.02V13.7H368.79V13.7H370.55V13.7H372.32V13.7H374.08V13.7H375.85V13.7H377.61V13.7H379.38V13.7H381.14V13.7H382.91V274H384.67V274H386.43V274H388.2V274H389.96V274H391.73V274H393.49V274H395.26V264.8H397.02V264.8H398.79V264.8H400.55V264.8H402.32V264.8H404.08V264.8H405.84V264.8H407.61V274H409.37V274H411.14V274H412.9V274H414.67V274H416.43V274H418.2V274H419.96V274H421.73V274H423.49V274H425.25V274H427.02V274H428.78V274H430.55V274H432.31V203.81H434.08V203.81H435.84V203.81H437.61V203.81H439.37V203.81H441.14V203.81H442.9V203.81H444.66V203.81H446.43V203.81H448.19V203.81H449.96V203.81H451.72V203.81H453.49V203.81H455.25V203.81H457.02V274H458.78V274H460.55V274H462.31V274H464.07V274H465.84V274H467.6V274H469.37V13.7H471.13V13.7H472.9V13.7H474.66V13.7H476.43V13.7H478.19V13.7H479.96V13.7H481.72V274H483.48V274H485.25V274H487.01V274H488.78V274H490.54V274H492.31V274H494.07V274H495.84V274H497.6V274H499.37V274H501.13V274H502.89V274H504.66V274H506.42V274H508.19V274H509.95V274H511.72V274H513.48V274H515.25V274H517.01V274H518.78V118.42H520.54V118.42H522.3V118.42H524.07V118.42H525.83V118.42H527.6V118.42H529.36V118.42H531.13V99.15H532.89V99.15H534.66V99.15H536.42V99.15H538.19V99.15H539.95V99.15H541.71V99.15H543.48V201.29H545.24V201.29H547.01V201.29H548.77V201.29H550.54V201.29H552.3V201.29H554.07V201.29H555.83V217.63H557.6V217.63H559.36V217.63H561.12V217.63H562.89V217.63H564.65V217.63H566.42V217.63H568.18V274H569.95V274H571.71V274H573.48V274H575.24V274H577.01V274H578.77V274H580.53V274H582.3V274H584.06V274H585.83V274H587.59V274H589.36V274H591.12V274H592.89V274H594.65V274H596.42V274H598.18V274H599.94V274H601.71V274H603.47V274H605.24V274H607V274H608.77V274H610.53V274H612.3V274H614.06V274H615.83V274H617.59V187.29H619.35V187.29H621.12V187.29H622.88V187.29H624.65V187.29H626.41V187.29H628.18V187.29H629.94V274H631.71V274H633.47V274H635.24V274H637V274" style="fill: rgb(31, 119, 180); fill-opacity: 0.8; stroke-width: 0;"/></g><g><path class="js-fill" d="M0,274H1.76V274H3.53V274H5.29V274H7.06V274H8.82V274H10.59V274H12.35V274H14.12V274H15.88V274H17.65V274H19.41V274H21.17V274H22.94V274H24.7V274H26.47V274H28.23V274H30V274H31.76V274H33.53V274H35.29V274H37.06V274H38.82V274H40.58V274H42.35V274H44.11V274H45.88V274H47.64V274H49.41V115.22H51.17V115.22H52.94V115.22H54.7V115.22H56.47V115.22H58.23V115.22H59.99V115.22H61.76V135.38H63.52V135.38H65.29V135.38H67.05V135.38H68.82V135.38H70.58V135.38H72.35V135.38H74.11V153.01H75.88V153.01H77.64V153.01H79.4V153.01H81.17V153.01H82.93V153.01H84.7V153.01H86.46V158.92H88.23V158.92H89.99V158.92H91.76V158.92H93.52V158.92H95.29V158.92H97.05V158.92H98.81V210.78H100.58V210.78H102.34V210.78H104.11V210.78H105.87V210.78H107.64V210.78H109.4V210.78H111.17V133.97H112.93V133.97H114.7V133.97H116.46V133.97H118.22V133.97H119.99V133.97H121.75V133.97H123.52V175.31H125.28V175.31H127.05V175.31H128.81V175.31H130.58V175.31H132.34V175.31H134.11V175.31H135.87V175.31H137.63V175.31H139.4V175.31H141.16V175.31H142.93V175.31H144.69V175.31H146.46V175.31H148.22V274H149.99V274H151.75V274H153.52V274H155.28V274H157.04V274H158.81V274H160.57V274H162.34V274H164.1V274H165.87V274H167.63V274H169.4V274H171.16V274H172.93V187.48H174.69V187.48H176.45V187.48H178.22V187.48H179.98V187.48H181.75V187.48H183.51V187.48H185.28V187.48H187.04V187.48H188.81V187.48H190.57V187.48H192.34V187.48H194.1V187.48H195.86V187.48H197.63V187.48H199.39V187.48H201.16V187.48H202.92V187.48H204.69V187.48H206.45V187.48H208.22V187.48H209.98V62.11H211.75V62.11H213.51V62.11H215.27V62.11H217.04V62.11H218.8V62.11H220.57V62.11H222.33V160.94H224.1V160.94H225.86V160.94H227.63V160.94H229.39V160.94H231.16V160.94H232.92V160.94H234.68V274H236.45V274H238.21V274H239.98V274H241.74V274H243.51V274H245.27V274H247.04V117.5H248.8V117.5H250.57V117.5H252.33V117.5H254.09V117.5H255.86V117.5H257.62V117.5H259.39V117.5H261.15V117.5H262.92V117.5H264.68V117.5H266.45V117.5H268.21V117.5H269.98V117.5H271.74V13.7H273.5V13.7H275.27V13.7H277.03V13.7H278.8V13.7H280.56V13.7H282.33V13.7H284.09V63.93H285.86V63.93H287.62V63.93H289.39V63.93H291.15V63.93H292.91V63.93H294.68V63.93H296.44V70.99H298.21V70.99H299.97V70.99H301.74V70.99H303.5V70.99H305.27V70.99H307.03V70.99H308.8V148H310.56V148H312.32V148H314.09V148H315.85V148H317.62V148H319.38V148H321.15V148H322.91V148H324.68V148H326.44V148H328.2V148H329.97V148H331.73V148H333.5V274H335.26V274H337.03V274H338.79V274H340.56V274H342.32V274H344.09V274H345.85V13.7H347.61V13.7H349.38V13.7H351.14V13.7H352.91V13.7H354.67V13.7H356.44V13.7H358.2V13.7H359.97V13.7H361.73V13.7H363.5V13.7H365.26V13.7H367.02V13.7H368.79V13.7H370.55V13.7H372.32V13.7H374.08V13.7H375.85V13.7H377.61V13.7H379.38V13.7H381.14V13.7H382.91V274H384.67V274H386.43V274H388.2V274H389.96V274H391.73V274H393.49V274H395.26V222.79H397.02V222.79H398.79V222.79H400.55V222.79H402.32V222.79H404.08V222.79H405.84V222.79H407.61V13.7H409.37V13.7H411.14V13.7H412.9V13.7H414.67V13.7H416.43V13.7H418.2V13.7H419.96V110.71H421.73V110.71H423.49V110.71H425.25V110.71H427.02V110.71H428.78V110.71H430.55V110.71H432.31V157.65H434.08V157.65H435.84V157.65H437.61V157.65H439.37V157.65H441.14V157.65H442.9V157.65H444.66V157.65H446.43V157.65H448.19V157.65H449.96V157.65H451.72V157.65H453.49V157.65H455.25V157.65H457.02V13.7H458.78V13.7H460.55V13.7H462.31V13.7H464.07V13.7H465.84V13.7H467.6V13.7H469.37V13.7H471.13V13.7H472.9V13.7H474.66V13.7H476.43V13.7H478.19V13.7H479.96V13.7H481.72V274H483.48V274H485.25V274H487.01V274H488.78V274H490.54V274H492.31V274H494.07V13.7H495.84V13.7H497.6V13.7H499.37V13.7H501.13V13.7H502.89V13.7H504.66V13.7H506.42V13.7H508.19V13.7H509.95V13.7H511.72V13.7H513.48V13.7H515.25V13.7H517.01V13.7H518.78V13.7H520.54V13.7H522.3V13.7H524.07V13.7H525.83V13.7H527.6V13.7H529.36V13.7H531.13V13.7H532.89V13.7H534.66V13.7H536.42V13.7H538.19V13.7H539.95V13.7H541.71V13.7H543.48V158.22H545.24V158.22H547.01V158.22H548.77V158.22H550.54V158.22H552.3V158.22H554.07V158.22H555.83V201.6H557.6V201.6H559.36V201.6H561.12V201.6H562.89V201.6H564.65V201.6H566.42V201.6H568.18V274H569.95V274H571.71V274H573.48V274H575.24V274H577.01V274H578.77V274H580.53V274H582.3V274H584.06V274H585.83V274H587.59V274H589.36V274H591.12V274H592.89V274H594.65V274H596.42V274H598.18V274H599.94V274H601.71V274H603.47V274H605.24V274H607V274H608.77V274H610.53V274H612.3V274H614.06V274H615.83V274H617.59V187.29H619.35V187.29H621.12V187.29H622.88V187.29H624.65V187.29H626.41V187.29H628.18V187.29H629.94V274H631.71V274H633.47V274H635.24V274H637V274L637,274V274H635.24V274H633.47V274H631.71V274H629.94V187.29H628.18V187.29H626.41V187.29H624.65V187.29H622.88V187.29H621.12V187.29H619.35V187.29H617.59V274H615.83V274H614.06V274H612.3V274H610.53V274H608.77V274H607V274H605.24V274H603.47V274H601.71V274H599.94V274H598.18V274H596.42V274H594.65V274H592.89V274H591.12V274H589.36V274H587.59V274H585.83V274H584.06V274H582.3V274H580.53V274H578.77V274H577.01V274H575.24V274H573.48V274H571.71V274H569.95V274H568.18V217.63H566.42V217.63H564.65V217.63H562.89V217.63H561.12V217.63H559.36V217.63H557.6V217.63H555.83V201.29H554.07V201.29H552.3V201.29H550.54V201.29H548.77V201.29H547.01V201.29H545.24V201.29H543.48V99.15H541.71V99.15H539.95V99.15H538.19V99.15H536.42V99.15H534.66V99.15H532.89V99.15H531.13V118.42H529.36V118.42H527.6V118.42H525.83V118.42H524.07V118.42H522.3V118.42H520.54V118.42H518.78V274H517.01V274H515.25V274H513.48V274H511.72V274H509.95V274H508.19V274H506.42V274H504.66V274H502.89V274H501.13V274H499.37V274H497.6V274H495.84V274H494.07V274H492.31V274H490.54V274H488.78V274H487.01V274H485.25V274H483.48V274H481.72V13.7H479.96V13.7H478.19V13.7H476.43V13.7H474.66V13.7H472.9V13.7H471.13V13.7H469.37V274H467.6V274H465.84V274H464.07V274H462.31V274H460.55V274H458.78V274H457.02V203.81H455.25V203.81H453.49V203.81H451.72V203.81H449.96V203.81H448.19V203.81H446.43V203.81H444.66V203.81H442.9V203.81H441.14V203.81H439.37V203.81H437.61V203.81H435.84V203.81H434.08V203.81H432.31V274H430.55V274H428.78V274H427.02V274H425.25V274H423.49V274H421.73V274H419.96V274H418.2V274H416.43V274H414.67V274H412.9V274H411.14V274H409.37V274H407.61V264.8H405.84V264.8H404.08V264.8H402.32V264.8H400.55V264.8H398.79V264.8H397.02V264.8H395.26V274H393.49V274H391.73V274H389.96V274H388.2V274H386.43V274H384.67V274H382.91V13.7H381.14V13.7H379.38V13.7H377.61V13.7H375.85V13.7H374.08V13.7H372.32V13.7H370.55V13.7H368.79V13.7H367.02V13.7H365.26V13.7H363.5V13.7H361.73V13.7H359.97V13.7H358.2V13.7H356.44V13.7H354.67V13.7H352.91V13.7H351.14V13.7H349.38V13.7H347.61V13.7H345.85V274H344.09V274H342.32V274H340.56V274H338.79V274H337.03V274H335.26V274H333.5V204.22H331.73V204.22H329.97V204.22H328.2V204.22H326.44V204.22H324.68V204.22H322.91V204.22H321.15V204.22H319.38V204.22H317.62V204.22H315.85V204.22H314.09V204.22H312.32V204.22H310.56V204.22H308.8V70.99H307.03V70.99H305.27V70.99H303.5V70.99H301.74V70.99H299.97V70.99H298.21V70.99H296.44V63.93H294.68V63.93H292.91V63.93H291.15V63.93H289.39V63.93H287.62V63.93H285.86V63.93H284.09V170.08H282.33V170.08H280.56V170.08H278.8V170.08H277.03V170.08H275.27V170.08H273.5V170.08H271.74V152.65H269.98V152.65H268.21V152.65H266.45V152.65H264.68V152.65H262.92V152.65H261.15V152.65H259.39V152.65H257.62V152.65H255.86V152.65H254.09V152.65H252.33V152.65H250.57V152.65H248.8V152.65H247.04V274H245.27V274H243.51V274H241.74V274H239.98V274H238.21V274H236.45V274H234.68V220.31H232.92V220.31H231.16V220.31H229.39V220.31H227.63V220.31H225.86V220.31H224.1V220.31H222.33V121.03H220.57V121.03H218.8V121.03H217.04V121.03H215.27V121.03H213.51V121.03H211.75V121.03H209.98V236.16H208.22V236.16H206.45V236.16H204.69V236.16H202.92V236.16H201.16V236.16H199.39V236.16H197.63V236.16H195.86V236.16H194.1V236.16H192.34V236.16H190.57V236.16H188.81V236.16H187.04V236.16H185.28V236.16H183.51V236.16H181.75V236.16H179.98V236.16H178.22V236.16H176.45V236.16H174.69V236.16H172.93V274H171.16V274H169.4V274H167.63V274H165.87V274H164.1V274H162.34V274H160.57V274H158.81V274H157.04V274H155.28V274H153.52V274H151.75V274H149.99V274H148.22V214.88H146.46V214.88H144.69V214.88H142.93V214.88H141.16V214.88H139.4V214.88H137.63V214.88H135.87V214.88H134.11V214.88H132.34V214.88H130.58V214.88H128.81V214.88H127.05V214.88H125.28V214.88H123.52V203.93H121.75V203.93H119.99V203.93H118.22V203.93H116.46V203.93H114.7V203.93H112.93V203.93H111.17V210.78H109.4V210.78H107.64V210.78H105.87V210.78H104.11V210.78H102.34V210.78H100.58V210.78H98.81V222.76H97.05V222.76H95.29V222.76H93.52V222.76H91.76V222.76H89.99V222.76H88.23V222.76H86.46V208.85H84.7V208.85H82.93V208.85H81.17V208.85H79.4V208.85H77.64V208.85H75.88V208.85H74.11V224.59H72.35V224.59H70.58V224.59H68.82V224.59H67.05V224.59H65.29V224.59H63.52V224.59H61.76V274H59.99V274H58.23V274H56.47V274H54.7V274H52.94V274H51.17V274H49.41V274H47.64V274H45.88V274H44.11V274H42.35V274H40.58V274H38.82V274H37.06V274H35.29V274H33.53V274H31.76V274H30V274H28.23V274H26.47V274H24.7V274H22.94V274H21.17V274H19.41V274H17.65V274H15.88V274H14.12V274H12.35V274H10.59V274H8.82V274H7.06V274H5.29V274H3.53V274H1.76V274H0Z" style="fill: rgb(255, 127, 14); fill-opacity: 0.8; stroke-width: 0;"/></g></g><g class="errorbars"/><g class="lines"><path class="js-line" d="M0,274H1.76V274H3.53V274H5.29V274H7.06V274H8.82V274H10.59V274H12.35V274H14.12V274H15.88V274H17.65V274H19.41V274H21.17V274H22.94V274H24.7V274H26.47V274H28.23V274H30V274H31.76V274H33.53V274H35.29V274H37.06V274H38.82V274H40.58V274H42.35V274H44.11V274H45.88V274H47.64V274H49.41V274H51.17V274H52.94V274H54.7V274H56.47V274H58.23V274H59.99V274H61.76V224.59H63.52V224.59H65.29V224.59H67.05V224.59H68.82V224.59H70.58V224.59H72.35V224.59H74.11V208.85H75.88V208.85H77.64V208.85H79.4V208.85H81.17V208.85H82.93V208.85H84.7V208.85H86.46V222.76H88.23V222.76H89.99V222.76H91.76V222.76H93.52V222.76H95.29V222.76H97.05V222.76H98.81V210.78H100.58V210.78H102.34V210.78H104.11V210.78H105.87V210.78H107.64V210.78H109.4V210.78H111.17V203.93H112.93V203.93H114.7V203.93H116.46V203.93H118.22V203.93H119.99V203.93H121.75V203.93H123.52V214.88H125.28V214.88H127.05V214.88H128.81V214.88H130.58V214.88H132.34V214.88H134.11V214.88H135.87V214.88H137.63V214.88H139.4V214.88H141.16V214.88H142.93V214.88H144.69V214.88H146.46V214.88H148.22V274H149.99V274H151.75V274H153.52V274H155.28V274H157.04V274H158.81V274H160.57V274H162.34V274H164.1V274H165.87V274H167.63V274H169.4V274H171.16V274H172.93V236.16H174.69V236.16H176.45V236.16H178.22V236.16H179.98V236.16H181.75V236.16H183.51V236.16H185.28V236.16H187.04V236.16H188.81V236.16H190.57V236.16H192.34V236.16H194.1V236.16H195.86V236.16H197.63V236.16H199.39V236.16H201.16V236.16H202.92V236.16H204.69V236.16H206.45V236.16H208.22V236.16H209.98V121.03H211.75V121.03H213.51V121.03H215.27V121.03H217.04V121.03H218.8V121.03H220.57V121.03H222.33V220.31H224.1V220.31H225.86V220.31H227.63V220.31H229.39V220.31H231.16V220.31H232.92V220.31H234.68V274H236.45V274H238.21V274H239.98V274H241.74V274H243.51V274H245.27V274H247.04V152.65H248.8V152.65H250.57V152.65H252.33V152.65H254.09V152.65H255.86V152.65H257.62V152.65H259.39V152.65H261.15V152.65H262.92V152.65H264.68V152.65H266.45V152.65H268.21V152.65H269.98V152.65H271.74V170.08H273.5V170.08H275.27V170.08H277.03V170.08H278.8V170.08H280.56V170.08H282.33V170.08H284.09V63.93H285.86V63.93H287.62V63.93H289.39V63.93H291.15V63.93H292.91V63.93H294.68V63.93H296.44V70.99H298.21V70.99H299.97V70.99H301.74V70.99H303.5V70.99H305.27V70.99H307.03V70.99H308.8V204.22H310.56V204.22H312.32V204.22H314.09V204.22H315.85V204.22H317.62V204.22H319.38V204.22H321.15V204.22H322.91V204.22H324.68V204.22H326.44V204.22H328.2V204.22H329.97V204.22H331.73V204.22H333.5V274H335.26V274H337.03V274H338.79V274H340.56V274H342.32V274H344.09V274H345.85V13.7H347.61V13.7H349.38V13.7H351.14V13.7H352.91V13.7H354.67V13.7H356.44V13.7H358.2V13.7H359.97V13.7H361.73V13.7H363.5V13.7H365.26V13.7H367.02V13.7H368.79V13.7H370.55V13.7H372.32V13.7H374.08V13.7H375.85V13.7H377.61V13.7H379.38V13.7H381.14V13.7H382.91V274H384.67V274H386.43V274H388.2V274H389.96V274H391.73V274H393.49V274H395.26V264.8H397.02V264.8H398.79V264.8H400.55V264.8H402.32V264.8H404.08V264.8H405.84V264.8H407.61V274H409.37V274H411.14V274H412.9V274H414.67V274H416.43V274H418.2V274H419.96V274H421.73V274H423.49V274H425.25V274H427.02V274H428.78V274H430.55V274H432.31V203.81H434.08V203.81H435.84V203.81H437.61V203.81H439.37V203.81H441.14V203.81H442.9V203.81H444.66V203.81H446.43V203.81H448.19V203.81H449.96V203.81H451.72V203.81H453.49V203.81H455.25V203.81H457.02V274H458.78V274H460.55V274H462.31V274H464.07V274H465.84V274H467.6V274H469.37V13.7H471.13V13.7H472.9V13.7H474.66V13.7H476.43V13.7H478.19V13.7H479.96V13.7H481.72V274H483.48V274H485.25V274H487.01V274H488.78V274H490.54V274H492.31V274H494.07V274H495.84V274H497.6V274H499.37V274H501.13V274H502.89V274H504.66V274H506.42V274H508.19V274H509.95V274H511.72V274H513.48V274H515.25V274H517.01V274H518.78V118.42H520.54V118.42H522.3V118.42H524.07V118.42H525.83V118.42H527.6V118.42H529.36V118.42H531.13V99.15H532.89V99.15H534.66V99.15H536.42V99.15H538.19V99.15H539.95V99.15H541.71V99.15H543.48V201.29H545.24V201.29H547.01V201.29H548.77V201.29H550.54V201.29H552.3V201.29H554.07V201.29H555.83V217.63H557.6V217.63H559.36V217.63H561.12V217.63H562.89V217.63H564.65V217.63H566.42V217.63H568.18V274H569.95V274H571.71V274H573.48V274H575.24V274H577.01V274H578.77V274H580.53V274H582.3V274H584.06V274H585.83V274H587.59V274H589.36V274H591.12V274H592.89V274H594.65V274H596.42V274H598.18V274H599.94V274H601.71V274H603.47V274H605.24V274H607V274H608.77V274H610.53V274H612.3V274H614.06V274H615.83V274H617.59V187.29H619.35V187.29H621.12V187.29H622.88V187.29H624.65V187.29H626.41V187.29H628.18V187.29H629.94V274H631.71V274H633.47V274H635.24V274H637V274" style="vector-effect: none; fill: none; stroke: rgb(31, 119, 180); stroke-opacity: 1; stroke-width: 0px; opacity: 1;"/></g><g class="points"/><g class="text"/></g><g class="trace scatter trace00a0ea0b-e811-4575-b7a6-b437b7372486" style="stroke-miterlimit: 2;"><g class="fills"><g><path class="js-fill" d="M0,274H1.76V274H3.53V274H5.29V274H7.06V274H8.82V274H10.59V274H12.35V274H14.12V274H15.88V274H17.65V274H19.41V274H21.17V274H22.94V274H24.7V274H26.47V274H28.23V274H30V274H31.76V274H33.53V274H35.29V274H37.06V274H38.82V274H40.58V274H42.35V274H44.11V274H45.88V274H47.64V274H49.41V18.34H51.17V18.34H52.94V18.34H54.7V18.34H56.47V18.34H58.23V18.34H59.99V18.34H61.76V135.38H63.52V135.38H65.29V135.38H67.05V135.38H68.82V135.38H70.58V135.38H72.35V135.38H74.11V124.91H75.88V124.91H77.64V124.91H79.4V124.91H81.17V124.91H82.93V124.91H84.7V124.91H86.46V133.54H88.23V133.54H89.99V133.54H91.76V133.54H93.52V133.54H95.29V133.54H97.05V133.54H98.81V177.73H100.58V177.73H102.34V177.73H104.11V177.73H105.87V177.73H107.64V177.73H109.4V177.73H111.17V101.41H112.93V101.41H114.7V101.41H116.46V101.41H118.22V101.41H119.99V101.41H121.75V101.41H123.52V126.17H125.28V126.17H127.05V126.17H128.81V126.17H130.58V126.17H132.34V126.17H134.11V126.17H135.87V126.17H137.63V126.17H139.4V126.17H141.16V126.17H142.93V126.17H144.69V126.17H146.46V126.17H148.22V13.7H149.99V13.7H151.75V13.7H153.52V13.7H155.28V13.7H157.04V13.7H158.81V13.7H160.57V13.7H162.34V13.7H164.1V13.7H165.87V13.7H167.63V13.7H169.4V13.7H171.16V13.7H172.93V122.32H174.69V122.32H176.45V122.32H178.22V122.32H179.98V122.32H181.75V122.32H183.51V122.32H185.28V122.32H187.04V122.32H188.81V122.32H190.57V122.32H192.34V122.32H194.1V122.32H195.86V122.32H197.63V122.32H199.39V122.32H201.16V122.32H202.92V122.32H204.69V122.32H206.45V122.32H208.22V122.32H209.98V62.11H211.75V62.11H213.51V62.11H215.27V62.11H217.04V62.11H218.8V62.11H220.57V62.11H222.33V75.78H224.1V75.78H225.86V75.78H227.63V75.78H229.39V75.78H231.16V75.78H232.92V75.78H234.68V13.7H236.45V13.7H238.21V13.7H239.98V13.7H241.74V13.7H243.51V13.7H245.27V13.7H247.04V89.69H248.8V89.69H250.57V89.69H252.33V89.69H254.09V89.69H255.86V89.69H257.62V89.69H259.39V89.69H261.15V89.69H262.92V89.69H264.68V89.69H266.45V89.69H268.21V89.69H269.98V89.69H271.74V13.7H273.5V13.7H275.27V13.7H277.03V13.7H278.8V13.7H280.56V13.7H282.33V13.7H284.09V63.93H285.86V63.93H287.62V63.93H289.39V63.93H291.15V63.93H292.91V63.93H294.68V63.93H296.44V70.99H298.21V70.99H299.97V70.99H301.74V70.99H303.5V70.99H305.27V70.99H307.03V70.99H308.8V126.38H310.56V126.38H312.32V126.38H314.09V126.38H315.85V126.38H317.62V126.38H319.38V126.38H321.15V126.38H322.91V126.38H324.68V126.38H326.44V126.38H328.2V126.38H329.97V126.38H331.73V126.38H333.5V178.61H335.26V178.61H337.03V178.61H338.79V178.61H340.56V178.61H342.32V178.61H344.09V178.61H345.85V13.7H347.61V13.7H349.38V13.7H351.14V13.7H352.91V13.7H354.67V13.7H356.44V13.7H358.2V13.7H359.97V13.7H361.73V13.7H363.5V13.7H365.26V13.7H367.02V13.7H368.79V13.7H370.55V13.7H372.32V13.7H374.08V13.7H375.85V13.7H377.61V13.7H379.38V13.7H381.14V13.7H382.91V274H384.67V274H386.43V274H388.2V274H389.96V274H391.73V274H393.49V274H395.26V219.21H397.02V219.21H398.79V219.21H400.55V219.21H402.32V219.21H404.08V219.21H405.84V219.21H407.61V13.7H409.37V13.7H411.14V13.7H412.9V13.7H414.67V13.7H416.43V13.7H418.2V13.7H419.96V13.7H421.73V13.7H423.49V13.7H425.25V13.7H427.02V13.7H428.78V13.7H430.55V13.7H432.31V142.78H434.08V142.78H435.84V142.78H437.61V142.78H439.37V142.78H441.14V142.78H442.9V142.78H444.66V142.78H446.43V142.78H448.19V142.78H449.96V142.78H451.72V142.78H453.49V142.78H455.25V142.78H457.02V13.7H458.78V13.7H460.55V13.7H462.31V13.7H464.07V13.7H465.84V13.7H467.6V13.7H469.37V13.7H471.13V13.7H472.9V13.7H474.66V13.7H476.43V13.7H478.19V13.7H479.96V13.7H481.72V130.84H483.48V130.84H485.25V130.84H487.01V130.84H488.78V130.84H490.54V130.84H492.31V130.84H494.07V13.7H495.84V13.7H497.6V13.7H499.37V13.7H501.13V13.7H502.89V13.7H504.66V13.7H506.42V13.7H508.19V13.7H509.95V13.7H511.72V13.7H513.48V13.7H515.25V13.7H517.01V13.7H518.78V13.7H520.54V13.7H522.3V13.7H524.07V13.7H525.83V13.7H527.6V13.7H529.36V13.7H531.13V13.7H532.89V13.7H534.66V13.7H536.42V13.7H538.19V13.7H539.95V13.7H541.71V13.7H543.48V100.59H545.24V100.59H547.01V100.59H548.77V100.59H550.54V100.59H552.3V100.59H554.07V100.59H555.83V126.34H557.6V126.34H559.36V126.34H561.12V126.34H562.89V126.34H564.65V126.34H566.42V126.34H568.18V13.7H569.95V13.7H571.71V13.7H573.48V13.7H575.24V13.7H577.01V13.7H578.77V13.7H580.53V13.7H582.3V13.7H584.06V13.7H585.83V13.7H587.59V13.7H589.36V13.7H591.12V13.7H592.89V13.7H594.65V13.7H596.42V13.7H598.18V13.7H599.94V13.7H601.71V13.7H603.47V13.7H605.24V274H607V274H608.77V274H610.53V274H612.3V274H614.06V274H615.83V274H617.59V187.29H619.35V187.29H621.12V187.29H622.88V187.29H624.65V187.29H626.41V187.29H628.18V187.29H629.94V274H631.71V274H633.47V274H635.24V274H637V274L637,274V274H635.24V274H633.47V274H631.71V274H629.94V187.29H628.18V187.29H626.41V187.29H624.65V187.29H622.88V187.29H621.12V187.29H619.35V187.29H617.59V274H615.83V274H614.06V274H612.3V274H610.53V274H608.77V274H607V274H605.24V274H603.47V274H601.71V274H599.94V274H598.18V274H596.42V274H594.65V274H592.89V274H591.12V274H589.36V274H587.59V274H585.83V274H584.06V274H582.3V274H580.53V274H578.77V274H577.01V274H575.24V274H573.48V274H571.71V274H569.95V274H568.18V201.6H566.42V201.6H564.65V201.6H562.89V201.6H561.12V201.6H559.36V201.6H557.6V201.6H555.83V158.22H554.07V158.22H552.3V158.22H550.54V158.22H548.77V158.22H547.01V158.22H545.24V158.22H543.48V13.7H541.71V13.7H539.95V13.7H538.19V13.7H536.42V13.7H534.66V13.7H532.89V13.7H531.13V13.7H529.36V13.7H527.6V13.7H525.83V13.7H524.07V13.7H522.3V13.7H520.54V13.7H518.78V13.7H517.01V13.7H515.25V13.7H513.48V13.7H511.72V13.7H509.95V13.7H508.19V13.7H506.42V13.7H504.66V13.7H502.89V13.7H501.13V13.7H499.37V13.7H497.6V13.7H495.84V13.7H494.07V274H492.31V274H490.54V274H488.78V274H487.01V274H485.25V274H483.48V274H481.72V13.7H479.96V13.7H478.19V13.7H476.43V13.7H474.66V13.7H472.9V13.7H471.13V13.7H469.37V13.7H467.6V13.7H465.84V13.7H464.07V13.7H462.31V13.7H460.55V13.7H458.78V13.7H457.02V157.65H455.25V157.65H453.49V157.65H451.72V157.65H449.96V157.65H448.19V157.65H446.43V157.65H444.66V157.65H442.9V157.65H441.14V157.65H439.37V157.65H437.61V157.65H435.84V157.65H434.08V157.65H432.31V110.71H430.55V110.71H428.78V110.71H427.02V110.71H425.25V110.71H423.49V110.71H421.73V110.71H419.96V13.7H418.2V13.7H416.43V13.7H414.67V13.7H412.9V13.7H411.14V13.7H409.37V13.7H407.61V222.79H405.84V222.79H404.08V222.79H402.32V222.79H400.55V222.79H398.79V222.79H397.02V222.79H395.26V274H393.49V274H391.73V274H389.96V274H388.2V274H386.43V274H384.67V274H382.91V13.7H381.14V13.7H379.38V13.7H377.61V13.7H375.85V13.7H374.08V13.7H372.32V13.7H370.55V13.7H368.79V13.7H367.02V13.7H365.26V13.7H363.5V13.7H361.73V13.7H359.97V13.7H358.2V13.7H356.44V13.7H354.67V13.7H352.91V13.7H351.14V13.7H349.38V13.7H347.61V13.7H345.85V274H344.09V274H342.32V274H340.56V274H338.79V274H337.03V274H335.26V274H333.5V148H331.73V148H329.97V148H328.2V148H326.44V148H324.68V148H322.91V148H321.15V148H319.38V148H317.62V148H315.85V148H314.09V148H312.32V148H310.56V148H308.8V70.99H307.03V70.99H305.27V70.99H303.5V70.99H301.74V70.99H299.97V70.99H298.21V70.99H296.44V63.93H294.68V63.93H292.91V63.93H291.15V63.93H289.39V63.93H287.62V63.93H285.86V63.93H284.09V13.7H282.33V13.7H280.56V13.7H278.8V13.7H277.03V13.7H275.27V13.7H273.5V13.7H271.74V117.5H269.98V117.5H268.21V117.5H266.45V117.5H264.68V117.5H262.92V117.5H261.15V117.5H259.39V117.5H257.62V117.5H255.86V117.5H254.09V117.5H252.33V117.5H250.57V117.5H248.8V117.5H247.04V274H245.27V274H243.51V274H241.74V274H239.98V274H238.21V274H236.45V274H234.68V160.94H232.92V160.94H231.16V160.94H229.39V160.94H227.63V160.94H225.86V160.94H224.1V160.94H222.33V62.11H220.57V62.11H218.8V62.11H217.04V62.11H215.27V62.11H213.51V62.11H211.75V62.11H209.98V187.48H208.22V187.48H206.45V187.48H204.69V187.48H202.92V187.48H201.16V187.48H199.39V187.48H197.63V187.48H195.86V187.48H194.1V187.48H192.34V187.48H190.57V187.48H188.81V187.48H187.04V187.48H185.28V187.48H183.51V187.48H181.75V187.48H179.98V187.48H178.22V187.48H176.45V187.48H174.69V187.48H172.93V274H171.16V274H169.4V274H167.63V274H165.87V274H164.1V274H162.34V274H160.57V274H158.81V274H157.04V274H155.28V274H153.52V274H151.75V274H149.99V274H148.22V175.31H146.46V175.31H144.69V175.31H142.93V175.31H141.16V175.31H139.4V175.31H137.63V175.31H135.87V175.31H134.11V175.31H132.34V175.31H130.58V175.31H128.81V175.31H127.05V175.31H125.28V175.31H123.52V133.97H121.75V133.97H119.99V133.97H118.22V133.97H116.46V133.97H114.7V133.97H112.93V133.97H111.17V210.78H109.4V210.78H107.64V210.78H105.87V210.78H104.11V210.78H102.34V210.78H100.58V210.78H98.81V158.92H97.05V158.92H95.29V158.92H93.52V158.92H91.76V158.92H89.99V158.92H88.23V158.92H86.46V153.01H84.7V153.01H82.93V153.01H81.17V153.01H79.4V153.01H77.64V153.01H75.88V153.01H74.11V135.38H72.35V135.38H70.58V135.38H68.82V135.38H67.05V135.38H65.29V135.38H63.52V135.38H61.76V115.22H59.99V115.22H58.23V115.22H56.47V115.22H54.7V115.22H52.94V115.22H51.17V115.22H49.41V274H47.64V274H45.88V274H44.11V274H42.35V274H40.58V274H38.82V274H37.06V274H35.29V274H33.53V274H31.76V274H30V274H28.23V274H26.47V274H24.7V274H22.94V274H21.17V274H19.41V274H17.65V274H15.88V274H14.12V274H12.35V274H10.59V274H8.82V274H7.06V274H5.29V274H3.53V274H1.76V274H0Z" style="fill: rgb(44, 160, 44); fill-opacity: 0.8; stroke-width: 0;"/></g></g><g class="errorbars"/><g class="lines"><path class="js-line" d="M0,274H1.76V274H3.53V274H5.29V274H7.06V274H8.82V274H10.59V274H12.35V274H14.12V274H15.88V274H17.65V274H19.41V274H21.17V274H22.94V274H24.7V274H26.47V274H28.23V274H30V274H31.76V274H33.53V274H35.29V274H37.06V274H38.82V274H40.58V274H42.35V274H44.11V274H45.88V274H47.64V274H49.41V115.22H51.17V115.22H52.94V115.22H54.7V115.22H56.47V115.22H58.23V115.22H59.99V115.22H61.76V135.38H63.52V135.38H65.29V135.38H67.05V135.38H68.82V135.38H70.58V135.38H72.35V135.38H74.11V153.01H75.88V153.01H77.64V153.01H79.4V153.01H81.17V153.01H82.93V153.01H84.7V153.01H86.46V158.92H88.23V158.92H89.99V158.92H91.76V158.92H93.52V158.92H95.29V158.92H97.05V158.92H98.81V210.78H100.58V210.78H102.34V210.78H104.11V210.78H105.87V210.78H107.64V210.78H109.4V210.78H111.17V133.97H112.93V133.97H114.7V133.97H116.46V133.97H118.22V133.97H119.99V133.97H121.75V133.97H123.52V175.31H125.28V175.31H127.05V175.31H128.81V175.31H130.58V175.31H132.34V175.31H134.11V175.31H135.87V175.31H137.63V175.31H139.4V175.31H141.16V175.31H142.93V175.31H144.69V175.31H146.46V175.31H148.22V274H149.99V274H151.75V274H153.52V274H155.28V274H157.04V274H158.81V274H160.57V274H162.34V274H164.1V274H165.87V274H167.63V274H169.4V274H171.16V274H172.93V187.48H174.69V187.48H176.45V187.48H178.22V187.48H179.98V187.48H181.75V187.48H183.51V187.48H185.28V187.48H187.04V187.48H188.81V187.48H190.57V187.48H192.34V187.48H194.1V187.48H195.86V187.48H197.63V187.48H199.39V187.48H201.16V187.48H202.92V187.48H204.69V187.48H206.45V187.48H208.22V187.48H209.98V62.11H211.75V62.11H213.51V62.11H215.27V62.11H217.04V62.11H218.8V62.11H220.57V62.11H222.33V160.94H224.1V160.94H225.86V160.94H227.63V160.94H229.39V160.94H231.16V160.94H232.92V160.94H234.68V274H236.45V274H238.21V274H239.98V274H241.74V274H243.51V274H245.27V274H247.04V117.5H248.8V117.5H250.57V117.5H252.33V117.5H254.09V117.5H255.86V117.5H257.62V117.5H259.39V117.5H261.15V117.5H262.92V117.5H264.68V117.5H266.45V117.5H268.21V117.5H269.98V117.5H271.74V13.7H273.5V13.7H275.27V13.7H277.03V13.7H278.8V13.7H280.56V13.7H282.33V13.7H284.09V63.93H285.86V63.93H287.62V63.93H289.39V63.93H291.15V63.93H292.91V63.93H294.68V63.93H296.44V70.99H298.21V70.99H299.97V70.99H301.74V70.99H303.5V70.99H305.27V70.99H307.03V70.99H308.8V148H310.56V148H312.32V148H314.09V148H315.85V148H317.62V148H319.38V148H321.15V148H322.91V148H324.68V148H326.44V148H328.2V148H329.97V148H331.73V148H333.5V274H335.26V274H337.03V274H338.79V274H340.56V274H342.32V274H344.09V274H345.85V13.7H347.61V13.7H349.38V13.7H351.14V13.7H352.91V13.7H354.67V13.7H356.44V13.7H358.2V13.7H359.97V13.7H361.73V13.7H363.5V13.7H365.26V13.7H367.02V13.7H368.79V13.7H370.55V13.7H372.32V13.7H374.08V13.7H375.85V13.7H377.61V13.7H379.38V13.7H381.14V13.7H382.91V274H384.67V274H386.43V274H388.2V274H389.96V274H391.73V274H393.49V274H395.26V222.79H397.02V222.79H398.79V222.79H400.55V222.79H402.32V222.79H404.08V222.79H405.84V222.79H407.61V13.7H409.37V13.7H411.14V13.7H412.9V13.7H414.67V13.7H416.43V13.7H418.2V13.7H419.96V110.71H421.73V110.71H423.49V110.71H425.25V110.71H427.02V110.71H428.78V110.71H430.55V110.71H432.31V157.65H434.08V157.65H435.84V157.65H437.61V157.65H439.37V157.65H441.14V157.65H442.9V157.65H444.66V157.65H446.43V157.65H448.19V157.65H449.96V157.65H451.72V157.65H453.49V157.65H455.25V157.65H457.02V13.7H458.78V13.7H460.55V13.7H462.31V13.7H464.07V13.7H465.84V13.7H467.6V13.7H469.37V13.7H471.13V13.7H472.9V13.7H474.66V13.7H476.43V13.7H478.19V13.7H479.96V13.7H481.72V274H483.48V274H485.25V274H487.01V274H488.78V274H490.54V274H492.31V274H494.07V13.7H495.84V13.7H497.6V13.7H499.37V13.7H501.13V13.7H502.89V13.7H504.66V13.7H506.42V13.7H508.19V13.7H509.95V13.7H511.72V13.7H513.48V13.7H515.25V13.7H517.01V13.7H518.78V13.7H520.54V13.7H522.3V13.7H524.07V13.7H525.83V13.7H527.6V13.7H529.36V13.7H531.13V13.7H532.89V13.7H534.66V13.7H536.42V13.7H538.19V13.7H539.95V13.7H541.71V13.7H543.48V158.22H545.24V158.22H547.01V158.22H548.77V158.22H550.54V158.22H552.3V158.22H554.07V158.22H555.83V201.6H557.6V201.6H559.36V201.6H561.12V201.6H562.89V201.6H564.65V201.6H566.42V201.6H568.18V274H569.95V274H571.71V274H573.48V274H575.24V274H577.01V274H578.77V274H580.53V274H582.3V274H584.06V274H585.83V274H587.59V274H589.36V274H591.12V274H592.89V274H594.65V274H596.42V274H598.18V274H599.94V274H601.71V274H603.47V274H605.24V274H607V274H608.77V274H610.53V274H612.3V274H614.06V274H615.83V274H617.59V187.29H619.35V187.29H621.12V187.29H622.88V187.29H624.65V187.29H626.41V187.29H628.18V187.29H629.94V274H631.71V274H633.47V274H635.24V274H637V274" style="vector-effect: none; fill: none; stroke: rgb(255, 127, 14); stroke-opacity: 1; stroke-width: 0px; opacity: 1;"/></g><g class="points"/><g class="text"/></g><g class="trace scatter tracea06c7738-d3c9-4077-9ffb-1c5c206345a0" style="stroke-miterlimit: 2;"><g class="fills"><g><path class="js-fill" d="M0,274H1.76V274H3.53V274H5.29V274H7.06V274H8.82V274H10.59V274H12.35V274H14.12V274H15.88V274H17.65V274H19.41V274H21.17V274H22.94V274H24.7V274H26.47V274H28.23V274H30V274H31.76V274H33.53V274H35.29V274H37.06V274H38.82V274H40.58V274H42.35V274H44.11V274H45.88V274H47.64V274H49.41V18.34H51.17V18.34H52.94V18.34H54.7V18.34H56.47V18.34H58.23V18.34H59.99V18.34H61.76V75.9H63.52V75.9H65.29V75.9H67.05V75.9H68.82V75.9H70.58V75.9H72.35V75.9H74.11V72.03H75.88V72.03H77.64V72.03H79.4V72.03H81.17V72.03H82.93V72.03H84.7V72.03H86.46V30.01H88.23V30.01H89.99V30.01H91.76V30.01H93.52V30.01H95.29V30.01H97.05V30.01H98.81V77.76H100.58V77.76H102.34V77.76H104.11V77.76H105.87V77.76H107.64V77.76H109.4V77.76H111.17V53.63H112.93V53.63H114.7V53.63H116.46V53.63H118.22V53.63H119.99V53.63H121.75V53.63H123.52V67.02H125.28V67.02H127.05V67.02H128.81V67.02H130.58V67.02H132.34V67.02H134.11V67.02H135.87V67.02H137.63V67.02H139.4V67.02H141.16V67.02H142.93V67.02H144.69V67.02H146.46V67.02H148.22V13.7H149.99V13.7H151.75V13.7H153.52V13.7H155.28V13.7H157.04V13.7H158.81V13.7H160.57V13.7H162.34V13.7H164.1V13.7H165.87V13.7H167.63V13.7H169.4V13.7H171.16V13.7H172.93V56.18H174.69V56.18H176.45V56.18H178.22V56.18H179.98V56.18H181.75V56.18H183.51V56.18H185.28V56.18H187.04V56.18H188.81V56.18H190.57V56.18H192.34V56.18H194.1V56.18H195.86V56.18H197.63V56.18H199.39V56.18H201.16V56.18H202.92V56.18H204.69V56.18H206.45V56.18H208.22V56.18H209.98V13.7H211.75V13.7H213.51V13.7H215.27V13.7H217.04V13.7H218.8V13.7H220.57V13.7H222.33V44.9H224.1V44.9H225.86V44.9H227.63V44.9H229.39V44.9H231.16V44.9H232.92V44.9H234.68V13.7H236.45V13.7H238.21V13.7H239.98V13.7H241.74V13.7H243.51V13.7H245.27V13.7H247.04V54.96H248.8V54.96H250.57V54.96H252.33V54.96H254.09V54.96H255.86V54.96H257.62V54.96H259.39V54.96H261.15V54.96H262.92V54.96H264.68V54.96H266.45V54.96H268.21V54.96H269.98V54.96H271.74V13.7H273.5V13.7H275.27V13.7H277.03V13.7H278.8V13.7H280.56V13.7H282.33V13.7H284.09V33.2H285.86V33.2H287.62V33.2H289.39V33.2H291.15V33.2H292.91V33.2H294.68V33.2H296.44V13.7H298.21V13.7H299.97V13.7H301.74V13.7H303.5V13.7H305.27V13.7H307.03V13.7H308.8V68.66H310.56V68.66H312.32V68.66H314.09V68.66H315.85V68.66H317.62V68.66H319.38V68.66H321.15V68.66H322.91V68.66H324.68V68.66H326.44V68.66H328.2V68.66H329.97V68.66H331.73V68.66H333.5V13.7H335.26V13.7H337.03V13.7H338.79V13.7H340.56V13.7H342.32V13.7H344.09V13.7H345.85V13.7H347.61V13.7H349.38V13.7H351.14V13.7H352.91V13.7H354.67V13.7H356.44V13.7H358.2V13.7H359.97V13.7H361.73V13.7H363.5V13.7H365.26V13.7H367.02V13.7H368.79V13.7H370.55V13.7H372.32V13.7H374.08V13.7H375.85V13.7H377.61V13.7H379.38V13.7H381.14V13.7H382.91V274H384.67V274H386.43V274H388.2V274H389.96V274H391.73V274H393.49V274H395.26V85.16H397.02V85.16H398.79V85.16H400.55V85.16H402.32V85.16H404.08V85.16H405.84V85.16H407.61V13.7H409.37V13.7H411.14V13.7H412.9V13.7H414.67V13.7H416.43V13.7H418.2V13.7H419.96V13.7H421.73V13.7H423.49V13.7H425.25V13.7H427.02V13.7H428.78V13.7H430.55V13.7H432.31V53.07H434.08V53.07H435.84V53.07H437.61V53.07H439.37V53.07H441.14V53.07H442.9V53.07H444.66V53.07H446.43V53.07H448.19V53.07H449.96V53.07H451.72V53.07H453.49V53.07H455.25V53.07H457.02V13.7H458.78V13.7H460.55V13.7H462.31V13.7H464.07V13.7H465.84V13.7H467.6V13.7H469.37V13.7H471.13V13.7H472.9V13.7H474.66V13.7H476.43V13.7H478.19V13.7H479.96V13.7H481.72V130.84H483.48V130.84H485.25V130.84H487.01V130.84H488.78V130.84H490.54V130.84H492.31V130.84H494.07V13.7H495.84V13.7H497.6V13.7H499.37V13.7H501.13V13.7H502.89V13.7H504.66V13.7H506.42V13.7H508.19V13.7H509.95V13.7H511.72V13.7H513.48V13.7H515.25V13.7H517.01V13.7H518.78V13.7H520.54V13.7H522.3V13.7H524.07V13.7H525.83V13.7H527.6V13.7H529.36V13.7H531.13V13.7H532.89V13.7H534.66V13.7H536.42V13.7H538.19V13.7H539.95V13.7H541.71V13.7H543.48V49.3H545.24V49.3H547.01V49.3H548.77V49.3H550.54V49.3H552.3V49.3H554.07V49.3H555.83V13.7H557.6V13.7H559.36V13.7H561.12V13.7H562.89V13.7H564.65V13.7H566.42V13.7H568.18V13.7H569.95V13.7H571.71V13.7H573.48V13.7H575.24V13.7H577.01V13.7H578.77V13.7H580.53V13.7H582.3V13.7H584.06V13.7H585.83V13.7H587.59V13.7H589.36V13.7H591.12V13.7H592.89V13.7H594.65V13.7H596.42V13.7H598.18V13.7H599.94V13.7H601.71V13.7H603.47V13.7H605.24V274H607V274H608.77V274H610.53V274H612.3V274H614.06V274H615.83V274H617.59V165.4H619.35V165.4H621.12V165.4H622.88V165.4H624.65V165.4H626.41V165.4H628.18V165.4H629.94V274H631.71V274H633.47V274H635.24V274H637V274L637,274V274H635.24V274H633.47V274H631.71V274H629.94V187.29H628.18V187.29H626.41V187.29H624.65V187.29H622.88V187.29H621.12V187.29H619.35V187.29H617.59V274H615.83V274H614.06V274H612.3V274H610.53V274H608.77V274H607V274H605.24V13.7H603.47V13.7H601.71V13.7H599.94V13.7H598.18V13.7H596.42V13.7H594.65V13.7H592.89V13.7H591.12V13.7H589.36V13.7H587.59V13.7H585.83V13.7H584.06V13.7H582.3V13.7H580.53V13.7H578.77V13.7H577.01V13.7H575.24V13.7H573.48V13.7H571.71V13.7H569.95V13.7H568.18V126.34H566.42V126.34H564.65V126.34H562.89V126.34H561.12V126.34H559.36V126.34H557.6V126.34H555.83V100.59H554.07V100.59H552.3V100.59H550.54V100.59H548.77V100.59H547.01V100.59H545.24V100.59H543.48V13.7H541.71V13.7H539.95V13.7H538.19V13.7H536.42V13.7H534.66V13.7H532.89V13.7H531.13V13.7H529.36V13.7H527.6V13.7H525.83V13.7H524.07V13.7H522.3V13.7H520.54V13.7H518.78V13.7H517.01V13.7H515.25V13.7H513.48V13.7H511.72V13.7H509.95V13.7H508.19V13.7H506.42V13.7H504.66V13.7H502.89V13.7H501.13V13.7H499.37V13.7H497.6V13.7H495.84V13.7H494.07V130.84H492.31V130.84H490.54V130.84H488.78V130.84H487.01V130.84H485.25V130.84H483.48V130.84H481.72V13.7H479.96V13.7H478.19V13.7H476.43V13.7H474.66V13.7H472.9V13.7H471.13V13.7H469.37V13.7H467.6V13.7H465.84V13.7H464.07V13.7H462.31V13.7H460.55V13.7H458.78V13.7H457.02V142.78H455.25V142.78H453.49V142.78H451.72V142.78H449.96V142.78H448.19V142.78H446.43V142.78H444.66V142.78H442.9V142.78H441.14V142.78H439.37V142.78H437.61V142.78H435.84V142.78H434.08V142.78H432.31V13.7H430.55V13.7H428.78V13.7H427.02V13.7H425.25V13.7H423.49V13.7H421.73V13.7H419.96V13.7H418.2V13.7H416.43V13.7H414.67V13.7H412.9V13.7H411.14V13.7H409.37V13.7H407.61V219.21H405.84V219.21H404.08V219.21H402.32V219.21H400.55V219.21H398.79V219.21H397.02V219.21H395.26V274H393.49V274H391.73V274H389.96V274H388.2V274H386.43V274H384.67V274H382.91V13.7H381.14V13.7H379.38V13.7H377.61V13.7H375.85V13.7H374.08V13.7H372.32V13.7H370.55V13.7H368.79V13.7H367.02V13.7H365.26V13.7H363.5V13.7H361.73V13.7H359.97V13.7H358.2V13.7H356.44V13.7H354.67V13.7H352.91V13.7H351.14V13.7H349.38V13.7H347.61V13.7H345.85V178.61H344.09V178.61H342.32V178.61H340.56V178.61H338.79V178.61H337.03V178.61H335.26V178.61H333.5V126.38H331.73V126.38H329.97V126.38H328.2V126.38H326.44V126.38H324.68V126.38H322.91V126.38H321.15V126.38H319.38V126.38H317.62V126.38H315.85V126.38H314.09V126.38H312.32V126.38H310.56V126.38H308.8V70.99H307.03V70.99H305.27V70.99H303.5V70.99H301.74V70.99H299.97V70.99H298.21V70.99H296.44V63.93H294.68V63.93H292.91V63.93H291.15V63.93H289.39V63.93H287.62V63.93H285.86V63.93H284.09V13.7H282.33V13.7H280.56V13.7H278.8V13.7H277.03V13.7H275.27V13.7H273.5V13.7H271.74V89.69H269.98V89.69H268.21V89.69H266.45V89.69H264.68V89.69H262.92V89.69H261.15V89.69H259.39V89.69H257.62V89.69H255.86V89.69H254.09V89.69H252.33V89.69H250.57V89.69H248.8V89.69H247.04V13.7H245.27V13.7H243.51V13.7H241.74V13.7H239.98V13.7H238.21V13.7H236.45V13.7H234.68V75.78H232.92V75.78H231.16V75.78H229.39V75.78H227.63V75.78H225.86V75.78H224.1V75.78H222.33V62.11H220.57V62.11H218.8V62.11H217.04V62.11H215.27V62.11H213.51V62.11H211.75V62.11H209.98V122.32H208.22V122.32H206.45V122.32H204.69V122.32H202.92V122.32H201.16V122.32H199.39V122.32H197.63V122.32H195.86V122.32H194.1V122.32H192.34V122.32H190.57V122.32H188.81V122.32H187.04V122.32H185.28V122.32H183.51V122.32H181.75V122.32H179.98V122.32H178.22V122.32H176.45V122.32H174.69V122.32H172.93V13.7H171.16V13.7H169.4V13.7H167.63V13.7H165.87V13.7H164.1V13.7H162.34V13.7H160.57V13.7H158.81V13.7H157.04V13.7H155.28V13.7H153.52V13.7H151.75V13.7H149.99V13.7H148.22V126.17H146.46V126.17H144.69V126.17H142.93V126.17H141.16V126.17H139.4V126.17H137.63V126.17H135.87V126.17H134.11V126.17H132.34V126.17H130.58V126.17H128.81V126.17H127.05V126.17H125.28V126.17H123.52V101.41H121.75V101.41H119.99V101.41H118.22V101.41H116.46V101.41H114.7V101.41H112.93V101.41H111.17V177.73H109.4V177.73H107.64V177.73H105.87V177.73H104.11V177.73H102.34V177.73H100.58V177.73H98.81V133.54H97.05V133.54H95.29V133.54H93.52V133.54H91.76V133.54H89.99V133.54H88.23V133.54H86.46V124.91H84.7V124.91H82.93V124.91H81.17V124.91H79.4V124.91H77.64V124.91H75.88V124.91H74.11V135.38H72.35V135.38H70.58V135.38H68.82V135.38H67.05V135.38H65.29V135.38H63.52V135.38H61.76V18.34H59.99V18.34H58.23V18.34H56.47V18.34H54.7V18.34H52.94V18.34H51.17V18.34H49.41V274H47.64V274H45.88V274H44.11V274H42.35V274H40.58V274H38.82V274H37.06V274H35.29V274H33.53V274H31.76V274H30V274H28.23V274H26.47V274H24.7V274H22.94V274H21.17V274H19.41V274H17.65V274H15.88V274H14.12V274H12.35V274H10.59V274H8.82V274H7.06V274H5.29V274H3.53V274H1.76V274H0Z" style="fill: rgb(220, 57, 18); fill-opacity: 0.8; stroke-width: 0;"/></g></g><g class="errorbars"/><g class="lines"><path class="js-line" d="M0,274H1.76V274H3.53V274H5.29V274H7.06V274H8.82V274H10.59V274H12.35V274H14.12V274H15.88V274H17.65V274H19.41V274H21.17V274H22.94V274H24.7V274H26.47V274H28.23V274H30V274H31.76V274H33.53V274H35.29V274H37.06V274H38.82V274H40.58V274H42.35V274H44.11V274H45.88V274H47.64V274H49.41V18.34H51.17V18.34H52.94V18.34H54.7V18.34H56.47V18.34H58.23V18.34H59.99V18.34H61.76V135.38H63.52V135.38H65.29V135.38H67.05V135.38H68.82V135.38H70.58V135.38H72.35V135.38H74.11V124.91H75.88V124.91H77.64V124.91H79.4V124.91H81.17V124.91H82.93V124.91H84.7V124.91H86.46V133.54H88.23V133.54H89.99V133.54H91.76V133.54H93.52V133.54H95.29V133.54H97.05V133.54H98.81V177.73H100.58V177.73H102.34V177.73H104.11V177.73H105.87V177.73H107.64V177.73H109.4V177.73H111.17V101.41H112.93V101.41H114.7V101.41H116.46V101.41H118.22V101.41H119.99V101.41H121.75V101.41H123.52V126.17H125.28V126.17H127.05V126.17H128.81V126.17H130.58V126.17H132.34V126.17H134.11V126.17H135.87V126.17H137.63V126.17H139.4V126.17H141.16V126.17H142.93V126.17H144.69V126.17H146.46V126.17H148.22V13.7H149.99V13.7H151.75V13.7H153.52V13.7H155.28V13.7H157.04V13.7H158.81V13.7H160.57V13.7H162.34V13.7H164.1V13.7H165.87V13.7H167.63V13.7H169.4V13.7H171.16V13.7H172.93V122.32H174.69V122.32H176.45V122.32H178.22V122.32H179.98V122.32H181.75V122.32H183.51V122.32H185.28V122.32H187.04V122.32H188.81V122.32H190.57V122.32H192.34V122.32H194.1V122.32H195.86V122.32H197.63V122.32H199.39V122.32H201.16V122.32H202.92V122.32H204.69V122.32H206.45V122.32H208.22V122.32H209.98V62.11H211.75V62.11H213.51V62.11H215.27V62.11H217.04V62.11H218.8V62.11H220.57V62.11H222.33V75.78H224.1V75.78H225.86V75.78H227.63V75.78H229.39V75.78H231.16V75.78H232.92V75.78H234.68V13.7H236.45V13.7H238.21V13.7H239.98V13.7H241.74V13.7H243.51V13.7H245.27V13.7H247.04V89.69H248.8V89.69H250.57V89.69H252.33V89.69H254.09V89.69H255.86V89.69H257.62V89.69H259.39V89.69H261.15V89.69H262.92V89.69H264.68V89.69H266.45V89.69H268.21V89.69H269.98V89.69H271.74V13.7H273.5V13.7H275.27V13.7H277.03V13.7H278.8V13.7H280.56V13.7H282.33V13.7H284.09V63.93H285.86V63.93H287.62V63.93H289.39V63.93H291.15V63.93H292.91V63.93H294.68V63.93H296.44V70.99H298.21V70.99H299.97V70.99H301.74V70.99H303.5V70.99H305.27V70.99H307.03V70.99H308.8V126.38H310.56V126.38H312.32V126.38H314.09V126.38H315.85V126.38H317.62V126.38H319.38V126.38H321.15V126.38H322.91V126.38H324.68V126.38H326.44V126.38H328.2V126.38H329.97V126.38H331.73V126.38H333.5V178.61H335.26V178.61H337.03V178.61H338.79V178.61H340.56V178.61H342.32V178.61H344.09V178.61H345.85V13.7H347.61V13.7H349.38V13.7H351.14V13.7H352.91V13.7H354.67V13.7H356.44V13.7H358.2V13.7H359.97V13.7H361.73V13.7H363.5V13.7H365.26V13.7H367.02V13.7H368.79V13.7H370.55V13.7H372.32V13.7H374.08V13.7H375.85V13.7H377.61V13.7H379.38V13.7H381.14V13.7H382.91V274H384.67V274H386.43V274H388.2V274H389.96V274H391.73V274H393.49V274H395.26V219.21H397.02V219.21H398.79V219.21H400.55V219.21H402.32V219.21H404.08V219.21H405.84V219.21H407.61V13.7H409.37V13.7H411.14V13.7H412.9V13.7H414.67V13.7H416.43V13.7H418.2V13.7H419.96V13.7H421.73V13.7H423.49V13.7H425.25V13.7H427.02V13.7H428.78V13.7H430.55V13.7H432.31V142.78H434.08V142.78H435.84V142.78H437.61V142.78H439.37V142.78H441.14V142.78H442.9V142.78H444.66V142.78H446.43V142.78H448.19V142.78H449.96V142.78H451.72V142.78H453.49V142.78H455.25V142.78H457.02V13.7H458.78V13.7H460.55V13.7H462.31V13.7H464.07V13.7H465.84V13.7H467.6V13.7H469.37V13.7H471.13V13.7H472.9V13.7H474.66V13.7H476.43V13.7H478.19V13.7H479.96V13.7H481.72V130.84H483.48V130.84H485.25V130.84H487.01V130.84H488.78V130.84H490.54V130.84H492.31V130.84H494.07V13.7H495.84V13.7H497.6V13.7H499.37V13.7H501.13V13.7H502.89V13.7H504.66V13.7H506.42V13.7H508.19V13.7H509.95V13.7H511.72V13.7H513.48V13.7H515.25V13.7H517.01V13.7H518.78V13.7H520.54V13.7H522.3V13.7H524.07V13.7H525.83V13.7H527.6V13.7H529.36V13.7H531.13V13.7H532.89V13.7H534.66V13.7H536.42V13.7H538.19V13.7H539.95V13.7H541.71V13.7H543.48V100.59H545.24V100.59H547.01V100.59H548.77V100.59H550.54V100.59H552.3V100.59H554.07V100.59H555.83V126.34H557.6V126.34H559.36V126.34H561.12V126.34H562.89V126.34H564.65V126.34H566.42V126.34H568.18V13.7H569.95V13.7H571.71V13.7H573.48V13.7H575.24V13.7H577.01V13.7H578.77V13.7H580.53V13.7H582.3V13.7H584.06V13.7H585.83V13.7H587.59V13.7H589.36V13.7H591.12V13.7H592.89V13.7H594.65V13.7H596.42V13.7H598.18V13.7H599.94V13.7H601.71V13.7H603.47V13.7H605.24V274H607V274H608.77V274H610.53V274H612.3V274H614.06V274H615.83V274H617.59V187.29H619.35V187.29H621.12V187.29H622.88V187.29H624.65V187.29H626.41V187.29H628.18V187.29H629.94V274H631.71V274H633.47V274H635.24V274H637V274" style="vector-effect: none; fill: none; stroke: rgb(44, 160, 44); stroke-opacity: 1; stroke-width: 0px; opacity: 1;"/></g><g class="points"/><g class="text"/></g><g class="trace scatter traceb4d28947-1fc8-4850-a01f-4e922be458c8" style="stroke-miterlimit: 2;"><g class="fills"><g><path class="js-fill" d="M0,274H1.76V274H3.53V274H5.29V274H7.06V274H8.82V274H10.59V274H12.35V274H14.12V274H15.88V274H17.65V274H19.41V274H21.17V274H22.94V274H24.7V274H26.47V274H28.23V274H30V274H31.76V274H33.53V274H35.29V274H37.06V274H38.82V274H40.58V274H42.35V274H44.11V274H45.88V274H47.64V274H49.41V13.7H51.17V13.7H52.94V13.7H54.7V13.7H56.47V13.7H58.23V13.7H59.99V13.7H61.76V13.7H63.52V13.7H65.29V13.7H67.05V13.7H68.82V13.7H70.58V13.7H72.35V13.7H74.11V13.7H75.88V13.7H77.64V13.7H79.4V13.7H81.17V13.7H82.93V13.7H84.7V13.7H86.46V13.7H88.23V13.7H89.99V13.7H91.76V13.7H93.52V13.7H95.29V13.7H97.05V13.7H98.81V13.7H100.58V13.7H102.34V13.7H104.11V13.7H105.87V13.7H107.64V13.7H109.4V13.7H111.17V13.7H112.93V13.7H114.7V13.7H116.46V13.7H118.22V13.7H119.99V13.7H121.75V13.7H123.52V13.7H125.28V13.7H127.05V13.7H128.81V13.7H130.58V13.7H132.34V13.7H134.11V13.7H135.87V13.7H137.63V13.7H139.4V13.7H141.16V13.7H142.93V13.7H144.69V13.7H146.46V13.7H148.22V13.7H149.99V13.7H151.75V13.7H153.52V13.7H155.28V13.7H157.04V13.7H158.81V13.7H160.57V13.7H162.34V13.7H164.1V13.7H165.87V13.7H167.63V13.7H169.4V13.7H171.16V13.7H172.93V13.7H174.69V13.7H176.45V13.7H178.22V13.7H179.98V13.7H181.75V13.7H183.51V13.7H185.28V13.7H187.04V13.7H188.81V13.7H190.57V13.7H192.34V13.7H194.1V13.7H195.86V13.7H197.63V13.7H199.39V13.7H201.16V13.7H202.92V13.7H204.69V13.7H206.45V13.7H208.22V13.7H209.98V13.7H211.75V13.7H213.51V13.7H215.27V13.7H217.04V13.7H218.8V13.7H220.57V13.7H222.33V13.7H224.1V13.7H225.86V13.7H227.63V13.7H229.39V13.7H231.16V13.7H232.92V13.7H234.68V13.7H236.45V13.7H238.21V13.7H239.98V13.7H241.74V13.7H243.51V13.7H245.27V13.7H247.04V13.7H248.8V13.7H250.57V13.7H252.33V13.7H254.09V13.7H255.86V13.7H257.62V13.7H259.39V13.7H261.15V13.7H262.92V13.7H264.68V13.7H266.45V13.7H268.21V13.7H269.98V13.7H271.74V13.7H273.5V13.7H275.27V13.7H277.03V13.7H278.8V13.7H280.56V13.7H282.33V13.7H284.09V13.7H285.86V13.7H287.62V13.7H289.39V13.7H291.15V13.7H292.91V13.7H294.68V13.7H296.44V13.7H298.21V13.7H299.97V13.7H301.74V13.7H303.5V13.7H305.27V13.7H307.03V13.7H308.8V13.7H310.56V13.7H312.32V13.7H314.09V13.7H315.85V13.7H317.62V13.7H319.38V13.7H321.15V13.7H322.91V13.7H324.68V13.7H326.44V13.7H328.2V13.7H329.97V13.7H331.73V13.7H333.5V13.7H335.26V13.7H337.03V13.7H338.79V13.7H340.56V13.7H342.32V13.7H344.09V13.7H345.85V13.7H347.61V13.7H349.38V13.7H351.14V13.7H352.91V13.7H354.67V13.7H356.44V13.7H358.2V13.7H359.97V13.7H361.73V13.7H363.5V13.7H365.26V13.7H367.02V13.7H368.79V13.7H370.55V13.7H372.32V13.7H374.08V13.7H375.85V13.7H377.61V13.7H379.38V13.7H381.14V13.7H382.91V13.7H384.67V13.7H386.43V13.7H388.2V13.7H389.96V13.7H391.73V13.7H393.49V13.7H395.26V13.7H397.02V13.7H398.79V13.7H400.55V13.7H402.32V13.7H404.08V13.7H405.84V13.7H407.61V13.7H409.37V13.7H411.14V13.7H412.9V13.7H414.67V13.7H416.43V13.7H418.2V13.7H419.96V13.7H421.73V13.7H423.49V13.7H425.25V13.7H427.02V13.7H428.78V13.7H430.55V13.7H432.31V13.7H434.08V13.7H435.84V13.7H437.61V13.7H439.37V13.7H441.14V13.7H442.9V13.7H444.66V13.7H446.43V13.7H448.19V13.7H449.96V13.7H451.72V13.7H453.49V13.7H455.25V13.7H457.02V13.7H458.78V13.7H460.55V13.7H462.31V13.7H464.07V13.7H465.84V13.7H467.6V13.7H469.37V13.7H471.13V13.7H472.9V13.7H474.66V13.7H476.43V13.7H478.19V13.7H479.96V13.7H481.72V13.7H483.48V13.7H485.25V13.7H487.01V13.7H488.78V13.7H490.54V13.7H492.31V13.7H494.07V13.7H495.84V13.7H497.6V13.7H499.37V13.7H501.13V13.7H502.89V13.7H504.66V13.7H506.42V13.7H508.19V13.7H509.95V13.7H511.72V13.7H513.48V13.7H515.25V13.7H517.01V13.7H518.78V13.7H520.54V13.7H522.3V13.7H524.07V13.7H525.83V13.7H527.6V13.7H529.36V13.7H531.13V13.7H532.89V13.7H534.66V13.7H536.42V13.7H538.19V13.7H539.95V13.7H541.71V13.7H543.48V13.7H545.24V13.7H547.01V13.7H548.77V13.7H550.54V13.7H552.3V13.7H554.07V13.7H555.83V13.7H557.6V13.7H559.36V13.7H561.12V13.7H562.89V13.7H564.65V13.7H566.42V13.7H568.18V13.7H569.95V13.7H571.71V13.7H573.48V13.7H575.24V13.7H577.01V13.7H578.77V13.7H580.53V13.7H582.3V13.7H584.06V13.7H585.83V13.7H587.59V13.7H589.36V13.7H591.12V13.7H592.89V13.7H594.65V13.7H596.42V13.7H598.18V13.7H599.94V13.7H601.71V13.7H603.47V13.7H605.24V13.7H607V13.7H608.77V13.7H610.53V13.7H612.3V13.7H614.06V13.7H615.83V13.7H617.59V13.7H619.35V13.7H621.12V13.7H622.88V13.7H624.65V13.7H626.41V13.7H628.18V13.7H629.94V13.7H631.71V13.7H633.47V13.7H635.24V13.7H637V13.7L637,274V274H635.24V274H633.47V274H631.71V274H629.94V165.4H628.18V165.4H626.41V165.4H624.65V165.4H622.88V165.4H621.12V165.4H619.35V165.4H617.59V274H615.83V274H614.06V274H612.3V274H610.53V274H608.77V274H607V274H605.24V13.7H603.47V13.7H601.71V13.7H599.94V13.7H598.18V13.7H596.42V13.7H594.65V13.7H592.89V13.7H591.12V13.7H589.36V13.7H587.59V13.7H585.83V13.7H584.06V13.7H582.3V13.7H580.53V13.7H578.77V13.7H577.01V13.7H575.24V13.7H573.48V13.7H571.71V13.7H569.95V13.7H568.18V13.7H566.42V13.7H564.65V13.7H562.89V13.7H561.12V13.7H559.36V13.7H557.6V13.7H555.83V49.3H554.07V49.3H552.3V49.3H550.54V49.3H548.77V49.3H547.01V49.3H545.24V49.3H543.48V13.7H541.71V13.7H539.95V13.7H538.19V13.7H536.42V13.7H534.66V13.7H532.89V13.7H531.13V13.7H529.36V13.7H527.6V13.7H525.83V13.7H524.07V13.7H522.3V13.7H520.54V13.7H518.78V13.7H517.01V13.7H515.25V13.7H513.48V13.7H511.72V13.7H509.95V13.7H508.19V13.7H506.42V13.7H504.66V13.7H502.89V13.7H501.13V13.7H499.37V13.7H497.6V13.7H495.84V13.7H494.07V130.84H492.31V130.84H490.54V130.84H488.78V130.84H487.01V130.84H485.25V130.84H483.48V130.84H481.72V13.7H479.96V13.7H478.19V13.7H476.43V13.7H474.66V13.7H472.9V13.7H471.13V13.7H469.37V13.7H467.6V13.7H465.84V13.7H464.07V13.7H462.31V13.7H460.55V13.7H458.78V13.7H457.02V53.07H455.25V53.07H453.49V53.07H451.72V53.07H449.96V53.07H448.19V53.07H446.43V53.07H444.66V53.07H442.9V53.07H441.14V53.07H439.37V53.07H437.61V53.07H435.84V53.07H434.08V53.07H432.31V13.7H430.55V13.7H428.78V13.7H427.02V13.7H425.25V13.7H423.49V13.7H421.73V13.7H419.96V13.7H418.2V13.7H416.43V13.7H414.67V13.7H412.9V13.7H411.14V13.7H409.37V13.7H407.61V85.16H405.84V85.16H404.08V85.16H402.32V85.16H400.55V85.16H398.79V85.16H397.02V85.16H395.26V274H393.49V274H391.73V274H389.96V274H388.2V274H386.43V274H384.67V274H382.91V13.7H381.14V13.7H379.38V13.7H377.61V13.7H375.85V13.7H374.08V13.7H372.32V13.7H370.55V13.7H368.79V13.7H367.02V13.7H365.26V13.7H363.5V13.7H361.73V13.7H359.97V13.7H358.2V13.7H356.44V13.7H354.67V13.7H352.91V13.7H351.14V13.7H349.38V13.7H347.61V13.7H345.85V13.7H344.09V13.7H342.32V13.7H340.56V13.7H338.79V13.7H337.03V13.7H335.26V13.7H333.5V68.66H331.73V68.66H329.97V68.66H328.2V68.66H326.44V68.66H324.68V68.66H322.91V68.66H321.15V68.66H319.38V68.66H317.62V68.66H315.85V68.66H314.09V68.66H312.32V68.66H310.56V68.66H308.8V13.7H307.03V13.7H305.27V13.7H303.5V13.7H301.74V13.7H299.97V13.7H298.21V13.7H296.44V33.2H294.68V33.2H292.91V33.2H291.15V33.2H289.39V33.2H287.62V33.2H285.86V33.2H284.09V13.7H282.33V13.7H280.56V13.7H278.8V13.7H277.03V13.7H275.27V13.7H273.5V13.7H271.74V54.96H269.98V54.96H268.21V54.96H266.45V54.96H264.68V54.96H262.92V54.96H261.15V54.96H259.39V54.96H257.62V54.96H255.86V54.96H254.09V54.96H252.33V54.96H250.57V54.96H248.8V54.96H247.04V13.7H245.27V13.7H243.51V13.7H241.74V13.7H239.98V13.7H238.21V13.7H236.45V13.7H234.68V44.9H232.92V44.9H231.16V44.9H229.39V44.9H227.63V44.9H225.86V44.9H224.1V44.9H222.33V13.7H220.57V13.7H218.8V13.7H217.04V13.7H215.27V13.7H213.51V13.7H211.75V13.7H209.98V56.18H208.22V56.18H206.45V56.18H204.69V56.18H202.92V56.18H201.16V56.18H199.39V56.18H197.63V56.18H195.86V56.18H194.1V56.18H192.34V56.18H190.57V56.18H188.81V56.18H187.04V56.18H185.28V56.18H183.51V56.18H181.75V56.18H179.98V56.18H178.22V56.18H176.45V56.18H174.69V56.18H172.93V13.7H171.16V13.7H169.4V13.7H167.63V13.7H165.87V13.7H164.1V13.7H162.34V13.7H160.57V13.7H158.81V13.7H157.04V13.7H155.28V13.7H153.52V13.7H151.75V13.7H149.99V13.7H148.22V67.02H146.46V67.02H144.69V67.02H142.93V67.02H141.16V67.02H139.4V67.02H137.63V67.02H135.87V67.02H134.11V67.02H132.34V67.02H130.58V67.02H128.81V67.02H127.05V67.02H125.28V67.02H123.52V53.63H121.75V53.63H119.99V53.63H118.22V53.63H116.46V53.63H114.7V53.63H112.93V53.63H111.17V77.76H109.4V77.76H107.64V77.76H105.87V77.76H104.11V77.76H102.34V77.76H100.58V77.76H98.81V30.01H97.05V30.01H95.29V30.01H93.52V30.01H91.76V30.01H89.99V30.01H88.23V30.01H86.46V72.03H84.7V72.03H82.93V72.03H81.17V72.03H79.4V72.03H77.64V72.03H75.88V72.03H74.11V75.9H72.35V75.9H70.58V75.9H68.82V75.9H67.05V75.9H65.29V75.9H63.52V75.9H61.76V18.34H59.99V18.34H58.23V18.34H56.47V18.34H54.7V18.34H52.94V18.34H51.17V18.34H49.41V274H47.64V274H45.88V274H44.11V274H42.35V274H40.58V274H38.82V274H37.06V274H35.29V274H33.53V274H31.76V274H30V274H28.23V274H26.47V274H24.7V274H22.94V274H21.17V274H19.41V274H17.65V274H15.88V274H14.12V274H12.35V274H10.59V274H8.82V274H7.06V274H5.29V274H3.53V274H1.76V274H0Z" style="fill: rgb(148, 103, 189); fill-opacity: 0.8; stroke-width: 0;"/></g></g><g class="errorbars"/><g class="lines"><path class="js-line" d="M0,274H1.76V274H3.53V274H5.29V274H7.06V274H8.82V274H10.59V274H12.35V274H14.12V274H15.88V274H17.65V274H19.41V274H21.17V274H22.94V274H24.7V274H26.47V274H28.23V274H30V274H31.76V274H33.53V274H35.29V274H37.06V274H38.82V274H40.58V274H42.35V274H44.11V274H45.88V274H47.64V274H49.41V18.34H51.17V18.34H52.94V18.34H54.7V18.34H56.47V18.34H58.23V18.34H59.99V18.34H61.76V75.9H63.52V75.9H65.29V75.9H67.05V75.9H68.82V75.9H70.58V75.9H72.35V75.9H74.11V72.03H75.88V72.03H77.64V72.03H79.4V72.03H81.17V72.03H82.93V72.03H84.7V72.03H86.46V30.01H88.23V30.01H89.99V30.01H91.76V30.01H93.52V30.01H95.29V30.01H97.05V30.01H98.81V77.76H100.58V77.76H102.34V77.76H104.11V77.76H105.87V77.76H107.64V77.76H109.4V77.76H111.17V53.63H112.93V53.63H114.7V53.63H116.46V53.63H118.22V53.63H119.99V53.63H121.75V53.63H123.52V67.02H125.28V67.02H127.05V67.02H128.81V67.02H130.58V67.02H132.34V67.02H134.11V67.02H135.87V67.02H137.63V67.02H139.4V67.02H141.16V67.02H142.93V67.02H144.69V67.02H146.46V67.02H148.22V13.7H149.99V13.7H151.75V13.7H153.52V13.7H155.28V13.7H157.04V13.7H158.81V13.7H160.57V13.7H162.34V13.7H164.1V13.7H165.87V13.7H167.63V13.7H169.4V13.7H171.16V13.7H172.93V56.18H174.69V56.18H176.45V56.18H178.22V56.18H179.98V56.18H181.75V56.18H183.51V56.18H185.28V56.18H187.04V56.18H188.81V56.18H190.57V56.18H192.34V56.18H194.1V56.18H195.86V56.18H197.63V56.18H199.39V56.18H201.16V56.18H202.92V56.18H204.69V56.18H206.45V56.18H208.22V56.18H209.98V13.7H211.75V13.7H213.51V13.7H215.27V13.7H217.04V13.7H218.8V13.7H220.57V13.7H222.33V44.9H224.1V44.9H225.86V44.9H227.63V44.9H229.39V44.9H231.16V44.9H232.92V44.9H234.68V13.7H236.45V13.7H238.21V13.7H239.98V13.7H241.74V13.7H243.51V13.7H245.27V13.7H247.04V54.96H248.8V54.96H250.57V54.96H252.33V54.96H254.09V54.96H255.86V54.96H257.62V54.96H259.39V54.96H261.15V54.96H262.92V54.96H264.68V54.96H266.45V54.96H268.21V54.96H269.98V54.96H271.74V13.7H273.5V13.7H275.27V13.7H277.03V13.7H278.8V13.7H280.56V13.7H282.33V13.7H284.09V33.2H285.86V33.2H287.62V33.2H289.39V33.2H291.15V33.2H292.91V33.2H294.68V33.2H296.44V13.7H298.21V13.7H299.97V13.7H301.74V13.7H303.5V13.7H305.27V13.7H307.03V13.7H308.8V68.66H310.56V68.66H312.32V68.66H314.09V68.66H315.85V68.66H317.62V68.66H319.38V68.66H321.15V68.66H322.91V68.66H324.68V68.66H326.44V68.66H328.2V68.66H329.97V68.66H331.73V68.66H333.5V13.7H335.26V13.7H337.03V13.7H338.79V13.7H340.56V13.7H342.32V13.7H344.09V13.7H345.85V13.7H347.61V13.7H349.38V13.7H351.14V13.7H352.91V13.7H354.67V13.7H356.44V13.7H358.2V13.7H359.97V13.7H361.73V13.7H363.5V13.7H365.26V13.7H367.02V13.7H368.79V13.7H370.55V13.7H372.32V13.7H374.08V13.7H375.85V13.7H377.61V13.7H379.38V13.7H381.14V13.7H382.91V274H384.67V274H386.43V274H388.2V274H389.96V274H391.73V274H393.49V274H395.26V85.16H397.02V85.16H398.79V85.16H400.55V85.16H402.32V85.16H404.08V85.16H405.84V85.16H407.61V13.7H409.37V13.7H411.14V13.7H412.9V13.7H414.67V13.7H416.43V13.7H418.2V13.7H419.96V13.7H421.73V13.7H423.49V13.7H425.25V13.7H427.02V13.7H428.78V13.7H430.55V13.7H432.31V53.07H434.08V53.07H435.84V53.07H437.61V53.07H439.37V53.07H441.14V53.07H442.9V53.07H444.66V53.07H446.43V53.07H448.19V53.07H449.96V53.07H451.72V53.07H453.49V53.07H455.25V53.07H457.02V13.7H458.78V13.7H460.55V13.7H462.31V13.7H464.07V13.7H465.84V13.7H467.6V13.7H469.37V13.7H471.13V13.7H472.9V13.7H474.66V13.7H476.43V13.7H478.19V13.7H479.96V13.7H481.72V130.84H483.48V130.84H485.25V130.84H487.01V130.84H488.78V130.84H490.54V130.84H492.31V130.84H494.07V13.7H495.84V13.7H497.6V13.7H499.37V13.7H501.13V13.7H502.89V13.7H504.66V13.7H506.42V13.7H508.19V13.7H509.95V13.7H511.72V13.7H513.48V13.7H515.25V13.7H517.01V13.7H518.78V13.7H520.54V13.7H522.3V13.7H524.07V13.7H525.83V13.7H527.6V13.7H529.36V13.7H531.13V13.7H532.89V13.7H534.66V13.7H536.42V13.7H538.19V13.7H539.95V13.7H541.71V13.7H543.48V49.3H545.24V49.3H547.01V49.3H548.77V49.3H550.54V49.3H552.3V49.3H554.07V49.3H555.83V13.7H557.6V13.7H559.36V13.7H561.12V13.7H562.89V13.7H564.65V13.7H566.42V13.7H568.18V13.7H569.95V13.7H571.71V13.7H573.48V13.7H575.24V13.7H577.01V13.7H578.77V13.7H580.53V13.7H582.3V13.7H584.06V13.7H585.83V13.7H587.59V13.7H589.36V13.7H591.12V13.7H592.89V13.7H594.65V13.7H596.42V13.7H598.18V13.7H599.94V13.7H601.71V13.7H603.47V13.7H605.24V274H607V274H608.77V274H610.53V274H612.3V274H614.06V274H615.83V274H617.59V165.4H619.35V165.4H621.12V165.4H622.88V165.4H624.65V165.4H626.41V165.4H628.18V165.4H629.94V274H631.71V274H633.47V274H635.24V274H637V274" style="vector-effect: none; fill: none; stroke: rgb(220, 57, 18); stroke-opacity: 1; stroke-width: 0px; opacity: 1;"/></g><g class="points"/><g class="text"/></g><g class="trace scatter traced9422a95-c2fc-47d7-970d-f5a69285fb11" style="stroke-miterlimit: 2;"><g class="fills"/><g class="errorbars"/><g class="lines"><path class="js-line" d="M0,274H1.76V274H3.53V274H5.29V274H7.06V274H8.82V274H10.59V274H12.35V274H14.12V274H15.88V274H17.65V274H19.41V274H21.17V274H22.94V274H24.7V274H26.47V274H28.23V274H30V274H31.76V274H33.53V274H35.29V274H37.06V274H38.82V274H40.58V274H42.35V274H44.11V274H45.88V274H47.64V274H49.41V13.7H51.17V13.7H52.94V13.7H54.7V13.7H56.47V13.7H58.23V13.7H59.99V13.7H61.76V13.7H63.52V13.7H65.29V13.7H67.05V13.7H68.82V13.7H70.58V13.7H72.35V13.7H74.11V13.7H75.88V13.7H77.64V13.7H79.4V13.7H81.17V13.7H82.93V13.7H84.7V13.7H86.46V13.7H88.23V13.7H89.99V13.7H91.76V13.7H93.52V13.7H95.29V13.7H97.05V13.7H98.81V13.7H100.58V13.7H102.34V13.7H104.11V13.7H105.87V13.7H107.64V13.7H109.4V13.7H111.17V13.7H112.93V13.7H114.7V13.7H116.46V13.7H118.22V13.7H119.99V13.7H121.75V13.7H123.52V13.7H125.28V13.7H127.05V13.7H128.81V13.7H130.58V13.7H132.34V13.7H134.11V13.7H135.87V13.7H137.63V13.7H139.4V13.7H141.16V13.7H142.93V13.7H144.69V13.7H146.46V13.7H148.22V13.7H149.99V13.7H151.75V13.7H153.52V13.7H155.28V13.7H157.04V13.7H158.81V13.7H160.57V13.7H162.34V13.7H164.1V13.7H165.87V13.7H167.63V13.7H169.4V13.7H171.16V13.7H172.93V13.7H174.69V13.7H176.45V13.7H178.22V13.7H179.98V13.7H181.75V13.7H183.51V13.7H185.28V13.7H187.04V13.7H188.81V13.7H190.57V13.7H192.34V13.7H194.1V13.7H195.86V13.7H197.63V13.7H199.39V13.7H201.16V13.7H202.92V13.7H204.69V13.7H206.45V13.7H208.22V13.7H209.98V13.7H211.75V13.7H213.51V13.7H215.27V13.7H217.04V13.7H218.8V13.7H220.57V13.7H222.33V13.7H224.1V13.7H225.86V13.7H227.63V13.7H229.39V13.7H231.16V13.7H232.92V13.7H234.68V13.7H236.45V13.7H238.21V13.7H239.98V13.7H241.74V13.7H243.51V13.7H245.27V13.7H247.04V13.7H248.8V13.7H250.57V13.7H252.33V13.7H254.09V13.7H255.86V13.7H257.62V13.7H259.39V13.7H261.15V13.7H262.92V13.7H264.68V13.7H266.45V13.7H268.21V13.7H269.98V13.7H271.74V13.7H273.5V13.7H275.27V13.7H277.03V13.7H278.8V13.7H280.56V13.7H282.33V13.7H284.09V13.7H285.86V13.7H287.62V13.7H289.39V13.7H291.15V13.7H292.91V13.7H294.68V13.7H296.44V13.7H298.21V13.7H299.97V13.7H301.74V13.7H303.5V13.7H305.27V13.7H307.03V13.7H308.8V13.7H310.56V13.7H312.32V13.7H314.09V13.7H315.85V13.7H317.62V13.7H319.38V13.7H321.15V13.7H322.91V13.7H324.68V13.7H326.44V13.7H328.2V13.7H329.97V13.7H331.73V13.7H333.5V13.7H335.26V13.7H337.03V13.7H338.79V13.7H340.56V13.7H342.32V13.7H344.09V13.7H345.85V13.7H347.61V13.7H349.38V13.7H351.14V13.7H352.91V13.7H354.67V13.7H356.44V13.7H358.2V13.7H359.97V13.7H361.73V13.7H363.5V13.7H365.26V13.7H367.02V13.7H368.79V13.7H370.55V13.7H372.32V13.7H374.08V13.7H375.85V13.7H377.61V13.7H379.38V13.7H381.14V13.7H382.91V13.7H384.67V13.7H386.43V13.7H388.2V13.7H389.96V13.7H391.73V13.7H393.49V13.7H395.26V13.7H397.02V13.7H398.79V13.7H400.55V13.7H402.32V13.7H404.08V13.7H405.84V13.7H407.61V13.7H409.37V13.7H411.14V13.7H412.9V13.7H414.67V13.7H416.43V13.7H418.2V13.7H419.96V13.7H421.73V13.7H423.49V13.7H425.25V13.7H427.02V13.7H428.78V13.7H430.55V13.7H432.31V13.7H434.08V13.7H435.84V13.7H437.61V13.7H439.37V13.7H441.14V13.7H442.9V13.7H444.66V13.7H446.43V13.7H448.19V13.7H449.96V13.7H451.72V13.7H453.49V13.7H455.25V13.7H457.02V13.7H458.78V13.7H460.55V13.7H462.31V13.7H464.07V13.7H465.84V13.7H467.6V13.7H469.37V13.7H471.13V13.7H472.9V13.7H474.66V13.7H476.43V13.7H478.19V13.7H479.96V13.7H481.72V13.7H483.48V13.7H485.25V13.7H487.01V13.7H488.78V13.7H490.54V13.7H492.31V13.7H494.07V13.7H495.84V13.7H497.6V13.7H499.37V13.7H501.13V13.7H502.89V13.7H504.66V13.7H506.42V13.7H508.19V13.7H509.95V13.7H511.72V13.7H513.48V13.7H515.25V13.7H517.01V13.7H518.78V13.7H520.54V13.7H522.3V13.7H524.07V13.7H525.83V13.7H527.6V13.7H529.36V13.7H531.13V13.7H532.89V13.7H534.66V13.7H536.42V13.7H538.19V13.7H539.95V13.7H541.71V13.7H543.48V13.7H545.24V13.7H547.01V13.7H548.77V13.7H550.54V13.7H552.3V13.7H554.07V13.7H555.83V13.7H557.6V13.7H559.36V13.7H561.12V13.7H562.89V13.7H564.65V13.7H566.42V13.7H568.18V13.7H569.95V13.7H571.71V13.7H573.48V13.7H575.24V13.7H577.01V13.7H578.77V13.7H580.53V13.7H582.3V13.7H584.06V13.7H585.83V13.7H587.59V13.7H589.36V13.7H591.12V13.7H592.89V13.7H594.65V13.7H596.42V13.7H598.18V13.7H599.94V13.7H601.71V13.7H603.47V13.7H605.24V13.7H607V13.7H608.77V13.7H610.53V13.7H612.3V13.7H614.06V13.7H615.83V13.7H617.59V13.7H619.35V13.7H621.12V13.7H622.88V13.7H624.65V13.7H626.41V13.7H628.18V13.7H629.94V13.7H631.71V13.7H633.47V13.7H635.24V13.7H637V13.7" style="vector-effect: none; fill: none; stroke: rgb(148, 103, 189); stroke-opacity: 1; stroke-width: 0px; opacity: 1;"/></g><g class="points"/><g class="text"/></g></g></g><g class="overplot"/><path class="xlines-above crisp" d="M0,0" style="fill: none;"/><path class="ylines-above crisp" d="M0,0" style="fill: none;"/><g class="overlines-above"/><g class="xaxislayer-above"><g class="xtick"><text text-anchor="middle" x="0" y="333" transform="translate(131.81,0)" style="font-family: 'Open Sans', verdana, arial, sans-serif; font-size: 12px; fill: rgb(42, 63, 95); fill-opacity: 1; white-space: pre; opacity: 1;">Mar 2020</text></g><g class="xtick"><text text-anchor="middle" x="0" y="333" style="font-family: 'Open Sans', verdana, arial, sans-serif; font-size: 12px; fill: rgb(42, 63, 95); fill-opacity: 1; white-space: pre; opacity: 1;" transform="translate(239.45,0)">May 2020</text></g><g class="xtick"><text text-anchor="middle" x="0" y="333" style="font-family: 'Open Sans', verdana, arial, sans-serif; font-size: 12px; fill: rgb(42, 63, 95); fill-opacity: 1; white-space: pre; opacity: 1;" transform="translate(347.09,0)">Jul 2020</text></g><g class="xtick"><text text-anchor="middle" x="0" y="333" style="font-family: 'Open Sans', verdana, arial, sans-serif; font-size: 12px; fill: rgb(42, 63, 95); fill-opacity: 1; white-space: pre; opacity: 1;" transform="translate(456.49,0)">Sep 2020</text></g><g class="xtick"><text text-anchor="middle" x="0" y="333" style="font-family: 'Open Sans', verdana, arial, sans-serif; font-size: 12px; fill: rgb(42, 63, 95); fill-opacity: 1; white-space: pre; opacity: 1;" transform="translate(564.13,0)">Nov 2020</text></g></g><g class="yaxislayer-above"><g class="ytick"><text text-anchor="end" x="32" y="4.199999999999999" transform="translate(0,320)" style="font-family: 'Open Sans', verdana, arial, sans-serif; font-size: 12px; fill: rgb(42, 63, 95); fill-opacity: 1; white-space: pre; opacity: 1;">0</text></g><g class="ytick"><text text-anchor="end" x="32" y="4.199999999999999" style="font-family: 'Open Sans', verdana, arial, sans-serif; font-size: 12px; fill: rgb(42, 63, 95); fill-opacity: 1; white-space: pre; opacity: 1;" transform="translate(0,267.94)">0.2</text></g><g class="ytick"><text text-anchor="end" x="32" y="4.199999999999999" style="font-family: 'Open Sans', verdana, arial, sans-serif; font-size: 12px; fill: rgb(42, 63, 95); fill-opacity: 1; white-space: pre; opacity: 1;" transform="translate(0,215.88)">0.4</text></g><g class="ytick"><text text-anchor="end" x="32" y="4.199999999999999" style="font-family: 'Open Sans', verdana, arial, sans-serif; font-size: 12px; fill: rgb(42, 63, 95); fill-opacity: 1; white-space: pre; opacity: 1;" transform="translate(0,163.82)">0.6</text></g><g class="ytick"><text text-anchor="end" x="32" y="4.199999999999999" style="font-family: 'Open Sans', verdana, arial, sans-serif; font-size: 12px; fill: rgb(42, 63, 95); fill-opacity: 1; white-space: pre; opacity: 1;" transform="translate(0,111.76)">0.8</text></g><g class="ytick"><text text-anchor="end" x="32" y="4.199999999999999" style="font-family: 'Open Sans', verdana, arial, sans-serif; font-size: 12px; fill: rgb(42, 63, 95); fill-opacity: 1; white-space: pre; opacity: 1;" transform="translate(0,59.7)">1</text></g></g><g class="overaxes-above"/></g></g><g class="polarlayer"/><g class="smithlayer"/><g class="ternarylayer"/><g class="geolayer"/><g class="funnelarealayer"/><g class="pielayer"/><g class="iciclelayer"/><g class="treemaplayer"/><g class="sunburstlayer"/><g class="glimages"/><defs id="topdefs-df1def"><g class="clips"/><clipPath id="legenddf1def"><rect width="517" height="29" x="0" y="0"/></clipPath></defs><g class="layer-above"><g class="imagelayer"/><g class="shapelayer"/></g><g class="infolayer"><g class="legend" pointer-events="all" transform="translate(153,11.519999999999996)"><rect class="bg" shape-rendering="crispEdges" width="517" height="29" x="0" y="0" style="stroke: rgb(68, 68, 68); stroke-opacity: 1; fill: rgb(255, 255, 255); fill-opacity: 1; stroke-width: 0px;"/><g class="scrollbox" transform="" clip-path="url(#legenddf1def)"><g class="groups"><g class="traces" transform="translate(0,14.5)" style="opacity: 1;"><text class="legendtext" text-anchor="start" x="40" y="4.680000000000001" style="font-family: 'Open Sans', verdana, arial, sans-serif; font-size: 12px; fill: rgb(42, 63, 95); fill-opacity: 1; white-space: pre;">ADAUSDT</text><g class="layers"><g class="legendfill"><path class="js-fill" d="M5,-2h30v6h-30z" style="stroke-width: 0; fill: rgb(31, 119, 180); fill-opacity: 0.8;"/></g><g class="legendlines"><path class="js-line" d="M5,-2h30" style="fill: none; stroke: rgb(31, 119, 180); stroke-opacity: 1; stroke-width: 0px;"/></g><g class="legendsymbols"><g class="legendpoints"/></g></g><rect class="legendtoggle" x="0" y="-9.5" width="101.78125" height="19" style="fill: rgb(0, 0, 0); fill-opacity: 0;"/></g><g class="traces" transform="translate(104.28125,14.5)" style="opacity: 1;"><text class="legendtext" text-anchor="start" x="40" y="4.680000000000001" style="font-family: 'Open Sans', verdana, arial, sans-serif; font-size: 12px; fill: rgb(42, 63, 95); fill-opacity: 1; white-space: pre;">BNBUSDT</text><g class="layers"><g class="legendfill"><path class="js-fill" d="M5,-2h30v6h-30z" style="stroke-width: 0; fill: rgb(255, 127, 14); fill-opacity: 0.8;"/></g><g class="legendlines"><path class="js-line" d="M5,-2h30" style="fill: none; stroke: rgb(255, 127, 14); stroke-opacity: 1; stroke-width: 0px;"/></g><g class="legendsymbols"><g class="legendpoints"/></g></g><rect class="legendtoggle" x="0" y="-9.5" width="101.5625" height="19" style="fill: rgb(0, 0, 0); fill-opacity: 0;"/></g><g class="traces" transform="translate(208.34375,14.5)" style="opacity: 1;"><text class="legendtext" text-anchor="start" x="40" y="4.680000000000001" style="font-family: 'Open Sans', verdana, arial, sans-serif; font-size: 12px; fill: rgb(42, 63, 95); fill-opacity: 1; white-space: pre;">BTCUSDT</text><g class="layers"><g class="legendfill"><path class="js-fill" d="M5,-2h30v6h-30z" style="stroke-width: 0; fill: rgb(44, 160, 44); fill-opacity: 0.8;"/></g><g class="legendlines"><path class="js-line" d="M5,-2h30" style="fill: none; stroke: rgb(44, 160, 44); stroke-opacity: 1; stroke-width: 0px;"/></g><g class="legendsymbols"><g class="legendpoints"/></g></g><rect class="legendtoggle" x="0" y="-9.5" width="100.140625" height="19" style="fill: rgb(0, 0, 0); fill-opacity: 0;"/></g><g class="traces" transform="translate(310.984375,14.5)" style="opacity: 1;"><text class="legendtext" text-anchor="start" x="40" y="4.680000000000001" style="font-family: 'Open Sans', verdana, arial, sans-serif; font-size: 12px; fill: rgb(42, 63, 95); fill-opacity: 1; white-space: pre;">ETHUSDT</text><g class="layers"><g class="legendfill"><path class="js-fill" d="M5,-2h30v6h-30z" style="stroke-width: 0; fill: rgb(220, 57, 18); fill-opacity: 0.8;"/></g><g class="legendlines"><path class="js-line" d="M5,-2h30" style="fill: none; stroke: rgb(220, 57, 18); stroke-opacity: 1; stroke-width: 0px;"/></g><g class="legendsymbols"><g class="legendpoints"/></g></g><rect class="legendtoggle" x="0" y="-9.5" width="100.140625" height="19" style="fill: rgb(0, 0, 0); fill-opacity: 0;"/></g><g class="traces" transform="translate(413.625,14.5)" style="opacity: 1;"><text class="legendtext" text-anchor="start" x="40" y="4.680000000000001" style="font-family: 'Open Sans', verdana, arial, sans-serif; font-size: 12px; fill: rgb(42, 63, 95); fill-opacity: 1; white-space: pre;">XRPUSDT</text><g class="layers"><g class="legendfill"><path class="js-fill" d="M5,-2h30v6h-30z" style="stroke-width: 0; fill: rgb(148, 103, 189); fill-opacity: 0.8;"/></g><g class="legendlines"><path class="js-line" d="M5,-2h30" style="fill: none; stroke: rgb(148, 103, 189); stroke-opacity: 1; stroke-width: 0px;"/></g><g class="legendsymbols"><g class="legendpoints"/></g></g><rect class="legendtoggle" x="0" y="-9.5" width="99.9375" height="19" style="fill: rgb(0, 0, 0); fill-opacity: 0;"/></g></g></g><rect class="scrollbar" rx="20" ry="3" width="0" height="0" x="0" y="0" style="fill: rgb(128, 139, 164); fill-opacity: 1;"/></g><g class="g-gtitle"/><g class="g-xtitle"/><g class="g-ytitle"/></g></svg>