<svg class="main-svg" xmlns="http://www.w3.org/2000/svg" xmlns:xlink="http://www.w3.org/1999/xlink" width="700" height="350" style="" viewBox="0 0 700 350"><rect x="0" y="0" width="700" height="350" style="fill: rgb(255, 255, 255); fill-opacity: 1;"/><defs id="defs-e9f73d"><g class="clips"><clipPath id="clipe9f73dxyplot" class="plotclip"><rect width="630" height="274"/></clipPath><clipPath class="axesclip" id="clipe9f73dx"><rect x="40" y="0" width="630" height="350"/></clipPath><clipPath class="axesclip" id="clipe9f73dy"><rect x="0" y="46" width="700" height="274"/></clipPath><clipPath class="axesclip" id="clipe9f73dxy"><rect x="40" y="46" width="630" height="274"/></clipPath></g><g class="gradients"/><g class="patterns"/></defs><g class="bglayer"><rect class="bg" x="40" y="46" width="630" height="274" style="fill: rgb(229, 236, 246); fill-opacity: 1; stroke-width: 0;"/></g><g class="layer-below"><g class="imagelayer"/><g class="shapelayer"/></g><g class="cartesianlayer"><g class="subplot xy"><g class="layer-subplot"><g class="shapelayer"/><g class="imagelayer"/></g><g class="minor-gridlayer"><g class="x"/><g class="y"/></g><g class="gridlayer"><g class="x"><path class="xgrid crisp" transform="translate(143.56,0)" d="M0,46v274" style="stroke: rgb(255, 255, 255); stroke-opacity: 1; stroke-width: 1px;"/><path class="xgrid crisp" transform="translate(248.85,0)" d="M0,46v274" style="stroke: rgb(255, 255, 255); stroke-opacity: 1; stroke-width: 1px;"/><path class="xgrid crisp" transform="translate(354.14,0)" d="M0,46v274" style="stroke: rgb(255, 255, 255); stroke-opacity: 1; stroke-width: 1px;"/><path class="xgrid crisp" transform="translate(461.15,0)" d="M0,46v274" style="stroke: rgb(255, 255, 255); stroke-opacity: 1; stroke-width: 1px;"/><path class="xgrid crisp" transform="translate(566.44,0)" d="M0,46v274" style="stroke: rgb(255, 255, 255); stroke-opacity: 1; stroke-width: 1px;"/></g><g class="y"><path class="ygrid crisp" transform="translate(0,267.94)" d="M40,0h630" style="stroke: rgb(255, 255, 255); stroke-opacity: 1; stroke-width: 1px;"/><path class="ygrid crisp" transform="translate(0,215.88)" d="M40,0h630" style="stroke: rgb(255, 255, 255); stroke-opacity: 1; stroke-width: 1px;"/><path class="ygrid crisp" transform="translate(0,163.82)" d="M40,0h630" style="stroke: rgb(255, 255, 255); stroke-opacity: 1; stroke-width: 1px;"/><path class="ygrid crisp" transform="translate(0,111.76)" d="M40,0h630" style="stroke: rgb(255, 255, 255); stroke-opacity: 1; stroke-width: 1px;"/><path class="ygrid crisp" transform="translate(0,59.7)" d="M40,0h630" style="stroke: rgb(255, 255, 255); stroke-opacity: 1; stroke-width: 1px;"/></g></g><g class="zerolinelayer"><path class="yzl zl crisp" transform="translate(0,320)" d="M40,0h630" style="stroke: rgb(255, 255, 255); stroke-opacity: 1; stroke-width: 2px;"/></g><path class="xlines-below"/><path class="ylines-below"/><g class="overlines-below"/><g class="xaxislayer-below"/><g class="yaxislayer-below"/><g class="overaxes-below"/><g class="plot" transform="translate(40,46)" clip-path="url(#clipe9f73dxyplot)"><g class="scatterlayer mlayer"><g class="trace scatter trace62493335-8a10-4561-a5de-4008196d9fc7" style="stroke-miterlimit: 2;"><g class="fills"><g><path class="js-fill" d="M630,274L0,274L0,221.94H1.73V221.94H3.45V221.94H5.18V221.94H6.9V221.94H8.63V221.94H10.36V221.94H12.08V221.94H13.81V274H15.53V177.5H17.26V215.83H18.99V155.06H20.71V94.68H22.44V219.76H24.16V203.28H25.89V249.6H27.62V220.58H29.34V161.4H31.07V112.41H32.79V274H34.52V193.33H36.25V183.05H37.97V160.62H39.7V199.88H41.42V152.43H43.15V204.31H44.88V207.2H46.6V168.99H48.33V160.55H50.05V147.82H51.78V138.29H53.51V155.55H55.23V141.07H56.96V151.98H58.68V142.3H60.41V151.09H62.14V157.81H63.86V173.48H65.59V206.42H67.32V199.72H69.04V209.09H70.77V219.39H72.49V219.29H74.22V222.36H75.95V214.01H77.67V221.06H79.4V255.88H81.12V271.03H82.85V274H84.58V274H86.3V274H88.03V274H89.75V274H91.48V274H93.21V274H94.93V274H96.66V274H98.38V274H100.11V274H101.84V274H103.56V274H105.29V274H107.01V274H108.74V274H110.47V274H112.19V274H113.92V274H115.64V274H117.37V274H119.1V274H120.82V274H122.55V274H124.27V274H126V274H127.73V274H129.45V274H131.18V274H132.9V274H134.63V274H136.36V274H138.08V274H139.81V274H141.53V274H143.26V274H144.99V274H146.71V274H148.44V274H150.16V274H151.89V274H153.62V274H155.34V274H157.07V274H158.79V274H160.52V274H162.25V274H163.97V274H165.7V274H167.42V274H169.15V274H170.88V274H172.6V274H174.33V274H176.05V274H177.78V274H179.51V274H181.23V274H182.96V274H184.68V274H186.41V274H188.14V274H189.86V274H191.59V274H193.32V274H195.04V274H196.77V274H198.49V274H200.22V274H201.95V274H203.67V274H205.4V274H207.12V274H208.85V274H210.58V274H212.3V274H214.03V274H215.75V274H217.48V274H219.21V274H220.93V274H222.66V274H224.38V274H226.11V274H227.84V274H229.56V274H231.29V274H233.01V274H234.74V274H236.47V274H238.19V274H239.92V274H241.64V263.74H243.37V253.96H245.1V271.93H246.82V254.98H248.55V258.33H250.27V259.98H252V254.78H253.73V249.84H255.45V249.36H257.18V244.77H258.9V243.98H260.63V240.52H262.36V242.67H264.08V240.87H265.81V241.52H267.53V240.89H269.26V240.52H270.99V240.11H272.71V237.26H274.44V236.63H276.16V236.61H277.89V236.59H279.62V191.43H281.34V202H283.07V193.64H284.79V195.32H286.52V188.56H288.25V189.55H289.97V189.48H291.7V190.23H293.42V189.78H295.15V191.16H296.88V183.88H298.6V187.08H300.33V186.35H302.05V185.24H303.78V187.08H305.51V181.84H307.23V184.03H308.96V182.31H310.68V182.72H312.41V182.09H314.14V183.74H315.86V182.2H317.59V185.88H319.32V184.52H321.04V182H322.77V185.82H324.49V182.36H326.22V181.11H327.95V178.54H329.67V173.86H331.4V177.93H333.12V176.37H334.85V174.97H336.58V176.27H338.3V171.44H340.03V174.35H341.75V176.73H343.48V180.74H345.21V178.58H346.93V174.45H348.66V179.64H350.38V179.88H352.11V182.02H353.84V182.75H355.56V184.61H357.29V184.23H359.01V183.39H360.74V194.61H362.47V189.64H364.19V188.3H365.92V194.03H367.64V200.6H369.37V208.81H371.1V217.3H372.82V220.26H374.55V220.64H376.27V222.51H378V220.68H379.73V218.88H381.45V227.59H383.18V228.68H384.9V234.11H386.63V230.2H388.36V229.53H390.08V240.79H391.81V243.45H393.53V238.44H395.26V239.61H396.99V242.54H398.71V246.25H400.44V243.75H402.16V244.34H403.89V244.9H405.62V240.62H407.34V245.73H409.07V250.08H410.79V253.66H412.52V261.74H414.25V269H415.97V274H417.7V269.95H419.42V274H421.15V274H422.88V274H424.6V274H426.33V274H428.05V274H429.78V274H431.51V274H433.23V274H434.96V274H436.68V274H438.41V274H440.14V274H441.86V274H443.59V274H445.32V274H447.04V274H448.77V274H450.49V274H452.22V274H453.95V274H455.67V274H457.4V274H459.12V274H460.85V274H462.58V274H464.3V274H466.03V274H467.75V274H469.48V274H471.21V274H472.93V274H474.66V274H476.38V274H478.11V274H479.84V274H481.56V274H483.29V274H485.01V274H486.74V274H488.47V274H490.19V274H491.92V274H493.64V274H495.37V274H497.1V274H498.82V274H500.55V274H502.27V274H504V274H505.73V274H507.45V274H509.18V274H510.9V274H512.63V274H514.36V274H516.08V274H517.81V274H519.53V274H521.26V274H522.99V274H524.71V274H526.44V274H528.16V274H529.89V274H531.62V274H533.34V274H535.07V274H536.79V274H538.52V274H540.25V274H541.97V274H543.7V274H545.42V274H547.15V274H548.88V274H550.6V274H552.33V274H554.05V274H555.78V274H557.51V274H559.23V274H560.96V274H562.68V274H564.41V274H566.14V274H567.86V274H569.59V274H571.32V274H573.04V274H574.77V274H576.49V274H578.22V274H579.95V274H581.67V274H583.4V274H585.12V274H586.85V274H588.58V274H590.3V274H592.03V274H593.75V274H595.48V274H597.21V274H598.93V274H600.66V274H602.38V274H604.11V274H605.84V274H607.56V274H609.29V274H611.01V274H612.74V274H614.47V274H616.19V274H617.92V274H619.64V274H621.37V274H623.1V274H624.82V274H626.55V274H628.27V274H630V274" style="fill: rgb(31, 119, 180); fill-opacity: 0.8; stroke-width: 0;"/></g><g><path class="js-fill" d="M0,169.88H1.73V169.88H3.45V169.88H5.18V169.88H6.9V169.88H8.63V169.88H10.36V169.88H12.08V169.88H13.81V274H15.53V177.5H17.26V215.83H18.99V155.06H20.71V94.68H22.44V219.76H24.16V203.28H25.89V119.22H27.62V177.17H29.34V114.97H31.07V112.41H32.79V186.85H34.52V155.92H36.25V118.83H37.97V129.03H39.7V163.07H41.42V152.43H43.15V155.97H44.88V164.69H46.6V168.99H48.33V160.55H50.05V147.82H51.78V138.29H53.51V155.55H55.23V141.07H56.96V151.98H58.68V142.3H60.41V151.09H62.14V157.81H63.86V173.48H65.59V164.91H67.32V175.37H69.04V134.98H70.77V106.66H72.49V117.18H74.22V128.94H75.95V148.78H77.67V155.36H79.4V220.81H81.12V246.69H82.85V256.79H84.58V260.85H86.3V270.13H88.03V272.99H89.75V274H91.48V274H93.21V274H94.93V274H96.66V274H98.38V274H100.11V274H101.84V274H103.56V274H105.29V274H107.01V274H108.74V274H110.47V274H112.19V267.55H113.92V274H115.64V274H117.37V274H119.1V274H120.82V274H122.55V274H124.27V274H126V274H127.73V274H129.45V274H131.18V274H132.9V274H134.63V274H136.36V274H138.08V274H139.81V274H141.53V274H143.26V274H144.99V274H146.71V274H148.44V274H150.16V274H151.89V274H153.62V274H155.34V274H157.07V274H158.79V274H160.52V274H162.25V274H163.97V274H165.7V274H167.42V274H169.15V274H170.88V274H172.6V274H174.33V274H176.05V274H177.78V274H179.51V274H181.23V274H182.96V274H184.68V274H186.41V274H188.14V274H189.86V274H191.59V274H193.32V274H195.04V274H196.77V274H198.49V274H200.22V274H201.95V274H203.67V274H205.4V274H207.12V274H208.85V274H210.58V274H212.3V274H214.03V274H215.75V274H217.48V274H219.21V274H220.93V274H222.66V274H224.38V274H226.11V274H227.84V274H229.56V274H231.29V274H233.01V274H234.74V274H236.47V274H238.19V274H239.92V274H241.64V263.74H243.37V253.96H245.1V271.93H246.82V254.98H248.55V258.33H250.27V259.98H252V254.78H253.73V249.84H255.45V249.36H257.18V244.77H258.9V243.98H260.63V240.52H262.36V242.67H264.08V240.87H265.81V241.52H267.53V240.89H269.26V240.52H270.99V240.11H272.71V237.26H274.44V236.63H276.16V236.61H277.89V236.59H279.62V191.43H281.34V202H283.07V193.64H284.79V195.32H286.52V188.56H288.25V189.55H289.97V189.48H291.7V190.23H293.42V189.78H295.15V191.16H296.88V183.88H298.6V187.08H300.33V186.35H302.05V185.24H303.78V187.08H305.51V181.84H307.23V184.03H308.96V182.31H310.68V182.72H312.41V182.09H314.14V183.74H315.86V182.2H317.59V185.88H319.32V184.52H321.04V182H322.77V185.82H324.49V182.36H326.22V181.11H327.95V178.54H329.67V173.86H331.4V177.93H333.12V176.37H334.85V174.97H336.58V176.27H338.3V171.44H340.03V174.35H341.75V176.73H343.48V180.74H345.21V178.58H346.93V174.45H348.66V179.64H350.38V179.88H352.11V182.02H353.84V182.75H355.56V184.61H357.29V184.23H359.01V183.39H360.74V194.61H362.47V189.64H364.19V188.3H365.92V194.03H367.64V200.6H369.37V208.81H371.1V217.3H372.82V220.26H374.55V220.64H376.27V222.51H378V220.68H379.73V218.88H381.45V227.59H383.18V228.68H384.9V234.11H386.63V230.2H388.36V229.53H390.08V240.79H391.81V243.45H393.53V238.44H395.26V239.61H396.99V242.54H398.71V246.25H400.44V243.75H402.16V244.34H403.89V244.9H405.62V240.62H407.34V245.73H409.07V250.08H410.79V253.66H412.52V261.74H414.25V269H415.97V274H417.7V269.95H419.42V274H421.15V274H422.88V274H424.6V260.93H426.33V274H428.05V274H429.78V274H431.51V257.65H433.23V270.42H434.96V240.53H436.68V231.2H438.41V240.42H440.14V237.1H441.86V224.48H443.59V201.09H445.32V202.74H447.04V229.83H448.77V225.23H450.49V236.77H452.22V233.27H453.95V235.56H455.67V233.15H457.4V244.18H459.12V240.67H460.85V239.42H462.58V240.08H464.3V239.3H466.03V232.13H467.75V232.49H469.48V228.23H471.21V223.22H472.93V219.99H474.66V226.56H476.38V224.45H478.11V221.33H479.84V219.94H481.56V227.31H483.29V225.37H485.01V224.66H486.74V232.06H488.47V237.25H490.19V242.23H491.92V245.76H493.64V237.4H495.37V232.72H497.1V230.43H498.82V227.91H500.55V228.61H502.27V233.25H504V231.94H505.73V233.81H507.45V232.26H509.18V240.23H510.9V242.67H512.63V243.15H514.36V240.35H516.08V227.16H517.81V228.94H519.53V230.55H521.26V229.77H522.99V234.57H524.71V240.49H526.44V254.78H528.16V258.24H529.89V261.12H531.62V269.41H533.34V266.66H535.07V272.64H536.79V267.62H538.52V264.37H540.25V265.82H541.97V263.52H543.7V261.88H545.42V264.89H547.15V274H548.88V274H550.6V274H552.33V273.17H554.05V274H555.78V274H557.51V274H559.23V274H560.96V274H562.68V274H564.41V274H566.14V274H567.86V274H569.59V274H571.32V274H573.04V274H574.77V274H576.49V274H578.22V274H579.95V274H581.67V274H583.4V274H585.12V274H586.85V274H588.58V274H590.3V274H592.03V274H593.75V274H595.48V274H597.21V274H598.93V274H600.66V274H602.38V274H604.11V274H605.84V274H607.56V274H609.29V274H611.01V274H612.74V274H614.47V274H616.19V274H617.92V274H619.64V274H621.37V274H623.1V274H624.82V274H626.55V274H628.27V274H630V274L630,274V274H628.27V274H626.55V274H624.82V274H623.1V274H621.37V274H619.64V274H617.92V274H616.19V274H614.47V274H612.74V274H611.01V274H609.29V274H607.56V274H605.84V274H604.11V274H602.38V274H600.66V274H598.93V274H597.21V274H595.48V274H593.75V274H592.03V274H590.3V274H588.58V274H586.85V274H585.12V274H583.4V274H581.67V274H579.95V274H578.22V274H576.49V274H574.77V274H573.04V274H571.32V274H569.59V274H567.86V274H566.14V274H564.41V274H562.68V274H560.96V274H559.23V274H557.51V274H555.78V274H554.05V274H552.33V274H550.6V274H548.88V274H547.15V274H545.42V274H543.7V274H541.97V274H540.25V274H538.52V274H536.79V274H535.07V274H533.34V274H531.62V274H529.89V274H528.16V274H526.44V274H524.71V274H522.99V274H521.26V274H519.53V274H517.81V274H516.08V274H514.36V274H512.63V274H510.9V274H509.18V274H507.45V274H505.73V274H504V274H502.27V274H500.55V274H498.82V274H497.1V274H495.37V274H493.64V274H491.92V274H490.19V274H488.47V274H486.74V274H485.01V274H483.29V274H481.56V274H479.84V274H478.11V274H476.38V274H474.66V274H472.93V274H471.21V274H469.48V274H467.75V274H466.03V274H464.3V274H462.58V274H460.85V274H459.12V274H457.4V274H455.67V274H453.95V274H452.22V274H450.49V274H448.77V274H447.04V274H445.32V274H443.59V274H441.86V274H440.14V274H438.41V274H436.68V274H434.96V274H433.23V274H431.51V274H429.78V274H428.05V274H426.33V274H424.6V274H422.88V274H421.15V274H419.42V269.95H417.7V274H415.97V269H414.25V261.74H412.52V253.66H410.79V250.08H409.07V245.73H407.34V240.62H405.62V244.9H403.89V244.34H402.16V243.75H400.44V246.25H398.71V242.54H396.99V239.61H395.26V238.44H393.53V243.45H391.81V240.79H390.08V229.53H388.36V230.2H386.63V234.11H384.9V228.68H383.18V227.59H381.45V218.88H379.73V220.68H378V222.51H376.27V220.64H374.55V220.26H372.82V217.3H371.1V208.81H369.37V200.6H367.64V194.03H365.92V188.3H364.19V189.64H362.47V194.61H360.74V183.39H359.01V184.23H357.29V184.61H355.56V182.75H353.84V182.02H352.11V179.88H350.38V179.64H348.66V174.45H346.93V178.58H345.21V180.74H343.48V176.73H341.75V174.35H340.03V171.44H338.3V176.27H336.58V174.97H334.85V176.37H333.12V177.93H331.4V173.86H329.67V178.54H327.95V181.11H326.22V182.36H324.49V185.82H322.77V182H321.04V184.52H319.32V185.88H317.59V182.2H315.86V183.74H314.14V182.09H312.41V182.72H310.68V182.31H308.96V184.03H307.23V181.84H305.51V187.08H303.78V185.24H302.05V186.35H300.33V187.08H298.6V183.88H296.88V191.16H295.15V189.78H293.42V190.23H291.7V189.48H289.97V189.55H288.25V188.56H286.52V195.32H284.79V193.64H283.07V202H281.34V191.43H279.62V236.59H277.89V236.61H276.16V236.63H274.44V237.26H272.71V240.11H270.99V240.52H269.26V240.89H267.53V241.52H265.81V240.87H264.08V242.67H262.36V240.52H260.63V243.98H258.9V244.77H257.18V249.36H255.45V249.84H253.73V254.78H252V259.98H250.27V258.33H248.55V254.98H246.82V271.93H245.1V253.96H243.37V263.74H241.64V274H239.92V274H238.19V274H236.47V274H234.74V274H233.01V274H231.29V274H229.56V274H227.84V274H226.11V274H224.38V274H222.66V274H220.93V274H219.21V274H217.48V274H215.75V274H214.03V274H212.3V274H210.58V274H208.85V274H207.12V274H205.4V274H203.67V274H201.95V274H200.22V274H198.49V274H196.77V274H195.04V274H193.32V274H191.59V274H189.86V274H188.14V274H186.41V274H184.68V274H182.96V274H181.23V274H179.51V274H177.78V274H176.05V274H174.33V274H172.6V274H170.88V274H169.15V274H167.42V274H165.7V274H163.97V274H162.25V274H160.52V274H158.79V274H157.07V274H155.34V274H153.62V274H151.89V274H150.16V274H148.44V274H146.71V274H144.99V274H143.26V274H141.53V274H139.81V274H138.08V274H136.36V274H134.63V274H132.9V274H131.18V274H129.45V274H127.73V274H126V274H124.27V274H122.55V274H120.82V274H119.1V274H117.37V274H115.64V274H113.92V274H112.19V274H110.47V274H108.74V274H107.01V274H105.29V274H103.56V274H101.84V274H100.11V274H98.38V274H96.66V274H94.93V274H93.21V274H91.48V274H89.75V274H88.03V274H86.3V274H84.58V274H82.85V271.03H81.12V255.88H79.4V221.06H77.67V214.01H75.95V222.36H74.22V219.29H72.49V219.39H70.77V209.09H69.04V199.72H67.32V206.42H65.59V173.48H63.86V157.81H62.14V151.09H60.41V142.3H58.68V151.98H56.96V141.07H55.23V155.55H53.51V138.29H51.78V147.82H50.05V160.55H48.33V168.99H46.6V207.2H44.88V204.31H43.15V152.43H41.42V199.88H39.7V160.62H37.97V183.05H36.25V193.33H34.52V274H32.79V112.41H31.07V161.4H29.34V220.58H27.62V249.6H25.89V203.28H24.16V219.76H22.44V94.68H20.71V155.06H18.99V215.83H17.26V177.5H15.53V274H13.81V221.94H12.08V221.94H10.36V221.94H8.63V221.94H6.9V221.94H5.18V221.94H3.45V221.94H1.73V221.94H0Z" style="fill: rgb(255, 127, 14); fill-opacity: 0.8; stroke-width: 0;"/></g></g><g class="errorbars"/><g class="lines"><path class="js-line" d="M0,221.94H1.73V221.94H3.45V221.94H5.18V221.94H6.9V221.94H8.63V221.94H10.36V221.94H12.08V221.94H13.81V274H15.53V177.5H17.26V215.83H18.99V155.06H20.71V94.68H22.44V219.76H24.16V203.28H25.89V249.6H27.62V220.58H29.34V161.4H31.07V112.41H32.79V274H34.52V193.33H36.25V183.05H37.97V160.62H39.7V199.88H41.42V152.43H43.15V204.31H44.88V207.2H46.6V168.99H48.33V160.55H50.05V147.82H51.78V138.29H53.51V155.55H55.23V141.07H56.96V151.98H58.68V142.3H60.41V151.09H62.14V157.81H63.86V173.48H65.59V206.42H67.32V199.72H69.04V209.09H70.77V219.39H72.49V219.29H74.22V222.36H75.95V214.01H77.67V221.06H79.4V255.88H81.12V271.03H82.85V274H84.58V274H86.3V274H88.03V274H89.75V274H91.48V274H93.21V274H94.93V274H96.66V274H98.38V274H100.11V274H101.84V274H103.56V274H105.29V274H107.01V274H108.74V274H110.47V274H112.19V274H113.92V274H115.64V274H117.37V274H119.1V274H120.82V274H122.55V274H124.27V274H126V274H127.73V274H129.45V274H131.18V274H132.9V274H134.63V274H136.36V274H138.08V274H139.81V274H141.53V274H143.26V274H144.99V274H146.71V274H148.44V274H150.16V274H151.89V274H153.62V274H155.34V274H157.07V274H158.79V274H160.52V274H162.25V274H163.97V274H165.7V274H167.42V274H169.15V274H170.88V274H172.6V274H174.33V274H176.05V274H177.78V274H179.51V274H181.23V274H182.96V274H184.68V274H186.41V274H188.14V274H189.86V274H191.59V274H193.32V274H195.04V274H196.77V274H198.49V274H200.22V274H201.95V274H203.67V274H205.4V274H207.12V274H208.85V274H210.58V274H212.3V274H214.03V274H215.75V274H217.48V274H219.21V274H220.93V274H222.66V274H224.38V274H226.11V274H227.84V274H229.56V274H231.29V274H233.01V274H234.74V274H236.47V274H238.19V274H239.92V274H241.64V263.74H243.37V253.96H245.1V271.93H246.82V254.98H248.55V258.33H250.27V259.98H252V254.78H253.73V249.84H255.45V249.36H257.18V244.77H258.9V243.98H260.63V240.52H262.36V242.67H264.08V240.87H265.81V241.52H267.53V240.89H269.26V240.52H270.99V240.11H272.71V237.26H274.44V236.63H276.16V236.61H277.89V236.59H279.62V191.43H281.34V202H283.07V193.64H284.79V195.32H286.52V188.56H288.25V189.55H289.97V189.48H291.7V190.23H293.42V189.78H295.15V191.16H296.88V183.88H298.6V187.08H300.33V186.35H302.05V185.24H303.78V187.08H305.51V181.84H307.23V184.03H308.96V182.31H310.68V182.72H312.41V182.09H314.14V183.74H315.86V182.2H317.59V185.88H319.32V184.52H321.04V182H322.77V185.82H324.49V182.36H326.22V181.11H327.95V178.54H329.67V173.86H331.4V177.93H333.12V176.37H334.85V174.97H336.58V176.27H338.3V171.44H340.03V174.35H341.75V176.73H343.48V180.74H345.21V178.58H346.93V174.45H348.66V179.64H350.38V179.88H352.11V182.02H353.84V182.75H355.56V184.61H357.29V184.23H359.01V183.39H360.74V194.61H362.47V189.64H364.19V188.3H365.92V194.03H367.64V200.6H369.37V208.81H371.1V217.3H372.82V220.26H374.55V220.64H376.27V222.51H378V220.68H379.73V218.88H381.45V227.59H383.18V228.68H384.9V234.11H386.63V230.2H388.36V229.53H390.08V240.79H391.81V243.45H393.53V238.44H395.26V239.61H396.99V242.54H398.71V246.25H400.44V243.75H402.16V244.34H403.89V244.9H405.62V240.62H407.34V245.73H409.07V250.08H410.79V253.66H412.52V261.74H414.25V269H415.97V274H417.7V269.95H419.42V274H421.15V274H422.88V274H424.6V274H426.33V274H428.05V274H429.78V274H431.51V274H433.23V274H434.96V274H436.68V274H438.41V274H440.14V274H441.86V274H443.59V274H445.32V274H447.04V274H448.77V274H450.49V274H452.22V274H453.95V274H455.67V274H457.4V274H459.12V274H460.85V274H462.58V274H464.3V274H466.03V274H467.75V274H469.48V274H471.21V274H472.93V274H474.66V274H476.38V274H478.11V274H479.84V274H481.56V274H483.29V274H485.01V274H486.74V274H488.47V274H490.19V274H491.92V274H493.64V274H495.37V274H497.1V274H498.82V274H500.55V274H502.27V274H504V274H505.73V274H507.45V274H509.18V274H510.9V274H512.63V274H514.36V274H516.08V274H517.81V274H519.53V274H521.26V274H522.99V274H524.71V274H526.44V274H528.16V274H529.89V274H531.62V274H533.34V274H535.07V274H536.79V274H538.52V274H540.25V274H541.97V274H543.7V274H545.42V274H547.15V274H548.88V274H550.6V274H552.33V274H554.05V274H555.78V274H557.51V274H559.23V274H560.96V274H562.68V274H564.41V274H566.14V274H567.86V274H569.59V274H571.32V274H573.04V274H574.77V274H576.49V274H578.22V274H579.95V274H581.67V274H583.4V274H585.12V274H586.85V274H588.58V274H590.3V274H592.03V274H593.75V274H595.48V274H597.21V274H598.93V274H600.66V274H602.38V274H604.11V274H605.84V274H607.56V274H609.29V274H611.01V274H612.74V274H614.47V274H616.19V274H617.92V274H619.64V274H621.37V274H623.1V274H624.82V274H626.55V274H628.27V274H630V274" style="vector-effect: none; fill: none; stroke: rgb(31, 119, 180); stroke-opacity: 1; stroke-width: 0px; opacity: 1;"/></g><g class="points"/><g class="text"/></g><g class="trace scatter trace2dbc7ca5-1eeb-4264-8724-f760d1d6b7de" style="stroke-miterlimit: 2;"><g class="fills"><g><path class="js-fill" d="M0,117.82H1.73V117.82H3.45V117.82H5.18V117.82H6.9V117.82H8.63V117.82H10.36V117.82H12.08V117.82H13.81V68.29H15.53V87.32H17.26V73.85H18.99V66.88H20.71V18.24H22.44V92.69H24.16V61.11H25.89V79.37H27.62V78.79H29.34V52.27H31.07V25.8H32.79V126.56H34.52V108.65H36.25V108.94H37.97V110.6H39.7V154.97H41.42V152.43H43.15V155.41H44.88V151.06H46.6V131.57H48.33V124.78H50.05V132.59H51.78V128.8H53.51V136.84H55.23V141.07H56.96V151.98H58.68V142.3H60.41V151.09H62.14V157.81H63.86V173.48H65.59V164.91H67.32V175.37H69.04V134.98H70.77V106.66H72.49V117.18H74.22V128.94H75.95V148.78H77.67V155.36H79.4V220.81H81.12V246.69H82.85V256.79H84.58V260.85H86.3V270.13H88.03V272.99H89.75V274H91.48V274H93.21V274H94.93V274H96.66V274H98.38V274H100.11V274H101.84V274H103.56V274H105.29V274H107.01V274H108.74V274H110.47V274H112.19V267.55H113.92V274H115.64V274H117.37V274H119.1V274H120.82V274H122.55V274H124.27V274H126V274H127.73V274H129.45V274H131.18V274H132.9V274H134.63V274H136.36V274H138.08V274H139.81V274H141.53V274H143.26V274H144.99V274H146.71V274H148.44V274H150.16V274H151.89V274H153.62V274H155.34V274H157.07V274H158.79V274H160.52V274H162.25V274H163.97V274H165.7V274H167.42V274H169.15V274H170.88V274H172.6V274H174.33V274H176.05V274H177.78V274H179.51V274H181.23V274H182.96V274H184.68V274H186.41V274H188.14V274H189.86V274H191.59V274H193.32V274H195.04V274H196.77V274H198.49V274H200.22V274H201.95V274H203.67V274H205.4V274H207.12V274H208.85V274H210.58V274H212.3V274H214.03V274H215.75V274H217.48V274H219.21V274H220.93V254.8H222.66V274H224.38V274H226.11V274H227.84V274H229.56V264.61H231.29V257.88H233.01V254.97H234.74V255.4H236.47V255.05H238.19V251.87H239.92V254.16H241.64V251.45H243.37V253.96H245.1V255.83H246.82V254.98H248.55V258.33H250.27V259.98H252V254.78H253.73V249.84H255.45V249.36H257.18V244.77H258.9V243.98H260.63V240.52H262.36V242.67H264.08V240.87H265.81V241.52H267.53V240.89H269.26V240.52H270.99V240.11H272.71V237.26H274.44V236.63H276.16V236.61H277.89V236.59H279.62V191.43H281.34V202H283.07V193.64H284.79V195.32H286.52V188.56H288.25V189.55H289.97V189.48H291.7V190.23H293.42V189.78H295.15V191.16H296.88V183.88H298.6V187.08H300.33V186.35H302.05V185.24H303.78V187.08H305.51V181.84H307.23V184.03H308.96V182.31H310.68V182.72H312.41V182.09H314.14V183.74H315.86V182.2H317.59V185.88H319.32V184.52H321.04V182H322.77V185.82H324.49V182.36H326.22V181.11H327.95V178.54H329.67V173.86H331.4V177.93H333.12V176.37H334.85V174.97H336.58V176.27H338.3V171.44H340.03V174.35H341.75V176.73H343.48V180.74H345.21V178.58H346.93V174.45H348.66V179.64H350.38V179.88H352.11V182.02H353.84V182.75H355.56V184.61H357.29V184.23H359.01V183.39H360.74V180.95H362.47V189.64H364.19V187H365.92V194.03H367.64V200.6H369.37V208.81H371.1V217.3H372.82V220.26H374.55V220.64H376.27V222.51H378V220.68H379.73V218.88H381.45V227.59H383.18V228.68H384.9V234.11H386.63V230.2H388.36V229.53H390.08V240.79H391.81V243.45H393.53V238.44H395.26V239.61H396.99V242.54H398.71V246.25H400.44V243.75H402.16V244.34H403.89V244.9H405.62V240.62H407.34V245.73H409.07V250.08H410.79V253.66H412.52V261.74H414.25V269H415.97V274H417.7V269.95H419.42V274H421.15V274H422.88V274H424.6V260.93H426.33V274H428.05V274H429.78V274H431.51V257.65H433.23V270.42H434.96V240.53H436.68V231.2H438.41V240.42H440.14V237.1H441.86V224.48H443.59V201.09H445.32V202.74H447.04V229.83H448.77V225.23H450.49V236.77H452.22V233.27H453.95V235.56H455.67V233.15H457.4V244.18H459.12V240.67H460.85V239.42H462.58V240.08H464.3V239.3H466.03V232.13H467.75V232.49H469.48V228.23H471.21V223.22H472.93V219.99H474.66V226.56H476.38V224.45H478.11V221.33H479.84V219.94H481.56V227.31H483.29V225.37H485.01V224.66H486.74V232.06H488.47V237.25H490.19V242.23H491.92V244.48H493.64V237.4H495.37V232.72H497.1V230.43H498.82V227.91H500.55V228.02H502.27V229.8H504V228.75H505.73V220.08H507.45V186.97H509.18V174.68H510.9V170.96H512.63V173.51H514.36V175.8H516.08V198.6H517.81V194.54H519.53V188.89H521.26V196.44H522.99V195.01H524.71V198.64H526.44V169.84H528.16V171.21H529.89V173.35H531.62V172.1H533.34V171.44H535.07V155.27H536.79V159.32H538.52V171.8H540.25V168.1H541.97V160.49H543.7V163.61H545.42V161.74H547.15V154.4H548.88V155.51H550.6V159.3H552.33V165.22H554.05V153.29H555.78V145.03H557.51V145.38H559.23V139.67H560.96V137H562.68V151.84H564.41V152.68H566.14V161.65H567.86V162.54H569.59V163.46H571.32V188.21H573.04V189.42H574.77V191.29H576.49V183.76H578.22V180.06H579.95V179.96H581.67V132.83H583.4V133.37H585.12V134.69H586.85V134.75H588.58V137.68H590.3V133.37H592.03V144.06H593.75V145.6H595.48V149.77H597.21V149.89H598.93V137.67H600.66V139.4H602.38V138.9H604.11V135.51H605.84V130.09H607.56V124.42H609.29V124.95H611.01V117.66H612.74V107.06H614.47V112.99H616.19V99H617.92V104.79H619.64V102.04H621.37V99.74H623.1V97.36H624.82V97.5H626.55V96.61H628.27V94.55H630V89.79L630,274V274H628.27V274H626.55V274H624.82V274H623.1V274H621.37V274H619.64V274H617.92V274H616.19V274H614.47V274H612.74V274H611.01V274H609.29V274H607.56V274H605.84V274H604.11V274H602.38V274H600.66V274H598.93V274H597.21V274H595.48V274H593.75V274H592.03V274H590.3V274H588.58V274H586.85V274H585.12V274H583.4V274H581.67V274H579.95V274H578.22V274H576.49V274H574.77V274H573.04V274H571.32V274H569.59V274H567.86V274H566.14V274H564.41V274H562.68V274H560.96V274H559.23V274H557.51V274H555.78V274H554.05V273.17H552.33V274H550.6V274H548.88V274H547.15V264.89H545.42V261.88H543.7V263.52H541.97V265.82H540.25V264.37H538.52V267.62H536.79V272.64H535.07V266.66H533.34V269.41H531.62V261.12H529.89V258.24H528.16V254.78H526.44V240.49H524.71V234.57H522.99V229.77H521.26V230.55H519.53V228.94H517.81V227.16H516.08V240.35H514.36V243.15H512.63V242.67H510.9V240.23H509.18V232.26H507.45V233.81H505.73V231.94H504V233.25H502.27V228.61H500.55V227.91H498.82V230.43H497.1V232.72H495.37V237.4H493.64V245.76H491.92V242.23H490.19V237.25H488.47V232.06H486.74V224.66H485.01V225.37H483.29V227.31H481.56V219.94H479.84V221.33H478.11V224.45H476.38V226.56H474.66V219.99H472.93V223.22H471.21V228.23H469.48V232.49H467.75V232.13H466.03V239.3H464.3V240.08H462.58V239.42H460.85V240.67H459.12V244.18H457.4V233.15H455.67V235.56H453.95V233.27H452.22V236.77H450.49V225.23H448.77V229.83H447.04V202.74H445.32V201.09H443.59V224.48H441.86V237.1H440.14V240.42H438.41V231.2H436.68V240.53H434.96V270.42H433.23V257.65H431.51V274H429.78V274H428.05V274H426.33V260.93H424.6V274H422.88V274H421.15V274H419.42V269.95H417.7V274H415.97V269H414.25V261.74H412.52V253.66H410.79V250.08H409.07V245.73H407.34V240.62H405.62V244.9H403.89V244.34H402.16V243.75H400.44V246.25H398.71V242.54H396.99V239.61H395.26V238.44H393.53V243.45H391.81V240.79H390.08V229.53H388.36V230.2H386.63V234.11H384.9V228.68H383.18V227.59H381.45V218.88H379.73V220.68H378V222.51H376.27V220.64H374.55V220.26H372.82V217.3H371.1V208.81H369.37V200.6H367.64V194.03H365.92V188.3H364.19V189.64H362.47V194.61H360.74V183.39H359.01V184.23H357.29V184.61H355.56V182.75H353.84V182.02H352.11V179.88H350.38V179.64H348.66V174.45H346.93V178.58H345.21V180.74H343.48V176.73H341.75V174.35H340.03V171.44H338.3V176.27H336.58V174.97H334.85V176.37H333.12V177.93H331.4V173.86H329.67V178.54H327.95V181.11H326.22V182.36H324.49V185.82H322.77V182H321.04V184.52H319.32V185.88H317.59V182.2H315.86V183.74H314.14V182.09H312.41V182.72H310.68V182.31H308.96V184.03H307.23V181.84H305.51V187.08H303.78V185.24H302.05V186.35H300.33V187.08H298.6V183.88H296.88V191.16H295.15V189.78H293.42V190.23H291.7V189.48H289.97V189.55H288.25V188.56H286.52V195.32H284.79V193.64H283.07V202H281.34V191.43H279.62V236.59H277.89V236.61H276.16V236.63H274.44V237.26H272.71V240.11H270.99V240.52H269.26V240.89H267.53V241.52H265.81V240.87H264.08V242.67H262.36V240.52H260.63V243.98H258.9V244.77H257.18V249.36H255.45V249.84H253.73V254.78H252V259.98H250.27V258.33H248.55V254.98H246.82V271.93H245.1V253.96H243.37V263.74H241.64V274H239.92V274H238.19V274H236.47V274H234.74V274H233.01V274H231.29V274H229.56V274H227.84V274H226.11V274H224.38V274H222.66V274H220.93V274H219.21V274H217.48V274H215.75V274H214.03V274H212.3V274H210.58V274H208.85V274H207.12V274H205.4V274H203.67V274H201.95V274H200.22V274H198.49V274H196.77V274H195.04V274H193.32V274H191.59V274H189.86V274H188.14V274H186.41V274H184.68V274H182.96V274H181.23V274H179.51V274H177.78V274H176.05V274H174.33V274H172.6V274H170.88V274H169.15V274H167.42V274H165.7V274H163.97V274H162.25V274H160.52V274H158.79V274H157.07V274H155.34V274H153.62V274H151.89V274H150.16V274H148.44V274H146.71V274H144.99V274H143.26V274H141.53V274H139.81V274H138.08V274H136.36V274H134.63V274H132.9V274H131.18V274H129.45V274H127.73V274H126V274H124.27V274H122.55V274H120.82V274H119.1V274H117.37V274H115.64V274H113.92V267.55H112.19V274H110.47V274H108.74V274H107.01V274H105.29V274H103.56V274H101.84V274H100.11V274H98.38V274H96.66V274H94.93V274H93.21V274H91.48V274H89.75V272.99H88.03V270.13H86.3V260.85H84.58V256.79H82.85V246.69H81.12V220.81H79.4V155.36H77.67V148.78H75.95V128.94H74.22V117.18H72.49V106.66H70.77V134.98H69.04V175.37H67.32V164.91H65.59V173.48H63.86V157.81H62.14V151.09H60.41V142.3H58.68V151.98H56.96V141.07H55.23V155.55H53.51V138.29H51.78V147.82H50.05V160.55H48.33V168.99H46.6V164.69H44.88V155.97H43.15V152.43H41.42V163.07H39.7V129.03H37.97V118.83H36.25V155.92H34.52V186.85H32.79V112.41H31.07V114.97H29.34V177.17H27.62V119.22H25.89V203.28H24.16V219.76H22.44V94.68H20.71V155.06H18.99V215.83H17.26V177.5H15.53V274H13.81V169.88H12.08V169.88H10.36V169.88H8.63V169.88H6.9V169.88H5.18V169.88H3.45V169.88H1.73V169.88H0Z" style="fill: rgb(44, 160, 44); fill-opacity: 0.8; stroke-width: 0;"/></g></g><g class="errorbars"/><g class="lines"><path class="js-line" d="M0,169.88H1.73V169.88H3.45V169.88H5.18V169.88H6.9V169.88H8.63V169.88H10.36V169.88H12.08V169.88H13.81V274H15.53V177.5H17.26V215.83H18.99V155.06H20.71V94.68H22.44V219.76H24.16V203.28H25.89V119.22H27.62V177.17H29.34V114.97H31.07V112.41H32.79V186.85H34.52V155.92H36.25V118.83H37.97V129.03H39.7V163.07H41.42V152.43H43.15V155.97H44.88V164.69H46.6V168.99H48.33V160.55H50.05V147.82H51.78V138.29H53.51V155.55H55.23V141.07H56.96V151.98H58.68V142.3H60.41V151.09H62.14V157.81H63.86V173.48H65.59V164.91H67.32V175.37H69.04V134.98H70.77V106.66H72.49V117.18H74.22V128.94H75.95V148.78H77.67V155.36H79.4V220.81H81.12V246.69H82.85V256.79H84.58V260.85H86.3V270.13H88.03V272.99H89.75V274H91.48V274H93.21V274H94.93V274H96.66V274H98.38V274H100.11V274H101.84V274H103.56V274H105.29V274H107.01V274H108.74V274H110.47V274H112.19V267.55H113.92V274H115.64V274H117.37V274H119.1V274H120.82V274H122.55V274H124.27V274H126V274H127.73V274H129.45V274H131.18V274H132.9V274H134.63V274H136.36V274H138.08V274H139.81V274H141.53V274H143.26V274H144.99V274H146.71V274H148.44V274H150.16V274H151.89V274H153.62V274H155.34V274H157.07V274H158.79V274H160.52V274H162.25V274H163.97V274H165.7V274H167.42V274H169.15V274H170.88V274H172.6V274H174.33V274H176.05V274H177.78V274H179.51V274H181.23V274H182.96V274H184.68V274H186.41V274H188.14V274H189.86V274H191.59V274H193.32V274H195.04V274H196.77V274H198.49V274H200.22V274H201.95V274H203.67V274H205.4V274H207.12V274H208.85V274H210.58V274H212.3V274H214.03V274H215.75V274H217.48V274H219.21V274H220.93V274H222.66V274H224.38V274H226.11V274H227.84V274H229.56V274H231.29V274H233.01V274H234.74V274H236.47V274H238.19V274H239.92V274H241.64V263.74H243.37V253.96H245.1V271.93H246.82V254.98H248.55V258.33H250.27V259.98H252V254.78H253.73V249.84H255.45V249.36H257.18V244.77H258.9V243.98H260.63V240.52H262.36V242.67H264.08V240.87H265.81V241.52H267.53V240.89H269.26V240.52H270.99V240.11H272.71V237.26H274.44V236.63H276.16V236.61H277.89V236.59H279.62V191.43H281.34V202H283.07V193.64H284.79V195.32H286.52V188.56H288.25V189.55H289.97V189.48H291.7V190.23H293.42V189.78H295.15V191.16H296.88V183.88H298.6V187.08H300.33V186.35H302.05V185.24H303.78V187.08H305.51V181.84H307.23V184.03H308.96V182.31H310.68V182.72H312.41V182.09H314.14V183.74H315.86V182.2H317.59V185.88H319.32V184.52H321.04V182H322.77V185.82H324.49V182.36H326.22V181.11H327.95V178.54H329.67V173.86H331.4V177.93H333.12V176.37H334.85V174.97H336.58V176.27H338.3V171.44H340.03V174.35H341.75V176.73H343.48V180.74H345.21V178.58H346.93V174.45H348.66V179.64H350.38V179.88H352.11V182.02H353.84V182.75H355.56V184.61H357.29V184.23H359.01V183.39H360.74V194.61H362.47V189.64H364.19V188.3H365.92V194.03H367.64V200.6H369.37V208.81H371.1V217.3H372.82V220.26H374.55V220.64H376.27V222.51H378V220.68H379.73V218.88H381.45V227.59H383.18V228.68H384.9V234.11H386.63V230.2H388.36V229.53H390.08V240.79H391.81V243.45H393.53V238.44H395.26V239.61H396.99V242.54H398.71V246.25H400.44V243.75H402.16V244.34H403.89V244.9H405.62V240.62H407.34V245.73H409.07V250.08H410.79V253.66H412.52V261.74H414.25V269H415.97V274H417.7V269.95H419.42V274H421.15V274H422.88V274H424.6V260.93H426.33V274H428.05V274H429.78V274H431.51V257.65H433.23V270.42H434.96V240.53H436.68V231.2H438.41V240.42H440.14V237.1H441.86V224.48H443.59V201.09H445.32V202.74H447.04V229.83H448.77V225.23H450.49V236.77H452.22V233.27H453.95V235.56H455.67V233.15H457.4V244.18H459.12V240.67H460.85V239.42H462.58V240.08H464.3V239.3H466.03V232.13H467.75V232.49H469.48V228.23H471.21V223.22H472.93V219.99H474.66V226.56H476.38V224.45H478.11V221.33H479.84V219.94H481.56V227.31H483.29V225.37H485.01V224.66H486.74V232.06H488.47V237.25H490.19V242.23H491.92V245.76H493.64V237.4H495.37V232.72H497.1V230.43H498.82V227.91H500.55V228.61H502.27V233.25H504V231.94H505.73V233.81H507.45V232.26H509.18V240.23H510.9V242.67H512.63V243.15H514.36V240.35H516.08V227.16H517.81V228.94H519.53V230.55H521.26V229.77H522.99V234.57H524.71V240.49H526.44V254.78H528.16V258.24H529.89V261.12H531.62V269.41H533.34V266.66H535.07V272.64H536.79V267.62H538.52V264.37H540.25V265.82H541.97V263.52H543.7V261.88H545.42V264.89H547.15V274H548.88V274H550.6V274H552.33V273.17H554.05V274H555.78V274H557.51V274H559.23V274H560.96V274H562.68V274H564.41V274H566.14V274H567.86V274H569.59V274H571.32V274H573.04V274H574.77V274H576.49V274H578.22V274H579.95V274H581.67V274H583.4V274H585.12V274H586.85V274H588.58V274H590.3V274H592.03V274H593.75V274H595.48V274H597.21V274H598.93V274H600.66V274H602.38V274H604.11V274H605.84V274H607.56V274H609.29V274H611.01V274H612.74V274H614.47V274H616.19V274H617.92V274H619.64V274H621.37V274H623.1V274H624.82V274H626.55V274H628.27V274H630V274" style="vector-effect: none; fill: none; stroke: rgb(255, 127, 14); stroke-opacity: 1; stroke-width: 0px; opacity: 1;"/></g><g class="points"/><g class="text"/></g><g class="trace scatter trace162efbff-0ad7-4a93-98ac-67f7ecbde8cc" style="stroke-miterlimit: 2;"><g class="fills"><g><path class="js-fill" d="M0,65.76H1.73V65.76H3.45V65.76H5.18V65.76H6.9V65.76H8.63V65.76H10.36V65.76H12.08V65.76H13.81V68.29H15.53V87.32H17.26V73.85H18.99V66.88H20.71V18.24H22.44V92.69H24.16V61.11H25.89V79.37H27.62V78.79H29.34V52.27H31.07V25.8H32.79V110.25H34.52V108.65H36.25V108.94H37.97V110.6H39.7V148.62H41.42V152.43H43.15V155.41H44.88V137.82H46.6V131.57H48.33V124.78H50.05V132.59H51.78V128.8H53.51V136.84H55.23V141.07H56.96V133.43H58.68V132.82H60.41V131.32H62.14V115.54H63.86V95.26H65.59V72.89H67.32V71.54H69.04V73.95H70.77V82.31H72.49V69.33H74.22V57.09H75.95V53.5H77.67V41.2H79.4V105.36H81.12V108.82H82.85V101.68H84.58V95.41H86.3V140.87H88.03V141.25H89.75V137.78H91.48V139.36H93.21V134.82H94.93V141.34H96.66V159.84H98.38V180.25H100.11V178.69H101.84V178.56H103.56V183.78H105.29V183.16H107.01V179.13H108.74V182.95H110.47V182.28H112.19V179.44H113.92V176.57H115.64V179.75H117.37V208.86H119.1V207.52H120.82V208.08H122.55V210.23H124.27V266.37H126V252.45H127.73V256.21H129.45V255.69H131.18V261.63H132.9V259.06H134.63V257.83H136.36V252.09H138.08V252.76H139.81V252.91H141.53V256.12H143.26V252.19H144.99V251.55H146.71V252.04H148.44V251.49H150.16V253.22H151.89V253.25H153.62V255.15H155.34V252.93H157.07V252.74H158.79V251.05H160.52V251.54H162.25V251.46H163.97V251.14H165.7V253.56H167.42V248.32H169.15V248.98H170.88V247.28H172.6V248.97H174.33V250.52H176.05V251.21H177.78V250.59H179.51V255.55H181.23V255.2H182.96V256.16H184.68V253.06H186.41V254.24H188.14V250.1H189.86V251.25H191.59V253.52H193.32V253.14H195.04V250.26H196.77V249.85H198.49V249.23H200.22V249.46H201.95V249.38H203.67V250.32H205.4V250.07H207.12V249.34H208.85V249.83H210.58V249.61H212.3V250.04H214.03V250.74H215.75V251.07H217.48V253.48H219.21V256.17H220.93V251.11H222.66V255.59H224.38V256.73H226.11V260.66H227.84V264.95H229.56V264.61H231.29V257.88H233.01V254.97H234.74V255.4H236.47V255.05H238.19V251.87H239.92V254.16H241.64V251.45H243.37V253.96H245.1V255.83H246.82V254.98H248.55V258.33H250.27V259.98H252V254.78H253.73V249.84H255.45V249.36H257.18V244.77H258.9V243.98H260.63V240.52H262.36V242.67H264.08V240.87H265.81V241.52H267.53V240.89H269.26V240.52H270.99V240.11H272.71V237.26H274.44V236.63H276.16V236.61H277.89V236.59H279.62V191.43H281.34V202H283.07V193.64H284.79V195.32H286.52V188.56H288.25V189.55H289.97V189.48H291.7V190.23H293.42V189.78H295.15V191.16H296.88V183.88H298.6V187.08H300.33V186.35H302.05V185.24H303.78V187.08H305.51V181.84H307.23V184.03H308.96V182.31H310.68V182.72H312.41V182.09H314.14V183.74H315.86V182.2H317.59V185.88H319.32V184.52H321.04V182H322.77V185.82H324.49V182.36H326.22V181.11H327.95V178.54H329.67V173.86H331.4V177.93H333.12V176.37H334.85V174.97H336.58V176.27H338.3V171.44H340.03V174.35H341.75V176.73H343.48V180.74H345.21V178.58H346.93V174.45H348.66V179.64H350.38V179.88H352.11V182.02H353.84V182.75H355.56V184.61H357.29V184.23H359.01V183.39H360.74V180.95H362.47V189.64H364.19V187H365.92V185.45H367.64V180.47H369.37V166.46H371.1V171.27H372.82V167.21H374.55V162.7H376.27V163.93H378V165.37H379.73V170.58H381.45V139.44H383.18V140.94H384.9V140.32H386.63V153.34H388.36V153.17H390.08V139.36H391.81V138.6H393.53V143.81H395.26V146.06H396.99V146.35H398.71V145.97H400.44V140.02H402.16V141.04H403.89V156.8H405.62V149.49H407.34V152.56H409.07V146.57H410.79V161.9H412.52V163.27H414.25V164.04H415.97V166.2H417.7V156.36H419.42V155.94H421.15V146.69H422.88V144.74H424.6V156.63H426.33V190.43H428.05V190.26H429.78V210.84H431.51V204.35H433.23V206.18H434.96V204.98H436.68V193.43H438.41V194.14H440.14V192.73H441.86V187.09H443.59V185.27H445.32V184.99H447.04V194.88H448.77V193.24H450.49V190.63H452.22V190.65H453.95V190.6H455.67V196.41H457.4V207.64H459.12V203.72H460.85V209.14H462.58V204.11H464.3V204.63H466.03V203.12H467.75V206.05H469.48V205.71H471.21V207.18H472.93V202.33H474.66V200.68H476.38V202.97H478.11V202.25H479.84V209.69H481.56V216.84H483.29V208.66H485.01V206.79H486.74V205.48H488.47V202.98H490.19V203.37H491.92V201.71H493.64V200.32H495.37V200.14H497.1V198.84H498.82V198.6H500.55V201.46H502.27V200.7H504V198.45H505.73V195.08H507.45V185.81H509.18V174.68H510.9V170.96H512.63V173.51H514.36V175.8H516.08V198.6H517.81V194.54H519.53V188.89H521.26V196.44H522.99V195.01H524.71V198.64H526.44V169.84H528.16V171.21H529.89V173.35H531.62V172.1H533.34V171.44H535.07V155.27H536.79V159.32H538.52V171.8H540.25V168.1H541.97V160.49H543.7V163.61H545.42V161.74H547.15V154.4H548.88V155.51H550.6V159.3H552.33V165.22H554.05V153.29H555.78V145.03H557.51V145.38H559.23V139.67H560.96V137H562.68V151.84H564.41V152.68H566.14V161.65H567.86V162.54H569.59V163.46H571.32V188.21H573.04V189.42H574.77V191.29H576.49V183.76H578.22V180.06H579.95V179.96H581.67V132.83H583.4V133.37H585.12V134.69H586.85V134.75H588.58V137.68H590.3V133.37H592.03V144.06H593.75V145.6H595.48V149.77H597.21V149.89H598.93V137.67H600.66V139.4H602.38V138.9H604.11V135.51H605.84V130.09H607.56V124.42H609.29V124.95H611.01V117.66H612.74V107.06H614.47V112.99H616.19V99H617.92V104.79H619.64V102.04H621.37V99.74H623.1V97.36H624.82V97.5H626.55V96.61H628.27V94.55H630V89.79L630,89.79V94.55H628.27V96.61H626.55V97.5H624.82V97.36H623.1V99.74H621.37V102.04H619.64V104.79H617.92V99H616.19V112.99H614.47V107.06H612.74V117.66H611.01V124.95H609.29V124.42H607.56V130.09H605.84V135.51H604.11V138.9H602.38V139.4H600.66V137.67H598.93V149.89H597.21V149.77H595.48V145.6H593.75V144.06H592.03V133.37H590.3V137.68H588.58V134.75H586.85V134.69H585.12V133.37H583.4V132.83H581.67V179.96H579.95V180.06H578.22V183.76H576.49V191.29H574.77V189.42H573.04V188.21H571.32V163.46H569.59V162.54H567.86V161.65H566.14V152.68H564.41V151.84H562.68V137H560.96V139.67H559.23V145.38H557.51V145.03H555.78V153.29H554.05V165.22H552.33V159.3H550.6V155.51H548.88V154.4H547.15V161.74H545.42V163.61H543.7V160.49H541.97V168.1H540.25V171.8H538.52V159.32H536.79V155.27H535.07V171.44H533.34V172.1H531.62V173.35H529.89V171.21H528.16V169.84H526.44V198.64H524.71V195.01H522.99V196.44H521.26V188.89H519.53V194.54H517.81V198.6H516.08V175.8H514.36V173.51H512.63V170.96H510.9V174.68H509.18V186.97H507.45V220.08H505.73V228.75H504V229.8H502.27V228.02H500.55V227.91H498.82V230.43H497.1V232.72H495.37V237.4H493.64V244.48H491.92V242.23H490.19V237.25H488.47V232.06H486.74V224.66H485.01V225.37H483.29V227.31H481.56V219.94H479.84V221.33H478.11V224.45H476.38V226.56H474.66V219.99H472.93V223.22H471.21V228.23H469.48V232.49H467.75V232.13H466.03V239.3H464.3V240.08H462.58V239.42H460.85V240.67H459.12V244.18H457.4V233.15H455.67V235.56H453.95V233.27H452.22V236.77H450.49V225.23H448.77V229.83H447.04V202.74H445.32V201.09H443.59V224.48H441.86V237.1H440.14V240.42H438.41V231.2H436.68V240.53H434.96V270.42H433.23V257.65H431.51V274H429.78V274H428.05V274H426.33V260.93H424.6V274H422.88V274H421.15V274H419.42V269.95H417.7V274H415.97V269H414.25V261.74H412.52V253.66H410.79V250.08H409.07V245.73H407.34V240.62H405.62V244.9H403.89V244.34H402.16V243.75H400.44V246.25H398.71V242.54H396.99V239.61H395.26V238.44H393.53V243.45H391.81V240.79H390.08V229.53H388.36V230.2H386.63V234.11H384.9V228.68H383.18V227.59H381.45V218.88H379.73V220.68H378V222.51H376.27V220.64H374.55V220.26H372.82V217.3H371.1V208.81H369.37V200.6H367.64V194.03H365.92V187H364.19V189.64H362.47V180.95H360.74V183.39H359.01V184.23H357.29V184.61H355.56V182.75H353.84V182.02H352.11V179.88H350.38V179.64H348.66V174.45H346.93V178.58H345.21V180.74H343.48V176.73H341.75V174.35H340.03V171.44H338.3V176.27H336.58V174.97H334.85V176.37H333.12V177.93H331.4V173.86H329.67V178.54H327.95V181.11H326.22V182.36H324.49V185.82H322.77V182H321.04V184.52H319.32V185.88H317.59V182.2H315.86V183.74H314.14V182.09H312.41V182.72H310.68V182.31H308.96V184.03H307.23V181.84H305.51V187.08H303.78V185.24H302.05V186.35H300.33V187.08H298.6V183.88H296.88V191.16H295.15V189.78H293.42V190.23H291.7V189.48H289.97V189.55H288.25V188.56H286.52V195.32H284.79V193.64H283.07V202H281.34V191.43H279.62V236.59H277.89V236.61H276.16V236.63H274.44V237.26H272.71V240.11H270.99V240.52H269.26V240.89H267.53V241.52H265.81V240.87H264.08V242.67H262.36V240.52H260.63V243.98H258.9V244.77H257.18V249.36H255.45V249.84H253.73V254.78H252V259.98H250.27V258.33H248.55V254.98H246.82V255.83H245.1V253.96H243.37V251.45H241.64V254.16H239.92V251.87H238.19V255.05H236.47V255.4H234.74V254.97H233.01V257.88H231.29V264.61H229.56V274H227.84V274H226.11V274H224.38V274H222.66V254.8H220.93V274H219.21V274H217.48V274H215.75V274H214.03V274H212.3V274H210.58V274H208.85V274H207.12V274H205.4V274H203.67V274H201.95V274H200.22V274H198.49V274H196.77V274H195.04V274H193.32V274H191.59V274H189.86V274H188.14V274H186.41V274H184.68V274H182.96V274H181.23V274H179.51V274H177.78V274H176.05V274H174.33V274H172.6V274H170.88V274H169.15V274H167.42V274H165.7V274H163.97V274H162.25V274H160.52V274H158.79V274H157.07V274H155.34V274H153.62V274H151.89V274H150.16V274H148.44V274H146.71V274H144.99V274H143.26V274H141.53V274H139.81V274H138.08V274H136.36V274H134.63V274H132.9V274H131.18V274H129.45V274H127.73V274H126V274H124.27V274H122.55V274H120.82V274H119.1V274H117.37V274H115.64V274H113.92V267.55H112.19V274H110.47V274H108.74V274H107.01V274H105.29V274H103.56V274H101.84V274H100.11V274H98.38V274H96.66V274H94.93V274H93.21V274H91.48V274H89.75V272.99H88.03V270.13H86.3V260.85H84.58V256.79H82.85V246.69H81.12V220.81H79.4V155.36H77.67V148.78H75.95V128.94H74.22V117.18H72.49V106.66H70.77V134.98H69.04V175.37H67.32V164.91H65.59V173.48H63.86V157.81H62.14V151.09H60.41V142.3H58.68V151.98H56.96V141.07H55.23V136.84H53.51V128.8H51.78V132.59H50.05V124.78H48.33V131.57H46.6V151.06H44.88V155.41H43.15V152.43H41.42V154.97H39.7V110.6H37.97V108.94H36.25V108.65H34.52V126.56H32.79V25.8H31.07V52.27H29.34V78.79H27.62V79.37H25.89V61.11H24.16V92.69H22.44V18.24H20.71V66.88H18.99V73.85H17.26V87.32H15.53V68.29H13.81V117.82H12.08V117.82H10.36V117.82H8.63V117.82H6.9V117.82H5.18V117.82H3.45V117.82H1.73V117.82H0Z" style="fill: rgb(220, 57, 18); fill-opacity: 0.8; stroke-width: 0;"/></g></g><g class="errorbars"/><g class="lines"><path class="js-line" d="M0,117.82H1.73V117.82H3.45V117.82H5.18V117.82H6.9V117.82H8.63V117.82H10.36V117.82H12.08V117.82H13.81V68.29H15.53V87.32H17.26V73.85H18.99V66.88H20.71V18.24H22.44V92.69H24.16V61.11H25.89V79.37H27.62V78.79H29.34V52.27H31.07V25.8H32.79V126.56H34.52V108.65H36.25V108.94H37.97V110.6H39.7V154.97H41.42V152.43H43.15V155.41H44.88V151.06H46.6V131.57H48.33V124.78H50.05V132.59H51.78V128.8H53.51V136.84H55.23V141.07H56.96V151.98H58.68V142.3H60.41V151.09H62.14V157.81H63.86V173.48H65.59V164.91H67.32V175.37H69.04V134.98H70.77V106.66H72.49V117.18H74.22V128.94H75.95V148.78H77.67V155.36H79.4V220.81H81.12V246.69H82.85V256.79H84.58V260.85H86.3V270.13H88.03V272.99H89.75V274H91.48V274H93.21V274H94.93V274H96.66V274H98.38V274H100.11V274H101.84V274H103.56V274H105.29V274H107.01V274H108.74V274H110.47V274H112.19V267.55H113.92V274H115.64V274H117.37V274H119.1V274H120.82V274H122.55V274H124.27V274H126V274H127.73V274H129.45V274H131.18V274H132.9V274H134.63V274H136.36V274H138.08V274H139.81V274H141.53V274H143.26V274H144.99V274H146.71V274H148.44V274H150.16V274H151.89V274H153.62V274H155.34V274H157.07V274H158.79V274H160.52V274H162.25V274H163.97V274H165.7V274H167.42V274H169.15V274H170.88V274H172.6V274H174.33V274H176.05V274H177.78V274H179.51V274H181.23V274H182.96V274H184.68V274H186.41V274H188.14V274H189.86V274H191.59V274H193.32V274H195.04V274H196.77V274H198.49V274H200.22V274H201.95V274H203.67V274H205.4V274H207.12V274H208.85V274H210.58V274H212.3V274H214.03V274H215.75V274H217.48V274H219.21V274H220.93V254.8H222.66V274H224.38V274H226.11V274H227.84V274H229.56V264.61H231.29V257.88H233.01V254.97H234.74V255.4H236.47V255.05H238.19V251.87H239.92V254.16H241.64V251.45H243.37V253.96H245.1V255.83H246.82V254.98H248.55V258.33H250.27V259.98H252V254.78H253.73V249.84H255.45V249.36H257.18V244.77H258.9V243.98H260.63V240.52H262.36V242.67H264.08V240.87H265.81V241.52H267.53V240.89H269.26V240.52H270.99V240.11H272.71V237.26H274.44V236.63H276.16V236.61H277.89V236.59H279.62V191.43H281.34V202H283.07V193.64H284.79V195.32H286.52V188.56H288.25V189.55H289.97V189.48H291.7V190.23H293.42V189.78H295.15V191.16H296.88V183.88H298.6V187.08H300.33V186.35H302.05V185.24H303.78V187.08H305.51V181.84H307.23V184.03H308.96V182.31H310.68V182.72H312.41V182.09H314.14V183.74H315.86V182.2H317.59V185.88H319.32V184.52H321.04V182H322.77V185.82H324.49V182.36H326.22V181.11H327.95V178.54H329.67V173.86H331.4V177.93H333.12V176.37H334.85V174.97H336.58V176.27H338.3V171.44H340.03V174.35H341.75V176.73H343.48V180.74H345.21V178.58H346.93V174.45H348.66V179.64H350.38V179.88H352.11V182.02H353.84V182.75H355.56V184.61H357.29V184.23H359.01V183.39H360.74V180.95H362.47V189.64H364.19V187H365.92V194.03H367.64V200.6H369.37V208.81H371.1V217.3H372.82V220.26H374.55V220.64H376.27V222.51H378V220.68H379.73V218.88H381.45V227.59H383.18V228.68H384.9V234.11H386.63V230.2H388.36V229.53H390.08V240.79H391.81V243.45H393.53V238.44H395.26V239.61H396.99V242.54H398.71V246.25H400.44V243.75H402.16V244.34H403.89V244.9H405.62V240.62H407.34V245.73H409.07V250.08H410.79V253.66H412.52V261.74H414.25V269H415.97V274H417.7V269.95H419.42V274H421.15V274H422.88V274H424.6V260.93H426.33V274H428.05V274H429.78V274H431.51V257.65H433.23V270.42H434.96V240.53H436.68V231.2H438.41V240.42H440.14V237.1H441.86V224.48H443.59V201.09H445.32V202.74H447.04V229.83H448.77V225.23H450.49V236.77H452.22V233.27H453.95V235.56H455.67V233.15H457.4V244.18H459.12V240.67H460.85V239.42H462.58V240.08H464.3V239.3H466.03V232.13H467.75V232.49H469.48V228.23H471.21V223.22H472.93V219.99H474.66V226.56H476.38V224.45H478.11V221.33H479.84V219.94H481.56V227.31H483.29V225.37H485.01V224.66H486.74V232.06H488.47V237.25H490.19V242.23H491.92V244.48H493.64V237.4H495.37V232.72H497.1V230.43H498.82V227.91H500.55V228.02H502.27V229.8H504V228.75H505.73V220.08H507.45V186.97H509.18V174.68H510.9V170.96H512.63V173.51H514.36V175.8H516.08V198.6H517.81V194.54H519.53V188.89H521.26V196.44H522.99V195.01H524.71V198.64H526.44V169.84H528.16V171.21H529.89V173.35H531.62V172.1H533.34V171.44H535.07V155.27H536.79V159.32H538.52V171.8H540.25V168.1H541.97V160.49H543.7V163.61H545.42V161.74H547.15V154.4H548.88V155.51H550.6V159.3H552.33V165.22H554.05V153.29H555.78V145.03H557.51V145.38H559.23V139.67H560.96V137H562.68V151.84H564.41V152.68H566.14V161.65H567.86V162.54H569.59V163.46H571.32V188.21H573.04V189.42H574.77V191.29H576.49V183.76H578.22V180.06H579.95V179.96H581.67V132.83H583.4V133.37H585.12V134.69H586.85V134.75H588.58V137.68H590.3V133.37H592.03V144.06H593.75V145.6H595.48V149.77H597.21V149.89H598.93V137.67H600.66V139.4H602.38V138.9H604.11V135.51H605.84V130.09H607.56V124.42H609.29V124.95H611.01V117.66H612.74V107.06H614.47V112.99H616.19V99H617.92V104.79H619.64V102.04H621.37V99.74H623.1V97.36H624.82V97.5H626.55V96.61H628.27V94.55H630V89.79" style="vector-effect: none; fill: none; stroke: rgb(44, 160, 44); stroke-opacity: 1; stroke-width: 0px; opacity: 1;"/></g><g class="points"/><g class="text"/></g><g class="trace scatter trace16d73a2e-2dcd-4893-8343-6b51c0bb10bd" style="stroke-miterlimit: 2;"><g class="fills"><g><path class="js-fill" d="M0,13.7H1.73V13.7H3.45V13.7H5.18V13.7H6.9V13.7H8.63V13.7H10.36V13.7H12.08V13.7H13.81V68.29H15.53V87.32H17.26V73.85H18.99V66.88H20.71V18.24H22.44V92.69H24.16V61.11H25.89V79.37H27.62V78.79H29.34V52.27H31.07V25.8H32.79V110.25H34.52V108.65H36.25V108.94H37.97V110.6H39.7V148.62H41.42V152.43H43.15V155.41H44.88V137.82H46.6V131.57H48.33V124.78H50.05V132.59H51.78V128.8H53.51V136.84H55.23V141.07H56.96V133.43H58.68V132.82H60.41V131.32H62.14V115.54H63.86V95.26H65.59V72.89H67.32V71.54H69.04V73.95H70.77V82.31H72.49V69.33H74.22V57.09H75.95V53.5H77.67V41.2H79.4V105.36H81.12V108.82H82.85V101.68H84.58V95.41H86.3V140.87H88.03V141.25H89.75V137.78H91.48V139.36H93.21V134.82H94.93V141.34H96.66V159.84H98.38V180.25H100.11V178.69H101.84V178.56H103.56V183.78H105.29V183.16H107.01V179.13H108.74V182.95H110.47V182.28H112.19V179.44H113.92V176.57H115.64V179.75H117.37V208.86H119.1V207.52H120.82V208.08H122.55V210.23H124.27V266.37H126V252.45H127.73V256.21H129.45V255.69H131.18V261.63H132.9V259.06H134.63V257.83H136.36V252.09H138.08V252.76H139.81V252.91H141.53V256.12H143.26V252.19H144.99V251.55H146.71V252.04H148.44V251.49H150.16V253.22H151.89V253.25H153.62V255.15H155.34V252.93H157.07V252.74H158.79V251.05H160.52V251.54H162.25V251.46H163.97V251.14H165.7V253.56H167.42V248.32H169.15V248.98H170.88V247.28H172.6V248.97H174.33V250.52H176.05V251.21H177.78V250.59H179.51V255.55H181.23V255.2H182.96V256.16H184.68V253.06H186.41V254.24H188.14V250.1H189.86V251.25H191.59V253.52H193.32V253.14H195.04V250.26H196.77V249.85H198.49V249.23H200.22V249.46H201.95V249.38H203.67V250.32H205.4V250.07H207.12V249.34H208.85V249.83H210.58V249.61H212.3V250.04H214.03V250.74H215.75V251.07H217.48V253.48H219.21V256.17H220.93V251.11H222.66V255.59H224.38V256.73H226.11V260.66H227.84V264.95H229.56V264.61H231.29V257.88H233.01V254.97H234.74V255.4H236.47V255.05H238.19V251.87H239.92V254.16H241.64V251.45H243.37V253.96H245.1V255.83H246.82V254.98H248.55V258.33H250.27V259.98H252V254.78H253.73V249.84H255.45V249.36H257.18V244.77H258.9V243.98H260.63V240.52H262.36V242.67H264.08V240.87H265.81V241.52H267.53V240.89H269.26V240.52H270.99V240.11H272.71V237.26H274.44V236.63H276.16V236.61H277.89V236.59H279.62V191.43H281.34V202H283.07V193.64H284.79V195.32H286.52V188.56H288.25V189.55H289.97V189.48H291.7V190.23H293.42V189.78H295.15V191.16H296.88V183.88H298.6V187.08H300.33V186.35H302.05V185.24H303.78V187.08H305.51V181.84H307.23V184.03H308.96V182.31H310.68V182.72H312.41V182.09H314.14V183.74H315.86V182.2H317.59V185.88H319.32V184.52H321.04V182H322.77V185.82H324.49V182.36H326.22V181.11H327.95V178.54H329.67V173.86H331.4V177.93H333.12V176.37H334.85V174.97H336.58V176.27H338.3V171.44H340.03V174.35H341.75V176.73H343.48V180.74H345.21V178.58H346.93V174.45H348.66V179.64H350.38V179.88H352.11V182.02H353.84V182.75H355.56V184.61H357.29V184.23H359.01V183.39H360.74V180.95H362.47V189.64H364.19V187H365.92V185.45H367.64V180.47H369.37V166.46H371.1V171.27H372.82V167.21H374.55V162.7H376.27V163.93H378V165.37H379.73V170.58H381.45V139.44H383.18V140.94H384.9V140.32H386.63V153.34H388.36V153.17H390.08V139.36H391.81V138.6H393.53V143.81H395.26V146.06H396.99V146.35H398.71V145.97H400.44V140.02H402.16V141.04H403.89V156.8H405.62V149.49H407.34V152.56H409.07V146.57H410.79V161.9H412.52V163.27H414.25V164.04H415.97V166.2H417.7V156.36H419.42V155.94H421.15V146.69H422.88V144.74H424.6V156.63H426.33V190.43H428.05V190.26H429.78V210.84H431.51V204.35H433.23V206.18H434.96V204.98H436.68V193.43H438.41V194.14H440.14V192.73H441.86V187.09H443.59V185.27H445.32V184.99H447.04V194.88H448.77V193.24H450.49V190.63H452.22V190.65H453.95V190.6H455.67V196.41H457.4V207.64H459.12V203.72H460.85V209.14H462.58V204.11H464.3V198.89H466.03V199.42H467.75V198.53H469.48V198.05H471.21V197.63H472.93V197.29H474.66V200.68H476.38V202.97H478.11V202.25H479.84V201.79H481.56V198.23H483.29V208.66H485.01V206.79H486.74V205.48H488.47V202.98H490.19V203.37H491.92V201.71H493.64V200.32H495.37V200.14H497.1V198.84H498.82V198.6H500.55V201.46H502.27V200.7H504V198.45H505.73V195.08H507.45V185.81H509.18V174.68H510.9V170.96H512.63V173.51H514.36V175.8H516.08V198.6H517.81V194.54H519.53V188.89H521.26V196.44H522.99V195.01H524.71V198.64H526.44V169.84H528.16V171.21H529.89V173.35H531.62V172.1H533.34V171.44H535.07V155.27H536.79V159.32H538.52V171.8H540.25V168.1H541.97V160.49H543.7V163.61H545.42V161.74H547.15V154.4H548.88V155.51H550.6V159.3H552.33V165.22H554.05V153.29H555.78V145.03H557.51V145.38H559.23V139.67H560.96V137H562.68V137.76H564.41V141.17H566.14V133.84H567.86V131.91H569.59V135.67H571.32V164.8H573.04V164.32H574.77V163.87H576.49V160.09H578.22V157.66H579.95V158.42H581.67V112.15H583.4V113.24H585.12V117.86H586.85V117.2H588.58V118.07H590.3V114.63H592.03V126.94H593.75V127.48H595.48V131.03H597.21V133.04H598.93V125.05H600.66V126.27H602.38V126.49H604.11V125.93H605.84V120.62H607.56V116.19H609.29V116.37H611.01V110.57H612.74V100.19H614.47V108.14H616.19V97.48H617.92V104.79H619.64V102.04H621.37V99.74H623.1V97.36H624.82V97.5H626.55V96.61H628.27V94.55H630V89.79L630,89.79V94.55H628.27V96.61H626.55V97.5H624.82V97.36H623.1V99.74H621.37V102.04H619.64V104.79H617.92V99H616.19V112.99H614.47V107.06H612.74V117.66H611.01V124.95H609.29V124.42H607.56V130.09H605.84V135.51H604.11V138.9H602.38V139.4H600.66V137.67H598.93V149.89H597.21V149.77H595.48V145.6H593.75V144.06H592.03V133.37H590.3V137.68H588.58V134.75H586.85V134.69H585.12V133.37H583.4V132.83H581.67V179.96H579.95V180.06H578.22V183.76H576.49V191.29H574.77V189.42H573.04V188.21H571.32V163.46H569.59V162.54H567.86V161.65H566.14V152.68H564.41V151.84H562.68V137H560.96V139.67H559.23V145.38H557.51V145.03H555.78V153.29H554.05V165.22H552.33V159.3H550.6V155.51H548.88V154.4H547.15V161.74H545.42V163.61H543.7V160.49H541.97V168.1H540.25V171.8H538.52V159.32H536.79V155.27H535.07V171.44H533.34V172.1H531.62V173.35H529.89V171.21H528.16V169.84H526.44V198.64H524.71V195.01H522.99V196.44H521.26V188.89H519.53V194.54H517.81V198.6H516.08V175.8H514.36V173.51H512.63V170.96H510.9V174.68H509.18V185.81H507.45V195.08H505.73V198.45H504V200.7H502.27V201.46H500.55V198.6H498.82V198.84H497.1V200.14H495.37V200.32H493.64V201.71H491.92V203.37H490.19V202.98H488.47V205.48H486.74V206.79H485.01V208.66H483.29V216.84H481.56V209.69H479.84V202.25H478.11V202.97H476.38V200.68H474.66V202.33H472.93V207.18H471.21V205.71H469.48V206.05H467.75V203.12H466.03V204.63H464.3V204.11H462.58V209.14H460.85V203.72H459.12V207.64H457.4V196.41H455.67V190.6H453.95V190.65H452.22V190.63H450.49V193.24H448.77V194.88H447.04V184.99H445.32V185.27H443.59V187.09H441.86V192.73H440.14V194.14H438.41V193.43H436.68V204.98H434.96V206.18H433.23V204.35H431.51V210.84H429.78V190.26H428.05V190.43H426.33V156.63H424.6V144.74H422.88V146.69H421.15V155.94H419.42V156.36H417.7V166.2H415.97V164.04H414.25V163.27H412.52V161.9H410.79V146.57H409.07V152.56H407.34V149.49H405.62V156.8H403.89V141.04H402.16V140.02H400.44V145.97H398.71V146.35H396.99V146.06H395.26V143.81H393.53V138.6H391.81V139.36H390.08V153.17H388.36V153.34H386.63V140.32H384.9V140.94H383.18V139.44H381.45V170.58H379.73V165.37H378V163.93H376.27V162.7H374.55V167.21H372.82V171.27H371.1V166.46H369.37V180.47H367.64V185.45H365.92V187H364.19V189.64H362.47V180.95H360.74V183.39H359.01V184.23H357.29V184.61H355.56V182.75H353.84V182.02H352.11V179.88H350.38V179.64H348.66V174.45H346.93V178.58H345.21V180.74H343.48V176.73H341.75V174.35H340.03V171.44H338.3V176.27H336.58V174.97H334.85V176.37H333.12V177.93H331.4V173.86H329.67V178.54H327.95V181.11H326.22V182.36H324.49V185.82H322.77V182H321.04V184.52H319.32V185.88H317.59V182.2H315.86V183.74H314.14V182.09H312.41V182.72H310.68V182.31H308.96V184.03H307.23V181.84H305.51V187.08H303.78V185.24H302.05V186.35H300.33V187.08H298.6V183.88H296.88V191.16H295.15V189.78H293.42V190.23H291.7V189.48H289.97V189.55H288.25V188.56H286.52V195.32H284.79V193.64H283.07V202H281.34V191.43H279.62V236.59H277.89V236.61H276.16V236.63H274.44V237.26H272.71V240.11H270.99V240.52H269.26V240.89H267.53V241.52H265.81V240.87H264.08V242.67H262.36V240.52H260.63V243.98H258.9V244.77H257.18V249.36H255.45V249.84H253.73V254.78H252V259.98H250.27V258.33H248.55V254.98H246.82V255.83H245.1V253.96H243.37V251.45H241.64V254.16H239.92V251.87H238.19V255.05H236.47V255.4H234.74V254.97H233.01V257.88H231.29V264.61H229.56V264.95H227.84V260.66H226.11V256.73H224.38V255.59H222.66V251.11H220.93V256.17H219.21V253.48H217.48V251.07H215.75V250.74H214.03V250.04H212.3V249.61H210.58V249.83H208.85V249.34H207.12V250.07H205.4V250.32H203.67V249.38H201.95V249.46H200.22V249.23H198.49V249.85H196.77V250.26H195.04V253.14H193.32V253.52H191.59V251.25H189.86V250.1H188.14V254.24H186.41V253.06H184.68V256.16H182.96V255.2H181.23V255.55H179.51V250.59H177.78V251.21H176.05V250.52H174.33V248.97H172.6V247.28H170.88V248.98H169.15V248.32H167.42V253.56H165.7V251.14H163.97V251.46H162.25V251.54H160.52V251.05H158.79V252.74H157.07V252.93H155.34V255.15H153.62V253.25H151.89V253.22H150.16V251.49H148.44V252.04H146.71V251.55H144.99V252.19H143.26V256.12H141.53V252.91H139.81V252.76H138.08V252.09H136.36V257.83H134.63V259.06H132.9V261.63H131.18V255.69H129.45V256.21H127.73V252.45H126V266.37H124.27V210.23H122.55V208.08H120.82V207.52H119.1V208.86H117.37V179.75H115.64V176.57H113.92V179.44H112.19V182.28H110.47V182.95H108.74V179.13H107.01V183.16H105.29V183.78H103.56V178.56H101.84V178.69H100.11V180.25H98.38V159.84H96.66V141.34H94.93V134.82H93.21V139.36H91.48V137.78H89.75V141.25H88.03V140.87H86.3V95.41H84.58V101.68H82.85V108.82H81.12V105.36H79.4V41.2H77.67V53.5H75.95V57.09H74.22V69.33H72.49V82.31H70.77V73.95H69.04V71.54H67.32V72.89H65.59V95.26H63.86V115.54H62.14V131.32H60.41V132.82H58.68V133.43H56.96V141.07H55.23V136.84H53.51V128.8H51.78V132.59H50.05V124.78H48.33V131.57H46.6V137.82H44.88V155.41H43.15V152.43H41.42V148.62H39.7V110.6H37.97V108.94H36.25V108.65H34.52V110.25H32.79V25.8H31.07V52.27H29.34V78.79H27.62V79.37H25.89V61.11H24.16V92.69H22.44V18.24H20.71V66.88H18.99V73.85H17.26V87.32H15.53V68.29H13.81V65.76H12.08V65.76H10.36V65.76H8.63V65.76H6.9V65.76H5.18V65.76H3.45V65.76H1.73V65.76H0Z" style="fill: rgb(148, 103, 189); fill-opacity: 0.8; stroke-width: 0;"/></g></g><g class="errorbars"/><g class="lines"><path class="js-line" d="M0,65.76H1.73V65.76H3.45V65.76H5.18V65.76H6.9V65.76H8.63V65.76H10.36V65.76H12.08V65.76H13.81V68.29H15.53V87.32H17.26V73.85H18.99V66.88H20.71V18.24H22.44V92.69H24.16V61.11H25.89V79.37H27.62V78.79H29.34V52.27H31.07V25.8H32.79V110.25H34.52V108.65H36.25V108.94H37.97V110.6H39.7V148.62H41.42V152.43H43.15V155.41H44.88V137.82H46.6V131.57H48.33V124.78H50.05V132.59H51.78V128.8H53.51V136.84H55.23V141.07H56.96V133.43H58.68V132.82H60.41V131.32H62.14V115.54H63.86V95.26H65.59V72.89H67.32V71.54H69.04V73.95H70.77V82.31H72.49V69.33H74.22V57.09H75.95V53.5H77.67V41.2H79.4V105.36H81.12V108.82H82.85V101.68H84.58V95.41H86.3V140.87H88.03V141.25H89.75V137.78H91.48V139.36H93.21V134.82H94.93V141.34H96.66V159.84H98.38V180.25H100.11V178.69H101.84V178.56H103.56V183.78H105.29V183.16H107.01V179.13H108.74V182.95H110.47V182.28H112.19V179.44H113.92V176.57H115.64V179.75H117.37V208.86H119.1V207.52H120.82V208.08H122.55V210.23H124.27V266.37H126V252.45H127.73V256.21H129.45V255.69H131.18V261.63H132.9V259.06H134.63V257.83H136.36V252.09H138.08V252.76H139.81V252.91H141.53V256.12H143.26V252.19H144.99V251.55H146.71V252.04H148.44V251.49H150.16V253.22H151.89V253.25H153.62V255.15H155.34V252.93H157.07V252.74H158.79V251.05H160.52V251.54H162.25V251.46H163.97V251.14H165.7V253.56H167.42V248.32H169.15V248.98H170.88V247.28H172.6V248.97H174.33V250.52H176.05V251.21H177.78V250.59H179.51V255.55H181.23V255.2H182.96V256.16H184.68V253.06H186.41V254.24H188.14V250.1H189.86V251.25H191.59V253.52H193.32V253.14H195.04V250.26H196.77V249.85H198.49V249.23H200.22V249.46H201.95V249.38H203.67V250.32H205.4V250.07H207.12V249.34H208.85V249.83H210.58V249.61H212.3V250.04H214.03V250.74H215.75V251.07H217.48V253.48H219.21V256.17H220.93V251.11H222.66V255.59H224.38V256.73H226.11V260.66H227.84V264.95H229.56V264.61H231.29V257.88H233.01V254.97H234.74V255.4H236.47V255.05H238.19V251.87H239.92V254.16H241.64V251.45H243.37V253.96H245.1V255.83H246.82V254.98H248.55V258.33H250.27V259.98H252V254.78H253.73V249.84H255.45V249.36H257.18V244.77H258.9V243.98H260.63V240.52H262.36V242.67H264.08V240.87H265.81V241.52H267.53V240.89H269.26V240.52H270.99V240.11H272.71V237.26H274.44V236.63H276.16V236.61H277.89V236.59H279.62V191.43H281.34V202H283.07V193.64H284.79V195.32H286.52V188.56H288.25V189.55H289.97V189.48H291.7V190.23H293.42V189.78H295.15V191.16H296.88V183.88H298.6V187.08H300.33V186.35H302.05V185.24H303.78V187.08H305.51V181.84H307.23V184.03H308.96V182.31H310.68V182.72H312.41V182.09H314.14V183.74H315.86V182.2H317.59V185.88H319.32V184.52H321.04V182H322.77V185.82H324.49V182.36H326.22V181.11H327.95V178.54H329.67V173.86H331.4V177.93H333.12V176.37H334.85V174.97H336.58V176.27H338.3V171.44H340.03V174.35H341.75V176.73H343.48V180.74H345.21V178.58H346.93V174.45H348.66V179.64H350.38V179.88H352.11V182.02H353.84V182.75H355.56V184.61H357.29V184.23H359.01V183.39H360.74V180.95H362.47V189.64H364.19V187H365.92V185.45H367.64V180.47H369.37V166.46H371.1V171.27H372.82V167.21H374.55V162.7H376.27V163.93H378V165.37H379.73V170.58H381.45V139.44H383.18V140.94H384.9V140.32H386.63V153.34H388.36V153.17H390.08V139.36H391.81V138.6H393.53V143.81H395.26V146.06H396.99V146.35H398.71V145.97H400.44V140.02H402.16V141.04H403.89V156.8H405.62V149.49H407.34V152.56H409.07V146.57H410.79V161.9H412.52V163.27H414.25V164.04H415.97V166.2H417.7V156.36H419.42V155.94H421.15V146.69H422.88V144.74H424.6V156.63H426.33V190.43H428.05V190.26H429.78V210.84H431.51V204.35H433.23V206.18H434.96V204.98H436.68V193.43H438.41V194.14H440.14V192.73H441.86V187.09H443.59V185.27H445.32V184.99H447.04V194.88H448.77V193.24H450.49V190.63H452.22V190.65H453.95V190.6H455.67V196.41H457.4V207.64H459.12V203.72H460.85V209.14H462.58V204.11H464.3V204.63H466.03V203.12H467.75V206.05H469.48V205.71H471.21V207.18H472.93V202.33H474.66V200.68H476.38V202.97H478.11V202.25H479.84V209.69H481.56V216.84H483.29V208.66H485.01V206.79H486.74V205.48H488.47V202.98H490.19V203.37H491.92V201.71H493.64V200.32H495.37V200.14H497.1V198.84H498.82V198.6H500.55V201.46H502.27V200.7H504V198.45H505.73V195.08H507.45V185.81H509.18V174.68H510.9V170.96H512.63V173.51H514.36V175.8H516.08V198.6H517.81V194.54H519.53V188.89H521.26V196.44H522.99V195.01H524.71V198.64H526.44V169.84H528.16V171.21H529.89V173.35H531.62V172.1H533.34V171.44H535.07V155.27H536.79V159.32H538.52V171.8H540.25V168.1H541.97V160.49H543.7V163.61H545.42V161.74H547.15V154.4H548.88V155.51H550.6V159.3H552.33V165.22H554.05V153.29H555.78V145.03H557.51V145.38H559.23V139.67H560.96V137H562.68V151.84H564.41V152.68H566.14V161.65H567.86V162.54H569.59V163.46H571.32V188.21H573.04V189.42H574.77V191.29H576.49V183.76H578.22V180.06H579.95V179.96H581.67V132.83H583.4V133.37H585.12V134.69H586.85V134.75H588.58V137.68H590.3V133.37H592.03V144.06H593.75V145.6H595.48V149.77H597.21V149.89H598.93V137.67H600.66V139.4H602.38V138.9H604.11V135.51H605.84V130.09H607.56V124.42H609.29V124.95H611.01V117.66H612.74V107.06H614.47V112.99H616.19V99H617.92V104.79H619.64V102.04H621.37V99.74H623.1V97.36H624.82V97.5H626.55V96.61H628.27V94.55H630V89.79" style="vector-effect: none; fill: none; stroke: rgb(220, 57, 18); stroke-opacity: 1; stroke-width: 0px; opacity: 1;"/></g><g class="points"/><g class="text"/></g><g class="trace scatter trace692892d9-8ee9-4e24-adf9-e40dcba444de" style="stroke-miterlimit: 2;"><g class="fills"/><g class="errorbars"/><g class="lines"><path class="js-line" d="M0,13.7H1.73V13.7H3.45V13.7H5.18V13.7H6.9V13.7H8.63V13.7H10.36V13.7H12.08V13.7H13.81V68.29H15.53V87.32H17.26V73.85H18.99V66.88H20.71V18.24H22.44V92.69H24.16V61.11H25.89V79.37H27.62V78.79H29.34V52.27H31.07V25.8H32.79V110.25H34.52V108.65H36.25V108.94H37.97V110.6H39.7V148.62H41.42V152.43H43.15V155.41H44.88V137.82H46.6V131.57H48.33V124.78H50.05V132.59H51.78V128.8H53.51V136.84H55.23V141.07H56.96V133.43H58.68V132.82H60.41V131.32H62.14V115.54H63.86V95.26H65.59V72.89H67.32V71.54H69.04V73.95H70.77V82.31H72.49V69.33H74.22V57.09H75.95V53.5H77.67V41.2H79.4V105.36H81.12V108.82H82.85V101.68H84.58V95.41H86.3V140.87H88.03V141.25H89.75V137.78H91.48V139.36H93.21V134.82H94.93V141.34H96.66V159.84H98.38V180.25H100.11V178.69H101.84V178.56H103.56V183.78H105.29V183.16H107.01V179.13H108.74V182.95H110.47V182.28H112.19V179.44H113.92V176.57H115.64V179.75H117.37V208.86H119.1V207.52H120.82V208.08H122.55V210.23H124.27V266.37H126V252.45H127.73V256.21H129.45V255.69H131.18V261.63H132.9V259.06H134.63V257.83H136.36V252.09H138.08V252.76H139.81V252.91H141.53V256.12H143.26V252.19H144.99V251.55H146.71V252.04H148.44V251.49H150.16V253.22H151.89V253.25H153.62V255.15H155.34V252.93H157.07V252.74H158.79V251.05H160.52V251.54H162.25V251.46H163.97V251.14H165.7V253.56H167.42V248.32H169.15V248.98H170.88V247.28H172.6V248.97H174.33V250.52H176.05V251.21H177.78V250.59H179.51V255.55H181.23V255.2H182.96V256.16H184.68V253.06H186.41V254.24H188.14V250.1H189.86V251.25H191.59V253.52H193.32V253.14H195.04V250.26H196.77V249.85H198.49V249.23H200.22V249.46H201.95V249.38H203.67V250.32H205.4V250.07H207.12V249.34H208.85V249.83H210.58V249.61H212.3V250.04H214.03V250.74H215.75V251.07H217.48V253.48H219.21V256.17H220.93V251.11H222.66V255.59H224.38V256.73H226.11V260.66H227.84V264.95H229.56V264.61H231.29V257.88H233.01V254.97H234.74V255.4H236.47V255.05H238.19V251.87H239.92V254.16H241.64V251.45H243.37V253.96H245.1V255.83H246.82V254.98H248.55V258.33H250.27V259.98H252V254.78H253.73V249.84H255.45V249.36H257.18V244.77H258.9V243.98H260.63V240.52H262.36V242.67H264.08V240.87H265.81V241.52H267.53V240.89H269.26V240.52H270.99V240.11H272.71V237.26H274.44V236.63H276.16V236.61H277.89V236.59H279.62V191.43H281.34V202H283.07V193.64H284.79V195.32H286.52V188.56H288.25V189.55H289.97V189.48H291.7V190.23H293.42V189.78H295.15V191.16H296.88V183.88H298.6V187.08H300.33V186.35H302.05V185.24H303.78V187.08H305.51V181.84H307.23V184.03H308.96V182.31H310.68V182.72H312.41V182.09H314.14V183.74H315.86V182.2H317.59V185.88H319.32V184.52H321.04V182H322.77V185.82H324.49V182.36H326.22V181.11H327.95V178.54H329.67V173.86H331.4V177.93H333.12V176.37H334.85V174.97H336.58V176.27H338.3V171.44H340.03V174.35H341.75V176.73H343.48V180.74H345.21V178.58H346.93V174.45H348.66V179.64H350.38V179.88H352.11V182.02H353.84V182.75H355.56V184.61H357.29V184.23H359.01V183.39H360.74V180.95H362.47V189.64H364.19V187H365.92V185.45H367.64V180.47H369.37V166.46H371.1V171.27H372.82V167.21H374.55V162.7H376.27V163.93H378V165.37H379.73V170.58H381.45V139.44H383.18V140.94H384.9V140.32H386.63V153.34H388.36V153.17H390.08V139.36H391.81V138.6H393.53V143.81H395.26V146.06H396.99V146.35H398.71V145.97H400.44V140.02H402.16V141.04H403.89V156.8H405.62V149.49H407.34V152.56H409.07V146.57H410.79V161.9H412.52V163.27H414.25V164.04H415.97V166.2H417.7V156.36H419.42V155.94H421.15V146.69H422.88V144.74H424.6V156.63H426.33V190.43H428.05V190.26H429.78V210.84H431.51V204.35H433.23V206.18H434.96V204.98H436.68V193.43H438.41V194.14H440.14V192.73H441.86V187.09H443.59V185.27H445.32V184.99H447.04V194.88H448.77V193.24H450.49V190.63H452.22V190.65H453.95V190.6H455.67V196.41H457.4V207.64H459.12V203.72H460.85V209.14H462.58V204.11H464.3V198.89H466.03V199.42H467.75V198.53H469.48V198.05H471.21V197.63H472.93V197.29H474.66V200.68H476.38V202.97H478.11V202.25H479.84V201.79H481.56V198.23H483.29V208.66H485.01V206.79H486.74V205.48H488.47V202.98H490.19V203.37H491.92V201.71H493.64V200.32H495.37V200.14H497.1V198.84H498.82V198.6H500.55V201.46H502.27V200.7H504V198.45H505.73V195.08H507.45V185.81H509.18V174.68H510.9V170.96H512.63V173.51H514.36V175.8H516.08V198.6H517.81V194.54H519.53V188.89H521.26V196.44H522.99V195.01H524.71V198.64H526.44V169.84H528.16V171.21H529.89V173.35H531.62V172.1H533.34V171.44H535.07V155.27H536.79V159.32H538.52V171.8H540.25V168.1H541.97V160.49H543.7V163.61H545.42V161.74H547.15V154.4H548.88V155.51H550.6V159.3H552.33V165.22H554.05V153.29H555.78V145.03H557.51V145.38H559.23V139.67H560.96V137H562.68V137.76H564.41V141.17H566.14V133.84H567.86V131.91H569.59V135.67H571.32V164.8H573.04V164.32H574.77V163.87H576.49V160.09H578.22V157.66H579.95V158.42H581.67V112.15H583.4V113.24H585.12V117.86H586.85V117.2H588.58V118.07H590.3V114.63H592.03V126.94H593.75V127.48H595.48V131.03H597.21V133.04H598.93V125.05H600.66V126.27H602.38V126.49H604.11V125.93H605.84V120.62H607.56V116.19H609.29V116.37H611.01V110.57H612.74V100.19H614.47V108.14H616.19V97.48H617.92V104.79H619.64V102.04H621.37V99.74H623.1V97.36H624.82V97.5H626.55V96.61H628.27V94.55H630V89.79" style="vector-effect: none; fill: none; stroke: rgb(148, 103, 189); stroke-opacity: 1; stroke-width: 0px; opacity: 1;"/></g><g class="points"/><g class="text"/></g></g></g><g class="overplot"/><path class="xlines-above crisp" d="M0,0" style="fill: none;"/><path class="ylines-above crisp" d="M0,0" style="fill: none;"/><g class="overlines-above"/><g class="xaxislayer-above"><g class="xtick"><text text-anchor="middle" x="0" y="333" transform="translate(40,0)" style="font-family: 'Open Sans', verdana, arial, sans-serif; font-size: 12px; fill: rgb(42, 63, 95); fill-opacity: 1; white-space: pre; opacity: 1;">Jan 2020</text></g><g class="xtick"><text text-anchor="middle" x="0" y="333" style="font-family: 'Open Sans', verdana, arial, sans-serif; font-size: 12px; fill: rgb(42, 63, 95); fill-opacity: 1; white-space: pre; opacity: 1;" transform="translate(143.56,0)">Mar 2020</text></g><g class="xtick"><text text-anchor="middle" x="0" y="333" style="font-family: 'Open Sans', verdana, arial, sans-serif; font-size: 12px; fill: rgb(42, 63, 95); fill-opacity: 1; white-space: pre; opacity: 1;" transform="translate(248.85,0)">May 2020</text></g><g class="xtick"><text text-anchor="middle" x="0" y="333" style="font-family: 'Open Sans', verdana, arial, sans-serif; font-size: 12px; fill: rgb(42, 63, 95); fill-opacity: 1; white-space: pre; opacity: 1;" transform="translate(354.14,0)">Jul 2020</text></g><g class="xtick"><text text-anchor="middle" x="0" y="333" style="font-family: 'Open Sans', verdana, arial, sans-serif; font-size: 12px; fill: rgb(42, 63, 95); fill-opacity: 1; white-space: pre; opacity: 1;" transform="translate(461.15,0)">Sep 2020</text></g><g class="xtick"><text text-anchor="middle" x="0" y="333" style="font-family: 'Open Sans', verdana, arial, sans-serif; font-size: 12px; fill: rgb(42, 63, 95); fill-opacity: 1; white-space: pre; opacity: 1;" transform="translate(566.44,0)">Nov 2020</text></g></g><g class="yaxislayer-above"><g class="ytick"><text text-anchor="end" x="39" y="4.199999999999999" transform="translate(0,320)" style="font-family: 'Open Sans', verdana, arial, sans-serif; font-size: 12px; fill: rgb(42, 63, 95); fill-opacity: 1; white-space: pre; opacity: 1;">0</text></g><g class="ytick"><text text-anchor="end" x="39" y="4.199999999999999" style="font-family: 'Open Sans', verdana, arial, sans-serif; font-size: 12px; fill: rgb(42, 63, 95); fill-opacity: 1; white-space: pre; opacity: 1;" transform="translate(0,267.94)">0.2</text></g><g class="ytick"><text text-anchor="end" x="39" y="4.199999999999999" style="font-family: 'Open Sans', verdana, arial, sans-serif; font-size: 12px; fill: rgb(42, 63, 95); fill-opacity: 1; white-space: pre; opacity: 1;" transform="translate(0,215.88)">0.4</text></g><g class="ytick"><text text-anchor="end" x="39" y="4.199999999999999" style="font-family: 'Open Sans', verdana, arial, sans-serif; font-size: 12px; fill: rgb(42, 63, 95); fill-opacity: 1; white-space: pre; opacity: 1;" transform="translate(0,163.82)">0.6</text></g><g class="ytick"><text text-anchor="end" x="39" y="4.199999999999999" style="font-family: 'Open Sans', verdana, arial, sans-serif; font-size: 12px; fill: rgb(42, 63, 95); fill-opacity: 1; white-space: pre; opacity: 1;" transform="translate(0,111.76)">0.8</text></g><g class="ytick"><text text-anchor="end" x="39" y="4.199999999999999" style="font-family: 'Open Sans', verdana, arial, sans-serif; font-size: 12px; fill: rgb(42, 63, 95); fill-opacity: 1; white-space: pre; opacity: 1;" transform="translate(0,59.7)">1</text></g></g><g class="overaxes-above"/></g></g><g class="polarlayer"/><g class="smithlayer"/><g class="ternarylayer"/><g class="geolayer"/><g class="funnelarealayer"/><g class="pielayer"/><g class="iciclelayer"/><g class="treemaplayer"/><g class="sunburstlayer"/><g class="glimages"/><defs id="topdefs-e9f73d"><g class="clips"/><clipPath id="legende9f73d"><rect width="517" height="29" x="0" y="0"/></clipPath></defs><g class="layer-above"><g class="imagelayer"/><g class="shapelayer"/></g><g class="infolayer"><g class="legend" pointer-events="all" transform="translate(153,11.519999999999996)"><rect class="bg" shape-rendering="crispEdges" width="517" height="29" x="0" y="0" style="stroke: rgb(68, 68, 68); stroke-opacity: 1; fill: rgb(255, 255, 255); fill-opacity: 1; stroke-width: 0px;"/><g class="scrollbox" transform="" clip-path="url(#legende9f73d)"><g class="groups"><g class="traces" transform="translate(0,14.5)" style="opacity: 1;"><text class="legendtext" text-anchor="start" x="40" y="4.680000000000001" style="font-family: 'Open Sans', verdana, arial, sans-serif; font-size: 12px; fill: rgb(42, 63, 95); fill-opacity: 1; white-space: pre;">ADAUSDT</text><g class="layers"><g class="legendfill"><path class="js-fill" d="M5,-2h30v6h-30z" style="stroke-width: 0; fill: rgb(31, 119, 180); fill-opacity: 0.8;"/></g><g class="legendlines"><path class="js-line" d="M5,-2h30" style="fill: none; stroke: rgb(31, 119, 180); stroke-opacity: 1; stroke-width: 0px;"/></g><g class="legendsymbols"><g class="legendpoints"/></g></g><rect class="legendtoggle" x="0" y="-9.5" width="101.78125" height="19" style="fill: rgb(0, 0, 0); fill-opacity: 0;"/></g><g class="traces" transform="translate(104.28125,14.5)" style="opacity: 1;"><text class="legendtext" text-anchor="start" x="40" y="4.680000000000001" style="font-family: 'Open Sans', verdana, arial, sans-serif; font-size: 12px; fill: rgb(42, 63, 95); fill-opacity: 1; white-space: pre;">BNBUSDT</text><g class="layers"><g class="legendfill"><path class="js-fill" d="M5,-2h30v6h-30z" style="stroke-width: 0; fill: rgb(255, 127, 14); fill-opacity: 0.8;"/></g><g class="legendlines"><path class="js-line" d="M5,-2h30" style="fill: none; stroke: rgb(255, 127, 14); stroke-opacity: 1; stroke-width: 0px;"/></g><g class="legendsymbols"><g class="legendpoints"/></g></g><rect class="legendtoggle" x="0" y="-9.5" width="101.5625" height="19" style="fill: rgb(0, 0, 0); fill-opacity: 0;"/></g><g class="traces" transform="translate(208.34375,14.5)" style="opacity: 1;"><text class="legendtext" text-anchor="start" x="40" y="4.680000000000001" style="font-family: 'Open Sans', verdana, arial, sans-serif; font-size: 12px; fill: rgb(42, 63, 95); fill-opacity: 1; white-space: pre;">BTCUSDT</text><g class="layers"><g class="legendfill"><path class="js-fill" d="M5,-2h30v6h-30z" style="stroke-width: 0; fill: rgb(44, 160, 44); fill-opacity: 0.8;"/></g><g class="legendlines"><path class="js-line" d="M5,-2h30" style="fill: none; stroke: rgb(44, 160, 44); stroke-opacity: 1; stroke-width: 0px;"/></g><g class="legendsymbols"><g class="legendpoints"/></g></g><rect class="legendtoggle" x="0" y="-9.5" width="100.140625" height="19" style="fill: rgb(0, 0, 0); fill-opacity: 0;"/></g><g class="traces" transform="translate(310.984375,14.5)" style="opacity: 1;"><text class="legendtext" text-anchor="start" x="40" y="4.680000000000001" style="font-family: 'Open Sans', verdana, arial, sans-serif; font-size: 12px; fill: rgb(42, 63, 95); fill-opacity: 1; white-space: pre;">ETHUSDT</text><g class="layers"><g class="legendfill"><path class="js-fill" d="M5,-2h30v6h-30z" style="stroke-width: 0; fill: rgb(220, 57, 18); fill-opacity: 0.8;"/></g><g class="legendlines"><path class="js-line" d="M5,-2h30" style="fill: none; stroke: rgb(220, 57, 18); stroke-opacity: 1; stroke-width: 0px;"/></g><g class="legendsymbols"><g class="legendpoints"/></g></g><rect class="legendtoggle" x="0" y="-9.5" width="100.140625" height="19" style="fill: rgb(0, 0, 0); fill-opacity: 0;"/></g><g class="traces" transform="translate(413.625,14.5)" style="opacity: 1;"><text class="legendtext" text-anchor="start" x="40" y="4.680000000000001" style="font-family: 'Open Sans', verdana, arial, sans-serif; font-size: 12px; fill: rgb(42, 63, 95); fill-opacity: 1; white-space: pre;">XRPUSDT</text><g class="layers"><g class="legendfill"><path class="js-fill" d="M5,-2h30v6h-30z" style="stroke-width: 0; fill: rgb(148, 103, 189); fill-opacity: 0.8;"/></g><g class="legendlines"><path class="js-line" d="M5,-2h30" style="fill: none; stroke: rgb(148, 103, 189); stroke-opacity: 1; stroke-width: 0px;"/></g><g class="legendsymbols"><g class="legendpoints"/></g></g><rect class="legendtoggle" x="0" y="-9.5" width="99.9375" height="19" style="fill: rgb(0, 0, 0); fill-opacity: 0;"/></g></g></g><rect class="scrollbar" rx="20" ry="3" width="0" height="0" x="0" y="0" style="fill: rgb(128, 139, 164); fill-opacity: 1;"/></g><g class="g-gtitle"/><g class="g-xtitle"/><g class="g-ytitle"/></g></svg>