<?xml version="1.0" standalone="no"?>
<!DOCTYPE svg PUBLIC "-//W3C//DTD SVG 20010904//EN"
 "http://www.w3.org/TR/2001/REC-SVG-20010904/DTD/svg10.dtd">
<svg version="1.0" xmlns="http://www.w3.org/2000/svg"
 width="700.000000pt" height="700.000000pt" viewBox="0 0 700.000000 700.000000"
 preserveAspectRatio="xMidYMid meet">
<metadata>
Created by potrace 1.14, written by Peter Selinger 2001-2017
</metadata>
<g transform="translate(0.000000,700.000000) scale(0.100000,-0.100000)"
fill="#000000" stroke="none">
<path d="M710 6100 c-9 -6 -13 -26 -25 -110 -3 -25 -8 -56 -10 -70 -2 -14 -6
-47 -10 -75 -3 -27 -8 -61 -10 -75 -3 -24 -11 -84 -21 -160 -9 -77 -15 -116
-19 -140 -3 -14 -7 -45 -10 -70 -8 -73 -30 -233 -40 -300 -2 -14 -9 -63 -15
-110 -5 -47 -12 -94 -14 -105 -2 -11 -7 -47 -10 -80 -4 -33 -11 -87 -16 -120
-5 -33 -12 -80 -15 -105 -3 -25 -8 -56 -10 -70 -2 -14 -7 -50 -10 -80 -4 -30
-8 -66 -10 -80 -2 -14 -6 -45 -10 -70 -3 -25 -8 -56 -10 -70 -3 -14 -7 -50
-10 -80 -3 -30 -8 -66 -10 -80 -2 -14 -7 -45 -10 -70 -3 -25 -8 -56 -10 -70
-2 -14 -7 -50 -10 -80 -3 -30 -8 -62 -10 -70 -2 -8 -7 -40 -10 -70 -3 -30 -8
-66 -10 -80 -2 -14 -6 -43 -9 -65 -3 -22 -13 -94 -22 -160 -9 -66 -18 -132
-20 -148 -1 -15 -8 -64 -14 -110 -6 -45 -13 -100 -16 -122 -2 -22 -7 -51 -9
-65 -3 -14 -7 -43 -10 -65 -2 -21 -10 -75 -15 -120 -6 -44 -13 -93 -15 -110
-2 -16 -9 -64 -15 -105 -5 -41 -12 -93 -15 -115 -4 -35 -12 -98 -29 -215 -3
-19 -10 -73 -16 -120 -6 -47 -13 -96 -15 -110 -3 -14 -7 -47 -10 -75 -3 -27
-7 -59 -9 -70 -2 -11 -7 -47 -11 -80 -11 -87 -13 -101 -19 -142 -3 -21 -8 -58
-11 -82 -3 -23 -7 -55 -9 -70 -3 -14 -7 -46 -10 -71 -3 -25 -19 -144 -36 -264
-16 -121 -28 -222 -25 -224 2 -2 352 -4 777 -4 697 0 898 4 969 17 13 3 41 7
64 10 116 17 321 85 412 136 18 11 50 28 71 40 59 33 160 108 242 178 108 92
197 183 495 510 28 30 59 65 70 77 34 37 209 226 235 254 40 44 199 218 269
295 36 38 72 77 80 86 14 14 150 162 219 238 13 14 45 49 70 76 38 40 224 243
267 291 6 6 57 62 115 125 58 62 134 145 169 184 36 38 84 90 107 115 24 25
51 54 61 66 15 18 72 79 223 244 14 15 70 75 124 134 55 59 107 115 116 126
16 19 144 157 284 310 155 167 195 210 277 301 48 52 99 108 114 124 15 17 73
79 129 139 55 60 106 114 111 120 35 40 228 250 267 291 25 28 55 60 67 73 21
26 198 218 246 268 17 18 66 72 110 120 91 100 192 209 218 236 9 10 17 19 17
21 0 1 -356 1 -792 1 l-792 -2 -35 -39 c-85 -93 -270 -294 -436 -473 -38 -41
-74 -80 -80 -86 -5 -6 -48 -53 -95 -104 -47 -51 -96 -105 -110 -120 -32 -35
-208 -225 -281 -304 -31 -34 -68 -74 -83 -91 -37 -41 -93 -101 -211 -229 -55
-60 -111 -121 -125 -136 -14 -15 -69 -75 -124 -134 -54 -58 -107 -116 -118
-128 -11 -13 -57 -63 -103 -113 -46 -49 -95 -103 -111 -120 -15 -16 -72 -79
-128 -139 -56 -60 -109 -118 -119 -130 -10 -12 -42 -46 -70 -76 -62 -66 -245
-264 -308 -334 -24 -27 -57 -63 -74 -81 -16 -17 -75 -80 -130 -140 -55 -60
-125 -136 -155 -169 -54 -59 -146 -158 -185 -200 -23 -25 -210 -229 -270 -295
-22 -24 -62 -67 -88 -95 -27 -28 -83 -89 -125 -135 -42 -47 -88 -97 -102 -111
-14 -15 -47 -51 -75 -81 -27 -30 -95 -104 -151 -164 -56 -61 -124 -135 -153
-165 l-52 -55 6 56 c3 31 7 66 9 76 3 11 7 44 11 74 3 30 8 65 10 79 2 14 7
49 10 79 4 30 8 62 10 71 2 9 6 41 10 71 3 30 13 97 20 150 8 52 17 115 19
140 3 24 7 58 10 74 2 17 8 55 11 85 4 30 9 62 10 70 3 14 10 67 20 150 2 19
11 87 20 150 9 63 18 133 21 155 3 22 7 54 9 70 3 17 14 100 25 185 12 85 23
166 25 180 11 79 16 110 20 150 3 25 7 56 10 70 2 14 7 50 10 80 3 30 10 80
15 110 5 30 12 80 15 110 3 30 8 66 10 80 2 14 7 45 10 70 5 45 13 103 20 150
4 22 11 75 21 150 1 14 6 50 9 80 3 30 8 62 10 70 4 13 30 210 41 300 2 19 6
49 9 65 2 17 7 53 10 80 4 28 8 61 11 75 2 14 11 79 19 145 9 66 18 136 21
155 15 113 24 178 29 210 2 14 11 79 20 145 8 66 18 140 21 165 3 25 8 48 11
53 2 4 -3 10 -11 13 -20 8 -1185 11 -1196 4z"/>
<path d="M2430 6100 c-8 -5 -17 -45 -24 -110 -4 -38 -15 -121 -22 -160 -2 -14
-11 -79 -20 -145 -8 -66 -17 -133 -19 -150 -9 -62 -14 -103 -25 -190 -6 -49
-14 -101 -16 -115 -3 -14 -7 -43 -9 -65 -3 -22 -12 -87 -19 -145 -8 -58 -18
-130 -22 -160 -3 -30 -8 -62 -9 -70 -2 -8 -6 -37 -9 -65 -4 -27 -20 -149 -36
-270 -33 -238 -38 -279 -45 -340 -3 -22 -7 -51 -10 -65 -2 -14 -7 -43 -9 -65
-9 -66 -46 -347 -52 -385 -2 -19 -7 -53 -10 -75 -5 -44 -33 -255 -39 -295 -2
-14 -6 -47 -9 -75 l-6 -50 21 25 c12 14 65 72 118 129 115 124 120 129 241
262 52 57 122 133 156 169 94 102 191 206 289 314 50 54 106 115 125 136 129
139 243 262 281 305 24 27 49 54 55 60 6 5 42 44 80 85 38 42 96 105 129 141
33 36 107 117 165 179 58 63 134 146 170 185 65 71 135 146 180 194 32 35 198
215 229 250 13 14 67 73 121 131 101 109 105 113 225 245 41 44 94 102 119
129 26 27 44 51 42 54 -7 6 -2326 8 -2336 2z"/>
</g>
</svg>
